%TF.GenerationSoftware,KiCad,Pcbnew,(5.0.2)-1*%
%TF.CreationDate,2021-01-27T11:46:28-08:00*%
%TF.ProjectId,scum3c-devboard,7363756d-3363-42d6-9465-76626f617264,rev?*%
%TF.SameCoordinates,Original*%
%TF.FileFunction,Legend,Top*%
%TF.FilePolarity,Positive*%
%FSLAX46Y46*%
G04 Gerber Fmt 4.6, Leading zero omitted, Abs format (unit mm)*
G04 Created by KiCad (PCBNEW (5.0.2)-1) date 1/27/2021 11:46:28 AM*
%MOMM*%
%LPD*%
G01*
G04 APERTURE LIST*
%ADD10C,0.076550*%
%ADD11C,0.096800*%
%ADD12C,0.122200*%
%ADD13C,0.100000*%
%ADD14C,0.127000*%
%ADD15C,0.200000*%
%ADD16C,0.120000*%
%ADD17C,0.150000*%
%ADD18C,0.254000*%
%ADD19C,0.015000*%
G04 APERTURE END LIST*
D10*
X207203080Y-119747876D02*
X207203080Y-119922847D01*
X206896880Y-119835361D02*
X207203080Y-119835361D01*
X207057271Y-120024914D02*
X207057271Y-120126980D01*
X206896880Y-120170723D02*
X206896880Y-120024914D01*
X207203080Y-120024914D01*
X207203080Y-120170723D01*
X207057271Y-120301952D02*
X207057271Y-120404019D01*
X206896880Y-120447761D02*
X206896880Y-120301952D01*
X207203080Y-120301952D01*
X207203080Y-120447761D01*
X206896880Y-120578990D02*
X207203080Y-120578990D01*
X206896880Y-120753961D01*
X207203080Y-120753961D01*
X206911461Y-120885190D02*
X206896880Y-120928933D01*
X206896880Y-121001838D01*
X206911461Y-121031000D01*
X206926042Y-121045580D01*
X206955204Y-121060161D01*
X206984366Y-121060161D01*
X207013528Y-121045580D01*
X207028109Y-121031000D01*
X207042690Y-121001838D01*
X207057271Y-120943514D01*
X207071852Y-120914352D01*
X207086433Y-120899771D01*
X207115595Y-120885190D01*
X207144757Y-120885190D01*
X207173919Y-120899771D01*
X207188500Y-120914352D01*
X207203080Y-120943514D01*
X207203080Y-121016419D01*
X207188500Y-121060161D01*
X207042690Y-121249714D02*
X206896880Y-121249714D01*
X207203080Y-121147647D02*
X207042690Y-121249714D01*
X207203080Y-121351780D01*
X207203080Y-121657980D02*
X207203080Y-121847533D01*
X207086433Y-121745466D01*
X207086433Y-121789209D01*
X207071852Y-121818371D01*
X207057271Y-121832952D01*
X207028109Y-121847533D01*
X206955204Y-121847533D01*
X206926042Y-121832952D01*
X206911461Y-121818371D01*
X206896880Y-121789209D01*
X206896880Y-121701723D01*
X206911461Y-121672561D01*
X206926042Y-121657980D01*
X206926042Y-121978761D02*
X206911461Y-121993342D01*
X206896880Y-121978761D01*
X206911461Y-121964180D01*
X206926042Y-121978761D01*
X206896880Y-121978761D01*
X207203080Y-122095409D02*
X207203080Y-122284961D01*
X207086433Y-122182895D01*
X207086433Y-122226638D01*
X207071852Y-122255800D01*
X207057271Y-122270380D01*
X207028109Y-122284961D01*
X206955204Y-122284961D01*
X206926042Y-122270380D01*
X206911461Y-122255800D01*
X206896880Y-122226638D01*
X206896880Y-122139152D01*
X206911461Y-122109990D01*
X206926042Y-122095409D01*
X207228480Y-115514766D02*
X206980604Y-115514766D01*
X206951442Y-115529347D01*
X206936861Y-115543928D01*
X206922280Y-115573090D01*
X206922280Y-115631414D01*
X206936861Y-115660576D01*
X206951442Y-115675157D01*
X206980604Y-115689738D01*
X207228480Y-115689738D01*
X207009766Y-115820966D02*
X207009766Y-115966776D01*
X206922280Y-115791804D02*
X207228480Y-115893871D01*
X206922280Y-115995938D01*
X206922280Y-116272976D02*
X207068090Y-116170909D01*
X206922280Y-116098004D02*
X207228480Y-116098004D01*
X207228480Y-116214652D01*
X207213900Y-116243814D01*
X207199319Y-116258395D01*
X207170157Y-116272976D01*
X207126414Y-116272976D01*
X207097252Y-116258395D01*
X207082671Y-116243814D01*
X207068090Y-116214652D01*
X207068090Y-116098004D01*
X207228480Y-116360461D02*
X207228480Y-116535433D01*
X206922280Y-116447947D02*
X207228480Y-116447947D01*
X207228480Y-116841633D02*
X207228480Y-117031185D01*
X207111833Y-116929119D01*
X207111833Y-116972861D01*
X207097252Y-117002023D01*
X207082671Y-117016604D01*
X207053509Y-117031185D01*
X206980604Y-117031185D01*
X206951442Y-117016604D01*
X206936861Y-117002023D01*
X206922280Y-116972861D01*
X206922280Y-116885376D01*
X206936861Y-116856214D01*
X206951442Y-116841633D01*
X206951442Y-117162414D02*
X206936861Y-117176995D01*
X206922280Y-117162414D01*
X206936861Y-117147833D01*
X206951442Y-117162414D01*
X206922280Y-117162414D01*
X207228480Y-117279061D02*
X207228480Y-117468614D01*
X207111833Y-117366547D01*
X207111833Y-117410290D01*
X207097252Y-117439452D01*
X207082671Y-117454033D01*
X207053509Y-117468614D01*
X206980604Y-117468614D01*
X206951442Y-117454033D01*
X206936861Y-117439452D01*
X206922280Y-117410290D01*
X206922280Y-117322804D01*
X206936861Y-117293642D01*
X206951442Y-117279061D01*
X198746542Y-108418719D02*
X198571571Y-108418719D01*
X198659057Y-108418719D02*
X198659057Y-108112519D01*
X198629895Y-108156261D01*
X198600733Y-108185423D01*
X198571571Y-108200004D01*
X198877771Y-108389557D02*
X198892352Y-108404138D01*
X198877771Y-108418719D01*
X198863190Y-108404138D01*
X198877771Y-108389557D01*
X198877771Y-108418719D01*
X199067323Y-108243747D02*
X199038161Y-108229166D01*
X199023580Y-108214585D01*
X199009000Y-108185423D01*
X199009000Y-108170842D01*
X199023580Y-108141680D01*
X199038161Y-108127100D01*
X199067323Y-108112519D01*
X199125647Y-108112519D01*
X199154809Y-108127100D01*
X199169390Y-108141680D01*
X199183971Y-108170842D01*
X199183971Y-108185423D01*
X199169390Y-108214585D01*
X199154809Y-108229166D01*
X199125647Y-108243747D01*
X199067323Y-108243747D01*
X199038161Y-108258328D01*
X199023580Y-108272909D01*
X199009000Y-108302071D01*
X199009000Y-108360395D01*
X199023580Y-108389557D01*
X199038161Y-108404138D01*
X199067323Y-108418719D01*
X199125647Y-108418719D01*
X199154809Y-108404138D01*
X199169390Y-108389557D01*
X199183971Y-108360395D01*
X199183971Y-108302071D01*
X199169390Y-108272909D01*
X199154809Y-108258328D01*
X199125647Y-108243747D01*
X199271457Y-108112519D02*
X199373523Y-108418719D01*
X199475590Y-108112519D01*
X196159038Y-110576319D02*
X196261104Y-110882519D01*
X196363171Y-110576319D01*
X196465238Y-110882519D02*
X196465238Y-110576319D01*
X196611047Y-110882519D02*
X196611047Y-110576319D01*
X196786019Y-110882519D01*
X196786019Y-110576319D01*
X201045957Y-110500119D02*
X201148023Y-110806319D01*
X201250090Y-110500119D01*
X201454223Y-110645928D02*
X201497966Y-110660509D01*
X201512547Y-110675090D01*
X201527128Y-110704252D01*
X201527128Y-110747995D01*
X201512547Y-110777157D01*
X201497966Y-110791738D01*
X201468804Y-110806319D01*
X201352157Y-110806319D01*
X201352157Y-110500119D01*
X201454223Y-110500119D01*
X201483385Y-110514700D01*
X201497966Y-110529280D01*
X201512547Y-110558442D01*
X201512547Y-110587604D01*
X201497966Y-110616766D01*
X201483385Y-110631347D01*
X201454223Y-110645928D01*
X201352157Y-110645928D01*
X201643776Y-110718833D02*
X201789585Y-110718833D01*
X201614614Y-110806319D02*
X201716680Y-110500119D01*
X201818747Y-110806319D01*
X201877071Y-110500119D02*
X202052042Y-110500119D01*
X201964557Y-110806319D02*
X201964557Y-110500119D01*
X201071357Y-114183119D02*
X201173423Y-114489319D01*
X201275490Y-114183119D01*
X201479623Y-114328928D02*
X201523366Y-114343509D01*
X201537947Y-114358090D01*
X201552528Y-114387252D01*
X201552528Y-114430995D01*
X201537947Y-114460157D01*
X201523366Y-114474738D01*
X201494204Y-114489319D01*
X201377557Y-114489319D01*
X201377557Y-114183119D01*
X201479623Y-114183119D01*
X201508785Y-114197700D01*
X201523366Y-114212280D01*
X201537947Y-114241442D01*
X201537947Y-114270604D01*
X201523366Y-114299766D01*
X201508785Y-114314347D01*
X201479623Y-114328928D01*
X201377557Y-114328928D01*
X201669176Y-114401833D02*
X201814985Y-114401833D01*
X201640014Y-114489319D02*
X201742080Y-114183119D01*
X201844147Y-114489319D01*
X201902471Y-114183119D02*
X202077442Y-114183119D01*
X201989957Y-114489319D02*
X201989957Y-114183119D01*
X196476057Y-114489319D02*
X196301085Y-114489319D01*
X196388571Y-114489319D02*
X196388571Y-114183119D01*
X196359409Y-114226861D01*
X196330247Y-114256023D01*
X196301085Y-114270604D01*
X196563542Y-114183119D02*
X196665609Y-114489319D01*
X196767676Y-114183119D01*
D11*
X222186542Y-77154152D02*
X222186542Y-77545961D01*
X222209590Y-77592057D01*
X222232638Y-77615104D01*
X222278733Y-77638152D01*
X222370923Y-77638152D01*
X222417019Y-77615104D01*
X222440066Y-77592057D01*
X222463114Y-77545961D01*
X222463114Y-77154152D01*
X222670542Y-77615104D02*
X222739685Y-77638152D01*
X222854923Y-77638152D01*
X222901019Y-77615104D01*
X222924066Y-77592057D01*
X222947114Y-77545961D01*
X222947114Y-77499866D01*
X222924066Y-77453771D01*
X222901019Y-77430723D01*
X222854923Y-77407676D01*
X222762733Y-77384628D01*
X222716638Y-77361580D01*
X222693590Y-77338533D01*
X222670542Y-77292438D01*
X222670542Y-77246342D01*
X222693590Y-77200247D01*
X222716638Y-77177200D01*
X222762733Y-77154152D01*
X222877971Y-77154152D01*
X222947114Y-77177200D01*
X223315876Y-77384628D02*
X223385019Y-77407676D01*
X223408066Y-77430723D01*
X223431114Y-77476819D01*
X223431114Y-77545961D01*
X223408066Y-77592057D01*
X223385019Y-77615104D01*
X223338923Y-77638152D01*
X223154542Y-77638152D01*
X223154542Y-77154152D01*
X223315876Y-77154152D01*
X223361971Y-77177200D01*
X223385019Y-77200247D01*
X223408066Y-77246342D01*
X223408066Y-77292438D01*
X223385019Y-77338533D01*
X223361971Y-77361580D01*
X223315876Y-77384628D01*
X223154542Y-77384628D01*
X224283876Y-77638152D02*
X224122542Y-77407676D01*
X224007304Y-77638152D02*
X224007304Y-77154152D01*
X224191685Y-77154152D01*
X224237780Y-77177200D01*
X224260828Y-77200247D01*
X224283876Y-77246342D01*
X224283876Y-77315485D01*
X224260828Y-77361580D01*
X224237780Y-77384628D01*
X224191685Y-77407676D01*
X224007304Y-77407676D01*
X224445209Y-77638152D02*
X224698733Y-77315485D01*
X224445209Y-77315485D02*
X224698733Y-77638152D01*
X225228828Y-77131104D02*
X224813971Y-77753390D01*
X225321019Y-77154152D02*
X225597590Y-77154152D01*
X225459304Y-77638152D02*
X225459304Y-77154152D01*
X225712828Y-77638152D02*
X225966352Y-77315485D01*
X225712828Y-77315485D02*
X225966352Y-77638152D01*
X195477238Y-87796752D02*
X195477238Y-88188561D01*
X195500285Y-88234657D01*
X195523333Y-88257704D01*
X195569428Y-88280752D01*
X195661619Y-88280752D01*
X195707714Y-88257704D01*
X195730761Y-88234657D01*
X195753809Y-88188561D01*
X195753809Y-87796752D01*
X195961238Y-88257704D02*
X196030380Y-88280752D01*
X196145619Y-88280752D01*
X196191714Y-88257704D01*
X196214761Y-88234657D01*
X196237809Y-88188561D01*
X196237809Y-88142466D01*
X196214761Y-88096371D01*
X196191714Y-88073323D01*
X196145619Y-88050276D01*
X196053428Y-88027228D01*
X196007333Y-88004180D01*
X195984285Y-87981133D01*
X195961238Y-87935038D01*
X195961238Y-87888942D01*
X195984285Y-87842847D01*
X196007333Y-87819800D01*
X196053428Y-87796752D01*
X196168666Y-87796752D01*
X196237809Y-87819800D01*
X196606571Y-88027228D02*
X196675714Y-88050276D01*
X196698761Y-88073323D01*
X196721809Y-88119419D01*
X196721809Y-88188561D01*
X196698761Y-88234657D01*
X196675714Y-88257704D01*
X196629619Y-88280752D01*
X196445238Y-88280752D01*
X196445238Y-87796752D01*
X196606571Y-87796752D01*
X196652666Y-87819800D01*
X196675714Y-87842847D01*
X196698761Y-87888942D01*
X196698761Y-87935038D01*
X196675714Y-87981133D01*
X196652666Y-88004180D01*
X196606571Y-88027228D01*
X196445238Y-88027228D01*
X210194647Y-83340704D02*
X210678647Y-83340704D01*
X210194647Y-83571180D02*
X210678647Y-83571180D01*
X210332933Y-83732514D01*
X210678647Y-83893847D01*
X210194647Y-83893847D01*
X210678647Y-84124323D02*
X210286838Y-84124323D01*
X210240742Y-84147371D01*
X210217695Y-84170419D01*
X210194647Y-84216514D01*
X210194647Y-84308704D01*
X210217695Y-84354800D01*
X210240742Y-84377847D01*
X210286838Y-84400895D01*
X210678647Y-84400895D01*
X220992000Y-110669200D02*
X220968952Y-110715295D01*
X220968952Y-110784438D01*
X220992000Y-110853580D01*
X221038095Y-110899676D01*
X221084190Y-110922723D01*
X221176380Y-110945771D01*
X221245523Y-110945771D01*
X221337714Y-110922723D01*
X221383809Y-110899676D01*
X221429904Y-110853580D01*
X221452952Y-110784438D01*
X221452952Y-110738342D01*
X221429904Y-110669200D01*
X221406857Y-110646152D01*
X221245523Y-110646152D01*
X221245523Y-110738342D01*
X221452952Y-110438723D02*
X220968952Y-110438723D01*
X220968952Y-110254342D01*
X220992000Y-110208247D01*
X221015047Y-110185200D01*
X221061142Y-110162152D01*
X221130285Y-110162152D01*
X221176380Y-110185200D01*
X221199428Y-110208247D01*
X221222476Y-110254342D01*
X221222476Y-110438723D01*
X221452952Y-109954723D02*
X220968952Y-109954723D01*
X220968952Y-109632057D02*
X220968952Y-109539866D01*
X220992000Y-109493771D01*
X221038095Y-109447676D01*
X221130285Y-109424628D01*
X221291619Y-109424628D01*
X221383809Y-109447676D01*
X221429904Y-109493771D01*
X221452952Y-109539866D01*
X221452952Y-109632057D01*
X221429904Y-109678152D01*
X221383809Y-109724247D01*
X221291619Y-109747295D01*
X221130285Y-109747295D01*
X221038095Y-109724247D01*
X220992000Y-109678152D01*
X220968952Y-109632057D01*
X208934561Y-78857352D02*
X208934561Y-78373352D01*
X209141990Y-78419447D02*
X209165038Y-78396400D01*
X209211133Y-78373352D01*
X209326371Y-78373352D01*
X209372466Y-78396400D01*
X209395514Y-78419447D01*
X209418561Y-78465542D01*
X209418561Y-78511638D01*
X209395514Y-78580780D01*
X209118942Y-78857352D01*
X209418561Y-78857352D01*
X209902561Y-78811257D02*
X209879514Y-78834304D01*
X209810371Y-78857352D01*
X209764276Y-78857352D01*
X209695133Y-78834304D01*
X209649038Y-78788209D01*
X209625990Y-78742114D01*
X209602942Y-78649923D01*
X209602942Y-78580780D01*
X209625990Y-78488590D01*
X209649038Y-78442495D01*
X209695133Y-78396400D01*
X209764276Y-78373352D01*
X209810371Y-78373352D01*
X209879514Y-78396400D01*
X209902561Y-78419447D01*
X210478752Y-78857352D02*
X210478752Y-78373352D01*
X210663133Y-78373352D01*
X210709228Y-78396400D01*
X210732276Y-78419447D01*
X210755323Y-78465542D01*
X210755323Y-78534685D01*
X210732276Y-78580780D01*
X210709228Y-78603828D01*
X210663133Y-78626876D01*
X210478752Y-78626876D01*
X211170180Y-78534685D02*
X211170180Y-78857352D01*
X210962752Y-78534685D02*
X210962752Y-78788209D01*
X210985800Y-78834304D01*
X211031895Y-78857352D01*
X211101038Y-78857352D01*
X211147133Y-78834304D01*
X211170180Y-78811257D01*
X211469800Y-78857352D02*
X211423704Y-78834304D01*
X211400657Y-78788209D01*
X211400657Y-78373352D01*
X211723323Y-78857352D02*
X211677228Y-78834304D01*
X211654180Y-78788209D01*
X211654180Y-78373352D01*
X212115133Y-78534685D02*
X212115133Y-78857352D01*
X211907704Y-78534685D02*
X211907704Y-78788209D01*
X211930752Y-78834304D01*
X211976847Y-78857352D01*
X212045990Y-78857352D01*
X212092085Y-78834304D01*
X212115133Y-78811257D01*
X212345609Y-78534685D02*
X212345609Y-79018685D01*
X212345609Y-78557733D02*
X212391704Y-78534685D01*
X212483895Y-78534685D01*
X212529990Y-78557733D01*
X212553038Y-78580780D01*
X212576085Y-78626876D01*
X212576085Y-78765161D01*
X212553038Y-78811257D01*
X212529990Y-78834304D01*
X212483895Y-78857352D01*
X212391704Y-78857352D01*
X212345609Y-78834304D01*
D10*
X207685680Y-117817709D02*
X207379480Y-117919776D01*
X207685680Y-118021842D01*
X207379480Y-118123909D02*
X207685680Y-118123909D01*
X207379480Y-118269719D02*
X207685680Y-118269719D01*
X207379480Y-118444690D01*
X207685680Y-118444690D01*
X207394061Y-118809214D02*
X207379480Y-118852957D01*
X207379480Y-118925861D01*
X207394061Y-118955023D01*
X207408642Y-118969604D01*
X207437804Y-118984185D01*
X207466966Y-118984185D01*
X207496128Y-118969604D01*
X207510709Y-118955023D01*
X207525290Y-118925861D01*
X207539871Y-118867538D01*
X207554452Y-118838376D01*
X207569033Y-118823795D01*
X207598195Y-118809214D01*
X207627357Y-118809214D01*
X207656519Y-118823795D01*
X207671100Y-118838376D01*
X207685680Y-118867538D01*
X207685680Y-118940442D01*
X207671100Y-118984185D01*
X207379480Y-119159157D02*
X207394061Y-119129995D01*
X207408642Y-119115414D01*
X207437804Y-119100833D01*
X207525290Y-119100833D01*
X207554452Y-119115414D01*
X207569033Y-119129995D01*
X207583614Y-119159157D01*
X207583614Y-119202900D01*
X207569033Y-119232061D01*
X207554452Y-119246642D01*
X207525290Y-119261223D01*
X207437804Y-119261223D01*
X207408642Y-119246642D01*
X207394061Y-119232061D01*
X207379480Y-119202900D01*
X207379480Y-119159157D01*
X207583614Y-119523680D02*
X207379480Y-119523680D01*
X207583614Y-119392452D02*
X207423223Y-119392452D01*
X207394061Y-119407033D01*
X207379480Y-119436195D01*
X207379480Y-119479938D01*
X207394061Y-119509100D01*
X207408642Y-119523680D01*
X207379480Y-119669490D02*
X207583614Y-119669490D01*
X207525290Y-119669490D02*
X207554452Y-119684071D01*
X207569033Y-119698652D01*
X207583614Y-119727814D01*
X207583614Y-119756976D01*
X207394061Y-119990271D02*
X207379480Y-119961109D01*
X207379480Y-119902785D01*
X207394061Y-119873623D01*
X207408642Y-119859042D01*
X207437804Y-119844461D01*
X207525290Y-119844461D01*
X207554452Y-119859042D01*
X207569033Y-119873623D01*
X207583614Y-119902785D01*
X207583614Y-119961109D01*
X207569033Y-119990271D01*
X207394061Y-120238147D02*
X207379480Y-120208985D01*
X207379480Y-120150661D01*
X207394061Y-120121500D01*
X207423223Y-120106919D01*
X207539871Y-120106919D01*
X207569033Y-120121500D01*
X207583614Y-120150661D01*
X207583614Y-120208985D01*
X207569033Y-120238147D01*
X207539871Y-120252728D01*
X207510709Y-120252728D01*
X207481547Y-120106919D01*
X194757080Y-114721504D02*
X194450880Y-114823571D01*
X194757080Y-114925638D01*
X194450880Y-115027704D02*
X194757080Y-115027704D01*
X194757080Y-115100609D01*
X194742500Y-115144352D01*
X194713338Y-115173514D01*
X194684176Y-115188095D01*
X194625852Y-115202676D01*
X194582109Y-115202676D01*
X194523785Y-115188095D01*
X194494623Y-115173514D01*
X194465461Y-115144352D01*
X194450880Y-115100609D01*
X194450880Y-115027704D01*
X194450880Y-115333904D02*
X194757080Y-115333904D01*
X194757080Y-115406809D01*
X194742500Y-115450552D01*
X194713338Y-115479714D01*
X194684176Y-115494295D01*
X194625852Y-115508876D01*
X194582109Y-115508876D01*
X194523785Y-115494295D01*
X194494623Y-115479714D01*
X194465461Y-115450552D01*
X194450880Y-115406809D01*
X194450880Y-115333904D01*
X194450880Y-115640104D02*
X194757080Y-115640104D01*
X194757080Y-115713009D01*
X194742500Y-115756752D01*
X194713338Y-115785914D01*
X194684176Y-115800495D01*
X194625852Y-115815076D01*
X194582109Y-115815076D01*
X194523785Y-115800495D01*
X194494623Y-115785914D01*
X194465461Y-115756752D01*
X194450880Y-115713009D01*
X194450880Y-115640104D01*
X194465461Y-116165019D02*
X194450880Y-116208761D01*
X194450880Y-116281666D01*
X194465461Y-116310828D01*
X194480042Y-116325409D01*
X194509204Y-116339990D01*
X194538366Y-116339990D01*
X194567528Y-116325409D01*
X194582109Y-116310828D01*
X194596690Y-116281666D01*
X194611271Y-116223342D01*
X194625852Y-116194180D01*
X194640433Y-116179600D01*
X194669595Y-116165019D01*
X194698757Y-116165019D01*
X194727919Y-116179600D01*
X194742500Y-116194180D01*
X194757080Y-116223342D01*
X194757080Y-116296247D01*
X194742500Y-116339990D01*
X194450880Y-116514961D02*
X194465461Y-116485800D01*
X194480042Y-116471219D01*
X194509204Y-116456638D01*
X194596690Y-116456638D01*
X194625852Y-116471219D01*
X194640433Y-116485800D01*
X194655014Y-116514961D01*
X194655014Y-116558704D01*
X194640433Y-116587866D01*
X194625852Y-116602447D01*
X194596690Y-116617028D01*
X194509204Y-116617028D01*
X194480042Y-116602447D01*
X194465461Y-116587866D01*
X194450880Y-116558704D01*
X194450880Y-116514961D01*
X194655014Y-116879485D02*
X194450880Y-116879485D01*
X194655014Y-116748257D02*
X194494623Y-116748257D01*
X194465461Y-116762838D01*
X194450880Y-116792000D01*
X194450880Y-116835742D01*
X194465461Y-116864904D01*
X194480042Y-116879485D01*
X194450880Y-117025295D02*
X194655014Y-117025295D01*
X194596690Y-117025295D02*
X194625852Y-117039876D01*
X194640433Y-117054457D01*
X194655014Y-117083619D01*
X194655014Y-117112780D01*
X194465461Y-117346076D02*
X194450880Y-117316914D01*
X194450880Y-117258590D01*
X194465461Y-117229428D01*
X194480042Y-117214847D01*
X194509204Y-117200266D01*
X194596690Y-117200266D01*
X194625852Y-117214847D01*
X194640433Y-117229428D01*
X194655014Y-117258590D01*
X194655014Y-117316914D01*
X194640433Y-117346076D01*
X194465461Y-117593952D02*
X194450880Y-117564790D01*
X194450880Y-117506466D01*
X194465461Y-117477304D01*
X194494623Y-117462723D01*
X194611271Y-117462723D01*
X194640433Y-117477304D01*
X194655014Y-117506466D01*
X194655014Y-117564790D01*
X194640433Y-117593952D01*
X194611271Y-117608533D01*
X194582109Y-117608533D01*
X194552947Y-117462723D01*
D11*
X221619523Y-67654552D02*
X221896095Y-67654552D01*
X221757809Y-68138552D02*
X221757809Y-67654552D01*
X222241809Y-68115504D02*
X222195714Y-68138552D01*
X222103523Y-68138552D01*
X222057428Y-68115504D01*
X222034380Y-68069409D01*
X222034380Y-67885028D01*
X222057428Y-67838933D01*
X222103523Y-67815885D01*
X222195714Y-67815885D01*
X222241809Y-67838933D01*
X222264857Y-67885028D01*
X222264857Y-67931123D01*
X222034380Y-67977219D01*
X222656666Y-68115504D02*
X222610571Y-68138552D01*
X222518380Y-68138552D01*
X222472285Y-68115504D01*
X222449238Y-68069409D01*
X222449238Y-67885028D01*
X222472285Y-67838933D01*
X222518380Y-67815885D01*
X222610571Y-67815885D01*
X222656666Y-67838933D01*
X222679714Y-67885028D01*
X222679714Y-67931123D01*
X222449238Y-67977219D01*
X222887142Y-67815885D02*
X222887142Y-68138552D01*
X222887142Y-67861980D02*
X222910190Y-67838933D01*
X222956285Y-67815885D01*
X223025428Y-67815885D01*
X223071523Y-67838933D01*
X223094571Y-67885028D01*
X223094571Y-68138552D01*
X223302000Y-68115504D02*
X223348095Y-68138552D01*
X223440285Y-68138552D01*
X223486380Y-68115504D01*
X223509428Y-68069409D01*
X223509428Y-68046361D01*
X223486380Y-68000266D01*
X223440285Y-67977219D01*
X223371142Y-67977219D01*
X223325047Y-67954171D01*
X223302000Y-67908076D01*
X223302000Y-67885028D01*
X223325047Y-67838933D01*
X223371142Y-67815885D01*
X223440285Y-67815885D01*
X223486380Y-67838933D01*
X223670761Y-67815885D02*
X223786000Y-68138552D01*
X223901238Y-67815885D02*
X223786000Y-68138552D01*
X223739904Y-68253790D01*
X223716857Y-68276838D01*
X223670761Y-68299885D01*
X224730952Y-68138552D02*
X224569619Y-67908076D01*
X224454380Y-68138552D02*
X224454380Y-67654552D01*
X224638761Y-67654552D01*
X224684857Y-67677600D01*
X224707904Y-67700647D01*
X224730952Y-67746742D01*
X224730952Y-67815885D01*
X224707904Y-67861980D01*
X224684857Y-67885028D01*
X224638761Y-67908076D01*
X224454380Y-67908076D01*
X224892285Y-68138552D02*
X225145809Y-67815885D01*
X224892285Y-67815885D02*
X225145809Y-68138552D01*
X225675904Y-67631504D02*
X225261047Y-68253790D01*
X225768095Y-67654552D02*
X226044666Y-67654552D01*
X225906380Y-68138552D02*
X225906380Y-67654552D01*
X226159904Y-68138552D02*
X226413428Y-67815885D01*
X226159904Y-67815885D02*
X226413428Y-68138552D01*
X232144952Y-77589885D02*
X232144952Y-77313314D01*
X232628952Y-77451600D02*
X232144952Y-77451600D01*
X232605904Y-76967600D02*
X232628952Y-77013695D01*
X232628952Y-77105885D01*
X232605904Y-77151980D01*
X232559809Y-77175028D01*
X232375428Y-77175028D01*
X232329333Y-77151980D01*
X232306285Y-77105885D01*
X232306285Y-77013695D01*
X232329333Y-76967600D01*
X232375428Y-76944552D01*
X232421523Y-76944552D01*
X232467619Y-77175028D01*
X232605904Y-76552742D02*
X232628952Y-76598838D01*
X232628952Y-76691028D01*
X232605904Y-76737123D01*
X232559809Y-76760171D01*
X232375428Y-76760171D01*
X232329333Y-76737123D01*
X232306285Y-76691028D01*
X232306285Y-76598838D01*
X232329333Y-76552742D01*
X232375428Y-76529695D01*
X232421523Y-76529695D01*
X232467619Y-76760171D01*
X232306285Y-76322266D02*
X232628952Y-76322266D01*
X232352380Y-76322266D02*
X232329333Y-76299219D01*
X232306285Y-76253123D01*
X232306285Y-76183980D01*
X232329333Y-76137885D01*
X232375428Y-76114838D01*
X232628952Y-76114838D01*
X232605904Y-75907409D02*
X232628952Y-75861314D01*
X232628952Y-75769123D01*
X232605904Y-75723028D01*
X232559809Y-75699980D01*
X232536761Y-75699980D01*
X232490666Y-75723028D01*
X232467619Y-75769123D01*
X232467619Y-75838266D01*
X232444571Y-75884361D01*
X232398476Y-75907409D01*
X232375428Y-75907409D01*
X232329333Y-75884361D01*
X232306285Y-75838266D01*
X232306285Y-75769123D01*
X232329333Y-75723028D01*
X232306285Y-75538647D02*
X232628952Y-75423409D01*
X232306285Y-75308171D02*
X232628952Y-75423409D01*
X232744190Y-75469504D01*
X232767238Y-75492552D01*
X232790285Y-75538647D01*
X232628952Y-74755028D02*
X232144952Y-74755028D01*
X232144952Y-74570647D01*
X232168000Y-74524552D01*
X232191047Y-74501504D01*
X232237142Y-74478457D01*
X232306285Y-74478457D01*
X232352380Y-74501504D01*
X232375428Y-74524552D01*
X232398476Y-74570647D01*
X232398476Y-74755028D01*
X232628952Y-74271028D02*
X232306285Y-74271028D01*
X232144952Y-74271028D02*
X232168000Y-74294076D01*
X232191047Y-74271028D01*
X232168000Y-74247980D01*
X232144952Y-74271028D01*
X232191047Y-74271028D01*
X232306285Y-74040552D02*
X232628952Y-74040552D01*
X232352380Y-74040552D02*
X232329333Y-74017504D01*
X232306285Y-73971409D01*
X232306285Y-73902266D01*
X232329333Y-73856171D01*
X232375428Y-73833123D01*
X232628952Y-73833123D01*
X232144952Y-73279980D02*
X232144952Y-72980361D01*
X232329333Y-73141695D01*
X232329333Y-73072552D01*
X232352380Y-73026457D01*
X232375428Y-73003409D01*
X232421523Y-72980361D01*
X232536761Y-72980361D01*
X232582857Y-73003409D01*
X232605904Y-73026457D01*
X232628952Y-73072552D01*
X232628952Y-73210838D01*
X232605904Y-73256933D01*
X232582857Y-73279980D01*
X232144952Y-72819028D02*
X232144952Y-72519409D01*
X232329333Y-72680742D01*
X232329333Y-72611600D01*
X232352380Y-72565504D01*
X232375428Y-72542457D01*
X232421523Y-72519409D01*
X232536761Y-72519409D01*
X232582857Y-72542457D01*
X232605904Y-72565504D01*
X232628952Y-72611600D01*
X232628952Y-72749885D01*
X232605904Y-72795980D01*
X232582857Y-72819028D01*
X232144952Y-128466085D02*
X232144952Y-128189514D01*
X232628952Y-128327800D02*
X232144952Y-128327800D01*
X232605904Y-127843800D02*
X232628952Y-127889895D01*
X232628952Y-127982085D01*
X232605904Y-128028180D01*
X232559809Y-128051228D01*
X232375428Y-128051228D01*
X232329333Y-128028180D01*
X232306285Y-127982085D01*
X232306285Y-127889895D01*
X232329333Y-127843800D01*
X232375428Y-127820752D01*
X232421523Y-127820752D01*
X232467619Y-128051228D01*
X232605904Y-127428942D02*
X232628952Y-127475038D01*
X232628952Y-127567228D01*
X232605904Y-127613323D01*
X232559809Y-127636371D01*
X232375428Y-127636371D01*
X232329333Y-127613323D01*
X232306285Y-127567228D01*
X232306285Y-127475038D01*
X232329333Y-127428942D01*
X232375428Y-127405895D01*
X232421523Y-127405895D01*
X232467619Y-127636371D01*
X232306285Y-127198466D02*
X232628952Y-127198466D01*
X232352380Y-127198466D02*
X232329333Y-127175419D01*
X232306285Y-127129323D01*
X232306285Y-127060180D01*
X232329333Y-127014085D01*
X232375428Y-126991038D01*
X232628952Y-126991038D01*
X232605904Y-126783609D02*
X232628952Y-126737514D01*
X232628952Y-126645323D01*
X232605904Y-126599228D01*
X232559809Y-126576180D01*
X232536761Y-126576180D01*
X232490666Y-126599228D01*
X232467619Y-126645323D01*
X232467619Y-126714466D01*
X232444571Y-126760561D01*
X232398476Y-126783609D01*
X232375428Y-126783609D01*
X232329333Y-126760561D01*
X232306285Y-126714466D01*
X232306285Y-126645323D01*
X232329333Y-126599228D01*
X232306285Y-126414847D02*
X232628952Y-126299609D01*
X232306285Y-126184371D02*
X232628952Y-126299609D01*
X232744190Y-126345704D01*
X232767238Y-126368752D01*
X232790285Y-126414847D01*
X232628952Y-125631228D02*
X232144952Y-125631228D01*
X232144952Y-125446847D01*
X232168000Y-125400752D01*
X232191047Y-125377704D01*
X232237142Y-125354657D01*
X232306285Y-125354657D01*
X232352380Y-125377704D01*
X232375428Y-125400752D01*
X232398476Y-125446847D01*
X232398476Y-125631228D01*
X232628952Y-125147228D02*
X232306285Y-125147228D01*
X232144952Y-125147228D02*
X232168000Y-125170276D01*
X232191047Y-125147228D01*
X232168000Y-125124180D01*
X232144952Y-125147228D01*
X232191047Y-125147228D01*
X232306285Y-124916752D02*
X232628952Y-124916752D01*
X232352380Y-124916752D02*
X232329333Y-124893704D01*
X232306285Y-124847609D01*
X232306285Y-124778466D01*
X232329333Y-124732371D01*
X232375428Y-124709323D01*
X232628952Y-124709323D01*
X232191047Y-124133133D02*
X232168000Y-124110085D01*
X232144952Y-124063990D01*
X232144952Y-123948752D01*
X232168000Y-123902657D01*
X232191047Y-123879609D01*
X232237142Y-123856561D01*
X232283238Y-123856561D01*
X232352380Y-123879609D01*
X232628952Y-124156180D01*
X232628952Y-123856561D01*
X232144952Y-123695228D02*
X232144952Y-123395609D01*
X232329333Y-123556942D01*
X232329333Y-123487800D01*
X232352380Y-123441704D01*
X232375428Y-123418657D01*
X232421523Y-123395609D01*
X232536761Y-123395609D01*
X232582857Y-123418657D01*
X232605904Y-123441704D01*
X232628952Y-123487800D01*
X232628952Y-123626085D01*
X232605904Y-123672180D01*
X232582857Y-123695228D01*
X195713400Y-73975552D02*
X195713400Y-73491552D01*
X195828638Y-73491552D01*
X195897780Y-73514600D01*
X195943876Y-73560695D01*
X195966923Y-73606790D01*
X195989971Y-73698980D01*
X195989971Y-73768123D01*
X195966923Y-73860314D01*
X195943876Y-73906409D01*
X195897780Y-73952504D01*
X195828638Y-73975552D01*
X195713400Y-73975552D01*
X196381780Y-73952504D02*
X196335685Y-73975552D01*
X196243495Y-73975552D01*
X196197400Y-73952504D01*
X196174352Y-73906409D01*
X196174352Y-73722028D01*
X196197400Y-73675933D01*
X196243495Y-73652885D01*
X196335685Y-73652885D01*
X196381780Y-73675933D01*
X196404828Y-73722028D01*
X196404828Y-73768123D01*
X196174352Y-73814219D01*
X196566161Y-73652885D02*
X196681400Y-73975552D01*
X196796638Y-73652885D01*
X197165400Y-73952504D02*
X197119304Y-73975552D01*
X197027114Y-73975552D01*
X196981019Y-73952504D01*
X196957971Y-73906409D01*
X196957971Y-73722028D01*
X196981019Y-73675933D01*
X197027114Y-73652885D01*
X197119304Y-73652885D01*
X197165400Y-73675933D01*
X197188447Y-73722028D01*
X197188447Y-73768123D01*
X196957971Y-73814219D01*
X197465019Y-73975552D02*
X197418923Y-73952504D01*
X197395876Y-73906409D01*
X197395876Y-73491552D01*
X197718542Y-73975552D02*
X197672447Y-73952504D01*
X197649400Y-73929457D01*
X197626352Y-73883361D01*
X197626352Y-73745076D01*
X197649400Y-73698980D01*
X197672447Y-73675933D01*
X197718542Y-73652885D01*
X197787685Y-73652885D01*
X197833780Y-73675933D01*
X197856828Y-73698980D01*
X197879876Y-73745076D01*
X197879876Y-73883361D01*
X197856828Y-73929457D01*
X197833780Y-73952504D01*
X197787685Y-73975552D01*
X197718542Y-73975552D01*
X198087304Y-73652885D02*
X198087304Y-74136885D01*
X198087304Y-73675933D02*
X198133400Y-73652885D01*
X198225590Y-73652885D01*
X198271685Y-73675933D01*
X198294733Y-73698980D01*
X198317780Y-73745076D01*
X198317780Y-73883361D01*
X198294733Y-73929457D01*
X198271685Y-73952504D01*
X198225590Y-73975552D01*
X198133400Y-73975552D01*
X198087304Y-73952504D01*
X198525209Y-73975552D02*
X198525209Y-73652885D01*
X198525209Y-73698980D02*
X198548257Y-73675933D01*
X198594352Y-73652885D01*
X198663495Y-73652885D01*
X198709590Y-73675933D01*
X198732638Y-73722028D01*
X198732638Y-73975552D01*
X198732638Y-73722028D02*
X198755685Y-73675933D01*
X198801780Y-73652885D01*
X198870923Y-73652885D01*
X198917019Y-73675933D01*
X198940066Y-73722028D01*
X198940066Y-73975552D01*
X199354923Y-73952504D02*
X199308828Y-73975552D01*
X199216638Y-73975552D01*
X199170542Y-73952504D01*
X199147495Y-73906409D01*
X199147495Y-73722028D01*
X199170542Y-73675933D01*
X199216638Y-73652885D01*
X199308828Y-73652885D01*
X199354923Y-73675933D01*
X199377971Y-73722028D01*
X199377971Y-73768123D01*
X199147495Y-73814219D01*
X199585400Y-73652885D02*
X199585400Y-73975552D01*
X199585400Y-73698980D02*
X199608447Y-73675933D01*
X199654542Y-73652885D01*
X199723685Y-73652885D01*
X199769780Y-73675933D01*
X199792828Y-73722028D01*
X199792828Y-73975552D01*
X199954161Y-73652885D02*
X200138542Y-73652885D01*
X200023304Y-73491552D02*
X200023304Y-73906409D01*
X200046352Y-73952504D01*
X200092447Y-73975552D01*
X200138542Y-73975552D01*
X197061685Y-74798352D02*
X196900352Y-74567876D01*
X196785114Y-74798352D02*
X196785114Y-74314352D01*
X196969495Y-74314352D01*
X197015590Y-74337400D01*
X197038638Y-74360447D01*
X197061685Y-74406542D01*
X197061685Y-74475685D01*
X197038638Y-74521780D01*
X197015590Y-74544828D01*
X196969495Y-74567876D01*
X196785114Y-74567876D01*
X197453495Y-74775304D02*
X197407400Y-74798352D01*
X197315209Y-74798352D01*
X197269114Y-74775304D01*
X197246066Y-74729209D01*
X197246066Y-74544828D01*
X197269114Y-74498733D01*
X197315209Y-74475685D01*
X197407400Y-74475685D01*
X197453495Y-74498733D01*
X197476542Y-74544828D01*
X197476542Y-74590923D01*
X197246066Y-74637019D01*
X197891400Y-74475685D02*
X197891400Y-74867495D01*
X197868352Y-74913590D01*
X197845304Y-74936638D01*
X197799209Y-74959685D01*
X197730066Y-74959685D01*
X197683971Y-74936638D01*
X197891400Y-74775304D02*
X197845304Y-74798352D01*
X197753114Y-74798352D01*
X197707019Y-74775304D01*
X197683971Y-74752257D01*
X197660923Y-74706161D01*
X197660923Y-74567876D01*
X197683971Y-74521780D01*
X197707019Y-74498733D01*
X197753114Y-74475685D01*
X197845304Y-74475685D01*
X197891400Y-74498733D01*
X198121876Y-74798352D02*
X198121876Y-74475685D01*
X198121876Y-74314352D02*
X198098828Y-74337400D01*
X198121876Y-74360447D01*
X198144923Y-74337400D01*
X198121876Y-74314352D01*
X198121876Y-74360447D01*
X198421495Y-74798352D02*
X198375400Y-74775304D01*
X198352352Y-74752257D01*
X198329304Y-74706161D01*
X198329304Y-74567876D01*
X198352352Y-74521780D01*
X198375400Y-74498733D01*
X198421495Y-74475685D01*
X198490638Y-74475685D01*
X198536733Y-74498733D01*
X198559780Y-74521780D01*
X198582828Y-74567876D01*
X198582828Y-74706161D01*
X198559780Y-74752257D01*
X198536733Y-74775304D01*
X198490638Y-74798352D01*
X198421495Y-74798352D01*
X198790257Y-74475685D02*
X198790257Y-74798352D01*
X198790257Y-74521780D02*
X198813304Y-74498733D01*
X198859400Y-74475685D01*
X198928542Y-74475685D01*
X198974638Y-74498733D01*
X198997685Y-74544828D01*
X198997685Y-74798352D01*
D10*
X194757080Y-111009109D02*
X194450880Y-111111176D01*
X194757080Y-111213242D01*
X194450880Y-111315309D02*
X194757080Y-111315309D01*
X194757080Y-111388214D01*
X194742500Y-111431957D01*
X194713338Y-111461119D01*
X194684176Y-111475700D01*
X194625852Y-111490280D01*
X194582109Y-111490280D01*
X194523785Y-111475700D01*
X194494623Y-111461119D01*
X194465461Y-111431957D01*
X194450880Y-111388214D01*
X194450880Y-111315309D01*
X194450880Y-111621509D02*
X194757080Y-111621509D01*
X194757080Y-111694414D01*
X194742500Y-111738157D01*
X194713338Y-111767319D01*
X194684176Y-111781900D01*
X194625852Y-111796480D01*
X194582109Y-111796480D01*
X194523785Y-111781900D01*
X194494623Y-111767319D01*
X194465461Y-111738157D01*
X194450880Y-111694414D01*
X194450880Y-111621509D01*
X194450880Y-111927709D02*
X194757080Y-111927709D01*
X194757080Y-112131842D02*
X194757080Y-112190166D01*
X194742500Y-112219328D01*
X194713338Y-112248490D01*
X194655014Y-112263071D01*
X194552947Y-112263071D01*
X194494623Y-112248490D01*
X194465461Y-112219328D01*
X194450880Y-112190166D01*
X194450880Y-112131842D01*
X194465461Y-112102680D01*
X194494623Y-112073519D01*
X194552947Y-112058938D01*
X194655014Y-112058938D01*
X194713338Y-112073519D01*
X194742500Y-112102680D01*
X194757080Y-112131842D01*
X194465461Y-112613014D02*
X194450880Y-112656757D01*
X194450880Y-112729661D01*
X194465461Y-112758823D01*
X194480042Y-112773404D01*
X194509204Y-112787985D01*
X194538366Y-112787985D01*
X194567528Y-112773404D01*
X194582109Y-112758823D01*
X194596690Y-112729661D01*
X194611271Y-112671338D01*
X194625852Y-112642176D01*
X194640433Y-112627595D01*
X194669595Y-112613014D01*
X194698757Y-112613014D01*
X194727919Y-112627595D01*
X194742500Y-112642176D01*
X194757080Y-112671338D01*
X194757080Y-112744242D01*
X194742500Y-112787985D01*
X194450880Y-112962957D02*
X194465461Y-112933795D01*
X194480042Y-112919214D01*
X194509204Y-112904633D01*
X194596690Y-112904633D01*
X194625852Y-112919214D01*
X194640433Y-112933795D01*
X194655014Y-112962957D01*
X194655014Y-113006700D01*
X194640433Y-113035861D01*
X194625852Y-113050442D01*
X194596690Y-113065023D01*
X194509204Y-113065023D01*
X194480042Y-113050442D01*
X194465461Y-113035861D01*
X194450880Y-113006700D01*
X194450880Y-112962957D01*
X194655014Y-113327480D02*
X194450880Y-113327480D01*
X194655014Y-113196252D02*
X194494623Y-113196252D01*
X194465461Y-113210833D01*
X194450880Y-113239995D01*
X194450880Y-113283738D01*
X194465461Y-113312900D01*
X194480042Y-113327480D01*
X194450880Y-113473290D02*
X194655014Y-113473290D01*
X194596690Y-113473290D02*
X194625852Y-113487871D01*
X194640433Y-113502452D01*
X194655014Y-113531614D01*
X194655014Y-113560776D01*
X194465461Y-113794071D02*
X194450880Y-113764909D01*
X194450880Y-113706585D01*
X194465461Y-113677423D01*
X194480042Y-113662842D01*
X194509204Y-113648261D01*
X194596690Y-113648261D01*
X194625852Y-113662842D01*
X194640433Y-113677423D01*
X194655014Y-113706585D01*
X194655014Y-113764909D01*
X194640433Y-113794071D01*
X194465461Y-114041947D02*
X194450880Y-114012785D01*
X194450880Y-113954461D01*
X194465461Y-113925300D01*
X194494623Y-113910719D01*
X194611271Y-113910719D01*
X194640433Y-113925300D01*
X194655014Y-113954461D01*
X194655014Y-114012785D01*
X194640433Y-114041947D01*
X194611271Y-114056528D01*
X194582109Y-114056528D01*
X194552947Y-113910719D01*
D12*
X194842957Y-121113100D02*
X194333557Y-121282900D01*
X194842957Y-121452700D01*
X194333557Y-121622500D02*
X194842957Y-121622500D01*
X194842957Y-121743785D01*
X194818700Y-121816557D01*
X194770185Y-121865071D01*
X194721671Y-121889328D01*
X194624642Y-121913585D01*
X194551871Y-121913585D01*
X194454842Y-121889328D01*
X194406328Y-121865071D01*
X194357814Y-121816557D01*
X194333557Y-121743785D01*
X194333557Y-121622500D01*
X194333557Y-122131900D02*
X194842957Y-122131900D01*
X194842957Y-122253185D01*
X194818700Y-122325957D01*
X194770185Y-122374471D01*
X194721671Y-122398728D01*
X194624642Y-122422985D01*
X194551871Y-122422985D01*
X194454842Y-122398728D01*
X194406328Y-122374471D01*
X194357814Y-122325957D01*
X194333557Y-122253185D01*
X194333557Y-122131900D01*
X194333557Y-122641300D02*
X194842957Y-122641300D01*
X194842957Y-122762585D01*
X194818700Y-122835357D01*
X194770185Y-122883871D01*
X194721671Y-122908128D01*
X194624642Y-122932385D01*
X194551871Y-122932385D01*
X194454842Y-122908128D01*
X194406328Y-122883871D01*
X194357814Y-122835357D01*
X194333557Y-122762585D01*
X194333557Y-122641300D01*
X194842957Y-123646685D02*
X194333557Y-123816485D01*
X194842957Y-123986285D01*
X194333557Y-124156085D02*
X194842957Y-124156085D01*
X194842957Y-124277371D01*
X194818700Y-124350142D01*
X194770185Y-124398657D01*
X194721671Y-124422914D01*
X194624642Y-124447171D01*
X194551871Y-124447171D01*
X194454842Y-124422914D01*
X194406328Y-124398657D01*
X194357814Y-124350142D01*
X194333557Y-124277371D01*
X194333557Y-124156085D01*
X194333557Y-124665485D02*
X194842957Y-124665485D01*
X194842957Y-124786771D01*
X194818700Y-124859542D01*
X194770185Y-124908057D01*
X194721671Y-124932314D01*
X194624642Y-124956571D01*
X194551871Y-124956571D01*
X194454842Y-124932314D01*
X194406328Y-124908057D01*
X194357814Y-124859542D01*
X194333557Y-124786771D01*
X194333557Y-124665485D01*
X194333557Y-125174885D02*
X194842957Y-125174885D01*
X194842957Y-125514485D02*
X194842957Y-125611514D01*
X194818700Y-125660028D01*
X194770185Y-125708542D01*
X194673157Y-125732800D01*
X194503357Y-125732800D01*
X194406328Y-125708542D01*
X194357814Y-125660028D01*
X194333557Y-125611514D01*
X194333557Y-125514485D01*
X194357814Y-125465971D01*
X194406328Y-125417457D01*
X194503357Y-125393200D01*
X194673157Y-125393200D01*
X194770185Y-125417457D01*
X194818700Y-125465971D01*
X194842957Y-125514485D01*
X194842957Y-126645728D02*
X194333557Y-126815528D01*
X194842957Y-126985328D01*
X194600385Y-127324928D02*
X194576128Y-127397700D01*
X194551871Y-127421957D01*
X194503357Y-127446214D01*
X194430585Y-127446214D01*
X194382071Y-127421957D01*
X194357814Y-127397700D01*
X194333557Y-127349185D01*
X194333557Y-127155128D01*
X194842957Y-127155128D01*
X194842957Y-127324928D01*
X194818700Y-127373442D01*
X194794442Y-127397700D01*
X194745928Y-127421957D01*
X194697414Y-127421957D01*
X194648900Y-127397700D01*
X194624642Y-127373442D01*
X194600385Y-127324928D01*
X194600385Y-127155128D01*
X194479100Y-127640271D02*
X194479100Y-127882842D01*
X194333557Y-127591757D02*
X194842957Y-127761557D01*
X194333557Y-127931357D01*
X194842957Y-128028385D02*
X194842957Y-128319471D01*
X194333557Y-128173928D02*
X194842957Y-128173928D01*
D13*
%TO.C,U4*%
X207676000Y-91605000D02*
X207676000Y-91605000D01*
X207676000Y-91705000D02*
X207676000Y-91705000D01*
X207676000Y-91705000D02*
G75*
G02X207676000Y-91605000I0J50000D01*
G01*
X207676000Y-91605000D02*
G75*
G02X207676000Y-91705000I0J-50000D01*
G01*
%TO.C,U3*%
X207676000Y-95288000D02*
X207676000Y-95288000D01*
X207676000Y-95388000D02*
X207676000Y-95388000D01*
X207676000Y-95388000D02*
G75*
G02X207676000Y-95288000I0J50000D01*
G01*
X207676000Y-95288000D02*
G75*
G02X207676000Y-95388000I0J-50000D01*
G01*
D14*
%TO.C,U5*%
X209399000Y-85066000D02*
X209399000Y-84996000D01*
X209329000Y-85066000D02*
X209399000Y-85066000D01*
X206399000Y-85066000D02*
X206469000Y-85066000D01*
X206399000Y-84996000D02*
X206399000Y-85066000D01*
X206399000Y-82066000D02*
X206399000Y-82136000D01*
X206469000Y-82066000D02*
X206399000Y-82066000D01*
D15*
X208999000Y-81166000D02*
G75*
G03X208999000Y-81166000I-100000J0D01*
G01*
D14*
X209399000Y-82066000D02*
X209329000Y-82066000D01*
X209399000Y-82136000D02*
X209399000Y-82066000D01*
%TO.C,U13*%
X213188000Y-91933000D02*
X217088000Y-91933000D01*
X213188000Y-81803000D02*
X217088000Y-81803000D01*
D15*
X211038000Y-82368000D02*
G75*
G03X211038000Y-82368000I-100000J0D01*
G01*
D14*
%TO.C,U11*%
X221697000Y-90663000D02*
X225597000Y-90663000D01*
X221697000Y-80533000D02*
X225597000Y-80533000D01*
D15*
X219547000Y-81098000D02*
G75*
G03X219547000Y-81098000I-100000J0D01*
G01*
D14*
%TO.C,U10*%
X221697000Y-101331000D02*
X225597000Y-101331000D01*
X221697000Y-91201000D02*
X225597000Y-91201000D01*
D15*
X219547000Y-91766000D02*
G75*
G03X219547000Y-91766000I-100000J0D01*
G01*
D14*
%TO.C,U9*%
X221316000Y-128636000D02*
X225216000Y-128636000D01*
X221316000Y-118506000D02*
X225216000Y-118506000D01*
D15*
X219166000Y-119071000D02*
G75*
G03X219166000Y-119071000I-100000J0D01*
G01*
D14*
%TO.C,J1*%
X211471000Y-122880000D02*
X213471000Y-122880000D01*
X211471000Y-115880000D02*
X213471000Y-115880000D01*
D15*
%TO.C,E1*%
X212696400Y-128210400D02*
G75*
G03X212696400Y-128210400I-100000J0D01*
G01*
D14*
X211396400Y-130810400D02*
X211396400Y-137210400D01*
X213596400Y-130810400D02*
X213596400Y-137210400D01*
D16*
%TO.C,J3*%
X227009000Y-102556000D02*
X221809000Y-102556000D01*
X227009000Y-115316000D02*
X227009000Y-102556000D01*
X221809000Y-117916000D02*
X221809000Y-102556000D01*
X227009000Y-115316000D02*
X224409000Y-115316000D01*
X224409000Y-115316000D02*
X224409000Y-117916000D01*
X224409000Y-117916000D02*
X221809000Y-117916000D01*
X227009000Y-116586000D02*
X227009000Y-117916000D01*
X227009000Y-117916000D02*
X225679000Y-117916000D01*
%TO.C,J11*%
X197679000Y-108626600D02*
X197679000Y-111286600D01*
X197739000Y-108626600D02*
X197679000Y-108626600D01*
X197739000Y-111286600D02*
X197679000Y-111286600D01*
X197739000Y-108626600D02*
X197739000Y-111286600D01*
X199009000Y-108626600D02*
X200339000Y-108626600D01*
X200339000Y-108626600D02*
X200339000Y-109956600D01*
D14*
%TO.C,U12*%
X196997600Y-105549600D02*
X196997600Y-103949600D01*
X198937600Y-105549600D02*
X198937600Y-103949600D01*
D13*
X197517600Y-106349600D02*
G75*
G03X197517600Y-106349600I-50000J0D01*
G01*
D16*
%TO.C,J10*%
X213300000Y-78426000D02*
X213300000Y-81086000D01*
X215900000Y-78426000D02*
X213300000Y-78426000D01*
X215900000Y-81086000D02*
X213300000Y-81086000D01*
X215900000Y-78426000D02*
X215900000Y-81086000D01*
X217170000Y-78426000D02*
X218500000Y-78426000D01*
X218500000Y-78426000D02*
X218500000Y-79756000D01*
%TO.C,U8*%
X205547370Y-99794510D02*
X205547370Y-98844510D01*
X205547370Y-98844510D02*
X206497370Y-98844510D01*
X217847370Y-99794510D02*
X217847370Y-98844510D01*
X217847370Y-98844510D02*
X216897370Y-98844510D01*
X217847370Y-110194510D02*
X217847370Y-111144510D01*
X217847370Y-111144510D02*
X216897370Y-111144510D01*
X205547370Y-110194510D02*
X205547370Y-111394510D01*
%TO.C,J9*%
X221428000Y-76514000D02*
X226628000Y-76514000D01*
X221428000Y-71374000D02*
X221428000Y-76514000D01*
X226628000Y-68774000D02*
X226628000Y-76514000D01*
X221428000Y-71374000D02*
X224028000Y-71374000D01*
X224028000Y-71374000D02*
X224028000Y-68774000D01*
X224028000Y-68774000D02*
X226628000Y-68774000D01*
X221428000Y-70104000D02*
X221428000Y-68774000D01*
X221428000Y-68774000D02*
X222758000Y-68774000D01*
%TO.C,J4*%
X231454000Y-73727000D02*
X228794000Y-73727000D01*
X231454000Y-127127000D02*
X231454000Y-73727000D01*
X228794000Y-127127000D02*
X228794000Y-73727000D01*
X231454000Y-127127000D02*
X228794000Y-127127000D01*
X231454000Y-128397000D02*
X231454000Y-129727000D01*
X231454000Y-129727000D02*
X230124000Y-129727000D01*
%TO.C,J5*%
X195139000Y-128711000D02*
X200339000Y-128711000D01*
X195139000Y-121031000D02*
X195139000Y-128711000D01*
X200339000Y-118431000D02*
X200339000Y-128711000D01*
X195139000Y-121031000D02*
X197739000Y-121031000D01*
X197739000Y-121031000D02*
X197739000Y-118431000D01*
X197739000Y-118431000D02*
X200339000Y-118431000D01*
X195139000Y-119761000D02*
X195139000Y-118431000D01*
X195139000Y-118431000D02*
X196469000Y-118431000D01*
D13*
%TO.C,D2*%
X197778500Y-90614500D02*
G75*
G03X197778500Y-90614500I-50000J0D01*
G01*
%TO.C,D1*%
X199962900Y-99275900D02*
G75*
G03X199962900Y-99275900I-50000J0D01*
G01*
D16*
%TO.C,J6*%
X202904400Y-113877400D02*
X202904400Y-111217400D01*
X197764400Y-113877400D02*
X202904400Y-113877400D01*
X197764400Y-111217400D02*
X202904400Y-111217400D01*
X197764400Y-113877400D02*
X197764400Y-111217400D01*
X196494400Y-113877400D02*
X195164400Y-113877400D01*
X195164400Y-113877400D02*
X195164400Y-112547400D01*
%TO.C,J7*%
X195164400Y-117484200D02*
X195164400Y-116154200D01*
X196494400Y-117484200D02*
X195164400Y-117484200D01*
X197764400Y-117484200D02*
X197764400Y-114824200D01*
X197764400Y-114824200D02*
X202904400Y-114824200D01*
X197764400Y-117484200D02*
X202904400Y-117484200D01*
X202904400Y-117484200D02*
X202904400Y-114824200D01*
%TO.C,J8*%
X203902000Y-122869000D02*
X206562000Y-122869000D01*
X203902000Y-117729000D02*
X203902000Y-122869000D01*
X206562000Y-117729000D02*
X206562000Y-122869000D01*
X203902000Y-117729000D02*
X206562000Y-117729000D01*
X203902000Y-116459000D02*
X203902000Y-115129000D01*
X203902000Y-115129000D02*
X205232000Y-115129000D01*
D14*
%TO.C,U6*%
X204431553Y-127877163D02*
X202831553Y-127877163D01*
X204431553Y-125937163D02*
X202831553Y-125937163D01*
D13*
X205281553Y-127407163D02*
G75*
G03X205281553Y-127407163I-50000J0D01*
G01*
D14*
%TO.C,U7*%
X204537879Y-125547489D02*
X202937879Y-125547489D01*
X204537879Y-123607489D02*
X202937879Y-123607489D01*
D13*
X205387879Y-125077489D02*
G75*
G03X205387879Y-125077489I-50000J0D01*
G01*
D17*
%TO.C,U1*%
X200279000Y-77800200D02*
X220599000Y-77800200D01*
X220599000Y-67640200D02*
X200279000Y-67640200D01*
X200279000Y-67640200D02*
X200279000Y-77800200D01*
X220599000Y-77800200D02*
X220599000Y-67640200D01*
D16*
%TO.C,J2*%
X195139000Y-79184500D02*
X195399000Y-79184500D01*
X197679000Y-79184500D02*
X199449000Y-79184500D01*
X199449000Y-79184500D02*
X199449000Y-79564500D01*
X199449000Y-86804500D02*
X197679000Y-86804500D01*
X195399000Y-86804500D02*
X195139000Y-86804500D01*
X199449000Y-86804500D02*
X199449000Y-86424500D01*
%TO.C,L1*%
X202814422Y-78792000D02*
X203331578Y-78792000D01*
X202814422Y-80212000D02*
X203331578Y-80212000D01*
D17*
%TO.C,U2*%
X196215500Y-97134500D02*
X195105500Y-97134500D01*
X195105500Y-92984500D02*
X196215500Y-92984500D01*
X204055500Y-92984500D02*
X202945500Y-92984500D01*
X204055500Y-97134500D02*
X202945500Y-97134500D01*
X195105500Y-97134500D02*
X195105500Y-92984500D01*
X204055500Y-97134500D02*
X204055500Y-92984500D01*
X196215500Y-97134500D02*
X196215500Y-98259500D01*
%TO.C,U4*%
D18*
X205534380Y-87823523D02*
X205534380Y-88851619D01*
X205594857Y-88972571D01*
X205655333Y-89033047D01*
X205776285Y-89093523D01*
X206018190Y-89093523D01*
X206139142Y-89033047D01*
X206199619Y-88972571D01*
X206260095Y-88851619D01*
X206260095Y-87823523D01*
X207409142Y-88246857D02*
X207409142Y-89093523D01*
X207106761Y-87763047D02*
X206804380Y-88670190D01*
X207590571Y-88670190D01*
%TO.C,U3*%
X204772380Y-94046523D02*
X204772380Y-95074619D01*
X204832857Y-95195571D01*
X204893333Y-95256047D01*
X205014285Y-95316523D01*
X205256190Y-95316523D01*
X205377142Y-95256047D01*
X205437619Y-95195571D01*
X205498095Y-95074619D01*
X205498095Y-94046523D01*
X205981904Y-94046523D02*
X206768095Y-94046523D01*
X206344761Y-94530333D01*
X206526190Y-94530333D01*
X206647142Y-94590809D01*
X206707619Y-94651285D01*
X206768095Y-94772238D01*
X206768095Y-95074619D01*
X206707619Y-95195571D01*
X206647142Y-95256047D01*
X206526190Y-95316523D01*
X206163333Y-95316523D01*
X206042380Y-95256047D01*
X205981904Y-95195571D01*
%TO.C,U5*%
D19*
X210348580Y-91998704D02*
X211158104Y-91998704D01*
X211253342Y-91951085D01*
X211300961Y-91903466D01*
X211348580Y-91808228D01*
X211348580Y-91617752D01*
X211300961Y-91522514D01*
X211253342Y-91474895D01*
X211158104Y-91427276D01*
X210348580Y-91427276D01*
X210348580Y-90474895D02*
X210348580Y-90951085D01*
X210824771Y-90998704D01*
X210777152Y-90951085D01*
X210729533Y-90855847D01*
X210729533Y-90617752D01*
X210777152Y-90522514D01*
X210824771Y-90474895D01*
X210920009Y-90427276D01*
X211158104Y-90427276D01*
X211253342Y-90474895D01*
X211300961Y-90522514D01*
X211348580Y-90617752D01*
X211348580Y-90855847D01*
X211300961Y-90951085D01*
X211253342Y-90998704D01*
%TO.C,U13*%
X213574904Y-80185380D02*
X213574904Y-80994904D01*
X213622523Y-81090142D01*
X213670142Y-81137761D01*
X213765380Y-81185380D01*
X213955857Y-81185380D01*
X214051095Y-81137761D01*
X214098714Y-81090142D01*
X214146333Y-80994904D01*
X214146333Y-80185380D01*
X215146333Y-81185380D02*
X214574904Y-81185380D01*
X214860619Y-81185380D02*
X214860619Y-80185380D01*
X214765380Y-80328238D01*
X214670142Y-80423476D01*
X214574904Y-80471095D01*
X215479666Y-80185380D02*
X216098714Y-80185380D01*
X215765380Y-80566333D01*
X215908238Y-80566333D01*
X216003476Y-80613952D01*
X216051095Y-80661571D01*
X216098714Y-80756809D01*
X216098714Y-80994904D01*
X216051095Y-81090142D01*
X216003476Y-81137761D01*
X215908238Y-81185380D01*
X215622523Y-81185380D01*
X215527285Y-81137761D01*
X215479666Y-81090142D01*
%TO.C,U11*%
X222083904Y-78915380D02*
X222083904Y-79724904D01*
X222131523Y-79820142D01*
X222179142Y-79867761D01*
X222274380Y-79915380D01*
X222464857Y-79915380D01*
X222560095Y-79867761D01*
X222607714Y-79820142D01*
X222655333Y-79724904D01*
X222655333Y-78915380D01*
X223655333Y-79915380D02*
X223083904Y-79915380D01*
X223369619Y-79915380D02*
X223369619Y-78915380D01*
X223274380Y-79058238D01*
X223179142Y-79153476D01*
X223083904Y-79201095D01*
X224607714Y-79915380D02*
X224036285Y-79915380D01*
X224322000Y-79915380D02*
X224322000Y-78915380D01*
X224226761Y-79058238D01*
X224131523Y-79153476D01*
X224036285Y-79201095D01*
%TO.C,U10*%
X217328904Y-93838780D02*
X217328904Y-94648304D01*
X217376523Y-94743542D01*
X217424142Y-94791161D01*
X217519380Y-94838780D01*
X217709857Y-94838780D01*
X217805095Y-94791161D01*
X217852714Y-94743542D01*
X217900333Y-94648304D01*
X217900333Y-93838780D01*
X218900333Y-94838780D02*
X218328904Y-94838780D01*
X218614619Y-94838780D02*
X218614619Y-93838780D01*
X218519380Y-93981638D01*
X218424142Y-94076876D01*
X218328904Y-94124495D01*
X219519380Y-93838780D02*
X219614619Y-93838780D01*
X219709857Y-93886400D01*
X219757476Y-93934019D01*
X219805095Y-94029257D01*
X219852714Y-94219733D01*
X219852714Y-94457828D01*
X219805095Y-94648304D01*
X219757476Y-94743542D01*
X219709857Y-94791161D01*
X219614619Y-94838780D01*
X219519380Y-94838780D01*
X219424142Y-94791161D01*
X219376523Y-94743542D01*
X219328904Y-94648304D01*
X219281285Y-94457828D01*
X219281285Y-94219733D01*
X219328904Y-94029257D01*
X219376523Y-93934019D01*
X219424142Y-93886400D01*
X219519380Y-93838780D01*
%TO.C,U9*%
X222179095Y-116888380D02*
X222179095Y-117697904D01*
X222226714Y-117793142D01*
X222274333Y-117840761D01*
X222369571Y-117888380D01*
X222560047Y-117888380D01*
X222655285Y-117840761D01*
X222702904Y-117793142D01*
X222750523Y-117697904D01*
X222750523Y-116888380D01*
X223274333Y-117888380D02*
X223464809Y-117888380D01*
X223560047Y-117840761D01*
X223607666Y-117793142D01*
X223702904Y-117650285D01*
X223750523Y-117459809D01*
X223750523Y-117078857D01*
X223702904Y-116983619D01*
X223655285Y-116936000D01*
X223560047Y-116888380D01*
X223369571Y-116888380D01*
X223274333Y-116936000D01*
X223226714Y-116983619D01*
X223179095Y-117078857D01*
X223179095Y-117316952D01*
X223226714Y-117412190D01*
X223274333Y-117459809D01*
X223369571Y-117507428D01*
X223560047Y-117507428D01*
X223655285Y-117459809D01*
X223702904Y-117412190D01*
X223750523Y-117316952D01*
%TO.C,J1*%
X210359666Y-113879380D02*
X210359666Y-114593666D01*
X210312047Y-114736523D01*
X210216809Y-114831761D01*
X210073952Y-114879380D01*
X209978714Y-114879380D01*
X211359666Y-114879380D02*
X210788238Y-114879380D01*
X211073952Y-114879380D02*
X211073952Y-113879380D01*
X210978714Y-114022238D01*
X210883476Y-114117476D01*
X210788238Y-114165095D01*
%TO.C,E1*%
X214329971Y-132795876D02*
X214329971Y-132462542D01*
X214853780Y-132319685D02*
X214853780Y-132795876D01*
X213853780Y-132795876D01*
X213853780Y-132319685D01*
X214853780Y-131367304D02*
X214853780Y-131938733D01*
X214853780Y-131653019D02*
X213853780Y-131653019D01*
X213996638Y-131748257D01*
X214091876Y-131843495D01*
X214139495Y-131938733D01*
%TO.C,C27*%
D17*
X206020942Y-80500457D02*
X206068561Y-80548076D01*
X206116180Y-80690933D01*
X206116180Y-80786171D01*
X206068561Y-80929028D01*
X205973323Y-81024266D01*
X205878085Y-81071885D01*
X205687609Y-81119504D01*
X205544752Y-81119504D01*
X205354276Y-81071885D01*
X205259038Y-81024266D01*
X205163800Y-80929028D01*
X205116180Y-80786171D01*
X205116180Y-80690933D01*
X205163800Y-80548076D01*
X205211419Y-80500457D01*
X205211419Y-80119504D02*
X205163800Y-80071885D01*
X205116180Y-79976647D01*
X205116180Y-79738552D01*
X205163800Y-79643314D01*
X205211419Y-79595695D01*
X205306657Y-79548076D01*
X205401895Y-79548076D01*
X205544752Y-79595695D01*
X206116180Y-80167123D01*
X206116180Y-79548076D01*
X205116180Y-79214742D02*
X205116180Y-78548076D01*
X206116180Y-78976647D01*
%TO.C,C3*%
X204700142Y-86526666D02*
X204747761Y-86574285D01*
X204795380Y-86717142D01*
X204795380Y-86812380D01*
X204747761Y-86955238D01*
X204652523Y-87050476D01*
X204557285Y-87098095D01*
X204366809Y-87145714D01*
X204223952Y-87145714D01*
X204033476Y-87098095D01*
X203938238Y-87050476D01*
X203843000Y-86955238D01*
X203795380Y-86812380D01*
X203795380Y-86717142D01*
X203843000Y-86574285D01*
X203890619Y-86526666D01*
X203795380Y-86193333D02*
X203795380Y-85574285D01*
X204176333Y-85907619D01*
X204176333Y-85764761D01*
X204223952Y-85669523D01*
X204271571Y-85621904D01*
X204366809Y-85574285D01*
X204604904Y-85574285D01*
X204700142Y-85621904D01*
X204747761Y-85669523D01*
X204795380Y-85764761D01*
X204795380Y-86050476D01*
X204747761Y-86145714D01*
X204700142Y-86193333D01*
%TO.C,J3*%
X224075666Y-118368380D02*
X224075666Y-119082666D01*
X224028047Y-119225523D01*
X223932809Y-119320761D01*
X223789952Y-119368380D01*
X223694714Y-119368380D01*
X224456619Y-118368380D02*
X225075666Y-118368380D01*
X224742333Y-118749333D01*
X224885190Y-118749333D01*
X224980428Y-118796952D01*
X225028047Y-118844571D01*
X225075666Y-118939809D01*
X225075666Y-119177904D01*
X225028047Y-119273142D01*
X224980428Y-119320761D01*
X224885190Y-119368380D01*
X224599476Y-119368380D01*
X224504238Y-119320761D01*
X224456619Y-119273142D01*
%TO.C,C12*%
X195038742Y-107824542D02*
X194991123Y-107872161D01*
X194848266Y-107919780D01*
X194753028Y-107919780D01*
X194610171Y-107872161D01*
X194514933Y-107776923D01*
X194467314Y-107681685D01*
X194419695Y-107491209D01*
X194419695Y-107348352D01*
X194467314Y-107157876D01*
X194514933Y-107062638D01*
X194610171Y-106967400D01*
X194753028Y-106919780D01*
X194848266Y-106919780D01*
X194991123Y-106967400D01*
X195038742Y-107015019D01*
X195991123Y-107919780D02*
X195419695Y-107919780D01*
X195705409Y-107919780D02*
X195705409Y-106919780D01*
X195610171Y-107062638D01*
X195514933Y-107157876D01*
X195419695Y-107205495D01*
X196372076Y-107015019D02*
X196419695Y-106967400D01*
X196514933Y-106919780D01*
X196753028Y-106919780D01*
X196848266Y-106967400D01*
X196895885Y-107015019D01*
X196943504Y-107110257D01*
X196943504Y-107205495D01*
X196895885Y-107348352D01*
X196324457Y-107919780D01*
X196943504Y-107919780D01*
%TO.C,C8*%
X194803733Y-103100142D02*
X194756114Y-103147761D01*
X194613257Y-103195380D01*
X194518019Y-103195380D01*
X194375161Y-103147761D01*
X194279923Y-103052523D01*
X194232304Y-102957285D01*
X194184685Y-102766809D01*
X194184685Y-102623952D01*
X194232304Y-102433476D01*
X194279923Y-102338238D01*
X194375161Y-102243000D01*
X194518019Y-102195380D01*
X194613257Y-102195380D01*
X194756114Y-102243000D01*
X194803733Y-102290619D01*
X195375161Y-102623952D02*
X195279923Y-102576333D01*
X195232304Y-102528714D01*
X195184685Y-102433476D01*
X195184685Y-102385857D01*
X195232304Y-102290619D01*
X195279923Y-102243000D01*
X195375161Y-102195380D01*
X195565638Y-102195380D01*
X195660876Y-102243000D01*
X195708495Y-102290619D01*
X195756114Y-102385857D01*
X195756114Y-102433476D01*
X195708495Y-102528714D01*
X195660876Y-102576333D01*
X195565638Y-102623952D01*
X195375161Y-102623952D01*
X195279923Y-102671571D01*
X195232304Y-102719190D01*
X195184685Y-102814428D01*
X195184685Y-103004904D01*
X195232304Y-103100142D01*
X195279923Y-103147761D01*
X195375161Y-103195380D01*
X195565638Y-103195380D01*
X195660876Y-103147761D01*
X195708495Y-103100142D01*
X195756114Y-103004904D01*
X195756114Y-102814428D01*
X195708495Y-102719190D01*
X195660876Y-102671571D01*
X195565638Y-102623952D01*
%TO.C,J11*%
X195921380Y-110156523D02*
X196635666Y-110156523D01*
X196778523Y-110204142D01*
X196873761Y-110299380D01*
X196921380Y-110442238D01*
X196921380Y-110537476D01*
X196921380Y-109156523D02*
X196921380Y-109727952D01*
X196921380Y-109442238D02*
X195921380Y-109442238D01*
X196064238Y-109537476D01*
X196159476Y-109632714D01*
X196207095Y-109727952D01*
X196921380Y-108204142D02*
X196921380Y-108775571D01*
X196921380Y-108489857D02*
X195921380Y-108489857D01*
X196064238Y-108585095D01*
X196159476Y-108680333D01*
X196207095Y-108775571D01*
%TO.C,L5*%
X198926380Y-106592666D02*
X198926380Y-107068857D01*
X197926380Y-107068857D01*
X197926380Y-105783142D02*
X197926380Y-106259333D01*
X198402571Y-106306952D01*
X198354952Y-106259333D01*
X198307333Y-106164095D01*
X198307333Y-105926000D01*
X198354952Y-105830761D01*
X198402571Y-105783142D01*
X198497809Y-105735523D01*
X198735904Y-105735523D01*
X198831142Y-105783142D01*
X198878761Y-105830761D01*
X198926380Y-105926000D01*
X198926380Y-106164095D01*
X198878761Y-106259333D01*
X198831142Y-106306952D01*
%TO.C,U12*%
D19*
X196299942Y-105219885D02*
X196688514Y-105219885D01*
X196734228Y-105197028D01*
X196757085Y-105174171D01*
X196779942Y-105128457D01*
X196779942Y-105037028D01*
X196757085Y-104991314D01*
X196734228Y-104968457D01*
X196688514Y-104945600D01*
X196299942Y-104945600D01*
X196779942Y-104465600D02*
X196779942Y-104739885D01*
X196779942Y-104602742D02*
X196299942Y-104602742D01*
X196368514Y-104648457D01*
X196414228Y-104694171D01*
X196437085Y-104739885D01*
X196345657Y-104282742D02*
X196322800Y-104259885D01*
X196299942Y-104214171D01*
X196299942Y-104099885D01*
X196322800Y-104054171D01*
X196345657Y-104031314D01*
X196391371Y-104008457D01*
X196437085Y-104008457D01*
X196505657Y-104031314D01*
X196779942Y-104305600D01*
X196779942Y-104008457D01*
%TO.C,J10*%
D17*
X218952380Y-80565523D02*
X219666666Y-80565523D01*
X219809523Y-80613142D01*
X219904761Y-80708380D01*
X219952380Y-80851238D01*
X219952380Y-80946476D01*
X219952380Y-79565523D02*
X219952380Y-80136952D01*
X219952380Y-79851238D02*
X218952380Y-79851238D01*
X219095238Y-79946476D01*
X219190476Y-80041714D01*
X219238095Y-80136952D01*
X218952380Y-78946476D02*
X218952380Y-78851238D01*
X219000000Y-78756000D01*
X219047619Y-78708380D01*
X219142857Y-78660761D01*
X219333333Y-78613142D01*
X219571428Y-78613142D01*
X219761904Y-78660761D01*
X219857142Y-78708380D01*
X219904761Y-78756000D01*
X219952380Y-78851238D01*
X219952380Y-78946476D01*
X219904761Y-79041714D01*
X219857142Y-79089333D01*
X219761904Y-79136952D01*
X219571428Y-79184571D01*
X219333333Y-79184571D01*
X219142857Y-79136952D01*
X219047619Y-79089333D01*
X219000000Y-79041714D01*
X218952380Y-78946476D01*
%TO.C,L4*%
X214844333Y-127325380D02*
X214368142Y-127325380D01*
X214368142Y-126325380D01*
X215606238Y-126658714D02*
X215606238Y-127325380D01*
X215368142Y-126277761D02*
X215130047Y-126992047D01*
X215749095Y-126992047D01*
%TO.C,R6*%
X206970333Y-80208380D02*
X206637000Y-79732190D01*
X206398904Y-80208380D02*
X206398904Y-79208380D01*
X206779857Y-79208380D01*
X206875095Y-79256000D01*
X206922714Y-79303619D01*
X206970333Y-79398857D01*
X206970333Y-79541714D01*
X206922714Y-79636952D01*
X206875095Y-79684571D01*
X206779857Y-79732190D01*
X206398904Y-79732190D01*
X207827476Y-79208380D02*
X207637000Y-79208380D01*
X207541761Y-79256000D01*
X207494142Y-79303619D01*
X207398904Y-79446476D01*
X207351285Y-79636952D01*
X207351285Y-80017904D01*
X207398904Y-80113142D01*
X207446523Y-80160761D01*
X207541761Y-80208380D01*
X207732238Y-80208380D01*
X207827476Y-80160761D01*
X207875095Y-80113142D01*
X207922714Y-80017904D01*
X207922714Y-79779809D01*
X207875095Y-79684571D01*
X207827476Y-79636952D01*
X207732238Y-79589333D01*
X207541761Y-79589333D01*
X207446523Y-79636952D01*
X207398904Y-79684571D01*
X207351285Y-79779809D01*
%TO.C,R5*%
X206970333Y-81351380D02*
X206637000Y-80875190D01*
X206398904Y-81351380D02*
X206398904Y-80351380D01*
X206779857Y-80351380D01*
X206875095Y-80399000D01*
X206922714Y-80446619D01*
X206970333Y-80541857D01*
X206970333Y-80684714D01*
X206922714Y-80779952D01*
X206875095Y-80827571D01*
X206779857Y-80875190D01*
X206398904Y-80875190D01*
X207875095Y-80351380D02*
X207398904Y-80351380D01*
X207351285Y-80827571D01*
X207398904Y-80779952D01*
X207494142Y-80732333D01*
X207732238Y-80732333D01*
X207827476Y-80779952D01*
X207875095Y-80827571D01*
X207922714Y-80922809D01*
X207922714Y-81160904D01*
X207875095Y-81256142D01*
X207827476Y-81303761D01*
X207732238Y-81351380D01*
X207494142Y-81351380D01*
X207398904Y-81303761D01*
X207351285Y-81256142D01*
%TO.C,U8*%
X208407095Y-112355380D02*
X208407095Y-113164904D01*
X208454714Y-113260142D01*
X208502333Y-113307761D01*
X208597571Y-113355380D01*
X208788047Y-113355380D01*
X208883285Y-113307761D01*
X208930904Y-113260142D01*
X208978523Y-113164904D01*
X208978523Y-112355380D01*
X209597571Y-112783952D02*
X209502333Y-112736333D01*
X209454714Y-112688714D01*
X209407095Y-112593476D01*
X209407095Y-112545857D01*
X209454714Y-112450619D01*
X209502333Y-112403000D01*
X209597571Y-112355380D01*
X209788047Y-112355380D01*
X209883285Y-112403000D01*
X209930904Y-112450619D01*
X209978523Y-112545857D01*
X209978523Y-112593476D01*
X209930904Y-112688714D01*
X209883285Y-112736333D01*
X209788047Y-112783952D01*
X209597571Y-112783952D01*
X209502333Y-112831571D01*
X209454714Y-112879190D01*
X209407095Y-112974428D01*
X209407095Y-113164904D01*
X209454714Y-113260142D01*
X209502333Y-113307761D01*
X209597571Y-113355380D01*
X209788047Y-113355380D01*
X209883285Y-113307761D01*
X209930904Y-113260142D01*
X209978523Y-113164904D01*
X209978523Y-112974428D01*
X209930904Y-112879190D01*
X209883285Y-112831571D01*
X209788047Y-112783952D01*
%TO.C,J9*%
X227225266Y-74661780D02*
X227225266Y-75376066D01*
X227177647Y-75518923D01*
X227082409Y-75614161D01*
X226939552Y-75661780D01*
X226844314Y-75661780D01*
X227749076Y-75661780D02*
X227939552Y-75661780D01*
X228034790Y-75614161D01*
X228082409Y-75566542D01*
X228177647Y-75423685D01*
X228225266Y-75233209D01*
X228225266Y-74852257D01*
X228177647Y-74757019D01*
X228130028Y-74709400D01*
X228034790Y-74661780D01*
X227844314Y-74661780D01*
X227749076Y-74709400D01*
X227701457Y-74757019D01*
X227653838Y-74852257D01*
X227653838Y-75090352D01*
X227701457Y-75185590D01*
X227749076Y-75233209D01*
X227844314Y-75280828D01*
X228034790Y-75280828D01*
X228130028Y-75233209D01*
X228177647Y-75185590D01*
X228225266Y-75090352D01*
%TO.C,J4*%
X227123666Y-129119380D02*
X227123666Y-129833666D01*
X227076047Y-129976523D01*
X226980809Y-130071761D01*
X226837952Y-130119380D01*
X226742714Y-130119380D01*
X228028428Y-129452714D02*
X228028428Y-130119380D01*
X227790333Y-129071761D02*
X227552238Y-129786047D01*
X228171285Y-129786047D01*
%TO.C,J5*%
X198929666Y-129322580D02*
X198929666Y-130036866D01*
X198882047Y-130179723D01*
X198786809Y-130274961D01*
X198643952Y-130322580D01*
X198548714Y-130322580D01*
X199882047Y-129322580D02*
X199405857Y-129322580D01*
X199358238Y-129798771D01*
X199405857Y-129751152D01*
X199501095Y-129703533D01*
X199739190Y-129703533D01*
X199834428Y-129751152D01*
X199882047Y-129798771D01*
X199929666Y-129894009D01*
X199929666Y-130132104D01*
X199882047Y-130227342D01*
X199834428Y-130274961D01*
X199739190Y-130322580D01*
X199501095Y-130322580D01*
X199405857Y-130274961D01*
X199358238Y-130227342D01*
%TO.C,D2*%
X198080404Y-89896880D02*
X198080404Y-88896880D01*
X198318500Y-88896880D01*
X198461357Y-88944500D01*
X198556595Y-89039738D01*
X198604214Y-89134976D01*
X198651833Y-89325452D01*
X198651833Y-89468309D01*
X198604214Y-89658785D01*
X198556595Y-89754023D01*
X198461357Y-89849261D01*
X198318500Y-89896880D01*
X198080404Y-89896880D01*
X199032785Y-88992119D02*
X199080404Y-88944500D01*
X199175642Y-88896880D01*
X199413738Y-88896880D01*
X199508976Y-88944500D01*
X199556595Y-88992119D01*
X199604214Y-89087357D01*
X199604214Y-89182595D01*
X199556595Y-89325452D01*
X198985166Y-89896880D01*
X199604214Y-89896880D01*
%TO.C,D1*%
X202296804Y-99728280D02*
X202296804Y-98728280D01*
X202534900Y-98728280D01*
X202677757Y-98775900D01*
X202772995Y-98871138D01*
X202820614Y-98966376D01*
X202868233Y-99156852D01*
X202868233Y-99299709D01*
X202820614Y-99490185D01*
X202772995Y-99585423D01*
X202677757Y-99680661D01*
X202534900Y-99728280D01*
X202296804Y-99728280D01*
X203820614Y-99728280D02*
X203249185Y-99728280D01*
X203534900Y-99728280D02*
X203534900Y-98728280D01*
X203439661Y-98871138D01*
X203344423Y-98966376D01*
X203249185Y-99013995D01*
%TO.C,H4*%
X201112380Y-138175904D02*
X200112380Y-138175904D01*
X200588571Y-138175904D02*
X200588571Y-137604476D01*
X201112380Y-137604476D02*
X200112380Y-137604476D01*
X200445714Y-136699714D02*
X201112380Y-136699714D01*
X200064761Y-136937809D02*
X200779047Y-137175904D01*
X200779047Y-136556857D01*
%TO.C,H3*%
X226820500Y-138014414D02*
X225820500Y-138014414D01*
X226296691Y-138014414D02*
X226296691Y-137442986D01*
X226820500Y-137442986D02*
X225820500Y-137442986D01*
X225820500Y-137062033D02*
X225820500Y-136442986D01*
X226201453Y-136776319D01*
X226201453Y-136633462D01*
X226249072Y-136538224D01*
X226296691Y-136490605D01*
X226391929Y-136442986D01*
X226630024Y-136442986D01*
X226725262Y-136490605D01*
X226772881Y-136538224D01*
X226820500Y-136633462D01*
X226820500Y-136919176D01*
X226772881Y-137014414D01*
X226725262Y-137062033D01*
%TO.C,H2*%
X196392895Y-68651380D02*
X196392895Y-67651380D01*
X196392895Y-68127571D02*
X196964323Y-68127571D01*
X196964323Y-68651380D02*
X196964323Y-67651380D01*
X197392895Y-67746619D02*
X197440514Y-67699000D01*
X197535752Y-67651380D01*
X197773847Y-67651380D01*
X197869085Y-67699000D01*
X197916704Y-67746619D01*
X197964323Y-67841857D01*
X197964323Y-67937095D01*
X197916704Y-68079952D01*
X197345276Y-68651380D01*
X197964323Y-68651380D01*
%TO.C,H1*%
X229412895Y-68600580D02*
X229412895Y-67600580D01*
X229412895Y-68076771D02*
X229984323Y-68076771D01*
X229984323Y-68600580D02*
X229984323Y-67600580D01*
X230984323Y-68600580D02*
X230412895Y-68600580D01*
X230698609Y-68600580D02*
X230698609Y-67600580D01*
X230603371Y-67743438D01*
X230508133Y-67838676D01*
X230412895Y-67886295D01*
%TO.C,J6*%
X203882666Y-112355380D02*
X203882666Y-113069666D01*
X203835047Y-113212523D01*
X203739809Y-113307761D01*
X203596952Y-113355380D01*
X203501714Y-113355380D01*
X204787428Y-112355380D02*
X204596952Y-112355380D01*
X204501714Y-112403000D01*
X204454095Y-112450619D01*
X204358857Y-112593476D01*
X204311238Y-112783952D01*
X204311238Y-113164904D01*
X204358857Y-113260142D01*
X204406476Y-113307761D01*
X204501714Y-113355380D01*
X204692190Y-113355380D01*
X204787428Y-113307761D01*
X204835047Y-113260142D01*
X204882666Y-113164904D01*
X204882666Y-112926809D01*
X204835047Y-112831571D01*
X204787428Y-112783952D01*
X204692190Y-112736333D01*
X204501714Y-112736333D01*
X204406476Y-112783952D01*
X204358857Y-112831571D01*
X204311238Y-112926809D01*
%TO.C,J7*%
X201342666Y-118070380D02*
X201342666Y-118784666D01*
X201295047Y-118927523D01*
X201199809Y-119022761D01*
X201056952Y-119070380D01*
X200961714Y-119070380D01*
X201723619Y-118070380D02*
X202390285Y-118070380D01*
X201961714Y-119070380D01*
%TO.C,J8*%
X204898666Y-113371380D02*
X204898666Y-114085666D01*
X204851047Y-114228523D01*
X204755809Y-114323761D01*
X204612952Y-114371380D01*
X204517714Y-114371380D01*
X205517714Y-113799952D02*
X205422476Y-113752333D01*
X205374857Y-113704714D01*
X205327238Y-113609476D01*
X205327238Y-113561857D01*
X205374857Y-113466619D01*
X205422476Y-113419000D01*
X205517714Y-113371380D01*
X205708190Y-113371380D01*
X205803428Y-113419000D01*
X205851047Y-113466619D01*
X205898666Y-113561857D01*
X205898666Y-113609476D01*
X205851047Y-113704714D01*
X205803428Y-113752333D01*
X205708190Y-113799952D01*
X205517714Y-113799952D01*
X205422476Y-113847571D01*
X205374857Y-113895190D01*
X205327238Y-113990428D01*
X205327238Y-114180904D01*
X205374857Y-114276142D01*
X205422476Y-114323761D01*
X205517714Y-114371380D01*
X205708190Y-114371380D01*
X205803428Y-114323761D01*
X205851047Y-114276142D01*
X205898666Y-114180904D01*
X205898666Y-113990428D01*
X205851047Y-113895190D01*
X205803428Y-113847571D01*
X205708190Y-113799952D01*
%TO.C,C23*%
X202109342Y-121496057D02*
X202156961Y-121543676D01*
X202204580Y-121686533D01*
X202204580Y-121781771D01*
X202156961Y-121924628D01*
X202061723Y-122019866D01*
X201966485Y-122067485D01*
X201776009Y-122115104D01*
X201633152Y-122115104D01*
X201442676Y-122067485D01*
X201347438Y-122019866D01*
X201252200Y-121924628D01*
X201204580Y-121781771D01*
X201204580Y-121686533D01*
X201252200Y-121543676D01*
X201299819Y-121496057D01*
X201299819Y-121115104D02*
X201252200Y-121067485D01*
X201204580Y-120972247D01*
X201204580Y-120734152D01*
X201252200Y-120638914D01*
X201299819Y-120591295D01*
X201395057Y-120543676D01*
X201490295Y-120543676D01*
X201633152Y-120591295D01*
X202204580Y-121162723D01*
X202204580Y-120543676D01*
X201204580Y-120210342D02*
X201204580Y-119591295D01*
X201585533Y-119924628D01*
X201585533Y-119781771D01*
X201633152Y-119686533D01*
X201680771Y-119638914D01*
X201776009Y-119591295D01*
X202014104Y-119591295D01*
X202109342Y-119638914D01*
X202156961Y-119686533D01*
X202204580Y-119781771D01*
X202204580Y-120067485D01*
X202156961Y-120162723D01*
X202109342Y-120210342D01*
%TO.C,C25*%
X207637142Y-129135142D02*
X207589523Y-129182761D01*
X207446666Y-129230380D01*
X207351428Y-129230380D01*
X207208571Y-129182761D01*
X207113333Y-129087523D01*
X207065714Y-128992285D01*
X207018095Y-128801809D01*
X207018095Y-128658952D01*
X207065714Y-128468476D01*
X207113333Y-128373238D01*
X207208571Y-128278000D01*
X207351428Y-128230380D01*
X207446666Y-128230380D01*
X207589523Y-128278000D01*
X207637142Y-128325619D01*
X208018095Y-128325619D02*
X208065714Y-128278000D01*
X208160952Y-128230380D01*
X208399047Y-128230380D01*
X208494285Y-128278000D01*
X208541904Y-128325619D01*
X208589523Y-128420857D01*
X208589523Y-128516095D01*
X208541904Y-128658952D01*
X207970476Y-129230380D01*
X208589523Y-129230380D01*
X209494285Y-128230380D02*
X209018095Y-128230380D01*
X208970476Y-128706571D01*
X209018095Y-128658952D01*
X209113333Y-128611333D01*
X209351428Y-128611333D01*
X209446666Y-128658952D01*
X209494285Y-128706571D01*
X209541904Y-128801809D01*
X209541904Y-129039904D01*
X209494285Y-129135142D01*
X209446666Y-129182761D01*
X209351428Y-129230380D01*
X209113333Y-129230380D01*
X209018095Y-129182761D01*
X208970476Y-129135142D01*
%TO.C,C9*%
X202033142Y-129281992D02*
X202080761Y-129329611D01*
X202128380Y-129472468D01*
X202128380Y-129567706D01*
X202080761Y-129710564D01*
X201985523Y-129805802D01*
X201890285Y-129853421D01*
X201699809Y-129901040D01*
X201556952Y-129901040D01*
X201366476Y-129853421D01*
X201271238Y-129805802D01*
X201176000Y-129710564D01*
X201128380Y-129567706D01*
X201128380Y-129472468D01*
X201176000Y-129329611D01*
X201223619Y-129281992D01*
X202128380Y-128805802D02*
X202128380Y-128615326D01*
X202080761Y-128520087D01*
X202033142Y-128472468D01*
X201890285Y-128377230D01*
X201699809Y-128329611D01*
X201318857Y-128329611D01*
X201223619Y-128377230D01*
X201176000Y-128424849D01*
X201128380Y-128520087D01*
X201128380Y-128710564D01*
X201176000Y-128805802D01*
X201223619Y-128853421D01*
X201318857Y-128901040D01*
X201556952Y-128901040D01*
X201652190Y-128853421D01*
X201699809Y-128805802D01*
X201747428Y-128710564D01*
X201747428Y-128520087D01*
X201699809Y-128424849D01*
X201652190Y-128377230D01*
X201556952Y-128329611D01*
%TO.C,U6*%
D19*
X203215285Y-128134142D02*
X203215285Y-128522714D01*
X203238142Y-128568428D01*
X203261000Y-128591285D01*
X203306714Y-128614142D01*
X203398142Y-128614142D01*
X203443857Y-128591285D01*
X203466714Y-128568428D01*
X203489571Y-128522714D01*
X203489571Y-128134142D01*
X203923857Y-128134142D02*
X203832428Y-128134142D01*
X203786714Y-128157000D01*
X203763857Y-128179857D01*
X203718142Y-128248428D01*
X203695285Y-128339857D01*
X203695285Y-128522714D01*
X203718142Y-128568428D01*
X203741000Y-128591285D01*
X203786714Y-128614142D01*
X203878142Y-128614142D01*
X203923857Y-128591285D01*
X203946714Y-128568428D01*
X203969571Y-128522714D01*
X203969571Y-128408428D01*
X203946714Y-128362714D01*
X203923857Y-128339857D01*
X203878142Y-128317000D01*
X203786714Y-128317000D01*
X203741000Y-128339857D01*
X203718142Y-128362714D01*
X203695285Y-128408428D01*
%TO.C,C28*%
D17*
X209399142Y-125610857D02*
X209446761Y-125658476D01*
X209494380Y-125801333D01*
X209494380Y-125896571D01*
X209446761Y-126039428D01*
X209351523Y-126134666D01*
X209256285Y-126182285D01*
X209065809Y-126229904D01*
X208922952Y-126229904D01*
X208732476Y-126182285D01*
X208637238Y-126134666D01*
X208542000Y-126039428D01*
X208494380Y-125896571D01*
X208494380Y-125801333D01*
X208542000Y-125658476D01*
X208589619Y-125610857D01*
X208589619Y-125229904D02*
X208542000Y-125182285D01*
X208494380Y-125087047D01*
X208494380Y-124848952D01*
X208542000Y-124753714D01*
X208589619Y-124706095D01*
X208684857Y-124658476D01*
X208780095Y-124658476D01*
X208922952Y-124706095D01*
X209494380Y-125277523D01*
X209494380Y-124658476D01*
X208922952Y-124087047D02*
X208875333Y-124182285D01*
X208827714Y-124229904D01*
X208732476Y-124277523D01*
X208684857Y-124277523D01*
X208589619Y-124229904D01*
X208542000Y-124182285D01*
X208494380Y-124087047D01*
X208494380Y-123896571D01*
X208542000Y-123801333D01*
X208589619Y-123753714D01*
X208684857Y-123706095D01*
X208732476Y-123706095D01*
X208827714Y-123753714D01*
X208875333Y-123801333D01*
X208922952Y-123896571D01*
X208922952Y-124087047D01*
X208970571Y-124182285D01*
X209018190Y-124229904D01*
X209113428Y-124277523D01*
X209303904Y-124277523D01*
X209399142Y-124229904D01*
X209446761Y-124182285D01*
X209494380Y-124087047D01*
X209494380Y-123896571D01*
X209446761Y-123801333D01*
X209399142Y-123753714D01*
X209303904Y-123706095D01*
X209113428Y-123706095D01*
X209018190Y-123753714D01*
X208970571Y-123801333D01*
X208922952Y-123896571D01*
%TO.C,L2*%
X205954333Y-128517216D02*
X205478142Y-128517216D01*
X205478142Y-127517216D01*
X206240047Y-127612455D02*
X206287666Y-127564836D01*
X206382904Y-127517216D01*
X206621000Y-127517216D01*
X206716238Y-127564836D01*
X206763857Y-127612455D01*
X206811476Y-127707693D01*
X206811476Y-127802931D01*
X206763857Y-127945788D01*
X206192428Y-128517216D01*
X206811476Y-128517216D01*
%TO.C,L3*%
X207198933Y-123515380D02*
X206722742Y-123515380D01*
X206722742Y-122515380D01*
X207437028Y-122515380D02*
X208056076Y-122515380D01*
X207722742Y-122896333D01*
X207865600Y-122896333D01*
X207960838Y-122943952D01*
X208008457Y-122991571D01*
X208056076Y-123086809D01*
X208056076Y-123324904D01*
X208008457Y-123420142D01*
X207960838Y-123467761D01*
X207865600Y-123515380D01*
X207579885Y-123515380D01*
X207484647Y-123467761D01*
X207437028Y-123420142D01*
%TO.C,U7*%
D19*
X205247285Y-124578142D02*
X205247285Y-124966714D01*
X205270142Y-125012428D01*
X205293000Y-125035285D01*
X205338714Y-125058142D01*
X205430142Y-125058142D01*
X205475857Y-125035285D01*
X205498714Y-125012428D01*
X205521571Y-124966714D01*
X205521571Y-124578142D01*
X205704428Y-124578142D02*
X206024428Y-124578142D01*
X205818714Y-125058142D01*
%TO.C,U1*%
D17*
X199096380Y-77622304D02*
X199905904Y-77622304D01*
X200001142Y-77574685D01*
X200048761Y-77527066D01*
X200096380Y-77431828D01*
X200096380Y-77241352D01*
X200048761Y-77146114D01*
X200001142Y-77098495D01*
X199905904Y-77050876D01*
X199096380Y-77050876D01*
X200096380Y-76050876D02*
X200096380Y-76622304D01*
X200096380Y-76336590D02*
X199096380Y-76336590D01*
X199239238Y-76431828D01*
X199334476Y-76527066D01*
X199382095Y-76622304D01*
%TO.C,C11*%
X200614042Y-87949042D02*
X200566423Y-87996661D01*
X200423566Y-88044280D01*
X200328328Y-88044280D01*
X200185471Y-87996661D01*
X200090233Y-87901423D01*
X200042614Y-87806185D01*
X199994995Y-87615709D01*
X199994995Y-87472852D01*
X200042614Y-87282376D01*
X200090233Y-87187138D01*
X200185471Y-87091900D01*
X200328328Y-87044280D01*
X200423566Y-87044280D01*
X200566423Y-87091900D01*
X200614042Y-87139519D01*
X201566423Y-88044280D02*
X200994995Y-88044280D01*
X201280709Y-88044280D02*
X201280709Y-87044280D01*
X201185471Y-87187138D01*
X201090233Y-87282376D01*
X200994995Y-87329995D01*
X202518804Y-88044280D02*
X201947376Y-88044280D01*
X202233090Y-88044280D02*
X202233090Y-87044280D01*
X202137852Y-87187138D01*
X202042614Y-87282376D01*
X201947376Y-87329995D01*
%TO.C,C1*%
X211431142Y-125261666D02*
X211478761Y-125309285D01*
X211526380Y-125452142D01*
X211526380Y-125547380D01*
X211478761Y-125690238D01*
X211383523Y-125785476D01*
X211288285Y-125833095D01*
X211097809Y-125880714D01*
X210954952Y-125880714D01*
X210764476Y-125833095D01*
X210669238Y-125785476D01*
X210574000Y-125690238D01*
X210526380Y-125547380D01*
X210526380Y-125452142D01*
X210574000Y-125309285D01*
X210621619Y-125261666D01*
X211526380Y-124309285D02*
X211526380Y-124880714D01*
X211526380Y-124595000D02*
X210526380Y-124595000D01*
X210669238Y-124690238D01*
X210764476Y-124785476D01*
X210812095Y-124880714D01*
%TO.C,C2*%
X203811142Y-84012066D02*
X203858761Y-84059685D01*
X203906380Y-84202542D01*
X203906380Y-84297780D01*
X203858761Y-84440638D01*
X203763523Y-84535876D01*
X203668285Y-84583495D01*
X203477809Y-84631114D01*
X203334952Y-84631114D01*
X203144476Y-84583495D01*
X203049238Y-84535876D01*
X202954000Y-84440638D01*
X202906380Y-84297780D01*
X202906380Y-84202542D01*
X202954000Y-84059685D01*
X203001619Y-84012066D01*
X203001619Y-83631114D02*
X202954000Y-83583495D01*
X202906380Y-83488257D01*
X202906380Y-83250161D01*
X202954000Y-83154923D01*
X203001619Y-83107304D01*
X203096857Y-83059685D01*
X203192095Y-83059685D01*
X203334952Y-83107304D01*
X203906380Y-83678733D01*
X203906380Y-83059685D01*
%TO.C,C4*%
X202718942Y-83935866D02*
X202766561Y-83983485D01*
X202814180Y-84126342D01*
X202814180Y-84221580D01*
X202766561Y-84364438D01*
X202671323Y-84459676D01*
X202576085Y-84507295D01*
X202385609Y-84554914D01*
X202242752Y-84554914D01*
X202052276Y-84507295D01*
X201957038Y-84459676D01*
X201861800Y-84364438D01*
X201814180Y-84221580D01*
X201814180Y-84126342D01*
X201861800Y-83983485D01*
X201909419Y-83935866D01*
X202147514Y-83078723D02*
X202814180Y-83078723D01*
X201766561Y-83316819D02*
X202480847Y-83554914D01*
X202480847Y-82935866D01*
%TO.C,C5*%
X197397642Y-99861666D02*
X197445261Y-99909285D01*
X197492880Y-100052142D01*
X197492880Y-100147380D01*
X197445261Y-100290238D01*
X197350023Y-100385476D01*
X197254785Y-100433095D01*
X197064309Y-100480714D01*
X196921452Y-100480714D01*
X196730976Y-100433095D01*
X196635738Y-100385476D01*
X196540500Y-100290238D01*
X196492880Y-100147380D01*
X196492880Y-100052142D01*
X196540500Y-99909285D01*
X196588119Y-99861666D01*
X196492880Y-98956904D02*
X196492880Y-99433095D01*
X196969071Y-99480714D01*
X196921452Y-99433095D01*
X196873833Y-99337857D01*
X196873833Y-99099761D01*
X196921452Y-99004523D01*
X196969071Y-98956904D01*
X197064309Y-98909285D01*
X197302404Y-98909285D01*
X197397642Y-98956904D01*
X197445261Y-99004523D01*
X197492880Y-99099761D01*
X197492880Y-99337857D01*
X197445261Y-99433095D01*
X197397642Y-99480714D01*
%TO.C,C6*%
X199426533Y-102109542D02*
X199378914Y-102157161D01*
X199236057Y-102204780D01*
X199140819Y-102204780D01*
X198997961Y-102157161D01*
X198902723Y-102061923D01*
X198855104Y-101966685D01*
X198807485Y-101776209D01*
X198807485Y-101633352D01*
X198855104Y-101442876D01*
X198902723Y-101347638D01*
X198997961Y-101252400D01*
X199140819Y-101204780D01*
X199236057Y-101204780D01*
X199378914Y-101252400D01*
X199426533Y-101300019D01*
X200283676Y-101204780D02*
X200093200Y-101204780D01*
X199997961Y-101252400D01*
X199950342Y-101300019D01*
X199855104Y-101442876D01*
X199807485Y-101633352D01*
X199807485Y-102014304D01*
X199855104Y-102109542D01*
X199902723Y-102157161D01*
X199997961Y-102204780D01*
X200188438Y-102204780D01*
X200283676Y-102157161D01*
X200331295Y-102109542D01*
X200378914Y-102014304D01*
X200378914Y-101776209D01*
X200331295Y-101680971D01*
X200283676Y-101633352D01*
X200188438Y-101585733D01*
X199997961Y-101585733D01*
X199902723Y-101633352D01*
X199855104Y-101680971D01*
X199807485Y-101776209D01*
%TO.C,C7*%
X201575942Y-84393066D02*
X201623561Y-84440685D01*
X201671180Y-84583542D01*
X201671180Y-84678780D01*
X201623561Y-84821638D01*
X201528323Y-84916876D01*
X201433085Y-84964495D01*
X201242609Y-85012114D01*
X201099752Y-85012114D01*
X200909276Y-84964495D01*
X200814038Y-84916876D01*
X200718800Y-84821638D01*
X200671180Y-84678780D01*
X200671180Y-84583542D01*
X200718800Y-84440685D01*
X200766419Y-84393066D01*
X200671180Y-84059733D02*
X200671180Y-83393066D01*
X201671180Y-83821638D01*
%TO.C,C10*%
X203344542Y-88063342D02*
X203296923Y-88110961D01*
X203154066Y-88158580D01*
X203058828Y-88158580D01*
X202915971Y-88110961D01*
X202820733Y-88015723D01*
X202773114Y-87920485D01*
X202725495Y-87730009D01*
X202725495Y-87587152D01*
X202773114Y-87396676D01*
X202820733Y-87301438D01*
X202915971Y-87206200D01*
X203058828Y-87158580D01*
X203154066Y-87158580D01*
X203296923Y-87206200D01*
X203344542Y-87253819D01*
X204296923Y-88158580D02*
X203725495Y-88158580D01*
X204011209Y-88158580D02*
X204011209Y-87158580D01*
X203915971Y-87301438D01*
X203820733Y-87396676D01*
X203725495Y-87444295D01*
X204915971Y-87158580D02*
X205011209Y-87158580D01*
X205106447Y-87206200D01*
X205154066Y-87253819D01*
X205201685Y-87349057D01*
X205249304Y-87539533D01*
X205249304Y-87777628D01*
X205201685Y-87968104D01*
X205154066Y-88063342D01*
X205106447Y-88110961D01*
X205011209Y-88158580D01*
X204915971Y-88158580D01*
X204820733Y-88110961D01*
X204773114Y-88063342D01*
X204725495Y-87968104D01*
X204677876Y-87777628D01*
X204677876Y-87539533D01*
X204725495Y-87349057D01*
X204773114Y-87253819D01*
X204820733Y-87206200D01*
X204915971Y-87158580D01*
%TO.C,J2*%
X196886580Y-77777933D02*
X197600866Y-77777933D01*
X197743723Y-77825552D01*
X197838961Y-77920790D01*
X197886580Y-78063647D01*
X197886580Y-78158885D01*
X196981819Y-77349361D02*
X196934200Y-77301742D01*
X196886580Y-77206504D01*
X196886580Y-76968409D01*
X196934200Y-76873171D01*
X196981819Y-76825552D01*
X197077057Y-76777933D01*
X197172295Y-76777933D01*
X197315152Y-76825552D01*
X197886580Y-77396980D01*
X197886580Y-76777933D01*
%TO.C,L1*%
X200391733Y-79420980D02*
X199915542Y-79420980D01*
X199915542Y-78420980D01*
X201248876Y-79420980D02*
X200677447Y-79420980D01*
X200963161Y-79420980D02*
X200963161Y-78420980D01*
X200867923Y-78563838D01*
X200772685Y-78659076D01*
X200677447Y-78706695D01*
%TO.C,U2*%
X194905380Y-100456904D02*
X195714904Y-100456904D01*
X195810142Y-100409285D01*
X195857761Y-100361666D01*
X195905380Y-100266428D01*
X195905380Y-100075952D01*
X195857761Y-99980714D01*
X195810142Y-99933095D01*
X195714904Y-99885476D01*
X194905380Y-99885476D01*
X195000619Y-99456904D02*
X194953000Y-99409285D01*
X194905380Y-99314047D01*
X194905380Y-99075952D01*
X194953000Y-98980714D01*
X195000619Y-98933095D01*
X195095857Y-98885476D01*
X195191095Y-98885476D01*
X195333952Y-98933095D01*
X195905380Y-99504523D01*
X195905380Y-98885476D01*
%TO.C,R4*%
X196264233Y-89949280D02*
X195930900Y-89473090D01*
X195692804Y-89949280D02*
X195692804Y-88949280D01*
X196073757Y-88949280D01*
X196168995Y-88996900D01*
X196216614Y-89044519D01*
X196264233Y-89139757D01*
X196264233Y-89282614D01*
X196216614Y-89377852D01*
X196168995Y-89425471D01*
X196073757Y-89473090D01*
X195692804Y-89473090D01*
X197121376Y-89282614D02*
X197121376Y-89949280D01*
X196883280Y-88901661D02*
X196645185Y-89615947D01*
X197264233Y-89615947D01*
%TO.C,R3*%
X201118400Y-90679566D02*
X200642210Y-91012900D01*
X201118400Y-91250995D02*
X200118400Y-91250995D01*
X200118400Y-90870042D01*
X200166020Y-90774804D01*
X200213639Y-90727185D01*
X200308877Y-90679566D01*
X200451734Y-90679566D01*
X200546972Y-90727185D01*
X200594591Y-90774804D01*
X200642210Y-90870042D01*
X200642210Y-91250995D01*
X200118400Y-90346233D02*
X200118400Y-89727185D01*
X200499353Y-90060519D01*
X200499353Y-89917661D01*
X200546972Y-89822423D01*
X200594591Y-89774804D01*
X200689829Y-89727185D01*
X200927924Y-89727185D01*
X201023162Y-89774804D01*
X201070781Y-89822423D01*
X201118400Y-89917661D01*
X201118400Y-90203376D01*
X201070781Y-90298614D01*
X201023162Y-90346233D01*
%TO.C,R2*%
X205292280Y-90656566D02*
X204816090Y-90989900D01*
X205292280Y-91227995D02*
X204292280Y-91227995D01*
X204292280Y-90847042D01*
X204339900Y-90751804D01*
X204387519Y-90704185D01*
X204482757Y-90656566D01*
X204625614Y-90656566D01*
X204720852Y-90704185D01*
X204768471Y-90751804D01*
X204816090Y-90847042D01*
X204816090Y-91227995D01*
X204387519Y-90275614D02*
X204339900Y-90227995D01*
X204292280Y-90132757D01*
X204292280Y-89894661D01*
X204339900Y-89799423D01*
X204387519Y-89751804D01*
X204482757Y-89704185D01*
X204577995Y-89704185D01*
X204720852Y-89751804D01*
X205292280Y-90323233D01*
X205292280Y-89704185D01*
%TO.C,R1*%
X200683833Y-100909380D02*
X200350500Y-100433190D01*
X200112404Y-100909380D02*
X200112404Y-99909380D01*
X200493357Y-99909380D01*
X200588595Y-99957000D01*
X200636214Y-100004619D01*
X200683833Y-100099857D01*
X200683833Y-100242714D01*
X200636214Y-100337952D01*
X200588595Y-100385571D01*
X200493357Y-100433190D01*
X200112404Y-100433190D01*
X201636214Y-100909380D02*
X201064785Y-100909380D01*
X201350500Y-100909380D02*
X201350500Y-99909380D01*
X201255261Y-100052238D01*
X201160023Y-100147476D01*
X201064785Y-100195095D01*
%TO.C,C26*%
X209034142Y-86717142D02*
X208986523Y-86764761D01*
X208843666Y-86812380D01*
X208748428Y-86812380D01*
X208605571Y-86764761D01*
X208510333Y-86669523D01*
X208462714Y-86574285D01*
X208415095Y-86383809D01*
X208415095Y-86240952D01*
X208462714Y-86050476D01*
X208510333Y-85955238D01*
X208605571Y-85860000D01*
X208748428Y-85812380D01*
X208843666Y-85812380D01*
X208986523Y-85860000D01*
X209034142Y-85907619D01*
X209415095Y-85907619D02*
X209462714Y-85860000D01*
X209557952Y-85812380D01*
X209796047Y-85812380D01*
X209891285Y-85860000D01*
X209938904Y-85907619D01*
X209986523Y-86002857D01*
X209986523Y-86098095D01*
X209938904Y-86240952D01*
X209367476Y-86812380D01*
X209986523Y-86812380D01*
X210843666Y-85812380D02*
X210653190Y-85812380D01*
X210557952Y-85860000D01*
X210510333Y-85907619D01*
X210415095Y-86050476D01*
X210367476Y-86240952D01*
X210367476Y-86621904D01*
X210415095Y-86717142D01*
X210462714Y-86764761D01*
X210557952Y-86812380D01*
X210748428Y-86812380D01*
X210843666Y-86764761D01*
X210891285Y-86717142D01*
X210938904Y-86621904D01*
X210938904Y-86383809D01*
X210891285Y-86288571D01*
X210843666Y-86240952D01*
X210748428Y-86193333D01*
X210557952Y-86193333D01*
X210462714Y-86240952D01*
X210415095Y-86288571D01*
X210367476Y-86383809D01*
%TD*%
M02*
