%TF.GenerationSoftware,KiCad,Pcbnew,(6.0.7)*%
%TF.CreationDate,2022-09-29T10:24:13-07:00*%
%TF.ProjectId,sulu_ads1299,73756c75-5f61-4647-9331-3239392e6b69,rev?*%
%TF.SameCoordinates,Original*%
%TF.FileFunction,Paste,Top*%
%TF.FilePolarity,Positive*%
%FSLAX46Y46*%
G04 Gerber Fmt 4.6, Leading zero omitted, Abs format (unit mm)*
G04 Created by KiCad (PCBNEW (6.0.7)) date 2022-09-29 10:24:13*
%MOMM*%
%LPD*%
G01*
G04 APERTURE LIST*
G04 Aperture macros list*
%AMRoundRect*
0 Rectangle with rounded corners*
0 $1 Rounding radius*
0 $2 $3 $4 $5 $6 $7 $8 $9 X,Y pos of 4 corners*
0 Add a 4 corners polygon primitive as box body*
4,1,4,$2,$3,$4,$5,$6,$7,$8,$9,$2,$3,0*
0 Add four circle primitives for the rounded corners*
1,1,$1+$1,$2,$3*
1,1,$1+$1,$4,$5*
1,1,$1+$1,$6,$7*
1,1,$1+$1,$8,$9*
0 Add four rect primitives between the rounded corners*
20,1,$1+$1,$2,$3,$4,$5,0*
20,1,$1+$1,$4,$5,$6,$7,0*
20,1,$1+$1,$6,$7,$8,$9,0*
20,1,$1+$1,$8,$9,$2,$3,0*%
G04 Aperture macros list end*
%ADD10RoundRect,0.140000X0.170000X-0.140000X0.170000X0.140000X-0.170000X0.140000X-0.170000X-0.140000X0*%
%ADD11RoundRect,0.140000X-0.140000X-0.170000X0.140000X-0.170000X0.140000X0.170000X-0.140000X0.170000X0*%
%ADD12RoundRect,0.135000X0.185000X-0.135000X0.185000X0.135000X-0.185000X0.135000X-0.185000X-0.135000X0*%
%ADD13RoundRect,0.140000X0.140000X0.170000X-0.140000X0.170000X-0.140000X-0.170000X0.140000X-0.170000X0*%
%ADD14R,0.650000X0.750000*%
%ADD15R,0.250000X0.500000*%
%ADD16RoundRect,0.140000X-0.170000X0.140000X-0.170000X-0.140000X0.170000X-0.140000X0.170000X0.140000X0*%
%ADD17RoundRect,0.135000X0.135000X0.185000X-0.135000X0.185000X-0.135000X-0.185000X0.135000X-0.185000X0*%
%ADD18R,0.500000X0.300000*%
%ADD19RoundRect,0.135000X-0.135000X-0.185000X0.135000X-0.185000X0.135000X0.185000X-0.135000X0.185000X0*%
%ADD20RoundRect,0.135000X-0.185000X0.135000X-0.185000X-0.135000X0.185000X-0.135000X0.185000X0.135000X0*%
%ADD21RoundRect,0.075000X0.075000X-0.662500X0.075000X0.662500X-0.075000X0.662500X-0.075000X-0.662500X0*%
%ADD22RoundRect,0.075000X0.662500X-0.075000X0.662500X0.075000X-0.662500X0.075000X-0.662500X-0.075000X0*%
%ADD23O,0.800000X0.200000*%
%ADD24O,0.200000X0.800000*%
%ADD25R,1.900000X0.850000*%
%ADD26RoundRect,0.250000X-0.250000X-0.475000X0.250000X-0.475000X0.250000X0.475000X-0.250000X0.475000X0*%
G04 APERTURE END LIST*
D10*
%TO.C,C26*%
X81788000Y-92329000D03*
X81788000Y-91369000D03*
%TD*%
D11*
%TO.C,C23*%
X106477000Y-66548000D03*
X107437000Y-66548000D03*
%TD*%
D12*
%TO.C,R7*%
X94615000Y-106430000D03*
X94615000Y-105410000D03*
%TD*%
%TO.C,R9*%
X97790000Y-107190000D03*
X97790000Y-106170000D03*
%TD*%
D10*
%TO.C,C15*%
X106779000Y-99794000D03*
X106779000Y-98834000D03*
%TD*%
D13*
%TO.C,C25*%
X86332000Y-78740000D03*
X85372000Y-78740000D03*
%TD*%
D12*
%TO.C,R14*%
X106680000Y-107065000D03*
X106680000Y-106045000D03*
%TD*%
D14*
%TO.C,U3*%
X80118000Y-94361000D03*
X80918000Y-94361000D03*
D15*
X79768000Y-95311000D03*
X80268000Y-95311000D03*
X80768000Y-95311000D03*
X81268000Y-95311000D03*
X81268000Y-93411000D03*
X80768000Y-93411000D03*
X80268000Y-93411000D03*
X79768000Y-93411000D03*
%TD*%
D10*
%TO.C,C5*%
X94996000Y-60932000D03*
X94996000Y-59972000D03*
%TD*%
D13*
%TO.C,C24*%
X86355000Y-74676000D03*
X85395000Y-74676000D03*
%TD*%
D16*
%TO.C,C2*%
X110236000Y-60711000D03*
X110236000Y-61671000D03*
%TD*%
%TO.C,C22*%
X100457000Y-59868000D03*
X100457000Y-60828000D03*
%TD*%
D17*
%TO.C,R3*%
X110215000Y-63246000D03*
X109195000Y-63246000D03*
%TD*%
D16*
%TO.C,C_1.8_IN1*%
X83820000Y-63297000D03*
X83820000Y-64257000D03*
%TD*%
D12*
%TO.C,R12*%
X102870000Y-107065000D03*
X102870000Y-106045000D03*
%TD*%
%TO.C,R11*%
X101600000Y-107065000D03*
X101600000Y-106045000D03*
%TD*%
D18*
%TO.C,U2*%
X86106000Y-60960000D03*
X86106000Y-60460000D03*
X86106000Y-59960000D03*
X84306000Y-59960000D03*
X84306000Y-60460000D03*
X84306000Y-60960000D03*
%TD*%
D11*
%TO.C,C14*%
X104930000Y-101346000D03*
X105890000Y-101346000D03*
%TD*%
D12*
%TO.C,R13*%
X105410000Y-107190000D03*
X105410000Y-106170000D03*
%TD*%
D19*
%TO.C,R4*%
X109195000Y-65278000D03*
X110215000Y-65278000D03*
%TD*%
D16*
%TO.C,C21*%
X98552000Y-59868000D03*
X98552000Y-60828000D03*
%TD*%
D13*
%TO.C,C6*%
X80264000Y-91821000D03*
X79304000Y-91821000D03*
%TD*%
D12*
%TO.C,R8*%
X95885000Y-106430000D03*
X95885000Y-105410000D03*
%TD*%
D20*
%TO.C,R2*%
X103632000Y-86866000D03*
X103632000Y-87886000D03*
%TD*%
D16*
%TO.C,C11*%
X87884000Y-91595000D03*
X87884000Y-92555000D03*
%TD*%
D10*
%TO.C,C13*%
X106807000Y-97000000D03*
X106807000Y-96040000D03*
%TD*%
D20*
%TO.C,R1*%
X101219000Y-86612000D03*
X101219000Y-87632000D03*
%TD*%
D10*
%TO.C,C12*%
X105537000Y-97000000D03*
X105537000Y-96040000D03*
%TD*%
D18*
%TO.C,U1*%
X81004000Y-63008000D03*
X81004000Y-63508000D03*
X81004000Y-64008000D03*
X82804000Y-64008000D03*
X82804000Y-63508000D03*
X82804000Y-63008000D03*
%TD*%
D20*
%TO.C,R5*%
X96774000Y-59965000D03*
X96774000Y-60985000D03*
%TD*%
D11*
%TO.C,C29*%
X94770000Y-104140000D03*
X95730000Y-104140000D03*
%TD*%
D13*
%TO.C,C17*%
X84300000Y-96774000D03*
X83340000Y-96774000D03*
%TD*%
D21*
%TO.C,U4*%
X92765000Y-102182500D03*
X93265000Y-102182500D03*
X93765000Y-102182500D03*
X94265000Y-102182500D03*
X94765000Y-102182500D03*
X95265000Y-102182500D03*
X95765000Y-102182500D03*
X96265000Y-102182500D03*
X96765000Y-102182500D03*
X97265000Y-102182500D03*
X97765000Y-102182500D03*
X98265000Y-102182500D03*
X98765000Y-102182500D03*
X99265000Y-102182500D03*
X99765000Y-102182500D03*
X100265000Y-102182500D03*
D22*
X102177500Y-100270000D03*
X102177500Y-99770000D03*
X102177500Y-99270000D03*
X102177500Y-98770000D03*
X102177500Y-98270000D03*
X102177500Y-97770000D03*
X102177500Y-97270000D03*
X102177500Y-96770000D03*
X102177500Y-96270000D03*
X102177500Y-95770000D03*
X102177500Y-95270000D03*
X102177500Y-94770000D03*
X102177500Y-94270000D03*
X102177500Y-93770000D03*
X102177500Y-93270000D03*
X102177500Y-92770000D03*
D21*
X100265000Y-90857500D03*
X99765000Y-90857500D03*
X99265000Y-90857500D03*
X98765000Y-90857500D03*
X98265000Y-90857500D03*
X97765000Y-90857500D03*
X97265000Y-90857500D03*
X96765000Y-90857500D03*
X96265000Y-90857500D03*
X95765000Y-90857500D03*
X95265000Y-90857500D03*
X94765000Y-90857500D03*
X94265000Y-90857500D03*
X93765000Y-90857500D03*
X93265000Y-90857500D03*
X92765000Y-90857500D03*
D22*
X90852500Y-92770000D03*
X90852500Y-93270000D03*
X90852500Y-93770000D03*
X90852500Y-94270000D03*
X90852500Y-94770000D03*
X90852500Y-95270000D03*
X90852500Y-95770000D03*
X90852500Y-96270000D03*
X90852500Y-96770000D03*
X90852500Y-97270000D03*
X90852500Y-97770000D03*
X90852500Y-98270000D03*
X90852500Y-98770000D03*
X90852500Y-99270000D03*
X90852500Y-99770000D03*
X90852500Y-100270000D03*
%TD*%
D13*
%TO.C,C18*%
X84300000Y-95758000D03*
X83340000Y-95758000D03*
%TD*%
%TO.C,C7*%
X80998000Y-96520000D03*
X80038000Y-96520000D03*
%TD*%
D23*
%TO.C,U5*%
X90620000Y-63838000D03*
X90620000Y-64238000D03*
X90620000Y-64638000D03*
X90620000Y-65038000D03*
X90620000Y-65438000D03*
X90620000Y-65838000D03*
X90620000Y-66238000D03*
X90620000Y-66638000D03*
X90620000Y-67038000D03*
X90620000Y-67438000D03*
X90620000Y-67838000D03*
X90620000Y-68238000D03*
X90620000Y-68638000D03*
X90620000Y-69038000D03*
X90620000Y-69438000D03*
X90620000Y-69838000D03*
X90620000Y-70238000D03*
X90620000Y-70638000D03*
X90620000Y-71038000D03*
X90620000Y-71438000D03*
X90620000Y-71838000D03*
X90620000Y-72238000D03*
X90620000Y-72638000D03*
X90620000Y-73038000D03*
X90620000Y-73438000D03*
D24*
X91720000Y-74538000D03*
X92120000Y-74538000D03*
X92520000Y-74538000D03*
X92920000Y-74538000D03*
X93320000Y-74538000D03*
X93720000Y-74538000D03*
X94120000Y-74538000D03*
X94520000Y-74538000D03*
X94920000Y-74538000D03*
X95320000Y-74538000D03*
X95720000Y-74538000D03*
X96120000Y-74538000D03*
X96520000Y-74538000D03*
X96920000Y-74538000D03*
X97320000Y-74538000D03*
X97720000Y-74538000D03*
X98120000Y-74538000D03*
X98520000Y-74538000D03*
X98920000Y-74538000D03*
X99320000Y-74538000D03*
X99720000Y-74538000D03*
X100120000Y-74538000D03*
X100520000Y-74538000D03*
X100920000Y-74538000D03*
X101320000Y-74538000D03*
D23*
X102420000Y-73438000D03*
X102420000Y-73038000D03*
X102420000Y-72638000D03*
X102420000Y-72238000D03*
X102420000Y-71838000D03*
X102420000Y-71438000D03*
X102420000Y-71038000D03*
X102420000Y-70638000D03*
X102420000Y-70238000D03*
X102420000Y-69838000D03*
X102420000Y-69438000D03*
X102420000Y-69038000D03*
X102420000Y-68638000D03*
X102420000Y-68238000D03*
X102420000Y-67838000D03*
X102420000Y-67438000D03*
X102420000Y-67038000D03*
X102420000Y-66638000D03*
X102420000Y-66238000D03*
X102420000Y-65838000D03*
X102420000Y-65438000D03*
X102420000Y-65038000D03*
X102420000Y-64638000D03*
X102420000Y-64238000D03*
X102420000Y-63838000D03*
D24*
X101320000Y-62738000D03*
X100920000Y-62738000D03*
X100520000Y-62738000D03*
X100120000Y-62738000D03*
X99720000Y-62738000D03*
X99320000Y-62738000D03*
X98920000Y-62738000D03*
X98520000Y-62738000D03*
X98120000Y-62738000D03*
X97720000Y-62738000D03*
X97320000Y-62738000D03*
X96920000Y-62738000D03*
X96520000Y-62738000D03*
X96120000Y-62738000D03*
X95720000Y-62738000D03*
X95320000Y-62738000D03*
X94920000Y-62738000D03*
X94520000Y-62738000D03*
X94120000Y-62738000D03*
X93720000Y-62738000D03*
X93320000Y-62738000D03*
X92920000Y-62738000D03*
X92520000Y-62738000D03*
X92120000Y-62738000D03*
X91720000Y-62738000D03*
%TD*%
D13*
%TO.C,C10*%
X91031000Y-87757000D03*
X90071000Y-87757000D03*
%TD*%
D16*
%TO.C,C1*%
X108204000Y-60711000D03*
X108204000Y-61671000D03*
%TD*%
D13*
%TO.C,C_1.8_OUT1*%
X81991000Y-61976000D03*
X81031000Y-61976000D03*
%TD*%
D10*
%TO.C,C9*%
X86461600Y-98905000D03*
X86461600Y-97945000D03*
%TD*%
D25*
%TO.C,L2*%
X87884000Y-61468000D03*
X87884000Y-60018000D03*
%TD*%
D16*
%TO.C,C3*%
X102235000Y-77752000D03*
X102235000Y-78712000D03*
%TD*%
D11*
%TO.C,C27*%
X101656000Y-104775000D03*
X102616000Y-104775000D03*
%TD*%
D10*
%TO.C,C8*%
X84074000Y-92428000D03*
X84074000Y-91468000D03*
%TD*%
D26*
%TO.C,C20*%
X105349000Y-93472000D03*
X107249000Y-93472000D03*
%TD*%
D12*
%TO.C,R10*%
X99060000Y-107065000D03*
X99060000Y-106045000D03*
%TD*%
D11*
%TO.C,C_1.1_OUT1*%
X85141000Y-61976000D03*
X86101000Y-61976000D03*
%TD*%
D19*
%TO.C,R15*%
X111250000Y-86360000D03*
X112270000Y-86360000D03*
%TD*%
D11*
%TO.C,C19*%
X104295000Y-91821000D03*
X105255000Y-91821000D03*
%TD*%
%TO.C,C16*%
X104295000Y-94996000D03*
X105255000Y-94996000D03*
%TD*%
D19*
%TO.C,R6*%
X106447000Y-65024000D03*
X107467000Y-65024000D03*
%TD*%
D11*
%TO.C,C30*%
X97945000Y-104775000D03*
X98905000Y-104775000D03*
%TD*%
%TO.C,C28*%
X105720000Y-104775000D03*
X106680000Y-104775000D03*
%TD*%
D25*
%TO.C,L1*%
X79248000Y-62558000D03*
X79248000Y-64008000D03*
%TD*%
D10*
%TO.C,C_1.1_IN1*%
X83312000Y-60701000D03*
X83312000Y-59741000D03*
%TD*%
D16*
%TO.C,C4*%
X103632000Y-77752000D03*
X103632000Y-78712000D03*
%TD*%
M02*
