M48
; DRILL file {KiCad (6.0.7)} date Thu Sep 29 10:24:17 2022
; FORMAT={-:-/ absolute / inch / decimal}
; #@! TF.CreationDate,2022-09-29T10:24:17-07:00
; #@! TF.GenerationSoftware,Kicad,Pcbnew,(6.0.7)
; #@! TF.FileFunction,Plated,1,2,PTH
FMAT,2
INCH
; #@! TA.AperFunction,Plated,PTH,ViaDrill
T1C0.0080
; #@! TA.AperFunction,Plated,PTH,ComponentDrill
T2C0.0098
; #@! TA.AperFunction,Plated,PTH,ComponentDrill
T3C0.0112
; #@! TA.AperFunction,Plated,PTH,ViaDrill
T4C0.0120
; #@! TA.AperFunction,Plated,PTH,ComponentDrill
T5C0.0150
; #@! TA.AperFunction,Plated,PTH,ViaDrill
T6C0.0160
; #@! TA.AperFunction,Plated,PTH,ComponentDrill
T7C0.0295
; #@! TA.AperFunction,Plated,PTH,ComponentDrill
T8C0.0394
; #@! TA.AperFunction,Plated,PTH,ComponentDrill
T9C0.0433
; #@! TA.AperFunction,Plated,PTH,ComponentDrill
T10C0.0630
%
G90
G05
T1
X3.575Y-3.09
X3.585Y-3.05
X3.6Y-3.09
X3.625Y-3.09
X3.6528Y-3.0896
X3.67Y-3.41
X3.6821Y-3.0919
X3.69Y-3.43
X3.71Y-3.09
X3.71Y-3.45
X3.73Y-3.47
X3.736Y-3.09
X3.766Y-3.092
X3.77Y-3.49
X3.79Y-3.47
X3.815Y-3.42
X3.83Y-3.48
X3.905Y-3.36
X3.93Y-3.49
X3.935Y-3.42
X3.955Y-3.47
X4.045Y-3.46
X4.108Y-2.718
X4.195Y-2.845
X4.218Y-2.878
X4.245Y-2.73
T2
X3.1503Y-3.715
X3.1897Y-3.715
T3
X3.6433Y-2.5455
X3.6433Y-2.5903
X3.6433Y-2.6351
X3.6433Y-2.6799
X3.6433Y-2.7247
X3.6433Y-2.7695
X3.6433Y-2.8142
X3.6433Y-2.859
X3.688Y-2.5455
X3.688Y-2.5903
X3.688Y-2.6351
X3.688Y-2.6799
X3.688Y-2.7247
X3.688Y-2.7695
X3.688Y-2.8142
X3.688Y-2.859
X3.7328Y-2.5455
X3.7328Y-2.5903
X3.7328Y-2.6351
X3.7328Y-2.6799
X3.7328Y-2.7247
X3.7328Y-2.7695
X3.7328Y-2.8142
X3.7328Y-2.859
X3.7776Y-2.5455
X3.7776Y-2.5903
X3.7776Y-2.6351
X3.7776Y-2.6799
X3.7776Y-2.7247
X3.7776Y-2.7695
X3.7776Y-2.8142
X3.7776Y-2.859
X3.8224Y-2.5455
X3.8224Y-2.5903
X3.8224Y-2.6351
X3.8224Y-2.6799
X3.8224Y-2.7247
X3.8224Y-2.7695
X3.8224Y-2.8142
X3.8224Y-2.859
X3.8672Y-2.5455
X3.8672Y-2.5903
X3.8672Y-2.6351
X3.8672Y-2.6799
X3.8672Y-2.7247
X3.8672Y-2.7695
X3.8672Y-2.8142
X3.8672Y-2.859
X3.912Y-2.5455
X3.912Y-2.5903
X3.912Y-2.6351
X3.912Y-2.6799
X3.912Y-2.7247
X3.912Y-2.7695
X3.912Y-2.8142
X3.912Y-2.859
X3.9567Y-2.5455
X3.9567Y-2.5903
X3.9567Y-2.6351
X3.9567Y-2.6799
X3.9567Y-2.7247
X3.9567Y-2.7695
X3.9567Y-2.8142
X3.9567Y-2.859
T4
X3.24Y-2.325
X3.365Y-3.745
X3.365Y-3.895
X3.5Y-3.745
T5
X3.35Y-2.51
X3.39Y-2.99
X3.39Y-3.04
X3.41Y-2.51
X3.49Y-2.5
X3.49Y-3.055
X3.59Y-2.37
X3.64Y-2.37
X3.69Y-2.37
X3.885Y-3.46
X4.085Y-2.625
X4.1Y-2.47
X4.105Y-2.525
X4.12Y-2.66
X4.14Y-2.62
X4.21Y-2.678
X4.275Y-2.795
X4.275Y-2.895
T6
X3.215Y-3.55
X3.25Y-3.675
X3.3Y-2.44
X3.515Y-2.5698
X3.554Y-2.414
X3.96Y-3.06
X4.27Y-3.995
T7
X3.2167Y-4.1306
X3.2167Y-4.2094
T8
X3.325Y-2.145
X3.325Y-2.245
X3.3512Y-3.2208
X3.3512Y-3.3208
X3.425Y-2.145
X3.425Y-2.245
X3.4512Y-3.2208
X3.4512Y-3.3208
X3.525Y-2.145
X3.525Y-2.245
X3.5324Y-4.325
X3.5324Y-4.425
X3.5512Y-3.2208
X3.5512Y-3.3208
X3.625Y-2.145
X3.625Y-2.245
X3.6324Y-4.325
X3.6324Y-4.425
X3.6512Y-3.2208
X3.6512Y-3.3208
X3.725Y-2.145
X3.725Y-2.245
X3.7324Y-4.325
X3.7324Y-4.425
X3.7512Y-3.2208
X3.7512Y-3.3208
X3.825Y-2.145
X3.825Y-2.245
X3.8324Y-4.325
X3.8324Y-4.425
X3.8512Y-3.2208
X3.8512Y-3.3208
X3.925Y-2.145
X3.925Y-2.245
X3.9324Y-4.325
X3.9324Y-4.425
X3.9512Y-3.2208
X3.9512Y-3.3208
X4.025Y-2.145
X4.025Y-2.245
X4.0324Y-4.325
X4.0324Y-4.425
X4.0512Y-3.2208
X4.0512Y-3.3208
X4.125Y-2.145
X4.125Y-2.245
X4.1324Y-4.325
X4.1324Y-4.425
X4.1512Y-3.2208
X4.1512Y-3.3208
X4.225Y-2.145
X4.225Y-2.245
X4.2512Y-3.2208
X4.2512Y-3.3208
X4.325Y-2.145
X4.325Y-2.245
X4.4Y-3.525
X4.5Y-2.26
X4.5Y-2.36
X4.5Y-2.46
X4.5Y-2.56
X4.5Y-2.66
X4.5Y-2.76
X4.5Y-2.86
X4.5Y-2.96
X4.5Y-3.06
X4.5Y-3.16
X4.5Y-3.525
T9
X4.3914Y-3.682
X4.3914Y-3.938
X4.5686Y-3.682
X4.5686Y-3.938
T10
X3.16Y-2.635
X3.16Y-2.835
X3.26Y-2.735
X3.36Y-2.635
X3.36Y-2.835
T0
M30
