%TF.GenerationSoftware,KiCad,Pcbnew,(6.0.7)*%
%TF.CreationDate,2022-09-29T10:24:18-07:00*%
%TF.ProjectId,sulu_ads1299,73756c75-5f61-4647-9331-3239392e6b69,rev?*%
%TF.SameCoordinates,Original*%
%TF.FileFunction,Drillmap*%
%TF.FilePolarity,Positive*%
%FSLAX45Y45*%
G04 Gerber Fmt 4.5, Leading zero omitted, Abs format (unit mm)*
G04 Created by KiCad (PCBNEW (6.0.7)) date 2022-09-29 10:24:18*
%MOMM*%
%LPD*%
G01*
G04 APERTURE LIST*
%ADD10C,0.100000*%
%ADD11C,0.200000*%
G04 APERTURE END LIST*
D10*
X11849100Y-11569700D02*
X7581900Y-11569700D01*
X7581900Y-11569700D02*
X7581900Y-5105400D01*
X7581900Y-5105400D02*
X11849100Y-5105400D01*
X11849100Y-5105400D02*
X11849100Y-11569700D01*
X7988300Y-8407400D02*
G75*
G03*
X7988300Y-8407400I-88900J0D01*
G01*
X7988300Y-5359400D02*
G75*
G03*
X7988300Y-5359400I-88900J0D01*
G01*
X11595100Y-5359400D02*
G75*
G03*
X11595100Y-5359400I-88900J0D01*
G01*
X11595100Y-8407400D02*
G75*
G03*
X11595100Y-8407400I-88900J0D01*
G01*
D11*
X7834519Y-11885176D02*
X7834519Y-11685176D01*
X7882138Y-11685176D01*
X7910709Y-11694700D01*
X7929757Y-11713748D01*
X7939281Y-11732795D01*
X7948805Y-11770890D01*
X7948805Y-11799462D01*
X7939281Y-11837557D01*
X7929757Y-11856605D01*
X7910709Y-11875652D01*
X7882138Y-11885176D01*
X7834519Y-11885176D01*
X8034519Y-11885176D02*
X8034519Y-11751843D01*
X8034519Y-11789938D02*
X8044043Y-11770890D01*
X8053567Y-11761367D01*
X8072614Y-11751843D01*
X8091662Y-11751843D01*
X8158328Y-11885176D02*
X8158328Y-11751843D01*
X8158328Y-11685176D02*
X8148805Y-11694700D01*
X8158328Y-11704224D01*
X8167852Y-11694700D01*
X8158328Y-11685176D01*
X8158328Y-11704224D01*
X8282138Y-11885176D02*
X8263090Y-11875652D01*
X8253567Y-11856605D01*
X8253567Y-11685176D01*
X8386900Y-11885176D02*
X8367852Y-11875652D01*
X8358328Y-11856605D01*
X8358328Y-11685176D01*
X8615471Y-11885176D02*
X8615471Y-11685176D01*
X8682138Y-11828033D01*
X8748805Y-11685176D01*
X8748805Y-11885176D01*
X8929757Y-11885176D02*
X8929757Y-11780414D01*
X8920233Y-11761367D01*
X8901186Y-11751843D01*
X8863090Y-11751843D01*
X8844043Y-11761367D01*
X8929757Y-11875652D02*
X8910710Y-11885176D01*
X8863090Y-11885176D01*
X8844043Y-11875652D01*
X8834519Y-11856605D01*
X8834519Y-11837557D01*
X8844043Y-11818509D01*
X8863090Y-11808986D01*
X8910710Y-11808986D01*
X8929757Y-11799462D01*
X9024995Y-11751843D02*
X9024995Y-11951843D01*
X9024995Y-11761367D02*
X9044043Y-11751843D01*
X9082138Y-11751843D01*
X9101186Y-11761367D01*
X9110710Y-11770890D01*
X9120233Y-11789938D01*
X9120233Y-11847081D01*
X9110710Y-11866128D01*
X9101186Y-11875652D01*
X9082138Y-11885176D01*
X9044043Y-11885176D01*
X9024995Y-11875652D01*
X9205948Y-11866128D02*
X9215471Y-11875652D01*
X9205948Y-11885176D01*
X9196424Y-11875652D01*
X9205948Y-11866128D01*
X9205948Y-11885176D01*
X9205948Y-11761367D02*
X9215471Y-11770890D01*
X9205948Y-11780414D01*
X9196424Y-11770890D01*
X9205948Y-11761367D01*
X9205948Y-11780414D01*
M02*
