%TF.GenerationSoftware,KiCad,Pcbnew,(6.0.7)*%
%TF.CreationDate,2022-09-29T10:24:13-07:00*%
%TF.ProjectId,sulu_ads1299,73756c75-5f61-4647-9331-3239392e6b69,rev?*%
%TF.SameCoordinates,Original*%
%TF.FileFunction,Legend,Top*%
%TF.FilePolarity,Positive*%
%FSLAX46Y46*%
G04 Gerber Fmt 4.6, Leading zero omitted, Abs format (unit mm)*
G04 Created by KiCad (PCBNEW (6.0.7)) date 2022-09-29 10:24:13*
%MOMM*%
%LPD*%
G01*
G04 APERTURE LIST*
%ADD10C,0.100000*%
%ADD11C,0.150000*%
%ADD12C,0.127000*%
%ADD13C,0.080000*%
%ADD14C,0.200000*%
%ADD15C,0.101600*%
%ADD16C,0.203200*%
%ADD17C,0.050800*%
%ADD18C,0.120000*%
G04 APERTURE END LIST*
D10*
X115625957Y-110712885D02*
X115625362Y-110848212D01*
X114802194Y-113676149D02*
X114630082Y-113165084D01*
X115605300Y-112385288D02*
X115612137Y-112386653D01*
X111941240Y-113813801D02*
X111915583Y-113734088D01*
X112069150Y-114305437D02*
X112123931Y-114357130D01*
X112548899Y-113043671D02*
X112596472Y-113032128D01*
X111351506Y-113751685D02*
X111395302Y-113783729D01*
X112687355Y-112605952D02*
X112559250Y-112610238D01*
X115611934Y-111080395D02*
X115615194Y-111608690D01*
X117143089Y-111209391D02*
X117142224Y-111680352D01*
X116096917Y-114456180D02*
X116175662Y-114412523D01*
X115991505Y-113783409D02*
X115984464Y-113821624D01*
X115685954Y-114088762D02*
X115630233Y-114084048D01*
X115640265Y-112493922D02*
X115640865Y-112382837D01*
X117192689Y-112329564D02*
X117194079Y-112795166D01*
X116564551Y-113327144D02*
X116544728Y-113319328D01*
X117264728Y-111048073D02*
X117240081Y-111037823D01*
X116246393Y-111675203D02*
X116248148Y-112053897D01*
X113413525Y-113658519D02*
X113380962Y-113609152D01*
X111268834Y-114056280D02*
X111268834Y-114056277D01*
X116044119Y-112133761D02*
X116044118Y-112133761D01*
X116290276Y-111172589D02*
X116270041Y-111188110D01*
X116593551Y-114495045D02*
X116594341Y-113369125D01*
X114989869Y-114215512D02*
X115074068Y-114309139D01*
X116408086Y-108980080D02*
X116908951Y-110373560D01*
X115647009Y-112342532D02*
X115647974Y-111923475D01*
X116986318Y-111717622D02*
X116988338Y-112112365D01*
X116649808Y-111656831D02*
X116653363Y-112063304D01*
X116841721Y-110947852D02*
X116608350Y-110895546D01*
X115570723Y-111021811D02*
X115618429Y-111015732D01*
X116606044Y-110883312D02*
X116899342Y-110943997D01*
X115556812Y-111002039D02*
X115557080Y-111013257D01*
X115504934Y-113118777D02*
X115554610Y-113083696D01*
X116929306Y-111274234D02*
X116902682Y-111241577D01*
X116461139Y-114068137D02*
X116502932Y-113944698D01*
X115612944Y-112242520D02*
X115606635Y-112348242D01*
X115756110Y-112366077D02*
X116559945Y-112248661D01*
X116664874Y-111109729D02*
X116905969Y-111161317D01*
X116190067Y-112119722D02*
X116199863Y-112114006D01*
X112252698Y-113672159D02*
X112389176Y-113727653D01*
X116051813Y-112139418D02*
X116190067Y-112119722D01*
X112813716Y-112610261D02*
X112687355Y-112605952D01*
X113852135Y-114367113D02*
X113884230Y-114246097D01*
X116391026Y-112943933D02*
X116324673Y-112857460D01*
X115858679Y-112311064D02*
X115653158Y-112341302D01*
X116355645Y-108867645D02*
X116371912Y-108946295D01*
X115274151Y-114446640D02*
X115385526Y-114490604D01*
X112445070Y-113923424D02*
X112199993Y-113923424D01*
X111425330Y-113936484D02*
X111407500Y-113982016D01*
X116824436Y-111287758D02*
X116824435Y-111687877D01*
X116701211Y-112077198D02*
X116752346Y-112086183D01*
X115778619Y-110115268D02*
X115764440Y-110115018D01*
X113341152Y-113563509D02*
X113294094Y-113521591D01*
X117220735Y-112337999D02*
X117237708Y-112339284D01*
X116013730Y-110924684D02*
X116013733Y-110924687D01*
X111050140Y-113720608D02*
X111253557Y-113726734D01*
X115585135Y-111059003D02*
X115589410Y-111071573D01*
X117265873Y-110737040D02*
X117269331Y-110725127D01*
X113384386Y-113016056D02*
X113321636Y-112890838D01*
X116922384Y-112248830D02*
X116631720Y-112205000D01*
X116653363Y-112063304D02*
X116701215Y-112077197D01*
X112515552Y-113206368D02*
X112493153Y-113175024D01*
X112886866Y-113168002D02*
X112890940Y-113185865D01*
X116761236Y-112084524D02*
X116765445Y-112046641D01*
X112911270Y-114044054D02*
X112888365Y-114065982D01*
X116547490Y-110013550D02*
X116459215Y-110287145D01*
X111375878Y-114016850D02*
X111329857Y-114041450D01*
X116413009Y-111225525D02*
X116407986Y-111214653D01*
X114478333Y-114362512D02*
X114511435Y-114482943D01*
X116566284Y-110882961D02*
X116566284Y-110893766D01*
X112032911Y-112877761D02*
X111987952Y-112960437D01*
X117171667Y-111193829D02*
X117165669Y-111185251D01*
X116824435Y-111687877D02*
X116828465Y-112091602D01*
X111329857Y-114041450D02*
X111268834Y-114056280D01*
X115952470Y-110599168D02*
X115901558Y-110450240D01*
X117196534Y-113877906D02*
X117197598Y-114495045D01*
X116907445Y-110406154D02*
X116928189Y-110406154D01*
X116199863Y-112114006D02*
X116204412Y-111683624D01*
X115133398Y-112784315D02*
X115052383Y-112860785D01*
X111268834Y-114056277D02*
X111091628Y-114061083D01*
X117218592Y-110740365D02*
X117235323Y-110743970D01*
X116582037Y-110029280D02*
X116494790Y-109504950D01*
X111691219Y-113522086D02*
X111669086Y-113514519D01*
X115672185Y-110665803D02*
X115665577Y-110666147D01*
X115624767Y-110983540D02*
X115597108Y-110987560D01*
X115639665Y-112605007D02*
X115640265Y-112493922D01*
X116655333Y-111244835D02*
X116650408Y-111255489D01*
X111783874Y-112816723D02*
X111721650Y-112765963D01*
X116413009Y-111648987D02*
X116413009Y-111225525D01*
X110940037Y-113079263D02*
X111078907Y-113080488D01*
X115630233Y-114084048D02*
X115582244Y-114071895D01*
X116923524Y-110614669D02*
X117049101Y-110212947D01*
X116656178Y-110587258D02*
X116945443Y-110664127D01*
X115653543Y-111018387D02*
X115655563Y-111010018D01*
X116044118Y-112133761D02*
X116051813Y-112139418D01*
X111358359Y-113165324D02*
X111366602Y-113224028D01*
X116907645Y-110490860D02*
X116907445Y-110406154D01*
X117192513Y-111680433D02*
X117190708Y-112289023D01*
X112627343Y-114105906D02*
X112550108Y-114075609D01*
X111347100Y-113307072D02*
X111317989Y-113342262D01*
X113884291Y-112653435D02*
X113679527Y-113263655D01*
X112091332Y-113563409D02*
X112163331Y-113621431D01*
X116566285Y-111573222D02*
X116566285Y-112205457D01*
X111831603Y-112876558D02*
X111783874Y-112816723D01*
X116400713Y-111106528D02*
X116409695Y-111097451D01*
X111865596Y-112946675D02*
X111831603Y-112876558D01*
X114169823Y-113863498D02*
X113992385Y-113860618D01*
X116529165Y-113342599D02*
X116549013Y-113351172D01*
X113099497Y-112691653D02*
X112969734Y-112640498D01*
X112199993Y-113923424D02*
X111954917Y-113923424D01*
X116246418Y-112783376D02*
X116156438Y-112721880D01*
X117165669Y-111185251D02*
X116669440Y-111085105D01*
X116043566Y-111248782D02*
X116039804Y-111298307D01*
X117090585Y-111047999D02*
X117190350Y-111070922D01*
X112493005Y-113090999D02*
X112514717Y-113063180D01*
X115842451Y-112170921D02*
X115853930Y-112172596D01*
X116533165Y-113786867D02*
X116534480Y-113778223D01*
X111721650Y-112765963D02*
X111662828Y-112732517D01*
X112123931Y-114357130D02*
X112212988Y-114420430D01*
X116487318Y-113153261D02*
X116445300Y-113042599D01*
X116945443Y-110664127D02*
X117185729Y-110728791D01*
X115996970Y-111711249D02*
X115996970Y-111276879D01*
X115858679Y-112311065D02*
X115858679Y-112311064D01*
X113203002Y-114410909D02*
X113305812Y-114331595D01*
X117219230Y-111011108D02*
X117224369Y-111010981D01*
X114829119Y-113294428D02*
X114806679Y-113426729D01*
X114865750Y-113169089D02*
X114829119Y-113294428D01*
X112764632Y-114534423D02*
X112931938Y-114512501D01*
X112596472Y-113032128D02*
X112658359Y-113028208D01*
X117190910Y-110853234D02*
X117188030Y-110975192D01*
X117240081Y-111037823D02*
X117219779Y-111031507D01*
X117021337Y-111282516D02*
X116992073Y-111316543D01*
X113679527Y-113263655D02*
X113474101Y-113874690D01*
X112550940Y-113234468D02*
X112515552Y-113206368D01*
X112491081Y-114025627D02*
X112454760Y-113958609D01*
X113296745Y-114403425D02*
X113268221Y-114488130D01*
X113276675Y-112831226D02*
X113224268Y-112777803D01*
X117145829Y-112154585D02*
X117145816Y-112154584D01*
X116710777Y-111205428D02*
X116688169Y-111209930D01*
X115758085Y-111481174D02*
X115759570Y-111988519D01*
X116316251Y-111165344D02*
X116290276Y-111172589D01*
X116986928Y-111329246D02*
X116986318Y-111717622D01*
X117216771Y-110678083D02*
X117145586Y-110398128D01*
X115393772Y-113857187D02*
X115368761Y-113726363D01*
X113467700Y-113828933D02*
X113456895Y-113768412D01*
X117224485Y-113991999D02*
X117221985Y-112899649D01*
X112420315Y-114506359D02*
X112540767Y-114529893D01*
X116861813Y-111241777D02*
X116844593Y-111253902D01*
X116129949Y-110598508D02*
X116129950Y-110598507D01*
X116117404Y-110959122D02*
X115661034Y-111025616D01*
X112736702Y-113034204D02*
X112800111Y-113056209D01*
X117269331Y-110725127D02*
X117263281Y-110711476D01*
X115817506Y-113080944D02*
X115889856Y-113128691D01*
X117190915Y-110731026D02*
X117190915Y-110853235D01*
X111307726Y-113105062D02*
X111332177Y-113123705D01*
X117234185Y-112293807D02*
X117220932Y-112291237D01*
X112773793Y-113835578D02*
X112864338Y-113875654D01*
X117220932Y-112291237D02*
X117220931Y-111932413D01*
X115611166Y-110714265D02*
X115625957Y-110712885D01*
X117221985Y-112899649D02*
X117220735Y-112337999D01*
X111662828Y-112732517D02*
X111595191Y-112705084D01*
X115992530Y-112149638D02*
X115996970Y-111711249D01*
X117190964Y-110682147D02*
X117188009Y-110687137D01*
X111987952Y-112960437D02*
X111958719Y-113052505D01*
X111915583Y-113734088D02*
X111876517Y-113662758D01*
X112864338Y-113875654D02*
X112895620Y-113899038D01*
X117268481Y-112326925D02*
X117267711Y-112310445D01*
X111428517Y-113882176D02*
X111425330Y-113936484D01*
X112918029Y-113926442D02*
X112930749Y-113956529D01*
X116117404Y-110959122D02*
X116117404Y-110959122D01*
X115499206Y-114027839D02*
X115465513Y-113995890D01*
X116484885Y-110546516D02*
X116401643Y-110558257D01*
X112872284Y-113128243D02*
X112886866Y-113168002D01*
X116879735Y-110491415D02*
X116879735Y-110491413D01*
X117128681Y-111012147D02*
X116841721Y-110947852D01*
X111332177Y-113123705D02*
X111358359Y-113165324D01*
X111364262Y-113262484D02*
X111347100Y-113307072D01*
X116400329Y-111076208D02*
X116079956Y-111116946D01*
X112454760Y-113958609D02*
X112446377Y-113929763D01*
X115625362Y-110848212D02*
X115624767Y-110983540D01*
X116988338Y-112112365D02*
X116995915Y-112119546D01*
X116172577Y-111212480D02*
X116133871Y-111196461D01*
X115606635Y-112348242D02*
X115597817Y-112353162D01*
X110940081Y-113891357D02*
X110940081Y-113720596D01*
X111958719Y-113052505D02*
X111945166Y-113154071D01*
X115597108Y-110987560D02*
X115564217Y-110993870D01*
X111979202Y-114183500D02*
X112020354Y-114246811D01*
X115962472Y-110622793D02*
X115952470Y-110599168D01*
X110375355Y-112653258D02*
X110375355Y-113570693D01*
X116504437Y-110230285D02*
X116554831Y-110081619D01*
X116373798Y-108800387D02*
X116361128Y-108799563D01*
X116566285Y-110940987D02*
X116566285Y-111573222D01*
X115661034Y-111025616D02*
X115654554Y-111025469D01*
X117166423Y-112153549D02*
X117171767Y-111674636D01*
X115611537Y-112496420D02*
X115610937Y-112606186D01*
X116765652Y-111262404D02*
X116760328Y-111246701D01*
X115614416Y-113061007D02*
X115668297Y-113055113D01*
X117225735Y-114522704D02*
X117224485Y-113991999D01*
X116568592Y-110840843D02*
X116466600Y-110856231D01*
X115654457Y-110708078D02*
X116559577Y-110575444D01*
X116765445Y-112046641D02*
X116766267Y-111668990D01*
X116248028Y-111242577D02*
X116246393Y-111675203D01*
X115921799Y-114515972D02*
X116012314Y-114490657D01*
X115992510Y-113778223D02*
X115991505Y-113783409D01*
X117050291Y-110221934D02*
X117057305Y-110431468D01*
X117094954Y-112100214D02*
X117096395Y-111738429D01*
X111218497Y-113083337D02*
X111275267Y-113092618D01*
X116427105Y-110470095D02*
X116504437Y-110230285D01*
X111275267Y-113092618D02*
X111307726Y-113105062D01*
X117136154Y-110470043D02*
X117190965Y-110682146D01*
X115764345Y-112190968D02*
X115764350Y-112190966D01*
X116502932Y-113944698D02*
X116529345Y-113815102D01*
X111612041Y-114434184D02*
X111687996Y-114402862D01*
X112022303Y-113480587D02*
X112091332Y-113563409D01*
X111395302Y-113783729D02*
X111420944Y-113829716D01*
X115948204Y-113935265D02*
X115920511Y-113981671D01*
X111226014Y-113382626D02*
X111226014Y-113382624D01*
X116392672Y-111192670D02*
X116370773Y-111176315D01*
X115699415Y-110392592D02*
X115634458Y-110670368D01*
X116905969Y-111161317D02*
X117143089Y-111209391D01*
X112888365Y-114065982D02*
X112856569Y-114084911D01*
X112597281Y-113786266D02*
X112773793Y-113835578D01*
X111876517Y-113662758D02*
X111825205Y-113602801D01*
X117194079Y-112795166D02*
X117196534Y-113877906D01*
X117090360Y-112135711D02*
X117094954Y-112100214D01*
X116992073Y-111316543D02*
X116986928Y-111329246D01*
X115890577Y-111220578D02*
X115863622Y-111233412D01*
X116603503Y-110939780D02*
X117090585Y-111047999D01*
X117037531Y-112129160D02*
X117080724Y-112136860D01*
X116484885Y-110546516D02*
X116484885Y-110546516D01*
X116731252Y-111208880D02*
X116710777Y-111205428D01*
X117197598Y-114495045D02*
X116895574Y-114495045D01*
X111226014Y-113382624D02*
X111072162Y-113386349D01*
X115614237Y-110673968D02*
X115589653Y-110681928D01*
X116766267Y-111668990D02*
X116765652Y-111262404D01*
X117037528Y-112129161D02*
X117037531Y-112129160D01*
X116659497Y-111101796D02*
X116664874Y-111109729D01*
X117096395Y-111738429D02*
X117094025Y-111335008D01*
X115365237Y-113505093D02*
X115380918Y-113376419D01*
X111518121Y-112683457D02*
X111431001Y-112667425D01*
X116096631Y-109537793D02*
X115842651Y-110274783D01*
X116459215Y-110287145D02*
X116369486Y-110562195D01*
X111954917Y-113923424D02*
X111953423Y-113897264D01*
X115990127Y-113332227D02*
X115993737Y-113353547D01*
X114800274Y-113623784D02*
X114802194Y-113676149D01*
X117217471Y-110692936D02*
X117216771Y-110678083D01*
X115669074Y-112605007D02*
X115639665Y-112605007D01*
X113884230Y-114246097D02*
X114165382Y-114246682D01*
X116270041Y-111188110D02*
X116255855Y-111211556D01*
X117220931Y-111932413D02*
X117219396Y-111326023D01*
X116978753Y-110350021D02*
X116908780Y-110573260D01*
X116012314Y-114490657D02*
X116096917Y-114456180D01*
X117068144Y-111284783D02*
X117043556Y-111278636D01*
X116894985Y-110378475D02*
X116879735Y-110378475D01*
X115615194Y-111608690D02*
X115612944Y-112242520D01*
X116066340Y-111213556D02*
X116051242Y-111232058D01*
X116324673Y-112857460D02*
X116246418Y-112783376D01*
X116529345Y-113815102D02*
X116533165Y-113786867D01*
X117094025Y-111335008D02*
X117084209Y-111304717D01*
X115774409Y-110192285D02*
X115791728Y-110307023D01*
X116407986Y-111214653D02*
X116392672Y-111192670D01*
X117257870Y-112300354D02*
X117234185Y-112293807D01*
X115791078Y-111190511D02*
X115800103Y-111189096D01*
X117093612Y-110657196D02*
X117080593Y-110269686D01*
X115538062Y-114053086D02*
X115499206Y-114027839D01*
X117057305Y-110431468D02*
X117057305Y-110431468D01*
X116258499Y-112100253D02*
X116258502Y-112100254D01*
X115807856Y-112613658D02*
X115669074Y-112605007D01*
X111762991Y-113555487D02*
X111691219Y-113522086D01*
X117237708Y-112339284D02*
X117258815Y-112337989D01*
X114915415Y-113053936D02*
X114865750Y-113169089D01*
X114348264Y-113863498D02*
X114169823Y-113863498D01*
X116013733Y-110924687D02*
X115658202Y-110977752D01*
X111799009Y-113390381D02*
X111854413Y-113295178D01*
X115764350Y-112190966D02*
X115774893Y-112196884D01*
X115791728Y-110307023D02*
X115823720Y-110642367D01*
X113326952Y-114314110D02*
X113296745Y-114403425D01*
X117267711Y-112310445D02*
X117257870Y-112300354D01*
X113992385Y-113860618D02*
X114079587Y-113532238D01*
X112666426Y-113284570D02*
X112600753Y-113260232D01*
X116899342Y-110943997D02*
X117189760Y-111004619D01*
X116896036Y-114522704D02*
X117225735Y-114522704D01*
X116598246Y-112242010D02*
X116897024Y-112285190D01*
X116566338Y-114522704D02*
X116896036Y-114522704D01*
X116559945Y-112248661D02*
X116566284Y-112247381D01*
X115612137Y-112386653D02*
X115611537Y-112496420D01*
X112182334Y-112732276D02*
X112093642Y-112804369D01*
X115618429Y-111015732D02*
X115624889Y-111015714D01*
X116566338Y-113941224D02*
X116566338Y-114522704D01*
X116248148Y-112053897D02*
X116251572Y-112094832D01*
X116566284Y-112786776D02*
X116566281Y-112786764D01*
X114079587Y-113532238D02*
X114167540Y-113210705D01*
X113078219Y-114471270D02*
X113203002Y-114410909D01*
X115665577Y-110666147D02*
X115665702Y-110660572D01*
X116828465Y-112091602D02*
X116877444Y-112104405D01*
X115980808Y-113289900D02*
X115990127Y-113332227D01*
X115604738Y-111034171D02*
X115589680Y-111042945D01*
X116528154Y-113350666D02*
X116529165Y-113342599D01*
X115792603Y-111687031D02*
X115791078Y-111190511D01*
X110375355Y-114488128D02*
X110832341Y-114488128D01*
X113178246Y-113448941D02*
X113040247Y-113391611D01*
X112311419Y-114470022D02*
X112420315Y-114506359D01*
X116566338Y-113359744D02*
X116566338Y-113941224D01*
X116156438Y-112721880D02*
X116054913Y-112673168D01*
X117145816Y-112154584D02*
X117166423Y-112153549D01*
X113408071Y-113095470D02*
X113384386Y-113016056D01*
X117219779Y-111031507D02*
X117219064Y-111020488D01*
X112841892Y-113086661D02*
X112872284Y-113128243D01*
X116370773Y-111176315D02*
X116344546Y-111166802D01*
X115944727Y-113198747D02*
X115980808Y-113289900D01*
X111756741Y-114363424D02*
X111815586Y-114314157D01*
X115845296Y-114053164D02*
X115799551Y-114074825D01*
X115637784Y-114536476D02*
X115637808Y-114536478D01*
X117057305Y-110431468D02*
X117063646Y-110642462D01*
X116524805Y-113309835D02*
X116516903Y-113275722D01*
X111326166Y-114485798D02*
X111432110Y-114475426D01*
X116664551Y-109610524D02*
X116378477Y-108810999D01*
X115833136Y-111291215D02*
X115831066Y-111730299D01*
X112800111Y-113056209D02*
X112841892Y-113086661D01*
X117239363Y-110700395D02*
X117217471Y-110692936D01*
X111420944Y-113829716D02*
X111428517Y-113882176D01*
X116669440Y-111085105D02*
X116659497Y-111101796D01*
X112020354Y-114246811D02*
X112069150Y-114305437D01*
X117216687Y-110858941D02*
X117218592Y-110740365D01*
D11*
X80645000Y-84074000D02*
G75*
G03*
X80645000Y-84074000I-1651000J0D01*
G01*
D10*
X117171767Y-111674636D02*
X117171667Y-111193829D01*
X111945166Y-113154071D02*
X111949161Y-113275751D01*
X111297949Y-112656234D02*
X110848436Y-112654068D01*
X116564012Y-110365626D02*
X116565672Y-110534243D01*
X111669086Y-113514519D02*
X111692372Y-113497232D01*
X116566284Y-112247381D02*
X116566284Y-112786776D01*
X117142224Y-111680352D02*
X117145829Y-112154585D01*
X115823720Y-110642367D02*
X115751290Y-110653954D01*
X112647586Y-114535923D02*
X112764632Y-114534423D01*
X117219064Y-111020488D02*
X117219230Y-111011108D01*
X111883240Y-114229790D02*
X111927664Y-114129716D01*
X113425171Y-113185865D02*
X113423631Y-113173765D01*
X117270510Y-111065932D02*
X117264728Y-111048073D01*
X113438836Y-113711606D02*
X113413525Y-113658519D01*
X111947350Y-114117750D02*
X111979202Y-114183500D01*
X117190915Y-110853235D02*
X117190910Y-110853234D01*
X116606118Y-112201150D02*
X116604408Y-111570855D01*
X117190965Y-110682146D02*
X117190964Y-110682147D01*
X116204412Y-111683624D02*
X116204411Y-111257794D01*
X111854413Y-113295178D02*
X111886535Y-113191619D01*
X117140182Y-110674864D02*
X117093612Y-110657196D01*
X116258502Y-112100254D02*
X116268954Y-112101079D01*
X113423631Y-113173765D02*
X113408071Y-113095470D01*
X116262241Y-113358733D02*
X116529670Y-113358733D01*
X116875700Y-110604082D02*
X116734150Y-110565590D01*
X111072162Y-113386349D02*
X110940037Y-113386349D01*
X111366602Y-113224028D02*
X111364262Y-113262484D01*
X116594341Y-113369125D02*
X116598246Y-112242010D01*
X116608350Y-110895546D02*
X116603163Y-110888761D01*
X113165011Y-112731101D02*
X113099497Y-112691653D01*
X115969575Y-113881806D02*
X115948204Y-113935265D01*
X116993247Y-110635613D02*
X116923524Y-110614669D01*
X115792975Y-112127837D02*
X115792603Y-111687031D01*
X111886610Y-113028277D02*
X111865596Y-112946675D01*
X116928189Y-110406154D02*
X116948933Y-110404149D01*
X114512740Y-114488129D02*
X114792742Y-114488129D01*
X116502324Y-112215219D02*
X115858679Y-112311065D01*
X116054913Y-112673168D02*
X115942018Y-112637437D01*
X116039804Y-111298307D02*
X116038461Y-111698619D01*
X115984464Y-113821624D02*
X115969575Y-113881806D01*
X115833981Y-112162422D02*
X115842452Y-112170920D01*
X116902682Y-111241577D02*
X116861813Y-111241777D01*
X116879735Y-110491413D02*
X116875700Y-110604082D01*
X113820041Y-114488130D02*
X113852135Y-114367113D01*
X116562249Y-110873103D02*
X116566284Y-110882961D01*
X117289024Y-111011169D02*
X117287088Y-111000061D01*
X116204411Y-111257794D02*
X116197683Y-111243574D01*
X117263281Y-110711476D02*
X117239363Y-110700395D01*
X115074068Y-114309139D02*
X115172344Y-114388573D01*
D11*
X116713000Y-53594000D02*
G75*
G03*
X116713000Y-53594000I-1651000J0D01*
G01*
D10*
X115582244Y-114071895D02*
X115538062Y-114053086D01*
X115886658Y-114020695D02*
X115845296Y-114053164D01*
X116369486Y-110562195D02*
X116331736Y-110568936D01*
X115747183Y-114086437D02*
X115685954Y-114088762D01*
X115665702Y-110660572D02*
X115774409Y-110192285D01*
X114979254Y-114202844D02*
X114989869Y-114215512D01*
X116935177Y-112105975D02*
X116934547Y-111695702D01*
X116133871Y-111196461D02*
X116085854Y-111201151D01*
X111927664Y-114129716D02*
X111937233Y-114098678D01*
X116897024Y-112285190D02*
X117192689Y-112329564D01*
X115790817Y-112184398D02*
X115792975Y-112127837D01*
X117217861Y-111078457D02*
X117225734Y-111080212D01*
X115920511Y-113981671D02*
X115886658Y-114020695D01*
X116559946Y-110942152D02*
X116566285Y-110940987D01*
X116948933Y-110404149D02*
X116664551Y-109610524D01*
X116341097Y-114266304D02*
X116407530Y-114172628D01*
X116085854Y-111201151D02*
X116066340Y-111213556D01*
X116255855Y-111211556D02*
X116248028Y-111242577D01*
X116339217Y-112090919D02*
X116408364Y-112077094D01*
X115923963Y-111219542D02*
X115890577Y-111220578D01*
X115710304Y-111001989D02*
X116160620Y-110934005D01*
X113224268Y-112777803D02*
X113165011Y-112731101D01*
X116236684Y-110989378D02*
X116559946Y-110942152D01*
X116361128Y-108799563D02*
X116349282Y-108800793D01*
X116371912Y-108946295D02*
X116459000Y-109474000D01*
X111317989Y-113342262D02*
X111277452Y-113367599D01*
X112969734Y-112640498D02*
X112813716Y-112610261D01*
X115380918Y-113376419D02*
X115409273Y-113269572D01*
X116602083Y-110817557D02*
X116601303Y-110681360D01*
X115751290Y-110653954D02*
X115751290Y-110653954D01*
X116529670Y-113358733D02*
X116528154Y-113350666D01*
X116534480Y-113778223D02*
X116263495Y-113778223D01*
X117189760Y-111004619D02*
X117190495Y-111013384D01*
X115759570Y-111988519D02*
X115764345Y-112190968D01*
D11*
X80645000Y-53594000D02*
G75*
G03*
X80645000Y-53594000I-1651000J0D01*
G01*
D10*
X115052383Y-112860785D02*
X114976957Y-112952194D01*
X115436818Y-113956975D02*
X115393772Y-113857187D01*
X113380962Y-113609152D02*
X113341152Y-113563509D01*
X117145586Y-110398128D02*
X117074549Y-110132356D01*
X112930749Y-113956529D02*
X112932962Y-113987962D01*
X115601718Y-112606746D02*
X115473538Y-112624005D01*
X116701215Y-112077197D02*
X116701211Y-112077198D01*
X116549013Y-113351172D02*
X116566338Y-113359744D01*
X116544728Y-113319328D02*
X116524805Y-113309835D01*
X112890940Y-113185865D02*
X113158055Y-113185865D01*
X116409695Y-111097451D02*
X116409180Y-111084575D01*
X112658359Y-113028208D02*
X112736702Y-113034204D01*
X116251572Y-112094832D02*
X116258499Y-112100253D01*
X115923959Y-112162574D02*
X115992530Y-112149638D01*
X115668297Y-113055113D02*
X115728989Y-113056722D01*
X117219396Y-111326023D02*
X117217861Y-111078457D01*
X110940037Y-113232806D02*
X110940037Y-113079263D01*
X115858662Y-110320705D02*
X116355645Y-108867645D01*
X114458487Y-112653504D02*
X114171389Y-112653469D01*
X113158055Y-113185865D02*
X113425171Y-113185865D01*
X116895574Y-114495045D02*
X116593551Y-114495045D01*
X112931938Y-114512501D02*
X113078219Y-114471270D01*
X117258410Y-111081762D02*
X117270510Y-111065932D01*
X110375355Y-113570693D02*
X110375355Y-114488128D01*
X115963255Y-111233842D02*
X115923963Y-111219542D01*
X116160620Y-110934005D02*
X116562249Y-110873103D01*
X111825205Y-113602801D02*
X111762991Y-113555487D01*
X112514717Y-113063180D02*
X112548899Y-113043671D01*
X116923863Y-112113810D02*
X116930257Y-112110010D01*
X117074549Y-110132356D02*
X117048493Y-110128406D01*
X111949161Y-113275751D02*
X111974893Y-113384646D01*
X115597817Y-112353162D02*
X115592865Y-112371625D01*
X116844593Y-111253902D02*
X116831069Y-111273928D01*
X116331736Y-110568936D02*
X116129949Y-110598508D01*
X117255915Y-110744805D02*
X117265873Y-110737040D01*
X112493153Y-113175024D02*
X112485491Y-113132871D01*
X112600753Y-113260232D02*
X112550940Y-113234468D01*
X115450534Y-113183906D02*
X115504934Y-113118777D01*
X115799551Y-114074825D02*
X115747183Y-114086437D01*
X111432110Y-114475426D02*
X111527074Y-114458296D01*
X116566285Y-112205457D02*
X116502324Y-112215219D01*
X112559250Y-112610238D02*
X112414333Y-112635545D01*
X116567067Y-110640355D02*
X116568592Y-110773682D01*
X114446535Y-114247267D02*
X114478333Y-114362512D01*
X111253557Y-113726734D02*
X111309683Y-113736235D01*
X110940081Y-114062118D02*
X110940081Y-113891357D01*
X115637808Y-114536478D02*
X115825317Y-114532144D01*
X116894361Y-110910079D02*
X116603573Y-110845216D01*
X116197683Y-111243574D02*
X116172577Y-111212480D01*
X115409273Y-113269572D02*
X115450534Y-113183906D01*
X114165382Y-114246682D02*
X114446535Y-114247267D01*
X115647974Y-111923475D02*
X115651879Y-111075450D01*
X116566284Y-110893766D02*
X116117404Y-110959122D01*
X115791853Y-110122297D02*
X115789964Y-110116922D01*
X115760970Y-111164900D02*
X115758085Y-111481174D01*
X115592865Y-112371625D02*
X115605300Y-112385288D01*
X115590403Y-110709675D02*
X115611166Y-110714265D01*
X115589680Y-111042945D02*
X115585135Y-111059003D01*
X111527074Y-114458296D02*
X111612041Y-114434184D01*
X117190495Y-111013384D02*
X117190497Y-111013384D01*
X115994812Y-113358733D02*
X116262241Y-113358733D01*
X116565542Y-110574189D02*
X116567067Y-110640355D01*
X116650408Y-111255489D02*
X116649808Y-111656831D01*
X117225734Y-111080212D02*
X117258410Y-111081762D01*
X116079956Y-111116946D02*
X115760970Y-111164900D01*
X115634458Y-110670368D02*
X115614237Y-110673968D01*
X112550108Y-114075609D02*
X112491081Y-114025627D01*
X111091628Y-114061083D02*
X110940081Y-114062118D01*
X116466600Y-110856231D02*
X116013730Y-110924684D01*
X116378477Y-108810999D02*
X116373798Y-108800387D01*
X116995915Y-112119546D02*
X117037528Y-112129161D01*
X115640865Y-112382837D02*
X115756110Y-112366077D01*
X115584327Y-110695647D02*
X115590403Y-110709675D01*
X116409180Y-111084575D02*
X116400329Y-111076208D01*
X115653158Y-112341302D02*
X115647009Y-112342532D01*
X117048493Y-110128406D02*
X116978753Y-110350021D01*
X115238547Y-112713104D02*
X115133398Y-112784315D01*
X115506669Y-114520528D02*
X115637784Y-114536476D01*
X115352204Y-112659562D02*
X115238547Y-112713104D01*
X116752346Y-112086183D02*
X116761236Y-112084524D01*
X111078907Y-113080488D02*
X111218497Y-113083337D01*
X116760328Y-111246701D02*
X116748161Y-111223805D01*
X116459000Y-109474000D02*
X116547490Y-110013550D01*
X110848436Y-112654068D02*
X110375355Y-112653258D01*
X111309683Y-113736235D02*
X111351506Y-113751685D01*
X115889856Y-113128691D02*
X115944727Y-113198747D01*
X115172344Y-114388573D02*
X115274151Y-114446640D01*
X116669774Y-111223882D02*
X116655333Y-111244835D01*
X114258779Y-113539084D02*
X114348264Y-113863498D01*
X117219052Y-110978967D02*
X117216687Y-110858941D01*
X110940037Y-113386349D02*
X110940037Y-113232806D01*
X116559577Y-110575444D02*
X116565542Y-110574189D01*
X117258815Y-112337989D02*
X117268481Y-112326925D01*
X116568592Y-110773682D02*
X116568592Y-110840843D01*
X116038461Y-111698619D02*
X116038461Y-112128103D01*
X114976957Y-112952194D02*
X114915415Y-113053936D01*
X112163331Y-113621431D02*
X112252698Y-113672159D01*
X113040247Y-113391611D02*
X112832379Y-113331058D01*
X116879735Y-110378475D02*
X116879735Y-110491415D01*
X115996970Y-111276879D02*
X115989712Y-111263260D01*
X115800103Y-111189096D02*
X116101849Y-111148308D01*
X115625920Y-111022435D02*
X115623560Y-111030180D01*
X116263086Y-114345272D02*
X116341097Y-114266304D01*
X117185729Y-110728791D02*
X117190915Y-110731026D01*
X117282418Y-111019492D02*
X117289024Y-111011169D01*
X116349282Y-108800793D02*
X116096631Y-109537793D01*
X116908780Y-110573260D02*
X116907645Y-110490860D01*
X111974893Y-113384646D02*
X112022303Y-113480587D01*
X111407500Y-113982016D02*
X111375878Y-114016850D01*
X112540767Y-114529893D02*
X112647586Y-114535923D01*
X113321636Y-112890838D02*
X113276675Y-112831226D01*
X116565672Y-110534243D02*
X116484885Y-110546516D01*
X112389176Y-113727653D02*
X112597281Y-113786266D01*
X115589653Y-110681928D02*
X115584327Y-110695647D01*
X116688169Y-111209930D02*
X116669774Y-111223882D01*
X114792742Y-114488129D02*
X115072743Y-114486119D01*
X112932962Y-113987962D02*
X112925922Y-114018318D01*
X112212988Y-114420430D02*
X112311419Y-114470022D01*
X117192520Y-111680437D02*
X117192513Y-111680433D01*
X115863622Y-111233412D02*
X115844130Y-111257230D01*
X111953423Y-113897264D02*
X111941240Y-113813801D01*
X116631720Y-112205000D02*
X116606118Y-112201150D01*
X115557080Y-111013257D02*
X115570723Y-111021811D01*
X116877444Y-112104405D02*
X116877444Y-112104381D01*
X116603573Y-110845216D02*
X116602083Y-110817557D01*
X116038461Y-112128103D02*
X116044119Y-112133761D01*
X115942018Y-112637437D02*
X115807856Y-112613658D01*
X115025676Y-114343801D02*
X114979254Y-114202844D01*
X115764440Y-110115018D02*
X115699415Y-110392592D01*
X111687996Y-114402862D02*
X111756741Y-114363424D01*
X114630082Y-113165084D02*
X114458487Y-112653504D01*
X116445300Y-113042599D02*
X116391026Y-112943933D01*
X111937233Y-114098678D02*
X111947350Y-114117750D01*
X112832379Y-113331058D02*
X112666426Y-113284570D01*
X114167540Y-113210705D02*
X114258779Y-113539084D01*
X115655563Y-111010018D02*
X115710304Y-111001989D01*
X115385526Y-114490604D02*
X115506669Y-114520528D01*
X117043556Y-111278636D02*
X117021337Y-111282516D01*
X117252048Y-110987573D02*
X117219052Y-110978967D01*
X113474101Y-113874690D02*
X113467700Y-113828933D01*
X116401643Y-110558257D02*
X116427105Y-110470095D01*
X117287088Y-111000061D02*
X117252048Y-110987573D01*
X117189342Y-111023780D02*
X117128681Y-111012147D01*
D11*
X116713000Y-84074000D02*
G75*
G03*
X116713000Y-84074000I-1651000J0D01*
G01*
D10*
X112796400Y-114105082D02*
X112718288Y-114113867D01*
X112925922Y-114018318D02*
X112911270Y-114044054D01*
X111595191Y-112705084D02*
X111518121Y-112683457D01*
X110832341Y-114488128D02*
X111326166Y-114485798D01*
X110940081Y-113720596D02*
X111050140Y-113720608D01*
X115989712Y-111263260D02*
X115963255Y-111233842D01*
X113305812Y-114331595D02*
X113326952Y-114314110D01*
X117190708Y-112289023D02*
X116922384Y-112248830D01*
X115589410Y-111071573D02*
X115611934Y-111080395D01*
X116877444Y-112104381D02*
X116923863Y-112113810D01*
X116657330Y-110296649D02*
X116582037Y-110029280D01*
X113544131Y-114488130D02*
X113820041Y-114488130D01*
X117190350Y-111070922D02*
X117192520Y-111680437D01*
X116263495Y-113778223D02*
X115992510Y-113778223D01*
X111891124Y-113111061D02*
X111886610Y-113028277D01*
X113456895Y-113768412D02*
X113438836Y-113711606D01*
X115831066Y-111730299D02*
X115833981Y-112162422D01*
X117190497Y-111013384D02*
X117189342Y-111023780D01*
X112414333Y-112635545D02*
X112288963Y-112676113D01*
X116051242Y-111232058D02*
X116043566Y-111248782D01*
X116602012Y-110572821D02*
X116656178Y-110587258D01*
X115368761Y-113726363D02*
X115365237Y-113505093D01*
X116554831Y-110081619D02*
X116564012Y-110365626D01*
X115610937Y-112606186D02*
X115601718Y-112606746D01*
X115901558Y-110450240D02*
X115858662Y-110320705D01*
X115993737Y-113353547D02*
X115994812Y-113358733D01*
X116175662Y-114412523D02*
X116263086Y-114345272D01*
X112895620Y-113899038D02*
X112918029Y-113926442D01*
X113294094Y-113521591D02*
X113178246Y-113448941D01*
X116734150Y-110565590D02*
X116657330Y-110296649D01*
X111815586Y-114314157D02*
X111883240Y-114229790D01*
X117084209Y-111304717D02*
X117068144Y-111284783D01*
X116408364Y-112077094D02*
X116413009Y-111648987D01*
X116603163Y-110888761D02*
X116606044Y-110883312D01*
X112446377Y-113929763D02*
X112445070Y-113923424D01*
X115728989Y-113056722D02*
X115817506Y-113080944D01*
X115658202Y-110977752D02*
X115653547Y-110842915D01*
X115072743Y-114486119D02*
X115025676Y-114343801D01*
X117188009Y-110687137D02*
X117140182Y-110674864D01*
X112093642Y-112804369D02*
X112032911Y-112877761D01*
X116831069Y-111273928D02*
X116824436Y-111287758D01*
X111748429Y-113447005D02*
X111799009Y-113390381D01*
X112288963Y-112676113D02*
X112182334Y-112732276D01*
X112485491Y-113132871D02*
X112493005Y-113090999D01*
X116494790Y-109504950D02*
X116408086Y-108980080D01*
X114511435Y-114482943D02*
X114512740Y-114488129D01*
X114806679Y-113426729D02*
X114800274Y-113623784D01*
X115623560Y-111030180D02*
X115604738Y-111034171D01*
X116101849Y-111148308D02*
X116400713Y-111106528D01*
X117080724Y-112136860D02*
X117090360Y-112135711D01*
X115653547Y-110842915D02*
X115654457Y-110708078D01*
X115651879Y-111075450D02*
X116236684Y-110989378D01*
X115774893Y-112196884D02*
X115786310Y-112195276D01*
X115844130Y-111257230D02*
X115833136Y-111291215D01*
X117049101Y-110212947D02*
X117050291Y-110221934D01*
X112718288Y-114113867D02*
X112627343Y-114105906D01*
X115825317Y-114532144D02*
X115921799Y-114515972D01*
X115473538Y-112624005D02*
X115352204Y-112659562D01*
X116934547Y-111695702D02*
X116929306Y-111274234D01*
X117063646Y-110642462D02*
X117062971Y-110654103D01*
X116407530Y-114172628D02*
X116461139Y-114068137D01*
X112856569Y-114084911D02*
X112796400Y-114105082D01*
X111692372Y-113497232D02*
X111748429Y-113447005D01*
X115624889Y-111015714D02*
X115625920Y-111022435D01*
X113268221Y-114488130D02*
X113544131Y-114488130D01*
X115751290Y-110653954D02*
X115672185Y-110665803D01*
X116604408Y-111570855D02*
X116603503Y-110939780D01*
X111431001Y-112667425D02*
X111297949Y-112656234D01*
X115786310Y-112195276D02*
X115790817Y-112184398D01*
X116601303Y-110681360D02*
X116602012Y-110572821D01*
X116930257Y-112110010D02*
X116935177Y-112105975D01*
X117188030Y-110975192D02*
X116894361Y-110910079D01*
X114171389Y-112653469D02*
X113884291Y-112653435D01*
X117224369Y-111010981D02*
X117282418Y-111019492D01*
X115654554Y-111025469D02*
X115653543Y-111018387D01*
X116908951Y-110373560D02*
X116894985Y-110378475D01*
X115465513Y-113995890D02*
X115436818Y-113956975D01*
X116516903Y-113275722D02*
X116487318Y-113153261D01*
X116344546Y-111166802D02*
X116316251Y-111165344D01*
X111277452Y-113367599D02*
X111226014Y-113382626D01*
X111886535Y-113191619D02*
X111891124Y-113111061D01*
X116748161Y-111223805D02*
X116731252Y-111208880D01*
X115789964Y-110116922D02*
X115778619Y-110115268D01*
X115842651Y-110274783D02*
X115791853Y-110122297D01*
X116566281Y-112786764D02*
X116564551Y-113327144D01*
X117080593Y-110269686D02*
X117136154Y-110470043D01*
X115564217Y-110993870D02*
X115556812Y-111002039D01*
X116129950Y-110598507D02*
X115962472Y-110622793D01*
X117062971Y-110654103D02*
X116993247Y-110635613D01*
X115554610Y-113083696D02*
X115614416Y-113061007D01*
X115842452Y-112170920D02*
X115842451Y-112170921D01*
X116268954Y-112101079D02*
X116339217Y-112090919D01*
X117235323Y-110743970D02*
X117255915Y-110744805D01*
X115853930Y-112172596D02*
X115923959Y-112162574D01*
X98774380Y-58781190D02*
X98941047Y-59281190D01*
X99107714Y-58781190D01*
X99274380Y-59281190D02*
X99274380Y-58781190D01*
X99393428Y-58781190D01*
X99464857Y-58805000D01*
X99512476Y-58852619D01*
X99536285Y-58900238D01*
X99560095Y-58995476D01*
X99560095Y-59066904D01*
X99536285Y-59162142D01*
X99512476Y-59209761D01*
X99464857Y-59257380D01*
X99393428Y-59281190D01*
X99274380Y-59281190D01*
X99774380Y-59281190D02*
X99774380Y-58781190D01*
X99893428Y-58781190D01*
X99964857Y-58805000D01*
X100012476Y-58852619D01*
X100036285Y-58900238D01*
X100060095Y-58995476D01*
X100060095Y-59066904D01*
X100036285Y-59162142D01*
X100012476Y-59209761D01*
X99964857Y-59257380D01*
X99893428Y-59281190D01*
X99774380Y-59281190D01*
X100274380Y-59281190D02*
X100274380Y-58781190D01*
X100607714Y-58781190D02*
X100702952Y-58781190D01*
X100750571Y-58805000D01*
X100798190Y-58852619D01*
X100822000Y-58947857D01*
X100822000Y-59114523D01*
X100798190Y-59209761D01*
X100750571Y-59257380D01*
X100702952Y-59281190D01*
X100607714Y-59281190D01*
X100560095Y-59257380D01*
X100512476Y-59209761D01*
X100488666Y-59114523D01*
X100488666Y-58947857D01*
X100512476Y-58852619D01*
X100560095Y-58805000D01*
X100607714Y-58781190D01*
X97682857Y-86010761D02*
X98016190Y-86010761D01*
X97492380Y-86129809D02*
X97849523Y-86248857D01*
X97849523Y-85939333D01*
X116391619Y-69300690D02*
X116701142Y-69300690D01*
X116534476Y-69491166D01*
X116605904Y-69491166D01*
X116653523Y-69514976D01*
X116677333Y-69538785D01*
X116701142Y-69586404D01*
X116701142Y-69705452D01*
X116677333Y-69753071D01*
X116653523Y-69776880D01*
X116605904Y-69800690D01*
X116463047Y-69800690D01*
X116415428Y-69776880D01*
X116391619Y-69753071D01*
X116867809Y-69300690D02*
X116986857Y-69800690D01*
X117082095Y-69443547D01*
X117177333Y-69800690D01*
X117296380Y-69300690D01*
X117653523Y-69538785D02*
X117724952Y-69562595D01*
X117748761Y-69586404D01*
X117772571Y-69634023D01*
X117772571Y-69705452D01*
X117748761Y-69753071D01*
X117724952Y-69776880D01*
X117677333Y-69800690D01*
X117486857Y-69800690D01*
X117486857Y-69300690D01*
X117653523Y-69300690D01*
X117701142Y-69324500D01*
X117724952Y-69348309D01*
X117748761Y-69395928D01*
X117748761Y-69443547D01*
X117724952Y-69491166D01*
X117701142Y-69514976D01*
X117653523Y-69538785D01*
X117486857Y-69538785D01*
X116474952Y-70343785D02*
X116641619Y-70343785D01*
X116713047Y-70605690D02*
X116474952Y-70605690D01*
X116474952Y-70105690D01*
X116713047Y-70105690D01*
X116927333Y-70605690D02*
X116927333Y-70105690D01*
X117213047Y-70605690D01*
X117213047Y-70105690D01*
X117617809Y-70343785D02*
X117689238Y-70367595D01*
X117713047Y-70391404D01*
X117736857Y-70439023D01*
X117736857Y-70510452D01*
X117713047Y-70558071D01*
X117689238Y-70581880D01*
X117641619Y-70605690D01*
X117451142Y-70605690D01*
X117451142Y-70105690D01*
X117617809Y-70105690D01*
X117665428Y-70129500D01*
X117689238Y-70153309D01*
X117713047Y-70200928D01*
X117713047Y-70248547D01*
X117689238Y-70296166D01*
X117665428Y-70319976D01*
X117617809Y-70343785D01*
X117451142Y-70343785D01*
X101993476Y-108176190D02*
X101993476Y-107676190D01*
X102231571Y-108176190D02*
X102231571Y-107676190D01*
X102517285Y-108176190D01*
X102517285Y-107676190D01*
X102731571Y-107723809D02*
X102755380Y-107700000D01*
X102803000Y-107676190D01*
X102922047Y-107676190D01*
X102969666Y-107700000D01*
X102993476Y-107723809D01*
X103017285Y-107771428D01*
X103017285Y-107819047D01*
X102993476Y-107890476D01*
X102707761Y-108176190D01*
X103017285Y-108176190D01*
X103231571Y-107985714D02*
X103612523Y-107985714D01*
X103422047Y-108176190D02*
X103422047Y-107795238D01*
X116391619Y-74634690D02*
X116701142Y-74634690D01*
X116534476Y-74825166D01*
X116605904Y-74825166D01*
X116653523Y-74848976D01*
X116677333Y-74872785D01*
X116701142Y-74920404D01*
X116701142Y-75039452D01*
X116677333Y-75087071D01*
X116653523Y-75110880D01*
X116605904Y-75134690D01*
X116463047Y-75134690D01*
X116415428Y-75110880D01*
X116391619Y-75087071D01*
X116867809Y-74634690D02*
X116986857Y-75134690D01*
X117082095Y-74777547D01*
X117177333Y-75134690D01*
X117296380Y-74634690D01*
X117653523Y-74872785D02*
X117724952Y-74896595D01*
X117748761Y-74920404D01*
X117772571Y-74968023D01*
X117772571Y-75039452D01*
X117748761Y-75087071D01*
X117724952Y-75110880D01*
X117677333Y-75134690D01*
X117486857Y-75134690D01*
X117486857Y-74634690D01*
X117653523Y-74634690D01*
X117701142Y-74658500D01*
X117724952Y-74682309D01*
X117748761Y-74729928D01*
X117748761Y-74777547D01*
X117724952Y-74825166D01*
X117701142Y-74848976D01*
X117653523Y-74872785D01*
X117486857Y-74872785D01*
X116796380Y-75892071D02*
X116772571Y-75915880D01*
X116701142Y-75939690D01*
X116653523Y-75939690D01*
X116582095Y-75915880D01*
X116534476Y-75868261D01*
X116510666Y-75820642D01*
X116486857Y-75725404D01*
X116486857Y-75653976D01*
X116510666Y-75558738D01*
X116534476Y-75511119D01*
X116582095Y-75463500D01*
X116653523Y-75439690D01*
X116701142Y-75439690D01*
X116772571Y-75463500D01*
X116796380Y-75487309D01*
X117248761Y-75939690D02*
X117010666Y-75939690D01*
X117010666Y-75439690D01*
X117415428Y-75939690D02*
X117415428Y-75439690D01*
X117701142Y-75939690D02*
X117486857Y-75653976D01*
X117701142Y-75439690D02*
X117415428Y-75725404D01*
X101866476Y-114526190D02*
X101866476Y-114026190D01*
X102104571Y-114526190D02*
X102104571Y-114026190D01*
X102390285Y-114526190D01*
X102390285Y-114026190D01*
X102604571Y-114073809D02*
X102628380Y-114050000D01*
X102676000Y-114026190D01*
X102795047Y-114026190D01*
X102842666Y-114050000D01*
X102866476Y-114073809D01*
X102890285Y-114121428D01*
X102890285Y-114169047D01*
X102866476Y-114240476D01*
X102580761Y-114526190D01*
X102890285Y-114526190D01*
X103104571Y-114335714D02*
X103485523Y-114335714D01*
X116272571Y-57257190D02*
X116439238Y-57757190D01*
X116605904Y-57257190D01*
X116939238Y-57495285D02*
X117010666Y-57519095D01*
X117034476Y-57542904D01*
X117058285Y-57590523D01*
X117058285Y-57661952D01*
X117034476Y-57709571D01*
X117010666Y-57733380D01*
X116963047Y-57757190D01*
X116772571Y-57757190D01*
X116772571Y-57257190D01*
X116939238Y-57257190D01*
X116986857Y-57281000D01*
X117010666Y-57304809D01*
X117034476Y-57352428D01*
X117034476Y-57400047D01*
X117010666Y-57447666D01*
X116986857Y-57471476D01*
X116939238Y-57495285D01*
X116772571Y-57495285D01*
X117248761Y-57614333D02*
X117486857Y-57614333D01*
X117201142Y-57757190D02*
X117367809Y-57257190D01*
X117534476Y-57757190D01*
X117629714Y-57257190D02*
X117915428Y-57257190D01*
X117772571Y-57757190D02*
X117772571Y-57257190D01*
X103096190Y-79851238D02*
X103096190Y-80136952D01*
X103096190Y-79994095D02*
X102596190Y-79994095D01*
X102667619Y-80041714D01*
X102715238Y-80089333D01*
X102739047Y-80136952D01*
X102762857Y-79422666D02*
X103096190Y-79422666D01*
X102572380Y-79541714D02*
X102929523Y-79660761D01*
X102929523Y-79351238D01*
X91523904Y-107700000D02*
X91476285Y-107676190D01*
X91404857Y-107676190D01*
X91333428Y-107700000D01*
X91285809Y-107747619D01*
X91262000Y-107795238D01*
X91238190Y-107890476D01*
X91238190Y-107961904D01*
X91262000Y-108057142D01*
X91285809Y-108104761D01*
X91333428Y-108152380D01*
X91404857Y-108176190D01*
X91452476Y-108176190D01*
X91523904Y-108152380D01*
X91547714Y-108128571D01*
X91547714Y-107961904D01*
X91452476Y-107961904D01*
X91762000Y-108176190D02*
X91762000Y-107676190D01*
X91952476Y-107676190D01*
X92000095Y-107700000D01*
X92023904Y-107723809D01*
X92047714Y-107771428D01*
X92047714Y-107842857D01*
X92023904Y-107890476D01*
X92000095Y-107914285D01*
X91952476Y-107938095D01*
X91762000Y-107938095D01*
X92262000Y-108176190D02*
X92262000Y-107676190D01*
X92595333Y-107676190D02*
X92690571Y-107676190D01*
X92738190Y-107700000D01*
X92785809Y-107747619D01*
X92809619Y-107842857D01*
X92809619Y-108009523D01*
X92785809Y-108104761D01*
X92738190Y-108152380D01*
X92690571Y-108176190D01*
X92595333Y-108176190D01*
X92547714Y-108152380D01*
X92500095Y-108104761D01*
X92476285Y-108009523D01*
X92476285Y-107842857D01*
X92500095Y-107747619D01*
X92547714Y-107700000D01*
X92595333Y-107676190D01*
X93285809Y-108176190D02*
X93000095Y-108176190D01*
X93142952Y-108176190D02*
X93142952Y-107676190D01*
X93095333Y-107747619D01*
X93047714Y-107795238D01*
X93000095Y-107819047D01*
X82427000Y-83685000D02*
X82403190Y-83732619D01*
X82403190Y-83804047D01*
X82427000Y-83875476D01*
X82474619Y-83923095D01*
X82522238Y-83946904D01*
X82617476Y-83970714D01*
X82688904Y-83970714D01*
X82784142Y-83946904D01*
X82831761Y-83923095D01*
X82879380Y-83875476D01*
X82903190Y-83804047D01*
X82903190Y-83756428D01*
X82879380Y-83685000D01*
X82855571Y-83661190D01*
X82688904Y-83661190D01*
X82688904Y-83756428D01*
X82903190Y-83446904D02*
X82403190Y-83446904D01*
X82403190Y-83256428D01*
X82427000Y-83208809D01*
X82450809Y-83185000D01*
X82498428Y-83161190D01*
X82569857Y-83161190D01*
X82617476Y-83185000D01*
X82641285Y-83208809D01*
X82665095Y-83256428D01*
X82665095Y-83446904D01*
X82903190Y-82946904D02*
X82403190Y-82946904D01*
X82403190Y-82613571D02*
X82403190Y-82518333D01*
X82427000Y-82470714D01*
X82474619Y-82423095D01*
X82569857Y-82399285D01*
X82736523Y-82399285D01*
X82831761Y-82423095D01*
X82879380Y-82470714D01*
X82903190Y-82518333D01*
X82903190Y-82613571D01*
X82879380Y-82661190D01*
X82831761Y-82708809D01*
X82736523Y-82732619D01*
X82569857Y-82732619D01*
X82474619Y-82708809D01*
X82427000Y-82661190D01*
X82403190Y-82613571D01*
X85316190Y-79613142D02*
X85316190Y-79898857D01*
X85316190Y-79756000D02*
X84816190Y-79756000D01*
X84887619Y-79803619D01*
X84935238Y-79851238D01*
X84959047Y-79898857D01*
X83947047Y-51820000D02*
X83899428Y-51796190D01*
X83828000Y-51796190D01*
X83756571Y-51820000D01*
X83708952Y-51867619D01*
X83685142Y-51915238D01*
X83661333Y-52010476D01*
X83661333Y-52081904D01*
X83685142Y-52177142D01*
X83708952Y-52224761D01*
X83756571Y-52272380D01*
X83828000Y-52296190D01*
X83875619Y-52296190D01*
X83947047Y-52272380D01*
X83970857Y-52248571D01*
X83970857Y-52081904D01*
X83875619Y-52081904D01*
X84185142Y-52296190D02*
X84185142Y-51796190D01*
X84470857Y-52296190D01*
X84470857Y-51796190D01*
X84708952Y-52296190D02*
X84708952Y-51796190D01*
X84828000Y-51796190D01*
X84899428Y-51820000D01*
X84947047Y-51867619D01*
X84970857Y-51915238D01*
X84994666Y-52010476D01*
X84994666Y-52081904D01*
X84970857Y-52177142D01*
X84947047Y-52224761D01*
X84899428Y-52272380D01*
X84828000Y-52296190D01*
X84708952Y-52296190D01*
X94421047Y-114050000D02*
X94373428Y-114026190D01*
X94302000Y-114026190D01*
X94230571Y-114050000D01*
X94182952Y-114097619D01*
X94159142Y-114145238D01*
X94135333Y-114240476D01*
X94135333Y-114311904D01*
X94159142Y-114407142D01*
X94182952Y-114454761D01*
X94230571Y-114502380D01*
X94302000Y-114526190D01*
X94349619Y-114526190D01*
X94421047Y-114502380D01*
X94444857Y-114478571D01*
X94444857Y-114311904D01*
X94349619Y-114311904D01*
X94659142Y-114526190D02*
X94659142Y-114026190D01*
X94944857Y-114526190D01*
X94944857Y-114026190D01*
X95182952Y-114526190D02*
X95182952Y-114026190D01*
X95302000Y-114026190D01*
X95373428Y-114050000D01*
X95421047Y-114097619D01*
X95444857Y-114145238D01*
X95468666Y-114240476D01*
X95468666Y-114311904D01*
X95444857Y-114407142D01*
X95421047Y-114454761D01*
X95373428Y-114502380D01*
X95302000Y-114526190D01*
X95182952Y-114526190D01*
X94421047Y-107700000D02*
X94373428Y-107676190D01*
X94302000Y-107676190D01*
X94230571Y-107700000D01*
X94182952Y-107747619D01*
X94159142Y-107795238D01*
X94135333Y-107890476D01*
X94135333Y-107961904D01*
X94159142Y-108057142D01*
X94182952Y-108104761D01*
X94230571Y-108152380D01*
X94302000Y-108176190D01*
X94349619Y-108176190D01*
X94421047Y-108152380D01*
X94444857Y-108128571D01*
X94444857Y-107961904D01*
X94349619Y-107961904D01*
X94659142Y-108176190D02*
X94659142Y-107676190D01*
X94944857Y-108176190D01*
X94944857Y-107676190D01*
X95182952Y-108176190D02*
X95182952Y-107676190D01*
X95302000Y-107676190D01*
X95373428Y-107700000D01*
X95421047Y-107747619D01*
X95444857Y-107795238D01*
X95468666Y-107890476D01*
X95468666Y-107961904D01*
X95444857Y-108057142D01*
X95421047Y-108104761D01*
X95373428Y-108152380D01*
X95302000Y-108176190D01*
X95182952Y-108176190D01*
X87356190Y-86129809D02*
X87356190Y-86082190D01*
X87380000Y-86034571D01*
X87403809Y-86010761D01*
X87451428Y-85986952D01*
X87546666Y-85963142D01*
X87665714Y-85963142D01*
X87760952Y-85986952D01*
X87808571Y-86010761D01*
X87832380Y-86034571D01*
X87856190Y-86082190D01*
X87856190Y-86129809D01*
X87832380Y-86177428D01*
X87808571Y-86201238D01*
X87760952Y-86225047D01*
X87665714Y-86248857D01*
X87546666Y-86248857D01*
X87451428Y-86225047D01*
X87403809Y-86201238D01*
X87380000Y-86177428D01*
X87356190Y-86129809D01*
X100556190Y-79851238D02*
X100556190Y-80136952D01*
X100556190Y-79994095D02*
X100056190Y-79994095D01*
X100127619Y-80041714D01*
X100175238Y-80089333D01*
X100199047Y-80136952D01*
X100056190Y-79684571D02*
X100056190Y-79375047D01*
X100246666Y-79541714D01*
X100246666Y-79470285D01*
X100270476Y-79422666D01*
X100294285Y-79398857D01*
X100341904Y-79375047D01*
X100460952Y-79375047D01*
X100508571Y-79398857D01*
X100532380Y-79422666D01*
X100556190Y-79470285D01*
X100556190Y-79613142D01*
X100532380Y-79660761D01*
X100508571Y-79684571D01*
X103854380Y-51923190D02*
X104021047Y-52423190D01*
X104187714Y-51923190D01*
X104354380Y-52423190D02*
X104354380Y-51923190D01*
X104473428Y-51923190D01*
X104544857Y-51947000D01*
X104592476Y-51994619D01*
X104616285Y-52042238D01*
X104640095Y-52137476D01*
X104640095Y-52208904D01*
X104616285Y-52304142D01*
X104592476Y-52351761D01*
X104544857Y-52399380D01*
X104473428Y-52423190D01*
X104354380Y-52423190D01*
X104854380Y-52423190D02*
X104854380Y-51923190D01*
X104973428Y-51923190D01*
X105044857Y-51947000D01*
X105092476Y-51994619D01*
X105116285Y-52042238D01*
X105140095Y-52137476D01*
X105140095Y-52208904D01*
X105116285Y-52304142D01*
X105092476Y-52351761D01*
X105044857Y-52399380D01*
X104973428Y-52423190D01*
X104854380Y-52423190D01*
X105354380Y-52423190D02*
X105354380Y-51923190D01*
X105687714Y-51923190D02*
X105782952Y-51923190D01*
X105830571Y-51947000D01*
X105878190Y-51994619D01*
X105902000Y-52089857D01*
X105902000Y-52256523D01*
X105878190Y-52351761D01*
X105830571Y-52399380D01*
X105782952Y-52423190D01*
X105687714Y-52423190D01*
X105640095Y-52399380D01*
X105592476Y-52351761D01*
X105568666Y-52256523D01*
X105568666Y-52089857D01*
X105592476Y-51994619D01*
X105640095Y-51947000D01*
X105687714Y-51923190D01*
X90396190Y-85963142D02*
X90396190Y-86248857D01*
X90396190Y-86106000D02*
X89896190Y-86106000D01*
X89967619Y-86153619D01*
X90015238Y-86201238D01*
X90039047Y-86248857D01*
X91773428Y-52296190D02*
X91487714Y-52296190D01*
X91630571Y-52296190D02*
X91630571Y-51796190D01*
X91582952Y-51867619D01*
X91535333Y-51915238D01*
X91487714Y-51939047D01*
X91987714Y-52248571D02*
X92011523Y-52272380D01*
X91987714Y-52296190D01*
X91963904Y-52272380D01*
X91987714Y-52248571D01*
X91987714Y-52296190D01*
X92487714Y-52296190D02*
X92202000Y-52296190D01*
X92344857Y-52296190D02*
X92344857Y-51796190D01*
X92297238Y-51867619D01*
X92249619Y-51915238D01*
X92202000Y-51939047D01*
X92630571Y-51796190D02*
X92797238Y-52296190D01*
X92963904Y-51796190D01*
X92483809Y-86248857D02*
X92460000Y-86225047D01*
X92436190Y-86177428D01*
X92436190Y-86058380D01*
X92460000Y-86010761D01*
X92483809Y-85986952D01*
X92531428Y-85963142D01*
X92579047Y-85963142D01*
X92650476Y-85986952D01*
X92936190Y-86272666D01*
X92936190Y-85963142D01*
X105136190Y-86272666D02*
X105136190Y-85939333D01*
X105636190Y-86153619D01*
X100056190Y-85986952D02*
X100056190Y-86225047D01*
X100294285Y-86248857D01*
X100270476Y-86225047D01*
X100246666Y-86177428D01*
X100246666Y-86058380D01*
X100270476Y-86010761D01*
X100294285Y-85986952D01*
X100341904Y-85963142D01*
X100460952Y-85963142D01*
X100508571Y-85986952D01*
X100532380Y-86010761D01*
X100556190Y-86058380D01*
X100556190Y-86177428D01*
X100532380Y-86225047D01*
X100508571Y-86248857D01*
X106525333Y-58781190D02*
X106692000Y-59281190D01*
X106858666Y-58781190D01*
X107025333Y-59281190D02*
X107025333Y-58781190D01*
X107144380Y-58781190D01*
X107215809Y-58805000D01*
X107263428Y-58852619D01*
X107287238Y-58900238D01*
X107311047Y-58995476D01*
X107311047Y-59066904D01*
X107287238Y-59162142D01*
X107263428Y-59209761D01*
X107215809Y-59257380D01*
X107144380Y-59281190D01*
X107025333Y-59281190D01*
X107525333Y-59281190D02*
X107525333Y-58781190D01*
X107644380Y-58781190D01*
X107715809Y-58805000D01*
X107763428Y-58852619D01*
X107787238Y-58900238D01*
X107811047Y-58995476D01*
X107811047Y-59066904D01*
X107787238Y-59162142D01*
X107763428Y-59209761D01*
X107715809Y-59257380D01*
X107644380Y-59281190D01*
X107525333Y-59281190D01*
X108025333Y-59281190D02*
X108025333Y-58781190D01*
X108144380Y-58781190D01*
X108215809Y-58805000D01*
X108263428Y-58852619D01*
X108287238Y-58900238D01*
X108311047Y-58995476D01*
X108311047Y-59066904D01*
X108287238Y-59162142D01*
X108263428Y-59209761D01*
X108215809Y-59257380D01*
X108144380Y-59281190D01*
X108025333Y-59281190D01*
X88856904Y-114050000D02*
X88809285Y-114026190D01*
X88737857Y-114026190D01*
X88666428Y-114050000D01*
X88618809Y-114097619D01*
X88595000Y-114145238D01*
X88571190Y-114240476D01*
X88571190Y-114311904D01*
X88595000Y-114407142D01*
X88618809Y-114454761D01*
X88666428Y-114502380D01*
X88737857Y-114526190D01*
X88785476Y-114526190D01*
X88856904Y-114502380D01*
X88880714Y-114478571D01*
X88880714Y-114311904D01*
X88785476Y-114311904D01*
X89095000Y-114526190D02*
X89095000Y-114026190D01*
X89285476Y-114026190D01*
X89333095Y-114050000D01*
X89356904Y-114073809D01*
X89380714Y-114121428D01*
X89380714Y-114192857D01*
X89356904Y-114240476D01*
X89333095Y-114264285D01*
X89285476Y-114288095D01*
X89095000Y-114288095D01*
X89595000Y-114526190D02*
X89595000Y-114026190D01*
X89928333Y-114026190D02*
X90023571Y-114026190D01*
X90071190Y-114050000D01*
X90118809Y-114097619D01*
X90142619Y-114192857D01*
X90142619Y-114359523D01*
X90118809Y-114454761D01*
X90071190Y-114502380D01*
X90023571Y-114526190D01*
X89928333Y-114526190D01*
X89880714Y-114502380D01*
X89833095Y-114454761D01*
X89809285Y-114359523D01*
X89809285Y-114192857D01*
X89833095Y-114097619D01*
X89880714Y-114050000D01*
X89928333Y-114026190D01*
X90571190Y-114192857D02*
X90571190Y-114526190D01*
X90452142Y-114002380D02*
X90333095Y-114359523D01*
X90642619Y-114359523D01*
X96774047Y-58805000D02*
X96726428Y-58781190D01*
X96655000Y-58781190D01*
X96583571Y-58805000D01*
X96535952Y-58852619D01*
X96512142Y-58900238D01*
X96488333Y-58995476D01*
X96488333Y-59066904D01*
X96512142Y-59162142D01*
X96535952Y-59209761D01*
X96583571Y-59257380D01*
X96655000Y-59281190D01*
X96702619Y-59281190D01*
X96774047Y-59257380D01*
X96797857Y-59233571D01*
X96797857Y-59066904D01*
X96702619Y-59066904D01*
X97012142Y-59281190D02*
X97012142Y-58781190D01*
X97297857Y-59281190D01*
X97297857Y-58781190D01*
X97535952Y-59281190D02*
X97535952Y-58781190D01*
X97655000Y-58781190D01*
X97726428Y-58805000D01*
X97774047Y-58852619D01*
X97797857Y-58900238D01*
X97821666Y-58995476D01*
X97821666Y-59066904D01*
X97797857Y-59162142D01*
X97774047Y-59209761D01*
X97726428Y-59257380D01*
X97655000Y-59281190D01*
X97535952Y-59281190D01*
X116486857Y-59640690D02*
X116486857Y-59140690D01*
X116772571Y-59640690D01*
X116772571Y-59140690D01*
X117296380Y-59640690D02*
X117129714Y-59402595D01*
X117010666Y-59640690D02*
X117010666Y-59140690D01*
X117201142Y-59140690D01*
X117248761Y-59164500D01*
X117272571Y-59188309D01*
X117296380Y-59235928D01*
X117296380Y-59307357D01*
X117272571Y-59354976D01*
X117248761Y-59378785D01*
X117201142Y-59402595D01*
X117010666Y-59402595D01*
X117677333Y-59378785D02*
X117510666Y-59378785D01*
X117510666Y-59640690D02*
X117510666Y-59140690D01*
X117748761Y-59140690D01*
X116177333Y-59945690D02*
X116344000Y-60445690D01*
X116510666Y-59945690D01*
X116677333Y-60445690D02*
X116677333Y-59945690D01*
X116796380Y-59945690D01*
X116867809Y-59969500D01*
X116915428Y-60017119D01*
X116939238Y-60064738D01*
X116963047Y-60159976D01*
X116963047Y-60231404D01*
X116939238Y-60326642D01*
X116915428Y-60374261D01*
X116867809Y-60421880D01*
X116796380Y-60445690D01*
X116677333Y-60445690D01*
X117177333Y-60445690D02*
X117177333Y-59945690D01*
X117296380Y-59945690D01*
X117367809Y-59969500D01*
X117415428Y-60017119D01*
X117439238Y-60064738D01*
X117463047Y-60159976D01*
X117463047Y-60231404D01*
X117439238Y-60326642D01*
X117415428Y-60374261D01*
X117367809Y-60421880D01*
X117296380Y-60445690D01*
X117177333Y-60445690D01*
X117677333Y-60445690D02*
X117677333Y-59945690D01*
X117796380Y-59945690D01*
X117867809Y-59969500D01*
X117915428Y-60017119D01*
X117939238Y-60064738D01*
X117963047Y-60159976D01*
X117963047Y-60231404D01*
X117939238Y-60326642D01*
X117915428Y-60374261D01*
X117867809Y-60421880D01*
X117796380Y-60445690D01*
X117677333Y-60445690D01*
D12*
X108630000Y-106659803D02*
X108715714Y-106688374D01*
X108858571Y-106688374D01*
X108915714Y-106659803D01*
X108944285Y-106631231D01*
X108972857Y-106574088D01*
X108972857Y-106516946D01*
X108944285Y-106459803D01*
X108915714Y-106431231D01*
X108858571Y-106402660D01*
X108744285Y-106374088D01*
X108687142Y-106345517D01*
X108658571Y-106316946D01*
X108630000Y-106259803D01*
X108630000Y-106202660D01*
X108658571Y-106145517D01*
X108687142Y-106116946D01*
X108744285Y-106088374D01*
X108887142Y-106088374D01*
X108972857Y-106116946D01*
X109487142Y-106288374D02*
X109487142Y-106688374D01*
X109230000Y-106288374D02*
X109230000Y-106602660D01*
X109258571Y-106659803D01*
X109315714Y-106688374D01*
X109401428Y-106688374D01*
X109458571Y-106659803D01*
X109487142Y-106631231D01*
X109858571Y-106688374D02*
X109801428Y-106659803D01*
X109772857Y-106602660D01*
X109772857Y-106088374D01*
X110344285Y-106288374D02*
X110344285Y-106688374D01*
X110087142Y-106288374D02*
X110087142Y-106602660D01*
X110115714Y-106659803D01*
X110172857Y-106688374D01*
X110258571Y-106688374D01*
X110315714Y-106659803D01*
X110344285Y-106631231D01*
X110630000Y-106459803D02*
X111087142Y-106459803D01*
X111344285Y-106516946D02*
X111630000Y-106516946D01*
X111287142Y-106688374D02*
X111487142Y-106088374D01*
X111687142Y-106688374D01*
X111887142Y-106688374D02*
X111887142Y-106088374D01*
X112030000Y-106088374D01*
X112115714Y-106116946D01*
X112172857Y-106174088D01*
X112201428Y-106231231D01*
X112230000Y-106345517D01*
X112230000Y-106431231D01*
X112201428Y-106545517D01*
X112172857Y-106602660D01*
X112115714Y-106659803D01*
X112030000Y-106688374D01*
X111887142Y-106688374D01*
X112458571Y-106659803D02*
X112544285Y-106688374D01*
X112687142Y-106688374D01*
X112744285Y-106659803D01*
X112772857Y-106631231D01*
X112801428Y-106574088D01*
X112801428Y-106516946D01*
X112772857Y-106459803D01*
X112744285Y-106431231D01*
X112687142Y-106402660D01*
X112572857Y-106374088D01*
X112515714Y-106345517D01*
X112487142Y-106316946D01*
X112458571Y-106259803D01*
X112458571Y-106202660D01*
X112487142Y-106145517D01*
X112515714Y-106116946D01*
X112572857Y-106088374D01*
X112715714Y-106088374D01*
X112801428Y-106116946D01*
X113372857Y-106688374D02*
X113030000Y-106688374D01*
X113201428Y-106688374D02*
X113201428Y-106088374D01*
X113144285Y-106174088D01*
X113087142Y-106231231D01*
X113030000Y-106259803D01*
X113601428Y-106145517D02*
X113630000Y-106116946D01*
X113687142Y-106088374D01*
X113830000Y-106088374D01*
X113887142Y-106116946D01*
X113915714Y-106145517D01*
X113944285Y-106202660D01*
X113944285Y-106259803D01*
X113915714Y-106345517D01*
X113572857Y-106688374D01*
X113944285Y-106688374D01*
X114230000Y-106688374D02*
X114344285Y-106688374D01*
X114401428Y-106659803D01*
X114430000Y-106631231D01*
X114487142Y-106545517D01*
X114515714Y-106431231D01*
X114515714Y-106202660D01*
X114487142Y-106145517D01*
X114458571Y-106116946D01*
X114401428Y-106088374D01*
X114287142Y-106088374D01*
X114230000Y-106116946D01*
X114201428Y-106145517D01*
X114172857Y-106202660D01*
X114172857Y-106345517D01*
X114201428Y-106402660D01*
X114230000Y-106431231D01*
X114287142Y-106459803D01*
X114401428Y-106459803D01*
X114458571Y-106431231D01*
X114487142Y-106402660D01*
X114515714Y-106345517D01*
X114801428Y-106688374D02*
X114915714Y-106688374D01*
X114972857Y-106659803D01*
X115001428Y-106631231D01*
X115058571Y-106545517D01*
X115087142Y-106431231D01*
X115087142Y-106202660D01*
X115058571Y-106145517D01*
X115030000Y-106116946D01*
X114972857Y-106088374D01*
X114858571Y-106088374D01*
X114801428Y-106116946D01*
X114772857Y-106145517D01*
X114744285Y-106202660D01*
X114744285Y-106345517D01*
X114772857Y-106402660D01*
X114801428Y-106431231D01*
X114858571Y-106459803D01*
X114972857Y-106459803D01*
X115030000Y-106431231D01*
X115058571Y-106402660D01*
X115087142Y-106345517D01*
X115744285Y-106288374D02*
X115887142Y-106688374D01*
X116030000Y-106288374D01*
X116572857Y-106688374D02*
X116230000Y-106688374D01*
X116401428Y-106688374D02*
X116401428Y-106088374D01*
X116344285Y-106174088D01*
X116287142Y-106231231D01*
X116230000Y-106259803D01*
X116830000Y-106631231D02*
X116858571Y-106659803D01*
X116830000Y-106688374D01*
X116801428Y-106659803D01*
X116830000Y-106631231D01*
X116830000Y-106688374D01*
X117230000Y-106088374D02*
X117287142Y-106088374D01*
X117344285Y-106116946D01*
X117372857Y-106145517D01*
X117401428Y-106202660D01*
X117430000Y-106316946D01*
X117430000Y-106459803D01*
X117401428Y-106574088D01*
X117372857Y-106631231D01*
X117344285Y-106659803D01*
X117287142Y-106688374D01*
X117230000Y-106688374D01*
X117172857Y-106659803D01*
X117144285Y-106631231D01*
X117115714Y-106574088D01*
X117087142Y-106459803D01*
X117087142Y-106316946D01*
X117115714Y-106202660D01*
X117144285Y-106145517D01*
X117172857Y-106116946D01*
X117230000Y-106088374D01*
D13*
X109359761Y-51814666D02*
X109550238Y-51814666D01*
X109321666Y-51928952D02*
X109455000Y-51528952D01*
X109588333Y-51928952D01*
X109721666Y-51928952D02*
X109721666Y-51528952D01*
X109816904Y-51528952D01*
X109874047Y-51548000D01*
X109912142Y-51586095D01*
X109931190Y-51624190D01*
X109950238Y-51700380D01*
X109950238Y-51757523D01*
X109931190Y-51833714D01*
X109912142Y-51871809D01*
X109874047Y-51909904D01*
X109816904Y-51928952D01*
X109721666Y-51928952D01*
X110350238Y-51890857D02*
X110331190Y-51909904D01*
X110274047Y-51928952D01*
X110235952Y-51928952D01*
X110178809Y-51909904D01*
X110140714Y-51871809D01*
X110121666Y-51833714D01*
X110102619Y-51757523D01*
X110102619Y-51700380D01*
X110121666Y-51624190D01*
X110140714Y-51586095D01*
X110178809Y-51548000D01*
X110235952Y-51528952D01*
X110274047Y-51528952D01*
X110331190Y-51548000D01*
X110350238Y-51567047D01*
X109455000Y-52172952D02*
X109531190Y-52172952D01*
X109569285Y-52192000D01*
X109607380Y-52230095D01*
X109626428Y-52306285D01*
X109626428Y-52439619D01*
X109607380Y-52515809D01*
X109569285Y-52553904D01*
X109531190Y-52572952D01*
X109455000Y-52572952D01*
X109416904Y-52553904D01*
X109378809Y-52515809D01*
X109359761Y-52439619D01*
X109359761Y-52306285D01*
X109378809Y-52230095D01*
X109416904Y-52192000D01*
X109455000Y-52172952D01*
X109797857Y-52172952D02*
X109797857Y-52496761D01*
X109816904Y-52534857D01*
X109835952Y-52553904D01*
X109874047Y-52572952D01*
X109950238Y-52572952D01*
X109988333Y-52553904D01*
X110007380Y-52534857D01*
X110026428Y-52496761D01*
X110026428Y-52172952D01*
X110159761Y-52172952D02*
X110388333Y-52172952D01*
X110274047Y-52572952D02*
X110274047Y-52172952D01*
D10*
X96659476Y-114526190D02*
X96659476Y-114026190D01*
X96897571Y-114526190D02*
X96897571Y-114026190D01*
X97183285Y-114526190D01*
X97183285Y-114026190D01*
X97635666Y-114192857D02*
X97635666Y-114526190D01*
X97516619Y-114002380D02*
X97397571Y-114359523D01*
X97707095Y-114359523D01*
X97897571Y-114335714D02*
X98278523Y-114335714D01*
X107569047Y-79506000D02*
X107521428Y-79482190D01*
X107450000Y-79482190D01*
X107378571Y-79506000D01*
X107330952Y-79553619D01*
X107307142Y-79601238D01*
X107283333Y-79696476D01*
X107283333Y-79767904D01*
X107307142Y-79863142D01*
X107330952Y-79910761D01*
X107378571Y-79958380D01*
X107450000Y-79982190D01*
X107497619Y-79982190D01*
X107569047Y-79958380D01*
X107592857Y-79934571D01*
X107592857Y-79767904D01*
X107497619Y-79767904D01*
X107807142Y-79982190D02*
X107807142Y-79482190D01*
X108092857Y-79982190D01*
X108092857Y-79482190D01*
X108330952Y-79982190D02*
X108330952Y-79482190D01*
X108450000Y-79482190D01*
X108521428Y-79506000D01*
X108569047Y-79553619D01*
X108592857Y-79601238D01*
X108616666Y-79696476D01*
X108616666Y-79767904D01*
X108592857Y-79863142D01*
X108569047Y-79910761D01*
X108521428Y-79958380D01*
X108450000Y-79982190D01*
X108330952Y-79982190D01*
X83947047Y-58805000D02*
X83899428Y-58781190D01*
X83828000Y-58781190D01*
X83756571Y-58805000D01*
X83708952Y-58852619D01*
X83685142Y-58900238D01*
X83661333Y-58995476D01*
X83661333Y-59066904D01*
X83685142Y-59162142D01*
X83708952Y-59209761D01*
X83756571Y-59257380D01*
X83828000Y-59281190D01*
X83875619Y-59281190D01*
X83947047Y-59257380D01*
X83970857Y-59233571D01*
X83970857Y-59066904D01*
X83875619Y-59066904D01*
X84185142Y-59281190D02*
X84185142Y-58781190D01*
X84470857Y-59281190D01*
X84470857Y-58781190D01*
X84708952Y-59281190D02*
X84708952Y-58781190D01*
X84828000Y-58781190D01*
X84899428Y-58805000D01*
X84947047Y-58852619D01*
X84970857Y-58900238D01*
X84994666Y-58995476D01*
X84994666Y-59066904D01*
X84970857Y-59162142D01*
X84947047Y-59209761D01*
X84899428Y-59257380D01*
X84828000Y-59281190D01*
X84708952Y-59281190D01*
X89360428Y-52296190D02*
X89074714Y-52296190D01*
X89217571Y-52296190D02*
X89217571Y-51796190D01*
X89169952Y-51867619D01*
X89122333Y-51915238D01*
X89074714Y-51939047D01*
X89574714Y-52248571D02*
X89598523Y-52272380D01*
X89574714Y-52296190D01*
X89550904Y-52272380D01*
X89574714Y-52248571D01*
X89574714Y-52296190D01*
X89884238Y-52010476D02*
X89836619Y-51986666D01*
X89812809Y-51962857D01*
X89789000Y-51915238D01*
X89789000Y-51891428D01*
X89812809Y-51843809D01*
X89836619Y-51820000D01*
X89884238Y-51796190D01*
X89979476Y-51796190D01*
X90027095Y-51820000D01*
X90050904Y-51843809D01*
X90074714Y-51891428D01*
X90074714Y-51915238D01*
X90050904Y-51962857D01*
X90027095Y-51986666D01*
X89979476Y-52010476D01*
X89884238Y-52010476D01*
X89836619Y-52034285D01*
X89812809Y-52058095D01*
X89789000Y-52105714D01*
X89789000Y-52200952D01*
X89812809Y-52248571D01*
X89836619Y-52272380D01*
X89884238Y-52296190D01*
X89979476Y-52296190D01*
X90027095Y-52272380D01*
X90050904Y-52248571D01*
X90074714Y-52200952D01*
X90074714Y-52105714D01*
X90050904Y-52058095D01*
X90027095Y-52034285D01*
X89979476Y-52010476D01*
X90217571Y-51796190D02*
X90384238Y-52296190D01*
X90550904Y-51796190D01*
D13*
X116391619Y-66760690D02*
X116701142Y-66760690D01*
X116534476Y-66951166D01*
X116605904Y-66951166D01*
X116653523Y-66974976D01*
X116677333Y-66998785D01*
X116701142Y-67046404D01*
X116701142Y-67165452D01*
X116677333Y-67213071D01*
X116653523Y-67236880D01*
X116605904Y-67260690D01*
X116463047Y-67260690D01*
X116415428Y-67236880D01*
X116391619Y-67213071D01*
X116867809Y-66760690D02*
X116986857Y-67260690D01*
X117082095Y-66903547D01*
X117177333Y-67260690D01*
X117296380Y-66760690D01*
X117653523Y-66998785D02*
X117724952Y-67022595D01*
X117748761Y-67046404D01*
X117772571Y-67094023D01*
X117772571Y-67165452D01*
X117748761Y-67213071D01*
X117724952Y-67236880D01*
X117677333Y-67260690D01*
X117486857Y-67260690D01*
X117486857Y-66760690D01*
X117653523Y-66760690D01*
X117701142Y-66784500D01*
X117724952Y-66808309D01*
X117748761Y-66855928D01*
X117748761Y-66903547D01*
X117724952Y-66951166D01*
X117701142Y-66974976D01*
X117653523Y-66998785D01*
X117486857Y-66998785D01*
X116344000Y-68065690D02*
X116344000Y-67565690D01*
X116463047Y-67565690D01*
X116534476Y-67589500D01*
X116582095Y-67637119D01*
X116605904Y-67684738D01*
X116629714Y-67779976D01*
X116629714Y-67851404D01*
X116605904Y-67946642D01*
X116582095Y-67994261D01*
X116534476Y-68041880D01*
X116463047Y-68065690D01*
X116344000Y-68065690D01*
X116820190Y-67922833D02*
X117058285Y-67922833D01*
X116772571Y-68065690D02*
X116939238Y-67565690D01*
X117105904Y-68065690D01*
X117201142Y-67565690D02*
X117486857Y-67565690D01*
X117344000Y-68065690D02*
X117344000Y-67565690D01*
X117629714Y-67922833D02*
X117867809Y-67922833D01*
X117582095Y-68065690D02*
X117748761Y-67565690D01*
X117915428Y-68065690D01*
D10*
X104406476Y-114526190D02*
X104406476Y-114026190D01*
X104644571Y-114526190D02*
X104644571Y-114026190D01*
X104930285Y-114526190D01*
X104930285Y-114026190D01*
X105430285Y-114526190D02*
X105144571Y-114526190D01*
X105287428Y-114526190D02*
X105287428Y-114026190D01*
X105239809Y-114097619D01*
X105192190Y-114145238D01*
X105144571Y-114169047D01*
X105644571Y-114335714D02*
X106025523Y-114335714D01*
X99655380Y-51766690D02*
X99655380Y-51266690D01*
X99893476Y-51766690D02*
X99893476Y-51266690D01*
X100060142Y-51623833D01*
X100226809Y-51266690D01*
X100226809Y-51766690D01*
X100464904Y-51266690D02*
X100464904Y-51671452D01*
X100488714Y-51719071D01*
X100512523Y-51742880D01*
X100560142Y-51766690D01*
X100655380Y-51766690D01*
X100703000Y-51742880D01*
X100726809Y-51719071D01*
X100750619Y-51671452D01*
X100750619Y-51266690D01*
X99155380Y-52071690D02*
X99322047Y-52571690D01*
X99488714Y-52071690D01*
X99655380Y-52571690D02*
X99655380Y-52071690D01*
X99774428Y-52071690D01*
X99845857Y-52095500D01*
X99893476Y-52143119D01*
X99917285Y-52190738D01*
X99941095Y-52285976D01*
X99941095Y-52357404D01*
X99917285Y-52452642D01*
X99893476Y-52500261D01*
X99845857Y-52547880D01*
X99774428Y-52571690D01*
X99655380Y-52571690D01*
X100155380Y-52571690D02*
X100155380Y-52071690D01*
X100274428Y-52071690D01*
X100345857Y-52095500D01*
X100393476Y-52143119D01*
X100417285Y-52190738D01*
X100441095Y-52285976D01*
X100441095Y-52357404D01*
X100417285Y-52452642D01*
X100393476Y-52500261D01*
X100345857Y-52547880D01*
X100274428Y-52571690D01*
X100155380Y-52571690D01*
X100655380Y-52571690D02*
X100655380Y-52071690D01*
X100988714Y-52071690D02*
X101083952Y-52071690D01*
X101131571Y-52095500D01*
X101179190Y-52143119D01*
X101203000Y-52238357D01*
X101203000Y-52405023D01*
X101179190Y-52500261D01*
X101131571Y-52547880D01*
X101083952Y-52571690D01*
X100988714Y-52571690D01*
X100941095Y-52547880D01*
X100893476Y-52500261D01*
X100869666Y-52405023D01*
X100869666Y-52238357D01*
X100893476Y-52143119D01*
X100941095Y-52095500D01*
X100988714Y-52071690D01*
X105636190Y-79851238D02*
X105636190Y-80136952D01*
X105636190Y-79994095D02*
X105136190Y-79994095D01*
X105207619Y-80041714D01*
X105255238Y-80089333D01*
X105279047Y-80136952D01*
X105136190Y-79398857D02*
X105136190Y-79636952D01*
X105374285Y-79660761D01*
X105350476Y-79636952D01*
X105326666Y-79589333D01*
X105326666Y-79470285D01*
X105350476Y-79422666D01*
X105374285Y-79398857D01*
X105421904Y-79375047D01*
X105540952Y-79375047D01*
X105588571Y-79398857D01*
X105612380Y-79422666D01*
X105636190Y-79470285D01*
X105636190Y-79589333D01*
X105612380Y-79636952D01*
X105588571Y-79660761D01*
X96786476Y-108176190D02*
X96786476Y-107676190D01*
X97024571Y-108176190D02*
X97024571Y-107676190D01*
X97310285Y-108176190D01*
X97310285Y-107676190D01*
X97762666Y-107842857D02*
X97762666Y-108176190D01*
X97643619Y-107652380D02*
X97524571Y-108009523D01*
X97834095Y-108009523D01*
X98024571Y-107985714D02*
X98405523Y-107985714D01*
X98215047Y-108176190D02*
X98215047Y-107795238D01*
D13*
X109359761Y-58926666D02*
X109550238Y-58926666D01*
X109321666Y-59040952D02*
X109455000Y-58640952D01*
X109588333Y-59040952D01*
X109721666Y-59040952D02*
X109721666Y-58640952D01*
X109816904Y-58640952D01*
X109874047Y-58660000D01*
X109912142Y-58698095D01*
X109931190Y-58736190D01*
X109950238Y-58812380D01*
X109950238Y-58869523D01*
X109931190Y-58945714D01*
X109912142Y-58983809D01*
X109874047Y-59021904D01*
X109816904Y-59040952D01*
X109721666Y-59040952D01*
X110350238Y-59002857D02*
X110331190Y-59021904D01*
X110274047Y-59040952D01*
X110235952Y-59040952D01*
X110178809Y-59021904D01*
X110140714Y-58983809D01*
X110121666Y-58945714D01*
X110102619Y-58869523D01*
X110102619Y-58812380D01*
X110121666Y-58736190D01*
X110140714Y-58698095D01*
X110178809Y-58660000D01*
X110235952Y-58640952D01*
X110274047Y-58640952D01*
X110331190Y-58660000D01*
X110350238Y-58679047D01*
X109645476Y-59684952D02*
X109645476Y-59284952D01*
X109835952Y-59684952D02*
X109835952Y-59284952D01*
X110064523Y-59684952D01*
X110064523Y-59284952D01*
D10*
X99326476Y-108176190D02*
X99326476Y-107676190D01*
X99564571Y-108176190D02*
X99564571Y-107676190D01*
X99850285Y-108176190D01*
X99850285Y-107676190D01*
X100040761Y-107676190D02*
X100350285Y-107676190D01*
X100183619Y-107866666D01*
X100255047Y-107866666D01*
X100302666Y-107890476D01*
X100326476Y-107914285D01*
X100350285Y-107961904D01*
X100350285Y-108080952D01*
X100326476Y-108128571D01*
X100302666Y-108152380D01*
X100255047Y-108176190D01*
X100112190Y-108176190D01*
X100064571Y-108152380D01*
X100040761Y-108128571D01*
X100564571Y-107985714D02*
X100945523Y-107985714D01*
X100755047Y-108176190D02*
X100755047Y-107795238D01*
X91523904Y-114050000D02*
X91476285Y-114026190D01*
X91404857Y-114026190D01*
X91333428Y-114050000D01*
X91285809Y-114097619D01*
X91262000Y-114145238D01*
X91238190Y-114240476D01*
X91238190Y-114311904D01*
X91262000Y-114407142D01*
X91285809Y-114454761D01*
X91333428Y-114502380D01*
X91404857Y-114526190D01*
X91452476Y-114526190D01*
X91523904Y-114502380D01*
X91547714Y-114478571D01*
X91547714Y-114311904D01*
X91452476Y-114311904D01*
X91762000Y-114526190D02*
X91762000Y-114026190D01*
X91952476Y-114026190D01*
X92000095Y-114050000D01*
X92023904Y-114073809D01*
X92047714Y-114121428D01*
X92047714Y-114192857D01*
X92023904Y-114240476D01*
X92000095Y-114264285D01*
X91952476Y-114288095D01*
X91762000Y-114288095D01*
X92262000Y-114526190D02*
X92262000Y-114026190D01*
X92595333Y-114026190D02*
X92690571Y-114026190D01*
X92738190Y-114050000D01*
X92785809Y-114097619D01*
X92809619Y-114192857D01*
X92809619Y-114359523D01*
X92785809Y-114454761D01*
X92738190Y-114502380D01*
X92690571Y-114526190D01*
X92595333Y-114526190D01*
X92547714Y-114502380D01*
X92500095Y-114454761D01*
X92476285Y-114359523D01*
X92476285Y-114192857D01*
X92500095Y-114097619D01*
X92547714Y-114050000D01*
X92595333Y-114026190D01*
X92976285Y-114026190D02*
X93285809Y-114026190D01*
X93119142Y-114216666D01*
X93190571Y-114216666D01*
X93238190Y-114240476D01*
X93262000Y-114264285D01*
X93285809Y-114311904D01*
X93285809Y-114430952D01*
X93262000Y-114478571D01*
X93238190Y-114502380D01*
X93190571Y-114526190D01*
X93047714Y-114526190D01*
X93000095Y-114502380D01*
X92976285Y-114478571D01*
X116594000Y-78077190D02*
X116427333Y-77839095D01*
X116308285Y-78077190D02*
X116308285Y-77577190D01*
X116498761Y-77577190D01*
X116546380Y-77601000D01*
X116570190Y-77624809D01*
X116594000Y-77672428D01*
X116594000Y-77743857D01*
X116570190Y-77791476D01*
X116546380Y-77815285D01*
X116498761Y-77839095D01*
X116308285Y-77839095D01*
X116784476Y-78053380D02*
X116832095Y-78077190D01*
X116927333Y-78077190D01*
X116974952Y-78053380D01*
X116998761Y-78005761D01*
X116998761Y-77981952D01*
X116974952Y-77934333D01*
X116927333Y-77910523D01*
X116855904Y-77910523D01*
X116808285Y-77886714D01*
X116784476Y-77839095D01*
X116784476Y-77815285D01*
X116808285Y-77767666D01*
X116855904Y-77743857D01*
X116927333Y-77743857D01*
X116974952Y-77767666D01*
X117498761Y-78077190D02*
X117332095Y-77839095D01*
X117213047Y-78077190D02*
X117213047Y-77577190D01*
X117403523Y-77577190D01*
X117451142Y-77601000D01*
X117474952Y-77624809D01*
X117498761Y-77672428D01*
X117498761Y-77743857D01*
X117474952Y-77791476D01*
X117451142Y-77815285D01*
X117403523Y-77839095D01*
X117213047Y-77839095D01*
X117665428Y-78077190D02*
X117927333Y-77743857D01*
X117665428Y-77743857D02*
X117927333Y-78077190D01*
X93615000Y-52296190D02*
X93329285Y-52296190D01*
X93472142Y-52296190D02*
X93472142Y-51796190D01*
X93424523Y-51867619D01*
X93376904Y-51915238D01*
X93329285Y-51939047D01*
X93829285Y-52248571D02*
X93853095Y-52272380D01*
X93829285Y-52296190D01*
X93805476Y-52272380D01*
X93829285Y-52248571D01*
X93829285Y-52296190D01*
X94329285Y-52296190D02*
X94043571Y-52296190D01*
X94186428Y-52296190D02*
X94186428Y-51796190D01*
X94138809Y-51867619D01*
X94091190Y-51915238D01*
X94043571Y-51939047D01*
X94472142Y-51796190D02*
X94638809Y-52296190D01*
X94805476Y-51796190D01*
X94853095Y-52343809D02*
X95234047Y-52343809D01*
X95353095Y-52296190D02*
X95353095Y-51796190D01*
X95591190Y-52296190D02*
X95591190Y-51796190D01*
X95876904Y-52296190D01*
X95876904Y-51796190D01*
D12*
X108558571Y-103986088D02*
X108644285Y-104014660D01*
X108672857Y-104043231D01*
X108701428Y-104100374D01*
X108701428Y-104186088D01*
X108672857Y-104243231D01*
X108644285Y-104271803D01*
X108587142Y-104300374D01*
X108358571Y-104300374D01*
X108358571Y-103700374D01*
X108558571Y-103700374D01*
X108615714Y-103728946D01*
X108644285Y-103757517D01*
X108672857Y-103814660D01*
X108672857Y-103871803D01*
X108644285Y-103928946D01*
X108615714Y-103957517D01*
X108558571Y-103986088D01*
X108358571Y-103986088D01*
X109187142Y-104271803D02*
X109130000Y-104300374D01*
X109015714Y-104300374D01*
X108958571Y-104271803D01*
X108930000Y-104214660D01*
X108930000Y-103986088D01*
X108958571Y-103928946D01*
X109015714Y-103900374D01*
X109130000Y-103900374D01*
X109187142Y-103928946D01*
X109215714Y-103986088D01*
X109215714Y-104043231D01*
X108930000Y-104100374D01*
X109472857Y-104300374D02*
X109472857Y-103900374D01*
X109472857Y-104014660D02*
X109501428Y-103957517D01*
X109530000Y-103928946D01*
X109587142Y-103900374D01*
X109644285Y-103900374D01*
X109844285Y-104300374D02*
X109844285Y-103700374D01*
X109901428Y-104071803D02*
X110072857Y-104300374D01*
X110072857Y-103900374D02*
X109844285Y-104128946D01*
X110558571Y-104271803D02*
X110501428Y-104300374D01*
X110387142Y-104300374D01*
X110330000Y-104271803D01*
X110301428Y-104214660D01*
X110301428Y-103986088D01*
X110330000Y-103928946D01*
X110387142Y-103900374D01*
X110501428Y-103900374D01*
X110558571Y-103928946D01*
X110587142Y-103986088D01*
X110587142Y-104043231D01*
X110301428Y-104100374D01*
X110930000Y-104300374D02*
X110872857Y-104271803D01*
X110844285Y-104214660D01*
X110844285Y-103700374D01*
X111387142Y-104271803D02*
X111330000Y-104300374D01*
X111215714Y-104300374D01*
X111158571Y-104271803D01*
X111130000Y-104214660D01*
X111130000Y-103986088D01*
X111158571Y-103928946D01*
X111215714Y-103900374D01*
X111330000Y-103900374D01*
X111387142Y-103928946D01*
X111415714Y-103986088D01*
X111415714Y-104043231D01*
X111130000Y-104100374D01*
X111615714Y-103900374D02*
X111758571Y-104300374D01*
X111901428Y-103900374D02*
X111758571Y-104300374D01*
X111701428Y-104443231D01*
X111672857Y-104471803D01*
X111615714Y-104500374D01*
X112558571Y-104128946D02*
X112844285Y-104128946D01*
X112501428Y-104300374D02*
X112701428Y-103700374D01*
X112901428Y-104300374D01*
X113358571Y-103900374D02*
X113358571Y-104300374D01*
X113101428Y-103900374D02*
X113101428Y-104214660D01*
X113130000Y-104271803D01*
X113187142Y-104300374D01*
X113272857Y-104300374D01*
X113330000Y-104271803D01*
X113358571Y-104243231D01*
X113558571Y-103900374D02*
X113787142Y-103900374D01*
X113644285Y-103700374D02*
X113644285Y-104214660D01*
X113672857Y-104271803D01*
X113730000Y-104300374D01*
X113787142Y-104300374D01*
X114072857Y-104300374D02*
X114015714Y-104271803D01*
X113987142Y-104243231D01*
X113958571Y-104186088D01*
X113958571Y-104014660D01*
X113987142Y-103957517D01*
X114015714Y-103928946D01*
X114072857Y-103900374D01*
X114158571Y-103900374D01*
X114215714Y-103928946D01*
X114244285Y-103957517D01*
X114272857Y-104014660D01*
X114272857Y-104186088D01*
X114244285Y-104243231D01*
X114215714Y-104271803D01*
X114158571Y-104300374D01*
X114072857Y-104300374D01*
X114530000Y-103900374D02*
X114530000Y-104300374D01*
X114530000Y-103957517D02*
X114558571Y-103928946D01*
X114615714Y-103900374D01*
X114701428Y-103900374D01*
X114758571Y-103928946D01*
X114787142Y-103986088D01*
X114787142Y-104300374D01*
X115158571Y-104300374D02*
X115101428Y-104271803D01*
X115072857Y-104243231D01*
X115044285Y-104186088D01*
X115044285Y-104014660D01*
X115072857Y-103957517D01*
X115101428Y-103928946D01*
X115158571Y-103900374D01*
X115244285Y-103900374D01*
X115301428Y-103928946D01*
X115330000Y-103957517D01*
X115358571Y-104014660D01*
X115358571Y-104186088D01*
X115330000Y-104243231D01*
X115301428Y-104271803D01*
X115244285Y-104300374D01*
X115158571Y-104300374D01*
X115615714Y-104300374D02*
X115615714Y-103900374D01*
X115615714Y-103957517D02*
X115644285Y-103928946D01*
X115701428Y-103900374D01*
X115787142Y-103900374D01*
X115844285Y-103928946D01*
X115872857Y-103986088D01*
X115872857Y-104300374D01*
X115872857Y-103986088D02*
X115901428Y-103928946D01*
X115958571Y-103900374D01*
X116044285Y-103900374D01*
X116101428Y-103928946D01*
X116130000Y-103986088D01*
X116130000Y-104300374D01*
X116501428Y-104300374D02*
X116444285Y-104271803D01*
X116415714Y-104243231D01*
X116387142Y-104186088D01*
X116387142Y-104014660D01*
X116415714Y-103957517D01*
X116444285Y-103928946D01*
X116501428Y-103900374D01*
X116587142Y-103900374D01*
X116644285Y-103928946D01*
X116672857Y-103957517D01*
X116701428Y-104014660D01*
X116701428Y-104186088D01*
X116672857Y-104243231D01*
X116644285Y-104271803D01*
X116587142Y-104300374D01*
X116501428Y-104300374D01*
X117215714Y-103900374D02*
X117215714Y-104300374D01*
X116958571Y-103900374D02*
X116958571Y-104214660D01*
X116987142Y-104271803D01*
X117044285Y-104300374D01*
X117130000Y-104300374D01*
X117187142Y-104271803D01*
X117215714Y-104243231D01*
X117472857Y-104271803D02*
X117530000Y-104300374D01*
X117644285Y-104300374D01*
X117701428Y-104271803D01*
X117730000Y-104214660D01*
X117730000Y-104186088D01*
X117701428Y-104128946D01*
X117644285Y-104100374D01*
X117558571Y-104100374D01*
X117501428Y-104071803D01*
X117472857Y-104014660D01*
X117472857Y-103986088D01*
X117501428Y-103928946D01*
X117558571Y-103900374D01*
X117644285Y-103900374D01*
X117701428Y-103928946D01*
X109172857Y-105266374D02*
X109172857Y-104666374D01*
X109372857Y-105094946D01*
X109572857Y-104666374D01*
X109572857Y-105266374D01*
X109858571Y-105266374D02*
X109858571Y-104866374D01*
X109858571Y-104666374D02*
X109830000Y-104694946D01*
X109858571Y-104723517D01*
X109887142Y-104694946D01*
X109858571Y-104666374D01*
X109858571Y-104723517D01*
X110401428Y-105237803D02*
X110344285Y-105266374D01*
X110230000Y-105266374D01*
X110172857Y-105237803D01*
X110144285Y-105209231D01*
X110115714Y-105152088D01*
X110115714Y-104980660D01*
X110144285Y-104923517D01*
X110172857Y-104894946D01*
X110230000Y-104866374D01*
X110344285Y-104866374D01*
X110401428Y-104894946D01*
X110658571Y-105266374D02*
X110658571Y-104866374D01*
X110658571Y-104980660D02*
X110687142Y-104923517D01*
X110715714Y-104894946D01*
X110772857Y-104866374D01*
X110830000Y-104866374D01*
X111115714Y-105266374D02*
X111058571Y-105237803D01*
X111030000Y-105209231D01*
X111001428Y-105152088D01*
X111001428Y-104980660D01*
X111030000Y-104923517D01*
X111058571Y-104894946D01*
X111115714Y-104866374D01*
X111201428Y-104866374D01*
X111258571Y-104894946D01*
X111287142Y-104923517D01*
X111315714Y-104980660D01*
X111315714Y-105152088D01*
X111287142Y-105209231D01*
X111258571Y-105237803D01*
X111201428Y-105266374D01*
X111115714Y-105266374D01*
X111544285Y-105237803D02*
X111601428Y-105266374D01*
X111715714Y-105266374D01*
X111772857Y-105237803D01*
X111801428Y-105180660D01*
X111801428Y-105152088D01*
X111772857Y-105094946D01*
X111715714Y-105066374D01*
X111630000Y-105066374D01*
X111572857Y-105037803D01*
X111544285Y-104980660D01*
X111544285Y-104952088D01*
X111572857Y-104894946D01*
X111630000Y-104866374D01*
X111715714Y-104866374D01*
X111772857Y-104894946D01*
X112001428Y-104866374D02*
X112144285Y-105266374D01*
X112287142Y-104866374D02*
X112144285Y-105266374D01*
X112087142Y-105409231D01*
X112058571Y-105437803D01*
X112001428Y-105466374D01*
X112487142Y-105237803D02*
X112544285Y-105266374D01*
X112658571Y-105266374D01*
X112715714Y-105237803D01*
X112744285Y-105180660D01*
X112744285Y-105152088D01*
X112715714Y-105094946D01*
X112658571Y-105066374D01*
X112572857Y-105066374D01*
X112515714Y-105037803D01*
X112487142Y-104980660D01*
X112487142Y-104952088D01*
X112515714Y-104894946D01*
X112572857Y-104866374D01*
X112658571Y-104866374D01*
X112715714Y-104894946D01*
X112915714Y-104866374D02*
X113144285Y-104866374D01*
X113001428Y-104666374D02*
X113001428Y-105180660D01*
X113030000Y-105237803D01*
X113087142Y-105266374D01*
X113144285Y-105266374D01*
X113572857Y-105237803D02*
X113515714Y-105266374D01*
X113401428Y-105266374D01*
X113344285Y-105237803D01*
X113315714Y-105180660D01*
X113315714Y-104952088D01*
X113344285Y-104894946D01*
X113401428Y-104866374D01*
X113515714Y-104866374D01*
X113572857Y-104894946D01*
X113601428Y-104952088D01*
X113601428Y-105009231D01*
X113315714Y-105066374D01*
X113858571Y-105266374D02*
X113858571Y-104866374D01*
X113858571Y-104923517D02*
X113887142Y-104894946D01*
X113944285Y-104866374D01*
X114030000Y-104866374D01*
X114087142Y-104894946D01*
X114115714Y-104952088D01*
X114115714Y-105266374D01*
X114115714Y-104952088D02*
X114144285Y-104894946D01*
X114201428Y-104866374D01*
X114287142Y-104866374D01*
X114344285Y-104894946D01*
X114372857Y-104952088D01*
X114372857Y-105266374D01*
X114630000Y-105237803D02*
X114687142Y-105266374D01*
X114801428Y-105266374D01*
X114858571Y-105237803D01*
X114887142Y-105180660D01*
X114887142Y-105152088D01*
X114858571Y-105094946D01*
X114801428Y-105066374D01*
X114715714Y-105066374D01*
X114658571Y-105037803D01*
X114630000Y-104980660D01*
X114630000Y-104952088D01*
X114658571Y-104894946D01*
X114715714Y-104866374D01*
X114801428Y-104866374D01*
X114858571Y-104894946D01*
X115887142Y-105266374D02*
X115601428Y-105266374D01*
X115601428Y-104666374D01*
X116344285Y-105266374D02*
X116344285Y-104952088D01*
X116315714Y-104894946D01*
X116258571Y-104866374D01*
X116144285Y-104866374D01*
X116087142Y-104894946D01*
X116344285Y-105237803D02*
X116287142Y-105266374D01*
X116144285Y-105266374D01*
X116087142Y-105237803D01*
X116058571Y-105180660D01*
X116058571Y-105123517D01*
X116087142Y-105066374D01*
X116144285Y-105037803D01*
X116287142Y-105037803D01*
X116344285Y-105009231D01*
X116630000Y-105266374D02*
X116630000Y-104666374D01*
X116630000Y-104894946D02*
X116687142Y-104866374D01*
X116801428Y-104866374D01*
X116858571Y-104894946D01*
X116887142Y-104923517D01*
X116915714Y-104980660D01*
X116915714Y-105152088D01*
X116887142Y-105209231D01*
X116858571Y-105237803D01*
X116801428Y-105266374D01*
X116687142Y-105266374D01*
X116630000Y-105237803D01*
D10*
X86614047Y-58805000D02*
X86566428Y-58781190D01*
X86495000Y-58781190D01*
X86423571Y-58805000D01*
X86375952Y-58852619D01*
X86352142Y-58900238D01*
X86328333Y-58995476D01*
X86328333Y-59066904D01*
X86352142Y-59162142D01*
X86375952Y-59209761D01*
X86423571Y-59257380D01*
X86495000Y-59281190D01*
X86542619Y-59281190D01*
X86614047Y-59257380D01*
X86637857Y-59233571D01*
X86637857Y-59066904D01*
X86542619Y-59066904D01*
X86852142Y-59281190D02*
X86852142Y-58781190D01*
X87137857Y-59281190D01*
X87137857Y-58781190D01*
X87375952Y-59281190D02*
X87375952Y-58781190D01*
X87495000Y-58781190D01*
X87566428Y-58805000D01*
X87614047Y-58852619D01*
X87637857Y-58900238D01*
X87661666Y-58995476D01*
X87661666Y-59066904D01*
X87637857Y-59162142D01*
X87614047Y-59209761D01*
X87566428Y-59257380D01*
X87495000Y-59281190D01*
X87375952Y-59281190D01*
X101314380Y-58781190D02*
X101481047Y-59281190D01*
X101647714Y-58781190D01*
X101814380Y-59281190D02*
X101814380Y-58781190D01*
X101933428Y-58781190D01*
X102004857Y-58805000D01*
X102052476Y-58852619D01*
X102076285Y-58900238D01*
X102100095Y-58995476D01*
X102100095Y-59066904D01*
X102076285Y-59162142D01*
X102052476Y-59209761D01*
X102004857Y-59257380D01*
X101933428Y-59281190D01*
X101814380Y-59281190D01*
X102314380Y-59281190D02*
X102314380Y-58781190D01*
X102433428Y-58781190D01*
X102504857Y-58805000D01*
X102552476Y-58852619D01*
X102576285Y-58900238D01*
X102600095Y-58995476D01*
X102600095Y-59066904D01*
X102576285Y-59162142D01*
X102552476Y-59209761D01*
X102504857Y-59257380D01*
X102433428Y-59281190D01*
X102314380Y-59281190D01*
X102814380Y-59281190D02*
X102814380Y-58781190D01*
X103147714Y-58781190D02*
X103242952Y-58781190D01*
X103290571Y-58805000D01*
X103338190Y-58852619D01*
X103362000Y-58947857D01*
X103362000Y-59114523D01*
X103338190Y-59209761D01*
X103290571Y-59257380D01*
X103242952Y-59281190D01*
X103147714Y-59281190D01*
X103100095Y-59257380D01*
X103052476Y-59209761D01*
X103028666Y-59114523D01*
X103028666Y-58947857D01*
X103052476Y-58852619D01*
X103100095Y-58805000D01*
X103147714Y-58781190D01*
X102596190Y-86010761D02*
X102596190Y-86106000D01*
X102620000Y-86153619D01*
X102643809Y-86177428D01*
X102715238Y-86225047D01*
X102810476Y-86248857D01*
X103000952Y-86248857D01*
X103048571Y-86225047D01*
X103072380Y-86201238D01*
X103096190Y-86153619D01*
X103096190Y-86058380D01*
X103072380Y-86010761D01*
X103048571Y-85986952D01*
X103000952Y-85963142D01*
X102881904Y-85963142D01*
X102834285Y-85986952D01*
X102810476Y-86010761D01*
X102786666Y-86058380D01*
X102786666Y-86153619D01*
X102810476Y-86201238D01*
X102834285Y-86225047D01*
X102881904Y-86248857D01*
X91285333Y-58781190D02*
X91452000Y-59281190D01*
X91618666Y-58781190D01*
X91785333Y-59281190D02*
X91785333Y-58781190D01*
X91904380Y-58781190D01*
X91975809Y-58805000D01*
X92023428Y-58852619D01*
X92047238Y-58900238D01*
X92071047Y-58995476D01*
X92071047Y-59066904D01*
X92047238Y-59162142D01*
X92023428Y-59209761D01*
X91975809Y-59257380D01*
X91904380Y-59281190D01*
X91785333Y-59281190D01*
X92285333Y-59281190D02*
X92285333Y-58781190D01*
X92404380Y-58781190D01*
X92475809Y-58805000D01*
X92523428Y-58852619D01*
X92547238Y-58900238D01*
X92571047Y-58995476D01*
X92571047Y-59066904D01*
X92547238Y-59162142D01*
X92523428Y-59209761D01*
X92475809Y-59257380D01*
X92404380Y-59281190D01*
X92285333Y-59281190D01*
X92785333Y-59281190D02*
X92785333Y-58781190D01*
X92904380Y-58781190D01*
X92975809Y-58805000D01*
X93023428Y-58852619D01*
X93047238Y-58900238D01*
X93071047Y-58995476D01*
X93071047Y-59066904D01*
X93047238Y-59162142D01*
X93023428Y-59209761D01*
X92975809Y-59257380D01*
X92904380Y-59281190D01*
X92785333Y-59281190D01*
X93488047Y-59019285D02*
X93654714Y-59019285D01*
X93726142Y-59281190D02*
X93488047Y-59281190D01*
X93488047Y-58781190D01*
X93726142Y-58781190D01*
X93892809Y-58781190D02*
X94226142Y-59281190D01*
X94226142Y-58781190D02*
X93892809Y-59281190D01*
X94345190Y-58781190D02*
X94630904Y-58781190D01*
X94488047Y-59281190D02*
X94488047Y-58781190D01*
X94678523Y-59328809D02*
X95059476Y-59328809D01*
X95345190Y-59019285D02*
X95416619Y-59043095D01*
X95440428Y-59066904D01*
X95464238Y-59114523D01*
X95464238Y-59185952D01*
X95440428Y-59233571D01*
X95416619Y-59257380D01*
X95369000Y-59281190D01*
X95178523Y-59281190D01*
X95178523Y-58781190D01*
X95345190Y-58781190D01*
X95392809Y-58805000D01*
X95416619Y-58828809D01*
X95440428Y-58876428D01*
X95440428Y-58924047D01*
X95416619Y-58971666D01*
X95392809Y-58995476D01*
X95345190Y-59019285D01*
X95178523Y-59019285D01*
X95654714Y-59138333D02*
X95892809Y-59138333D01*
X95607095Y-59281190D02*
X95773761Y-58781190D01*
X95940428Y-59281190D01*
X96035666Y-58781190D02*
X96321380Y-58781190D01*
X96178523Y-59281190D02*
X96178523Y-58781190D01*
D14*
X77398571Y-106807047D02*
X77398571Y-107568952D01*
D10*
X98016190Y-79851238D02*
X98016190Y-80136952D01*
X98016190Y-79994095D02*
X97516190Y-79994095D01*
X97587619Y-80041714D01*
X97635238Y-80089333D01*
X97659047Y-80136952D01*
X97563809Y-79660761D02*
X97540000Y-79636952D01*
X97516190Y-79589333D01*
X97516190Y-79470285D01*
X97540000Y-79422666D01*
X97563809Y-79398857D01*
X97611428Y-79375047D01*
X97659047Y-79375047D01*
X97730476Y-79398857D01*
X98016190Y-79684571D01*
X98016190Y-79375047D01*
X84709047Y-85856000D02*
X84661428Y-85832190D01*
X84590000Y-85832190D01*
X84518571Y-85856000D01*
X84470952Y-85903619D01*
X84447142Y-85951238D01*
X84423333Y-86046476D01*
X84423333Y-86117904D01*
X84447142Y-86213142D01*
X84470952Y-86260761D01*
X84518571Y-86308380D01*
X84590000Y-86332190D01*
X84637619Y-86332190D01*
X84709047Y-86308380D01*
X84732857Y-86284571D01*
X84732857Y-86117904D01*
X84637619Y-86117904D01*
X84947142Y-86332190D02*
X84947142Y-85832190D01*
X85232857Y-86332190D01*
X85232857Y-85832190D01*
X85470952Y-86332190D02*
X85470952Y-85832190D01*
X85590000Y-85832190D01*
X85661428Y-85856000D01*
X85709047Y-85903619D01*
X85732857Y-85951238D01*
X85756666Y-86046476D01*
X85756666Y-86117904D01*
X85732857Y-86213142D01*
X85709047Y-86260761D01*
X85661428Y-86308380D01*
X85590000Y-86332190D01*
X85470952Y-86332190D01*
X87570476Y-79803619D02*
X87546666Y-79851238D01*
X87522857Y-79875047D01*
X87475238Y-79898857D01*
X87451428Y-79898857D01*
X87403809Y-79875047D01*
X87380000Y-79851238D01*
X87356190Y-79803619D01*
X87356190Y-79708380D01*
X87380000Y-79660761D01*
X87403809Y-79636952D01*
X87451428Y-79613142D01*
X87475238Y-79613142D01*
X87522857Y-79636952D01*
X87546666Y-79660761D01*
X87570476Y-79708380D01*
X87570476Y-79803619D01*
X87594285Y-79851238D01*
X87618095Y-79875047D01*
X87665714Y-79898857D01*
X87760952Y-79898857D01*
X87808571Y-79875047D01*
X87832380Y-79851238D01*
X87856190Y-79803619D01*
X87856190Y-79708380D01*
X87832380Y-79660761D01*
X87808571Y-79636952D01*
X87760952Y-79613142D01*
X87665714Y-79613142D01*
X87618095Y-79636952D01*
X87594285Y-79660761D01*
X87570476Y-79708380D01*
X86693428Y-52296190D02*
X86407714Y-52296190D01*
X86550571Y-52296190D02*
X86550571Y-51796190D01*
X86502952Y-51867619D01*
X86455333Y-51915238D01*
X86407714Y-51939047D01*
X86907714Y-52248571D02*
X86931523Y-52272380D01*
X86907714Y-52296190D01*
X86883904Y-52272380D01*
X86907714Y-52248571D01*
X86907714Y-52296190D01*
X87217238Y-52010476D02*
X87169619Y-51986666D01*
X87145809Y-51962857D01*
X87122000Y-51915238D01*
X87122000Y-51891428D01*
X87145809Y-51843809D01*
X87169619Y-51820000D01*
X87217238Y-51796190D01*
X87312476Y-51796190D01*
X87360095Y-51820000D01*
X87383904Y-51843809D01*
X87407714Y-51891428D01*
X87407714Y-51915238D01*
X87383904Y-51962857D01*
X87360095Y-51986666D01*
X87312476Y-52010476D01*
X87217238Y-52010476D01*
X87169619Y-52034285D01*
X87145809Y-52058095D01*
X87122000Y-52105714D01*
X87122000Y-52200952D01*
X87145809Y-52248571D01*
X87169619Y-52272380D01*
X87217238Y-52296190D01*
X87312476Y-52296190D01*
X87360095Y-52272380D01*
X87383904Y-52248571D01*
X87407714Y-52200952D01*
X87407714Y-52105714D01*
X87383904Y-52058095D01*
X87360095Y-52034285D01*
X87312476Y-52010476D01*
X87550571Y-51796190D02*
X87717238Y-52296190D01*
X87883904Y-51796190D01*
X116653523Y-80617190D02*
X116486857Y-80379095D01*
X116367809Y-80617190D02*
X116367809Y-80117190D01*
X116558285Y-80117190D01*
X116605904Y-80141000D01*
X116629714Y-80164809D01*
X116653523Y-80212428D01*
X116653523Y-80283857D01*
X116629714Y-80331476D01*
X116605904Y-80355285D01*
X116558285Y-80379095D01*
X116367809Y-80379095D01*
X116844000Y-80593380D02*
X116891619Y-80617190D01*
X116986857Y-80617190D01*
X117034476Y-80593380D01*
X117058285Y-80545761D01*
X117058285Y-80521952D01*
X117034476Y-80474333D01*
X116986857Y-80450523D01*
X116915428Y-80450523D01*
X116867809Y-80426714D01*
X116844000Y-80379095D01*
X116844000Y-80355285D01*
X116867809Y-80307666D01*
X116915428Y-80283857D01*
X116986857Y-80283857D01*
X117034476Y-80307666D01*
X117201142Y-80117190D02*
X117486857Y-80117190D01*
X117344000Y-80617190D02*
X117344000Y-80117190D01*
X117605904Y-80617190D02*
X117867809Y-80283857D01*
X117605904Y-80283857D02*
X117867809Y-80617190D01*
X104533476Y-108176190D02*
X104533476Y-107676190D01*
X104771571Y-108176190D02*
X104771571Y-107676190D01*
X105057285Y-108176190D01*
X105057285Y-107676190D01*
X105557285Y-108176190D02*
X105271571Y-108176190D01*
X105414428Y-108176190D02*
X105414428Y-107676190D01*
X105366809Y-107747619D01*
X105319190Y-107795238D01*
X105271571Y-107819047D01*
X105771571Y-107985714D02*
X106152523Y-107985714D01*
X105962047Y-108176190D02*
X105962047Y-107795238D01*
X88856904Y-107700000D02*
X88809285Y-107676190D01*
X88737857Y-107676190D01*
X88666428Y-107700000D01*
X88618809Y-107747619D01*
X88595000Y-107795238D01*
X88571190Y-107890476D01*
X88571190Y-107961904D01*
X88595000Y-108057142D01*
X88618809Y-108104761D01*
X88666428Y-108152380D01*
X88737857Y-108176190D01*
X88785476Y-108176190D01*
X88856904Y-108152380D01*
X88880714Y-108128571D01*
X88880714Y-107961904D01*
X88785476Y-107961904D01*
X89095000Y-108176190D02*
X89095000Y-107676190D01*
X89285476Y-107676190D01*
X89333095Y-107700000D01*
X89356904Y-107723809D01*
X89380714Y-107771428D01*
X89380714Y-107842857D01*
X89356904Y-107890476D01*
X89333095Y-107914285D01*
X89285476Y-107938095D01*
X89095000Y-107938095D01*
X89595000Y-108176190D02*
X89595000Y-107676190D01*
X89928333Y-107676190D02*
X90023571Y-107676190D01*
X90071190Y-107700000D01*
X90118809Y-107747619D01*
X90142619Y-107842857D01*
X90142619Y-108009523D01*
X90118809Y-108104761D01*
X90071190Y-108152380D01*
X90023571Y-108176190D01*
X89928333Y-108176190D01*
X89880714Y-108152380D01*
X89833095Y-108104761D01*
X89809285Y-108009523D01*
X89809285Y-107842857D01*
X89833095Y-107747619D01*
X89880714Y-107700000D01*
X89928333Y-107676190D01*
X90333095Y-107723809D02*
X90356904Y-107700000D01*
X90404523Y-107676190D01*
X90523571Y-107676190D01*
X90571190Y-107700000D01*
X90595000Y-107723809D01*
X90618809Y-107771428D01*
X90618809Y-107819047D01*
X90595000Y-107890476D01*
X90309285Y-108176190D01*
X90618809Y-108176190D01*
D13*
X106727714Y-51719428D02*
X106784857Y-51738476D01*
X106803904Y-51757523D01*
X106822952Y-51795619D01*
X106822952Y-51852761D01*
X106803904Y-51890857D01*
X106784857Y-51909904D01*
X106746761Y-51928952D01*
X106594380Y-51928952D01*
X106594380Y-51528952D01*
X106727714Y-51528952D01*
X106765809Y-51548000D01*
X106784857Y-51567047D01*
X106803904Y-51605142D01*
X106803904Y-51643238D01*
X106784857Y-51681333D01*
X106765809Y-51700380D01*
X106727714Y-51719428D01*
X106594380Y-51719428D01*
X106937238Y-51528952D02*
X107165809Y-51528952D01*
X107051523Y-51928952D02*
X107051523Y-51528952D01*
X107280095Y-51909904D02*
X107337238Y-51928952D01*
X107432476Y-51928952D01*
X107470571Y-51909904D01*
X107489619Y-51890857D01*
X107508666Y-51852761D01*
X107508666Y-51814666D01*
X107489619Y-51776571D01*
X107470571Y-51757523D01*
X107432476Y-51738476D01*
X107356285Y-51719428D01*
X107318190Y-51700380D01*
X107299142Y-51681333D01*
X107280095Y-51643238D01*
X107280095Y-51605142D01*
X107299142Y-51567047D01*
X107318190Y-51548000D01*
X107356285Y-51528952D01*
X107451523Y-51528952D01*
X107508666Y-51548000D01*
X107908666Y-51928952D02*
X107775333Y-51738476D01*
X107680095Y-51928952D02*
X107680095Y-51528952D01*
X107832476Y-51528952D01*
X107870571Y-51548000D01*
X107889619Y-51567047D01*
X107908666Y-51605142D01*
X107908666Y-51662285D01*
X107889619Y-51700380D01*
X107870571Y-51719428D01*
X107832476Y-51738476D01*
X107680095Y-51738476D01*
X108308666Y-51890857D02*
X108289619Y-51909904D01*
X108232476Y-51928952D01*
X108194380Y-51928952D01*
X108137238Y-51909904D01*
X108099142Y-51871809D01*
X108080095Y-51833714D01*
X108061047Y-51757523D01*
X108061047Y-51700380D01*
X108080095Y-51624190D01*
X108099142Y-51586095D01*
X108137238Y-51548000D01*
X108194380Y-51528952D01*
X108232476Y-51528952D01*
X108289619Y-51548000D01*
X108308666Y-51567047D01*
X106984857Y-52553904D02*
X107042000Y-52572952D01*
X107137238Y-52572952D01*
X107175333Y-52553904D01*
X107194380Y-52534857D01*
X107213428Y-52496761D01*
X107213428Y-52458666D01*
X107194380Y-52420571D01*
X107175333Y-52401523D01*
X107137238Y-52382476D01*
X107061047Y-52363428D01*
X107022952Y-52344380D01*
X107003904Y-52325333D01*
X106984857Y-52287238D01*
X106984857Y-52249142D01*
X107003904Y-52211047D01*
X107022952Y-52192000D01*
X107061047Y-52172952D01*
X107156285Y-52172952D01*
X107213428Y-52192000D01*
X107384857Y-52363428D02*
X107518190Y-52363428D01*
X107575333Y-52572952D02*
X107384857Y-52572952D01*
X107384857Y-52172952D01*
X107575333Y-52172952D01*
X107937238Y-52572952D02*
X107746761Y-52572952D01*
X107746761Y-52172952D01*
D10*
X92936190Y-79851238D02*
X92936190Y-80136952D01*
X92936190Y-79994095D02*
X92436190Y-79994095D01*
X92507619Y-80041714D01*
X92555238Y-80089333D01*
X92579047Y-80136952D01*
X92436190Y-79541714D02*
X92436190Y-79494095D01*
X92460000Y-79446476D01*
X92483809Y-79422666D01*
X92531428Y-79398857D01*
X92626666Y-79375047D01*
X92745714Y-79375047D01*
X92840952Y-79398857D01*
X92888571Y-79422666D01*
X92912380Y-79446476D01*
X92936190Y-79494095D01*
X92936190Y-79541714D01*
X92912380Y-79589333D01*
X92888571Y-79613142D01*
X92840952Y-79636952D01*
X92745714Y-79660761D01*
X92626666Y-79660761D01*
X92531428Y-79636952D01*
X92483809Y-79613142D01*
X92460000Y-79589333D01*
X92436190Y-79541714D01*
X90396190Y-79851238D02*
X90396190Y-79756000D01*
X90372380Y-79708380D01*
X90348571Y-79684571D01*
X90277142Y-79636952D01*
X90181904Y-79613142D01*
X89991428Y-79613142D01*
X89943809Y-79636952D01*
X89920000Y-79660761D01*
X89896190Y-79708380D01*
X89896190Y-79803619D01*
X89920000Y-79851238D01*
X89943809Y-79875047D01*
X89991428Y-79898857D01*
X90110476Y-79898857D01*
X90158095Y-79875047D01*
X90181904Y-79851238D01*
X90205714Y-79803619D01*
X90205714Y-79708380D01*
X90181904Y-79660761D01*
X90158095Y-79636952D01*
X90110476Y-79613142D01*
X101814380Y-51766690D02*
X101814380Y-51266690D01*
X102052476Y-51766690D02*
X102052476Y-51266690D01*
X102219142Y-51623833D01*
X102385809Y-51266690D01*
X102385809Y-51766690D01*
X102623904Y-51266690D02*
X102623904Y-51671452D01*
X102647714Y-51719071D01*
X102671523Y-51742880D01*
X102719142Y-51766690D01*
X102814380Y-51766690D01*
X102862000Y-51742880D01*
X102885809Y-51719071D01*
X102909619Y-51671452D01*
X102909619Y-51266690D01*
X101695333Y-52071690D02*
X101862000Y-52571690D01*
X102028666Y-52071690D01*
X102195333Y-52571690D02*
X102195333Y-52071690D01*
X102314380Y-52071690D01*
X102385809Y-52095500D01*
X102433428Y-52143119D01*
X102457238Y-52190738D01*
X102481047Y-52285976D01*
X102481047Y-52357404D01*
X102457238Y-52452642D01*
X102433428Y-52500261D01*
X102385809Y-52547880D01*
X102314380Y-52571690D01*
X102195333Y-52571690D01*
X102695333Y-52571690D02*
X102695333Y-52071690D01*
X102814380Y-52071690D01*
X102885809Y-52095500D01*
X102933428Y-52143119D01*
X102957238Y-52190738D01*
X102981047Y-52285976D01*
X102981047Y-52357404D01*
X102957238Y-52452642D01*
X102933428Y-52500261D01*
X102885809Y-52547880D01*
X102814380Y-52571690D01*
X102695333Y-52571690D01*
X88967571Y-58781190D02*
X89134238Y-59281190D01*
X89300904Y-58781190D01*
X89634238Y-59019285D02*
X89705666Y-59043095D01*
X89729476Y-59066904D01*
X89753285Y-59114523D01*
X89753285Y-59185952D01*
X89729476Y-59233571D01*
X89705666Y-59257380D01*
X89658047Y-59281190D01*
X89467571Y-59281190D01*
X89467571Y-58781190D01*
X89634238Y-58781190D01*
X89681857Y-58805000D01*
X89705666Y-58828809D01*
X89729476Y-58876428D01*
X89729476Y-58924047D01*
X89705666Y-58971666D01*
X89681857Y-58995476D01*
X89634238Y-59019285D01*
X89467571Y-59019285D01*
X89943761Y-59138333D02*
X90181857Y-59138333D01*
X89896142Y-59281190D02*
X90062809Y-58781190D01*
X90229476Y-59281190D01*
X90324714Y-58781190D02*
X90610428Y-58781190D01*
X90467571Y-59281190D02*
X90467571Y-58781190D01*
X116713047Y-72521000D02*
X116665428Y-72497190D01*
X116594000Y-72497190D01*
X116522571Y-72521000D01*
X116474952Y-72568619D01*
X116451142Y-72616238D01*
X116427333Y-72711476D01*
X116427333Y-72782904D01*
X116451142Y-72878142D01*
X116474952Y-72925761D01*
X116522571Y-72973380D01*
X116594000Y-72997190D01*
X116641619Y-72997190D01*
X116713047Y-72973380D01*
X116736857Y-72949571D01*
X116736857Y-72782904D01*
X116641619Y-72782904D01*
X116951142Y-72997190D02*
X116951142Y-72497190D01*
X117236857Y-72997190D01*
X117236857Y-72497190D01*
X117474952Y-72997190D02*
X117474952Y-72497190D01*
X117594000Y-72497190D01*
X117665428Y-72521000D01*
X117713047Y-72568619D01*
X117736857Y-72616238D01*
X117760666Y-72711476D01*
X117760666Y-72782904D01*
X117736857Y-72878142D01*
X117713047Y-72925761D01*
X117665428Y-72973380D01*
X117594000Y-72997190D01*
X117474952Y-72997190D01*
X99199476Y-114526190D02*
X99199476Y-114026190D01*
X99437571Y-114526190D02*
X99437571Y-114026190D01*
X99723285Y-114526190D01*
X99723285Y-114026190D01*
X99913761Y-114026190D02*
X100223285Y-114026190D01*
X100056619Y-114216666D01*
X100128047Y-114216666D01*
X100175666Y-114240476D01*
X100199476Y-114264285D01*
X100223285Y-114311904D01*
X100223285Y-114430952D01*
X100199476Y-114478571D01*
X100175666Y-114502380D01*
X100128047Y-114526190D01*
X99985190Y-114526190D01*
X99937571Y-114502380D01*
X99913761Y-114478571D01*
X100437571Y-114335714D02*
X100818523Y-114335714D01*
X116486857Y-62434690D02*
X116486857Y-61934690D01*
X116772571Y-62434690D01*
X116772571Y-61934690D01*
X117296380Y-62434690D02*
X117129714Y-62196595D01*
X117010666Y-62434690D02*
X117010666Y-61934690D01*
X117201142Y-61934690D01*
X117248761Y-61958500D01*
X117272571Y-61982309D01*
X117296380Y-62029928D01*
X117296380Y-62101357D01*
X117272571Y-62148976D01*
X117248761Y-62172785D01*
X117201142Y-62196595D01*
X117010666Y-62196595D01*
X117677333Y-62172785D02*
X117510666Y-62172785D01*
X117510666Y-62434690D02*
X117510666Y-61934690D01*
X117748761Y-61934690D01*
X116713047Y-62763500D02*
X116665428Y-62739690D01*
X116594000Y-62739690D01*
X116522571Y-62763500D01*
X116474952Y-62811119D01*
X116451142Y-62858738D01*
X116427333Y-62953976D01*
X116427333Y-63025404D01*
X116451142Y-63120642D01*
X116474952Y-63168261D01*
X116522571Y-63215880D01*
X116594000Y-63239690D01*
X116641619Y-63239690D01*
X116713047Y-63215880D01*
X116736857Y-63192071D01*
X116736857Y-63025404D01*
X116641619Y-63025404D01*
X116951142Y-63239690D02*
X116951142Y-62739690D01*
X117236857Y-63239690D01*
X117236857Y-62739690D01*
X117474952Y-63239690D02*
X117474952Y-62739690D01*
X117594000Y-62739690D01*
X117665428Y-62763500D01*
X117713047Y-62811119D01*
X117736857Y-62858738D01*
X117760666Y-62953976D01*
X117760666Y-63025404D01*
X117736857Y-63120642D01*
X117713047Y-63168261D01*
X117665428Y-63215880D01*
X117594000Y-63239690D01*
X117474952Y-63239690D01*
X104080571Y-58781190D02*
X104247238Y-59281190D01*
X104413904Y-58781190D01*
X104747238Y-59019285D02*
X104818666Y-59043095D01*
X104842476Y-59066904D01*
X104866285Y-59114523D01*
X104866285Y-59185952D01*
X104842476Y-59233571D01*
X104818666Y-59257380D01*
X104771047Y-59281190D01*
X104580571Y-59281190D01*
X104580571Y-58781190D01*
X104747238Y-58781190D01*
X104794857Y-58805000D01*
X104818666Y-58828809D01*
X104842476Y-58876428D01*
X104842476Y-58924047D01*
X104818666Y-58971666D01*
X104794857Y-58995476D01*
X104747238Y-59019285D01*
X104580571Y-59019285D01*
X105056761Y-59138333D02*
X105294857Y-59138333D01*
X105009142Y-59281190D02*
X105175809Y-58781190D01*
X105342476Y-59281190D01*
X105437714Y-58781190D02*
X105723428Y-58781190D01*
X105580571Y-59281190D02*
X105580571Y-58781190D01*
X94976190Y-86272666D02*
X94976190Y-85963142D01*
X95166666Y-86129809D01*
X95166666Y-86058380D01*
X95190476Y-86010761D01*
X95214285Y-85986952D01*
X95261904Y-85963142D01*
X95380952Y-85963142D01*
X95428571Y-85986952D01*
X95452380Y-86010761D01*
X95476190Y-86058380D01*
X95476190Y-86201238D01*
X95452380Y-86248857D01*
X95428571Y-86272666D01*
X95476190Y-79851238D02*
X95476190Y-80136952D01*
X95476190Y-79994095D02*
X94976190Y-79994095D01*
X95047619Y-80041714D01*
X95095238Y-80089333D01*
X95119047Y-80136952D01*
X95476190Y-79375047D02*
X95476190Y-79660761D01*
X95476190Y-79517904D02*
X94976190Y-79517904D01*
X95047619Y-79565523D01*
X95095238Y-79613142D01*
X95119047Y-79660761D01*
X107569047Y-85856000D02*
X107521428Y-85832190D01*
X107450000Y-85832190D01*
X107378571Y-85856000D01*
X107330952Y-85903619D01*
X107307142Y-85951238D01*
X107283333Y-86046476D01*
X107283333Y-86117904D01*
X107307142Y-86213142D01*
X107330952Y-86260761D01*
X107378571Y-86308380D01*
X107450000Y-86332190D01*
X107497619Y-86332190D01*
X107569047Y-86308380D01*
X107592857Y-86284571D01*
X107592857Y-86117904D01*
X107497619Y-86117904D01*
X107807142Y-86332190D02*
X107807142Y-85832190D01*
X108092857Y-86332190D01*
X108092857Y-85832190D01*
X108330952Y-86332190D02*
X108330952Y-85832190D01*
X108450000Y-85832190D01*
X108521428Y-85856000D01*
X108569047Y-85903619D01*
X108592857Y-85951238D01*
X108616666Y-86046476D01*
X108616666Y-86117904D01*
X108592857Y-86213142D01*
X108569047Y-86260761D01*
X108521428Y-86308380D01*
X108450000Y-86332190D01*
X108330952Y-86332190D01*
X96155047Y-52034285D02*
X96321714Y-52034285D01*
X96393142Y-52296190D02*
X96155047Y-52296190D01*
X96155047Y-51796190D01*
X96393142Y-51796190D01*
X96559809Y-51796190D02*
X96893142Y-52296190D01*
X96893142Y-51796190D02*
X96559809Y-52296190D01*
X97012190Y-51796190D02*
X97297904Y-51796190D01*
X97155047Y-52296190D02*
X97155047Y-51796190D01*
X97345523Y-52343809D02*
X97726476Y-52343809D01*
X98012190Y-52034285D02*
X98083619Y-52058095D01*
X98107428Y-52081904D01*
X98131238Y-52129523D01*
X98131238Y-52200952D01*
X98107428Y-52248571D01*
X98083619Y-52272380D01*
X98036000Y-52296190D01*
X97845523Y-52296190D01*
X97845523Y-51796190D01*
X98012190Y-51796190D01*
X98059809Y-51820000D01*
X98083619Y-51843809D01*
X98107428Y-51891428D01*
X98107428Y-51939047D01*
X98083619Y-51986666D01*
X98059809Y-52010476D01*
X98012190Y-52034285D01*
X97845523Y-52034285D01*
X98321714Y-52153333D02*
X98559809Y-52153333D01*
X98274095Y-52296190D02*
X98440761Y-51796190D01*
X98607428Y-52296190D01*
X98702666Y-51796190D02*
X98988380Y-51796190D01*
X98845523Y-52296190D02*
X98845523Y-51796190D01*
D15*
X109558666Y-98860428D02*
X109558666Y-98618523D01*
X109703809Y-98908809D02*
X109195809Y-98739476D01*
X109703809Y-98570142D01*
X109703809Y-98400809D02*
X109195809Y-98400809D01*
X109195809Y-98279857D01*
X109220000Y-98207285D01*
X109268380Y-98158904D01*
X109316761Y-98134714D01*
X109413523Y-98110523D01*
X109486095Y-98110523D01*
X109582857Y-98134714D01*
X109631238Y-98158904D01*
X109679619Y-98207285D01*
X109703809Y-98279857D01*
X109703809Y-98400809D01*
X109679619Y-97917000D02*
X109703809Y-97844428D01*
X109703809Y-97723476D01*
X109679619Y-97675095D01*
X109655428Y-97650904D01*
X109607047Y-97626714D01*
X109558666Y-97626714D01*
X109510285Y-97650904D01*
X109486095Y-97675095D01*
X109461904Y-97723476D01*
X109437714Y-97820238D01*
X109413523Y-97868619D01*
X109389333Y-97892809D01*
X109340952Y-97917000D01*
X109292571Y-97917000D01*
X109244190Y-97892809D01*
X109220000Y-97868619D01*
X109195809Y-97820238D01*
X109195809Y-97699285D01*
X109220000Y-97626714D01*
X109752190Y-97529952D02*
X109752190Y-97142904D01*
X109703809Y-96731666D02*
X109461904Y-96901000D01*
X109703809Y-97021952D02*
X109195809Y-97021952D01*
X109195809Y-96828428D01*
X109220000Y-96780047D01*
X109244190Y-96755857D01*
X109292571Y-96731666D01*
X109365142Y-96731666D01*
X109413523Y-96755857D01*
X109437714Y-96780047D01*
X109461904Y-96828428D01*
X109461904Y-97021952D01*
X109437714Y-96513952D02*
X109437714Y-96344619D01*
X109703809Y-96272047D02*
X109703809Y-96513952D01*
X109195809Y-96513952D01*
X109195809Y-96272047D01*
X109679619Y-96078523D02*
X109703809Y-96005952D01*
X109703809Y-95885000D01*
X109679619Y-95836619D01*
X109655428Y-95812428D01*
X109607047Y-95788238D01*
X109558666Y-95788238D01*
X109510285Y-95812428D01*
X109486095Y-95836619D01*
X109461904Y-95885000D01*
X109437714Y-95981761D01*
X109413523Y-96030142D01*
X109389333Y-96054333D01*
X109340952Y-96078523D01*
X109292571Y-96078523D01*
X109244190Y-96054333D01*
X109220000Y-96030142D01*
X109195809Y-95981761D01*
X109195809Y-95860809D01*
X109220000Y-95788238D01*
X109437714Y-95570523D02*
X109437714Y-95401190D01*
X109703809Y-95328619D02*
X109703809Y-95570523D01*
X109195809Y-95570523D01*
X109195809Y-95328619D01*
X109195809Y-95183476D02*
X109195809Y-94893190D01*
X109703809Y-95038333D02*
X109195809Y-95038333D01*
X109558666Y-91409761D02*
X109558666Y-91167857D01*
X109703809Y-91458142D02*
X109195809Y-91288809D01*
X109703809Y-91119476D01*
X109703809Y-90950142D02*
X109195809Y-90950142D01*
X109195809Y-90829190D01*
X109220000Y-90756619D01*
X109268380Y-90708238D01*
X109316761Y-90684047D01*
X109413523Y-90659857D01*
X109486095Y-90659857D01*
X109582857Y-90684047D01*
X109631238Y-90708238D01*
X109679619Y-90756619D01*
X109703809Y-90829190D01*
X109703809Y-90950142D01*
X109679619Y-90466333D02*
X109703809Y-90393761D01*
X109703809Y-90272809D01*
X109679619Y-90224428D01*
X109655428Y-90200238D01*
X109607047Y-90176047D01*
X109558666Y-90176047D01*
X109510285Y-90200238D01*
X109486095Y-90224428D01*
X109461904Y-90272809D01*
X109437714Y-90369571D01*
X109413523Y-90417952D01*
X109389333Y-90442142D01*
X109340952Y-90466333D01*
X109292571Y-90466333D01*
X109244190Y-90442142D01*
X109220000Y-90417952D01*
X109195809Y-90369571D01*
X109195809Y-90248619D01*
X109220000Y-90176047D01*
X109752190Y-90079285D02*
X109752190Y-89692238D01*
X109703809Y-89571285D02*
X109195809Y-89571285D01*
X109195809Y-89377761D01*
X109220000Y-89329380D01*
X109244190Y-89305190D01*
X109292571Y-89281000D01*
X109365142Y-89281000D01*
X109413523Y-89305190D01*
X109437714Y-89329380D01*
X109461904Y-89377761D01*
X109461904Y-89571285D01*
X109195809Y-89111666D02*
X109703809Y-88990714D01*
X109340952Y-88893952D01*
X109703809Y-88797190D01*
X109195809Y-88676238D01*
X109703809Y-88482714D02*
X109195809Y-88482714D01*
X109195809Y-88361761D01*
X109220000Y-88289190D01*
X109268380Y-88240809D01*
X109316761Y-88216619D01*
X109413523Y-88192428D01*
X109486095Y-88192428D01*
X109582857Y-88216619D01*
X109631238Y-88240809D01*
X109679619Y-88289190D01*
X109703809Y-88361761D01*
X109703809Y-88482714D01*
X109703809Y-87974714D02*
X109195809Y-87974714D01*
X109703809Y-87684428D01*
X109195809Y-87684428D01*
D14*
X77398571Y-104394047D02*
X77398571Y-105155952D01*
X77017619Y-104775000D02*
X77779523Y-104775000D01*
D13*
X116408285Y-64755952D02*
X116408285Y-64355952D01*
X116408285Y-64546428D02*
X116636857Y-64546428D01*
X116636857Y-64755952D02*
X116636857Y-64355952D01*
X116808285Y-64641666D02*
X116998761Y-64641666D01*
X116770190Y-64755952D02*
X116903523Y-64355952D01*
X117036857Y-64755952D01*
X117398761Y-64755952D02*
X117265428Y-64565476D01*
X117170190Y-64755952D02*
X117170190Y-64355952D01*
X117322571Y-64355952D01*
X117360666Y-64375000D01*
X117379714Y-64394047D01*
X117398761Y-64432142D01*
X117398761Y-64489285D01*
X117379714Y-64527380D01*
X117360666Y-64546428D01*
X117322571Y-64565476D01*
X117170190Y-64565476D01*
X117570190Y-64755952D02*
X117570190Y-64355952D01*
X117665428Y-64355952D01*
X117722571Y-64375000D01*
X117760666Y-64413095D01*
X117779714Y-64451190D01*
X117798761Y-64527380D01*
X117798761Y-64584523D01*
X117779714Y-64660714D01*
X117760666Y-64698809D01*
X117722571Y-64736904D01*
X117665428Y-64755952D01*
X117570190Y-64755952D01*
X116513047Y-65399952D02*
X116379714Y-65209476D01*
X116284476Y-65399952D02*
X116284476Y-64999952D01*
X116436857Y-64999952D01*
X116474952Y-65019000D01*
X116494000Y-65038047D01*
X116513047Y-65076142D01*
X116513047Y-65133285D01*
X116494000Y-65171380D01*
X116474952Y-65190428D01*
X116436857Y-65209476D01*
X116284476Y-65209476D01*
X116684476Y-65190428D02*
X116817809Y-65190428D01*
X116874952Y-65399952D02*
X116684476Y-65399952D01*
X116684476Y-64999952D01*
X116874952Y-64999952D01*
X117027333Y-65380904D02*
X117084476Y-65399952D01*
X117179714Y-65399952D01*
X117217809Y-65380904D01*
X117236857Y-65361857D01*
X117255904Y-65323761D01*
X117255904Y-65285666D01*
X117236857Y-65247571D01*
X117217809Y-65228523D01*
X117179714Y-65209476D01*
X117103523Y-65190428D01*
X117065428Y-65171380D01*
X117046380Y-65152333D01*
X117027333Y-65114238D01*
X117027333Y-65076142D01*
X117046380Y-65038047D01*
X117065428Y-65019000D01*
X117103523Y-64999952D01*
X117198761Y-64999952D01*
X117255904Y-65019000D01*
X117427333Y-65190428D02*
X117560666Y-65190428D01*
X117617809Y-65399952D02*
X117427333Y-65399952D01*
X117427333Y-64999952D01*
X117617809Y-64999952D01*
X117732095Y-64999952D02*
X117960666Y-64999952D01*
X117846380Y-65399952D02*
X117846380Y-64999952D01*
D15*
%TO.C,C26*%
X82858428Y-91695571D02*
X82882619Y-91719761D01*
X82906809Y-91792333D01*
X82906809Y-91840714D01*
X82882619Y-91913285D01*
X82834238Y-91961666D01*
X82785857Y-91985857D01*
X82689095Y-92010047D01*
X82616523Y-92010047D01*
X82519761Y-91985857D01*
X82471380Y-91961666D01*
X82423000Y-91913285D01*
X82398809Y-91840714D01*
X82398809Y-91792333D01*
X82423000Y-91719761D01*
X82447190Y-91695571D01*
X82447190Y-91502047D02*
X82423000Y-91477857D01*
X82398809Y-91429476D01*
X82398809Y-91308523D01*
X82423000Y-91260142D01*
X82447190Y-91235952D01*
X82495571Y-91211761D01*
X82543952Y-91211761D01*
X82616523Y-91235952D01*
X82906809Y-91526238D01*
X82906809Y-91211761D01*
X82398809Y-90776333D02*
X82398809Y-90873095D01*
X82423000Y-90921476D01*
X82447190Y-90945666D01*
X82519761Y-90994047D01*
X82616523Y-91018238D01*
X82810047Y-91018238D01*
X82858428Y-90994047D01*
X82882619Y-90969857D01*
X82906809Y-90921476D01*
X82906809Y-90824714D01*
X82882619Y-90776333D01*
X82858428Y-90752142D01*
X82810047Y-90727952D01*
X82689095Y-90727952D01*
X82640714Y-90752142D01*
X82616523Y-90776333D01*
X82592333Y-90824714D01*
X82592333Y-90921476D01*
X82616523Y-90969857D01*
X82640714Y-90994047D01*
X82689095Y-91018238D01*
%TO.C,C23*%
X108512428Y-66874571D02*
X108536619Y-66898761D01*
X108560809Y-66971333D01*
X108560809Y-67019714D01*
X108536619Y-67092285D01*
X108488238Y-67140666D01*
X108439857Y-67164857D01*
X108343095Y-67189047D01*
X108270523Y-67189047D01*
X108173761Y-67164857D01*
X108125380Y-67140666D01*
X108077000Y-67092285D01*
X108052809Y-67019714D01*
X108052809Y-66971333D01*
X108077000Y-66898761D01*
X108101190Y-66874571D01*
X108101190Y-66681047D02*
X108077000Y-66656857D01*
X108052809Y-66608476D01*
X108052809Y-66487523D01*
X108077000Y-66439142D01*
X108101190Y-66414952D01*
X108149571Y-66390761D01*
X108197952Y-66390761D01*
X108270523Y-66414952D01*
X108560809Y-66705238D01*
X108560809Y-66390761D01*
X108052809Y-66221428D02*
X108052809Y-65906952D01*
X108246333Y-66076285D01*
X108246333Y-66003714D01*
X108270523Y-65955333D01*
X108294714Y-65931142D01*
X108343095Y-65906952D01*
X108464047Y-65906952D01*
X108512428Y-65931142D01*
X108536619Y-65955333D01*
X108560809Y-66003714D01*
X108560809Y-66148857D01*
X108536619Y-66197238D01*
X108512428Y-66221428D01*
%TO.C,J8*%
X98509666Y-86716809D02*
X98509666Y-87079666D01*
X98485476Y-87152238D01*
X98437095Y-87200619D01*
X98364523Y-87224809D01*
X98316142Y-87224809D01*
X98824142Y-86934523D02*
X98775761Y-86910333D01*
X98751571Y-86886142D01*
X98727380Y-86837761D01*
X98727380Y-86813571D01*
X98751571Y-86765190D01*
X98775761Y-86741000D01*
X98824142Y-86716809D01*
X98920904Y-86716809D01*
X98969285Y-86741000D01*
X98993476Y-86765190D01*
X99017666Y-86813571D01*
X99017666Y-86837761D01*
X98993476Y-86886142D01*
X98969285Y-86910333D01*
X98920904Y-86934523D01*
X98824142Y-86934523D01*
X98775761Y-86958714D01*
X98751571Y-86982904D01*
X98727380Y-87031285D01*
X98727380Y-87128047D01*
X98751571Y-87176428D01*
X98775761Y-87200619D01*
X98824142Y-87224809D01*
X98920904Y-87224809D01*
X98969285Y-87200619D01*
X98993476Y-87176428D01*
X99017666Y-87128047D01*
X99017666Y-87031285D01*
X98993476Y-86982904D01*
X98969285Y-86958714D01*
X98920904Y-86934523D01*
%TO.C,R7*%
X93955809Y-106002666D02*
X93713904Y-106172000D01*
X93955809Y-106292952D02*
X93447809Y-106292952D01*
X93447809Y-106099428D01*
X93472000Y-106051047D01*
X93496190Y-106026857D01*
X93544571Y-106002666D01*
X93617142Y-106002666D01*
X93665523Y-106026857D01*
X93689714Y-106051047D01*
X93713904Y-106099428D01*
X93713904Y-106292952D01*
X93447809Y-105833333D02*
X93447809Y-105494666D01*
X93955809Y-105712380D01*
%TO.C,R9*%
X97257809Y-106611025D02*
X97015904Y-106780359D01*
X97257809Y-106901311D02*
X96749809Y-106901311D01*
X96749809Y-106707787D01*
X96774000Y-106659406D01*
X96798190Y-106635216D01*
X96846571Y-106611025D01*
X96919142Y-106611025D01*
X96967523Y-106635216D01*
X96991714Y-106659406D01*
X97015904Y-106707787D01*
X97015904Y-106901311D01*
X97257809Y-106369120D02*
X97257809Y-106272359D01*
X97233619Y-106223978D01*
X97209428Y-106199787D01*
X97136857Y-106151406D01*
X97040095Y-106127216D01*
X96846571Y-106127216D01*
X96798190Y-106151406D01*
X96774000Y-106175597D01*
X96749809Y-106223978D01*
X96749809Y-106320739D01*
X96774000Y-106369120D01*
X96798190Y-106393311D01*
X96846571Y-106417501D01*
X96967523Y-106417501D01*
X97015904Y-106393311D01*
X97040095Y-106369120D01*
X97064285Y-106320739D01*
X97064285Y-106223978D01*
X97040095Y-106175597D01*
X97015904Y-106151406D01*
X96967523Y-106127216D01*
%TO.C,C15*%
X108004428Y-99640571D02*
X108028619Y-99664761D01*
X108052809Y-99737333D01*
X108052809Y-99785714D01*
X108028619Y-99858285D01*
X107980238Y-99906666D01*
X107931857Y-99930857D01*
X107835095Y-99955047D01*
X107762523Y-99955047D01*
X107665761Y-99930857D01*
X107617380Y-99906666D01*
X107569000Y-99858285D01*
X107544809Y-99785714D01*
X107544809Y-99737333D01*
X107569000Y-99664761D01*
X107593190Y-99640571D01*
X108052809Y-99156761D02*
X108052809Y-99447047D01*
X108052809Y-99301904D02*
X107544809Y-99301904D01*
X107617380Y-99350285D01*
X107665761Y-99398666D01*
X107689952Y-99447047D01*
X107544809Y-98697142D02*
X107544809Y-98939047D01*
X107786714Y-98963238D01*
X107762523Y-98939047D01*
X107738333Y-98890666D01*
X107738333Y-98769714D01*
X107762523Y-98721333D01*
X107786714Y-98697142D01*
X107835095Y-98672952D01*
X107956047Y-98672952D01*
X108004428Y-98697142D01*
X108028619Y-98721333D01*
X108052809Y-98769714D01*
X108052809Y-98890666D01*
X108028619Y-98939047D01*
X108004428Y-98963238D01*
%TO.C,C25*%
X84636428Y-79066571D02*
X84660619Y-79090761D01*
X84684809Y-79163333D01*
X84684809Y-79211714D01*
X84660619Y-79284285D01*
X84612238Y-79332666D01*
X84563857Y-79356857D01*
X84467095Y-79381047D01*
X84394523Y-79381047D01*
X84297761Y-79356857D01*
X84249380Y-79332666D01*
X84201000Y-79284285D01*
X84176809Y-79211714D01*
X84176809Y-79163333D01*
X84201000Y-79090761D01*
X84225190Y-79066571D01*
X84225190Y-78873047D02*
X84201000Y-78848857D01*
X84176809Y-78800476D01*
X84176809Y-78679523D01*
X84201000Y-78631142D01*
X84225190Y-78606952D01*
X84273571Y-78582761D01*
X84321952Y-78582761D01*
X84394523Y-78606952D01*
X84684809Y-78897238D01*
X84684809Y-78582761D01*
X84176809Y-78123142D02*
X84176809Y-78365047D01*
X84418714Y-78389238D01*
X84394523Y-78365047D01*
X84370333Y-78316666D01*
X84370333Y-78195714D01*
X84394523Y-78147333D01*
X84418714Y-78123142D01*
X84467095Y-78098952D01*
X84588047Y-78098952D01*
X84636428Y-78123142D01*
X84660619Y-78147333D01*
X84684809Y-78195714D01*
X84684809Y-78316666D01*
X84660619Y-78365047D01*
X84636428Y-78389238D01*
%TO.C,R14*%
X107925809Y-107514571D02*
X107683904Y-107683904D01*
X107925809Y-107804857D02*
X107417809Y-107804857D01*
X107417809Y-107611333D01*
X107442000Y-107562952D01*
X107466190Y-107538761D01*
X107514571Y-107514571D01*
X107587142Y-107514571D01*
X107635523Y-107538761D01*
X107659714Y-107562952D01*
X107683904Y-107611333D01*
X107683904Y-107804857D01*
X107925809Y-107030761D02*
X107925809Y-107321047D01*
X107925809Y-107175904D02*
X107417809Y-107175904D01*
X107490380Y-107224285D01*
X107538761Y-107272666D01*
X107562952Y-107321047D01*
X107587142Y-106595333D02*
X107925809Y-106595333D01*
X107393619Y-106716285D02*
X107756476Y-106837238D01*
X107756476Y-106522761D01*
%TO.C,U3*%
X78588809Y-94748047D02*
X79000047Y-94748047D01*
X79048428Y-94723857D01*
X79072619Y-94699666D01*
X79096809Y-94651285D01*
X79096809Y-94554523D01*
X79072619Y-94506142D01*
X79048428Y-94481952D01*
X79000047Y-94457761D01*
X78588809Y-94457761D01*
X78588809Y-94264238D02*
X78588809Y-93949761D01*
X78782333Y-94119095D01*
X78782333Y-94046523D01*
X78806523Y-93998142D01*
X78830714Y-93973952D01*
X78879095Y-93949761D01*
X79000047Y-93949761D01*
X79048428Y-93973952D01*
X79072619Y-93998142D01*
X79096809Y-94046523D01*
X79096809Y-94191666D01*
X79072619Y-94240047D01*
X79048428Y-94264238D01*
%TO.C,C5*%
X96066428Y-60663666D02*
X96090619Y-60687857D01*
X96114809Y-60760428D01*
X96114809Y-60808809D01*
X96090619Y-60881380D01*
X96042238Y-60929761D01*
X95993857Y-60953952D01*
X95897095Y-60978142D01*
X95824523Y-60978142D01*
X95727761Y-60953952D01*
X95679380Y-60929761D01*
X95631000Y-60881380D01*
X95606809Y-60808809D01*
X95606809Y-60760428D01*
X95631000Y-60687857D01*
X95655190Y-60663666D01*
X95606809Y-60204047D02*
X95606809Y-60445952D01*
X95848714Y-60470142D01*
X95824523Y-60445952D01*
X95800333Y-60397571D01*
X95800333Y-60276619D01*
X95824523Y-60228238D01*
X95848714Y-60204047D01*
X95897095Y-60179857D01*
X96018047Y-60179857D01*
X96066428Y-60204047D01*
X96090619Y-60228238D01*
X96114809Y-60276619D01*
X96114809Y-60397571D01*
X96090619Y-60445952D01*
X96066428Y-60470142D01*
%TO.C,C24*%
X84636428Y-75002571D02*
X84660619Y-75026761D01*
X84684809Y-75099333D01*
X84684809Y-75147714D01*
X84660619Y-75220285D01*
X84612238Y-75268666D01*
X84563857Y-75292857D01*
X84467095Y-75317047D01*
X84394523Y-75317047D01*
X84297761Y-75292857D01*
X84249380Y-75268666D01*
X84201000Y-75220285D01*
X84176809Y-75147714D01*
X84176809Y-75099333D01*
X84201000Y-75026761D01*
X84225190Y-75002571D01*
X84225190Y-74809047D02*
X84201000Y-74784857D01*
X84176809Y-74736476D01*
X84176809Y-74615523D01*
X84201000Y-74567142D01*
X84225190Y-74542952D01*
X84273571Y-74518761D01*
X84321952Y-74518761D01*
X84394523Y-74542952D01*
X84684809Y-74833238D01*
X84684809Y-74518761D01*
X84346142Y-74083333D02*
X84684809Y-74083333D01*
X84152619Y-74204285D02*
X84515476Y-74325238D01*
X84515476Y-74010761D01*
%TO.C,C2*%
X111577428Y-61275666D02*
X111601619Y-61299857D01*
X111625809Y-61372428D01*
X111625809Y-61420809D01*
X111601619Y-61493380D01*
X111553238Y-61541761D01*
X111504857Y-61565952D01*
X111408095Y-61590142D01*
X111335523Y-61590142D01*
X111238761Y-61565952D01*
X111190380Y-61541761D01*
X111142000Y-61493380D01*
X111117809Y-61420809D01*
X111117809Y-61372428D01*
X111142000Y-61299857D01*
X111166190Y-61275666D01*
X111166190Y-61082142D02*
X111142000Y-61057952D01*
X111117809Y-61009571D01*
X111117809Y-60888619D01*
X111142000Y-60840238D01*
X111166190Y-60816047D01*
X111214571Y-60791857D01*
X111262952Y-60791857D01*
X111335523Y-60816047D01*
X111625809Y-61106333D01*
X111625809Y-60791857D01*
%TO.C,C22*%
X101654428Y-60778571D02*
X101678619Y-60802761D01*
X101702809Y-60875333D01*
X101702809Y-60923714D01*
X101678619Y-60996285D01*
X101630238Y-61044666D01*
X101581857Y-61068857D01*
X101485095Y-61093047D01*
X101412523Y-61093047D01*
X101315761Y-61068857D01*
X101267380Y-61044666D01*
X101219000Y-60996285D01*
X101194809Y-60923714D01*
X101194809Y-60875333D01*
X101219000Y-60802761D01*
X101243190Y-60778571D01*
X101243190Y-60585047D02*
X101219000Y-60560857D01*
X101194809Y-60512476D01*
X101194809Y-60391523D01*
X101219000Y-60343142D01*
X101243190Y-60318952D01*
X101291571Y-60294761D01*
X101339952Y-60294761D01*
X101412523Y-60318952D01*
X101702809Y-60609238D01*
X101702809Y-60294761D01*
X101243190Y-60101238D02*
X101219000Y-60077047D01*
X101194809Y-60028666D01*
X101194809Y-59907714D01*
X101219000Y-59859333D01*
X101243190Y-59835142D01*
X101291571Y-59810952D01*
X101339952Y-59810952D01*
X101412523Y-59835142D01*
X101702809Y-60125428D01*
X101702809Y-59810952D01*
%TO.C,J19*%
X105379761Y-67158809D02*
X105379761Y-67521666D01*
X105355571Y-67594238D01*
X105307190Y-67642619D01*
X105234619Y-67666809D01*
X105186238Y-67666809D01*
X105887761Y-67666809D02*
X105597476Y-67666809D01*
X105742619Y-67666809D02*
X105742619Y-67158809D01*
X105694238Y-67231380D01*
X105645857Y-67279761D01*
X105597476Y-67303952D01*
X106129666Y-67666809D02*
X106226428Y-67666809D01*
X106274809Y-67642619D01*
X106299000Y-67618428D01*
X106347380Y-67545857D01*
X106371571Y-67449095D01*
X106371571Y-67255571D01*
X106347380Y-67207190D01*
X106323190Y-67183000D01*
X106274809Y-67158809D01*
X106178047Y-67158809D01*
X106129666Y-67183000D01*
X106105476Y-67207190D01*
X106081285Y-67255571D01*
X106081285Y-67376523D01*
X106105476Y-67424904D01*
X106129666Y-67449095D01*
X106178047Y-67473285D01*
X106274809Y-67473285D01*
X106323190Y-67449095D01*
X106347380Y-67424904D01*
X106371571Y-67376523D01*
%TO.C,R3*%
X109643333Y-64491809D02*
X109474000Y-64249904D01*
X109353047Y-64491809D02*
X109353047Y-63983809D01*
X109546571Y-63983809D01*
X109594952Y-64008000D01*
X109619142Y-64032190D01*
X109643333Y-64080571D01*
X109643333Y-64153142D01*
X109619142Y-64201523D01*
X109594952Y-64225714D01*
X109546571Y-64249904D01*
X109353047Y-64249904D01*
X109812666Y-63983809D02*
X110127142Y-63983809D01*
X109957809Y-64177333D01*
X110030380Y-64177333D01*
X110078761Y-64201523D01*
X110102952Y-64225714D01*
X110127142Y-64274095D01*
X110127142Y-64395047D01*
X110102952Y-64443428D01*
X110078761Y-64467619D01*
X110030380Y-64491809D01*
X109885238Y-64491809D01*
X109836857Y-64467619D01*
X109812666Y-64443428D01*
%TO.C,J21*%
X108173761Y-69698809D02*
X108173761Y-70061666D01*
X108149571Y-70134238D01*
X108101190Y-70182619D01*
X108028619Y-70206809D01*
X107980238Y-70206809D01*
X108391476Y-69747190D02*
X108415666Y-69723000D01*
X108464047Y-69698809D01*
X108585000Y-69698809D01*
X108633380Y-69723000D01*
X108657571Y-69747190D01*
X108681761Y-69795571D01*
X108681761Y-69843952D01*
X108657571Y-69916523D01*
X108367285Y-70206809D01*
X108681761Y-70206809D01*
X109165571Y-70206809D02*
X108875285Y-70206809D01*
X109020428Y-70206809D02*
X109020428Y-69698809D01*
X108972047Y-69771380D01*
X108923666Y-69819761D01*
X108875285Y-69843952D01*
%TO.C,C_1.8_IN1*%
X83118476Y-65205428D02*
X83094285Y-65229619D01*
X83021714Y-65253809D01*
X82973333Y-65253809D01*
X82900761Y-65229619D01*
X82852380Y-65181238D01*
X82828190Y-65132857D01*
X82804000Y-65036095D01*
X82804000Y-64963523D01*
X82828190Y-64866761D01*
X82852380Y-64818380D01*
X82900761Y-64770000D01*
X82973333Y-64745809D01*
X83021714Y-64745809D01*
X83094285Y-64770000D01*
X83118476Y-64794190D01*
X83215238Y-65302190D02*
X83602285Y-65302190D01*
X83989333Y-65253809D02*
X83699047Y-65253809D01*
X83844190Y-65253809D02*
X83844190Y-64745809D01*
X83795809Y-64818380D01*
X83747428Y-64866761D01*
X83699047Y-64890952D01*
X84207047Y-65205428D02*
X84231238Y-65229619D01*
X84207047Y-65253809D01*
X84182857Y-65229619D01*
X84207047Y-65205428D01*
X84207047Y-65253809D01*
X84521523Y-64963523D02*
X84473142Y-64939333D01*
X84448952Y-64915142D01*
X84424761Y-64866761D01*
X84424761Y-64842571D01*
X84448952Y-64794190D01*
X84473142Y-64770000D01*
X84521523Y-64745809D01*
X84618285Y-64745809D01*
X84666666Y-64770000D01*
X84690857Y-64794190D01*
X84715047Y-64842571D01*
X84715047Y-64866761D01*
X84690857Y-64915142D01*
X84666666Y-64939333D01*
X84618285Y-64963523D01*
X84521523Y-64963523D01*
X84473142Y-64987714D01*
X84448952Y-65011904D01*
X84424761Y-65060285D01*
X84424761Y-65157047D01*
X84448952Y-65205428D01*
X84473142Y-65229619D01*
X84521523Y-65253809D01*
X84618285Y-65253809D01*
X84666666Y-65229619D01*
X84690857Y-65205428D01*
X84715047Y-65157047D01*
X84715047Y-65060285D01*
X84690857Y-65011904D01*
X84666666Y-64987714D01*
X84618285Y-64963523D01*
X84811809Y-65302190D02*
X85198857Y-65302190D01*
X85319809Y-65253809D02*
X85319809Y-64745809D01*
X85561714Y-65253809D02*
X85561714Y-64745809D01*
X85852000Y-65253809D01*
X85852000Y-64745809D01*
X86360000Y-65253809D02*
X86069714Y-65253809D01*
X86214857Y-65253809D02*
X86214857Y-64745809D01*
X86166476Y-64818380D01*
X86118095Y-64866761D01*
X86069714Y-64890952D01*
%TO.C,J10*%
X92044761Y-60808809D02*
X92044761Y-61171666D01*
X92020571Y-61244238D01*
X91972190Y-61292619D01*
X91899619Y-61316809D01*
X91851238Y-61316809D01*
X92552761Y-61316809D02*
X92262476Y-61316809D01*
X92407619Y-61316809D02*
X92407619Y-60808809D01*
X92359238Y-60881380D01*
X92310857Y-60929761D01*
X92262476Y-60953952D01*
X92867238Y-60808809D02*
X92915619Y-60808809D01*
X92964000Y-60833000D01*
X92988190Y-60857190D01*
X93012380Y-60905571D01*
X93036571Y-61002333D01*
X93036571Y-61123285D01*
X93012380Y-61220047D01*
X92988190Y-61268428D01*
X92964000Y-61292619D01*
X92915619Y-61316809D01*
X92867238Y-61316809D01*
X92818857Y-61292619D01*
X92794666Y-61268428D01*
X92770476Y-61220047D01*
X92746285Y-61123285D01*
X92746285Y-61002333D01*
X92770476Y-60905571D01*
X92794666Y-60857190D01*
X92818857Y-60833000D01*
X92867238Y-60808809D01*
%TO.C,R12*%
X104115809Y-106752571D02*
X103873904Y-106921904D01*
X104115809Y-107042857D02*
X103607809Y-107042857D01*
X103607809Y-106849333D01*
X103632000Y-106800952D01*
X103656190Y-106776761D01*
X103704571Y-106752571D01*
X103777142Y-106752571D01*
X103825523Y-106776761D01*
X103849714Y-106800952D01*
X103873904Y-106849333D01*
X103873904Y-107042857D01*
X104115809Y-106268761D02*
X104115809Y-106559047D01*
X104115809Y-106413904D02*
X103607809Y-106413904D01*
X103680380Y-106462285D01*
X103728761Y-106510666D01*
X103752952Y-106559047D01*
X103656190Y-106075238D02*
X103632000Y-106051047D01*
X103607809Y-106002666D01*
X103607809Y-105881714D01*
X103632000Y-105833333D01*
X103656190Y-105809142D01*
X103704571Y-105784952D01*
X103752952Y-105784952D01*
X103825523Y-105809142D01*
X104115809Y-106099428D01*
X104115809Y-105784952D01*
%TO.C,R11*%
X101067809Y-106498571D02*
X100825904Y-106667904D01*
X101067809Y-106788857D02*
X100559809Y-106788857D01*
X100559809Y-106595333D01*
X100584000Y-106546952D01*
X100608190Y-106522761D01*
X100656571Y-106498571D01*
X100729142Y-106498571D01*
X100777523Y-106522761D01*
X100801714Y-106546952D01*
X100825904Y-106595333D01*
X100825904Y-106788857D01*
X101067809Y-106014761D02*
X101067809Y-106305047D01*
X101067809Y-106159904D02*
X100559809Y-106159904D01*
X100632380Y-106208285D01*
X100680761Y-106256666D01*
X100704952Y-106305047D01*
X101067809Y-105530952D02*
X101067809Y-105821238D01*
X101067809Y-105676095D02*
X100559809Y-105676095D01*
X100632380Y-105724476D01*
X100680761Y-105772857D01*
X100704952Y-105821238D01*
%TO.C,U2*%
X82543952Y-61189809D02*
X82543952Y-61601047D01*
X82568142Y-61649428D01*
X82592333Y-61673619D01*
X82640714Y-61697809D01*
X82737476Y-61697809D01*
X82785857Y-61673619D01*
X82810047Y-61649428D01*
X82834238Y-61601047D01*
X82834238Y-61189809D01*
X83051952Y-61238190D02*
X83076142Y-61214000D01*
X83124523Y-61189809D01*
X83245476Y-61189809D01*
X83293857Y-61214000D01*
X83318047Y-61238190D01*
X83342238Y-61286571D01*
X83342238Y-61334952D01*
X83318047Y-61407523D01*
X83027761Y-61697809D01*
X83342238Y-61697809D01*
%TO.C,C14*%
X105083428Y-100638428D02*
X105059238Y-100662619D01*
X104986666Y-100686809D01*
X104938285Y-100686809D01*
X104865714Y-100662619D01*
X104817333Y-100614238D01*
X104793142Y-100565857D01*
X104768952Y-100469095D01*
X104768952Y-100396523D01*
X104793142Y-100299761D01*
X104817333Y-100251380D01*
X104865714Y-100203000D01*
X104938285Y-100178809D01*
X104986666Y-100178809D01*
X105059238Y-100203000D01*
X105083428Y-100227190D01*
X105567238Y-100686809D02*
X105276952Y-100686809D01*
X105422095Y-100686809D02*
X105422095Y-100178809D01*
X105373714Y-100251380D01*
X105325333Y-100299761D01*
X105276952Y-100323952D01*
X106002666Y-100348142D02*
X106002666Y-100686809D01*
X105881714Y-100154619D02*
X105760761Y-100517476D01*
X106075238Y-100517476D01*
%TO.C,R13*%
X104877809Y-106371571D02*
X104635904Y-106540904D01*
X104877809Y-106661857D02*
X104369809Y-106661857D01*
X104369809Y-106468333D01*
X104394000Y-106419952D01*
X104418190Y-106395761D01*
X104466571Y-106371571D01*
X104539142Y-106371571D01*
X104587523Y-106395761D01*
X104611714Y-106419952D01*
X104635904Y-106468333D01*
X104635904Y-106661857D01*
X104877809Y-105887761D02*
X104877809Y-106178047D01*
X104877809Y-106032904D02*
X104369809Y-106032904D01*
X104442380Y-106081285D01*
X104490761Y-106129666D01*
X104514952Y-106178047D01*
X104369809Y-105718428D02*
X104369809Y-105403952D01*
X104563333Y-105573285D01*
X104563333Y-105500714D01*
X104587523Y-105452333D01*
X104611714Y-105428142D01*
X104660095Y-105403952D01*
X104781047Y-105403952D01*
X104829428Y-105428142D01*
X104853619Y-105452333D01*
X104877809Y-105500714D01*
X104877809Y-105645857D01*
X104853619Y-105694238D01*
X104829428Y-105718428D01*
%TO.C,R4*%
X109643333Y-66523809D02*
X109474000Y-66281904D01*
X109353047Y-66523809D02*
X109353047Y-66015809D01*
X109546571Y-66015809D01*
X109594952Y-66040000D01*
X109619142Y-66064190D01*
X109643333Y-66112571D01*
X109643333Y-66185142D01*
X109619142Y-66233523D01*
X109594952Y-66257714D01*
X109546571Y-66281904D01*
X109353047Y-66281904D01*
X110078761Y-66185142D02*
X110078761Y-66523809D01*
X109957809Y-65991619D02*
X109836857Y-66354476D01*
X110151333Y-66354476D01*
%TO.C,C21*%
X99622428Y-60778571D02*
X99646619Y-60802761D01*
X99670809Y-60875333D01*
X99670809Y-60923714D01*
X99646619Y-60996285D01*
X99598238Y-61044666D01*
X99549857Y-61068857D01*
X99453095Y-61093047D01*
X99380523Y-61093047D01*
X99283761Y-61068857D01*
X99235380Y-61044666D01*
X99187000Y-60996285D01*
X99162809Y-60923714D01*
X99162809Y-60875333D01*
X99187000Y-60802761D01*
X99211190Y-60778571D01*
X99211190Y-60585047D02*
X99187000Y-60560857D01*
X99162809Y-60512476D01*
X99162809Y-60391523D01*
X99187000Y-60343142D01*
X99211190Y-60318952D01*
X99259571Y-60294761D01*
X99307952Y-60294761D01*
X99380523Y-60318952D01*
X99670809Y-60609238D01*
X99670809Y-60294761D01*
X99670809Y-59810952D02*
X99670809Y-60101238D01*
X99670809Y-59956095D02*
X99162809Y-59956095D01*
X99235380Y-60004476D01*
X99283761Y-60052857D01*
X99307952Y-60101238D01*
%TO.C,J17*%
X103474761Y-65380809D02*
X103474761Y-65743666D01*
X103450571Y-65816238D01*
X103402190Y-65864619D01*
X103329619Y-65888809D01*
X103281238Y-65888809D01*
X103982761Y-65888809D02*
X103692476Y-65888809D01*
X103837619Y-65888809D02*
X103837619Y-65380809D01*
X103789238Y-65453380D01*
X103740857Y-65501761D01*
X103692476Y-65525952D01*
X104152095Y-65380809D02*
X104490761Y-65380809D01*
X104273047Y-65888809D01*
%TO.C,C6*%
X78667428Y-91905666D02*
X78691619Y-91929857D01*
X78715809Y-92002428D01*
X78715809Y-92050809D01*
X78691619Y-92123380D01*
X78643238Y-92171761D01*
X78594857Y-92195952D01*
X78498095Y-92220142D01*
X78425523Y-92220142D01*
X78328761Y-92195952D01*
X78280380Y-92171761D01*
X78232000Y-92123380D01*
X78207809Y-92050809D01*
X78207809Y-92002428D01*
X78232000Y-91929857D01*
X78256190Y-91905666D01*
X78207809Y-91470238D02*
X78207809Y-91567000D01*
X78232000Y-91615380D01*
X78256190Y-91639571D01*
X78328761Y-91687952D01*
X78425523Y-91712142D01*
X78619047Y-91712142D01*
X78667428Y-91687952D01*
X78691619Y-91663761D01*
X78715809Y-91615380D01*
X78715809Y-91518619D01*
X78691619Y-91470238D01*
X78667428Y-91446047D01*
X78619047Y-91421857D01*
X78498095Y-91421857D01*
X78449714Y-91446047D01*
X78425523Y-91470238D01*
X78401333Y-91518619D01*
X78401333Y-91615380D01*
X78425523Y-91663761D01*
X78449714Y-91687952D01*
X78498095Y-91712142D01*
%TO.C,R8*%
X97003809Y-105240666D02*
X96761904Y-105410000D01*
X97003809Y-105530952D02*
X96495809Y-105530952D01*
X96495809Y-105337428D01*
X96520000Y-105289047D01*
X96544190Y-105264857D01*
X96592571Y-105240666D01*
X96665142Y-105240666D01*
X96713523Y-105264857D01*
X96737714Y-105289047D01*
X96761904Y-105337428D01*
X96761904Y-105530952D01*
X96713523Y-104950380D02*
X96689333Y-104998761D01*
X96665142Y-105022952D01*
X96616761Y-105047142D01*
X96592571Y-105047142D01*
X96544190Y-105022952D01*
X96520000Y-104998761D01*
X96495809Y-104950380D01*
X96495809Y-104853619D01*
X96520000Y-104805238D01*
X96544190Y-104781047D01*
X96592571Y-104756857D01*
X96616761Y-104756857D01*
X96665142Y-104781047D01*
X96689333Y-104805238D01*
X96713523Y-104853619D01*
X96713523Y-104950380D01*
X96737714Y-104998761D01*
X96761904Y-105022952D01*
X96810285Y-105047142D01*
X96907047Y-105047142D01*
X96955428Y-105022952D01*
X96979619Y-104998761D01*
X97003809Y-104950380D01*
X97003809Y-104853619D01*
X96979619Y-104805238D01*
X96955428Y-104781047D01*
X96907047Y-104756857D01*
X96810285Y-104756857D01*
X96761904Y-104781047D01*
X96737714Y-104805238D01*
X96713523Y-104853619D01*
%TO.C,R2*%
X104877809Y-87460666D02*
X104635904Y-87630000D01*
X104877809Y-87750952D02*
X104369809Y-87750952D01*
X104369809Y-87557428D01*
X104394000Y-87509047D01*
X104418190Y-87484857D01*
X104466571Y-87460666D01*
X104539142Y-87460666D01*
X104587523Y-87484857D01*
X104611714Y-87509047D01*
X104635904Y-87557428D01*
X104635904Y-87750952D01*
X104418190Y-87267142D02*
X104394000Y-87242952D01*
X104369809Y-87194571D01*
X104369809Y-87073619D01*
X104394000Y-87025238D01*
X104418190Y-87001047D01*
X104466571Y-86976857D01*
X104514952Y-86976857D01*
X104587523Y-87001047D01*
X104877809Y-87291333D01*
X104877809Y-86976857D01*
%TO.C,C11*%
X89225428Y-92401571D02*
X89249619Y-92425761D01*
X89273809Y-92498333D01*
X89273809Y-92546714D01*
X89249619Y-92619285D01*
X89201238Y-92667666D01*
X89152857Y-92691857D01*
X89056095Y-92716047D01*
X88983523Y-92716047D01*
X88886761Y-92691857D01*
X88838380Y-92667666D01*
X88790000Y-92619285D01*
X88765809Y-92546714D01*
X88765809Y-92498333D01*
X88790000Y-92425761D01*
X88814190Y-92401571D01*
X89273809Y-91917761D02*
X89273809Y-92208047D01*
X89273809Y-92062904D02*
X88765809Y-92062904D01*
X88838380Y-92111285D01*
X88886761Y-92159666D01*
X88910952Y-92208047D01*
X89273809Y-91433952D02*
X89273809Y-91724238D01*
X89273809Y-91579095D02*
X88765809Y-91579095D01*
X88838380Y-91627476D01*
X88886761Y-91675857D01*
X88910952Y-91724238D01*
%TO.C,C13*%
X108004428Y-96846571D02*
X108028619Y-96870761D01*
X108052809Y-96943333D01*
X108052809Y-96991714D01*
X108028619Y-97064285D01*
X107980238Y-97112666D01*
X107931857Y-97136857D01*
X107835095Y-97161047D01*
X107762523Y-97161047D01*
X107665761Y-97136857D01*
X107617380Y-97112666D01*
X107569000Y-97064285D01*
X107544809Y-96991714D01*
X107544809Y-96943333D01*
X107569000Y-96870761D01*
X107593190Y-96846571D01*
X108052809Y-96362761D02*
X108052809Y-96653047D01*
X108052809Y-96507904D02*
X107544809Y-96507904D01*
X107617380Y-96556285D01*
X107665761Y-96604666D01*
X107689952Y-96653047D01*
X107544809Y-96193428D02*
X107544809Y-95878952D01*
X107738333Y-96048285D01*
X107738333Y-95975714D01*
X107762523Y-95927333D01*
X107786714Y-95903142D01*
X107835095Y-95878952D01*
X107956047Y-95878952D01*
X108004428Y-95903142D01*
X108028619Y-95927333D01*
X108052809Y-95975714D01*
X108052809Y-96120857D01*
X108028619Y-96169238D01*
X108004428Y-96193428D01*
%TO.C,R1*%
X102464809Y-87206666D02*
X102222904Y-87376000D01*
X102464809Y-87496952D02*
X101956809Y-87496952D01*
X101956809Y-87303428D01*
X101981000Y-87255047D01*
X102005190Y-87230857D01*
X102053571Y-87206666D01*
X102126142Y-87206666D01*
X102174523Y-87230857D01*
X102198714Y-87255047D01*
X102222904Y-87303428D01*
X102222904Y-87496952D01*
X102464809Y-86722857D02*
X102464809Y-87013142D01*
X102464809Y-86868000D02*
X101956809Y-86868000D01*
X102029380Y-86916380D01*
X102077761Y-86964761D01*
X102101952Y-87013142D01*
%TO.C,C12*%
X104702428Y-96846571D02*
X104726619Y-96870761D01*
X104750809Y-96943333D01*
X104750809Y-96991714D01*
X104726619Y-97064285D01*
X104678238Y-97112666D01*
X104629857Y-97136857D01*
X104533095Y-97161047D01*
X104460523Y-97161047D01*
X104363761Y-97136857D01*
X104315380Y-97112666D01*
X104267000Y-97064285D01*
X104242809Y-96991714D01*
X104242809Y-96943333D01*
X104267000Y-96870761D01*
X104291190Y-96846571D01*
X104750809Y-96362761D02*
X104750809Y-96653047D01*
X104750809Y-96507904D02*
X104242809Y-96507904D01*
X104315380Y-96556285D01*
X104363761Y-96604666D01*
X104387952Y-96653047D01*
X104291190Y-96169238D02*
X104267000Y-96145047D01*
X104242809Y-96096666D01*
X104242809Y-95975714D01*
X104267000Y-95927333D01*
X104291190Y-95903142D01*
X104339571Y-95878952D01*
X104387952Y-95878952D01*
X104460523Y-95903142D01*
X104750809Y-96193428D01*
X104750809Y-95878952D01*
%TO.C,U1*%
X81527952Y-64745809D02*
X81527952Y-65157047D01*
X81552142Y-65205428D01*
X81576333Y-65229619D01*
X81624714Y-65253809D01*
X81721476Y-65253809D01*
X81769857Y-65229619D01*
X81794047Y-65205428D01*
X81818238Y-65157047D01*
X81818238Y-64745809D01*
X82326238Y-65253809D02*
X82035952Y-65253809D01*
X82181095Y-65253809D02*
X82181095Y-64745809D01*
X82132714Y-64818380D01*
X82084333Y-64866761D01*
X82035952Y-64890952D01*
%TO.C,R5*%
X97892809Y-60536666D02*
X97650904Y-60706000D01*
X97892809Y-60826952D02*
X97384809Y-60826952D01*
X97384809Y-60633428D01*
X97409000Y-60585047D01*
X97433190Y-60560857D01*
X97481571Y-60536666D01*
X97554142Y-60536666D01*
X97602523Y-60560857D01*
X97626714Y-60585047D01*
X97650904Y-60633428D01*
X97650904Y-60826952D01*
X97384809Y-60077047D02*
X97384809Y-60318952D01*
X97626714Y-60343142D01*
X97602523Y-60318952D01*
X97578333Y-60270571D01*
X97578333Y-60149619D01*
X97602523Y-60101238D01*
X97626714Y-60077047D01*
X97675095Y-60052857D01*
X97796047Y-60052857D01*
X97844428Y-60077047D01*
X97868619Y-60101238D01*
X97892809Y-60149619D01*
X97892809Y-60270571D01*
X97868619Y-60318952D01*
X97844428Y-60343142D01*
%TO.C,C29*%
X94161428Y-104466571D02*
X94185619Y-104490761D01*
X94209809Y-104563333D01*
X94209809Y-104611714D01*
X94185619Y-104684285D01*
X94137238Y-104732666D01*
X94088857Y-104756857D01*
X93992095Y-104781047D01*
X93919523Y-104781047D01*
X93822761Y-104756857D01*
X93774380Y-104732666D01*
X93726000Y-104684285D01*
X93701809Y-104611714D01*
X93701809Y-104563333D01*
X93726000Y-104490761D01*
X93750190Y-104466571D01*
X93750190Y-104273047D02*
X93726000Y-104248857D01*
X93701809Y-104200476D01*
X93701809Y-104079523D01*
X93726000Y-104031142D01*
X93750190Y-104006952D01*
X93798571Y-103982761D01*
X93846952Y-103982761D01*
X93919523Y-104006952D01*
X94209809Y-104297238D01*
X94209809Y-103982761D01*
X94209809Y-103740857D02*
X94209809Y-103644095D01*
X94185619Y-103595714D01*
X94161428Y-103571523D01*
X94088857Y-103523142D01*
X93992095Y-103498952D01*
X93798571Y-103498952D01*
X93750190Y-103523142D01*
X93726000Y-103547333D01*
X93701809Y-103595714D01*
X93701809Y-103692476D01*
X93726000Y-103740857D01*
X93750190Y-103765047D01*
X93798571Y-103789238D01*
X93919523Y-103789238D01*
X93967904Y-103765047D01*
X93992095Y-103740857D01*
X94016285Y-103692476D01*
X94016285Y-103595714D01*
X93992095Y-103547333D01*
X93967904Y-103523142D01*
X93919523Y-103498952D01*
%TO.C,C17*%
X83493428Y-97844428D02*
X83469238Y-97868619D01*
X83396666Y-97892809D01*
X83348285Y-97892809D01*
X83275714Y-97868619D01*
X83227333Y-97820238D01*
X83203142Y-97771857D01*
X83178952Y-97675095D01*
X83178952Y-97602523D01*
X83203142Y-97505761D01*
X83227333Y-97457380D01*
X83275714Y-97409000D01*
X83348285Y-97384809D01*
X83396666Y-97384809D01*
X83469238Y-97409000D01*
X83493428Y-97433190D01*
X83977238Y-97892809D02*
X83686952Y-97892809D01*
X83832095Y-97892809D02*
X83832095Y-97384809D01*
X83783714Y-97457380D01*
X83735333Y-97505761D01*
X83686952Y-97529952D01*
X84146571Y-97384809D02*
X84485238Y-97384809D01*
X84267523Y-97892809D01*
D16*
%TO.C,U4*%
X89693742Y-103201314D02*
X90585514Y-103201314D01*
X90690428Y-103148857D01*
X90742885Y-103096400D01*
X90795342Y-102991485D01*
X90795342Y-102781657D01*
X90742885Y-102676742D01*
X90690428Y-102624285D01*
X90585514Y-102571828D01*
X89693742Y-102571828D01*
X90060942Y-101575142D02*
X90795342Y-101575142D01*
X89641285Y-101837428D02*
X90428142Y-102099714D01*
X90428142Y-101417771D01*
D15*
%TO.C,C18*%
X83493428Y-95050428D02*
X83469238Y-95074619D01*
X83396666Y-95098809D01*
X83348285Y-95098809D01*
X83275714Y-95074619D01*
X83227333Y-95026238D01*
X83203142Y-94977857D01*
X83178952Y-94881095D01*
X83178952Y-94808523D01*
X83203142Y-94711761D01*
X83227333Y-94663380D01*
X83275714Y-94615000D01*
X83348285Y-94590809D01*
X83396666Y-94590809D01*
X83469238Y-94615000D01*
X83493428Y-94639190D01*
X83977238Y-95098809D02*
X83686952Y-95098809D01*
X83832095Y-95098809D02*
X83832095Y-94590809D01*
X83783714Y-94663380D01*
X83735333Y-94711761D01*
X83686952Y-94735952D01*
X84267523Y-94808523D02*
X84219142Y-94784333D01*
X84194952Y-94760142D01*
X84170761Y-94711761D01*
X84170761Y-94687571D01*
X84194952Y-94639190D01*
X84219142Y-94615000D01*
X84267523Y-94590809D01*
X84364285Y-94590809D01*
X84412666Y-94615000D01*
X84436857Y-94639190D01*
X84461047Y-94687571D01*
X84461047Y-94711761D01*
X84436857Y-94760142D01*
X84412666Y-94784333D01*
X84364285Y-94808523D01*
X84267523Y-94808523D01*
X84219142Y-94832714D01*
X84194952Y-94856904D01*
X84170761Y-94905285D01*
X84170761Y-95002047D01*
X84194952Y-95050428D01*
X84219142Y-95074619D01*
X84267523Y-95098809D01*
X84364285Y-95098809D01*
X84412666Y-95074619D01*
X84436857Y-95050428D01*
X84461047Y-95002047D01*
X84461047Y-94905285D01*
X84436857Y-94856904D01*
X84412666Y-94832714D01*
X84364285Y-94808523D01*
%TO.C,J22*%
X108046761Y-72365809D02*
X108046761Y-72728666D01*
X108022571Y-72801238D01*
X107974190Y-72849619D01*
X107901619Y-72873809D01*
X107853238Y-72873809D01*
X108264476Y-72414190D02*
X108288666Y-72390000D01*
X108337047Y-72365809D01*
X108458000Y-72365809D01*
X108506380Y-72390000D01*
X108530571Y-72414190D01*
X108554761Y-72462571D01*
X108554761Y-72510952D01*
X108530571Y-72583523D01*
X108240285Y-72873809D01*
X108554761Y-72873809D01*
X108748285Y-72414190D02*
X108772476Y-72390000D01*
X108820857Y-72365809D01*
X108941809Y-72365809D01*
X108990190Y-72390000D01*
X109014380Y-72414190D01*
X109038571Y-72462571D01*
X109038571Y-72510952D01*
X109014380Y-72583523D01*
X108724095Y-72873809D01*
X109038571Y-72873809D01*
%TO.C,C7*%
X80433333Y-97590428D02*
X80409142Y-97614619D01*
X80336571Y-97638809D01*
X80288190Y-97638809D01*
X80215619Y-97614619D01*
X80167238Y-97566238D01*
X80143047Y-97517857D01*
X80118857Y-97421095D01*
X80118857Y-97348523D01*
X80143047Y-97251761D01*
X80167238Y-97203380D01*
X80215619Y-97155000D01*
X80288190Y-97130809D01*
X80336571Y-97130809D01*
X80409142Y-97155000D01*
X80433333Y-97179190D01*
X80602666Y-97130809D02*
X80941333Y-97130809D01*
X80723619Y-97638809D01*
%TO.C,J13*%
X89504761Y-62840809D02*
X89504761Y-63203666D01*
X89480571Y-63276238D01*
X89432190Y-63324619D01*
X89359619Y-63348809D01*
X89311238Y-63348809D01*
X90012761Y-63348809D02*
X89722476Y-63348809D01*
X89867619Y-63348809D02*
X89867619Y-62840809D01*
X89819238Y-62913380D01*
X89770857Y-62961761D01*
X89722476Y-62985952D01*
X90182095Y-62840809D02*
X90496571Y-62840809D01*
X90327238Y-63034333D01*
X90399809Y-63034333D01*
X90448190Y-63058523D01*
X90472380Y-63082714D01*
X90496571Y-63131095D01*
X90496571Y-63252047D01*
X90472380Y-63300428D01*
X90448190Y-63324619D01*
X90399809Y-63348809D01*
X90254666Y-63348809D01*
X90206285Y-63324619D01*
X90182095Y-63300428D01*
%TO.C,J7*%
X107350809Y-111294333D02*
X107713666Y-111294333D01*
X107786238Y-111318523D01*
X107834619Y-111366904D01*
X107858809Y-111439476D01*
X107858809Y-111487857D01*
X107350809Y-111100809D02*
X107350809Y-110762142D01*
X107858809Y-110979857D01*
%TO.C,J25*%
X86964761Y-77445809D02*
X86964761Y-77808666D01*
X86940571Y-77881238D01*
X86892190Y-77929619D01*
X86819619Y-77953809D01*
X86771238Y-77953809D01*
X87182476Y-77494190D02*
X87206666Y-77470000D01*
X87255047Y-77445809D01*
X87376000Y-77445809D01*
X87424380Y-77470000D01*
X87448571Y-77494190D01*
X87472761Y-77542571D01*
X87472761Y-77590952D01*
X87448571Y-77663523D01*
X87158285Y-77953809D01*
X87472761Y-77953809D01*
X87932380Y-77445809D02*
X87690476Y-77445809D01*
X87666285Y-77687714D01*
X87690476Y-77663523D01*
X87738857Y-77639333D01*
X87859809Y-77639333D01*
X87908190Y-77663523D01*
X87932380Y-77687714D01*
X87956571Y-77736095D01*
X87956571Y-77857047D01*
X87932380Y-77905428D01*
X87908190Y-77929619D01*
X87859809Y-77953809D01*
X87738857Y-77953809D01*
X87690476Y-77929619D01*
X87666285Y-77905428D01*
D16*
%TO.C,U5*%
X95745904Y-75897619D02*
X95745904Y-76720095D01*
X95794285Y-76816857D01*
X95842666Y-76865238D01*
X95939428Y-76913619D01*
X96132952Y-76913619D01*
X96229714Y-76865238D01*
X96278095Y-76816857D01*
X96326476Y-76720095D01*
X96326476Y-75897619D01*
X97294095Y-75897619D02*
X96810285Y-75897619D01*
X96761904Y-76381428D01*
X96810285Y-76333047D01*
X96907047Y-76284666D01*
X97148952Y-76284666D01*
X97245714Y-76333047D01*
X97294095Y-76381428D01*
X97342476Y-76478190D01*
X97342476Y-76720095D01*
X97294095Y-76816857D01*
X97245714Y-76865238D01*
X97148952Y-76913619D01*
X96907047Y-76913619D01*
X96810285Y-76865238D01*
X96761904Y-76816857D01*
D15*
%TO.C,J9*%
X91016666Y-60808809D02*
X91016666Y-61171666D01*
X90992476Y-61244238D01*
X90944095Y-61292619D01*
X90871523Y-61316809D01*
X90823142Y-61316809D01*
X91282761Y-61316809D02*
X91379523Y-61316809D01*
X91427904Y-61292619D01*
X91452095Y-61268428D01*
X91500476Y-61195857D01*
X91524666Y-61099095D01*
X91524666Y-60905571D01*
X91500476Y-60857190D01*
X91476285Y-60833000D01*
X91427904Y-60808809D01*
X91331142Y-60808809D01*
X91282761Y-60833000D01*
X91258571Y-60857190D01*
X91234380Y-60905571D01*
X91234380Y-61026523D01*
X91258571Y-61074904D01*
X91282761Y-61099095D01*
X91331142Y-61123285D01*
X91427904Y-61123285D01*
X91476285Y-61099095D01*
X91500476Y-61074904D01*
X91524666Y-61026523D01*
%TO.C,C10*%
X90224428Y-89208428D02*
X90200238Y-89232619D01*
X90127666Y-89256809D01*
X90079285Y-89256809D01*
X90006714Y-89232619D01*
X89958333Y-89184238D01*
X89934142Y-89135857D01*
X89909952Y-89039095D01*
X89909952Y-88966523D01*
X89934142Y-88869761D01*
X89958333Y-88821380D01*
X90006714Y-88773000D01*
X90079285Y-88748809D01*
X90127666Y-88748809D01*
X90200238Y-88773000D01*
X90224428Y-88797190D01*
X90708238Y-89256809D02*
X90417952Y-89256809D01*
X90563095Y-89256809D02*
X90563095Y-88748809D01*
X90514714Y-88821380D01*
X90466333Y-88869761D01*
X90417952Y-88893952D01*
X91022714Y-88748809D02*
X91071095Y-88748809D01*
X91119476Y-88773000D01*
X91143666Y-88797190D01*
X91167857Y-88845571D01*
X91192047Y-88942333D01*
X91192047Y-89063285D01*
X91167857Y-89160047D01*
X91143666Y-89208428D01*
X91119476Y-89232619D01*
X91071095Y-89256809D01*
X91022714Y-89256809D01*
X90974333Y-89232619D01*
X90950142Y-89208428D01*
X90925952Y-89160047D01*
X90901761Y-89063285D01*
X90901761Y-88942333D01*
X90925952Y-88845571D01*
X90950142Y-88797190D01*
X90974333Y-88773000D01*
X91022714Y-88748809D01*
%TO.C,J20*%
X107792761Y-67539809D02*
X107792761Y-67902666D01*
X107768571Y-67975238D01*
X107720190Y-68023619D01*
X107647619Y-68047809D01*
X107599238Y-68047809D01*
X108010476Y-67588190D02*
X108034666Y-67564000D01*
X108083047Y-67539809D01*
X108204000Y-67539809D01*
X108252380Y-67564000D01*
X108276571Y-67588190D01*
X108300761Y-67636571D01*
X108300761Y-67684952D01*
X108276571Y-67757523D01*
X107986285Y-68047809D01*
X108300761Y-68047809D01*
X108615238Y-67539809D02*
X108663619Y-67539809D01*
X108712000Y-67564000D01*
X108736190Y-67588190D01*
X108760380Y-67636571D01*
X108784571Y-67733333D01*
X108784571Y-67854285D01*
X108760380Y-67951047D01*
X108736190Y-67999428D01*
X108712000Y-68023619D01*
X108663619Y-68047809D01*
X108615238Y-68047809D01*
X108566857Y-68023619D01*
X108542666Y-67999428D01*
X108518476Y-67951047D01*
X108494285Y-67854285D01*
X108494285Y-67733333D01*
X108518476Y-67636571D01*
X108542666Y-67588190D01*
X108566857Y-67564000D01*
X108615238Y-67539809D01*
%TO.C,C1*%
X109401428Y-61298666D02*
X109425619Y-61322857D01*
X109449809Y-61395428D01*
X109449809Y-61443809D01*
X109425619Y-61516380D01*
X109377238Y-61564761D01*
X109328857Y-61588952D01*
X109232095Y-61613142D01*
X109159523Y-61613142D01*
X109062761Y-61588952D01*
X109014380Y-61564761D01*
X108966000Y-61516380D01*
X108941809Y-61443809D01*
X108941809Y-61395428D01*
X108966000Y-61322857D01*
X108990190Y-61298666D01*
X109449809Y-60814857D02*
X109449809Y-61105142D01*
X109449809Y-60960000D02*
X108941809Y-60960000D01*
X109014380Y-61008380D01*
X109062761Y-61056761D01*
X109086952Y-61105142D01*
%TO.C,C_1.8_OUT1*%
X78461809Y-61268428D02*
X78437619Y-61292619D01*
X78365047Y-61316809D01*
X78316666Y-61316809D01*
X78244095Y-61292619D01*
X78195714Y-61244238D01*
X78171523Y-61195857D01*
X78147333Y-61099095D01*
X78147333Y-61026523D01*
X78171523Y-60929761D01*
X78195714Y-60881380D01*
X78244095Y-60833000D01*
X78316666Y-60808809D01*
X78365047Y-60808809D01*
X78437619Y-60833000D01*
X78461809Y-60857190D01*
X78558571Y-61365190D02*
X78945619Y-61365190D01*
X79332666Y-61316809D02*
X79042380Y-61316809D01*
X79187523Y-61316809D02*
X79187523Y-60808809D01*
X79139142Y-60881380D01*
X79090761Y-60929761D01*
X79042380Y-60953952D01*
X79550380Y-61268428D02*
X79574571Y-61292619D01*
X79550380Y-61316809D01*
X79526190Y-61292619D01*
X79550380Y-61268428D01*
X79550380Y-61316809D01*
X79864857Y-61026523D02*
X79816476Y-61002333D01*
X79792285Y-60978142D01*
X79768095Y-60929761D01*
X79768095Y-60905571D01*
X79792285Y-60857190D01*
X79816476Y-60833000D01*
X79864857Y-60808809D01*
X79961619Y-60808809D01*
X80010000Y-60833000D01*
X80034190Y-60857190D01*
X80058380Y-60905571D01*
X80058380Y-60929761D01*
X80034190Y-60978142D01*
X80010000Y-61002333D01*
X79961619Y-61026523D01*
X79864857Y-61026523D01*
X79816476Y-61050714D01*
X79792285Y-61074904D01*
X79768095Y-61123285D01*
X79768095Y-61220047D01*
X79792285Y-61268428D01*
X79816476Y-61292619D01*
X79864857Y-61316809D01*
X79961619Y-61316809D01*
X80010000Y-61292619D01*
X80034190Y-61268428D01*
X80058380Y-61220047D01*
X80058380Y-61123285D01*
X80034190Y-61074904D01*
X80010000Y-61050714D01*
X79961619Y-61026523D01*
X80155142Y-61365190D02*
X80542190Y-61365190D01*
X80759904Y-60808809D02*
X80856666Y-60808809D01*
X80905047Y-60833000D01*
X80953428Y-60881380D01*
X80977619Y-60978142D01*
X80977619Y-61147476D01*
X80953428Y-61244238D01*
X80905047Y-61292619D01*
X80856666Y-61316809D01*
X80759904Y-61316809D01*
X80711523Y-61292619D01*
X80663142Y-61244238D01*
X80638952Y-61147476D01*
X80638952Y-60978142D01*
X80663142Y-60881380D01*
X80711523Y-60833000D01*
X80759904Y-60808809D01*
X81195333Y-60808809D02*
X81195333Y-61220047D01*
X81219523Y-61268428D01*
X81243714Y-61292619D01*
X81292095Y-61316809D01*
X81388857Y-61316809D01*
X81437238Y-61292619D01*
X81461428Y-61268428D01*
X81485619Y-61220047D01*
X81485619Y-60808809D01*
X81654952Y-60808809D02*
X81945238Y-60808809D01*
X81800095Y-61316809D02*
X81800095Y-60808809D01*
X82380666Y-61316809D02*
X82090380Y-61316809D01*
X82235523Y-61316809D02*
X82235523Y-60808809D01*
X82187142Y-60881380D01*
X82138761Y-60929761D01*
X82090380Y-60953952D01*
%TO.C,SW1*%
X118188619Y-97832333D02*
X118212809Y-97759761D01*
X118212809Y-97638809D01*
X118188619Y-97590428D01*
X118164428Y-97566238D01*
X118116047Y-97542047D01*
X118067666Y-97542047D01*
X118019285Y-97566238D01*
X117995095Y-97590428D01*
X117970904Y-97638809D01*
X117946714Y-97735571D01*
X117922523Y-97783952D01*
X117898333Y-97808142D01*
X117849952Y-97832333D01*
X117801571Y-97832333D01*
X117753190Y-97808142D01*
X117729000Y-97783952D01*
X117704809Y-97735571D01*
X117704809Y-97614619D01*
X117729000Y-97542047D01*
X117704809Y-97372714D02*
X118212809Y-97251761D01*
X117849952Y-97155000D01*
X118212809Y-97058238D01*
X117704809Y-96937285D01*
X118212809Y-96477666D02*
X118212809Y-96767952D01*
X118212809Y-96622809D02*
X117704809Y-96622809D01*
X117777380Y-96671190D01*
X117825761Y-96719571D01*
X117849952Y-96767952D01*
%TO.C,C9*%
X86402333Y-100003428D02*
X86378142Y-100027619D01*
X86305571Y-100051809D01*
X86257190Y-100051809D01*
X86184619Y-100027619D01*
X86136238Y-99979238D01*
X86112047Y-99930857D01*
X86087857Y-99834095D01*
X86087857Y-99761523D01*
X86112047Y-99664761D01*
X86136238Y-99616380D01*
X86184619Y-99568000D01*
X86257190Y-99543809D01*
X86305571Y-99543809D01*
X86378142Y-99568000D01*
X86402333Y-99592190D01*
X86644238Y-100051809D02*
X86741000Y-100051809D01*
X86789380Y-100027619D01*
X86813571Y-100003428D01*
X86861952Y-99930857D01*
X86886142Y-99834095D01*
X86886142Y-99640571D01*
X86861952Y-99592190D01*
X86837761Y-99568000D01*
X86789380Y-99543809D01*
X86692619Y-99543809D01*
X86644238Y-99568000D01*
X86620047Y-99592190D01*
X86595857Y-99640571D01*
X86595857Y-99761523D01*
X86620047Y-99809904D01*
X86644238Y-99834095D01*
X86692619Y-99858285D01*
X86789380Y-99858285D01*
X86837761Y-99834095D01*
X86861952Y-99809904D01*
X86886142Y-99761523D01*
%TO.C,L2*%
X89577333Y-60681809D02*
X89335428Y-60681809D01*
X89335428Y-60173809D01*
X89722476Y-60222190D02*
X89746666Y-60198000D01*
X89795047Y-60173809D01*
X89916000Y-60173809D01*
X89964380Y-60198000D01*
X89988571Y-60222190D01*
X90012761Y-60270571D01*
X90012761Y-60318952D01*
X89988571Y-60391523D01*
X89698285Y-60681809D01*
X90012761Y-60681809D01*
%TO.C,J12*%
X104236761Y-61443809D02*
X104236761Y-61806666D01*
X104212571Y-61879238D01*
X104164190Y-61927619D01*
X104091619Y-61951809D01*
X104043238Y-61951809D01*
X104744761Y-61951809D02*
X104454476Y-61951809D01*
X104599619Y-61951809D02*
X104599619Y-61443809D01*
X104551238Y-61516380D01*
X104502857Y-61564761D01*
X104454476Y-61588952D01*
X104938285Y-61492190D02*
X104962476Y-61468000D01*
X105010857Y-61443809D01*
X105131809Y-61443809D01*
X105180190Y-61468000D01*
X105204380Y-61492190D01*
X105228571Y-61540571D01*
X105228571Y-61588952D01*
X105204380Y-61661523D01*
X104914095Y-61951809D01*
X105228571Y-61951809D01*
%TO.C,C3*%
X102150333Y-77016428D02*
X102126142Y-77040619D01*
X102053571Y-77064809D01*
X102005190Y-77064809D01*
X101932619Y-77040619D01*
X101884238Y-76992238D01*
X101860047Y-76943857D01*
X101835857Y-76847095D01*
X101835857Y-76774523D01*
X101860047Y-76677761D01*
X101884238Y-76629380D01*
X101932619Y-76581000D01*
X102005190Y-76556809D01*
X102053571Y-76556809D01*
X102126142Y-76581000D01*
X102150333Y-76605190D01*
X102319666Y-76556809D02*
X102634142Y-76556809D01*
X102464809Y-76750333D01*
X102537380Y-76750333D01*
X102585761Y-76774523D01*
X102609952Y-76798714D01*
X102634142Y-76847095D01*
X102634142Y-76968047D01*
X102609952Y-77016428D01*
X102585761Y-77040619D01*
X102537380Y-77064809D01*
X102392238Y-77064809D01*
X102343857Y-77040619D01*
X102319666Y-77016428D01*
%TO.C,C27*%
X101809428Y-103796428D02*
X101785238Y-103820619D01*
X101712666Y-103844809D01*
X101664285Y-103844809D01*
X101591714Y-103820619D01*
X101543333Y-103772238D01*
X101519142Y-103723857D01*
X101494952Y-103627095D01*
X101494952Y-103554523D01*
X101519142Y-103457761D01*
X101543333Y-103409380D01*
X101591714Y-103361000D01*
X101664285Y-103336809D01*
X101712666Y-103336809D01*
X101785238Y-103361000D01*
X101809428Y-103385190D01*
X102002952Y-103385190D02*
X102027142Y-103361000D01*
X102075523Y-103336809D01*
X102196476Y-103336809D01*
X102244857Y-103361000D01*
X102269047Y-103385190D01*
X102293238Y-103433571D01*
X102293238Y-103481952D01*
X102269047Y-103554523D01*
X101978761Y-103844809D01*
X102293238Y-103844809D01*
X102462571Y-103336809D02*
X102801238Y-103336809D01*
X102583523Y-103844809D01*
D17*
%TO.C,J16*%
X85712904Y-63959619D02*
X85894333Y-63959619D01*
X85930619Y-63971714D01*
X85954809Y-63995904D01*
X85966904Y-64032190D01*
X85966904Y-64056380D01*
X85966904Y-63705619D02*
X85966904Y-63850761D01*
X85966904Y-63778190D02*
X85712904Y-63778190D01*
X85749190Y-63802380D01*
X85773380Y-63826571D01*
X85785476Y-63850761D01*
X85712904Y-63487904D02*
X85712904Y-63536285D01*
X85725000Y-63560476D01*
X85737095Y-63572571D01*
X85773380Y-63596761D01*
X85821761Y-63608857D01*
X85918523Y-63608857D01*
X85942714Y-63596761D01*
X85954809Y-63584666D01*
X85966904Y-63560476D01*
X85966904Y-63512095D01*
X85954809Y-63487904D01*
X85942714Y-63475809D01*
X85918523Y-63463714D01*
X85858047Y-63463714D01*
X85833857Y-63475809D01*
X85821761Y-63487904D01*
X85809666Y-63512095D01*
X85809666Y-63560476D01*
X85821761Y-63584666D01*
X85833857Y-63596761D01*
X85858047Y-63608857D01*
D15*
%TO.C,J24*%
X84551761Y-77191809D02*
X84551761Y-77554666D01*
X84527571Y-77627238D01*
X84479190Y-77675619D01*
X84406619Y-77699809D01*
X84358238Y-77699809D01*
X84769476Y-77240190D02*
X84793666Y-77216000D01*
X84842047Y-77191809D01*
X84963000Y-77191809D01*
X85011380Y-77216000D01*
X85035571Y-77240190D01*
X85059761Y-77288571D01*
X85059761Y-77336952D01*
X85035571Y-77409523D01*
X84745285Y-77699809D01*
X85059761Y-77699809D01*
X85495190Y-77361142D02*
X85495190Y-77699809D01*
X85374238Y-77167619D02*
X85253285Y-77530476D01*
X85567761Y-77530476D01*
%TO.C,C8*%
X85271428Y-92032666D02*
X85295619Y-92056857D01*
X85319809Y-92129428D01*
X85319809Y-92177809D01*
X85295619Y-92250380D01*
X85247238Y-92298761D01*
X85198857Y-92322952D01*
X85102095Y-92347142D01*
X85029523Y-92347142D01*
X84932761Y-92322952D01*
X84884380Y-92298761D01*
X84836000Y-92250380D01*
X84811809Y-92177809D01*
X84811809Y-92129428D01*
X84836000Y-92056857D01*
X84860190Y-92032666D01*
X85029523Y-91742380D02*
X85005333Y-91790761D01*
X84981142Y-91814952D01*
X84932761Y-91839142D01*
X84908571Y-91839142D01*
X84860190Y-91814952D01*
X84836000Y-91790761D01*
X84811809Y-91742380D01*
X84811809Y-91645619D01*
X84836000Y-91597238D01*
X84860190Y-91573047D01*
X84908571Y-91548857D01*
X84932761Y-91548857D01*
X84981142Y-91573047D01*
X85005333Y-91597238D01*
X85029523Y-91645619D01*
X85029523Y-91742380D01*
X85053714Y-91790761D01*
X85077904Y-91814952D01*
X85126285Y-91839142D01*
X85223047Y-91839142D01*
X85271428Y-91814952D01*
X85295619Y-91790761D01*
X85319809Y-91742380D01*
X85319809Y-91645619D01*
X85295619Y-91597238D01*
X85271428Y-91573047D01*
X85223047Y-91548857D01*
X85126285Y-91548857D01*
X85077904Y-91573047D01*
X85053714Y-91597238D01*
X85029523Y-91645619D01*
%TO.C,C20*%
X108639428Y-93798571D02*
X108663619Y-93822761D01*
X108687809Y-93895333D01*
X108687809Y-93943714D01*
X108663619Y-94016285D01*
X108615238Y-94064666D01*
X108566857Y-94088857D01*
X108470095Y-94113047D01*
X108397523Y-94113047D01*
X108300761Y-94088857D01*
X108252380Y-94064666D01*
X108204000Y-94016285D01*
X108179809Y-93943714D01*
X108179809Y-93895333D01*
X108204000Y-93822761D01*
X108228190Y-93798571D01*
X108228190Y-93605047D02*
X108204000Y-93580857D01*
X108179809Y-93532476D01*
X108179809Y-93411523D01*
X108204000Y-93363142D01*
X108228190Y-93338952D01*
X108276571Y-93314761D01*
X108324952Y-93314761D01*
X108397523Y-93338952D01*
X108687809Y-93629238D01*
X108687809Y-93314761D01*
X108179809Y-93000285D02*
X108179809Y-92951904D01*
X108204000Y-92903523D01*
X108228190Y-92879333D01*
X108276571Y-92855142D01*
X108373333Y-92830952D01*
X108494285Y-92830952D01*
X108591047Y-92855142D01*
X108639428Y-92879333D01*
X108663619Y-92903523D01*
X108687809Y-92951904D01*
X108687809Y-93000285D01*
X108663619Y-93048666D01*
X108639428Y-93072857D01*
X108591047Y-93097047D01*
X108494285Y-93121238D01*
X108373333Y-93121238D01*
X108276571Y-93097047D01*
X108228190Y-93072857D01*
X108204000Y-93048666D01*
X108179809Y-93000285D01*
%TO.C,J15*%
X104871761Y-62967809D02*
X104871761Y-63330666D01*
X104847571Y-63403238D01*
X104799190Y-63451619D01*
X104726619Y-63475809D01*
X104678238Y-63475809D01*
X105379761Y-63475809D02*
X105089476Y-63475809D01*
X105234619Y-63475809D02*
X105234619Y-62967809D01*
X105186238Y-63040380D01*
X105137857Y-63088761D01*
X105089476Y-63112952D01*
X105839380Y-62967809D02*
X105597476Y-62967809D01*
X105573285Y-63209714D01*
X105597476Y-63185523D01*
X105645857Y-63161333D01*
X105766809Y-63161333D01*
X105815190Y-63185523D01*
X105839380Y-63209714D01*
X105863571Y-63258095D01*
X105863571Y-63379047D01*
X105839380Y-63427428D01*
X105815190Y-63451619D01*
X105766809Y-63475809D01*
X105645857Y-63475809D01*
X105597476Y-63451619D01*
X105573285Y-63427428D01*
%TO.C,R10*%
X100305809Y-106881571D02*
X100063904Y-107050904D01*
X100305809Y-107171857D02*
X99797809Y-107171857D01*
X99797809Y-106978333D01*
X99822000Y-106929952D01*
X99846190Y-106905761D01*
X99894571Y-106881571D01*
X99967142Y-106881571D01*
X100015523Y-106905761D01*
X100039714Y-106929952D01*
X100063904Y-106978333D01*
X100063904Y-107171857D01*
X100305809Y-106397761D02*
X100305809Y-106688047D01*
X100305809Y-106542904D02*
X99797809Y-106542904D01*
X99870380Y-106591285D01*
X99918761Y-106639666D01*
X99942952Y-106688047D01*
X99797809Y-106083285D02*
X99797809Y-106034904D01*
X99822000Y-105986523D01*
X99846190Y-105962333D01*
X99894571Y-105938142D01*
X99991333Y-105913952D01*
X100112285Y-105913952D01*
X100209047Y-105938142D01*
X100257428Y-105962333D01*
X100281619Y-105986523D01*
X100305809Y-106034904D01*
X100305809Y-106083285D01*
X100281619Y-106131666D01*
X100257428Y-106155857D01*
X100209047Y-106180047D01*
X100112285Y-106204238D01*
X99991333Y-106204238D01*
X99894571Y-106180047D01*
X99846190Y-106155857D01*
X99822000Y-106131666D01*
X99797809Y-106083285D01*
%TO.C,J11*%
X93441761Y-60808809D02*
X93441761Y-61171666D01*
X93417571Y-61244238D01*
X93369190Y-61292619D01*
X93296619Y-61316809D01*
X93248238Y-61316809D01*
X93949761Y-61316809D02*
X93659476Y-61316809D01*
X93804619Y-61316809D02*
X93804619Y-60808809D01*
X93756238Y-60881380D01*
X93707857Y-60929761D01*
X93659476Y-60953952D01*
X94433571Y-61316809D02*
X94143285Y-61316809D01*
X94288428Y-61316809D02*
X94288428Y-60808809D01*
X94240047Y-60881380D01*
X94191666Y-60929761D01*
X94143285Y-60953952D01*
%TO.C,C_1.1_OUT1*%
X84684809Y-62919428D02*
X84660619Y-62943619D01*
X84588047Y-62967809D01*
X84539666Y-62967809D01*
X84467095Y-62943619D01*
X84418714Y-62895238D01*
X84394523Y-62846857D01*
X84370333Y-62750095D01*
X84370333Y-62677523D01*
X84394523Y-62580761D01*
X84418714Y-62532380D01*
X84467095Y-62484000D01*
X84539666Y-62459809D01*
X84588047Y-62459809D01*
X84660619Y-62484000D01*
X84684809Y-62508190D01*
X84781571Y-63016190D02*
X85168619Y-63016190D01*
X85555666Y-62967809D02*
X85265380Y-62967809D01*
X85410523Y-62967809D02*
X85410523Y-62459809D01*
X85362142Y-62532380D01*
X85313761Y-62580761D01*
X85265380Y-62604952D01*
X85773380Y-62919428D02*
X85797571Y-62943619D01*
X85773380Y-62967809D01*
X85749190Y-62943619D01*
X85773380Y-62919428D01*
X85773380Y-62967809D01*
X86281380Y-62967809D02*
X85991095Y-62967809D01*
X86136238Y-62967809D02*
X86136238Y-62459809D01*
X86087857Y-62532380D01*
X86039476Y-62580761D01*
X85991095Y-62604952D01*
X86378142Y-63016190D02*
X86765190Y-63016190D01*
X86982904Y-62459809D02*
X87079666Y-62459809D01*
X87128047Y-62484000D01*
X87176428Y-62532380D01*
X87200619Y-62629142D01*
X87200619Y-62798476D01*
X87176428Y-62895238D01*
X87128047Y-62943619D01*
X87079666Y-62967809D01*
X86982904Y-62967809D01*
X86934523Y-62943619D01*
X86886142Y-62895238D01*
X86861952Y-62798476D01*
X86861952Y-62629142D01*
X86886142Y-62532380D01*
X86934523Y-62484000D01*
X86982904Y-62459809D01*
X87418333Y-62459809D02*
X87418333Y-62871047D01*
X87442523Y-62919428D01*
X87466714Y-62943619D01*
X87515095Y-62967809D01*
X87611857Y-62967809D01*
X87660238Y-62943619D01*
X87684428Y-62919428D01*
X87708619Y-62871047D01*
X87708619Y-62459809D01*
X87877952Y-62459809D02*
X88168238Y-62459809D01*
X88023095Y-62967809D02*
X88023095Y-62459809D01*
X88603666Y-62967809D02*
X88313380Y-62967809D01*
X88458523Y-62967809D02*
X88458523Y-62459809D01*
X88410142Y-62532380D01*
X88361761Y-62580761D01*
X88313380Y-62604952D01*
%TO.C,J23*%
X84297761Y-75794809D02*
X84297761Y-76157666D01*
X84273571Y-76230238D01*
X84225190Y-76278619D01*
X84152619Y-76302809D01*
X84104238Y-76302809D01*
X84515476Y-75843190D02*
X84539666Y-75819000D01*
X84588047Y-75794809D01*
X84709000Y-75794809D01*
X84757380Y-75819000D01*
X84781571Y-75843190D01*
X84805761Y-75891571D01*
X84805761Y-75939952D01*
X84781571Y-76012523D01*
X84491285Y-76302809D01*
X84805761Y-76302809D01*
X84975095Y-75794809D02*
X85289571Y-75794809D01*
X85120238Y-75988333D01*
X85192809Y-75988333D01*
X85241190Y-76012523D01*
X85265380Y-76036714D01*
X85289571Y-76085095D01*
X85289571Y-76206047D01*
X85265380Y-76254428D01*
X85241190Y-76278619D01*
X85192809Y-76302809D01*
X85047666Y-76302809D01*
X84999285Y-76278619D01*
X84975095Y-76254428D01*
%TO.C,R15*%
X111433428Y-85419809D02*
X111264095Y-85177904D01*
X111143142Y-85419809D02*
X111143142Y-84911809D01*
X111336666Y-84911809D01*
X111385047Y-84936000D01*
X111409238Y-84960190D01*
X111433428Y-85008571D01*
X111433428Y-85081142D01*
X111409238Y-85129523D01*
X111385047Y-85153714D01*
X111336666Y-85177904D01*
X111143142Y-85177904D01*
X111917238Y-85419809D02*
X111626952Y-85419809D01*
X111772095Y-85419809D02*
X111772095Y-84911809D01*
X111723714Y-84984380D01*
X111675333Y-85032761D01*
X111626952Y-85056952D01*
X112376857Y-84911809D02*
X112134952Y-84911809D01*
X112110761Y-85153714D01*
X112134952Y-85129523D01*
X112183333Y-85105333D01*
X112304285Y-85105333D01*
X112352666Y-85129523D01*
X112376857Y-85153714D01*
X112401047Y-85202095D01*
X112401047Y-85323047D01*
X112376857Y-85371428D01*
X112352666Y-85395619D01*
X112304285Y-85419809D01*
X112183333Y-85419809D01*
X112134952Y-85395619D01*
X112110761Y-85371428D01*
%TO.C,C19*%
X106226428Y-92002428D02*
X106202238Y-92026619D01*
X106129666Y-92050809D01*
X106081285Y-92050809D01*
X106008714Y-92026619D01*
X105960333Y-91978238D01*
X105936142Y-91929857D01*
X105911952Y-91833095D01*
X105911952Y-91760523D01*
X105936142Y-91663761D01*
X105960333Y-91615380D01*
X106008714Y-91567000D01*
X106081285Y-91542809D01*
X106129666Y-91542809D01*
X106202238Y-91567000D01*
X106226428Y-91591190D01*
X106710238Y-92050809D02*
X106419952Y-92050809D01*
X106565095Y-92050809D02*
X106565095Y-91542809D01*
X106516714Y-91615380D01*
X106468333Y-91663761D01*
X106419952Y-91687952D01*
X106952142Y-92050809D02*
X107048904Y-92050809D01*
X107097285Y-92026619D01*
X107121476Y-92002428D01*
X107169857Y-91929857D01*
X107194047Y-91833095D01*
X107194047Y-91639571D01*
X107169857Y-91591190D01*
X107145666Y-91567000D01*
X107097285Y-91542809D01*
X107000523Y-91542809D01*
X106952142Y-91567000D01*
X106927952Y-91591190D01*
X106903761Y-91639571D01*
X106903761Y-91760523D01*
X106927952Y-91808904D01*
X106952142Y-91833095D01*
X107000523Y-91857285D01*
X107097285Y-91857285D01*
X107145666Y-91833095D01*
X107169857Y-91808904D01*
X107194047Y-91760523D01*
%TO.C,C16*%
X106226428Y-95177428D02*
X106202238Y-95201619D01*
X106129666Y-95225809D01*
X106081285Y-95225809D01*
X106008714Y-95201619D01*
X105960333Y-95153238D01*
X105936142Y-95104857D01*
X105911952Y-95008095D01*
X105911952Y-94935523D01*
X105936142Y-94838761D01*
X105960333Y-94790380D01*
X106008714Y-94742000D01*
X106081285Y-94717809D01*
X106129666Y-94717809D01*
X106202238Y-94742000D01*
X106226428Y-94766190D01*
X106710238Y-95225809D02*
X106419952Y-95225809D01*
X106565095Y-95225809D02*
X106565095Y-94717809D01*
X106516714Y-94790380D01*
X106468333Y-94838761D01*
X106419952Y-94862952D01*
X107145666Y-94717809D02*
X107048904Y-94717809D01*
X107000523Y-94742000D01*
X106976333Y-94766190D01*
X106927952Y-94838761D01*
X106903761Y-94935523D01*
X106903761Y-95129047D01*
X106927952Y-95177428D01*
X106952142Y-95201619D01*
X107000523Y-95225809D01*
X107097285Y-95225809D01*
X107145666Y-95201619D01*
X107169857Y-95177428D01*
X107194047Y-95129047D01*
X107194047Y-95008095D01*
X107169857Y-94959714D01*
X107145666Y-94935523D01*
X107097285Y-94911333D01*
X107000523Y-94911333D01*
X106952142Y-94935523D01*
X106927952Y-94959714D01*
X106903761Y-95008095D01*
%TO.C,R6*%
X106872333Y-64364809D02*
X106703000Y-64122904D01*
X106582047Y-64364809D02*
X106582047Y-63856809D01*
X106775571Y-63856809D01*
X106823952Y-63881000D01*
X106848142Y-63905190D01*
X106872333Y-63953571D01*
X106872333Y-64026142D01*
X106848142Y-64074523D01*
X106823952Y-64098714D01*
X106775571Y-64122904D01*
X106582047Y-64122904D01*
X107307761Y-63856809D02*
X107211000Y-63856809D01*
X107162619Y-63881000D01*
X107138428Y-63905190D01*
X107090047Y-63977761D01*
X107065857Y-64074523D01*
X107065857Y-64268047D01*
X107090047Y-64316428D01*
X107114238Y-64340619D01*
X107162619Y-64364809D01*
X107259380Y-64364809D01*
X107307761Y-64340619D01*
X107331952Y-64316428D01*
X107356142Y-64268047D01*
X107356142Y-64147095D01*
X107331952Y-64098714D01*
X107307761Y-64074523D01*
X107259380Y-64050333D01*
X107162619Y-64050333D01*
X107114238Y-64074523D01*
X107090047Y-64098714D01*
X107065857Y-64147095D01*
%TO.C,C30*%
X98098428Y-103796428D02*
X98074238Y-103820619D01*
X98001666Y-103844809D01*
X97953285Y-103844809D01*
X97880714Y-103820619D01*
X97832333Y-103772238D01*
X97808142Y-103723857D01*
X97783952Y-103627095D01*
X97783952Y-103554523D01*
X97808142Y-103457761D01*
X97832333Y-103409380D01*
X97880714Y-103361000D01*
X97953285Y-103336809D01*
X98001666Y-103336809D01*
X98074238Y-103361000D01*
X98098428Y-103385190D01*
X98267761Y-103336809D02*
X98582238Y-103336809D01*
X98412904Y-103530333D01*
X98485476Y-103530333D01*
X98533857Y-103554523D01*
X98558047Y-103578714D01*
X98582238Y-103627095D01*
X98582238Y-103748047D01*
X98558047Y-103796428D01*
X98533857Y-103820619D01*
X98485476Y-103844809D01*
X98340333Y-103844809D01*
X98291952Y-103820619D01*
X98267761Y-103796428D01*
X98896714Y-103336809D02*
X98945095Y-103336809D01*
X98993476Y-103361000D01*
X99017666Y-103385190D01*
X99041857Y-103433571D01*
X99066047Y-103530333D01*
X99066047Y-103651285D01*
X99041857Y-103748047D01*
X99017666Y-103796428D01*
X98993476Y-103820619D01*
X98945095Y-103844809D01*
X98896714Y-103844809D01*
X98848333Y-103820619D01*
X98824142Y-103796428D01*
X98799952Y-103748047D01*
X98775761Y-103651285D01*
X98775761Y-103530333D01*
X98799952Y-103433571D01*
X98824142Y-103385190D01*
X98848333Y-103361000D01*
X98896714Y-103336809D01*
D17*
%TO.C,J14*%
X87363904Y-63959619D02*
X87545333Y-63959619D01*
X87581619Y-63971714D01*
X87605809Y-63995904D01*
X87617904Y-64032190D01*
X87617904Y-64056380D01*
X87617904Y-63705619D02*
X87617904Y-63850761D01*
X87617904Y-63778190D02*
X87363904Y-63778190D01*
X87400190Y-63802380D01*
X87424380Y-63826571D01*
X87436476Y-63850761D01*
X87448571Y-63487904D02*
X87617904Y-63487904D01*
X87351809Y-63548380D02*
X87533238Y-63608857D01*
X87533238Y-63451619D01*
D15*
%TO.C,J1*%
X82634666Y-74270809D02*
X82634666Y-74633666D01*
X82610476Y-74706238D01*
X82562095Y-74754619D01*
X82489523Y-74778809D01*
X82441142Y-74778809D01*
X83142666Y-74778809D02*
X82852380Y-74778809D01*
X82997523Y-74778809D02*
X82997523Y-74270809D01*
X82949142Y-74343380D01*
X82900761Y-74391761D01*
X82852380Y-74415952D01*
%TO.C,J6*%
X80983666Y-110211809D02*
X80983666Y-110574666D01*
X80959476Y-110647238D01*
X80911095Y-110695619D01*
X80838523Y-110719809D01*
X80790142Y-110719809D01*
X81443285Y-110211809D02*
X81346523Y-110211809D01*
X81298142Y-110236000D01*
X81273952Y-110260190D01*
X81225571Y-110332761D01*
X81201380Y-110429523D01*
X81201380Y-110623047D01*
X81225571Y-110671428D01*
X81249761Y-110695619D01*
X81298142Y-110719809D01*
X81394904Y-110719809D01*
X81443285Y-110695619D01*
X81467476Y-110671428D01*
X81491666Y-110623047D01*
X81491666Y-110502095D01*
X81467476Y-110453714D01*
X81443285Y-110429523D01*
X81394904Y-110405333D01*
X81298142Y-110405333D01*
X81249761Y-110429523D01*
X81225571Y-110453714D01*
X81201380Y-110502095D01*
%TO.C,C28*%
X105873428Y-103796428D02*
X105849238Y-103820619D01*
X105776666Y-103844809D01*
X105728285Y-103844809D01*
X105655714Y-103820619D01*
X105607333Y-103772238D01*
X105583142Y-103723857D01*
X105558952Y-103627095D01*
X105558952Y-103554523D01*
X105583142Y-103457761D01*
X105607333Y-103409380D01*
X105655714Y-103361000D01*
X105728285Y-103336809D01*
X105776666Y-103336809D01*
X105849238Y-103361000D01*
X105873428Y-103385190D01*
X106066952Y-103385190D02*
X106091142Y-103361000D01*
X106139523Y-103336809D01*
X106260476Y-103336809D01*
X106308857Y-103361000D01*
X106333047Y-103385190D01*
X106357238Y-103433571D01*
X106357238Y-103481952D01*
X106333047Y-103554523D01*
X106042761Y-103844809D01*
X106357238Y-103844809D01*
X106647523Y-103554523D02*
X106599142Y-103530333D01*
X106574952Y-103506142D01*
X106550761Y-103457761D01*
X106550761Y-103433571D01*
X106574952Y-103385190D01*
X106599142Y-103361000D01*
X106647523Y-103336809D01*
X106744285Y-103336809D01*
X106792666Y-103361000D01*
X106816857Y-103385190D01*
X106841047Y-103433571D01*
X106841047Y-103457761D01*
X106816857Y-103506142D01*
X106792666Y-103530333D01*
X106744285Y-103554523D01*
X106647523Y-103554523D01*
X106599142Y-103578714D01*
X106574952Y-103602904D01*
X106550761Y-103651285D01*
X106550761Y-103748047D01*
X106574952Y-103796428D01*
X106599142Y-103820619D01*
X106647523Y-103844809D01*
X106744285Y-103844809D01*
X106792666Y-103820619D01*
X106816857Y-103796428D01*
X106841047Y-103748047D01*
X106841047Y-103651285D01*
X106816857Y-103602904D01*
X106792666Y-103578714D01*
X106744285Y-103554523D01*
%TO.C,L1*%
X77699809Y-63457666D02*
X77699809Y-63699571D01*
X77191809Y-63699571D01*
X77699809Y-63022238D02*
X77699809Y-63312523D01*
X77699809Y-63167380D02*
X77191809Y-63167380D01*
X77264380Y-63215761D01*
X77312761Y-63264142D01*
X77336952Y-63312523D01*
%TO.C,J18*%
X104871761Y-65380809D02*
X104871761Y-65743666D01*
X104847571Y-65816238D01*
X104799190Y-65864619D01*
X104726619Y-65888809D01*
X104678238Y-65888809D01*
X105379761Y-65888809D02*
X105089476Y-65888809D01*
X105234619Y-65888809D02*
X105234619Y-65380809D01*
X105186238Y-65453380D01*
X105137857Y-65501761D01*
X105089476Y-65525952D01*
X105670047Y-65598523D02*
X105621666Y-65574333D01*
X105597476Y-65550142D01*
X105573285Y-65501761D01*
X105573285Y-65477571D01*
X105597476Y-65429190D01*
X105621666Y-65405000D01*
X105670047Y-65380809D01*
X105766809Y-65380809D01*
X105815190Y-65405000D01*
X105839380Y-65429190D01*
X105863571Y-65477571D01*
X105863571Y-65501761D01*
X105839380Y-65550142D01*
X105815190Y-65574333D01*
X105766809Y-65598523D01*
X105670047Y-65598523D01*
X105621666Y-65622714D01*
X105597476Y-65646904D01*
X105573285Y-65695285D01*
X105573285Y-65792047D01*
X105597476Y-65840428D01*
X105621666Y-65864619D01*
X105670047Y-65888809D01*
X105766809Y-65888809D01*
X105815190Y-65864619D01*
X105839380Y-65840428D01*
X105863571Y-65792047D01*
X105863571Y-65695285D01*
X105839380Y-65646904D01*
X105815190Y-65622714D01*
X105766809Y-65598523D01*
%TO.C,C_1.1_IN1*%
X79435476Y-59998428D02*
X79411285Y-60022619D01*
X79338714Y-60046809D01*
X79290333Y-60046809D01*
X79217761Y-60022619D01*
X79169380Y-59974238D01*
X79145190Y-59925857D01*
X79121000Y-59829095D01*
X79121000Y-59756523D01*
X79145190Y-59659761D01*
X79169380Y-59611380D01*
X79217761Y-59563000D01*
X79290333Y-59538809D01*
X79338714Y-59538809D01*
X79411285Y-59563000D01*
X79435476Y-59587190D01*
X79532238Y-60095190D02*
X79919285Y-60095190D01*
X80306333Y-60046809D02*
X80016047Y-60046809D01*
X80161190Y-60046809D02*
X80161190Y-59538809D01*
X80112809Y-59611380D01*
X80064428Y-59659761D01*
X80016047Y-59683952D01*
X80524047Y-59998428D02*
X80548238Y-60022619D01*
X80524047Y-60046809D01*
X80499857Y-60022619D01*
X80524047Y-59998428D01*
X80524047Y-60046809D01*
X81032047Y-60046809D02*
X80741761Y-60046809D01*
X80886904Y-60046809D02*
X80886904Y-59538809D01*
X80838523Y-59611380D01*
X80790142Y-59659761D01*
X80741761Y-59683952D01*
X81128809Y-60095190D02*
X81515857Y-60095190D01*
X81636809Y-60046809D02*
X81636809Y-59538809D01*
X81878714Y-60046809D02*
X81878714Y-59538809D01*
X82169000Y-60046809D01*
X82169000Y-59538809D01*
X82677000Y-60046809D02*
X82386714Y-60046809D01*
X82531857Y-60046809D02*
X82531857Y-59538809D01*
X82483476Y-59611380D01*
X82435095Y-59659761D01*
X82386714Y-59683952D01*
%TO.C,J2*%
X116693809Y-89704333D02*
X117056666Y-89704333D01*
X117129238Y-89728523D01*
X117177619Y-89776904D01*
X117201809Y-89849476D01*
X117201809Y-89897857D01*
X116742190Y-89486619D02*
X116718000Y-89462428D01*
X116693809Y-89414047D01*
X116693809Y-89293095D01*
X116718000Y-89244714D01*
X116742190Y-89220523D01*
X116790571Y-89196333D01*
X116838952Y-89196333D01*
X116911523Y-89220523D01*
X117201809Y-89510809D01*
X117201809Y-89196333D01*
%TO.C,C4*%
X103547333Y-77016428D02*
X103523142Y-77040619D01*
X103450571Y-77064809D01*
X103402190Y-77064809D01*
X103329619Y-77040619D01*
X103281238Y-76992238D01*
X103257047Y-76943857D01*
X103232857Y-76847095D01*
X103232857Y-76774523D01*
X103257047Y-76677761D01*
X103281238Y-76629380D01*
X103329619Y-76581000D01*
X103402190Y-76556809D01*
X103450571Y-76556809D01*
X103523142Y-76581000D01*
X103547333Y-76605190D01*
X103982761Y-76726142D02*
X103982761Y-77064809D01*
X103861809Y-76532619D02*
X103740857Y-76895476D01*
X104055333Y-76895476D01*
D18*
%TO.C,C26*%
X81428000Y-91956836D02*
X81428000Y-91741164D01*
X82148000Y-91956836D02*
X82148000Y-91741164D01*
%TO.C,C23*%
X106849164Y-66188000D02*
X107064836Y-66188000D01*
X106849164Y-66908000D02*
X107064836Y-66908000D01*
%TO.C,R7*%
X94995000Y-106073641D02*
X94995000Y-105766359D01*
X94235000Y-106073641D02*
X94235000Y-105766359D01*
%TO.C,R9*%
X97410000Y-106833641D02*
X97410000Y-106526359D01*
X98170000Y-106833641D02*
X98170000Y-106526359D01*
%TO.C,C15*%
X107139000Y-99421836D02*
X107139000Y-99206164D01*
X106419000Y-99421836D02*
X106419000Y-99206164D01*
%TO.C,C25*%
X85959836Y-79100000D02*
X85744164Y-79100000D01*
X85959836Y-78380000D02*
X85744164Y-78380000D01*
%TO.C,R14*%
X106300000Y-106708641D02*
X106300000Y-106401359D01*
X107060000Y-106708641D02*
X107060000Y-106401359D01*
%TO.C,U3*%
X81638000Y-93861000D02*
X81638000Y-94861000D01*
X79398000Y-95861000D02*
X79398000Y-93861000D01*
%TO.C,C5*%
X94636000Y-60559836D02*
X94636000Y-60344164D01*
X95356000Y-60559836D02*
X95356000Y-60344164D01*
%TO.C,C24*%
X85982836Y-74316000D02*
X85767164Y-74316000D01*
X85982836Y-75036000D02*
X85767164Y-75036000D01*
%TO.C,C2*%
X110596000Y-61083164D02*
X110596000Y-61298836D01*
X109876000Y-61083164D02*
X109876000Y-61298836D01*
%TO.C,C22*%
X100817000Y-60240164D02*
X100817000Y-60455836D01*
X100097000Y-60240164D02*
X100097000Y-60455836D01*
%TO.C,R3*%
X109858641Y-62866000D02*
X109551359Y-62866000D01*
X109858641Y-63626000D02*
X109551359Y-63626000D01*
%TO.C,C_1.8_IN1*%
X84180000Y-63669164D02*
X84180000Y-63884836D01*
X83460000Y-63669164D02*
X83460000Y-63884836D01*
%TO.C,R12*%
X102490000Y-106708641D02*
X102490000Y-106401359D01*
X103250000Y-106708641D02*
X103250000Y-106401359D01*
%TO.C,R11*%
X101980000Y-106708641D02*
X101980000Y-106401359D01*
X101220000Y-106708641D02*
X101220000Y-106401359D01*
D12*
%TO.C,U2*%
X86006000Y-61430000D02*
X84406000Y-61430000D01*
X86006000Y-59490000D02*
X84406000Y-59490000D01*
D10*
X86856000Y-60960000D02*
G75*
G03*
X86856000Y-60960000I-50000J0D01*
G01*
D18*
%TO.C,C14*%
X105302164Y-100986000D02*
X105517836Y-100986000D01*
X105302164Y-101706000D02*
X105517836Y-101706000D01*
%TO.C,R13*%
X105030000Y-106833641D02*
X105030000Y-106526359D01*
X105790000Y-106833641D02*
X105790000Y-106526359D01*
%TO.C,R4*%
X109551359Y-64898000D02*
X109858641Y-64898000D01*
X109551359Y-65658000D02*
X109858641Y-65658000D01*
%TO.C,C21*%
X98192000Y-60240164D02*
X98192000Y-60455836D01*
X98912000Y-60240164D02*
X98912000Y-60455836D01*
%TO.C,C6*%
X79891836Y-92181000D02*
X79676164Y-92181000D01*
X79891836Y-91461000D02*
X79676164Y-91461000D01*
%TO.C,R8*%
X95505000Y-106073641D02*
X95505000Y-105766359D01*
X96265000Y-106073641D02*
X96265000Y-105766359D01*
%TO.C,R2*%
X103252000Y-87222359D02*
X103252000Y-87529641D01*
X104012000Y-87222359D02*
X104012000Y-87529641D01*
%TO.C,C11*%
X88244000Y-91967164D02*
X88244000Y-92182836D01*
X87524000Y-91967164D02*
X87524000Y-92182836D01*
%TO.C,C13*%
X106447000Y-96627836D02*
X106447000Y-96412164D01*
X107167000Y-96627836D02*
X107167000Y-96412164D01*
%TO.C,R1*%
X100839000Y-86968359D02*
X100839000Y-87275641D01*
X101599000Y-86968359D02*
X101599000Y-87275641D01*
%TO.C,C12*%
X105177000Y-96627836D02*
X105177000Y-96412164D01*
X105897000Y-96627836D02*
X105897000Y-96412164D01*
D12*
%TO.C,U1*%
X81104000Y-62538000D02*
X82704000Y-62538000D01*
X81104000Y-64478000D02*
X82704000Y-64478000D01*
D10*
X80354000Y-63008000D02*
G75*
G03*
X80354000Y-63008000I-50000J0D01*
G01*
D18*
%TO.C,R5*%
X97154000Y-60321359D02*
X97154000Y-60628641D01*
X96394000Y-60321359D02*
X96394000Y-60628641D01*
%TO.C,C29*%
X95142164Y-103780000D02*
X95357836Y-103780000D01*
X95142164Y-104500000D02*
X95357836Y-104500000D01*
%TO.C,C17*%
X83927836Y-96414000D02*
X83712164Y-96414000D01*
X83927836Y-97134000D02*
X83712164Y-97134000D01*
%TO.C,U4*%
X91405000Y-101630000D02*
X92355000Y-101630000D01*
X92355000Y-101630000D02*
X92355000Y-102920000D01*
X101625000Y-91410000D02*
X100675000Y-91410000D01*
X101625000Y-100680000D02*
X101625000Y-101630000D01*
X91405000Y-100680000D02*
X91405000Y-101630000D01*
X91405000Y-91410000D02*
X92355000Y-91410000D01*
X101625000Y-92360000D02*
X101625000Y-91410000D01*
X101625000Y-101630000D02*
X100675000Y-101630000D01*
X91405000Y-92360000D02*
X91405000Y-91410000D01*
%TO.C,C18*%
X83927836Y-96118000D02*
X83712164Y-96118000D01*
X83927836Y-95398000D02*
X83712164Y-95398000D01*
%TO.C,C7*%
X80625836Y-96160000D02*
X80410164Y-96160000D01*
X80625836Y-96880000D02*
X80410164Y-96880000D01*
%TO.C,J7*%
X103692000Y-108525000D02*
X88392000Y-108525000D01*
X106292000Y-108525000D02*
X106292000Y-109855000D01*
X106292000Y-113725000D02*
X88392000Y-113725000D01*
X88392000Y-108525000D02*
X88392000Y-113725000D01*
X106292000Y-111125000D02*
X106292000Y-113725000D01*
X103692000Y-111125000D02*
X106292000Y-111125000D01*
X104962000Y-108525000D02*
X106292000Y-108525000D01*
X103692000Y-108525000D02*
X103692000Y-111125000D01*
%TO.C,U5*%
X90370000Y-74788000D02*
X90370000Y-73838000D01*
X91320000Y-62488000D02*
X90120000Y-62488000D01*
X101720000Y-62488000D02*
X102670000Y-62488000D01*
X101720000Y-74788000D02*
X102670000Y-74788000D01*
X102670000Y-74788000D02*
X102670000Y-73838000D01*
X91320000Y-74788000D02*
X90370000Y-74788000D01*
X102670000Y-62488000D02*
X102670000Y-63438000D01*
%TO.C,C10*%
X90658836Y-88117000D02*
X90443164Y-88117000D01*
X90658836Y-87397000D02*
X90443164Y-87397000D01*
%TO.C,C1*%
X107844000Y-61083164D02*
X107844000Y-61298836D01*
X108564000Y-61083164D02*
X108564000Y-61298836D01*
%TO.C,C_1.8_OUT1*%
X81618836Y-61616000D02*
X81403164Y-61616000D01*
X81618836Y-62336000D02*
X81403164Y-62336000D01*
%TO.C,SW1*%
X114542000Y-93274000D02*
X113042000Y-93274000D01*
X117042000Y-99024000D02*
X117042000Y-94524000D01*
X113042000Y-100274000D02*
X114542000Y-100274000D01*
X110542000Y-94524000D02*
X110542000Y-99024000D01*
%TO.C,C9*%
X86101600Y-98532836D02*
X86101600Y-98317164D01*
X86821600Y-98532836D02*
X86821600Y-98317164D01*
%TO.C,L2*%
X88784000Y-60843000D02*
X88784000Y-60643000D01*
X86984000Y-60843000D02*
X86984000Y-60643000D01*
%TO.C,C3*%
X101875000Y-78124164D02*
X101875000Y-78339836D01*
X102595000Y-78124164D02*
X102595000Y-78339836D01*
%TO.C,C27*%
X102028164Y-105135000D02*
X102243836Y-105135000D01*
X102028164Y-104415000D02*
X102243836Y-104415000D01*
%TO.C,C8*%
X83714000Y-92055836D02*
X83714000Y-91840164D01*
X84434000Y-92055836D02*
X84434000Y-91840164D01*
%TO.C,C20*%
X106037748Y-94207000D02*
X106560252Y-94207000D01*
X106037748Y-92737000D02*
X106560252Y-92737000D01*
%TO.C,R10*%
X98680000Y-106708641D02*
X98680000Y-106401359D01*
X99440000Y-106708641D02*
X99440000Y-106401359D01*
%TO.C,C_1.1_OUT1*%
X85513164Y-61616000D02*
X85728836Y-61616000D01*
X85513164Y-62336000D02*
X85728836Y-62336000D01*
%TO.C,R15*%
X111606359Y-85980000D02*
X111913641Y-85980000D01*
X111606359Y-86740000D02*
X111913641Y-86740000D01*
%TO.C,C19*%
X104667164Y-92181000D02*
X104882836Y-92181000D01*
X104667164Y-91461000D02*
X104882836Y-91461000D01*
%TO.C,C16*%
X104667164Y-94636000D02*
X104882836Y-94636000D01*
X104667164Y-95356000D02*
X104882836Y-95356000D01*
%TO.C,R6*%
X106803359Y-64644000D02*
X107110641Y-64644000D01*
X106803359Y-65404000D02*
X107110641Y-65404000D01*
%TO.C,C30*%
X98317164Y-105135000D02*
X98532836Y-105135000D01*
X98317164Y-104415000D02*
X98532836Y-104415000D01*
%TO.C,J6*%
X80903000Y-108978000D02*
X80903000Y-108368000D01*
X79403000Y-105918000D02*
X79903000Y-105918000D01*
X82203000Y-108978000D02*
X82203000Y-108368000D01*
X82903000Y-103468000D02*
X79403000Y-103468000D01*
X83713000Y-104618000D02*
X83713000Y-104318000D01*
X79903000Y-106018000D02*
X79403000Y-106018000D01*
X83513000Y-102858000D02*
X78793000Y-102858000D01*
X79403000Y-105818000D02*
X79903000Y-105818000D01*
X78793000Y-108978000D02*
X83513000Y-108978000D01*
X78793000Y-102858000D02*
X78793000Y-108978000D01*
X83813000Y-102558000D02*
X82563000Y-102558000D01*
X79903000Y-105818000D02*
X79903000Y-106018000D01*
X82903000Y-105418000D02*
X82903000Y-103468000D01*
X83613000Y-104618000D02*
X83613000Y-104318000D01*
X82903000Y-108368000D02*
X82903000Y-106418000D01*
X82203000Y-102858000D02*
X82203000Y-103468000D01*
X79403000Y-103468000D02*
X79403000Y-108368000D01*
X83713000Y-104318000D02*
X83513000Y-104318000D01*
X82903000Y-106418000D02*
X83513000Y-106418000D01*
X83813000Y-103808000D02*
X83813000Y-102558000D01*
X79403000Y-108368000D02*
X82903000Y-108368000D01*
X83513000Y-105418000D02*
X82903000Y-105418000D01*
X80903000Y-102858000D02*
X80903000Y-103468000D01*
X83513000Y-104618000D02*
X83713000Y-104618000D01*
X83513000Y-108978000D02*
X83513000Y-102858000D01*
%TO.C,C28*%
X106092164Y-104415000D02*
X106307836Y-104415000D01*
X106092164Y-105135000D02*
X106307836Y-105135000D01*
%TO.C,L1*%
X78348000Y-63183000D02*
X78348000Y-63383000D01*
X80148000Y-63183000D02*
X80148000Y-63383000D01*
%TO.C,C_1.1_IN1*%
X82952000Y-60328836D02*
X82952000Y-60113164D01*
X83672000Y-60328836D02*
X83672000Y-60113164D01*
%TO.C,J2*%
X113030000Y-88205000D02*
X115630000Y-88205000D01*
X113030000Y-90865000D02*
X113030000Y-88205000D01*
X110430000Y-90865000D02*
X110430000Y-89535000D01*
X113030000Y-90865000D02*
X115630000Y-90865000D01*
X115630000Y-90865000D02*
X115630000Y-88205000D01*
X111760000Y-90865000D02*
X110430000Y-90865000D01*
%TO.C,C4*%
X103272000Y-78124164D02*
X103272000Y-78339836D01*
X103992000Y-78124164D02*
X103992000Y-78339836D01*
%TD*%
M02*
