%TF.GenerationSoftware,KiCad,Pcbnew,(6.0.7)*%
%TF.CreationDate,2022-09-29T10:24:13-07:00*%
%TF.ProjectId,sulu_ads1299,73756c75-5f61-4647-9331-3239392e6b69,rev?*%
%TF.SameCoordinates,Original*%
%TF.FileFunction,Soldermask,Top*%
%TF.FilePolarity,Negative*%
%FSLAX46Y46*%
G04 Gerber Fmt 4.6, Leading zero omitted, Abs format (unit mm)*
G04 Created by KiCad (PCBNEW (6.0.7)) date 2022-09-29 10:24:13*
%MOMM*%
%LPD*%
G01*
G04 APERTURE LIST*
G04 Aperture macros list*
%AMRoundRect*
0 Rectangle with rounded corners*
0 $1 Rounding radius*
0 $2 $3 $4 $5 $6 $7 $8 $9 X,Y pos of 4 corners*
0 Add a 4 corners polygon primitive as box body*
4,1,4,$2,$3,$4,$5,$6,$7,$8,$9,$2,$3,0*
0 Add four circle primitives for the rounded corners*
1,1,$1+$1,$2,$3*
1,1,$1+$1,$4,$5*
1,1,$1+$1,$6,$7*
1,1,$1+$1,$8,$9*
0 Add four rect primitives between the rounded corners*
20,1,$1+$1,$2,$3,$4,$5,0*
20,1,$1+$1,$4,$5,$6,$7,0*
20,1,$1+$1,$6,$7,$8,$9,0*
20,1,$1+$1,$8,$9,$2,$3,0*%
G04 Aperture macros list end*
%ADD10RoundRect,0.140000X0.170000X-0.140000X0.170000X0.140000X-0.170000X0.140000X-0.170000X-0.140000X0*%
%ADD11RoundRect,0.140000X-0.140000X-0.170000X0.140000X-0.170000X0.140000X0.170000X-0.140000X0.170000X0*%
%ADD12C,0.762000*%
%ADD13RoundRect,0.135000X0.185000X-0.135000X0.185000X0.135000X-0.185000X0.135000X-0.185000X-0.135000X0*%
%ADD14RoundRect,0.140000X0.140000X0.170000X-0.140000X0.170000X-0.140000X-0.170000X0.140000X-0.170000X0*%
%ADD15R,0.250000X0.500000*%
%ADD16R,1.600000X0.900000*%
%ADD17RoundRect,0.140000X-0.170000X0.140000X-0.170000X-0.140000X0.170000X-0.140000X0.170000X0.140000X0*%
%ADD18RoundRect,0.135000X0.135000X0.185000X-0.135000X0.185000X-0.135000X-0.185000X0.135000X-0.185000X0*%
%ADD19R,0.500000X0.300000*%
%ADD20RoundRect,0.135000X-0.135000X-0.185000X0.135000X-0.185000X0.135000X0.185000X-0.135000X0.185000X0*%
%ADD21RoundRect,0.135000X-0.185000X0.135000X-0.185000X-0.135000X0.185000X-0.135000X0.185000X0.135000X0*%
%ADD22RoundRect,0.075000X0.075000X-0.662500X0.075000X0.662500X-0.075000X0.662500X-0.075000X-0.662500X0*%
%ADD23RoundRect,0.075000X0.662500X-0.075000X0.662500X0.075000X-0.662500X0.075000X-0.662500X-0.075000X0*%
%ADD24R,1.700000X1.700000*%
%ADD25O,1.700000X1.700000*%
%ADD26O,0.800000X0.200000*%
%ADD27O,0.200000X0.800000*%
%ADD28C,0.568750*%
%ADD29R,1.137500X1.137500*%
%ADD30C,2.000000*%
%ADD31R,1.900000X0.850000*%
%ADD32RoundRect,0.250000X-0.250000X-0.475000X0.250000X-0.475000X0.250000X0.475000X-0.250000X0.475000X0*%
%ADD33C,2.400000*%
%ADD34RoundRect,0.250000X-0.625000X0.350000X-0.625000X-0.350000X0.625000X-0.350000X0.625000X0.350000X0*%
%ADD35O,1.750000X1.200000*%
G04 APERTURE END LIST*
D10*
%TO.C,C26*%
X81788000Y-92329000D03*
X81788000Y-91369000D03*
%TD*%
D11*
%TO.C,C23*%
X106477000Y-66548000D03*
X107437000Y-66548000D03*
%TD*%
D12*
%TO.C,J8*%
X98679000Y-87884000D03*
%TD*%
D13*
%TO.C,R7*%
X94615000Y-106430000D03*
X94615000Y-105410000D03*
%TD*%
%TO.C,R9*%
X97790000Y-107190000D03*
X97790000Y-106170000D03*
%TD*%
D10*
%TO.C,C15*%
X106779000Y-99794000D03*
X106779000Y-98834000D03*
%TD*%
D14*
%TO.C,C25*%
X86332000Y-78740000D03*
X85372000Y-78740000D03*
%TD*%
D13*
%TO.C,R14*%
X106680000Y-107065000D03*
X106680000Y-106045000D03*
%TD*%
D15*
%TO.C,U3*%
X79768000Y-95311000D03*
X80268000Y-95311000D03*
X80768000Y-95311000D03*
X81268000Y-95311000D03*
X81268000Y-93411000D03*
X80768000Y-93411000D03*
X80268000Y-93411000D03*
X79768000Y-93411000D03*
D16*
X80518000Y-94361000D03*
%TD*%
D10*
%TO.C,C5*%
X94996000Y-60932000D03*
X94996000Y-59972000D03*
%TD*%
D14*
%TO.C,C24*%
X86355000Y-74676000D03*
X85395000Y-74676000D03*
%TD*%
D17*
%TO.C,C2*%
X110236000Y-60711000D03*
X110236000Y-61671000D03*
%TD*%
%TO.C,C22*%
X100457000Y-59868000D03*
X100457000Y-60828000D03*
%TD*%
D12*
%TO.C,J19*%
X104648000Y-67564000D03*
%TD*%
D18*
%TO.C,R3*%
X110215000Y-63246000D03*
X109195000Y-63246000D03*
%TD*%
D12*
%TO.C,J21*%
X108585000Y-70993000D03*
%TD*%
D17*
%TO.C,C_1.8_IN1*%
X83820000Y-63297000D03*
X83820000Y-64257000D03*
%TD*%
D12*
%TO.C,J10*%
X92456000Y-60198000D03*
%TD*%
D13*
%TO.C,R12*%
X102870000Y-107065000D03*
X102870000Y-106045000D03*
%TD*%
%TO.C,R11*%
X101600000Y-107065000D03*
X101600000Y-106045000D03*
%TD*%
D19*
%TO.C,U2*%
X86106000Y-60960000D03*
X86106000Y-60460000D03*
X86106000Y-59960000D03*
X84306000Y-59960000D03*
X84306000Y-60460000D03*
X84306000Y-60960000D03*
%TD*%
D11*
%TO.C,C14*%
X104930000Y-101346000D03*
X105890000Y-101346000D03*
%TD*%
D13*
%TO.C,R13*%
X105410000Y-107190000D03*
X105410000Y-106170000D03*
%TD*%
D20*
%TO.C,R4*%
X109195000Y-65278000D03*
X110215000Y-65278000D03*
%TD*%
D17*
%TO.C,C21*%
X98552000Y-59868000D03*
X98552000Y-60828000D03*
%TD*%
D12*
%TO.C,J17*%
X103759000Y-66675000D03*
%TD*%
D14*
%TO.C,C6*%
X80264000Y-91821000D03*
X79304000Y-91821000D03*
%TD*%
D13*
%TO.C,R8*%
X95885000Y-106430000D03*
X95885000Y-105410000D03*
%TD*%
D21*
%TO.C,R2*%
X103632000Y-86866000D03*
X103632000Y-87886000D03*
%TD*%
D17*
%TO.C,C11*%
X87884000Y-91595000D03*
X87884000Y-92555000D03*
%TD*%
D10*
%TO.C,C13*%
X106807000Y-97000000D03*
X106807000Y-96040000D03*
%TD*%
D21*
%TO.C,R1*%
X101219000Y-86612000D03*
X101219000Y-87632000D03*
%TD*%
D10*
%TO.C,C12*%
X105537000Y-97000000D03*
X105537000Y-96040000D03*
%TD*%
D19*
%TO.C,U1*%
X81004000Y-63008000D03*
X81004000Y-63508000D03*
X81004000Y-64008000D03*
X82804000Y-64008000D03*
X82804000Y-63508000D03*
X82804000Y-63008000D03*
%TD*%
D21*
%TO.C,R5*%
X96774000Y-59965000D03*
X96774000Y-60985000D03*
%TD*%
D11*
%TO.C,C29*%
X94770000Y-104140000D03*
X95730000Y-104140000D03*
%TD*%
D14*
%TO.C,C17*%
X84300000Y-96774000D03*
X83340000Y-96774000D03*
%TD*%
D22*
%TO.C,U4*%
X92765000Y-102182500D03*
X93265000Y-102182500D03*
X93765000Y-102182500D03*
X94265000Y-102182500D03*
X94765000Y-102182500D03*
X95265000Y-102182500D03*
X95765000Y-102182500D03*
X96265000Y-102182500D03*
X96765000Y-102182500D03*
X97265000Y-102182500D03*
X97765000Y-102182500D03*
X98265000Y-102182500D03*
X98765000Y-102182500D03*
X99265000Y-102182500D03*
X99765000Y-102182500D03*
X100265000Y-102182500D03*
D23*
X102177500Y-100270000D03*
X102177500Y-99770000D03*
X102177500Y-99270000D03*
X102177500Y-98770000D03*
X102177500Y-98270000D03*
X102177500Y-97770000D03*
X102177500Y-97270000D03*
X102177500Y-96770000D03*
X102177500Y-96270000D03*
X102177500Y-95770000D03*
X102177500Y-95270000D03*
X102177500Y-94770000D03*
X102177500Y-94270000D03*
X102177500Y-93770000D03*
X102177500Y-93270000D03*
X102177500Y-92770000D03*
D22*
X100265000Y-90857500D03*
X99765000Y-90857500D03*
X99265000Y-90857500D03*
X98765000Y-90857500D03*
X98265000Y-90857500D03*
X97765000Y-90857500D03*
X97265000Y-90857500D03*
X96765000Y-90857500D03*
X96265000Y-90857500D03*
X95765000Y-90857500D03*
X95265000Y-90857500D03*
X94765000Y-90857500D03*
X94265000Y-90857500D03*
X93765000Y-90857500D03*
X93265000Y-90857500D03*
X92765000Y-90857500D03*
D23*
X90852500Y-92770000D03*
X90852500Y-93270000D03*
X90852500Y-93770000D03*
X90852500Y-94270000D03*
X90852500Y-94770000D03*
X90852500Y-95270000D03*
X90852500Y-95770000D03*
X90852500Y-96270000D03*
X90852500Y-96770000D03*
X90852500Y-97270000D03*
X90852500Y-97770000D03*
X90852500Y-98270000D03*
X90852500Y-98770000D03*
X90852500Y-99270000D03*
X90852500Y-99770000D03*
X90852500Y-100270000D03*
%TD*%
D14*
%TO.C,C18*%
X84300000Y-95758000D03*
X83340000Y-95758000D03*
%TD*%
D12*
%TO.C,J22*%
X108585000Y-73533000D03*
%TD*%
D14*
%TO.C,C7*%
X80998000Y-96520000D03*
X80038000Y-96520000D03*
%TD*%
D12*
%TO.C,J13*%
X88646000Y-63500000D03*
%TD*%
D24*
%TO.C,J7*%
X104962000Y-109855000D03*
D25*
X104962000Y-112395000D03*
X102422000Y-109855000D03*
X102422000Y-112395000D03*
X99882000Y-109855000D03*
X99882000Y-112395000D03*
X97342000Y-109855000D03*
X97342000Y-112395000D03*
X94802000Y-109855000D03*
X94802000Y-112395000D03*
X92262000Y-109855000D03*
X92262000Y-112395000D03*
X89722000Y-109855000D03*
X89722000Y-112395000D03*
%TD*%
D12*
%TO.C,J25*%
X88646000Y-77597000D03*
%TD*%
D26*
%TO.C,U5*%
X90620000Y-63838000D03*
X90620000Y-64238000D03*
X90620000Y-64638000D03*
X90620000Y-65038000D03*
X90620000Y-65438000D03*
X90620000Y-65838000D03*
X90620000Y-66238000D03*
X90620000Y-66638000D03*
X90620000Y-67038000D03*
X90620000Y-67438000D03*
X90620000Y-67838000D03*
X90620000Y-68238000D03*
X90620000Y-68638000D03*
X90620000Y-69038000D03*
X90620000Y-69438000D03*
X90620000Y-69838000D03*
X90620000Y-70238000D03*
X90620000Y-70638000D03*
X90620000Y-71038000D03*
X90620000Y-71438000D03*
X90620000Y-71838000D03*
X90620000Y-72238000D03*
X90620000Y-72638000D03*
X90620000Y-73038000D03*
X90620000Y-73438000D03*
D27*
X91720000Y-74538000D03*
X92120000Y-74538000D03*
X92520000Y-74538000D03*
X92920000Y-74538000D03*
X93320000Y-74538000D03*
X93720000Y-74538000D03*
X94120000Y-74538000D03*
X94520000Y-74538000D03*
X94920000Y-74538000D03*
X95320000Y-74538000D03*
X95720000Y-74538000D03*
X96120000Y-74538000D03*
X96520000Y-74538000D03*
X96920000Y-74538000D03*
X97320000Y-74538000D03*
X97720000Y-74538000D03*
X98120000Y-74538000D03*
X98520000Y-74538000D03*
X98920000Y-74538000D03*
X99320000Y-74538000D03*
X99720000Y-74538000D03*
X100120000Y-74538000D03*
X100520000Y-74538000D03*
X100920000Y-74538000D03*
X101320000Y-74538000D03*
D26*
X102420000Y-73438000D03*
X102420000Y-73038000D03*
X102420000Y-72638000D03*
X102420000Y-72238000D03*
X102420000Y-71838000D03*
X102420000Y-71438000D03*
X102420000Y-71038000D03*
X102420000Y-70638000D03*
X102420000Y-70238000D03*
X102420000Y-69838000D03*
X102420000Y-69438000D03*
X102420000Y-69038000D03*
X102420000Y-68638000D03*
X102420000Y-68238000D03*
X102420000Y-67838000D03*
X102420000Y-67438000D03*
X102420000Y-67038000D03*
X102420000Y-66638000D03*
X102420000Y-66238000D03*
X102420000Y-65838000D03*
X102420000Y-65438000D03*
X102420000Y-65038000D03*
X102420000Y-64638000D03*
X102420000Y-64238000D03*
X102420000Y-63838000D03*
D27*
X101320000Y-62738000D03*
X100920000Y-62738000D03*
X100520000Y-62738000D03*
X100120000Y-62738000D03*
X99720000Y-62738000D03*
X99320000Y-62738000D03*
X98920000Y-62738000D03*
X98520000Y-62738000D03*
X98120000Y-62738000D03*
X97720000Y-62738000D03*
X97320000Y-62738000D03*
X96920000Y-62738000D03*
X96520000Y-62738000D03*
X96120000Y-62738000D03*
X95720000Y-62738000D03*
X95320000Y-62738000D03*
X94920000Y-62738000D03*
X94520000Y-62738000D03*
X94120000Y-62738000D03*
X93720000Y-62738000D03*
X93320000Y-62738000D03*
X92920000Y-62738000D03*
X92520000Y-62738000D03*
X92120000Y-62738000D03*
X91720000Y-62738000D03*
D28*
X95951250Y-68069250D03*
X100501250Y-66931750D03*
X99363750Y-66931750D03*
X100501250Y-70344250D03*
X94813750Y-70344250D03*
D29*
X92538750Y-66931750D03*
D28*
X99363750Y-64656750D03*
X93676250Y-70344250D03*
D29*
X95951250Y-71481750D03*
X100501250Y-72619250D03*
D28*
X97088750Y-68069250D03*
X100501250Y-65794250D03*
X100501250Y-72619250D03*
D29*
X100501250Y-65794250D03*
X92538750Y-70344250D03*
D28*
X95951250Y-69206750D03*
X93676250Y-71481750D03*
D29*
X95951250Y-64656750D03*
X93676250Y-65794250D03*
X93676250Y-68069250D03*
D28*
X97088750Y-70344250D03*
X99363750Y-70344250D03*
D29*
X97088750Y-68069250D03*
D28*
X94813750Y-72619250D03*
D29*
X94813750Y-64656750D03*
D28*
X95951250Y-72619250D03*
X94813750Y-66931750D03*
X94813750Y-65794250D03*
X97088750Y-69206750D03*
D29*
X94813750Y-70344250D03*
X94813750Y-68069250D03*
X100501250Y-66931750D03*
X98226250Y-66931750D03*
X92538750Y-71481750D03*
X100501250Y-71481750D03*
D28*
X97088750Y-72619250D03*
D29*
X93676250Y-72619250D03*
X98226250Y-69206750D03*
X94813750Y-69206750D03*
D28*
X100501250Y-68069250D03*
X98226250Y-70344250D03*
X98226250Y-72619250D03*
X95951250Y-71481750D03*
X99363750Y-68069250D03*
D29*
X99363750Y-68069250D03*
X97088750Y-70344250D03*
D28*
X98226250Y-65794250D03*
X99363750Y-65794250D03*
D29*
X95951250Y-65794250D03*
D28*
X94813750Y-64656750D03*
D29*
X97088750Y-71481750D03*
D28*
X97088750Y-66931750D03*
D29*
X93676250Y-64656750D03*
D28*
X98226250Y-66931750D03*
X97088750Y-71481750D03*
D29*
X98226250Y-68069250D03*
D28*
X92538750Y-69206750D03*
X100501250Y-64656750D03*
X95951250Y-65794250D03*
X94813750Y-69206750D03*
X97088750Y-65794250D03*
D29*
X94813750Y-72619250D03*
D28*
X100501250Y-69206750D03*
D29*
X99363750Y-66931750D03*
D28*
X93676250Y-72619250D03*
D29*
X97088750Y-64656750D03*
X97088750Y-66931750D03*
X98226250Y-65794250D03*
X93676250Y-66931750D03*
D28*
X92538750Y-65794250D03*
D29*
X98226250Y-64656750D03*
D28*
X92538750Y-72619250D03*
D29*
X99363750Y-71481750D03*
X97088750Y-72619250D03*
X93676250Y-71481750D03*
D28*
X98226250Y-69206750D03*
D29*
X93676250Y-69206750D03*
X95951250Y-69206750D03*
D28*
X99363750Y-72619250D03*
D29*
X93676250Y-70344250D03*
D28*
X92538750Y-71481750D03*
D29*
X98226250Y-72619250D03*
X98226250Y-71481750D03*
X92538750Y-72619250D03*
D28*
X98226250Y-68069250D03*
X93676250Y-69206750D03*
X100501250Y-71481750D03*
D29*
X100501250Y-70344250D03*
X92538750Y-64656750D03*
X95951250Y-70344250D03*
X100501250Y-64656750D03*
X99363750Y-64656750D03*
D28*
X93676250Y-68069250D03*
D29*
X97088750Y-65794250D03*
X99363750Y-69206750D03*
X97088750Y-69206750D03*
D28*
X98226250Y-71481750D03*
D29*
X92538750Y-69206750D03*
D28*
X99363750Y-69206750D03*
D29*
X94813750Y-66931750D03*
X100501250Y-68069250D03*
D28*
X92538750Y-64656750D03*
D29*
X100501250Y-69206750D03*
X92538750Y-65794250D03*
D28*
X93676250Y-65794250D03*
X95951250Y-66931750D03*
D29*
X94813750Y-71481750D03*
D28*
X94813750Y-68069250D03*
D29*
X92538750Y-68069250D03*
X94813750Y-65794250D03*
X98226250Y-70344250D03*
D28*
X94813750Y-71481750D03*
D29*
X95951250Y-66931750D03*
D28*
X98226250Y-64656750D03*
X95951250Y-64656750D03*
D29*
X99363750Y-65794250D03*
D28*
X99363750Y-71481750D03*
X97088750Y-64656750D03*
D29*
X99363750Y-72619250D03*
X95951250Y-68069250D03*
D28*
X93676250Y-66931750D03*
X95951250Y-70344250D03*
X92538750Y-66931750D03*
D29*
X95951250Y-72619250D03*
D28*
X92538750Y-70344250D03*
X93676250Y-64656750D03*
D29*
X99363750Y-70344250D03*
D28*
X92538750Y-68069250D03*
%TD*%
D12*
%TO.C,J9*%
X91186000Y-60198000D03*
%TD*%
D14*
%TO.C,C10*%
X91031000Y-87757000D03*
X90071000Y-87757000D03*
%TD*%
D12*
%TO.C,J20*%
X106934000Y-68021200D03*
%TD*%
D17*
%TO.C,C1*%
X108204000Y-60711000D03*
X108204000Y-61671000D03*
%TD*%
D14*
%TO.C,C_1.8_OUT1*%
X81991000Y-61976000D03*
X81031000Y-61976000D03*
%TD*%
D30*
%TO.C,SW1*%
X111542000Y-93524000D03*
X111542000Y-100024000D03*
X116042000Y-100024000D03*
X116042000Y-93524000D03*
%TD*%
D10*
%TO.C,C9*%
X86461600Y-98905000D03*
X86461600Y-97945000D03*
%TD*%
D31*
%TO.C,L2*%
X87884000Y-61468000D03*
X87884000Y-60018000D03*
%TD*%
D12*
%TO.C,J12*%
X104140000Y-62738000D03*
%TD*%
D17*
%TO.C,C3*%
X102235000Y-77752000D03*
X102235000Y-78712000D03*
%TD*%
D11*
%TO.C,C27*%
X101656000Y-104775000D03*
X102616000Y-104775000D03*
%TD*%
D12*
%TO.C,J16*%
X85090000Y-63754000D03*
%TD*%
%TO.C,J24*%
X86106000Y-77216000D03*
%TD*%
D10*
%TO.C,C8*%
X84074000Y-92428000D03*
X84074000Y-91468000D03*
%TD*%
D32*
%TO.C,C20*%
X105349000Y-93472000D03*
X107249000Y-93472000D03*
%TD*%
D12*
%TO.C,J15*%
X104267000Y-64135000D03*
%TD*%
D13*
%TO.C,R10*%
X99060000Y-107065000D03*
X99060000Y-106045000D03*
%TD*%
D12*
%TO.C,J11*%
X93726000Y-60198000D03*
%TD*%
D11*
%TO.C,C_1.1_OUT1*%
X85141000Y-61976000D03*
X86101000Y-61976000D03*
%TD*%
D12*
%TO.C,J23*%
X86106000Y-75946000D03*
%TD*%
D20*
%TO.C,R15*%
X111250000Y-86360000D03*
X112270000Y-86360000D03*
%TD*%
D11*
%TO.C,C19*%
X104295000Y-91821000D03*
X105255000Y-91821000D03*
%TD*%
%TO.C,C16*%
X104295000Y-94996000D03*
X105255000Y-94996000D03*
%TD*%
D20*
%TO.C,R6*%
X106447000Y-65024000D03*
X107467000Y-65024000D03*
%TD*%
D11*
%TO.C,C30*%
X97945000Y-104775000D03*
X98905000Y-104775000D03*
%TD*%
D12*
%TO.C,J14*%
X86614000Y-63754000D03*
%TD*%
D33*
%TO.C,J1*%
X82804000Y-69469000D03*
X80264000Y-66929000D03*
X85344000Y-66929000D03*
X80264000Y-72009000D03*
X85344000Y-72009000D03*
%TD*%
D34*
%TO.C,J6*%
X81703000Y-104918000D03*
D35*
X81703000Y-106918000D03*
%TD*%
D11*
%TO.C,C28*%
X105720000Y-104775000D03*
X106680000Y-104775000D03*
%TD*%
D31*
%TO.C,L1*%
X79248000Y-62558000D03*
X79248000Y-64008000D03*
%TD*%
D12*
%TO.C,J18*%
X105156000Y-66548000D03*
%TD*%
D10*
%TO.C,C_1.1_IN1*%
X83312000Y-60701000D03*
X83312000Y-59741000D03*
%TD*%
D24*
%TO.C,J2*%
X111760000Y-89535000D03*
D25*
X114300000Y-89535000D03*
%TD*%
D17*
%TO.C,C4*%
X103632000Y-77752000D03*
X103632000Y-78712000D03*
%TD*%
D24*
%TO.C,J3*%
X114300000Y-57404000D03*
D25*
X114300000Y-59944000D03*
X114300000Y-62484000D03*
X114300000Y-65024000D03*
X114300000Y-67564000D03*
X114300000Y-70104000D03*
X114300000Y-72644000D03*
X114300000Y-75184000D03*
X114300000Y-77724000D03*
X114300000Y-80264000D03*
%TD*%
D24*
%TO.C,J4*%
X85120000Y-84348000D03*
D25*
X85120000Y-81808000D03*
X87660000Y-84348000D03*
X87660000Y-81808000D03*
X90200000Y-84348000D03*
X90200000Y-81808000D03*
X92740000Y-84348000D03*
X92740000Y-81808000D03*
X95280000Y-84348000D03*
X95280000Y-81808000D03*
X97820000Y-84348000D03*
X97820000Y-81808000D03*
X100360000Y-84348000D03*
X100360000Y-81808000D03*
X102900000Y-84348000D03*
X102900000Y-81808000D03*
X105440000Y-84348000D03*
X105440000Y-81808000D03*
X107980000Y-84348000D03*
X107980000Y-81808000D03*
%TD*%
D24*
%TO.C,J5*%
X84455000Y-57023000D03*
D25*
X84455000Y-54483000D03*
X86995000Y-57023000D03*
X86995000Y-54483000D03*
X89535000Y-57023000D03*
X89535000Y-54483000D03*
X92075000Y-57023000D03*
X92075000Y-54483000D03*
X94615000Y-57023000D03*
X94615000Y-54483000D03*
X97155000Y-57023000D03*
X97155000Y-54483000D03*
X99695000Y-57023000D03*
X99695000Y-54483000D03*
X102235000Y-57023000D03*
X102235000Y-54483000D03*
X104775000Y-57023000D03*
X104775000Y-54483000D03*
X107315000Y-57023000D03*
X107315000Y-54483000D03*
X109855000Y-57023000D03*
X109855000Y-54483000D03*
%TD*%
M02*
