G04 #@! TF.GenerationSoftware,KiCad,Pcbnew,(5.1.6)-1*
G04 #@! TF.CreationDate,2021-09-11T05:13:55-07:00*
G04 #@! TF.ProjectId,scum3c-devboard,7363756d-3363-42d6-9465-76626f617264,rev?*
G04 #@! TF.SameCoordinates,Original*
G04 #@! TF.FileFunction,Paste,Top*
G04 #@! TF.FilePolarity,Positive*
%FSLAX46Y46*%
G04 Gerber Fmt 4.6, Leading zero omitted, Abs format (unit mm)*
G04 Created by KiCad (PCBNEW (5.1.6)-1) date 2021-09-11 05:13:55*
%MOMM*%
%LPD*%
G01*
G04 APERTURE LIST*
%ADD10R,1.210000X0.590000*%
%ADD11R,1.060000X0.650000*%
%ADD12O,0.200000X0.800000*%
%ADD13O,0.800000X0.200000*%
G04 APERTURE END LIST*
D10*
G04 #@! TO.C,U3*
X87135001Y-62042000D03*
X87135001Y-63942000D03*
X84625001Y-63942000D03*
X84625001Y-62992000D03*
X84625001Y-62042000D03*
G04 #@! TD*
D11*
G04 #@! TO.C,U2*
X78627999Y-61961001D03*
X78627999Y-60061001D03*
X80827999Y-60061001D03*
X80827999Y-61011001D03*
X80827999Y-61961001D03*
G04 #@! TD*
G04 #@! TO.C,R4*
G36*
G01*
X96601500Y-60665000D02*
X96946500Y-60665000D01*
G75*
G02*
X97094000Y-60812500I0J-147500D01*
G01*
X97094000Y-61107500D01*
G75*
G02*
X96946500Y-61255000I-147500J0D01*
G01*
X96601500Y-61255000D01*
G75*
G02*
X96454000Y-61107500I0J147500D01*
G01*
X96454000Y-60812500D01*
G75*
G02*
X96601500Y-60665000I147500J0D01*
G01*
G37*
G36*
G01*
X96601500Y-59695000D02*
X96946500Y-59695000D01*
G75*
G02*
X97094000Y-59842500I0J-147500D01*
G01*
X97094000Y-60137500D01*
G75*
G02*
X96946500Y-60285000I-147500J0D01*
G01*
X96601500Y-60285000D01*
G75*
G02*
X96454000Y-60137500I0J147500D01*
G01*
X96454000Y-59842500D01*
G75*
G02*
X96601500Y-59695000I147500J0D01*
G01*
G37*
G04 #@! TD*
G04 #@! TO.C,R3*
G36*
G01*
X102189500Y-60619000D02*
X102534500Y-60619000D01*
G75*
G02*
X102682000Y-60766500I0J-147500D01*
G01*
X102682000Y-61061500D01*
G75*
G02*
X102534500Y-61209000I-147500J0D01*
G01*
X102189500Y-61209000D01*
G75*
G02*
X102042000Y-61061500I0J147500D01*
G01*
X102042000Y-60766500D01*
G75*
G02*
X102189500Y-60619000I147500J0D01*
G01*
G37*
G36*
G01*
X102189500Y-59649000D02*
X102534500Y-59649000D01*
G75*
G02*
X102682000Y-59796500I0J-147500D01*
G01*
X102682000Y-60091500D01*
G75*
G02*
X102534500Y-60239000I-147500J0D01*
G01*
X102189500Y-60239000D01*
G75*
G02*
X102042000Y-60091500I0J147500D01*
G01*
X102042000Y-59796500D01*
G75*
G02*
X102189500Y-59649000I147500J0D01*
G01*
G37*
G04 #@! TD*
G04 #@! TO.C,R2*
G36*
G01*
X104566500Y-60239000D02*
X104221500Y-60239000D01*
G75*
G02*
X104074000Y-60091500I0J147500D01*
G01*
X104074000Y-59796500D01*
G75*
G02*
X104221500Y-59649000I147500J0D01*
G01*
X104566500Y-59649000D01*
G75*
G02*
X104714000Y-59796500I0J-147500D01*
G01*
X104714000Y-60091500D01*
G75*
G02*
X104566500Y-60239000I-147500J0D01*
G01*
G37*
G36*
G01*
X104566500Y-61209000D02*
X104221500Y-61209000D01*
G75*
G02*
X104074000Y-61061500I0J147500D01*
G01*
X104074000Y-60766500D01*
G75*
G02*
X104221500Y-60619000I147500J0D01*
G01*
X104566500Y-60619000D01*
G75*
G02*
X104714000Y-60766500I0J-147500D01*
G01*
X104714000Y-61061500D01*
G75*
G02*
X104566500Y-61209000I-147500J0D01*
G01*
G37*
G04 #@! TD*
G04 #@! TO.C,C_1.8_OUT1*
G36*
G01*
X81158000Y-63424750D02*
X81158000Y-64337250D01*
G75*
G02*
X80914250Y-64581000I-243750J0D01*
G01*
X80426750Y-64581000D01*
G75*
G02*
X80183000Y-64337250I0J243750D01*
G01*
X80183000Y-63424750D01*
G75*
G02*
X80426750Y-63181000I243750J0D01*
G01*
X80914250Y-63181000D01*
G75*
G02*
X81158000Y-63424750I0J-243750D01*
G01*
G37*
G36*
G01*
X79283000Y-63424750D02*
X79283000Y-64337250D01*
G75*
G02*
X79039250Y-64581000I-243750J0D01*
G01*
X78551750Y-64581000D01*
G75*
G02*
X78308000Y-64337250I0J243750D01*
G01*
X78308000Y-63424750D01*
G75*
G02*
X78551750Y-63181000I243750J0D01*
G01*
X79039250Y-63181000D01*
G75*
G02*
X79283000Y-63424750I0J-243750D01*
G01*
G37*
G04 #@! TD*
G04 #@! TO.C,C_1.1_OUT1*
G36*
G01*
X84475500Y-60527250D02*
X84475500Y-59614750D01*
G75*
G02*
X84719250Y-59371000I243750J0D01*
G01*
X85206750Y-59371000D01*
G75*
G02*
X85450500Y-59614750I0J-243750D01*
G01*
X85450500Y-60527250D01*
G75*
G02*
X85206750Y-60771000I-243750J0D01*
G01*
X84719250Y-60771000D01*
G75*
G02*
X84475500Y-60527250I0J243750D01*
G01*
G37*
G36*
G01*
X86350500Y-60527250D02*
X86350500Y-59614750D01*
G75*
G02*
X86594250Y-59371000I243750J0D01*
G01*
X87081750Y-59371000D01*
G75*
G02*
X87325500Y-59614750I0J-243750D01*
G01*
X87325500Y-60527250D01*
G75*
G02*
X87081750Y-60771000I-243750J0D01*
G01*
X86594250Y-60771000D01*
G75*
G02*
X86350500Y-60527250I0J243750D01*
G01*
G37*
G04 #@! TD*
G04 #@! TO.C,C_1.1_IN1*
G36*
G01*
X83357500Y-63206000D02*
X83012500Y-63206000D01*
G75*
G02*
X82865000Y-63058500I0J147500D01*
G01*
X82865000Y-62763500D01*
G75*
G02*
X83012500Y-62616000I147500J0D01*
G01*
X83357500Y-62616000D01*
G75*
G02*
X83505000Y-62763500I0J-147500D01*
G01*
X83505000Y-63058500D01*
G75*
G02*
X83357500Y-63206000I-147500J0D01*
G01*
G37*
G36*
G01*
X83357500Y-64176000D02*
X83012500Y-64176000D01*
G75*
G02*
X82865000Y-64028500I0J147500D01*
G01*
X82865000Y-63733500D01*
G75*
G02*
X83012500Y-63586000I147500J0D01*
G01*
X83357500Y-63586000D01*
G75*
G02*
X83505000Y-63733500I0J-147500D01*
G01*
X83505000Y-64028500D01*
G75*
G02*
X83357500Y-64176000I-147500J0D01*
G01*
G37*
G04 #@! TD*
G04 #@! TO.C,C_1.8_IN1*
G36*
G01*
X82341500Y-61174000D02*
X81996500Y-61174000D01*
G75*
G02*
X81849000Y-61026500I0J147500D01*
G01*
X81849000Y-60731500D01*
G75*
G02*
X81996500Y-60584000I147500J0D01*
G01*
X82341500Y-60584000D01*
G75*
G02*
X82489000Y-60731500I0J-147500D01*
G01*
X82489000Y-61026500D01*
G75*
G02*
X82341500Y-61174000I-147500J0D01*
G01*
G37*
G36*
G01*
X82341500Y-62144000D02*
X81996500Y-62144000D01*
G75*
G02*
X81849000Y-61996500I0J147500D01*
G01*
X81849000Y-61701500D01*
G75*
G02*
X81996500Y-61554000I147500J0D01*
G01*
X82341500Y-61554000D01*
G75*
G02*
X82489000Y-61701500I0J-147500D01*
G01*
X82489000Y-61996500D01*
G75*
G02*
X82341500Y-62144000I-147500J0D01*
G01*
G37*
G04 #@! TD*
G04 #@! TO.C,R1*
G36*
G01*
X107147000Y-65196500D02*
X107147000Y-64851500D01*
G75*
G02*
X107294500Y-64704000I147500J0D01*
G01*
X107589500Y-64704000D01*
G75*
G02*
X107737000Y-64851500I0J-147500D01*
G01*
X107737000Y-65196500D01*
G75*
G02*
X107589500Y-65344000I-147500J0D01*
G01*
X107294500Y-65344000D01*
G75*
G02*
X107147000Y-65196500I0J147500D01*
G01*
G37*
G36*
G01*
X106177000Y-65196500D02*
X106177000Y-64851500D01*
G75*
G02*
X106324500Y-64704000I147500J0D01*
G01*
X106619500Y-64704000D01*
G75*
G02*
X106767000Y-64851500I0J-147500D01*
G01*
X106767000Y-65196500D01*
G75*
G02*
X106619500Y-65344000I-147500J0D01*
G01*
X106324500Y-65344000D01*
G75*
G02*
X106177000Y-65196500I0J147500D01*
G01*
G37*
G04 #@! TD*
G04 #@! TO.C,C13*
G36*
G01*
X100629500Y-60158000D02*
X100284500Y-60158000D01*
G75*
G02*
X100137000Y-60010500I0J147500D01*
G01*
X100137000Y-59715500D01*
G75*
G02*
X100284500Y-59568000I147500J0D01*
G01*
X100629500Y-59568000D01*
G75*
G02*
X100777000Y-59715500I0J-147500D01*
G01*
X100777000Y-60010500D01*
G75*
G02*
X100629500Y-60158000I-147500J0D01*
G01*
G37*
G36*
G01*
X100629500Y-61128000D02*
X100284500Y-61128000D01*
G75*
G02*
X100137000Y-60980500I0J147500D01*
G01*
X100137000Y-60685500D01*
G75*
G02*
X100284500Y-60538000I147500J0D01*
G01*
X100629500Y-60538000D01*
G75*
G02*
X100777000Y-60685500I0J-147500D01*
G01*
X100777000Y-60980500D01*
G75*
G02*
X100629500Y-61128000I-147500J0D01*
G01*
G37*
G04 #@! TD*
G04 #@! TO.C,C12*
G36*
G01*
X98724500Y-60158000D02*
X98379500Y-60158000D01*
G75*
G02*
X98232000Y-60010500I0J147500D01*
G01*
X98232000Y-59715500D01*
G75*
G02*
X98379500Y-59568000I147500J0D01*
G01*
X98724500Y-59568000D01*
G75*
G02*
X98872000Y-59715500I0J-147500D01*
G01*
X98872000Y-60010500D01*
G75*
G02*
X98724500Y-60158000I-147500J0D01*
G01*
G37*
G36*
G01*
X98724500Y-61128000D02*
X98379500Y-61128000D01*
G75*
G02*
X98232000Y-60980500I0J147500D01*
G01*
X98232000Y-60685500D01*
G75*
G02*
X98379500Y-60538000I147500J0D01*
G01*
X98724500Y-60538000D01*
G75*
G02*
X98872000Y-60685500I0J-147500D01*
G01*
X98872000Y-60980500D01*
G75*
G02*
X98724500Y-61128000I-147500J0D01*
G01*
G37*
G04 #@! TD*
G04 #@! TO.C,C11*
G36*
G01*
X106767000Y-66375500D02*
X106767000Y-66720500D01*
G75*
G02*
X106619500Y-66868000I-147500J0D01*
G01*
X106324500Y-66868000D01*
G75*
G02*
X106177000Y-66720500I0J147500D01*
G01*
X106177000Y-66375500D01*
G75*
G02*
X106324500Y-66228000I147500J0D01*
G01*
X106619500Y-66228000D01*
G75*
G02*
X106767000Y-66375500I0J-147500D01*
G01*
G37*
G36*
G01*
X107737000Y-66375500D02*
X107737000Y-66720500D01*
G75*
G02*
X107589500Y-66868000I-147500J0D01*
G01*
X107294500Y-66868000D01*
G75*
G02*
X107147000Y-66720500I0J147500D01*
G01*
X107147000Y-66375500D01*
G75*
G02*
X107294500Y-66228000I147500J0D01*
G01*
X107589500Y-66228000D01*
G75*
G02*
X107737000Y-66375500I0J-147500D01*
G01*
G37*
G04 #@! TD*
G04 #@! TO.C,C10*
G36*
G01*
X95168500Y-60239000D02*
X94823500Y-60239000D01*
G75*
G02*
X94676000Y-60091500I0J147500D01*
G01*
X94676000Y-59796500D01*
G75*
G02*
X94823500Y-59649000I147500J0D01*
G01*
X95168500Y-59649000D01*
G75*
G02*
X95316000Y-59796500I0J-147500D01*
G01*
X95316000Y-60091500D01*
G75*
G02*
X95168500Y-60239000I-147500J0D01*
G01*
G37*
G36*
G01*
X95168500Y-61209000D02*
X94823500Y-61209000D01*
G75*
G02*
X94676000Y-61061500I0J147500D01*
G01*
X94676000Y-60766500D01*
G75*
G02*
X94823500Y-60619000I147500J0D01*
G01*
X95168500Y-60619000D01*
G75*
G02*
X95316000Y-60766500I0J-147500D01*
G01*
X95316000Y-61061500D01*
G75*
G02*
X95168500Y-61209000I-147500J0D01*
G01*
G37*
G04 #@! TD*
G04 #@! TO.C,C9*
G36*
G01*
X108031500Y-78191000D02*
X108376500Y-78191000D01*
G75*
G02*
X108524000Y-78338500I0J-147500D01*
G01*
X108524000Y-78633500D01*
G75*
G02*
X108376500Y-78781000I-147500J0D01*
G01*
X108031500Y-78781000D01*
G75*
G02*
X107884000Y-78633500I0J147500D01*
G01*
X107884000Y-78338500D01*
G75*
G02*
X108031500Y-78191000I147500J0D01*
G01*
G37*
G36*
G01*
X108031500Y-77221000D02*
X108376500Y-77221000D01*
G75*
G02*
X108524000Y-77368500I0J-147500D01*
G01*
X108524000Y-77663500D01*
G75*
G02*
X108376500Y-77811000I-147500J0D01*
G01*
X108031500Y-77811000D01*
G75*
G02*
X107884000Y-77663500I0J147500D01*
G01*
X107884000Y-77368500D01*
G75*
G02*
X108031500Y-77221000I147500J0D01*
G01*
G37*
G04 #@! TD*
G04 #@! TO.C,C8*
G36*
G01*
X106634500Y-78145000D02*
X106979500Y-78145000D01*
G75*
G02*
X107127000Y-78292500I0J-147500D01*
G01*
X107127000Y-78587500D01*
G75*
G02*
X106979500Y-78735000I-147500J0D01*
G01*
X106634500Y-78735000D01*
G75*
G02*
X106487000Y-78587500I0J147500D01*
G01*
X106487000Y-78292500D01*
G75*
G02*
X106634500Y-78145000I147500J0D01*
G01*
G37*
G36*
G01*
X106634500Y-77175000D02*
X106979500Y-77175000D01*
G75*
G02*
X107127000Y-77322500I0J-147500D01*
G01*
X107127000Y-77617500D01*
G75*
G02*
X106979500Y-77765000I-147500J0D01*
G01*
X106634500Y-77765000D01*
G75*
G02*
X106487000Y-77617500I0J147500D01*
G01*
X106487000Y-77322500D01*
G75*
G02*
X106634500Y-77175000I147500J0D01*
G01*
G37*
G04 #@! TD*
G04 #@! TO.C,C7*
G36*
G01*
X114213000Y-59354500D02*
X114213000Y-59009500D01*
G75*
G02*
X114360500Y-58862000I147500J0D01*
G01*
X114655500Y-58862000D01*
G75*
G02*
X114803000Y-59009500I0J-147500D01*
G01*
X114803000Y-59354500D01*
G75*
G02*
X114655500Y-59502000I-147500J0D01*
G01*
X114360500Y-59502000D01*
G75*
G02*
X114213000Y-59354500I0J147500D01*
G01*
G37*
G36*
G01*
X113243000Y-59354500D02*
X113243000Y-59009500D01*
G75*
G02*
X113390500Y-58862000I147500J0D01*
G01*
X113685500Y-58862000D01*
G75*
G02*
X113833000Y-59009500I0J-147500D01*
G01*
X113833000Y-59354500D01*
G75*
G02*
X113685500Y-59502000I-147500J0D01*
G01*
X113390500Y-59502000D01*
G75*
G02*
X113243000Y-59354500I0J147500D01*
G01*
G37*
G04 #@! TD*
G04 #@! TO.C,C6*
G36*
G01*
X114213000Y-57830500D02*
X114213000Y-57485500D01*
G75*
G02*
X114360500Y-57338000I147500J0D01*
G01*
X114655500Y-57338000D01*
G75*
G02*
X114803000Y-57485500I0J-147500D01*
G01*
X114803000Y-57830500D01*
G75*
G02*
X114655500Y-57978000I-147500J0D01*
G01*
X114360500Y-57978000D01*
G75*
G02*
X114213000Y-57830500I0J147500D01*
G01*
G37*
G36*
G01*
X113243000Y-57830500D02*
X113243000Y-57485500D01*
G75*
G02*
X113390500Y-57338000I147500J0D01*
G01*
X113685500Y-57338000D01*
G75*
G02*
X113833000Y-57485500I0J-147500D01*
G01*
X113833000Y-57830500D01*
G75*
G02*
X113685500Y-57978000I-147500J0D01*
G01*
X113390500Y-57978000D01*
G75*
G02*
X113243000Y-57830500I0J147500D01*
G01*
G37*
G04 #@! TD*
G04 #@! TO.C,C5*
G36*
G01*
X85685000Y-74503500D02*
X85685000Y-74848500D01*
G75*
G02*
X85537500Y-74996000I-147500J0D01*
G01*
X85242500Y-74996000D01*
G75*
G02*
X85095000Y-74848500I0J147500D01*
G01*
X85095000Y-74503500D01*
G75*
G02*
X85242500Y-74356000I147500J0D01*
G01*
X85537500Y-74356000D01*
G75*
G02*
X85685000Y-74503500I0J-147500D01*
G01*
G37*
G36*
G01*
X86655000Y-74503500D02*
X86655000Y-74848500D01*
G75*
G02*
X86507500Y-74996000I-147500J0D01*
G01*
X86212500Y-74996000D01*
G75*
G02*
X86065000Y-74848500I0J147500D01*
G01*
X86065000Y-74503500D01*
G75*
G02*
X86212500Y-74356000I147500J0D01*
G01*
X86507500Y-74356000D01*
G75*
G02*
X86655000Y-74503500I0J-147500D01*
G01*
G37*
G04 #@! TD*
G04 #@! TO.C,C4*
G36*
G01*
X85662000Y-78567500D02*
X85662000Y-78912500D01*
G75*
G02*
X85514500Y-79060000I-147500J0D01*
G01*
X85219500Y-79060000D01*
G75*
G02*
X85072000Y-78912500I0J147500D01*
G01*
X85072000Y-78567500D01*
G75*
G02*
X85219500Y-78420000I147500J0D01*
G01*
X85514500Y-78420000D01*
G75*
G02*
X85662000Y-78567500I0J-147500D01*
G01*
G37*
G36*
G01*
X86632000Y-78567500D02*
X86632000Y-78912500D01*
G75*
G02*
X86484500Y-79060000I-147500J0D01*
G01*
X86189500Y-79060000D01*
G75*
G02*
X86042000Y-78912500I0J147500D01*
G01*
X86042000Y-78567500D01*
G75*
G02*
X86189500Y-78420000I147500J0D01*
G01*
X86484500Y-78420000D01*
G75*
G02*
X86632000Y-78567500I0J-147500D01*
G01*
G37*
G04 #@! TD*
D12*
G04 #@! TO.C,U1*
X91720000Y-62738000D03*
X92120000Y-62738000D03*
X92520000Y-62738000D03*
X92920000Y-62738000D03*
X93320000Y-62738000D03*
X93720000Y-62738000D03*
X94120000Y-62738000D03*
X94520000Y-62738000D03*
X94920000Y-62738000D03*
X95320000Y-62738000D03*
X95720000Y-62738000D03*
X96120000Y-62738000D03*
X96520000Y-62738000D03*
X96920000Y-62738000D03*
X97320000Y-62738000D03*
X97720000Y-62738000D03*
X98120000Y-62738000D03*
X98520000Y-62738000D03*
X98920000Y-62738000D03*
X99320000Y-62738000D03*
X99720000Y-62738000D03*
X100120000Y-62738000D03*
X100520000Y-62738000D03*
X100920000Y-62738000D03*
X101320000Y-62738000D03*
D13*
X102420000Y-63838000D03*
X102420000Y-64238000D03*
X102420000Y-64638000D03*
X102420000Y-65038000D03*
X102420000Y-65438000D03*
X102420000Y-65838000D03*
X102420000Y-66238000D03*
X102420000Y-66638000D03*
X102420000Y-67038000D03*
X102420000Y-67438000D03*
X102420000Y-67838000D03*
X102420000Y-68238000D03*
X102420000Y-68638000D03*
X102420000Y-69038000D03*
X102420000Y-69438000D03*
X102420000Y-69838000D03*
X102420000Y-70238000D03*
X102420000Y-70638000D03*
X102420000Y-71038000D03*
X102420000Y-71438000D03*
X102420000Y-71838000D03*
X102420000Y-72238000D03*
X102420000Y-72638000D03*
X102420000Y-73038000D03*
X102420000Y-73438000D03*
D12*
X101320000Y-74538000D03*
X100920000Y-74538000D03*
X100520000Y-74538000D03*
X100120000Y-74538000D03*
X99720000Y-74538000D03*
X99320000Y-74538000D03*
X98920000Y-74538000D03*
X98520000Y-74538000D03*
X98120000Y-74538000D03*
X97720000Y-74538000D03*
X97320000Y-74538000D03*
X96920000Y-74538000D03*
X96520000Y-74538000D03*
X96120000Y-74538000D03*
X95720000Y-74538000D03*
X95320000Y-74538000D03*
X94920000Y-74538000D03*
X94520000Y-74538000D03*
X94120000Y-74538000D03*
X93720000Y-74538000D03*
X93320000Y-74538000D03*
X92920000Y-74538000D03*
X92520000Y-74538000D03*
X92120000Y-74538000D03*
X91720000Y-74538000D03*
D13*
X90620000Y-73438000D03*
X90620000Y-73038000D03*
X90620000Y-72638000D03*
X90620000Y-72238000D03*
X90620000Y-71838000D03*
X90620000Y-71438000D03*
X90620000Y-71038000D03*
X90620000Y-70638000D03*
X90620000Y-70238000D03*
X90620000Y-69838000D03*
X90620000Y-69438000D03*
X90620000Y-69038000D03*
X90620000Y-68638000D03*
X90620000Y-68238000D03*
X90620000Y-67838000D03*
X90620000Y-67438000D03*
X90620000Y-67038000D03*
X90620000Y-66638000D03*
X90620000Y-66238000D03*
X90620000Y-65838000D03*
X90620000Y-65438000D03*
X90620000Y-65038000D03*
X90620000Y-64638000D03*
X90620000Y-64238000D03*
X90620000Y-63838000D03*
G04 #@! TD*
G04 #@! TO.C,C3*
G36*
G01*
X80051000Y-75265500D02*
X80051000Y-75610500D01*
G75*
G02*
X79903500Y-75758000I-147500J0D01*
G01*
X79608500Y-75758000D01*
G75*
G02*
X79461000Y-75610500I0J147500D01*
G01*
X79461000Y-75265500D01*
G75*
G02*
X79608500Y-75118000I147500J0D01*
G01*
X79903500Y-75118000D01*
G75*
G02*
X80051000Y-75265500I0J-147500D01*
G01*
G37*
G36*
G01*
X79081000Y-75265500D02*
X79081000Y-75610500D01*
G75*
G02*
X78933500Y-75758000I-147500J0D01*
G01*
X78638500Y-75758000D01*
G75*
G02*
X78491000Y-75610500I0J147500D01*
G01*
X78491000Y-75265500D01*
G75*
G02*
X78638500Y-75118000I147500J0D01*
G01*
X78933500Y-75118000D01*
G75*
G02*
X79081000Y-75265500I0J-147500D01*
G01*
G37*
G04 #@! TD*
G04 #@! TO.C,C2*
G36*
G01*
X77297500Y-77556000D02*
X77642500Y-77556000D01*
G75*
G02*
X77790000Y-77703500I0J-147500D01*
G01*
X77790000Y-77998500D01*
G75*
G02*
X77642500Y-78146000I-147500J0D01*
G01*
X77297500Y-78146000D01*
G75*
G02*
X77150000Y-77998500I0J147500D01*
G01*
X77150000Y-77703500D01*
G75*
G02*
X77297500Y-77556000I147500J0D01*
G01*
G37*
G36*
G01*
X77297500Y-78526000D02*
X77642500Y-78526000D01*
G75*
G02*
X77790000Y-78673500I0J-147500D01*
G01*
X77790000Y-78968500D01*
G75*
G02*
X77642500Y-79116000I-147500J0D01*
G01*
X77297500Y-79116000D01*
G75*
G02*
X77150000Y-78968500I0J147500D01*
G01*
X77150000Y-78673500D01*
G75*
G02*
X77297500Y-78526000I147500J0D01*
G01*
G37*
G04 #@! TD*
G04 #@! TO.C,C1*
G36*
G01*
X81285000Y-75610500D02*
X81285000Y-75265500D01*
G75*
G02*
X81432500Y-75118000I147500J0D01*
G01*
X81727500Y-75118000D01*
G75*
G02*
X81875000Y-75265500I0J-147500D01*
G01*
X81875000Y-75610500D01*
G75*
G02*
X81727500Y-75758000I-147500J0D01*
G01*
X81432500Y-75758000D01*
G75*
G02*
X81285000Y-75610500I0J147500D01*
G01*
G37*
G36*
G01*
X82255000Y-75610500D02*
X82255000Y-75265500D01*
G75*
G02*
X82402500Y-75118000I147500J0D01*
G01*
X82697500Y-75118000D01*
G75*
G02*
X82845000Y-75265500I0J-147500D01*
G01*
X82845000Y-75610500D01*
G75*
G02*
X82697500Y-75758000I-147500J0D01*
G01*
X82402500Y-75758000D01*
G75*
G02*
X82255000Y-75610500I0J147500D01*
G01*
G37*
G04 #@! TD*
G04 #@! TO.C,U9AB1*
G36*
G01*
X82420000Y-79436000D02*
X82420000Y-79536000D01*
G75*
G02*
X82370000Y-79586000I-50000J0D01*
G01*
X81920000Y-79586000D01*
G75*
G02*
X81870000Y-79536000I0J50000D01*
G01*
X81870000Y-79436000D01*
G75*
G02*
X81920000Y-79386000I50000J0D01*
G01*
X82370000Y-79386000D01*
G75*
G02*
X82420000Y-79436000I0J-50000D01*
G01*
G37*
G36*
G01*
X82420000Y-79036000D02*
X82420000Y-79136000D01*
G75*
G02*
X82370000Y-79186000I-50000J0D01*
G01*
X81920000Y-79186000D01*
G75*
G02*
X81870000Y-79136000I0J50000D01*
G01*
X81870000Y-79036000D01*
G75*
G02*
X81920000Y-78986000I50000J0D01*
G01*
X82370000Y-78986000D01*
G75*
G02*
X82420000Y-79036000I0J-50000D01*
G01*
G37*
G36*
G01*
X82420000Y-78636000D02*
X82420000Y-78736000D01*
G75*
G02*
X82370000Y-78786000I-50000J0D01*
G01*
X81920000Y-78786000D01*
G75*
G02*
X81870000Y-78736000I0J50000D01*
G01*
X81870000Y-78636000D01*
G75*
G02*
X81920000Y-78586000I50000J0D01*
G01*
X82370000Y-78586000D01*
G75*
G02*
X82420000Y-78636000I0J-50000D01*
G01*
G37*
G36*
G01*
X82420000Y-78236000D02*
X82420000Y-78336000D01*
G75*
G02*
X82370000Y-78386000I-50000J0D01*
G01*
X81920000Y-78386000D01*
G75*
G02*
X81870000Y-78336000I0J50000D01*
G01*
X81870000Y-78236000D01*
G75*
G02*
X81920000Y-78186000I50000J0D01*
G01*
X82370000Y-78186000D01*
G75*
G02*
X82420000Y-78236000I0J-50000D01*
G01*
G37*
G36*
G01*
X82420000Y-77836000D02*
X82420000Y-77936000D01*
G75*
G02*
X82370000Y-77986000I-50000J0D01*
G01*
X81920000Y-77986000D01*
G75*
G02*
X81870000Y-77936000I0J50000D01*
G01*
X81870000Y-77836000D01*
G75*
G02*
X81920000Y-77786000I50000J0D01*
G01*
X82370000Y-77786000D01*
G75*
G02*
X82420000Y-77836000I0J-50000D01*
G01*
G37*
G36*
G01*
X82420000Y-77436000D02*
X82420000Y-77536000D01*
G75*
G02*
X82370000Y-77586000I-50000J0D01*
G01*
X81920000Y-77586000D01*
G75*
G02*
X81870000Y-77536000I0J50000D01*
G01*
X81870000Y-77436000D01*
G75*
G02*
X81920000Y-77386000I50000J0D01*
G01*
X82370000Y-77386000D01*
G75*
G02*
X82420000Y-77436000I0J-50000D01*
G01*
G37*
G36*
G01*
X81595000Y-76711000D02*
X81695000Y-76711000D01*
G75*
G02*
X81745000Y-76761000I0J-50000D01*
G01*
X81745000Y-77211000D01*
G75*
G02*
X81695000Y-77261000I-50000J0D01*
G01*
X81595000Y-77261000D01*
G75*
G02*
X81545000Y-77211000I0J50000D01*
G01*
X81545000Y-76761000D01*
G75*
G02*
X81595000Y-76711000I50000J0D01*
G01*
G37*
G36*
G01*
X81195000Y-76711000D02*
X81295000Y-76711000D01*
G75*
G02*
X81345000Y-76761000I0J-50000D01*
G01*
X81345000Y-77211000D01*
G75*
G02*
X81295000Y-77261000I-50000J0D01*
G01*
X81195000Y-77261000D01*
G75*
G02*
X81145000Y-77211000I0J50000D01*
G01*
X81145000Y-76761000D01*
G75*
G02*
X81195000Y-76711000I50000J0D01*
G01*
G37*
G36*
G01*
X80795000Y-76711000D02*
X80895000Y-76711000D01*
G75*
G02*
X80945000Y-76761000I0J-50000D01*
G01*
X80945000Y-77211000D01*
G75*
G02*
X80895000Y-77261000I-50000J0D01*
G01*
X80795000Y-77261000D01*
G75*
G02*
X80745000Y-77211000I0J50000D01*
G01*
X80745000Y-76761000D01*
G75*
G02*
X80795000Y-76711000I50000J0D01*
G01*
G37*
G36*
G01*
X80395000Y-76711000D02*
X80495000Y-76711000D01*
G75*
G02*
X80545000Y-76761000I0J-50000D01*
G01*
X80545000Y-77211000D01*
G75*
G02*
X80495000Y-77261000I-50000J0D01*
G01*
X80395000Y-77261000D01*
G75*
G02*
X80345000Y-77211000I0J50000D01*
G01*
X80345000Y-76761000D01*
G75*
G02*
X80395000Y-76711000I50000J0D01*
G01*
G37*
G36*
G01*
X79995000Y-76711000D02*
X80095000Y-76711000D01*
G75*
G02*
X80145000Y-76761000I0J-50000D01*
G01*
X80145000Y-77211000D01*
G75*
G02*
X80095000Y-77261000I-50000J0D01*
G01*
X79995000Y-77261000D01*
G75*
G02*
X79945000Y-77211000I0J50000D01*
G01*
X79945000Y-76761000D01*
G75*
G02*
X79995000Y-76711000I50000J0D01*
G01*
G37*
G36*
G01*
X79595000Y-76711000D02*
X79695000Y-76711000D01*
G75*
G02*
X79745000Y-76761000I0J-50000D01*
G01*
X79745000Y-77211000D01*
G75*
G02*
X79695000Y-77261000I-50000J0D01*
G01*
X79595000Y-77261000D01*
G75*
G02*
X79545000Y-77211000I0J50000D01*
G01*
X79545000Y-76761000D01*
G75*
G02*
X79595000Y-76711000I50000J0D01*
G01*
G37*
G36*
G01*
X79420000Y-77436000D02*
X79420000Y-77536000D01*
G75*
G02*
X79370000Y-77586000I-50000J0D01*
G01*
X78920000Y-77586000D01*
G75*
G02*
X78870000Y-77536000I0J50000D01*
G01*
X78870000Y-77436000D01*
G75*
G02*
X78920000Y-77386000I50000J0D01*
G01*
X79370000Y-77386000D01*
G75*
G02*
X79420000Y-77436000I0J-50000D01*
G01*
G37*
G36*
G01*
X79420000Y-77836000D02*
X79420000Y-77936000D01*
G75*
G02*
X79370000Y-77986000I-50000J0D01*
G01*
X78920000Y-77986000D01*
G75*
G02*
X78870000Y-77936000I0J50000D01*
G01*
X78870000Y-77836000D01*
G75*
G02*
X78920000Y-77786000I50000J0D01*
G01*
X79370000Y-77786000D01*
G75*
G02*
X79420000Y-77836000I0J-50000D01*
G01*
G37*
G36*
G01*
X79420000Y-78236000D02*
X79420000Y-78336000D01*
G75*
G02*
X79370000Y-78386000I-50000J0D01*
G01*
X78920000Y-78386000D01*
G75*
G02*
X78870000Y-78336000I0J50000D01*
G01*
X78870000Y-78236000D01*
G75*
G02*
X78920000Y-78186000I50000J0D01*
G01*
X79370000Y-78186000D01*
G75*
G02*
X79420000Y-78236000I0J-50000D01*
G01*
G37*
G36*
G01*
X79420000Y-78636000D02*
X79420000Y-78736000D01*
G75*
G02*
X79370000Y-78786000I-50000J0D01*
G01*
X78920000Y-78786000D01*
G75*
G02*
X78870000Y-78736000I0J50000D01*
G01*
X78870000Y-78636000D01*
G75*
G02*
X78920000Y-78586000I50000J0D01*
G01*
X79370000Y-78586000D01*
G75*
G02*
X79420000Y-78636000I0J-50000D01*
G01*
G37*
G36*
G01*
X79420000Y-79036000D02*
X79420000Y-79136000D01*
G75*
G02*
X79370000Y-79186000I-50000J0D01*
G01*
X78920000Y-79186000D01*
G75*
G02*
X78870000Y-79136000I0J50000D01*
G01*
X78870000Y-79036000D01*
G75*
G02*
X78920000Y-78986000I50000J0D01*
G01*
X79370000Y-78986000D01*
G75*
G02*
X79420000Y-79036000I0J-50000D01*
G01*
G37*
G36*
G01*
X79420000Y-79436000D02*
X79420000Y-79536000D01*
G75*
G02*
X79370000Y-79586000I-50000J0D01*
G01*
X78920000Y-79586000D01*
G75*
G02*
X78870000Y-79536000I0J50000D01*
G01*
X78870000Y-79436000D01*
G75*
G02*
X78920000Y-79386000I50000J0D01*
G01*
X79370000Y-79386000D01*
G75*
G02*
X79420000Y-79436000I0J-50000D01*
G01*
G37*
G36*
G01*
X79595000Y-79711000D02*
X79695000Y-79711000D01*
G75*
G02*
X79745000Y-79761000I0J-50000D01*
G01*
X79745000Y-80211000D01*
G75*
G02*
X79695000Y-80261000I-50000J0D01*
G01*
X79595000Y-80261000D01*
G75*
G02*
X79545000Y-80211000I0J50000D01*
G01*
X79545000Y-79761000D01*
G75*
G02*
X79595000Y-79711000I50000J0D01*
G01*
G37*
G36*
G01*
X79995000Y-79711000D02*
X80095000Y-79711000D01*
G75*
G02*
X80145000Y-79761000I0J-50000D01*
G01*
X80145000Y-80211000D01*
G75*
G02*
X80095000Y-80261000I-50000J0D01*
G01*
X79995000Y-80261000D01*
G75*
G02*
X79945000Y-80211000I0J50000D01*
G01*
X79945000Y-79761000D01*
G75*
G02*
X79995000Y-79711000I50000J0D01*
G01*
G37*
G36*
G01*
X80395000Y-79711000D02*
X80495000Y-79711000D01*
G75*
G02*
X80545000Y-79761000I0J-50000D01*
G01*
X80545000Y-80211000D01*
G75*
G02*
X80495000Y-80261000I-50000J0D01*
G01*
X80395000Y-80261000D01*
G75*
G02*
X80345000Y-80211000I0J50000D01*
G01*
X80345000Y-79761000D01*
G75*
G02*
X80395000Y-79711000I50000J0D01*
G01*
G37*
G36*
G01*
X80795000Y-79711000D02*
X80895000Y-79711000D01*
G75*
G02*
X80945000Y-79761000I0J-50000D01*
G01*
X80945000Y-80211000D01*
G75*
G02*
X80895000Y-80261000I-50000J0D01*
G01*
X80795000Y-80261000D01*
G75*
G02*
X80745000Y-80211000I0J50000D01*
G01*
X80745000Y-79761000D01*
G75*
G02*
X80795000Y-79711000I50000J0D01*
G01*
G37*
G36*
G01*
X81195000Y-79711000D02*
X81295000Y-79711000D01*
G75*
G02*
X81345000Y-79761000I0J-50000D01*
G01*
X81345000Y-80211000D01*
G75*
G02*
X81295000Y-80261000I-50000J0D01*
G01*
X81195000Y-80261000D01*
G75*
G02*
X81145000Y-80211000I0J50000D01*
G01*
X81145000Y-79761000D01*
G75*
G02*
X81195000Y-79711000I50000J0D01*
G01*
G37*
G36*
G01*
X81595000Y-79711000D02*
X81695000Y-79711000D01*
G75*
G02*
X81745000Y-79761000I0J-50000D01*
G01*
X81745000Y-80211000D01*
G75*
G02*
X81695000Y-80261000I-50000J0D01*
G01*
X81595000Y-80261000D01*
G75*
G02*
X81545000Y-80211000I0J50000D01*
G01*
X81545000Y-79761000D01*
G75*
G02*
X81595000Y-79711000I50000J0D01*
G01*
G37*
G04 #@! TD*
M02*
