M48
; DRILL file {KiCad (6.0.7)} date Thu Jun  1 17:44:57 2023
; FORMAT={-:-/ absolute / inch / decimal}
; #@! TF.CreationDate,2023-06-01T17:44:57-07:00
; #@! TF.GenerationSoftware,Kicad,Pcbnew,(6.0.7)
; #@! TF.FileFunction,Plated,1,2,PTH
FMAT,2
INCH
; #@! TA.AperFunction,Plated,PTH,ComponentDrill
T1C0.0150
; #@! TA.AperFunction,Plated,PTH,ComponentDrill
T2C0.0197
; #@! TA.AperFunction,Plated,PTH,ComponentDrill
T3C0.0394
%
G90
G05
T1
X3.4813Y-2.4989
X3.4841Y-2.3897
X3.6713Y-2.5941
X3.6713Y-2.665
X3.6713Y-2.7359
X3.775Y-2.255
X3.775Y-2.34
X3.775Y-2.4175
T2
X3.385Y-2.125
X3.4342Y-2.125
X3.4834Y-2.125
X3.5326Y-2.125
X3.5819Y-2.125
X3.6311Y-2.125
X3.6803Y-2.125
X3.7295Y-2.125
T3
X3.4008Y-3.0575
X3.4008Y-3.1575
X3.5008Y-3.0575
X3.5008Y-3.1575
X3.6008Y-3.0575
X3.6008Y-3.1575
X3.7008Y-3.0575
X3.7008Y-3.1575
T0
M30
