%TF.GenerationSoftware,KiCad,Pcbnew,(6.0.7)*%
%TF.CreationDate,2023-06-01T17:44:57-07:00*%
%TF.ProjectId,connector_board,636f6e6e-6563-4746-9f72-5f626f617264,rev?*%
%TF.SameCoordinates,Original*%
%TF.FileFunction,Legend,Top*%
%TF.FilePolarity,Positive*%
%FSLAX46Y46*%
G04 Gerber Fmt 4.6, Leading zero omitted, Abs format (unit mm)*
G04 Created by KiCad (PCBNEW (6.0.7)) date 2023-06-01 17:44:57*
%MOMM*%
%LPD*%
G01*
G04 APERTURE LIST*
G04 Aperture macros list*
%AMRoundRect*
0 Rectangle with rounded corners*
0 $1 Rounding radius*
0 $2 $3 $4 $5 $6 $7 $8 $9 X,Y pos of 4 corners*
0 Add a 4 corners polygon primitive as box body*
4,1,4,$2,$3,$4,$5,$6,$7,$8,$9,$2,$3,0*
0 Add four circle primitives for the rounded corners*
1,1,$1+$1,$2,$3*
1,1,$1+$1,$4,$5*
1,1,$1+$1,$6,$7*
1,1,$1+$1,$8,$9*
0 Add four rect primitives between the rounded corners*
20,1,$1+$1,$2,$3,$4,$5,0*
20,1,$1+$1,$4,$5,$6,$7,0*
20,1,$1+$1,$6,$7,$8,$9,0*
20,1,$1+$1,$8,$9,$2,$3,0*%
G04 Aperture macros list end*
%ADD10C,0.050000*%
%ADD11C,0.120000*%
%ADD12C,0.150000*%
%ADD13C,0.050800*%
%ADD14RoundRect,0.200000X-0.200000X-0.450000X0.200000X-0.450000X0.200000X0.450000X-0.200000X0.450000X0*%
%ADD15O,0.800000X1.300000*%
%ADD16RoundRect,0.135000X0.135000X0.185000X-0.135000X0.185000X-0.135000X-0.185000X0.135000X-0.185000X0*%
%ADD17RoundRect,0.243750X-0.243750X-0.456250X0.243750X-0.456250X0.243750X0.456250X-0.243750X0.456250X0*%
%ADD18C,0.762000*%
%ADD19R,1.700000X1.700000*%
%ADD20O,1.700000X1.700000*%
G04 APERTURE END LIST*
D10*
X92892761Y-74783190D02*
X93202285Y-74783190D01*
X93035619Y-74973666D01*
X93107047Y-74973666D01*
X93154666Y-74997476D01*
X93178476Y-75021285D01*
X93202285Y-75068904D01*
X93202285Y-75187952D01*
X93178476Y-75235571D01*
X93154666Y-75259380D01*
X93107047Y-75283190D01*
X92964190Y-75283190D01*
X92916571Y-75259380D01*
X92892761Y-75235571D01*
X93368952Y-74783190D02*
X93488000Y-75283190D01*
X93583238Y-74926047D01*
X93678476Y-75283190D01*
X93797523Y-74783190D01*
X94154666Y-75021285D02*
X94226095Y-75045095D01*
X94249904Y-75068904D01*
X94273714Y-75116523D01*
X94273714Y-75187952D01*
X94249904Y-75235571D01*
X94226095Y-75259380D01*
X94178476Y-75283190D01*
X93988000Y-75283190D01*
X93988000Y-74783190D01*
X94154666Y-74783190D01*
X94202285Y-74807000D01*
X94226095Y-74830809D01*
X94249904Y-74878428D01*
X94249904Y-74926047D01*
X94226095Y-74973666D01*
X94202285Y-74997476D01*
X94154666Y-75021285D01*
X93988000Y-75021285D01*
X94368952Y-75330809D02*
X94749904Y-75330809D01*
X95154666Y-75235571D02*
X95130857Y-75259380D01*
X95059428Y-75283190D01*
X95011809Y-75283190D01*
X94940380Y-75259380D01*
X94892761Y-75211761D01*
X94868952Y-75164142D01*
X94845142Y-75068904D01*
X94845142Y-74997476D01*
X94868952Y-74902238D01*
X94892761Y-74854619D01*
X94940380Y-74807000D01*
X95011809Y-74783190D01*
X95059428Y-74783190D01*
X95130857Y-74807000D01*
X95154666Y-74830809D01*
X95607047Y-75283190D02*
X95368952Y-75283190D01*
X95368952Y-74783190D01*
X95773714Y-75283190D02*
X95773714Y-74783190D01*
X96059428Y-75283190D02*
X95845142Y-74997476D01*
X96059428Y-74783190D02*
X95773714Y-75068904D01*
X94242000Y-83030190D02*
X94075333Y-82792095D01*
X93956285Y-83030190D02*
X93956285Y-82530190D01*
X94146761Y-82530190D01*
X94194380Y-82554000D01*
X94218190Y-82577809D01*
X94242000Y-82625428D01*
X94242000Y-82696857D01*
X94218190Y-82744476D01*
X94194380Y-82768285D01*
X94146761Y-82792095D01*
X93956285Y-82792095D01*
X94432476Y-83006380D02*
X94480095Y-83030190D01*
X94575333Y-83030190D01*
X94622952Y-83006380D01*
X94646761Y-82958761D01*
X94646761Y-82934952D01*
X94622952Y-82887333D01*
X94575333Y-82863523D01*
X94503904Y-82863523D01*
X94456285Y-82839714D01*
X94432476Y-82792095D01*
X94432476Y-82768285D01*
X94456285Y-82720666D01*
X94503904Y-82696857D01*
X94575333Y-82696857D01*
X94622952Y-82720666D01*
X95146761Y-83030190D02*
X94980095Y-82792095D01*
X94861047Y-83030190D02*
X94861047Y-82530190D01*
X95051523Y-82530190D01*
X95099142Y-82554000D01*
X95122952Y-82577809D01*
X95146761Y-82625428D01*
X95146761Y-82696857D01*
X95122952Y-82744476D01*
X95099142Y-82768285D01*
X95051523Y-82792095D01*
X94861047Y-82792095D01*
X95313428Y-83030190D02*
X95575333Y-82696857D01*
X95313428Y-82696857D02*
X95575333Y-83030190D01*
X91948047Y-82554000D02*
X91900428Y-82530190D01*
X91829000Y-82530190D01*
X91757571Y-82554000D01*
X91709952Y-82601619D01*
X91686142Y-82649238D01*
X91662333Y-82744476D01*
X91662333Y-82815904D01*
X91686142Y-82911142D01*
X91709952Y-82958761D01*
X91757571Y-83006380D01*
X91829000Y-83030190D01*
X91876619Y-83030190D01*
X91948047Y-83006380D01*
X91971857Y-82982571D01*
X91971857Y-82815904D01*
X91876619Y-82815904D01*
X92186142Y-83030190D02*
X92186142Y-82530190D01*
X92471857Y-83030190D01*
X92471857Y-82530190D01*
X92709952Y-83030190D02*
X92709952Y-82530190D01*
X92829000Y-82530190D01*
X92900428Y-82554000D01*
X92948047Y-82601619D01*
X92971857Y-82649238D01*
X92995666Y-82744476D01*
X92995666Y-82815904D01*
X92971857Y-82911142D01*
X92948047Y-82958761D01*
X92900428Y-83006380D01*
X92829000Y-83030190D01*
X92709952Y-83030190D01*
X87138095Y-82530190D02*
X87447619Y-82530190D01*
X87280952Y-82720666D01*
X87352380Y-82720666D01*
X87400000Y-82744476D01*
X87423809Y-82768285D01*
X87447619Y-82815904D01*
X87447619Y-82934952D01*
X87423809Y-82982571D01*
X87400000Y-83006380D01*
X87352380Y-83030190D01*
X87209523Y-83030190D01*
X87161904Y-83006380D01*
X87138095Y-82982571D01*
X87614285Y-82530190D02*
X87733333Y-83030190D01*
X87828571Y-82673047D01*
X87923809Y-83030190D01*
X88042857Y-82530190D01*
X88400000Y-82768285D02*
X88471428Y-82792095D01*
X88495238Y-82815904D01*
X88519047Y-82863523D01*
X88519047Y-82934952D01*
X88495238Y-82982571D01*
X88471428Y-83006380D01*
X88423809Y-83030190D01*
X88233333Y-83030190D01*
X88233333Y-82530190D01*
X88400000Y-82530190D01*
X88447619Y-82554000D01*
X88471428Y-82577809D01*
X88495238Y-82625428D01*
X88495238Y-82673047D01*
X88471428Y-82720666D01*
X88447619Y-82744476D01*
X88400000Y-82768285D01*
X88233333Y-82768285D01*
X88614285Y-83077809D02*
X88995238Y-83077809D01*
X89114285Y-83030190D02*
X89114285Y-82530190D01*
X89233333Y-82530190D01*
X89304761Y-82554000D01*
X89352380Y-82601619D01*
X89376190Y-82649238D01*
X89400000Y-82744476D01*
X89400000Y-82815904D01*
X89376190Y-82911142D01*
X89352380Y-82958761D01*
X89304761Y-83006380D01*
X89233333Y-83030190D01*
X89114285Y-83030190D01*
X89590476Y-82887333D02*
X89828571Y-82887333D01*
X89542857Y-83030190D02*
X89709523Y-82530190D01*
X89876190Y-83030190D01*
X89971428Y-82530190D02*
X90257142Y-82530190D01*
X90114285Y-83030190D02*
X90114285Y-82530190D01*
X90400000Y-82887333D02*
X90638095Y-82887333D01*
X90352380Y-83030190D02*
X90519047Y-82530190D01*
X90685714Y-83030190D01*
X91253523Y-75283190D02*
X91086857Y-75045095D01*
X90967809Y-75283190D02*
X90967809Y-74783190D01*
X91158285Y-74783190D01*
X91205904Y-74807000D01*
X91229714Y-74830809D01*
X91253523Y-74878428D01*
X91253523Y-74949857D01*
X91229714Y-74997476D01*
X91205904Y-75021285D01*
X91158285Y-75045095D01*
X90967809Y-75045095D01*
X91444000Y-75259380D02*
X91491619Y-75283190D01*
X91586857Y-75283190D01*
X91634476Y-75259380D01*
X91658285Y-75211761D01*
X91658285Y-75187952D01*
X91634476Y-75140333D01*
X91586857Y-75116523D01*
X91515428Y-75116523D01*
X91467809Y-75092714D01*
X91444000Y-75045095D01*
X91444000Y-75021285D01*
X91467809Y-74973666D01*
X91515428Y-74949857D01*
X91586857Y-74949857D01*
X91634476Y-74973666D01*
X91801142Y-74783190D02*
X92086857Y-74783190D01*
X91944000Y-75283190D02*
X91944000Y-74783190D01*
X92205904Y-75283190D02*
X92467809Y-74949857D01*
X92205904Y-74949857D02*
X92467809Y-75283190D01*
X87142047Y-74783190D02*
X87451571Y-74783190D01*
X87284904Y-74973666D01*
X87356333Y-74973666D01*
X87403952Y-74997476D01*
X87427761Y-75021285D01*
X87451571Y-75068904D01*
X87451571Y-75187952D01*
X87427761Y-75235571D01*
X87403952Y-75259380D01*
X87356333Y-75283190D01*
X87213476Y-75283190D01*
X87165857Y-75259380D01*
X87142047Y-75235571D01*
X87618238Y-74783190D02*
X87737285Y-75283190D01*
X87832523Y-74926047D01*
X87927761Y-75283190D01*
X88046809Y-74783190D01*
X88403952Y-75021285D02*
X88475380Y-75045095D01*
X88499190Y-75068904D01*
X88523000Y-75116523D01*
X88523000Y-75187952D01*
X88499190Y-75235571D01*
X88475380Y-75259380D01*
X88427761Y-75283190D01*
X88237285Y-75283190D01*
X88237285Y-74783190D01*
X88403952Y-74783190D01*
X88451571Y-74807000D01*
X88475380Y-74830809D01*
X88499190Y-74878428D01*
X88499190Y-74926047D01*
X88475380Y-74973666D01*
X88451571Y-74997476D01*
X88403952Y-75021285D01*
X88237285Y-75021285D01*
X88618238Y-75330809D02*
X88999190Y-75330809D01*
X89118238Y-75021285D02*
X89284904Y-75021285D01*
X89356333Y-75283190D02*
X89118238Y-75283190D01*
X89118238Y-74783190D01*
X89356333Y-74783190D01*
X89570619Y-75283190D02*
X89570619Y-74783190D01*
X89856333Y-75283190D01*
X89856333Y-74783190D01*
X90261095Y-75021285D02*
X90332523Y-75045095D01*
X90356333Y-75068904D01*
X90380142Y-75116523D01*
X90380142Y-75187952D01*
X90356333Y-75235571D01*
X90332523Y-75259380D01*
X90284904Y-75283190D01*
X90094428Y-75283190D01*
X90094428Y-74783190D01*
X90261095Y-74783190D01*
X90308714Y-74807000D01*
X90332523Y-74830809D01*
X90356333Y-74878428D01*
X90356333Y-74926047D01*
X90332523Y-74973666D01*
X90308714Y-74997476D01*
X90261095Y-75021285D01*
X90094428Y-75021285D01*
X83371714Y-75283190D02*
X83371714Y-74783190D01*
X83371714Y-75021285D02*
X83657428Y-75021285D01*
X83657428Y-75283190D02*
X83657428Y-74783190D01*
X83776476Y-75330809D02*
X84157428Y-75330809D01*
X84562190Y-75283190D02*
X84395523Y-75045095D01*
X84276476Y-75283190D02*
X84276476Y-74783190D01*
X84466952Y-74783190D01*
X84514571Y-74807000D01*
X84538380Y-74830809D01*
X84562190Y-74878428D01*
X84562190Y-74949857D01*
X84538380Y-74997476D01*
X84514571Y-75021285D01*
X84466952Y-75045095D01*
X84276476Y-75045095D01*
X84776476Y-75021285D02*
X84943142Y-75021285D01*
X85014571Y-75283190D02*
X84776476Y-75283190D01*
X84776476Y-74783190D01*
X85014571Y-74783190D01*
X85205047Y-75259380D02*
X85276476Y-75283190D01*
X85395523Y-75283190D01*
X85443142Y-75259380D01*
X85466952Y-75235571D01*
X85490761Y-75187952D01*
X85490761Y-75140333D01*
X85466952Y-75092714D01*
X85443142Y-75068904D01*
X85395523Y-75045095D01*
X85300285Y-75021285D01*
X85252666Y-74997476D01*
X85228857Y-74973666D01*
X85205047Y-74926047D01*
X85205047Y-74878428D01*
X85228857Y-74830809D01*
X85252666Y-74807000D01*
X85300285Y-74783190D01*
X85419333Y-74783190D01*
X85490761Y-74807000D01*
X85705047Y-75021285D02*
X85871714Y-75021285D01*
X85943142Y-75283190D02*
X85705047Y-75283190D01*
X85705047Y-74783190D01*
X85943142Y-74783190D01*
X86086000Y-74783190D02*
X86371714Y-74783190D01*
X86228857Y-75283190D02*
X86228857Y-74783190D01*
X83018523Y-82839714D02*
X83399476Y-82839714D01*
X83209000Y-83030190D02*
X83209000Y-82649238D01*
X83637571Y-82768285D02*
X83804238Y-82768285D01*
X83875666Y-83030190D02*
X83637571Y-83030190D01*
X83637571Y-82530190D01*
X83875666Y-82530190D01*
X84042333Y-82530190D02*
X84375666Y-83030190D01*
X84375666Y-82530190D02*
X84042333Y-83030190D01*
X84494714Y-82530190D02*
X84780428Y-82530190D01*
X84637571Y-83030190D02*
X84637571Y-82530190D01*
X84828047Y-83077809D02*
X85209000Y-83077809D01*
X85494714Y-82768285D02*
X85566142Y-82792095D01*
X85589952Y-82815904D01*
X85613761Y-82863523D01*
X85613761Y-82934952D01*
X85589952Y-82982571D01*
X85566142Y-83006380D01*
X85518523Y-83030190D01*
X85328047Y-83030190D01*
X85328047Y-82530190D01*
X85494714Y-82530190D01*
X85542333Y-82554000D01*
X85566142Y-82577809D01*
X85589952Y-82625428D01*
X85589952Y-82673047D01*
X85566142Y-82720666D01*
X85542333Y-82744476D01*
X85494714Y-82768285D01*
X85328047Y-82768285D01*
X85804238Y-82887333D02*
X86042333Y-82887333D01*
X85756619Y-83030190D02*
X85923285Y-82530190D01*
X86089952Y-83030190D01*
X86185190Y-82530190D02*
X86470904Y-82530190D01*
X86328047Y-83030190D02*
X86328047Y-82530190D01*
X94361047Y-56011000D02*
X94313428Y-55987190D01*
X94242000Y-55987190D01*
X94170571Y-56011000D01*
X94122952Y-56058619D01*
X94099142Y-56106238D01*
X94075333Y-56201476D01*
X94075333Y-56272904D01*
X94099142Y-56368142D01*
X94122952Y-56415761D01*
X94170571Y-56463380D01*
X94242000Y-56487190D01*
X94289619Y-56487190D01*
X94361047Y-56463380D01*
X94384857Y-56439571D01*
X94384857Y-56272904D01*
X94289619Y-56272904D01*
X94599142Y-56487190D02*
X94599142Y-55987190D01*
X94884857Y-56487190D01*
X94884857Y-55987190D01*
X95122952Y-56487190D02*
X95122952Y-55987190D01*
X95242000Y-55987190D01*
X95313428Y-56011000D01*
X95361047Y-56058619D01*
X95384857Y-56106238D01*
X95408666Y-56201476D01*
X95408666Y-56272904D01*
X95384857Y-56368142D01*
X95361047Y-56415761D01*
X95313428Y-56463380D01*
X95242000Y-56487190D01*
X95122952Y-56487190D01*
X84161523Y-56423714D02*
X84542476Y-56423714D01*
X84352000Y-56614190D02*
X84352000Y-56233238D01*
X84780571Y-56352285D02*
X84947238Y-56352285D01*
X85018666Y-56614190D02*
X84780571Y-56614190D01*
X84780571Y-56114190D01*
X85018666Y-56114190D01*
X85185333Y-56114190D02*
X85518666Y-56614190D01*
X85518666Y-56114190D02*
X85185333Y-56614190D01*
X85637714Y-56114190D02*
X85923428Y-56114190D01*
X85780571Y-56614190D02*
X85780571Y-56114190D01*
X85971047Y-56661809D02*
X86352000Y-56661809D01*
X86637714Y-56352285D02*
X86709142Y-56376095D01*
X86732952Y-56399904D01*
X86756761Y-56447523D01*
X86756761Y-56518952D01*
X86732952Y-56566571D01*
X86709142Y-56590380D01*
X86661523Y-56614190D01*
X86471047Y-56614190D01*
X86471047Y-56114190D01*
X86637714Y-56114190D01*
X86685333Y-56138000D01*
X86709142Y-56161809D01*
X86732952Y-56209428D01*
X86732952Y-56257047D01*
X86709142Y-56304666D01*
X86685333Y-56328476D01*
X86637714Y-56352285D01*
X86471047Y-56352285D01*
X86947238Y-56471333D02*
X87185333Y-56471333D01*
X86899619Y-56614190D02*
X87066285Y-56114190D01*
X87232952Y-56614190D01*
X87328190Y-56114190D02*
X87613904Y-56114190D01*
X87471047Y-56614190D02*
X87471047Y-56114190D01*
X97222523Y-59662190D02*
X97055857Y-59424095D01*
X96936809Y-59662190D02*
X96936809Y-59162190D01*
X97127285Y-59162190D01*
X97174904Y-59186000D01*
X97198714Y-59209809D01*
X97222523Y-59257428D01*
X97222523Y-59328857D01*
X97198714Y-59376476D01*
X97174904Y-59400285D01*
X97127285Y-59424095D01*
X96936809Y-59424095D01*
X97413000Y-59638380D02*
X97460619Y-59662190D01*
X97555857Y-59662190D01*
X97603476Y-59638380D01*
X97627285Y-59590761D01*
X97627285Y-59566952D01*
X97603476Y-59519333D01*
X97555857Y-59495523D01*
X97484428Y-59495523D01*
X97436809Y-59471714D01*
X97413000Y-59424095D01*
X97413000Y-59400285D01*
X97436809Y-59352666D01*
X97484428Y-59328857D01*
X97555857Y-59328857D01*
X97603476Y-59352666D01*
X97770142Y-59162190D02*
X98055857Y-59162190D01*
X97913000Y-59662190D02*
X97913000Y-59162190D01*
X98174904Y-59662190D02*
X98436809Y-59328857D01*
X98174904Y-59328857D02*
X98436809Y-59662190D01*
D11*
X91850000Y-62891000D02*
X97650000Y-62891000D01*
X97650000Y-62891000D02*
X97650000Y-70291000D01*
X97650000Y-70291000D02*
X91850000Y-70291000D01*
X91850000Y-70291000D02*
X91850000Y-62891000D01*
D10*
X89666238Y-60805190D02*
X89666238Y-60305190D01*
X89666238Y-60543285D02*
X89951952Y-60543285D01*
X89951952Y-60805190D02*
X89951952Y-60305190D01*
X90404333Y-60805190D02*
X90404333Y-60543285D01*
X90380523Y-60495666D01*
X90332904Y-60471857D01*
X90237666Y-60471857D01*
X90190047Y-60495666D01*
X90404333Y-60781380D02*
X90356714Y-60805190D01*
X90237666Y-60805190D01*
X90190047Y-60781380D01*
X90166238Y-60733761D01*
X90166238Y-60686142D01*
X90190047Y-60638523D01*
X90237666Y-60614714D01*
X90356714Y-60614714D01*
X90404333Y-60590904D01*
X90642428Y-60805190D02*
X90642428Y-60471857D01*
X90642428Y-60567095D02*
X90666238Y-60519476D01*
X90690047Y-60495666D01*
X90737666Y-60471857D01*
X90785285Y-60471857D01*
X91166238Y-60805190D02*
X91166238Y-60305190D01*
X91166238Y-60781380D02*
X91118619Y-60805190D01*
X91023380Y-60805190D01*
X90975761Y-60781380D01*
X90951952Y-60757571D01*
X90928142Y-60709952D01*
X90928142Y-60567095D01*
X90951952Y-60519476D01*
X90975761Y-60495666D01*
X91023380Y-60471857D01*
X91118619Y-60471857D01*
X91166238Y-60495666D01*
X92071000Y-60805190D02*
X91904333Y-60567095D01*
X91785285Y-60805190D02*
X91785285Y-60305190D01*
X91975761Y-60305190D01*
X92023380Y-60329000D01*
X92047190Y-60352809D01*
X92071000Y-60400428D01*
X92071000Y-60471857D01*
X92047190Y-60519476D01*
X92023380Y-60543285D01*
X91975761Y-60567095D01*
X91785285Y-60567095D01*
X92475761Y-60781380D02*
X92428142Y-60805190D01*
X92332904Y-60805190D01*
X92285285Y-60781380D01*
X92261476Y-60733761D01*
X92261476Y-60543285D01*
X92285285Y-60495666D01*
X92332904Y-60471857D01*
X92428142Y-60471857D01*
X92475761Y-60495666D01*
X92499571Y-60543285D01*
X92499571Y-60590904D01*
X92261476Y-60638523D01*
X92690047Y-60781380D02*
X92737666Y-60805190D01*
X92832904Y-60805190D01*
X92880523Y-60781380D01*
X92904333Y-60733761D01*
X92904333Y-60709952D01*
X92880523Y-60662333D01*
X92832904Y-60638523D01*
X92761476Y-60638523D01*
X92713857Y-60614714D01*
X92690047Y-60567095D01*
X92690047Y-60543285D01*
X92713857Y-60495666D01*
X92761476Y-60471857D01*
X92832904Y-60471857D01*
X92880523Y-60495666D01*
X93309095Y-60781380D02*
X93261476Y-60805190D01*
X93166238Y-60805190D01*
X93118619Y-60781380D01*
X93094809Y-60733761D01*
X93094809Y-60543285D01*
X93118619Y-60495666D01*
X93166238Y-60471857D01*
X93261476Y-60471857D01*
X93309095Y-60495666D01*
X93332904Y-60543285D01*
X93332904Y-60590904D01*
X93094809Y-60638523D01*
X93475761Y-60471857D02*
X93666238Y-60471857D01*
X93547190Y-60305190D02*
X93547190Y-60733761D01*
X93571000Y-60781380D01*
X93618619Y-60805190D01*
X93666238Y-60805190D01*
X97163000Y-61567190D02*
X96996333Y-61329095D01*
X96877285Y-61567190D02*
X96877285Y-61067190D01*
X97067761Y-61067190D01*
X97115380Y-61091000D01*
X97139190Y-61114809D01*
X97163000Y-61162428D01*
X97163000Y-61233857D01*
X97139190Y-61281476D01*
X97115380Y-61305285D01*
X97067761Y-61329095D01*
X96877285Y-61329095D01*
X97353476Y-61543380D02*
X97401095Y-61567190D01*
X97496333Y-61567190D01*
X97543952Y-61543380D01*
X97567761Y-61495761D01*
X97567761Y-61471952D01*
X97543952Y-61424333D01*
X97496333Y-61400523D01*
X97424904Y-61400523D01*
X97377285Y-61376714D01*
X97353476Y-61329095D01*
X97353476Y-61305285D01*
X97377285Y-61257666D01*
X97424904Y-61233857D01*
X97496333Y-61233857D01*
X97543952Y-61257666D01*
X98067761Y-61567190D02*
X97901095Y-61329095D01*
X97782047Y-61567190D02*
X97782047Y-61067190D01*
X97972523Y-61067190D01*
X98020142Y-61091000D01*
X98043952Y-61114809D01*
X98067761Y-61162428D01*
X98067761Y-61233857D01*
X98043952Y-61281476D01*
X98020142Y-61305285D01*
X97972523Y-61329095D01*
X97782047Y-61329095D01*
X98234428Y-61567190D02*
X98496333Y-61233857D01*
X98234428Y-61233857D02*
X98496333Y-61567190D01*
X94952380Y-66069571D02*
X94928571Y-66093380D01*
X94857142Y-66117190D01*
X94809523Y-66117190D01*
X94738095Y-66093380D01*
X94690476Y-66045761D01*
X94666666Y-65998142D01*
X94642857Y-65902904D01*
X94642857Y-65831476D01*
X94666666Y-65736238D01*
X94690476Y-65688619D01*
X94738095Y-65641000D01*
X94809523Y-65617190D01*
X94857142Y-65617190D01*
X94928571Y-65641000D01*
X94952380Y-65664809D01*
X95404761Y-66117190D02*
X95166666Y-66117190D01*
X95166666Y-65617190D01*
X95571428Y-66117190D02*
X95571428Y-65617190D01*
X95857142Y-66117190D02*
X95642857Y-65831476D01*
X95857142Y-65617190D02*
X95571428Y-65902904D01*
X94500000Y-69717190D02*
X94500000Y-69217190D01*
X94619047Y-69217190D01*
X94690476Y-69241000D01*
X94738095Y-69288619D01*
X94761904Y-69336238D01*
X94785714Y-69431476D01*
X94785714Y-69502904D01*
X94761904Y-69598142D01*
X94738095Y-69645761D01*
X94690476Y-69693380D01*
X94619047Y-69717190D01*
X94500000Y-69717190D01*
X94976190Y-69574333D02*
X95214285Y-69574333D01*
X94928571Y-69717190D02*
X95095238Y-69217190D01*
X95261904Y-69717190D01*
X95357142Y-69217190D02*
X95642857Y-69217190D01*
X95500000Y-69717190D02*
X95500000Y-69217190D01*
X95785714Y-69574333D02*
X96023809Y-69574333D01*
X95738095Y-69717190D02*
X95904761Y-69217190D01*
X96071428Y-69717190D01*
X86701523Y-62138714D02*
X87082476Y-62138714D01*
X86892000Y-62329190D02*
X86892000Y-61948238D01*
X87320571Y-62067285D02*
X87487238Y-62067285D01*
X87558666Y-62329190D02*
X87320571Y-62329190D01*
X87320571Y-61829190D01*
X87558666Y-61829190D01*
X87725333Y-61829190D02*
X88058666Y-62329190D01*
X88058666Y-61829190D02*
X87725333Y-62329190D01*
X88177714Y-61829190D02*
X88463428Y-61829190D01*
X88320571Y-62329190D02*
X88320571Y-61829190D01*
X88511047Y-62376809D02*
X88892000Y-62376809D01*
X89177714Y-62067285D02*
X89249142Y-62091095D01*
X89272952Y-62114904D01*
X89296761Y-62162523D01*
X89296761Y-62233952D01*
X89272952Y-62281571D01*
X89249142Y-62305380D01*
X89201523Y-62329190D01*
X89011047Y-62329190D01*
X89011047Y-61829190D01*
X89177714Y-61829190D01*
X89225333Y-61853000D01*
X89249142Y-61876809D01*
X89272952Y-61924428D01*
X89272952Y-61972047D01*
X89249142Y-62019666D01*
X89225333Y-62043476D01*
X89177714Y-62067285D01*
X89011047Y-62067285D01*
X89487238Y-62186333D02*
X89725333Y-62186333D01*
X89439619Y-62329190D02*
X89606285Y-61829190D01*
X89772952Y-62329190D01*
X89868190Y-61829190D02*
X90153904Y-61829190D01*
X90011047Y-62329190D02*
X90011047Y-61829190D01*
X94630952Y-67655285D02*
X94797619Y-67655285D01*
X94869047Y-67917190D02*
X94630952Y-67917190D01*
X94630952Y-67417190D01*
X94869047Y-67417190D01*
X95083333Y-67917190D02*
X95083333Y-67417190D01*
X95369047Y-67917190D01*
X95369047Y-67417190D01*
X95773809Y-67655285D02*
X95845238Y-67679095D01*
X95869047Y-67702904D01*
X95892857Y-67750523D01*
X95892857Y-67821952D01*
X95869047Y-67869571D01*
X95845238Y-67893380D01*
X95797619Y-67917190D01*
X95607142Y-67917190D01*
X95607142Y-67417190D01*
X95773809Y-67417190D01*
X95821428Y-67441000D01*
X95845238Y-67464809D01*
X95869047Y-67512428D01*
X95869047Y-67560047D01*
X95845238Y-67607666D01*
X95821428Y-67631476D01*
X95773809Y-67655285D01*
X95607142Y-67655285D01*
X97104047Y-57027000D02*
X97056428Y-57003190D01*
X96985000Y-57003190D01*
X96913571Y-57027000D01*
X96865952Y-57074619D01*
X96842142Y-57122238D01*
X96818333Y-57217476D01*
X96818333Y-57288904D01*
X96842142Y-57384142D01*
X96865952Y-57431761D01*
X96913571Y-57479380D01*
X96985000Y-57503190D01*
X97032619Y-57503190D01*
X97104047Y-57479380D01*
X97127857Y-57455571D01*
X97127857Y-57288904D01*
X97032619Y-57288904D01*
X97342142Y-57503190D02*
X97342142Y-57003190D01*
X97627857Y-57503190D01*
X97627857Y-57003190D01*
X97865952Y-57503190D02*
X97865952Y-57003190D01*
X97985000Y-57003190D01*
X98056428Y-57027000D01*
X98104047Y-57074619D01*
X98127857Y-57122238D01*
X98151666Y-57217476D01*
X98151666Y-57288904D01*
X98127857Y-57384142D01*
X98104047Y-57431761D01*
X98056428Y-57479380D01*
X97985000Y-57503190D01*
X97865952Y-57503190D01*
X93169047Y-63617190D02*
X93478571Y-63617190D01*
X93311904Y-63807666D01*
X93383333Y-63807666D01*
X93430952Y-63831476D01*
X93454761Y-63855285D01*
X93478571Y-63902904D01*
X93478571Y-64021952D01*
X93454761Y-64069571D01*
X93430952Y-64093380D01*
X93383333Y-64117190D01*
X93240476Y-64117190D01*
X93192857Y-64093380D01*
X93169047Y-64069571D01*
X93645238Y-63617190D02*
X93764285Y-64117190D01*
X93859523Y-63760047D01*
X93954761Y-64117190D01*
X94073809Y-63617190D01*
X94430952Y-63855285D02*
X94502380Y-63879095D01*
X94526190Y-63902904D01*
X94550000Y-63950523D01*
X94550000Y-64021952D01*
X94526190Y-64069571D01*
X94502380Y-64093380D01*
X94454761Y-64117190D01*
X94264285Y-64117190D01*
X94264285Y-63617190D01*
X94430952Y-63617190D01*
X94478571Y-63641000D01*
X94502380Y-63664809D01*
X94526190Y-63712428D01*
X94526190Y-63760047D01*
X94502380Y-63807666D01*
X94478571Y-63831476D01*
X94430952Y-63855285D01*
X94264285Y-63855285D01*
X95145238Y-64117190D02*
X95145238Y-63617190D01*
X95335714Y-63617190D01*
X95383333Y-63641000D01*
X95407142Y-63664809D01*
X95430952Y-63712428D01*
X95430952Y-63783857D01*
X95407142Y-63831476D01*
X95383333Y-63855285D01*
X95335714Y-63879095D01*
X95145238Y-63879095D01*
X95645238Y-64117190D02*
X95645238Y-63783857D01*
X95645238Y-63617190D02*
X95621428Y-63641000D01*
X95645238Y-63664809D01*
X95669047Y-63641000D01*
X95645238Y-63617190D01*
X95645238Y-63664809D01*
X95883333Y-63783857D02*
X95883333Y-64117190D01*
X95883333Y-63831476D02*
X95907142Y-63807666D01*
X95954761Y-63783857D01*
X96026190Y-63783857D01*
X96073809Y-63807666D01*
X96097619Y-63855285D01*
X96097619Y-64117190D01*
X96311904Y-64093380D02*
X96359523Y-64117190D01*
X96454761Y-64117190D01*
X96502380Y-64093380D01*
X96526190Y-64045761D01*
X96526190Y-64021952D01*
X96502380Y-63974333D01*
X96454761Y-63950523D01*
X96383333Y-63950523D01*
X96335714Y-63926714D01*
X96311904Y-63879095D01*
X96311904Y-63855285D01*
X96335714Y-63807666D01*
X96383333Y-63783857D01*
X96454761Y-63783857D01*
X96502380Y-63807666D01*
D12*
%TO.C,J1*%
X82470666Y-53300380D02*
X82470666Y-54014666D01*
X82423047Y-54157523D01*
X82327809Y-54252761D01*
X82184952Y-54300380D01*
X82089714Y-54300380D01*
X83470666Y-54300380D02*
X82899238Y-54300380D01*
X83184952Y-54300380D02*
X83184952Y-53300380D01*
X83089714Y-53443238D01*
X82994476Y-53538476D01*
X82899238Y-53586095D01*
%TO.C,R1*%
X86195333Y-65476380D02*
X85862000Y-65000190D01*
X85623904Y-65476380D02*
X85623904Y-64476380D01*
X86004857Y-64476380D01*
X86100095Y-64524000D01*
X86147714Y-64571619D01*
X86195333Y-64666857D01*
X86195333Y-64809714D01*
X86147714Y-64904952D01*
X86100095Y-64952571D01*
X86004857Y-65000190D01*
X85623904Y-65000190D01*
X87147714Y-65476380D02*
X86576285Y-65476380D01*
X86862000Y-65476380D02*
X86862000Y-64476380D01*
X86766761Y-64619238D01*
X86671523Y-64714476D01*
X86576285Y-64762095D01*
%TO.C,D1*%
X82827904Y-65984380D02*
X82827904Y-64984380D01*
X83066000Y-64984380D01*
X83208857Y-65032000D01*
X83304095Y-65127238D01*
X83351714Y-65222476D01*
X83399333Y-65412952D01*
X83399333Y-65555809D01*
X83351714Y-65746285D01*
X83304095Y-65841523D01*
X83208857Y-65936761D01*
X83066000Y-65984380D01*
X82827904Y-65984380D01*
X84351714Y-65984380D02*
X83780285Y-65984380D01*
X84066000Y-65984380D02*
X84066000Y-64984380D01*
X83970761Y-65127238D01*
X83875523Y-65222476D01*
X83780285Y-65270095D01*
D13*
%TO.C,TP7*%
X95716876Y-58738104D02*
X95862019Y-58738104D01*
X95789447Y-58992104D02*
X95789447Y-58738104D01*
X95946685Y-58992104D02*
X95946685Y-58738104D01*
X96043447Y-58738104D01*
X96067638Y-58750200D01*
X96079733Y-58762295D01*
X96091828Y-58786485D01*
X96091828Y-58822771D01*
X96079733Y-58846961D01*
X96067638Y-58859057D01*
X96043447Y-58871152D01*
X95946685Y-58871152D01*
X96176495Y-58738104D02*
X96345828Y-58738104D01*
X96236971Y-58992104D01*
%TO.C,TP5*%
X92929476Y-65151904D02*
X93074619Y-65151904D01*
X93002047Y-65405904D02*
X93002047Y-65151904D01*
X93159285Y-65405904D02*
X93159285Y-65151904D01*
X93256047Y-65151904D01*
X93280238Y-65164000D01*
X93292333Y-65176095D01*
X93304428Y-65200285D01*
X93304428Y-65236571D01*
X93292333Y-65260761D01*
X93280238Y-65272857D01*
X93256047Y-65284952D01*
X93159285Y-65284952D01*
X93534238Y-65151904D02*
X93413285Y-65151904D01*
X93401190Y-65272857D01*
X93413285Y-65260761D01*
X93437476Y-65248666D01*
X93497952Y-65248666D01*
X93522142Y-65260761D01*
X93534238Y-65272857D01*
X93546333Y-65297047D01*
X93546333Y-65357523D01*
X93534238Y-65381714D01*
X93522142Y-65393809D01*
X93497952Y-65405904D01*
X93437476Y-65405904D01*
X93413285Y-65393809D01*
X93401190Y-65381714D01*
%TO.C,TP6*%
X95716876Y-60706104D02*
X95862019Y-60706104D01*
X95789447Y-60960104D02*
X95789447Y-60706104D01*
X95946685Y-60960104D02*
X95946685Y-60706104D01*
X96043447Y-60706104D01*
X96067638Y-60718200D01*
X96079733Y-60730295D01*
X96091828Y-60754485D01*
X96091828Y-60790771D01*
X96079733Y-60814961D01*
X96067638Y-60827057D01*
X96043447Y-60839152D01*
X95946685Y-60839152D01*
X96309542Y-60706104D02*
X96261161Y-60706104D01*
X96236971Y-60718200D01*
X96224876Y-60730295D01*
X96200685Y-60766580D01*
X96188590Y-60814961D01*
X96188590Y-60911723D01*
X96200685Y-60935914D01*
X96212780Y-60948009D01*
X96236971Y-60960104D01*
X96285352Y-60960104D01*
X96309542Y-60948009D01*
X96321638Y-60935914D01*
X96333733Y-60911723D01*
X96333733Y-60851247D01*
X96321638Y-60827057D01*
X96309542Y-60814961D01*
X96285352Y-60802866D01*
X96236971Y-60802866D01*
X96212780Y-60814961D01*
X96200685Y-60827057D01*
X96188590Y-60851247D01*
%TO.C,TP8*%
X95716876Y-56579104D02*
X95862019Y-56579104D01*
X95789447Y-56833104D02*
X95789447Y-56579104D01*
X95946685Y-56833104D02*
X95946685Y-56579104D01*
X96043447Y-56579104D01*
X96067638Y-56591200D01*
X96079733Y-56603295D01*
X96091828Y-56627485D01*
X96091828Y-56663771D01*
X96079733Y-56687961D01*
X96067638Y-56700057D01*
X96043447Y-56712152D01*
X95946685Y-56712152D01*
X96236971Y-56687961D02*
X96212780Y-56675866D01*
X96200685Y-56663771D01*
X96188590Y-56639580D01*
X96188590Y-56627485D01*
X96200685Y-56603295D01*
X96212780Y-56591200D01*
X96236971Y-56579104D01*
X96285352Y-56579104D01*
X96309542Y-56591200D01*
X96321638Y-56603295D01*
X96333733Y-56627485D01*
X96333733Y-56639580D01*
X96321638Y-56663771D01*
X96309542Y-56675866D01*
X96285352Y-56687961D01*
X96236971Y-56687961D01*
X96212780Y-56700057D01*
X96200685Y-56712152D01*
X96188590Y-56736342D01*
X96188590Y-56784723D01*
X96200685Y-56808914D01*
X96212780Y-56821009D01*
X96236971Y-56833104D01*
X96285352Y-56833104D01*
X96309542Y-56821009D01*
X96321638Y-56808914D01*
X96333733Y-56784723D01*
X96333733Y-56736342D01*
X96321638Y-56712152D01*
X96309542Y-56700057D01*
X96285352Y-56687961D01*
D12*
%TO.C,J2*%
X82891380Y-79263333D02*
X83605666Y-79263333D01*
X83748523Y-79310952D01*
X83843761Y-79406190D01*
X83891380Y-79549047D01*
X83891380Y-79644285D01*
X82986619Y-78834761D02*
X82939000Y-78787142D01*
X82891380Y-78691904D01*
X82891380Y-78453809D01*
X82939000Y-78358571D01*
X82986619Y-78310952D01*
X83081857Y-78263333D01*
X83177095Y-78263333D01*
X83319952Y-78310952D01*
X83891380Y-78882380D01*
X83891380Y-78263333D01*
D13*
%TO.C,TP3*%
X93081876Y-68793104D02*
X93227019Y-68793104D01*
X93154447Y-69047104D02*
X93154447Y-68793104D01*
X93311685Y-69047104D02*
X93311685Y-68793104D01*
X93408447Y-68793104D01*
X93432638Y-68805200D01*
X93444733Y-68817295D01*
X93456828Y-68841485D01*
X93456828Y-68877771D01*
X93444733Y-68901961D01*
X93432638Y-68914057D01*
X93408447Y-68926152D01*
X93311685Y-68926152D01*
X93541495Y-68793104D02*
X93698733Y-68793104D01*
X93614066Y-68889866D01*
X93650352Y-68889866D01*
X93674542Y-68901961D01*
X93686638Y-68914057D01*
X93698733Y-68938247D01*
X93698733Y-68998723D01*
X93686638Y-69022914D01*
X93674542Y-69035009D01*
X93650352Y-69047104D01*
X93577780Y-69047104D01*
X93553590Y-69035009D01*
X93541495Y-69022914D01*
%TO.C,TP1*%
X88096876Y-62598904D02*
X88242019Y-62598904D01*
X88169447Y-62852904D02*
X88169447Y-62598904D01*
X88326685Y-62852904D02*
X88326685Y-62598904D01*
X88423447Y-62598904D01*
X88447638Y-62611000D01*
X88459733Y-62623095D01*
X88471828Y-62647285D01*
X88471828Y-62683571D01*
X88459733Y-62707761D01*
X88447638Y-62719857D01*
X88423447Y-62731952D01*
X88326685Y-62731952D01*
X88713733Y-62852904D02*
X88568590Y-62852904D01*
X88641161Y-62852904D02*
X88641161Y-62598904D01*
X88616971Y-62635190D01*
X88592780Y-62659380D01*
X88568590Y-62671476D01*
%TO.C,TP4*%
X93081876Y-66951904D02*
X93227019Y-66951904D01*
X93154447Y-67205904D02*
X93154447Y-66951904D01*
X93311685Y-67205904D02*
X93311685Y-66951904D01*
X93408447Y-66951904D01*
X93432638Y-66964000D01*
X93444733Y-66976095D01*
X93456828Y-67000285D01*
X93456828Y-67036571D01*
X93444733Y-67060761D01*
X93432638Y-67072857D01*
X93408447Y-67084952D01*
X93311685Y-67084952D01*
X93674542Y-67036571D02*
X93674542Y-67205904D01*
X93614066Y-66939809D02*
X93553590Y-67121238D01*
X93710828Y-67121238D01*
%TO.C,TP2*%
X88375476Y-59759904D02*
X88520619Y-59759904D01*
X88448047Y-60013904D02*
X88448047Y-59759904D01*
X88605285Y-60013904D02*
X88605285Y-59759904D01*
X88702047Y-59759904D01*
X88726238Y-59772000D01*
X88738333Y-59784095D01*
X88750428Y-59808285D01*
X88750428Y-59844571D01*
X88738333Y-59868761D01*
X88726238Y-59880857D01*
X88702047Y-59892952D01*
X88605285Y-59892952D01*
X88847190Y-59784095D02*
X88859285Y-59772000D01*
X88883476Y-59759904D01*
X88943952Y-59759904D01*
X88968142Y-59772000D01*
X88980238Y-59784095D01*
X88992333Y-59808285D01*
X88992333Y-59832476D01*
X88980238Y-59868761D01*
X88835095Y-60013904D01*
X88992333Y-60013904D01*
D11*
%TO.C,J1*%
X84369000Y-51815000D02*
X84369000Y-55235000D01*
X84369000Y-55235000D02*
X96339000Y-55235000D01*
X96339000Y-55235000D02*
X96339000Y-51815000D01*
X96339000Y-51815000D02*
X84369000Y-51815000D01*
X90354000Y-54725000D02*
X84879000Y-54725000D01*
X84879000Y-54725000D02*
X84879000Y-53975000D01*
X84879000Y-53975000D02*
X84679000Y-53975000D01*
X84679000Y-53975000D02*
X84679000Y-53175000D01*
X84679000Y-53175000D02*
X84879000Y-53175000D01*
X84879000Y-53175000D02*
X84879000Y-52325000D01*
X84879000Y-52325000D02*
X90354000Y-52325000D01*
X90354000Y-54725000D02*
X95829000Y-54725000D01*
X95829000Y-54725000D02*
X95829000Y-53975000D01*
X95829000Y-53975000D02*
X96029000Y-53975000D01*
X96029000Y-53975000D02*
X96029000Y-53175000D01*
X96029000Y-53175000D02*
X95829000Y-53175000D01*
X95829000Y-53175000D02*
X95829000Y-52325000D01*
X95829000Y-52325000D02*
X90354000Y-52325000D01*
X84079000Y-55525000D02*
X84079000Y-54525000D01*
X84079000Y-55525000D02*
X85079000Y-55525000D01*
%TO.C,R1*%
X86515641Y-63880000D02*
X86208359Y-63880000D01*
X86515641Y-63120000D02*
X86208359Y-63120000D01*
%TO.C,D1*%
X81881000Y-64460000D02*
X84566000Y-64460000D01*
X81881000Y-62540000D02*
X81881000Y-64460000D01*
X84566000Y-62540000D02*
X81881000Y-62540000D01*
%TO.C,J2*%
X86380000Y-81530000D02*
X85050000Y-81530000D01*
X85050000Y-81530000D02*
X85050000Y-80200000D01*
X87650000Y-81530000D02*
X87650000Y-78930000D01*
X95330000Y-81530000D02*
X95330000Y-76330000D01*
X85050000Y-78930000D02*
X85050000Y-76330000D01*
X87650000Y-81530000D02*
X95330000Y-81530000D01*
X85050000Y-76330000D02*
X95330000Y-76330000D01*
X87650000Y-78930000D02*
X85050000Y-78930000D01*
%TD*%
%LPC*%
D14*
%TO.C,J1*%
X85979000Y-53975000D03*
D15*
X87229000Y-53975000D03*
X88479000Y-53975000D03*
X89729000Y-53975000D03*
X90979000Y-53975000D03*
X92229000Y-53975000D03*
X93479000Y-53975000D03*
X94729000Y-53975000D03*
%TD*%
D16*
%TO.C,R1*%
X86872000Y-63500000D03*
X85852000Y-63500000D03*
%TD*%
D17*
%TO.C,D1*%
X82628500Y-63500000D03*
X84503500Y-63500000D03*
%TD*%
D18*
%TO.C,TP7*%
X95885000Y-59436000D03*
%TD*%
%TO.C,TP5*%
X93250000Y-65891000D03*
%TD*%
%TO.C,TP6*%
X95885000Y-61404000D03*
%TD*%
%TO.C,TP8*%
X95885000Y-57277000D03*
%TD*%
D19*
%TO.C,J2*%
X86380000Y-80200000D03*
D20*
X86380000Y-77660000D03*
X88920000Y-80200000D03*
X88920000Y-77660000D03*
X91460000Y-80200000D03*
X91460000Y-77660000D03*
X94000000Y-80200000D03*
X94000000Y-77660000D03*
%TD*%
D18*
%TO.C,TP3*%
X93250000Y-69491000D03*
%TD*%
%TO.C,TP1*%
X88426000Y-63471000D03*
%TD*%
%TO.C,TP4*%
X93250000Y-67691000D03*
%TD*%
%TO.C,TP2*%
X88496000Y-60699000D03*
%TD*%
M02*
