%TF.GenerationSoftware,KiCad,Pcbnew,(6.0.7)*%
%TF.CreationDate,2023-06-01T17:44:57-07:00*%
%TF.ProjectId,connector_board,636f6e6e-6563-4746-9f72-5f626f617264,rev?*%
%TF.SameCoordinates,Original*%
%TF.FileFunction,Copper,L2,Bot*%
%TF.FilePolarity,Positive*%
%FSLAX46Y46*%
G04 Gerber Fmt 4.6, Leading zero omitted, Abs format (unit mm)*
G04 Created by KiCad (PCBNEW (6.0.7)) date 2023-06-01 17:44:57*
%MOMM*%
%LPD*%
G01*
G04 APERTURE LIST*
G04 Aperture macros list*
%AMRoundRect*
0 Rectangle with rounded corners*
0 $1 Rounding radius*
0 $2 $3 $4 $5 $6 $7 $8 $9 X,Y pos of 4 corners*
0 Add a 4 corners polygon primitive as box body*
4,1,4,$2,$3,$4,$5,$6,$7,$8,$9,$2,$3,0*
0 Add four circle primitives for the rounded corners*
1,1,$1+$1,$2,$3*
1,1,$1+$1,$4,$5*
1,1,$1+$1,$6,$7*
1,1,$1+$1,$8,$9*
0 Add four rect primitives between the rounded corners*
20,1,$1+$1,$2,$3,$4,$5,0*
20,1,$1+$1,$4,$5,$6,$7,0*
20,1,$1+$1,$6,$7,$8,$9,0*
20,1,$1+$1,$8,$9,$2,$3,0*%
G04 Aperture macros list end*
%TA.AperFunction,ComponentPad*%
%ADD10RoundRect,0.200000X-0.200000X-0.450000X0.200000X-0.450000X0.200000X0.450000X-0.200000X0.450000X0*%
%TD*%
%TA.AperFunction,ComponentPad*%
%ADD11O,0.800000X1.300000*%
%TD*%
%TA.AperFunction,ComponentPad*%
%ADD12C,0.762000*%
%TD*%
%TA.AperFunction,ComponentPad*%
%ADD13R,1.700000X1.700000*%
%TD*%
%TA.AperFunction,ComponentPad*%
%ADD14O,1.700000X1.700000*%
%TD*%
%TA.AperFunction,Conductor*%
%ADD15C,0.304800*%
%TD*%
G04 APERTURE END LIST*
D10*
%TO.P,J1,1,Pin_1*%
%TO.N,+EXT_BAT*%
X85979000Y-53975000D03*
D11*
%TO.P,J1,2,Pin_2*%
%TO.N,/HARD_RESET*%
X87229000Y-53975000D03*
%TO.P,J1,3,Pin_3*%
%TO.N,/3WB_DATA*%
X88479000Y-53975000D03*
%TO.P,J1,4,Pin_4*%
%TO.N,/3WB_ENB*%
X89729000Y-53975000D03*
%TO.P,J1,5,Pin_5*%
%TO.N,/3WB_CLK*%
X90979000Y-53975000D03*
%TO.P,J1,6,Pin_6*%
%TO.N,/RsRx*%
X92229000Y-53975000D03*
%TO.P,J1,7,Pin_7*%
%TO.N,/RsTx*%
X93479000Y-53975000D03*
%TO.P,J1,8,Pin_8*%
%TO.N,GND*%
X94729000Y-53975000D03*
%TD*%
D12*
%TO.P,TP7,1,1*%
%TO.N,/RsTx*%
X95885000Y-59436000D03*
%TD*%
%TO.P,TP5,1,1*%
%TO.N,/3WB_CLK*%
X93250000Y-65891000D03*
%TD*%
%TO.P,TP6,1,1*%
%TO.N,/RsRx*%
X95885000Y-61404000D03*
%TD*%
%TO.P,TP8,1,1*%
%TO.N,GND*%
X95885000Y-57277000D03*
%TD*%
D13*
%TO.P,J2,1,Pin_1*%
%TO.N,+EXT_BAT*%
X86380000Y-80200000D03*
D14*
%TO.P,J2,2,Pin_2*%
%TO.N,/HARD_RESET*%
X86380000Y-77660000D03*
%TO.P,J2,3,Pin_3*%
%TO.N,/3WB_DATA*%
X88920000Y-80200000D03*
%TO.P,J2,4,Pin_4*%
%TO.N,/3WB_ENB*%
X88920000Y-77660000D03*
%TO.P,J2,5,Pin_5*%
%TO.N,GND*%
X91460000Y-80200000D03*
%TO.P,J2,6,Pin_6*%
%TO.N,/RsTx*%
X91460000Y-77660000D03*
%TO.P,J2,7,Pin_7*%
%TO.N,/RsRx*%
X94000000Y-80200000D03*
%TO.P,J2,8,Pin_8*%
%TO.N,/3WB_CLK*%
X94000000Y-77660000D03*
%TD*%
D12*
%TO.P,TP3,1,1*%
%TO.N,/3WB_DATA*%
X93250000Y-69491000D03*
%TD*%
%TO.P,TP1,1,1*%
%TO.N,+EXT_BAT*%
X88426000Y-63471000D03*
%TD*%
%TO.P,TP4,1,1*%
%TO.N,/3WB_ENB*%
X93250000Y-67691000D03*
%TD*%
%TO.P,TP2,1,1*%
%TO.N,/HARD_RESET*%
X88496000Y-60699000D03*
%TD*%
D15*
%TO.N,/3WB_DATA*%
X90297000Y-78823000D02*
X88920000Y-80200000D01*
X90297000Y-72444000D02*
X90297000Y-78823000D01*
X93250000Y-69491000D02*
X90297000Y-72444000D01*
%TO.N,/RsTx*%
X94234000Y-61087000D02*
X94234000Y-74886000D01*
X95885000Y-59436000D02*
X94234000Y-61087000D01*
X94234000Y-74886000D02*
X91460000Y-77660000D01*
%TO.N,/HARD_RESET*%
X88496000Y-60699000D02*
X89086400Y-61289400D01*
X89086400Y-61289400D02*
X89086400Y-74953600D01*
X89086400Y-74953600D02*
X86380000Y-77660000D01*
%TD*%
%TA.AperFunction,Conductor*%
%TO.N,GND*%
G36*
X99033621Y-51128502D02*
G01*
X99080114Y-51182158D01*
X99091500Y-51234500D01*
X99091500Y-84582500D01*
X99071498Y-84650621D01*
X99017842Y-84697114D01*
X98965500Y-84708500D01*
X80771500Y-84708500D01*
X80703379Y-84688498D01*
X80656886Y-84634842D01*
X80645500Y-84582500D01*
X80645500Y-77626695D01*
X85017251Y-77626695D01*
X85017548Y-77631848D01*
X85017548Y-77631851D01*
X85023011Y-77726590D01*
X85030110Y-77849715D01*
X85031247Y-77854761D01*
X85031248Y-77854767D01*
X85051119Y-77942939D01*
X85079222Y-78067639D01*
X85163266Y-78274616D01*
X85214019Y-78357438D01*
X85277291Y-78460688D01*
X85279987Y-78465088D01*
X85426250Y-78633938D01*
X85430230Y-78637242D01*
X85434981Y-78641187D01*
X85474616Y-78700090D01*
X85476113Y-78771071D01*
X85438997Y-78831593D01*
X85398725Y-78856112D01*
X85310095Y-78889338D01*
X85283295Y-78899385D01*
X85166739Y-78986739D01*
X85079385Y-79103295D01*
X85028255Y-79239684D01*
X85021500Y-79301866D01*
X85021500Y-81098134D01*
X85028255Y-81160316D01*
X85079385Y-81296705D01*
X85166739Y-81413261D01*
X85283295Y-81500615D01*
X85419684Y-81551745D01*
X85481866Y-81558500D01*
X87278134Y-81558500D01*
X87340316Y-81551745D01*
X87476705Y-81500615D01*
X87593261Y-81413261D01*
X87680615Y-81296705D01*
X87702799Y-81237529D01*
X87724598Y-81179382D01*
X87767240Y-81122618D01*
X87833802Y-81097918D01*
X87903150Y-81113126D01*
X87937817Y-81141114D01*
X87966250Y-81173938D01*
X88138126Y-81316632D01*
X88331000Y-81429338D01*
X88539692Y-81509030D01*
X88544760Y-81510061D01*
X88544763Y-81510062D01*
X88639862Y-81529410D01*
X88758597Y-81553567D01*
X88763772Y-81553757D01*
X88763774Y-81553757D01*
X88976673Y-81561564D01*
X88976677Y-81561564D01*
X88981837Y-81561753D01*
X88986957Y-81561097D01*
X88986959Y-81561097D01*
X89198288Y-81534025D01*
X89198289Y-81534025D01*
X89203416Y-81533368D01*
X89208366Y-81531883D01*
X89412429Y-81470661D01*
X89412434Y-81470659D01*
X89417384Y-81469174D01*
X89617994Y-81370896D01*
X89799860Y-81241173D01*
X89958096Y-81083489D01*
X90088453Y-80902077D01*
X90089640Y-80902930D01*
X90136960Y-80859362D01*
X90206897Y-80847145D01*
X90272338Y-80874678D01*
X90300166Y-80906511D01*
X90357694Y-81000388D01*
X90363777Y-81008699D01*
X90503213Y-81169667D01*
X90510580Y-81176883D01*
X90674434Y-81312916D01*
X90682881Y-81318831D01*
X90866756Y-81426279D01*
X90876042Y-81430729D01*
X91075001Y-81506703D01*
X91084899Y-81509579D01*
X91188250Y-81530606D01*
X91202299Y-81529410D01*
X91206000Y-81519065D01*
X91206000Y-80072000D01*
X91226002Y-80003879D01*
X91279658Y-79957386D01*
X91332000Y-79946000D01*
X91588000Y-79946000D01*
X91656121Y-79966002D01*
X91702614Y-80019658D01*
X91714000Y-80072000D01*
X91714000Y-81518517D01*
X91718064Y-81532359D01*
X91731478Y-81534393D01*
X91738184Y-81533534D01*
X91748262Y-81531392D01*
X91952255Y-81470191D01*
X91961842Y-81466433D01*
X92153095Y-81372739D01*
X92161945Y-81367464D01*
X92335328Y-81243792D01*
X92343200Y-81237139D01*
X92494052Y-81086812D01*
X92500730Y-81078965D01*
X92628022Y-80901819D01*
X92629279Y-80902722D01*
X92676373Y-80859362D01*
X92746311Y-80847145D01*
X92811751Y-80874678D01*
X92839579Y-80906511D01*
X92899987Y-81005088D01*
X93046250Y-81173938D01*
X93218126Y-81316632D01*
X93411000Y-81429338D01*
X93619692Y-81509030D01*
X93624760Y-81510061D01*
X93624763Y-81510062D01*
X93719862Y-81529410D01*
X93838597Y-81553567D01*
X93843772Y-81553757D01*
X93843774Y-81553757D01*
X94056673Y-81561564D01*
X94056677Y-81561564D01*
X94061837Y-81561753D01*
X94066957Y-81561097D01*
X94066959Y-81561097D01*
X94278288Y-81534025D01*
X94278289Y-81534025D01*
X94283416Y-81533368D01*
X94288366Y-81531883D01*
X94492429Y-81470661D01*
X94492434Y-81470659D01*
X94497384Y-81469174D01*
X94697994Y-81370896D01*
X94879860Y-81241173D01*
X95038096Y-81083489D01*
X95168453Y-80902077D01*
X95181995Y-80874678D01*
X95265136Y-80706453D01*
X95265137Y-80706451D01*
X95267430Y-80701811D01*
X95332370Y-80488069D01*
X95361529Y-80266590D01*
X95363156Y-80200000D01*
X95344852Y-79977361D01*
X95290431Y-79760702D01*
X95201354Y-79555840D01*
X95080014Y-79368277D01*
X94929670Y-79203051D01*
X94925619Y-79199852D01*
X94925615Y-79199848D01*
X94758414Y-79067800D01*
X94758410Y-79067798D01*
X94754359Y-79064598D01*
X94713053Y-79041796D01*
X94663084Y-78991364D01*
X94648312Y-78921921D01*
X94673428Y-78855516D01*
X94700780Y-78828909D01*
X94744603Y-78797650D01*
X94879860Y-78701173D01*
X95038096Y-78543489D01*
X95097594Y-78460689D01*
X95165435Y-78366277D01*
X95168453Y-78362077D01*
X95189320Y-78319857D01*
X95265136Y-78166453D01*
X95265137Y-78166451D01*
X95267430Y-78161811D01*
X95332370Y-77948069D01*
X95361529Y-77726590D01*
X95363156Y-77660000D01*
X95344852Y-77437361D01*
X95290431Y-77220702D01*
X95201354Y-77015840D01*
X95080014Y-76828277D01*
X94929670Y-76663051D01*
X94925619Y-76659852D01*
X94925615Y-76659848D01*
X94758414Y-76527800D01*
X94758410Y-76527798D01*
X94754359Y-76524598D01*
X94558789Y-76416638D01*
X94553920Y-76414914D01*
X94553916Y-76414912D01*
X94353087Y-76343795D01*
X94353083Y-76343794D01*
X94348212Y-76342069D01*
X94343119Y-76341162D01*
X94343116Y-76341161D01*
X94133373Y-76303800D01*
X94133367Y-76303799D01*
X94128284Y-76302894D01*
X94105298Y-76302613D01*
X94055293Y-76302002D01*
X93987422Y-76281169D01*
X93941588Y-76226949D01*
X93932344Y-76156557D01*
X93962624Y-76092341D01*
X93967738Y-76086916D01*
X94682047Y-75372607D01*
X94688313Y-75366753D01*
X94723027Y-75336470D01*
X94728752Y-75331476D01*
X94733117Y-75325265D01*
X94733120Y-75325262D01*
X94762897Y-75282893D01*
X94766830Y-75277598D01*
X94767182Y-75277149D01*
X94803462Y-75230879D01*
X94806589Y-75223954D01*
X94810330Y-75217777D01*
X94812942Y-75213198D01*
X94816362Y-75206820D01*
X94820731Y-75200603D01*
X94842297Y-75145289D01*
X94844850Y-75139214D01*
X94866163Y-75092011D01*
X94869289Y-75085088D01*
X94870674Y-75077616D01*
X94872827Y-75070745D01*
X94874290Y-75065609D01*
X94876078Y-75058645D01*
X94878838Y-75051566D01*
X94886587Y-74992700D01*
X94887618Y-74986189D01*
X94897056Y-74935268D01*
X94898440Y-74927803D01*
X94895109Y-74870032D01*
X94894900Y-74862780D01*
X94894900Y-61938335D01*
X94914902Y-61870214D01*
X94968558Y-61823721D01*
X95038832Y-61813617D01*
X95103412Y-61843111D01*
X95130019Y-61875335D01*
X95158112Y-61923995D01*
X95158115Y-61923999D01*
X95161415Y-61929715D01*
X95286530Y-62068669D01*
X95437800Y-62178573D01*
X95443828Y-62181257D01*
X95443830Y-62181258D01*
X95602584Y-62251940D01*
X95608615Y-62254625D01*
X95700063Y-62274063D01*
X95785053Y-62292128D01*
X95785057Y-62292128D01*
X95791510Y-62293500D01*
X95978490Y-62293500D01*
X95984943Y-62292128D01*
X95984947Y-62292128D01*
X96069937Y-62274063D01*
X96161385Y-62254625D01*
X96167416Y-62251940D01*
X96326170Y-62181258D01*
X96326172Y-62181257D01*
X96332200Y-62178573D01*
X96483470Y-62068669D01*
X96608585Y-61929715D01*
X96658586Y-61843111D01*
X96698771Y-61773508D01*
X96698772Y-61773507D01*
X96702075Y-61767785D01*
X96726139Y-61693722D01*
X96757815Y-61596235D01*
X96757815Y-61596234D01*
X96759855Y-61589956D01*
X96772088Y-61473573D01*
X96778710Y-61410565D01*
X96779400Y-61404000D01*
X96759855Y-61218044D01*
X96702075Y-61040215D01*
X96620017Y-60898085D01*
X96611888Y-60884006D01*
X96608585Y-60878285D01*
X96483470Y-60739331D01*
X96348850Y-60641524D01*
X96337542Y-60633308D01*
X96337541Y-60633307D01*
X96332200Y-60629427D01*
X96326172Y-60626743D01*
X96326170Y-60626742D01*
X96167416Y-60556060D01*
X96167414Y-60556060D01*
X96161385Y-60553375D01*
X96113736Y-60543247D01*
X96051263Y-60509519D01*
X96016941Y-60447369D01*
X96021669Y-60376530D01*
X96063945Y-60319493D01*
X96113736Y-60296753D01*
X96116349Y-60296198D01*
X96161385Y-60286625D01*
X96167416Y-60283940D01*
X96326170Y-60213258D01*
X96326172Y-60213257D01*
X96332200Y-60210573D01*
X96483470Y-60100669D01*
X96538787Y-60039234D01*
X96604166Y-59966623D01*
X96604167Y-59966622D01*
X96608585Y-59961715D01*
X96631663Y-59921742D01*
X96698771Y-59805508D01*
X96698772Y-59805507D01*
X96702075Y-59799785D01*
X96759855Y-59621956D01*
X96779400Y-59436000D01*
X96759855Y-59250044D01*
X96702075Y-59072215D01*
X96608585Y-58910285D01*
X96483470Y-58771331D01*
X96332200Y-58661427D01*
X96326172Y-58658743D01*
X96326170Y-58658742D01*
X96167416Y-58588060D01*
X96167414Y-58588060D01*
X96161385Y-58585375D01*
X96069937Y-58565937D01*
X95984947Y-58547872D01*
X95984943Y-58547872D01*
X95978490Y-58546500D01*
X95791510Y-58546500D01*
X95785057Y-58547872D01*
X95785053Y-58547872D01*
X95700063Y-58565937D01*
X95608615Y-58585375D01*
X95602586Y-58588060D01*
X95602584Y-58588060D01*
X95443830Y-58658742D01*
X95443828Y-58658743D01*
X95437800Y-58661427D01*
X95286530Y-58771331D01*
X95161415Y-58910285D01*
X95067925Y-59072215D01*
X95010145Y-59250044D01*
X95009455Y-59256608D01*
X95009455Y-59256609D01*
X94999992Y-59346645D01*
X94972979Y-59412302D01*
X94963777Y-59422570D01*
X93785961Y-60600386D01*
X93779696Y-60606239D01*
X93739248Y-60641524D01*
X93708292Y-60685570D01*
X93705109Y-60690099D01*
X93701177Y-60695393D01*
X93664537Y-60742121D01*
X93661411Y-60749045D01*
X93657698Y-60755176D01*
X93655062Y-60759796D01*
X93651640Y-60766178D01*
X93647269Y-60772397D01*
X93644509Y-60779476D01*
X93625702Y-60827713D01*
X93623146Y-60833792D01*
X93598711Y-60887912D01*
X93597325Y-60895388D01*
X93595170Y-60902266D01*
X93593710Y-60907391D01*
X93591922Y-60914355D01*
X93589162Y-60921434D01*
X93588170Y-60928966D01*
X93588170Y-60928968D01*
X93581414Y-60980292D01*
X93580384Y-60986798D01*
X93569560Y-61045197D01*
X93569997Y-61052777D01*
X93569997Y-61052778D01*
X93572891Y-61102967D01*
X93573100Y-61110220D01*
X93573100Y-64894707D01*
X93553098Y-64962828D01*
X93499442Y-65009321D01*
X93429168Y-65019425D01*
X93420904Y-65017954D01*
X93361004Y-65005223D01*
X93343490Y-65001500D01*
X93156510Y-65001500D01*
X93150057Y-65002872D01*
X93150053Y-65002872D01*
X93079099Y-65017954D01*
X92973615Y-65040375D01*
X92967586Y-65043060D01*
X92967584Y-65043060D01*
X92808830Y-65113742D01*
X92808828Y-65113743D01*
X92802800Y-65116427D01*
X92651530Y-65226331D01*
X92526415Y-65365285D01*
X92432925Y-65527215D01*
X92375145Y-65705044D01*
X92355600Y-65891000D01*
X92375145Y-66076956D01*
X92432925Y-66254785D01*
X92526415Y-66416715D01*
X92651530Y-66555669D01*
X92802800Y-66665573D01*
X92808828Y-66668257D01*
X92808830Y-66668258D01*
X92825979Y-66675893D01*
X92880075Y-66721873D01*
X92900724Y-66789801D01*
X92881372Y-66858109D01*
X92825979Y-66906107D01*
X92808830Y-66913742D01*
X92808828Y-66913743D01*
X92802800Y-66916427D01*
X92651530Y-67026331D01*
X92526415Y-67165285D01*
X92432925Y-67327215D01*
X92375145Y-67505044D01*
X92355600Y-67691000D01*
X92375145Y-67876956D01*
X92432925Y-68054785D01*
X92526415Y-68216715D01*
X92651530Y-68355669D01*
X92802800Y-68465573D01*
X92808828Y-68468257D01*
X92808830Y-68468258D01*
X92825979Y-68475893D01*
X92880075Y-68521873D01*
X92900724Y-68589801D01*
X92881372Y-68658109D01*
X92825979Y-68706107D01*
X92808830Y-68713742D01*
X92808828Y-68713743D01*
X92802800Y-68716427D01*
X92651530Y-68826331D01*
X92526415Y-68965285D01*
X92432925Y-69127215D01*
X92375145Y-69305044D01*
X92374455Y-69311609D01*
X92364992Y-69401645D01*
X92337979Y-69467302D01*
X92328777Y-69477570D01*
X89962395Y-71843952D01*
X89900083Y-71877978D01*
X89829268Y-71872913D01*
X89772432Y-71830366D01*
X89747621Y-71763846D01*
X89747300Y-71754857D01*
X89747300Y-61316667D01*
X89747592Y-61308097D01*
X89750726Y-61262133D01*
X89750726Y-61262129D01*
X89751242Y-61254557D01*
X89741030Y-61196047D01*
X89740073Y-61189567D01*
X89732937Y-61130595D01*
X89730251Y-61123487D01*
X89728535Y-61116501D01*
X89727133Y-61111375D01*
X89725047Y-61104465D01*
X89723740Y-61096977D01*
X89708730Y-61062785D01*
X89699880Y-61042623D01*
X89697387Y-61036515D01*
X89679078Y-60988062D01*
X89676394Y-60980959D01*
X89672093Y-60974701D01*
X89668785Y-60968373D01*
X89666132Y-60963608D01*
X89662495Y-60957459D01*
X89659442Y-60950504D01*
X89623289Y-60903389D01*
X89619436Y-60898085D01*
X89590094Y-60855392D01*
X89590092Y-60855389D01*
X89585789Y-60849129D01*
X89542571Y-60810623D01*
X89537296Y-60805643D01*
X89417223Y-60685570D01*
X89383197Y-60623258D01*
X89381008Y-60609645D01*
X89371545Y-60519609D01*
X89371545Y-60519608D01*
X89370855Y-60513044D01*
X89313075Y-60335215D01*
X89283472Y-60283940D01*
X89222888Y-60179006D01*
X89219585Y-60173285D01*
X89154201Y-60100669D01*
X89098885Y-60039234D01*
X89098883Y-60039233D01*
X89094470Y-60034331D01*
X88943200Y-59924427D01*
X88937172Y-59921743D01*
X88937170Y-59921742D01*
X88778416Y-59851060D01*
X88778414Y-59851060D01*
X88772385Y-59848375D01*
X88680938Y-59828938D01*
X88595947Y-59810872D01*
X88595943Y-59810872D01*
X88589490Y-59809500D01*
X88402510Y-59809500D01*
X88396057Y-59810872D01*
X88396053Y-59810872D01*
X88311062Y-59828938D01*
X88219615Y-59848375D01*
X88213586Y-59851060D01*
X88213584Y-59851060D01*
X88054830Y-59921742D01*
X88054828Y-59921743D01*
X88048800Y-59924427D01*
X87897530Y-60034331D01*
X87893117Y-60039233D01*
X87893115Y-60039234D01*
X87837799Y-60100669D01*
X87772415Y-60173285D01*
X87769112Y-60179006D01*
X87708529Y-60283940D01*
X87678925Y-60335215D01*
X87621145Y-60513044D01*
X87620455Y-60519607D01*
X87620455Y-60519608D01*
X87608505Y-60633308D01*
X87601600Y-60699000D01*
X87602290Y-60705565D01*
X87607810Y-60758079D01*
X87621145Y-60884956D01*
X87623185Y-60891234D01*
X87623185Y-60891235D01*
X87647650Y-60966529D01*
X87678925Y-61062785D01*
X87682228Y-61068507D01*
X87682229Y-61068508D01*
X87706978Y-61111375D01*
X87772415Y-61224715D01*
X87776833Y-61229622D01*
X87776834Y-61229623D01*
X87847493Y-61308097D01*
X87897530Y-61363669D01*
X88048800Y-61473573D01*
X88054828Y-61476257D01*
X88054830Y-61476258D01*
X88213584Y-61546940D01*
X88219615Y-61549625D01*
X88226070Y-61550997D01*
X88226073Y-61550998D01*
X88325696Y-61572173D01*
X88388170Y-61605901D01*
X88422492Y-61668051D01*
X88425500Y-61695420D01*
X88425500Y-62459701D01*
X88405498Y-62527822D01*
X88351842Y-62574315D01*
X88325697Y-62582948D01*
X88288699Y-62590812D01*
X88149615Y-62620375D01*
X88143586Y-62623060D01*
X88143584Y-62623060D01*
X87984830Y-62693742D01*
X87984828Y-62693743D01*
X87978800Y-62696427D01*
X87827530Y-62806331D01*
X87702415Y-62945285D01*
X87608925Y-63107215D01*
X87551145Y-63285044D01*
X87531600Y-63471000D01*
X87551145Y-63656956D01*
X87608925Y-63834785D01*
X87702415Y-63996715D01*
X87827530Y-64135669D01*
X87978800Y-64245573D01*
X87984828Y-64248257D01*
X87984830Y-64248258D01*
X88143584Y-64318940D01*
X88149615Y-64321625D01*
X88288699Y-64351188D01*
X88325697Y-64359052D01*
X88388170Y-64392780D01*
X88422492Y-64454930D01*
X88425500Y-64482299D01*
X88425500Y-74627657D01*
X88405498Y-74695778D01*
X88388595Y-74716752D01*
X86804455Y-76300892D01*
X86742143Y-76334918D01*
X86693265Y-76335844D01*
X86645529Y-76327341D01*
X86513373Y-76303800D01*
X86513367Y-76303799D01*
X86508284Y-76302894D01*
X86434452Y-76301992D01*
X86290081Y-76300228D01*
X86290079Y-76300228D01*
X86284911Y-76300165D01*
X86064091Y-76333955D01*
X85851756Y-76403357D01*
X85822135Y-76418777D01*
X85659426Y-76503478D01*
X85653607Y-76506507D01*
X85649474Y-76509610D01*
X85649471Y-76509612D01*
X85625247Y-76527800D01*
X85474965Y-76640635D01*
X85320629Y-76802138D01*
X85194743Y-76986680D01*
X85100688Y-77189305D01*
X85040989Y-77404570D01*
X85017251Y-77626695D01*
X80645500Y-77626695D01*
X80645500Y-58060571D01*
X95466259Y-58060571D01*
X95469770Y-58065260D01*
X95602735Y-58124460D01*
X95615231Y-58128520D01*
X95785105Y-58164628D01*
X95798165Y-58166000D01*
X95971835Y-58166000D01*
X95984895Y-58164628D01*
X96154769Y-58128520D01*
X96167265Y-58124460D01*
X96293242Y-58068372D01*
X96303988Y-58059238D01*
X96302391Y-58053601D01*
X95897812Y-57649022D01*
X95883868Y-57641408D01*
X95882035Y-57641539D01*
X95875420Y-57645790D01*
X95473019Y-58048191D01*
X95466259Y-58060571D01*
X80645500Y-58060571D01*
X80645500Y-57283565D01*
X94991793Y-57283565D01*
X95009947Y-57456288D01*
X95012677Y-57469131D01*
X95066342Y-57634296D01*
X95071689Y-57646305D01*
X95093668Y-57684374D01*
X95103875Y-57694106D01*
X95111895Y-57690895D01*
X95512978Y-57289812D01*
X95519356Y-57278132D01*
X96249408Y-57278132D01*
X96249539Y-57279965D01*
X96253790Y-57286580D01*
X96654461Y-57687251D01*
X96666841Y-57694011D01*
X96673756Y-57688834D01*
X96698311Y-57646305D01*
X96703658Y-57634296D01*
X96757323Y-57469131D01*
X96760053Y-57456288D01*
X96778207Y-57283565D01*
X96778207Y-57270435D01*
X96760053Y-57097712D01*
X96757323Y-57084869D01*
X96703658Y-56919704D01*
X96698311Y-56907695D01*
X96676332Y-56869626D01*
X96666125Y-56859894D01*
X96658105Y-56863105D01*
X96257022Y-57264188D01*
X96249408Y-57278132D01*
X95519356Y-57278132D01*
X95520592Y-57275868D01*
X95520461Y-57274035D01*
X95516210Y-57267420D01*
X95115539Y-56866749D01*
X95103159Y-56859989D01*
X95096244Y-56865166D01*
X95071689Y-56907695D01*
X95066342Y-56919704D01*
X95012677Y-57084869D01*
X95009947Y-57097712D01*
X94991793Y-57270435D01*
X94991793Y-57283565D01*
X80645500Y-57283565D01*
X80645500Y-56494763D01*
X95466013Y-56494763D01*
X95467610Y-56500400D01*
X95872188Y-56904978D01*
X95886132Y-56912592D01*
X95887965Y-56912461D01*
X95894580Y-56908210D01*
X96296981Y-56505809D01*
X96303741Y-56493429D01*
X96300230Y-56488740D01*
X96167265Y-56429540D01*
X96154769Y-56425480D01*
X95984895Y-56389372D01*
X95971835Y-56388000D01*
X95798165Y-56388000D01*
X95785105Y-56389372D01*
X95615228Y-56425481D01*
X95602740Y-56429538D01*
X95476758Y-56485630D01*
X95466013Y-56494763D01*
X80645500Y-56494763D01*
X80645500Y-53468365D01*
X85070500Y-53468365D01*
X85070501Y-54481634D01*
X85077247Y-54555062D01*
X85079246Y-54561440D01*
X85079246Y-54561441D01*
X85090251Y-54596556D01*
X85128528Y-54718699D01*
X85217361Y-54865381D01*
X85338619Y-54986639D01*
X85485301Y-55075472D01*
X85492548Y-55077743D01*
X85492550Y-55077744D01*
X85535198Y-55091109D01*
X85648938Y-55126753D01*
X85722365Y-55133500D01*
X85725263Y-55133500D01*
X85979665Y-55133499D01*
X86235634Y-55133499D01*
X86238492Y-55133236D01*
X86238501Y-55133236D01*
X86274004Y-55129974D01*
X86309062Y-55126753D01*
X86315447Y-55124752D01*
X86465450Y-55077744D01*
X86465452Y-55077743D01*
X86472699Y-55075472D01*
X86609018Y-54992915D01*
X86677648Y-54974736D01*
X86748350Y-54998755D01*
X86766308Y-55011802D01*
X86772248Y-55016118D01*
X86778276Y-55018802D01*
X86778278Y-55018803D01*
X86925844Y-55084503D01*
X86946712Y-55093794D01*
X87040112Y-55113647D01*
X87127056Y-55132128D01*
X87127061Y-55132128D01*
X87133513Y-55133500D01*
X87324487Y-55133500D01*
X87330939Y-55132128D01*
X87330944Y-55132128D01*
X87417888Y-55113647D01*
X87511288Y-55093794D01*
X87532156Y-55084503D01*
X87679722Y-55018803D01*
X87679724Y-55018802D01*
X87685752Y-55016118D01*
X87691693Y-55011802D01*
X87779939Y-54947687D01*
X87846807Y-54923828D01*
X87915958Y-54939909D01*
X87928061Y-54947687D01*
X88016308Y-55011802D01*
X88022248Y-55016118D01*
X88028276Y-55018802D01*
X88028278Y-55018803D01*
X88175844Y-55084503D01*
X88196712Y-55093794D01*
X88290112Y-55113647D01*
X88377056Y-55132128D01*
X88377061Y-55132128D01*
X88383513Y-55133500D01*
X88574487Y-55133500D01*
X88580939Y-55132128D01*
X88580944Y-55132128D01*
X88667888Y-55113647D01*
X88761288Y-55093794D01*
X88782156Y-55084503D01*
X88929722Y-55018803D01*
X88929724Y-55018802D01*
X88935752Y-55016118D01*
X88941693Y-55011802D01*
X89029939Y-54947687D01*
X89096807Y-54923828D01*
X89165958Y-54939909D01*
X89178061Y-54947687D01*
X89266308Y-55011802D01*
X89272248Y-55016118D01*
X89278276Y-55018802D01*
X89278278Y-55018803D01*
X89425844Y-55084503D01*
X89446712Y-55093794D01*
X89540112Y-55113647D01*
X89627056Y-55132128D01*
X89627061Y-55132128D01*
X89633513Y-55133500D01*
X89824487Y-55133500D01*
X89830939Y-55132128D01*
X89830944Y-55132128D01*
X89917888Y-55113647D01*
X90011288Y-55093794D01*
X90032156Y-55084503D01*
X90179722Y-55018803D01*
X90179724Y-55018802D01*
X90185752Y-55016118D01*
X90191693Y-55011802D01*
X90279939Y-54947687D01*
X90346807Y-54923828D01*
X90415958Y-54939909D01*
X90428061Y-54947687D01*
X90516308Y-55011802D01*
X90522248Y-55016118D01*
X90528276Y-55018802D01*
X90528278Y-55018803D01*
X90675844Y-55084503D01*
X90696712Y-55093794D01*
X90790112Y-55113647D01*
X90877056Y-55132128D01*
X90877061Y-55132128D01*
X90883513Y-55133500D01*
X91074487Y-55133500D01*
X91080939Y-55132128D01*
X91080944Y-55132128D01*
X91167888Y-55113647D01*
X91261288Y-55093794D01*
X91282156Y-55084503D01*
X91429722Y-55018803D01*
X91429724Y-55018802D01*
X91435752Y-55016118D01*
X91441693Y-55011802D01*
X91529939Y-54947687D01*
X91596807Y-54923828D01*
X91665958Y-54939909D01*
X91678061Y-54947687D01*
X91766308Y-55011802D01*
X91772248Y-55016118D01*
X91778276Y-55018802D01*
X91778278Y-55018803D01*
X91925844Y-55084503D01*
X91946712Y-55093794D01*
X92040112Y-55113647D01*
X92127056Y-55132128D01*
X92127061Y-55132128D01*
X92133513Y-55133500D01*
X92324487Y-55133500D01*
X92330939Y-55132128D01*
X92330944Y-55132128D01*
X92417888Y-55113647D01*
X92511288Y-55093794D01*
X92532156Y-55084503D01*
X92679722Y-55018803D01*
X92679724Y-55018802D01*
X92685752Y-55016118D01*
X92691693Y-55011802D01*
X92779939Y-54947687D01*
X92846807Y-54923828D01*
X92915958Y-54939909D01*
X92928061Y-54947687D01*
X93016308Y-55011802D01*
X93022248Y-55016118D01*
X93028276Y-55018802D01*
X93028278Y-55018803D01*
X93175844Y-55084503D01*
X93196712Y-55093794D01*
X93290112Y-55113647D01*
X93377056Y-55132128D01*
X93377061Y-55132128D01*
X93383513Y-55133500D01*
X93574487Y-55133500D01*
X93580939Y-55132128D01*
X93580944Y-55132128D01*
X93667888Y-55113647D01*
X93761288Y-55093794D01*
X93782156Y-55084503D01*
X93929722Y-55018803D01*
X93929724Y-55018802D01*
X93935752Y-55016118D01*
X94030366Y-54947377D01*
X94097230Y-54923520D01*
X94166382Y-54939600D01*
X94178485Y-54947378D01*
X94267157Y-55011802D01*
X94278529Y-55018368D01*
X94440839Y-55090633D01*
X94453325Y-55094690D01*
X94457278Y-55095530D01*
X94471341Y-55094457D01*
X94475000Y-55084503D01*
X94475000Y-55081182D01*
X94983000Y-55081182D01*
X94986973Y-55094713D01*
X94997468Y-55096222D01*
X95004675Y-55094690D01*
X95017161Y-55090633D01*
X95179471Y-55018368D01*
X95190843Y-55011802D01*
X95334574Y-54907376D01*
X95344337Y-54898585D01*
X95463214Y-54766558D01*
X95470938Y-54755927D01*
X95559765Y-54602074D01*
X95565111Y-54590066D01*
X95620011Y-54421102D01*
X95622741Y-54408261D01*
X95636656Y-54275862D01*
X95637000Y-54269302D01*
X95637000Y-54247115D01*
X95632525Y-54231876D01*
X95631135Y-54230671D01*
X95623452Y-54229000D01*
X95001115Y-54229000D01*
X94985876Y-54233475D01*
X94984671Y-54234865D01*
X94983000Y-54242548D01*
X94983000Y-55081182D01*
X94475000Y-55081182D01*
X94475000Y-53702885D01*
X94983000Y-53702885D01*
X94987475Y-53718124D01*
X94988865Y-53719329D01*
X94996548Y-53721000D01*
X95618885Y-53721000D01*
X95634124Y-53716525D01*
X95635329Y-53715135D01*
X95637000Y-53707452D01*
X95637000Y-53680698D01*
X95636656Y-53674138D01*
X95622741Y-53541739D01*
X95620011Y-53528898D01*
X95565111Y-53359934D01*
X95559765Y-53347926D01*
X95470938Y-53194073D01*
X95463214Y-53183442D01*
X95344337Y-53051415D01*
X95334574Y-53042624D01*
X95190843Y-52938198D01*
X95179471Y-52931632D01*
X95017161Y-52859367D01*
X95004675Y-52855310D01*
X95000722Y-52854470D01*
X94986659Y-52855543D01*
X94983000Y-52865497D01*
X94983000Y-53702885D01*
X94475000Y-53702885D01*
X94475000Y-52868818D01*
X94471027Y-52855287D01*
X94460532Y-52853778D01*
X94453325Y-52855310D01*
X94440839Y-52859367D01*
X94278529Y-52931632D01*
X94267157Y-52938198D01*
X94178485Y-53002622D01*
X94111617Y-53026481D01*
X94042466Y-53010400D01*
X94030380Y-53002634D01*
X93935752Y-52933882D01*
X93929724Y-52931198D01*
X93929722Y-52931197D01*
X93767319Y-52858891D01*
X93767318Y-52858891D01*
X93761288Y-52856206D01*
X93667888Y-52836353D01*
X93580944Y-52817872D01*
X93580939Y-52817872D01*
X93574487Y-52816500D01*
X93383513Y-52816500D01*
X93377061Y-52817872D01*
X93377056Y-52817872D01*
X93290113Y-52836353D01*
X93196712Y-52856206D01*
X93190682Y-52858891D01*
X93190681Y-52858891D01*
X93028278Y-52931197D01*
X93028276Y-52931198D01*
X93022248Y-52933882D01*
X93016907Y-52937762D01*
X93016906Y-52937763D01*
X92928061Y-53002313D01*
X92861193Y-53026172D01*
X92792042Y-53010091D01*
X92779939Y-53002313D01*
X92691094Y-52937763D01*
X92691093Y-52937762D01*
X92685752Y-52933882D01*
X92679724Y-52931198D01*
X92679722Y-52931197D01*
X92517319Y-52858891D01*
X92517318Y-52858891D01*
X92511288Y-52856206D01*
X92417888Y-52836353D01*
X92330944Y-52817872D01*
X92330939Y-52817872D01*
X92324487Y-52816500D01*
X92133513Y-52816500D01*
X92127061Y-52817872D01*
X92127056Y-52817872D01*
X92040113Y-52836353D01*
X91946712Y-52856206D01*
X91940682Y-52858891D01*
X91940681Y-52858891D01*
X91778278Y-52931197D01*
X91778276Y-52931198D01*
X91772248Y-52933882D01*
X91766907Y-52937762D01*
X91766906Y-52937763D01*
X91678061Y-53002313D01*
X91611193Y-53026172D01*
X91542042Y-53010091D01*
X91529939Y-53002313D01*
X91441094Y-52937763D01*
X91441093Y-52937762D01*
X91435752Y-52933882D01*
X91429724Y-52931198D01*
X91429722Y-52931197D01*
X91267319Y-52858891D01*
X91267318Y-52858891D01*
X91261288Y-52856206D01*
X91167888Y-52836353D01*
X91080944Y-52817872D01*
X91080939Y-52817872D01*
X91074487Y-52816500D01*
X90883513Y-52816500D01*
X90877061Y-52817872D01*
X90877056Y-52817872D01*
X90790113Y-52836353D01*
X90696712Y-52856206D01*
X90690682Y-52858891D01*
X90690681Y-52858891D01*
X90528278Y-52931197D01*
X90528276Y-52931198D01*
X90522248Y-52933882D01*
X90516907Y-52937762D01*
X90516906Y-52937763D01*
X90428061Y-53002313D01*
X90361193Y-53026172D01*
X90292042Y-53010091D01*
X90279939Y-53002313D01*
X90191094Y-52937763D01*
X90191093Y-52937762D01*
X90185752Y-52933882D01*
X90179724Y-52931198D01*
X90179722Y-52931197D01*
X90017319Y-52858891D01*
X90017318Y-52858891D01*
X90011288Y-52856206D01*
X89917888Y-52836353D01*
X89830944Y-52817872D01*
X89830939Y-52817872D01*
X89824487Y-52816500D01*
X89633513Y-52816500D01*
X89627061Y-52817872D01*
X89627056Y-52817872D01*
X89540113Y-52836353D01*
X89446712Y-52856206D01*
X89440682Y-52858891D01*
X89440681Y-52858891D01*
X89278278Y-52931197D01*
X89278276Y-52931198D01*
X89272248Y-52933882D01*
X89266907Y-52937762D01*
X89266906Y-52937763D01*
X89178061Y-53002313D01*
X89111193Y-53026172D01*
X89042042Y-53010091D01*
X89029939Y-53002313D01*
X88941094Y-52937763D01*
X88941093Y-52937762D01*
X88935752Y-52933882D01*
X88929724Y-52931198D01*
X88929722Y-52931197D01*
X88767319Y-52858891D01*
X88767318Y-52858891D01*
X88761288Y-52856206D01*
X88667888Y-52836353D01*
X88580944Y-52817872D01*
X88580939Y-52817872D01*
X88574487Y-52816500D01*
X88383513Y-52816500D01*
X88377061Y-52817872D01*
X88377056Y-52817872D01*
X88290113Y-52836353D01*
X88196712Y-52856206D01*
X88190682Y-52858891D01*
X88190681Y-52858891D01*
X88028278Y-52931197D01*
X88028276Y-52931198D01*
X88022248Y-52933882D01*
X88016907Y-52937762D01*
X88016906Y-52937763D01*
X87928061Y-53002313D01*
X87861193Y-53026172D01*
X87792042Y-53010091D01*
X87779939Y-53002313D01*
X87691094Y-52937763D01*
X87691093Y-52937762D01*
X87685752Y-52933882D01*
X87679724Y-52931198D01*
X87679722Y-52931197D01*
X87517319Y-52858891D01*
X87517318Y-52858891D01*
X87511288Y-52856206D01*
X87417888Y-52836353D01*
X87330944Y-52817872D01*
X87330939Y-52817872D01*
X87324487Y-52816500D01*
X87133513Y-52816500D01*
X87127061Y-52817872D01*
X87127056Y-52817872D01*
X87040113Y-52836353D01*
X86946712Y-52856206D01*
X86940682Y-52858891D01*
X86940681Y-52858891D01*
X86778278Y-52931197D01*
X86778276Y-52931198D01*
X86772248Y-52933882D01*
X86766908Y-52937762D01*
X86766906Y-52937763D01*
X86748350Y-52951245D01*
X86681482Y-52975103D01*
X86609018Y-52957085D01*
X86599375Y-52951245D01*
X86472699Y-52874528D01*
X86465452Y-52872257D01*
X86465450Y-52872256D01*
X86399164Y-52851483D01*
X86309062Y-52823247D01*
X86235635Y-52816500D01*
X86232737Y-52816500D01*
X85978335Y-52816501D01*
X85722366Y-52816501D01*
X85719508Y-52816764D01*
X85719499Y-52816764D01*
X85683996Y-52820026D01*
X85648938Y-52823247D01*
X85642560Y-52825246D01*
X85642559Y-52825246D01*
X85492550Y-52872256D01*
X85492548Y-52872257D01*
X85485301Y-52874528D01*
X85338619Y-52963361D01*
X85217361Y-53084619D01*
X85128528Y-53231301D01*
X85077247Y-53394938D01*
X85070500Y-53468365D01*
X80645500Y-53468365D01*
X80645500Y-51234500D01*
X80665502Y-51166379D01*
X80719158Y-51119886D01*
X80771500Y-51108500D01*
X98965500Y-51108500D01*
X99033621Y-51128502D01*
G37*
%TD.AperFunction*%
%TD*%
%TA.AperFunction,Conductor*%
%TO.N,GND*%
G36*
X99033621Y-51128502D02*
G01*
X99080114Y-51182158D01*
X99091500Y-51234500D01*
X99091500Y-84582500D01*
X99071498Y-84650621D01*
X99017842Y-84697114D01*
X98965500Y-84708500D01*
X80771500Y-84708500D01*
X80703379Y-84688498D01*
X80656886Y-84634842D01*
X80645500Y-84582500D01*
X80645500Y-77626695D01*
X85017251Y-77626695D01*
X85017548Y-77631848D01*
X85017548Y-77631851D01*
X85023011Y-77726590D01*
X85030110Y-77849715D01*
X85031247Y-77854761D01*
X85031248Y-77854767D01*
X85051119Y-77942939D01*
X85079222Y-78067639D01*
X85163266Y-78274616D01*
X85214019Y-78357438D01*
X85277291Y-78460688D01*
X85279987Y-78465088D01*
X85426250Y-78633938D01*
X85430230Y-78637242D01*
X85434981Y-78641187D01*
X85474616Y-78700090D01*
X85476113Y-78771071D01*
X85438997Y-78831593D01*
X85398725Y-78856112D01*
X85310095Y-78889338D01*
X85283295Y-78899385D01*
X85166739Y-78986739D01*
X85079385Y-79103295D01*
X85028255Y-79239684D01*
X85021500Y-79301866D01*
X85021500Y-81098134D01*
X85028255Y-81160316D01*
X85079385Y-81296705D01*
X85166739Y-81413261D01*
X85283295Y-81500615D01*
X85419684Y-81551745D01*
X85481866Y-81558500D01*
X87278134Y-81558500D01*
X87340316Y-81551745D01*
X87476705Y-81500615D01*
X87593261Y-81413261D01*
X87680615Y-81296705D01*
X87702799Y-81237529D01*
X87724598Y-81179382D01*
X87767240Y-81122618D01*
X87833802Y-81097918D01*
X87903150Y-81113126D01*
X87937817Y-81141114D01*
X87966250Y-81173938D01*
X88138126Y-81316632D01*
X88331000Y-81429338D01*
X88539692Y-81509030D01*
X88544760Y-81510061D01*
X88544763Y-81510062D01*
X88639862Y-81529410D01*
X88758597Y-81553567D01*
X88763772Y-81553757D01*
X88763774Y-81553757D01*
X88976673Y-81561564D01*
X88976677Y-81561564D01*
X88981837Y-81561753D01*
X88986957Y-81561097D01*
X88986959Y-81561097D01*
X89198288Y-81534025D01*
X89198289Y-81534025D01*
X89203416Y-81533368D01*
X89208366Y-81531883D01*
X89412429Y-81470661D01*
X89412434Y-81470659D01*
X89417384Y-81469174D01*
X89617994Y-81370896D01*
X89799860Y-81241173D01*
X89958096Y-81083489D01*
X90088453Y-80902077D01*
X90089640Y-80902930D01*
X90136960Y-80859362D01*
X90206897Y-80847145D01*
X90272338Y-80874678D01*
X90300166Y-80906511D01*
X90357694Y-81000388D01*
X90363777Y-81008699D01*
X90503213Y-81169667D01*
X90510580Y-81176883D01*
X90674434Y-81312916D01*
X90682881Y-81318831D01*
X90866756Y-81426279D01*
X90876042Y-81430729D01*
X91075001Y-81506703D01*
X91084899Y-81509579D01*
X91188250Y-81530606D01*
X91202299Y-81529410D01*
X91206000Y-81519065D01*
X91206000Y-80072000D01*
X91226002Y-80003879D01*
X91279658Y-79957386D01*
X91332000Y-79946000D01*
X91588000Y-79946000D01*
X91656121Y-79966002D01*
X91702614Y-80019658D01*
X91714000Y-80072000D01*
X91714000Y-81518517D01*
X91718064Y-81532359D01*
X91731478Y-81534393D01*
X91738184Y-81533534D01*
X91748262Y-81531392D01*
X91952255Y-81470191D01*
X91961842Y-81466433D01*
X92153095Y-81372739D01*
X92161945Y-81367464D01*
X92335328Y-81243792D01*
X92343200Y-81237139D01*
X92494052Y-81086812D01*
X92500730Y-81078965D01*
X92628022Y-80901819D01*
X92629279Y-80902722D01*
X92676373Y-80859362D01*
X92746311Y-80847145D01*
X92811751Y-80874678D01*
X92839579Y-80906511D01*
X92899987Y-81005088D01*
X93046250Y-81173938D01*
X93218126Y-81316632D01*
X93411000Y-81429338D01*
X93619692Y-81509030D01*
X93624760Y-81510061D01*
X93624763Y-81510062D01*
X93719862Y-81529410D01*
X93838597Y-81553567D01*
X93843772Y-81553757D01*
X93843774Y-81553757D01*
X94056673Y-81561564D01*
X94056677Y-81561564D01*
X94061837Y-81561753D01*
X94066957Y-81561097D01*
X94066959Y-81561097D01*
X94278288Y-81534025D01*
X94278289Y-81534025D01*
X94283416Y-81533368D01*
X94288366Y-81531883D01*
X94492429Y-81470661D01*
X94492434Y-81470659D01*
X94497384Y-81469174D01*
X94697994Y-81370896D01*
X94879860Y-81241173D01*
X95038096Y-81083489D01*
X95168453Y-80902077D01*
X95181995Y-80874678D01*
X95265136Y-80706453D01*
X95265137Y-80706451D01*
X95267430Y-80701811D01*
X95332370Y-80488069D01*
X95361529Y-80266590D01*
X95363156Y-80200000D01*
X95344852Y-79977361D01*
X95290431Y-79760702D01*
X95201354Y-79555840D01*
X95080014Y-79368277D01*
X94929670Y-79203051D01*
X94925619Y-79199852D01*
X94925615Y-79199848D01*
X94758414Y-79067800D01*
X94758410Y-79067798D01*
X94754359Y-79064598D01*
X94713053Y-79041796D01*
X94663084Y-78991364D01*
X94648312Y-78921921D01*
X94673428Y-78855516D01*
X94700780Y-78828909D01*
X94744603Y-78797650D01*
X94879860Y-78701173D01*
X95038096Y-78543489D01*
X95097594Y-78460689D01*
X95165435Y-78366277D01*
X95168453Y-78362077D01*
X95189320Y-78319857D01*
X95265136Y-78166453D01*
X95265137Y-78166451D01*
X95267430Y-78161811D01*
X95332370Y-77948069D01*
X95361529Y-77726590D01*
X95363156Y-77660000D01*
X95344852Y-77437361D01*
X95290431Y-77220702D01*
X95201354Y-77015840D01*
X95080014Y-76828277D01*
X94929670Y-76663051D01*
X94925619Y-76659852D01*
X94925615Y-76659848D01*
X94758414Y-76527800D01*
X94758410Y-76527798D01*
X94754359Y-76524598D01*
X94558789Y-76416638D01*
X94553920Y-76414914D01*
X94553916Y-76414912D01*
X94353087Y-76343795D01*
X94353083Y-76343794D01*
X94348212Y-76342069D01*
X94343119Y-76341162D01*
X94343116Y-76341161D01*
X94133373Y-76303800D01*
X94133367Y-76303799D01*
X94128284Y-76302894D01*
X94105298Y-76302613D01*
X94055293Y-76302002D01*
X93987422Y-76281169D01*
X93941588Y-76226949D01*
X93932344Y-76156557D01*
X93962624Y-76092341D01*
X93967738Y-76086916D01*
X94682047Y-75372607D01*
X94688313Y-75366753D01*
X94723027Y-75336470D01*
X94728752Y-75331476D01*
X94733117Y-75325265D01*
X94733120Y-75325262D01*
X94762897Y-75282893D01*
X94766830Y-75277598D01*
X94767182Y-75277149D01*
X94803462Y-75230879D01*
X94806589Y-75223954D01*
X94810330Y-75217777D01*
X94812942Y-75213198D01*
X94816362Y-75206820D01*
X94820731Y-75200603D01*
X94842297Y-75145289D01*
X94844850Y-75139214D01*
X94866163Y-75092011D01*
X94869289Y-75085088D01*
X94870674Y-75077616D01*
X94872827Y-75070745D01*
X94874290Y-75065609D01*
X94876078Y-75058645D01*
X94878838Y-75051566D01*
X94886587Y-74992700D01*
X94887618Y-74986189D01*
X94897056Y-74935268D01*
X94898440Y-74927803D01*
X94895109Y-74870032D01*
X94894900Y-74862780D01*
X94894900Y-61938335D01*
X94914902Y-61870214D01*
X94968558Y-61823721D01*
X95038832Y-61813617D01*
X95103412Y-61843111D01*
X95130019Y-61875335D01*
X95158112Y-61923995D01*
X95158115Y-61923999D01*
X95161415Y-61929715D01*
X95286530Y-62068669D01*
X95437800Y-62178573D01*
X95443828Y-62181257D01*
X95443830Y-62181258D01*
X95602584Y-62251940D01*
X95608615Y-62254625D01*
X95700063Y-62274063D01*
X95785053Y-62292128D01*
X95785057Y-62292128D01*
X95791510Y-62293500D01*
X95978490Y-62293500D01*
X95984943Y-62292128D01*
X95984947Y-62292128D01*
X96069937Y-62274063D01*
X96161385Y-62254625D01*
X96167416Y-62251940D01*
X96326170Y-62181258D01*
X96326172Y-62181257D01*
X96332200Y-62178573D01*
X96483470Y-62068669D01*
X96608585Y-61929715D01*
X96658586Y-61843111D01*
X96698771Y-61773508D01*
X96698772Y-61773507D01*
X96702075Y-61767785D01*
X96726139Y-61693722D01*
X96757815Y-61596235D01*
X96757815Y-61596234D01*
X96759855Y-61589956D01*
X96772088Y-61473573D01*
X96778710Y-61410565D01*
X96779400Y-61404000D01*
X96759855Y-61218044D01*
X96702075Y-61040215D01*
X96620017Y-60898085D01*
X96611888Y-60884006D01*
X96608585Y-60878285D01*
X96483470Y-60739331D01*
X96348850Y-60641524D01*
X96337542Y-60633308D01*
X96337541Y-60633307D01*
X96332200Y-60629427D01*
X96326172Y-60626743D01*
X96326170Y-60626742D01*
X96167416Y-60556060D01*
X96167414Y-60556060D01*
X96161385Y-60553375D01*
X96113736Y-60543247D01*
X96051263Y-60509519D01*
X96016941Y-60447369D01*
X96021669Y-60376530D01*
X96063945Y-60319493D01*
X96113736Y-60296753D01*
X96116349Y-60296198D01*
X96161385Y-60286625D01*
X96167416Y-60283940D01*
X96326170Y-60213258D01*
X96326172Y-60213257D01*
X96332200Y-60210573D01*
X96483470Y-60100669D01*
X96538787Y-60039234D01*
X96604166Y-59966623D01*
X96604167Y-59966622D01*
X96608585Y-59961715D01*
X96631663Y-59921742D01*
X96698771Y-59805508D01*
X96698772Y-59805507D01*
X96702075Y-59799785D01*
X96759855Y-59621956D01*
X96779400Y-59436000D01*
X96759855Y-59250044D01*
X96702075Y-59072215D01*
X96608585Y-58910285D01*
X96483470Y-58771331D01*
X96332200Y-58661427D01*
X96326172Y-58658743D01*
X96326170Y-58658742D01*
X96167416Y-58588060D01*
X96167414Y-58588060D01*
X96161385Y-58585375D01*
X96069937Y-58565937D01*
X95984947Y-58547872D01*
X95984943Y-58547872D01*
X95978490Y-58546500D01*
X95791510Y-58546500D01*
X95785057Y-58547872D01*
X95785053Y-58547872D01*
X95700063Y-58565937D01*
X95608615Y-58585375D01*
X95602586Y-58588060D01*
X95602584Y-58588060D01*
X95443830Y-58658742D01*
X95443828Y-58658743D01*
X95437800Y-58661427D01*
X95286530Y-58771331D01*
X95161415Y-58910285D01*
X95067925Y-59072215D01*
X95010145Y-59250044D01*
X95009455Y-59256608D01*
X95009455Y-59256609D01*
X94999992Y-59346645D01*
X94972979Y-59412302D01*
X94963777Y-59422570D01*
X93785961Y-60600386D01*
X93779696Y-60606239D01*
X93739248Y-60641524D01*
X93708292Y-60685570D01*
X93705109Y-60690099D01*
X93701177Y-60695393D01*
X93664537Y-60742121D01*
X93661411Y-60749045D01*
X93657698Y-60755176D01*
X93655062Y-60759796D01*
X93651640Y-60766178D01*
X93647269Y-60772397D01*
X93644509Y-60779476D01*
X93625702Y-60827713D01*
X93623146Y-60833792D01*
X93598711Y-60887912D01*
X93597325Y-60895388D01*
X93595170Y-60902266D01*
X93593710Y-60907391D01*
X93591922Y-60914355D01*
X93589162Y-60921434D01*
X93588170Y-60928966D01*
X93588170Y-60928968D01*
X93581414Y-60980292D01*
X93580384Y-60986798D01*
X93569560Y-61045197D01*
X93569997Y-61052777D01*
X93569997Y-61052778D01*
X93572891Y-61102967D01*
X93573100Y-61110220D01*
X93573100Y-64894707D01*
X93553098Y-64962828D01*
X93499442Y-65009321D01*
X93429168Y-65019425D01*
X93420904Y-65017954D01*
X93361004Y-65005223D01*
X93343490Y-65001500D01*
X93156510Y-65001500D01*
X93150057Y-65002872D01*
X93150053Y-65002872D01*
X93079099Y-65017954D01*
X92973615Y-65040375D01*
X92967586Y-65043060D01*
X92967584Y-65043060D01*
X92808830Y-65113742D01*
X92808828Y-65113743D01*
X92802800Y-65116427D01*
X92651530Y-65226331D01*
X92526415Y-65365285D01*
X92432925Y-65527215D01*
X92375145Y-65705044D01*
X92355600Y-65891000D01*
X92375145Y-66076956D01*
X92432925Y-66254785D01*
X92526415Y-66416715D01*
X92651530Y-66555669D01*
X92802800Y-66665573D01*
X92808828Y-66668257D01*
X92808830Y-66668258D01*
X92825979Y-66675893D01*
X92880075Y-66721873D01*
X92900724Y-66789801D01*
X92881372Y-66858109D01*
X92825979Y-66906107D01*
X92808830Y-66913742D01*
X92808828Y-66913743D01*
X92802800Y-66916427D01*
X92651530Y-67026331D01*
X92526415Y-67165285D01*
X92432925Y-67327215D01*
X92375145Y-67505044D01*
X92355600Y-67691000D01*
X92375145Y-67876956D01*
X92432925Y-68054785D01*
X92526415Y-68216715D01*
X92651530Y-68355669D01*
X92802800Y-68465573D01*
X92808828Y-68468257D01*
X92808830Y-68468258D01*
X92825979Y-68475893D01*
X92880075Y-68521873D01*
X92900724Y-68589801D01*
X92881372Y-68658109D01*
X92825979Y-68706107D01*
X92808830Y-68713742D01*
X92808828Y-68713743D01*
X92802800Y-68716427D01*
X92651530Y-68826331D01*
X92526415Y-68965285D01*
X92432925Y-69127215D01*
X92375145Y-69305044D01*
X92374455Y-69311609D01*
X92364992Y-69401645D01*
X92337979Y-69467302D01*
X92328777Y-69477570D01*
X89962395Y-71843952D01*
X89900083Y-71877978D01*
X89829268Y-71872913D01*
X89772432Y-71830366D01*
X89747621Y-71763846D01*
X89747300Y-71754857D01*
X89747300Y-61316667D01*
X89747592Y-61308097D01*
X89750726Y-61262133D01*
X89750726Y-61262129D01*
X89751242Y-61254557D01*
X89741030Y-61196047D01*
X89740073Y-61189567D01*
X89732937Y-61130595D01*
X89730251Y-61123487D01*
X89728535Y-61116501D01*
X89727133Y-61111375D01*
X89725047Y-61104465D01*
X89723740Y-61096977D01*
X89708730Y-61062785D01*
X89699880Y-61042623D01*
X89697387Y-61036515D01*
X89679078Y-60988062D01*
X89676394Y-60980959D01*
X89672093Y-60974701D01*
X89668785Y-60968373D01*
X89666132Y-60963608D01*
X89662495Y-60957459D01*
X89659442Y-60950504D01*
X89623289Y-60903389D01*
X89619436Y-60898085D01*
X89590094Y-60855392D01*
X89590092Y-60855389D01*
X89585789Y-60849129D01*
X89542571Y-60810623D01*
X89537296Y-60805643D01*
X89417223Y-60685570D01*
X89383197Y-60623258D01*
X89381008Y-60609645D01*
X89371545Y-60519609D01*
X89371545Y-60519608D01*
X89370855Y-60513044D01*
X89313075Y-60335215D01*
X89283472Y-60283940D01*
X89222888Y-60179006D01*
X89219585Y-60173285D01*
X89154201Y-60100669D01*
X89098885Y-60039234D01*
X89098883Y-60039233D01*
X89094470Y-60034331D01*
X88943200Y-59924427D01*
X88937172Y-59921743D01*
X88937170Y-59921742D01*
X88778416Y-59851060D01*
X88778414Y-59851060D01*
X88772385Y-59848375D01*
X88680938Y-59828938D01*
X88595947Y-59810872D01*
X88595943Y-59810872D01*
X88589490Y-59809500D01*
X88402510Y-59809500D01*
X88396057Y-59810872D01*
X88396053Y-59810872D01*
X88311062Y-59828938D01*
X88219615Y-59848375D01*
X88213586Y-59851060D01*
X88213584Y-59851060D01*
X88054830Y-59921742D01*
X88054828Y-59921743D01*
X88048800Y-59924427D01*
X87897530Y-60034331D01*
X87893117Y-60039233D01*
X87893115Y-60039234D01*
X87837799Y-60100669D01*
X87772415Y-60173285D01*
X87769112Y-60179006D01*
X87708529Y-60283940D01*
X87678925Y-60335215D01*
X87621145Y-60513044D01*
X87620455Y-60519607D01*
X87620455Y-60519608D01*
X87608505Y-60633308D01*
X87601600Y-60699000D01*
X87602290Y-60705565D01*
X87607810Y-60758079D01*
X87621145Y-60884956D01*
X87623185Y-60891234D01*
X87623185Y-60891235D01*
X87647650Y-60966529D01*
X87678925Y-61062785D01*
X87682228Y-61068507D01*
X87682229Y-61068508D01*
X87706978Y-61111375D01*
X87772415Y-61224715D01*
X87776833Y-61229622D01*
X87776834Y-61229623D01*
X87847493Y-61308097D01*
X87897530Y-61363669D01*
X88048800Y-61473573D01*
X88054828Y-61476257D01*
X88054830Y-61476258D01*
X88213584Y-61546940D01*
X88219615Y-61549625D01*
X88226070Y-61550997D01*
X88226073Y-61550998D01*
X88325696Y-61572173D01*
X88388170Y-61605901D01*
X88422492Y-61668051D01*
X88425500Y-61695420D01*
X88425500Y-62459701D01*
X88405498Y-62527822D01*
X88351842Y-62574315D01*
X88325697Y-62582948D01*
X88288699Y-62590812D01*
X88149615Y-62620375D01*
X88143586Y-62623060D01*
X88143584Y-62623060D01*
X87984830Y-62693742D01*
X87984828Y-62693743D01*
X87978800Y-62696427D01*
X87827530Y-62806331D01*
X87702415Y-62945285D01*
X87608925Y-63107215D01*
X87551145Y-63285044D01*
X87531600Y-63471000D01*
X87551145Y-63656956D01*
X87608925Y-63834785D01*
X87702415Y-63996715D01*
X87827530Y-64135669D01*
X87978800Y-64245573D01*
X87984828Y-64248257D01*
X87984830Y-64248258D01*
X88143584Y-64318940D01*
X88149615Y-64321625D01*
X88288699Y-64351188D01*
X88325697Y-64359052D01*
X88388170Y-64392780D01*
X88422492Y-64454930D01*
X88425500Y-64482299D01*
X88425500Y-74627657D01*
X88405498Y-74695778D01*
X88388595Y-74716752D01*
X86804455Y-76300892D01*
X86742143Y-76334918D01*
X86693265Y-76335844D01*
X86645529Y-76327341D01*
X86513373Y-76303800D01*
X86513367Y-76303799D01*
X86508284Y-76302894D01*
X86434452Y-76301992D01*
X86290081Y-76300228D01*
X86290079Y-76300228D01*
X86284911Y-76300165D01*
X86064091Y-76333955D01*
X85851756Y-76403357D01*
X85822135Y-76418777D01*
X85659426Y-76503478D01*
X85653607Y-76506507D01*
X85649474Y-76509610D01*
X85649471Y-76509612D01*
X85625247Y-76527800D01*
X85474965Y-76640635D01*
X85320629Y-76802138D01*
X85194743Y-76986680D01*
X85100688Y-77189305D01*
X85040989Y-77404570D01*
X85017251Y-77626695D01*
X80645500Y-77626695D01*
X80645500Y-58060571D01*
X95466259Y-58060571D01*
X95469770Y-58065260D01*
X95602735Y-58124460D01*
X95615231Y-58128520D01*
X95785105Y-58164628D01*
X95798165Y-58166000D01*
X95971835Y-58166000D01*
X95984895Y-58164628D01*
X96154769Y-58128520D01*
X96167265Y-58124460D01*
X96293242Y-58068372D01*
X96303988Y-58059238D01*
X96302391Y-58053601D01*
X95897812Y-57649022D01*
X95883868Y-57641408D01*
X95882035Y-57641539D01*
X95875420Y-57645790D01*
X95473019Y-58048191D01*
X95466259Y-58060571D01*
X80645500Y-58060571D01*
X80645500Y-57283565D01*
X94991793Y-57283565D01*
X95009947Y-57456288D01*
X95012677Y-57469131D01*
X95066342Y-57634296D01*
X95071689Y-57646305D01*
X95093668Y-57684374D01*
X95103875Y-57694106D01*
X95111895Y-57690895D01*
X95512978Y-57289812D01*
X95519356Y-57278132D01*
X96249408Y-57278132D01*
X96249539Y-57279965D01*
X96253790Y-57286580D01*
X96654461Y-57687251D01*
X96666841Y-57694011D01*
X96673756Y-57688834D01*
X96698311Y-57646305D01*
X96703658Y-57634296D01*
X96757323Y-57469131D01*
X96760053Y-57456288D01*
X96778207Y-57283565D01*
X96778207Y-57270435D01*
X96760053Y-57097712D01*
X96757323Y-57084869D01*
X96703658Y-56919704D01*
X96698311Y-56907695D01*
X96676332Y-56869626D01*
X96666125Y-56859894D01*
X96658105Y-56863105D01*
X96257022Y-57264188D01*
X96249408Y-57278132D01*
X95519356Y-57278132D01*
X95520592Y-57275868D01*
X95520461Y-57274035D01*
X95516210Y-57267420D01*
X95115539Y-56866749D01*
X95103159Y-56859989D01*
X95096244Y-56865166D01*
X95071689Y-56907695D01*
X95066342Y-56919704D01*
X95012677Y-57084869D01*
X95009947Y-57097712D01*
X94991793Y-57270435D01*
X94991793Y-57283565D01*
X80645500Y-57283565D01*
X80645500Y-56494763D01*
X95466013Y-56494763D01*
X95467610Y-56500400D01*
X95872188Y-56904978D01*
X95886132Y-56912592D01*
X95887965Y-56912461D01*
X95894580Y-56908210D01*
X96296981Y-56505809D01*
X96303741Y-56493429D01*
X96300230Y-56488740D01*
X96167265Y-56429540D01*
X96154769Y-56425480D01*
X95984895Y-56389372D01*
X95971835Y-56388000D01*
X95798165Y-56388000D01*
X95785105Y-56389372D01*
X95615228Y-56425481D01*
X95602740Y-56429538D01*
X95476758Y-56485630D01*
X95466013Y-56494763D01*
X80645500Y-56494763D01*
X80645500Y-53468365D01*
X85070500Y-53468365D01*
X85070501Y-54481634D01*
X85077247Y-54555062D01*
X85079246Y-54561440D01*
X85079246Y-54561441D01*
X85090251Y-54596556D01*
X85128528Y-54718699D01*
X85217361Y-54865381D01*
X85338619Y-54986639D01*
X85485301Y-55075472D01*
X85492548Y-55077743D01*
X85492550Y-55077744D01*
X85535198Y-55091109D01*
X85648938Y-55126753D01*
X85722365Y-55133500D01*
X85725263Y-55133500D01*
X85979665Y-55133499D01*
X86235634Y-55133499D01*
X86238492Y-55133236D01*
X86238501Y-55133236D01*
X86274004Y-55129974D01*
X86309062Y-55126753D01*
X86315447Y-55124752D01*
X86465450Y-55077744D01*
X86465452Y-55077743D01*
X86472699Y-55075472D01*
X86609018Y-54992915D01*
X86677648Y-54974736D01*
X86748350Y-54998755D01*
X86766308Y-55011802D01*
X86772248Y-55016118D01*
X86778276Y-55018802D01*
X86778278Y-55018803D01*
X86925844Y-55084503D01*
X86946712Y-55093794D01*
X87040112Y-55113647D01*
X87127056Y-55132128D01*
X87127061Y-55132128D01*
X87133513Y-55133500D01*
X87324487Y-55133500D01*
X87330939Y-55132128D01*
X87330944Y-55132128D01*
X87417888Y-55113647D01*
X87511288Y-55093794D01*
X87532156Y-55084503D01*
X87679722Y-55018803D01*
X87679724Y-55018802D01*
X87685752Y-55016118D01*
X87691693Y-55011802D01*
X87779939Y-54947687D01*
X87846807Y-54923828D01*
X87915958Y-54939909D01*
X87928061Y-54947687D01*
X88016308Y-55011802D01*
X88022248Y-55016118D01*
X88028276Y-55018802D01*
X88028278Y-55018803D01*
X88175844Y-55084503D01*
X88196712Y-55093794D01*
X88290112Y-55113647D01*
X88377056Y-55132128D01*
X88377061Y-55132128D01*
X88383513Y-55133500D01*
X88574487Y-55133500D01*
X88580939Y-55132128D01*
X88580944Y-55132128D01*
X88667888Y-55113647D01*
X88761288Y-55093794D01*
X88782156Y-55084503D01*
X88929722Y-55018803D01*
X88929724Y-55018802D01*
X88935752Y-55016118D01*
X88941693Y-55011802D01*
X89029939Y-54947687D01*
X89096807Y-54923828D01*
X89165958Y-54939909D01*
X89178061Y-54947687D01*
X89266308Y-55011802D01*
X89272248Y-55016118D01*
X89278276Y-55018802D01*
X89278278Y-55018803D01*
X89425844Y-55084503D01*
X89446712Y-55093794D01*
X89540112Y-55113647D01*
X89627056Y-55132128D01*
X89627061Y-55132128D01*
X89633513Y-55133500D01*
X89824487Y-55133500D01*
X89830939Y-55132128D01*
X89830944Y-55132128D01*
X89917888Y-55113647D01*
X90011288Y-55093794D01*
X90032156Y-55084503D01*
X90179722Y-55018803D01*
X90179724Y-55018802D01*
X90185752Y-55016118D01*
X90191693Y-55011802D01*
X90279939Y-54947687D01*
X90346807Y-54923828D01*
X90415958Y-54939909D01*
X90428061Y-54947687D01*
X90516308Y-55011802D01*
X90522248Y-55016118D01*
X90528276Y-55018802D01*
X90528278Y-55018803D01*
X90675844Y-55084503D01*
X90696712Y-55093794D01*
X90790112Y-55113647D01*
X90877056Y-55132128D01*
X90877061Y-55132128D01*
X90883513Y-55133500D01*
X91074487Y-55133500D01*
X91080939Y-55132128D01*
X91080944Y-55132128D01*
X91167888Y-55113647D01*
X91261288Y-55093794D01*
X91282156Y-55084503D01*
X91429722Y-55018803D01*
X91429724Y-55018802D01*
X91435752Y-55016118D01*
X91441693Y-55011802D01*
X91529939Y-54947687D01*
X91596807Y-54923828D01*
X91665958Y-54939909D01*
X91678061Y-54947687D01*
X91766308Y-55011802D01*
X91772248Y-55016118D01*
X91778276Y-55018802D01*
X91778278Y-55018803D01*
X91925844Y-55084503D01*
X91946712Y-55093794D01*
X92040112Y-55113647D01*
X92127056Y-55132128D01*
X92127061Y-55132128D01*
X92133513Y-55133500D01*
X92324487Y-55133500D01*
X92330939Y-55132128D01*
X92330944Y-55132128D01*
X92417888Y-55113647D01*
X92511288Y-55093794D01*
X92532156Y-55084503D01*
X92679722Y-55018803D01*
X92679724Y-55018802D01*
X92685752Y-55016118D01*
X92691693Y-55011802D01*
X92779939Y-54947687D01*
X92846807Y-54923828D01*
X92915958Y-54939909D01*
X92928061Y-54947687D01*
X93016308Y-55011802D01*
X93022248Y-55016118D01*
X93028276Y-55018802D01*
X93028278Y-55018803D01*
X93175844Y-55084503D01*
X93196712Y-55093794D01*
X93290112Y-55113647D01*
X93377056Y-55132128D01*
X93377061Y-55132128D01*
X93383513Y-55133500D01*
X93574487Y-55133500D01*
X93580939Y-55132128D01*
X93580944Y-55132128D01*
X93667888Y-55113647D01*
X93761288Y-55093794D01*
X93782156Y-55084503D01*
X93929722Y-55018803D01*
X93929724Y-55018802D01*
X93935752Y-55016118D01*
X94030366Y-54947377D01*
X94097230Y-54923520D01*
X94166382Y-54939600D01*
X94178485Y-54947378D01*
X94267157Y-55011802D01*
X94278529Y-55018368D01*
X94440839Y-55090633D01*
X94453325Y-55094690D01*
X94457278Y-55095530D01*
X94471341Y-55094457D01*
X94475000Y-55084503D01*
X94475000Y-55081182D01*
X94983000Y-55081182D01*
X94986973Y-55094713D01*
X94997468Y-55096222D01*
X95004675Y-55094690D01*
X95017161Y-55090633D01*
X95179471Y-55018368D01*
X95190843Y-55011802D01*
X95334574Y-54907376D01*
X95344337Y-54898585D01*
X95463214Y-54766558D01*
X95470938Y-54755927D01*
X95559765Y-54602074D01*
X95565111Y-54590066D01*
X95620011Y-54421102D01*
X95622741Y-54408261D01*
X95636656Y-54275862D01*
X95637000Y-54269302D01*
X95637000Y-54247115D01*
X95632525Y-54231876D01*
X95631135Y-54230671D01*
X95623452Y-54229000D01*
X95001115Y-54229000D01*
X94985876Y-54233475D01*
X94984671Y-54234865D01*
X94983000Y-54242548D01*
X94983000Y-55081182D01*
X94475000Y-55081182D01*
X94475000Y-53702885D01*
X94983000Y-53702885D01*
X94987475Y-53718124D01*
X94988865Y-53719329D01*
X94996548Y-53721000D01*
X95618885Y-53721000D01*
X95634124Y-53716525D01*
X95635329Y-53715135D01*
X95637000Y-53707452D01*
X95637000Y-53680698D01*
X95636656Y-53674138D01*
X95622741Y-53541739D01*
X95620011Y-53528898D01*
X95565111Y-53359934D01*
X95559765Y-53347926D01*
X95470938Y-53194073D01*
X95463214Y-53183442D01*
X95344337Y-53051415D01*
X95334574Y-53042624D01*
X95190843Y-52938198D01*
X95179471Y-52931632D01*
X95017161Y-52859367D01*
X95004675Y-52855310D01*
X95000722Y-52854470D01*
X94986659Y-52855543D01*
X94983000Y-52865497D01*
X94983000Y-53702885D01*
X94475000Y-53702885D01*
X94475000Y-52868818D01*
X94471027Y-52855287D01*
X94460532Y-52853778D01*
X94453325Y-52855310D01*
X94440839Y-52859367D01*
X94278529Y-52931632D01*
X94267157Y-52938198D01*
X94178485Y-53002622D01*
X94111617Y-53026481D01*
X94042466Y-53010400D01*
X94030380Y-53002634D01*
X93935752Y-52933882D01*
X93929724Y-52931198D01*
X93929722Y-52931197D01*
X93767319Y-52858891D01*
X93767318Y-52858891D01*
X93761288Y-52856206D01*
X93667888Y-52836353D01*
X93580944Y-52817872D01*
X93580939Y-52817872D01*
X93574487Y-52816500D01*
X93383513Y-52816500D01*
X93377061Y-52817872D01*
X93377056Y-52817872D01*
X93290113Y-52836353D01*
X93196712Y-52856206D01*
X93190682Y-52858891D01*
X93190681Y-52858891D01*
X93028278Y-52931197D01*
X93028276Y-52931198D01*
X93022248Y-52933882D01*
X93016907Y-52937762D01*
X93016906Y-52937763D01*
X92928061Y-53002313D01*
X92861193Y-53026172D01*
X92792042Y-53010091D01*
X92779939Y-53002313D01*
X92691094Y-52937763D01*
X92691093Y-52937762D01*
X92685752Y-52933882D01*
X92679724Y-52931198D01*
X92679722Y-52931197D01*
X92517319Y-52858891D01*
X92517318Y-52858891D01*
X92511288Y-52856206D01*
X92417888Y-52836353D01*
X92330944Y-52817872D01*
X92330939Y-52817872D01*
X92324487Y-52816500D01*
X92133513Y-52816500D01*
X92127061Y-52817872D01*
X92127056Y-52817872D01*
X92040113Y-52836353D01*
X91946712Y-52856206D01*
X91940682Y-52858891D01*
X91940681Y-52858891D01*
X91778278Y-52931197D01*
X91778276Y-52931198D01*
X91772248Y-52933882D01*
X91766907Y-52937762D01*
X91766906Y-52937763D01*
X91678061Y-53002313D01*
X91611193Y-53026172D01*
X91542042Y-53010091D01*
X91529939Y-53002313D01*
X91441094Y-52937763D01*
X91441093Y-52937762D01*
X91435752Y-52933882D01*
X91429724Y-52931198D01*
X91429722Y-52931197D01*
X91267319Y-52858891D01*
X91267318Y-52858891D01*
X91261288Y-52856206D01*
X91167888Y-52836353D01*
X91080944Y-52817872D01*
X91080939Y-52817872D01*
X91074487Y-52816500D01*
X90883513Y-52816500D01*
X90877061Y-52817872D01*
X90877056Y-52817872D01*
X90790113Y-52836353D01*
X90696712Y-52856206D01*
X90690682Y-52858891D01*
X90690681Y-52858891D01*
X90528278Y-52931197D01*
X90528276Y-52931198D01*
X90522248Y-52933882D01*
X90516907Y-52937762D01*
X90516906Y-52937763D01*
X90428061Y-53002313D01*
X90361193Y-53026172D01*
X90292042Y-53010091D01*
X90279939Y-53002313D01*
X90191094Y-52937763D01*
X90191093Y-52937762D01*
X90185752Y-52933882D01*
X90179724Y-52931198D01*
X90179722Y-52931197D01*
X90017319Y-52858891D01*
X90017318Y-52858891D01*
X90011288Y-52856206D01*
X89917888Y-52836353D01*
X89830944Y-52817872D01*
X89830939Y-52817872D01*
X89824487Y-52816500D01*
X89633513Y-52816500D01*
X89627061Y-52817872D01*
X89627056Y-52817872D01*
X89540113Y-52836353D01*
X89446712Y-52856206D01*
X89440682Y-52858891D01*
X89440681Y-52858891D01*
X89278278Y-52931197D01*
X89278276Y-52931198D01*
X89272248Y-52933882D01*
X89266907Y-52937762D01*
X89266906Y-52937763D01*
X89178061Y-53002313D01*
X89111193Y-53026172D01*
X89042042Y-53010091D01*
X89029939Y-53002313D01*
X88941094Y-52937763D01*
X88941093Y-52937762D01*
X88935752Y-52933882D01*
X88929724Y-52931198D01*
X88929722Y-52931197D01*
X88767319Y-52858891D01*
X88767318Y-52858891D01*
X88761288Y-52856206D01*
X88667888Y-52836353D01*
X88580944Y-52817872D01*
X88580939Y-52817872D01*
X88574487Y-52816500D01*
X88383513Y-52816500D01*
X88377061Y-52817872D01*
X88377056Y-52817872D01*
X88290113Y-52836353D01*
X88196712Y-52856206D01*
X88190682Y-52858891D01*
X88190681Y-52858891D01*
X88028278Y-52931197D01*
X88028276Y-52931198D01*
X88022248Y-52933882D01*
X88016907Y-52937762D01*
X88016906Y-52937763D01*
X87928061Y-53002313D01*
X87861193Y-53026172D01*
X87792042Y-53010091D01*
X87779939Y-53002313D01*
X87691094Y-52937763D01*
X87691093Y-52937762D01*
X87685752Y-52933882D01*
X87679724Y-52931198D01*
X87679722Y-52931197D01*
X87517319Y-52858891D01*
X87517318Y-52858891D01*
X87511288Y-52856206D01*
X87417888Y-52836353D01*
X87330944Y-52817872D01*
X87330939Y-52817872D01*
X87324487Y-52816500D01*
X87133513Y-52816500D01*
X87127061Y-52817872D01*
X87127056Y-52817872D01*
X87040113Y-52836353D01*
X86946712Y-52856206D01*
X86940682Y-52858891D01*
X86940681Y-52858891D01*
X86778278Y-52931197D01*
X86778276Y-52931198D01*
X86772248Y-52933882D01*
X86766908Y-52937762D01*
X86766906Y-52937763D01*
X86748350Y-52951245D01*
X86681482Y-52975103D01*
X86609018Y-52957085D01*
X86599375Y-52951245D01*
X86472699Y-52874528D01*
X86465452Y-52872257D01*
X86465450Y-52872256D01*
X86399164Y-52851483D01*
X86309062Y-52823247D01*
X86235635Y-52816500D01*
X86232737Y-52816500D01*
X85978335Y-52816501D01*
X85722366Y-52816501D01*
X85719508Y-52816764D01*
X85719499Y-52816764D01*
X85683996Y-52820026D01*
X85648938Y-52823247D01*
X85642560Y-52825246D01*
X85642559Y-52825246D01*
X85492550Y-52872256D01*
X85492548Y-52872257D01*
X85485301Y-52874528D01*
X85338619Y-52963361D01*
X85217361Y-53084619D01*
X85128528Y-53231301D01*
X85077247Y-53394938D01*
X85070500Y-53468365D01*
X80645500Y-53468365D01*
X80645500Y-51234500D01*
X80665502Y-51166379D01*
X80719158Y-51119886D01*
X80771500Y-51108500D01*
X98965500Y-51108500D01*
X99033621Y-51128502D01*
G37*
%TD.AperFunction*%
%TD*%
M02*
