%TF.GenerationSoftware,KiCad,Pcbnew,7.0.6*%
%TF.CreationDate,2023-07-26T19:14:02-07:00*%
%TF.ProjectId,connector_board,636f6e6e-6563-4746-9f72-5f626f617264,rev?*%
%TF.SameCoordinates,Original*%
%TF.FileFunction,Legend,Top*%
%TF.FilePolarity,Positive*%
%FSLAX46Y46*%
G04 Gerber Fmt 4.6, Leading zero omitted, Abs format (unit mm)*
G04 Created by KiCad (PCBNEW 7.0.6) date 2023-07-26 19:14:02*
%MOMM*%
%LPD*%
G01*
G04 APERTURE LIST*
G04 Aperture macros list*
%AMRoundRect*
0 Rectangle with rounded corners*
0 $1 Rounding radius*
0 $2 $3 $4 $5 $6 $7 $8 $9 X,Y pos of 4 corners*
0 Add a 4 corners polygon primitive as box body*
4,1,4,$2,$3,$4,$5,$6,$7,$8,$9,$2,$3,0*
0 Add four circle primitives for the rounded corners*
1,1,$1+$1,$2,$3*
1,1,$1+$1,$4,$5*
1,1,$1+$1,$6,$7*
1,1,$1+$1,$8,$9*
0 Add four rect primitives between the rounded corners*
20,1,$1+$1,$2,$3,$4,$5,0*
20,1,$1+$1,$4,$5,$6,$7,0*
20,1,$1+$1,$6,$7,$8,$9,0*
20,1,$1+$1,$8,$9,$2,$3,0*%
G04 Aperture macros list end*
%ADD10C,0.080000*%
%ADD11C,0.100000*%
%ADD12C,0.150000*%
%ADD13C,0.120000*%
%ADD14C,2.800000*%
%ADD15R,1.700000X1.700000*%
%ADD16O,1.700000X1.700000*%
%ADD17R,1.000000X1.000000*%
%ADD18RoundRect,0.200000X-0.200000X-0.450000X0.200000X-0.450000X0.200000X0.450000X-0.200000X0.450000X0*%
%ADD19O,0.800000X1.300000*%
%ADD20RoundRect,0.200000X0.450000X-0.200000X0.450000X0.200000X-0.450000X0.200000X-0.450000X-0.200000X0*%
%ADD21O,1.300000X0.800000*%
%ADD22RoundRect,0.135000X0.185000X-0.135000X0.185000X0.135000X-0.185000X0.135000X-0.185000X-0.135000X0*%
%ADD23RoundRect,0.243750X-0.456250X0.243750X-0.456250X-0.243750X0.456250X-0.243750X0.456250X0.243750X0*%
G04 APERTURE END LIST*
D10*
X71896488Y-57896125D02*
X71696488Y-57896125D01*
X71696488Y-58210411D02*
X71696488Y-57610411D01*
X71696488Y-57610411D02*
X71982202Y-57610411D01*
X72296488Y-58210411D02*
X72239345Y-58181840D01*
X72239345Y-58181840D02*
X72210774Y-58153268D01*
X72210774Y-58153268D02*
X72182202Y-58096125D01*
X72182202Y-58096125D02*
X72182202Y-57924697D01*
X72182202Y-57924697D02*
X72210774Y-57867554D01*
X72210774Y-57867554D02*
X72239345Y-57838982D01*
X72239345Y-57838982D02*
X72296488Y-57810411D01*
X72296488Y-57810411D02*
X72382202Y-57810411D01*
X72382202Y-57810411D02*
X72439345Y-57838982D01*
X72439345Y-57838982D02*
X72467917Y-57867554D01*
X72467917Y-57867554D02*
X72496488Y-57924697D01*
X72496488Y-57924697D02*
X72496488Y-58096125D01*
X72496488Y-58096125D02*
X72467917Y-58153268D01*
X72467917Y-58153268D02*
X72439345Y-58181840D01*
X72439345Y-58181840D02*
X72382202Y-58210411D01*
X72382202Y-58210411D02*
X72296488Y-58210411D01*
X72753631Y-58210411D02*
X72753631Y-57810411D01*
X72753631Y-57924697D02*
X72782202Y-57867554D01*
X72782202Y-57867554D02*
X72810774Y-57838982D01*
X72810774Y-57838982D02*
X72867916Y-57810411D01*
X72867916Y-57810411D02*
X72925059Y-57810411D01*
X73839346Y-57810411D02*
X73839346Y-58210411D01*
X73582203Y-57810411D02*
X73582203Y-58124697D01*
X73582203Y-58124697D02*
X73610774Y-58181840D01*
X73610774Y-58181840D02*
X73667917Y-58210411D01*
X73667917Y-58210411D02*
X73753631Y-58210411D01*
X73753631Y-58210411D02*
X73810774Y-58181840D01*
X73810774Y-58181840D02*
X73839346Y-58153268D01*
X74096488Y-58181840D02*
X74153631Y-58210411D01*
X74153631Y-58210411D02*
X74267917Y-58210411D01*
X74267917Y-58210411D02*
X74325060Y-58181840D01*
X74325060Y-58181840D02*
X74353631Y-58124697D01*
X74353631Y-58124697D02*
X74353631Y-58096125D01*
X74353631Y-58096125D02*
X74325060Y-58038982D01*
X74325060Y-58038982D02*
X74267917Y-58010411D01*
X74267917Y-58010411D02*
X74182203Y-58010411D01*
X74182203Y-58010411D02*
X74125060Y-57981840D01*
X74125060Y-57981840D02*
X74096488Y-57924697D01*
X74096488Y-57924697D02*
X74096488Y-57896125D01*
X74096488Y-57896125D02*
X74125060Y-57838982D01*
X74125060Y-57838982D02*
X74182203Y-57810411D01*
X74182203Y-57810411D02*
X74267917Y-57810411D01*
X74267917Y-57810411D02*
X74325060Y-57838982D01*
X74839345Y-58181840D02*
X74782202Y-58210411D01*
X74782202Y-58210411D02*
X74667917Y-58210411D01*
X74667917Y-58210411D02*
X74610774Y-58181840D01*
X74610774Y-58181840D02*
X74582202Y-58124697D01*
X74582202Y-58124697D02*
X74582202Y-57896125D01*
X74582202Y-57896125D02*
X74610774Y-57838982D01*
X74610774Y-57838982D02*
X74667917Y-57810411D01*
X74667917Y-57810411D02*
X74782202Y-57810411D01*
X74782202Y-57810411D02*
X74839345Y-57838982D01*
X74839345Y-57838982D02*
X74867917Y-57896125D01*
X74867917Y-57896125D02*
X74867917Y-57953268D01*
X74867917Y-57953268D02*
X74582202Y-58010411D01*
X75525060Y-57810411D02*
X75639346Y-58210411D01*
X75639346Y-58210411D02*
X75753631Y-57924697D01*
X75753631Y-57924697D02*
X75867917Y-58210411D01*
X75867917Y-58210411D02*
X75982203Y-57810411D01*
X76210774Y-58210411D02*
X76210774Y-57810411D01*
X76210774Y-57610411D02*
X76182202Y-57638982D01*
X76182202Y-57638982D02*
X76210774Y-57667554D01*
X76210774Y-57667554D02*
X76239345Y-57638982D01*
X76239345Y-57638982D02*
X76210774Y-57610411D01*
X76210774Y-57610411D02*
X76210774Y-57667554D01*
X76410773Y-57810411D02*
X76639345Y-57810411D01*
X76496488Y-57610411D02*
X76496488Y-58124697D01*
X76496488Y-58124697D02*
X76525059Y-58181840D01*
X76525059Y-58181840D02*
X76582202Y-58210411D01*
X76582202Y-58210411D02*
X76639345Y-58210411D01*
X76839345Y-58210411D02*
X76839345Y-57610411D01*
X77096488Y-58210411D02*
X77096488Y-57896125D01*
X77096488Y-57896125D02*
X77067916Y-57838982D01*
X77067916Y-57838982D02*
X77010773Y-57810411D01*
X77010773Y-57810411D02*
X76925059Y-57810411D01*
X76925059Y-57810411D02*
X76867916Y-57838982D01*
X76867916Y-57838982D02*
X76839345Y-57867554D01*
X71667916Y-59147840D02*
X71753631Y-59176411D01*
X71753631Y-59176411D02*
X71896488Y-59176411D01*
X71896488Y-59176411D02*
X71953631Y-59147840D01*
X71953631Y-59147840D02*
X71982202Y-59119268D01*
X71982202Y-59119268D02*
X72010773Y-59062125D01*
X72010773Y-59062125D02*
X72010773Y-59004982D01*
X72010773Y-59004982D02*
X71982202Y-58947840D01*
X71982202Y-58947840D02*
X71953631Y-58919268D01*
X71953631Y-58919268D02*
X71896488Y-58890697D01*
X71896488Y-58890697D02*
X71782202Y-58862125D01*
X71782202Y-58862125D02*
X71725059Y-58833554D01*
X71725059Y-58833554D02*
X71696488Y-58804982D01*
X71696488Y-58804982D02*
X71667916Y-58747840D01*
X71667916Y-58747840D02*
X71667916Y-58690697D01*
X71667916Y-58690697D02*
X71696488Y-58633554D01*
X71696488Y-58633554D02*
X71725059Y-58604982D01*
X71725059Y-58604982D02*
X71782202Y-58576411D01*
X71782202Y-58576411D02*
X71925059Y-58576411D01*
X71925059Y-58576411D02*
X72010773Y-58604982D01*
X72525060Y-58776411D02*
X72525060Y-59176411D01*
X72267917Y-58776411D02*
X72267917Y-59090697D01*
X72267917Y-59090697D02*
X72296488Y-59147840D01*
X72296488Y-59147840D02*
X72353631Y-59176411D01*
X72353631Y-59176411D02*
X72439345Y-59176411D01*
X72439345Y-59176411D02*
X72496488Y-59147840D01*
X72496488Y-59147840D02*
X72525060Y-59119268D01*
X72896488Y-59176411D02*
X72839345Y-59147840D01*
X72839345Y-59147840D02*
X72810774Y-59090697D01*
X72810774Y-59090697D02*
X72810774Y-58576411D01*
X73382203Y-58776411D02*
X73382203Y-59176411D01*
X73125060Y-58776411D02*
X73125060Y-59090697D01*
X73125060Y-59090697D02*
X73153631Y-59147840D01*
X73153631Y-59147840D02*
X73210774Y-59176411D01*
X73210774Y-59176411D02*
X73296488Y-59176411D01*
X73296488Y-59176411D02*
X73353631Y-59147840D01*
X73353631Y-59147840D02*
X73382203Y-59119268D01*
X73667917Y-58947840D02*
X74125060Y-58947840D01*
X74382202Y-59004982D02*
X74667917Y-59004982D01*
X74325059Y-59176411D02*
X74525059Y-58576411D01*
X74525059Y-58576411D02*
X74725059Y-59176411D01*
X74925060Y-59176411D02*
X74925060Y-58576411D01*
X74925060Y-58576411D02*
X75067917Y-58576411D01*
X75067917Y-58576411D02*
X75153631Y-58604982D01*
X75153631Y-58604982D02*
X75210774Y-58662125D01*
X75210774Y-58662125D02*
X75239345Y-58719268D01*
X75239345Y-58719268D02*
X75267917Y-58833554D01*
X75267917Y-58833554D02*
X75267917Y-58919268D01*
X75267917Y-58919268D02*
X75239345Y-59033554D01*
X75239345Y-59033554D02*
X75210774Y-59090697D01*
X75210774Y-59090697D02*
X75153631Y-59147840D01*
X75153631Y-59147840D02*
X75067917Y-59176411D01*
X75067917Y-59176411D02*
X74925060Y-59176411D01*
X75496488Y-59147840D02*
X75582203Y-59176411D01*
X75582203Y-59176411D02*
X75725060Y-59176411D01*
X75725060Y-59176411D02*
X75782203Y-59147840D01*
X75782203Y-59147840D02*
X75810774Y-59119268D01*
X75810774Y-59119268D02*
X75839345Y-59062125D01*
X75839345Y-59062125D02*
X75839345Y-59004982D01*
X75839345Y-59004982D02*
X75810774Y-58947840D01*
X75810774Y-58947840D02*
X75782203Y-58919268D01*
X75782203Y-58919268D02*
X75725060Y-58890697D01*
X75725060Y-58890697D02*
X75610774Y-58862125D01*
X75610774Y-58862125D02*
X75553631Y-58833554D01*
X75553631Y-58833554D02*
X75525060Y-58804982D01*
X75525060Y-58804982D02*
X75496488Y-58747840D01*
X75496488Y-58747840D02*
X75496488Y-58690697D01*
X75496488Y-58690697D02*
X75525060Y-58633554D01*
X75525060Y-58633554D02*
X75553631Y-58604982D01*
X75553631Y-58604982D02*
X75610774Y-58576411D01*
X75610774Y-58576411D02*
X75753631Y-58576411D01*
X75753631Y-58576411D02*
X75839345Y-58604982D01*
X76410774Y-59176411D02*
X76067917Y-59176411D01*
X76239346Y-59176411D02*
X76239346Y-58576411D01*
X76239346Y-58576411D02*
X76182203Y-58662125D01*
X76182203Y-58662125D02*
X76125060Y-58719268D01*
X76125060Y-58719268D02*
X76067917Y-58747840D01*
X76639346Y-58633554D02*
X76667918Y-58604982D01*
X76667918Y-58604982D02*
X76725061Y-58576411D01*
X76725061Y-58576411D02*
X76867918Y-58576411D01*
X76867918Y-58576411D02*
X76925061Y-58604982D01*
X76925061Y-58604982D02*
X76953632Y-58633554D01*
X76953632Y-58633554D02*
X76982203Y-58690697D01*
X76982203Y-58690697D02*
X76982203Y-58747840D01*
X76982203Y-58747840D02*
X76953632Y-58833554D01*
X76953632Y-58833554D02*
X76610775Y-59176411D01*
X76610775Y-59176411D02*
X76982203Y-59176411D01*
X77267918Y-59176411D02*
X77382204Y-59176411D01*
X77382204Y-59176411D02*
X77439347Y-59147840D01*
X77439347Y-59147840D02*
X77467918Y-59119268D01*
X77467918Y-59119268D02*
X77525061Y-59033554D01*
X77525061Y-59033554D02*
X77553632Y-58919268D01*
X77553632Y-58919268D02*
X77553632Y-58690697D01*
X77553632Y-58690697D02*
X77525061Y-58633554D01*
X77525061Y-58633554D02*
X77496490Y-58604982D01*
X77496490Y-58604982D02*
X77439347Y-58576411D01*
X77439347Y-58576411D02*
X77325061Y-58576411D01*
X77325061Y-58576411D02*
X77267918Y-58604982D01*
X77267918Y-58604982D02*
X77239347Y-58633554D01*
X77239347Y-58633554D02*
X77210775Y-58690697D01*
X77210775Y-58690697D02*
X77210775Y-58833554D01*
X77210775Y-58833554D02*
X77239347Y-58890697D01*
X77239347Y-58890697D02*
X77267918Y-58919268D01*
X77267918Y-58919268D02*
X77325061Y-58947840D01*
X77325061Y-58947840D02*
X77439347Y-58947840D01*
X77439347Y-58947840D02*
X77496490Y-58919268D01*
X77496490Y-58919268D02*
X77525061Y-58890697D01*
X77525061Y-58890697D02*
X77553632Y-58833554D01*
X77839347Y-59176411D02*
X77953633Y-59176411D01*
X77953633Y-59176411D02*
X78010776Y-59147840D01*
X78010776Y-59147840D02*
X78039347Y-59119268D01*
X78039347Y-59119268D02*
X78096490Y-59033554D01*
X78096490Y-59033554D02*
X78125061Y-58919268D01*
X78125061Y-58919268D02*
X78125061Y-58690697D01*
X78125061Y-58690697D02*
X78096490Y-58633554D01*
X78096490Y-58633554D02*
X78067919Y-58604982D01*
X78067919Y-58604982D02*
X78010776Y-58576411D01*
X78010776Y-58576411D02*
X77896490Y-58576411D01*
X77896490Y-58576411D02*
X77839347Y-58604982D01*
X77839347Y-58604982D02*
X77810776Y-58633554D01*
X77810776Y-58633554D02*
X77782204Y-58690697D01*
X77782204Y-58690697D02*
X77782204Y-58833554D01*
X77782204Y-58833554D02*
X77810776Y-58890697D01*
X77810776Y-58890697D02*
X77839347Y-58919268D01*
X77839347Y-58919268D02*
X77896490Y-58947840D01*
X77896490Y-58947840D02*
X78010776Y-58947840D01*
X78010776Y-58947840D02*
X78067919Y-58919268D01*
X78067919Y-58919268D02*
X78096490Y-58890697D01*
X78096490Y-58890697D02*
X78125061Y-58833554D01*
X89198840Y-68830571D02*
X89198840Y-68373429D01*
X89427411Y-68602000D02*
X88970268Y-68602000D01*
X89113125Y-68087714D02*
X89113125Y-67887714D01*
X89427411Y-67802000D02*
X89427411Y-68087714D01*
X89427411Y-68087714D02*
X88827411Y-68087714D01*
X88827411Y-68087714D02*
X88827411Y-67802000D01*
X88827411Y-67602000D02*
X89427411Y-67202000D01*
X88827411Y-67202000D02*
X89427411Y-67602000D01*
X88827411Y-67059143D02*
X88827411Y-66716286D01*
X89427411Y-66887714D02*
X88827411Y-66887714D01*
X89484554Y-66659143D02*
X89484554Y-66202000D01*
X89113125Y-65859142D02*
X89141697Y-65773428D01*
X89141697Y-65773428D02*
X89170268Y-65744857D01*
X89170268Y-65744857D02*
X89227411Y-65716285D01*
X89227411Y-65716285D02*
X89313125Y-65716285D01*
X89313125Y-65716285D02*
X89370268Y-65744857D01*
X89370268Y-65744857D02*
X89398840Y-65773428D01*
X89398840Y-65773428D02*
X89427411Y-65830571D01*
X89427411Y-65830571D02*
X89427411Y-66059142D01*
X89427411Y-66059142D02*
X88827411Y-66059142D01*
X88827411Y-66059142D02*
X88827411Y-65859142D01*
X88827411Y-65859142D02*
X88855982Y-65802000D01*
X88855982Y-65802000D02*
X88884554Y-65773428D01*
X88884554Y-65773428D02*
X88941697Y-65744857D01*
X88941697Y-65744857D02*
X88998840Y-65744857D01*
X88998840Y-65744857D02*
X89055982Y-65773428D01*
X89055982Y-65773428D02*
X89084554Y-65802000D01*
X89084554Y-65802000D02*
X89113125Y-65859142D01*
X89113125Y-65859142D02*
X89113125Y-66059142D01*
X89255982Y-65487714D02*
X89255982Y-65202000D01*
X89427411Y-65544857D02*
X88827411Y-65344857D01*
X88827411Y-65344857D02*
X89427411Y-65144857D01*
X88827411Y-65030571D02*
X88827411Y-64687714D01*
X89427411Y-64859142D02*
X88827411Y-64859142D01*
D11*
X81837699Y-78961517D02*
X81853966Y-79040167D01*
X82427497Y-80757999D02*
X82667783Y-80822663D01*
X82048338Y-80976833D02*
X82048338Y-80987638D01*
X82323775Y-81041724D02*
X82090404Y-80989418D01*
X82137387Y-81338707D02*
X82132462Y-81349361D01*
X82248321Y-81762862D02*
X82247706Y-81356276D01*
X82247499Y-82140513D02*
X82248321Y-81762862D01*
X82090404Y-80989418D02*
X82085217Y-80982633D01*
X77427220Y-83247943D02*
X77431215Y-83369623D01*
X77245045Y-83649359D02*
X77173273Y-83615958D01*
X77793473Y-84563894D02*
X77902369Y-84600231D01*
X77902369Y-84600231D02*
X78022821Y-84623765D01*
X80756205Y-84540512D02*
X80867580Y-84584476D01*
X78787866Y-84425467D02*
X78809006Y-84407982D01*
X78278454Y-84198954D02*
X78200342Y-84207739D01*
X76314395Y-84582000D02*
X76808220Y-84579670D01*
X77368589Y-83285491D02*
X77373178Y-83204933D01*
X82673018Y-80776019D02*
X82670063Y-80781009D01*
X82183269Y-82171069D02*
X82183265Y-82171070D01*
X82672964Y-80947106D02*
X82670084Y-81069064D01*
X77170050Y-84496734D02*
X77238795Y-84457296D01*
X78412803Y-84050401D02*
X78415016Y-84081834D01*
X82673019Y-80776018D02*
X82673018Y-80776019D01*
X81599458Y-81052994D02*
X81599458Y-81052994D01*
X77973135Y-84119499D02*
X77936814Y-84052481D01*
X79928589Y-84341139D02*
X79960387Y-84456384D01*
X77144882Y-82826389D02*
X77077245Y-82798956D01*
X77265928Y-82910595D02*
X77203704Y-82859835D01*
X78032162Y-84169481D02*
X77973135Y-84119499D01*
X76330490Y-82747940D02*
X75857409Y-82747130D01*
X78413992Y-84606373D02*
X78560273Y-84565142D01*
X77734752Y-83766031D02*
X77871230Y-83821525D01*
X77174426Y-83591104D02*
X77230483Y-83540877D01*
X79960387Y-84456384D02*
X79993489Y-84576815D01*
X77094095Y-84528056D02*
X77170050Y-84496734D01*
X77347650Y-83040547D02*
X77313657Y-82970430D01*
X78346392Y-83969526D02*
X78377674Y-83992910D01*
X77423294Y-83907673D02*
X77397637Y-83827960D01*
X78200342Y-84207739D02*
X78109397Y-84199778D01*
X77504357Y-83574459D02*
X77573386Y-83657281D01*
X77368664Y-83122149D02*
X77347650Y-83040547D01*
X78255847Y-83929450D02*
X78346392Y-83969526D01*
X77203704Y-82859835D02*
X77144882Y-82826389D01*
X77928431Y-84023635D02*
X77927124Y-84017296D01*
X78400083Y-84020314D02*
X78412803Y-84050401D01*
X75857409Y-83664565D02*
X75857409Y-84582000D01*
X77151140Y-83608391D02*
X77174426Y-83591104D01*
X77456947Y-83478518D02*
X77504357Y-83574459D01*
X77695042Y-84514302D02*
X77793473Y-84563894D01*
X77313657Y-82970430D02*
X77265928Y-82910595D01*
X76808220Y-84579670D02*
X76914164Y-84569298D01*
X77238795Y-84457296D02*
X77297640Y-84408029D01*
X79334189Y-84460985D02*
X79366284Y-84339969D01*
X78809006Y-84407982D02*
X78778799Y-84497297D01*
X79366284Y-84339969D02*
X79647436Y-84340554D01*
X82247706Y-81356276D02*
X82242382Y-81340573D01*
X78370419Y-84159854D02*
X78338623Y-84178783D01*
X82670084Y-81069064D02*
X82376415Y-81003951D01*
X78407976Y-84112190D02*
X78393324Y-84137926D01*
X77358571Y-83756630D02*
X77307259Y-83696673D01*
X75857409Y-82747130D02*
X75857409Y-83664565D01*
X80988723Y-84614400D02*
X81119838Y-84630348D01*
X77435477Y-83991136D02*
X77423294Y-83907673D01*
X78109397Y-84199778D02*
X78032162Y-84169481D01*
X77336467Y-83389050D02*
X77368589Y-83285491D01*
X77573386Y-83657281D02*
X77645385Y-83715303D01*
X80471923Y-84309384D02*
X80556122Y-84403011D01*
X77871230Y-83821525D02*
X78079335Y-83880138D01*
X82575666Y-80751068D02*
X82562647Y-80363558D01*
X78750275Y-84582002D02*
X79026185Y-84582002D01*
X81966939Y-80640388D02*
X81883697Y-80652129D01*
X82234400Y-82180055D02*
X82243290Y-82178396D01*
X81853966Y-79040167D02*
X81941054Y-79567872D01*
X81612004Y-80692379D02*
X81444526Y-80716665D01*
X81383612Y-80544112D02*
X81340716Y-80414577D01*
X82084137Y-80911429D02*
X82083357Y-80775232D01*
X82243290Y-82178396D02*
X82247499Y-82140513D01*
X82041631Y-80669316D02*
X82047596Y-80668061D01*
X78129640Y-84629795D02*
X78246686Y-84628295D01*
X82036885Y-80175491D02*
X82046066Y-80459498D01*
X77365294Y-84323662D02*
X77409718Y-84223588D01*
X82183265Y-82171070D02*
X82234400Y-82180055D01*
X82618208Y-80563915D02*
X82673019Y-80776018D01*
X82539359Y-80525340D02*
X82539359Y-80525340D01*
X81612003Y-80692380D02*
X81612004Y-80692379D01*
X82357754Y-80697954D02*
X82216204Y-80659462D01*
X81136511Y-80801950D02*
X82041631Y-80669316D01*
X82085627Y-80939088D02*
X82084137Y-80911429D01*
X82539359Y-80525340D02*
X82545700Y-80736334D01*
X82151828Y-81317754D02*
X82137387Y-81338707D01*
X82667783Y-80822663D02*
X82672969Y-80824898D01*
X81986491Y-80324157D02*
X82036885Y-80175491D01*
X81495784Y-81018556D02*
X81495787Y-81018559D01*
X82088098Y-80977184D02*
X82381396Y-81037869D01*
X82138232Y-80681130D02*
X82427497Y-80757999D01*
X82475301Y-80729485D02*
X82405578Y-80708541D01*
X82672551Y-81107256D02*
X82671396Y-81117652D01*
X81256463Y-80286157D02*
X81273782Y-80400895D01*
X79994794Y-84582001D02*
X80274796Y-84582001D01*
X81976844Y-79598822D02*
X81890140Y-79073952D01*
X81340716Y-80414577D02*
X81837699Y-78961517D01*
X82381396Y-81037869D02*
X82671814Y-81098491D01*
X81154239Y-80759675D02*
X81147631Y-80760019D01*
X80274796Y-84582001D02*
X80554797Y-84579991D01*
X82044303Y-80966975D02*
X82048338Y-80976833D01*
X81147631Y-80760019D02*
X81147756Y-80754444D01*
X81233344Y-80747826D02*
X81233344Y-80747826D01*
X82216204Y-80659462D02*
X82139384Y-80390521D01*
X80461308Y-84296716D02*
X80471923Y-84309384D01*
X82361789Y-80585285D02*
X82357754Y-80697954D01*
X82672549Y-81107256D02*
X82672551Y-81107256D01*
X80554797Y-84579991D02*
X80507730Y-84437673D01*
X79302095Y-84582002D02*
X79334189Y-84460985D01*
X82377039Y-80472347D02*
X82361789Y-80472347D01*
X81495787Y-81018559D02*
X81140256Y-81071624D01*
X81599458Y-81052994D02*
X81143088Y-81119488D01*
X80867580Y-84584476D02*
X80988723Y-84614400D01*
X81883697Y-80652129D02*
X81909159Y-80563967D01*
X82192831Y-81299300D02*
X82170223Y-81303802D01*
X82050646Y-80934715D02*
X81948654Y-80950103D01*
X82049121Y-80734227D02*
X82050646Y-80867554D01*
X82672969Y-80947107D02*
X82672964Y-80947106D01*
X79026185Y-84582002D02*
X79302095Y-84582002D01*
X82047596Y-80668061D02*
X82049121Y-80734227D01*
X82391005Y-80467432D02*
X82377039Y-80472347D01*
X82242382Y-81340573D02*
X82230215Y-81317677D01*
X82671814Y-81098491D02*
X82672549Y-81107256D01*
X82405578Y-80708541D02*
X82531155Y-80306819D01*
X82671396Y-81117652D02*
X82610735Y-81106019D01*
X81434524Y-80693040D02*
X81383612Y-80544112D01*
X82531155Y-80306819D02*
X82532345Y-80315806D01*
X81233344Y-80747826D02*
X81154239Y-80759675D01*
X81112287Y-84177920D02*
X81064298Y-84165767D01*
X82146605Y-79704396D02*
X81860531Y-78904871D01*
X82389499Y-80500026D02*
X82410243Y-80500026D01*
X81281605Y-84168697D02*
X81229237Y-84180309D01*
X82430987Y-80498021D02*
X82146605Y-79704396D01*
X80847291Y-83598965D02*
X80862972Y-83470291D01*
X82702986Y-82385109D02*
X82702985Y-82026285D01*
X82031067Y-83445044D02*
X82048392Y-83453616D01*
X81855852Y-78894259D02*
X81843182Y-78893435D01*
X81462862Y-83383772D02*
X81472181Y-83426099D01*
X82702789Y-82431871D02*
X82719762Y-82433156D01*
X82080300Y-82335882D02*
X82379078Y-82379062D01*
X81943193Y-84162009D02*
X81984986Y-84038570D01*
X81745140Y-84439144D02*
X81823151Y-84360176D01*
X82048392Y-84616576D02*
X82378090Y-84616576D01*
X80875826Y-83951059D02*
X80850815Y-83820235D01*
X81119838Y-84630348D02*
X81119862Y-84630350D01*
X82011399Y-83908974D02*
X82015219Y-83880739D01*
X76889554Y-84075888D02*
X76857932Y-84110722D01*
X81064298Y-84165767D02*
X81020116Y-84146958D01*
X82739924Y-82394226D02*
X82716239Y-82387679D01*
X76857932Y-84110722D02*
X76811911Y-84135322D01*
X81119862Y-84630350D02*
X81307371Y-84626016D01*
X81984986Y-84038570D02*
X82011399Y-83908974D01*
X80862972Y-83470291D02*
X80891327Y-83363444D01*
X76910571Y-83976048D02*
X76907384Y-84030356D01*
X80947567Y-84089762D02*
X80918872Y-84050847D01*
X81122319Y-82587794D02*
X81122919Y-82476709D01*
X81430258Y-84029137D02*
X81402565Y-84075543D01*
X82701450Y-81419895D02*
X82699915Y-81172329D01*
X82048392Y-83453616D02*
X82048392Y-84035096D01*
X80932588Y-83277778D02*
X80986988Y-83212649D01*
X82075605Y-84588917D02*
X82076395Y-83462997D01*
X81657716Y-84506395D02*
X81745140Y-84439144D01*
X82379078Y-82379062D02*
X82674743Y-82423436D01*
X81020116Y-84146958D02*
X80981260Y-84121711D01*
X82674743Y-82423436D02*
X82676133Y-82889038D01*
X81168008Y-84182634D02*
X81112287Y-84177920D01*
X80986988Y-83212649D02*
X81036664Y-83177568D01*
X82740869Y-82431861D02*
X82750535Y-82420797D01*
X81969372Y-83247133D02*
X81927354Y-83136471D01*
X82702985Y-82026285D02*
X82701450Y-81419895D01*
X81466518Y-83915496D02*
X81451629Y-83975678D01*
X81122919Y-82476709D02*
X81238164Y-82459949D01*
X82011219Y-83436471D02*
X82031067Y-83445044D01*
X82707789Y-84616576D02*
X82706539Y-84085871D01*
X81229237Y-84180309D02*
X81168008Y-84182634D01*
X82048335Y-82880636D02*
X82046605Y-83421016D01*
X81578971Y-84550052D02*
X81657716Y-84506395D01*
X80918872Y-84050847D02*
X80875826Y-83951059D01*
X81211043Y-83150594D02*
X81299560Y-83174816D01*
X82015219Y-83880739D02*
X82016534Y-83872095D01*
X82041999Y-82342533D02*
X82048338Y-82341253D01*
X81451629Y-83975678D02*
X81430258Y-84029137D01*
X76811911Y-84135322D02*
X76750888Y-84150152D01*
X82679652Y-84588917D02*
X82377628Y-84588917D01*
X81536967Y-82767040D02*
X81424072Y-82731309D01*
X81327350Y-84147036D02*
X81281605Y-84168697D01*
X81745549Y-83872095D02*
X81474564Y-83872095D01*
X81889584Y-84266500D02*
X81943193Y-84162009D01*
X82701106Y-81072839D02*
X82698741Y-80952813D01*
X82676133Y-82889038D02*
X82678588Y-83971778D01*
X81426781Y-83292619D02*
X81462862Y-83383772D01*
X76902998Y-83923588D02*
X76910571Y-83976048D01*
X81150351Y-83148985D02*
X81211043Y-83150594D01*
X81403853Y-84609844D02*
X81494368Y-84584529D01*
X82076395Y-83462997D02*
X82080300Y-82335882D01*
X76907384Y-84030356D02*
X76889554Y-84075888D01*
X82377628Y-84588917D02*
X82075605Y-84588917D01*
X81806727Y-82951332D02*
X81728472Y-82877248D01*
X81473559Y-83877281D02*
X81466518Y-83915496D01*
X82048392Y-84035096D02*
X82048392Y-84616576D01*
X82016534Y-83872095D02*
X81745549Y-83872095D01*
X80850815Y-83820235D02*
X80847291Y-83598965D01*
X81494368Y-84584529D02*
X81578971Y-84550052D01*
X82678588Y-83971778D02*
X82679652Y-84588917D01*
X82764472Y-81113364D02*
X82771078Y-81105041D01*
X81096470Y-83154879D02*
X81150351Y-83148985D01*
X82706423Y-81104853D02*
X82764472Y-81113364D01*
X81368712Y-84114567D02*
X81327350Y-84147036D01*
X81371910Y-83222563D02*
X81426781Y-83292619D01*
X81823151Y-84360176D02*
X81889584Y-84266500D01*
X82701284Y-81104980D02*
X82706423Y-81104853D01*
X82769142Y-81093933D02*
X82734102Y-81081445D01*
X81472181Y-83426099D02*
X81475791Y-83447419D01*
X80981260Y-84121711D02*
X80947567Y-84089762D01*
X81307371Y-84626016D02*
X81403853Y-84609844D01*
X81299560Y-83174816D02*
X81371910Y-83222563D01*
X81474564Y-83872095D02*
X81473559Y-83877281D01*
X81036664Y-83177568D02*
X81096470Y-83154879D01*
X81402565Y-84075543D02*
X81368712Y-84114567D01*
X82771078Y-81105041D02*
X82769142Y-81093933D01*
X81798305Y-81259216D02*
X81772330Y-81266461D01*
X80891327Y-83363444D02*
X80932588Y-83277778D01*
X81728447Y-81769075D02*
X81730202Y-82147769D01*
X81520515Y-82221975D02*
X81526173Y-82227633D01*
X81882383Y-81170080D02*
X81562010Y-81210818D01*
X81737909Y-81305428D02*
X81730082Y-81336449D01*
X81533296Y-81325930D02*
X81525620Y-81342654D01*
X76791737Y-83830107D02*
X76833560Y-83845557D01*
X79561641Y-83626110D02*
X79649594Y-83304577D01*
X81479024Y-81370751D02*
X81471766Y-81357132D01*
X76800043Y-83436134D02*
X76759506Y-83461471D01*
X81752095Y-81281982D02*
X81737909Y-81305428D01*
X81686465Y-81351666D02*
X81679737Y-81337446D01*
X81615925Y-81290333D02*
X81567908Y-81295023D01*
X81686466Y-81777496D02*
X81686465Y-81351666D01*
X81891234Y-81178447D02*
X81882383Y-81170080D01*
X81335984Y-82266468D02*
X81406013Y-82256446D01*
X81826600Y-81260674D02*
X81798305Y-81259216D01*
X81240139Y-81575046D02*
X81241624Y-82082391D01*
X81345676Y-81327284D02*
X81326184Y-81351102D01*
X81316035Y-82256294D02*
X81324506Y-82264792D01*
X81256947Y-82290756D02*
X81268364Y-82289148D01*
X81406013Y-82256446D02*
X81474584Y-82243510D01*
X81526173Y-82227633D02*
X81526172Y-82227633D01*
X81730202Y-82147769D02*
X81733626Y-82188704D01*
X76700551Y-83177209D02*
X76757321Y-83186490D01*
X76708068Y-83476498D02*
X76708068Y-83476496D01*
X81533867Y-82233290D02*
X81672121Y-82213594D01*
X81340733Y-82404937D02*
X81340733Y-82404936D01*
X81479024Y-81805121D02*
X81479024Y-81370751D01*
X81733626Y-82188704D02*
X81740553Y-82194125D01*
X81562010Y-81210818D02*
X81243024Y-81258772D01*
X76422135Y-84155990D02*
X76422135Y-83985229D01*
X81654631Y-81306352D02*
X81615925Y-81290333D01*
X81243024Y-81258772D02*
X81240139Y-81575046D01*
X76708068Y-83476496D02*
X76554216Y-83480221D01*
X81548394Y-81307428D02*
X81533296Y-81325930D01*
X81567908Y-81295023D02*
X81548394Y-81307428D01*
X79474439Y-83954490D02*
X79561641Y-83626110D01*
X82048339Y-82299329D02*
X81984378Y-82309091D01*
X76554216Y-83480221D02*
X76422091Y-83480221D01*
X81268364Y-82289148D02*
X81272871Y-82278270D01*
X81238164Y-82459949D02*
X82041999Y-82342533D01*
X81324506Y-82264792D02*
X81324505Y-82264793D01*
X82048339Y-81667094D02*
X82048339Y-82299329D01*
X81772330Y-81266461D02*
X81752095Y-81281982D01*
X81672121Y-82213594D02*
X81681917Y-82207878D01*
X81340733Y-82404936D02*
X81135212Y-82435174D01*
X81891749Y-81191323D02*
X81891234Y-81178447D01*
X81326184Y-81351102D02*
X81315190Y-81385087D01*
X81679737Y-81337446D02*
X81654631Y-81306352D01*
X81273132Y-81284383D02*
X81282157Y-81282968D01*
X81324505Y-82264793D02*
X81335984Y-82266468D01*
X81474584Y-82243510D02*
X81479024Y-81805121D01*
X81525620Y-81342654D02*
X81521858Y-81392179D01*
X81526172Y-82227633D02*
X81533867Y-82233290D01*
X81246399Y-82284840D02*
X81246404Y-82284838D01*
X76814231Y-83217577D02*
X76840413Y-83259196D01*
X76735611Y-83820606D02*
X76791737Y-83830107D01*
X76422135Y-83814468D02*
X76532194Y-83814480D01*
X81246404Y-82284838D02*
X81256947Y-82290756D01*
X81681917Y-82207878D02*
X81686466Y-81777496D01*
X81521858Y-81392179D02*
X81520515Y-81792491D01*
X81135212Y-82435174D02*
X81129063Y-82436404D01*
X82042000Y-81036024D02*
X82048339Y-81034859D01*
X81730082Y-81336449D02*
X81728447Y-81769075D01*
X76840413Y-83259196D02*
X76848656Y-83317900D01*
X81927354Y-83136471D02*
X81873080Y-83037805D01*
X76913055Y-82761297D02*
X76780003Y-82750106D01*
X78079335Y-83880138D02*
X78255847Y-83929450D01*
X77173273Y-83615958D02*
X77151140Y-83608391D01*
X78314433Y-83424930D02*
X78148480Y-83378442D01*
X77470006Y-83054309D02*
X77440773Y-83146377D01*
X77440773Y-83146377D02*
X77427220Y-83247943D01*
X81071464Y-81165445D02*
X81093988Y-81174267D01*
X81079871Y-82447034D02*
X81074919Y-82465497D01*
X81831336Y-78894665D02*
X81578685Y-79631665D01*
X82745335Y-80805348D02*
X82721417Y-80794267D01*
X82390834Y-80667132D02*
X82389699Y-80584732D01*
X82701833Y-81125379D02*
X82701118Y-81114360D01*
X81475791Y-83447419D02*
X81476866Y-83452605D01*
X82556603Y-80226228D02*
X82530547Y-80222278D01*
X80284248Y-83770021D02*
X80112136Y-83258956D01*
X81052777Y-81115683D02*
X81100483Y-81109604D01*
X81108011Y-80806757D02*
X81107416Y-80942084D01*
X81476866Y-83452605D02*
X81744295Y-83452605D01*
X81094191Y-82480525D02*
X81093591Y-82590292D01*
X82699915Y-81172329D02*
X82707788Y-81174084D01*
X81744295Y-83452605D02*
X82011724Y-83452605D01*
X82627640Y-80492000D02*
X82556603Y-80226228D01*
X82700646Y-80834237D02*
X82717377Y-80837842D01*
X82698825Y-80771955D02*
X82627640Y-80492000D01*
X82378090Y-84616576D02*
X82707789Y-84616576D01*
X82698741Y-80952813D02*
X82700646Y-80834237D01*
X81039134Y-81107129D02*
X81052777Y-81115683D01*
X82701118Y-81114360D02*
X82701284Y-81104980D01*
X82719762Y-82433156D02*
X82740869Y-82431861D01*
X80459011Y-83046066D02*
X80397469Y-83147808D01*
X82706539Y-84085871D02*
X82704039Y-82993521D01*
X81093988Y-81174267D02*
X81097248Y-81702562D01*
X82011724Y-83452605D02*
X82010208Y-83444538D01*
X78938949Y-83862284D02*
X78920890Y-83805478D01*
X81106821Y-81077412D02*
X81079162Y-81081432D01*
X82530547Y-80222278D02*
X82460807Y-80443893D01*
X82734102Y-81081445D02*
X82701106Y-81072839D01*
X82721417Y-80794267D02*
X82699525Y-80786808D01*
X82740464Y-81175634D02*
X82752564Y-81159804D01*
X81105614Y-81124052D02*
X81086792Y-81128043D01*
X81843182Y-78893435D02*
X81831336Y-78894665D01*
X82410243Y-80500026D02*
X82430987Y-80498021D01*
X82010208Y-83444538D02*
X82011219Y-83436471D01*
X81067189Y-81152875D02*
X81071464Y-81165445D01*
X81072457Y-80803547D02*
X81093220Y-80808137D01*
X82704039Y-82993521D02*
X82702789Y-82431871D01*
X81096291Y-80767840D02*
X81071707Y-80775800D01*
X81094998Y-82336392D02*
X81088689Y-82442114D01*
X82746782Y-81141945D02*
X82722135Y-81131695D01*
X82749765Y-82404317D02*
X82739924Y-82394226D01*
X81578685Y-79631665D02*
X81324705Y-80368655D01*
X76914164Y-84569298D02*
X77009128Y-84552168D01*
X77077245Y-82798956D02*
X77000175Y-82777329D01*
X81086792Y-81128043D02*
X81071734Y-81136817D01*
X82460807Y-80443893D02*
X82390834Y-80667132D01*
X77975207Y-83268896D02*
X77967545Y-83226743D01*
X77936814Y-84052481D02*
X77928431Y-84023635D01*
X77009128Y-84552168D02*
X77094095Y-84528056D01*
X82389699Y-80584732D02*
X82389499Y-80500026D01*
X78295770Y-82704133D02*
X78169409Y-82699824D01*
X77645385Y-83715303D02*
X77734752Y-83766031D01*
X77000175Y-82777329D02*
X76913055Y-82761297D01*
X82716239Y-82387679D02*
X82702986Y-82385109D01*
X80347804Y-83262961D02*
X80311173Y-83388300D01*
X81046271Y-81087742D02*
X81038866Y-81095911D01*
X82737969Y-80838677D02*
X82747927Y-80830912D01*
X81860531Y-78904871D02*
X81855852Y-78894259D01*
X80112136Y-83258956D02*
X79940541Y-82747376D01*
X82048338Y-82341253D02*
X82048338Y-82880648D01*
X76422135Y-83985229D02*
X76422135Y-83814468D01*
X76789780Y-83198934D02*
X76814231Y-83217577D01*
X76750888Y-84150152D02*
X76750888Y-84150149D01*
X76877356Y-83877601D02*
X76902998Y-83923588D01*
X81130028Y-82017347D02*
X81133933Y-81169322D01*
X81289910Y-82707530D02*
X81151128Y-82698879D01*
X81241624Y-82082391D02*
X81246399Y-82284840D01*
X76422091Y-83326678D02*
X76422091Y-83173135D01*
X81121719Y-82698879D02*
X81122319Y-82587794D01*
X82048339Y-81034859D02*
X82048339Y-81667094D01*
X79649594Y-83304577D02*
X79740833Y-83632956D01*
X81315190Y-81385087D02*
X81313120Y-81824171D01*
X82088172Y-82295022D02*
X82086462Y-81664727D01*
X82306490Y-81381630D02*
X82306489Y-81781749D01*
X81471766Y-81357132D02*
X81445309Y-81327714D01*
X82026782Y-83413200D02*
X82006859Y-83403707D01*
X82577008Y-82194086D02*
X82578449Y-81832301D01*
X81151128Y-82698879D02*
X81121719Y-82698879D01*
X82550198Y-81378655D02*
X82525610Y-81372508D01*
X76573682Y-84154955D02*
X76422135Y-84155990D01*
X81282157Y-81282968D02*
X81583903Y-81242180D01*
X81274657Y-81780903D02*
X81273132Y-81284383D01*
X76422091Y-83173135D02*
X76560961Y-83174360D01*
X81638492Y-82815752D02*
X81536967Y-82767040D01*
X76846316Y-83356356D02*
X76829154Y-83400944D01*
X82006859Y-83403707D02*
X81998957Y-83369594D01*
X82674574Y-81774309D02*
X82674567Y-81774305D01*
X82046605Y-83421016D02*
X82026782Y-83413200D01*
X76833560Y-83845557D02*
X76877356Y-83877601D01*
X81998957Y-83369594D02*
X81969372Y-83247133D01*
X81275029Y-82221709D02*
X81274657Y-81780903D01*
X81984378Y-82309091D02*
X81340733Y-82404937D01*
X76759506Y-83461471D02*
X76708068Y-83476498D01*
X82624278Y-81774224D02*
X82627883Y-82248457D01*
X76848656Y-83317900D02*
X76846316Y-83356356D01*
X81424072Y-82731309D02*
X81289910Y-82707530D01*
X81873080Y-83037805D02*
X81806727Y-82951332D01*
X76750888Y-84150149D02*
X76573682Y-84154955D01*
X79830318Y-83957370D02*
X79651877Y-83957370D01*
X81372631Y-81314450D02*
X81345676Y-81327284D01*
X82648477Y-82247421D02*
X82653821Y-81768508D01*
X82572414Y-82229583D02*
X82577008Y-82194086D01*
X81520515Y-81792491D02*
X81520515Y-82221975D01*
X81740556Y-82194126D02*
X81751008Y-82194951D01*
X76829154Y-83400944D02*
X76800043Y-83436134D01*
X82388023Y-81255189D02*
X82625143Y-81303263D01*
X76422091Y-83480221D02*
X76422091Y-83326678D01*
X82151494Y-81178977D02*
X82141551Y-81195668D01*
X82416601Y-81789574D02*
X82411360Y-81368106D01*
X81751008Y-82194951D02*
X81821271Y-82184791D01*
X82085557Y-81033652D02*
X82572639Y-81141871D01*
X76532194Y-83814480D02*
X76735611Y-83820606D01*
X82048338Y-82880648D02*
X82048335Y-82880636D01*
X81821271Y-82184791D02*
X81890418Y-82170966D01*
X81718738Y-81083250D02*
X82042000Y-81036024D01*
X81133933Y-81169322D02*
X81718738Y-81083250D01*
X79651877Y-83957370D02*
X79474439Y-83954490D01*
X81406017Y-81313414D02*
X81372631Y-81314450D01*
X76757321Y-83186490D02*
X76789780Y-83198934D01*
X81129063Y-82436404D02*
X81130028Y-82017347D01*
X81272871Y-82278270D02*
X81275029Y-82221709D01*
X82326647Y-81347774D02*
X82313123Y-81367800D01*
X81728472Y-82877248D02*
X81638492Y-82815752D01*
X76560961Y-83174360D02*
X76700551Y-83177209D01*
X81895063Y-81742859D02*
X81895063Y-81319397D01*
X79740833Y-83632956D02*
X79830318Y-83957370D01*
X81882767Y-81200400D02*
X81891749Y-81191323D01*
X82519585Y-82223032D02*
X82562778Y-82230732D01*
X81313120Y-81824171D02*
X81316035Y-82256294D01*
X81445309Y-81327714D02*
X81406017Y-81313414D01*
X81583903Y-81242180D02*
X81882767Y-81200400D01*
X77281063Y-83484253D02*
X77336467Y-83389050D01*
X82576079Y-81428880D02*
X82566263Y-81398589D01*
X78140413Y-83122080D02*
X78218756Y-83128076D01*
X78368920Y-83261874D02*
X78372994Y-83279737D01*
X77996771Y-83157052D02*
X78030953Y-83137543D01*
X78920890Y-83805478D02*
X78895579Y-83752391D01*
X78803690Y-82984710D02*
X78758729Y-82925098D01*
X78338623Y-84178783D02*
X78278454Y-84198954D01*
X81071734Y-81136817D02*
X81067189Y-81152875D01*
X78393324Y-84137926D02*
X78370419Y-84159854D01*
X76780003Y-82750106D02*
X76330490Y-82747940D01*
X82647723Y-81279123D02*
X82151494Y-81178977D01*
X82562778Y-82230732D02*
X82572414Y-82229583D01*
X77967545Y-83226743D02*
X77975059Y-83184871D01*
X82477969Y-82213418D02*
X82519582Y-82223033D01*
X78956155Y-83968562D02*
X78949754Y-83922805D01*
X82313123Y-81367800D02*
X82306490Y-81381630D01*
X78078526Y-83126000D02*
X78140413Y-83122080D01*
X77664388Y-82826148D02*
X77575696Y-82898241D01*
X78640109Y-83279737D02*
X78907225Y-83279737D01*
X77975059Y-83184871D02*
X77996771Y-83157052D01*
X78907225Y-83279737D02*
X78905685Y-83267637D01*
X78218756Y-83128076D02*
X78282165Y-83150081D01*
X77373178Y-83204933D02*
X77368664Y-83122149D01*
X75857409Y-84582000D02*
X76314395Y-84582000D01*
X82672762Y-82382895D02*
X82404438Y-82342702D01*
X78082807Y-83354104D02*
X78032994Y-83328340D01*
X78323946Y-83180533D02*
X78354338Y-83222115D01*
X78706322Y-82871675D02*
X78647065Y-82824973D01*
X77896387Y-82729417D02*
X77771017Y-82769985D01*
X78890125Y-83189342D02*
X78866440Y-83109928D01*
X77436971Y-84017296D02*
X77435477Y-83991136D01*
X78169409Y-82699824D02*
X78041304Y-82704110D01*
X78415016Y-84081834D02*
X78407976Y-84112190D01*
X78451788Y-82734370D02*
X78295770Y-82704133D01*
X77431215Y-83369623D02*
X77456947Y-83478518D01*
X77230483Y-83540877D02*
X77281063Y-83484253D01*
X78030953Y-83137543D02*
X78078526Y-83126000D01*
X77682047Y-84017296D02*
X77436971Y-84017296D01*
X78148480Y-83378442D02*
X78082807Y-83354104D01*
X80288733Y-83520601D02*
X80282328Y-83717656D01*
X78522301Y-83485483D02*
X78314433Y-83424930D01*
X78041304Y-82704110D02*
X77896387Y-82729417D01*
X78282165Y-83150081D02*
X78323946Y-83180533D01*
X77307259Y-83696673D02*
X77245045Y-83649359D01*
X78581551Y-82785525D02*
X78451788Y-82734370D01*
X78905685Y-83267637D02*
X78890125Y-83189342D01*
X78354338Y-83222115D02*
X78368920Y-83261874D01*
X78647065Y-82824973D02*
X78581551Y-82785525D01*
X78949754Y-83922805D02*
X78938949Y-83862284D01*
X77771017Y-82769985D02*
X77664388Y-82826148D01*
X77997606Y-83300240D02*
X77975207Y-83268896D01*
X77397637Y-83827960D02*
X77358571Y-83756630D01*
X80615452Y-82878187D02*
X80534437Y-82954657D01*
X77575696Y-82898241D02*
X77514965Y-82971633D01*
X78372994Y-83279737D02*
X78640109Y-83279737D01*
X78377674Y-83992910D02*
X78400083Y-84020314D01*
X78866440Y-83109928D02*
X78803690Y-82984710D01*
X81093591Y-82590292D02*
X81092991Y-82700058D01*
X77927124Y-84017296D02*
X77682047Y-84017296D01*
X78032994Y-83328340D02*
X77997606Y-83300240D01*
X78758729Y-82925098D02*
X78706322Y-82871675D01*
X77514965Y-82971633D02*
X77470006Y-83054309D01*
X78660300Y-83542813D02*
X78522301Y-83485483D01*
X81071707Y-80775800D02*
X81066381Y-80789519D01*
X80397469Y-83147808D02*
X80347804Y-83262961D01*
X78863016Y-83703024D02*
X78823206Y-83657381D01*
X79161581Y-83357527D02*
X78956155Y-83968562D01*
X80955592Y-82717877D02*
X80834258Y-82753434D01*
X81093220Y-80808137D02*
X81108011Y-80806757D01*
X81083772Y-82700618D02*
X80955592Y-82717877D01*
X81087354Y-82479160D02*
X81094191Y-82480525D01*
X82470392Y-82206237D02*
X82477969Y-82213418D01*
X81066381Y-80789519D02*
X81072457Y-80803547D01*
X78776148Y-83615463D02*
X78660300Y-83542813D01*
X82050646Y-80867554D02*
X82050646Y-80934715D01*
X82306489Y-81781749D02*
X82310519Y-82185474D01*
X82170223Y-81303802D02*
X82151828Y-81317754D01*
X82674567Y-81774305D02*
X82672762Y-82382895D01*
X81135597Y-81112259D02*
X81137617Y-81103890D01*
X82359498Y-82198277D02*
X82359498Y-82198253D01*
X81143088Y-81119488D02*
X81136608Y-81119341D01*
X82086462Y-81664727D02*
X82085557Y-81033652D01*
X82572639Y-81141871D02*
X82672404Y-81164794D01*
X81642674Y-81027877D02*
X82044303Y-80966975D01*
X82146928Y-81203601D02*
X82388023Y-81255189D01*
X81140256Y-81071624D02*
X81135601Y-80936787D01*
X81107416Y-80942084D02*
X81106821Y-81077412D01*
X80282328Y-83717656D02*
X80284248Y-83770021D01*
X81260673Y-80209140D02*
X81246494Y-80208890D01*
X81740553Y-82194125D02*
X81740556Y-82194126D01*
X78823206Y-83657381D02*
X78776148Y-83615463D01*
X80534437Y-82954657D02*
X80459011Y-83046066D01*
X81088689Y-82442114D02*
X81079871Y-82447034D01*
X81192358Y-81095861D02*
X81642674Y-81027877D01*
X81136608Y-81119341D02*
X81135597Y-81112259D01*
X82503391Y-81376388D02*
X82474127Y-81410415D01*
X81948654Y-80950103D02*
X81495784Y-81018556D01*
X82653721Y-81287701D02*
X82647723Y-81279123D01*
X82404438Y-82342702D02*
X82113774Y-82298872D01*
X81079162Y-81081432D02*
X81046271Y-81087742D01*
X80311173Y-83388300D02*
X80288733Y-83520601D01*
X82417231Y-82199847D02*
X82416601Y-81789574D01*
X80720601Y-82806976D02*
X80615452Y-82878187D01*
X81272018Y-80210794D02*
X81260673Y-80209140D01*
X82610735Y-81106019D02*
X82323775Y-81041724D01*
X82625143Y-81303263D02*
X82624278Y-81774224D01*
X82376415Y-81003951D02*
X82085627Y-80939088D01*
X81890040Y-81308525D02*
X81874726Y-81286542D01*
X82384736Y-81335449D02*
X82343867Y-81335649D01*
X82343867Y-81335649D02*
X82326647Y-81347774D01*
X82578449Y-81832301D02*
X82576079Y-81428880D01*
X81890418Y-82170966D02*
X81895063Y-81742859D01*
X82084066Y-80666693D02*
X82138232Y-80681130D01*
X81137617Y-81103890D02*
X81192358Y-81095861D01*
X82412311Y-82203882D02*
X82417231Y-82199847D01*
X82310519Y-82185474D02*
X82359498Y-82198277D01*
X82627883Y-82248457D02*
X82627870Y-82248456D01*
X82525610Y-81372508D02*
X82503391Y-81376388D01*
X82135417Y-82157176D02*
X82183269Y-82171069D01*
X82627870Y-82248456D02*
X82648477Y-82247421D01*
X82131862Y-81750703D02*
X82135417Y-82157176D01*
X81874726Y-81286542D02*
X81852827Y-81270187D01*
X81106943Y-81109586D02*
X81107974Y-81116307D01*
X81038866Y-81095911D02*
X81039134Y-81107129D01*
X82468982Y-81423118D02*
X82468372Y-81811494D01*
X81181469Y-80486464D02*
X81116512Y-80764240D01*
X82566263Y-81398589D02*
X82550198Y-81378655D01*
X82653821Y-81768508D02*
X82653721Y-81287701D01*
X82519582Y-82223033D02*
X82519585Y-82223032D01*
X82113774Y-82298872D02*
X82088172Y-82295022D01*
X81135601Y-80936787D02*
X81136511Y-80801950D01*
X81116512Y-80764240D02*
X81096291Y-80767840D01*
X80834258Y-82753434D02*
X80720601Y-82806976D01*
X81246494Y-80208890D02*
X81181469Y-80486464D01*
X82474127Y-81410415D02*
X82468982Y-81423118D01*
X82672969Y-80824898D02*
X82672969Y-80947107D01*
X81895063Y-81319397D02*
X81890040Y-81308525D01*
X82545025Y-80747975D02*
X82475301Y-80729485D01*
X82048338Y-80987638D02*
X81599458Y-81052994D01*
X77297640Y-84408029D02*
X77365294Y-84323662D01*
X82085217Y-80982633D02*
X82088098Y-80977184D01*
X82622236Y-80768736D02*
X82575666Y-80751068D01*
X77429404Y-84211622D02*
X77461256Y-84277372D01*
X81273782Y-80400895D02*
X81305774Y-80736239D01*
X77605985Y-84451002D02*
X77695042Y-84514302D01*
X81966939Y-80640388D02*
X81966939Y-80640388D01*
X80556122Y-84403011D02*
X80654398Y-84482445D01*
X80654398Y-84482445D02*
X80756205Y-84540512D01*
X77551204Y-84399309D02*
X77605985Y-84451002D01*
X82029544Y-80107422D02*
X81941269Y-80381017D01*
X79993489Y-84576815D02*
X79994794Y-84582001D01*
X77409718Y-84223588D02*
X77419287Y-84192550D01*
X78560273Y-84565142D02*
X78685056Y-84504781D01*
X77502408Y-84340683D02*
X77551204Y-84399309D01*
X81890140Y-79073952D02*
X82391005Y-80467432D01*
X81909159Y-80563967D02*
X81986491Y-80324157D01*
X81852827Y-81270187D02*
X81826600Y-81260674D01*
X82672404Y-81164794D02*
X82674574Y-81774309D01*
X82545700Y-80736334D02*
X82545025Y-80747975D01*
X82141551Y-81195668D02*
X82146928Y-81203601D01*
X81941054Y-79567872D02*
X82029544Y-80107422D01*
X82213306Y-81302752D02*
X82192831Y-81299300D01*
X78778799Y-84497297D02*
X78750275Y-84582002D01*
X82230215Y-81317677D02*
X82213306Y-81302752D01*
X82083357Y-80775232D02*
X82084066Y-80666693D01*
X82411360Y-81368106D02*
X82384736Y-81335449D01*
X81941269Y-80381017D02*
X81851540Y-80656067D01*
X82562647Y-80363558D02*
X82618208Y-80563915D01*
X81147756Y-80754444D02*
X81256463Y-80286157D01*
X82046066Y-80459498D02*
X82047726Y-80628115D01*
X82132462Y-81349361D02*
X82131862Y-81750703D01*
X77419287Y-84192550D02*
X77429404Y-84211622D01*
X82468372Y-81811494D02*
X82470392Y-82206237D01*
X82670063Y-80781009D02*
X82622236Y-80768736D01*
X82064091Y-80123152D02*
X81976844Y-79598822D01*
X82405917Y-82207682D02*
X82412311Y-82203882D01*
X82359498Y-82198253D02*
X82405917Y-82207682D01*
X78022821Y-84623765D02*
X78129640Y-84629795D01*
X82139384Y-80390521D02*
X82064091Y-80123152D01*
X81813790Y-80662808D02*
X81612003Y-80692380D01*
X82361789Y-80585287D02*
X82361789Y-80585285D01*
X81444526Y-80716665D02*
X81434524Y-80693040D01*
X80507730Y-84437673D02*
X80461308Y-84296716D01*
X82361789Y-80472347D02*
X82361789Y-80585287D01*
X77461256Y-84277372D02*
X77502408Y-84340683D01*
X79647436Y-84340554D02*
X79928589Y-84341139D01*
X82532345Y-80315806D02*
X82539359Y-80525340D01*
X78685056Y-84504781D02*
X78787866Y-84425467D01*
X81305774Y-80736239D02*
X81233344Y-80747826D01*
X78246686Y-84628295D02*
X78413992Y-84606373D01*
X82047726Y-80628115D02*
X81966939Y-80640388D01*
X81851540Y-80656067D02*
X81813790Y-80662808D01*
X81324705Y-80368655D02*
X81273907Y-80216169D01*
X81273907Y-80216169D02*
X81272018Y-80210794D01*
X81092991Y-82700058D02*
X81083772Y-82700618D01*
X82750535Y-82420797D02*
X82749765Y-82404317D01*
X79653443Y-82747341D02*
X79366345Y-82747307D01*
X82747927Y-80830912D02*
X82751385Y-80818999D01*
X82751385Y-80818999D02*
X82745335Y-80805348D01*
X81100483Y-81109604D02*
X81106943Y-81109586D01*
X82699525Y-80786808D02*
X82698825Y-80771955D01*
X81074919Y-82465497D02*
X81087354Y-82479160D01*
X82717377Y-80837842D02*
X82737969Y-80838677D01*
X81107974Y-81116307D02*
X81105614Y-81124052D01*
X82707788Y-81174084D02*
X82740464Y-81175634D01*
X82752564Y-81159804D02*
X82746782Y-81141945D01*
X79366345Y-82747307D02*
X79161581Y-83357527D01*
X79940541Y-82747376D02*
X79653443Y-82747341D01*
X78895579Y-83752391D02*
X78863016Y-83703024D01*
X81097248Y-81702562D02*
X81094998Y-82336392D01*
X82722135Y-81131695D02*
X82701833Y-81125379D01*
D10*
X83578000Y-80923506D02*
X83811334Y-80923506D01*
X83911334Y-81290173D02*
X83578000Y-81290173D01*
X83578000Y-81290173D02*
X83578000Y-80590173D01*
X83578000Y-80590173D02*
X83911334Y-80590173D01*
X84144667Y-80590173D02*
X84611333Y-81290173D01*
X84611333Y-80590173D02*
X84144667Y-81290173D01*
X84778000Y-80590173D02*
X85178000Y-80590173D01*
X84978000Y-81290173D02*
X84978000Y-80590173D01*
X83811334Y-82050506D02*
X83911334Y-82083840D01*
X83911334Y-82083840D02*
X83944667Y-82117173D01*
X83944667Y-82117173D02*
X83978000Y-82183840D01*
X83978000Y-82183840D02*
X83978000Y-82283840D01*
X83978000Y-82283840D02*
X83944667Y-82350506D01*
X83944667Y-82350506D02*
X83911334Y-82383840D01*
X83911334Y-82383840D02*
X83844667Y-82417173D01*
X83844667Y-82417173D02*
X83578000Y-82417173D01*
X83578000Y-82417173D02*
X83578000Y-81717173D01*
X83578000Y-81717173D02*
X83811334Y-81717173D01*
X83811334Y-81717173D02*
X83878000Y-81750506D01*
X83878000Y-81750506D02*
X83911334Y-81783840D01*
X83911334Y-81783840D02*
X83944667Y-81850506D01*
X83944667Y-81850506D02*
X83944667Y-81917173D01*
X83944667Y-81917173D02*
X83911334Y-81983840D01*
X83911334Y-81983840D02*
X83878000Y-82017173D01*
X83878000Y-82017173D02*
X83811334Y-82050506D01*
X83811334Y-82050506D02*
X83578000Y-82050506D01*
X84244667Y-82217173D02*
X84578000Y-82217173D01*
X84178000Y-82417173D02*
X84411334Y-81717173D01*
X84411334Y-81717173D02*
X84644667Y-82417173D01*
X84778000Y-81717173D02*
X85178000Y-81717173D01*
X84978000Y-82417173D02*
X84978000Y-81717173D01*
D12*
X97702857Y-57589009D02*
X97845714Y-57636628D01*
X97845714Y-57636628D02*
X97893333Y-57684247D01*
X97893333Y-57684247D02*
X97940952Y-57779485D01*
X97940952Y-57779485D02*
X97940952Y-57922342D01*
X97940952Y-57922342D02*
X97893333Y-58017580D01*
X97893333Y-58017580D02*
X97845714Y-58065200D01*
X97845714Y-58065200D02*
X97750476Y-58112819D01*
X97750476Y-58112819D02*
X97369524Y-58112819D01*
X97369524Y-58112819D02*
X97369524Y-57112819D01*
X97369524Y-57112819D02*
X97702857Y-57112819D01*
X97702857Y-57112819D02*
X97798095Y-57160438D01*
X97798095Y-57160438D02*
X97845714Y-57208057D01*
X97845714Y-57208057D02*
X97893333Y-57303295D01*
X97893333Y-57303295D02*
X97893333Y-57398533D01*
X97893333Y-57398533D02*
X97845714Y-57493771D01*
X97845714Y-57493771D02*
X97798095Y-57541390D01*
X97798095Y-57541390D02*
X97702857Y-57589009D01*
X97702857Y-57589009D02*
X97369524Y-57589009D01*
X98560000Y-57112819D02*
X98750476Y-57112819D01*
X98750476Y-57112819D02*
X98845714Y-57160438D01*
X98845714Y-57160438D02*
X98940952Y-57255676D01*
X98940952Y-57255676D02*
X98988571Y-57446152D01*
X98988571Y-57446152D02*
X98988571Y-57779485D01*
X98988571Y-57779485D02*
X98940952Y-57969961D01*
X98940952Y-57969961D02*
X98845714Y-58065200D01*
X98845714Y-58065200D02*
X98750476Y-58112819D01*
X98750476Y-58112819D02*
X98560000Y-58112819D01*
X98560000Y-58112819D02*
X98464762Y-58065200D01*
X98464762Y-58065200D02*
X98369524Y-57969961D01*
X98369524Y-57969961D02*
X98321905Y-57779485D01*
X98321905Y-57779485D02*
X98321905Y-57446152D01*
X98321905Y-57446152D02*
X98369524Y-57255676D01*
X98369524Y-57255676D02*
X98464762Y-57160438D01*
X98464762Y-57160438D02*
X98560000Y-57112819D01*
X99607619Y-57112819D02*
X99798095Y-57112819D01*
X99798095Y-57112819D02*
X99893333Y-57160438D01*
X99893333Y-57160438D02*
X99988571Y-57255676D01*
X99988571Y-57255676D02*
X100036190Y-57446152D01*
X100036190Y-57446152D02*
X100036190Y-57779485D01*
X100036190Y-57779485D02*
X99988571Y-57969961D01*
X99988571Y-57969961D02*
X99893333Y-58065200D01*
X99893333Y-58065200D02*
X99798095Y-58112819D01*
X99798095Y-58112819D02*
X99607619Y-58112819D01*
X99607619Y-58112819D02*
X99512381Y-58065200D01*
X99512381Y-58065200D02*
X99417143Y-57969961D01*
X99417143Y-57969961D02*
X99369524Y-57779485D01*
X99369524Y-57779485D02*
X99369524Y-57446152D01*
X99369524Y-57446152D02*
X99417143Y-57255676D01*
X99417143Y-57255676D02*
X99512381Y-57160438D01*
X99512381Y-57160438D02*
X99607619Y-57112819D01*
X100321905Y-57112819D02*
X100893333Y-57112819D01*
X100607619Y-58112819D02*
X100607619Y-57112819D01*
X71675905Y-60652819D02*
X71675905Y-59652819D01*
X71675905Y-59652819D02*
X71914000Y-59652819D01*
X71914000Y-59652819D02*
X72056857Y-59700438D01*
X72056857Y-59700438D02*
X72152095Y-59795676D01*
X72152095Y-59795676D02*
X72199714Y-59890914D01*
X72199714Y-59890914D02*
X72247333Y-60081390D01*
X72247333Y-60081390D02*
X72247333Y-60224247D01*
X72247333Y-60224247D02*
X72199714Y-60414723D01*
X72199714Y-60414723D02*
X72152095Y-60509961D01*
X72152095Y-60509961D02*
X72056857Y-60605200D01*
X72056857Y-60605200D02*
X71914000Y-60652819D01*
X71914000Y-60652819D02*
X71675905Y-60652819D01*
X72675905Y-60129009D02*
X73009238Y-60129009D01*
X73152095Y-60652819D02*
X72675905Y-60652819D01*
X72675905Y-60652819D02*
X72675905Y-59652819D01*
X72675905Y-59652819D02*
X73152095Y-59652819D01*
X73914000Y-60129009D02*
X74056857Y-60176628D01*
X74056857Y-60176628D02*
X74104476Y-60224247D01*
X74104476Y-60224247D02*
X74152095Y-60319485D01*
X74152095Y-60319485D02*
X74152095Y-60462342D01*
X74152095Y-60462342D02*
X74104476Y-60557580D01*
X74104476Y-60557580D02*
X74056857Y-60605200D01*
X74056857Y-60605200D02*
X73961619Y-60652819D01*
X73961619Y-60652819D02*
X73580667Y-60652819D01*
X73580667Y-60652819D02*
X73580667Y-59652819D01*
X73580667Y-59652819D02*
X73914000Y-59652819D01*
X73914000Y-59652819D02*
X74009238Y-59700438D01*
X74009238Y-59700438D02*
X74056857Y-59748057D01*
X74056857Y-59748057D02*
X74104476Y-59843295D01*
X74104476Y-59843295D02*
X74104476Y-59938533D01*
X74104476Y-59938533D02*
X74056857Y-60033771D01*
X74056857Y-60033771D02*
X74009238Y-60081390D01*
X74009238Y-60081390D02*
X73914000Y-60129009D01*
X73914000Y-60129009D02*
X73580667Y-60129009D01*
X74580667Y-59652819D02*
X74580667Y-60462342D01*
X74580667Y-60462342D02*
X74628286Y-60557580D01*
X74628286Y-60557580D02*
X74675905Y-60605200D01*
X74675905Y-60605200D02*
X74771143Y-60652819D01*
X74771143Y-60652819D02*
X74961619Y-60652819D01*
X74961619Y-60652819D02*
X75056857Y-60605200D01*
X75056857Y-60605200D02*
X75104476Y-60557580D01*
X75104476Y-60557580D02*
X75152095Y-60462342D01*
X75152095Y-60462342D02*
X75152095Y-59652819D01*
X76152095Y-59700438D02*
X76056857Y-59652819D01*
X76056857Y-59652819D02*
X75914000Y-59652819D01*
X75914000Y-59652819D02*
X75771143Y-59700438D01*
X75771143Y-59700438D02*
X75675905Y-59795676D01*
X75675905Y-59795676D02*
X75628286Y-59890914D01*
X75628286Y-59890914D02*
X75580667Y-60081390D01*
X75580667Y-60081390D02*
X75580667Y-60224247D01*
X75580667Y-60224247D02*
X75628286Y-60414723D01*
X75628286Y-60414723D02*
X75675905Y-60509961D01*
X75675905Y-60509961D02*
X75771143Y-60605200D01*
X75771143Y-60605200D02*
X75914000Y-60652819D01*
X75914000Y-60652819D02*
X76009238Y-60652819D01*
X76009238Y-60652819D02*
X76152095Y-60605200D01*
X76152095Y-60605200D02*
X76199714Y-60557580D01*
X76199714Y-60557580D02*
X76199714Y-60224247D01*
X76199714Y-60224247D02*
X76009238Y-60224247D01*
D13*
X94742000Y-63754000D02*
X101600000Y-63754000D01*
X101600000Y-74549000D01*
X94742000Y-74549000D01*
X94742000Y-63754000D01*
D10*
X99730000Y-62757411D02*
X99530000Y-62471697D01*
X99387143Y-62757411D02*
X99387143Y-62157411D01*
X99387143Y-62157411D02*
X99615714Y-62157411D01*
X99615714Y-62157411D02*
X99672857Y-62185982D01*
X99672857Y-62185982D02*
X99701428Y-62214554D01*
X99701428Y-62214554D02*
X99730000Y-62271697D01*
X99730000Y-62271697D02*
X99730000Y-62357411D01*
X99730000Y-62357411D02*
X99701428Y-62414554D01*
X99701428Y-62414554D02*
X99672857Y-62443125D01*
X99672857Y-62443125D02*
X99615714Y-62471697D01*
X99615714Y-62471697D02*
X99387143Y-62471697D01*
X99958571Y-62728840D02*
X100015714Y-62757411D01*
X100015714Y-62757411D02*
X100130000Y-62757411D01*
X100130000Y-62757411D02*
X100187143Y-62728840D01*
X100187143Y-62728840D02*
X100215714Y-62671697D01*
X100215714Y-62671697D02*
X100215714Y-62643125D01*
X100215714Y-62643125D02*
X100187143Y-62585982D01*
X100187143Y-62585982D02*
X100130000Y-62557411D01*
X100130000Y-62557411D02*
X100044286Y-62557411D01*
X100044286Y-62557411D02*
X99987143Y-62528840D01*
X99987143Y-62528840D02*
X99958571Y-62471697D01*
X99958571Y-62471697D02*
X99958571Y-62443125D01*
X99958571Y-62443125D02*
X99987143Y-62385982D01*
X99987143Y-62385982D02*
X100044286Y-62357411D01*
X100044286Y-62357411D02*
X100130000Y-62357411D01*
X100130000Y-62357411D02*
X100187143Y-62385982D01*
X100815714Y-62757411D02*
X100615714Y-62471697D01*
X100472857Y-62757411D02*
X100472857Y-62157411D01*
X100472857Y-62157411D02*
X100701428Y-62157411D01*
X100701428Y-62157411D02*
X100758571Y-62185982D01*
X100758571Y-62185982D02*
X100787142Y-62214554D01*
X100787142Y-62214554D02*
X100815714Y-62271697D01*
X100815714Y-62271697D02*
X100815714Y-62357411D01*
X100815714Y-62357411D02*
X100787142Y-62414554D01*
X100787142Y-62414554D02*
X100758571Y-62443125D01*
X100758571Y-62443125D02*
X100701428Y-62471697D01*
X100701428Y-62471697D02*
X100472857Y-62471697D01*
X101015714Y-62757411D02*
X101330000Y-62357411D01*
X101015714Y-62357411D02*
X101330000Y-62757411D01*
X103805143Y-65738411D02*
X104176571Y-65738411D01*
X104176571Y-65738411D02*
X103976571Y-65966982D01*
X103976571Y-65966982D02*
X104062286Y-65966982D01*
X104062286Y-65966982D02*
X104119429Y-65995554D01*
X104119429Y-65995554D02*
X104148000Y-66024125D01*
X104148000Y-66024125D02*
X104176571Y-66081268D01*
X104176571Y-66081268D02*
X104176571Y-66224125D01*
X104176571Y-66224125D02*
X104148000Y-66281268D01*
X104148000Y-66281268D02*
X104119429Y-66309840D01*
X104119429Y-66309840D02*
X104062286Y-66338411D01*
X104062286Y-66338411D02*
X103890857Y-66338411D01*
X103890857Y-66338411D02*
X103833714Y-66309840D01*
X103833714Y-66309840D02*
X103805143Y-66281268D01*
X104376572Y-65738411D02*
X104519429Y-66338411D01*
X104519429Y-66338411D02*
X104633715Y-65909840D01*
X104633715Y-65909840D02*
X104748000Y-66338411D01*
X104748000Y-66338411D02*
X104890858Y-65738411D01*
X105319429Y-66024125D02*
X105405143Y-66052697D01*
X105405143Y-66052697D02*
X105433714Y-66081268D01*
X105433714Y-66081268D02*
X105462286Y-66138411D01*
X105462286Y-66138411D02*
X105462286Y-66224125D01*
X105462286Y-66224125D02*
X105433714Y-66281268D01*
X105433714Y-66281268D02*
X105405143Y-66309840D01*
X105405143Y-66309840D02*
X105348000Y-66338411D01*
X105348000Y-66338411D02*
X105119429Y-66338411D01*
X105119429Y-66338411D02*
X105119429Y-65738411D01*
X105119429Y-65738411D02*
X105319429Y-65738411D01*
X105319429Y-65738411D02*
X105376572Y-65766982D01*
X105376572Y-65766982D02*
X105405143Y-65795554D01*
X105405143Y-65795554D02*
X105433714Y-65852697D01*
X105433714Y-65852697D02*
X105433714Y-65909840D01*
X105433714Y-65909840D02*
X105405143Y-65966982D01*
X105405143Y-65966982D02*
X105376572Y-65995554D01*
X105376572Y-65995554D02*
X105319429Y-66024125D01*
X105319429Y-66024125D02*
X105119429Y-66024125D01*
X104290857Y-67247268D02*
X104262285Y-67275840D01*
X104262285Y-67275840D02*
X104176571Y-67304411D01*
X104176571Y-67304411D02*
X104119428Y-67304411D01*
X104119428Y-67304411D02*
X104033714Y-67275840D01*
X104033714Y-67275840D02*
X103976571Y-67218697D01*
X103976571Y-67218697D02*
X103948000Y-67161554D01*
X103948000Y-67161554D02*
X103919428Y-67047268D01*
X103919428Y-67047268D02*
X103919428Y-66961554D01*
X103919428Y-66961554D02*
X103948000Y-66847268D01*
X103948000Y-66847268D02*
X103976571Y-66790125D01*
X103976571Y-66790125D02*
X104033714Y-66732982D01*
X104033714Y-66732982D02*
X104119428Y-66704411D01*
X104119428Y-66704411D02*
X104176571Y-66704411D01*
X104176571Y-66704411D02*
X104262285Y-66732982D01*
X104262285Y-66732982D02*
X104290857Y-66761554D01*
X104833714Y-67304411D02*
X104548000Y-67304411D01*
X104548000Y-67304411D02*
X104548000Y-66704411D01*
X105033714Y-67304411D02*
X105033714Y-66704411D01*
X105376571Y-67304411D02*
X105119428Y-66961554D01*
X105376571Y-66704411D02*
X105033714Y-67047268D01*
X98217143Y-67770411D02*
X98588571Y-67770411D01*
X98588571Y-67770411D02*
X98388571Y-67998982D01*
X98388571Y-67998982D02*
X98474286Y-67998982D01*
X98474286Y-67998982D02*
X98531429Y-68027554D01*
X98531429Y-68027554D02*
X98560000Y-68056125D01*
X98560000Y-68056125D02*
X98588571Y-68113268D01*
X98588571Y-68113268D02*
X98588571Y-68256125D01*
X98588571Y-68256125D02*
X98560000Y-68313268D01*
X98560000Y-68313268D02*
X98531429Y-68341840D01*
X98531429Y-68341840D02*
X98474286Y-68370411D01*
X98474286Y-68370411D02*
X98302857Y-68370411D01*
X98302857Y-68370411D02*
X98245714Y-68341840D01*
X98245714Y-68341840D02*
X98217143Y-68313268D01*
X98788572Y-67770411D02*
X98931429Y-68370411D01*
X98931429Y-68370411D02*
X99045715Y-67941840D01*
X99045715Y-67941840D02*
X99160000Y-68370411D01*
X99160000Y-68370411D02*
X99302858Y-67770411D01*
X99731429Y-68056125D02*
X99817143Y-68084697D01*
X99817143Y-68084697D02*
X99845714Y-68113268D01*
X99845714Y-68113268D02*
X99874286Y-68170411D01*
X99874286Y-68170411D02*
X99874286Y-68256125D01*
X99874286Y-68256125D02*
X99845714Y-68313268D01*
X99845714Y-68313268D02*
X99817143Y-68341840D01*
X99817143Y-68341840D02*
X99760000Y-68370411D01*
X99760000Y-68370411D02*
X99531429Y-68370411D01*
X99531429Y-68370411D02*
X99531429Y-67770411D01*
X99531429Y-67770411D02*
X99731429Y-67770411D01*
X99731429Y-67770411D02*
X99788572Y-67798982D01*
X99788572Y-67798982D02*
X99817143Y-67827554D01*
X99817143Y-67827554D02*
X99845714Y-67884697D01*
X99845714Y-67884697D02*
X99845714Y-67941840D01*
X99845714Y-67941840D02*
X99817143Y-67998982D01*
X99817143Y-67998982D02*
X99788572Y-68027554D01*
X99788572Y-68027554D02*
X99731429Y-68056125D01*
X99731429Y-68056125D02*
X99531429Y-68056125D01*
X98317143Y-69022125D02*
X98517143Y-69022125D01*
X98602857Y-69336411D02*
X98317143Y-69336411D01*
X98317143Y-69336411D02*
X98317143Y-68736411D01*
X98317143Y-68736411D02*
X98602857Y-68736411D01*
X98860000Y-69336411D02*
X98860000Y-68736411D01*
X98860000Y-68736411D02*
X99202857Y-69336411D01*
X99202857Y-69336411D02*
X99202857Y-68736411D01*
X99688571Y-69022125D02*
X99774285Y-69050697D01*
X99774285Y-69050697D02*
X99802856Y-69079268D01*
X99802856Y-69079268D02*
X99831428Y-69136411D01*
X99831428Y-69136411D02*
X99831428Y-69222125D01*
X99831428Y-69222125D02*
X99802856Y-69279268D01*
X99802856Y-69279268D02*
X99774285Y-69307840D01*
X99774285Y-69307840D02*
X99717142Y-69336411D01*
X99717142Y-69336411D02*
X99488571Y-69336411D01*
X99488571Y-69336411D02*
X99488571Y-68736411D01*
X99488571Y-68736411D02*
X99688571Y-68736411D01*
X99688571Y-68736411D02*
X99745714Y-68764982D01*
X99745714Y-68764982D02*
X99774285Y-68793554D01*
X99774285Y-68793554D02*
X99802856Y-68850697D01*
X99802856Y-68850697D02*
X99802856Y-68907840D01*
X99802856Y-68907840D02*
X99774285Y-68964982D01*
X99774285Y-68964982D02*
X99745714Y-68993554D01*
X99745714Y-68993554D02*
X99688571Y-69022125D01*
X99688571Y-69022125D02*
X99488571Y-69022125D01*
X96499429Y-62757411D02*
X96299429Y-62471697D01*
X96156572Y-62757411D02*
X96156572Y-62157411D01*
X96156572Y-62157411D02*
X96385143Y-62157411D01*
X96385143Y-62157411D02*
X96442286Y-62185982D01*
X96442286Y-62185982D02*
X96470857Y-62214554D01*
X96470857Y-62214554D02*
X96499429Y-62271697D01*
X96499429Y-62271697D02*
X96499429Y-62357411D01*
X96499429Y-62357411D02*
X96470857Y-62414554D01*
X96470857Y-62414554D02*
X96442286Y-62443125D01*
X96442286Y-62443125D02*
X96385143Y-62471697D01*
X96385143Y-62471697D02*
X96156572Y-62471697D01*
X96728000Y-62728840D02*
X96785143Y-62757411D01*
X96785143Y-62757411D02*
X96899429Y-62757411D01*
X96899429Y-62757411D02*
X96956572Y-62728840D01*
X96956572Y-62728840D02*
X96985143Y-62671697D01*
X96985143Y-62671697D02*
X96985143Y-62643125D01*
X96985143Y-62643125D02*
X96956572Y-62585982D01*
X96956572Y-62585982D02*
X96899429Y-62557411D01*
X96899429Y-62557411D02*
X96813715Y-62557411D01*
X96813715Y-62557411D02*
X96756572Y-62528840D01*
X96756572Y-62528840D02*
X96728000Y-62471697D01*
X96728000Y-62471697D02*
X96728000Y-62443125D01*
X96728000Y-62443125D02*
X96756572Y-62385982D01*
X96756572Y-62385982D02*
X96813715Y-62357411D01*
X96813715Y-62357411D02*
X96899429Y-62357411D01*
X96899429Y-62357411D02*
X96956572Y-62385982D01*
X97156571Y-62157411D02*
X97499429Y-62157411D01*
X97328000Y-62757411D02*
X97328000Y-62157411D01*
X97642286Y-62757411D02*
X97956572Y-62357411D01*
X97642286Y-62357411D02*
X97956572Y-62757411D01*
X97944000Y-75990411D02*
X97744000Y-75704697D01*
X97601143Y-75990411D02*
X97601143Y-75390411D01*
X97601143Y-75390411D02*
X97829714Y-75390411D01*
X97829714Y-75390411D02*
X97886857Y-75418982D01*
X97886857Y-75418982D02*
X97915428Y-75447554D01*
X97915428Y-75447554D02*
X97944000Y-75504697D01*
X97944000Y-75504697D02*
X97944000Y-75590411D01*
X97944000Y-75590411D02*
X97915428Y-75647554D01*
X97915428Y-75647554D02*
X97886857Y-75676125D01*
X97886857Y-75676125D02*
X97829714Y-75704697D01*
X97829714Y-75704697D02*
X97601143Y-75704697D01*
X98172571Y-75961840D02*
X98258286Y-75990411D01*
X98258286Y-75990411D02*
X98401143Y-75990411D01*
X98401143Y-75990411D02*
X98458286Y-75961840D01*
X98458286Y-75961840D02*
X98486857Y-75933268D01*
X98486857Y-75933268D02*
X98515428Y-75876125D01*
X98515428Y-75876125D02*
X98515428Y-75818982D01*
X98515428Y-75818982D02*
X98486857Y-75761840D01*
X98486857Y-75761840D02*
X98458286Y-75733268D01*
X98458286Y-75733268D02*
X98401143Y-75704697D01*
X98401143Y-75704697D02*
X98286857Y-75676125D01*
X98286857Y-75676125D02*
X98229714Y-75647554D01*
X98229714Y-75647554D02*
X98201143Y-75618982D01*
X98201143Y-75618982D02*
X98172571Y-75561840D01*
X98172571Y-75561840D02*
X98172571Y-75504697D01*
X98172571Y-75504697D02*
X98201143Y-75447554D01*
X98201143Y-75447554D02*
X98229714Y-75418982D01*
X98229714Y-75418982D02*
X98286857Y-75390411D01*
X98286857Y-75390411D02*
X98429714Y-75390411D01*
X98429714Y-75390411D02*
X98515428Y-75418982D01*
X97944000Y-76956411D02*
X97744000Y-76670697D01*
X97601143Y-76956411D02*
X97601143Y-76356411D01*
X97601143Y-76356411D02*
X97829714Y-76356411D01*
X97829714Y-76356411D02*
X97886857Y-76384982D01*
X97886857Y-76384982D02*
X97915428Y-76413554D01*
X97915428Y-76413554D02*
X97944000Y-76470697D01*
X97944000Y-76470697D02*
X97944000Y-76556411D01*
X97944000Y-76556411D02*
X97915428Y-76613554D01*
X97915428Y-76613554D02*
X97886857Y-76642125D01*
X97886857Y-76642125D02*
X97829714Y-76670697D01*
X97829714Y-76670697D02*
X97601143Y-76670697D01*
X98144000Y-76356411D02*
X98544000Y-76956411D01*
X98544000Y-76356411D02*
X98144000Y-76956411D01*
X83362857Y-51771982D02*
X83305715Y-51743411D01*
X83305715Y-51743411D02*
X83220000Y-51743411D01*
X83220000Y-51743411D02*
X83134286Y-51771982D01*
X83134286Y-51771982D02*
X83077143Y-51829125D01*
X83077143Y-51829125D02*
X83048572Y-51886268D01*
X83048572Y-51886268D02*
X83020000Y-52000554D01*
X83020000Y-52000554D02*
X83020000Y-52086268D01*
X83020000Y-52086268D02*
X83048572Y-52200554D01*
X83048572Y-52200554D02*
X83077143Y-52257697D01*
X83077143Y-52257697D02*
X83134286Y-52314840D01*
X83134286Y-52314840D02*
X83220000Y-52343411D01*
X83220000Y-52343411D02*
X83277143Y-52343411D01*
X83277143Y-52343411D02*
X83362857Y-52314840D01*
X83362857Y-52314840D02*
X83391429Y-52286268D01*
X83391429Y-52286268D02*
X83391429Y-52086268D01*
X83391429Y-52086268D02*
X83277143Y-52086268D01*
X83648572Y-52343411D02*
X83648572Y-51743411D01*
X83648572Y-51743411D02*
X83991429Y-52343411D01*
X83991429Y-52343411D02*
X83991429Y-51743411D01*
X84277143Y-52343411D02*
X84277143Y-51743411D01*
X84277143Y-51743411D02*
X84420000Y-51743411D01*
X84420000Y-51743411D02*
X84505714Y-51771982D01*
X84505714Y-51771982D02*
X84562857Y-51829125D01*
X84562857Y-51829125D02*
X84591428Y-51886268D01*
X84591428Y-51886268D02*
X84620000Y-52000554D01*
X84620000Y-52000554D02*
X84620000Y-52086268D01*
X84620000Y-52086268D02*
X84591428Y-52200554D01*
X84591428Y-52200554D02*
X84562857Y-52257697D01*
X84562857Y-52257697D02*
X84505714Y-52314840D01*
X84505714Y-52314840D02*
X84420000Y-52343411D01*
X84420000Y-52343411D02*
X84277143Y-52343411D01*
X100484000Y-84118411D02*
X100284000Y-83832697D01*
X100141143Y-84118411D02*
X100141143Y-83518411D01*
X100141143Y-83518411D02*
X100369714Y-83518411D01*
X100369714Y-83518411D02*
X100426857Y-83546982D01*
X100426857Y-83546982D02*
X100455428Y-83575554D01*
X100455428Y-83575554D02*
X100484000Y-83632697D01*
X100484000Y-83632697D02*
X100484000Y-83718411D01*
X100484000Y-83718411D02*
X100455428Y-83775554D01*
X100455428Y-83775554D02*
X100426857Y-83804125D01*
X100426857Y-83804125D02*
X100369714Y-83832697D01*
X100369714Y-83832697D02*
X100141143Y-83832697D01*
X100684000Y-83518411D02*
X101084000Y-84118411D01*
X101084000Y-83518411D02*
X100684000Y-84118411D01*
X100126856Y-84484411D02*
X100469714Y-84484411D01*
X100298285Y-85084411D02*
X100298285Y-84484411D01*
X100612571Y-84484411D02*
X101012571Y-85084411D01*
X101012571Y-84484411D02*
X100612571Y-85084411D01*
X88442857Y-51771982D02*
X88385715Y-51743411D01*
X88385715Y-51743411D02*
X88300000Y-51743411D01*
X88300000Y-51743411D02*
X88214286Y-51771982D01*
X88214286Y-51771982D02*
X88157143Y-51829125D01*
X88157143Y-51829125D02*
X88128572Y-51886268D01*
X88128572Y-51886268D02*
X88100000Y-52000554D01*
X88100000Y-52000554D02*
X88100000Y-52086268D01*
X88100000Y-52086268D02*
X88128572Y-52200554D01*
X88128572Y-52200554D02*
X88157143Y-52257697D01*
X88157143Y-52257697D02*
X88214286Y-52314840D01*
X88214286Y-52314840D02*
X88300000Y-52343411D01*
X88300000Y-52343411D02*
X88357143Y-52343411D01*
X88357143Y-52343411D02*
X88442857Y-52314840D01*
X88442857Y-52314840D02*
X88471429Y-52286268D01*
X88471429Y-52286268D02*
X88471429Y-52086268D01*
X88471429Y-52086268D02*
X88357143Y-52086268D01*
X88728572Y-52343411D02*
X88728572Y-51743411D01*
X88728572Y-51743411D02*
X89071429Y-52343411D01*
X89071429Y-52343411D02*
X89071429Y-51743411D01*
X89357143Y-52343411D02*
X89357143Y-51743411D01*
X89357143Y-51743411D02*
X89500000Y-51743411D01*
X89500000Y-51743411D02*
X89585714Y-51771982D01*
X89585714Y-51771982D02*
X89642857Y-51829125D01*
X89642857Y-51829125D02*
X89671428Y-51886268D01*
X89671428Y-51886268D02*
X89700000Y-52000554D01*
X89700000Y-52000554D02*
X89700000Y-52086268D01*
X89700000Y-52086268D02*
X89671428Y-52200554D01*
X89671428Y-52200554D02*
X89642857Y-52257697D01*
X89642857Y-52257697D02*
X89585714Y-52314840D01*
X89585714Y-52314840D02*
X89500000Y-52343411D01*
X89500000Y-52343411D02*
X89357143Y-52343411D01*
X98217143Y-65484411D02*
X98588571Y-65484411D01*
X98588571Y-65484411D02*
X98388571Y-65712982D01*
X98388571Y-65712982D02*
X98474286Y-65712982D01*
X98474286Y-65712982D02*
X98531429Y-65741554D01*
X98531429Y-65741554D02*
X98560000Y-65770125D01*
X98560000Y-65770125D02*
X98588571Y-65827268D01*
X98588571Y-65827268D02*
X98588571Y-65970125D01*
X98588571Y-65970125D02*
X98560000Y-66027268D01*
X98560000Y-66027268D02*
X98531429Y-66055840D01*
X98531429Y-66055840D02*
X98474286Y-66084411D01*
X98474286Y-66084411D02*
X98302857Y-66084411D01*
X98302857Y-66084411D02*
X98245714Y-66055840D01*
X98245714Y-66055840D02*
X98217143Y-66027268D01*
X98788572Y-65484411D02*
X98931429Y-66084411D01*
X98931429Y-66084411D02*
X99045715Y-65655840D01*
X99045715Y-65655840D02*
X99160000Y-66084411D01*
X99160000Y-66084411D02*
X99302858Y-65484411D01*
X99731429Y-65770125D02*
X99817143Y-65798697D01*
X99817143Y-65798697D02*
X99845714Y-65827268D01*
X99845714Y-65827268D02*
X99874286Y-65884411D01*
X99874286Y-65884411D02*
X99874286Y-65970125D01*
X99874286Y-65970125D02*
X99845714Y-66027268D01*
X99845714Y-66027268D02*
X99817143Y-66055840D01*
X99817143Y-66055840D02*
X99760000Y-66084411D01*
X99760000Y-66084411D02*
X99531429Y-66084411D01*
X99531429Y-66084411D02*
X99531429Y-65484411D01*
X99531429Y-65484411D02*
X99731429Y-65484411D01*
X99731429Y-65484411D02*
X99788572Y-65512982D01*
X99788572Y-65512982D02*
X99817143Y-65541554D01*
X99817143Y-65541554D02*
X99845714Y-65598697D01*
X99845714Y-65598697D02*
X99845714Y-65655840D01*
X99845714Y-65655840D02*
X99817143Y-65712982D01*
X99817143Y-65712982D02*
X99788572Y-65741554D01*
X99788572Y-65741554D02*
X99731429Y-65770125D01*
X99731429Y-65770125D02*
X99531429Y-65770125D01*
X98702857Y-66993268D02*
X98674285Y-67021840D01*
X98674285Y-67021840D02*
X98588571Y-67050411D01*
X98588571Y-67050411D02*
X98531428Y-67050411D01*
X98531428Y-67050411D02*
X98445714Y-67021840D01*
X98445714Y-67021840D02*
X98388571Y-66964697D01*
X98388571Y-66964697D02*
X98360000Y-66907554D01*
X98360000Y-66907554D02*
X98331428Y-66793268D01*
X98331428Y-66793268D02*
X98331428Y-66707554D01*
X98331428Y-66707554D02*
X98360000Y-66593268D01*
X98360000Y-66593268D02*
X98388571Y-66536125D01*
X98388571Y-66536125D02*
X98445714Y-66478982D01*
X98445714Y-66478982D02*
X98531428Y-66450411D01*
X98531428Y-66450411D02*
X98588571Y-66450411D01*
X98588571Y-66450411D02*
X98674285Y-66478982D01*
X98674285Y-66478982D02*
X98702857Y-66507554D01*
X99245714Y-67050411D02*
X98960000Y-67050411D01*
X98960000Y-67050411D02*
X98960000Y-66450411D01*
X99445714Y-67050411D02*
X99445714Y-66450411D01*
X99788571Y-67050411D02*
X99531428Y-66707554D01*
X99788571Y-66450411D02*
X99445714Y-66793268D01*
X103174857Y-57105982D02*
X103117715Y-57077411D01*
X103117715Y-57077411D02*
X103032000Y-57077411D01*
X103032000Y-57077411D02*
X102946286Y-57105982D01*
X102946286Y-57105982D02*
X102889143Y-57163125D01*
X102889143Y-57163125D02*
X102860572Y-57220268D01*
X102860572Y-57220268D02*
X102832000Y-57334554D01*
X102832000Y-57334554D02*
X102832000Y-57420268D01*
X102832000Y-57420268D02*
X102860572Y-57534554D01*
X102860572Y-57534554D02*
X102889143Y-57591697D01*
X102889143Y-57591697D02*
X102946286Y-57648840D01*
X102946286Y-57648840D02*
X103032000Y-57677411D01*
X103032000Y-57677411D02*
X103089143Y-57677411D01*
X103089143Y-57677411D02*
X103174857Y-57648840D01*
X103174857Y-57648840D02*
X103203429Y-57620268D01*
X103203429Y-57620268D02*
X103203429Y-57420268D01*
X103203429Y-57420268D02*
X103089143Y-57420268D01*
X103460572Y-57677411D02*
X103460572Y-57077411D01*
X103460572Y-57077411D02*
X103803429Y-57677411D01*
X103803429Y-57677411D02*
X103803429Y-57077411D01*
X104089143Y-57677411D02*
X104089143Y-57077411D01*
X104089143Y-57077411D02*
X104232000Y-57077411D01*
X104232000Y-57077411D02*
X104317714Y-57105982D01*
X104317714Y-57105982D02*
X104374857Y-57163125D01*
X104374857Y-57163125D02*
X104403428Y-57220268D01*
X104403428Y-57220268D02*
X104432000Y-57334554D01*
X104432000Y-57334554D02*
X104432000Y-57420268D01*
X104432000Y-57420268D02*
X104403428Y-57534554D01*
X104403428Y-57534554D02*
X104374857Y-57591697D01*
X104374857Y-57591697D02*
X104317714Y-57648840D01*
X104317714Y-57648840D02*
X104232000Y-57677411D01*
X104232000Y-57677411D02*
X104089143Y-57677411D01*
X107492857Y-56089982D02*
X107435715Y-56061411D01*
X107435715Y-56061411D02*
X107350000Y-56061411D01*
X107350000Y-56061411D02*
X107264286Y-56089982D01*
X107264286Y-56089982D02*
X107207143Y-56147125D01*
X107207143Y-56147125D02*
X107178572Y-56204268D01*
X107178572Y-56204268D02*
X107150000Y-56318554D01*
X107150000Y-56318554D02*
X107150000Y-56404268D01*
X107150000Y-56404268D02*
X107178572Y-56518554D01*
X107178572Y-56518554D02*
X107207143Y-56575697D01*
X107207143Y-56575697D02*
X107264286Y-56632840D01*
X107264286Y-56632840D02*
X107350000Y-56661411D01*
X107350000Y-56661411D02*
X107407143Y-56661411D01*
X107407143Y-56661411D02*
X107492857Y-56632840D01*
X107492857Y-56632840D02*
X107521429Y-56604268D01*
X107521429Y-56604268D02*
X107521429Y-56404268D01*
X107521429Y-56404268D02*
X107407143Y-56404268D01*
X107778572Y-56661411D02*
X107778572Y-56061411D01*
X107778572Y-56061411D02*
X108121429Y-56661411D01*
X108121429Y-56661411D02*
X108121429Y-56061411D01*
X108407143Y-56661411D02*
X108407143Y-56061411D01*
X108407143Y-56061411D02*
X108550000Y-56061411D01*
X108550000Y-56061411D02*
X108635714Y-56089982D01*
X108635714Y-56089982D02*
X108692857Y-56147125D01*
X108692857Y-56147125D02*
X108721428Y-56204268D01*
X108721428Y-56204268D02*
X108750000Y-56318554D01*
X108750000Y-56318554D02*
X108750000Y-56404268D01*
X108750000Y-56404268D02*
X108721428Y-56518554D01*
X108721428Y-56518554D02*
X108692857Y-56575697D01*
X108692857Y-56575697D02*
X108635714Y-56632840D01*
X108635714Y-56632840D02*
X108550000Y-56661411D01*
X108550000Y-56661411D02*
X108407143Y-56661411D01*
X90681428Y-62528840D02*
X91138571Y-62528840D01*
X90909999Y-62757411D02*
X90909999Y-62300268D01*
X91424285Y-62443125D02*
X91624285Y-62443125D01*
X91709999Y-62757411D02*
X91424285Y-62757411D01*
X91424285Y-62757411D02*
X91424285Y-62157411D01*
X91424285Y-62157411D02*
X91709999Y-62157411D01*
X91909999Y-62157411D02*
X92309999Y-62757411D01*
X92309999Y-62157411D02*
X91909999Y-62757411D01*
X92452856Y-62157411D02*
X92795714Y-62157411D01*
X92624285Y-62757411D02*
X92624285Y-62157411D01*
X92852857Y-62814554D02*
X93309999Y-62814554D01*
X93652857Y-62443125D02*
X93738571Y-62471697D01*
X93738571Y-62471697D02*
X93767142Y-62500268D01*
X93767142Y-62500268D02*
X93795714Y-62557411D01*
X93795714Y-62557411D02*
X93795714Y-62643125D01*
X93795714Y-62643125D02*
X93767142Y-62700268D01*
X93767142Y-62700268D02*
X93738571Y-62728840D01*
X93738571Y-62728840D02*
X93681428Y-62757411D01*
X93681428Y-62757411D02*
X93452857Y-62757411D01*
X93452857Y-62757411D02*
X93452857Y-62157411D01*
X93452857Y-62157411D02*
X93652857Y-62157411D01*
X93652857Y-62157411D02*
X93710000Y-62185982D01*
X93710000Y-62185982D02*
X93738571Y-62214554D01*
X93738571Y-62214554D02*
X93767142Y-62271697D01*
X93767142Y-62271697D02*
X93767142Y-62328840D01*
X93767142Y-62328840D02*
X93738571Y-62385982D01*
X93738571Y-62385982D02*
X93710000Y-62414554D01*
X93710000Y-62414554D02*
X93652857Y-62443125D01*
X93652857Y-62443125D02*
X93452857Y-62443125D01*
X94024285Y-62585982D02*
X94310000Y-62585982D01*
X93967142Y-62757411D02*
X94167142Y-62157411D01*
X94167142Y-62157411D02*
X94367142Y-62757411D01*
X94481428Y-62157411D02*
X94824286Y-62157411D01*
X94652857Y-62757411D02*
X94652857Y-62157411D01*
X98217143Y-70056411D02*
X98588571Y-70056411D01*
X98588571Y-70056411D02*
X98388571Y-70284982D01*
X98388571Y-70284982D02*
X98474286Y-70284982D01*
X98474286Y-70284982D02*
X98531429Y-70313554D01*
X98531429Y-70313554D02*
X98560000Y-70342125D01*
X98560000Y-70342125D02*
X98588571Y-70399268D01*
X98588571Y-70399268D02*
X98588571Y-70542125D01*
X98588571Y-70542125D02*
X98560000Y-70599268D01*
X98560000Y-70599268D02*
X98531429Y-70627840D01*
X98531429Y-70627840D02*
X98474286Y-70656411D01*
X98474286Y-70656411D02*
X98302857Y-70656411D01*
X98302857Y-70656411D02*
X98245714Y-70627840D01*
X98245714Y-70627840D02*
X98217143Y-70599268D01*
X98788572Y-70056411D02*
X98931429Y-70656411D01*
X98931429Y-70656411D02*
X99045715Y-70227840D01*
X99045715Y-70227840D02*
X99160000Y-70656411D01*
X99160000Y-70656411D02*
X99302858Y-70056411D01*
X99731429Y-70342125D02*
X99817143Y-70370697D01*
X99817143Y-70370697D02*
X99845714Y-70399268D01*
X99845714Y-70399268D02*
X99874286Y-70456411D01*
X99874286Y-70456411D02*
X99874286Y-70542125D01*
X99874286Y-70542125D02*
X99845714Y-70599268D01*
X99845714Y-70599268D02*
X99817143Y-70627840D01*
X99817143Y-70627840D02*
X99760000Y-70656411D01*
X99760000Y-70656411D02*
X99531429Y-70656411D01*
X99531429Y-70656411D02*
X99531429Y-70056411D01*
X99531429Y-70056411D02*
X99731429Y-70056411D01*
X99731429Y-70056411D02*
X99788572Y-70084982D01*
X99788572Y-70084982D02*
X99817143Y-70113554D01*
X99817143Y-70113554D02*
X99845714Y-70170697D01*
X99845714Y-70170697D02*
X99845714Y-70227840D01*
X99845714Y-70227840D02*
X99817143Y-70284982D01*
X99817143Y-70284982D02*
X99788572Y-70313554D01*
X99788572Y-70313554D02*
X99731429Y-70342125D01*
X99731429Y-70342125D02*
X99531429Y-70342125D01*
X98160000Y-71622411D02*
X98160000Y-71022411D01*
X98160000Y-71022411D02*
X98302857Y-71022411D01*
X98302857Y-71022411D02*
X98388571Y-71050982D01*
X98388571Y-71050982D02*
X98445714Y-71108125D01*
X98445714Y-71108125D02*
X98474285Y-71165268D01*
X98474285Y-71165268D02*
X98502857Y-71279554D01*
X98502857Y-71279554D02*
X98502857Y-71365268D01*
X98502857Y-71365268D02*
X98474285Y-71479554D01*
X98474285Y-71479554D02*
X98445714Y-71536697D01*
X98445714Y-71536697D02*
X98388571Y-71593840D01*
X98388571Y-71593840D02*
X98302857Y-71622411D01*
X98302857Y-71622411D02*
X98160000Y-71622411D01*
X98731428Y-71450982D02*
X99017143Y-71450982D01*
X98674285Y-71622411D02*
X98874285Y-71022411D01*
X98874285Y-71022411D02*
X99074285Y-71622411D01*
X99188571Y-71022411D02*
X99531429Y-71022411D01*
X99360000Y-71622411D02*
X99360000Y-71022411D01*
X99702857Y-71450982D02*
X99988572Y-71450982D01*
X99645714Y-71622411D02*
X99845714Y-71022411D01*
X99845714Y-71022411D02*
X100045714Y-71622411D01*
X100126857Y-76155982D02*
X100069715Y-76127411D01*
X100069715Y-76127411D02*
X99984000Y-76127411D01*
X99984000Y-76127411D02*
X99898286Y-76155982D01*
X99898286Y-76155982D02*
X99841143Y-76213125D01*
X99841143Y-76213125D02*
X99812572Y-76270268D01*
X99812572Y-76270268D02*
X99784000Y-76384554D01*
X99784000Y-76384554D02*
X99784000Y-76470268D01*
X99784000Y-76470268D02*
X99812572Y-76584554D01*
X99812572Y-76584554D02*
X99841143Y-76641697D01*
X99841143Y-76641697D02*
X99898286Y-76698840D01*
X99898286Y-76698840D02*
X99984000Y-76727411D01*
X99984000Y-76727411D02*
X100041143Y-76727411D01*
X100041143Y-76727411D02*
X100126857Y-76698840D01*
X100126857Y-76698840D02*
X100155429Y-76670268D01*
X100155429Y-76670268D02*
X100155429Y-76470268D01*
X100155429Y-76470268D02*
X100041143Y-76470268D01*
X100412572Y-76727411D02*
X100412572Y-76127411D01*
X100412572Y-76127411D02*
X100755429Y-76727411D01*
X100755429Y-76727411D02*
X100755429Y-76127411D01*
X101041143Y-76727411D02*
X101041143Y-76127411D01*
X101041143Y-76127411D02*
X101184000Y-76127411D01*
X101184000Y-76127411D02*
X101269714Y-76155982D01*
X101269714Y-76155982D02*
X101326857Y-76213125D01*
X101326857Y-76213125D02*
X101355428Y-76270268D01*
X101355428Y-76270268D02*
X101384000Y-76384554D01*
X101384000Y-76384554D02*
X101384000Y-76470268D01*
X101384000Y-76470268D02*
X101355428Y-76584554D01*
X101355428Y-76584554D02*
X101326857Y-76641697D01*
X101326857Y-76641697D02*
X101269714Y-76698840D01*
X101269714Y-76698840D02*
X101184000Y-76727411D01*
X101184000Y-76727411D02*
X101041143Y-76727411D01*
X105329333Y-79555006D02*
X105862667Y-79555006D01*
X105596000Y-79821673D02*
X105596000Y-79288340D01*
X106196000Y-79455006D02*
X106429334Y-79455006D01*
X106529334Y-79821673D02*
X106196000Y-79821673D01*
X106196000Y-79821673D02*
X106196000Y-79121673D01*
X106196000Y-79121673D02*
X106529334Y-79121673D01*
X106762667Y-79121673D02*
X107229333Y-79821673D01*
X107229333Y-79121673D02*
X106762667Y-79821673D01*
X107396000Y-79121673D02*
X107796000Y-79121673D01*
X107596000Y-79821673D02*
X107596000Y-79121673D01*
X107862667Y-79888340D02*
X108396000Y-79888340D01*
X108796000Y-79455006D02*
X108896000Y-79488340D01*
X108896000Y-79488340D02*
X108929333Y-79521673D01*
X108929333Y-79521673D02*
X108962666Y-79588340D01*
X108962666Y-79588340D02*
X108962666Y-79688340D01*
X108962666Y-79688340D02*
X108929333Y-79755006D01*
X108929333Y-79755006D02*
X108896000Y-79788340D01*
X108896000Y-79788340D02*
X108829333Y-79821673D01*
X108829333Y-79821673D02*
X108562666Y-79821673D01*
X108562666Y-79821673D02*
X108562666Y-79121673D01*
X108562666Y-79121673D02*
X108796000Y-79121673D01*
X108796000Y-79121673D02*
X108862666Y-79155006D01*
X108862666Y-79155006D02*
X108896000Y-79188340D01*
X108896000Y-79188340D02*
X108929333Y-79255006D01*
X108929333Y-79255006D02*
X108929333Y-79321673D01*
X108929333Y-79321673D02*
X108896000Y-79388340D01*
X108896000Y-79388340D02*
X108862666Y-79421673D01*
X108862666Y-79421673D02*
X108796000Y-79455006D01*
X108796000Y-79455006D02*
X108562666Y-79455006D01*
X109229333Y-79621673D02*
X109562666Y-79621673D01*
X109162666Y-79821673D02*
X109396000Y-79121673D01*
X109396000Y-79121673D02*
X109629333Y-79821673D01*
X109762666Y-79121673D02*
X110162666Y-79121673D01*
X109962666Y-79821673D02*
X109962666Y-79121673D01*
X82310571Y-58718840D02*
X82767714Y-58718840D01*
X82539142Y-58947411D02*
X82539142Y-58490268D01*
X83367713Y-58947411D02*
X83024856Y-58947411D01*
X83196285Y-58947411D02*
X83196285Y-58347411D01*
X83196285Y-58347411D02*
X83139142Y-58433125D01*
X83139142Y-58433125D02*
X83081999Y-58490268D01*
X83081999Y-58490268D02*
X83024856Y-58518840D01*
X83624857Y-58890268D02*
X83653428Y-58918840D01*
X83653428Y-58918840D02*
X83624857Y-58947411D01*
X83624857Y-58947411D02*
X83596285Y-58918840D01*
X83596285Y-58918840D02*
X83624857Y-58890268D01*
X83624857Y-58890268D02*
X83624857Y-58947411D01*
X83996285Y-58604554D02*
X83939142Y-58575982D01*
X83939142Y-58575982D02*
X83910571Y-58547411D01*
X83910571Y-58547411D02*
X83881999Y-58490268D01*
X83881999Y-58490268D02*
X83881999Y-58461697D01*
X83881999Y-58461697D02*
X83910571Y-58404554D01*
X83910571Y-58404554D02*
X83939142Y-58375982D01*
X83939142Y-58375982D02*
X83996285Y-58347411D01*
X83996285Y-58347411D02*
X84110571Y-58347411D01*
X84110571Y-58347411D02*
X84167714Y-58375982D01*
X84167714Y-58375982D02*
X84196285Y-58404554D01*
X84196285Y-58404554D02*
X84224856Y-58461697D01*
X84224856Y-58461697D02*
X84224856Y-58490268D01*
X84224856Y-58490268D02*
X84196285Y-58547411D01*
X84196285Y-58547411D02*
X84167714Y-58575982D01*
X84167714Y-58575982D02*
X84110571Y-58604554D01*
X84110571Y-58604554D02*
X83996285Y-58604554D01*
X83996285Y-58604554D02*
X83939142Y-58633125D01*
X83939142Y-58633125D02*
X83910571Y-58661697D01*
X83910571Y-58661697D02*
X83881999Y-58718840D01*
X83881999Y-58718840D02*
X83881999Y-58833125D01*
X83881999Y-58833125D02*
X83910571Y-58890268D01*
X83910571Y-58890268D02*
X83939142Y-58918840D01*
X83939142Y-58918840D02*
X83996285Y-58947411D01*
X83996285Y-58947411D02*
X84110571Y-58947411D01*
X84110571Y-58947411D02*
X84167714Y-58918840D01*
X84167714Y-58918840D02*
X84196285Y-58890268D01*
X84196285Y-58890268D02*
X84224856Y-58833125D01*
X84224856Y-58833125D02*
X84224856Y-58718840D01*
X84224856Y-58718840D02*
X84196285Y-58661697D01*
X84196285Y-58661697D02*
X84167714Y-58633125D01*
X84167714Y-58633125D02*
X84110571Y-58604554D01*
X84396285Y-58347411D02*
X84596285Y-58947411D01*
X84596285Y-58947411D02*
X84796285Y-58347411D01*
X84853429Y-59004554D02*
X85310571Y-59004554D01*
X85424857Y-58775982D02*
X85710572Y-58775982D01*
X85367714Y-58947411D02*
X85567714Y-58347411D01*
X85567714Y-58347411D02*
X85767714Y-58947411D01*
X85967715Y-58947411D02*
X85967715Y-58347411D01*
X85967715Y-58347411D02*
X86110572Y-58347411D01*
X86110572Y-58347411D02*
X86196286Y-58375982D01*
X86196286Y-58375982D02*
X86253429Y-58433125D01*
X86253429Y-58433125D02*
X86282000Y-58490268D01*
X86282000Y-58490268D02*
X86310572Y-58604554D01*
X86310572Y-58604554D02*
X86310572Y-58690268D01*
X86310572Y-58690268D02*
X86282000Y-58804554D01*
X86282000Y-58804554D02*
X86253429Y-58861697D01*
X86253429Y-58861697D02*
X86196286Y-58918840D01*
X86196286Y-58918840D02*
X86110572Y-58947411D01*
X86110572Y-58947411D02*
X85967715Y-58947411D01*
X86539143Y-58918840D02*
X86624858Y-58947411D01*
X86624858Y-58947411D02*
X86767715Y-58947411D01*
X86767715Y-58947411D02*
X86824858Y-58918840D01*
X86824858Y-58918840D02*
X86853429Y-58890268D01*
X86853429Y-58890268D02*
X86882000Y-58833125D01*
X86882000Y-58833125D02*
X86882000Y-58775982D01*
X86882000Y-58775982D02*
X86853429Y-58718840D01*
X86853429Y-58718840D02*
X86824858Y-58690268D01*
X86824858Y-58690268D02*
X86767715Y-58661697D01*
X86767715Y-58661697D02*
X86653429Y-58633125D01*
X86653429Y-58633125D02*
X86596286Y-58604554D01*
X86596286Y-58604554D02*
X86567715Y-58575982D01*
X86567715Y-58575982D02*
X86539143Y-58518840D01*
X86539143Y-58518840D02*
X86539143Y-58461697D01*
X86539143Y-58461697D02*
X86567715Y-58404554D01*
X86567715Y-58404554D02*
X86596286Y-58375982D01*
X86596286Y-58375982D02*
X86653429Y-58347411D01*
X86653429Y-58347411D02*
X86796286Y-58347411D01*
X86796286Y-58347411D02*
X86882000Y-58375982D01*
X103805143Y-70818411D02*
X104176571Y-70818411D01*
X104176571Y-70818411D02*
X103976571Y-71046982D01*
X103976571Y-71046982D02*
X104062286Y-71046982D01*
X104062286Y-71046982D02*
X104119429Y-71075554D01*
X104119429Y-71075554D02*
X104148000Y-71104125D01*
X104148000Y-71104125D02*
X104176571Y-71161268D01*
X104176571Y-71161268D02*
X104176571Y-71304125D01*
X104176571Y-71304125D02*
X104148000Y-71361268D01*
X104148000Y-71361268D02*
X104119429Y-71389840D01*
X104119429Y-71389840D02*
X104062286Y-71418411D01*
X104062286Y-71418411D02*
X103890857Y-71418411D01*
X103890857Y-71418411D02*
X103833714Y-71389840D01*
X103833714Y-71389840D02*
X103805143Y-71361268D01*
X104376572Y-70818411D02*
X104519429Y-71418411D01*
X104519429Y-71418411D02*
X104633715Y-70989840D01*
X104633715Y-70989840D02*
X104748000Y-71418411D01*
X104748000Y-71418411D02*
X104890858Y-70818411D01*
X105319429Y-71104125D02*
X105405143Y-71132697D01*
X105405143Y-71132697D02*
X105433714Y-71161268D01*
X105433714Y-71161268D02*
X105462286Y-71218411D01*
X105462286Y-71218411D02*
X105462286Y-71304125D01*
X105462286Y-71304125D02*
X105433714Y-71361268D01*
X105433714Y-71361268D02*
X105405143Y-71389840D01*
X105405143Y-71389840D02*
X105348000Y-71418411D01*
X105348000Y-71418411D02*
X105119429Y-71418411D01*
X105119429Y-71418411D02*
X105119429Y-70818411D01*
X105119429Y-70818411D02*
X105319429Y-70818411D01*
X105319429Y-70818411D02*
X105376572Y-70846982D01*
X105376572Y-70846982D02*
X105405143Y-70875554D01*
X105405143Y-70875554D02*
X105433714Y-70932697D01*
X105433714Y-70932697D02*
X105433714Y-70989840D01*
X105433714Y-70989840D02*
X105405143Y-71046982D01*
X105405143Y-71046982D02*
X105376572Y-71075554D01*
X105376572Y-71075554D02*
X105319429Y-71104125D01*
X105319429Y-71104125D02*
X105119429Y-71104125D01*
X103748000Y-72384411D02*
X103748000Y-71784411D01*
X103748000Y-71784411D02*
X103890857Y-71784411D01*
X103890857Y-71784411D02*
X103976571Y-71812982D01*
X103976571Y-71812982D02*
X104033714Y-71870125D01*
X104033714Y-71870125D02*
X104062285Y-71927268D01*
X104062285Y-71927268D02*
X104090857Y-72041554D01*
X104090857Y-72041554D02*
X104090857Y-72127268D01*
X104090857Y-72127268D02*
X104062285Y-72241554D01*
X104062285Y-72241554D02*
X104033714Y-72298697D01*
X104033714Y-72298697D02*
X103976571Y-72355840D01*
X103976571Y-72355840D02*
X103890857Y-72384411D01*
X103890857Y-72384411D02*
X103748000Y-72384411D01*
X104319428Y-72212982D02*
X104605143Y-72212982D01*
X104262285Y-72384411D02*
X104462285Y-71784411D01*
X104462285Y-71784411D02*
X104662285Y-72384411D01*
X104776571Y-71784411D02*
X105119429Y-71784411D01*
X104948000Y-72384411D02*
X104948000Y-71784411D01*
X105290857Y-72212982D02*
X105576572Y-72212982D01*
X105233714Y-72384411D02*
X105433714Y-71784411D01*
X105433714Y-71784411D02*
X105633714Y-72384411D01*
X94661143Y-83518411D02*
X95032571Y-83518411D01*
X95032571Y-83518411D02*
X94832571Y-83746982D01*
X94832571Y-83746982D02*
X94918286Y-83746982D01*
X94918286Y-83746982D02*
X94975429Y-83775554D01*
X94975429Y-83775554D02*
X95004000Y-83804125D01*
X95004000Y-83804125D02*
X95032571Y-83861268D01*
X95032571Y-83861268D02*
X95032571Y-84004125D01*
X95032571Y-84004125D02*
X95004000Y-84061268D01*
X95004000Y-84061268D02*
X94975429Y-84089840D01*
X94975429Y-84089840D02*
X94918286Y-84118411D01*
X94918286Y-84118411D02*
X94746857Y-84118411D01*
X94746857Y-84118411D02*
X94689714Y-84089840D01*
X94689714Y-84089840D02*
X94661143Y-84061268D01*
X95232572Y-83518411D02*
X95375429Y-84118411D01*
X95375429Y-84118411D02*
X95489715Y-83689840D01*
X95489715Y-83689840D02*
X95604000Y-84118411D01*
X95604000Y-84118411D02*
X95746858Y-83518411D01*
X96175429Y-83804125D02*
X96261143Y-83832697D01*
X96261143Y-83832697D02*
X96289714Y-83861268D01*
X96289714Y-83861268D02*
X96318286Y-83918411D01*
X96318286Y-83918411D02*
X96318286Y-84004125D01*
X96318286Y-84004125D02*
X96289714Y-84061268D01*
X96289714Y-84061268D02*
X96261143Y-84089840D01*
X96261143Y-84089840D02*
X96204000Y-84118411D01*
X96204000Y-84118411D02*
X95975429Y-84118411D01*
X95975429Y-84118411D02*
X95975429Y-83518411D01*
X95975429Y-83518411D02*
X96175429Y-83518411D01*
X96175429Y-83518411D02*
X96232572Y-83546982D01*
X96232572Y-83546982D02*
X96261143Y-83575554D01*
X96261143Y-83575554D02*
X96289714Y-83632697D01*
X96289714Y-83632697D02*
X96289714Y-83689840D01*
X96289714Y-83689840D02*
X96261143Y-83746982D01*
X96261143Y-83746982D02*
X96232572Y-83775554D01*
X96232572Y-83775554D02*
X96175429Y-83804125D01*
X96175429Y-83804125D02*
X95975429Y-83804125D01*
X94604000Y-85084411D02*
X94604000Y-84484411D01*
X94604000Y-84484411D02*
X94746857Y-84484411D01*
X94746857Y-84484411D02*
X94832571Y-84512982D01*
X94832571Y-84512982D02*
X94889714Y-84570125D01*
X94889714Y-84570125D02*
X94918285Y-84627268D01*
X94918285Y-84627268D02*
X94946857Y-84741554D01*
X94946857Y-84741554D02*
X94946857Y-84827268D01*
X94946857Y-84827268D02*
X94918285Y-84941554D01*
X94918285Y-84941554D02*
X94889714Y-84998697D01*
X94889714Y-84998697D02*
X94832571Y-85055840D01*
X94832571Y-85055840D02*
X94746857Y-85084411D01*
X94746857Y-85084411D02*
X94604000Y-85084411D01*
X95175428Y-84912982D02*
X95461143Y-84912982D01*
X95118285Y-85084411D02*
X95318285Y-84484411D01*
X95318285Y-84484411D02*
X95518285Y-85084411D01*
X95632571Y-84484411D02*
X95975429Y-84484411D01*
X95804000Y-85084411D02*
X95804000Y-84484411D01*
X96146857Y-84912982D02*
X96432572Y-84912982D01*
X96089714Y-85084411D02*
X96289714Y-84484411D01*
X96289714Y-84484411D02*
X96489714Y-85084411D01*
X103805143Y-68278411D02*
X104176571Y-68278411D01*
X104176571Y-68278411D02*
X103976571Y-68506982D01*
X103976571Y-68506982D02*
X104062286Y-68506982D01*
X104062286Y-68506982D02*
X104119429Y-68535554D01*
X104119429Y-68535554D02*
X104148000Y-68564125D01*
X104148000Y-68564125D02*
X104176571Y-68621268D01*
X104176571Y-68621268D02*
X104176571Y-68764125D01*
X104176571Y-68764125D02*
X104148000Y-68821268D01*
X104148000Y-68821268D02*
X104119429Y-68849840D01*
X104119429Y-68849840D02*
X104062286Y-68878411D01*
X104062286Y-68878411D02*
X103890857Y-68878411D01*
X103890857Y-68878411D02*
X103833714Y-68849840D01*
X103833714Y-68849840D02*
X103805143Y-68821268D01*
X104376572Y-68278411D02*
X104519429Y-68878411D01*
X104519429Y-68878411D02*
X104633715Y-68449840D01*
X104633715Y-68449840D02*
X104748000Y-68878411D01*
X104748000Y-68878411D02*
X104890858Y-68278411D01*
X105319429Y-68564125D02*
X105405143Y-68592697D01*
X105405143Y-68592697D02*
X105433714Y-68621268D01*
X105433714Y-68621268D02*
X105462286Y-68678411D01*
X105462286Y-68678411D02*
X105462286Y-68764125D01*
X105462286Y-68764125D02*
X105433714Y-68821268D01*
X105433714Y-68821268D02*
X105405143Y-68849840D01*
X105405143Y-68849840D02*
X105348000Y-68878411D01*
X105348000Y-68878411D02*
X105119429Y-68878411D01*
X105119429Y-68878411D02*
X105119429Y-68278411D01*
X105119429Y-68278411D02*
X105319429Y-68278411D01*
X105319429Y-68278411D02*
X105376572Y-68306982D01*
X105376572Y-68306982D02*
X105405143Y-68335554D01*
X105405143Y-68335554D02*
X105433714Y-68392697D01*
X105433714Y-68392697D02*
X105433714Y-68449840D01*
X105433714Y-68449840D02*
X105405143Y-68506982D01*
X105405143Y-68506982D02*
X105376572Y-68535554D01*
X105376572Y-68535554D02*
X105319429Y-68564125D01*
X105319429Y-68564125D02*
X105119429Y-68564125D01*
X103905143Y-69530125D02*
X104105143Y-69530125D01*
X104190857Y-69844411D02*
X103905143Y-69844411D01*
X103905143Y-69844411D02*
X103905143Y-69244411D01*
X103905143Y-69244411D02*
X104190857Y-69244411D01*
X104448000Y-69844411D02*
X104448000Y-69244411D01*
X104448000Y-69244411D02*
X104790857Y-69844411D01*
X104790857Y-69844411D02*
X104790857Y-69244411D01*
X105276571Y-69530125D02*
X105362285Y-69558697D01*
X105362285Y-69558697D02*
X105390856Y-69587268D01*
X105390856Y-69587268D02*
X105419428Y-69644411D01*
X105419428Y-69644411D02*
X105419428Y-69730125D01*
X105419428Y-69730125D02*
X105390856Y-69787268D01*
X105390856Y-69787268D02*
X105362285Y-69815840D01*
X105362285Y-69815840D02*
X105305142Y-69844411D01*
X105305142Y-69844411D02*
X105076571Y-69844411D01*
X105076571Y-69844411D02*
X105076571Y-69244411D01*
X105076571Y-69244411D02*
X105276571Y-69244411D01*
X105276571Y-69244411D02*
X105333714Y-69272982D01*
X105333714Y-69272982D02*
X105362285Y-69301554D01*
X105362285Y-69301554D02*
X105390856Y-69358697D01*
X105390856Y-69358697D02*
X105390856Y-69415840D01*
X105390856Y-69415840D02*
X105362285Y-69472982D01*
X105362285Y-69472982D02*
X105333714Y-69501554D01*
X105333714Y-69501554D02*
X105276571Y-69530125D01*
X105276571Y-69530125D02*
X105076571Y-69530125D01*
X94661143Y-75390411D02*
X95032571Y-75390411D01*
X95032571Y-75390411D02*
X94832571Y-75618982D01*
X94832571Y-75618982D02*
X94918286Y-75618982D01*
X94918286Y-75618982D02*
X94975429Y-75647554D01*
X94975429Y-75647554D02*
X95004000Y-75676125D01*
X95004000Y-75676125D02*
X95032571Y-75733268D01*
X95032571Y-75733268D02*
X95032571Y-75876125D01*
X95032571Y-75876125D02*
X95004000Y-75933268D01*
X95004000Y-75933268D02*
X94975429Y-75961840D01*
X94975429Y-75961840D02*
X94918286Y-75990411D01*
X94918286Y-75990411D02*
X94746857Y-75990411D01*
X94746857Y-75990411D02*
X94689714Y-75961840D01*
X94689714Y-75961840D02*
X94661143Y-75933268D01*
X95232572Y-75390411D02*
X95375429Y-75990411D01*
X95375429Y-75990411D02*
X95489715Y-75561840D01*
X95489715Y-75561840D02*
X95604000Y-75990411D01*
X95604000Y-75990411D02*
X95746858Y-75390411D01*
X96175429Y-75676125D02*
X96261143Y-75704697D01*
X96261143Y-75704697D02*
X96289714Y-75733268D01*
X96289714Y-75733268D02*
X96318286Y-75790411D01*
X96318286Y-75790411D02*
X96318286Y-75876125D01*
X96318286Y-75876125D02*
X96289714Y-75933268D01*
X96289714Y-75933268D02*
X96261143Y-75961840D01*
X96261143Y-75961840D02*
X96204000Y-75990411D01*
X96204000Y-75990411D02*
X95975429Y-75990411D01*
X95975429Y-75990411D02*
X95975429Y-75390411D01*
X95975429Y-75390411D02*
X96175429Y-75390411D01*
X96175429Y-75390411D02*
X96232572Y-75418982D01*
X96232572Y-75418982D02*
X96261143Y-75447554D01*
X96261143Y-75447554D02*
X96289714Y-75504697D01*
X96289714Y-75504697D02*
X96289714Y-75561840D01*
X96289714Y-75561840D02*
X96261143Y-75618982D01*
X96261143Y-75618982D02*
X96232572Y-75647554D01*
X96232572Y-75647554D02*
X96175429Y-75676125D01*
X96175429Y-75676125D02*
X95975429Y-75676125D01*
X94761143Y-76642125D02*
X94961143Y-76642125D01*
X95046857Y-76956411D02*
X94761143Y-76956411D01*
X94761143Y-76956411D02*
X94761143Y-76356411D01*
X94761143Y-76356411D02*
X95046857Y-76356411D01*
X95304000Y-76956411D02*
X95304000Y-76356411D01*
X95304000Y-76356411D02*
X95646857Y-76956411D01*
X95646857Y-76956411D02*
X95646857Y-76356411D01*
X96132571Y-76642125D02*
X96218285Y-76670697D01*
X96218285Y-76670697D02*
X96246856Y-76699268D01*
X96246856Y-76699268D02*
X96275428Y-76756411D01*
X96275428Y-76756411D02*
X96275428Y-76842125D01*
X96275428Y-76842125D02*
X96246856Y-76899268D01*
X96246856Y-76899268D02*
X96218285Y-76927840D01*
X96218285Y-76927840D02*
X96161142Y-76956411D01*
X96161142Y-76956411D02*
X95932571Y-76956411D01*
X95932571Y-76956411D02*
X95932571Y-76356411D01*
X95932571Y-76356411D02*
X96132571Y-76356411D01*
X96132571Y-76356411D02*
X96189714Y-76384982D01*
X96189714Y-76384982D02*
X96218285Y-76413554D01*
X96218285Y-76413554D02*
X96246856Y-76470697D01*
X96246856Y-76470697D02*
X96246856Y-76527840D01*
X96246856Y-76527840D02*
X96218285Y-76584982D01*
X96218285Y-76584982D02*
X96189714Y-76613554D01*
X96189714Y-76613554D02*
X96132571Y-76642125D01*
X96132571Y-76642125D02*
X95932571Y-76642125D01*
X102611429Y-74441411D02*
X102611429Y-73841411D01*
X102611429Y-74127125D02*
X102954286Y-74127125D01*
X102954286Y-74441411D02*
X102954286Y-73841411D01*
X103582857Y-74441411D02*
X103382857Y-74155697D01*
X103240000Y-74441411D02*
X103240000Y-73841411D01*
X103240000Y-73841411D02*
X103468571Y-73841411D01*
X103468571Y-73841411D02*
X103525714Y-73869982D01*
X103525714Y-73869982D02*
X103554285Y-73898554D01*
X103554285Y-73898554D02*
X103582857Y-73955697D01*
X103582857Y-73955697D02*
X103582857Y-74041411D01*
X103582857Y-74041411D02*
X103554285Y-74098554D01*
X103554285Y-74098554D02*
X103525714Y-74127125D01*
X103525714Y-74127125D02*
X103468571Y-74155697D01*
X103468571Y-74155697D02*
X103240000Y-74155697D01*
X103840000Y-74127125D02*
X104040000Y-74127125D01*
X104125714Y-74441411D02*
X103840000Y-74441411D01*
X103840000Y-74441411D02*
X103840000Y-73841411D01*
X103840000Y-73841411D02*
X104125714Y-73841411D01*
X104354285Y-74412840D02*
X104440000Y-74441411D01*
X104440000Y-74441411D02*
X104582857Y-74441411D01*
X104582857Y-74441411D02*
X104640000Y-74412840D01*
X104640000Y-74412840D02*
X104668571Y-74384268D01*
X104668571Y-74384268D02*
X104697142Y-74327125D01*
X104697142Y-74327125D02*
X104697142Y-74269982D01*
X104697142Y-74269982D02*
X104668571Y-74212840D01*
X104668571Y-74212840D02*
X104640000Y-74184268D01*
X104640000Y-74184268D02*
X104582857Y-74155697D01*
X104582857Y-74155697D02*
X104468571Y-74127125D01*
X104468571Y-74127125D02*
X104411428Y-74098554D01*
X104411428Y-74098554D02*
X104382857Y-74069982D01*
X104382857Y-74069982D02*
X104354285Y-74012840D01*
X104354285Y-74012840D02*
X104354285Y-73955697D01*
X104354285Y-73955697D02*
X104382857Y-73898554D01*
X104382857Y-73898554D02*
X104411428Y-73869982D01*
X104411428Y-73869982D02*
X104468571Y-73841411D01*
X104468571Y-73841411D02*
X104611428Y-73841411D01*
X104611428Y-73841411D02*
X104697142Y-73869982D01*
X104954286Y-74127125D02*
X105154286Y-74127125D01*
X105240000Y-74441411D02*
X104954286Y-74441411D01*
X104954286Y-74441411D02*
X104954286Y-73841411D01*
X104954286Y-73841411D02*
X105240000Y-73841411D01*
X105411428Y-73841411D02*
X105754286Y-73841411D01*
X105582857Y-74441411D02*
X105582857Y-73841411D01*
X91951428Y-57448840D02*
X92408571Y-57448840D01*
X92179999Y-57677411D02*
X92179999Y-57220268D01*
X92694285Y-57363125D02*
X92894285Y-57363125D01*
X92979999Y-57677411D02*
X92694285Y-57677411D01*
X92694285Y-57677411D02*
X92694285Y-57077411D01*
X92694285Y-57077411D02*
X92979999Y-57077411D01*
X93179999Y-57077411D02*
X93579999Y-57677411D01*
X93579999Y-57077411D02*
X93179999Y-57677411D01*
X93722856Y-57077411D02*
X94065714Y-57077411D01*
X93894285Y-57677411D02*
X93894285Y-57077411D01*
X94122857Y-57734554D02*
X94579999Y-57734554D01*
X94922857Y-57363125D02*
X95008571Y-57391697D01*
X95008571Y-57391697D02*
X95037142Y-57420268D01*
X95037142Y-57420268D02*
X95065714Y-57477411D01*
X95065714Y-57477411D02*
X95065714Y-57563125D01*
X95065714Y-57563125D02*
X95037142Y-57620268D01*
X95037142Y-57620268D02*
X95008571Y-57648840D01*
X95008571Y-57648840D02*
X94951428Y-57677411D01*
X94951428Y-57677411D02*
X94722857Y-57677411D01*
X94722857Y-57677411D02*
X94722857Y-57077411D01*
X94722857Y-57077411D02*
X94922857Y-57077411D01*
X94922857Y-57077411D02*
X94980000Y-57105982D01*
X94980000Y-57105982D02*
X95008571Y-57134554D01*
X95008571Y-57134554D02*
X95037142Y-57191697D01*
X95037142Y-57191697D02*
X95037142Y-57248840D01*
X95037142Y-57248840D02*
X95008571Y-57305982D01*
X95008571Y-57305982D02*
X94980000Y-57334554D01*
X94980000Y-57334554D02*
X94922857Y-57363125D01*
X94922857Y-57363125D02*
X94722857Y-57363125D01*
X95294285Y-57505982D02*
X95580000Y-57505982D01*
X95237142Y-57677411D02*
X95437142Y-57077411D01*
X95437142Y-57077411D02*
X95637142Y-57677411D01*
X95751428Y-57077411D02*
X96094286Y-57077411D01*
X95922857Y-57677411D02*
X95922857Y-57077411D01*
X104033714Y-61741411D02*
X103833714Y-61455697D01*
X103690857Y-61741411D02*
X103690857Y-61141411D01*
X103690857Y-61141411D02*
X103919428Y-61141411D01*
X103919428Y-61141411D02*
X103976571Y-61169982D01*
X103976571Y-61169982D02*
X104005142Y-61198554D01*
X104005142Y-61198554D02*
X104033714Y-61255697D01*
X104033714Y-61255697D02*
X104033714Y-61341411D01*
X104033714Y-61341411D02*
X104005142Y-61398554D01*
X104005142Y-61398554D02*
X103976571Y-61427125D01*
X103976571Y-61427125D02*
X103919428Y-61455697D01*
X103919428Y-61455697D02*
X103690857Y-61455697D01*
X104262285Y-61712840D02*
X104348000Y-61741411D01*
X104348000Y-61741411D02*
X104490857Y-61741411D01*
X104490857Y-61741411D02*
X104548000Y-61712840D01*
X104548000Y-61712840D02*
X104576571Y-61684268D01*
X104576571Y-61684268D02*
X104605142Y-61627125D01*
X104605142Y-61627125D02*
X104605142Y-61569982D01*
X104605142Y-61569982D02*
X104576571Y-61512840D01*
X104576571Y-61512840D02*
X104548000Y-61484268D01*
X104548000Y-61484268D02*
X104490857Y-61455697D01*
X104490857Y-61455697D02*
X104376571Y-61427125D01*
X104376571Y-61427125D02*
X104319428Y-61398554D01*
X104319428Y-61398554D02*
X104290857Y-61369982D01*
X104290857Y-61369982D02*
X104262285Y-61312840D01*
X104262285Y-61312840D02*
X104262285Y-61255697D01*
X104262285Y-61255697D02*
X104290857Y-61198554D01*
X104290857Y-61198554D02*
X104319428Y-61169982D01*
X104319428Y-61169982D02*
X104376571Y-61141411D01*
X104376571Y-61141411D02*
X104519428Y-61141411D01*
X104519428Y-61141411D02*
X104605142Y-61169982D01*
X104776571Y-61141411D02*
X105119429Y-61141411D01*
X104948000Y-61741411D02*
X104948000Y-61141411D01*
X105262286Y-61141411D02*
X105662286Y-61741411D01*
X105662286Y-61141411D02*
X105262286Y-61741411D01*
X98039429Y-73425411D02*
X98039429Y-72825411D01*
X98039429Y-73111125D02*
X98382286Y-73111125D01*
X98382286Y-73425411D02*
X98382286Y-72825411D01*
X99010857Y-73425411D02*
X98810857Y-73139697D01*
X98668000Y-73425411D02*
X98668000Y-72825411D01*
X98668000Y-72825411D02*
X98896571Y-72825411D01*
X98896571Y-72825411D02*
X98953714Y-72853982D01*
X98953714Y-72853982D02*
X98982285Y-72882554D01*
X98982285Y-72882554D02*
X99010857Y-72939697D01*
X99010857Y-72939697D02*
X99010857Y-73025411D01*
X99010857Y-73025411D02*
X98982285Y-73082554D01*
X98982285Y-73082554D02*
X98953714Y-73111125D01*
X98953714Y-73111125D02*
X98896571Y-73139697D01*
X98896571Y-73139697D02*
X98668000Y-73139697D01*
X99268000Y-73111125D02*
X99468000Y-73111125D01*
X99553714Y-73425411D02*
X99268000Y-73425411D01*
X99268000Y-73425411D02*
X99268000Y-72825411D01*
X99268000Y-72825411D02*
X99553714Y-72825411D01*
X99782285Y-73396840D02*
X99868000Y-73425411D01*
X99868000Y-73425411D02*
X100010857Y-73425411D01*
X100010857Y-73425411D02*
X100068000Y-73396840D01*
X100068000Y-73396840D02*
X100096571Y-73368268D01*
X100096571Y-73368268D02*
X100125142Y-73311125D01*
X100125142Y-73311125D02*
X100125142Y-73253982D01*
X100125142Y-73253982D02*
X100096571Y-73196840D01*
X100096571Y-73196840D02*
X100068000Y-73168268D01*
X100068000Y-73168268D02*
X100010857Y-73139697D01*
X100010857Y-73139697D02*
X99896571Y-73111125D01*
X99896571Y-73111125D02*
X99839428Y-73082554D01*
X99839428Y-73082554D02*
X99810857Y-73053982D01*
X99810857Y-73053982D02*
X99782285Y-72996840D01*
X99782285Y-72996840D02*
X99782285Y-72939697D01*
X99782285Y-72939697D02*
X99810857Y-72882554D01*
X99810857Y-72882554D02*
X99839428Y-72853982D01*
X99839428Y-72853982D02*
X99896571Y-72825411D01*
X99896571Y-72825411D02*
X100039428Y-72825411D01*
X100039428Y-72825411D02*
X100125142Y-72853982D01*
X100382286Y-73111125D02*
X100582286Y-73111125D01*
X100668000Y-73425411D02*
X100382286Y-73425411D01*
X100382286Y-73425411D02*
X100382286Y-72825411D01*
X100382286Y-72825411D02*
X100668000Y-72825411D01*
X100839428Y-72825411D02*
X101182286Y-72825411D01*
X101010857Y-73425411D02*
X101010857Y-72825411D01*
X88950857Y-62185982D02*
X88893715Y-62157411D01*
X88893715Y-62157411D02*
X88808000Y-62157411D01*
X88808000Y-62157411D02*
X88722286Y-62185982D01*
X88722286Y-62185982D02*
X88665143Y-62243125D01*
X88665143Y-62243125D02*
X88636572Y-62300268D01*
X88636572Y-62300268D02*
X88608000Y-62414554D01*
X88608000Y-62414554D02*
X88608000Y-62500268D01*
X88608000Y-62500268D02*
X88636572Y-62614554D01*
X88636572Y-62614554D02*
X88665143Y-62671697D01*
X88665143Y-62671697D02*
X88722286Y-62728840D01*
X88722286Y-62728840D02*
X88808000Y-62757411D01*
X88808000Y-62757411D02*
X88865143Y-62757411D01*
X88865143Y-62757411D02*
X88950857Y-62728840D01*
X88950857Y-62728840D02*
X88979429Y-62700268D01*
X88979429Y-62700268D02*
X88979429Y-62500268D01*
X88979429Y-62500268D02*
X88865143Y-62500268D01*
X89236572Y-62757411D02*
X89236572Y-62157411D01*
X89236572Y-62157411D02*
X89579429Y-62757411D01*
X89579429Y-62757411D02*
X89579429Y-62157411D01*
X89865143Y-62757411D02*
X89865143Y-62157411D01*
X89865143Y-62157411D02*
X90008000Y-62157411D01*
X90008000Y-62157411D02*
X90093714Y-62185982D01*
X90093714Y-62185982D02*
X90150857Y-62243125D01*
X90150857Y-62243125D02*
X90179428Y-62300268D01*
X90179428Y-62300268D02*
X90208000Y-62414554D01*
X90208000Y-62414554D02*
X90208000Y-62500268D01*
X90208000Y-62500268D02*
X90179428Y-62614554D01*
X90179428Y-62614554D02*
X90150857Y-62671697D01*
X90150857Y-62671697D02*
X90093714Y-62728840D01*
X90093714Y-62728840D02*
X90008000Y-62757411D01*
X90008000Y-62757411D02*
X89865143Y-62757411D01*
X97201143Y-83518411D02*
X97572571Y-83518411D01*
X97572571Y-83518411D02*
X97372571Y-83746982D01*
X97372571Y-83746982D02*
X97458286Y-83746982D01*
X97458286Y-83746982D02*
X97515429Y-83775554D01*
X97515429Y-83775554D02*
X97544000Y-83804125D01*
X97544000Y-83804125D02*
X97572571Y-83861268D01*
X97572571Y-83861268D02*
X97572571Y-84004125D01*
X97572571Y-84004125D02*
X97544000Y-84061268D01*
X97544000Y-84061268D02*
X97515429Y-84089840D01*
X97515429Y-84089840D02*
X97458286Y-84118411D01*
X97458286Y-84118411D02*
X97286857Y-84118411D01*
X97286857Y-84118411D02*
X97229714Y-84089840D01*
X97229714Y-84089840D02*
X97201143Y-84061268D01*
X97772572Y-83518411D02*
X97915429Y-84118411D01*
X97915429Y-84118411D02*
X98029715Y-83689840D01*
X98029715Y-83689840D02*
X98144000Y-84118411D01*
X98144000Y-84118411D02*
X98286858Y-83518411D01*
X98715429Y-83804125D02*
X98801143Y-83832697D01*
X98801143Y-83832697D02*
X98829714Y-83861268D01*
X98829714Y-83861268D02*
X98858286Y-83918411D01*
X98858286Y-83918411D02*
X98858286Y-84004125D01*
X98858286Y-84004125D02*
X98829714Y-84061268D01*
X98829714Y-84061268D02*
X98801143Y-84089840D01*
X98801143Y-84089840D02*
X98744000Y-84118411D01*
X98744000Y-84118411D02*
X98515429Y-84118411D01*
X98515429Y-84118411D02*
X98515429Y-83518411D01*
X98515429Y-83518411D02*
X98715429Y-83518411D01*
X98715429Y-83518411D02*
X98772572Y-83546982D01*
X98772572Y-83546982D02*
X98801143Y-83575554D01*
X98801143Y-83575554D02*
X98829714Y-83632697D01*
X98829714Y-83632697D02*
X98829714Y-83689840D01*
X98829714Y-83689840D02*
X98801143Y-83746982D01*
X98801143Y-83746982D02*
X98772572Y-83775554D01*
X98772572Y-83775554D02*
X98715429Y-83804125D01*
X98715429Y-83804125D02*
X98515429Y-83804125D01*
X97686857Y-85027268D02*
X97658285Y-85055840D01*
X97658285Y-85055840D02*
X97572571Y-85084411D01*
X97572571Y-85084411D02*
X97515428Y-85084411D01*
X97515428Y-85084411D02*
X97429714Y-85055840D01*
X97429714Y-85055840D02*
X97372571Y-84998697D01*
X97372571Y-84998697D02*
X97344000Y-84941554D01*
X97344000Y-84941554D02*
X97315428Y-84827268D01*
X97315428Y-84827268D02*
X97315428Y-84741554D01*
X97315428Y-84741554D02*
X97344000Y-84627268D01*
X97344000Y-84627268D02*
X97372571Y-84570125D01*
X97372571Y-84570125D02*
X97429714Y-84512982D01*
X97429714Y-84512982D02*
X97515428Y-84484411D01*
X97515428Y-84484411D02*
X97572571Y-84484411D01*
X97572571Y-84484411D02*
X97658285Y-84512982D01*
X97658285Y-84512982D02*
X97686857Y-84541554D01*
X98229714Y-85084411D02*
X97944000Y-85084411D01*
X97944000Y-85084411D02*
X97944000Y-84484411D01*
X98429714Y-85084411D02*
X98429714Y-84484411D01*
X98772571Y-85084411D02*
X98515428Y-84741554D01*
X98772571Y-84484411D02*
X98429714Y-84827268D01*
X82902571Y-63709982D02*
X82845429Y-63681411D01*
X82845429Y-63681411D02*
X82759714Y-63681411D01*
X82759714Y-63681411D02*
X82674000Y-63709982D01*
X82674000Y-63709982D02*
X82616857Y-63767125D01*
X82616857Y-63767125D02*
X82588286Y-63824268D01*
X82588286Y-63824268D02*
X82559714Y-63938554D01*
X82559714Y-63938554D02*
X82559714Y-64024268D01*
X82559714Y-64024268D02*
X82588286Y-64138554D01*
X82588286Y-64138554D02*
X82616857Y-64195697D01*
X82616857Y-64195697D02*
X82674000Y-64252840D01*
X82674000Y-64252840D02*
X82759714Y-64281411D01*
X82759714Y-64281411D02*
X82816857Y-64281411D01*
X82816857Y-64281411D02*
X82902571Y-64252840D01*
X82902571Y-64252840D02*
X82931143Y-64224268D01*
X82931143Y-64224268D02*
X82931143Y-64024268D01*
X82931143Y-64024268D02*
X82816857Y-64024268D01*
X83188286Y-64281411D02*
X83188286Y-63681411D01*
X83188286Y-63681411D02*
X83416857Y-63681411D01*
X83416857Y-63681411D02*
X83474000Y-63709982D01*
X83474000Y-63709982D02*
X83502571Y-63738554D01*
X83502571Y-63738554D02*
X83531143Y-63795697D01*
X83531143Y-63795697D02*
X83531143Y-63881411D01*
X83531143Y-63881411D02*
X83502571Y-63938554D01*
X83502571Y-63938554D02*
X83474000Y-63967125D01*
X83474000Y-63967125D02*
X83416857Y-63995697D01*
X83416857Y-63995697D02*
X83188286Y-63995697D01*
X83788286Y-64281411D02*
X83788286Y-63681411D01*
X84188285Y-63681411D02*
X84302571Y-63681411D01*
X84302571Y-63681411D02*
X84359714Y-63709982D01*
X84359714Y-63709982D02*
X84416857Y-63767125D01*
X84416857Y-63767125D02*
X84445428Y-63881411D01*
X84445428Y-63881411D02*
X84445428Y-64081411D01*
X84445428Y-64081411D02*
X84416857Y-64195697D01*
X84416857Y-64195697D02*
X84359714Y-64252840D01*
X84359714Y-64252840D02*
X84302571Y-64281411D01*
X84302571Y-64281411D02*
X84188285Y-64281411D01*
X84188285Y-64281411D02*
X84131143Y-64252840D01*
X84131143Y-64252840D02*
X84074000Y-64195697D01*
X84074000Y-64195697D02*
X84045428Y-64081411D01*
X84045428Y-64081411D02*
X84045428Y-63881411D01*
X84045428Y-63881411D02*
X84074000Y-63767125D01*
X84074000Y-63767125D02*
X84131143Y-63709982D01*
X84131143Y-63709982D02*
X84188285Y-63681411D01*
X85016856Y-64281411D02*
X84673999Y-64281411D01*
X84845428Y-64281411D02*
X84845428Y-63681411D01*
X84845428Y-63681411D02*
X84788285Y-63767125D01*
X84788285Y-63767125D02*
X84731142Y-63824268D01*
X84731142Y-63824268D02*
X84673999Y-63852840D01*
X85531143Y-63881411D02*
X85531143Y-64281411D01*
X85388285Y-63652840D02*
X85245428Y-64081411D01*
X85245428Y-64081411D02*
X85616857Y-64081411D01*
X83578000Y-78129506D02*
X83811334Y-78129506D01*
X83911334Y-78496173D02*
X83578000Y-78496173D01*
X83578000Y-78496173D02*
X83578000Y-77796173D01*
X83578000Y-77796173D02*
X83911334Y-77796173D01*
X84144667Y-77796173D02*
X84611333Y-78496173D01*
X84611333Y-77796173D02*
X84144667Y-78496173D01*
X84778000Y-77796173D02*
X85178000Y-77796173D01*
X84978000Y-78496173D02*
X84978000Y-77796173D01*
X83811334Y-79256506D02*
X83911334Y-79289840D01*
X83911334Y-79289840D02*
X83944667Y-79323173D01*
X83944667Y-79323173D02*
X83978000Y-79389840D01*
X83978000Y-79389840D02*
X83978000Y-79489840D01*
X83978000Y-79489840D02*
X83944667Y-79556506D01*
X83944667Y-79556506D02*
X83911334Y-79589840D01*
X83911334Y-79589840D02*
X83844667Y-79623173D01*
X83844667Y-79623173D02*
X83578000Y-79623173D01*
X83578000Y-79623173D02*
X83578000Y-78923173D01*
X83578000Y-78923173D02*
X83811334Y-78923173D01*
X83811334Y-78923173D02*
X83878000Y-78956506D01*
X83878000Y-78956506D02*
X83911334Y-78989840D01*
X83911334Y-78989840D02*
X83944667Y-79056506D01*
X83944667Y-79056506D02*
X83944667Y-79123173D01*
X83944667Y-79123173D02*
X83911334Y-79189840D01*
X83911334Y-79189840D02*
X83878000Y-79223173D01*
X83878000Y-79223173D02*
X83811334Y-79256506D01*
X83811334Y-79256506D02*
X83578000Y-79256506D01*
X84244667Y-79423173D02*
X84578000Y-79423173D01*
X84178000Y-79623173D02*
X84411334Y-78923173D01*
X84411334Y-78923173D02*
X84644667Y-79623173D01*
X84778000Y-78923173D02*
X85178000Y-78923173D01*
X84978000Y-79623173D02*
X84978000Y-78923173D01*
X103962285Y-64535411D02*
X103762285Y-64249697D01*
X103619428Y-64535411D02*
X103619428Y-63935411D01*
X103619428Y-63935411D02*
X103847999Y-63935411D01*
X103847999Y-63935411D02*
X103905142Y-63963982D01*
X103905142Y-63963982D02*
X103933713Y-63992554D01*
X103933713Y-63992554D02*
X103962285Y-64049697D01*
X103962285Y-64049697D02*
X103962285Y-64135411D01*
X103962285Y-64135411D02*
X103933713Y-64192554D01*
X103933713Y-64192554D02*
X103905142Y-64221125D01*
X103905142Y-64221125D02*
X103847999Y-64249697D01*
X103847999Y-64249697D02*
X103619428Y-64249697D01*
X104190856Y-64506840D02*
X104276571Y-64535411D01*
X104276571Y-64535411D02*
X104419428Y-64535411D01*
X104419428Y-64535411D02*
X104476571Y-64506840D01*
X104476571Y-64506840D02*
X104505142Y-64478268D01*
X104505142Y-64478268D02*
X104533713Y-64421125D01*
X104533713Y-64421125D02*
X104533713Y-64363982D01*
X104533713Y-64363982D02*
X104505142Y-64306840D01*
X104505142Y-64306840D02*
X104476571Y-64278268D01*
X104476571Y-64278268D02*
X104419428Y-64249697D01*
X104419428Y-64249697D02*
X104305142Y-64221125D01*
X104305142Y-64221125D02*
X104247999Y-64192554D01*
X104247999Y-64192554D02*
X104219428Y-64163982D01*
X104219428Y-64163982D02*
X104190856Y-64106840D01*
X104190856Y-64106840D02*
X104190856Y-64049697D01*
X104190856Y-64049697D02*
X104219428Y-63992554D01*
X104219428Y-63992554D02*
X104247999Y-63963982D01*
X104247999Y-63963982D02*
X104305142Y-63935411D01*
X104305142Y-63935411D02*
X104447999Y-63935411D01*
X104447999Y-63935411D02*
X104533713Y-63963982D01*
X105133714Y-64535411D02*
X104933714Y-64249697D01*
X104790857Y-64535411D02*
X104790857Y-63935411D01*
X104790857Y-63935411D02*
X105019428Y-63935411D01*
X105019428Y-63935411D02*
X105076571Y-63963982D01*
X105076571Y-63963982D02*
X105105142Y-63992554D01*
X105105142Y-63992554D02*
X105133714Y-64049697D01*
X105133714Y-64049697D02*
X105133714Y-64135411D01*
X105133714Y-64135411D02*
X105105142Y-64192554D01*
X105105142Y-64192554D02*
X105076571Y-64221125D01*
X105076571Y-64221125D02*
X105019428Y-64249697D01*
X105019428Y-64249697D02*
X104790857Y-64249697D01*
X105333714Y-63935411D02*
X105733714Y-64535411D01*
X105733714Y-63935411D02*
X105333714Y-64535411D01*
X82934285Y-76409982D02*
X82877143Y-76381411D01*
X82877143Y-76381411D02*
X82791428Y-76381411D01*
X82791428Y-76381411D02*
X82705714Y-76409982D01*
X82705714Y-76409982D02*
X82648571Y-76467125D01*
X82648571Y-76467125D02*
X82620000Y-76524268D01*
X82620000Y-76524268D02*
X82591428Y-76638554D01*
X82591428Y-76638554D02*
X82591428Y-76724268D01*
X82591428Y-76724268D02*
X82620000Y-76838554D01*
X82620000Y-76838554D02*
X82648571Y-76895697D01*
X82648571Y-76895697D02*
X82705714Y-76952840D01*
X82705714Y-76952840D02*
X82791428Y-76981411D01*
X82791428Y-76981411D02*
X82848571Y-76981411D01*
X82848571Y-76981411D02*
X82934285Y-76952840D01*
X82934285Y-76952840D02*
X82962857Y-76924268D01*
X82962857Y-76924268D02*
X82962857Y-76724268D01*
X82962857Y-76724268D02*
X82848571Y-76724268D01*
X83220000Y-76981411D02*
X83220000Y-76381411D01*
X83220000Y-76381411D02*
X83448571Y-76381411D01*
X83448571Y-76381411D02*
X83505714Y-76409982D01*
X83505714Y-76409982D02*
X83534285Y-76438554D01*
X83534285Y-76438554D02*
X83562857Y-76495697D01*
X83562857Y-76495697D02*
X83562857Y-76581411D01*
X83562857Y-76581411D02*
X83534285Y-76638554D01*
X83534285Y-76638554D02*
X83505714Y-76667125D01*
X83505714Y-76667125D02*
X83448571Y-76695697D01*
X83448571Y-76695697D02*
X83220000Y-76695697D01*
X83820000Y-76981411D02*
X83820000Y-76381411D01*
X84219999Y-76381411D02*
X84334285Y-76381411D01*
X84334285Y-76381411D02*
X84391428Y-76409982D01*
X84391428Y-76409982D02*
X84448571Y-76467125D01*
X84448571Y-76467125D02*
X84477142Y-76581411D01*
X84477142Y-76581411D02*
X84477142Y-76781411D01*
X84477142Y-76781411D02*
X84448571Y-76895697D01*
X84448571Y-76895697D02*
X84391428Y-76952840D01*
X84391428Y-76952840D02*
X84334285Y-76981411D01*
X84334285Y-76981411D02*
X84219999Y-76981411D01*
X84219999Y-76981411D02*
X84162857Y-76952840D01*
X84162857Y-76952840D02*
X84105714Y-76895697D01*
X84105714Y-76895697D02*
X84077142Y-76781411D01*
X84077142Y-76781411D02*
X84077142Y-76581411D01*
X84077142Y-76581411D02*
X84105714Y-76467125D01*
X84105714Y-76467125D02*
X84162857Y-76409982D01*
X84162857Y-76409982D02*
X84219999Y-76381411D01*
X84848570Y-76381411D02*
X84905713Y-76381411D01*
X84905713Y-76381411D02*
X84962856Y-76409982D01*
X84962856Y-76409982D02*
X84991428Y-76438554D01*
X84991428Y-76438554D02*
X85019999Y-76495697D01*
X85019999Y-76495697D02*
X85048570Y-76609982D01*
X85048570Y-76609982D02*
X85048570Y-76752840D01*
X85048570Y-76752840D02*
X85019999Y-76867125D01*
X85019999Y-76867125D02*
X84991428Y-76924268D01*
X84991428Y-76924268D02*
X84962856Y-76952840D01*
X84962856Y-76952840D02*
X84905713Y-76981411D01*
X84905713Y-76981411D02*
X84848570Y-76981411D01*
X84848570Y-76981411D02*
X84791428Y-76952840D01*
X84791428Y-76952840D02*
X84762856Y-76924268D01*
X84762856Y-76924268D02*
X84734285Y-76867125D01*
X84734285Y-76867125D02*
X84705713Y-76752840D01*
X84705713Y-76752840D02*
X84705713Y-76609982D01*
X84705713Y-76609982D02*
X84734285Y-76495697D01*
X84734285Y-76495697D02*
X84762856Y-76438554D01*
X84762856Y-76438554D02*
X84791428Y-76409982D01*
X84791428Y-76409982D02*
X84848570Y-76381411D01*
X92321143Y-83804125D02*
X92521143Y-83804125D01*
X92606857Y-84118411D02*
X92321143Y-84118411D01*
X92321143Y-84118411D02*
X92321143Y-83518411D01*
X92321143Y-83518411D02*
X92606857Y-83518411D01*
X92806857Y-83518411D02*
X93206857Y-84118411D01*
X93206857Y-83518411D02*
X92806857Y-84118411D01*
X93349714Y-83518411D02*
X93692572Y-83518411D01*
X93521143Y-84118411D02*
X93521143Y-83518411D01*
X92521143Y-84770125D02*
X92606857Y-84798697D01*
X92606857Y-84798697D02*
X92635428Y-84827268D01*
X92635428Y-84827268D02*
X92664000Y-84884411D01*
X92664000Y-84884411D02*
X92664000Y-84970125D01*
X92664000Y-84970125D02*
X92635428Y-85027268D01*
X92635428Y-85027268D02*
X92606857Y-85055840D01*
X92606857Y-85055840D02*
X92549714Y-85084411D01*
X92549714Y-85084411D02*
X92321143Y-85084411D01*
X92321143Y-85084411D02*
X92321143Y-84484411D01*
X92321143Y-84484411D02*
X92521143Y-84484411D01*
X92521143Y-84484411D02*
X92578286Y-84512982D01*
X92578286Y-84512982D02*
X92606857Y-84541554D01*
X92606857Y-84541554D02*
X92635428Y-84598697D01*
X92635428Y-84598697D02*
X92635428Y-84655840D01*
X92635428Y-84655840D02*
X92606857Y-84712982D01*
X92606857Y-84712982D02*
X92578286Y-84741554D01*
X92578286Y-84741554D02*
X92521143Y-84770125D01*
X92521143Y-84770125D02*
X92321143Y-84770125D01*
X92892571Y-84912982D02*
X93178286Y-84912982D01*
X92835428Y-85084411D02*
X93035428Y-84484411D01*
X93035428Y-84484411D02*
X93235428Y-85084411D01*
X93349714Y-84484411D02*
X93692572Y-84484411D01*
X93521143Y-85084411D02*
X93521143Y-84484411D01*
X82934285Y-71329982D02*
X82877143Y-71301411D01*
X82877143Y-71301411D02*
X82791428Y-71301411D01*
X82791428Y-71301411D02*
X82705714Y-71329982D01*
X82705714Y-71329982D02*
X82648571Y-71387125D01*
X82648571Y-71387125D02*
X82620000Y-71444268D01*
X82620000Y-71444268D02*
X82591428Y-71558554D01*
X82591428Y-71558554D02*
X82591428Y-71644268D01*
X82591428Y-71644268D02*
X82620000Y-71758554D01*
X82620000Y-71758554D02*
X82648571Y-71815697D01*
X82648571Y-71815697D02*
X82705714Y-71872840D01*
X82705714Y-71872840D02*
X82791428Y-71901411D01*
X82791428Y-71901411D02*
X82848571Y-71901411D01*
X82848571Y-71901411D02*
X82934285Y-71872840D01*
X82934285Y-71872840D02*
X82962857Y-71844268D01*
X82962857Y-71844268D02*
X82962857Y-71644268D01*
X82962857Y-71644268D02*
X82848571Y-71644268D01*
X83220000Y-71901411D02*
X83220000Y-71301411D01*
X83220000Y-71301411D02*
X83448571Y-71301411D01*
X83448571Y-71301411D02*
X83505714Y-71329982D01*
X83505714Y-71329982D02*
X83534285Y-71358554D01*
X83534285Y-71358554D02*
X83562857Y-71415697D01*
X83562857Y-71415697D02*
X83562857Y-71501411D01*
X83562857Y-71501411D02*
X83534285Y-71558554D01*
X83534285Y-71558554D02*
X83505714Y-71587125D01*
X83505714Y-71587125D02*
X83448571Y-71615697D01*
X83448571Y-71615697D02*
X83220000Y-71615697D01*
X83820000Y-71901411D02*
X83820000Y-71301411D01*
X84219999Y-71301411D02*
X84334285Y-71301411D01*
X84334285Y-71301411D02*
X84391428Y-71329982D01*
X84391428Y-71329982D02*
X84448571Y-71387125D01*
X84448571Y-71387125D02*
X84477142Y-71501411D01*
X84477142Y-71501411D02*
X84477142Y-71701411D01*
X84477142Y-71701411D02*
X84448571Y-71815697D01*
X84448571Y-71815697D02*
X84391428Y-71872840D01*
X84391428Y-71872840D02*
X84334285Y-71901411D01*
X84334285Y-71901411D02*
X84219999Y-71901411D01*
X84219999Y-71901411D02*
X84162857Y-71872840D01*
X84162857Y-71872840D02*
X84105714Y-71815697D01*
X84105714Y-71815697D02*
X84077142Y-71701411D01*
X84077142Y-71701411D02*
X84077142Y-71501411D01*
X84077142Y-71501411D02*
X84105714Y-71387125D01*
X84105714Y-71387125D02*
X84162857Y-71329982D01*
X84162857Y-71329982D02*
X84219999Y-71301411D01*
X84991428Y-71501411D02*
X84991428Y-71901411D01*
X84848570Y-71272840D02*
X84705713Y-71701411D01*
X84705713Y-71701411D02*
X85077142Y-71701411D01*
X82418571Y-61512840D02*
X82875714Y-61512840D01*
X82647142Y-61741411D02*
X82647142Y-61284268D01*
X83475713Y-61741411D02*
X83132856Y-61741411D01*
X83304285Y-61741411D02*
X83304285Y-61141411D01*
X83304285Y-61141411D02*
X83247142Y-61227125D01*
X83247142Y-61227125D02*
X83189999Y-61284268D01*
X83189999Y-61284268D02*
X83132856Y-61312840D01*
X83732857Y-61684268D02*
X83761428Y-61712840D01*
X83761428Y-61712840D02*
X83732857Y-61741411D01*
X83732857Y-61741411D02*
X83704285Y-61712840D01*
X83704285Y-61712840D02*
X83732857Y-61684268D01*
X83732857Y-61684268D02*
X83732857Y-61741411D01*
X84104285Y-61398554D02*
X84047142Y-61369982D01*
X84047142Y-61369982D02*
X84018571Y-61341411D01*
X84018571Y-61341411D02*
X83989999Y-61284268D01*
X83989999Y-61284268D02*
X83989999Y-61255697D01*
X83989999Y-61255697D02*
X84018571Y-61198554D01*
X84018571Y-61198554D02*
X84047142Y-61169982D01*
X84047142Y-61169982D02*
X84104285Y-61141411D01*
X84104285Y-61141411D02*
X84218571Y-61141411D01*
X84218571Y-61141411D02*
X84275714Y-61169982D01*
X84275714Y-61169982D02*
X84304285Y-61198554D01*
X84304285Y-61198554D02*
X84332856Y-61255697D01*
X84332856Y-61255697D02*
X84332856Y-61284268D01*
X84332856Y-61284268D02*
X84304285Y-61341411D01*
X84304285Y-61341411D02*
X84275714Y-61369982D01*
X84275714Y-61369982D02*
X84218571Y-61398554D01*
X84218571Y-61398554D02*
X84104285Y-61398554D01*
X84104285Y-61398554D02*
X84047142Y-61427125D01*
X84047142Y-61427125D02*
X84018571Y-61455697D01*
X84018571Y-61455697D02*
X83989999Y-61512840D01*
X83989999Y-61512840D02*
X83989999Y-61627125D01*
X83989999Y-61627125D02*
X84018571Y-61684268D01*
X84018571Y-61684268D02*
X84047142Y-61712840D01*
X84047142Y-61712840D02*
X84104285Y-61741411D01*
X84104285Y-61741411D02*
X84218571Y-61741411D01*
X84218571Y-61741411D02*
X84275714Y-61712840D01*
X84275714Y-61712840D02*
X84304285Y-61684268D01*
X84304285Y-61684268D02*
X84332856Y-61627125D01*
X84332856Y-61627125D02*
X84332856Y-61512840D01*
X84332856Y-61512840D02*
X84304285Y-61455697D01*
X84304285Y-61455697D02*
X84275714Y-61427125D01*
X84275714Y-61427125D02*
X84218571Y-61398554D01*
X84504285Y-61141411D02*
X84704285Y-61741411D01*
X84704285Y-61741411D02*
X84904285Y-61141411D01*
X84961429Y-61798554D02*
X85418571Y-61798554D01*
X85532857Y-61712840D02*
X85618572Y-61741411D01*
X85618572Y-61741411D02*
X85761429Y-61741411D01*
X85761429Y-61741411D02*
X85818572Y-61712840D01*
X85818572Y-61712840D02*
X85847143Y-61684268D01*
X85847143Y-61684268D02*
X85875714Y-61627125D01*
X85875714Y-61627125D02*
X85875714Y-61569982D01*
X85875714Y-61569982D02*
X85847143Y-61512840D01*
X85847143Y-61512840D02*
X85818572Y-61484268D01*
X85818572Y-61484268D02*
X85761429Y-61455697D01*
X85761429Y-61455697D02*
X85647143Y-61427125D01*
X85647143Y-61427125D02*
X85590000Y-61398554D01*
X85590000Y-61398554D02*
X85561429Y-61369982D01*
X85561429Y-61369982D02*
X85532857Y-61312840D01*
X85532857Y-61312840D02*
X85532857Y-61255697D01*
X85532857Y-61255697D02*
X85561429Y-61198554D01*
X85561429Y-61198554D02*
X85590000Y-61169982D01*
X85590000Y-61169982D02*
X85647143Y-61141411D01*
X85647143Y-61141411D02*
X85790000Y-61141411D01*
X85790000Y-61141411D02*
X85875714Y-61169982D01*
X86475715Y-61684268D02*
X86447143Y-61712840D01*
X86447143Y-61712840D02*
X86361429Y-61741411D01*
X86361429Y-61741411D02*
X86304286Y-61741411D01*
X86304286Y-61741411D02*
X86218572Y-61712840D01*
X86218572Y-61712840D02*
X86161429Y-61655697D01*
X86161429Y-61655697D02*
X86132858Y-61598554D01*
X86132858Y-61598554D02*
X86104286Y-61484268D01*
X86104286Y-61484268D02*
X86104286Y-61398554D01*
X86104286Y-61398554D02*
X86132858Y-61284268D01*
X86132858Y-61284268D02*
X86161429Y-61227125D01*
X86161429Y-61227125D02*
X86218572Y-61169982D01*
X86218572Y-61169982D02*
X86304286Y-61141411D01*
X86304286Y-61141411D02*
X86361429Y-61141411D01*
X86361429Y-61141411D02*
X86447143Y-61169982D01*
X86447143Y-61169982D02*
X86475715Y-61198554D01*
X86732858Y-61141411D02*
X86732858Y-61627125D01*
X86732858Y-61627125D02*
X86761429Y-61684268D01*
X86761429Y-61684268D02*
X86790001Y-61712840D01*
X86790001Y-61712840D02*
X86847143Y-61741411D01*
X86847143Y-61741411D02*
X86961429Y-61741411D01*
X86961429Y-61741411D02*
X87018572Y-61712840D01*
X87018572Y-61712840D02*
X87047143Y-61684268D01*
X87047143Y-61684268D02*
X87075715Y-61627125D01*
X87075715Y-61627125D02*
X87075715Y-61141411D01*
X87361429Y-61741411D02*
X87361429Y-61141411D01*
X87361429Y-61141411D02*
X87561429Y-61569982D01*
X87561429Y-61569982D02*
X87761429Y-61141411D01*
X87761429Y-61141411D02*
X87761429Y-61741411D01*
X82934285Y-73869982D02*
X82877143Y-73841411D01*
X82877143Y-73841411D02*
X82791428Y-73841411D01*
X82791428Y-73841411D02*
X82705714Y-73869982D01*
X82705714Y-73869982D02*
X82648571Y-73927125D01*
X82648571Y-73927125D02*
X82620000Y-73984268D01*
X82620000Y-73984268D02*
X82591428Y-74098554D01*
X82591428Y-74098554D02*
X82591428Y-74184268D01*
X82591428Y-74184268D02*
X82620000Y-74298554D01*
X82620000Y-74298554D02*
X82648571Y-74355697D01*
X82648571Y-74355697D02*
X82705714Y-74412840D01*
X82705714Y-74412840D02*
X82791428Y-74441411D01*
X82791428Y-74441411D02*
X82848571Y-74441411D01*
X82848571Y-74441411D02*
X82934285Y-74412840D01*
X82934285Y-74412840D02*
X82962857Y-74384268D01*
X82962857Y-74384268D02*
X82962857Y-74184268D01*
X82962857Y-74184268D02*
X82848571Y-74184268D01*
X83220000Y-74441411D02*
X83220000Y-73841411D01*
X83220000Y-73841411D02*
X83448571Y-73841411D01*
X83448571Y-73841411D02*
X83505714Y-73869982D01*
X83505714Y-73869982D02*
X83534285Y-73898554D01*
X83534285Y-73898554D02*
X83562857Y-73955697D01*
X83562857Y-73955697D02*
X83562857Y-74041411D01*
X83562857Y-74041411D02*
X83534285Y-74098554D01*
X83534285Y-74098554D02*
X83505714Y-74127125D01*
X83505714Y-74127125D02*
X83448571Y-74155697D01*
X83448571Y-74155697D02*
X83220000Y-74155697D01*
X83820000Y-74441411D02*
X83820000Y-73841411D01*
X84219999Y-73841411D02*
X84334285Y-73841411D01*
X84334285Y-73841411D02*
X84391428Y-73869982D01*
X84391428Y-73869982D02*
X84448571Y-73927125D01*
X84448571Y-73927125D02*
X84477142Y-74041411D01*
X84477142Y-74041411D02*
X84477142Y-74241411D01*
X84477142Y-74241411D02*
X84448571Y-74355697D01*
X84448571Y-74355697D02*
X84391428Y-74412840D01*
X84391428Y-74412840D02*
X84334285Y-74441411D01*
X84334285Y-74441411D02*
X84219999Y-74441411D01*
X84219999Y-74441411D02*
X84162857Y-74412840D01*
X84162857Y-74412840D02*
X84105714Y-74355697D01*
X84105714Y-74355697D02*
X84077142Y-74241411D01*
X84077142Y-74241411D02*
X84077142Y-74041411D01*
X84077142Y-74041411D02*
X84105714Y-73927125D01*
X84105714Y-73927125D02*
X84162857Y-73869982D01*
X84162857Y-73869982D02*
X84219999Y-73841411D01*
X84677142Y-73841411D02*
X85048570Y-73841411D01*
X85048570Y-73841411D02*
X84848570Y-74069982D01*
X84848570Y-74069982D02*
X84934285Y-74069982D01*
X84934285Y-74069982D02*
X84991428Y-74098554D01*
X84991428Y-74098554D02*
X85019999Y-74127125D01*
X85019999Y-74127125D02*
X85048570Y-74184268D01*
X85048570Y-74184268D02*
X85048570Y-74327125D01*
X85048570Y-74327125D02*
X85019999Y-74384268D01*
X85019999Y-74384268D02*
X84991428Y-74412840D01*
X84991428Y-74412840D02*
X84934285Y-74441411D01*
X84934285Y-74441411D02*
X84762856Y-74441411D01*
X84762856Y-74441411D02*
X84705713Y-74412840D01*
X84705713Y-74412840D02*
X84677142Y-74384268D01*
X82934285Y-68789982D02*
X82877143Y-68761411D01*
X82877143Y-68761411D02*
X82791428Y-68761411D01*
X82791428Y-68761411D02*
X82705714Y-68789982D01*
X82705714Y-68789982D02*
X82648571Y-68847125D01*
X82648571Y-68847125D02*
X82620000Y-68904268D01*
X82620000Y-68904268D02*
X82591428Y-69018554D01*
X82591428Y-69018554D02*
X82591428Y-69104268D01*
X82591428Y-69104268D02*
X82620000Y-69218554D01*
X82620000Y-69218554D02*
X82648571Y-69275697D01*
X82648571Y-69275697D02*
X82705714Y-69332840D01*
X82705714Y-69332840D02*
X82791428Y-69361411D01*
X82791428Y-69361411D02*
X82848571Y-69361411D01*
X82848571Y-69361411D02*
X82934285Y-69332840D01*
X82934285Y-69332840D02*
X82962857Y-69304268D01*
X82962857Y-69304268D02*
X82962857Y-69104268D01*
X82962857Y-69104268D02*
X82848571Y-69104268D01*
X83220000Y-69361411D02*
X83220000Y-68761411D01*
X83220000Y-68761411D02*
X83448571Y-68761411D01*
X83448571Y-68761411D02*
X83505714Y-68789982D01*
X83505714Y-68789982D02*
X83534285Y-68818554D01*
X83534285Y-68818554D02*
X83562857Y-68875697D01*
X83562857Y-68875697D02*
X83562857Y-68961411D01*
X83562857Y-68961411D02*
X83534285Y-69018554D01*
X83534285Y-69018554D02*
X83505714Y-69047125D01*
X83505714Y-69047125D02*
X83448571Y-69075697D01*
X83448571Y-69075697D02*
X83220000Y-69075697D01*
X83820000Y-69361411D02*
X83820000Y-68761411D01*
X84219999Y-68761411D02*
X84334285Y-68761411D01*
X84334285Y-68761411D02*
X84391428Y-68789982D01*
X84391428Y-68789982D02*
X84448571Y-68847125D01*
X84448571Y-68847125D02*
X84477142Y-68961411D01*
X84477142Y-68961411D02*
X84477142Y-69161411D01*
X84477142Y-69161411D02*
X84448571Y-69275697D01*
X84448571Y-69275697D02*
X84391428Y-69332840D01*
X84391428Y-69332840D02*
X84334285Y-69361411D01*
X84334285Y-69361411D02*
X84219999Y-69361411D01*
X84219999Y-69361411D02*
X84162857Y-69332840D01*
X84162857Y-69332840D02*
X84105714Y-69275697D01*
X84105714Y-69275697D02*
X84077142Y-69161411D01*
X84077142Y-69161411D02*
X84077142Y-68961411D01*
X84077142Y-68961411D02*
X84105714Y-68847125D01*
X84105714Y-68847125D02*
X84162857Y-68789982D01*
X84162857Y-68789982D02*
X84219999Y-68761411D01*
X84677142Y-68761411D02*
X85077142Y-68761411D01*
X85077142Y-68761411D02*
X84819999Y-69361411D01*
X85902857Y-51771982D02*
X85845715Y-51743411D01*
X85845715Y-51743411D02*
X85760000Y-51743411D01*
X85760000Y-51743411D02*
X85674286Y-51771982D01*
X85674286Y-51771982D02*
X85617143Y-51829125D01*
X85617143Y-51829125D02*
X85588572Y-51886268D01*
X85588572Y-51886268D02*
X85560000Y-52000554D01*
X85560000Y-52000554D02*
X85560000Y-52086268D01*
X85560000Y-52086268D02*
X85588572Y-52200554D01*
X85588572Y-52200554D02*
X85617143Y-52257697D01*
X85617143Y-52257697D02*
X85674286Y-52314840D01*
X85674286Y-52314840D02*
X85760000Y-52343411D01*
X85760000Y-52343411D02*
X85817143Y-52343411D01*
X85817143Y-52343411D02*
X85902857Y-52314840D01*
X85902857Y-52314840D02*
X85931429Y-52286268D01*
X85931429Y-52286268D02*
X85931429Y-52086268D01*
X85931429Y-52086268D02*
X85817143Y-52086268D01*
X86188572Y-52343411D02*
X86188572Y-51743411D01*
X86188572Y-51743411D02*
X86531429Y-52343411D01*
X86531429Y-52343411D02*
X86531429Y-51743411D01*
X86817143Y-52343411D02*
X86817143Y-51743411D01*
X86817143Y-51743411D02*
X86960000Y-51743411D01*
X86960000Y-51743411D02*
X87045714Y-51771982D01*
X87045714Y-51771982D02*
X87102857Y-51829125D01*
X87102857Y-51829125D02*
X87131428Y-51886268D01*
X87131428Y-51886268D02*
X87160000Y-52000554D01*
X87160000Y-52000554D02*
X87160000Y-52086268D01*
X87160000Y-52086268D02*
X87131428Y-52200554D01*
X87131428Y-52200554D02*
X87102857Y-52257697D01*
X87102857Y-52257697D02*
X87045714Y-52314840D01*
X87045714Y-52314840D02*
X86960000Y-52343411D01*
X86960000Y-52343411D02*
X86817143Y-52343411D01*
X91935429Y-75990411D02*
X91935429Y-75390411D01*
X91935429Y-75676125D02*
X92278286Y-75676125D01*
X92278286Y-75990411D02*
X92278286Y-75390411D01*
X92535428Y-75818982D02*
X92821143Y-75818982D01*
X92478285Y-75990411D02*
X92678285Y-75390411D01*
X92678285Y-75390411D02*
X92878285Y-75990411D01*
X93421143Y-75990411D02*
X93221143Y-75704697D01*
X93078286Y-75990411D02*
X93078286Y-75390411D01*
X93078286Y-75390411D02*
X93306857Y-75390411D01*
X93306857Y-75390411D02*
X93364000Y-75418982D01*
X93364000Y-75418982D02*
X93392571Y-75447554D01*
X93392571Y-75447554D02*
X93421143Y-75504697D01*
X93421143Y-75504697D02*
X93421143Y-75590411D01*
X93421143Y-75590411D02*
X93392571Y-75647554D01*
X93392571Y-75647554D02*
X93364000Y-75676125D01*
X93364000Y-75676125D02*
X93306857Y-75704697D01*
X93306857Y-75704697D02*
X93078286Y-75704697D01*
X93678286Y-75990411D02*
X93678286Y-75390411D01*
X93678286Y-75390411D02*
X93821143Y-75390411D01*
X93821143Y-75390411D02*
X93906857Y-75418982D01*
X93906857Y-75418982D02*
X93964000Y-75476125D01*
X93964000Y-75476125D02*
X93992571Y-75533268D01*
X93992571Y-75533268D02*
X94021143Y-75647554D01*
X94021143Y-75647554D02*
X94021143Y-75733268D01*
X94021143Y-75733268D02*
X93992571Y-75847554D01*
X93992571Y-75847554D02*
X93964000Y-75904697D01*
X93964000Y-75904697D02*
X93906857Y-75961840D01*
X93906857Y-75961840D02*
X93821143Y-75990411D01*
X93821143Y-75990411D02*
X93678286Y-75990411D01*
X92092571Y-76956411D02*
X91892571Y-76670697D01*
X91749714Y-76956411D02*
X91749714Y-76356411D01*
X91749714Y-76356411D02*
X91978285Y-76356411D01*
X91978285Y-76356411D02*
X92035428Y-76384982D01*
X92035428Y-76384982D02*
X92063999Y-76413554D01*
X92063999Y-76413554D02*
X92092571Y-76470697D01*
X92092571Y-76470697D02*
X92092571Y-76556411D01*
X92092571Y-76556411D02*
X92063999Y-76613554D01*
X92063999Y-76613554D02*
X92035428Y-76642125D01*
X92035428Y-76642125D02*
X91978285Y-76670697D01*
X91978285Y-76670697D02*
X91749714Y-76670697D01*
X92349714Y-76642125D02*
X92549714Y-76642125D01*
X92635428Y-76956411D02*
X92349714Y-76956411D01*
X92349714Y-76956411D02*
X92349714Y-76356411D01*
X92349714Y-76356411D02*
X92635428Y-76356411D01*
X92863999Y-76927840D02*
X92949714Y-76956411D01*
X92949714Y-76956411D02*
X93092571Y-76956411D01*
X93092571Y-76956411D02*
X93149714Y-76927840D01*
X93149714Y-76927840D02*
X93178285Y-76899268D01*
X93178285Y-76899268D02*
X93206856Y-76842125D01*
X93206856Y-76842125D02*
X93206856Y-76784982D01*
X93206856Y-76784982D02*
X93178285Y-76727840D01*
X93178285Y-76727840D02*
X93149714Y-76699268D01*
X93149714Y-76699268D02*
X93092571Y-76670697D01*
X93092571Y-76670697D02*
X92978285Y-76642125D01*
X92978285Y-76642125D02*
X92921142Y-76613554D01*
X92921142Y-76613554D02*
X92892571Y-76584982D01*
X92892571Y-76584982D02*
X92863999Y-76527840D01*
X92863999Y-76527840D02*
X92863999Y-76470697D01*
X92863999Y-76470697D02*
X92892571Y-76413554D01*
X92892571Y-76413554D02*
X92921142Y-76384982D01*
X92921142Y-76384982D02*
X92978285Y-76356411D01*
X92978285Y-76356411D02*
X93121142Y-76356411D01*
X93121142Y-76356411D02*
X93206856Y-76384982D01*
X93464000Y-76642125D02*
X93664000Y-76642125D01*
X93749714Y-76956411D02*
X93464000Y-76956411D01*
X93464000Y-76956411D02*
X93464000Y-76356411D01*
X93464000Y-76356411D02*
X93749714Y-76356411D01*
X93921142Y-76356411D02*
X94264000Y-76356411D01*
X94092571Y-76956411D02*
X94092571Y-76356411D01*
X82902571Y-66249982D02*
X82845429Y-66221411D01*
X82845429Y-66221411D02*
X82759714Y-66221411D01*
X82759714Y-66221411D02*
X82674000Y-66249982D01*
X82674000Y-66249982D02*
X82616857Y-66307125D01*
X82616857Y-66307125D02*
X82588286Y-66364268D01*
X82588286Y-66364268D02*
X82559714Y-66478554D01*
X82559714Y-66478554D02*
X82559714Y-66564268D01*
X82559714Y-66564268D02*
X82588286Y-66678554D01*
X82588286Y-66678554D02*
X82616857Y-66735697D01*
X82616857Y-66735697D02*
X82674000Y-66792840D01*
X82674000Y-66792840D02*
X82759714Y-66821411D01*
X82759714Y-66821411D02*
X82816857Y-66821411D01*
X82816857Y-66821411D02*
X82902571Y-66792840D01*
X82902571Y-66792840D02*
X82931143Y-66764268D01*
X82931143Y-66764268D02*
X82931143Y-66564268D01*
X82931143Y-66564268D02*
X82816857Y-66564268D01*
X83188286Y-66821411D02*
X83188286Y-66221411D01*
X83188286Y-66221411D02*
X83416857Y-66221411D01*
X83416857Y-66221411D02*
X83474000Y-66249982D01*
X83474000Y-66249982D02*
X83502571Y-66278554D01*
X83502571Y-66278554D02*
X83531143Y-66335697D01*
X83531143Y-66335697D02*
X83531143Y-66421411D01*
X83531143Y-66421411D02*
X83502571Y-66478554D01*
X83502571Y-66478554D02*
X83474000Y-66507125D01*
X83474000Y-66507125D02*
X83416857Y-66535697D01*
X83416857Y-66535697D02*
X83188286Y-66535697D01*
X83788286Y-66821411D02*
X83788286Y-66221411D01*
X84188285Y-66221411D02*
X84302571Y-66221411D01*
X84302571Y-66221411D02*
X84359714Y-66249982D01*
X84359714Y-66249982D02*
X84416857Y-66307125D01*
X84416857Y-66307125D02*
X84445428Y-66421411D01*
X84445428Y-66421411D02*
X84445428Y-66621411D01*
X84445428Y-66621411D02*
X84416857Y-66735697D01*
X84416857Y-66735697D02*
X84359714Y-66792840D01*
X84359714Y-66792840D02*
X84302571Y-66821411D01*
X84302571Y-66821411D02*
X84188285Y-66821411D01*
X84188285Y-66821411D02*
X84131143Y-66792840D01*
X84131143Y-66792840D02*
X84074000Y-66735697D01*
X84074000Y-66735697D02*
X84045428Y-66621411D01*
X84045428Y-66621411D02*
X84045428Y-66421411D01*
X84045428Y-66421411D02*
X84074000Y-66307125D01*
X84074000Y-66307125D02*
X84131143Y-66249982D01*
X84131143Y-66249982D02*
X84188285Y-66221411D01*
X85016856Y-66821411D02*
X84673999Y-66821411D01*
X84845428Y-66821411D02*
X84845428Y-66221411D01*
X84845428Y-66221411D02*
X84788285Y-66307125D01*
X84788285Y-66307125D02*
X84731142Y-66364268D01*
X84731142Y-66364268D02*
X84673999Y-66392840D01*
X85216857Y-66221411D02*
X85588285Y-66221411D01*
X85588285Y-66221411D02*
X85388285Y-66449982D01*
X85388285Y-66449982D02*
X85474000Y-66449982D01*
X85474000Y-66449982D02*
X85531143Y-66478554D01*
X85531143Y-66478554D02*
X85559714Y-66507125D01*
X85559714Y-66507125D02*
X85588285Y-66564268D01*
X85588285Y-66564268D02*
X85588285Y-66707125D01*
X85588285Y-66707125D02*
X85559714Y-66764268D01*
X85559714Y-66764268D02*
X85531143Y-66792840D01*
X85531143Y-66792840D02*
X85474000Y-66821411D01*
X85474000Y-66821411D02*
X85302571Y-66821411D01*
X85302571Y-66821411D02*
X85245428Y-66792840D01*
X85245428Y-66792840D02*
X85216857Y-66764268D01*
X102482857Y-76667125D02*
X102682857Y-76667125D01*
X102768571Y-76981411D02*
X102482857Y-76981411D01*
X102482857Y-76981411D02*
X102482857Y-76381411D01*
X102482857Y-76381411D02*
X102768571Y-76381411D01*
X102968571Y-76381411D02*
X103368571Y-76981411D01*
X103368571Y-76381411D02*
X102968571Y-76981411D01*
X103511428Y-76381411D02*
X103854286Y-76381411D01*
X103682857Y-76981411D02*
X103682857Y-76381411D01*
X103911429Y-77038554D02*
X104368571Y-77038554D01*
X104711429Y-76667125D02*
X104797143Y-76695697D01*
X104797143Y-76695697D02*
X104825714Y-76724268D01*
X104825714Y-76724268D02*
X104854286Y-76781411D01*
X104854286Y-76781411D02*
X104854286Y-76867125D01*
X104854286Y-76867125D02*
X104825714Y-76924268D01*
X104825714Y-76924268D02*
X104797143Y-76952840D01*
X104797143Y-76952840D02*
X104740000Y-76981411D01*
X104740000Y-76981411D02*
X104511429Y-76981411D01*
X104511429Y-76981411D02*
X104511429Y-76381411D01*
X104511429Y-76381411D02*
X104711429Y-76381411D01*
X104711429Y-76381411D02*
X104768572Y-76409982D01*
X104768572Y-76409982D02*
X104797143Y-76438554D01*
X104797143Y-76438554D02*
X104825714Y-76495697D01*
X104825714Y-76495697D02*
X104825714Y-76552840D01*
X104825714Y-76552840D02*
X104797143Y-76609982D01*
X104797143Y-76609982D02*
X104768572Y-76638554D01*
X104768572Y-76638554D02*
X104711429Y-76667125D01*
X104711429Y-76667125D02*
X104511429Y-76667125D01*
X105082857Y-76809982D02*
X105368572Y-76809982D01*
X105025714Y-76981411D02*
X105225714Y-76381411D01*
X105225714Y-76381411D02*
X105425714Y-76981411D01*
X105540000Y-76381411D02*
X105882858Y-76381411D01*
X105711429Y-76981411D02*
X105711429Y-76381411D01*
X96294857Y-64189411D02*
X96666285Y-64189411D01*
X96666285Y-64189411D02*
X96466285Y-64417982D01*
X96466285Y-64417982D02*
X96552000Y-64417982D01*
X96552000Y-64417982D02*
X96609143Y-64446554D01*
X96609143Y-64446554D02*
X96637714Y-64475125D01*
X96637714Y-64475125D02*
X96666285Y-64532268D01*
X96666285Y-64532268D02*
X96666285Y-64675125D01*
X96666285Y-64675125D02*
X96637714Y-64732268D01*
X96637714Y-64732268D02*
X96609143Y-64760840D01*
X96609143Y-64760840D02*
X96552000Y-64789411D01*
X96552000Y-64789411D02*
X96380571Y-64789411D01*
X96380571Y-64789411D02*
X96323428Y-64760840D01*
X96323428Y-64760840D02*
X96294857Y-64732268D01*
X96866286Y-64189411D02*
X97009143Y-64789411D01*
X97009143Y-64789411D02*
X97123429Y-64360840D01*
X97123429Y-64360840D02*
X97237714Y-64789411D01*
X97237714Y-64789411D02*
X97380572Y-64189411D01*
X97809143Y-64475125D02*
X97894857Y-64503697D01*
X97894857Y-64503697D02*
X97923428Y-64532268D01*
X97923428Y-64532268D02*
X97952000Y-64589411D01*
X97952000Y-64589411D02*
X97952000Y-64675125D01*
X97952000Y-64675125D02*
X97923428Y-64732268D01*
X97923428Y-64732268D02*
X97894857Y-64760840D01*
X97894857Y-64760840D02*
X97837714Y-64789411D01*
X97837714Y-64789411D02*
X97609143Y-64789411D01*
X97609143Y-64789411D02*
X97609143Y-64189411D01*
X97609143Y-64189411D02*
X97809143Y-64189411D01*
X97809143Y-64189411D02*
X97866286Y-64217982D01*
X97866286Y-64217982D02*
X97894857Y-64246554D01*
X97894857Y-64246554D02*
X97923428Y-64303697D01*
X97923428Y-64303697D02*
X97923428Y-64360840D01*
X97923428Y-64360840D02*
X97894857Y-64417982D01*
X97894857Y-64417982D02*
X97866286Y-64446554D01*
X97866286Y-64446554D02*
X97809143Y-64475125D01*
X97809143Y-64475125D02*
X97609143Y-64475125D01*
X98666286Y-64789411D02*
X98666286Y-64189411D01*
X98666286Y-64189411D02*
X98894857Y-64189411D01*
X98894857Y-64189411D02*
X98952000Y-64217982D01*
X98952000Y-64217982D02*
X98980571Y-64246554D01*
X98980571Y-64246554D02*
X99009143Y-64303697D01*
X99009143Y-64303697D02*
X99009143Y-64389411D01*
X99009143Y-64389411D02*
X98980571Y-64446554D01*
X98980571Y-64446554D02*
X98952000Y-64475125D01*
X98952000Y-64475125D02*
X98894857Y-64503697D01*
X98894857Y-64503697D02*
X98666286Y-64503697D01*
X99266286Y-64789411D02*
X99266286Y-64389411D01*
X99266286Y-64189411D02*
X99237714Y-64217982D01*
X99237714Y-64217982D02*
X99266286Y-64246554D01*
X99266286Y-64246554D02*
X99294857Y-64217982D01*
X99294857Y-64217982D02*
X99266286Y-64189411D01*
X99266286Y-64189411D02*
X99266286Y-64246554D01*
X99552000Y-64389411D02*
X99552000Y-64789411D01*
X99552000Y-64446554D02*
X99580571Y-64417982D01*
X99580571Y-64417982D02*
X99637714Y-64389411D01*
X99637714Y-64389411D02*
X99723428Y-64389411D01*
X99723428Y-64389411D02*
X99780571Y-64417982D01*
X99780571Y-64417982D02*
X99809143Y-64475125D01*
X99809143Y-64475125D02*
X99809143Y-64789411D01*
X100066285Y-64760840D02*
X100123428Y-64789411D01*
X100123428Y-64789411D02*
X100237714Y-64789411D01*
X100237714Y-64789411D02*
X100294857Y-64760840D01*
X100294857Y-64760840D02*
X100323428Y-64703697D01*
X100323428Y-64703697D02*
X100323428Y-64675125D01*
X100323428Y-64675125D02*
X100294857Y-64617982D01*
X100294857Y-64617982D02*
X100237714Y-64589411D01*
X100237714Y-64589411D02*
X100152000Y-64589411D01*
X100152000Y-64589411D02*
X100094857Y-64560840D01*
X100094857Y-64560840D02*
X100066285Y-64503697D01*
X100066285Y-64503697D02*
X100066285Y-64475125D01*
X100066285Y-64475125D02*
X100094857Y-64417982D01*
X100094857Y-64417982D02*
X100152000Y-64389411D01*
X100152000Y-64389411D02*
X100237714Y-64389411D01*
X100237714Y-64389411D02*
X100294857Y-64417982D01*
D12*
X87074819Y-84661333D02*
X87789104Y-84661333D01*
X87789104Y-84661333D02*
X87931961Y-84708952D01*
X87931961Y-84708952D02*
X88027200Y-84804190D01*
X88027200Y-84804190D02*
X88074819Y-84947047D01*
X88074819Y-84947047D02*
X88074819Y-85042285D01*
X87074819Y-83708952D02*
X87074819Y-84185142D01*
X87074819Y-84185142D02*
X87551009Y-84232761D01*
X87551009Y-84232761D02*
X87503390Y-84185142D01*
X87503390Y-84185142D02*
X87455771Y-84089904D01*
X87455771Y-84089904D02*
X87455771Y-83851809D01*
X87455771Y-83851809D02*
X87503390Y-83756571D01*
X87503390Y-83756571D02*
X87551009Y-83708952D01*
X87551009Y-83708952D02*
X87646247Y-83661333D01*
X87646247Y-83661333D02*
X87884342Y-83661333D01*
X87884342Y-83661333D02*
X87979580Y-83708952D01*
X87979580Y-83708952D02*
X88027200Y-83756571D01*
X88027200Y-83756571D02*
X88074819Y-83851809D01*
X88074819Y-83851809D02*
X88074819Y-84089904D01*
X88074819Y-84089904D02*
X88027200Y-84185142D01*
X88027200Y-84185142D02*
X87979580Y-84232761D01*
X110198819Y-77295333D02*
X110913104Y-77295333D01*
X110913104Y-77295333D02*
X111055961Y-77342952D01*
X111055961Y-77342952D02*
X111151200Y-77438190D01*
X111151200Y-77438190D02*
X111198819Y-77581047D01*
X111198819Y-77581047D02*
X111198819Y-77676285D01*
X110294057Y-76866761D02*
X110246438Y-76819142D01*
X110246438Y-76819142D02*
X110198819Y-76723904D01*
X110198819Y-76723904D02*
X110198819Y-76485809D01*
X110198819Y-76485809D02*
X110246438Y-76390571D01*
X110246438Y-76390571D02*
X110294057Y-76342952D01*
X110294057Y-76342952D02*
X110389295Y-76295333D01*
X110389295Y-76295333D02*
X110484533Y-76295333D01*
X110484533Y-76295333D02*
X110627390Y-76342952D01*
X110627390Y-76342952D02*
X111198819Y-76914380D01*
X111198819Y-76914380D02*
X111198819Y-76295333D01*
X76924819Y-77041333D02*
X77639104Y-77041333D01*
X77639104Y-77041333D02*
X77781961Y-77088952D01*
X77781961Y-77088952D02*
X77877200Y-77184190D01*
X77877200Y-77184190D02*
X77924819Y-77327047D01*
X77924819Y-77327047D02*
X77924819Y-77422285D01*
X76924819Y-76660380D02*
X76924819Y-75993714D01*
X76924819Y-75993714D02*
X77924819Y-76422285D01*
X91360666Y-54318819D02*
X91360666Y-55033104D01*
X91360666Y-55033104D02*
X91313047Y-55175961D01*
X91313047Y-55175961D02*
X91217809Y-55271200D01*
X91217809Y-55271200D02*
X91074952Y-55318819D01*
X91074952Y-55318819D02*
X90979714Y-55318819D01*
X92360666Y-55318819D02*
X91789238Y-55318819D01*
X92074952Y-55318819D02*
X92074952Y-54318819D01*
X92074952Y-54318819D02*
X91979714Y-54461676D01*
X91979714Y-54461676D02*
X91884476Y-54556914D01*
X91884476Y-54556914D02*
X91789238Y-54604533D01*
X73622819Y-76025333D02*
X74337104Y-76025333D01*
X74337104Y-76025333D02*
X74479961Y-76072952D01*
X74479961Y-76072952D02*
X74575200Y-76168190D01*
X74575200Y-76168190D02*
X74622819Y-76311047D01*
X74622819Y-76311047D02*
X74622819Y-76406285D01*
X73622819Y-75120571D02*
X73622819Y-75311047D01*
X73622819Y-75311047D02*
X73670438Y-75406285D01*
X73670438Y-75406285D02*
X73718057Y-75453904D01*
X73718057Y-75453904D02*
X73860914Y-75549142D01*
X73860914Y-75549142D02*
X74051390Y-75596761D01*
X74051390Y-75596761D02*
X74432342Y-75596761D01*
X74432342Y-75596761D02*
X74527580Y-75549142D01*
X74527580Y-75549142D02*
X74575200Y-75501523D01*
X74575200Y-75501523D02*
X74622819Y-75406285D01*
X74622819Y-75406285D02*
X74622819Y-75215809D01*
X74622819Y-75215809D02*
X74575200Y-75120571D01*
X74575200Y-75120571D02*
X74527580Y-75072952D01*
X74527580Y-75072952D02*
X74432342Y-75025333D01*
X74432342Y-75025333D02*
X74194247Y-75025333D01*
X74194247Y-75025333D02*
X74099009Y-75072952D01*
X74099009Y-75072952D02*
X74051390Y-75120571D01*
X74051390Y-75120571D02*
X74003771Y-75215809D01*
X74003771Y-75215809D02*
X74003771Y-75406285D01*
X74003771Y-75406285D02*
X74051390Y-75501523D01*
X74051390Y-75501523D02*
X74099009Y-75549142D01*
X74099009Y-75549142D02*
X74194247Y-75596761D01*
X80184666Y-54064819D02*
X80184666Y-54779104D01*
X80184666Y-54779104D02*
X80137047Y-54921961D01*
X80137047Y-54921961D02*
X80041809Y-55017200D01*
X80041809Y-55017200D02*
X79898952Y-55064819D01*
X79898952Y-55064819D02*
X79803714Y-55064819D01*
X81089428Y-54398152D02*
X81089428Y-55064819D01*
X80851333Y-54017200D02*
X80613238Y-54731485D01*
X80613238Y-54731485D02*
X81232285Y-54731485D01*
X89963666Y-80988819D02*
X89963666Y-81703104D01*
X89963666Y-81703104D02*
X89916047Y-81845961D01*
X89916047Y-81845961D02*
X89820809Y-81941200D01*
X89820809Y-81941200D02*
X89677952Y-81988819D01*
X89677952Y-81988819D02*
X89582714Y-81988819D01*
X90344619Y-80988819D02*
X90963666Y-80988819D01*
X90963666Y-80988819D02*
X90630333Y-81369771D01*
X90630333Y-81369771D02*
X90773190Y-81369771D01*
X90773190Y-81369771D02*
X90868428Y-81417390D01*
X90868428Y-81417390D02*
X90916047Y-81465009D01*
X90916047Y-81465009D02*
X90963666Y-81560247D01*
X90963666Y-81560247D02*
X90963666Y-81798342D01*
X90963666Y-81798342D02*
X90916047Y-81893580D01*
X90916047Y-81893580D02*
X90868428Y-81941200D01*
X90868428Y-81941200D02*
X90773190Y-81988819D01*
X90773190Y-81988819D02*
X90487476Y-81988819D01*
X90487476Y-81988819D02*
X90392238Y-81941200D01*
X90392238Y-81941200D02*
X90344619Y-81893580D01*
X92656819Y-69762666D02*
X92180628Y-70095999D01*
X92656819Y-70334094D02*
X91656819Y-70334094D01*
X91656819Y-70334094D02*
X91656819Y-69953142D01*
X91656819Y-69953142D02*
X91704438Y-69857904D01*
X91704438Y-69857904D02*
X91752057Y-69810285D01*
X91752057Y-69810285D02*
X91847295Y-69762666D01*
X91847295Y-69762666D02*
X91990152Y-69762666D01*
X91990152Y-69762666D02*
X92085390Y-69810285D01*
X92085390Y-69810285D02*
X92133009Y-69857904D01*
X92133009Y-69857904D02*
X92180628Y-69953142D01*
X92180628Y-69953142D02*
X92180628Y-70334094D01*
X92656819Y-68810285D02*
X92656819Y-69381713D01*
X92656819Y-69095999D02*
X91656819Y-69095999D01*
X91656819Y-69095999D02*
X91799676Y-69191237D01*
X91799676Y-69191237D02*
X91894914Y-69286475D01*
X91894914Y-69286475D02*
X91942533Y-69381713D01*
X93418819Y-67286094D02*
X92418819Y-67286094D01*
X92418819Y-67286094D02*
X92418819Y-67047999D01*
X92418819Y-67047999D02*
X92466438Y-66905142D01*
X92466438Y-66905142D02*
X92561676Y-66809904D01*
X92561676Y-66809904D02*
X92656914Y-66762285D01*
X92656914Y-66762285D02*
X92847390Y-66714666D01*
X92847390Y-66714666D02*
X92990247Y-66714666D01*
X92990247Y-66714666D02*
X93180723Y-66762285D01*
X93180723Y-66762285D02*
X93275961Y-66809904D01*
X93275961Y-66809904D02*
X93371200Y-66905142D01*
X93371200Y-66905142D02*
X93418819Y-67047999D01*
X93418819Y-67047999D02*
X93418819Y-67286094D01*
X93418819Y-65762285D02*
X93418819Y-66333713D01*
X93418819Y-66047999D02*
X92418819Y-66047999D01*
X92418819Y-66047999D02*
X92561676Y-66143237D01*
X92561676Y-66143237D02*
X92656914Y-66238475D01*
X92656914Y-66238475D02*
X92704533Y-66333713D01*
%TO.C,TP12*%
X110970000Y-83058000D02*
G75*
G03*
X110970000Y-83058000I-1750000J0D01*
G01*
D13*
%TO.C,J5*%
X88950000Y-82864000D02*
X87620000Y-82864000D01*
X88950000Y-81534000D02*
X88950000Y-82864000D01*
X88950000Y-80264000D02*
X88950000Y-77664000D01*
X88950000Y-80264000D02*
X86290000Y-80264000D01*
X88950000Y-77664000D02*
X86290000Y-77664000D01*
X86290000Y-80264000D02*
X86290000Y-77664000D01*
%TO.C,TP5*%
X96966000Y-65594000D02*
X96966000Y-66994000D01*
X95566000Y-65594000D02*
X96966000Y-65594000D01*
X96966000Y-66994000D02*
X95566000Y-66994000D01*
X95566000Y-66994000D02*
X95566000Y-65594000D01*
%TO.C,J2*%
X109407000Y-78038000D02*
X108077000Y-78038000D01*
X109407000Y-76708000D02*
X109407000Y-78038000D01*
X109407000Y-75438000D02*
X109407000Y-57598000D01*
X109407000Y-75438000D02*
X106747000Y-75438000D01*
X109407000Y-57598000D02*
X106747000Y-57598000D01*
X106747000Y-75438000D02*
X106747000Y-57598000D01*
%TO.C,TP6*%
X99630000Y-60006000D02*
X101030000Y-60006000D01*
X99630000Y-61406000D02*
X99630000Y-60006000D01*
X101030000Y-60006000D02*
X101030000Y-61406000D01*
X101030000Y-61406000D02*
X99630000Y-61406000D01*
%TO.C,J7*%
X81594000Y-78038000D02*
X80264000Y-78038000D01*
X81594000Y-76708000D02*
X81594000Y-78038000D01*
X81594000Y-75438000D02*
X81594000Y-57598000D01*
X81594000Y-75438000D02*
X78934000Y-75438000D01*
X81594000Y-57598000D02*
X78934000Y-57598000D01*
X78934000Y-75438000D02*
X78934000Y-57598000D01*
%TO.C,TP8*%
X90108000Y-61406000D02*
X88708000Y-61406000D01*
X90108000Y-60006000D02*
X90108000Y-61406000D01*
X88708000Y-61406000D02*
X88708000Y-60006000D01*
X88708000Y-60006000D02*
X90108000Y-60006000D01*
%TO.C,J1*%
X92862000Y-56414000D02*
X92862000Y-55414000D01*
X92862000Y-56414000D02*
X93862000Y-56414000D01*
X93152000Y-52704000D02*
X93152000Y-56124000D01*
X93152000Y-56124000D02*
X105122000Y-56124000D01*
X93462000Y-54064000D02*
X93662000Y-54064000D01*
X93462000Y-54864000D02*
X93462000Y-54064000D01*
X93662000Y-53214000D02*
X99137000Y-53214000D01*
X93662000Y-54064000D02*
X93662000Y-53214000D01*
X93662000Y-54864000D02*
X93462000Y-54864000D01*
X93662000Y-55614000D02*
X93662000Y-54864000D01*
X99137000Y-55614000D02*
X93662000Y-55614000D01*
X99137000Y-55614000D02*
X104612000Y-55614000D01*
X104612000Y-53214000D02*
X99137000Y-53214000D01*
X104612000Y-54064000D02*
X104612000Y-53214000D01*
X104612000Y-54864000D02*
X104812000Y-54864000D01*
X104612000Y-55614000D02*
X104612000Y-54864000D01*
X104812000Y-54064000D02*
X104612000Y-54064000D01*
X104812000Y-54864000D02*
X104812000Y-54064000D01*
X105122000Y-52704000D02*
X93152000Y-52704000D01*
X105122000Y-56124000D02*
X105122000Y-52704000D01*
D12*
%TO.C,TP9*%
X74902000Y-53340000D02*
G75*
G03*
X74902000Y-53340000I-1750000J0D01*
G01*
%TO.C,TP11*%
X110970000Y-53340000D02*
G75*
G03*
X110970000Y-53340000I-1750000J0D01*
G01*
D13*
%TO.C,TP3*%
X95566000Y-70166000D02*
X96966000Y-70166000D01*
X95566000Y-71566000D02*
X95566000Y-70166000D01*
X96966000Y-70166000D02*
X96966000Y-71566000D01*
X96966000Y-71566000D02*
X95566000Y-71566000D01*
D12*
%TO.C,TP10*%
X74902000Y-83058000D02*
G75*
G03*
X74902000Y-83058000I-1750000J0D01*
G01*
D13*
%TO.C,J6*%
X75972000Y-74305000D02*
X74972000Y-74305000D01*
X75972000Y-74305000D02*
X75972000Y-73305000D01*
X72262000Y-74015000D02*
X75682000Y-74015000D01*
X75682000Y-74015000D02*
X75682000Y-62045000D01*
X73622000Y-73705000D02*
X73622000Y-73505000D01*
X74422000Y-73705000D02*
X73622000Y-73705000D01*
X72772000Y-73505000D02*
X72772000Y-68030000D01*
X73622000Y-73505000D02*
X72772000Y-73505000D01*
X74422000Y-73505000D02*
X74422000Y-73705000D01*
X75172000Y-73505000D02*
X74422000Y-73505000D01*
X75172000Y-68030000D02*
X75172000Y-73505000D01*
X75172000Y-68030000D02*
X75172000Y-62555000D01*
X72772000Y-62555000D02*
X72772000Y-68030000D01*
X73622000Y-62555000D02*
X72772000Y-62555000D01*
X74422000Y-62555000D02*
X74422000Y-62355000D01*
X75172000Y-62555000D02*
X74422000Y-62555000D01*
X73622000Y-62355000D02*
X73622000Y-62555000D01*
X74422000Y-62355000D02*
X73622000Y-62355000D01*
X72262000Y-62045000D02*
X72262000Y-74015000D01*
X75682000Y-62045000D02*
X72262000Y-62045000D01*
%TO.C,TP1*%
X93664000Y-61406000D02*
X92264000Y-61406000D01*
X93664000Y-60006000D02*
X93664000Y-61406000D01*
X92264000Y-61406000D02*
X92264000Y-60006000D01*
X92264000Y-60006000D02*
X93664000Y-60006000D01*
%TO.C,J4*%
X82490000Y-55940000D02*
X82490000Y-54610000D01*
X83820000Y-55940000D02*
X82490000Y-55940000D01*
X85090000Y-55940000D02*
X90230000Y-55940000D01*
X85090000Y-55940000D02*
X85090000Y-53280000D01*
X90230000Y-55940000D02*
X90230000Y-53280000D01*
X85090000Y-53280000D02*
X90230000Y-53280000D01*
%TO.C,J3*%
X91634000Y-82864000D02*
X91634000Y-81534000D01*
X92964000Y-82864000D02*
X91634000Y-82864000D01*
X94234000Y-82864000D02*
X101914000Y-82864000D01*
X94234000Y-82864000D02*
X94234000Y-80264000D01*
X101914000Y-82864000D02*
X101914000Y-77664000D01*
X91634000Y-80264000D02*
X91634000Y-77664000D01*
X94234000Y-80264000D02*
X91634000Y-80264000D01*
X91634000Y-77664000D02*
X101914000Y-77664000D01*
%TO.C,TP7*%
X96328000Y-60006000D02*
X97728000Y-60006000D01*
X96328000Y-61406000D02*
X96328000Y-60006000D01*
X97728000Y-60006000D02*
X97728000Y-61406000D01*
X97728000Y-61406000D02*
X96328000Y-61406000D01*
%TO.C,R1*%
X90552000Y-69749641D02*
X90552000Y-69442359D01*
X91312000Y-69749641D02*
X91312000Y-69442359D01*
%TO.C,TP4*%
X95566000Y-67880000D02*
X96966000Y-67880000D01*
X95566000Y-69280000D02*
X95566000Y-67880000D01*
X96966000Y-67880000D02*
X96966000Y-69280000D01*
X96966000Y-69280000D02*
X95566000Y-69280000D01*
%TO.C,D1*%
X91892000Y-64863000D02*
X89972000Y-64863000D01*
X89972000Y-64863000D02*
X89972000Y-67548000D01*
X91892000Y-67548000D02*
X91892000Y-64863000D01*
%TO.C,TP2*%
X95566000Y-72452000D02*
X96966000Y-72452000D01*
X95566000Y-73852000D02*
X95566000Y-72452000D01*
X96966000Y-72452000D02*
X96966000Y-73852000D01*
X96966000Y-73852000D02*
X95566000Y-73852000D01*
%TD*%
%LPC*%
D14*
%TO.C,TP12*%
X109220000Y-83058000D03*
%TD*%
D15*
%TO.C,J5*%
X87620000Y-81534000D03*
D16*
X87620000Y-78994000D03*
%TD*%
D17*
%TO.C,TP5*%
X96266000Y-66294000D03*
%TD*%
D15*
%TO.C,J2*%
X108077000Y-76708000D03*
D16*
X108077000Y-74168000D03*
X108077000Y-71628000D03*
X108077000Y-69088000D03*
X108077000Y-66548000D03*
X108077000Y-64008000D03*
X108077000Y-61468000D03*
X108077000Y-58928000D03*
%TD*%
D17*
%TO.C,TP6*%
X100330000Y-60706000D03*
%TD*%
D15*
%TO.C,J7*%
X80264000Y-76708000D03*
D16*
X80264000Y-74168000D03*
X80264000Y-71628000D03*
X80264000Y-69088000D03*
X80264000Y-66548000D03*
X80264000Y-64008000D03*
X80264000Y-61468000D03*
X80264000Y-58928000D03*
%TD*%
D17*
%TO.C,TP8*%
X89408000Y-60706000D03*
%TD*%
D18*
%TO.C,J1*%
X94762000Y-54864000D03*
D19*
X96012000Y-54864000D03*
X97262000Y-54864000D03*
X98512000Y-54864000D03*
X99762000Y-54864000D03*
X101012000Y-54864000D03*
X102262000Y-54864000D03*
X103512000Y-54864000D03*
%TD*%
D14*
%TO.C,TP9*%
X73152000Y-53340000D03*
%TD*%
%TO.C,TP11*%
X109220000Y-53340000D03*
%TD*%
D17*
%TO.C,TP3*%
X96266000Y-70866000D03*
%TD*%
D14*
%TO.C,TP10*%
X73152000Y-83058000D03*
%TD*%
D20*
%TO.C,J6*%
X74422000Y-72405000D03*
D21*
X74422000Y-71155000D03*
X74422000Y-69905000D03*
X74422000Y-68655000D03*
X74422000Y-67405000D03*
X74422000Y-66155000D03*
X74422000Y-64905000D03*
X74422000Y-63655000D03*
%TD*%
D17*
%TO.C,TP1*%
X92964000Y-60706000D03*
%TD*%
D15*
%TO.C,J4*%
X83820000Y-54610000D03*
D16*
X86360000Y-54610000D03*
X88900000Y-54610000D03*
%TD*%
D15*
%TO.C,J3*%
X92964000Y-81534000D03*
D16*
X92964000Y-78994000D03*
X95504000Y-81534000D03*
X95504000Y-78994000D03*
X98044000Y-81534000D03*
X98044000Y-78994000D03*
X100584000Y-81534000D03*
X100584000Y-78994000D03*
%TD*%
D17*
%TO.C,TP7*%
X97028000Y-60706000D03*
%TD*%
D22*
%TO.C,R1*%
X90932000Y-70106000D03*
X90932000Y-69086000D03*
%TD*%
D17*
%TO.C,TP4*%
X96266000Y-68580000D03*
%TD*%
D23*
%TO.C,D1*%
X90932000Y-65610500D03*
X90932000Y-67485500D03*
%TD*%
D17*
%TO.C,TP2*%
X96266000Y-73152000D03*
%TD*%
%LPD*%
M02*
