%TF.GenerationSoftware,KiCad,Pcbnew,7.0.6*%
%TF.CreationDate,2024-02-04T23:38:57-08:00*%
%TF.ProjectId,sulu_ads1299,73756c75-5f61-4647-9331-3239392e6b69,rev?*%
%TF.SameCoordinates,Original*%
%TF.FileFunction,Copper,L3,Inr*%
%TF.FilePolarity,Positive*%
%FSLAX46Y46*%
G04 Gerber Fmt 4.6, Leading zero omitted, Abs format (unit mm)*
G04 Created by KiCad (PCBNEW 7.0.6) date 2024-02-04 23:38:57*
%MOMM*%
%LPD*%
G01*
G04 APERTURE LIST*
G04 Aperture macros list*
%AMRoundRect*
0 Rectangle with rounded corners*
0 $1 Rounding radius*
0 $2 $3 $4 $5 $6 $7 $8 $9 X,Y pos of 4 corners*
0 Add a 4 corners polygon primitive as box body*
4,1,4,$2,$3,$4,$5,$6,$7,$8,$9,$2,$3,0*
0 Add four circle primitives for the rounded corners*
1,1,$1+$1,$2,$3*
1,1,$1+$1,$4,$5*
1,1,$1+$1,$6,$7*
1,1,$1+$1,$8,$9*
0 Add four rect primitives between the rounded corners*
20,1,$1+$1,$2,$3,$4,$5,0*
20,1,$1+$1,$4,$5,$6,$7,0*
20,1,$1+$1,$6,$7,$8,$9,0*
20,1,$1+$1,$8,$9,$2,$3,0*%
G04 Aperture macros list end*
%TA.AperFunction,ComponentPad*%
%ADD10C,0.762000*%
%TD*%
%TA.AperFunction,ComponentPad*%
%ADD11RoundRect,0.250000X-0.625000X0.350000X-0.625000X-0.350000X0.625000X-0.350000X0.625000X0.350000X0*%
%TD*%
%TA.AperFunction,ComponentPad*%
%ADD12O,1.750000X1.200000*%
%TD*%
%TA.AperFunction,ComponentPad*%
%ADD13RoundRect,0.200000X0.450000X-0.200000X0.450000X0.200000X-0.450000X0.200000X-0.450000X-0.200000X0*%
%TD*%
%TA.AperFunction,ComponentPad*%
%ADD14O,1.300000X0.800000*%
%TD*%
%TA.AperFunction,ComponentPad*%
%ADD15C,0.568750*%
%TD*%
%TA.AperFunction,ComponentPad*%
%ADD16C,0.600000*%
%TD*%
%TA.AperFunction,ViaPad*%
%ADD17C,0.400000*%
%TD*%
%TA.AperFunction,ViaPad*%
%ADD18C,0.500000*%
%TD*%
%TA.AperFunction,ViaPad*%
%ADD19C,0.609600*%
%TD*%
%TA.AperFunction,ViaPad*%
%ADD20C,0.350000*%
%TD*%
%TA.AperFunction,Conductor*%
%ADD21C,0.304800*%
%TD*%
%TA.AperFunction,Conductor*%
%ADD22C,0.254000*%
%TD*%
%TA.AperFunction,Conductor*%
%ADD23C,0.203200*%
%TD*%
G04 APERTURE END LIST*
D10*
%TO.N,Net-(J11-pin)*%
%TO.C,J11*%
X94996000Y-55880000D03*
%TD*%
%TO.N,Net-(J8-pin)*%
%TO.C,J8*%
X94488000Y-54610000D03*
%TD*%
D11*
%TO.N,+EXT_BAT*%
%TO.C,J2*%
X88087200Y-87782400D03*
D12*
%TO.N,GND*%
X88087200Y-89782400D03*
%TD*%
D13*
%TO.N,+EXT_BAT*%
%TO.C,J1*%
X118433000Y-66351000D03*
D14*
%TO.N,/HARD_RESET*%
X118433000Y-65101000D03*
%TO.N,/3WB_DATA*%
X118433000Y-63851000D03*
%TO.N,/3WB_ENB*%
X118433000Y-62601000D03*
%TO.N,/3WB_CLK*%
X118433000Y-61351000D03*
%TO.N,/RsRx*%
X118433000Y-60101000D03*
%TO.N,/RsTx*%
X118433000Y-58851000D03*
%TO.N,GND*%
X118433000Y-57601000D03*
%TD*%
D10*
%TO.N,Net-(U4-CLK)*%
%TO.C,TP3*%
X111379000Y-68453000D03*
%TD*%
%TO.N,Net-(J20-pin)*%
%TO.C,J20*%
X96266000Y-67945000D03*
%TD*%
D15*
%TO.N,GND*%
%TO.C,U5*%
X99650750Y-55454750D03*
X99650750Y-56592250D03*
X99650750Y-57729750D03*
X99650750Y-58867250D03*
X99650750Y-60004750D03*
X99650750Y-61142250D03*
X99650750Y-62279750D03*
X99650750Y-63417250D03*
X100788250Y-55454750D03*
X100788250Y-56592250D03*
X100788250Y-57729750D03*
X100788250Y-58867250D03*
X100788250Y-60004750D03*
X100788250Y-61142250D03*
X100788250Y-62279750D03*
X100788250Y-63417250D03*
X101925750Y-55454750D03*
X101925750Y-56592250D03*
X101925750Y-57729750D03*
X101925750Y-58867250D03*
X101925750Y-60004750D03*
X101925750Y-61142250D03*
X101925750Y-62279750D03*
X101925750Y-63417250D03*
X103063250Y-55454750D03*
X103063250Y-56592250D03*
X103063250Y-57729750D03*
X103063250Y-58867250D03*
X103063250Y-60004750D03*
X103063250Y-61142250D03*
X103063250Y-62279750D03*
X103063250Y-63417250D03*
X104200750Y-55454750D03*
X104200750Y-56592250D03*
X104200750Y-57729750D03*
X104200750Y-58867250D03*
X104200750Y-60004750D03*
X104200750Y-61142250D03*
X104200750Y-62279750D03*
X104200750Y-63417250D03*
X105338250Y-55454750D03*
X105338250Y-56592250D03*
X105338250Y-57729750D03*
X105338250Y-58867250D03*
X105338250Y-60004750D03*
X105338250Y-61142250D03*
X105338250Y-62279750D03*
X105338250Y-63417250D03*
X106475750Y-55454750D03*
X106475750Y-56592250D03*
X106475750Y-57729750D03*
X106475750Y-58867250D03*
X106475750Y-60004750D03*
X106475750Y-61142250D03*
X106475750Y-62279750D03*
X106475750Y-63417250D03*
X107613250Y-55454750D03*
X107613250Y-56592250D03*
X107613250Y-57729750D03*
X107613250Y-58867250D03*
X107613250Y-60004750D03*
X107613250Y-61142250D03*
X107613250Y-62279750D03*
X107613250Y-63417250D03*
%TD*%
D10*
%TO.N,Net-(J4-pin)*%
%TO.C,J4*%
X98171000Y-52070000D03*
%TD*%
%TO.N,/ADS_IN1N_CONN*%
%TO.C,TP2*%
X111760000Y-82169000D03*
%TD*%
%TO.N,Net-(J5-pin)*%
%TO.C,J5*%
X99695000Y-51943000D03*
%TD*%
%TO.N,Net-(J6-pin)*%
%TO.C,J6*%
X101092000Y-52070000D03*
%TD*%
%TO.N,/SCUM_GPIO5*%
%TO.C,TP4*%
X117576600Y-88519000D03*
%TD*%
D16*
%TO.N,GND*%
%TO.C,U3*%
X89804200Y-75246800D03*
X89804200Y-76246800D03*
%TD*%
D10*
%TO.N,Net-(J16-pin)*%
%TO.C,J16*%
X112014000Y-61722000D03*
%TD*%
D13*
%TO.N,/SCUM_GPIO0*%
%TO.C,J7*%
X118433000Y-79432000D03*
D14*
%TO.N,/SCUM_GPIO3*%
X118433000Y-78182000D03*
%TO.N,/SCUM_GPIO11*%
X118433000Y-76932000D03*
%TO.N,/SCUM_GPIO12*%
X118433000Y-75682000D03*
%TO.N,/SCUM_GPIO13*%
X118433000Y-74432000D03*
%TO.N,/SCUM_GPIO14*%
X118433000Y-73182000D03*
%TO.N,/+1.8V_SCUM*%
X118433000Y-71932000D03*
%TO.N,/+1.8V_ADS*%
X118433000Y-70682000D03*
%TD*%
D10*
%TO.N,/ADS_IN1P_CONN*%
%TO.C,TP1*%
X111760000Y-83439000D03*
%TD*%
D17*
%TO.N,GND*%
X101600000Y-66802000D03*
D18*
X114554000Y-64516000D03*
X113538000Y-63754000D03*
D17*
%TO.N,/EXT_BAT_SW*%
X92837000Y-64465200D03*
X94259400Y-71805800D03*
%TO.N,/+1.8V_SCUM*%
X86110000Y-65352800D03*
%TO.N,Net-(U7-FEEDBACK)*%
X92075000Y-70487000D03*
X91897200Y-72361200D03*
D19*
%TO.N,GND*%
X92456000Y-58674000D03*
X92202000Y-61722000D03*
X94234000Y-61722000D03*
X90932000Y-58674000D03*
X96012000Y-58674000D03*
X89662000Y-61722000D03*
X87122000Y-61214000D03*
X86106000Y-60198000D03*
X88392000Y-61722000D03*
X89154000Y-58674000D03*
X86106000Y-58420000D03*
X90678000Y-57658000D03*
X90678000Y-56134000D03*
X90678000Y-54610000D03*
X96520000Y-57023000D03*
D18*
X113538000Y-76327000D03*
X113538000Y-77597000D03*
D19*
X90678000Y-51562000D03*
X90678000Y-53086000D03*
D18*
X98196400Y-85090000D03*
X103251000Y-70104000D03*
X100076000Y-73660000D03*
X112014000Y-52578000D03*
X108458000Y-92964000D03*
X95885000Y-85090000D03*
X98171000Y-92964000D03*
X102362000Y-76454000D03*
D19*
X90678000Y-63373000D03*
D18*
X98272600Y-81229200D03*
X95885000Y-94615000D03*
X110998000Y-94234000D03*
X110744000Y-70866000D03*
D19*
X93218000Y-61722000D03*
D18*
X95123000Y-75692000D03*
X112903000Y-68707000D03*
D19*
X94615000Y-63373000D03*
D18*
X99212400Y-81254600D03*
D19*
X94234000Y-58674000D03*
D18*
X113538000Y-79121000D03*
X109728000Y-90551000D03*
D20*
X110947200Y-61112400D03*
D18*
X95885000Y-89408000D03*
X95885000Y-92964000D03*
X112014000Y-63246000D03*
X95885000Y-87757000D03*
X112842000Y-72136000D03*
X110998000Y-92964000D03*
X114808000Y-52578000D03*
%TO.N,+EXT_BAT*%
X93373500Y-82753200D03*
D20*
%TO.N,+5V_REG*%
X96901000Y-74066400D03*
X96901000Y-73025000D03*
D17*
X93497400Y-78590200D03*
D20*
X96901000Y-75539600D03*
D17*
X110744000Y-76327000D03*
D18*
X118313200Y-87604600D03*
D20*
X96570800Y-72034400D03*
X91389200Y-75996800D03*
D17*
%TO.N,/+1.8V_SCUM*%
X98552000Y-55753000D03*
X102743000Y-64516000D03*
X95758000Y-66548000D03*
X114554000Y-68580000D03*
X108712000Y-61087000D03*
X98552000Y-61087000D03*
D18*
%TO.N,/+1.8V_ADS*%
X97000000Y-69497000D03*
X115064000Y-81788000D03*
%TO.N,/EXT_BAT_SW*%
X85750400Y-82778600D03*
D17*
X91998800Y-75031600D03*
D20*
X91897200Y-76606400D03*
D17*
X87655400Y-77139800D03*
%TO.N,/ADS_IN2N*%
X95504000Y-79354300D03*
X96596200Y-80314800D03*
%TO.N,/ADS_IN1N*%
X106454000Y-81788000D03*
X99771200Y-77393800D03*
X108585000Y-81557000D03*
X93954600Y-77361300D03*
%TO.N,/ADS_IN1P*%
X93954600Y-76391300D03*
X100177600Y-76758800D03*
X92862400Y-77361300D03*
D20*
%TO.N,/ADS_IN4N*%
X101092000Y-81153000D03*
X103378000Y-78613000D03*
%TO.N,/ADS_IN4P*%
X102108000Y-81153000D03*
X104140000Y-78486000D03*
%TO.N,/ADS_IN3N*%
X104902000Y-78613000D03*
X103124000Y-81153000D03*
%TO.N,/ADS_IN3P*%
X104013000Y-81153000D03*
X105664000Y-78613000D03*
%TO.N,/~{ADS_PWDN}*%
X113919000Y-70739000D03*
X113563400Y-88011000D03*
X114044000Y-81788000D03*
X107569000Y-71374000D03*
D17*
%TO.N,/HARD_RESET*%
X113474500Y-61785500D03*
D20*
%TO.N,/3WB_DATA*%
X115316000Y-67818000D03*
X112776000Y-67818000D03*
%TO.N,/3WB_ENB*%
X110871000Y-65786000D03*
X108839000Y-68326000D03*
%TO.N,/3WB_CLK*%
X108204000Y-68834000D03*
X112140074Y-65261531D03*
%TO.N,/RsRx*%
X111379000Y-65187818D03*
X107605220Y-67100211D03*
%TO.N,/RsTx*%
X110744000Y-64389000D03*
X106680000Y-66421000D03*
D18*
%TO.N,/ADS_IN4P_CONN*%
X99568000Y-90170000D03*
X94970600Y-93903800D03*
D17*
%TO.N,Net-(U5-AUX_LDO_OUTPUT)*%
X110617000Y-57404000D03*
X112649000Y-56261000D03*
%TO.N,Net-(J20-pin)*%
X97155000Y-65913000D03*
%TO.N,/SCUM_GPIO0*%
X97155000Y-67056000D03*
%TO.N,/SCUM_GPIO1*%
X90525600Y-92913200D03*
X98221800Y-83947000D03*
X98374200Y-82727800D03*
D20*
X99441000Y-71120000D03*
X99187000Y-68580000D03*
D17*
X110490000Y-84886800D03*
D20*
X99314000Y-66929000D03*
D17*
%TO.N,/SCUM_GPIO2*%
X109093000Y-80391000D03*
X90525600Y-87731600D03*
D20*
X100203000Y-66802000D03*
X110617000Y-77724000D03*
D17*
X110871000Y-85979000D03*
%TO.N,/SCUM_GPIO3*%
X101422200Y-70129400D03*
D20*
%TO.N,/SCUM_GPIO5*%
X114833400Y-88011000D03*
X113284000Y-82931000D03*
X101930200Y-66116200D03*
X114300000Y-73406000D03*
X114757200Y-83997800D03*
X106934000Y-70993000D03*
X113284000Y-81153000D03*
X105882000Y-67401000D03*
%TO.N,/SCUM_GPIO11*%
X107365800Y-74980800D03*
%TO.N,/SCUM_GPIO12*%
X108026200Y-73380600D03*
X107061000Y-67614800D03*
X104775000Y-66014600D03*
D17*
%TO.N,/SCUM_GPIO13*%
X103301800Y-70916800D03*
D20*
X102387400Y-67335400D03*
X105613200Y-66471800D03*
D17*
%TO.N,/SCUM_GPIO14*%
X105181400Y-72009000D03*
D20*
X103886000Y-67538600D03*
X106527600Y-67106800D03*
D17*
%TO.N,/SELF_TEST_P*%
X112420400Y-81686400D03*
X113690400Y-83947000D03*
%TO.N,/SELF_TEST_N*%
X113715800Y-86766400D03*
X112598200Y-83743800D03*
%TO.N,Net-(U5-VDDD_DISABLE)*%
X110617000Y-56642000D03*
X111887000Y-56007000D03*
D20*
%TO.N,Net-(U4-CLK)*%
X106045000Y-70866000D03*
D17*
%TO.N,/ADS1299/BIASINV*%
X96723200Y-76555600D03*
X97205800Y-81026000D03*
%TO.N,/ADS_BIAS_ELEC*%
X95123000Y-86106000D03*
X108331000Y-85852000D03*
%TD*%
D21*
%TO.N,/+1.8V_SCUM*%
X87305200Y-66548000D02*
X86110000Y-65352800D01*
X95758000Y-66548000D02*
X87305200Y-66548000D01*
D22*
%TO.N,+5V_REG*%
X109956600Y-75539600D02*
X110744000Y-76327000D01*
X93850400Y-78590200D02*
X93497400Y-78590200D01*
X96901000Y-72364600D02*
X96570800Y-72034400D01*
X118313200Y-86863607D02*
X118313200Y-87604600D01*
X111099600Y-76682600D02*
X111099600Y-79650007D01*
X111099600Y-79650007D02*
X118313200Y-86863607D01*
X110744000Y-76327000D02*
X111099600Y-76682600D01*
X96901000Y-74066400D02*
X96901000Y-72364600D01*
X91389200Y-75996800D02*
X91846400Y-75996800D01*
X91846400Y-75996800D02*
X93776800Y-74066400D01*
X96901000Y-74066400D02*
X96901000Y-75539600D01*
X93776800Y-74066400D02*
X96901000Y-74066400D01*
X96901000Y-75539600D02*
X93850400Y-78590200D01*
X96901000Y-75539600D02*
X109956600Y-75539600D01*
D21*
%TO.N,/+1.8V_ADS*%
X114581558Y-70685400D02*
X113393158Y-69497000D01*
X115265200Y-81586800D02*
X115064000Y-81788000D01*
X113393158Y-69497000D02*
X97000000Y-69497000D01*
X118433000Y-70682000D02*
X118429600Y-70685400D01*
X114581558Y-70685400D02*
X115265200Y-71369042D01*
X118429600Y-70685400D02*
X114581558Y-70685400D01*
X115265200Y-71369042D02*
X115265200Y-81586800D01*
D23*
%TO.N,/SCUM_GPIO12*%
X104775000Y-66938316D02*
X105693284Y-67856600D01*
X106819200Y-67856600D02*
X107061000Y-67614800D01*
X104775000Y-66014600D02*
X104775000Y-66938316D01*
X105693284Y-67856600D02*
X106819200Y-67856600D01*
%TO.N,/ADS1299/BIASINV*%
X97205800Y-81026000D02*
X97205800Y-77089000D01*
X97205800Y-77089000D02*
X96672400Y-76555600D01*
%TD*%
M02*
