%TF.GenerationSoftware,KiCad,Pcbnew,(6.0.7)*%
%TF.CreationDate,2023-05-31T15:48:29-07:00*%
%TF.ProjectId,sulu_ads1299,73756c75-5f61-4647-9331-3239392e6b69,rev?*%
%TF.SameCoordinates,Original*%
%TF.FileFunction,Copper,L2,Bot*%
%TF.FilePolarity,Positive*%
%FSLAX46Y46*%
G04 Gerber Fmt 4.6, Leading zero omitted, Abs format (unit mm)*
G04 Created by KiCad (PCBNEW (6.0.7)) date 2023-05-31 15:48:29*
%MOMM*%
%LPD*%
G01*
G04 APERTURE LIST*
G04 Aperture macros list*
%AMRoundRect*
0 Rectangle with rounded corners*
0 $1 Rounding radius*
0 $2 $3 $4 $5 $6 $7 $8 $9 X,Y pos of 4 corners*
0 Add a 4 corners polygon primitive as box body*
4,1,4,$2,$3,$4,$5,$6,$7,$8,$9,$2,$3,0*
0 Add four circle primitives for the rounded corners*
1,1,$1+$1,$2,$3*
1,1,$1+$1,$4,$5*
1,1,$1+$1,$6,$7*
1,1,$1+$1,$8,$9*
0 Add four rect primitives between the rounded corners*
20,1,$1+$1,$2,$3,$4,$5,0*
20,1,$1+$1,$4,$5,$6,$7,0*
20,1,$1+$1,$6,$7,$8,$9,0*
20,1,$1+$1,$8,$9,$2,$3,0*%
G04 Aperture macros list end*
%TA.AperFunction,ComponentPad*%
%ADD10C,0.762000*%
%TD*%
%TA.AperFunction,ComponentPad*%
%ADD11RoundRect,0.250000X0.625000X-0.350000X0.625000X0.350000X-0.625000X0.350000X-0.625000X-0.350000X0*%
%TD*%
%TA.AperFunction,ComponentPad*%
%ADD12O,1.750000X1.200000*%
%TD*%
%TA.AperFunction,ComponentPad*%
%ADD13RoundRect,0.200000X0.450000X-0.200000X0.450000X0.200000X-0.450000X0.200000X-0.450000X-0.200000X0*%
%TD*%
%TA.AperFunction,ComponentPad*%
%ADD14O,1.300000X0.800000*%
%TD*%
%TA.AperFunction,ComponentPad*%
%ADD15C,0.568750*%
%TD*%
%TA.AperFunction,SMDPad,CuDef*%
%ADD16R,0.900000X1.600000*%
%TD*%
%TA.AperFunction,ComponentPad*%
%ADD17C,0.600000*%
%TD*%
%TA.AperFunction,ViaPad*%
%ADD18C,0.609600*%
%TD*%
%TA.AperFunction,ViaPad*%
%ADD19C,0.812800*%
%TD*%
%TA.AperFunction,ViaPad*%
%ADD20C,0.406400*%
%TD*%
%TA.AperFunction,Conductor*%
%ADD21C,0.406400*%
%TD*%
%TA.AperFunction,Conductor*%
%ADD22C,0.254000*%
%TD*%
%TA.AperFunction,Conductor*%
%ADD23C,0.127000*%
%TD*%
%TA.AperFunction,Conductor*%
%ADD24C,0.203200*%
%TD*%
G04 APERTURE END LIST*
D10*
%TO.P,J11,1,pin*%
%TO.N,Net-(J11-Pad1)*%
X99060000Y-51943000D03*
%TD*%
%TO.P,TP1,1,1*%
%TO.N,/ADS_IN1P_CONN*%
X112903000Y-82169000D03*
%TD*%
%TO.P,J8,1,pin*%
%TO.N,Net-(J8-Pad1)*%
X96774000Y-52705000D03*
%TD*%
D11*
%TO.P,J2,1,Pin_1*%
%TO.N,+EXT_BAT*%
X89154000Y-86360000D03*
D12*
%TO.P,J2,2,Pin_2*%
%TO.N,GND*%
X89154000Y-84360000D03*
%TD*%
D13*
%TO.P,J1,1,Pin_1*%
%TO.N,+EXT_BAT*%
X115131000Y-67240000D03*
D14*
%TO.P,J1,2,Pin_2*%
%TO.N,/HARD_RESET*%
X115131000Y-65990000D03*
%TO.P,J1,3,Pin_3*%
%TO.N,/3WB_DATA*%
X115131000Y-64740000D03*
%TO.P,J1,4,Pin_4*%
%TO.N,/3WB_ENB*%
X115131000Y-63490000D03*
%TO.P,J1,5,Pin_5*%
%TO.N,/3WB_CLK*%
X115131000Y-62240000D03*
%TO.P,J1,6,Pin_6*%
%TO.N,/RsRx*%
X115131000Y-60990000D03*
%TO.P,J1,7,Pin_7*%
%TO.N,/RsTx*%
X115131000Y-59740000D03*
%TO.P,J1,8,Pin_8*%
%TO.N,GND*%
X115131000Y-58490000D03*
%TD*%
D10*
%TO.P,TP3,1,1*%
%TO.N,Net-(TP3-Pad1)*%
X110490000Y-68453000D03*
%TD*%
%TO.P,J20,1,pin*%
%TO.N,Net-(J20-Pad1)*%
X96266000Y-67945000D03*
%TD*%
D15*
%TO.P,U5,101,GND*%
%TO.N,GND*%
X99650750Y-60893750D03*
X101925750Y-59756250D03*
X103063250Y-63168750D03*
X101925750Y-60893750D03*
X106475750Y-58618750D03*
X101925750Y-58618750D03*
X103063250Y-59756250D03*
X106475750Y-56343750D03*
X99650750Y-59756250D03*
X105338250Y-62031250D03*
X100788250Y-63168750D03*
X106475750Y-57481250D03*
X104200750Y-57481250D03*
X103063250Y-64306250D03*
X101925750Y-56343750D03*
X100788250Y-58618750D03*
X103063250Y-56343750D03*
X107613250Y-57481250D03*
X99650750Y-58618750D03*
X100788250Y-57481250D03*
X104200750Y-58618750D03*
X104200750Y-64306250D03*
X99650750Y-57481250D03*
X106475750Y-64306250D03*
X105338250Y-60893750D03*
X101925750Y-62031250D03*
X104200750Y-60893750D03*
X105338250Y-63168750D03*
X106475750Y-60893750D03*
X99650750Y-64306250D03*
X106475750Y-59756250D03*
X104200750Y-59756250D03*
X99650750Y-63168750D03*
X100788250Y-59756250D03*
X101925750Y-64306250D03*
X107613250Y-62031250D03*
X107613250Y-60893750D03*
X107613250Y-58618750D03*
X105338250Y-58618750D03*
X103063250Y-60893750D03*
X107613250Y-64306250D03*
X103063250Y-62031250D03*
X99650750Y-62031250D03*
X101925750Y-57481250D03*
X105338250Y-64306250D03*
X106475750Y-62031250D03*
X103063250Y-58618750D03*
X107613250Y-63168750D03*
X103063250Y-57481250D03*
X105338250Y-56343750D03*
X105338250Y-59756250D03*
X104200750Y-63168750D03*
X107613250Y-56343750D03*
X101925750Y-63168750D03*
X100788250Y-62031250D03*
X105338250Y-57481250D03*
X104200750Y-56343750D03*
X100788250Y-64306250D03*
X99650750Y-56343750D03*
X104200750Y-62031250D03*
X106475750Y-63168750D03*
X107613250Y-59756250D03*
X100788250Y-60893750D03*
X100788250Y-56343750D03*
%TD*%
D10*
%TO.P,J4,1,pin*%
%TO.N,Net-(J4-Pad1)*%
X97790000Y-51816000D03*
%TD*%
%TO.P,TP2,1,1*%
%TO.N,/ADS_IN1N_CONN*%
X111633000Y-82169000D03*
%TD*%
%TO.P,J5,1,pin*%
%TO.N,Net-(J5-Pad1)*%
X106426000Y-52197000D03*
%TD*%
%TO.P,J6,1,pin*%
%TO.N,Net-(J6-Pad1)*%
X101473000Y-52070000D03*
%TD*%
%TO.P,J17,1,pin*%
%TO.N,Net-(J17-Pad1)*%
X111633000Y-67437000D03*
%TD*%
D16*
%TO.P,U3,9,GND*%
%TO.N,GND*%
X88773000Y-75909000D03*
D17*
X88773000Y-76409000D03*
X88773000Y-75409000D03*
%TD*%
D10*
%TO.P,J16,1,pin*%
%TO.N,Net-(J16-Pad1)*%
X110871000Y-59944000D03*
%TD*%
D18*
%TO.N,GND*%
X96520000Y-57912000D03*
X88519000Y-57912000D03*
X86487000Y-57912000D03*
X85471000Y-62230000D03*
X85471000Y-63754000D03*
X90551000Y-64262000D03*
X85471000Y-60579000D03*
X92583000Y-57912000D03*
X92583000Y-64262000D03*
X86487000Y-64262000D03*
X88519000Y-64262000D03*
X94615000Y-64262000D03*
X94615000Y-57912000D03*
X90551000Y-57912000D03*
X85471000Y-58801000D03*
D19*
%TO.N,+EXT_BAT*%
X109347000Y-69723000D03*
X85598000Y-77597000D03*
%TO.N,+5V_REG*%
X95758000Y-72644000D03*
X95631000Y-75819000D03*
D18*
X92456000Y-76708000D03*
D20*
X110617000Y-75565000D03*
D18*
X90805000Y-76708000D03*
D20*
%TO.N,+1.8V_REG*%
X98552000Y-64008000D03*
X98552000Y-57277000D03*
X98552000Y-62230000D03*
X101473000Y-72771000D03*
X115062000Y-74930000D03*
X102743000Y-65405000D03*
D19*
X94615000Y-67945000D03*
D20*
%TO.N,+1.1V_REG*%
X108585000Y-61468000D03*
X110899000Y-54991000D03*
X98552000Y-52832000D03*
X93472000Y-65024000D03*
%TO.N,/ADS_IN2N*%
X103505000Y-77343000D03*
X96393000Y-80010000D03*
%TO.N,/ADS_IN2P*%
X97560035Y-80034035D03*
X105307035Y-78080965D03*
%TO.N,/ADS_IN1N*%
X102616000Y-78244200D03*
X106426000Y-78613000D03*
%TO.N,/ADS_IN4N*%
X103632000Y-78613000D03*
X101092000Y-81153000D03*
%TO.N,/ADS_IN4P*%
X104394000Y-78740000D03*
X93726000Y-80518000D03*
X101854000Y-81153000D03*
%TO.N,/ADS_IN3N*%
X94615000Y-80911200D03*
X102517000Y-81786000D03*
%TO.N,/ADS_IN3P*%
X95504000Y-80911200D03*
X103477000Y-81786000D03*
%TO.N,/~{ADS_PWDN}*%
X107061000Y-76327000D03*
X113157000Y-81280000D03*
%TO.N,/HARD_RESET*%
X112268000Y-63754000D03*
X113792000Y-65913000D03*
%TO.N,/3WB_DATA*%
X110490000Y-65913000D03*
X112014000Y-66421000D03*
%TO.N,/3WB_CLK*%
X107569000Y-67310000D03*
%TO.N,/RsRx*%
X106807000Y-67310000D03*
%TO.N,/RsTx*%
X106807000Y-65278000D03*
%TO.N,/ADS_IN1N_CONN*%
X106172000Y-84709000D03*
X109133465Y-82844465D03*
%TO.N,Net-(J11-Pad1)*%
X96901000Y-56261000D03*
%TO.N,Net-(J16-Pad1)*%
X108712000Y-62484000D03*
%TO.N,Net-(J17-Pad1)*%
X111633000Y-64643000D03*
%TO.N,Net-(J5-Pad1)*%
X99695000Y-53340000D03*
%TO.N,Net-(J6-Pad1)*%
X100457000Y-53340000D03*
%TO.N,/SCUM_GPIO7*%
X101727000Y-67310000D03*
X102870000Y-70485000D03*
%TO.N,/~{ADS_RESET}*%
X114046000Y-83820000D03*
X108204000Y-77470000D03*
%TO.N,/SCUM_GPIO6*%
X100965000Y-67310000D03*
X102362000Y-71247000D03*
%TO.N,/SCUM_GPIO13*%
X105156000Y-65405000D03*
X102362000Y-67310000D03*
%TO.N,/SCUM_GPIO14*%
X103886000Y-67437000D03*
X105537000Y-66929000D03*
%TO.N,Net-(TP3-Pad1)*%
X105029000Y-69977000D03*
%TD*%
D21*
%TO.N,+EXT_BAT*%
X107162600Y-71907400D02*
X90864200Y-71907400D01*
X109347000Y-69723000D02*
X107162600Y-71907400D01*
X85598000Y-77173600D02*
X85598000Y-77597000D01*
X90864200Y-71907400D02*
X85598000Y-77173600D01*
D22*
%TO.N,+5V_REG*%
X95631000Y-75819000D02*
X95631000Y-72771000D01*
X92456000Y-76708000D02*
X90805000Y-76708000D01*
X95631000Y-75819000D02*
X110363000Y-75819000D01*
X95631000Y-72771000D02*
X95758000Y-72644000D01*
X110363000Y-75819000D02*
X110617000Y-75565000D01*
D21*
%TO.N,+1.8V_REG*%
X100330000Y-65405000D02*
X102743000Y-65405000D01*
D22*
X98552000Y-64643000D02*
X97790000Y-65405000D01*
D21*
X97790000Y-65405000D02*
X100330000Y-65405000D01*
X95250000Y-67945000D02*
X97790000Y-65405000D01*
D22*
X98552000Y-64008000D02*
X98552000Y-64643000D01*
X101473000Y-72771000D02*
X103632000Y-74930000D01*
X103632000Y-74930000D02*
X115062000Y-74930000D01*
D21*
X94615000Y-67945000D02*
X95250000Y-67945000D01*
D22*
X98552000Y-62230000D02*
X98552000Y-57277000D01*
%TO.N,+1.1V_REG*%
X99060000Y-56642000D02*
X98806000Y-56388000D01*
X99187000Y-55245000D02*
X108458000Y-55245000D01*
X96520000Y-65024000D02*
X99060000Y-62484000D01*
X98806000Y-56388000D02*
X98806000Y-53086000D01*
X108458000Y-55245000D02*
X108712000Y-54991000D01*
X98806000Y-55626000D02*
X99187000Y-55245000D01*
X98806000Y-53086000D02*
X98552000Y-52832000D01*
X99060000Y-62484000D02*
X99060000Y-56642000D01*
X108712000Y-54991000D02*
X110899000Y-54991000D01*
X108585000Y-61468000D02*
X108585000Y-55372000D01*
X98806000Y-56388000D02*
X98806000Y-55626000D01*
X93472000Y-65024000D02*
X96520000Y-65024000D01*
X108585000Y-55372000D02*
X108458000Y-55245000D01*
D23*
%TO.N,/ADS_IN2N*%
X96393000Y-80010000D02*
X97028000Y-80010000D01*
X99695000Y-77343000D02*
X103505000Y-77343000D01*
X97028000Y-80010000D02*
X99695000Y-77343000D01*
%TO.N,/ADS_IN2P*%
X99759570Y-77834500D02*
X105060570Y-77834500D01*
X105060570Y-77834500D02*
X105307035Y-78080965D01*
X97560035Y-80034035D02*
X99759570Y-77834500D01*
%TO.N,/ADS_IN1N*%
X104466900Y-78177900D02*
X104902000Y-78613000D01*
X104902000Y-78613000D02*
X106426000Y-78613000D01*
X102682300Y-78177900D02*
X104466900Y-78177900D01*
X102616000Y-78244200D02*
X102682300Y-78177900D01*
%TO.N,/ADS_IN4N*%
X103632000Y-78613000D02*
X101092000Y-81153000D01*
%TO.N,/ADS_IN4P*%
X104267000Y-78740000D02*
X101854000Y-81153000D01*
X104394000Y-78740000D02*
X104267000Y-78740000D01*
X99841675Y-80518000D02*
X100911775Y-81588100D01*
X101418900Y-81588100D02*
X101854000Y-81153000D01*
X93726000Y-80518000D02*
X99841675Y-80518000D01*
X100911775Y-81588100D02*
X101418900Y-81588100D01*
%TO.N,/ADS_IN3N*%
X102206900Y-82096100D02*
X102517000Y-81786000D01*
X94615000Y-80911200D02*
X95799900Y-82096100D01*
X95799900Y-82096100D02*
X102206900Y-82096100D01*
%TO.N,/ADS_IN3P*%
X100806565Y-81842100D02*
X101780225Y-81842100D01*
X99736465Y-80772000D02*
X100806565Y-81842100D01*
X102246025Y-81376300D02*
X103067300Y-81376300D01*
X103067300Y-81376300D02*
X103477000Y-81786000D01*
X101780225Y-81842100D02*
X102246025Y-81376300D01*
X95643200Y-80772000D02*
X99736465Y-80772000D01*
X95504000Y-80911200D02*
X95643200Y-80772000D01*
D22*
%TO.N,/~{ADS_PWDN}*%
X111308873Y-81280000D02*
X113157000Y-81280000D01*
X107061000Y-76327000D02*
X107061000Y-77032127D01*
X107061000Y-77032127D02*
X111308873Y-81280000D01*
%TO.N,/HARD_RESET*%
X112268000Y-63754000D02*
X112776000Y-63754000D01*
X112776000Y-63754000D02*
X113792000Y-64770000D01*
X113792000Y-64770000D02*
X113792000Y-65913000D01*
%TO.N,/3WB_DATA*%
X111506000Y-65913000D02*
X112014000Y-66421000D01*
X110490000Y-65913000D02*
X111506000Y-65913000D01*
%TO.N,/3WB_CLK*%
X107569000Y-67310000D02*
X108006873Y-67310000D01*
X113076873Y-62240000D02*
X115131000Y-62240000D01*
X108006873Y-67310000D02*
X113076873Y-62240000D01*
%TO.N,/RsRx*%
X113127000Y-60990000D02*
X106807000Y-67310000D01*
X115131000Y-60990000D02*
X113127000Y-60990000D01*
%TO.N,/RsTx*%
X113704553Y-59740000D02*
X115131000Y-59740000D01*
X108166553Y-65278000D02*
X113704553Y-59740000D01*
X106807000Y-65278000D02*
X108166553Y-65278000D01*
D23*
%TO.N,/ADS_IN1N_CONN*%
X109133465Y-82844465D02*
X107268930Y-84709000D01*
X109133465Y-82844465D02*
X110957535Y-82844465D01*
X110957535Y-82844465D02*
X111633000Y-82169000D01*
X107268930Y-84709000D02*
X106172000Y-84709000D01*
%TO.N,Net-(J11-Pad1)*%
X96901000Y-53563185D02*
X96901000Y-56261000D01*
X99060000Y-51943000D02*
X98521185Y-51943000D01*
X98521185Y-51943000D02*
X96901000Y-53563185D01*
D24*
%TO.N,Net-(J16-Pad1)*%
X108712000Y-62484000D02*
X109474000Y-62484000D01*
X109474000Y-62484000D02*
X110871000Y-61087000D01*
X110871000Y-61087000D02*
X110871000Y-59944000D01*
%TO.N,Net-(J17-Pad1)*%
X112171815Y-67437000D02*
X111633000Y-67437000D01*
X112487200Y-65497200D02*
X112487200Y-67121615D01*
X112487200Y-67121615D02*
X112171815Y-67437000D01*
X111633000Y-64643000D02*
X112487200Y-65497200D01*
D23*
%TO.N,Net-(J5-Pad1)*%
X104873300Y-53749700D02*
X106426000Y-52197000D01*
X100104700Y-53749700D02*
X104873300Y-53749700D01*
X99695000Y-53340000D02*
X100104700Y-53749700D01*
%TO.N,Net-(J6-Pad1)*%
X100457000Y-53340000D02*
X100457000Y-53086000D01*
X100457000Y-53086000D02*
X101473000Y-52070000D01*
%TO.N,/SCUM_GPIO7*%
X101727000Y-67310000D02*
X102870000Y-68453000D01*
X102870000Y-68453000D02*
X102870000Y-70485000D01*
D22*
%TO.N,/~{ADS_RESET}*%
X114046000Y-80772000D02*
X110744000Y-77470000D01*
X110744000Y-77470000D02*
X108204000Y-77470000D01*
X114046000Y-83820000D02*
X114046000Y-80772000D01*
D23*
%TO.N,/SCUM_GPIO6*%
X100965000Y-67310000D02*
X102362000Y-68707000D01*
X102362000Y-68707000D02*
X102362000Y-71247000D01*
%TO.N,/SCUM_GPIO13*%
X102362000Y-67310000D02*
X103433596Y-67310000D01*
X105156000Y-65587596D02*
X105156000Y-65405000D01*
X103433596Y-67310000D02*
X105156000Y-65587596D01*
%TO.N,/SCUM_GPIO14*%
X105029000Y-67437000D02*
X103886000Y-67437000D01*
X105537000Y-66929000D02*
X105029000Y-67437000D01*
%TO.N,Net-(TP3-Pad1)*%
X109772855Y-68453000D02*
X110490000Y-68453000D01*
X105029000Y-69977000D02*
X108248855Y-69977000D01*
X108248855Y-69977000D02*
X109772855Y-68453000D01*
%TD*%
%TA.AperFunction,Conductor*%
%TO.N,GND*%
G36*
X117329194Y-51199806D02*
G01*
X117347500Y-51244000D01*
X117347500Y-93663000D01*
X117329194Y-93707194D01*
X117285000Y-93725500D01*
X85153000Y-93725500D01*
X85108806Y-93707194D01*
X85090500Y-93663000D01*
X85090500Y-93218000D01*
X85598000Y-93218000D01*
X89154000Y-93218000D01*
X89154000Y-89662000D01*
X85598000Y-89662000D01*
X85598000Y-93218000D01*
X85090500Y-93218000D01*
X85090500Y-85974219D01*
X88151500Y-85974219D01*
X88151501Y-86745780D01*
X88162422Y-86819979D01*
X88217810Y-86932790D01*
X88221462Y-86936436D01*
X88221463Y-86936437D01*
X88303098Y-87017930D01*
X88303100Y-87017932D01*
X88306753Y-87021578D01*
X88419661Y-87076769D01*
X88424464Y-87077470D01*
X88424465Y-87077470D01*
X88446440Y-87080676D01*
X88493219Y-87087500D01*
X89152255Y-87087500D01*
X89814780Y-87087499D01*
X89888979Y-87076578D01*
X89893338Y-87074438D01*
X89997155Y-87023466D01*
X89997156Y-87023465D01*
X90001790Y-87021190D01*
X90005437Y-87017537D01*
X90086930Y-86935902D01*
X90086932Y-86935900D01*
X90090578Y-86932247D01*
X90107923Y-86896764D01*
X90143638Y-86823699D01*
X90143638Y-86823698D01*
X90145769Y-86819339D01*
X90156500Y-86745781D01*
X90156499Y-85974220D01*
X90145578Y-85900021D01*
X90090190Y-85787210D01*
X90086537Y-85783563D01*
X90004902Y-85702070D01*
X90004900Y-85702068D01*
X90001247Y-85698422D01*
X89888339Y-85643231D01*
X89883536Y-85642530D01*
X89883535Y-85642530D01*
X89861560Y-85639324D01*
X89814781Y-85632500D01*
X89155745Y-85632500D01*
X88493220Y-85632501D01*
X88419021Y-85643422D01*
X88414663Y-85645562D01*
X88414662Y-85645562D01*
X88310845Y-85696534D01*
X88310844Y-85696535D01*
X88306210Y-85698810D01*
X88302564Y-85702462D01*
X88302563Y-85702463D01*
X88221070Y-85784098D01*
X88221068Y-85784100D01*
X88217422Y-85787753D01*
X88215154Y-85792393D01*
X88164675Y-85895662D01*
X88162231Y-85900661D01*
X88151500Y-85974219D01*
X85090500Y-85974219D01*
X85090500Y-84709000D01*
X105819952Y-84709000D01*
X105841183Y-84829408D01*
X105843917Y-84834144D01*
X105843918Y-84834146D01*
X105860725Y-84863256D01*
X105902316Y-84935292D01*
X105995976Y-85013883D01*
X106110868Y-85055700D01*
X106233132Y-85055700D01*
X106348024Y-85013883D01*
X106441684Y-84935292D01*
X106444419Y-84930554D01*
X106447930Y-84926370D01*
X106449098Y-84927350D01*
X106481972Y-84902129D01*
X106498144Y-84900000D01*
X107225698Y-84900000D01*
X107233037Y-84901250D01*
X107233120Y-84900523D01*
X107240111Y-84901320D01*
X107246752Y-84903652D01*
X107253745Y-84902874D01*
X107253746Y-84902874D01*
X107276127Y-84900383D01*
X107283040Y-84900000D01*
X107290463Y-84900000D01*
X107297395Y-84898419D01*
X107304348Y-84897243D01*
X107333359Y-84894014D01*
X107339323Y-84890281D01*
X107343271Y-84888906D01*
X107347030Y-84887097D01*
X107353889Y-84885532D01*
X107376704Y-84867351D01*
X107382489Y-84863256D01*
X107385645Y-84861280D01*
X107385647Y-84861279D01*
X107388641Y-84859404D01*
X107393854Y-84854191D01*
X107399098Y-84849506D01*
X107416534Y-84835612D01*
X107416534Y-84835611D01*
X107422039Y-84831225D01*
X107425097Y-84824886D01*
X107429488Y-84819385D01*
X107430022Y-84819811D01*
X107434398Y-84813647D01*
X109038574Y-83209471D01*
X109082768Y-83191165D01*
X109194597Y-83191165D01*
X109309489Y-83149348D01*
X109403149Y-83070757D01*
X109405884Y-83066019D01*
X109409395Y-83061835D01*
X109410563Y-83062815D01*
X109443437Y-83037594D01*
X109459609Y-83035465D01*
X110914303Y-83035465D01*
X110921642Y-83036715D01*
X110921725Y-83035988D01*
X110928716Y-83036785D01*
X110935357Y-83039117D01*
X110942350Y-83038339D01*
X110942351Y-83038339D01*
X110964732Y-83035848D01*
X110971645Y-83035465D01*
X110979068Y-83035465D01*
X110986000Y-83033884D01*
X110992953Y-83032708D01*
X111021964Y-83029479D01*
X111027928Y-83025746D01*
X111031876Y-83024371D01*
X111035635Y-83022562D01*
X111042494Y-83020997D01*
X111065309Y-83002816D01*
X111071094Y-82998721D01*
X111074250Y-82996745D01*
X111074252Y-82996744D01*
X111077246Y-82994869D01*
X111082459Y-82989656D01*
X111087703Y-82984971D01*
X111105139Y-82971077D01*
X111105139Y-82971076D01*
X111110644Y-82966690D01*
X111113702Y-82960351D01*
X111118093Y-82954850D01*
X111118627Y-82955276D01*
X111123003Y-82949112D01*
X111406123Y-82665992D01*
X111450317Y-82647686D01*
X111468951Y-82650529D01*
X111550864Y-82676121D01*
X111555314Y-82676203D01*
X111555317Y-82676203D01*
X111692052Y-82678709D01*
X111692055Y-82678709D01*
X111696498Y-82678790D01*
X111700789Y-82677620D01*
X111700790Y-82677620D01*
X111789387Y-82653465D01*
X111837026Y-82640477D01*
X111840817Y-82638149D01*
X111840820Y-82638148D01*
X111957362Y-82566592D01*
X111957365Y-82566589D01*
X111961154Y-82564263D01*
X111964137Y-82560967D01*
X111964141Y-82560964D01*
X112055914Y-82459574D01*
X112058901Y-82456274D01*
X112122410Y-82325191D01*
X112124760Y-82311227D01*
X112135648Y-82246504D01*
X112146576Y-82181552D01*
X112146729Y-82169000D01*
X112126080Y-82024813D01*
X112071649Y-81905100D01*
X112067636Y-81896273D01*
X112067635Y-81896271D01*
X112065792Y-81892218D01*
X111970713Y-81781873D01*
X111848485Y-81702648D01*
X111708934Y-81660914D01*
X111636106Y-81660469D01*
X111567732Y-81660051D01*
X111567731Y-81660051D01*
X111563279Y-81660024D01*
X111423229Y-81700051D01*
X111300042Y-81777776D01*
X111297099Y-81781108D01*
X111297097Y-81781110D01*
X111281822Y-81798406D01*
X111203622Y-81886951D01*
X111201730Y-81890981D01*
X111143611Y-82014769D01*
X111143610Y-82014772D01*
X111141719Y-82018800D01*
X111119309Y-82162724D01*
X111119886Y-82167137D01*
X111119886Y-82167139D01*
X111124260Y-82200587D01*
X111138195Y-82307152D01*
X111139988Y-82311227D01*
X111139989Y-82311230D01*
X111147418Y-82328115D01*
X111148461Y-82375940D01*
X111134405Y-82397480D01*
X110896726Y-82635159D01*
X110852532Y-82653465D01*
X109459609Y-82653465D01*
X109415415Y-82635159D01*
X109407415Y-82624735D01*
X109405884Y-82622911D01*
X109403149Y-82618173D01*
X109309489Y-82539582D01*
X109194597Y-82497765D01*
X109072333Y-82497765D01*
X108957441Y-82539582D01*
X108863781Y-82618173D01*
X108843405Y-82653465D01*
X108805383Y-82719319D01*
X108805382Y-82719321D01*
X108802648Y-82724057D01*
X108781417Y-82844465D01*
X108782366Y-82849847D01*
X108782366Y-82849853D01*
X108788048Y-82882076D01*
X108777695Y-82928777D01*
X108770692Y-82937123D01*
X107208121Y-84499694D01*
X107163927Y-84518000D01*
X106498144Y-84518000D01*
X106453950Y-84499694D01*
X106445950Y-84489270D01*
X106444419Y-84487446D01*
X106441684Y-84482708D01*
X106348024Y-84404117D01*
X106233132Y-84362300D01*
X106110868Y-84362300D01*
X105995976Y-84404117D01*
X105902316Y-84482708D01*
X105892509Y-84499694D01*
X105843918Y-84583854D01*
X105843917Y-84583856D01*
X105841183Y-84588592D01*
X105819952Y-84709000D01*
X85090500Y-84709000D01*
X85090500Y-80518000D01*
X93373952Y-80518000D01*
X93395183Y-80638408D01*
X93397917Y-80643144D01*
X93397918Y-80643146D01*
X93414981Y-80672699D01*
X93456316Y-80744292D01*
X93549976Y-80822883D01*
X93664868Y-80864700D01*
X93787132Y-80864700D01*
X93902024Y-80822883D01*
X93995684Y-80744292D01*
X93998419Y-80739554D01*
X94001930Y-80735370D01*
X94003098Y-80736350D01*
X94035972Y-80711129D01*
X94052144Y-80709000D01*
X94225704Y-80709000D01*
X94269898Y-80727306D01*
X94288204Y-80771500D01*
X94285074Y-80789248D01*
X94284183Y-80790792D01*
X94262952Y-80911200D01*
X94284183Y-81031608D01*
X94286917Y-81036344D01*
X94286918Y-81036346D01*
X94301127Y-81060956D01*
X94345316Y-81137492D01*
X94438976Y-81216083D01*
X94553868Y-81257900D01*
X94665697Y-81257900D01*
X94709891Y-81276206D01*
X95634272Y-82200587D01*
X95638577Y-82206661D01*
X95639150Y-82206205D01*
X95643531Y-82211713D01*
X95646578Y-82218058D01*
X95652075Y-82222454D01*
X95669661Y-82236518D01*
X95674820Y-82241135D01*
X95680069Y-82246384D01*
X95683043Y-82248253D01*
X95686072Y-82250157D01*
X95691848Y-82254262D01*
X95714633Y-82272483D01*
X95721493Y-82274060D01*
X95725253Y-82275878D01*
X95729189Y-82277256D01*
X95735148Y-82281002D01*
X95742142Y-82281793D01*
X95742143Y-82281793D01*
X95751620Y-82282864D01*
X95764142Y-82284280D01*
X95771108Y-82285470D01*
X95778197Y-82287100D01*
X95785571Y-82287100D01*
X95792592Y-82287496D01*
X95821739Y-82290791D01*
X95828384Y-82288470D01*
X95835378Y-82287686D01*
X95835454Y-82288364D01*
X95842906Y-82287100D01*
X102163668Y-82287100D01*
X102171007Y-82288350D01*
X102171090Y-82287623D01*
X102178081Y-82288420D01*
X102184722Y-82290752D01*
X102191715Y-82289974D01*
X102191716Y-82289974D01*
X102212839Y-82287623D01*
X102214098Y-82287483D01*
X102221010Y-82287100D01*
X102228433Y-82287100D01*
X102235365Y-82285519D01*
X102242318Y-82284343D01*
X102271329Y-82281114D01*
X102277293Y-82277381D01*
X102281241Y-82276006D01*
X102285000Y-82274197D01*
X102291859Y-82272632D01*
X102314674Y-82254451D01*
X102320459Y-82250356D01*
X102323615Y-82248380D01*
X102323617Y-82248379D01*
X102326611Y-82246504D01*
X102331824Y-82241291D01*
X102337068Y-82236606D01*
X102354504Y-82222712D01*
X102354504Y-82222711D01*
X102360009Y-82218325D01*
X102363067Y-82211986D01*
X102367458Y-82206485D01*
X102367992Y-82206911D01*
X102372368Y-82200747D01*
X102422109Y-82151006D01*
X102466303Y-82132700D01*
X102578132Y-82132700D01*
X102693024Y-82090883D01*
X102786684Y-82012292D01*
X102817251Y-81959350D01*
X102845082Y-81911146D01*
X102845083Y-81911144D01*
X102847817Y-81906408D01*
X102869048Y-81786000D01*
X102847817Y-81665592D01*
X102845081Y-81660853D01*
X102843213Y-81655721D01*
X102844434Y-81655277D01*
X102838952Y-81613621D01*
X102868074Y-81575672D01*
X102899321Y-81567300D01*
X102962297Y-81567300D01*
X103006491Y-81585606D01*
X103114227Y-81693342D01*
X103132533Y-81737536D01*
X103131583Y-81748389D01*
X103125901Y-81780612D01*
X103125901Y-81780618D01*
X103124952Y-81786000D01*
X103146183Y-81906408D01*
X103148917Y-81911144D01*
X103148918Y-81911146D01*
X103176749Y-81959350D01*
X103207316Y-82012292D01*
X103300976Y-82090883D01*
X103415868Y-82132700D01*
X103538132Y-82132700D01*
X103653024Y-82090883D01*
X103746684Y-82012292D01*
X103777251Y-81959350D01*
X103805082Y-81911146D01*
X103805083Y-81911144D01*
X103807817Y-81906408D01*
X103829048Y-81786000D01*
X103807817Y-81665592D01*
X103805083Y-81660856D01*
X103805082Y-81660854D01*
X103761636Y-81585606D01*
X103746684Y-81559708D01*
X103653024Y-81481117D01*
X103538132Y-81439300D01*
X103426303Y-81439300D01*
X103382109Y-81420994D01*
X103232928Y-81271813D01*
X103228623Y-81265739D01*
X103228050Y-81266195D01*
X103223669Y-81260687D01*
X103220622Y-81254342D01*
X103197539Y-81235882D01*
X103192380Y-81231265D01*
X103187131Y-81226016D01*
X103181128Y-81222243D01*
X103175352Y-81218138D01*
X103152567Y-81199917D01*
X103145707Y-81198340D01*
X103141947Y-81196522D01*
X103138011Y-81195144D01*
X103132052Y-81191398D01*
X103125058Y-81190607D01*
X103125057Y-81190607D01*
X103103064Y-81188121D01*
X103096087Y-81186929D01*
X103089003Y-81185300D01*
X103081629Y-81185300D01*
X103074608Y-81184904D01*
X103072927Y-81184714D01*
X103045462Y-81181609D01*
X103038817Y-81183930D01*
X103031823Y-81184714D01*
X103031747Y-81184036D01*
X103024295Y-81185300D01*
X102289259Y-81185300D01*
X102267552Y-81181409D01*
X102267525Y-81181399D01*
X102232440Y-81148884D01*
X102227502Y-81132568D01*
X102221141Y-81092409D01*
X102232307Y-81045895D01*
X102238677Y-81038437D01*
X104180044Y-79097070D01*
X104224238Y-79078764D01*
X104252614Y-79085577D01*
X104273198Y-79096066D01*
X104273202Y-79096067D01*
X104277582Y-79098299D01*
X104394000Y-79116738D01*
X104398855Y-79115969D01*
X104505559Y-79099069D01*
X104505561Y-79099068D01*
X104510418Y-79098299D01*
X104514802Y-79096065D01*
X104514803Y-79096065D01*
X104575847Y-79064961D01*
X104615441Y-79044787D01*
X104698787Y-78961441D01*
X104752299Y-78856418D01*
X104754079Y-78845179D01*
X104779073Y-78804393D01*
X104825587Y-78793227D01*
X104832638Y-78795005D01*
X104837248Y-78797902D01*
X104844242Y-78798693D01*
X104844246Y-78798694D01*
X104866237Y-78801180D01*
X104873223Y-78802373D01*
X104880297Y-78804000D01*
X104887677Y-78804000D01*
X104894698Y-78804396D01*
X104923838Y-78807690D01*
X104930484Y-78805369D01*
X104937478Y-78804585D01*
X104937554Y-78805264D01*
X104945004Y-78804000D01*
X106099856Y-78804000D01*
X106144050Y-78822306D01*
X106152050Y-78832730D01*
X106153581Y-78834554D01*
X106156316Y-78839292D01*
X106249976Y-78917883D01*
X106364868Y-78959700D01*
X106487132Y-78959700D01*
X106602024Y-78917883D01*
X106695684Y-78839292D01*
X106736301Y-78768943D01*
X106754082Y-78738146D01*
X106754083Y-78738144D01*
X106756817Y-78733408D01*
X106778048Y-78613000D01*
X106756817Y-78492592D01*
X106754083Y-78487856D01*
X106754082Y-78487854D01*
X106698905Y-78392287D01*
X106695684Y-78386708D01*
X106602024Y-78308117D01*
X106487132Y-78266300D01*
X106364868Y-78266300D01*
X106249976Y-78308117D01*
X106156316Y-78386708D01*
X106153581Y-78391446D01*
X106150070Y-78395630D01*
X106148902Y-78394650D01*
X106116028Y-78419871D01*
X106099856Y-78422000D01*
X105611692Y-78422000D01*
X105567498Y-78403694D01*
X105549192Y-78359500D01*
X105567498Y-78315306D01*
X105571518Y-78311622D01*
X105572529Y-78310774D01*
X105572532Y-78310770D01*
X105576719Y-78307257D01*
X105610018Y-78249582D01*
X105635117Y-78206111D01*
X105635118Y-78206109D01*
X105637852Y-78201373D01*
X105659083Y-78080965D01*
X105637852Y-77960557D01*
X105635118Y-77955821D01*
X105635117Y-77955819D01*
X105591232Y-77879810D01*
X105576719Y-77854673D01*
X105483059Y-77776082D01*
X105368167Y-77734265D01*
X105259317Y-77734265D01*
X105215634Y-77716171D01*
X105213892Y-77712542D01*
X105190809Y-77694082D01*
X105185650Y-77689465D01*
X105180401Y-77684216D01*
X105174398Y-77680443D01*
X105168622Y-77676338D01*
X105145837Y-77658117D01*
X105138977Y-77656540D01*
X105135217Y-77654722D01*
X105131281Y-77653344D01*
X105125322Y-77649598D01*
X105118328Y-77648807D01*
X105118327Y-77648807D01*
X105096334Y-77646321D01*
X105089357Y-77645129D01*
X105082273Y-77643500D01*
X105074899Y-77643500D01*
X105067878Y-77643104D01*
X105066197Y-77642914D01*
X105038732Y-77639809D01*
X105032087Y-77642130D01*
X105025093Y-77642914D01*
X105025017Y-77642236D01*
X105017565Y-77643500D01*
X103840093Y-77643500D01*
X103795899Y-77625194D01*
X103777593Y-77581000D01*
X103785967Y-77549750D01*
X103833082Y-77468146D01*
X103833083Y-77468144D01*
X103835817Y-77463408D01*
X103857048Y-77343000D01*
X103835817Y-77222592D01*
X103833083Y-77217856D01*
X103833082Y-77217854D01*
X103801464Y-77163092D01*
X103774684Y-77116708D01*
X103681024Y-77038117D01*
X103566132Y-76996300D01*
X103443868Y-76996300D01*
X103328976Y-77038117D01*
X103235316Y-77116708D01*
X103232581Y-77121446D01*
X103229070Y-77125630D01*
X103227902Y-77124650D01*
X103195028Y-77149871D01*
X103178856Y-77152000D01*
X99738234Y-77152000D01*
X99730893Y-77150747D01*
X99730810Y-77151476D01*
X99723819Y-77150679D01*
X99717178Y-77148347D01*
X99710186Y-77149125D01*
X99710184Y-77149125D01*
X99687795Y-77151617D01*
X99680882Y-77152000D01*
X99673467Y-77152000D01*
X99666538Y-77153580D01*
X99659595Y-77154755D01*
X99630572Y-77157985D01*
X99624606Y-77161720D01*
X99620667Y-77163092D01*
X99616904Y-77164903D01*
X99610041Y-77166468D01*
X99604537Y-77170854D01*
X99587227Y-77184648D01*
X99581441Y-77188744D01*
X99578285Y-77190720D01*
X99575289Y-77192596D01*
X99570076Y-77197809D01*
X99564832Y-77202494D01*
X99547610Y-77216218D01*
X99541891Y-77220775D01*
X99538833Y-77227114D01*
X99534442Y-77232615D01*
X99533908Y-77232189D01*
X99529532Y-77238353D01*
X96967191Y-79800694D01*
X96922997Y-79819000D01*
X96719144Y-79819000D01*
X96674950Y-79800694D01*
X96666950Y-79790270D01*
X96665419Y-79788446D01*
X96662684Y-79783708D01*
X96569024Y-79705117D01*
X96454132Y-79663300D01*
X96331868Y-79663300D01*
X96216976Y-79705117D01*
X96123316Y-79783708D01*
X96113509Y-79800694D01*
X96064918Y-79884854D01*
X96064917Y-79884856D01*
X96062183Y-79889592D01*
X96040952Y-80010000D01*
X96062183Y-80130408D01*
X96064917Y-80135144D01*
X96064918Y-80135146D01*
X96096535Y-80189906D01*
X96120968Y-80232224D01*
X96121560Y-80233250D01*
X96127804Y-80280676D01*
X96098684Y-80318626D01*
X96067434Y-80327000D01*
X94052144Y-80327000D01*
X94007950Y-80308694D01*
X93999950Y-80298270D01*
X93998419Y-80296446D01*
X93995684Y-80291708D01*
X93902024Y-80213117D01*
X93787132Y-80171300D01*
X93664868Y-80171300D01*
X93549976Y-80213117D01*
X93456316Y-80291708D01*
X93446509Y-80308694D01*
X93397918Y-80392854D01*
X93397917Y-80392856D01*
X93395183Y-80397592D01*
X93373952Y-80518000D01*
X85090500Y-80518000D01*
X85090500Y-77996760D01*
X85108806Y-77952566D01*
X85153000Y-77934260D01*
X85197194Y-77952566D01*
X85202584Y-77958712D01*
X85214723Y-77974532D01*
X85214727Y-77974536D01*
X85217218Y-77977782D01*
X85328746Y-78063361D01*
X85458624Y-78117158D01*
X85462680Y-78117692D01*
X85462684Y-78117693D01*
X85593936Y-78134972D01*
X85598000Y-78135507D01*
X85602064Y-78134972D01*
X85733316Y-78117693D01*
X85733320Y-78117692D01*
X85737376Y-78117158D01*
X85867254Y-78063361D01*
X85978782Y-77977782D01*
X86064361Y-77866253D01*
X86102248Y-77774787D01*
X86116590Y-77740162D01*
X86116590Y-77740161D01*
X86118158Y-77736376D01*
X86119722Y-77724500D01*
X86135972Y-77601064D01*
X86136507Y-77597000D01*
X86132859Y-77569292D01*
X86118693Y-77461687D01*
X86118693Y-77461686D01*
X86118158Y-77457624D01*
X86064361Y-77327747D01*
X86061870Y-77324501D01*
X86061868Y-77324497D01*
X86031374Y-77284756D01*
X86018994Y-77238551D01*
X86036765Y-77202515D01*
X86536616Y-76702664D01*
X90368288Y-76702664D01*
X90368865Y-76707077D01*
X90368865Y-76707079D01*
X90370064Y-76716248D01*
X90384344Y-76825449D01*
X90386137Y-76829525D01*
X90386138Y-76829527D01*
X90432421Y-76934714D01*
X90434216Y-76938793D01*
X90437081Y-76942201D01*
X90437082Y-76942203D01*
X90469531Y-76980806D01*
X90513895Y-77033583D01*
X90616976Y-77102200D01*
X90735173Y-77139127D01*
X90739623Y-77139209D01*
X90739626Y-77139209D01*
X90854535Y-77141315D01*
X90854538Y-77141315D01*
X90858982Y-77141396D01*
X90911968Y-77126950D01*
X90974151Y-77109998D01*
X90974154Y-77109997D01*
X90978452Y-77108825D01*
X91083979Y-77044031D01*
X91139169Y-76983058D01*
X91185506Y-76962500D01*
X92076033Y-76962500D01*
X92120227Y-76980806D01*
X92123870Y-76984777D01*
X92164895Y-77033583D01*
X92267976Y-77102200D01*
X92386173Y-77139127D01*
X92390623Y-77139209D01*
X92390626Y-77139209D01*
X92505535Y-77141315D01*
X92505538Y-77141315D01*
X92509982Y-77141396D01*
X92562968Y-77126950D01*
X92625151Y-77109998D01*
X92625154Y-77109997D01*
X92629452Y-77108825D01*
X92734979Y-77044031D01*
X92818078Y-76952225D01*
X92872070Y-76840785D01*
X92892615Y-76718671D01*
X92892745Y-76708000D01*
X92875190Y-76585420D01*
X92856384Y-76544058D01*
X92825780Y-76476747D01*
X92825778Y-76476743D01*
X92823937Y-76472695D01*
X92743105Y-76378885D01*
X92639194Y-76311533D01*
X92579875Y-76293793D01*
X92524823Y-76277328D01*
X92524820Y-76277328D01*
X92520555Y-76276052D01*
X92459597Y-76275680D01*
X92401180Y-76275323D01*
X92401179Y-76275323D01*
X92396727Y-76275296D01*
X92277664Y-76309324D01*
X92172937Y-76375402D01*
X92169994Y-76378734D01*
X92169992Y-76378736D01*
X92122622Y-76432373D01*
X92075776Y-76453500D01*
X91185046Y-76453500D01*
X91137698Y-76431798D01*
X91095008Y-76382254D01*
X91092105Y-76378885D01*
X90988194Y-76311533D01*
X90928875Y-76293793D01*
X90873823Y-76277328D01*
X90873820Y-76277328D01*
X90869555Y-76276052D01*
X90808597Y-76275680D01*
X90750180Y-76275323D01*
X90750179Y-76275323D01*
X90745727Y-76275296D01*
X90626664Y-76309324D01*
X90521937Y-76375402D01*
X90518994Y-76378734D01*
X90518992Y-76378736D01*
X90466158Y-76438559D01*
X90439965Y-76468217D01*
X90387339Y-76580308D01*
X90368288Y-76702664D01*
X86536616Y-76702664D01*
X90982874Y-72256406D01*
X91027068Y-72238100D01*
X95269754Y-72238100D01*
X95313948Y-72256406D01*
X95332254Y-72300600D01*
X95319338Y-72338648D01*
X95294133Y-72371496D01*
X95294131Y-72371499D01*
X95291639Y-72374747D01*
X95290072Y-72378530D01*
X95274993Y-72414935D01*
X95237842Y-72504624D01*
X95219493Y-72644000D01*
X95220028Y-72648064D01*
X95235574Y-72766145D01*
X95237842Y-72783376D01*
X95291639Y-72913253D01*
X95294130Y-72916499D01*
X95363585Y-73007015D01*
X95376500Y-73045063D01*
X95376500Y-75310496D01*
X95358194Y-75354690D01*
X95352048Y-75360081D01*
X95250218Y-75438218D01*
X95164639Y-75549747D01*
X95110842Y-75679624D01*
X95110307Y-75683686D01*
X95110307Y-75683687D01*
X95109457Y-75690146D01*
X95092493Y-75819000D01*
X95110842Y-75958376D01*
X95164639Y-76088253D01*
X95207428Y-76144017D01*
X95223049Y-76164374D01*
X95250218Y-76199782D01*
X95361746Y-76285361D01*
X95365529Y-76286928D01*
X95421851Y-76310257D01*
X95491624Y-76339158D01*
X95495680Y-76339692D01*
X95495684Y-76339693D01*
X95626936Y-76356972D01*
X95631000Y-76357507D01*
X95635064Y-76356972D01*
X95766316Y-76339693D01*
X95766320Y-76339692D01*
X95770376Y-76339158D01*
X95840150Y-76310257D01*
X95896471Y-76286928D01*
X95900254Y-76285361D01*
X96011782Y-76199782D01*
X96014273Y-76196536D01*
X96089919Y-76097952D01*
X96131346Y-76074035D01*
X96139504Y-76073500D01*
X106670557Y-76073500D01*
X106714751Y-76091806D01*
X106733057Y-76136000D01*
X106726245Y-76164374D01*
X106702701Y-76210582D01*
X106684262Y-76327000D01*
X106685031Y-76331855D01*
X106700952Y-76432373D01*
X106702701Y-76443418D01*
X106756213Y-76548441D01*
X106788194Y-76580422D01*
X106806500Y-76624616D01*
X106806500Y-77000905D01*
X106805299Y-77013098D01*
X106801514Y-77032127D01*
X106821266Y-77131428D01*
X106863316Y-77194361D01*
X106863318Y-77194363D01*
X106863320Y-77194366D01*
X106867286Y-77200301D01*
X106877516Y-77215611D01*
X106882633Y-77219030D01*
X106882634Y-77219031D01*
X106893647Y-77226390D01*
X106903117Y-77234162D01*
X111106836Y-81437880D01*
X111114608Y-81447350D01*
X111125389Y-81463484D01*
X111130506Y-81466903D01*
X111146639Y-81477683D01*
X111146640Y-81477684D01*
X111204453Y-81516314D01*
X111204455Y-81516315D01*
X111209572Y-81519734D01*
X111308873Y-81539486D01*
X111327902Y-81535701D01*
X111340095Y-81534500D01*
X112859384Y-81534500D01*
X112903578Y-81552806D01*
X112904264Y-81553492D01*
X112922570Y-81597686D01*
X112904264Y-81641880D01*
X112859689Y-81660185D01*
X112837733Y-81660051D01*
X112837731Y-81660051D01*
X112833279Y-81660024D01*
X112693229Y-81700051D01*
X112570042Y-81777776D01*
X112567099Y-81781108D01*
X112567097Y-81781110D01*
X112551822Y-81798406D01*
X112473622Y-81886951D01*
X112471730Y-81890981D01*
X112413611Y-82014769D01*
X112413610Y-82014772D01*
X112411719Y-82018800D01*
X112389309Y-82162724D01*
X112389886Y-82167137D01*
X112389886Y-82167139D01*
X112394260Y-82200587D01*
X112408195Y-82307152D01*
X112466859Y-82440474D01*
X112560583Y-82551973D01*
X112564288Y-82554439D01*
X112564290Y-82554441D01*
X112654755Y-82614659D01*
X112681834Y-82632684D01*
X112820864Y-82676121D01*
X112825314Y-82676203D01*
X112825317Y-82676203D01*
X112962052Y-82678709D01*
X112962055Y-82678709D01*
X112966498Y-82678790D01*
X112970789Y-82677620D01*
X112970790Y-82677620D01*
X113059387Y-82653465D01*
X113107026Y-82640477D01*
X113110817Y-82638149D01*
X113110820Y-82638148D01*
X113227362Y-82566592D01*
X113227365Y-82566589D01*
X113231154Y-82564263D01*
X113234137Y-82560967D01*
X113234141Y-82560964D01*
X113325914Y-82459574D01*
X113328901Y-82456274D01*
X113392410Y-82325191D01*
X113394760Y-82311227D01*
X113405648Y-82246504D01*
X113416576Y-82181552D01*
X113416729Y-82169000D01*
X113396080Y-82024813D01*
X113341649Y-81905100D01*
X113337636Y-81896273D01*
X113337635Y-81896271D01*
X113335792Y-81892218D01*
X113240713Y-81781873D01*
X113205931Y-81759328D01*
X113178803Y-81719931D01*
X113187479Y-81672889D01*
X113230149Y-81645152D01*
X113250809Y-81641880D01*
X113268559Y-81639069D01*
X113268561Y-81639068D01*
X113273418Y-81638299D01*
X113277802Y-81636065D01*
X113277803Y-81636065D01*
X113374058Y-81587020D01*
X113378441Y-81584787D01*
X113461787Y-81501441D01*
X113492496Y-81441171D01*
X113513065Y-81400803D01*
X113513065Y-81400802D01*
X113515299Y-81396418D01*
X113533738Y-81280000D01*
X113529674Y-81254342D01*
X113516069Y-81168441D01*
X113516068Y-81168439D01*
X113515299Y-81163582D01*
X113502006Y-81137492D01*
X113464020Y-81062942D01*
X113461787Y-81058559D01*
X113378441Y-80975213D01*
X113301362Y-80935939D01*
X113277803Y-80923935D01*
X113277802Y-80923935D01*
X113273418Y-80921701D01*
X113268561Y-80920932D01*
X113268559Y-80920931D01*
X113161855Y-80904031D01*
X113157000Y-80903262D01*
X113152145Y-80904031D01*
X113045441Y-80920931D01*
X113045439Y-80920932D01*
X113040582Y-80921701D01*
X113036198Y-80923935D01*
X113036197Y-80923935D01*
X113012638Y-80935939D01*
X112935559Y-80975213D01*
X112903578Y-81007194D01*
X112859384Y-81025500D01*
X111440178Y-81025500D01*
X111395984Y-81007194D01*
X108312795Y-77924004D01*
X108294489Y-77879810D01*
X108312795Y-77835616D01*
X108328613Y-77824123D01*
X108425441Y-77774787D01*
X108457422Y-77742806D01*
X108501616Y-77724500D01*
X110612694Y-77724500D01*
X110656888Y-77742806D01*
X113773194Y-80859112D01*
X113791500Y-80903306D01*
X113791500Y-83522384D01*
X113773194Y-83566578D01*
X113741213Y-83598559D01*
X113687701Y-83703582D01*
X113669262Y-83820000D01*
X113687701Y-83936418D01*
X113741213Y-84041441D01*
X113824559Y-84124787D01*
X113828942Y-84127020D01*
X113925197Y-84176065D01*
X113925198Y-84176065D01*
X113929582Y-84178299D01*
X113934439Y-84179068D01*
X113934441Y-84179069D01*
X114041145Y-84195969D01*
X114046000Y-84196738D01*
X114050855Y-84195969D01*
X114157559Y-84179069D01*
X114157561Y-84179068D01*
X114162418Y-84178299D01*
X114166802Y-84176065D01*
X114166803Y-84176065D01*
X114263058Y-84127020D01*
X114267441Y-84124787D01*
X114350787Y-84041441D01*
X114404299Y-83936418D01*
X114422738Y-83820000D01*
X114404299Y-83703582D01*
X114350787Y-83598559D01*
X114318806Y-83566578D01*
X114300500Y-83522384D01*
X114300500Y-80803217D01*
X114301701Y-80791025D01*
X114304284Y-80778038D01*
X114305485Y-80772000D01*
X114300500Y-80746937D01*
X114300500Y-80746933D01*
X114285734Y-80672699D01*
X114270595Y-80650042D01*
X114243684Y-80609766D01*
X114243681Y-80609763D01*
X114229484Y-80588516D01*
X114224366Y-80585096D01*
X114213353Y-80577737D01*
X114203883Y-80569965D01*
X110946035Y-77312117D01*
X110938263Y-77302647D01*
X110930904Y-77291634D01*
X110930903Y-77291633D01*
X110927484Y-77286516D01*
X110918119Y-77280258D01*
X110906239Y-77272320D01*
X110906236Y-77272318D01*
X110906234Y-77272316D01*
X110843301Y-77230266D01*
X110804721Y-77222592D01*
X110769067Y-77215500D01*
X110744000Y-77210514D01*
X110737962Y-77211715D01*
X110724971Y-77214299D01*
X110712778Y-77215500D01*
X108501616Y-77215500D01*
X108457422Y-77197194D01*
X108425441Y-77165213D01*
X108369181Y-77136547D01*
X108324803Y-77113935D01*
X108324802Y-77113935D01*
X108320418Y-77111701D01*
X108315561Y-77110932D01*
X108315559Y-77110931D01*
X108208855Y-77094031D01*
X108204000Y-77093262D01*
X108199145Y-77094031D01*
X108092441Y-77110931D01*
X108092439Y-77110932D01*
X108087582Y-77111701D01*
X108083198Y-77113935D01*
X108083197Y-77113935D01*
X108038819Y-77136547D01*
X107982559Y-77165213D01*
X107899213Y-77248559D01*
X107896980Y-77252942D01*
X107849878Y-77345385D01*
X107813504Y-77376452D01*
X107765816Y-77372699D01*
X107749996Y-77361205D01*
X107333806Y-76945015D01*
X107315500Y-76900821D01*
X107315500Y-76624616D01*
X107333806Y-76580422D01*
X107365787Y-76548441D01*
X107419299Y-76443418D01*
X107421049Y-76432373D01*
X107436969Y-76331855D01*
X107437738Y-76327000D01*
X107419299Y-76210582D01*
X107395755Y-76164374D01*
X107392002Y-76116686D01*
X107423069Y-76080312D01*
X107451443Y-76073500D01*
X110331778Y-76073500D01*
X110343971Y-76074701D01*
X110363000Y-76078486D01*
X110462301Y-76058734D01*
X110525234Y-76016684D01*
X110525236Y-76016682D01*
X110525239Y-76016680D01*
X110541367Y-76005903D01*
X110546484Y-76002484D01*
X110557263Y-75986353D01*
X110565035Y-75976883D01*
X110611912Y-75930006D01*
X110656106Y-75911700D01*
X110678132Y-75911700D01*
X110793024Y-75869883D01*
X110886684Y-75791292D01*
X110917251Y-75738350D01*
X110945082Y-75690146D01*
X110945083Y-75690144D01*
X110947817Y-75685408D01*
X110969048Y-75565000D01*
X110947817Y-75444592D01*
X110945083Y-75439856D01*
X110945082Y-75439854D01*
X110894727Y-75352639D01*
X110886684Y-75338708D01*
X110882493Y-75335191D01*
X110834451Y-75294878D01*
X110812363Y-75252447D01*
X110826747Y-75206826D01*
X110869178Y-75184738D01*
X110874625Y-75184500D01*
X114764384Y-75184500D01*
X114808578Y-75202806D01*
X114840559Y-75234787D01*
X114875219Y-75252447D01*
X114941197Y-75286065D01*
X114941198Y-75286065D01*
X114945582Y-75288299D01*
X114950439Y-75289068D01*
X114950441Y-75289069D01*
X115057145Y-75305969D01*
X115062000Y-75306738D01*
X115066855Y-75305969D01*
X115173559Y-75289069D01*
X115173561Y-75289068D01*
X115178418Y-75288299D01*
X115182802Y-75286065D01*
X115182803Y-75286065D01*
X115248781Y-75252447D01*
X115283441Y-75234787D01*
X115366787Y-75151441D01*
X115396953Y-75092237D01*
X115418065Y-75050803D01*
X115418065Y-75050802D01*
X115420299Y-75046418D01*
X115438738Y-74930000D01*
X115420299Y-74813582D01*
X115366787Y-74708559D01*
X115283441Y-74625213D01*
X115232666Y-74599342D01*
X115182803Y-74573935D01*
X115182802Y-74573935D01*
X115178418Y-74571701D01*
X115173561Y-74570932D01*
X115173559Y-74570931D01*
X115066855Y-74554031D01*
X115062000Y-74553262D01*
X115057145Y-74554031D01*
X114950441Y-74570931D01*
X114950439Y-74570932D01*
X114945582Y-74571701D01*
X114941198Y-74573935D01*
X114941197Y-74573935D01*
X114891334Y-74599342D01*
X114840559Y-74625213D01*
X114808578Y-74657194D01*
X114764384Y-74675500D01*
X103763306Y-74675500D01*
X103719112Y-74657194D01*
X101867264Y-72805346D01*
X101849728Y-72770929D01*
X101832071Y-72659447D01*
X101832068Y-72659438D01*
X101831299Y-72654582D01*
X101823837Y-72639936D01*
X101780020Y-72553942D01*
X101777787Y-72549559D01*
X101694441Y-72466213D01*
X101643666Y-72440342D01*
X101593803Y-72414935D01*
X101593802Y-72414935D01*
X101589418Y-72412701D01*
X101584561Y-72411932D01*
X101584559Y-72411931D01*
X101477855Y-72395031D01*
X101473000Y-72394262D01*
X101468145Y-72395031D01*
X101361441Y-72411931D01*
X101361439Y-72411932D01*
X101356582Y-72412701D01*
X101352198Y-72414935D01*
X101352197Y-72414935D01*
X101302334Y-72440342D01*
X101251559Y-72466213D01*
X101168213Y-72549559D01*
X101165980Y-72553942D01*
X101122164Y-72639936D01*
X101114701Y-72654582D01*
X101096262Y-72771000D01*
X101114701Y-72887418D01*
X101116935Y-72891802D01*
X101116935Y-72891803D01*
X101142342Y-72941666D01*
X101168213Y-72992441D01*
X101251559Y-73075787D01*
X101255942Y-73078020D01*
X101352197Y-73127065D01*
X101352198Y-73127065D01*
X101356582Y-73129299D01*
X101361438Y-73130068D01*
X101361447Y-73130071D01*
X101472929Y-73147728D01*
X101507346Y-73165264D01*
X103429965Y-75087883D01*
X103437737Y-75097353D01*
X103448516Y-75113484D01*
X103453633Y-75116903D01*
X103469761Y-75127680D01*
X103469764Y-75127682D01*
X103469766Y-75127684D01*
X103532699Y-75169734D01*
X103632000Y-75189486D01*
X103651029Y-75185701D01*
X103663222Y-75184500D01*
X110359375Y-75184500D01*
X110403569Y-75202806D01*
X110421875Y-75247000D01*
X110403569Y-75291194D01*
X110399549Y-75294878D01*
X110351507Y-75335191D01*
X110347316Y-75338708D01*
X110339273Y-75352639D01*
X110288918Y-75439854D01*
X110288917Y-75439856D01*
X110286183Y-75444592D01*
X110274147Y-75512853D01*
X110248445Y-75553197D01*
X110212596Y-75564500D01*
X96139504Y-75564500D01*
X96095310Y-75546194D01*
X96089919Y-75540048D01*
X96014273Y-75441464D01*
X96014272Y-75441463D01*
X96011782Y-75438218D01*
X95909951Y-75360079D01*
X95886035Y-75318655D01*
X95885500Y-75310497D01*
X95885500Y-73210839D01*
X95903806Y-73166645D01*
X95924082Y-73153096D01*
X95937018Y-73147738D01*
X96027254Y-73110361D01*
X96138782Y-73024782D01*
X96224361Y-72913253D01*
X96278158Y-72783376D01*
X96280427Y-72766145D01*
X96295972Y-72648064D01*
X96296507Y-72644000D01*
X96278158Y-72504624D01*
X96241008Y-72414935D01*
X96225928Y-72378530D01*
X96224361Y-72374747D01*
X96221869Y-72371499D01*
X96221867Y-72371496D01*
X96196662Y-72338648D01*
X96184281Y-72292442D01*
X96208198Y-72251016D01*
X96246246Y-72238100D01*
X107145430Y-72238100D01*
X107150878Y-72238338D01*
X107191867Y-72241924D01*
X107231608Y-72231276D01*
X107236930Y-72230096D01*
X107272065Y-72223901D01*
X107272067Y-72223900D01*
X107277451Y-72222951D01*
X107283123Y-72219676D01*
X107298191Y-72213435D01*
X107298336Y-72213396D01*
X107304516Y-72211740D01*
X107315361Y-72204146D01*
X107338217Y-72188143D01*
X107342814Y-72185214D01*
X107373714Y-72167373D01*
X107373715Y-72167372D01*
X107378449Y-72164639D01*
X107404901Y-72133115D01*
X107408585Y-72129095D01*
X109262619Y-70275061D01*
X109306813Y-70256755D01*
X109314968Y-70257290D01*
X109347000Y-70261507D01*
X109351064Y-70260972D01*
X109482316Y-70243693D01*
X109482320Y-70243692D01*
X109486376Y-70243158D01*
X109563004Y-70211418D01*
X109612471Y-70190928D01*
X109616254Y-70189361D01*
X109727782Y-70103782D01*
X109813361Y-69992253D01*
X109867158Y-69862376D01*
X109867920Y-69856592D01*
X109884972Y-69727064D01*
X109885507Y-69723000D01*
X109867158Y-69583624D01*
X109813361Y-69453747D01*
X109727782Y-69342218D01*
X109616254Y-69256639D01*
X109486376Y-69202842D01*
X109482318Y-69202308D01*
X109482315Y-69202307D01*
X109454561Y-69198653D01*
X109441263Y-69196903D01*
X109399836Y-69172986D01*
X109387455Y-69126781D01*
X109405226Y-69090744D01*
X109833664Y-68662306D01*
X109877858Y-68644000D01*
X109977667Y-68644000D01*
X110021861Y-68662306D01*
X110034874Y-68681328D01*
X110053859Y-68724474D01*
X110147583Y-68835973D01*
X110151288Y-68838439D01*
X110151290Y-68838441D01*
X110244265Y-68900329D01*
X110268834Y-68916684D01*
X110407864Y-68960121D01*
X110412314Y-68960203D01*
X110412317Y-68960203D01*
X110549052Y-68962709D01*
X110549055Y-68962709D01*
X110553498Y-68962790D01*
X110557789Y-68961620D01*
X110557790Y-68961620D01*
X110608770Y-68947721D01*
X110694026Y-68924477D01*
X110697817Y-68922149D01*
X110697820Y-68922148D01*
X110814362Y-68850592D01*
X110814365Y-68850589D01*
X110818154Y-68848263D01*
X110821137Y-68844967D01*
X110821141Y-68844964D01*
X110912914Y-68743574D01*
X110915901Y-68740274D01*
X110979410Y-68609191D01*
X110981088Y-68599221D01*
X110990793Y-68541531D01*
X111003576Y-68465552D01*
X111003729Y-68453000D01*
X110983080Y-68308813D01*
X110945310Y-68225743D01*
X110924636Y-68180273D01*
X110924635Y-68180271D01*
X110922792Y-68176218D01*
X110914587Y-68166695D01*
X110846918Y-68088162D01*
X110827713Y-68065873D01*
X110705485Y-67986648D01*
X110565934Y-67944914D01*
X110493107Y-67944469D01*
X110424732Y-67944051D01*
X110424731Y-67944051D01*
X110420279Y-67944024D01*
X110280229Y-67984051D01*
X110157042Y-68061776D01*
X110154099Y-68065108D01*
X110154097Y-68065110D01*
X110122232Y-68101191D01*
X110060622Y-68170951D01*
X110058731Y-68174978D01*
X110058728Y-68174983D01*
X110034748Y-68226061D01*
X109999396Y-68258286D01*
X109978173Y-68262000D01*
X109816086Y-68262000D01*
X109808747Y-68260750D01*
X109808664Y-68261477D01*
X109801673Y-68260680D01*
X109795032Y-68258348D01*
X109788040Y-68259126D01*
X109788038Y-68259126D01*
X109765658Y-68261617D01*
X109758745Y-68262000D01*
X109751322Y-68262000D01*
X109747898Y-68262781D01*
X109744408Y-68263577D01*
X109737422Y-68264759D01*
X109729738Y-68265614D01*
X109708426Y-68267986D01*
X109702463Y-68271719D01*
X109698517Y-68273093D01*
X109694757Y-68274903D01*
X109687896Y-68276468D01*
X109668521Y-68291908D01*
X109665076Y-68294653D01*
X109659296Y-68298746D01*
X109653144Y-68302597D01*
X109647936Y-68307805D01*
X109642692Y-68312490D01*
X109626012Y-68325782D01*
X109619746Y-68330775D01*
X109616688Y-68337114D01*
X109612297Y-68342615D01*
X109611764Y-68342189D01*
X109607386Y-68348355D01*
X108188046Y-69767694D01*
X108143852Y-69786000D01*
X105355144Y-69786000D01*
X105310950Y-69767694D01*
X105302950Y-69757270D01*
X105301419Y-69755446D01*
X105298684Y-69750708D01*
X105205024Y-69672117D01*
X105090132Y-69630300D01*
X104967868Y-69630300D01*
X104852976Y-69672117D01*
X104759316Y-69750708D01*
X104738940Y-69786000D01*
X104700918Y-69851854D01*
X104700917Y-69851856D01*
X104698183Y-69856592D01*
X104676952Y-69977000D01*
X104698183Y-70097408D01*
X104700917Y-70102144D01*
X104700918Y-70102146D01*
X104711053Y-70119699D01*
X104759316Y-70203292D01*
X104852976Y-70281883D01*
X104967868Y-70323700D01*
X105090132Y-70323700D01*
X105205024Y-70281883D01*
X105298684Y-70203292D01*
X105301419Y-70198554D01*
X105304930Y-70194370D01*
X105306098Y-70195350D01*
X105338972Y-70170129D01*
X105355144Y-70168000D01*
X108205623Y-70168000D01*
X108212962Y-70169250D01*
X108213045Y-70168523D01*
X108220036Y-70169320D01*
X108226677Y-70171652D01*
X108233670Y-70170874D01*
X108233671Y-70170874D01*
X108256052Y-70168383D01*
X108262965Y-70168000D01*
X108270388Y-70168000D01*
X108273805Y-70167221D01*
X108277292Y-70166828D01*
X108277519Y-70168845D01*
X108318471Y-70175812D01*
X108346143Y-70214831D01*
X108338120Y-70261989D01*
X108329401Y-70272919D01*
X107043926Y-71558394D01*
X106999732Y-71576700D01*
X102677707Y-71576700D01*
X102633513Y-71558394D01*
X102615207Y-71514200D01*
X102629397Y-71475211D01*
X102631684Y-71473292D01*
X102650568Y-71440584D01*
X102690082Y-71372146D01*
X102690083Y-71372144D01*
X102692817Y-71367408D01*
X102714048Y-71247000D01*
X102692817Y-71126592D01*
X102690083Y-71121856D01*
X102690082Y-71121854D01*
X102634420Y-71025446D01*
X102634418Y-71025444D01*
X102631684Y-71020708D01*
X102575326Y-70973418D01*
X102553238Y-70930987D01*
X102553000Y-70925540D01*
X102553000Y-70805622D01*
X102571306Y-70761428D01*
X102615500Y-70743122D01*
X102655675Y-70757745D01*
X102689786Y-70786368D01*
X102689789Y-70786370D01*
X102693976Y-70789883D01*
X102808868Y-70831700D01*
X102931132Y-70831700D01*
X103046024Y-70789883D01*
X103139684Y-70711292D01*
X103170250Y-70658350D01*
X103198082Y-70610146D01*
X103198083Y-70610144D01*
X103200817Y-70605408D01*
X103222048Y-70485000D01*
X103200817Y-70364592D01*
X103198083Y-70359856D01*
X103198082Y-70359854D01*
X103142420Y-70263446D01*
X103142418Y-70263444D01*
X103139684Y-70258708D01*
X103083326Y-70211418D01*
X103061238Y-70168987D01*
X103061000Y-70163540D01*
X103061000Y-68496232D01*
X103062250Y-68488893D01*
X103061523Y-68488810D01*
X103062320Y-68481819D01*
X103064652Y-68475178D01*
X103063597Y-68465693D01*
X103061383Y-68445803D01*
X103061000Y-68438890D01*
X103061000Y-68431467D01*
X103059419Y-68424535D01*
X103058243Y-68417582D01*
X103055014Y-68388571D01*
X103051281Y-68382607D01*
X103049906Y-68378659D01*
X103048097Y-68374900D01*
X103046532Y-68368041D01*
X103028351Y-68345226D01*
X103024256Y-68339441D01*
X103022280Y-68336285D01*
X103022279Y-68336283D01*
X103020404Y-68333289D01*
X103015191Y-68328076D01*
X103010506Y-68322832D01*
X102996612Y-68305396D01*
X102996611Y-68305396D01*
X102992225Y-68299891D01*
X102985886Y-68296833D01*
X102980385Y-68292442D01*
X102980811Y-68291908D01*
X102974647Y-68287532D01*
X102434351Y-67747236D01*
X102416045Y-67703042D01*
X102434351Y-67658848D01*
X102457167Y-67644312D01*
X102538024Y-67614883D01*
X102631684Y-67536292D01*
X102634419Y-67531554D01*
X102637930Y-67527370D01*
X102639098Y-67528350D01*
X102671972Y-67503129D01*
X102688144Y-67501000D01*
X103390364Y-67501000D01*
X103397703Y-67502250D01*
X103397786Y-67501523D01*
X103404777Y-67502320D01*
X103411418Y-67504652D01*
X103418411Y-67503874D01*
X103418412Y-67503874D01*
X103440793Y-67501383D01*
X103447706Y-67501000D01*
X103455129Y-67501000D01*
X103462061Y-67499419D01*
X103469032Y-67498241D01*
X103485013Y-67496462D01*
X103530960Y-67509767D01*
X103553476Y-67547727D01*
X103554042Y-67550935D01*
X103555183Y-67557408D01*
X103557917Y-67562144D01*
X103557918Y-67562146D01*
X103574725Y-67591256D01*
X103616316Y-67663292D01*
X103709976Y-67741883D01*
X103824868Y-67783700D01*
X103947132Y-67783700D01*
X104062024Y-67741883D01*
X104155684Y-67663292D01*
X104158419Y-67658554D01*
X104161930Y-67654370D01*
X104163098Y-67655350D01*
X104195972Y-67630129D01*
X104212144Y-67628000D01*
X104985768Y-67628000D01*
X104993107Y-67629250D01*
X104993190Y-67628523D01*
X105000181Y-67629320D01*
X105006822Y-67631652D01*
X105013815Y-67630874D01*
X105013816Y-67630874D01*
X105036197Y-67628383D01*
X105043110Y-67628000D01*
X105050533Y-67628000D01*
X105057465Y-67626419D01*
X105064418Y-67625243D01*
X105093429Y-67622014D01*
X105099393Y-67618281D01*
X105103341Y-67616906D01*
X105107100Y-67615097D01*
X105113959Y-67613532D01*
X105136774Y-67595351D01*
X105142559Y-67591256D01*
X105145715Y-67589280D01*
X105145717Y-67589279D01*
X105148711Y-67587404D01*
X105153924Y-67582191D01*
X105159168Y-67577506D01*
X105176604Y-67563612D01*
X105176604Y-67563611D01*
X105182109Y-67559225D01*
X105185167Y-67552886D01*
X105189558Y-67547385D01*
X105190092Y-67547811D01*
X105194468Y-67541647D01*
X105426115Y-67310000D01*
X106430262Y-67310000D01*
X106448701Y-67426418D01*
X106450935Y-67430802D01*
X106450935Y-67430803D01*
X106470740Y-67469672D01*
X106502213Y-67531441D01*
X106585559Y-67614787D01*
X106622152Y-67633432D01*
X106686197Y-67666065D01*
X106686198Y-67666065D01*
X106690582Y-67668299D01*
X106695439Y-67669068D01*
X106695441Y-67669069D01*
X106802145Y-67685969D01*
X106807000Y-67686738D01*
X106811855Y-67685969D01*
X106918559Y-67669069D01*
X106918561Y-67669068D01*
X106923418Y-67668299D01*
X106927802Y-67666065D01*
X106927803Y-67666065D01*
X106991848Y-67633432D01*
X107028441Y-67614787D01*
X107111787Y-67531441D01*
X107132312Y-67491158D01*
X107168687Y-67460092D01*
X107216375Y-67463845D01*
X107243687Y-67491157D01*
X107264213Y-67531441D01*
X107347559Y-67614787D01*
X107384152Y-67633432D01*
X107448197Y-67666065D01*
X107448198Y-67666065D01*
X107452582Y-67668299D01*
X107457439Y-67669068D01*
X107457441Y-67669069D01*
X107564145Y-67685969D01*
X107569000Y-67686738D01*
X107573855Y-67685969D01*
X107680559Y-67669069D01*
X107680561Y-67669068D01*
X107685418Y-67668299D01*
X107689802Y-67666065D01*
X107689803Y-67666065D01*
X107753848Y-67633432D01*
X107790441Y-67614787D01*
X107822422Y-67582806D01*
X107866616Y-67564500D01*
X107975651Y-67564500D01*
X107987844Y-67565701D01*
X108006873Y-67569486D01*
X108012911Y-67568285D01*
X108017019Y-67567468D01*
X108033358Y-67564218D01*
X108106174Y-67549734D01*
X108111291Y-67546315D01*
X108111293Y-67546314D01*
X108120968Y-67539849D01*
X108121032Y-67539806D01*
X108169107Y-67507684D01*
X108169109Y-67507682D01*
X108169112Y-67507680D01*
X108185240Y-67496903D01*
X108190357Y-67493484D01*
X108199095Y-67480407D01*
X108201136Y-67477353D01*
X108208908Y-67467883D01*
X109657610Y-66019181D01*
X111162113Y-64514677D01*
X111206307Y-64496371D01*
X111250501Y-64514677D01*
X111268807Y-64558871D01*
X111268038Y-64568648D01*
X111261839Y-64607789D01*
X111256262Y-64643000D01*
X111257031Y-64647855D01*
X111272801Y-64747420D01*
X111274701Y-64759418D01*
X111276935Y-64763802D01*
X111276935Y-64763803D01*
X111292865Y-64795067D01*
X111328213Y-64864441D01*
X111411559Y-64947787D01*
X111415942Y-64950020D01*
X111512197Y-64999065D01*
X111512198Y-64999065D01*
X111516582Y-65001299D01*
X111521439Y-65002068D01*
X111521441Y-65002069D01*
X111628145Y-65018969D01*
X111633000Y-65019738D01*
X111637856Y-65018969D01*
X111637860Y-65018969D01*
X111647077Y-65017509D01*
X111693591Y-65028675D01*
X111701049Y-65035045D01*
X112239794Y-65573790D01*
X112258100Y-65617984D01*
X112258100Y-66025768D01*
X112239794Y-66069962D01*
X112195600Y-66088268D01*
X112167228Y-66081457D01*
X112130418Y-66062701D01*
X112125562Y-66061932D01*
X112125553Y-66061929D01*
X112014070Y-66044272D01*
X111979653Y-66026736D01*
X111708035Y-65755117D01*
X111700263Y-65745647D01*
X111692904Y-65734634D01*
X111692903Y-65734633D01*
X111689484Y-65729516D01*
X111673595Y-65718899D01*
X111668239Y-65715320D01*
X111668236Y-65715318D01*
X111668234Y-65715316D01*
X111605301Y-65673266D01*
X111506000Y-65653514D01*
X111499962Y-65654715D01*
X111486971Y-65657299D01*
X111474778Y-65658500D01*
X110787616Y-65658500D01*
X110743422Y-65640194D01*
X110711441Y-65608213D01*
X110643882Y-65573790D01*
X110610803Y-65556935D01*
X110610802Y-65556935D01*
X110606418Y-65554701D01*
X110601561Y-65553932D01*
X110601559Y-65553931D01*
X110494855Y-65537031D01*
X110490000Y-65536262D01*
X110485145Y-65537031D01*
X110378441Y-65553931D01*
X110378439Y-65553932D01*
X110373582Y-65554701D01*
X110369198Y-65556935D01*
X110369197Y-65556935D01*
X110336118Y-65573790D01*
X110268559Y-65608213D01*
X110185213Y-65691559D01*
X110174924Y-65711752D01*
X110152829Y-65755117D01*
X110131701Y-65796582D01*
X110113262Y-65913000D01*
X110114031Y-65917855D01*
X110130080Y-66019181D01*
X110131701Y-66029418D01*
X110133935Y-66033802D01*
X110133935Y-66033803D01*
X110149797Y-66064934D01*
X110185213Y-66134441D01*
X110268559Y-66217787D01*
X110319334Y-66243658D01*
X110369197Y-66269065D01*
X110369198Y-66269065D01*
X110373582Y-66271299D01*
X110378439Y-66272068D01*
X110378441Y-66272069D01*
X110485145Y-66288969D01*
X110490000Y-66289738D01*
X110494855Y-66288969D01*
X110601559Y-66272069D01*
X110601561Y-66272068D01*
X110606418Y-66271299D01*
X110610802Y-66269065D01*
X110610803Y-66269065D01*
X110660666Y-66243658D01*
X110711441Y-66217787D01*
X110743422Y-66185806D01*
X110787616Y-66167500D01*
X111374694Y-66167500D01*
X111418888Y-66185806D01*
X111619736Y-66386653D01*
X111637272Y-66421070D01*
X111654929Y-66532553D01*
X111654932Y-66532562D01*
X111655701Y-66537418D01*
X111709213Y-66642441D01*
X111792559Y-66725787D01*
X111796942Y-66728020D01*
X111893197Y-66777065D01*
X111893198Y-66777065D01*
X111897582Y-66779299D01*
X111902439Y-66780068D01*
X111902441Y-66780069D01*
X112009145Y-66796969D01*
X112014000Y-66797738D01*
X112018855Y-66796969D01*
X112125559Y-66780069D01*
X112125561Y-66780068D01*
X112130418Y-66779299D01*
X112167227Y-66760544D01*
X112214913Y-66756791D01*
X112251288Y-66787857D01*
X112258100Y-66816232D01*
X112258100Y-67000831D01*
X112239794Y-67045025D01*
X112140611Y-67144207D01*
X112096417Y-67162513D01*
X112049069Y-67140810D01*
X112030276Y-67119000D01*
X111970713Y-67049873D01*
X111848485Y-66970648D01*
X111708934Y-66928914D01*
X111636107Y-66928469D01*
X111567732Y-66928051D01*
X111567731Y-66928051D01*
X111563279Y-66928024D01*
X111423229Y-66968051D01*
X111300042Y-67045776D01*
X111297099Y-67049108D01*
X111297097Y-67049110D01*
X111258386Y-67092942D01*
X111203622Y-67154951D01*
X111201730Y-67158981D01*
X111143611Y-67282769D01*
X111143610Y-67282772D01*
X111141719Y-67286800D01*
X111119309Y-67430724D01*
X111119886Y-67435137D01*
X111119886Y-67435139D01*
X111126934Y-67489038D01*
X111138195Y-67575152D01*
X111139988Y-67579227D01*
X111194469Y-67703042D01*
X111196859Y-67708474D01*
X111202112Y-67714723D01*
X111278184Y-67805222D01*
X111290583Y-67819973D01*
X111294288Y-67822439D01*
X111294290Y-67822441D01*
X111387265Y-67884329D01*
X111411834Y-67900684D01*
X111550864Y-67944121D01*
X111555314Y-67944203D01*
X111555317Y-67944203D01*
X111692052Y-67946709D01*
X111692055Y-67946709D01*
X111696498Y-67946790D01*
X111700789Y-67945620D01*
X111700790Y-67945620D01*
X111751770Y-67931721D01*
X111837026Y-67908477D01*
X111840817Y-67906149D01*
X111840820Y-67906148D01*
X111957362Y-67834592D01*
X111957365Y-67834589D01*
X111961154Y-67832263D01*
X111964137Y-67828967D01*
X111964141Y-67828964D01*
X112055914Y-67727574D01*
X112058901Y-67724274D01*
X112070008Y-67701349D01*
X112105751Y-67669559D01*
X112126254Y-67666100D01*
X112164196Y-67666100D01*
X112167467Y-67666186D01*
X112208454Y-67668334D01*
X112214589Y-67665979D01*
X112214590Y-67665979D01*
X112232488Y-67659109D01*
X112241886Y-67656325D01*
X112267080Y-67650969D01*
X112275419Y-67644910D01*
X112289756Y-67637126D01*
X112299379Y-67633432D01*
X112317586Y-67615225D01*
X112325043Y-67608856D01*
X112340559Y-67597583D01*
X112345873Y-67593722D01*
X112349155Y-67588037D01*
X112349157Y-67588035D01*
X112351027Y-67584795D01*
X112360960Y-67571851D01*
X112502009Y-67430803D01*
X112643807Y-67289005D01*
X112646180Y-67286753D01*
X112671804Y-67263681D01*
X112671804Y-67263680D01*
X112676686Y-67259285D01*
X112687157Y-67235767D01*
X112691835Y-67227151D01*
X112702285Y-67211060D01*
X112702286Y-67211058D01*
X112705862Y-67205551D01*
X112707474Y-67195371D01*
X112712109Y-67179726D01*
X112713627Y-67176316D01*
X112713627Y-67176315D01*
X112716300Y-67170312D01*
X112716300Y-67144566D01*
X112717069Y-67134789D01*
X112720070Y-67115842D01*
X112720070Y-67115841D01*
X112721097Y-67109356D01*
X112718428Y-67099396D01*
X112716300Y-67083226D01*
X112716300Y-67001625D01*
X114353500Y-67001625D01*
X114353501Y-67478374D01*
X114353766Y-67480385D01*
X114353766Y-67480390D01*
X114356759Y-67503129D01*
X114359779Y-67526071D01*
X114361800Y-67530404D01*
X114361800Y-67530405D01*
X114406277Y-67625787D01*
X114406279Y-67625789D01*
X114408589Y-67630744D01*
X114490256Y-67712411D01*
X114495211Y-67714721D01*
X114495213Y-67714723D01*
X114515696Y-67724274D01*
X114594929Y-67761221D01*
X114608295Y-67762981D01*
X114640593Y-67767233D01*
X114640601Y-67767233D01*
X114642625Y-67767500D01*
X114644672Y-67767500D01*
X115132315Y-67767499D01*
X115619374Y-67767499D01*
X115621385Y-67767234D01*
X115621390Y-67767234D01*
X115662331Y-67761845D01*
X115662332Y-67761845D01*
X115667071Y-67761221D01*
X115697062Y-67747236D01*
X115766787Y-67714723D01*
X115766789Y-67714721D01*
X115771744Y-67712411D01*
X115853411Y-67630744D01*
X115855721Y-67625789D01*
X115855723Y-67625787D01*
X115882917Y-67567468D01*
X115902221Y-67526071D01*
X115905624Y-67500221D01*
X115908233Y-67480407D01*
X115908233Y-67480399D01*
X115908500Y-67478375D01*
X115908499Y-67001626D01*
X115908232Y-66999593D01*
X115902845Y-66958669D01*
X115902845Y-66958668D01*
X115902221Y-66953929D01*
X115893106Y-66934382D01*
X115855723Y-66854213D01*
X115855721Y-66854211D01*
X115853411Y-66849256D01*
X115771744Y-66767589D01*
X115766789Y-66765279D01*
X115766787Y-66765277D01*
X115686888Y-66728020D01*
X115667071Y-66718779D01*
X115653705Y-66717019D01*
X115621407Y-66712767D01*
X115621399Y-66712767D01*
X115619375Y-66712500D01*
X115617328Y-66712500D01*
X115129685Y-66712501D01*
X114642626Y-66712501D01*
X114640615Y-66712766D01*
X114640610Y-66712766D01*
X114599669Y-66718155D01*
X114599668Y-66718155D01*
X114594929Y-66718779D01*
X114590595Y-66720800D01*
X114495213Y-66765277D01*
X114495211Y-66765279D01*
X114490256Y-66767589D01*
X114408589Y-66849256D01*
X114406279Y-66854211D01*
X114406277Y-66854213D01*
X114395428Y-66877479D01*
X114359779Y-66953929D01*
X114359155Y-66958669D01*
X114359155Y-66958670D01*
X114353767Y-66999593D01*
X114353767Y-66999601D01*
X114353500Y-67001625D01*
X112716300Y-67001625D01*
X112716300Y-65504819D01*
X112716386Y-65501548D01*
X112718190Y-65467122D01*
X112718534Y-65460560D01*
X112716179Y-65454424D01*
X112709307Y-65436521D01*
X112706522Y-65427119D01*
X112702535Y-65408361D01*
X112702535Y-65408360D01*
X112701169Y-65401935D01*
X112695110Y-65393596D01*
X112687326Y-65379259D01*
X112683632Y-65369636D01*
X112665425Y-65351429D01*
X112659056Y-65343972D01*
X112647783Y-65328456D01*
X112643922Y-65323142D01*
X112638237Y-65319860D01*
X112638235Y-65319858D01*
X112634995Y-65317988D01*
X112622051Y-65308055D01*
X112025045Y-64711048D01*
X112006739Y-64666854D01*
X112007509Y-64657075D01*
X112008969Y-64647859D01*
X112008969Y-64647855D01*
X112009738Y-64643000D01*
X112004161Y-64607789D01*
X111992069Y-64531441D01*
X111992068Y-64531439D01*
X111991299Y-64526582D01*
X111972579Y-64489841D01*
X111940020Y-64425942D01*
X111937787Y-64421559D01*
X111854441Y-64338213D01*
X111803666Y-64312342D01*
X111753803Y-64286935D01*
X111753802Y-64286935D01*
X111749418Y-64284701D01*
X111744561Y-64283932D01*
X111744559Y-64283931D01*
X111637855Y-64267031D01*
X111633000Y-64266262D01*
X111628145Y-64267031D01*
X111558648Y-64278038D01*
X111512134Y-64266870D01*
X111487140Y-64226084D01*
X111498308Y-64179570D01*
X111504677Y-64172113D01*
X111813995Y-63862795D01*
X111858189Y-63844489D01*
X111902383Y-63862795D01*
X111913877Y-63878614D01*
X111963213Y-63975441D01*
X112046559Y-64058787D01*
X112050942Y-64061020D01*
X112147197Y-64110065D01*
X112147198Y-64110065D01*
X112151582Y-64112299D01*
X112156439Y-64113068D01*
X112156441Y-64113069D01*
X112263145Y-64129969D01*
X112268000Y-64130738D01*
X112272855Y-64129969D01*
X112379559Y-64113069D01*
X112379561Y-64113068D01*
X112384418Y-64112299D01*
X112388802Y-64110065D01*
X112388803Y-64110065D01*
X112485058Y-64061020D01*
X112489441Y-64058787D01*
X112521422Y-64026806D01*
X112565616Y-64008500D01*
X112644694Y-64008500D01*
X112688888Y-64026806D01*
X113519194Y-64857112D01*
X113537500Y-64901306D01*
X113537500Y-65615384D01*
X113519194Y-65659578D01*
X113487213Y-65691559D01*
X113476924Y-65711752D01*
X113454829Y-65755117D01*
X113433701Y-65796582D01*
X113415262Y-65913000D01*
X113416031Y-65917855D01*
X113432080Y-66019181D01*
X113433701Y-66029418D01*
X113435935Y-66033802D01*
X113435935Y-66033803D01*
X113451797Y-66064934D01*
X113487213Y-66134441D01*
X113570559Y-66217787D01*
X113621334Y-66243658D01*
X113671197Y-66269065D01*
X113671198Y-66269065D01*
X113675582Y-66271299D01*
X113680439Y-66272068D01*
X113680441Y-66272069D01*
X113787145Y-66288969D01*
X113792000Y-66289738D01*
X113796855Y-66288969D01*
X113903559Y-66272069D01*
X113903561Y-66272068D01*
X113908418Y-66271299D01*
X113912802Y-66269065D01*
X113912803Y-66269065D01*
X113962666Y-66243658D01*
X114013441Y-66217787D01*
X114096787Y-66134441D01*
X114132203Y-66064934D01*
X114148065Y-66033803D01*
X114148065Y-66033802D01*
X114150299Y-66029418D01*
X114151247Y-66023433D01*
X114349592Y-66023433D01*
X114378158Y-66165108D01*
X114380092Y-66168903D01*
X114380092Y-66168904D01*
X114441661Y-66289738D01*
X114443772Y-66293882D01*
X114541598Y-66400267D01*
X114545219Y-66402512D01*
X114545220Y-66402513D01*
X114660804Y-66474179D01*
X114660807Y-66474181D01*
X114664429Y-66476426D01*
X114668525Y-66477616D01*
X114800070Y-66515833D01*
X114800072Y-66515833D01*
X114803217Y-66516747D01*
X114806483Y-66516987D01*
X114806484Y-66516987D01*
X114812323Y-66517416D01*
X114812331Y-66517416D01*
X114813471Y-66517500D01*
X115417202Y-66517500D01*
X115524189Y-66502845D01*
X115590431Y-66474179D01*
X115652917Y-66447139D01*
X115652920Y-66447137D01*
X115656828Y-66445446D01*
X115769146Y-66354493D01*
X115809992Y-66297018D01*
X115850399Y-66240159D01*
X115850399Y-66240158D01*
X115852867Y-66236686D01*
X115878637Y-66165108D01*
X115900380Y-66104712D01*
X115901823Y-66100704D01*
X115912408Y-65956567D01*
X115883842Y-65814892D01*
X115881908Y-65811096D01*
X115820162Y-65689913D01*
X115820161Y-65689911D01*
X115818228Y-65686118D01*
X115746591Y-65608213D01*
X115723286Y-65582869D01*
X115723285Y-65582868D01*
X115720402Y-65579733D01*
X115710817Y-65573790D01*
X115601196Y-65505821D01*
X115601193Y-65505819D01*
X115597571Y-65503574D01*
X115583345Y-65499441D01*
X115461930Y-65464167D01*
X115461928Y-65464167D01*
X115458783Y-65463253D01*
X115455517Y-65463013D01*
X115455516Y-65463013D01*
X115449677Y-65462584D01*
X115449669Y-65462584D01*
X115448529Y-65462500D01*
X114844798Y-65462500D01*
X114737811Y-65477155D01*
X114686312Y-65499441D01*
X114609083Y-65532861D01*
X114609080Y-65532863D01*
X114605172Y-65534554D01*
X114492854Y-65625507D01*
X114490391Y-65628973D01*
X114490389Y-65628975D01*
X114414544Y-65735700D01*
X114409133Y-65743314D01*
X114407690Y-65747322D01*
X114407689Y-65747324D01*
X114381860Y-65819069D01*
X114360177Y-65879296D01*
X114349592Y-66023433D01*
X114151247Y-66023433D01*
X114151921Y-66019181D01*
X114167969Y-65917855D01*
X114168738Y-65913000D01*
X114150299Y-65796582D01*
X114129172Y-65755117D01*
X114107076Y-65711752D01*
X114096787Y-65691559D01*
X114064806Y-65659578D01*
X114046500Y-65615384D01*
X114046500Y-64801222D01*
X114047701Y-64789029D01*
X114050285Y-64776038D01*
X114050803Y-64773433D01*
X114349592Y-64773433D01*
X114378158Y-64915108D01*
X114380092Y-64918903D01*
X114380092Y-64918904D01*
X114436024Y-65028675D01*
X114443772Y-65043882D01*
X114468277Y-65070531D01*
X114536778Y-65145025D01*
X114541598Y-65150267D01*
X114545219Y-65152512D01*
X114545220Y-65152513D01*
X114660804Y-65224179D01*
X114660807Y-65224181D01*
X114664429Y-65226426D01*
X114668525Y-65227616D01*
X114800070Y-65265833D01*
X114800072Y-65265833D01*
X114803217Y-65266747D01*
X114806483Y-65266987D01*
X114806484Y-65266987D01*
X114812323Y-65267416D01*
X114812331Y-65267416D01*
X114813471Y-65267500D01*
X115417202Y-65267500D01*
X115524189Y-65252845D01*
X115621110Y-65210903D01*
X115652917Y-65197139D01*
X115652920Y-65197137D01*
X115656828Y-65195446D01*
X115769146Y-65104493D01*
X115773076Y-65098964D01*
X115850399Y-64990159D01*
X115850399Y-64990158D01*
X115852867Y-64986686D01*
X115856466Y-64976691D01*
X115900380Y-64854712D01*
X115901823Y-64850704D01*
X115902810Y-64837265D01*
X115912096Y-64710819D01*
X115912096Y-64710817D01*
X115912408Y-64706567D01*
X115883842Y-64564892D01*
X115847371Y-64493314D01*
X115820162Y-64439913D01*
X115820161Y-64439911D01*
X115818228Y-64436118D01*
X115728200Y-64338213D01*
X115723286Y-64332869D01*
X115723285Y-64332868D01*
X115720402Y-64329733D01*
X115716780Y-64327487D01*
X115601196Y-64255821D01*
X115601193Y-64255819D01*
X115597571Y-64253574D01*
X115593475Y-64252384D01*
X115461930Y-64214167D01*
X115461928Y-64214167D01*
X115458783Y-64213253D01*
X115455517Y-64213013D01*
X115455516Y-64213013D01*
X115449677Y-64212584D01*
X115449669Y-64212584D01*
X115448529Y-64212500D01*
X114844798Y-64212500D01*
X114737811Y-64227155D01*
X114680557Y-64251931D01*
X114609083Y-64282861D01*
X114609080Y-64282863D01*
X114605172Y-64284554D01*
X114492854Y-64375507D01*
X114490391Y-64378973D01*
X114490389Y-64378975D01*
X114449780Y-64436118D01*
X114409133Y-64493314D01*
X114407690Y-64497322D01*
X114407689Y-64497324D01*
X114382257Y-64567965D01*
X114360177Y-64629296D01*
X114359865Y-64633544D01*
X114350288Y-64763962D01*
X114349592Y-64773433D01*
X114050803Y-64773433D01*
X114051486Y-64770000D01*
X114031734Y-64670699D01*
X113989684Y-64607766D01*
X113989681Y-64607763D01*
X113975484Y-64586516D01*
X113970366Y-64583096D01*
X113959353Y-64575737D01*
X113949883Y-64567965D01*
X112978035Y-63596117D01*
X112970263Y-63586647D01*
X112962904Y-63575634D01*
X112962903Y-63575633D01*
X112959484Y-63570516D01*
X112950119Y-63564258D01*
X112938239Y-63556320D01*
X112938236Y-63556318D01*
X112938234Y-63556316D01*
X112889021Y-63523433D01*
X114349592Y-63523433D01*
X114378158Y-63665108D01*
X114380092Y-63668903D01*
X114380092Y-63668904D01*
X114437319Y-63781217D01*
X114443772Y-63793882D01*
X114446656Y-63797018D01*
X114534895Y-63892977D01*
X114541598Y-63900267D01*
X114545219Y-63902512D01*
X114545220Y-63902513D01*
X114660804Y-63974179D01*
X114660807Y-63974181D01*
X114664429Y-63976426D01*
X114668525Y-63977616D01*
X114800070Y-64015833D01*
X114800072Y-64015833D01*
X114803217Y-64016747D01*
X114806483Y-64016987D01*
X114806484Y-64016987D01*
X114812323Y-64017416D01*
X114812331Y-64017416D01*
X114813471Y-64017500D01*
X115417202Y-64017500D01*
X115524189Y-64002845D01*
X115590431Y-63974179D01*
X115652917Y-63947139D01*
X115652920Y-63947137D01*
X115656828Y-63945446D01*
X115769146Y-63854493D01*
X115776256Y-63844489D01*
X115850399Y-63740159D01*
X115850399Y-63740158D01*
X115852867Y-63736686D01*
X115858777Y-63720272D01*
X115900380Y-63604712D01*
X115901823Y-63600704D01*
X115904291Y-63567097D01*
X115912096Y-63460819D01*
X115912096Y-63460817D01*
X115912408Y-63456567D01*
X115883842Y-63314892D01*
X115847371Y-63243314D01*
X115820162Y-63189913D01*
X115820161Y-63189911D01*
X115818228Y-63186118D01*
X115720402Y-63079733D01*
X115716780Y-63077487D01*
X115601196Y-63005821D01*
X115601193Y-63005819D01*
X115597571Y-63003574D01*
X115506635Y-62977155D01*
X115461930Y-62964167D01*
X115461928Y-62964167D01*
X115458783Y-62963253D01*
X115455517Y-62963013D01*
X115455516Y-62963013D01*
X115449677Y-62962584D01*
X115449669Y-62962584D01*
X115448529Y-62962500D01*
X114844798Y-62962500D01*
X114737811Y-62977155D01*
X114680557Y-63001931D01*
X114609083Y-63032861D01*
X114609080Y-63032863D01*
X114605172Y-63034554D01*
X114492854Y-63125507D01*
X114490391Y-63128973D01*
X114490389Y-63128975D01*
X114449780Y-63186118D01*
X114409133Y-63243314D01*
X114407690Y-63247322D01*
X114407689Y-63247324D01*
X114383032Y-63315814D01*
X114360177Y-63379296D01*
X114359865Y-63383544D01*
X114351350Y-63499500D01*
X114349592Y-63523433D01*
X112889021Y-63523433D01*
X112875301Y-63514266D01*
X112776000Y-63494514D01*
X112769962Y-63495715D01*
X112756971Y-63498299D01*
X112744778Y-63499500D01*
X112565616Y-63499500D01*
X112521422Y-63481194D01*
X112489441Y-63449213D01*
X112392614Y-63399877D01*
X112361548Y-63363502D01*
X112365301Y-63315814D01*
X112376795Y-63299995D01*
X113163984Y-62512806D01*
X113208178Y-62494500D01*
X114380310Y-62494500D01*
X114424504Y-62512806D01*
X114435998Y-62528625D01*
X114440276Y-62537020D01*
X114443772Y-62543882D01*
X114480020Y-62583301D01*
X114512710Y-62618851D01*
X114541598Y-62650267D01*
X114545219Y-62652512D01*
X114545220Y-62652513D01*
X114660804Y-62724179D01*
X114660807Y-62724181D01*
X114664429Y-62726426D01*
X114668525Y-62727616D01*
X114800070Y-62765833D01*
X114800072Y-62765833D01*
X114803217Y-62766747D01*
X114806483Y-62766987D01*
X114806484Y-62766987D01*
X114812323Y-62767416D01*
X114812331Y-62767416D01*
X114813471Y-62767500D01*
X115417202Y-62767500D01*
X115524189Y-62752845D01*
X115590431Y-62724179D01*
X115652917Y-62697139D01*
X115652920Y-62697137D01*
X115656828Y-62695446D01*
X115744228Y-62624671D01*
X115765838Y-62607172D01*
X115765839Y-62607171D01*
X115769146Y-62604493D01*
X115780108Y-62589069D01*
X115850399Y-62490159D01*
X115850399Y-62490158D01*
X115852867Y-62486686D01*
X115860684Y-62464975D01*
X115900380Y-62354712D01*
X115901823Y-62350704D01*
X115912408Y-62206567D01*
X115883842Y-62064892D01*
X115877832Y-62053097D01*
X115820162Y-61939913D01*
X115820161Y-61939911D01*
X115818228Y-61936118D01*
X115720402Y-61829733D01*
X115716780Y-61827487D01*
X115601196Y-61755821D01*
X115601193Y-61755819D01*
X115597571Y-61753574D01*
X115506635Y-61727155D01*
X115461930Y-61714167D01*
X115461928Y-61714167D01*
X115458783Y-61713253D01*
X115455517Y-61713013D01*
X115455516Y-61713013D01*
X115449677Y-61712584D01*
X115449669Y-61712584D01*
X115448529Y-61712500D01*
X114844798Y-61712500D01*
X114737811Y-61727155D01*
X114680557Y-61751931D01*
X114609083Y-61782861D01*
X114609080Y-61782863D01*
X114605172Y-61784554D01*
X114492854Y-61875507D01*
X114433372Y-61959206D01*
X114392851Y-61984625D01*
X114382428Y-61985500D01*
X113108095Y-61985500D01*
X113095902Y-61984299D01*
X113082911Y-61981715D01*
X113076873Y-61980514D01*
X112977572Y-62000266D01*
X112972455Y-62003685D01*
X112972453Y-62003686D01*
X112958601Y-62012942D01*
X112914640Y-62042316D01*
X112914639Y-62042317D01*
X112893389Y-62056516D01*
X112889970Y-62061633D01*
X112889969Y-62061634D01*
X112882608Y-62072650D01*
X112874836Y-62082120D01*
X107919761Y-67037194D01*
X107875567Y-67055500D01*
X107866616Y-67055500D01*
X107822422Y-67037194D01*
X107790441Y-67005213D01*
X107717507Y-66968051D01*
X107689803Y-66953935D01*
X107689802Y-66953935D01*
X107685418Y-66951701D01*
X107680561Y-66950932D01*
X107680559Y-66950931D01*
X107672121Y-66949595D01*
X107668275Y-66948986D01*
X107627488Y-66923993D01*
X107616320Y-66877479D01*
X107633857Y-66843061D01*
X113214111Y-61262806D01*
X113258305Y-61244500D01*
X114380310Y-61244500D01*
X114424504Y-61262806D01*
X114435998Y-61278625D01*
X114443772Y-61293882D01*
X114541598Y-61400267D01*
X114545219Y-61402512D01*
X114545220Y-61402513D01*
X114660804Y-61474179D01*
X114660807Y-61474181D01*
X114664429Y-61476426D01*
X114668525Y-61477616D01*
X114800070Y-61515833D01*
X114800072Y-61515833D01*
X114803217Y-61516747D01*
X114806483Y-61516987D01*
X114806484Y-61516987D01*
X114812323Y-61517416D01*
X114812331Y-61517416D01*
X114813471Y-61517500D01*
X115417202Y-61517500D01*
X115524189Y-61502845D01*
X115617147Y-61462618D01*
X115652917Y-61447139D01*
X115652920Y-61447137D01*
X115656828Y-61445446D01*
X115769146Y-61354493D01*
X115774051Y-61347592D01*
X115850399Y-61240159D01*
X115850399Y-61240158D01*
X115852867Y-61236686D01*
X115865232Y-61202342D01*
X115900380Y-61104712D01*
X115901823Y-61100704D01*
X115905044Y-61056839D01*
X115912096Y-60960819D01*
X115912096Y-60960817D01*
X115912408Y-60956567D01*
X115883842Y-60814892D01*
X115834062Y-60717194D01*
X115820162Y-60689913D01*
X115820161Y-60689911D01*
X115818228Y-60686118D01*
X115720402Y-60579733D01*
X115716780Y-60577487D01*
X115601196Y-60505821D01*
X115601193Y-60505819D01*
X115597571Y-60503574D01*
X115506635Y-60477155D01*
X115461930Y-60464167D01*
X115461928Y-60464167D01*
X115458783Y-60463253D01*
X115455517Y-60463013D01*
X115455516Y-60463013D01*
X115449677Y-60462584D01*
X115449669Y-60462584D01*
X115448529Y-60462500D01*
X114844798Y-60462500D01*
X114737811Y-60477155D01*
X114680557Y-60501931D01*
X114609083Y-60532861D01*
X114609080Y-60532863D01*
X114605172Y-60534554D01*
X114492854Y-60625507D01*
X114433372Y-60709206D01*
X114392851Y-60734625D01*
X114382428Y-60735500D01*
X113219858Y-60735500D01*
X113175664Y-60717194D01*
X113157358Y-60673000D01*
X113175664Y-60628806D01*
X113791664Y-60012806D01*
X113835858Y-59994500D01*
X114380310Y-59994500D01*
X114424504Y-60012806D01*
X114435998Y-60028625D01*
X114443772Y-60043882D01*
X114541598Y-60150267D01*
X114545219Y-60152512D01*
X114545220Y-60152513D01*
X114660804Y-60224179D01*
X114660807Y-60224181D01*
X114664429Y-60226426D01*
X114668525Y-60227616D01*
X114800070Y-60265833D01*
X114800072Y-60265833D01*
X114803217Y-60266747D01*
X114806483Y-60266987D01*
X114806484Y-60266987D01*
X114812323Y-60267416D01*
X114812331Y-60267416D01*
X114813471Y-60267500D01*
X115417202Y-60267500D01*
X115524189Y-60252845D01*
X115610547Y-60215474D01*
X115652917Y-60197139D01*
X115652920Y-60197137D01*
X115656828Y-60195446D01*
X115769146Y-60104493D01*
X115772204Y-60100191D01*
X115850399Y-59990159D01*
X115850399Y-59990158D01*
X115852867Y-59986686D01*
X115867366Y-59946415D01*
X115900380Y-59854712D01*
X115901823Y-59850704D01*
X115912408Y-59706567D01*
X115883842Y-59564892D01*
X115876459Y-59550402D01*
X115820162Y-59439913D01*
X115820161Y-59439911D01*
X115818228Y-59436118D01*
X115720402Y-59329733D01*
X115716780Y-59327487D01*
X115601196Y-59255821D01*
X115601193Y-59255819D01*
X115597571Y-59253574D01*
X115506635Y-59227155D01*
X115461930Y-59214167D01*
X115461928Y-59214167D01*
X115458783Y-59213253D01*
X115455517Y-59213013D01*
X115455516Y-59213013D01*
X115449677Y-59212584D01*
X115449669Y-59212584D01*
X115448529Y-59212500D01*
X114844798Y-59212500D01*
X114737811Y-59227155D01*
X114680557Y-59251931D01*
X114609083Y-59282861D01*
X114609080Y-59282863D01*
X114605172Y-59284554D01*
X114492854Y-59375507D01*
X114433372Y-59459206D01*
X114392851Y-59484625D01*
X114382428Y-59485500D01*
X113735775Y-59485500D01*
X113723582Y-59484299D01*
X113710591Y-59481715D01*
X113704553Y-59480514D01*
X113605252Y-59500266D01*
X113600135Y-59503685D01*
X113600133Y-59503686D01*
X113542320Y-59542316D01*
X113542319Y-59542317D01*
X113521069Y-59556516D01*
X113517650Y-59561633D01*
X113517649Y-59561634D01*
X113510288Y-59572650D01*
X113502516Y-59582120D01*
X108079441Y-65005194D01*
X108035247Y-65023500D01*
X107104616Y-65023500D01*
X107060422Y-65005194D01*
X107028441Y-64973213D01*
X106971714Y-64944309D01*
X106927803Y-64921935D01*
X106927802Y-64921935D01*
X106923418Y-64919701D01*
X106918561Y-64918932D01*
X106918559Y-64918931D01*
X106811855Y-64902031D01*
X106807000Y-64901262D01*
X106802145Y-64902031D01*
X106695441Y-64918931D01*
X106695439Y-64918932D01*
X106690582Y-64919701D01*
X106686198Y-64921935D01*
X106686197Y-64921935D01*
X106642286Y-64944309D01*
X106585559Y-64973213D01*
X106502213Y-65056559D01*
X106489696Y-65081125D01*
X106459485Y-65140418D01*
X106448701Y-65161582D01*
X106447932Y-65166439D01*
X106447931Y-65166441D01*
X106438242Y-65227616D01*
X106430262Y-65278000D01*
X106431031Y-65282855D01*
X106447517Y-65386940D01*
X106448701Y-65394418D01*
X106450935Y-65398802D01*
X106450935Y-65398803D01*
X106451529Y-65399969D01*
X106502213Y-65499441D01*
X106585559Y-65582787D01*
X106625851Y-65603317D01*
X106686197Y-65634065D01*
X106686198Y-65634065D01*
X106690582Y-65636299D01*
X106695439Y-65637068D01*
X106695441Y-65637069D01*
X106802145Y-65653969D01*
X106807000Y-65654738D01*
X106811855Y-65653969D01*
X106918559Y-65637069D01*
X106918561Y-65637068D01*
X106923418Y-65636299D01*
X106927802Y-65634065D01*
X106927803Y-65634065D01*
X106988149Y-65603317D01*
X107028441Y-65582787D01*
X107060422Y-65550806D01*
X107104616Y-65532500D01*
X108073694Y-65532500D01*
X108117888Y-65550806D01*
X108136194Y-65595000D01*
X108117888Y-65639194D01*
X106841346Y-66915736D01*
X106806929Y-66933272D01*
X106695447Y-66950929D01*
X106695438Y-66950932D01*
X106690582Y-66951701D01*
X106686198Y-66953935D01*
X106686197Y-66953935D01*
X106658493Y-66968051D01*
X106585559Y-67005213D01*
X106502213Y-67088559D01*
X106488312Y-67115842D01*
X106454214Y-67182763D01*
X106448701Y-67193582D01*
X106447932Y-67198439D01*
X106447931Y-67198441D01*
X106437598Y-67263681D01*
X106430262Y-67310000D01*
X105426115Y-67310000D01*
X105442109Y-67294006D01*
X105486303Y-67275700D01*
X105598132Y-67275700D01*
X105713024Y-67233883D01*
X105806684Y-67155292D01*
X105842682Y-67092942D01*
X105865082Y-67054146D01*
X105865083Y-67054144D01*
X105867817Y-67049408D01*
X105889048Y-66929000D01*
X105867817Y-66808592D01*
X105865083Y-66803856D01*
X105865082Y-66803854D01*
X105820009Y-66725787D01*
X105806684Y-66702708D01*
X105713024Y-66624117D01*
X105598132Y-66582300D01*
X105475868Y-66582300D01*
X105360976Y-66624117D01*
X105267316Y-66702708D01*
X105253991Y-66725787D01*
X105208918Y-66803854D01*
X105208917Y-66803856D01*
X105206183Y-66808592D01*
X105184952Y-66929000D01*
X105185901Y-66934382D01*
X105185901Y-66934388D01*
X105191583Y-66966611D01*
X105181230Y-67013312D01*
X105174227Y-67021658D01*
X104968191Y-67227694D01*
X104923997Y-67246000D01*
X104212144Y-67246000D01*
X104167950Y-67227694D01*
X104159950Y-67217270D01*
X104158419Y-67215446D01*
X104155684Y-67210708D01*
X104062024Y-67132117D01*
X104056891Y-67130249D01*
X104056888Y-67130247D01*
X104021930Y-67117524D01*
X103986662Y-67085207D01*
X103984575Y-67037417D01*
X103999112Y-67014599D01*
X105260485Y-65753225D01*
X105266560Y-65748918D01*
X105266105Y-65748346D01*
X105271613Y-65743965D01*
X105277958Y-65740918D01*
X105282354Y-65735421D01*
X105287863Y-65731039D01*
X105288764Y-65732171D01*
X105307252Y-65718899D01*
X105326886Y-65711753D01*
X105332024Y-65709883D01*
X105425684Y-65631292D01*
X105458883Y-65573790D01*
X105484082Y-65530146D01*
X105484083Y-65530144D01*
X105486817Y-65525408D01*
X105508048Y-65405000D01*
X105486817Y-65284592D01*
X105484083Y-65279856D01*
X105484082Y-65279854D01*
X105450505Y-65221699D01*
X105425684Y-65178708D01*
X105332024Y-65100117D01*
X105217132Y-65058300D01*
X105094868Y-65058300D01*
X104979976Y-65100117D01*
X104886316Y-65178708D01*
X104861495Y-65221699D01*
X104827918Y-65279854D01*
X104827917Y-65279856D01*
X104825183Y-65284592D01*
X104803952Y-65405000D01*
X104825183Y-65525408D01*
X104827916Y-65530142D01*
X104827917Y-65530144D01*
X104846185Y-65561785D01*
X104852428Y-65609212D01*
X104836252Y-65637229D01*
X103372787Y-67100694D01*
X103328593Y-67119000D01*
X102688144Y-67119000D01*
X102643950Y-67100694D01*
X102635950Y-67090270D01*
X102634419Y-67088446D01*
X102631684Y-67083708D01*
X102538024Y-67005117D01*
X102423132Y-66963300D01*
X102300868Y-66963300D01*
X102185976Y-67005117D01*
X102092316Y-67083708D01*
X102091132Y-67085759D01*
X102049950Y-67107199D01*
X102004328Y-67092817D01*
X101998685Y-67087174D01*
X101996684Y-67083708D01*
X101903024Y-67005117D01*
X101788132Y-66963300D01*
X101665868Y-66963300D01*
X101550976Y-67005117D01*
X101457316Y-67083708D01*
X101403848Y-67176316D01*
X101400126Y-67182763D01*
X101362176Y-67211883D01*
X101314750Y-67205639D01*
X101291874Y-67182763D01*
X101288152Y-67176316D01*
X101234684Y-67083708D01*
X101141024Y-67005117D01*
X101026132Y-66963300D01*
X100903868Y-66963300D01*
X100788976Y-67005117D01*
X100695316Y-67083708D01*
X100680508Y-67109356D01*
X100636918Y-67184854D01*
X100636917Y-67184856D01*
X100634183Y-67189592D01*
X100612952Y-67310000D01*
X100634183Y-67430408D01*
X100636917Y-67435144D01*
X100636918Y-67435146D01*
X100663050Y-67480407D01*
X100695316Y-67536292D01*
X100788976Y-67614883D01*
X100903868Y-67656700D01*
X101015697Y-67656700D01*
X101059891Y-67675006D01*
X102152694Y-68767809D01*
X102171000Y-68812003D01*
X102171000Y-70925540D01*
X102152694Y-70969734D01*
X102148676Y-70973416D01*
X102092316Y-71020708D01*
X102089582Y-71025444D01*
X102089580Y-71025446D01*
X102033918Y-71121854D01*
X102033917Y-71121856D01*
X102031183Y-71126592D01*
X102009952Y-71247000D01*
X102031183Y-71367408D01*
X102033917Y-71372144D01*
X102033918Y-71372146D01*
X102073432Y-71440584D01*
X102092316Y-71473292D01*
X102094525Y-71475146D01*
X102108555Y-71519651D01*
X102086464Y-71562080D01*
X102046293Y-71576700D01*
X90881359Y-71576700D01*
X90875912Y-71576462D01*
X90840378Y-71573353D01*
X90840376Y-71573353D01*
X90834933Y-71572877D01*
X90829656Y-71574291D01*
X90829654Y-71574291D01*
X90795190Y-71583525D01*
X90789869Y-71584704D01*
X90780063Y-71586433D01*
X90749349Y-71591849D01*
X90744614Y-71594583D01*
X90744613Y-71594583D01*
X90743676Y-71595124D01*
X90728611Y-71601364D01*
X90727563Y-71601645D01*
X90727562Y-71601645D01*
X90722283Y-71603060D01*
X90717808Y-71606194D01*
X90717807Y-71606194D01*
X90688571Y-71626666D01*
X90683972Y-71629595D01*
X90653089Y-71647425D01*
X90653087Y-71647427D01*
X90648351Y-71650161D01*
X90644836Y-71654351D01*
X90644835Y-71654351D01*
X90621899Y-71681685D01*
X90618215Y-71685705D01*
X85376305Y-76927615D01*
X85372285Y-76931299D01*
X85340761Y-76957751D01*
X85338028Y-76962485D01*
X85338027Y-76962486D01*
X85320186Y-76993386D01*
X85317257Y-76997983D01*
X85306674Y-77013098D01*
X85293660Y-77031684D01*
X85292246Y-77036962D01*
X85291965Y-77038009D01*
X85285724Y-77053077D01*
X85282449Y-77058749D01*
X85281500Y-77064133D01*
X85281499Y-77064135D01*
X85275304Y-77099270D01*
X85274124Y-77104592D01*
X85263476Y-77144333D01*
X85263953Y-77149783D01*
X85263482Y-77155161D01*
X85239267Y-77199299D01*
X85220466Y-77213725D01*
X85220463Y-77213728D01*
X85217218Y-77216218D01*
X85214728Y-77219463D01*
X85214724Y-77219467D01*
X85202584Y-77235288D01*
X85161158Y-77259205D01*
X85114952Y-77246824D01*
X85091035Y-77205398D01*
X85090500Y-77197240D01*
X85090500Y-65024000D01*
X93095262Y-65024000D01*
X93096031Y-65028855D01*
X93111607Y-65127195D01*
X93113701Y-65140418D01*
X93115935Y-65144802D01*
X93115935Y-65144803D01*
X93135553Y-65183305D01*
X93167213Y-65245441D01*
X93250559Y-65328787D01*
X93294996Y-65351429D01*
X93351197Y-65380065D01*
X93351198Y-65380065D01*
X93355582Y-65382299D01*
X93360439Y-65383068D01*
X93360441Y-65383069D01*
X93467145Y-65399969D01*
X93472000Y-65400738D01*
X93476855Y-65399969D01*
X93583559Y-65383069D01*
X93583561Y-65383068D01*
X93588418Y-65382299D01*
X93592802Y-65380065D01*
X93592803Y-65380065D01*
X93649004Y-65351429D01*
X93693441Y-65328787D01*
X93725422Y-65296806D01*
X93769616Y-65278500D01*
X96488778Y-65278500D01*
X96500971Y-65279701D01*
X96520000Y-65283486D01*
X96526038Y-65282285D01*
X96547581Y-65278000D01*
X96619301Y-65263734D01*
X96624141Y-65260500D01*
X96624418Y-65260315D01*
X96624420Y-65260314D01*
X96675137Y-65226426D01*
X96682234Y-65221684D01*
X96682236Y-65221682D01*
X96682239Y-65221680D01*
X96698367Y-65210903D01*
X96703484Y-65207484D01*
X96706904Y-65202366D01*
X96714263Y-65191353D01*
X96722035Y-65181883D01*
X98165340Y-63738578D01*
X98209533Y-63720272D01*
X98253727Y-63738578D01*
X98272033Y-63782772D01*
X98263659Y-63814022D01*
X98223918Y-63882854D01*
X98223917Y-63882856D01*
X98221183Y-63887592D01*
X98199952Y-64008000D01*
X98221183Y-64128408D01*
X98223917Y-64133144D01*
X98223918Y-64133146D01*
X98246416Y-64172113D01*
X98282316Y-64234292D01*
X98283548Y-64235326D01*
X98297500Y-64273658D01*
X98297500Y-64511695D01*
X98279194Y-64555889D01*
X97777866Y-65057217D01*
X97749846Y-65073394D01*
X97720989Y-65081125D01*
X97715669Y-65082304D01*
X97705863Y-65084033D01*
X97675149Y-65089449D01*
X97670414Y-65092183D01*
X97670413Y-65092183D01*
X97669476Y-65092724D01*
X97654411Y-65098964D01*
X97653363Y-65099245D01*
X97653362Y-65099245D01*
X97648083Y-65100660D01*
X97643608Y-65103794D01*
X97643607Y-65103794D01*
X97614371Y-65124266D01*
X97609772Y-65127195D01*
X97578889Y-65145025D01*
X97578887Y-65145027D01*
X97574151Y-65147761D01*
X97570636Y-65151951D01*
X97570635Y-65151951D01*
X97547699Y-65179285D01*
X97544015Y-65183305D01*
X95131326Y-67595994D01*
X95087132Y-67614300D01*
X95065033Y-67614300D01*
X95020839Y-67595994D01*
X95015449Y-67589848D01*
X94998276Y-67567468D01*
X94998275Y-67567467D01*
X94995782Y-67564218D01*
X94884254Y-67478639D01*
X94848538Y-67463845D01*
X94758157Y-67426408D01*
X94758156Y-67426408D01*
X94754376Y-67424842D01*
X94750320Y-67424308D01*
X94750316Y-67424307D01*
X94619064Y-67407028D01*
X94615000Y-67406493D01*
X94610936Y-67407028D01*
X94479687Y-67424307D01*
X94479686Y-67424307D01*
X94475624Y-67424842D01*
X94471839Y-67426410D01*
X94471838Y-67426410D01*
X94390523Y-67460092D01*
X94345747Y-67478639D01*
X94234218Y-67564218D01*
X94148639Y-67675747D01*
X94147072Y-67679530D01*
X94110634Y-67767500D01*
X94094842Y-67805624D01*
X94076493Y-67945000D01*
X94094842Y-68084376D01*
X94148639Y-68214253D01*
X94185876Y-68262781D01*
X94216428Y-68302597D01*
X94234218Y-68325782D01*
X94345746Y-68411361D01*
X94349529Y-68412928D01*
X94470755Y-68463141D01*
X94475624Y-68465158D01*
X94479680Y-68465692D01*
X94479684Y-68465693D01*
X94610936Y-68482972D01*
X94615000Y-68483507D01*
X94619064Y-68482972D01*
X94750316Y-68465693D01*
X94750320Y-68465692D01*
X94754376Y-68465158D01*
X94759246Y-68463141D01*
X94880471Y-68412928D01*
X94884254Y-68411361D01*
X94995782Y-68325782D01*
X95005420Y-68313222D01*
X95015449Y-68300152D01*
X95056875Y-68276235D01*
X95065033Y-68275700D01*
X95232830Y-68275700D01*
X95238278Y-68275938D01*
X95279267Y-68279524D01*
X95319008Y-68268876D01*
X95324330Y-68267696D01*
X95359465Y-68261501D01*
X95359467Y-68261500D01*
X95364851Y-68260551D01*
X95370523Y-68257276D01*
X95385591Y-68251035D01*
X95385736Y-68250996D01*
X95391916Y-68249340D01*
X95416289Y-68232274D01*
X95425617Y-68225743D01*
X95430214Y-68222814D01*
X95461114Y-68204973D01*
X95461115Y-68204972D01*
X95465849Y-68202239D01*
X95492301Y-68170715D01*
X95495985Y-68166695D01*
X95659315Y-68003365D01*
X95703509Y-67985059D01*
X95747703Y-68003365D01*
X95765481Y-68039455D01*
X95771195Y-68083152D01*
X95772988Y-68087227D01*
X95821753Y-68198051D01*
X95829859Y-68216474D01*
X95866909Y-68260551D01*
X95919262Y-68322832D01*
X95923583Y-68327973D01*
X95927288Y-68330439D01*
X95927290Y-68330441D01*
X96020265Y-68392329D01*
X96044834Y-68408684D01*
X96183864Y-68452121D01*
X96188314Y-68452203D01*
X96188317Y-68452203D01*
X96325052Y-68454709D01*
X96325055Y-68454709D01*
X96329498Y-68454790D01*
X96333789Y-68453620D01*
X96333790Y-68453620D01*
X96384770Y-68439721D01*
X96470026Y-68416477D01*
X96473817Y-68414149D01*
X96473820Y-68414148D01*
X96590362Y-68342592D01*
X96590365Y-68342589D01*
X96594154Y-68340263D01*
X96597137Y-68336967D01*
X96597141Y-68336964D01*
X96688914Y-68235574D01*
X96691901Y-68232274D01*
X96755410Y-68101191D01*
X96757760Y-68087227D01*
X96771868Y-68003365D01*
X96779576Y-67957552D01*
X96779650Y-67951506D01*
X96779700Y-67947415D01*
X96779700Y-67947409D01*
X96779729Y-67945000D01*
X96759080Y-67800813D01*
X96706863Y-67685969D01*
X96700636Y-67672273D01*
X96700635Y-67672271D01*
X96698792Y-67668218D01*
X96688868Y-67656700D01*
X96666502Y-67630744D01*
X96603713Y-67557873D01*
X96481485Y-67478648D01*
X96406539Y-67456235D01*
X96352859Y-67440181D01*
X96315763Y-67409980D01*
X96310887Y-67362393D01*
X96326573Y-67336107D01*
X97908674Y-65754006D01*
X97952868Y-65735700D01*
X102626887Y-65735700D01*
X102648263Y-65739469D01*
X102672653Y-65748346D01*
X102681868Y-65751700D01*
X102804132Y-65751700D01*
X102919024Y-65709883D01*
X103012684Y-65631292D01*
X103045883Y-65573790D01*
X103071082Y-65530146D01*
X103071083Y-65530144D01*
X103073817Y-65525408D01*
X103095048Y-65405000D01*
X103073817Y-65284592D01*
X103071083Y-65279856D01*
X103071082Y-65279854D01*
X103037505Y-65221699D01*
X103012684Y-65178708D01*
X102919024Y-65100117D01*
X102804132Y-65058300D01*
X102681868Y-65058300D01*
X102676728Y-65060171D01*
X102676727Y-65060171D01*
X102648263Y-65070531D01*
X102626887Y-65074300D01*
X98631505Y-65074300D01*
X98587311Y-65055994D01*
X98569005Y-65011800D01*
X98587311Y-64967606D01*
X98709880Y-64845037D01*
X98719350Y-64837265D01*
X98730366Y-64829904D01*
X98730367Y-64829903D01*
X98735484Y-64826484D01*
X98751471Y-64802559D01*
X98756477Y-64795067D01*
X98788314Y-64747420D01*
X98788315Y-64747418D01*
X98791734Y-64742301D01*
X98811486Y-64643000D01*
X98807701Y-64623971D01*
X98806500Y-64611778D01*
X98806500Y-64273658D01*
X98820452Y-64235326D01*
X98821684Y-64234292D01*
X98857584Y-64172113D01*
X98880082Y-64133146D01*
X98880083Y-64133144D01*
X98882817Y-64128408D01*
X98904048Y-64008000D01*
X98882817Y-63887592D01*
X98880083Y-63882856D01*
X98880082Y-63882854D01*
X98830523Y-63797018D01*
X98821684Y-63781708D01*
X98728024Y-63703117D01*
X98613132Y-63661300D01*
X98490868Y-63661300D01*
X98480406Y-63665108D01*
X98381116Y-63701246D01*
X98381115Y-63701247D01*
X98375976Y-63703117D01*
X98371786Y-63706633D01*
X98370045Y-63707638D01*
X98322619Y-63713881D01*
X98284668Y-63684761D01*
X98278425Y-63637335D01*
X98294601Y-63609317D01*
X99217880Y-62686037D01*
X99227350Y-62678265D01*
X99238366Y-62670904D01*
X99238367Y-62670903D01*
X99243484Y-62667484D01*
X99275980Y-62618851D01*
X99296314Y-62588420D01*
X99296315Y-62588418D01*
X99299734Y-62583301D01*
X99314500Y-62509067D01*
X99314500Y-62509063D01*
X99319485Y-62484000D01*
X108335262Y-62484000D01*
X108336031Y-62488855D01*
X108352212Y-62591014D01*
X108353701Y-62600418D01*
X108355935Y-62604802D01*
X108355935Y-62604803D01*
X108379100Y-62650267D01*
X108407213Y-62705441D01*
X108490559Y-62788787D01*
X108494942Y-62791020D01*
X108591197Y-62840065D01*
X108591198Y-62840065D01*
X108595582Y-62842299D01*
X108600439Y-62843068D01*
X108600441Y-62843069D01*
X108707145Y-62859969D01*
X108712000Y-62860738D01*
X108716855Y-62859969D01*
X108823559Y-62843069D01*
X108823561Y-62843068D01*
X108828418Y-62842299D01*
X108832802Y-62840065D01*
X108832803Y-62840065D01*
X108929058Y-62791020D01*
X108933441Y-62788787D01*
X108990822Y-62731406D01*
X109035016Y-62713100D01*
X109466381Y-62713100D01*
X109469652Y-62713186D01*
X109510639Y-62715334D01*
X109516774Y-62712979D01*
X109516775Y-62712979D01*
X109534673Y-62706109D01*
X109544071Y-62703325D01*
X109569265Y-62697969D01*
X109577604Y-62691910D01*
X109591941Y-62684126D01*
X109601564Y-62680432D01*
X109619771Y-62662225D01*
X109627228Y-62655856D01*
X109642744Y-62644583D01*
X109648058Y-62640722D01*
X109651340Y-62635037D01*
X109651342Y-62635035D01*
X109653212Y-62631795D01*
X109663145Y-62618851D01*
X111027598Y-61254398D01*
X111029971Y-61252146D01*
X111055605Y-61229065D01*
X111060486Y-61224670D01*
X111063156Y-61218672D01*
X111063158Y-61218670D01*
X111070959Y-61201147D01*
X111075634Y-61192536D01*
X111089661Y-61170937D01*
X111091273Y-61160758D01*
X111095908Y-61145112D01*
X111097428Y-61141698D01*
X111100100Y-61135697D01*
X111100100Y-61109951D01*
X111100869Y-61100174D01*
X111103870Y-61081228D01*
X111103870Y-61081227D01*
X111104897Y-61074742D01*
X111102228Y-61064782D01*
X111100100Y-61048612D01*
X111100100Y-60435049D01*
X111118406Y-60390855D01*
X111129897Y-60381788D01*
X111195357Y-60341596D01*
X111195365Y-60341590D01*
X111199154Y-60339263D01*
X111264372Y-60267212D01*
X111293914Y-60234574D01*
X111296901Y-60231274D01*
X111360410Y-60100191D01*
X111362760Y-60086227D01*
X111375112Y-60012806D01*
X111384576Y-59956552D01*
X111384729Y-59944000D01*
X111364080Y-59799813D01*
X111333936Y-59733516D01*
X111305636Y-59671273D01*
X111305635Y-59671271D01*
X111303792Y-59667218D01*
X111208713Y-59556873D01*
X111086485Y-59477648D01*
X110946934Y-59435914D01*
X110874106Y-59435469D01*
X110805732Y-59435051D01*
X110805731Y-59435051D01*
X110801279Y-59435024D01*
X110661229Y-59475051D01*
X110538042Y-59552776D01*
X110535099Y-59556108D01*
X110535097Y-59556110D01*
X110512126Y-59582120D01*
X110441622Y-59661951D01*
X110439730Y-59665981D01*
X110381611Y-59789769D01*
X110381610Y-59789772D01*
X110379719Y-59793800D01*
X110357309Y-59937724D01*
X110357886Y-59942137D01*
X110357886Y-59942139D01*
X110363187Y-59982676D01*
X110376195Y-60082152D01*
X110377988Y-60086227D01*
X110424866Y-60192763D01*
X110434859Y-60215474D01*
X110528583Y-60326973D01*
X110614033Y-60383853D01*
X110640678Y-60423580D01*
X110641900Y-60435880D01*
X110641900Y-60966216D01*
X110623594Y-61010410D01*
X109397409Y-62236594D01*
X109353215Y-62254900D01*
X109035016Y-62254900D01*
X108990822Y-62236594D01*
X108933441Y-62179213D01*
X108882666Y-62153342D01*
X108832803Y-62127935D01*
X108832802Y-62127935D01*
X108828418Y-62125701D01*
X108823561Y-62124932D01*
X108823559Y-62124931D01*
X108716855Y-62108031D01*
X108712000Y-62107262D01*
X108707145Y-62108031D01*
X108600441Y-62124931D01*
X108600439Y-62124932D01*
X108595582Y-62125701D01*
X108591198Y-62127935D01*
X108591197Y-62127935D01*
X108541334Y-62153342D01*
X108490559Y-62179213D01*
X108407213Y-62262559D01*
X108404980Y-62266942D01*
X108360259Y-62354712D01*
X108353701Y-62367582D01*
X108335262Y-62484000D01*
X99319485Y-62484000D01*
X99315701Y-62464975D01*
X99314500Y-62452783D01*
X99314500Y-56673217D01*
X99315701Y-56661025D01*
X99318284Y-56648038D01*
X99319485Y-56642000D01*
X99314500Y-56616937D01*
X99314500Y-56616933D01*
X99299734Y-56542699D01*
X99257684Y-56479766D01*
X99257681Y-56479763D01*
X99243484Y-56458516D01*
X99238366Y-56455096D01*
X99227353Y-56447737D01*
X99217883Y-56439965D01*
X99078806Y-56300888D01*
X99060500Y-56256694D01*
X99060500Y-55757306D01*
X99078806Y-55713112D01*
X99274111Y-55517806D01*
X99318305Y-55499500D01*
X108268000Y-55499500D01*
X108312194Y-55517806D01*
X108330500Y-55562000D01*
X108330500Y-61202342D01*
X108316548Y-61240674D01*
X108315316Y-61241708D01*
X108303135Y-61262806D01*
X108256918Y-61342854D01*
X108256917Y-61342856D01*
X108254183Y-61347592D01*
X108232952Y-61468000D01*
X108254183Y-61588408D01*
X108256917Y-61593144D01*
X108256918Y-61593146D01*
X108284750Y-61641350D01*
X108315316Y-61694292D01*
X108408976Y-61772883D01*
X108523868Y-61814700D01*
X108646132Y-61814700D01*
X108761024Y-61772883D01*
X108854684Y-61694292D01*
X108885250Y-61641350D01*
X108913082Y-61593146D01*
X108913083Y-61593144D01*
X108915817Y-61588408D01*
X108937048Y-61468000D01*
X108915817Y-61347592D01*
X108913083Y-61342856D01*
X108913082Y-61342854D01*
X108866865Y-61262806D01*
X108854684Y-61241708D01*
X108853452Y-61240674D01*
X108839500Y-61202342D01*
X108839500Y-55403217D01*
X108840701Y-55391025D01*
X108843284Y-55378038D01*
X108844485Y-55372000D01*
X113284000Y-55372000D01*
X116840000Y-55372000D01*
X116840000Y-51816000D01*
X113284000Y-51816000D01*
X113284000Y-55372000D01*
X108844485Y-55372000D01*
X108839500Y-55346937D01*
X108839500Y-55346933D01*
X108834181Y-55320193D01*
X108843513Y-55273277D01*
X108883287Y-55246701D01*
X108895480Y-55245500D01*
X110640185Y-55245500D01*
X110680359Y-55260123D01*
X110722976Y-55295883D01*
X110837868Y-55337700D01*
X110960132Y-55337700D01*
X111075024Y-55295883D01*
X111168684Y-55217292D01*
X111199250Y-55164350D01*
X111227082Y-55116146D01*
X111227083Y-55116144D01*
X111229817Y-55111408D01*
X111251048Y-54991000D01*
X111229817Y-54870592D01*
X111227083Y-54865856D01*
X111227082Y-54865854D01*
X111196354Y-54812634D01*
X111168684Y-54764708D01*
X111075024Y-54686117D01*
X110960132Y-54644300D01*
X110837868Y-54644300D01*
X110722976Y-54686117D01*
X110718787Y-54689632D01*
X110680360Y-54721877D01*
X110640185Y-54736500D01*
X108743217Y-54736500D01*
X108731025Y-54735299D01*
X108718038Y-54732716D01*
X108712000Y-54731515D01*
X108705962Y-54732716D01*
X108686942Y-54736499D01*
X108686934Y-54736500D01*
X108686931Y-54736500D01*
X108686926Y-54736501D01*
X108643718Y-54745096D01*
X108612699Y-54751266D01*
X108549766Y-54793316D01*
X108549764Y-54793318D01*
X108549761Y-54793320D01*
X108537881Y-54801258D01*
X108528516Y-54807516D01*
X108525097Y-54812633D01*
X108525096Y-54812634D01*
X108517737Y-54823647D01*
X108509965Y-54833117D01*
X108370888Y-54972194D01*
X108326694Y-54990500D01*
X99218217Y-54990500D01*
X99206025Y-54989299D01*
X99193038Y-54986716D01*
X99187000Y-54985515D01*
X99180962Y-54986716D01*
X99161942Y-54990499D01*
X99161934Y-54990500D01*
X99161931Y-54990500D01*
X99161926Y-54990501D01*
X99140843Y-54994695D01*
X99135193Y-54995819D01*
X99088277Y-54986487D01*
X99061701Y-54946713D01*
X99060500Y-54934520D01*
X99060500Y-53340000D01*
X99342952Y-53340000D01*
X99364183Y-53460408D01*
X99366917Y-53465144D01*
X99366918Y-53465146D01*
X99380424Y-53488538D01*
X99425316Y-53566292D01*
X99518976Y-53644883D01*
X99633868Y-53686700D01*
X99745698Y-53686700D01*
X99789892Y-53705006D01*
X99939071Y-53854185D01*
X99943378Y-53860260D01*
X99943950Y-53859805D01*
X99948331Y-53865313D01*
X99951378Y-53871658D01*
X99956875Y-53876054D01*
X99974466Y-53890122D01*
X99979625Y-53894739D01*
X99984869Y-53899983D01*
X99987832Y-53901845D01*
X99987839Y-53901851D01*
X99990874Y-53903758D01*
X99996650Y-53907863D01*
X100019433Y-53926083D01*
X100026291Y-53927660D01*
X100030056Y-53929480D01*
X100033992Y-53930858D01*
X100039948Y-53934602D01*
X100046939Y-53935392D01*
X100046944Y-53935394D01*
X100068937Y-53937880D01*
X100075923Y-53939073D01*
X100082997Y-53940700D01*
X100090377Y-53940700D01*
X100097398Y-53941096D01*
X100126538Y-53944390D01*
X100133184Y-53942069D01*
X100140178Y-53941285D01*
X100140254Y-53941964D01*
X100147704Y-53940700D01*
X104830068Y-53940700D01*
X104837407Y-53941950D01*
X104837490Y-53941223D01*
X104844481Y-53942020D01*
X104851122Y-53944352D01*
X104858115Y-53943574D01*
X104858116Y-53943574D01*
X104879239Y-53941223D01*
X104880498Y-53941083D01*
X104887410Y-53940700D01*
X104894833Y-53940700D01*
X104901765Y-53939119D01*
X104908718Y-53937943D01*
X104937729Y-53934714D01*
X104943693Y-53930981D01*
X104947641Y-53929606D01*
X104951400Y-53927797D01*
X104958259Y-53926232D01*
X104981074Y-53908051D01*
X104986859Y-53903956D01*
X104990015Y-53901980D01*
X104990017Y-53901979D01*
X104993011Y-53900104D01*
X104998224Y-53894891D01*
X105003468Y-53890206D01*
X105020904Y-53876312D01*
X105020904Y-53876311D01*
X105026409Y-53871925D01*
X105029467Y-53865586D01*
X105033858Y-53860085D01*
X105034392Y-53860511D01*
X105038768Y-53854347D01*
X106199123Y-52693992D01*
X106243317Y-52675686D01*
X106261951Y-52678529D01*
X106343864Y-52704121D01*
X106348314Y-52704203D01*
X106348317Y-52704203D01*
X106485052Y-52706709D01*
X106485055Y-52706709D01*
X106489498Y-52706790D01*
X106493789Y-52705620D01*
X106493790Y-52705620D01*
X106544770Y-52691721D01*
X106630026Y-52668477D01*
X106633817Y-52666149D01*
X106633820Y-52666148D01*
X106750362Y-52594592D01*
X106750365Y-52594589D01*
X106754154Y-52592263D01*
X106757137Y-52588967D01*
X106757141Y-52588964D01*
X106848914Y-52487574D01*
X106851901Y-52484274D01*
X106915410Y-52353191D01*
X106920563Y-52322566D01*
X106928192Y-52277215D01*
X106939576Y-52209552D01*
X106939729Y-52197000D01*
X106919080Y-52052813D01*
X106876074Y-51958227D01*
X106860636Y-51924273D01*
X106860635Y-51924271D01*
X106858792Y-51920218D01*
X106763713Y-51809873D01*
X106641485Y-51730648D01*
X106501934Y-51688914D01*
X106429107Y-51688469D01*
X106360732Y-51688051D01*
X106360731Y-51688051D01*
X106356279Y-51688024D01*
X106216229Y-51728051D01*
X106093042Y-51805776D01*
X106090099Y-51809108D01*
X106090097Y-51809110D01*
X106070891Y-51830857D01*
X105996622Y-51914951D01*
X105994730Y-51918981D01*
X105936611Y-52042769D01*
X105936610Y-52042772D01*
X105934719Y-52046800D01*
X105912309Y-52190724D01*
X105912886Y-52195137D01*
X105912886Y-52195139D01*
X105916947Y-52226191D01*
X105931195Y-52335152D01*
X105932988Y-52339228D01*
X105932989Y-52339230D01*
X105940418Y-52356113D01*
X105941463Y-52403937D01*
X105927406Y-52425480D01*
X105366186Y-52986699D01*
X104812491Y-53540394D01*
X104768297Y-53558700D01*
X100839321Y-53558700D01*
X100795127Y-53540394D01*
X100776821Y-53496200D01*
X100783717Y-53470462D01*
X100783213Y-53470279D01*
X100785081Y-53465146D01*
X100787817Y-53460408D01*
X100809048Y-53340000D01*
X100787817Y-53219592D01*
X100785083Y-53214856D01*
X100785082Y-53214854D01*
X100740679Y-53137948D01*
X100734435Y-53090522D01*
X100750611Y-53062504D01*
X101246123Y-52566992D01*
X101290317Y-52548686D01*
X101308951Y-52551529D01*
X101390864Y-52577121D01*
X101395314Y-52577203D01*
X101395317Y-52577203D01*
X101532052Y-52579709D01*
X101532055Y-52579709D01*
X101536498Y-52579790D01*
X101540789Y-52578620D01*
X101540790Y-52578620D01*
X101591770Y-52564721D01*
X101677026Y-52541477D01*
X101680817Y-52539149D01*
X101680820Y-52539148D01*
X101797362Y-52467592D01*
X101797365Y-52467589D01*
X101801154Y-52465263D01*
X101804137Y-52461967D01*
X101804141Y-52461964D01*
X101895914Y-52360574D01*
X101898901Y-52357274D01*
X101962410Y-52226191D01*
X101963809Y-52217879D01*
X101983102Y-52103199D01*
X101986576Y-52082552D01*
X101986729Y-52070000D01*
X101966080Y-51925813D01*
X101917806Y-51819641D01*
X101907636Y-51797273D01*
X101907635Y-51797271D01*
X101905792Y-51793218D01*
X101810713Y-51682873D01*
X101688485Y-51603648D01*
X101548934Y-51561914D01*
X101476107Y-51561469D01*
X101407732Y-51561051D01*
X101407731Y-51561051D01*
X101403279Y-51561024D01*
X101263229Y-51601051D01*
X101140042Y-51678776D01*
X101137099Y-51682108D01*
X101137097Y-51682110D01*
X101046569Y-51784614D01*
X101043622Y-51787951D01*
X101041730Y-51791981D01*
X100983611Y-51915769D01*
X100983610Y-51915772D01*
X100981719Y-51919800D01*
X100959309Y-52063724D01*
X100959886Y-52068137D01*
X100959886Y-52068139D01*
X100963947Y-52099191D01*
X100978195Y-52208152D01*
X100979988Y-52212228D01*
X100979989Y-52212230D01*
X100987418Y-52229115D01*
X100988461Y-52276940D01*
X100974405Y-52298480D01*
X100352513Y-52920372D01*
X100346439Y-52924677D01*
X100346895Y-52925250D01*
X100341387Y-52929631D01*
X100335042Y-52932678D01*
X100330646Y-52938175D01*
X100316582Y-52955761D01*
X100311965Y-52960920D01*
X100306716Y-52966169D01*
X100304847Y-52969143D01*
X100302943Y-52972172D01*
X100298838Y-52977948D01*
X100280617Y-53000733D01*
X100279040Y-53007593D01*
X100277223Y-53011351D01*
X100275844Y-53015288D01*
X100272098Y-53021248D01*
X100271307Y-53028244D01*
X100269545Y-53033275D01*
X100250734Y-53060493D01*
X100187316Y-53113708D01*
X100130449Y-53212203D01*
X100130126Y-53212763D01*
X100092176Y-53241883D01*
X100044750Y-53235639D01*
X100021874Y-53212763D01*
X100021551Y-53212203D01*
X99964684Y-53113708D01*
X99871024Y-53035117D01*
X99756132Y-52993300D01*
X99633868Y-52993300D01*
X99518976Y-53035117D01*
X99425316Y-53113708D01*
X99411991Y-53136787D01*
X99366918Y-53214854D01*
X99366917Y-53214856D01*
X99364183Y-53219592D01*
X99342952Y-53340000D01*
X99060500Y-53340000D01*
X99060500Y-53117217D01*
X99061701Y-53105025D01*
X99064284Y-53092038D01*
X99065485Y-53086000D01*
X99060500Y-53060937D01*
X99060500Y-53060933D01*
X99047432Y-52995236D01*
X99046935Y-52992735D01*
X99046934Y-52992733D01*
X99045734Y-52986699D01*
X99041179Y-52979881D01*
X99032016Y-52966169D01*
X99032015Y-52966168D01*
X99003699Y-52923788D01*
X99003695Y-52923782D01*
X99003684Y-52923766D01*
X99003681Y-52923763D01*
X98989484Y-52902516D01*
X98984366Y-52899096D01*
X98973353Y-52891737D01*
X98963883Y-52883965D01*
X98946264Y-52866346D01*
X98928728Y-52831929D01*
X98911071Y-52720447D01*
X98911068Y-52720438D01*
X98910299Y-52715582D01*
X98907668Y-52710417D01*
X98859020Y-52614942D01*
X98856787Y-52610559D01*
X98773441Y-52527213D01*
X98722666Y-52501342D01*
X98672803Y-52475935D01*
X98672802Y-52475935D01*
X98668418Y-52473701D01*
X98663561Y-52472932D01*
X98663559Y-52472931D01*
X98556855Y-52456031D01*
X98552000Y-52455262D01*
X98547145Y-52456031D01*
X98440441Y-52472931D01*
X98440439Y-52472932D01*
X98435582Y-52473701D01*
X98430416Y-52476333D01*
X98429831Y-52476379D01*
X98426523Y-52477454D01*
X98426265Y-52476660D01*
X98382729Y-52480084D01*
X98346355Y-52449017D01*
X98342604Y-52401329D01*
X98357850Y-52376450D01*
X98528746Y-52205554D01*
X98572940Y-52187248D01*
X98617134Y-52205554D01*
X98623415Y-52213465D01*
X98623859Y-52214474D01*
X98626720Y-52217878D01*
X98626721Y-52217879D01*
X98714719Y-52322566D01*
X98717583Y-52325973D01*
X98721288Y-52328439D01*
X98721290Y-52328441D01*
X98793414Y-52376450D01*
X98838834Y-52406684D01*
X98977864Y-52450121D01*
X98982314Y-52450203D01*
X98982317Y-52450203D01*
X99119052Y-52452709D01*
X99119055Y-52452709D01*
X99123498Y-52452790D01*
X99127789Y-52451620D01*
X99127790Y-52451620D01*
X99213625Y-52428218D01*
X99264026Y-52414477D01*
X99267817Y-52412149D01*
X99267820Y-52412148D01*
X99384362Y-52340592D01*
X99384365Y-52340589D01*
X99388154Y-52338263D01*
X99391137Y-52334967D01*
X99391141Y-52334964D01*
X99482914Y-52233574D01*
X99485901Y-52230274D01*
X99549410Y-52099191D01*
X99552210Y-52082552D01*
X99573176Y-51957927D01*
X99573576Y-51955552D01*
X99573729Y-51943000D01*
X99553080Y-51798813D01*
X99503263Y-51689248D01*
X99494636Y-51670273D01*
X99494635Y-51670271D01*
X99492792Y-51666218D01*
X99397713Y-51555873D01*
X99275485Y-51476648D01*
X99135934Y-51434914D01*
X99063107Y-51434469D01*
X98994732Y-51434051D01*
X98994731Y-51434051D01*
X98990279Y-51434024D01*
X98850229Y-51474051D01*
X98727042Y-51551776D01*
X98724099Y-51555108D01*
X98724097Y-51555110D01*
X98682355Y-51602374D01*
X98630622Y-51660951D01*
X98628731Y-51664978D01*
X98628728Y-51664983D01*
X98605610Y-51714225D01*
X98570258Y-51746450D01*
X98546034Y-51749285D01*
X98543363Y-51748347D01*
X98536371Y-51749125D01*
X98536370Y-51749125D01*
X98513980Y-51751617D01*
X98507067Y-51752000D01*
X98499652Y-51752000D01*
X98492723Y-51753580D01*
X98485780Y-51754755D01*
X98456757Y-51757985D01*
X98450791Y-51761720D01*
X98446852Y-51763092D01*
X98443089Y-51764903D01*
X98436226Y-51766468D01*
X98430722Y-51770854D01*
X98413412Y-51784648D01*
X98407626Y-51788744D01*
X98405871Y-51789843D01*
X98401474Y-51792596D01*
X98398976Y-51795094D01*
X98396209Y-51797297D01*
X98394729Y-51795438D01*
X98357198Y-51810984D01*
X98313004Y-51792678D01*
X98295329Y-51757344D01*
X98289154Y-51714225D01*
X98283080Y-51671813D01*
X98233263Y-51562248D01*
X98224636Y-51543273D01*
X98224635Y-51543271D01*
X98222792Y-51539218D01*
X98127713Y-51428873D01*
X98005485Y-51349648D01*
X97865934Y-51307914D01*
X97793106Y-51307469D01*
X97724732Y-51307051D01*
X97724731Y-51307051D01*
X97720279Y-51307024D01*
X97580229Y-51347051D01*
X97457042Y-51424776D01*
X97454099Y-51428108D01*
X97454097Y-51428110D01*
X97412355Y-51475374D01*
X97360622Y-51533951D01*
X97358730Y-51537981D01*
X97300611Y-51661769D01*
X97300610Y-51661772D01*
X97298719Y-51665800D01*
X97276309Y-51809724D01*
X97276886Y-51814137D01*
X97276886Y-51814139D01*
X97277754Y-51820775D01*
X97295195Y-51954152D01*
X97296988Y-51958227D01*
X97347233Y-52072415D01*
X97353859Y-52087474D01*
X97447583Y-52198973D01*
X97451288Y-52201439D01*
X97451290Y-52201441D01*
X97505272Y-52237374D01*
X97568834Y-52279684D01*
X97707864Y-52323121D01*
X97712313Y-52323203D01*
X97712316Y-52323203D01*
X97717441Y-52323297D01*
X97720976Y-52323361D01*
X97764827Y-52342473D01*
X97782321Y-52386995D01*
X97764025Y-52430045D01*
X97387629Y-52806441D01*
X97343435Y-52824747D01*
X97299241Y-52806441D01*
X97280935Y-52762247D01*
X97281801Y-52751878D01*
X97287176Y-52719927D01*
X97287576Y-52717552D01*
X97287729Y-52705000D01*
X97267080Y-52560813D01*
X97227122Y-52472931D01*
X97208636Y-52432273D01*
X97208635Y-52432271D01*
X97206792Y-52428218D01*
X97111713Y-52317873D01*
X96989485Y-52238648D01*
X96849934Y-52196914D01*
X96777107Y-52196469D01*
X96708732Y-52196051D01*
X96708731Y-52196051D01*
X96704279Y-52196024D01*
X96564229Y-52236051D01*
X96441042Y-52313776D01*
X96438099Y-52317108D01*
X96438097Y-52317110D01*
X96354163Y-52412148D01*
X96344622Y-52422951D01*
X96342730Y-52426981D01*
X96284611Y-52550769D01*
X96284610Y-52550772D01*
X96282719Y-52554800D01*
X96260309Y-52698724D01*
X96260886Y-52703137D01*
X96260886Y-52703139D01*
X96267260Y-52751878D01*
X96279195Y-52843152D01*
X96280988Y-52847227D01*
X96333325Y-52966169D01*
X96337859Y-52976474D01*
X96431583Y-53087973D01*
X96435288Y-53090439D01*
X96435290Y-53090441D01*
X96506660Y-53137948D01*
X96552834Y-53168684D01*
X96691864Y-53212121D01*
X96696314Y-53212203D01*
X96696317Y-53212203D01*
X96829690Y-53214647D01*
X96873542Y-53233760D01*
X96891035Y-53278282D01*
X96872739Y-53321331D01*
X96796513Y-53397557D01*
X96790439Y-53401862D01*
X96790895Y-53402435D01*
X96785387Y-53406816D01*
X96779042Y-53409863D01*
X96774646Y-53415360D01*
X96760582Y-53432946D01*
X96755965Y-53438105D01*
X96750716Y-53443354D01*
X96748847Y-53446328D01*
X96746943Y-53449357D01*
X96742838Y-53455133D01*
X96724617Y-53477918D01*
X96723040Y-53484778D01*
X96721222Y-53488538D01*
X96719844Y-53492474D01*
X96716098Y-53498433D01*
X96715307Y-53505427D01*
X96715307Y-53505428D01*
X96712821Y-53527421D01*
X96711629Y-53534398D01*
X96710000Y-53541482D01*
X96710000Y-53548856D01*
X96709604Y-53555877D01*
X96706309Y-53585023D01*
X96708630Y-53591668D01*
X96709414Y-53598662D01*
X96708736Y-53598738D01*
X96710000Y-53606190D01*
X96710000Y-55939540D01*
X96691694Y-55983734D01*
X96687676Y-55987416D01*
X96631316Y-56034708D01*
X96628582Y-56039444D01*
X96628580Y-56039446D01*
X96572918Y-56135854D01*
X96572917Y-56135856D01*
X96570183Y-56140592D01*
X96548952Y-56261000D01*
X96570183Y-56381408D01*
X96572917Y-56386144D01*
X96572918Y-56386146D01*
X96577475Y-56394038D01*
X96631316Y-56487292D01*
X96724976Y-56565883D01*
X96839868Y-56607700D01*
X96962132Y-56607700D01*
X97077024Y-56565883D01*
X97170684Y-56487292D01*
X97224525Y-56394038D01*
X97229082Y-56386146D01*
X97229083Y-56386144D01*
X97231817Y-56381408D01*
X97253048Y-56261000D01*
X97231817Y-56140592D01*
X97229083Y-56135856D01*
X97229082Y-56135854D01*
X97173420Y-56039446D01*
X97173418Y-56039444D01*
X97170684Y-56034708D01*
X97114326Y-55987418D01*
X97092238Y-55944987D01*
X97092000Y-55939540D01*
X97092000Y-53668188D01*
X97110306Y-53623994D01*
X98096450Y-52637850D01*
X98140644Y-52619544D01*
X98184838Y-52637850D01*
X98203144Y-52682044D01*
X98197281Y-52706467D01*
X98197454Y-52706523D01*
X98196741Y-52708717D01*
X98196333Y-52710416D01*
X98193701Y-52715582D01*
X98175262Y-52832000D01*
X98176031Y-52836855D01*
X98192079Y-52938175D01*
X98193701Y-52948418D01*
X98195935Y-52952802D01*
X98195935Y-52952803D01*
X98204261Y-52969143D01*
X98247213Y-53053441D01*
X98330559Y-53136787D01*
X98435582Y-53190299D01*
X98498780Y-53200309D01*
X98539564Y-53225301D01*
X98551500Y-53262038D01*
X98551500Y-55594778D01*
X98550299Y-55606971D01*
X98546514Y-55626000D01*
X98547715Y-55632038D01*
X98550299Y-55645029D01*
X98551500Y-55657222D01*
X98551500Y-56356778D01*
X98550299Y-56368971D01*
X98546514Y-56388000D01*
X98566266Y-56487301D01*
X98608316Y-56550234D01*
X98608319Y-56550237D01*
X98622516Y-56571484D01*
X98627633Y-56574903D01*
X98627634Y-56574904D01*
X98638647Y-56582263D01*
X98648117Y-56590035D01*
X98787194Y-56729112D01*
X98805500Y-56773306D01*
X98805500Y-56886557D01*
X98787194Y-56930751D01*
X98743000Y-56949057D01*
X98714626Y-56942245D01*
X98672803Y-56920935D01*
X98672802Y-56920935D01*
X98668418Y-56918701D01*
X98663561Y-56917932D01*
X98663559Y-56917931D01*
X98556855Y-56901031D01*
X98552000Y-56900262D01*
X98547145Y-56901031D01*
X98440441Y-56917931D01*
X98440439Y-56917932D01*
X98435582Y-56918701D01*
X98431198Y-56920935D01*
X98431197Y-56920935D01*
X98389374Y-56942245D01*
X98330559Y-56972213D01*
X98247213Y-57055559D01*
X98193701Y-57160582D01*
X98175262Y-57277000D01*
X98193701Y-57393418D01*
X98247213Y-57498441D01*
X98279194Y-57530422D01*
X98297500Y-57574616D01*
X98297500Y-61932384D01*
X98279194Y-61976578D01*
X98247213Y-62008559D01*
X98244980Y-62012942D01*
X98216382Y-62069069D01*
X98193701Y-62113582D01*
X98192932Y-62118439D01*
X98192931Y-62118441D01*
X98183306Y-62179213D01*
X98175262Y-62230000D01*
X98193701Y-62346418D01*
X98195935Y-62350802D01*
X98195935Y-62350803D01*
X98206960Y-62372441D01*
X98247213Y-62451441D01*
X98330559Y-62534787D01*
X98334942Y-62537020D01*
X98431197Y-62586065D01*
X98431198Y-62586065D01*
X98435582Y-62588299D01*
X98440441Y-62589069D01*
X98440442Y-62589069D01*
X98446977Y-62590104D01*
X98452725Y-62591014D01*
X98493513Y-62616007D01*
X98504681Y-62662520D01*
X98487144Y-62696939D01*
X97451406Y-63732676D01*
X96432888Y-64751194D01*
X96388694Y-64769500D01*
X93769616Y-64769500D01*
X93725422Y-64751194D01*
X93693441Y-64719213D01*
X93633222Y-64688530D01*
X93592803Y-64667935D01*
X93592802Y-64667935D01*
X93588418Y-64665701D01*
X93583561Y-64664932D01*
X93583559Y-64664931D01*
X93476855Y-64648031D01*
X93472000Y-64647262D01*
X93467145Y-64648031D01*
X93360441Y-64664931D01*
X93360439Y-64664932D01*
X93355582Y-64665701D01*
X93351198Y-64667935D01*
X93351197Y-64667935D01*
X93310778Y-64688530D01*
X93250559Y-64719213D01*
X93167213Y-64802559D01*
X93113701Y-64907582D01*
X93112932Y-64912439D01*
X93112931Y-64912441D01*
X93098736Y-65002069D01*
X93095262Y-65024000D01*
X85090500Y-65024000D01*
X85090500Y-51244000D01*
X85108806Y-51199806D01*
X85153000Y-51181500D01*
X117285000Y-51181500D01*
X117329194Y-51199806D01*
G37*
%TD.AperFunction*%
%TD*%
M02*
