%TF.GenerationSoftware,KiCad,Pcbnew,(6.0.7)*%
%TF.CreationDate,2023-05-31T15:48:29-07:00*%
%TF.ProjectId,sulu_ads1299,73756c75-5f61-4647-9331-3239392e6b69,rev?*%
%TF.SameCoordinates,Original*%
%TF.FileFunction,Legend,Top*%
%TF.FilePolarity,Positive*%
%FSLAX46Y46*%
G04 Gerber Fmt 4.6, Leading zero omitted, Abs format (unit mm)*
G04 Created by KiCad (PCBNEW (6.0.7)) date 2023-05-31 15:48:29*
%MOMM*%
%LPD*%
G01*
G04 APERTURE LIST*
G04 Aperture macros list*
%AMRoundRect*
0 Rectangle with rounded corners*
0 $1 Rounding radius*
0 $2 $3 $4 $5 $6 $7 $8 $9 X,Y pos of 4 corners*
0 Add a 4 corners polygon primitive as box body*
4,1,4,$2,$3,$4,$5,$6,$7,$8,$9,$2,$3,0*
0 Add four circle primitives for the rounded corners*
1,1,$1+$1,$2,$3*
1,1,$1+$1,$4,$5*
1,1,$1+$1,$6,$7*
1,1,$1+$1,$8,$9*
0 Add four rect primitives between the rounded corners*
20,1,$1+$1,$2,$3,$4,$5,0*
20,1,$1+$1,$4,$5,$6,$7,0*
20,1,$1+$1,$6,$7,$8,$9,0*
20,1,$1+$1,$8,$9,$2,$3,0*%
G04 Aperture macros list end*
%ADD10C,0.100000*%
%ADD11C,0.150000*%
%ADD12C,0.127000*%
%ADD13C,0.063500*%
%ADD14C,0.050800*%
%ADD15C,0.120000*%
%ADD16C,0.500000*%
%ADD17C,0.250000*%
%ADD18RoundRect,0.100000X-0.100000X0.130000X-0.100000X-0.130000X0.100000X-0.130000X0.100000X0.130000X0*%
%ADD19RoundRect,0.140000X-0.170000X0.140000X-0.170000X-0.140000X0.170000X-0.140000X0.170000X0.140000X0*%
%ADD20C,0.762000*%
%ADD21RoundRect,0.140000X-0.140000X-0.170000X0.140000X-0.170000X0.140000X0.170000X-0.140000X0.170000X0*%
%ADD22RoundRect,0.225000X0.250000X-0.225000X0.250000X0.225000X-0.250000X0.225000X-0.250000X-0.225000X0*%
%ADD23RoundRect,0.135000X0.185000X-0.135000X0.185000X0.135000X-0.185000X0.135000X-0.185000X-0.135000X0*%
%ADD24R,0.760000X1.270000*%
%ADD25RoundRect,0.250000X0.625000X-0.350000X0.625000X0.350000X-0.625000X0.350000X-0.625000X-0.350000X0*%
%ADD26O,1.750000X1.200000*%
%ADD27RoundRect,0.200000X0.450000X-0.200000X0.450000X0.200000X-0.450000X0.200000X-0.450000X-0.200000X0*%
%ADD28O,1.300000X0.800000*%
%ADD29R,1.050000X1.000000*%
%ADD30R,2.200000X1.050000*%
%ADD31O,0.800000X0.200000*%
%ADD32O,0.200000X0.800000*%
%ADD33R,1.137500X1.137500*%
%ADD34C,0.568750*%
%ADD35RoundRect,0.135000X-0.185000X0.135000X-0.185000X-0.135000X0.185000X-0.135000X0.185000X0.135000X0*%
%ADD36RoundRect,0.225000X0.225000X0.250000X-0.225000X0.250000X-0.225000X-0.250000X0.225000X-0.250000X0*%
%ADD37RoundRect,0.250000X0.850000X-0.375000X0.850000X0.375000X-0.850000X0.375000X-0.850000X-0.375000X0*%
%ADD38RoundRect,0.135000X0.135000X0.185000X-0.135000X0.185000X-0.135000X-0.185000X0.135000X-0.185000X0*%
%ADD39RoundRect,0.135000X-0.135000X-0.185000X0.135000X-0.185000X0.135000X0.185000X-0.135000X0.185000X0*%
%ADD40RoundRect,0.218750X-0.218750X-0.256250X0.218750X-0.256250X0.218750X0.256250X-0.218750X0.256250X0*%
%ADD41RoundRect,0.100000X0.130000X0.100000X-0.130000X0.100000X-0.130000X-0.100000X0.130000X-0.100000X0*%
%ADD42RoundRect,0.150000X-0.512500X-0.150000X0.512500X-0.150000X0.512500X0.150000X-0.512500X0.150000X0*%
%ADD43RoundRect,0.075000X0.075000X-0.662500X0.075000X0.662500X-0.075000X0.662500X-0.075000X-0.662500X0*%
%ADD44RoundRect,0.075000X0.662500X-0.075000X0.662500X0.075000X-0.662500X0.075000X-0.662500X-0.075000X0*%
%ADD45R,1.000000X3.000000*%
%ADD46RoundRect,0.140000X0.170000X-0.140000X0.170000X0.140000X-0.170000X0.140000X-0.170000X-0.140000X0*%
%ADD47R,0.500000X0.250000*%
%ADD48R,0.900000X1.600000*%
%ADD49RoundRect,0.250000X-0.250000X-0.475000X0.250000X-0.475000X0.250000X0.475000X-0.250000X0.475000X0*%
G04 APERTURE END LIST*
D10*
X95024264Y-53671455D02*
X95023669Y-53806782D01*
X94200501Y-56634719D02*
X94028389Y-56123654D01*
X95003607Y-55343858D02*
X95010444Y-55345223D01*
X91339547Y-56772371D02*
X91313890Y-56692658D01*
X91467457Y-57264007D02*
X91522238Y-57315700D01*
X91947206Y-56002241D02*
X91994779Y-55990698D01*
X90749813Y-56710255D02*
X90793609Y-56742299D01*
X92085662Y-55564522D02*
X91957557Y-55568808D01*
X95010241Y-54038965D02*
X95013501Y-54567260D01*
X96541396Y-54167961D02*
X96540531Y-54638922D01*
X95495224Y-57414750D02*
X95573969Y-57371093D01*
X95389812Y-56741979D02*
X95382771Y-56780194D01*
X95084261Y-57047332D02*
X95028540Y-57042618D01*
X95038572Y-55452492D02*
X95039172Y-55341407D01*
X96590996Y-55288134D02*
X96592386Y-55753736D01*
X95962858Y-56285714D02*
X95943035Y-56277898D01*
X96663035Y-54006643D02*
X96638388Y-53996393D01*
X95644700Y-54633773D02*
X95646455Y-55012467D01*
X92811832Y-56617089D02*
X92779269Y-56567722D01*
X90667141Y-57014850D02*
X90667141Y-57014847D01*
X95442426Y-55092331D02*
X95442425Y-55092331D01*
X95688583Y-54131159D02*
X95668348Y-54146680D01*
X95991858Y-57453615D02*
X95992648Y-56327695D01*
X94388176Y-57174082D02*
X94472375Y-57267709D01*
X95806393Y-51938650D02*
X96307258Y-53332130D01*
X95045316Y-55301102D02*
X95046281Y-54882045D01*
X96384625Y-54676192D02*
X96386645Y-55070935D01*
X96048115Y-54615401D02*
X96051670Y-55021874D01*
X96240028Y-53906422D02*
X96006657Y-53854116D01*
X94969030Y-53980381D02*
X95016736Y-53974302D01*
X96004351Y-53841882D02*
X96297649Y-53902567D01*
X94955119Y-53960609D02*
X94955387Y-53971827D01*
X94903241Y-56077347D02*
X94952917Y-56042266D01*
X96327613Y-54232804D02*
X96300989Y-54200147D01*
X95859446Y-57026707D02*
X95901239Y-56903268D01*
X95011251Y-55201090D02*
X95004942Y-55306812D01*
X95154417Y-55324647D02*
X95958252Y-55207231D01*
X96063181Y-54068299D02*
X96304276Y-54119887D01*
X95588374Y-55078292D02*
X95598170Y-55072576D01*
X91651005Y-56630729D02*
X91787483Y-56686223D01*
X95450120Y-55097988D02*
X95588374Y-55078292D01*
X92212023Y-55568831D02*
X92085662Y-55564522D01*
X93250442Y-57325683D02*
X93282537Y-57204667D01*
X95789333Y-55902503D02*
X95722980Y-55816030D01*
X95256986Y-55269634D02*
X95051465Y-55299872D01*
X95753952Y-51826215D02*
X95770219Y-51904865D01*
X94672458Y-57405210D02*
X94783833Y-57449174D01*
X91843377Y-56881994D02*
X91598300Y-56881994D01*
X90823637Y-56895054D02*
X90805807Y-56940586D01*
X96222743Y-54246328D02*
X96222742Y-54646447D01*
X96099518Y-55035768D02*
X96150653Y-55044753D01*
X95176926Y-53073838D02*
X95162747Y-53073588D01*
X92739459Y-56522079D02*
X92692401Y-56480161D01*
X96619042Y-55296569D02*
X96636015Y-55297854D01*
X95412037Y-53883254D02*
X95412040Y-53883257D01*
X90448447Y-56679178D02*
X90651864Y-56685304D01*
X94983442Y-54017573D02*
X94987717Y-54030143D01*
X96664180Y-53695610D02*
X96667638Y-53683697D01*
X92782693Y-55974626D02*
X92719943Y-55849408D01*
X96320691Y-55207400D02*
X96030027Y-55163570D01*
X96051670Y-55021874D02*
X96099522Y-55035767D01*
X91913859Y-56164938D02*
X91891460Y-56133594D01*
X92285173Y-56126572D02*
X92289247Y-56144435D01*
X96159543Y-55043094D02*
X96163752Y-55005211D01*
X92309577Y-57002624D02*
X92286672Y-57024552D01*
X95945797Y-52972120D02*
X95857522Y-53245715D01*
X90774185Y-56975420D02*
X90728164Y-57000020D01*
X95811316Y-54184095D02*
X95806293Y-54173223D01*
X93876640Y-57321082D02*
X93909742Y-57441513D01*
X95964591Y-53841531D02*
X95964591Y-53852336D01*
X91431218Y-55836331D02*
X91386259Y-55919007D01*
X96569974Y-54152399D02*
X96563976Y-54143821D01*
X96222742Y-54646447D02*
X96226772Y-55050172D01*
X90728164Y-57000020D02*
X90667141Y-57014850D01*
X95350777Y-53557738D02*
X95299865Y-53408810D01*
X96594841Y-56836476D02*
X96595905Y-57453615D01*
X96305752Y-53364724D02*
X96326496Y-53364724D01*
X95598170Y-55072576D02*
X95602719Y-54642194D01*
X94531705Y-55742885D02*
X94450690Y-55819355D01*
X90667141Y-57014847D02*
X90489935Y-57019653D01*
X96616899Y-53698935D02*
X96633630Y-53702540D01*
X95980344Y-52987850D02*
X95893097Y-52463520D01*
X91089526Y-56480656D02*
X91067393Y-56473089D01*
X95070492Y-53624373D02*
X95063884Y-53624717D01*
X95023074Y-53942110D02*
X94995415Y-53946130D01*
X95037972Y-55563577D02*
X95038572Y-55452492D01*
X96053640Y-54203405D02*
X96048715Y-54214059D01*
X91182181Y-55775293D02*
X91119957Y-55724533D01*
X95811316Y-54607557D02*
X95811316Y-54184095D01*
X90338344Y-56037833D02*
X90477214Y-56039058D01*
X95028540Y-57042618D02*
X94980551Y-57030465D01*
X96321831Y-53573239D02*
X96447408Y-53171517D01*
X96054485Y-53545828D02*
X96343750Y-53622697D01*
X95051850Y-53976957D02*
X95053870Y-53968588D01*
X95442425Y-55092331D02*
X95450120Y-55097988D01*
X90756666Y-56123894D02*
X90764909Y-56182598D01*
X96305952Y-53449430D02*
X96305752Y-53364724D01*
X96590820Y-54639003D02*
X96589015Y-55247593D01*
X92025650Y-57064476D02*
X91948415Y-57034179D01*
X90745407Y-56265642D02*
X90716296Y-56300832D01*
X93282598Y-55612005D02*
X93077834Y-56222225D01*
X91489639Y-56521979D02*
X91561638Y-56580001D01*
X95964592Y-54531792D02*
X95964592Y-55164027D01*
X91229910Y-55835128D02*
X91182181Y-55775293D01*
X95799020Y-54065098D02*
X95808002Y-54056021D01*
X91263903Y-55905245D02*
X91229910Y-55835128D01*
X93568130Y-56822068D02*
X93390692Y-56819188D01*
X95927472Y-56301169D02*
X95947320Y-56309742D01*
X92497804Y-55650223D02*
X92368041Y-55599068D01*
X91598300Y-56881994D02*
X91353224Y-56881994D01*
X95644725Y-55741946D02*
X95554745Y-55680450D01*
X96563976Y-54143821D02*
X96067747Y-54043675D01*
X95441873Y-54207352D02*
X95438111Y-54256877D01*
X96488892Y-54006569D02*
X96588657Y-54029492D01*
X91891312Y-56049569D02*
X91913024Y-56021750D01*
X95240758Y-55129491D02*
X95252237Y-55131166D01*
X95931472Y-56745437D02*
X95932787Y-56736793D01*
X91119957Y-55724533D02*
X91061135Y-55691087D01*
X91522238Y-57315700D02*
X91611295Y-57379000D01*
X95885625Y-56111831D02*
X95843607Y-56001169D01*
X96343750Y-53622697D02*
X96584036Y-53687361D01*
X95395277Y-54669819D02*
X95395277Y-54235449D01*
X95256986Y-55269635D02*
X95256986Y-55269634D01*
X92601309Y-57369479D02*
X92704119Y-57290165D01*
X96617537Y-53969678D02*
X96622676Y-53969551D01*
X94227426Y-56252998D02*
X94204986Y-56385299D01*
X94264057Y-56127659D02*
X94227426Y-56252998D01*
X92162939Y-57492993D02*
X92330245Y-57471071D01*
X91994779Y-55990698D02*
X92056666Y-55986778D01*
X96589217Y-53811804D02*
X96586337Y-53933762D01*
X96638388Y-53996393D02*
X96618086Y-53990077D01*
X96419644Y-54241086D02*
X96390380Y-54275113D01*
X93077834Y-56222225D02*
X92872408Y-56833260D01*
X91949247Y-56193038D02*
X91913859Y-56164938D01*
X91889388Y-56984197D02*
X91853067Y-56917179D01*
X92695052Y-57361995D02*
X92666528Y-57446700D01*
X92674982Y-55789796D02*
X92622575Y-55736373D01*
X96544136Y-55113155D02*
X96544123Y-55113154D01*
X96109084Y-54163998D02*
X96086476Y-54168500D01*
X95156392Y-54439744D02*
X95157877Y-54947089D01*
X95714558Y-54123914D02*
X95688583Y-54131159D01*
X96385235Y-54287816D02*
X96384625Y-54676192D01*
X96615078Y-53636653D02*
X96543893Y-53356698D01*
X94792079Y-56815757D02*
X94767068Y-56684933D01*
X92866007Y-56787503D02*
X92855202Y-56726982D01*
X96622792Y-56950569D02*
X96620292Y-55858219D01*
X91818622Y-57464929D02*
X91939074Y-57488463D01*
X96260120Y-54200347D02*
X96242900Y-54212472D01*
X95528256Y-53557078D02*
X95528257Y-53557077D01*
X95515711Y-53917692D02*
X95059341Y-53984186D01*
X92135009Y-55992774D02*
X92198418Y-56014779D01*
X96667638Y-53683697D02*
X96661588Y-53670046D01*
X95215813Y-56039514D02*
X95288163Y-56087261D01*
X96589222Y-53689596D02*
X96589222Y-53811805D01*
X90706033Y-56063632D02*
X90730484Y-56082275D01*
X96632492Y-55252377D02*
X96619239Y-55249807D01*
X92172100Y-56794148D02*
X92262645Y-56834224D01*
X96619239Y-55249807D02*
X96619238Y-54890983D01*
X95009473Y-53672835D02*
X95024264Y-53671455D01*
X96620292Y-55858219D02*
X96619042Y-55296569D01*
X91061135Y-55691087D02*
X90993498Y-55663654D01*
X95390837Y-55108208D02*
X95395277Y-54669819D01*
X96589271Y-53640717D02*
X96586316Y-53645707D01*
X91386259Y-55919007D02*
X91357026Y-56011075D01*
X91313890Y-56692658D02*
X91274824Y-56621328D01*
X92262645Y-56834224D02*
X92293927Y-56857608D01*
X96666788Y-55285495D02*
X96666018Y-55269015D01*
X90826824Y-56840746D02*
X90823637Y-56895054D01*
X92316336Y-56885012D02*
X92329056Y-56915099D01*
X95515711Y-53917692D02*
X95515711Y-53917692D01*
X94897513Y-56986409D02*
X94863820Y-56954460D01*
X95883192Y-53505086D02*
X95799950Y-53516827D01*
X92270591Y-56086813D02*
X92285173Y-56126572D01*
X96278042Y-53449985D02*
X96278042Y-53449983D01*
X96526988Y-53970717D02*
X96240028Y-53906422D01*
X90730484Y-56082275D02*
X90756666Y-56123894D01*
X90762569Y-56221054D02*
X90745407Y-56265642D01*
X95798636Y-54034778D02*
X95478263Y-54075516D01*
X91853067Y-56917179D02*
X91844684Y-56888333D01*
X95023669Y-53806782D02*
X95023074Y-53942110D01*
X96386645Y-55070935D02*
X96394222Y-55078116D01*
X95570884Y-54171050D02*
X95532178Y-54155031D01*
X95004942Y-55306812D02*
X94996124Y-55311732D01*
X90338388Y-56849927D02*
X90338388Y-56679166D01*
X91357026Y-56011075D02*
X91343473Y-56112641D01*
X94995415Y-53946130D02*
X94962524Y-53952440D01*
X91377509Y-57142070D02*
X91418661Y-57205381D01*
X95360779Y-53581363D02*
X95350777Y-53557738D01*
X89773662Y-55611828D02*
X89773662Y-56529263D01*
X95902744Y-53188855D02*
X95953138Y-53040189D01*
X95772105Y-51758957D02*
X95759435Y-51758133D01*
X95964592Y-53899557D02*
X95964592Y-54531792D01*
X95059341Y-53984186D02*
X95052861Y-53984039D01*
X96564730Y-55112119D02*
X96570074Y-54633206D01*
X95009844Y-55454990D02*
X95009244Y-55564756D01*
X96163959Y-54220974D02*
X96158635Y-54205271D01*
X95012723Y-56019577D02*
X95066604Y-56013683D01*
X96624042Y-57481274D02*
X96622792Y-56950569D01*
X95966899Y-53799413D02*
X95864907Y-53814801D01*
X95052764Y-53666648D02*
X95957884Y-53534014D01*
X96163752Y-55005211D02*
X96164574Y-54627560D01*
X95646335Y-54201147D02*
X95644700Y-54633773D01*
X95320106Y-57474542D02*
X95410621Y-57449227D01*
X95390817Y-56736793D02*
X95389812Y-56741979D01*
X96448598Y-53180504D02*
X96455612Y-53390038D01*
X96493261Y-55058784D02*
X96494702Y-54696999D01*
X90616804Y-56041907D02*
X90673574Y-56051188D01*
X95825412Y-53428665D02*
X95902744Y-53188855D01*
X90673574Y-56051188D02*
X90706033Y-56063632D01*
X96534461Y-53428613D02*
X96589272Y-53640716D01*
X95162652Y-55149538D02*
X95162657Y-55149536D01*
X95901239Y-56903268D02*
X95927652Y-56773672D01*
X91010348Y-57392754D02*
X91086303Y-57361432D01*
X91420610Y-56439157D02*
X91489639Y-56521979D01*
X90793609Y-56742299D02*
X90819251Y-56788286D01*
X95346511Y-56893835D02*
X95318818Y-56940241D01*
X90624321Y-56341196D02*
X90624321Y-56341194D01*
X95790979Y-54151240D02*
X95769080Y-54134885D01*
X95097722Y-53351162D02*
X95032765Y-53628938D01*
X96304276Y-54119887D02*
X96541396Y-54167961D01*
X92286672Y-57024552D02*
X92254876Y-57043481D01*
X91995588Y-56744836D02*
X92172100Y-56794148D01*
X91274824Y-56621328D02*
X91223512Y-56561371D01*
X96592386Y-55753736D02*
X96594841Y-56836476D01*
X96488667Y-55094281D02*
X96493261Y-55058784D01*
X96390380Y-54275113D02*
X96385235Y-54287816D01*
X95288884Y-54179148D02*
X95261929Y-54191982D01*
X96001810Y-53898350D02*
X96488892Y-54006569D01*
X96435838Y-55087730D02*
X96479031Y-55095430D01*
X95883192Y-53505086D02*
X95883192Y-53505086D01*
X96129559Y-54167450D02*
X96109084Y-54163998D01*
X96595905Y-57453615D02*
X96293881Y-57453615D01*
X90624321Y-56341194D02*
X90470469Y-56344919D01*
X95012544Y-53632538D02*
X94987960Y-53640498D01*
X96164574Y-54627560D02*
X96163959Y-54220974D01*
X96435835Y-55087731D02*
X96435838Y-55087730D01*
X96057804Y-54060366D02*
X96063181Y-54068299D01*
X96494702Y-54696999D02*
X96492332Y-54293578D01*
X94763544Y-56463663D02*
X94779225Y-56334989D01*
X90916428Y-55642027D02*
X90829308Y-55625995D01*
X95494938Y-52496363D02*
X95240958Y-53233353D01*
X95857522Y-53245715D02*
X95767793Y-53520765D01*
X91353224Y-56881994D02*
X91351730Y-56855834D01*
X95388434Y-56290797D02*
X95392044Y-56312117D01*
X94198581Y-56582354D02*
X94200501Y-56634719D01*
X96615778Y-53651506D02*
X96615078Y-53636653D01*
X95067381Y-55563577D02*
X95037972Y-55563577D01*
X93282537Y-57204667D02*
X93563689Y-57205252D01*
X95668348Y-54146680D02*
X95654162Y-54170126D01*
X96619238Y-54890983D02*
X96617703Y-54284593D01*
X96377060Y-53308591D02*
X96307087Y-53531830D01*
X95410621Y-57449227D02*
X95495224Y-57414750D01*
X96466451Y-54243353D02*
X96441863Y-54237206D01*
X96293292Y-53337045D02*
X96278042Y-53337045D01*
X95013501Y-54567260D02*
X95011251Y-55201090D01*
X95464647Y-54172126D02*
X95449549Y-54190628D01*
X95722980Y-55816030D02*
X95644725Y-55741946D01*
X95927652Y-56773672D02*
X95931472Y-56745437D01*
X96492332Y-54293578D02*
X96482516Y-54263287D01*
X95172716Y-53150855D02*
X95190035Y-53265593D01*
X95806293Y-54173223D02*
X95790979Y-54151240D01*
X96656177Y-55258924D02*
X96632492Y-55252377D01*
X95189385Y-54149081D02*
X95198410Y-54147666D01*
X96491919Y-53615766D02*
X96478900Y-53228256D01*
X94936369Y-57011656D02*
X94897513Y-56986409D01*
X96455612Y-53390038D02*
X96455612Y-53390038D01*
X95656806Y-55058823D02*
X95656809Y-55058824D01*
X95206163Y-55572228D02*
X95067381Y-55563577D01*
X91161298Y-56514057D02*
X91089526Y-56480656D01*
X96636015Y-55297854D02*
X96657122Y-55296559D01*
X94313722Y-56012506D02*
X94264057Y-56127659D01*
X93746571Y-56822068D02*
X93568130Y-56822068D01*
X95412040Y-53883257D02*
X95056509Y-53936322D01*
X91197316Y-56348951D02*
X91252720Y-56253748D01*
X95162657Y-55149536D02*
X95173200Y-55155454D01*
X95190035Y-53265593D02*
X95222027Y-53600937D01*
X92725259Y-57272680D02*
X92695052Y-57361995D01*
X96666018Y-55269015D02*
X96656177Y-55258924D01*
X93390692Y-56819188D02*
X93477894Y-56490808D01*
X92064733Y-56243140D02*
X91999060Y-56218802D01*
X96297649Y-53902567D02*
X96588067Y-53963189D01*
X96294343Y-57481274D02*
X96624042Y-57481274D01*
X95996553Y-55200580D02*
X96295331Y-55243760D01*
X95964645Y-57481274D02*
X96294343Y-57481274D01*
X95958252Y-55207231D02*
X95964591Y-55205951D01*
X95010444Y-55345223D02*
X95009844Y-55454990D01*
X91580641Y-55690846D02*
X91491949Y-55762939D01*
X95016736Y-53974302D02*
X95023196Y-53974284D01*
X95964645Y-56899794D02*
X95964645Y-57481274D01*
X95646455Y-55012467D02*
X95649879Y-55053402D01*
X95964591Y-55745346D02*
X95964588Y-55745334D01*
X93477894Y-56490808D02*
X93565847Y-56169275D01*
X92476526Y-57429840D02*
X92601309Y-57369479D01*
X95063884Y-53624717D02*
X95064009Y-53619142D01*
X96226772Y-55050172D02*
X96275751Y-55062975D01*
X95379115Y-56248470D02*
X95388434Y-56290797D01*
X95003045Y-53992741D02*
X94987987Y-54001515D01*
X95926461Y-56309236D02*
X95927472Y-56301169D01*
X95190910Y-54645601D02*
X95189385Y-54149081D01*
X89773662Y-57446698D02*
X90230648Y-57446698D01*
X92576553Y-56407511D02*
X92438554Y-56350181D01*
X91709726Y-57428592D02*
X91818622Y-57464929D01*
X95964645Y-56318314D02*
X95964645Y-56899794D01*
X95554745Y-55680450D02*
X95453220Y-55631738D01*
X96544123Y-55113154D02*
X96564730Y-55112119D01*
X92806378Y-56054040D02*
X92782693Y-55974626D01*
X96618086Y-53990077D02*
X96617371Y-53979058D01*
X92240199Y-56045231D02*
X92270591Y-56086813D01*
X95769080Y-54134885D02*
X95742853Y-54125372D01*
X95343034Y-56157317D02*
X95379115Y-56248470D01*
X91155048Y-57321994D02*
X91213893Y-57272727D01*
X95243603Y-57011734D02*
X95197858Y-57033395D01*
X95036091Y-57495046D02*
X95036115Y-57495048D01*
X96455612Y-53390038D02*
X96461953Y-53601032D01*
X95923112Y-56268405D02*
X95915210Y-56234292D01*
X90724473Y-57444368D02*
X90830417Y-57433996D01*
X96062858Y-52569094D02*
X95776784Y-51769569D01*
X95231443Y-54249785D02*
X95229373Y-54688869D01*
X92198418Y-56014779D02*
X92240199Y-56045231D01*
X96637670Y-53658965D02*
X96615778Y-53651506D01*
X90819251Y-56788286D02*
X90826824Y-56840746D01*
X96067747Y-54043675D02*
X96057804Y-54060366D01*
X91418661Y-57205381D02*
X91467457Y-57264007D01*
X96614994Y-53817511D02*
X96616899Y-53698935D01*
X96570074Y-54633206D02*
X96569974Y-54152399D01*
X91343473Y-56112641D02*
X91347468Y-56234321D01*
X90696256Y-55614804D02*
X90246743Y-55612638D01*
X95962319Y-53324196D02*
X95963979Y-53492813D01*
X91067393Y-56473089D02*
X91090679Y-56455802D01*
X95964591Y-55205951D02*
X95964591Y-55745346D01*
X96540531Y-54638922D02*
X96544136Y-55113155D01*
X95222027Y-53600937D02*
X95149597Y-53612524D01*
X92045893Y-57494493D02*
X92162939Y-57492993D01*
X96617371Y-53979058D02*
X96617537Y-53969678D01*
X91281547Y-57188360D02*
X91325971Y-57088286D01*
X92823478Y-56144435D02*
X92821938Y-56132335D01*
X96668817Y-54024502D02*
X96663035Y-54006643D01*
X92837143Y-56670176D02*
X92811832Y-56617089D01*
X91345657Y-57076320D02*
X91377509Y-57142070D01*
X96589222Y-53811805D02*
X96589217Y-53811804D01*
X96004425Y-55159720D02*
X96002715Y-54529425D01*
X96589272Y-53640716D02*
X96589271Y-53640717D01*
X95602719Y-54642194D02*
X95602718Y-54216364D01*
X91252720Y-56253748D02*
X91284842Y-56150189D01*
X96538489Y-53633434D02*
X96491919Y-53615766D01*
X95656809Y-55058824D02*
X95667261Y-55059649D01*
X92821938Y-56132335D02*
X92806378Y-56054040D01*
X95660548Y-56317303D02*
X95927977Y-56317303D01*
X96274007Y-53562652D02*
X96132457Y-53524160D01*
X90470469Y-56344919D02*
X90338344Y-56344919D01*
X90764909Y-56182598D02*
X90762569Y-56221054D01*
X95992648Y-56327695D02*
X95996553Y-55200580D01*
X96006657Y-53854116D02*
X96001470Y-53847331D01*
X92563318Y-55689671D02*
X92497804Y-55650223D01*
X95367882Y-56840376D02*
X95346511Y-56893835D01*
X96391554Y-53594183D02*
X96321831Y-53573239D01*
X95191282Y-55086407D02*
X95190910Y-54645601D01*
X91284917Y-55986847D02*
X91263903Y-55905245D01*
X96326496Y-53364724D02*
X96347240Y-53362719D01*
X93911047Y-57446699D02*
X94191049Y-57446699D01*
X95900631Y-55173789D02*
X95256986Y-55269635D01*
X95453220Y-55631738D02*
X95340325Y-55596007D01*
X95438111Y-54256877D02*
X95436768Y-54657189D01*
X95382771Y-56780194D02*
X95367882Y-56840376D01*
X95232288Y-55120992D02*
X95240759Y-55129490D01*
X96300989Y-54200147D02*
X96260120Y-54200347D01*
X96278042Y-53449983D02*
X96274007Y-53562652D01*
X93218348Y-57446700D02*
X93250442Y-57325683D01*
X95960556Y-53831673D02*
X95964591Y-53841531D01*
X96687331Y-53969739D02*
X96685395Y-53958631D01*
X95602718Y-54216364D02*
X95595990Y-54202144D01*
X96661588Y-53670046D02*
X96637670Y-53658965D01*
X94472375Y-57267709D02*
X94570651Y-57347143D01*
D11*
X116713000Y-53594000D02*
G75*
G03*
X116713000Y-53594000I-1651000J0D01*
G01*
D10*
X94980551Y-57030465D02*
X94936369Y-57011656D01*
X95284965Y-56979265D02*
X95243603Y-57011734D01*
X95767793Y-53520765D02*
X95730043Y-53527506D01*
X95145490Y-57045007D02*
X95084261Y-57047332D01*
X95064009Y-53619142D02*
X95172716Y-53150855D01*
X94377561Y-57161414D02*
X94388176Y-57174082D01*
X96333484Y-55064545D02*
X96332854Y-54654272D01*
X95532178Y-54155031D02*
X95484161Y-54159721D01*
X91325971Y-57088286D02*
X91335540Y-57057248D01*
X96295331Y-55243760D02*
X96590996Y-55288134D01*
X95189124Y-55142968D02*
X95191282Y-55086407D01*
X96616168Y-54037027D02*
X96624041Y-54038782D01*
X95318818Y-56940241D02*
X95284965Y-56979265D01*
X95958253Y-53900722D02*
X95964592Y-53899557D01*
X96347240Y-53362719D02*
X96062858Y-52569094D01*
X95739404Y-57224874D02*
X95805837Y-57131198D01*
X95484161Y-54159721D02*
X95464647Y-54172126D01*
X95654162Y-54170126D02*
X95646335Y-54201147D01*
X95737524Y-55049489D02*
X95806671Y-55035664D01*
X95322270Y-54178112D02*
X95288884Y-54179148D01*
X95108611Y-53960559D02*
X95558927Y-53892575D01*
X92622575Y-55736373D02*
X92563318Y-55689671D01*
X95634991Y-53947948D02*
X95958253Y-53900722D01*
X95759435Y-51758133D02*
X95747589Y-51759363D01*
X95770219Y-51904865D02*
X95857307Y-52432570D01*
X90716296Y-56300832D02*
X90675759Y-56326169D01*
X92368041Y-55599068D02*
X92212023Y-55568831D01*
X94779225Y-56334989D02*
X94807580Y-56228142D01*
X96000390Y-53776127D02*
X95999610Y-53639930D01*
X95149597Y-53612524D02*
X95149597Y-53612524D01*
X95927977Y-56317303D02*
X95926461Y-56309236D01*
X95932787Y-56736793D02*
X95661802Y-56736793D01*
X96588067Y-53963189D02*
X96588802Y-53971954D01*
X95157877Y-54947089D02*
X95162652Y-55149538D01*
D11*
X89027000Y-91440000D02*
G75*
G03*
X89027000Y-91440000I-1651000J0D01*
G01*
D10*
X94450690Y-55819355D02*
X94375264Y-55910764D01*
X94835125Y-56915545D02*
X94792079Y-56815757D01*
X92779269Y-56567722D02*
X92739459Y-56522079D01*
X96543893Y-53356698D02*
X96472856Y-53090926D01*
X92329056Y-56915099D02*
X92331269Y-56946532D01*
X95000025Y-55565316D02*
X94871845Y-55582575D01*
X96099522Y-55035767D02*
X96099518Y-55035768D01*
X95947320Y-56309742D02*
X95964645Y-56318314D01*
X95943035Y-56277898D02*
X95923112Y-56268405D01*
X92289247Y-56144435D02*
X92556362Y-56144435D01*
X95808002Y-54056021D02*
X95807487Y-54043145D01*
X92056666Y-55986778D02*
X92135009Y-55992774D01*
X95649879Y-55053402D02*
X95656806Y-55058823D01*
X95322266Y-55121144D02*
X95390837Y-55108208D01*
X95066604Y-56013683D02*
X95127296Y-56015292D01*
X96617703Y-54284593D02*
X96616168Y-54037027D01*
X90338344Y-56191376D02*
X90338344Y-56037833D01*
X95256969Y-53279275D02*
X95753952Y-51826215D01*
X93856794Y-55612074D02*
X93569696Y-55612039D01*
X92556362Y-56144435D02*
X92823478Y-56144435D01*
X96293881Y-57453615D02*
X95991858Y-57453615D01*
X92330245Y-57471071D02*
X92476526Y-57429840D01*
X96656717Y-54040332D02*
X96668817Y-54024502D01*
X89773662Y-56529263D02*
X89773662Y-57446698D01*
X95361562Y-54192412D02*
X95322270Y-54178112D01*
X95558927Y-53892575D02*
X95960556Y-53831673D01*
X91223512Y-56561371D02*
X91161298Y-56514057D01*
X91913024Y-56021750D02*
X91947206Y-56002241D01*
X96322170Y-55072380D02*
X96328564Y-55068580D01*
X96472856Y-53090926D02*
X96446800Y-53086976D01*
X91347468Y-56234321D02*
X91373200Y-56343216D01*
X94996124Y-55311732D02*
X94991172Y-55330195D01*
X96242900Y-54212472D02*
X96229376Y-54232498D01*
X95730043Y-53527506D02*
X95528256Y-53557078D01*
X96654222Y-53703375D02*
X96664180Y-53695610D01*
X91891460Y-56133594D02*
X91883798Y-56091441D01*
X91999060Y-56218802D02*
X91949247Y-56193038D01*
X94848841Y-56142476D02*
X94903241Y-56077347D01*
X95197858Y-57033395D02*
X95145490Y-57045007D01*
X90830417Y-57433996D02*
X90925381Y-57416866D01*
X95964592Y-55164027D02*
X95900631Y-55173789D01*
X91957557Y-55568808D02*
X91812640Y-55594115D01*
X95965374Y-53598925D02*
X95966899Y-53732252D01*
X93844842Y-57205837D02*
X93876640Y-57321082D01*
X90651864Y-56685304D02*
X90707990Y-56694805D01*
X90338388Y-57020688D02*
X90338388Y-56849927D01*
X95036115Y-57495048D02*
X95223624Y-57490714D01*
X96292668Y-53868649D02*
X96001880Y-53803786D01*
X95595990Y-54202144D02*
X95570884Y-54171050D01*
X94807580Y-56228142D02*
X94848841Y-56142476D01*
X93563689Y-57205252D02*
X93844842Y-57205837D01*
X95046281Y-54882045D02*
X95050186Y-54034020D01*
X95964591Y-53852336D02*
X95515711Y-53917692D01*
X95190160Y-53080867D02*
X95188271Y-53075492D01*
X95159277Y-54123470D02*
X95156392Y-54439744D01*
X94991172Y-55330195D02*
X95003607Y-55343858D01*
X94988710Y-53668245D02*
X95009473Y-53672835D01*
X94987987Y-54001515D02*
X94983442Y-54017573D01*
X90925381Y-57416866D02*
X91010348Y-57392754D01*
X96588802Y-53971954D02*
X96588804Y-53971954D01*
X95393119Y-56317303D02*
X95660548Y-56317303D01*
X95963849Y-53532759D02*
X95965374Y-53598925D01*
X96048715Y-54214059D02*
X96048115Y-54615401D01*
X96624041Y-54038782D02*
X96656717Y-54040332D01*
X95478263Y-54075516D02*
X95159277Y-54123470D01*
X95032765Y-53628938D02*
X95012544Y-53632538D01*
X91948415Y-57034179D02*
X91889388Y-56984197D01*
X90489935Y-57019653D02*
X90338388Y-57020688D01*
X95864907Y-53814801D02*
X95412037Y-53883254D01*
X95776784Y-51769569D02*
X95772105Y-51758957D01*
X96394222Y-55078116D02*
X96435835Y-55087731D01*
X95039172Y-55341407D02*
X95154417Y-55324647D01*
X94982634Y-53654217D02*
X94988710Y-53668245D01*
X95807487Y-54043145D02*
X95798636Y-54034778D01*
X95051465Y-55299872D02*
X95045316Y-55301102D01*
X96446800Y-53086976D02*
X96377060Y-53308591D01*
X94636854Y-55671674D02*
X94531705Y-55742885D01*
X94904976Y-57479098D02*
X95036091Y-57495046D01*
X94750511Y-55618132D02*
X94636854Y-55671674D01*
X96150653Y-55044753D02*
X96159543Y-55043094D01*
X90477214Y-56039058D02*
X90616804Y-56041907D01*
X96158635Y-54205271D02*
X96146468Y-54182375D01*
X95857307Y-52432570D02*
X95945797Y-52972120D01*
X90246743Y-55612638D02*
X89773662Y-55611828D01*
X90707990Y-56694805D02*
X90749813Y-56710255D01*
X95288163Y-56087261D02*
X95343034Y-56157317D01*
X94570651Y-57347143D02*
X94672458Y-57405210D01*
X96068081Y-54182452D02*
X96053640Y-54203405D01*
X93657086Y-56497654D02*
X93746571Y-56822068D01*
X96617359Y-53937537D02*
X96614994Y-53817511D01*
X90338344Y-56344919D02*
X90338344Y-56191376D01*
X95957884Y-53534014D02*
X95963849Y-53532759D01*
X96657122Y-55296559D02*
X96666788Y-55285495D01*
X95966899Y-53732252D02*
X95966899Y-53799413D01*
X95436768Y-54657189D02*
X95436768Y-55086673D01*
X94375264Y-55910764D02*
X94313722Y-56012506D01*
X91561638Y-56580001D02*
X91651005Y-56630729D01*
X92438554Y-56350181D02*
X92230686Y-56289628D01*
X96278042Y-53337045D02*
X96278042Y-53449985D01*
X95395277Y-54235449D02*
X95388019Y-54221830D01*
X95198410Y-54147666D02*
X95500156Y-54106878D01*
X95024227Y-53981005D02*
X95021867Y-53988750D01*
X95661393Y-57303842D02*
X95739404Y-57224874D01*
X96584036Y-53687361D02*
X96589222Y-53689596D01*
X96680725Y-53978062D02*
X96687331Y-53969739D01*
X95747589Y-51759363D02*
X95494938Y-52496363D01*
X96307087Y-53531830D02*
X96305952Y-53449430D01*
X91373200Y-56343216D02*
X91420610Y-56439157D01*
X90805807Y-56940586D02*
X90774185Y-56975420D01*
X91939074Y-57488463D02*
X92045893Y-57494493D01*
X92719943Y-55849408D02*
X92674982Y-55789796D01*
X95963979Y-53492813D02*
X95883192Y-53505086D01*
X91787483Y-56686223D02*
X91995588Y-56744836D01*
X94987960Y-53640498D02*
X94982634Y-53654217D01*
X96086476Y-54168500D02*
X96068081Y-54182452D01*
X94191049Y-57446699D02*
X94471050Y-57444689D01*
X92331269Y-56946532D02*
X92324229Y-56976888D01*
X91611295Y-57379000D02*
X91709726Y-57428592D01*
X96590827Y-54639007D02*
X96590820Y-54639003D01*
X95261929Y-54191982D02*
X95242437Y-54215800D01*
X91351730Y-56855834D02*
X91339547Y-56772371D01*
X96030027Y-55163570D02*
X96004425Y-55159720D01*
X94955387Y-53971827D02*
X94969030Y-53980381D01*
X96275751Y-55062975D02*
X96275751Y-55062951D01*
X96001880Y-53803786D02*
X96000390Y-53776127D01*
X95436768Y-55086673D02*
X95442426Y-55092331D01*
X95340325Y-55596007D02*
X95206163Y-55572228D01*
X94423983Y-57302371D02*
X94377561Y-57161414D01*
X95162747Y-53073588D02*
X95097722Y-53351162D01*
X91086303Y-57361432D02*
X91155048Y-57321994D01*
X94028389Y-56123654D02*
X93856794Y-55612074D01*
X95843607Y-56001169D02*
X95789333Y-55902503D01*
X91335540Y-57057248D02*
X91345657Y-57076320D01*
X92230686Y-56289628D02*
X92064733Y-56243140D01*
X93565847Y-56169275D02*
X93657086Y-56497654D01*
X95053870Y-53968588D02*
X95108611Y-53960559D01*
X94783833Y-57449174D02*
X94904976Y-57479098D01*
X96441863Y-54237206D02*
X96419644Y-54241086D01*
X96650355Y-53946143D02*
X96617359Y-53937537D01*
X92872408Y-56833260D02*
X92866007Y-56787503D01*
X95799950Y-53516827D02*
X95825412Y-53428665D01*
X96685395Y-53958631D02*
X96650355Y-53946143D01*
X96587649Y-53982350D02*
X96526988Y-53970717D01*
X92194707Y-57063652D02*
X92116595Y-57072437D01*
X92324229Y-56976888D02*
X92309577Y-57002624D01*
X90993498Y-55663654D02*
X90916428Y-55642027D01*
X90230648Y-57446698D02*
X90724473Y-57444368D01*
X90338388Y-56679166D02*
X90448447Y-56679178D01*
X95388019Y-54221830D02*
X95361562Y-54192412D01*
X92704119Y-57290165D02*
X92725259Y-57272680D01*
X96589015Y-55247593D02*
X96320691Y-55207400D01*
X94987717Y-54030143D02*
X95010241Y-54038965D01*
X96275751Y-55062951D02*
X96322170Y-55072380D01*
X96055637Y-53255219D02*
X95980344Y-52987850D01*
X92942438Y-57446700D02*
X93218348Y-57446700D01*
X96588657Y-54029492D02*
X96590827Y-54639007D01*
X95661802Y-56736793D02*
X95390817Y-56736793D01*
X91289431Y-56069631D02*
X91284917Y-55986847D01*
X92855202Y-56726982D02*
X92837143Y-56670176D01*
X95229373Y-54688869D02*
X95232288Y-55120992D01*
X96588804Y-53971954D02*
X96587649Y-53982350D01*
X91812640Y-55594115D02*
X91687270Y-55634683D01*
X95449549Y-54190628D02*
X95441873Y-54207352D01*
X96000319Y-53531391D02*
X96054485Y-53545828D01*
X94767068Y-56684933D02*
X94763544Y-56463663D01*
X95953138Y-53040189D02*
X95962319Y-53324196D01*
X95009244Y-55564756D02*
X95000025Y-55565316D01*
X95299865Y-53408810D02*
X95256969Y-53279275D01*
X95392044Y-56312117D02*
X95393119Y-56317303D01*
X95573969Y-57371093D02*
X95661393Y-57303842D01*
X92293927Y-56857608D02*
X92316336Y-56885012D01*
X92692401Y-56480161D02*
X92576553Y-56407511D01*
X96132457Y-53524160D02*
X96055637Y-53255219D01*
X91213893Y-57272727D02*
X91281547Y-57188360D01*
X96482516Y-54263287D02*
X96466451Y-54243353D01*
X95806671Y-55035664D02*
X95811316Y-54607557D01*
X96001470Y-53847331D02*
X96004351Y-53841882D01*
X91844684Y-56888333D02*
X91843377Y-56881994D01*
X95127296Y-56015292D02*
X95215813Y-56039514D01*
X95056509Y-53936322D02*
X95051854Y-53801485D01*
X94471050Y-57444689D02*
X94423983Y-57302371D01*
X96586316Y-53645707D02*
X96538489Y-53633434D01*
X91491949Y-55762939D02*
X91431218Y-55836331D01*
X96229376Y-54232498D02*
X96222743Y-54246328D01*
X91146736Y-56405575D02*
X91197316Y-56348951D01*
X91687270Y-55634683D02*
X91580641Y-55690846D01*
X91883798Y-56091441D02*
X91891312Y-56049569D01*
X95893097Y-52463520D02*
X95806393Y-51938650D01*
X93909742Y-57441513D02*
X93911047Y-57446699D01*
X94204986Y-56385299D02*
X94198581Y-56582354D01*
X95021867Y-53988750D02*
X95003045Y-53992741D01*
X95500156Y-54106878D02*
X95799020Y-54065098D01*
X96479031Y-55095430D02*
X96488667Y-55094281D01*
X95051854Y-53801485D02*
X95052764Y-53666648D01*
X95050186Y-54034020D02*
X95634991Y-53947948D01*
X95173200Y-55155454D02*
X95184617Y-55153846D01*
X95242437Y-54215800D02*
X95231443Y-54249785D01*
X96447408Y-53171517D02*
X96448598Y-53180504D01*
X92116595Y-57072437D02*
X92025650Y-57064476D01*
X95223624Y-57490714D02*
X95320106Y-57474542D01*
X94871845Y-55582575D02*
X94750511Y-55618132D01*
X96332854Y-54654272D02*
X96327613Y-54232804D01*
X96461953Y-53601032D02*
X96461278Y-53612673D01*
X95805837Y-57131198D02*
X95859446Y-57026707D01*
X92254876Y-57043481D02*
X92194707Y-57063652D01*
X91090679Y-56455802D02*
X91146736Y-56405575D01*
X95023196Y-53974284D02*
X95024227Y-53981005D01*
X92666528Y-57446700D02*
X92942438Y-57446700D01*
X95149597Y-53612524D02*
X95070492Y-53624373D01*
X96002715Y-54529425D02*
X96001810Y-53898350D01*
X90829308Y-55625995D02*
X90696256Y-55614804D01*
X95184617Y-55153846D02*
X95189124Y-55142968D01*
X95999610Y-53639930D02*
X96000319Y-53531391D01*
X96328564Y-55068580D02*
X96333484Y-55064545D01*
X96586337Y-53933762D02*
X96292668Y-53868649D01*
X93569696Y-55612039D02*
X93282598Y-55612005D01*
X96622676Y-53969551D02*
X96680725Y-53978062D01*
X95052861Y-53984039D02*
X95051850Y-53976957D01*
X96307258Y-53332130D02*
X96293292Y-53337045D01*
X94863820Y-56954460D02*
X94835125Y-56915545D01*
X95915210Y-56234292D02*
X95885625Y-56111831D01*
X95742853Y-54125372D02*
X95714558Y-54123914D01*
X90675759Y-56326169D02*
X90624321Y-56341196D01*
X91284842Y-56150189D02*
X91289431Y-56069631D01*
X96146468Y-54182375D02*
X96129559Y-54167450D01*
X95188271Y-53075492D02*
X95176926Y-53073838D01*
X95240958Y-53233353D02*
X95190160Y-53080867D01*
X95964588Y-55745334D02*
X95962858Y-56285714D01*
X96478900Y-53228256D02*
X96534461Y-53428613D01*
X94962524Y-53952440D02*
X94955119Y-53960609D01*
X95528257Y-53557077D02*
X95360779Y-53581363D01*
X96461278Y-53612673D02*
X96391554Y-53594183D01*
X94952917Y-56042266D02*
X95012723Y-56019577D01*
X95240759Y-55129490D02*
X95240758Y-55129491D01*
X95667261Y-55059649D02*
X95737524Y-55049489D01*
X96633630Y-53702540D02*
X96654222Y-53703375D01*
X95252237Y-55131166D02*
X95322266Y-55121144D01*
D12*
X97663000Y-54840142D02*
X97710619Y-54887761D01*
X97663000Y-54935380D01*
X97615380Y-54887761D01*
X97663000Y-54840142D01*
X97663000Y-54935380D01*
X98933000Y-80367142D02*
X98980619Y-80414761D01*
X98933000Y-80462380D01*
X98885380Y-80414761D01*
X98933000Y-80367142D01*
X98933000Y-80462380D01*
X85371571Y-54852857D02*
X85457285Y-54881428D01*
X85600142Y-54881428D01*
X85657285Y-54852857D01*
X85685857Y-54824285D01*
X85714428Y-54767142D01*
X85714428Y-54710000D01*
X85685857Y-54652857D01*
X85657285Y-54624285D01*
X85600142Y-54595714D01*
X85485857Y-54567142D01*
X85428714Y-54538571D01*
X85400142Y-54510000D01*
X85371571Y-54452857D01*
X85371571Y-54395714D01*
X85400142Y-54338571D01*
X85428714Y-54310000D01*
X85485857Y-54281428D01*
X85628714Y-54281428D01*
X85714428Y-54310000D01*
X86228714Y-54481428D02*
X86228714Y-54881428D01*
X85971571Y-54481428D02*
X85971571Y-54795714D01*
X86000142Y-54852857D01*
X86057285Y-54881428D01*
X86143000Y-54881428D01*
X86200142Y-54852857D01*
X86228714Y-54824285D01*
X86600142Y-54881428D02*
X86543000Y-54852857D01*
X86514428Y-54795714D01*
X86514428Y-54281428D01*
X87085857Y-54481428D02*
X87085857Y-54881428D01*
X86828714Y-54481428D02*
X86828714Y-54795714D01*
X86857285Y-54852857D01*
X86914428Y-54881428D01*
X87000142Y-54881428D01*
X87057285Y-54852857D01*
X87085857Y-54824285D01*
X87371571Y-54652857D02*
X87828714Y-54652857D01*
X88085857Y-54710000D02*
X88371571Y-54710000D01*
X88028714Y-54881428D02*
X88228714Y-54281428D01*
X88428714Y-54881428D01*
X88628714Y-54881428D02*
X88628714Y-54281428D01*
X88771571Y-54281428D01*
X88857285Y-54310000D01*
X88914428Y-54367142D01*
X88943000Y-54424285D01*
X88971571Y-54538571D01*
X88971571Y-54624285D01*
X88943000Y-54738571D01*
X88914428Y-54795714D01*
X88857285Y-54852857D01*
X88771571Y-54881428D01*
X88628714Y-54881428D01*
X89200142Y-54852857D02*
X89285857Y-54881428D01*
X89428714Y-54881428D01*
X89485857Y-54852857D01*
X89514428Y-54824285D01*
X89543000Y-54767142D01*
X89543000Y-54710000D01*
X89514428Y-54652857D01*
X89485857Y-54624285D01*
X89428714Y-54595714D01*
X89314428Y-54567142D01*
X89257285Y-54538571D01*
X89228714Y-54510000D01*
X89200142Y-54452857D01*
X89200142Y-54395714D01*
X89228714Y-54338571D01*
X89257285Y-54310000D01*
X89314428Y-54281428D01*
X89457285Y-54281428D01*
X89543000Y-54310000D01*
X90114428Y-54881428D02*
X89771571Y-54881428D01*
X89943000Y-54881428D02*
X89943000Y-54281428D01*
X89885857Y-54367142D01*
X89828714Y-54424285D01*
X89771571Y-54452857D01*
X90343000Y-54338571D02*
X90371571Y-54310000D01*
X90428714Y-54281428D01*
X90571571Y-54281428D01*
X90628714Y-54310000D01*
X90657285Y-54338571D01*
X90685857Y-54395714D01*
X90685857Y-54452857D01*
X90657285Y-54538571D01*
X90314428Y-54881428D01*
X90685857Y-54881428D01*
X90971571Y-54881428D02*
X91085857Y-54881428D01*
X91143000Y-54852857D01*
X91171571Y-54824285D01*
X91228714Y-54738571D01*
X91257285Y-54624285D01*
X91257285Y-54395714D01*
X91228714Y-54338571D01*
X91200142Y-54310000D01*
X91143000Y-54281428D01*
X91028714Y-54281428D01*
X90971571Y-54310000D01*
X90943000Y-54338571D01*
X90914428Y-54395714D01*
X90914428Y-54538571D01*
X90943000Y-54595714D01*
X90971571Y-54624285D01*
X91028714Y-54652857D01*
X91143000Y-54652857D01*
X91200142Y-54624285D01*
X91228714Y-54595714D01*
X91257285Y-54538571D01*
X91543000Y-54881428D02*
X91657285Y-54881428D01*
X91714428Y-54852857D01*
X91743000Y-54824285D01*
X91800142Y-54738571D01*
X91828714Y-54624285D01*
X91828714Y-54395714D01*
X91800142Y-54338571D01*
X91771571Y-54310000D01*
X91714428Y-54281428D01*
X91600142Y-54281428D01*
X91543000Y-54310000D01*
X91514428Y-54338571D01*
X91485857Y-54395714D01*
X91485857Y-54538571D01*
X91514428Y-54595714D01*
X91543000Y-54624285D01*
X91600142Y-54652857D01*
X91714428Y-54652857D01*
X91771571Y-54624285D01*
X91800142Y-54595714D01*
X91828714Y-54538571D01*
X92885857Y-54881428D02*
X92685857Y-54595714D01*
X92543000Y-54881428D02*
X92543000Y-54281428D01*
X92771571Y-54281428D01*
X92828714Y-54310000D01*
X92857285Y-54338571D01*
X92885857Y-54395714D01*
X92885857Y-54481428D01*
X92857285Y-54538571D01*
X92828714Y-54567142D01*
X92771571Y-54595714D01*
X92543000Y-54595714D01*
X93371571Y-54852857D02*
X93314428Y-54881428D01*
X93200142Y-54881428D01*
X93143000Y-54852857D01*
X93114428Y-54795714D01*
X93114428Y-54567142D01*
X93143000Y-54510000D01*
X93200142Y-54481428D01*
X93314428Y-54481428D01*
X93371571Y-54510000D01*
X93400142Y-54567142D01*
X93400142Y-54624285D01*
X93114428Y-54681428D01*
X93600142Y-54481428D02*
X93743000Y-54881428D01*
X93885857Y-54481428D01*
X94114428Y-54824285D02*
X94143000Y-54852857D01*
X94114428Y-54881428D01*
X94085857Y-54852857D01*
X94114428Y-54824285D01*
X94114428Y-54881428D01*
X94371571Y-54338571D02*
X94400142Y-54310000D01*
X94457285Y-54281428D01*
X94600142Y-54281428D01*
X94657285Y-54310000D01*
X94685857Y-54338571D01*
X94714428Y-54395714D01*
X94714428Y-54452857D01*
X94685857Y-54538571D01*
X94343000Y-54881428D01*
X94714428Y-54881428D01*
X93289428Y-84454952D02*
X93289428Y-83693047D01*
X85698571Y-52179142D02*
X85784285Y-52207714D01*
X85812857Y-52236285D01*
X85841428Y-52293428D01*
X85841428Y-52379142D01*
X85812857Y-52436285D01*
X85784285Y-52464857D01*
X85727142Y-52493428D01*
X85498571Y-52493428D01*
X85498571Y-51893428D01*
X85698571Y-51893428D01*
X85755714Y-51922000D01*
X85784285Y-51950571D01*
X85812857Y-52007714D01*
X85812857Y-52064857D01*
X85784285Y-52122000D01*
X85755714Y-52150571D01*
X85698571Y-52179142D01*
X85498571Y-52179142D01*
X86327142Y-52464857D02*
X86270000Y-52493428D01*
X86155714Y-52493428D01*
X86098571Y-52464857D01*
X86070000Y-52407714D01*
X86070000Y-52179142D01*
X86098571Y-52122000D01*
X86155714Y-52093428D01*
X86270000Y-52093428D01*
X86327142Y-52122000D01*
X86355714Y-52179142D01*
X86355714Y-52236285D01*
X86070000Y-52293428D01*
X86612857Y-52493428D02*
X86612857Y-52093428D01*
X86612857Y-52207714D02*
X86641428Y-52150571D01*
X86670000Y-52122000D01*
X86727142Y-52093428D01*
X86784285Y-52093428D01*
X86984285Y-52493428D02*
X86984285Y-51893428D01*
X87041428Y-52264857D02*
X87212857Y-52493428D01*
X87212857Y-52093428D02*
X86984285Y-52322000D01*
X87698571Y-52464857D02*
X87641428Y-52493428D01*
X87527142Y-52493428D01*
X87470000Y-52464857D01*
X87441428Y-52407714D01*
X87441428Y-52179142D01*
X87470000Y-52122000D01*
X87527142Y-52093428D01*
X87641428Y-52093428D01*
X87698571Y-52122000D01*
X87727142Y-52179142D01*
X87727142Y-52236285D01*
X87441428Y-52293428D01*
X88070000Y-52493428D02*
X88012857Y-52464857D01*
X87984285Y-52407714D01*
X87984285Y-51893428D01*
X88527142Y-52464857D02*
X88470000Y-52493428D01*
X88355714Y-52493428D01*
X88298571Y-52464857D01*
X88270000Y-52407714D01*
X88270000Y-52179142D01*
X88298571Y-52122000D01*
X88355714Y-52093428D01*
X88470000Y-52093428D01*
X88527142Y-52122000D01*
X88555714Y-52179142D01*
X88555714Y-52236285D01*
X88270000Y-52293428D01*
X88755714Y-52093428D02*
X88898571Y-52493428D01*
X89041428Y-52093428D02*
X88898571Y-52493428D01*
X88841428Y-52636285D01*
X88812857Y-52664857D01*
X88755714Y-52693428D01*
X89698571Y-52322000D02*
X89984285Y-52322000D01*
X89641428Y-52493428D02*
X89841428Y-51893428D01*
X90041428Y-52493428D01*
X90498571Y-52093428D02*
X90498571Y-52493428D01*
X90241428Y-52093428D02*
X90241428Y-52407714D01*
X90270000Y-52464857D01*
X90327142Y-52493428D01*
X90412857Y-52493428D01*
X90470000Y-52464857D01*
X90498571Y-52436285D01*
X90698571Y-52093428D02*
X90927142Y-52093428D01*
X90784285Y-51893428D02*
X90784285Y-52407714D01*
X90812857Y-52464857D01*
X90870000Y-52493428D01*
X90927142Y-52493428D01*
X91212857Y-52493428D02*
X91155714Y-52464857D01*
X91127142Y-52436285D01*
X91098571Y-52379142D01*
X91098571Y-52207714D01*
X91127142Y-52150571D01*
X91155714Y-52122000D01*
X91212857Y-52093428D01*
X91298571Y-52093428D01*
X91355714Y-52122000D01*
X91384285Y-52150571D01*
X91412857Y-52207714D01*
X91412857Y-52379142D01*
X91384285Y-52436285D01*
X91355714Y-52464857D01*
X91298571Y-52493428D01*
X91212857Y-52493428D01*
X91670000Y-52093428D02*
X91670000Y-52493428D01*
X91670000Y-52150571D02*
X91698571Y-52122000D01*
X91755714Y-52093428D01*
X91841428Y-52093428D01*
X91898571Y-52122000D01*
X91927142Y-52179142D01*
X91927142Y-52493428D01*
X92298571Y-52493428D02*
X92241428Y-52464857D01*
X92212857Y-52436285D01*
X92184285Y-52379142D01*
X92184285Y-52207714D01*
X92212857Y-52150571D01*
X92241428Y-52122000D01*
X92298571Y-52093428D01*
X92384285Y-52093428D01*
X92441428Y-52122000D01*
X92470000Y-52150571D01*
X92498571Y-52207714D01*
X92498571Y-52379142D01*
X92470000Y-52436285D01*
X92441428Y-52464857D01*
X92384285Y-52493428D01*
X92298571Y-52493428D01*
X92755714Y-52493428D02*
X92755714Y-52093428D01*
X92755714Y-52150571D02*
X92784285Y-52122000D01*
X92841428Y-52093428D01*
X92927142Y-52093428D01*
X92984285Y-52122000D01*
X93012857Y-52179142D01*
X93012857Y-52493428D01*
X93012857Y-52179142D02*
X93041428Y-52122000D01*
X93098571Y-52093428D01*
X93184285Y-52093428D01*
X93241428Y-52122000D01*
X93270000Y-52179142D01*
X93270000Y-52493428D01*
X93641428Y-52493428D02*
X93584285Y-52464857D01*
X93555714Y-52436285D01*
X93527142Y-52379142D01*
X93527142Y-52207714D01*
X93555714Y-52150571D01*
X93584285Y-52122000D01*
X93641428Y-52093428D01*
X93727142Y-52093428D01*
X93784285Y-52122000D01*
X93812857Y-52150571D01*
X93841428Y-52207714D01*
X93841428Y-52379142D01*
X93812857Y-52436285D01*
X93784285Y-52464857D01*
X93727142Y-52493428D01*
X93641428Y-52493428D01*
X94355714Y-52093428D02*
X94355714Y-52493428D01*
X94098571Y-52093428D02*
X94098571Y-52407714D01*
X94127142Y-52464857D01*
X94184285Y-52493428D01*
X94270000Y-52493428D01*
X94327142Y-52464857D01*
X94355714Y-52436285D01*
X94612857Y-52464857D02*
X94670000Y-52493428D01*
X94784285Y-52493428D01*
X94841428Y-52464857D01*
X94870000Y-52407714D01*
X94870000Y-52379142D01*
X94841428Y-52322000D01*
X94784285Y-52293428D01*
X94698571Y-52293428D01*
X94641428Y-52264857D01*
X94612857Y-52207714D01*
X94612857Y-52179142D01*
X94641428Y-52122000D01*
X94698571Y-52093428D01*
X94784285Y-52093428D01*
X94841428Y-52122000D01*
X86312857Y-53459428D02*
X86312857Y-52859428D01*
X86512857Y-53288000D01*
X86712857Y-52859428D01*
X86712857Y-53459428D01*
X86998571Y-53459428D02*
X86998571Y-53059428D01*
X86998571Y-52859428D02*
X86970000Y-52888000D01*
X86998571Y-52916571D01*
X87027142Y-52888000D01*
X86998571Y-52859428D01*
X86998571Y-52916571D01*
X87541428Y-53430857D02*
X87484285Y-53459428D01*
X87370000Y-53459428D01*
X87312857Y-53430857D01*
X87284285Y-53402285D01*
X87255714Y-53345142D01*
X87255714Y-53173714D01*
X87284285Y-53116571D01*
X87312857Y-53088000D01*
X87370000Y-53059428D01*
X87484285Y-53059428D01*
X87541428Y-53088000D01*
X87798571Y-53459428D02*
X87798571Y-53059428D01*
X87798571Y-53173714D02*
X87827142Y-53116571D01*
X87855714Y-53088000D01*
X87912857Y-53059428D01*
X87970000Y-53059428D01*
X88255714Y-53459428D02*
X88198571Y-53430857D01*
X88170000Y-53402285D01*
X88141428Y-53345142D01*
X88141428Y-53173714D01*
X88170000Y-53116571D01*
X88198571Y-53088000D01*
X88255714Y-53059428D01*
X88341428Y-53059428D01*
X88398571Y-53088000D01*
X88427142Y-53116571D01*
X88455714Y-53173714D01*
X88455714Y-53345142D01*
X88427142Y-53402285D01*
X88398571Y-53430857D01*
X88341428Y-53459428D01*
X88255714Y-53459428D01*
X88684285Y-53430857D02*
X88741428Y-53459428D01*
X88855714Y-53459428D01*
X88912857Y-53430857D01*
X88941428Y-53373714D01*
X88941428Y-53345142D01*
X88912857Y-53288000D01*
X88855714Y-53259428D01*
X88770000Y-53259428D01*
X88712857Y-53230857D01*
X88684285Y-53173714D01*
X88684285Y-53145142D01*
X88712857Y-53088000D01*
X88770000Y-53059428D01*
X88855714Y-53059428D01*
X88912857Y-53088000D01*
X89141428Y-53059428D02*
X89284285Y-53459428D01*
X89427142Y-53059428D02*
X89284285Y-53459428D01*
X89227142Y-53602285D01*
X89198571Y-53630857D01*
X89141428Y-53659428D01*
X89627142Y-53430857D02*
X89684285Y-53459428D01*
X89798571Y-53459428D01*
X89855714Y-53430857D01*
X89884285Y-53373714D01*
X89884285Y-53345142D01*
X89855714Y-53288000D01*
X89798571Y-53259428D01*
X89712857Y-53259428D01*
X89655714Y-53230857D01*
X89627142Y-53173714D01*
X89627142Y-53145142D01*
X89655714Y-53088000D01*
X89712857Y-53059428D01*
X89798571Y-53059428D01*
X89855714Y-53088000D01*
X90055714Y-53059428D02*
X90284285Y-53059428D01*
X90141428Y-52859428D02*
X90141428Y-53373714D01*
X90170000Y-53430857D01*
X90227142Y-53459428D01*
X90284285Y-53459428D01*
X90712857Y-53430857D02*
X90655714Y-53459428D01*
X90541428Y-53459428D01*
X90484285Y-53430857D01*
X90455714Y-53373714D01*
X90455714Y-53145142D01*
X90484285Y-53088000D01*
X90541428Y-53059428D01*
X90655714Y-53059428D01*
X90712857Y-53088000D01*
X90741428Y-53145142D01*
X90741428Y-53202285D01*
X90455714Y-53259428D01*
X90998571Y-53459428D02*
X90998571Y-53059428D01*
X90998571Y-53116571D02*
X91027142Y-53088000D01*
X91084285Y-53059428D01*
X91170000Y-53059428D01*
X91227142Y-53088000D01*
X91255714Y-53145142D01*
X91255714Y-53459428D01*
X91255714Y-53145142D02*
X91284285Y-53088000D01*
X91341428Y-53059428D01*
X91427142Y-53059428D01*
X91484285Y-53088000D01*
X91512857Y-53145142D01*
X91512857Y-53459428D01*
X91770000Y-53430857D02*
X91827142Y-53459428D01*
X91941428Y-53459428D01*
X91998571Y-53430857D01*
X92027142Y-53373714D01*
X92027142Y-53345142D01*
X91998571Y-53288000D01*
X91941428Y-53259428D01*
X91855714Y-53259428D01*
X91798571Y-53230857D01*
X91770000Y-53173714D01*
X91770000Y-53145142D01*
X91798571Y-53088000D01*
X91855714Y-53059428D01*
X91941428Y-53059428D01*
X91998571Y-53088000D01*
X93027142Y-53459428D02*
X92741428Y-53459428D01*
X92741428Y-52859428D01*
X93484285Y-53459428D02*
X93484285Y-53145142D01*
X93455714Y-53088000D01*
X93398571Y-53059428D01*
X93284285Y-53059428D01*
X93227142Y-53088000D01*
X93484285Y-53430857D02*
X93427142Y-53459428D01*
X93284285Y-53459428D01*
X93227142Y-53430857D01*
X93198571Y-53373714D01*
X93198571Y-53316571D01*
X93227142Y-53259428D01*
X93284285Y-53230857D01*
X93427142Y-53230857D01*
X93484285Y-53202285D01*
X93770000Y-53459428D02*
X93770000Y-52859428D01*
X93770000Y-53088000D02*
X93827142Y-53059428D01*
X93941428Y-53059428D01*
X93998571Y-53088000D01*
X94027142Y-53116571D01*
X94055714Y-53173714D01*
X94055714Y-53345142D01*
X94027142Y-53402285D01*
X93998571Y-53430857D01*
X93941428Y-53459428D01*
X93827142Y-53459428D01*
X93770000Y-53430857D01*
X92837047Y-87066428D02*
X93598952Y-87066428D01*
X93218000Y-87447380D02*
X93218000Y-86685476D01*
%TO.C,D1*%
X108210047Y-83414809D02*
X108210047Y-82906809D01*
X108331000Y-82906809D01*
X108403571Y-82931000D01*
X108451952Y-82979380D01*
X108476142Y-83027761D01*
X108500333Y-83124523D01*
X108500333Y-83197095D01*
X108476142Y-83293857D01*
X108451952Y-83342238D01*
X108403571Y-83390619D01*
X108331000Y-83414809D01*
X108210047Y-83414809D01*
X108984142Y-83414809D02*
X108693857Y-83414809D01*
X108839000Y-83414809D02*
X108839000Y-82906809D01*
X108790619Y-82979380D01*
X108742238Y-83027761D01*
X108693857Y-83051952D01*
%TO.C,C18*%
X113719428Y-75764571D02*
X113743619Y-75788761D01*
X113767809Y-75861333D01*
X113767809Y-75909714D01*
X113743619Y-75982285D01*
X113695238Y-76030666D01*
X113646857Y-76054857D01*
X113550095Y-76079047D01*
X113477523Y-76079047D01*
X113380761Y-76054857D01*
X113332380Y-76030666D01*
X113284000Y-75982285D01*
X113259809Y-75909714D01*
X113259809Y-75861333D01*
X113284000Y-75788761D01*
X113308190Y-75764571D01*
X113767809Y-75280761D02*
X113767809Y-75571047D01*
X113767809Y-75425904D02*
X113259809Y-75425904D01*
X113332380Y-75474285D01*
X113380761Y-75522666D01*
X113404952Y-75571047D01*
X113477523Y-74990476D02*
X113453333Y-75038857D01*
X113429142Y-75063047D01*
X113380761Y-75087238D01*
X113356571Y-75087238D01*
X113308190Y-75063047D01*
X113284000Y-75038857D01*
X113259809Y-74990476D01*
X113259809Y-74893714D01*
X113284000Y-74845333D01*
X113308190Y-74821142D01*
X113356571Y-74796952D01*
X113380761Y-74796952D01*
X113429142Y-74821142D01*
X113453333Y-74845333D01*
X113477523Y-74893714D01*
X113477523Y-74990476D01*
X113501714Y-75038857D01*
X113525904Y-75063047D01*
X113574285Y-75087238D01*
X113671047Y-75087238D01*
X113719428Y-75063047D01*
X113743619Y-75038857D01*
X113767809Y-74990476D01*
X113767809Y-74893714D01*
X113743619Y-74845333D01*
X113719428Y-74821142D01*
X113671047Y-74796952D01*
X113574285Y-74796952D01*
X113525904Y-74821142D01*
X113501714Y-74845333D01*
X113477523Y-74893714D01*
%TO.C,J11*%
X99918761Y-51410809D02*
X99918761Y-51773666D01*
X99894571Y-51846238D01*
X99846190Y-51894619D01*
X99773619Y-51918809D01*
X99725238Y-51918809D01*
X100426761Y-51918809D02*
X100136476Y-51918809D01*
X100281619Y-51918809D02*
X100281619Y-51410809D01*
X100233238Y-51483380D01*
X100184857Y-51531761D01*
X100136476Y-51555952D01*
X100910571Y-51918809D02*
X100620285Y-51918809D01*
X100765428Y-51918809D02*
X100765428Y-51410809D01*
X100717047Y-51483380D01*
X100668666Y-51531761D01*
X100620285Y-51555952D01*
D13*
%TO.C,C5*%
X104986666Y-81243714D02*
X104974571Y-81255809D01*
X104938285Y-81267904D01*
X104914095Y-81267904D01*
X104877809Y-81255809D01*
X104853619Y-81231619D01*
X104841523Y-81207428D01*
X104829428Y-81159047D01*
X104829428Y-81122761D01*
X104841523Y-81074380D01*
X104853619Y-81050190D01*
X104877809Y-81026000D01*
X104914095Y-81013904D01*
X104938285Y-81013904D01*
X104974571Y-81026000D01*
X104986666Y-81038095D01*
X105216476Y-81013904D02*
X105095523Y-81013904D01*
X105083428Y-81134857D01*
X105095523Y-81122761D01*
X105119714Y-81110666D01*
X105180190Y-81110666D01*
X105204380Y-81122761D01*
X105216476Y-81134857D01*
X105228571Y-81159047D01*
X105228571Y-81219523D01*
X105216476Y-81243714D01*
X105204380Y-81255809D01*
X105180190Y-81267904D01*
X105119714Y-81267904D01*
X105095523Y-81255809D01*
X105083428Y-81243714D01*
D12*
%TO.C,C14*%
X96193428Y-79447571D02*
X96217619Y-79471761D01*
X96241809Y-79544333D01*
X96241809Y-79592714D01*
X96217619Y-79665285D01*
X96169238Y-79713666D01*
X96120857Y-79737857D01*
X96024095Y-79762047D01*
X95951523Y-79762047D01*
X95854761Y-79737857D01*
X95806380Y-79713666D01*
X95758000Y-79665285D01*
X95733809Y-79592714D01*
X95733809Y-79544333D01*
X95758000Y-79471761D01*
X95782190Y-79447571D01*
X96241809Y-78963761D02*
X96241809Y-79254047D01*
X96241809Y-79108904D02*
X95733809Y-79108904D01*
X95806380Y-79157285D01*
X95854761Y-79205666D01*
X95878952Y-79254047D01*
X95903142Y-78528333D02*
X96241809Y-78528333D01*
X95709619Y-78649285D02*
X96072476Y-78770238D01*
X96072476Y-78455761D01*
%TO.C,TP1*%
X112261952Y-82906809D02*
X112552238Y-82906809D01*
X112407095Y-83414809D02*
X112407095Y-82906809D01*
X112721571Y-83414809D02*
X112721571Y-82906809D01*
X112915095Y-82906809D01*
X112963476Y-82931000D01*
X112987666Y-82955190D01*
X113011857Y-83003571D01*
X113011857Y-83076142D01*
X112987666Y-83124523D01*
X112963476Y-83148714D01*
X112915095Y-83172904D01*
X112721571Y-83172904D01*
X113495666Y-83414809D02*
X113205380Y-83414809D01*
X113350523Y-83414809D02*
X113350523Y-82906809D01*
X113302142Y-82979380D01*
X113253761Y-83027761D01*
X113205380Y-83051952D01*
%TO.C,C3*%
X95419333Y-64062428D02*
X95395142Y-64086619D01*
X95322571Y-64110809D01*
X95274190Y-64110809D01*
X95201619Y-64086619D01*
X95153238Y-64038238D01*
X95129047Y-63989857D01*
X95104857Y-63893095D01*
X95104857Y-63820523D01*
X95129047Y-63723761D01*
X95153238Y-63675380D01*
X95201619Y-63627000D01*
X95274190Y-63602809D01*
X95322571Y-63602809D01*
X95395142Y-63627000D01*
X95419333Y-63651190D01*
X95588666Y-63602809D02*
X95903142Y-63602809D01*
X95733809Y-63796333D01*
X95806380Y-63796333D01*
X95854761Y-63820523D01*
X95878952Y-63844714D01*
X95903142Y-63893095D01*
X95903142Y-64014047D01*
X95878952Y-64062428D01*
X95854761Y-64086619D01*
X95806380Y-64110809D01*
X95661238Y-64110809D01*
X95612857Y-64086619D01*
X95588666Y-64062428D01*
%TO.C,C6*%
X108246333Y-80953428D02*
X108222142Y-80977619D01*
X108149571Y-81001809D01*
X108101190Y-81001809D01*
X108028619Y-80977619D01*
X107980238Y-80929238D01*
X107956047Y-80880857D01*
X107931857Y-80784095D01*
X107931857Y-80711523D01*
X107956047Y-80614761D01*
X107980238Y-80566380D01*
X108028619Y-80518000D01*
X108101190Y-80493809D01*
X108149571Y-80493809D01*
X108222142Y-80518000D01*
X108246333Y-80542190D01*
X108681761Y-80493809D02*
X108585000Y-80493809D01*
X108536619Y-80518000D01*
X108512428Y-80542190D01*
X108464047Y-80614761D01*
X108439857Y-80711523D01*
X108439857Y-80905047D01*
X108464047Y-80953428D01*
X108488238Y-80977619D01*
X108536619Y-81001809D01*
X108633380Y-81001809D01*
X108681761Y-80977619D01*
X108705952Y-80953428D01*
X108730142Y-80905047D01*
X108730142Y-80784095D01*
X108705952Y-80735714D01*
X108681761Y-80711523D01*
X108633380Y-80687333D01*
X108536619Y-80687333D01*
X108488238Y-80711523D01*
X108464047Y-80735714D01*
X108439857Y-80784095D01*
%TO.C,C10*%
X93399428Y-68525571D02*
X93423619Y-68549761D01*
X93447809Y-68622333D01*
X93447809Y-68670714D01*
X93423619Y-68743285D01*
X93375238Y-68791666D01*
X93326857Y-68815857D01*
X93230095Y-68840047D01*
X93157523Y-68840047D01*
X93060761Y-68815857D01*
X93012380Y-68791666D01*
X92964000Y-68743285D01*
X92939809Y-68670714D01*
X92939809Y-68622333D01*
X92964000Y-68549761D01*
X92988190Y-68525571D01*
X93447809Y-68041761D02*
X93447809Y-68332047D01*
X93447809Y-68186904D02*
X92939809Y-68186904D01*
X93012380Y-68235285D01*
X93060761Y-68283666D01*
X93084952Y-68332047D01*
X92939809Y-67727285D02*
X92939809Y-67678904D01*
X92964000Y-67630523D01*
X92988190Y-67606333D01*
X93036571Y-67582142D01*
X93133333Y-67557952D01*
X93254285Y-67557952D01*
X93351047Y-67582142D01*
X93399428Y-67606333D01*
X93423619Y-67630523D01*
X93447809Y-67678904D01*
X93447809Y-67727285D01*
X93423619Y-67775666D01*
X93399428Y-67799857D01*
X93351047Y-67824047D01*
X93254285Y-67848238D01*
X93133333Y-67848238D01*
X93036571Y-67824047D01*
X92988190Y-67799857D01*
X92964000Y-67775666D01*
X92939809Y-67727285D01*
%TO.C,J8*%
X97620666Y-52807809D02*
X97620666Y-53170666D01*
X97596476Y-53243238D01*
X97548095Y-53291619D01*
X97475523Y-53315809D01*
X97427142Y-53315809D01*
X97935142Y-53025523D02*
X97886761Y-53001333D01*
X97862571Y-52977142D01*
X97838380Y-52928761D01*
X97838380Y-52904571D01*
X97862571Y-52856190D01*
X97886761Y-52832000D01*
X97935142Y-52807809D01*
X98031904Y-52807809D01*
X98080285Y-52832000D01*
X98104476Y-52856190D01*
X98128666Y-52904571D01*
X98128666Y-52928761D01*
X98104476Y-52977142D01*
X98080285Y-53001333D01*
X98031904Y-53025523D01*
X97935142Y-53025523D01*
X97886761Y-53049714D01*
X97862571Y-53073904D01*
X97838380Y-53122285D01*
X97838380Y-53219047D01*
X97862571Y-53267428D01*
X97886761Y-53291619D01*
X97935142Y-53315809D01*
X98031904Y-53315809D01*
X98080285Y-53291619D01*
X98104476Y-53267428D01*
X98128666Y-53219047D01*
X98128666Y-53122285D01*
X98104476Y-53073904D01*
X98080285Y-53049714D01*
X98031904Y-53025523D01*
%TO.C,C30*%
X93780428Y-66366571D02*
X93804619Y-66390761D01*
X93828809Y-66463333D01*
X93828809Y-66511714D01*
X93804619Y-66584285D01*
X93756238Y-66632666D01*
X93707857Y-66656857D01*
X93611095Y-66681047D01*
X93538523Y-66681047D01*
X93441761Y-66656857D01*
X93393380Y-66632666D01*
X93345000Y-66584285D01*
X93320809Y-66511714D01*
X93320809Y-66463333D01*
X93345000Y-66390761D01*
X93369190Y-66366571D01*
X93320809Y-66197238D02*
X93320809Y-65882761D01*
X93514333Y-66052095D01*
X93514333Y-65979523D01*
X93538523Y-65931142D01*
X93562714Y-65906952D01*
X93611095Y-65882761D01*
X93732047Y-65882761D01*
X93780428Y-65906952D01*
X93804619Y-65931142D01*
X93828809Y-65979523D01*
X93828809Y-66124666D01*
X93804619Y-66173047D01*
X93780428Y-66197238D01*
X93320809Y-65568285D02*
X93320809Y-65519904D01*
X93345000Y-65471523D01*
X93369190Y-65447333D01*
X93417571Y-65423142D01*
X93514333Y-65398952D01*
X93635285Y-65398952D01*
X93732047Y-65423142D01*
X93780428Y-65447333D01*
X93804619Y-65471523D01*
X93828809Y-65519904D01*
X93828809Y-65568285D01*
X93804619Y-65616666D01*
X93780428Y-65640857D01*
X93732047Y-65665047D01*
X93635285Y-65689238D01*
X93514333Y-65689238D01*
X93417571Y-65665047D01*
X93369190Y-65640857D01*
X93345000Y-65616666D01*
X93320809Y-65568285D01*
%TO.C,R10*%
X108512428Y-84303809D02*
X108343095Y-84061904D01*
X108222142Y-84303809D02*
X108222142Y-83795809D01*
X108415666Y-83795809D01*
X108464047Y-83820000D01*
X108488238Y-83844190D01*
X108512428Y-83892571D01*
X108512428Y-83965142D01*
X108488238Y-84013523D01*
X108464047Y-84037714D01*
X108415666Y-84061904D01*
X108222142Y-84061904D01*
X108996238Y-84303809D02*
X108705952Y-84303809D01*
X108851095Y-84303809D02*
X108851095Y-83795809D01*
X108802714Y-83868380D01*
X108754333Y-83916761D01*
X108705952Y-83940952D01*
X109310714Y-83795809D02*
X109359095Y-83795809D01*
X109407476Y-83820000D01*
X109431666Y-83844190D01*
X109455857Y-83892571D01*
X109480047Y-83989333D01*
X109480047Y-84110285D01*
X109455857Y-84207047D01*
X109431666Y-84255428D01*
X109407476Y-84279619D01*
X109359095Y-84303809D01*
X109310714Y-84303809D01*
X109262333Y-84279619D01*
X109238142Y-84255428D01*
X109213952Y-84207047D01*
X109189761Y-84110285D01*
X109189761Y-83989333D01*
X109213952Y-83892571D01*
X109238142Y-83844190D01*
X109262333Y-83820000D01*
X109310714Y-83795809D01*
D11*
%TO.C,SW1*%
X116482761Y-90263023D02*
X116530380Y-90120166D01*
X116530380Y-89882071D01*
X116482761Y-89786833D01*
X116435142Y-89739214D01*
X116339904Y-89691595D01*
X116244666Y-89691595D01*
X116149428Y-89739214D01*
X116101809Y-89786833D01*
X116054190Y-89882071D01*
X116006571Y-90072547D01*
X115958952Y-90167785D01*
X115911333Y-90215404D01*
X115816095Y-90263023D01*
X115720857Y-90263023D01*
X115625619Y-90215404D01*
X115578000Y-90167785D01*
X115530380Y-90072547D01*
X115530380Y-89834452D01*
X115578000Y-89691595D01*
X115530380Y-89358261D02*
X116530380Y-89120166D01*
X115816095Y-88929690D01*
X116530380Y-88739214D01*
X115530380Y-88501119D01*
X116530380Y-87596357D02*
X116530380Y-88167785D01*
X116530380Y-87882071D02*
X115530380Y-87882071D01*
X115673238Y-87977309D01*
X115768476Y-88072547D01*
X115816095Y-88167785D01*
D12*
%TO.C,J2*%
X85700809Y-85513333D02*
X86063666Y-85513333D01*
X86136238Y-85537523D01*
X86184619Y-85585904D01*
X86208809Y-85658476D01*
X86208809Y-85706857D01*
X85749190Y-85295619D02*
X85725000Y-85271428D01*
X85700809Y-85223047D01*
X85700809Y-85102095D01*
X85725000Y-85053714D01*
X85749190Y-85029523D01*
X85797571Y-85005333D01*
X85845952Y-85005333D01*
X85918523Y-85029523D01*
X86208809Y-85319809D01*
X86208809Y-85005333D01*
%TO.C,J1*%
X115908666Y-69825809D02*
X115908666Y-70188666D01*
X115884476Y-70261238D01*
X115836095Y-70309619D01*
X115763523Y-70333809D01*
X115715142Y-70333809D01*
X116416666Y-70333809D02*
X116126380Y-70333809D01*
X116271523Y-70333809D02*
X116271523Y-69825809D01*
X116223142Y-69898380D01*
X116174761Y-69946761D01*
X116126380Y-69970952D01*
%TO.C,C1*%
X99483333Y-81969428D02*
X99459142Y-81993619D01*
X99386571Y-82017809D01*
X99338190Y-82017809D01*
X99265619Y-81993619D01*
X99217238Y-81945238D01*
X99193047Y-81896857D01*
X99168857Y-81800095D01*
X99168857Y-81727523D01*
X99193047Y-81630761D01*
X99217238Y-81582380D01*
X99265619Y-81534000D01*
X99338190Y-81509809D01*
X99386571Y-81509809D01*
X99459142Y-81534000D01*
X99483333Y-81558190D01*
X99967142Y-82017809D02*
X99676857Y-82017809D01*
X99822000Y-82017809D02*
X99822000Y-81509809D01*
X99773619Y-81582380D01*
X99725238Y-81630761D01*
X99676857Y-81654952D01*
D14*
%TO.C,TP3*%
X109848952Y-67412809D02*
X110139238Y-67412809D01*
X109994095Y-67920809D02*
X109994095Y-67412809D01*
X110308571Y-67920809D02*
X110308571Y-67412809D01*
X110502095Y-67412809D01*
X110550476Y-67437000D01*
X110574666Y-67461190D01*
X110598857Y-67509571D01*
X110598857Y-67582142D01*
X110574666Y-67630523D01*
X110550476Y-67654714D01*
X110502095Y-67678904D01*
X110308571Y-67678904D01*
X110768190Y-67412809D02*
X111082666Y-67412809D01*
X110913333Y-67606333D01*
X110985904Y-67606333D01*
X111034285Y-67630523D01*
X111058476Y-67654714D01*
X111082666Y-67703095D01*
X111082666Y-67824047D01*
X111058476Y-67872428D01*
X111034285Y-67896619D01*
X110985904Y-67920809D01*
X110840761Y-67920809D01*
X110792380Y-67896619D01*
X110768190Y-67872428D01*
D12*
%TO.C,C2*%
X90593333Y-64062428D02*
X90569142Y-64086619D01*
X90496571Y-64110809D01*
X90448190Y-64110809D01*
X90375619Y-64086619D01*
X90327238Y-64038238D01*
X90303047Y-63989857D01*
X90278857Y-63893095D01*
X90278857Y-63820523D01*
X90303047Y-63723761D01*
X90327238Y-63675380D01*
X90375619Y-63627000D01*
X90448190Y-63602809D01*
X90496571Y-63602809D01*
X90569142Y-63627000D01*
X90593333Y-63651190D01*
X90786857Y-63651190D02*
X90811047Y-63627000D01*
X90859428Y-63602809D01*
X90980380Y-63602809D01*
X91028761Y-63627000D01*
X91052952Y-63651190D01*
X91077142Y-63699571D01*
X91077142Y-63747952D01*
X91052952Y-63820523D01*
X90762666Y-64110809D01*
X91077142Y-64110809D01*
%TO.C,C31*%
X96701428Y-65985571D02*
X96725619Y-66009761D01*
X96749809Y-66082333D01*
X96749809Y-66130714D01*
X96725619Y-66203285D01*
X96677238Y-66251666D01*
X96628857Y-66275857D01*
X96532095Y-66300047D01*
X96459523Y-66300047D01*
X96362761Y-66275857D01*
X96314380Y-66251666D01*
X96266000Y-66203285D01*
X96241809Y-66130714D01*
X96241809Y-66082333D01*
X96266000Y-66009761D01*
X96290190Y-65985571D01*
X96241809Y-65816238D02*
X96241809Y-65501761D01*
X96435333Y-65671095D01*
X96435333Y-65598523D01*
X96459523Y-65550142D01*
X96483714Y-65525952D01*
X96532095Y-65501761D01*
X96653047Y-65501761D01*
X96701428Y-65525952D01*
X96725619Y-65550142D01*
X96749809Y-65598523D01*
X96749809Y-65743666D01*
X96725619Y-65792047D01*
X96701428Y-65816238D01*
X96749809Y-65017952D02*
X96749809Y-65308238D01*
X96749809Y-65163095D02*
X96241809Y-65163095D01*
X96314380Y-65211476D01*
X96362761Y-65259857D01*
X96386952Y-65308238D01*
%TO.C,R3*%
X102404333Y-84811809D02*
X102235000Y-84569904D01*
X102114047Y-84811809D02*
X102114047Y-84303809D01*
X102307571Y-84303809D01*
X102355952Y-84328000D01*
X102380142Y-84352190D01*
X102404333Y-84400571D01*
X102404333Y-84473142D01*
X102380142Y-84521523D01*
X102355952Y-84545714D01*
X102307571Y-84569904D01*
X102114047Y-84569904D01*
X102573666Y-84303809D02*
X102888142Y-84303809D01*
X102718809Y-84497333D01*
X102791380Y-84497333D01*
X102839761Y-84521523D01*
X102863952Y-84545714D01*
X102888142Y-84594095D01*
X102888142Y-84715047D01*
X102863952Y-84763428D01*
X102839761Y-84787619D01*
X102791380Y-84811809D01*
X102646238Y-84811809D01*
X102597857Y-84787619D01*
X102573666Y-84763428D01*
%TO.C,J20*%
X95473761Y-66777809D02*
X95473761Y-67140666D01*
X95449571Y-67213238D01*
X95401190Y-67261619D01*
X95328619Y-67285809D01*
X95280238Y-67285809D01*
X95691476Y-66826190D02*
X95715666Y-66802000D01*
X95764047Y-66777809D01*
X95885000Y-66777809D01*
X95933380Y-66802000D01*
X95957571Y-66826190D01*
X95981761Y-66874571D01*
X95981761Y-66922952D01*
X95957571Y-66995523D01*
X95667285Y-67285809D01*
X95981761Y-67285809D01*
X96296238Y-66777809D02*
X96344619Y-66777809D01*
X96393000Y-66802000D01*
X96417190Y-66826190D01*
X96441380Y-66874571D01*
X96465571Y-66971333D01*
X96465571Y-67092285D01*
X96441380Y-67189047D01*
X96417190Y-67237428D01*
X96393000Y-67261619D01*
X96344619Y-67285809D01*
X96296238Y-67285809D01*
X96247857Y-67261619D01*
X96223666Y-67237428D01*
X96199476Y-67189047D01*
X96175285Y-67092285D01*
X96175285Y-66971333D01*
X96199476Y-66874571D01*
X96223666Y-66826190D01*
X96247857Y-66802000D01*
X96296238Y-66777809D01*
%TO.C,AE1*%
X87037333Y-64600666D02*
X87279238Y-64600666D01*
X86988952Y-64745809D02*
X87158285Y-64237809D01*
X87327619Y-64745809D01*
X87496952Y-64479714D02*
X87666285Y-64479714D01*
X87738857Y-64745809D02*
X87496952Y-64745809D01*
X87496952Y-64237809D01*
X87738857Y-64237809D01*
X88222666Y-64745809D02*
X87932380Y-64745809D01*
X88077523Y-64745809D02*
X88077523Y-64237809D01*
X88029142Y-64310380D01*
X87980761Y-64358761D01*
X87932380Y-64382952D01*
%TO.C,U5*%
X108959952Y-52807809D02*
X108959952Y-53219047D01*
X108984142Y-53267428D01*
X109008333Y-53291619D01*
X109056714Y-53315809D01*
X109153476Y-53315809D01*
X109201857Y-53291619D01*
X109226047Y-53267428D01*
X109250238Y-53219047D01*
X109250238Y-52807809D01*
X109734047Y-52807809D02*
X109492142Y-52807809D01*
X109467952Y-53049714D01*
X109492142Y-53025523D01*
X109540523Y-53001333D01*
X109661476Y-53001333D01*
X109709857Y-53025523D01*
X109734047Y-53049714D01*
X109758238Y-53098095D01*
X109758238Y-53219047D01*
X109734047Y-53267428D01*
X109709857Y-53291619D01*
X109661476Y-53315809D01*
X109540523Y-53315809D01*
X109492142Y-53291619D01*
X109467952Y-53267428D01*
%TO.C,C8*%
X86795428Y-73490666D02*
X86819619Y-73514857D01*
X86843809Y-73587428D01*
X86843809Y-73635809D01*
X86819619Y-73708380D01*
X86771238Y-73756761D01*
X86722857Y-73780952D01*
X86626095Y-73805142D01*
X86553523Y-73805142D01*
X86456761Y-73780952D01*
X86408380Y-73756761D01*
X86360000Y-73708380D01*
X86335809Y-73635809D01*
X86335809Y-73587428D01*
X86360000Y-73514857D01*
X86384190Y-73490666D01*
X86553523Y-73200380D02*
X86529333Y-73248761D01*
X86505142Y-73272952D01*
X86456761Y-73297142D01*
X86432571Y-73297142D01*
X86384190Y-73272952D01*
X86360000Y-73248761D01*
X86335809Y-73200380D01*
X86335809Y-73103619D01*
X86360000Y-73055238D01*
X86384190Y-73031047D01*
X86432571Y-73006857D01*
X86456761Y-73006857D01*
X86505142Y-73031047D01*
X86529333Y-73055238D01*
X86553523Y-73103619D01*
X86553523Y-73200380D01*
X86577714Y-73248761D01*
X86601904Y-73272952D01*
X86650285Y-73297142D01*
X86747047Y-73297142D01*
X86795428Y-73272952D01*
X86819619Y-73248761D01*
X86843809Y-73200380D01*
X86843809Y-73103619D01*
X86819619Y-73055238D01*
X86795428Y-73031047D01*
X86747047Y-73006857D01*
X86650285Y-73006857D01*
X86601904Y-73031047D01*
X86577714Y-73055238D01*
X86553523Y-73103619D01*
%TO.C,R11*%
X110592809Y-80082571D02*
X110350904Y-80251904D01*
X110592809Y-80372857D02*
X110084809Y-80372857D01*
X110084809Y-80179333D01*
X110109000Y-80130952D01*
X110133190Y-80106761D01*
X110181571Y-80082571D01*
X110254142Y-80082571D01*
X110302523Y-80106761D01*
X110326714Y-80130952D01*
X110350904Y-80179333D01*
X110350904Y-80372857D01*
X110592809Y-79598761D02*
X110592809Y-79889047D01*
X110592809Y-79743904D02*
X110084809Y-79743904D01*
X110157380Y-79792285D01*
X110205761Y-79840666D01*
X110229952Y-79889047D01*
X110592809Y-79114952D02*
X110592809Y-79405238D01*
X110592809Y-79260095D02*
X110084809Y-79260095D01*
X110157380Y-79308476D01*
X110205761Y-79356857D01*
X110229952Y-79405238D01*
%TO.C,C9*%
X85779428Y-68410666D02*
X85803619Y-68434857D01*
X85827809Y-68507428D01*
X85827809Y-68555809D01*
X85803619Y-68628380D01*
X85755238Y-68676761D01*
X85706857Y-68700952D01*
X85610095Y-68725142D01*
X85537523Y-68725142D01*
X85440761Y-68700952D01*
X85392380Y-68676761D01*
X85344000Y-68628380D01*
X85319809Y-68555809D01*
X85319809Y-68507428D01*
X85344000Y-68434857D01*
X85368190Y-68410666D01*
X85827809Y-68168761D02*
X85827809Y-68072000D01*
X85803619Y-68023619D01*
X85779428Y-67999428D01*
X85706857Y-67951047D01*
X85610095Y-67926857D01*
X85416571Y-67926857D01*
X85368190Y-67951047D01*
X85344000Y-67975238D01*
X85319809Y-68023619D01*
X85319809Y-68120380D01*
X85344000Y-68168761D01*
X85368190Y-68192952D01*
X85416571Y-68217142D01*
X85537523Y-68217142D01*
X85585904Y-68192952D01*
X85610095Y-68168761D01*
X85634285Y-68120380D01*
X85634285Y-68023619D01*
X85610095Y-67975238D01*
X85585904Y-67951047D01*
X85537523Y-67926857D01*
%TO.C,J4*%
X96477666Y-51410809D02*
X96477666Y-51773666D01*
X96453476Y-51846238D01*
X96405095Y-51894619D01*
X96332523Y-51918809D01*
X96284142Y-51918809D01*
X96937285Y-51580142D02*
X96937285Y-51918809D01*
X96816333Y-51386619D02*
X96695380Y-51749476D01*
X97009857Y-51749476D01*
%TO.C,R9*%
X106849333Y-84811809D02*
X106680000Y-84569904D01*
X106559047Y-84811809D02*
X106559047Y-84303809D01*
X106752571Y-84303809D01*
X106800952Y-84328000D01*
X106825142Y-84352190D01*
X106849333Y-84400571D01*
X106849333Y-84473142D01*
X106825142Y-84521523D01*
X106800952Y-84545714D01*
X106752571Y-84569904D01*
X106559047Y-84569904D01*
X107091238Y-84811809D02*
X107188000Y-84811809D01*
X107236380Y-84787619D01*
X107260571Y-84763428D01*
X107308952Y-84690857D01*
X107333142Y-84594095D01*
X107333142Y-84400571D01*
X107308952Y-84352190D01*
X107284761Y-84328000D01*
X107236380Y-84303809D01*
X107139619Y-84303809D01*
X107091238Y-84328000D01*
X107067047Y-84352190D01*
X107042857Y-84400571D01*
X107042857Y-84521523D01*
X107067047Y-84569904D01*
X107091238Y-84594095D01*
X107139619Y-84618285D01*
X107236380Y-84618285D01*
X107284761Y-84594095D01*
X107308952Y-84569904D01*
X107333142Y-84521523D01*
%TO.C,R1*%
X99356333Y-84557809D02*
X99187000Y-84315904D01*
X99066047Y-84557809D02*
X99066047Y-84049809D01*
X99259571Y-84049809D01*
X99307952Y-84074000D01*
X99332142Y-84098190D01*
X99356333Y-84146571D01*
X99356333Y-84219142D01*
X99332142Y-84267523D01*
X99307952Y-84291714D01*
X99259571Y-84315904D01*
X99066047Y-84315904D01*
X99840142Y-84557809D02*
X99549857Y-84557809D01*
X99695000Y-84557809D02*
X99695000Y-84049809D01*
X99646619Y-84122380D01*
X99598238Y-84170761D01*
X99549857Y-84194952D01*
%TO.C,C7*%
X94161428Y-75141666D02*
X94185619Y-75165857D01*
X94209809Y-75238428D01*
X94209809Y-75286809D01*
X94185619Y-75359380D01*
X94137238Y-75407761D01*
X94088857Y-75431952D01*
X93992095Y-75456142D01*
X93919523Y-75456142D01*
X93822761Y-75431952D01*
X93774380Y-75407761D01*
X93726000Y-75359380D01*
X93701809Y-75286809D01*
X93701809Y-75238428D01*
X93726000Y-75165857D01*
X93750190Y-75141666D01*
X93701809Y-74972333D02*
X93701809Y-74633666D01*
X94209809Y-74851380D01*
%TO.C,L2*%
X92879333Y-69952809D02*
X92637428Y-69952809D01*
X92637428Y-69444809D01*
X93024476Y-69493190D02*
X93048666Y-69469000D01*
X93097047Y-69444809D01*
X93218000Y-69444809D01*
X93266380Y-69469000D01*
X93290571Y-69493190D01*
X93314761Y-69541571D01*
X93314761Y-69589952D01*
X93290571Y-69662523D01*
X93000285Y-69952809D01*
X93314761Y-69952809D01*
%TO.C,C15*%
X95177428Y-79447571D02*
X95201619Y-79471761D01*
X95225809Y-79544333D01*
X95225809Y-79592714D01*
X95201619Y-79665285D01*
X95153238Y-79713666D01*
X95104857Y-79737857D01*
X95008095Y-79762047D01*
X94935523Y-79762047D01*
X94838761Y-79737857D01*
X94790380Y-79713666D01*
X94742000Y-79665285D01*
X94717809Y-79592714D01*
X94717809Y-79544333D01*
X94742000Y-79471761D01*
X94766190Y-79447571D01*
X95225809Y-78963761D02*
X95225809Y-79254047D01*
X95225809Y-79108904D02*
X94717809Y-79108904D01*
X94790380Y-79157285D01*
X94838761Y-79205666D01*
X94862952Y-79254047D01*
X94717809Y-78504142D02*
X94717809Y-78746047D01*
X94959714Y-78770238D01*
X94935523Y-78746047D01*
X94911333Y-78697666D01*
X94911333Y-78576714D01*
X94935523Y-78528333D01*
X94959714Y-78504142D01*
X95008095Y-78479952D01*
X95129047Y-78479952D01*
X95177428Y-78504142D01*
X95201619Y-78528333D01*
X95225809Y-78576714D01*
X95225809Y-78697666D01*
X95201619Y-78746047D01*
X95177428Y-78770238D01*
%TO.C,C20*%
X114735428Y-78050571D02*
X114759619Y-78074761D01*
X114783809Y-78147333D01*
X114783809Y-78195714D01*
X114759619Y-78268285D01*
X114711238Y-78316666D01*
X114662857Y-78340857D01*
X114566095Y-78365047D01*
X114493523Y-78365047D01*
X114396761Y-78340857D01*
X114348380Y-78316666D01*
X114300000Y-78268285D01*
X114275809Y-78195714D01*
X114275809Y-78147333D01*
X114300000Y-78074761D01*
X114324190Y-78050571D01*
X114324190Y-77857047D02*
X114300000Y-77832857D01*
X114275809Y-77784476D01*
X114275809Y-77663523D01*
X114300000Y-77615142D01*
X114324190Y-77590952D01*
X114372571Y-77566761D01*
X114420952Y-77566761D01*
X114493523Y-77590952D01*
X114783809Y-77881238D01*
X114783809Y-77566761D01*
X114275809Y-77252285D02*
X114275809Y-77203904D01*
X114300000Y-77155523D01*
X114324190Y-77131333D01*
X114372571Y-77107142D01*
X114469333Y-77082952D01*
X114590285Y-77082952D01*
X114687047Y-77107142D01*
X114735428Y-77131333D01*
X114759619Y-77155523D01*
X114783809Y-77203904D01*
X114783809Y-77252285D01*
X114759619Y-77300666D01*
X114735428Y-77324857D01*
X114687047Y-77349047D01*
X114590285Y-77373238D01*
X114469333Y-77373238D01*
X114372571Y-77349047D01*
X114324190Y-77324857D01*
X114300000Y-77300666D01*
X114275809Y-77252285D01*
%TO.C,C25*%
X113592428Y-70793428D02*
X113568238Y-70817619D01*
X113495666Y-70841809D01*
X113447285Y-70841809D01*
X113374714Y-70817619D01*
X113326333Y-70769238D01*
X113302142Y-70720857D01*
X113277952Y-70624095D01*
X113277952Y-70551523D01*
X113302142Y-70454761D01*
X113326333Y-70406380D01*
X113374714Y-70358000D01*
X113447285Y-70333809D01*
X113495666Y-70333809D01*
X113568238Y-70358000D01*
X113592428Y-70382190D01*
X113785952Y-70382190D02*
X113810142Y-70358000D01*
X113858523Y-70333809D01*
X113979476Y-70333809D01*
X114027857Y-70358000D01*
X114052047Y-70382190D01*
X114076238Y-70430571D01*
X114076238Y-70478952D01*
X114052047Y-70551523D01*
X113761761Y-70841809D01*
X114076238Y-70841809D01*
X114535857Y-70333809D02*
X114293952Y-70333809D01*
X114269761Y-70575714D01*
X114293952Y-70551523D01*
X114342333Y-70527333D01*
X114463285Y-70527333D01*
X114511666Y-70551523D01*
X114535857Y-70575714D01*
X114560047Y-70624095D01*
X114560047Y-70745047D01*
X114535857Y-70793428D01*
X114511666Y-70817619D01*
X114463285Y-70841809D01*
X114342333Y-70841809D01*
X114293952Y-70817619D01*
X114269761Y-70793428D01*
%TO.C,R2*%
X101388333Y-84811809D02*
X101219000Y-84569904D01*
X101098047Y-84811809D02*
X101098047Y-84303809D01*
X101291571Y-84303809D01*
X101339952Y-84328000D01*
X101364142Y-84352190D01*
X101388333Y-84400571D01*
X101388333Y-84473142D01*
X101364142Y-84521523D01*
X101339952Y-84545714D01*
X101291571Y-84569904D01*
X101098047Y-84569904D01*
X101581857Y-84352190D02*
X101606047Y-84328000D01*
X101654428Y-84303809D01*
X101775380Y-84303809D01*
X101823761Y-84328000D01*
X101847952Y-84352190D01*
X101872142Y-84400571D01*
X101872142Y-84448952D01*
X101847952Y-84521523D01*
X101557666Y-84811809D01*
X101872142Y-84811809D01*
%TO.C,TP2*%
X110991952Y-80874809D02*
X111282238Y-80874809D01*
X111137095Y-81382809D02*
X111137095Y-80874809D01*
X111451571Y-81382809D02*
X111451571Y-80874809D01*
X111645095Y-80874809D01*
X111693476Y-80899000D01*
X111717666Y-80923190D01*
X111741857Y-80971571D01*
X111741857Y-81044142D01*
X111717666Y-81092523D01*
X111693476Y-81116714D01*
X111645095Y-81140904D01*
X111451571Y-81140904D01*
X111935380Y-80923190D02*
X111959571Y-80899000D01*
X112007952Y-80874809D01*
X112128904Y-80874809D01*
X112177285Y-80899000D01*
X112201476Y-80923190D01*
X112225666Y-80971571D01*
X112225666Y-81019952D01*
X112201476Y-81092523D01*
X111911190Y-81382809D01*
X112225666Y-81382809D01*
%TO.C,J5*%
X107272666Y-51410809D02*
X107272666Y-51773666D01*
X107248476Y-51846238D01*
X107200095Y-51894619D01*
X107127523Y-51918809D01*
X107079142Y-51918809D01*
X107756476Y-51410809D02*
X107514571Y-51410809D01*
X107490380Y-51652714D01*
X107514571Y-51628523D01*
X107562952Y-51604333D01*
X107683904Y-51604333D01*
X107732285Y-51628523D01*
X107756476Y-51652714D01*
X107780666Y-51701095D01*
X107780666Y-51822047D01*
X107756476Y-51870428D01*
X107732285Y-51894619D01*
X107683904Y-51918809D01*
X107562952Y-51918809D01*
X107514571Y-51894619D01*
X107490380Y-51870428D01*
D13*
%TO.C,C4*%
X102954666Y-81243714D02*
X102942571Y-81255809D01*
X102906285Y-81267904D01*
X102882095Y-81267904D01*
X102845809Y-81255809D01*
X102821619Y-81231619D01*
X102809523Y-81207428D01*
X102797428Y-81159047D01*
X102797428Y-81122761D01*
X102809523Y-81074380D01*
X102821619Y-81050190D01*
X102845809Y-81026000D01*
X102882095Y-81013904D01*
X102906285Y-81013904D01*
X102942571Y-81026000D01*
X102954666Y-81038095D01*
X103172380Y-81098571D02*
X103172380Y-81267904D01*
X103111904Y-81001809D02*
X103051428Y-81183238D01*
X103208666Y-81183238D01*
D12*
%TO.C,C24*%
X95304428Y-72716571D02*
X95328619Y-72740761D01*
X95352809Y-72813333D01*
X95352809Y-72861714D01*
X95328619Y-72934285D01*
X95280238Y-72982666D01*
X95231857Y-73006857D01*
X95135095Y-73031047D01*
X95062523Y-73031047D01*
X94965761Y-73006857D01*
X94917380Y-72982666D01*
X94869000Y-72934285D01*
X94844809Y-72861714D01*
X94844809Y-72813333D01*
X94869000Y-72740761D01*
X94893190Y-72716571D01*
X94893190Y-72523047D02*
X94869000Y-72498857D01*
X94844809Y-72450476D01*
X94844809Y-72329523D01*
X94869000Y-72281142D01*
X94893190Y-72256952D01*
X94941571Y-72232761D01*
X94989952Y-72232761D01*
X95062523Y-72256952D01*
X95352809Y-72547238D01*
X95352809Y-72232761D01*
X95014142Y-71797333D02*
X95352809Y-71797333D01*
X94820619Y-71918285D02*
X95183476Y-72039238D01*
X95183476Y-71724761D01*
%TO.C,D6*%
X94113047Y-83541809D02*
X94113047Y-83033809D01*
X94234000Y-83033809D01*
X94306571Y-83058000D01*
X94354952Y-83106380D01*
X94379142Y-83154761D01*
X94403333Y-83251523D01*
X94403333Y-83324095D01*
X94379142Y-83420857D01*
X94354952Y-83469238D01*
X94306571Y-83517619D01*
X94234000Y-83541809D01*
X94113047Y-83541809D01*
X94838761Y-83033809D02*
X94742000Y-83033809D01*
X94693619Y-83058000D01*
X94669428Y-83082190D01*
X94621047Y-83154761D01*
X94596857Y-83251523D01*
X94596857Y-83445047D01*
X94621047Y-83493428D01*
X94645238Y-83517619D01*
X94693619Y-83541809D01*
X94790380Y-83541809D01*
X94838761Y-83517619D01*
X94862952Y-83493428D01*
X94887142Y-83445047D01*
X94887142Y-83324095D01*
X94862952Y-83275714D01*
X94838761Y-83251523D01*
X94790380Y-83227333D01*
X94693619Y-83227333D01*
X94645238Y-83251523D01*
X94621047Y-83275714D01*
X94596857Y-83324095D01*
%TO.C,R6*%
X116247333Y-82017809D02*
X116078000Y-81775904D01*
X115957047Y-82017809D02*
X115957047Y-81509809D01*
X116150571Y-81509809D01*
X116198952Y-81534000D01*
X116223142Y-81558190D01*
X116247333Y-81606571D01*
X116247333Y-81679142D01*
X116223142Y-81727523D01*
X116198952Y-81751714D01*
X116150571Y-81775904D01*
X115957047Y-81775904D01*
X116682761Y-81509809D02*
X116586000Y-81509809D01*
X116537619Y-81534000D01*
X116513428Y-81558190D01*
X116465047Y-81630761D01*
X116440857Y-81727523D01*
X116440857Y-81921047D01*
X116465047Y-81969428D01*
X116489238Y-81993619D01*
X116537619Y-82017809D01*
X116634380Y-82017809D01*
X116682761Y-81993619D01*
X116706952Y-81969428D01*
X116731142Y-81921047D01*
X116731142Y-81800095D01*
X116706952Y-81751714D01*
X116682761Y-81727523D01*
X116634380Y-81703333D01*
X116537619Y-81703333D01*
X116489238Y-81727523D01*
X116465047Y-81751714D01*
X116440857Y-81800095D01*
%TO.C,R14*%
X112957428Y-56236809D02*
X112788095Y-55994904D01*
X112667142Y-56236809D02*
X112667142Y-55728809D01*
X112860666Y-55728809D01*
X112909047Y-55753000D01*
X112933238Y-55777190D01*
X112957428Y-55825571D01*
X112957428Y-55898142D01*
X112933238Y-55946523D01*
X112909047Y-55970714D01*
X112860666Y-55994904D01*
X112667142Y-55994904D01*
X113441238Y-56236809D02*
X113150952Y-56236809D01*
X113296095Y-56236809D02*
X113296095Y-55728809D01*
X113247714Y-55801380D01*
X113199333Y-55849761D01*
X113150952Y-55873952D01*
X113876666Y-55898142D02*
X113876666Y-56236809D01*
X113755714Y-55704619D02*
X113634761Y-56067476D01*
X113949238Y-56067476D01*
%TO.C,C23*%
X96701428Y-72589571D02*
X96725619Y-72613761D01*
X96749809Y-72686333D01*
X96749809Y-72734714D01*
X96725619Y-72807285D01*
X96677238Y-72855666D01*
X96628857Y-72879857D01*
X96532095Y-72904047D01*
X96459523Y-72904047D01*
X96362761Y-72879857D01*
X96314380Y-72855666D01*
X96266000Y-72807285D01*
X96241809Y-72734714D01*
X96241809Y-72686333D01*
X96266000Y-72613761D01*
X96290190Y-72589571D01*
X96290190Y-72396047D02*
X96266000Y-72371857D01*
X96241809Y-72323476D01*
X96241809Y-72202523D01*
X96266000Y-72154142D01*
X96290190Y-72129952D01*
X96338571Y-72105761D01*
X96386952Y-72105761D01*
X96459523Y-72129952D01*
X96749809Y-72420238D01*
X96749809Y-72105761D01*
X96241809Y-71936428D02*
X96241809Y-71621952D01*
X96435333Y-71791285D01*
X96435333Y-71718714D01*
X96459523Y-71670333D01*
X96483714Y-71646142D01*
X96532095Y-71621952D01*
X96653047Y-71621952D01*
X96701428Y-71646142D01*
X96725619Y-71670333D01*
X96749809Y-71718714D01*
X96749809Y-71863857D01*
X96725619Y-71912238D01*
X96701428Y-71936428D01*
%TO.C,D3*%
X97161047Y-83541809D02*
X97161047Y-83033809D01*
X97282000Y-83033809D01*
X97354571Y-83058000D01*
X97402952Y-83106380D01*
X97427142Y-83154761D01*
X97451333Y-83251523D01*
X97451333Y-83324095D01*
X97427142Y-83420857D01*
X97402952Y-83469238D01*
X97354571Y-83517619D01*
X97282000Y-83541809D01*
X97161047Y-83541809D01*
X97620666Y-83033809D02*
X97935142Y-83033809D01*
X97765809Y-83227333D01*
X97838380Y-83227333D01*
X97886761Y-83251523D01*
X97910952Y-83275714D01*
X97935142Y-83324095D01*
X97935142Y-83445047D01*
X97910952Y-83493428D01*
X97886761Y-83517619D01*
X97838380Y-83541809D01*
X97693238Y-83541809D01*
X97644857Y-83517619D01*
X97620666Y-83493428D01*
%TO.C,L1*%
X93031833Y-59886809D02*
X92789928Y-59886809D01*
X92789928Y-59378809D01*
X93467261Y-59886809D02*
X93176976Y-59886809D01*
X93322119Y-59886809D02*
X93322119Y-59378809D01*
X93273738Y-59451380D01*
X93225357Y-59499761D01*
X93176976Y-59523952D01*
%TO.C,D8*%
X97161047Y-84303809D02*
X97161047Y-83795809D01*
X97282000Y-83795809D01*
X97354571Y-83820000D01*
X97402952Y-83868380D01*
X97427142Y-83916761D01*
X97451333Y-84013523D01*
X97451333Y-84086095D01*
X97427142Y-84182857D01*
X97402952Y-84231238D01*
X97354571Y-84279619D01*
X97282000Y-84303809D01*
X97161047Y-84303809D01*
X97741619Y-84013523D02*
X97693238Y-83989333D01*
X97669047Y-83965142D01*
X97644857Y-83916761D01*
X97644857Y-83892571D01*
X97669047Y-83844190D01*
X97693238Y-83820000D01*
X97741619Y-83795809D01*
X97838380Y-83795809D01*
X97886761Y-83820000D01*
X97910952Y-83844190D01*
X97935142Y-83892571D01*
X97935142Y-83916761D01*
X97910952Y-83965142D01*
X97886761Y-83989333D01*
X97838380Y-84013523D01*
X97741619Y-84013523D01*
X97693238Y-84037714D01*
X97669047Y-84061904D01*
X97644857Y-84110285D01*
X97644857Y-84207047D01*
X97669047Y-84255428D01*
X97693238Y-84279619D01*
X97741619Y-84303809D01*
X97838380Y-84303809D01*
X97886761Y-84279619D01*
X97910952Y-84255428D01*
X97935142Y-84207047D01*
X97935142Y-84110285D01*
X97910952Y-84061904D01*
X97886761Y-84037714D01*
X97838380Y-84013523D01*
%TO.C,C29*%
X112195428Y-57857571D02*
X112219619Y-57881761D01*
X112243809Y-57954333D01*
X112243809Y-58002714D01*
X112219619Y-58075285D01*
X112171238Y-58123666D01*
X112122857Y-58147857D01*
X112026095Y-58172047D01*
X111953523Y-58172047D01*
X111856761Y-58147857D01*
X111808380Y-58123666D01*
X111760000Y-58075285D01*
X111735809Y-58002714D01*
X111735809Y-57954333D01*
X111760000Y-57881761D01*
X111784190Y-57857571D01*
X111784190Y-57664047D02*
X111760000Y-57639857D01*
X111735809Y-57591476D01*
X111735809Y-57470523D01*
X111760000Y-57422142D01*
X111784190Y-57397952D01*
X111832571Y-57373761D01*
X111880952Y-57373761D01*
X111953523Y-57397952D01*
X112243809Y-57688238D01*
X112243809Y-57373761D01*
X112243809Y-57131857D02*
X112243809Y-57035095D01*
X112219619Y-56986714D01*
X112195428Y-56962523D01*
X112122857Y-56914142D01*
X112026095Y-56889952D01*
X111832571Y-56889952D01*
X111784190Y-56914142D01*
X111760000Y-56938333D01*
X111735809Y-56986714D01*
X111735809Y-57083476D01*
X111760000Y-57131857D01*
X111784190Y-57156047D01*
X111832571Y-57180238D01*
X111953523Y-57180238D01*
X112001904Y-57156047D01*
X112026095Y-57131857D01*
X112050285Y-57083476D01*
X112050285Y-56986714D01*
X112026095Y-56938333D01*
X112001904Y-56914142D01*
X111953523Y-56889952D01*
%TO.C,R5*%
X116247333Y-83160809D02*
X116078000Y-82918904D01*
X115957047Y-83160809D02*
X115957047Y-82652809D01*
X116150571Y-82652809D01*
X116198952Y-82677000D01*
X116223142Y-82701190D01*
X116247333Y-82749571D01*
X116247333Y-82822142D01*
X116223142Y-82870523D01*
X116198952Y-82894714D01*
X116150571Y-82918904D01*
X115957047Y-82918904D01*
X116706952Y-82652809D02*
X116465047Y-82652809D01*
X116440857Y-82894714D01*
X116465047Y-82870523D01*
X116513428Y-82846333D01*
X116634380Y-82846333D01*
X116682761Y-82870523D01*
X116706952Y-82894714D01*
X116731142Y-82943095D01*
X116731142Y-83064047D01*
X116706952Y-83112428D01*
X116682761Y-83136619D01*
X116634380Y-83160809D01*
X116513428Y-83160809D01*
X116465047Y-83136619D01*
X116440857Y-83112428D01*
%TO.C,R7*%
X104436333Y-84811809D02*
X104267000Y-84569904D01*
X104146047Y-84811809D02*
X104146047Y-84303809D01*
X104339571Y-84303809D01*
X104387952Y-84328000D01*
X104412142Y-84352190D01*
X104436333Y-84400571D01*
X104436333Y-84473142D01*
X104412142Y-84521523D01*
X104387952Y-84545714D01*
X104339571Y-84569904D01*
X104146047Y-84569904D01*
X104605666Y-84303809D02*
X104944333Y-84303809D01*
X104726619Y-84811809D01*
%TO.C,C28*%
X110925428Y-61667571D02*
X110949619Y-61691761D01*
X110973809Y-61764333D01*
X110973809Y-61812714D01*
X110949619Y-61885285D01*
X110901238Y-61933666D01*
X110852857Y-61957857D01*
X110756095Y-61982047D01*
X110683523Y-61982047D01*
X110586761Y-61957857D01*
X110538380Y-61933666D01*
X110490000Y-61885285D01*
X110465809Y-61812714D01*
X110465809Y-61764333D01*
X110490000Y-61691761D01*
X110514190Y-61667571D01*
X110514190Y-61474047D02*
X110490000Y-61449857D01*
X110465809Y-61401476D01*
X110465809Y-61280523D01*
X110490000Y-61232142D01*
X110514190Y-61207952D01*
X110562571Y-61183761D01*
X110610952Y-61183761D01*
X110683523Y-61207952D01*
X110973809Y-61498238D01*
X110973809Y-61183761D01*
X110683523Y-60893476D02*
X110659333Y-60941857D01*
X110635142Y-60966047D01*
X110586761Y-60990238D01*
X110562571Y-60990238D01*
X110514190Y-60966047D01*
X110490000Y-60941857D01*
X110465809Y-60893476D01*
X110465809Y-60796714D01*
X110490000Y-60748333D01*
X110514190Y-60724142D01*
X110562571Y-60699952D01*
X110586761Y-60699952D01*
X110635142Y-60724142D01*
X110659333Y-60748333D01*
X110683523Y-60796714D01*
X110683523Y-60893476D01*
X110707714Y-60941857D01*
X110731904Y-60966047D01*
X110780285Y-60990238D01*
X110877047Y-60990238D01*
X110925428Y-60966047D01*
X110949619Y-60941857D01*
X110973809Y-60893476D01*
X110973809Y-60796714D01*
X110949619Y-60748333D01*
X110925428Y-60724142D01*
X110877047Y-60699952D01*
X110780285Y-60699952D01*
X110731904Y-60724142D01*
X110707714Y-60748333D01*
X110683523Y-60796714D01*
%TO.C,J6*%
X102446666Y-51410809D02*
X102446666Y-51773666D01*
X102422476Y-51846238D01*
X102374095Y-51894619D01*
X102301523Y-51918809D01*
X102253142Y-51918809D01*
X102906285Y-51410809D02*
X102809523Y-51410809D01*
X102761142Y-51435000D01*
X102736952Y-51459190D01*
X102688571Y-51531761D01*
X102664380Y-51628523D01*
X102664380Y-51822047D01*
X102688571Y-51870428D01*
X102712761Y-51894619D01*
X102761142Y-51918809D01*
X102857904Y-51918809D01*
X102906285Y-51894619D01*
X102930476Y-51870428D01*
X102954666Y-51822047D01*
X102954666Y-51701095D01*
X102930476Y-51652714D01*
X102906285Y-51628523D01*
X102857904Y-51604333D01*
X102761142Y-51604333D01*
X102712761Y-51628523D01*
X102688571Y-51652714D01*
X102664380Y-51701095D01*
%TO.C,C21*%
X113846428Y-78050571D02*
X113870619Y-78074761D01*
X113894809Y-78147333D01*
X113894809Y-78195714D01*
X113870619Y-78268285D01*
X113822238Y-78316666D01*
X113773857Y-78340857D01*
X113677095Y-78365047D01*
X113604523Y-78365047D01*
X113507761Y-78340857D01*
X113459380Y-78316666D01*
X113411000Y-78268285D01*
X113386809Y-78195714D01*
X113386809Y-78147333D01*
X113411000Y-78074761D01*
X113435190Y-78050571D01*
X113435190Y-77857047D02*
X113411000Y-77832857D01*
X113386809Y-77784476D01*
X113386809Y-77663523D01*
X113411000Y-77615142D01*
X113435190Y-77590952D01*
X113483571Y-77566761D01*
X113531952Y-77566761D01*
X113604523Y-77590952D01*
X113894809Y-77881238D01*
X113894809Y-77566761D01*
X113894809Y-77082952D02*
X113894809Y-77373238D01*
X113894809Y-77228095D02*
X113386809Y-77228095D01*
X113459380Y-77276476D01*
X113507761Y-77324857D01*
X113531952Y-77373238D01*
%TO.C,U2*%
X88893952Y-66028809D02*
X88893952Y-66440047D01*
X88918142Y-66488428D01*
X88942333Y-66512619D01*
X88990714Y-66536809D01*
X89087476Y-66536809D01*
X89135857Y-66512619D01*
X89160047Y-66488428D01*
X89184238Y-66440047D01*
X89184238Y-66028809D01*
X89401952Y-66077190D02*
X89426142Y-66053000D01*
X89474523Y-66028809D01*
X89595476Y-66028809D01*
X89643857Y-66053000D01*
X89668047Y-66077190D01*
X89692238Y-66125571D01*
X89692238Y-66173952D01*
X89668047Y-66246523D01*
X89377761Y-66536809D01*
X89692238Y-66536809D01*
%TO.C,J17*%
X111348761Y-68174809D02*
X111348761Y-68537666D01*
X111324571Y-68610238D01*
X111276190Y-68658619D01*
X111203619Y-68682809D01*
X111155238Y-68682809D01*
X111856761Y-68682809D02*
X111566476Y-68682809D01*
X111711619Y-68682809D02*
X111711619Y-68174809D01*
X111663238Y-68247380D01*
X111614857Y-68295761D01*
X111566476Y-68319952D01*
X112026095Y-68174809D02*
X112364761Y-68174809D01*
X112147047Y-68682809D01*
%TO.C,C27*%
X111052428Y-54029428D02*
X111028238Y-54053619D01*
X110955666Y-54077809D01*
X110907285Y-54077809D01*
X110834714Y-54053619D01*
X110786333Y-54005238D01*
X110762142Y-53956857D01*
X110737952Y-53860095D01*
X110737952Y-53787523D01*
X110762142Y-53690761D01*
X110786333Y-53642380D01*
X110834714Y-53594000D01*
X110907285Y-53569809D01*
X110955666Y-53569809D01*
X111028238Y-53594000D01*
X111052428Y-53618190D01*
X111245952Y-53618190D02*
X111270142Y-53594000D01*
X111318523Y-53569809D01*
X111439476Y-53569809D01*
X111487857Y-53594000D01*
X111512047Y-53618190D01*
X111536238Y-53666571D01*
X111536238Y-53714952D01*
X111512047Y-53787523D01*
X111221761Y-54077809D01*
X111536238Y-54077809D01*
X111705571Y-53569809D02*
X112044238Y-53569809D01*
X111826523Y-54077809D01*
%TO.C,R8*%
X105452333Y-84811809D02*
X105283000Y-84569904D01*
X105162047Y-84811809D02*
X105162047Y-84303809D01*
X105355571Y-84303809D01*
X105403952Y-84328000D01*
X105428142Y-84352190D01*
X105452333Y-84400571D01*
X105452333Y-84473142D01*
X105428142Y-84521523D01*
X105403952Y-84545714D01*
X105355571Y-84569904D01*
X105162047Y-84569904D01*
X105742619Y-84521523D02*
X105694238Y-84497333D01*
X105670047Y-84473142D01*
X105645857Y-84424761D01*
X105645857Y-84400571D01*
X105670047Y-84352190D01*
X105694238Y-84328000D01*
X105742619Y-84303809D01*
X105839380Y-84303809D01*
X105887761Y-84328000D01*
X105911952Y-84352190D01*
X105936142Y-84400571D01*
X105936142Y-84424761D01*
X105911952Y-84473142D01*
X105887761Y-84497333D01*
X105839380Y-84521523D01*
X105742619Y-84521523D01*
X105694238Y-84545714D01*
X105670047Y-84569904D01*
X105645857Y-84618285D01*
X105645857Y-84715047D01*
X105670047Y-84763428D01*
X105694238Y-84787619D01*
X105742619Y-84811809D01*
X105839380Y-84811809D01*
X105887761Y-84787619D01*
X105911952Y-84763428D01*
X105936142Y-84715047D01*
X105936142Y-84618285D01*
X105911952Y-84569904D01*
X105887761Y-84545714D01*
X105839380Y-84521523D01*
%TO.C,U4*%
X97384809Y-79635047D02*
X97796047Y-79635047D01*
X97844428Y-79610857D01*
X97868619Y-79586666D01*
X97892809Y-79538285D01*
X97892809Y-79441523D01*
X97868619Y-79393142D01*
X97844428Y-79368952D01*
X97796047Y-79344761D01*
X97384809Y-79344761D01*
X97554142Y-78885142D02*
X97892809Y-78885142D01*
X97360619Y-79006095D02*
X97723476Y-79127047D01*
X97723476Y-78812571D01*
%TO.C,D4*%
X96145047Y-83541809D02*
X96145047Y-83033809D01*
X96266000Y-83033809D01*
X96338571Y-83058000D01*
X96386952Y-83106380D01*
X96411142Y-83154761D01*
X96435333Y-83251523D01*
X96435333Y-83324095D01*
X96411142Y-83420857D01*
X96386952Y-83469238D01*
X96338571Y-83517619D01*
X96266000Y-83541809D01*
X96145047Y-83541809D01*
X96870761Y-83203142D02*
X96870761Y-83541809D01*
X96749809Y-83009619D02*
X96628857Y-83372476D01*
X96943333Y-83372476D01*
%TO.C,J3*%
X93828809Y-89196333D02*
X94191666Y-89196333D01*
X94264238Y-89220523D01*
X94312619Y-89268904D01*
X94336809Y-89341476D01*
X94336809Y-89389857D01*
X93828809Y-89002809D02*
X93828809Y-88688333D01*
X94022333Y-88857666D01*
X94022333Y-88785095D01*
X94046523Y-88736714D01*
X94070714Y-88712523D01*
X94119095Y-88688333D01*
X94240047Y-88688333D01*
X94288428Y-88712523D01*
X94312619Y-88736714D01*
X94336809Y-88785095D01*
X94336809Y-88930238D01*
X94312619Y-88978619D01*
X94288428Y-89002809D01*
%TO.C,C13*%
X85906428Y-76325571D02*
X85930619Y-76349761D01*
X85954809Y-76422333D01*
X85954809Y-76470714D01*
X85930619Y-76543285D01*
X85882238Y-76591666D01*
X85833857Y-76615857D01*
X85737095Y-76640047D01*
X85664523Y-76640047D01*
X85567761Y-76615857D01*
X85519380Y-76591666D01*
X85471000Y-76543285D01*
X85446809Y-76470714D01*
X85446809Y-76422333D01*
X85471000Y-76349761D01*
X85495190Y-76325571D01*
X85954809Y-75841761D02*
X85954809Y-76132047D01*
X85954809Y-75986904D02*
X85446809Y-75986904D01*
X85519380Y-76035285D01*
X85567761Y-76083666D01*
X85591952Y-76132047D01*
X85446809Y-75672428D02*
X85446809Y-75357952D01*
X85640333Y-75527285D01*
X85640333Y-75454714D01*
X85664523Y-75406333D01*
X85688714Y-75382142D01*
X85737095Y-75357952D01*
X85858047Y-75357952D01*
X85906428Y-75382142D01*
X85930619Y-75406333D01*
X85954809Y-75454714D01*
X85954809Y-75599857D01*
X85930619Y-75648238D01*
X85906428Y-75672428D01*
%TO.C,R13*%
X104702428Y-52934809D02*
X104533095Y-52692904D01*
X104412142Y-52934809D02*
X104412142Y-52426809D01*
X104605666Y-52426809D01*
X104654047Y-52451000D01*
X104678238Y-52475190D01*
X104702428Y-52523571D01*
X104702428Y-52596142D01*
X104678238Y-52644523D01*
X104654047Y-52668714D01*
X104605666Y-52692904D01*
X104412142Y-52692904D01*
X105186238Y-52934809D02*
X104895952Y-52934809D01*
X105041095Y-52934809D02*
X105041095Y-52426809D01*
X104992714Y-52499380D01*
X104944333Y-52547761D01*
X104895952Y-52571952D01*
X105355571Y-52426809D02*
X105670047Y-52426809D01*
X105500714Y-52620333D01*
X105573285Y-52620333D01*
X105621666Y-52644523D01*
X105645857Y-52668714D01*
X105670047Y-52717095D01*
X105670047Y-52838047D01*
X105645857Y-52886428D01*
X105621666Y-52910619D01*
X105573285Y-52934809D01*
X105428142Y-52934809D01*
X105379761Y-52910619D01*
X105355571Y-52886428D01*
%TO.C,U3*%
X88385952Y-77445809D02*
X88385952Y-77857047D01*
X88410142Y-77905428D01*
X88434333Y-77929619D01*
X88482714Y-77953809D01*
X88579476Y-77953809D01*
X88627857Y-77929619D01*
X88652047Y-77905428D01*
X88676238Y-77857047D01*
X88676238Y-77445809D01*
X88869761Y-77445809D02*
X89184238Y-77445809D01*
X89014904Y-77639333D01*
X89087476Y-77639333D01*
X89135857Y-77663523D01*
X89160047Y-77687714D01*
X89184238Y-77736095D01*
X89184238Y-77857047D01*
X89160047Y-77905428D01*
X89135857Y-77929619D01*
X89087476Y-77953809D01*
X88942333Y-77953809D01*
X88893952Y-77929619D01*
X88869761Y-77905428D01*
%TO.C,C17*%
X95304428Y-71428428D02*
X95280238Y-71452619D01*
X95207666Y-71476809D01*
X95159285Y-71476809D01*
X95086714Y-71452619D01*
X95038333Y-71404238D01*
X95014142Y-71355857D01*
X94989952Y-71259095D01*
X94989952Y-71186523D01*
X95014142Y-71089761D01*
X95038333Y-71041380D01*
X95086714Y-70993000D01*
X95159285Y-70968809D01*
X95207666Y-70968809D01*
X95280238Y-70993000D01*
X95304428Y-71017190D01*
X95788238Y-71476809D02*
X95497952Y-71476809D01*
X95643095Y-71476809D02*
X95643095Y-70968809D01*
X95594714Y-71041380D01*
X95546333Y-71089761D01*
X95497952Y-71113952D01*
X95957571Y-70968809D02*
X96296238Y-70968809D01*
X96078523Y-71476809D01*
%TO.C,J16*%
X111608809Y-59974238D02*
X111971666Y-59974238D01*
X112044238Y-59998428D01*
X112092619Y-60046809D01*
X112116809Y-60119380D01*
X112116809Y-60167761D01*
X112116809Y-59466238D02*
X112116809Y-59756523D01*
X112116809Y-59611380D02*
X111608809Y-59611380D01*
X111681380Y-59659761D01*
X111729761Y-59708142D01*
X111753952Y-59756523D01*
X111608809Y-59030809D02*
X111608809Y-59127571D01*
X111633000Y-59175952D01*
X111657190Y-59200142D01*
X111729761Y-59248523D01*
X111826523Y-59272714D01*
X112020047Y-59272714D01*
X112068428Y-59248523D01*
X112092619Y-59224333D01*
X112116809Y-59175952D01*
X112116809Y-59079190D01*
X112092619Y-59030809D01*
X112068428Y-59006619D01*
X112020047Y-58982428D01*
X111899095Y-58982428D01*
X111850714Y-59006619D01*
X111826523Y-59030809D01*
X111802333Y-59079190D01*
X111802333Y-59175952D01*
X111826523Y-59224333D01*
X111850714Y-59248523D01*
X111899095Y-59272714D01*
%TO.C,R4*%
X103420333Y-84811809D02*
X103251000Y-84569904D01*
X103130047Y-84811809D02*
X103130047Y-84303809D01*
X103323571Y-84303809D01*
X103371952Y-84328000D01*
X103396142Y-84352190D01*
X103420333Y-84400571D01*
X103420333Y-84473142D01*
X103396142Y-84521523D01*
X103371952Y-84545714D01*
X103323571Y-84569904D01*
X103130047Y-84569904D01*
X103855761Y-84473142D02*
X103855761Y-84811809D01*
X103734809Y-84279619D02*
X103613857Y-84642476D01*
X103928333Y-84642476D01*
%TO.C,D2*%
X98685047Y-82652809D02*
X98685047Y-82144809D01*
X98806000Y-82144809D01*
X98878571Y-82169000D01*
X98926952Y-82217380D01*
X98951142Y-82265761D01*
X98975333Y-82362523D01*
X98975333Y-82435095D01*
X98951142Y-82531857D01*
X98926952Y-82580238D01*
X98878571Y-82628619D01*
X98806000Y-82652809D01*
X98685047Y-82652809D01*
X99168857Y-82193190D02*
X99193047Y-82169000D01*
X99241428Y-82144809D01*
X99362380Y-82144809D01*
X99410761Y-82169000D01*
X99434952Y-82193190D01*
X99459142Y-82241571D01*
X99459142Y-82289952D01*
X99434952Y-82362523D01*
X99144666Y-82652809D01*
X99459142Y-82652809D01*
%TO.C,U1*%
X89147952Y-71857809D02*
X89147952Y-72269047D01*
X89172142Y-72317428D01*
X89196333Y-72341619D01*
X89244714Y-72365809D01*
X89341476Y-72365809D01*
X89389857Y-72341619D01*
X89414047Y-72317428D01*
X89438238Y-72269047D01*
X89438238Y-71857809D01*
X89946238Y-72365809D02*
X89655952Y-72365809D01*
X89801095Y-72365809D02*
X89801095Y-71857809D01*
X89752714Y-71930380D01*
X89704333Y-71978761D01*
X89655952Y-72002952D01*
%TO.C,C26*%
X115243428Y-72317428D02*
X115219238Y-72341619D01*
X115146666Y-72365809D01*
X115098285Y-72365809D01*
X115025714Y-72341619D01*
X114977333Y-72293238D01*
X114953142Y-72244857D01*
X114928952Y-72148095D01*
X114928952Y-72075523D01*
X114953142Y-71978761D01*
X114977333Y-71930380D01*
X115025714Y-71882000D01*
X115098285Y-71857809D01*
X115146666Y-71857809D01*
X115219238Y-71882000D01*
X115243428Y-71906190D01*
X115436952Y-71906190D02*
X115461142Y-71882000D01*
X115509523Y-71857809D01*
X115630476Y-71857809D01*
X115678857Y-71882000D01*
X115703047Y-71906190D01*
X115727238Y-71954571D01*
X115727238Y-72002952D01*
X115703047Y-72075523D01*
X115412761Y-72365809D01*
X115727238Y-72365809D01*
X116162666Y-71857809D02*
X116065904Y-71857809D01*
X116017523Y-71882000D01*
X115993333Y-71906190D01*
X115944952Y-71978761D01*
X115920761Y-72075523D01*
X115920761Y-72269047D01*
X115944952Y-72317428D01*
X115969142Y-72341619D01*
X116017523Y-72365809D01*
X116114285Y-72365809D01*
X116162666Y-72341619D01*
X116186857Y-72317428D01*
X116211047Y-72269047D01*
X116211047Y-72148095D01*
X116186857Y-72099714D01*
X116162666Y-72075523D01*
X116114285Y-72051333D01*
X116017523Y-72051333D01*
X115969142Y-72075523D01*
X115944952Y-72099714D01*
X115920761Y-72148095D01*
%TO.C,C22*%
X113592428Y-73841428D02*
X113568238Y-73865619D01*
X113495666Y-73889809D01*
X113447285Y-73889809D01*
X113374714Y-73865619D01*
X113326333Y-73817238D01*
X113302142Y-73768857D01*
X113277952Y-73672095D01*
X113277952Y-73599523D01*
X113302142Y-73502761D01*
X113326333Y-73454380D01*
X113374714Y-73406000D01*
X113447285Y-73381809D01*
X113495666Y-73381809D01*
X113568238Y-73406000D01*
X113592428Y-73430190D01*
X113785952Y-73430190D02*
X113810142Y-73406000D01*
X113858523Y-73381809D01*
X113979476Y-73381809D01*
X114027857Y-73406000D01*
X114052047Y-73430190D01*
X114076238Y-73478571D01*
X114076238Y-73526952D01*
X114052047Y-73599523D01*
X113761761Y-73889809D01*
X114076238Y-73889809D01*
X114269761Y-73430190D02*
X114293952Y-73406000D01*
X114342333Y-73381809D01*
X114463285Y-73381809D01*
X114511666Y-73406000D01*
X114535857Y-73430190D01*
X114560047Y-73478571D01*
X114560047Y-73526952D01*
X114535857Y-73599523D01*
X114245571Y-73889809D01*
X114560047Y-73889809D01*
%TO.C,C16*%
X97336428Y-68634428D02*
X97312238Y-68658619D01*
X97239666Y-68682809D01*
X97191285Y-68682809D01*
X97118714Y-68658619D01*
X97070333Y-68610238D01*
X97046142Y-68561857D01*
X97021952Y-68465095D01*
X97021952Y-68392523D01*
X97046142Y-68295761D01*
X97070333Y-68247380D01*
X97118714Y-68199000D01*
X97191285Y-68174809D01*
X97239666Y-68174809D01*
X97312238Y-68199000D01*
X97336428Y-68223190D01*
X97820238Y-68682809D02*
X97529952Y-68682809D01*
X97675095Y-68682809D02*
X97675095Y-68174809D01*
X97626714Y-68247380D01*
X97578333Y-68295761D01*
X97529952Y-68319952D01*
X98255666Y-68174809D02*
X98158904Y-68174809D01*
X98110523Y-68199000D01*
X98086333Y-68223190D01*
X98037952Y-68295761D01*
X98013761Y-68392523D01*
X98013761Y-68586047D01*
X98037952Y-68634428D01*
X98062142Y-68658619D01*
X98110523Y-68682809D01*
X98207285Y-68682809D01*
X98255666Y-68658619D01*
X98279857Y-68634428D01*
X98304047Y-68586047D01*
X98304047Y-68465095D01*
X98279857Y-68416714D01*
X98255666Y-68392523D01*
X98207285Y-68368333D01*
X98110523Y-68368333D01*
X98062142Y-68392523D01*
X98037952Y-68416714D01*
X98013761Y-68465095D01*
%TO.C,C11*%
X90732428Y-80463571D02*
X90756619Y-80487761D01*
X90780809Y-80560333D01*
X90780809Y-80608714D01*
X90756619Y-80681285D01*
X90708238Y-80729666D01*
X90659857Y-80753857D01*
X90563095Y-80778047D01*
X90490523Y-80778047D01*
X90393761Y-80753857D01*
X90345380Y-80729666D01*
X90297000Y-80681285D01*
X90272809Y-80608714D01*
X90272809Y-80560333D01*
X90297000Y-80487761D01*
X90321190Y-80463571D01*
X90780809Y-79979761D02*
X90780809Y-80270047D01*
X90780809Y-80124904D02*
X90272809Y-80124904D01*
X90345380Y-80173285D01*
X90393761Y-80221666D01*
X90417952Y-80270047D01*
X90780809Y-79495952D02*
X90780809Y-79786238D01*
X90780809Y-79641095D02*
X90272809Y-79641095D01*
X90345380Y-79689476D01*
X90393761Y-79737857D01*
X90417952Y-79786238D01*
%TO.C,C12*%
X93526428Y-79447571D02*
X93550619Y-79471761D01*
X93574809Y-79544333D01*
X93574809Y-79592714D01*
X93550619Y-79665285D01*
X93502238Y-79713666D01*
X93453857Y-79737857D01*
X93357095Y-79762047D01*
X93284523Y-79762047D01*
X93187761Y-79737857D01*
X93139380Y-79713666D01*
X93091000Y-79665285D01*
X93066809Y-79592714D01*
X93066809Y-79544333D01*
X93091000Y-79471761D01*
X93115190Y-79447571D01*
X93574809Y-78963761D02*
X93574809Y-79254047D01*
X93574809Y-79108904D02*
X93066809Y-79108904D01*
X93139380Y-79157285D01*
X93187761Y-79205666D01*
X93211952Y-79254047D01*
X93115190Y-78770238D02*
X93091000Y-78746047D01*
X93066809Y-78697666D01*
X93066809Y-78576714D01*
X93091000Y-78528333D01*
X93115190Y-78504142D01*
X93163571Y-78479952D01*
X93211952Y-78479952D01*
X93284523Y-78504142D01*
X93574809Y-78794428D01*
X93574809Y-78479952D01*
%TO.C,D7*%
X93097047Y-83541809D02*
X93097047Y-83033809D01*
X93218000Y-83033809D01*
X93290571Y-83058000D01*
X93338952Y-83106380D01*
X93363142Y-83154761D01*
X93387333Y-83251523D01*
X93387333Y-83324095D01*
X93363142Y-83420857D01*
X93338952Y-83469238D01*
X93290571Y-83517619D01*
X93218000Y-83541809D01*
X93097047Y-83541809D01*
X93556666Y-83033809D02*
X93895333Y-83033809D01*
X93677619Y-83541809D01*
%TO.C,R12*%
X109576809Y-80082571D02*
X109334904Y-80251904D01*
X109576809Y-80372857D02*
X109068809Y-80372857D01*
X109068809Y-80179333D01*
X109093000Y-80130952D01*
X109117190Y-80106761D01*
X109165571Y-80082571D01*
X109238142Y-80082571D01*
X109286523Y-80106761D01*
X109310714Y-80130952D01*
X109334904Y-80179333D01*
X109334904Y-80372857D01*
X109576809Y-79598761D02*
X109576809Y-79889047D01*
X109576809Y-79743904D02*
X109068809Y-79743904D01*
X109141380Y-79792285D01*
X109189761Y-79840666D01*
X109213952Y-79889047D01*
X109117190Y-79405238D02*
X109093000Y-79381047D01*
X109068809Y-79332666D01*
X109068809Y-79211714D01*
X109093000Y-79163333D01*
X109117190Y-79139142D01*
X109165571Y-79114952D01*
X109213952Y-79114952D01*
X109286523Y-79139142D01*
X109576809Y-79429428D01*
X109576809Y-79114952D01*
%TO.C,D5*%
X95129047Y-83541809D02*
X95129047Y-83033809D01*
X95250000Y-83033809D01*
X95322571Y-83058000D01*
X95370952Y-83106380D01*
X95395142Y-83154761D01*
X95419333Y-83251523D01*
X95419333Y-83324095D01*
X95395142Y-83420857D01*
X95370952Y-83469238D01*
X95322571Y-83517619D01*
X95250000Y-83541809D01*
X95129047Y-83541809D01*
X95878952Y-83033809D02*
X95637047Y-83033809D01*
X95612857Y-83275714D01*
X95637047Y-83251523D01*
X95685428Y-83227333D01*
X95806380Y-83227333D01*
X95854761Y-83251523D01*
X95878952Y-83275714D01*
X95903142Y-83324095D01*
X95903142Y-83445047D01*
X95878952Y-83493428D01*
X95854761Y-83517619D01*
X95806380Y-83541809D01*
X95685428Y-83541809D01*
X95637047Y-83517619D01*
X95612857Y-83493428D01*
%TO.C,C19*%
X114608428Y-75764571D02*
X114632619Y-75788761D01*
X114656809Y-75861333D01*
X114656809Y-75909714D01*
X114632619Y-75982285D01*
X114584238Y-76030666D01*
X114535857Y-76054857D01*
X114439095Y-76079047D01*
X114366523Y-76079047D01*
X114269761Y-76054857D01*
X114221380Y-76030666D01*
X114173000Y-75982285D01*
X114148809Y-75909714D01*
X114148809Y-75861333D01*
X114173000Y-75788761D01*
X114197190Y-75764571D01*
X114656809Y-75280761D02*
X114656809Y-75571047D01*
X114656809Y-75425904D02*
X114148809Y-75425904D01*
X114221380Y-75474285D01*
X114269761Y-75522666D01*
X114293952Y-75571047D01*
X114656809Y-75038857D02*
X114656809Y-74942095D01*
X114632619Y-74893714D01*
X114608428Y-74869523D01*
X114535857Y-74821142D01*
X114439095Y-74796952D01*
X114245571Y-74796952D01*
X114197190Y-74821142D01*
X114173000Y-74845333D01*
X114148809Y-74893714D01*
X114148809Y-74990476D01*
X114173000Y-75038857D01*
X114197190Y-75063047D01*
X114245571Y-75087238D01*
X114366523Y-75087238D01*
X114414904Y-75063047D01*
X114439095Y-75038857D01*
X114463285Y-74990476D01*
X114463285Y-74893714D01*
X114439095Y-74845333D01*
X114414904Y-74821142D01*
X114366523Y-74796952D01*
D10*
%TO.C,D1*%
X108508000Y-81182000D02*
G75*
G03*
X108508000Y-81182000I-50000J0D01*
G01*
D15*
%TO.C,C18*%
X111212000Y-75330164D02*
X111212000Y-75545836D01*
X111932000Y-75330164D02*
X111932000Y-75545836D01*
%TO.C,C5*%
X104921164Y-82146000D02*
X105136836Y-82146000D01*
X104921164Y-81426000D02*
X105136836Y-81426000D01*
%TO.C,C14*%
X95652000Y-77108164D02*
X95652000Y-77323836D01*
X96372000Y-77108164D02*
X96372000Y-77323836D01*
%TO.C,C3*%
X95045000Y-61989580D02*
X95045000Y-61708420D01*
X96065000Y-61989580D02*
X96065000Y-61708420D01*
%TO.C,C6*%
X106826164Y-82148000D02*
X107041836Y-82148000D01*
X106826164Y-81428000D02*
X107041836Y-81428000D01*
%TO.C,C10*%
X92562000Y-68091164D02*
X92562000Y-68306836D01*
X91842000Y-68091164D02*
X91842000Y-68306836D01*
%TO.C,C30*%
X94128000Y-65551164D02*
X94128000Y-65766836D01*
X94848000Y-65551164D02*
X94848000Y-65766836D01*
%TO.C,R10*%
X107949000Y-83463641D02*
X107949000Y-83156359D01*
X107189000Y-83463641D02*
X107189000Y-83156359D01*
D11*
%TO.C,SW1*%
X111322000Y-92000000D02*
X111767000Y-92000000D01*
X111322000Y-85800000D02*
X111322000Y-92000000D01*
X114547000Y-85800000D02*
X114992000Y-85800000D01*
X114992000Y-85800000D02*
X114992000Y-92000000D01*
X114547000Y-92000000D02*
X114992000Y-92000000D01*
X111322000Y-85800000D02*
X111767000Y-85800000D01*
D16*
X114407000Y-86625000D02*
G75*
G03*
X114407000Y-86625000I-250000J0D01*
G01*
D17*
X113917000Y-83900000D02*
G75*
G03*
X113917000Y-83900000I-125000J0D01*
G01*
D15*
%TO.C,J2*%
X87954000Y-85860000D02*
X87954000Y-87810000D01*
X87044000Y-87470000D02*
X87044000Y-88720000D01*
X87344000Y-88420000D02*
X92064000Y-88420000D01*
X88654000Y-88420000D02*
X88654000Y-87810000D01*
X91454000Y-85360000D02*
X90954000Y-85360000D01*
X87344000Y-85860000D02*
X87954000Y-85860000D01*
X87954000Y-87810000D02*
X91454000Y-87810000D01*
X87244000Y-86660000D02*
X87244000Y-86960000D01*
X89954000Y-88420000D02*
X89954000Y-87810000D01*
X90954000Y-85260000D02*
X91454000Y-85260000D01*
X91454000Y-87810000D02*
X91454000Y-82910000D01*
X92064000Y-88420000D02*
X92064000Y-82300000D01*
X87144000Y-86660000D02*
X87144000Y-86960000D01*
X90954000Y-85460000D02*
X90954000Y-85260000D01*
X87954000Y-82910000D02*
X87954000Y-84860000D01*
X91454000Y-82910000D02*
X87954000Y-82910000D01*
X87344000Y-82300000D02*
X87344000Y-88420000D01*
X89954000Y-82300000D02*
X89954000Y-82910000D01*
X87954000Y-84860000D02*
X87344000Y-84860000D01*
X92064000Y-82300000D02*
X87344000Y-82300000D01*
X87044000Y-88720000D02*
X88294000Y-88720000D01*
X88654000Y-82300000D02*
X88654000Y-82910000D01*
X87344000Y-86660000D02*
X87144000Y-86660000D01*
X87144000Y-86960000D02*
X87344000Y-86960000D01*
X91454000Y-85460000D02*
X90954000Y-85460000D01*
%TO.C,J1*%
X116391000Y-56880000D02*
X112971000Y-56880000D01*
X115881000Y-68340000D02*
X115131000Y-68340000D01*
X112971000Y-68850000D02*
X116391000Y-68850000D01*
X113481000Y-68340000D02*
X113481000Y-62865000D01*
X114331000Y-68340000D02*
X113481000Y-68340000D01*
X116681000Y-69140000D02*
X115681000Y-69140000D01*
X115131000Y-57190000D02*
X114331000Y-57190000D01*
X113481000Y-57390000D02*
X113481000Y-62865000D01*
X115131000Y-68540000D02*
X114331000Y-68540000D01*
X112971000Y-56880000D02*
X112971000Y-68850000D01*
X115131000Y-68340000D02*
X115131000Y-68540000D01*
X116391000Y-68850000D02*
X116391000Y-56880000D01*
X115881000Y-62865000D02*
X115881000Y-57390000D01*
X115881000Y-62865000D02*
X115881000Y-68340000D01*
X115131000Y-57390000D02*
X115131000Y-57190000D01*
X116681000Y-69140000D02*
X116681000Y-68140000D01*
X114331000Y-68540000D02*
X114331000Y-68340000D01*
X114331000Y-57390000D02*
X113481000Y-57390000D01*
X114331000Y-57190000D02*
X114331000Y-57390000D01*
X115881000Y-57390000D02*
X115131000Y-57390000D01*
%TO.C,C1*%
X100857164Y-81428000D02*
X101072836Y-81428000D01*
X100857164Y-82148000D02*
X101072836Y-82148000D01*
%TO.C,C2*%
X91239000Y-61989580D02*
X91239000Y-61708420D01*
X90219000Y-61989580D02*
X90219000Y-61708420D01*
%TO.C,C31*%
X95144000Y-65551164D02*
X95144000Y-65766836D01*
X95864000Y-65551164D02*
X95864000Y-65766836D01*
%TO.C,R3*%
X102109000Y-83463641D02*
X102109000Y-83156359D01*
X102869000Y-83463641D02*
X102869000Y-83156359D01*
%TO.C,AE1*%
X85846000Y-62450000D02*
X85846000Y-59750000D01*
X88566000Y-62500000D02*
X88566000Y-61860000D01*
X88566000Y-61860000D02*
X89196000Y-61860000D01*
X88566000Y-59700000D02*
X88566000Y-60340000D01*
%TO.C,U5*%
X98432000Y-66475000D02*
X97482000Y-66475000D01*
X97482000Y-66475000D02*
X97482000Y-65525000D01*
X109782000Y-54175000D02*
X109782000Y-55125000D01*
X108832000Y-54175000D02*
X109782000Y-54175000D01*
X98432000Y-54175000D02*
X97232000Y-54175000D01*
X108832000Y-66475000D02*
X109782000Y-66475000D01*
X109782000Y-66475000D02*
X109782000Y-65525000D01*
%TO.C,C8*%
X86254000Y-71610164D02*
X86254000Y-71825836D01*
X86974000Y-71610164D02*
X86974000Y-71825836D01*
%TO.C,R11*%
X110743000Y-81507359D02*
X110743000Y-81814641D01*
X109983000Y-81507359D02*
X109983000Y-81814641D01*
%TO.C,C9*%
X86974000Y-68091164D02*
X86974000Y-68306836D01*
X86254000Y-68091164D02*
X86254000Y-68306836D01*
%TO.C,R9*%
X106933000Y-83463641D02*
X106933000Y-83156359D01*
X106173000Y-83463641D02*
X106173000Y-83156359D01*
%TO.C,R1*%
X100837000Y-83463641D02*
X100837000Y-83156359D01*
X100077000Y-83463641D02*
X100077000Y-83156359D01*
%TO.C,C7*%
X92215580Y-74420000D02*
X91934420Y-74420000D01*
X92215580Y-75440000D02*
X91934420Y-75440000D01*
%TO.C,L2*%
X91854000Y-72397252D02*
X91854000Y-71874748D01*
X94074000Y-72397252D02*
X94074000Y-71874748D01*
%TO.C,C15*%
X95356000Y-77108164D02*
X95356000Y-77323836D01*
X94636000Y-77108164D02*
X94636000Y-77323836D01*
%TO.C,C20*%
X112289000Y-77616164D02*
X112289000Y-77831836D01*
X113009000Y-77616164D02*
X113009000Y-77831836D01*
%TO.C,C25*%
X111972164Y-70972000D02*
X112187836Y-70972000D01*
X111972164Y-70252000D02*
X112187836Y-70252000D01*
%TO.C,R2*%
X101093000Y-83463641D02*
X101093000Y-83156359D01*
X101853000Y-83463641D02*
X101853000Y-83156359D01*
%TO.C,C4*%
X102889164Y-81426000D02*
X103104836Y-81426000D01*
X102889164Y-82146000D02*
X103104836Y-82146000D01*
%TO.C,C24*%
X95483000Y-73933164D02*
X95483000Y-74148836D01*
X94763000Y-73933164D02*
X94763000Y-74148836D01*
D10*
%TO.C,D6*%
X94665000Y-81182000D02*
G75*
G03*
X94665000Y-81182000I-50000J0D01*
G01*
D15*
%TO.C,R6*%
X114707641Y-82168000D02*
X114400359Y-82168000D01*
X114707641Y-81408000D02*
X114400359Y-81408000D01*
%TO.C,R14*%
X111225359Y-56641000D02*
X111532641Y-56641000D01*
X111225359Y-55881000D02*
X111532641Y-55881000D01*
%TO.C,C23*%
X96499000Y-73933164D02*
X96499000Y-74148836D01*
X95779000Y-73933164D02*
X95779000Y-74148836D01*
D10*
%TO.C,D3*%
X97332000Y-81182000D02*
G75*
G03*
X97332000Y-81182000I-50000J0D01*
G01*
D15*
%TO.C,L1*%
X92953721Y-61597000D02*
X93279279Y-61597000D01*
X92953721Y-60577000D02*
X93279279Y-60577000D01*
D10*
%TO.C,D8*%
X99716000Y-83439000D02*
G75*
G03*
X99716000Y-83439000I-50000J0D01*
G01*
D15*
%TO.C,C29*%
X110638000Y-58058164D02*
X110638000Y-58273836D01*
X111358000Y-58058164D02*
X111358000Y-58273836D01*
%TO.C,R5*%
X114707641Y-83311000D02*
X114400359Y-83311000D01*
X114707641Y-82551000D02*
X114400359Y-82551000D01*
%TO.C,R7*%
X104141000Y-83463641D02*
X104141000Y-83156359D01*
X104901000Y-83463641D02*
X104901000Y-83156359D01*
%TO.C,C28*%
X111993000Y-61233164D02*
X111993000Y-61448836D01*
X111273000Y-61233164D02*
X111273000Y-61448836D01*
%TO.C,C21*%
X111993000Y-77616164D02*
X111993000Y-77831836D01*
X111273000Y-77616164D02*
X111273000Y-77831836D01*
%TO.C,U2*%
X89281000Y-67147000D02*
X90081000Y-67147000D01*
X89281000Y-67147000D02*
X87481000Y-67147000D01*
X89281000Y-70267000D02*
X90081000Y-70267000D01*
X89281000Y-70267000D02*
X88481000Y-70267000D01*
%TO.C,C27*%
X111271164Y-54631000D02*
X111486836Y-54631000D01*
X111271164Y-55351000D02*
X111486836Y-55351000D01*
%TO.C,R8*%
X105917000Y-83463641D02*
X105917000Y-83156359D01*
X105157000Y-83463641D02*
X105157000Y-83156359D01*
%TO.C,U4*%
X99472000Y-79405000D02*
X99472000Y-80695000D01*
X98522000Y-69185000D02*
X99472000Y-69185000D01*
X108742000Y-70135000D02*
X108742000Y-69185000D01*
X108742000Y-78455000D02*
X108742000Y-79405000D01*
X98522000Y-79405000D02*
X99472000Y-79405000D01*
X108742000Y-69185000D02*
X107792000Y-69185000D01*
X98522000Y-78455000D02*
X98522000Y-79405000D01*
X98522000Y-70135000D02*
X98522000Y-69185000D01*
X108742000Y-79405000D02*
X107792000Y-79405000D01*
D10*
%TO.C,D4*%
X96443000Y-81182000D02*
G75*
G03*
X96443000Y-81182000I-50000J0D01*
G01*
D15*
%TO.C,J3*%
X106047000Y-86427000D02*
X105027000Y-86427000D01*
X108137000Y-86427000D02*
X108137000Y-91627000D01*
X100967000Y-91627000D02*
X99947000Y-91627000D01*
X103507000Y-86427000D02*
X102487000Y-86427000D01*
X95317000Y-86427000D02*
X95317000Y-91627000D01*
X95887000Y-86427000D02*
X95317000Y-86427000D01*
X108137000Y-91627000D02*
X107567000Y-91627000D01*
X95887000Y-91627000D02*
X95317000Y-91627000D01*
X98427000Y-86427000D02*
X97407000Y-86427000D01*
X108137000Y-86427000D02*
X107567000Y-86427000D01*
X107567000Y-91627000D02*
X107567000Y-92987000D01*
X100967000Y-86427000D02*
X99947000Y-86427000D01*
X106047000Y-91627000D02*
X105027000Y-91627000D01*
X98427000Y-91627000D02*
X97407000Y-91627000D01*
X103507000Y-91627000D02*
X102487000Y-91627000D01*
%TO.C,C13*%
X86974000Y-76106836D02*
X86974000Y-75891164D01*
X86254000Y-76106836D02*
X86254000Y-75891164D01*
%TO.C,R13*%
X102843359Y-53085000D02*
X103150641Y-53085000D01*
X102843359Y-52325000D02*
X103150641Y-52325000D01*
%TO.C,U3*%
X87273000Y-74789000D02*
X89273000Y-74789000D01*
X89273000Y-77029000D02*
X88273000Y-77029000D01*
%TO.C,C17*%
X95991000Y-69742164D02*
X95991000Y-69957836D01*
X95271000Y-69742164D02*
X95271000Y-69957836D01*
%TO.C,R4*%
X103125000Y-83463641D02*
X103125000Y-83156359D01*
X103885000Y-83463641D02*
X103885000Y-83156359D01*
D10*
%TO.C,D2*%
X98221000Y-81182000D02*
G75*
G03*
X98221000Y-81182000I-50000J0D01*
G01*
D15*
%TO.C,U1*%
X89281000Y-70793000D02*
X87481000Y-70793000D01*
X89281000Y-73913000D02*
X88481000Y-73913000D01*
X89281000Y-70793000D02*
X90081000Y-70793000D01*
X89281000Y-73913000D02*
X90081000Y-73913000D01*
%TO.C,C26*%
X112580748Y-72871000D02*
X113103252Y-72871000D01*
X112580748Y-71401000D02*
X113103252Y-71401000D01*
%TO.C,C22*%
X111972164Y-73300000D02*
X112187836Y-73300000D01*
X111972164Y-74020000D02*
X112187836Y-74020000D01*
%TO.C,C16*%
X96920164Y-69702000D02*
X97135836Y-69702000D01*
X96920164Y-68982000D02*
X97135836Y-68982000D01*
%TO.C,C11*%
X90191000Y-78124164D02*
X90191000Y-78339836D01*
X90911000Y-78124164D02*
X90911000Y-78339836D01*
%TO.C,C12*%
X93705000Y-77108164D02*
X93705000Y-77323836D01*
X92985000Y-77108164D02*
X92985000Y-77323836D01*
D10*
%TO.C,D7*%
X93776000Y-81182000D02*
G75*
G03*
X93776000Y-81182000I-50000J0D01*
G01*
D15*
%TO.C,R12*%
X109727000Y-81507359D02*
X109727000Y-81814641D01*
X108967000Y-81507359D02*
X108967000Y-81814641D01*
D10*
%TO.C,D5*%
X95554000Y-81182000D02*
G75*
G03*
X95554000Y-81182000I-50000J0D01*
G01*
D15*
%TO.C,C19*%
X112228000Y-75330164D02*
X112228000Y-75545836D01*
X112948000Y-75330164D02*
X112948000Y-75545836D01*
%TD*%
%LPC*%
D18*
%TO.C,D1*%
X108458000Y-81722000D03*
X108458000Y-82362000D03*
%TD*%
D19*
%TO.C,C18*%
X111572000Y-74958000D03*
X111572000Y-75918000D03*
%TD*%
D20*
%TO.C,J11*%
X99060000Y-51943000D03*
%TD*%
D21*
%TO.C,C5*%
X104549000Y-81786000D03*
X105509000Y-81786000D03*
%TD*%
D19*
%TO.C,C14*%
X96012000Y-76736000D03*
X96012000Y-77696000D03*
%TD*%
D20*
%TO.C,TP1*%
X112903000Y-82169000D03*
%TD*%
D22*
%TO.C,C3*%
X95555000Y-62624000D03*
X95555000Y-61074000D03*
%TD*%
D21*
%TO.C,C6*%
X106454000Y-81788000D03*
X107414000Y-81788000D03*
%TD*%
D19*
%TO.C,C10*%
X92202000Y-67719000D03*
X92202000Y-68679000D03*
%TD*%
D20*
%TO.C,J8*%
X96774000Y-52705000D03*
%TD*%
D19*
%TO.C,C30*%
X94488000Y-65179000D03*
X94488000Y-66139000D03*
%TD*%
D23*
%TO.C,R10*%
X107569000Y-83820000D03*
X107569000Y-82800000D03*
%TD*%
D24*
%TO.C,SW1*%
X113792000Y-85090000D03*
X112522000Y-85090000D03*
X112522000Y-92710000D03*
X113792000Y-92710000D03*
%TD*%
D25*
%TO.C,J2*%
X89154000Y-86360000D03*
D26*
X89154000Y-84360000D03*
%TD*%
D27*
%TO.C,J1*%
X115131000Y-67240000D03*
D28*
X115131000Y-65990000D03*
X115131000Y-64740000D03*
X115131000Y-63490000D03*
X115131000Y-62240000D03*
X115131000Y-60990000D03*
X115131000Y-59740000D03*
X115131000Y-58490000D03*
%TD*%
D21*
%TO.C,C1*%
X100485000Y-81788000D03*
X101445000Y-81788000D03*
%TD*%
D20*
%TO.C,TP3*%
X110490000Y-68453000D03*
%TD*%
D22*
%TO.C,C2*%
X90729000Y-62624000D03*
X90729000Y-61074000D03*
%TD*%
D19*
%TO.C,C31*%
X95504000Y-65179000D03*
X95504000Y-66139000D03*
%TD*%
D23*
%TO.C,R3*%
X102489000Y-83820000D03*
X102489000Y-82800000D03*
%TD*%
D20*
%TO.C,J20*%
X96266000Y-67945000D03*
%TD*%
D29*
%TO.C,AE1*%
X88731000Y-61100000D03*
D30*
X87206000Y-62575000D03*
X87206000Y-59625000D03*
%TD*%
D31*
%TO.C,U5*%
X97732000Y-55525000D03*
X97732000Y-55925000D03*
X97732000Y-56325000D03*
X97732000Y-56725000D03*
X97732000Y-57125000D03*
X97732000Y-57525000D03*
X97732000Y-57925000D03*
X97732000Y-58325000D03*
X97732000Y-58725000D03*
X97732000Y-59125000D03*
X97732000Y-59525000D03*
X97732000Y-59925000D03*
X97732000Y-60325000D03*
X97732000Y-60725000D03*
X97732000Y-61125000D03*
X97732000Y-61525000D03*
X97732000Y-61925000D03*
X97732000Y-62325000D03*
X97732000Y-62725000D03*
X97732000Y-63125000D03*
X97732000Y-63525000D03*
X97732000Y-63925000D03*
X97732000Y-64325000D03*
X97732000Y-64725000D03*
X97732000Y-65125000D03*
D32*
X98832000Y-66225000D03*
X99232000Y-66225000D03*
X99632000Y-66225000D03*
X100032000Y-66225000D03*
X100432000Y-66225000D03*
X100832000Y-66225000D03*
X101232000Y-66225000D03*
X101632000Y-66225000D03*
X102032000Y-66225000D03*
X102432000Y-66225000D03*
X102832000Y-66225000D03*
X103232000Y-66225000D03*
X103632000Y-66225000D03*
X104032000Y-66225000D03*
X104432000Y-66225000D03*
X104832000Y-66225000D03*
X105232000Y-66225000D03*
X105632000Y-66225000D03*
X106032000Y-66225000D03*
X106432000Y-66225000D03*
X106832000Y-66225000D03*
X107232000Y-66225000D03*
X107632000Y-66225000D03*
X108032000Y-66225000D03*
X108432000Y-66225000D03*
D31*
X109532000Y-65125000D03*
X109532000Y-64725000D03*
X109532000Y-64325000D03*
X109532000Y-63925000D03*
X109532000Y-63525000D03*
X109532000Y-63125000D03*
X109532000Y-62725000D03*
X109532000Y-62325000D03*
X109532000Y-61925000D03*
X109532000Y-61525000D03*
X109532000Y-61125000D03*
X109532000Y-60725000D03*
X109532000Y-60325000D03*
X109532000Y-59925000D03*
X109532000Y-59525000D03*
X109532000Y-59125000D03*
X109532000Y-58725000D03*
X109532000Y-58325000D03*
X109532000Y-57925000D03*
X109532000Y-57525000D03*
X109532000Y-57125000D03*
X109532000Y-56725000D03*
X109532000Y-56325000D03*
X109532000Y-55925000D03*
X109532000Y-55525000D03*
D32*
X108432000Y-54425000D03*
X108032000Y-54425000D03*
X107632000Y-54425000D03*
X107232000Y-54425000D03*
X106832000Y-54425000D03*
X106432000Y-54425000D03*
X106032000Y-54425000D03*
X105632000Y-54425000D03*
X105232000Y-54425000D03*
X104832000Y-54425000D03*
X104432000Y-54425000D03*
X104032000Y-54425000D03*
X103632000Y-54425000D03*
X103232000Y-54425000D03*
X102832000Y-54425000D03*
X102432000Y-54425000D03*
X102032000Y-54425000D03*
X101632000Y-54425000D03*
X101232000Y-54425000D03*
X100832000Y-54425000D03*
X100432000Y-54425000D03*
X100032000Y-54425000D03*
X99632000Y-54425000D03*
X99232000Y-54425000D03*
X98832000Y-54425000D03*
D33*
X100788250Y-58618750D03*
X101925750Y-57481250D03*
X101925750Y-56343750D03*
X103063250Y-62031250D03*
X107613250Y-64306250D03*
X106475750Y-58618750D03*
X105338250Y-60893750D03*
X104200750Y-62031250D03*
X107613250Y-62031250D03*
D34*
X99650750Y-60893750D03*
X101925750Y-59756250D03*
D33*
X99650750Y-62031250D03*
X105338250Y-64306250D03*
X99650750Y-60893750D03*
D34*
X103063250Y-63168750D03*
X101925750Y-60893750D03*
X106475750Y-58618750D03*
D33*
X106475750Y-60893750D03*
D34*
X101925750Y-58618750D03*
X103063250Y-59756250D03*
D33*
X103063250Y-56343750D03*
X105338250Y-63168750D03*
D34*
X106475750Y-56343750D03*
D33*
X104200750Y-58618750D03*
D34*
X99650750Y-59756250D03*
X105338250Y-62031250D03*
D33*
X103063250Y-59756250D03*
D34*
X100788250Y-63168750D03*
D33*
X105338250Y-56343750D03*
D34*
X106475750Y-57481250D03*
X104200750Y-57481250D03*
D33*
X106475750Y-56343750D03*
D34*
X103063250Y-64306250D03*
D33*
X107613250Y-58618750D03*
D34*
X101925750Y-56343750D03*
X100788250Y-58618750D03*
X103063250Y-56343750D03*
X107613250Y-57481250D03*
D33*
X104200750Y-59756250D03*
D34*
X99650750Y-58618750D03*
X100788250Y-57481250D03*
D33*
X101925750Y-59756250D03*
D34*
X104200750Y-58618750D03*
D33*
X99650750Y-59756250D03*
D34*
X104200750Y-64306250D03*
X99650750Y-57481250D03*
D33*
X100788250Y-57481250D03*
D34*
X106475750Y-64306250D03*
X105338250Y-60893750D03*
X101925750Y-62031250D03*
X104200750Y-60893750D03*
X105338250Y-63168750D03*
D33*
X104200750Y-63168750D03*
D34*
X106475750Y-60893750D03*
D33*
X99650750Y-64306250D03*
D34*
X99650750Y-64306250D03*
D33*
X107613250Y-60893750D03*
D34*
X106475750Y-59756250D03*
X104200750Y-59756250D03*
D33*
X100788250Y-62031250D03*
X101925750Y-60893750D03*
D34*
X99650750Y-63168750D03*
X100788250Y-59756250D03*
D33*
X100788250Y-56343750D03*
X100788250Y-59756250D03*
D34*
X101925750Y-64306250D03*
D33*
X106475750Y-59756250D03*
D34*
X107613250Y-62031250D03*
D33*
X107613250Y-63168750D03*
X100788250Y-64306250D03*
X104200750Y-64306250D03*
D34*
X107613250Y-60893750D03*
X107613250Y-58618750D03*
D33*
X101925750Y-63168750D03*
D34*
X105338250Y-58618750D03*
D33*
X106475750Y-63168750D03*
X104200750Y-57481250D03*
D34*
X103063250Y-60893750D03*
D33*
X105338250Y-62031250D03*
X99650750Y-57481250D03*
D34*
X107613250Y-64306250D03*
D33*
X107613250Y-56343750D03*
X103063250Y-58618750D03*
X100788250Y-63168750D03*
X105338250Y-57481250D03*
X104200750Y-56343750D03*
D34*
X103063250Y-62031250D03*
D33*
X106475750Y-62031250D03*
D34*
X99650750Y-62031250D03*
X101925750Y-57481250D03*
D33*
X105338250Y-58618750D03*
X103063250Y-60893750D03*
X103063250Y-64306250D03*
D34*
X105338250Y-64306250D03*
X106475750Y-62031250D03*
X103063250Y-58618750D03*
X107613250Y-63168750D03*
X103063250Y-57481250D03*
D33*
X101925750Y-64306250D03*
X107613250Y-57481250D03*
D34*
X105338250Y-56343750D03*
X105338250Y-59756250D03*
X104200750Y-63168750D03*
X107613250Y-56343750D03*
D33*
X101925750Y-62031250D03*
X104200750Y-60893750D03*
X106475750Y-64306250D03*
D34*
X101925750Y-63168750D03*
X100788250Y-62031250D03*
D33*
X103063250Y-63168750D03*
X101925750Y-58618750D03*
X107613250Y-59756250D03*
X105338250Y-59756250D03*
D34*
X105338250Y-57481250D03*
X104200750Y-56343750D03*
D33*
X99650750Y-56343750D03*
X103063250Y-57481250D03*
D34*
X100788250Y-64306250D03*
X99650750Y-56343750D03*
X104200750Y-62031250D03*
D33*
X100788250Y-60893750D03*
X106475750Y-57481250D03*
D34*
X106475750Y-63168750D03*
D33*
X99650750Y-63168750D03*
X99650750Y-58618750D03*
D34*
X107613250Y-59756250D03*
X100788250Y-60893750D03*
X100788250Y-56343750D03*
%TD*%
D19*
%TO.C,C8*%
X86614000Y-71238000D03*
X86614000Y-72198000D03*
%TD*%
D35*
%TO.C,R11*%
X110363000Y-81151000D03*
X110363000Y-82171000D03*
%TD*%
D19*
%TO.C,C9*%
X86614000Y-67719000D03*
X86614000Y-68679000D03*
%TD*%
D20*
%TO.C,J4*%
X97790000Y-51816000D03*
%TD*%
D23*
%TO.C,R9*%
X106553000Y-83820000D03*
X106553000Y-82800000D03*
%TD*%
%TO.C,R1*%
X100457000Y-83820000D03*
X100457000Y-82800000D03*
%TD*%
D36*
%TO.C,C7*%
X92850000Y-74930000D03*
X91300000Y-74930000D03*
%TD*%
D37*
%TO.C,L2*%
X92964000Y-73211000D03*
X92964000Y-71061000D03*
%TD*%
D19*
%TO.C,C15*%
X94996000Y-76736000D03*
X94996000Y-77696000D03*
%TD*%
%TO.C,C20*%
X112649000Y-77244000D03*
X112649000Y-78204000D03*
%TD*%
D21*
%TO.C,C25*%
X111600000Y-70612000D03*
X112560000Y-70612000D03*
%TD*%
D23*
%TO.C,R2*%
X101473000Y-83820000D03*
X101473000Y-82800000D03*
%TD*%
D20*
%TO.C,TP2*%
X111633000Y-82169000D03*
%TD*%
%TO.C,J5*%
X106426000Y-52197000D03*
%TD*%
D21*
%TO.C,C4*%
X102517000Y-81786000D03*
X103477000Y-81786000D03*
%TD*%
D19*
%TO.C,C24*%
X95123000Y-73561000D03*
X95123000Y-74521000D03*
%TD*%
D18*
%TO.C,D6*%
X94615000Y-81722000D03*
X94615000Y-82362000D03*
%TD*%
D38*
%TO.C,R6*%
X115064000Y-81788000D03*
X114044000Y-81788000D03*
%TD*%
D39*
%TO.C,R14*%
X110869000Y-56261000D03*
X111889000Y-56261000D03*
%TD*%
D19*
%TO.C,C23*%
X96139000Y-73561000D03*
X96139000Y-74521000D03*
%TD*%
D18*
%TO.C,D3*%
X97282000Y-81722000D03*
X97282000Y-82362000D03*
%TD*%
D40*
%TO.C,L1*%
X92329000Y-61087000D03*
X93904000Y-61087000D03*
%TD*%
D41*
%TO.C,D8*%
X99126000Y-83439000D03*
X98486000Y-83439000D03*
%TD*%
D19*
%TO.C,C29*%
X110998000Y-57686000D03*
X110998000Y-58646000D03*
%TD*%
D38*
%TO.C,R5*%
X115064000Y-82931000D03*
X114044000Y-82931000D03*
%TD*%
D23*
%TO.C,R7*%
X104521000Y-83820000D03*
X104521000Y-82800000D03*
%TD*%
D19*
%TO.C,C28*%
X111633000Y-60861000D03*
X111633000Y-61821000D03*
%TD*%
D20*
%TO.C,J6*%
X101473000Y-52070000D03*
%TD*%
D19*
%TO.C,C21*%
X111633000Y-77244000D03*
X111633000Y-78204000D03*
%TD*%
D42*
%TO.C,U2*%
X88143500Y-67757000D03*
X88143500Y-68707000D03*
X88143500Y-69657000D03*
X90418500Y-69657000D03*
X90418500Y-67757000D03*
%TD*%
D20*
%TO.C,J17*%
X111633000Y-67437000D03*
%TD*%
D21*
%TO.C,C27*%
X110899000Y-54991000D03*
X111859000Y-54991000D03*
%TD*%
D23*
%TO.C,R8*%
X105537000Y-83820000D03*
X105537000Y-82800000D03*
%TD*%
D43*
%TO.C,U4*%
X99882000Y-79957500D03*
X100382000Y-79957500D03*
X100882000Y-79957500D03*
X101382000Y-79957500D03*
X101882000Y-79957500D03*
X102382000Y-79957500D03*
X102882000Y-79957500D03*
X103382000Y-79957500D03*
X103882000Y-79957500D03*
X104382000Y-79957500D03*
X104882000Y-79957500D03*
X105382000Y-79957500D03*
X105882000Y-79957500D03*
X106382000Y-79957500D03*
X106882000Y-79957500D03*
X107382000Y-79957500D03*
D44*
X109294500Y-78045000D03*
X109294500Y-77545000D03*
X109294500Y-77045000D03*
X109294500Y-76545000D03*
X109294500Y-76045000D03*
X109294500Y-75545000D03*
X109294500Y-75045000D03*
X109294500Y-74545000D03*
X109294500Y-74045000D03*
X109294500Y-73545000D03*
X109294500Y-73045000D03*
X109294500Y-72545000D03*
X109294500Y-72045000D03*
X109294500Y-71545000D03*
X109294500Y-71045000D03*
X109294500Y-70545000D03*
D43*
X107382000Y-68632500D03*
X106882000Y-68632500D03*
X106382000Y-68632500D03*
X105882000Y-68632500D03*
X105382000Y-68632500D03*
X104882000Y-68632500D03*
X104382000Y-68632500D03*
X103882000Y-68632500D03*
X103382000Y-68632500D03*
X102882000Y-68632500D03*
X102382000Y-68632500D03*
X101882000Y-68632500D03*
X101382000Y-68632500D03*
X100882000Y-68632500D03*
X100382000Y-68632500D03*
X99882000Y-68632500D03*
D44*
X97969500Y-70545000D03*
X97969500Y-71045000D03*
X97969500Y-71545000D03*
X97969500Y-72045000D03*
X97969500Y-72545000D03*
X97969500Y-73045000D03*
X97969500Y-73545000D03*
X97969500Y-74045000D03*
X97969500Y-74545000D03*
X97969500Y-75045000D03*
X97969500Y-75545000D03*
X97969500Y-76045000D03*
X97969500Y-76545000D03*
X97969500Y-77045000D03*
X97969500Y-77545000D03*
X97969500Y-78045000D03*
%TD*%
D18*
%TO.C,D4*%
X96393000Y-81722000D03*
X96393000Y-82362000D03*
%TD*%
D45*
%TO.C,J3*%
X106807000Y-91547000D03*
X106807000Y-86507000D03*
X104267000Y-91547000D03*
X104267000Y-86507000D03*
X101727000Y-91547000D03*
X101727000Y-86507000D03*
X99187000Y-91547000D03*
X99187000Y-86507000D03*
X96647000Y-91547000D03*
X96647000Y-86507000D03*
%TD*%
D46*
%TO.C,C13*%
X86614000Y-76479000D03*
X86614000Y-75519000D03*
%TD*%
D39*
%TO.C,R13*%
X102487000Y-52705000D03*
X103507000Y-52705000D03*
%TD*%
D47*
%TO.C,U3*%
X87823000Y-75159000D03*
X87823000Y-75659000D03*
X87823000Y-76159000D03*
X87823000Y-76659000D03*
X89723000Y-76659000D03*
X89723000Y-76159000D03*
X89723000Y-75659000D03*
X89723000Y-75159000D03*
D48*
X88773000Y-75909000D03*
%TD*%
D19*
%TO.C,C17*%
X95631000Y-69370000D03*
X95631000Y-70330000D03*
%TD*%
D20*
%TO.C,J16*%
X110871000Y-59944000D03*
%TD*%
D23*
%TO.C,R4*%
X103505000Y-83820000D03*
X103505000Y-82800000D03*
%TD*%
D18*
%TO.C,D2*%
X98171000Y-81722000D03*
X98171000Y-82362000D03*
%TD*%
D42*
%TO.C,U1*%
X88143500Y-71403000D03*
X88143500Y-72353000D03*
X88143500Y-73303000D03*
X90418500Y-73303000D03*
X90418500Y-71403000D03*
%TD*%
D49*
%TO.C,C26*%
X111892000Y-72136000D03*
X113792000Y-72136000D03*
%TD*%
D21*
%TO.C,C22*%
X111600000Y-73660000D03*
X112560000Y-73660000D03*
%TD*%
%TO.C,C16*%
X96548000Y-69342000D03*
X97508000Y-69342000D03*
%TD*%
D19*
%TO.C,C11*%
X90551000Y-77752000D03*
X90551000Y-78712000D03*
%TD*%
%TO.C,C12*%
X93345000Y-76736000D03*
X93345000Y-77696000D03*
%TD*%
D18*
%TO.C,D7*%
X93726000Y-81722000D03*
X93726000Y-82362000D03*
%TD*%
D35*
%TO.C,R12*%
X109347000Y-81151000D03*
X109347000Y-82171000D03*
%TD*%
D18*
%TO.C,D5*%
X95504000Y-81722000D03*
X95504000Y-82362000D03*
%TD*%
D19*
%TO.C,C19*%
X112588000Y-74958000D03*
X112588000Y-75918000D03*
%TD*%
M02*
