%TF.GenerationSoftware,KiCad,Pcbnew,(6.0.7)*%
%TF.CreationDate,2023-05-26T21:46:43-07:00*%
%TF.ProjectId,sulu_ads1299,73756c75-5f61-4647-9331-3239392e6b69,rev?*%
%TF.SameCoordinates,Original*%
%TF.FileFunction,Soldermask,Bot*%
%TF.FilePolarity,Negative*%
%FSLAX46Y46*%
G04 Gerber Fmt 4.6, Leading zero omitted, Abs format (unit mm)*
G04 Created by KiCad (PCBNEW (6.0.7)) date 2023-05-26 21:46:43*
%MOMM*%
%LPD*%
G01*
G04 APERTURE LIST*
G04 Aperture macros list*
%AMRoundRect*
0 Rectangle with rounded corners*
0 $1 Rounding radius*
0 $2 $3 $4 $5 $6 $7 $8 $9 X,Y pos of 4 corners*
0 Add a 4 corners polygon primitive as box body*
4,1,4,$2,$3,$4,$5,$6,$7,$8,$9,$2,$3,0*
0 Add four circle primitives for the rounded corners*
1,1,$1+$1,$2,$3*
1,1,$1+$1,$4,$5*
1,1,$1+$1,$6,$7*
1,1,$1+$1,$8,$9*
0 Add four rect primitives between the rounded corners*
20,1,$1+$1,$2,$3,$4,$5,0*
20,1,$1+$1,$4,$5,$6,$7,0*
20,1,$1+$1,$6,$7,$8,$9,0*
20,1,$1+$1,$8,$9,$2,$3,0*%
G04 Aperture macros list end*
%ADD10C,0.762000*%
%ADD11RoundRect,0.250000X0.625000X-0.350000X0.625000X0.350000X-0.625000X0.350000X-0.625000X-0.350000X0*%
%ADD12O,1.750000X1.200000*%
%ADD13RoundRect,0.200000X0.450000X-0.200000X0.450000X0.200000X-0.450000X0.200000X-0.450000X-0.200000X0*%
%ADD14O,1.300000X0.800000*%
%ADD15C,0.568750*%
G04 APERTURE END LIST*
D10*
%TO.C,J11*%
X99060000Y-51943000D03*
%TD*%
%TO.C,TP1*%
X112903000Y-82169000D03*
%TD*%
%TO.C,J8*%
X96774000Y-52705000D03*
%TD*%
D11*
%TO.C,J2*%
X89154000Y-86360000D03*
D12*
X89154000Y-84360000D03*
%TD*%
D13*
%TO.C,J1*%
X115131000Y-67240000D03*
D14*
X115131000Y-65990000D03*
X115131000Y-64740000D03*
X115131000Y-63490000D03*
X115131000Y-62240000D03*
X115131000Y-60990000D03*
X115131000Y-59740000D03*
X115131000Y-58490000D03*
%TD*%
D10*
%TO.C,TP3*%
X110490000Y-68453000D03*
%TD*%
%TO.C,J20*%
X96266000Y-67945000D03*
%TD*%
D15*
%TO.C,U5*%
X99650750Y-60893750D03*
X101925750Y-59756250D03*
X103063250Y-63168750D03*
X101925750Y-60893750D03*
X106475750Y-58618750D03*
X101925750Y-58618750D03*
X103063250Y-59756250D03*
X106475750Y-56343750D03*
X99650750Y-59756250D03*
X105338250Y-62031250D03*
X100788250Y-63168750D03*
X106475750Y-57481250D03*
X104200750Y-57481250D03*
X103063250Y-64306250D03*
X101925750Y-56343750D03*
X100788250Y-58618750D03*
X103063250Y-56343750D03*
X107613250Y-57481250D03*
X99650750Y-58618750D03*
X100788250Y-57481250D03*
X104200750Y-58618750D03*
X104200750Y-64306250D03*
X99650750Y-57481250D03*
X106475750Y-64306250D03*
X105338250Y-60893750D03*
X101925750Y-62031250D03*
X104200750Y-60893750D03*
X105338250Y-63168750D03*
X106475750Y-60893750D03*
X99650750Y-64306250D03*
X106475750Y-59756250D03*
X104200750Y-59756250D03*
X99650750Y-63168750D03*
X100788250Y-59756250D03*
X101925750Y-64306250D03*
X107613250Y-62031250D03*
X107613250Y-60893750D03*
X107613250Y-58618750D03*
X105338250Y-58618750D03*
X103063250Y-60893750D03*
X107613250Y-64306250D03*
X103063250Y-62031250D03*
X99650750Y-62031250D03*
X101925750Y-57481250D03*
X105338250Y-64306250D03*
X106475750Y-62031250D03*
X103063250Y-58618750D03*
X107613250Y-63168750D03*
X103063250Y-57481250D03*
X105338250Y-56343750D03*
X105338250Y-59756250D03*
X104200750Y-63168750D03*
X107613250Y-56343750D03*
X101925750Y-63168750D03*
X100788250Y-62031250D03*
X105338250Y-57481250D03*
X104200750Y-56343750D03*
X100788250Y-64306250D03*
X99650750Y-56343750D03*
X104200750Y-62031250D03*
X106475750Y-63168750D03*
X107613250Y-59756250D03*
X100788250Y-60893750D03*
X100788250Y-56343750D03*
%TD*%
D10*
%TO.C,J4*%
X97790000Y-51816000D03*
%TD*%
%TO.C,TP2*%
X111633000Y-82169000D03*
%TD*%
%TO.C,J5*%
X106426000Y-52197000D03*
%TD*%
%TO.C,J6*%
X101473000Y-52070000D03*
%TD*%
%TO.C,J17*%
X111633000Y-67437000D03*
%TD*%
%TO.C,J16*%
X110871000Y-59944000D03*
%TD*%
M02*
