M48
; DRILL file {KiCad (6.0.7)} date Fri May 26 21:46:43 2023
; FORMAT={-:-/ absolute / inch / decimal}
; #@! TF.CreationDate,2023-05-26T21:46:43-07:00
; #@! TF.GenerationSoftware,Kicad,Pcbnew,(6.0.7)
; #@! TF.FileFunction,Plated,1,2,PTH
FMAT,2
INCH
; #@! TA.AperFunction,Plated,PTH,ViaDrill
T1C0.0060
; #@! TA.AperFunction,Plated,PTH,ViaDrill
T2C0.0080
; #@! TA.AperFunction,Plated,PTH,ComponentDrill
T3C0.0098
; #@! TA.AperFunction,Plated,PTH,ComponentDrill
T4C0.0112
; #@! TA.AperFunction,Plated,PTH,ViaDrill
T5C0.0120
; #@! TA.AperFunction,Plated,PTH,ComponentDrill
T6C0.0150
; #@! TA.AperFunction,Plated,PTH,ViaDrill
T7C0.0160
; #@! TA.AperFunction,Plated,PTH,ComponentDrill
T8C0.0197
; #@! TA.AperFunction,Plated,PTH,ComponentDrill
T9C0.0295
%
G90
G05
T1
X3.69Y-3.17
X3.725Y-3.1855
X3.76Y-3.1855
X3.795Y-3.15
X3.815Y-2.215
X3.8409Y-3.1509
X3.88Y-2.52
X3.925Y-2.1
X3.955Y-2.1
X3.975Y-2.65
X4.005Y-2.65
X4.03Y-2.65
X4.03Y-2.805
X4.0361Y-3.2199
X4.04Y-3.0805
X4.045Y-2.575
X4.05Y-2.775
X4.0739Y-3.2199
X4.075Y-3.045
X4.09Y-2.655
X4.135Y-2.755
X4.14Y-2.575
X4.1459Y-3.0741
X4.155Y-2.635
X4.18Y-3.335
X4.19Y-3.095
X4.275Y-2.42
X4.2966Y-3.2616
X4.355Y-2.975
X4.3661Y-2.165
T2
X3.68Y-2.56
X3.88Y-2.08
X3.88Y-2.255
X3.88Y-2.45
X3.98Y-3.195
X3.995Y-2.865
X4.01Y-3.195
X4.08Y-3.095
X4.11Y-3.1
X4.205Y-2.57
X4.205Y-2.65
X4.215Y-3.005
X4.235Y-2.65
X4.26Y-3.05
X4.28Y-2.46
X4.35Y-2.595
X4.395Y-2.545
X4.41Y-2.615
X4.42Y-2.51
X4.455Y-3.2
X4.48Y-2.595
X4.49Y-3.29
X4.53Y-2.95
T3
X3.495Y-2.9689
X3.495Y-3.0082
T4
X3.9233Y-2.2183
X3.9233Y-2.263
X3.9233Y-2.3078
X3.9233Y-2.3526
X3.9233Y-2.3974
X3.9233Y-2.4422
X3.9233Y-2.487
X3.9233Y-2.5317
X3.968Y-2.2183
X3.968Y-2.263
X3.968Y-2.3078
X3.968Y-2.3526
X3.968Y-2.3974
X3.968Y-2.4422
X3.968Y-2.487
X3.968Y-2.5317
X4.0128Y-2.2183
X4.0128Y-2.263
X4.0128Y-2.3078
X4.0128Y-2.3526
X4.0128Y-2.3974
X4.0128Y-2.4422
X4.0128Y-2.487
X4.0128Y-2.5317
X4.0576Y-2.2183
X4.0576Y-2.263
X4.0576Y-2.3078
X4.0576Y-2.3526
X4.0576Y-2.3974
X4.0576Y-2.4422
X4.0576Y-2.487
X4.0576Y-2.5317
X4.1024Y-2.2183
X4.1024Y-2.263
X4.1024Y-2.3078
X4.1024Y-2.3526
X4.1024Y-2.3974
X4.1024Y-2.4422
X4.1024Y-2.487
X4.1024Y-2.5317
X4.1472Y-2.2183
X4.1472Y-2.263
X4.1472Y-2.3078
X4.1472Y-2.3526
X4.1472Y-2.3974
X4.1472Y-2.4422
X4.1472Y-2.487
X4.1472Y-2.5317
X4.192Y-2.2183
X4.192Y-2.263
X4.192Y-2.3078
X4.192Y-2.3526
X4.192Y-2.3974
X4.192Y-2.4422
X4.192Y-2.487
X4.192Y-2.5317
X4.2367Y-2.2183
X4.2367Y-2.263
X4.2367Y-2.3078
X4.2367Y-2.3526
X4.2367Y-2.3974
X4.2367Y-2.4422
X4.2367Y-2.487
X4.2367Y-2.5317
T5
X3.365Y-2.315
X3.365Y-2.385
X3.365Y-2.45
X3.365Y-2.51
X3.405Y-2.28
X3.405Y-2.53
X3.485Y-2.28
X3.485Y-2.53
X3.565Y-2.28
X3.565Y-2.53
X3.575Y-3.02
X3.64Y-3.02
X3.645Y-2.28
X3.645Y-2.53
X3.725Y-2.28
X3.725Y-2.53
X3.8Y-2.28
T6
X3.79Y-2.675
X3.81Y-2.075
X3.85Y-2.04
X3.9Y-2.045
X3.995Y-2.05
X4.19Y-2.055
X4.35Y-2.695
X4.365Y-2.36
X4.395Y-2.655
X4.395Y-3.235
X4.445Y-3.235
T7
X3.37Y-3.055
X3.725Y-2.675
X3.765Y-2.985
X3.77Y-2.86
X4.305Y-2.745
T8
X4.5327Y-2.3028
X4.5327Y-2.352
X4.5327Y-2.4012
X4.5327Y-2.4504
X4.5327Y-2.4996
X4.5327Y-2.5488
X4.5327Y-2.598
X4.5327Y-2.6472
T9
X3.51Y-3.3213
X3.51Y-3.4
T0
M30
