%TF.GenerationSoftware,KiCad,Pcbnew,(6.0.7)*%
%TF.CreationDate,2023-05-31T15:48:29-07:00*%
%TF.ProjectId,sulu_ads1299,73756c75-5f61-4647-9331-3239392e6b69,rev?*%
%TF.SameCoordinates,Original*%
%TF.FileFunction,Paste,Top*%
%TF.FilePolarity,Positive*%
%FSLAX46Y46*%
G04 Gerber Fmt 4.6, Leading zero omitted, Abs format (unit mm)*
G04 Created by KiCad (PCBNEW (6.0.7)) date 2023-05-31 15:48:29*
%MOMM*%
%LPD*%
G01*
G04 APERTURE LIST*
G04 Aperture macros list*
%AMRoundRect*
0 Rectangle with rounded corners*
0 $1 Rounding radius*
0 $2 $3 $4 $5 $6 $7 $8 $9 X,Y pos of 4 corners*
0 Add a 4 corners polygon primitive as box body*
4,1,4,$2,$3,$4,$5,$6,$7,$8,$9,$2,$3,0*
0 Add four circle primitives for the rounded corners*
1,1,$1+$1,$2,$3*
1,1,$1+$1,$4,$5*
1,1,$1+$1,$6,$7*
1,1,$1+$1,$8,$9*
0 Add four rect primitives between the rounded corners*
20,1,$1+$1,$2,$3,$4,$5,0*
20,1,$1+$1,$4,$5,$6,$7,0*
20,1,$1+$1,$6,$7,$8,$9,0*
20,1,$1+$1,$8,$9,$2,$3,0*%
G04 Aperture macros list end*
%ADD10RoundRect,0.079500X-0.100500X0.079500X-0.100500X-0.079500X0.100500X-0.079500X0.100500X0.079500X0*%
%ADD11RoundRect,0.140000X-0.170000X0.140000X-0.170000X-0.140000X0.170000X-0.140000X0.170000X0.140000X0*%
%ADD12RoundRect,0.140000X-0.140000X-0.170000X0.140000X-0.170000X0.140000X0.170000X-0.140000X0.170000X0*%
%ADD13RoundRect,0.225000X0.250000X-0.225000X0.250000X0.225000X-0.250000X0.225000X-0.250000X-0.225000X0*%
%ADD14RoundRect,0.135000X0.185000X-0.135000X0.185000X0.135000X-0.185000X0.135000X-0.185000X-0.135000X0*%
%ADD15R,0.760000X1.270000*%
%ADD16R,1.050000X1.000000*%
%ADD17R,2.200000X1.050000*%
%ADD18O,0.800000X0.200000*%
%ADD19O,0.200000X0.800000*%
%ADD20RoundRect,0.135000X-0.185000X0.135000X-0.185000X-0.135000X0.185000X-0.135000X0.185000X0.135000X0*%
%ADD21RoundRect,0.225000X0.225000X0.250000X-0.225000X0.250000X-0.225000X-0.250000X0.225000X-0.250000X0*%
%ADD22RoundRect,0.250000X0.850000X-0.375000X0.850000X0.375000X-0.850000X0.375000X-0.850000X-0.375000X0*%
%ADD23RoundRect,0.135000X0.135000X0.185000X-0.135000X0.185000X-0.135000X-0.185000X0.135000X-0.185000X0*%
%ADD24RoundRect,0.135000X-0.135000X-0.185000X0.135000X-0.185000X0.135000X0.185000X-0.135000X0.185000X0*%
%ADD25RoundRect,0.218750X-0.218750X-0.256250X0.218750X-0.256250X0.218750X0.256250X-0.218750X0.256250X0*%
%ADD26RoundRect,0.079500X0.079500X0.100500X-0.079500X0.100500X-0.079500X-0.100500X0.079500X-0.100500X0*%
%ADD27RoundRect,0.150000X-0.512500X-0.150000X0.512500X-0.150000X0.512500X0.150000X-0.512500X0.150000X0*%
%ADD28RoundRect,0.075000X0.075000X-0.662500X0.075000X0.662500X-0.075000X0.662500X-0.075000X-0.662500X0*%
%ADD29RoundRect,0.075000X0.662500X-0.075000X0.662500X0.075000X-0.662500X0.075000X-0.662500X-0.075000X0*%
%ADD30R,1.000000X3.000000*%
%ADD31RoundRect,0.140000X0.170000X-0.140000X0.170000X0.140000X-0.170000X0.140000X-0.170000X-0.140000X0*%
%ADD32R,0.750000X0.650000*%
%ADD33R,0.500000X0.250000*%
%ADD34RoundRect,0.250000X-0.250000X-0.475000X0.250000X-0.475000X0.250000X0.475000X-0.250000X0.475000X0*%
G04 APERTURE END LIST*
D10*
%TO.C,D1*%
X108458000Y-81697000D03*
X108458000Y-82387000D03*
%TD*%
D11*
%TO.C,C18*%
X111572000Y-74958000D03*
X111572000Y-75918000D03*
%TD*%
D12*
%TO.C,C5*%
X104549000Y-81786000D03*
X105509000Y-81786000D03*
%TD*%
D11*
%TO.C,C14*%
X96012000Y-76736000D03*
X96012000Y-77696000D03*
%TD*%
D13*
%TO.C,C3*%
X95555000Y-62624000D03*
X95555000Y-61074000D03*
%TD*%
D12*
%TO.C,C6*%
X106454000Y-81788000D03*
X107414000Y-81788000D03*
%TD*%
D11*
%TO.C,C10*%
X92202000Y-67719000D03*
X92202000Y-68679000D03*
%TD*%
%TO.C,C30*%
X94488000Y-65179000D03*
X94488000Y-66139000D03*
%TD*%
D14*
%TO.C,R10*%
X107569000Y-83820000D03*
X107569000Y-82800000D03*
%TD*%
D15*
%TO.C,SW1*%
X113792000Y-85090000D03*
X112522000Y-85090000D03*
X112522000Y-92710000D03*
X113792000Y-92710000D03*
%TD*%
D12*
%TO.C,C1*%
X100485000Y-81788000D03*
X101445000Y-81788000D03*
%TD*%
D13*
%TO.C,C2*%
X90729000Y-62624000D03*
X90729000Y-61074000D03*
%TD*%
D11*
%TO.C,C31*%
X95504000Y-65179000D03*
X95504000Y-66139000D03*
%TD*%
D14*
%TO.C,R3*%
X102489000Y-83820000D03*
X102489000Y-82800000D03*
%TD*%
D16*
%TO.C,AE1*%
X88731000Y-61100000D03*
D17*
X87206000Y-62575000D03*
X87206000Y-59625000D03*
%TD*%
D18*
%TO.C,U5*%
X97732000Y-55525000D03*
X97732000Y-55925000D03*
X97732000Y-56325000D03*
X97732000Y-56725000D03*
X97732000Y-57125000D03*
X97732000Y-57525000D03*
X97732000Y-57925000D03*
X97732000Y-58325000D03*
X97732000Y-58725000D03*
X97732000Y-59125000D03*
X97732000Y-59525000D03*
X97732000Y-59925000D03*
X97732000Y-60325000D03*
X97732000Y-60725000D03*
X97732000Y-61125000D03*
X97732000Y-61525000D03*
X97732000Y-61925000D03*
X97732000Y-62325000D03*
X97732000Y-62725000D03*
X97732000Y-63125000D03*
X97732000Y-63525000D03*
X97732000Y-63925000D03*
X97732000Y-64325000D03*
X97732000Y-64725000D03*
X97732000Y-65125000D03*
D19*
X98832000Y-66225000D03*
X99232000Y-66225000D03*
X99632000Y-66225000D03*
X100032000Y-66225000D03*
X100432000Y-66225000D03*
X100832000Y-66225000D03*
X101232000Y-66225000D03*
X101632000Y-66225000D03*
X102032000Y-66225000D03*
X102432000Y-66225000D03*
X102832000Y-66225000D03*
X103232000Y-66225000D03*
X103632000Y-66225000D03*
X104032000Y-66225000D03*
X104432000Y-66225000D03*
X104832000Y-66225000D03*
X105232000Y-66225000D03*
X105632000Y-66225000D03*
X106032000Y-66225000D03*
X106432000Y-66225000D03*
X106832000Y-66225000D03*
X107232000Y-66225000D03*
X107632000Y-66225000D03*
X108032000Y-66225000D03*
X108432000Y-66225000D03*
D18*
X109532000Y-65125000D03*
X109532000Y-64725000D03*
X109532000Y-64325000D03*
X109532000Y-63925000D03*
X109532000Y-63525000D03*
X109532000Y-63125000D03*
X109532000Y-62725000D03*
X109532000Y-62325000D03*
X109532000Y-61925000D03*
X109532000Y-61525000D03*
X109532000Y-61125000D03*
X109532000Y-60725000D03*
X109532000Y-60325000D03*
X109532000Y-59925000D03*
X109532000Y-59525000D03*
X109532000Y-59125000D03*
X109532000Y-58725000D03*
X109532000Y-58325000D03*
X109532000Y-57925000D03*
X109532000Y-57525000D03*
X109532000Y-57125000D03*
X109532000Y-56725000D03*
X109532000Y-56325000D03*
X109532000Y-55925000D03*
X109532000Y-55525000D03*
D19*
X108432000Y-54425000D03*
X108032000Y-54425000D03*
X107632000Y-54425000D03*
X107232000Y-54425000D03*
X106832000Y-54425000D03*
X106432000Y-54425000D03*
X106032000Y-54425000D03*
X105632000Y-54425000D03*
X105232000Y-54425000D03*
X104832000Y-54425000D03*
X104432000Y-54425000D03*
X104032000Y-54425000D03*
X103632000Y-54425000D03*
X103232000Y-54425000D03*
X102832000Y-54425000D03*
X102432000Y-54425000D03*
X102032000Y-54425000D03*
X101632000Y-54425000D03*
X101232000Y-54425000D03*
X100832000Y-54425000D03*
X100432000Y-54425000D03*
X100032000Y-54425000D03*
X99632000Y-54425000D03*
X99232000Y-54425000D03*
X98832000Y-54425000D03*
%TD*%
D11*
%TO.C,C8*%
X86614000Y-71238000D03*
X86614000Y-72198000D03*
%TD*%
D20*
%TO.C,R11*%
X110363000Y-81151000D03*
X110363000Y-82171000D03*
%TD*%
D11*
%TO.C,C9*%
X86614000Y-67719000D03*
X86614000Y-68679000D03*
%TD*%
D14*
%TO.C,R9*%
X106553000Y-83820000D03*
X106553000Y-82800000D03*
%TD*%
%TO.C,R1*%
X100457000Y-83820000D03*
X100457000Y-82800000D03*
%TD*%
D21*
%TO.C,C7*%
X92850000Y-74930000D03*
X91300000Y-74930000D03*
%TD*%
D22*
%TO.C,L2*%
X92964000Y-73211000D03*
X92964000Y-71061000D03*
%TD*%
D11*
%TO.C,C15*%
X94996000Y-76736000D03*
X94996000Y-77696000D03*
%TD*%
%TO.C,C20*%
X112649000Y-77244000D03*
X112649000Y-78204000D03*
%TD*%
D12*
%TO.C,C25*%
X111600000Y-70612000D03*
X112560000Y-70612000D03*
%TD*%
D14*
%TO.C,R2*%
X101473000Y-83820000D03*
X101473000Y-82800000D03*
%TD*%
D12*
%TO.C,C4*%
X102517000Y-81786000D03*
X103477000Y-81786000D03*
%TD*%
D11*
%TO.C,C24*%
X95123000Y-73561000D03*
X95123000Y-74521000D03*
%TD*%
D10*
%TO.C,D6*%
X94615000Y-82387000D03*
X94615000Y-81697000D03*
%TD*%
D23*
%TO.C,R6*%
X115064000Y-81788000D03*
X114044000Y-81788000D03*
%TD*%
D24*
%TO.C,R14*%
X110869000Y-56261000D03*
X111889000Y-56261000D03*
%TD*%
D11*
%TO.C,C23*%
X96139000Y-73561000D03*
X96139000Y-74521000D03*
%TD*%
D10*
%TO.C,D3*%
X97282000Y-82387000D03*
X97282000Y-81697000D03*
%TD*%
D25*
%TO.C,L1*%
X92329000Y-61087000D03*
X93904000Y-61087000D03*
%TD*%
D26*
%TO.C,D8*%
X98461000Y-83439000D03*
X99151000Y-83439000D03*
%TD*%
D11*
%TO.C,C29*%
X110998000Y-57686000D03*
X110998000Y-58646000D03*
%TD*%
D23*
%TO.C,R5*%
X115064000Y-82931000D03*
X114044000Y-82931000D03*
%TD*%
D14*
%TO.C,R7*%
X104521000Y-83820000D03*
X104521000Y-82800000D03*
%TD*%
D11*
%TO.C,C28*%
X111633000Y-60861000D03*
X111633000Y-61821000D03*
%TD*%
%TO.C,C21*%
X111633000Y-77244000D03*
X111633000Y-78204000D03*
%TD*%
D27*
%TO.C,U2*%
X88143500Y-67757000D03*
X88143500Y-68707000D03*
X88143500Y-69657000D03*
X90418500Y-69657000D03*
X90418500Y-67757000D03*
%TD*%
D12*
%TO.C,C27*%
X110899000Y-54991000D03*
X111859000Y-54991000D03*
%TD*%
D14*
%TO.C,R8*%
X105537000Y-83820000D03*
X105537000Y-82800000D03*
%TD*%
D28*
%TO.C,U4*%
X99882000Y-79957500D03*
X100382000Y-79957500D03*
X100882000Y-79957500D03*
X101382000Y-79957500D03*
X101882000Y-79957500D03*
X102382000Y-79957500D03*
X102882000Y-79957500D03*
X103382000Y-79957500D03*
X103882000Y-79957500D03*
X104382000Y-79957500D03*
X104882000Y-79957500D03*
X105382000Y-79957500D03*
X105882000Y-79957500D03*
X106382000Y-79957500D03*
X106882000Y-79957500D03*
X107382000Y-79957500D03*
D29*
X109294500Y-78045000D03*
X109294500Y-77545000D03*
X109294500Y-77045000D03*
X109294500Y-76545000D03*
X109294500Y-76045000D03*
X109294500Y-75545000D03*
X109294500Y-75045000D03*
X109294500Y-74545000D03*
X109294500Y-74045000D03*
X109294500Y-73545000D03*
X109294500Y-73045000D03*
X109294500Y-72545000D03*
X109294500Y-72045000D03*
X109294500Y-71545000D03*
X109294500Y-71045000D03*
X109294500Y-70545000D03*
D28*
X107382000Y-68632500D03*
X106882000Y-68632500D03*
X106382000Y-68632500D03*
X105882000Y-68632500D03*
X105382000Y-68632500D03*
X104882000Y-68632500D03*
X104382000Y-68632500D03*
X103882000Y-68632500D03*
X103382000Y-68632500D03*
X102882000Y-68632500D03*
X102382000Y-68632500D03*
X101882000Y-68632500D03*
X101382000Y-68632500D03*
X100882000Y-68632500D03*
X100382000Y-68632500D03*
X99882000Y-68632500D03*
D29*
X97969500Y-70545000D03*
X97969500Y-71045000D03*
X97969500Y-71545000D03*
X97969500Y-72045000D03*
X97969500Y-72545000D03*
X97969500Y-73045000D03*
X97969500Y-73545000D03*
X97969500Y-74045000D03*
X97969500Y-74545000D03*
X97969500Y-75045000D03*
X97969500Y-75545000D03*
X97969500Y-76045000D03*
X97969500Y-76545000D03*
X97969500Y-77045000D03*
X97969500Y-77545000D03*
X97969500Y-78045000D03*
%TD*%
D10*
%TO.C,D4*%
X96393000Y-81697000D03*
X96393000Y-82387000D03*
%TD*%
D30*
%TO.C,J3*%
X106807000Y-91547000D03*
X106807000Y-86507000D03*
X104267000Y-91547000D03*
X104267000Y-86507000D03*
X101727000Y-91547000D03*
X101727000Y-86507000D03*
X99187000Y-91547000D03*
X99187000Y-86507000D03*
X96647000Y-91547000D03*
X96647000Y-86507000D03*
%TD*%
D31*
%TO.C,C13*%
X86614000Y-76479000D03*
X86614000Y-75519000D03*
%TD*%
D24*
%TO.C,R13*%
X102487000Y-52705000D03*
X103507000Y-52705000D03*
%TD*%
D32*
%TO.C,U3*%
X88773000Y-76309000D03*
X88773000Y-75509000D03*
D33*
X87823000Y-75159000D03*
X87823000Y-75659000D03*
X87823000Y-76159000D03*
X87823000Y-76659000D03*
X89723000Y-76659000D03*
X89723000Y-76159000D03*
X89723000Y-75659000D03*
X89723000Y-75159000D03*
%TD*%
D11*
%TO.C,C17*%
X95631000Y-69370000D03*
X95631000Y-70330000D03*
%TD*%
D14*
%TO.C,R4*%
X103505000Y-83820000D03*
X103505000Y-82800000D03*
%TD*%
D10*
%TO.C,D2*%
X98171000Y-82387000D03*
X98171000Y-81697000D03*
%TD*%
D27*
%TO.C,U1*%
X88143500Y-71403000D03*
X88143500Y-72353000D03*
X88143500Y-73303000D03*
X90418500Y-73303000D03*
X90418500Y-71403000D03*
%TD*%
D34*
%TO.C,C26*%
X111892000Y-72136000D03*
X113792000Y-72136000D03*
%TD*%
D12*
%TO.C,C22*%
X111600000Y-73660000D03*
X112560000Y-73660000D03*
%TD*%
%TO.C,C16*%
X96548000Y-69342000D03*
X97508000Y-69342000D03*
%TD*%
D11*
%TO.C,C11*%
X90551000Y-77752000D03*
X90551000Y-78712000D03*
%TD*%
%TO.C,C12*%
X93345000Y-76736000D03*
X93345000Y-77696000D03*
%TD*%
D10*
%TO.C,D7*%
X93726000Y-82387000D03*
X93726000Y-81697000D03*
%TD*%
D20*
%TO.C,R12*%
X109347000Y-81151000D03*
X109347000Y-82171000D03*
%TD*%
D10*
%TO.C,D5*%
X95504000Y-82387000D03*
X95504000Y-81697000D03*
%TD*%
D11*
%TO.C,C19*%
X112588000Y-74958000D03*
X112588000Y-75918000D03*
%TD*%
M02*
