%TF.GenerationSoftware,KiCad,Pcbnew,7.0.9*%
%TF.CreationDate,2024-02-09T20:47:06-08:00*%
%TF.ProjectId,sulu_ads1299,73756c75-5f61-4647-9331-3239392e6b69,rev?*%
%TF.SameCoordinates,Original*%
%TF.FileFunction,Soldermask,Bot*%
%TF.FilePolarity,Negative*%
%FSLAX46Y46*%
G04 Gerber Fmt 4.6, Leading zero omitted, Abs format (unit mm)*
G04 Created by KiCad (PCBNEW 7.0.9) date 2024-02-09 20:47:06*
%MOMM*%
%LPD*%
G01*
G04 APERTURE LIST*
G04 Aperture macros list*
%AMRoundRect*
0 Rectangle with rounded corners*
0 $1 Rounding radius*
0 $2 $3 $4 $5 $6 $7 $8 $9 X,Y pos of 4 corners*
0 Add a 4 corners polygon primitive as box body*
4,1,4,$2,$3,$4,$5,$6,$7,$8,$9,$2,$3,0*
0 Add four circle primitives for the rounded corners*
1,1,$1+$1,$2,$3*
1,1,$1+$1,$4,$5*
1,1,$1+$1,$6,$7*
1,1,$1+$1,$8,$9*
0 Add four rect primitives between the rounded corners*
20,1,$1+$1,$2,$3,$4,$5,0*
20,1,$1+$1,$4,$5,$6,$7,0*
20,1,$1+$1,$6,$7,$8,$9,0*
20,1,$1+$1,$8,$9,$2,$3,0*%
G04 Aperture macros list end*
%ADD10C,0.762000*%
%ADD11RoundRect,0.250000X-0.625000X0.350000X-0.625000X-0.350000X0.625000X-0.350000X0.625000X0.350000X0*%
%ADD12O,1.750000X1.200000*%
%ADD13RoundRect,0.200000X0.450000X-0.200000X0.450000X0.200000X-0.450000X0.200000X-0.450000X-0.200000X0*%
%ADD14O,1.300000X0.800000*%
%ADD15C,0.568750*%
G04 APERTURE END LIST*
D10*
%TO.C,J11*%
X94996000Y-55880000D03*
%TD*%
%TO.C,J8*%
X94488000Y-54610000D03*
%TD*%
D11*
%TO.C,J2*%
X88087200Y-87782400D03*
D12*
X88087200Y-89782400D03*
%TD*%
D13*
%TO.C,J1*%
X118433000Y-66351000D03*
D14*
X118433000Y-65101000D03*
X118433000Y-63851000D03*
X118433000Y-62601000D03*
X118433000Y-61351000D03*
X118433000Y-60101000D03*
X118433000Y-58851000D03*
X118433000Y-57601000D03*
%TD*%
D10*
%TO.C,TP3*%
X111379000Y-68453000D03*
%TD*%
%TO.C,J20*%
X96266000Y-67945000D03*
%TD*%
D15*
%TO.C,U5*%
X99650750Y-55454750D03*
X99650750Y-56592250D03*
X99650750Y-57729750D03*
X99650750Y-58867250D03*
X99650750Y-60004750D03*
X99650750Y-61142250D03*
X99650750Y-62279750D03*
X99650750Y-63417250D03*
X100788250Y-55454750D03*
X100788250Y-56592250D03*
X100788250Y-57729750D03*
X100788250Y-58867250D03*
X100788250Y-60004750D03*
X100788250Y-61142250D03*
X100788250Y-62279750D03*
X100788250Y-63417250D03*
X101925750Y-55454750D03*
X101925750Y-56592250D03*
X101925750Y-57729750D03*
X101925750Y-58867250D03*
X101925750Y-60004750D03*
X101925750Y-61142250D03*
X101925750Y-62279750D03*
X101925750Y-63417250D03*
X103063250Y-55454750D03*
X103063250Y-56592250D03*
X103063250Y-57729750D03*
X103063250Y-58867250D03*
X103063250Y-60004750D03*
X103063250Y-61142250D03*
X103063250Y-62279750D03*
X103063250Y-63417250D03*
X104200750Y-55454750D03*
X104200750Y-56592250D03*
X104200750Y-57729750D03*
X104200750Y-58867250D03*
X104200750Y-60004750D03*
X104200750Y-61142250D03*
X104200750Y-62279750D03*
X104200750Y-63417250D03*
X105338250Y-55454750D03*
X105338250Y-56592250D03*
X105338250Y-57729750D03*
X105338250Y-58867250D03*
X105338250Y-60004750D03*
X105338250Y-61142250D03*
X105338250Y-62279750D03*
X105338250Y-63417250D03*
X106475750Y-55454750D03*
X106475750Y-56592250D03*
X106475750Y-57729750D03*
X106475750Y-58867250D03*
X106475750Y-60004750D03*
X106475750Y-61142250D03*
X106475750Y-62279750D03*
X106475750Y-63417250D03*
X107613250Y-55454750D03*
X107613250Y-56592250D03*
X107613250Y-57729750D03*
X107613250Y-58867250D03*
X107613250Y-60004750D03*
X107613250Y-61142250D03*
X107613250Y-62279750D03*
X107613250Y-63417250D03*
%TD*%
D10*
%TO.C,J4*%
X98171000Y-52070000D03*
%TD*%
%TO.C,TP2*%
X111760000Y-82169000D03*
%TD*%
%TO.C,J5*%
X99695000Y-51943000D03*
%TD*%
%TO.C,J6*%
X101092000Y-52070000D03*
%TD*%
%TO.C,TP4*%
X117576600Y-88519000D03*
%TD*%
%TO.C,J16*%
X112014000Y-61722000D03*
%TD*%
D13*
%TO.C,J7*%
X118433000Y-79432000D03*
D14*
X118433000Y-78182000D03*
X118433000Y-76932000D03*
X118433000Y-75682000D03*
X118433000Y-74432000D03*
X118433000Y-73182000D03*
X118433000Y-71932000D03*
X118433000Y-70682000D03*
%TD*%
D10*
%TO.C,TP1*%
X111760000Y-83439000D03*
%TD*%
M02*
