%TF.GenerationSoftware,KiCad,Pcbnew,7.0.6*%
%TF.CreationDate,2024-02-04T23:38:57-08:00*%
%TF.ProjectId,sulu_ads1299,73756c75-5f61-4647-9331-3239392e6b69,rev?*%
%TF.SameCoordinates,Original*%
%TF.FileFunction,Soldermask,Top*%
%TF.FilePolarity,Negative*%
%FSLAX46Y46*%
G04 Gerber Fmt 4.6, Leading zero omitted, Abs format (unit mm)*
G04 Created by KiCad (PCBNEW 7.0.6) date 2024-02-04 23:38:57*
%MOMM*%
%LPD*%
G01*
G04 APERTURE LIST*
G04 Aperture macros list*
%AMRoundRect*
0 Rectangle with rounded corners*
0 $1 Rounding radius*
0 $2 $3 $4 $5 $6 $7 $8 $9 X,Y pos of 4 corners*
0 Add a 4 corners polygon primitive as box body*
4,1,4,$2,$3,$4,$5,$6,$7,$8,$9,$2,$3,0*
0 Add four circle primitives for the rounded corners*
1,1,$1+$1,$2,$3*
1,1,$1+$1,$4,$5*
1,1,$1+$1,$6,$7*
1,1,$1+$1,$8,$9*
0 Add four rect primitives between the rounded corners*
20,1,$1+$1,$2,$3,$4,$5,0*
20,1,$1+$1,$4,$5,$6,$7,0*
20,1,$1+$1,$6,$7,$8,$9,0*
20,1,$1+$1,$8,$9,$2,$3,0*%
G04 Aperture macros list end*
%ADD10RoundRect,0.218750X0.256250X-0.218750X0.256250X0.218750X-0.256250X0.218750X-0.256250X-0.218750X0*%
%ADD11RoundRect,0.250000X0.650000X-0.325000X0.650000X0.325000X-0.650000X0.325000X-0.650000X-0.325000X0*%
%ADD12RoundRect,0.135000X-0.135000X-0.185000X0.135000X-0.185000X0.135000X0.185000X-0.135000X0.185000X0*%
%ADD13RoundRect,0.135000X0.135000X0.185000X-0.135000X0.185000X-0.135000X-0.185000X0.135000X-0.185000X0*%
%ADD14RoundRect,0.135000X0.185000X-0.135000X0.185000X0.135000X-0.185000X0.135000X-0.185000X-0.135000X0*%
%ADD15RoundRect,0.147500X-0.172500X0.147500X-0.172500X-0.147500X0.172500X-0.147500X0.172500X0.147500X0*%
%ADD16RoundRect,0.140000X-0.170000X0.140000X-0.170000X-0.140000X0.170000X-0.140000X0.170000X0.140000X0*%
%ADD17C,0.762000*%
%ADD18RoundRect,0.140000X-0.140000X-0.170000X0.140000X-0.170000X0.140000X0.170000X-0.140000X0.170000X0*%
%ADD19RoundRect,0.225000X0.250000X-0.225000X0.250000X0.225000X-0.250000X0.225000X-0.250000X-0.225000X0*%
%ADD20RoundRect,0.140000X0.140000X0.170000X-0.140000X0.170000X-0.140000X-0.170000X0.140000X-0.170000X0*%
%ADD21R,0.760000X1.270000*%
%ADD22RoundRect,0.250000X-0.625000X0.350000X-0.625000X-0.350000X0.625000X-0.350000X0.625000X0.350000X0*%
%ADD23O,1.750000X1.200000*%
%ADD24RoundRect,0.200000X0.450000X-0.200000X0.450000X0.200000X-0.450000X0.200000X-0.450000X-0.200000X0*%
%ADD25O,1.300000X0.800000*%
%ADD26RoundRect,0.200000X0.200000X0.275000X-0.200000X0.275000X-0.200000X-0.275000X0.200000X-0.275000X0*%
%ADD27O,0.800000X0.200000*%
%ADD28O,0.200000X0.800000*%
%ADD29C,0.568750*%
%ADD30R,1.137500X1.137500*%
%ADD31RoundRect,0.200000X0.275000X-0.200000X0.275000X0.200000X-0.275000X0.200000X-0.275000X-0.200000X0*%
%ADD32RoundRect,0.135000X-0.185000X0.135000X-0.185000X-0.135000X0.185000X-0.135000X0.185000X0.135000X0*%
%ADD33RoundRect,0.062500X-0.425000X-0.062500X0.425000X-0.062500X0.425000X0.062500X-0.425000X0.062500X0*%
%ADD34R,1.200000X2.000000*%
%ADD35R,1.270000X0.760000*%
%ADD36RoundRect,0.218750X-0.218750X-0.256250X0.218750X-0.256250X0.218750X0.256250X-0.218750X0.256250X0*%
%ADD37R,1.000000X3.150000*%
%ADD38RoundRect,0.147500X0.172500X-0.147500X0.172500X0.147500X-0.172500X0.147500X-0.172500X-0.147500X0*%
%ADD39RoundRect,0.150000X-0.587500X-0.150000X0.587500X-0.150000X0.587500X0.150000X-0.587500X0.150000X0*%
%ADD40RoundRect,0.075000X0.075000X-0.662500X0.075000X0.662500X-0.075000X0.662500X-0.075000X-0.662500X0*%
%ADD41RoundRect,0.075000X0.662500X-0.075000X0.662500X0.075000X-0.662500X0.075000X-0.662500X-0.075000X0*%
%ADD42RoundRect,0.225000X0.225000X0.250000X-0.225000X0.250000X-0.225000X-0.250000X0.225000X-0.250000X0*%
%ADD43RoundRect,0.140000X0.170000X-0.140000X0.170000X0.140000X-0.170000X0.140000X-0.170000X-0.140000X0*%
%ADD44R,0.500000X0.250000*%
%ADD45R,0.900000X1.600000*%
%ADD46RoundRect,0.250000X-0.250000X-0.475000X0.250000X-0.475000X0.250000X0.475000X-0.250000X0.475000X0*%
G04 APERTURE END LIST*
D10*
%TO.C,L2*%
X87426800Y-58293100D03*
X87426800Y-56718100D03*
%TD*%
D11*
%TO.C,AE1*%
X87401400Y-55069000D03*
X87401400Y-52119000D03*
%TD*%
D12*
%TO.C,RZ1*%
X93698600Y-66446400D03*
X94718600Y-66446400D03*
%TD*%
D13*
%TO.C,R18*%
X115267200Y-85902800D03*
X114247200Y-85902800D03*
%TD*%
D14*
%TO.C,R24*%
X86106000Y-67460400D03*
X86106000Y-68480400D03*
%TD*%
D15*
%TO.C,D1*%
X108585000Y-81557000D03*
X108585000Y-82527000D03*
%TD*%
D16*
%TO.C,C18*%
X111572000Y-74958000D03*
X111572000Y-75918000D03*
%TD*%
%TO.C,C7*%
X92456000Y-65356800D03*
X92456000Y-66316800D03*
%TD*%
D13*
%TO.C,R23*%
X90934000Y-68605400D03*
X89914000Y-68605400D03*
%TD*%
D17*
%TO.C,J11*%
X94996000Y-55880000D03*
%TD*%
D18*
%TO.C,C5*%
X104549000Y-81786000D03*
X105509000Y-81786000D03*
%TD*%
D16*
%TO.C,C14*%
X96012000Y-76736000D03*
X96012000Y-77696000D03*
%TD*%
D19*
%TO.C,C3*%
X95555000Y-61735000D03*
X95555000Y-60185000D03*
%TD*%
D18*
%TO.C,C6*%
X106454000Y-81788000D03*
X107414000Y-81788000D03*
%TD*%
D20*
%TO.C,C34*%
X113205200Y-85902800D03*
X112245200Y-85902800D03*
%TD*%
D14*
%TO.C,R21*%
X92075000Y-70487000D03*
X92075000Y-69467000D03*
%TD*%
D17*
%TO.C,J8*%
X94488000Y-54610000D03*
%TD*%
D16*
%TO.C,C30*%
X94488000Y-64290000D03*
X94488000Y-65250000D03*
%TD*%
D14*
%TO.C,R10*%
X107569000Y-83820000D03*
X107569000Y-82800000D03*
%TD*%
D21*
%TO.C,SW1*%
X114833400Y-88011000D03*
X113563400Y-88011000D03*
X113563400Y-95631000D03*
X114833400Y-95631000D03*
%TD*%
D22*
%TO.C,J2*%
X88087200Y-87782400D03*
D23*
X88087200Y-89782400D03*
%TD*%
D24*
%TO.C,J1*%
X118433000Y-66351000D03*
D25*
X118433000Y-65101000D03*
X118433000Y-63851000D03*
X118433000Y-62601000D03*
X118433000Y-61351000D03*
X118433000Y-60101000D03*
X118433000Y-58851000D03*
X118433000Y-57601000D03*
%TD*%
D18*
%TO.C,C1*%
X100485000Y-81788000D03*
X101445000Y-81788000D03*
%TD*%
D17*
%TO.C,TP3*%
X111379000Y-68453000D03*
%TD*%
D26*
%TO.C,R16*%
X96964000Y-83566000D03*
X95314000Y-83566000D03*
%TD*%
D19*
%TO.C,C2*%
X90729000Y-61735000D03*
X90729000Y-60185000D03*
%TD*%
D16*
%TO.C,C31*%
X95504000Y-64290000D03*
X95504000Y-65250000D03*
%TD*%
D14*
%TO.C,R3*%
X102489000Y-83820000D03*
X102489000Y-82800000D03*
%TD*%
D17*
%TO.C,J20*%
X96266000Y-67945000D03*
%TD*%
D27*
%TO.C,U5*%
X97732000Y-54636000D03*
X97732000Y-55036000D03*
X97732000Y-55436000D03*
X97732000Y-55836000D03*
X97732000Y-56236000D03*
X97732000Y-56636000D03*
X97732000Y-57036000D03*
X97732000Y-57436000D03*
X97732000Y-57836000D03*
X97732000Y-58236000D03*
X97732000Y-58636000D03*
X97732000Y-59036000D03*
X97732000Y-59436000D03*
X97732000Y-59836000D03*
X97732000Y-60236000D03*
X97732000Y-60636000D03*
X97732000Y-61036000D03*
X97732000Y-61436000D03*
X97732000Y-61836000D03*
X97732000Y-62236000D03*
X97732000Y-62636000D03*
X97732000Y-63036000D03*
X97732000Y-63436000D03*
X97732000Y-63836000D03*
X97732000Y-64236000D03*
D28*
X98832000Y-65336000D03*
X99232000Y-65336000D03*
X99632000Y-65336000D03*
X100032000Y-65336000D03*
X100432000Y-65336000D03*
X100832000Y-65336000D03*
X101232000Y-65336000D03*
X101632000Y-65336000D03*
X102032000Y-65336000D03*
X102432000Y-65336000D03*
X102832000Y-65336000D03*
X103232000Y-65336000D03*
X103632000Y-65336000D03*
X104032000Y-65336000D03*
X104432000Y-65336000D03*
X104832000Y-65336000D03*
X105232000Y-65336000D03*
X105632000Y-65336000D03*
X106032000Y-65336000D03*
X106432000Y-65336000D03*
X106832000Y-65336000D03*
X107232000Y-65336000D03*
X107632000Y-65336000D03*
X108032000Y-65336000D03*
X108432000Y-65336000D03*
D27*
X109532000Y-64236000D03*
X109532000Y-63836000D03*
X109532000Y-63436000D03*
X109532000Y-63036000D03*
X109532000Y-62636000D03*
X109532000Y-62236000D03*
X109532000Y-61836000D03*
X109532000Y-61436000D03*
X109532000Y-61036000D03*
X109532000Y-60636000D03*
X109532000Y-60236000D03*
X109532000Y-59836000D03*
X109532000Y-59436000D03*
X109532000Y-59036000D03*
X109532000Y-58636000D03*
X109532000Y-58236000D03*
X109532000Y-57836000D03*
X109532000Y-57436000D03*
X109532000Y-57036000D03*
X109532000Y-56636000D03*
X109532000Y-56236000D03*
X109532000Y-55836000D03*
X109532000Y-55436000D03*
X109532000Y-55036000D03*
X109532000Y-54636000D03*
D28*
X108432000Y-53536000D03*
X108032000Y-53536000D03*
X107632000Y-53536000D03*
X107232000Y-53536000D03*
X106832000Y-53536000D03*
X106432000Y-53536000D03*
X106032000Y-53536000D03*
X105632000Y-53536000D03*
X105232000Y-53536000D03*
X104832000Y-53536000D03*
X104432000Y-53536000D03*
X104032000Y-53536000D03*
X103632000Y-53536000D03*
X103232000Y-53536000D03*
X102832000Y-53536000D03*
X102432000Y-53536000D03*
X102032000Y-53536000D03*
X101632000Y-53536000D03*
X101232000Y-53536000D03*
X100832000Y-53536000D03*
X100432000Y-53536000D03*
X100032000Y-53536000D03*
X99632000Y-53536000D03*
X99232000Y-53536000D03*
X98832000Y-53536000D03*
D29*
X99650750Y-55454750D03*
D30*
X99650750Y-55454750D03*
D29*
X99650750Y-56592250D03*
D30*
X99650750Y-56592250D03*
D29*
X99650750Y-57729750D03*
D30*
X99650750Y-57729750D03*
D29*
X99650750Y-58867250D03*
D30*
X99650750Y-58867250D03*
D29*
X99650750Y-60004750D03*
D30*
X99650750Y-60004750D03*
D29*
X99650750Y-61142250D03*
D30*
X99650750Y-61142250D03*
D29*
X99650750Y-62279750D03*
D30*
X99650750Y-62279750D03*
D29*
X99650750Y-63417250D03*
D30*
X99650750Y-63417250D03*
D29*
X100788250Y-55454750D03*
D30*
X100788250Y-55454750D03*
D29*
X100788250Y-56592250D03*
D30*
X100788250Y-56592250D03*
D29*
X100788250Y-57729750D03*
D30*
X100788250Y-57729750D03*
D29*
X100788250Y-58867250D03*
D30*
X100788250Y-58867250D03*
D29*
X100788250Y-60004750D03*
D30*
X100788250Y-60004750D03*
D29*
X100788250Y-61142250D03*
D30*
X100788250Y-61142250D03*
D29*
X100788250Y-62279750D03*
D30*
X100788250Y-62279750D03*
D29*
X100788250Y-63417250D03*
D30*
X100788250Y-63417250D03*
D29*
X101925750Y-55454750D03*
D30*
X101925750Y-55454750D03*
D29*
X101925750Y-56592250D03*
D30*
X101925750Y-56592250D03*
D29*
X101925750Y-57729750D03*
D30*
X101925750Y-57729750D03*
D29*
X101925750Y-58867250D03*
D30*
X101925750Y-58867250D03*
D29*
X101925750Y-60004750D03*
D30*
X101925750Y-60004750D03*
D29*
X101925750Y-61142250D03*
D30*
X101925750Y-61142250D03*
D29*
X101925750Y-62279750D03*
D30*
X101925750Y-62279750D03*
D29*
X101925750Y-63417250D03*
D30*
X101925750Y-63417250D03*
D29*
X103063250Y-55454750D03*
D30*
X103063250Y-55454750D03*
D29*
X103063250Y-56592250D03*
D30*
X103063250Y-56592250D03*
D29*
X103063250Y-57729750D03*
D30*
X103063250Y-57729750D03*
D29*
X103063250Y-58867250D03*
D30*
X103063250Y-58867250D03*
D29*
X103063250Y-60004750D03*
D30*
X103063250Y-60004750D03*
D29*
X103063250Y-61142250D03*
D30*
X103063250Y-61142250D03*
D29*
X103063250Y-62279750D03*
D30*
X103063250Y-62279750D03*
D29*
X103063250Y-63417250D03*
D30*
X103063250Y-63417250D03*
D29*
X104200750Y-55454750D03*
D30*
X104200750Y-55454750D03*
D29*
X104200750Y-56592250D03*
D30*
X104200750Y-56592250D03*
D29*
X104200750Y-57729750D03*
D30*
X104200750Y-57729750D03*
D29*
X104200750Y-58867250D03*
D30*
X104200750Y-58867250D03*
D29*
X104200750Y-60004750D03*
D30*
X104200750Y-60004750D03*
D29*
X104200750Y-61142250D03*
D30*
X104200750Y-61142250D03*
D29*
X104200750Y-62279750D03*
D30*
X104200750Y-62279750D03*
D29*
X104200750Y-63417250D03*
D30*
X104200750Y-63417250D03*
D29*
X105338250Y-55454750D03*
D30*
X105338250Y-55454750D03*
D29*
X105338250Y-56592250D03*
D30*
X105338250Y-56592250D03*
D29*
X105338250Y-57729750D03*
D30*
X105338250Y-57729750D03*
D29*
X105338250Y-58867250D03*
D30*
X105338250Y-58867250D03*
D29*
X105338250Y-60004750D03*
D30*
X105338250Y-60004750D03*
D29*
X105338250Y-61142250D03*
D30*
X105338250Y-61142250D03*
D29*
X105338250Y-62279750D03*
D30*
X105338250Y-62279750D03*
D29*
X105338250Y-63417250D03*
D30*
X105338250Y-63417250D03*
D29*
X106475750Y-55454750D03*
D30*
X106475750Y-55454750D03*
D29*
X106475750Y-56592250D03*
D30*
X106475750Y-56592250D03*
D29*
X106475750Y-57729750D03*
D30*
X106475750Y-57729750D03*
D29*
X106475750Y-58867250D03*
D30*
X106475750Y-58867250D03*
D29*
X106475750Y-60004750D03*
D30*
X106475750Y-60004750D03*
D29*
X106475750Y-61142250D03*
D30*
X106475750Y-61142250D03*
D29*
X106475750Y-62279750D03*
D30*
X106475750Y-62279750D03*
D29*
X106475750Y-63417250D03*
D30*
X106475750Y-63417250D03*
D29*
X107613250Y-55454750D03*
D30*
X107613250Y-55454750D03*
D29*
X107613250Y-56592250D03*
D30*
X107613250Y-56592250D03*
D29*
X107613250Y-57729750D03*
D30*
X107613250Y-57729750D03*
D29*
X107613250Y-58867250D03*
D30*
X107613250Y-58867250D03*
D29*
X107613250Y-60004750D03*
D30*
X107613250Y-60004750D03*
D29*
X107613250Y-61142250D03*
D30*
X107613250Y-61142250D03*
D29*
X107613250Y-62279750D03*
D30*
X107613250Y-62279750D03*
D29*
X107613250Y-63417250D03*
D30*
X107613250Y-63417250D03*
%TD*%
D31*
%TO.C,R15*%
X93853000Y-86804000D03*
X93853000Y-85154000D03*
%TD*%
D16*
%TO.C,C38*%
X93268800Y-71351200D03*
X93268800Y-72311200D03*
%TD*%
D32*
%TO.C,R11*%
X110617000Y-81151000D03*
X110617000Y-82171000D03*
%TD*%
D14*
%TO.C,R20*%
X116890800Y-84865400D03*
X116890800Y-83845400D03*
%TD*%
%TO.C,R19*%
X116890800Y-86897400D03*
X116890800Y-85877400D03*
%TD*%
D17*
%TO.C,J4*%
X98171000Y-52070000D03*
%TD*%
D14*
%TO.C,R9*%
X106553000Y-83820000D03*
X106553000Y-82800000D03*
%TD*%
%TO.C,R1*%
X100457000Y-83820000D03*
X100457000Y-82800000D03*
%TD*%
D33*
%TO.C,U7*%
X87639500Y-71013000D03*
X87639500Y-71513000D03*
X87639500Y-72013000D03*
X87639500Y-72513000D03*
X90414500Y-72513000D03*
X90414500Y-72013000D03*
X90414500Y-71513000D03*
X90414500Y-71013000D03*
D34*
X89027000Y-71763000D03*
%TD*%
D14*
%TO.C,R25*%
X91897200Y-73890600D03*
X91897200Y-72870600D03*
%TD*%
D20*
%TO.C,C15*%
X96187200Y-71475600D03*
X95227200Y-71475600D03*
%TD*%
D35*
%TO.C,SW2*%
X93373500Y-82753200D03*
X93373500Y-81483200D03*
X85753500Y-81483200D03*
X85753500Y-82753200D03*
%TD*%
D16*
%TO.C,C20*%
X112649000Y-77244000D03*
X112649000Y-78204000D03*
%TD*%
D18*
%TO.C,C25*%
X111600000Y-70612000D03*
X112560000Y-70612000D03*
%TD*%
D14*
%TO.C,R2*%
X101473000Y-83820000D03*
X101473000Y-82800000D03*
%TD*%
D17*
%TO.C,TP2*%
X111760000Y-82169000D03*
%TD*%
%TO.C,J5*%
X99695000Y-51943000D03*
%TD*%
D18*
%TO.C,C4*%
X102517000Y-81786000D03*
X103477000Y-81786000D03*
%TD*%
D33*
%TO.C,U6*%
X87903000Y-65352800D03*
X87903000Y-65852800D03*
X87903000Y-66352800D03*
X87903000Y-66852800D03*
X90678000Y-66852800D03*
X90678000Y-66352800D03*
X90678000Y-65852800D03*
X90678000Y-65352800D03*
D34*
X89290500Y-66102800D03*
%TD*%
D16*
%TO.C,C24*%
X95123000Y-73561000D03*
X95123000Y-74521000D03*
%TD*%
D13*
%TO.C,R6*%
X115064000Y-81788000D03*
X114044000Y-81788000D03*
%TD*%
D20*
%TO.C,C33*%
X113205200Y-84861400D03*
X112245200Y-84861400D03*
%TD*%
D12*
%TO.C,R14*%
X111758000Y-55372000D03*
X112778000Y-55372000D03*
%TD*%
D16*
%TO.C,C23*%
X96139000Y-73561000D03*
X96139000Y-74521000D03*
%TD*%
D14*
%TO.C,RZ15*%
X112268000Y-60073000D03*
X112268000Y-59053000D03*
%TD*%
D36*
%TO.C,L1*%
X92329000Y-60198000D03*
X93904000Y-60198000D03*
%TD*%
D37*
%TO.C,J9*%
X109728000Y-87899000D03*
X109728000Y-92949000D03*
X107188000Y-87899000D03*
X107188000Y-92949000D03*
X104648000Y-87899000D03*
X104648000Y-92949000D03*
X102108000Y-87899000D03*
X102108000Y-92949000D03*
X99568000Y-87899000D03*
X99568000Y-92949000D03*
X97028000Y-87899000D03*
X97028000Y-92949000D03*
%TD*%
D38*
%TO.C,D4*%
X95504000Y-80324300D03*
X95504000Y-79354300D03*
%TD*%
D16*
%TO.C,C29*%
X113538000Y-56797000D03*
X113538000Y-57757000D03*
%TD*%
D13*
%TO.C,R5*%
X115064000Y-82931000D03*
X114044000Y-82931000D03*
%TD*%
D14*
%TO.C,R7*%
X104521000Y-83820000D03*
X104521000Y-82800000D03*
%TD*%
D16*
%TO.C,C28*%
X111760000Y-56797000D03*
X111760000Y-57757000D03*
%TD*%
D17*
%TO.C,J6*%
X101092000Y-52070000D03*
%TD*%
D16*
%TO.C,C21*%
X111633000Y-77244000D03*
X111633000Y-78204000D03*
%TD*%
D39*
%TO.C,Q1*%
X91772500Y-88712000D03*
X91772500Y-90612000D03*
X93647500Y-89662000D03*
%TD*%
D18*
%TO.C,C27*%
X111788000Y-54229000D03*
X112748000Y-54229000D03*
%TD*%
D14*
%TO.C,R8*%
X105537000Y-83820000D03*
X105537000Y-82800000D03*
%TD*%
D38*
%TO.C,D3*%
X96596200Y-80314800D03*
X96596200Y-79344800D03*
%TD*%
D40*
%TO.C,U4*%
X99882000Y-79957500D03*
X100382000Y-79957500D03*
X100882000Y-79957500D03*
X101382000Y-79957500D03*
X101882000Y-79957500D03*
X102382000Y-79957500D03*
X102882000Y-79957500D03*
X103382000Y-79957500D03*
X103882000Y-79957500D03*
X104382000Y-79957500D03*
X104882000Y-79957500D03*
X105382000Y-79957500D03*
X105882000Y-79957500D03*
X106382000Y-79957500D03*
X106882000Y-79957500D03*
X107382000Y-79957500D03*
D41*
X109294500Y-78045000D03*
X109294500Y-77545000D03*
X109294500Y-77045000D03*
X109294500Y-76545000D03*
X109294500Y-76045000D03*
X109294500Y-75545000D03*
X109294500Y-75045000D03*
X109294500Y-74545000D03*
X109294500Y-74045000D03*
X109294500Y-73545000D03*
X109294500Y-73045000D03*
X109294500Y-72545000D03*
X109294500Y-72045000D03*
X109294500Y-71545000D03*
X109294500Y-71045000D03*
X109294500Y-70545000D03*
D40*
X107382000Y-68632500D03*
X106882000Y-68632500D03*
X106382000Y-68632500D03*
X105882000Y-68632500D03*
X105382000Y-68632500D03*
X104882000Y-68632500D03*
X104382000Y-68632500D03*
X103882000Y-68632500D03*
X103382000Y-68632500D03*
X102882000Y-68632500D03*
X102382000Y-68632500D03*
X101882000Y-68632500D03*
X101382000Y-68632500D03*
X100882000Y-68632500D03*
X100382000Y-68632500D03*
X99882000Y-68632500D03*
D41*
X97969500Y-70545000D03*
X97969500Y-71045000D03*
X97969500Y-71545000D03*
X97969500Y-72045000D03*
X97969500Y-72545000D03*
X97969500Y-73045000D03*
X97969500Y-73545000D03*
X97969500Y-74045000D03*
X97969500Y-74545000D03*
X97969500Y-75045000D03*
X97969500Y-75545000D03*
X97969500Y-76045000D03*
X97969500Y-76545000D03*
X97969500Y-77045000D03*
X97969500Y-77545000D03*
X97969500Y-78045000D03*
%TD*%
D39*
%TO.C,Q2*%
X91772500Y-92964000D03*
X91772500Y-94864000D03*
X93647500Y-93914000D03*
%TD*%
D42*
%TO.C,C32*%
X96914000Y-81915000D03*
X95364000Y-81915000D03*
%TD*%
D43*
%TO.C,C13*%
X87645200Y-76316800D03*
X87645200Y-75356800D03*
%TD*%
D12*
%TO.C,R13*%
X102487000Y-51816000D03*
X103507000Y-51816000D03*
%TD*%
D17*
%TO.C,TP4*%
X117576600Y-88519000D03*
%TD*%
D44*
%TO.C,U3*%
X88854200Y-74996800D03*
X88854200Y-75496800D03*
X88854200Y-75996800D03*
X88854200Y-76496800D03*
X90754200Y-76496800D03*
X90754200Y-75996800D03*
X90754200Y-75496800D03*
X90754200Y-74996800D03*
D45*
X89804200Y-75746800D03*
%TD*%
D43*
%TO.C,C39*%
X86106000Y-66316800D03*
X86106000Y-65356800D03*
%TD*%
D16*
%TO.C,C17*%
X95250000Y-69497000D03*
X95250000Y-70457000D03*
%TD*%
D17*
%TO.C,J16*%
X112014000Y-61722000D03*
%TD*%
D14*
%TO.C,R26*%
X86106000Y-74398600D03*
X86106000Y-73378600D03*
%TD*%
D15*
%TO.C,D2*%
X93954600Y-76391300D03*
X93954600Y-77361300D03*
%TD*%
D12*
%TO.C,RZ2*%
X92047600Y-68402200D03*
X93067600Y-68402200D03*
%TD*%
D14*
%TO.C,R4*%
X103505000Y-83820000D03*
X103505000Y-82800000D03*
%TD*%
D46*
%TO.C,C26*%
X111892000Y-72136000D03*
X113792000Y-72136000D03*
%TD*%
D18*
%TO.C,C22*%
X111600000Y-73660000D03*
X112560000Y-73660000D03*
%TD*%
D20*
%TO.C,C16*%
X98397000Y-67945000D03*
X97437000Y-67945000D03*
%TD*%
%TO.C,C11*%
X91589800Y-77673200D03*
X90629800Y-77673200D03*
%TD*%
D15*
%TO.C,D1*%
X92862400Y-76391300D03*
X92862400Y-77361300D03*
%TD*%
D12*
%TO.C,R17*%
X114247200Y-84861400D03*
X115267200Y-84861400D03*
%TD*%
D13*
%TO.C,R22*%
X88495600Y-68605400D03*
X87475600Y-68605400D03*
%TD*%
D16*
%TO.C,C12*%
X93497400Y-78590200D03*
X93497400Y-79550200D03*
%TD*%
D32*
%TO.C,R12*%
X109601000Y-81151000D03*
X109601000Y-82171000D03*
%TD*%
D16*
%TO.C,C19*%
X112588000Y-74958000D03*
X112588000Y-75918000D03*
%TD*%
D24*
%TO.C,J7*%
X118433000Y-79432000D03*
D25*
X118433000Y-78182000D03*
X118433000Y-76932000D03*
X118433000Y-75682000D03*
X118433000Y-74432000D03*
X118433000Y-73182000D03*
X118433000Y-71932000D03*
X118433000Y-70682000D03*
%TD*%
D43*
%TO.C,C8*%
X86106000Y-72362000D03*
X86106000Y-71402000D03*
%TD*%
D17*
%TO.C,TP1*%
X111760000Y-83439000D03*
%TD*%
M02*
