%TF.GenerationSoftware,KiCad,Pcbnew,7.0.9*%
%TF.CreationDate,2024-02-09T20:47:06-08:00*%
%TF.ProjectId,sulu_ads1299,73756c75-5f61-4647-9331-3239392e6b69,rev?*%
%TF.SameCoordinates,Original*%
%TF.FileFunction,Legend,Top*%
%TF.FilePolarity,Positive*%
%FSLAX46Y46*%
G04 Gerber Fmt 4.6, Leading zero omitted, Abs format (unit mm)*
G04 Created by KiCad (PCBNEW 7.0.9) date 2024-02-09 20:47:06*
%MOMM*%
%LPD*%
G01*
G04 APERTURE LIST*
G04 Aperture macros list*
%AMRoundRect*
0 Rectangle with rounded corners*
0 $1 Rounding radius*
0 $2 $3 $4 $5 $6 $7 $8 $9 X,Y pos of 4 corners*
0 Add a 4 corners polygon primitive as box body*
4,1,4,$2,$3,$4,$5,$6,$7,$8,$9,$2,$3,0*
0 Add four circle primitives for the rounded corners*
1,1,$1+$1,$2,$3*
1,1,$1+$1,$4,$5*
1,1,$1+$1,$6,$7*
1,1,$1+$1,$8,$9*
0 Add four rect primitives between the rounded corners*
20,1,$1+$1,$2,$3,$4,$5,0*
20,1,$1+$1,$4,$5,$6,$7,0*
20,1,$1+$1,$6,$7,$8,$9,0*
20,1,$1+$1,$8,$9,$2,$3,0*%
G04 Aperture macros list end*
%ADD10C,0.150000*%
%ADD11C,0.127000*%
%ADD12C,0.120000*%
%ADD13C,0.100000*%
%ADD14C,0.250000*%
%ADD15C,0.500000*%
%ADD16RoundRect,0.135000X-0.135000X-0.185000X0.135000X-0.185000X0.135000X0.185000X-0.135000X0.185000X0*%
%ADD17RoundRect,0.135000X0.135000X0.185000X-0.135000X0.185000X-0.135000X-0.185000X0.135000X-0.185000X0*%
%ADD18RoundRect,0.135000X0.185000X-0.135000X0.185000X0.135000X-0.185000X0.135000X-0.185000X-0.135000X0*%
%ADD19RoundRect,0.147500X-0.172500X0.147500X-0.172500X-0.147500X0.172500X-0.147500X0.172500X0.147500X0*%
%ADD20RoundRect,0.250000X0.650000X-0.325000X0.650000X0.325000X-0.650000X0.325000X-0.650000X-0.325000X0*%
%ADD21RoundRect,0.140000X-0.170000X0.140000X-0.170000X-0.140000X0.170000X-0.140000X0.170000X0.140000X0*%
%ADD22C,0.762000*%
%ADD23RoundRect,0.140000X-0.140000X-0.170000X0.140000X-0.170000X0.140000X0.170000X-0.140000X0.170000X0*%
%ADD24RoundRect,0.225000X0.250000X-0.225000X0.250000X0.225000X-0.250000X0.225000X-0.250000X-0.225000X0*%
%ADD25RoundRect,0.140000X0.140000X0.170000X-0.140000X0.170000X-0.140000X-0.170000X0.140000X-0.170000X0*%
%ADD26R,0.760000X1.270000*%
%ADD27RoundRect,0.250000X-0.625000X0.350000X-0.625000X-0.350000X0.625000X-0.350000X0.625000X0.350000X0*%
%ADD28O,1.750000X1.200000*%
%ADD29RoundRect,0.200000X0.450000X-0.200000X0.450000X0.200000X-0.450000X0.200000X-0.450000X-0.200000X0*%
%ADD30O,1.300000X0.800000*%
%ADD31RoundRect,0.200000X0.200000X0.275000X-0.200000X0.275000X-0.200000X-0.275000X0.200000X-0.275000X0*%
%ADD32O,0.800000X0.200000*%
%ADD33O,0.200000X0.800000*%
%ADD34C,0.568750*%
%ADD35R,1.137500X1.137500*%
%ADD36RoundRect,0.200000X0.275000X-0.200000X0.275000X0.200000X-0.275000X0.200000X-0.275000X-0.200000X0*%
%ADD37RoundRect,0.135000X-0.185000X0.135000X-0.185000X-0.135000X0.185000X-0.135000X0.185000X0.135000X0*%
%ADD38RoundRect,0.062500X-0.425000X-0.062500X0.425000X-0.062500X0.425000X0.062500X-0.425000X0.062500X0*%
%ADD39R,1.200000X2.000000*%
%ADD40R,1.270000X0.760000*%
%ADD41RoundRect,0.218750X0.256250X-0.218750X0.256250X0.218750X-0.256250X0.218750X-0.256250X-0.218750X0*%
%ADD42R,1.000000X3.150000*%
%ADD43RoundRect,0.147500X0.172500X-0.147500X0.172500X0.147500X-0.172500X0.147500X-0.172500X-0.147500X0*%
%ADD44RoundRect,0.150000X-0.587500X-0.150000X0.587500X-0.150000X0.587500X0.150000X-0.587500X0.150000X0*%
%ADD45RoundRect,0.075000X0.075000X-0.662500X0.075000X0.662500X-0.075000X0.662500X-0.075000X-0.662500X0*%
%ADD46RoundRect,0.075000X0.662500X-0.075000X0.662500X0.075000X-0.662500X0.075000X-0.662500X-0.075000X0*%
%ADD47RoundRect,0.225000X0.225000X0.250000X-0.225000X0.250000X-0.225000X-0.250000X0.225000X-0.250000X0*%
%ADD48RoundRect,0.200000X-0.200000X-0.275000X0.200000X-0.275000X0.200000X0.275000X-0.200000X0.275000X0*%
%ADD49RoundRect,0.140000X0.170000X-0.140000X0.170000X0.140000X-0.170000X0.140000X-0.170000X-0.140000X0*%
%ADD50R,0.500000X0.250000*%
%ADD51R,0.900000X1.600000*%
%ADD52RoundRect,0.250000X-0.250000X-0.475000X0.250000X-0.475000X0.250000X0.475000X-0.250000X0.475000X0*%
G04 APERTURE END LIST*
D10*
X119761000Y-53340000D02*
G75*
G03*
X119761000Y-53340000I-1651000J0D01*
G01*
X119888000Y-94234000D02*
G75*
G03*
X119888000Y-94234000I-1651000J0D01*
G01*
X89154000Y-94234000D02*
G75*
G03*
X89154000Y-94234000I-1651000J0D01*
G01*
D11*
X106949904Y-96087015D02*
X106378476Y-96087015D01*
X106664190Y-96087015D02*
X106664190Y-95087015D01*
X106664190Y-95087015D02*
X106568952Y-95229872D01*
X106568952Y-95229872D02*
X106473714Y-95325110D01*
X106473714Y-95325110D02*
X106378476Y-95372729D01*
X107378476Y-96087015D02*
X107378476Y-95087015D01*
X107378476Y-95087015D02*
X107949904Y-96087015D01*
X107949904Y-96087015D02*
X107949904Y-95087015D01*
X97663000Y-53954776D02*
X97710619Y-54002396D01*
X97710619Y-54002396D02*
X97663000Y-54050015D01*
X97663000Y-54050015D02*
X97615381Y-54002396D01*
X97615381Y-54002396D02*
X97663000Y-53954776D01*
X97663000Y-53954776D02*
X97663000Y-54050015D01*
X86563200Y-70566376D02*
X86610819Y-70613996D01*
X86610819Y-70613996D02*
X86563200Y-70661615D01*
X86563200Y-70661615D02*
X86515581Y-70613996D01*
X86515581Y-70613996D02*
X86563200Y-70566376D01*
X86563200Y-70566376D02*
X86563200Y-70661615D01*
X99234666Y-95420348D02*
X99234666Y-96087015D01*
X98996571Y-95039396D02*
X98758476Y-95753681D01*
X98758476Y-95753681D02*
X99377523Y-95753681D01*
X99758476Y-96087015D02*
X99758476Y-95087015D01*
X99758476Y-95087015D02*
X100329904Y-96087015D01*
X100329904Y-96087015D02*
X100329904Y-95087015D01*
X108529571Y-85022205D02*
X108672428Y-85069824D01*
X108672428Y-85069824D02*
X108720047Y-85117443D01*
X108720047Y-85117443D02*
X108767666Y-85212681D01*
X108767666Y-85212681D02*
X108767666Y-85355538D01*
X108767666Y-85355538D02*
X108720047Y-85450776D01*
X108720047Y-85450776D02*
X108672428Y-85498396D01*
X108672428Y-85498396D02*
X108577190Y-85546015D01*
X108577190Y-85546015D02*
X108196238Y-85546015D01*
X108196238Y-85546015D02*
X108196238Y-84546015D01*
X108196238Y-84546015D02*
X108529571Y-84546015D01*
X108529571Y-84546015D02*
X108624809Y-84593634D01*
X108624809Y-84593634D02*
X108672428Y-84641253D01*
X108672428Y-84641253D02*
X108720047Y-84736491D01*
X108720047Y-84736491D02*
X108720047Y-84831729D01*
X108720047Y-84831729D02*
X108672428Y-84926967D01*
X108672428Y-84926967D02*
X108624809Y-84974586D01*
X108624809Y-84974586D02*
X108529571Y-85022205D01*
X108529571Y-85022205D02*
X108196238Y-85022205D01*
X109196238Y-85546015D02*
X109196238Y-84546015D01*
X109624809Y-85260300D02*
X110100999Y-85260300D01*
X109529571Y-85546015D02*
X109862904Y-84546015D01*
X109862904Y-84546015D02*
X110196237Y-85546015D01*
X110481952Y-85498396D02*
X110624809Y-85546015D01*
X110624809Y-85546015D02*
X110862904Y-85546015D01*
X110862904Y-85546015D02*
X110958142Y-85498396D01*
X110958142Y-85498396D02*
X111005761Y-85450776D01*
X111005761Y-85450776D02*
X111053380Y-85355538D01*
X111053380Y-85355538D02*
X111053380Y-85260300D01*
X111053380Y-85260300D02*
X111005761Y-85165062D01*
X111005761Y-85165062D02*
X110958142Y-85117443D01*
X110958142Y-85117443D02*
X110862904Y-85069824D01*
X110862904Y-85069824D02*
X110672428Y-85022205D01*
X110672428Y-85022205D02*
X110577190Y-84974586D01*
X110577190Y-84974586D02*
X110529571Y-84926967D01*
X110529571Y-84926967D02*
X110481952Y-84831729D01*
X110481952Y-84831729D02*
X110481952Y-84736491D01*
X110481952Y-84736491D02*
X110529571Y-84641253D01*
X110529571Y-84641253D02*
X110577190Y-84593634D01*
X110577190Y-84593634D02*
X110672428Y-84546015D01*
X110672428Y-84546015D02*
X110910523Y-84546015D01*
X110910523Y-84546015D02*
X111053380Y-84593634D01*
X98933000Y-80370776D02*
X98980619Y-80418396D01*
X98980619Y-80418396D02*
X98933000Y-80466015D01*
X98933000Y-80466015D02*
X98885381Y-80418396D01*
X98885381Y-80418396D02*
X98933000Y-80370776D01*
X98933000Y-80370776D02*
X98933000Y-80466015D01*
X115248205Y-63460142D02*
X115295824Y-63317285D01*
X115295824Y-63317285D02*
X115343443Y-63269666D01*
X115343443Y-63269666D02*
X115438681Y-63222047D01*
X115438681Y-63222047D02*
X115581538Y-63222047D01*
X115581538Y-63222047D02*
X115676776Y-63269666D01*
X115676776Y-63269666D02*
X115724396Y-63317285D01*
X115724396Y-63317285D02*
X115772015Y-63412523D01*
X115772015Y-63412523D02*
X115772015Y-63793475D01*
X115772015Y-63793475D02*
X114772015Y-63793475D01*
X114772015Y-63793475D02*
X114772015Y-63460142D01*
X114772015Y-63460142D02*
X114819634Y-63364904D01*
X114819634Y-63364904D02*
X114867253Y-63317285D01*
X114867253Y-63317285D02*
X114962491Y-63269666D01*
X114962491Y-63269666D02*
X115057729Y-63269666D01*
X115057729Y-63269666D02*
X115152967Y-63317285D01*
X115152967Y-63317285D02*
X115200586Y-63364904D01*
X115200586Y-63364904D02*
X115248205Y-63460142D01*
X115248205Y-63460142D02*
X115248205Y-63793475D01*
X114772015Y-62602999D02*
X114772015Y-62412523D01*
X114772015Y-62412523D02*
X114819634Y-62317285D01*
X114819634Y-62317285D02*
X114914872Y-62222047D01*
X114914872Y-62222047D02*
X115105348Y-62174428D01*
X115105348Y-62174428D02*
X115438681Y-62174428D01*
X115438681Y-62174428D02*
X115629157Y-62222047D01*
X115629157Y-62222047D02*
X115724396Y-62317285D01*
X115724396Y-62317285D02*
X115772015Y-62412523D01*
X115772015Y-62412523D02*
X115772015Y-62602999D01*
X115772015Y-62602999D02*
X115724396Y-62698237D01*
X115724396Y-62698237D02*
X115629157Y-62793475D01*
X115629157Y-62793475D02*
X115438681Y-62841094D01*
X115438681Y-62841094D02*
X115105348Y-62841094D01*
X115105348Y-62841094D02*
X114914872Y-62793475D01*
X114914872Y-62793475D02*
X114819634Y-62698237D01*
X114819634Y-62698237D02*
X114772015Y-62602999D01*
X114772015Y-61555380D02*
X114772015Y-61364904D01*
X114772015Y-61364904D02*
X114819634Y-61269666D01*
X114819634Y-61269666D02*
X114914872Y-61174428D01*
X114914872Y-61174428D02*
X115105348Y-61126809D01*
X115105348Y-61126809D02*
X115438681Y-61126809D01*
X115438681Y-61126809D02*
X115629157Y-61174428D01*
X115629157Y-61174428D02*
X115724396Y-61269666D01*
X115724396Y-61269666D02*
X115772015Y-61364904D01*
X115772015Y-61364904D02*
X115772015Y-61555380D01*
X115772015Y-61555380D02*
X115724396Y-61650618D01*
X115724396Y-61650618D02*
X115629157Y-61745856D01*
X115629157Y-61745856D02*
X115438681Y-61793475D01*
X115438681Y-61793475D02*
X115105348Y-61793475D01*
X115105348Y-61793475D02*
X114914872Y-61745856D01*
X114914872Y-61745856D02*
X114819634Y-61650618D01*
X114819634Y-61650618D02*
X114772015Y-61555380D01*
X114772015Y-60841094D02*
X114772015Y-60269666D01*
X115772015Y-60555380D02*
X114772015Y-60555380D01*
X96164495Y-84796834D02*
X96069257Y-84749215D01*
X96069257Y-84749215D02*
X95926400Y-84749215D01*
X95926400Y-84749215D02*
X95783543Y-84796834D01*
X95783543Y-84796834D02*
X95688305Y-84892072D01*
X95688305Y-84892072D02*
X95640686Y-84987310D01*
X95640686Y-84987310D02*
X95593067Y-85177786D01*
X95593067Y-85177786D02*
X95593067Y-85320643D01*
X95593067Y-85320643D02*
X95640686Y-85511119D01*
X95640686Y-85511119D02*
X95688305Y-85606357D01*
X95688305Y-85606357D02*
X95783543Y-85701596D01*
X95783543Y-85701596D02*
X95926400Y-85749215D01*
X95926400Y-85749215D02*
X96021638Y-85749215D01*
X96021638Y-85749215D02*
X96164495Y-85701596D01*
X96164495Y-85701596D02*
X96212114Y-85653976D01*
X96212114Y-85653976D02*
X96212114Y-85320643D01*
X96212114Y-85320643D02*
X96021638Y-85320643D01*
X96640686Y-85749215D02*
X96640686Y-84749215D01*
X96640686Y-84749215D02*
X97212114Y-85749215D01*
X97212114Y-85749215D02*
X97212114Y-84749215D01*
X97688305Y-85749215D02*
X97688305Y-84749215D01*
X97688305Y-84749215D02*
X97926400Y-84749215D01*
X97926400Y-84749215D02*
X98069257Y-84796834D01*
X98069257Y-84796834D02*
X98164495Y-84892072D01*
X98164495Y-84892072D02*
X98212114Y-84987310D01*
X98212114Y-84987310D02*
X98259733Y-85177786D01*
X98259733Y-85177786D02*
X98259733Y-85320643D01*
X98259733Y-85320643D02*
X98212114Y-85511119D01*
X98212114Y-85511119D02*
X98164495Y-85606357D01*
X98164495Y-85606357D02*
X98069257Y-85701596D01*
X98069257Y-85701596D02*
X97926400Y-85749215D01*
X97926400Y-85749215D02*
X97688305Y-85749215D01*
X96602514Y-54354815D02*
X96031086Y-54354815D01*
X96316800Y-54354815D02*
X96316800Y-53354815D01*
X96316800Y-53354815D02*
X96221562Y-53497672D01*
X96221562Y-53497672D02*
X96126324Y-53592910D01*
X96126324Y-53592910D02*
X96031086Y-53640529D01*
X103711476Y-95182253D02*
X103759095Y-95134634D01*
X103759095Y-95134634D02*
X103854333Y-95087015D01*
X103854333Y-95087015D02*
X104092428Y-95087015D01*
X104092428Y-95087015D02*
X104187666Y-95134634D01*
X104187666Y-95134634D02*
X104235285Y-95182253D01*
X104235285Y-95182253D02*
X104282904Y-95277491D01*
X104282904Y-95277491D02*
X104282904Y-95372729D01*
X104282904Y-95372729D02*
X104235285Y-95515586D01*
X104235285Y-95515586D02*
X103663857Y-96087015D01*
X103663857Y-96087015D02*
X104282904Y-96087015D01*
X104711476Y-96087015D02*
X104711476Y-95087015D01*
X104711476Y-95087015D02*
X105282904Y-96087015D01*
X105282904Y-96087015D02*
X105282904Y-95087015D01*
X86868000Y-64927576D02*
X86915619Y-64975196D01*
X86915619Y-64975196D02*
X86868000Y-65022815D01*
X86868000Y-65022815D02*
X86820381Y-64975196D01*
X86820381Y-64975196D02*
X86868000Y-64927576D01*
X86868000Y-64927576D02*
X86868000Y-65022815D01*
X114705215Y-66160685D02*
X114705215Y-66732113D01*
X114705215Y-66446399D02*
X113705215Y-66446399D01*
X113705215Y-66446399D02*
X113848072Y-66541637D01*
X113848072Y-66541637D02*
X113943310Y-66636875D01*
X113943310Y-66636875D02*
X113990929Y-66732113D01*
X116026015Y-77549094D02*
X115026015Y-77549094D01*
X115026015Y-77549094D02*
X115026015Y-77310999D01*
X115026015Y-77310999D02*
X115073634Y-77168142D01*
X115073634Y-77168142D02*
X115168872Y-77072904D01*
X115168872Y-77072904D02*
X115264110Y-77025285D01*
X115264110Y-77025285D02*
X115454586Y-76977666D01*
X115454586Y-76977666D02*
X115597443Y-76977666D01*
X115597443Y-76977666D02*
X115787919Y-77025285D01*
X115787919Y-77025285D02*
X115883157Y-77072904D01*
X115883157Y-77072904D02*
X115978396Y-77168142D01*
X115978396Y-77168142D02*
X116026015Y-77310999D01*
X116026015Y-77310999D02*
X116026015Y-77549094D01*
X115502205Y-76549094D02*
X115502205Y-76215761D01*
X116026015Y-76072904D02*
X116026015Y-76549094D01*
X116026015Y-76549094D02*
X115026015Y-76549094D01*
X115026015Y-76549094D02*
X115026015Y-76072904D01*
X115502205Y-75310999D02*
X115549824Y-75168142D01*
X115549824Y-75168142D02*
X115597443Y-75120523D01*
X115597443Y-75120523D02*
X115692681Y-75072904D01*
X115692681Y-75072904D02*
X115835538Y-75072904D01*
X115835538Y-75072904D02*
X115930776Y-75120523D01*
X115930776Y-75120523D02*
X115978396Y-75168142D01*
X115978396Y-75168142D02*
X116026015Y-75263380D01*
X116026015Y-75263380D02*
X116026015Y-75644332D01*
X116026015Y-75644332D02*
X115026015Y-75644332D01*
X115026015Y-75644332D02*
X115026015Y-75310999D01*
X115026015Y-75310999D02*
X115073634Y-75215761D01*
X115073634Y-75215761D02*
X115121253Y-75168142D01*
X115121253Y-75168142D02*
X115216491Y-75120523D01*
X115216491Y-75120523D02*
X115311729Y-75120523D01*
X115311729Y-75120523D02*
X115406967Y-75168142D01*
X115406967Y-75168142D02*
X115454586Y-75215761D01*
X115454586Y-75215761D02*
X115502205Y-75310999D01*
X115502205Y-75310999D02*
X115502205Y-75644332D01*
X115026015Y-74644332D02*
X115835538Y-74644332D01*
X115835538Y-74644332D02*
X115930776Y-74596713D01*
X115930776Y-74596713D02*
X115978396Y-74549094D01*
X115978396Y-74549094D02*
X116026015Y-74453856D01*
X116026015Y-74453856D02*
X116026015Y-74263380D01*
X116026015Y-74263380D02*
X115978396Y-74168142D01*
X115978396Y-74168142D02*
X115930776Y-74120523D01*
X115930776Y-74120523D02*
X115835538Y-74072904D01*
X115835538Y-74072904D02*
X115026015Y-74072904D01*
X115073634Y-73072904D02*
X115026015Y-73168142D01*
X115026015Y-73168142D02*
X115026015Y-73310999D01*
X115026015Y-73310999D02*
X115073634Y-73453856D01*
X115073634Y-73453856D02*
X115168872Y-73549094D01*
X115168872Y-73549094D02*
X115264110Y-73596713D01*
X115264110Y-73596713D02*
X115454586Y-73644332D01*
X115454586Y-73644332D02*
X115597443Y-73644332D01*
X115597443Y-73644332D02*
X115787919Y-73596713D01*
X115787919Y-73596713D02*
X115883157Y-73549094D01*
X115883157Y-73549094D02*
X115978396Y-73453856D01*
X115978396Y-73453856D02*
X116026015Y-73310999D01*
X116026015Y-73310999D02*
X116026015Y-73215761D01*
X116026015Y-73215761D02*
X115978396Y-73072904D01*
X115978396Y-73072904D02*
X115930776Y-73025285D01*
X115930776Y-73025285D02*
X115597443Y-73025285D01*
X115597443Y-73025285D02*
X115597443Y-73215761D01*
X118820015Y-81553085D02*
X118820015Y-82124513D01*
X118820015Y-81838799D02*
X117820015Y-81838799D01*
X117820015Y-81838799D02*
X117962872Y-81934037D01*
X117962872Y-81934037D02*
X118058110Y-82029275D01*
X118058110Y-82029275D02*
X118105729Y-82124513D01*
X90549862Y-90296951D02*
X90549862Y-89535047D01*
X101250857Y-95087015D02*
X101869904Y-95087015D01*
X101869904Y-95087015D02*
X101536571Y-95467967D01*
X101536571Y-95467967D02*
X101679428Y-95467967D01*
X101679428Y-95467967D02*
X101774666Y-95515586D01*
X101774666Y-95515586D02*
X101822285Y-95563205D01*
X101822285Y-95563205D02*
X101869904Y-95658443D01*
X101869904Y-95658443D02*
X101869904Y-95896538D01*
X101869904Y-95896538D02*
X101822285Y-95991776D01*
X101822285Y-95991776D02*
X101774666Y-96039396D01*
X101774666Y-96039396D02*
X101679428Y-96087015D01*
X101679428Y-96087015D02*
X101393714Y-96087015D01*
X101393714Y-96087015D02*
X101298476Y-96039396D01*
X101298476Y-96039396D02*
X101250857Y-95991776D01*
X102298476Y-96087015D02*
X102298476Y-95087015D01*
X102298476Y-95087015D02*
X102869904Y-96087015D01*
X102869904Y-96087015D02*
X102869904Y-95087015D01*
X96012095Y-95134634D02*
X95916857Y-95087015D01*
X95916857Y-95087015D02*
X95774000Y-95087015D01*
X95774000Y-95087015D02*
X95631143Y-95134634D01*
X95631143Y-95134634D02*
X95535905Y-95229872D01*
X95535905Y-95229872D02*
X95488286Y-95325110D01*
X95488286Y-95325110D02*
X95440667Y-95515586D01*
X95440667Y-95515586D02*
X95440667Y-95658443D01*
X95440667Y-95658443D02*
X95488286Y-95848919D01*
X95488286Y-95848919D02*
X95535905Y-95944157D01*
X95535905Y-95944157D02*
X95631143Y-96039396D01*
X95631143Y-96039396D02*
X95774000Y-96087015D01*
X95774000Y-96087015D02*
X95869238Y-96087015D01*
X95869238Y-96087015D02*
X96012095Y-96039396D01*
X96012095Y-96039396D02*
X96059714Y-95991776D01*
X96059714Y-95991776D02*
X96059714Y-95658443D01*
X96059714Y-95658443D02*
X95869238Y-95658443D01*
X96488286Y-96087015D02*
X96488286Y-95087015D01*
X96488286Y-95087015D02*
X97059714Y-96087015D01*
X97059714Y-96087015D02*
X97059714Y-95087015D01*
X97535905Y-96087015D02*
X97535905Y-95087015D01*
X97535905Y-95087015D02*
X97774000Y-95087015D01*
X97774000Y-95087015D02*
X97916857Y-95134634D01*
X97916857Y-95134634D02*
X98012095Y-95229872D01*
X98012095Y-95229872D02*
X98059714Y-95325110D01*
X98059714Y-95325110D02*
X98107333Y-95515586D01*
X98107333Y-95515586D02*
X98107333Y-95658443D01*
X98107333Y-95658443D02*
X98059714Y-95848919D01*
X98059714Y-95848919D02*
X98012095Y-95944157D01*
X98012095Y-95944157D02*
X97916857Y-96039396D01*
X97916857Y-96039396D02*
X97774000Y-96087015D01*
X97774000Y-96087015D02*
X97535905Y-96087015D01*
X109347095Y-95134634D02*
X109251857Y-95087015D01*
X109251857Y-95087015D02*
X109109000Y-95087015D01*
X109109000Y-95087015D02*
X108966143Y-95134634D01*
X108966143Y-95134634D02*
X108870905Y-95229872D01*
X108870905Y-95229872D02*
X108823286Y-95325110D01*
X108823286Y-95325110D02*
X108775667Y-95515586D01*
X108775667Y-95515586D02*
X108775667Y-95658443D01*
X108775667Y-95658443D02*
X108823286Y-95848919D01*
X108823286Y-95848919D02*
X108870905Y-95944157D01*
X108870905Y-95944157D02*
X108966143Y-96039396D01*
X108966143Y-96039396D02*
X109109000Y-96087015D01*
X109109000Y-96087015D02*
X109204238Y-96087015D01*
X109204238Y-96087015D02*
X109347095Y-96039396D01*
X109347095Y-96039396D02*
X109394714Y-95991776D01*
X109394714Y-95991776D02*
X109394714Y-95658443D01*
X109394714Y-95658443D02*
X109204238Y-95658443D01*
X109823286Y-96087015D02*
X109823286Y-95087015D01*
X109823286Y-95087015D02*
X110394714Y-96087015D01*
X110394714Y-96087015D02*
X110394714Y-95087015D01*
X110870905Y-96087015D02*
X110870905Y-95087015D01*
X110870905Y-95087015D02*
X111109000Y-95087015D01*
X111109000Y-95087015D02*
X111251857Y-95134634D01*
X111251857Y-95134634D02*
X111347095Y-95229872D01*
X111347095Y-95229872D02*
X111394714Y-95325110D01*
X111394714Y-95325110D02*
X111442333Y-95515586D01*
X111442333Y-95515586D02*
X111442333Y-95658443D01*
X111442333Y-95658443D02*
X111394714Y-95848919D01*
X111394714Y-95848919D02*
X111347095Y-95944157D01*
X111347095Y-95944157D02*
X111251857Y-96039396D01*
X111251857Y-96039396D02*
X111109000Y-96087015D01*
X111109000Y-96087015D02*
X110870905Y-96087015D01*
X87985600Y-74274776D02*
X88033219Y-74322396D01*
X88033219Y-74322396D02*
X87985600Y-74370015D01*
X87985600Y-74370015D02*
X87937981Y-74322396D01*
X87937981Y-74322396D02*
X87985600Y-74274776D01*
X87985600Y-74274776D02*
X87985600Y-74370015D01*
X90627248Y-87146262D02*
X91389153Y-87146262D01*
X91008200Y-87527215D02*
X91008200Y-86765310D01*
X99211215Y-79673485D02*
X99211215Y-80244913D01*
X99211215Y-79959199D02*
X98211215Y-79959199D01*
X98211215Y-79959199D02*
X98354072Y-80054437D01*
X98354072Y-80054437D02*
X98449310Y-80149675D01*
X98449310Y-80149675D02*
X98496929Y-80244913D01*
X93882028Y-67640006D02*
X93712694Y-67398101D01*
X93591742Y-67640006D02*
X93591742Y-67132006D01*
X93591742Y-67132006D02*
X93785266Y-67132006D01*
X93785266Y-67132006D02*
X93833647Y-67156196D01*
X93833647Y-67156196D02*
X93857837Y-67180387D01*
X93857837Y-67180387D02*
X93882028Y-67228768D01*
X93882028Y-67228768D02*
X93882028Y-67301339D01*
X93882028Y-67301339D02*
X93857837Y-67349720D01*
X93857837Y-67349720D02*
X93833647Y-67373911D01*
X93833647Y-67373911D02*
X93785266Y-67398101D01*
X93785266Y-67398101D02*
X93591742Y-67398101D01*
X94051361Y-67132006D02*
X94390028Y-67132006D01*
X94390028Y-67132006D02*
X94051361Y-67640006D01*
X94051361Y-67640006D02*
X94390028Y-67640006D01*
X94849647Y-67640006D02*
X94559361Y-67640006D01*
X94704504Y-67640006D02*
X94704504Y-67132006D01*
X94704504Y-67132006D02*
X94656123Y-67204577D01*
X94656123Y-67204577D02*
X94607742Y-67252958D01*
X94607742Y-67252958D02*
X94559361Y-67277149D01*
X114430628Y-87049406D02*
X114261294Y-86807501D01*
X114140342Y-87049406D02*
X114140342Y-86541406D01*
X114140342Y-86541406D02*
X114333866Y-86541406D01*
X114333866Y-86541406D02*
X114382247Y-86565596D01*
X114382247Y-86565596D02*
X114406437Y-86589787D01*
X114406437Y-86589787D02*
X114430628Y-86638168D01*
X114430628Y-86638168D02*
X114430628Y-86710739D01*
X114430628Y-86710739D02*
X114406437Y-86759120D01*
X114406437Y-86759120D02*
X114382247Y-86783311D01*
X114382247Y-86783311D02*
X114333866Y-86807501D01*
X114333866Y-86807501D02*
X114140342Y-86807501D01*
X114914437Y-87049406D02*
X114624151Y-87049406D01*
X114769294Y-87049406D02*
X114769294Y-86541406D01*
X114769294Y-86541406D02*
X114720913Y-86613977D01*
X114720913Y-86613977D02*
X114672532Y-86662358D01*
X114672532Y-86662358D02*
X114624151Y-86686549D01*
X115204723Y-86759120D02*
X115156342Y-86734930D01*
X115156342Y-86734930D02*
X115132152Y-86710739D01*
X115132152Y-86710739D02*
X115107961Y-86662358D01*
X115107961Y-86662358D02*
X115107961Y-86638168D01*
X115107961Y-86638168D02*
X115132152Y-86589787D01*
X115132152Y-86589787D02*
X115156342Y-86565596D01*
X115156342Y-86565596D02*
X115204723Y-86541406D01*
X115204723Y-86541406D02*
X115301485Y-86541406D01*
X115301485Y-86541406D02*
X115349866Y-86565596D01*
X115349866Y-86565596D02*
X115374057Y-86589787D01*
X115374057Y-86589787D02*
X115398247Y-86638168D01*
X115398247Y-86638168D02*
X115398247Y-86662358D01*
X115398247Y-86662358D02*
X115374057Y-86710739D01*
X115374057Y-86710739D02*
X115349866Y-86734930D01*
X115349866Y-86734930D02*
X115301485Y-86759120D01*
X115301485Y-86759120D02*
X115204723Y-86759120D01*
X115204723Y-86759120D02*
X115156342Y-86783311D01*
X115156342Y-86783311D02*
X115132152Y-86807501D01*
X115132152Y-86807501D02*
X115107961Y-86855882D01*
X115107961Y-86855882D02*
X115107961Y-86952644D01*
X115107961Y-86952644D02*
X115132152Y-87001025D01*
X115132152Y-87001025D02*
X115156342Y-87025216D01*
X115156342Y-87025216D02*
X115204723Y-87049406D01*
X115204723Y-87049406D02*
X115301485Y-87049406D01*
X115301485Y-87049406D02*
X115349866Y-87025216D01*
X115349866Y-87025216D02*
X115374057Y-87001025D01*
X115374057Y-87001025D02*
X115398247Y-86952644D01*
X115398247Y-86952644D02*
X115398247Y-86855882D01*
X115398247Y-86855882D02*
X115374057Y-86807501D01*
X115374057Y-86807501D02*
X115349866Y-86783311D01*
X115349866Y-86783311D02*
X115301485Y-86759120D01*
X85470806Y-68296971D02*
X85228901Y-68466305D01*
X85470806Y-68587257D02*
X84962806Y-68587257D01*
X84962806Y-68587257D02*
X84962806Y-68393733D01*
X84962806Y-68393733D02*
X84986996Y-68345352D01*
X84986996Y-68345352D02*
X85011187Y-68321162D01*
X85011187Y-68321162D02*
X85059568Y-68296971D01*
X85059568Y-68296971D02*
X85132139Y-68296971D01*
X85132139Y-68296971D02*
X85180520Y-68321162D01*
X85180520Y-68321162D02*
X85204711Y-68345352D01*
X85204711Y-68345352D02*
X85228901Y-68393733D01*
X85228901Y-68393733D02*
X85228901Y-68587257D01*
X85011187Y-68103448D02*
X84986996Y-68079257D01*
X84986996Y-68079257D02*
X84962806Y-68030876D01*
X84962806Y-68030876D02*
X84962806Y-67909924D01*
X84962806Y-67909924D02*
X84986996Y-67861543D01*
X84986996Y-67861543D02*
X85011187Y-67837352D01*
X85011187Y-67837352D02*
X85059568Y-67813162D01*
X85059568Y-67813162D02*
X85107949Y-67813162D01*
X85107949Y-67813162D02*
X85180520Y-67837352D01*
X85180520Y-67837352D02*
X85470806Y-68127638D01*
X85470806Y-68127638D02*
X85470806Y-67813162D01*
X85132139Y-67377733D02*
X85470806Y-67377733D01*
X84938616Y-67498685D02*
X85301473Y-67619638D01*
X85301473Y-67619638D02*
X85301473Y-67305161D01*
X109829406Y-83559952D02*
X109321406Y-83559952D01*
X109321406Y-83559952D02*
X109321406Y-83439000D01*
X109321406Y-83439000D02*
X109345596Y-83366428D01*
X109345596Y-83366428D02*
X109393977Y-83318047D01*
X109393977Y-83318047D02*
X109442358Y-83293857D01*
X109442358Y-83293857D02*
X109539120Y-83269666D01*
X109539120Y-83269666D02*
X109611692Y-83269666D01*
X109611692Y-83269666D02*
X109708454Y-83293857D01*
X109708454Y-83293857D02*
X109756835Y-83318047D01*
X109756835Y-83318047D02*
X109805216Y-83366428D01*
X109805216Y-83366428D02*
X109829406Y-83439000D01*
X109829406Y-83439000D02*
X109829406Y-83559952D01*
X109829406Y-82785857D02*
X109829406Y-83076143D01*
X109829406Y-82931000D02*
X109321406Y-82931000D01*
X109321406Y-82931000D02*
X109393977Y-82979381D01*
X109393977Y-82979381D02*
X109442358Y-83027762D01*
X109442358Y-83027762D02*
X109466549Y-83076143D01*
X85634663Y-54186667D02*
X85634663Y-53944762D01*
X85779806Y-54235048D02*
X85271806Y-54065714D01*
X85271806Y-54065714D02*
X85779806Y-53896381D01*
X85513711Y-53727047D02*
X85513711Y-53557714D01*
X85779806Y-53485142D02*
X85779806Y-53727047D01*
X85779806Y-53727047D02*
X85271806Y-53727047D01*
X85271806Y-53727047D02*
X85271806Y-53485142D01*
X85779806Y-53001333D02*
X85779806Y-53291619D01*
X85779806Y-53146476D02*
X85271806Y-53146476D01*
X85271806Y-53146476D02*
X85344377Y-53194857D01*
X85344377Y-53194857D02*
X85392758Y-53243238D01*
X85392758Y-53243238D02*
X85416949Y-53291619D01*
X113718025Y-75764571D02*
X113742216Y-75788762D01*
X113742216Y-75788762D02*
X113766406Y-75861333D01*
X113766406Y-75861333D02*
X113766406Y-75909714D01*
X113766406Y-75909714D02*
X113742216Y-75982286D01*
X113742216Y-75982286D02*
X113693835Y-76030667D01*
X113693835Y-76030667D02*
X113645454Y-76054857D01*
X113645454Y-76054857D02*
X113548692Y-76079048D01*
X113548692Y-76079048D02*
X113476120Y-76079048D01*
X113476120Y-76079048D02*
X113379358Y-76054857D01*
X113379358Y-76054857D02*
X113330977Y-76030667D01*
X113330977Y-76030667D02*
X113282596Y-75982286D01*
X113282596Y-75982286D02*
X113258406Y-75909714D01*
X113258406Y-75909714D02*
X113258406Y-75861333D01*
X113258406Y-75861333D02*
X113282596Y-75788762D01*
X113282596Y-75788762D02*
X113306787Y-75764571D01*
X113766406Y-75280762D02*
X113766406Y-75571048D01*
X113766406Y-75425905D02*
X113258406Y-75425905D01*
X113258406Y-75425905D02*
X113330977Y-75474286D01*
X113330977Y-75474286D02*
X113379358Y-75522667D01*
X113379358Y-75522667D02*
X113403549Y-75571048D01*
X113476120Y-74990476D02*
X113451930Y-75038857D01*
X113451930Y-75038857D02*
X113427739Y-75063047D01*
X113427739Y-75063047D02*
X113379358Y-75087238D01*
X113379358Y-75087238D02*
X113355168Y-75087238D01*
X113355168Y-75087238D02*
X113306787Y-75063047D01*
X113306787Y-75063047D02*
X113282596Y-75038857D01*
X113282596Y-75038857D02*
X113258406Y-74990476D01*
X113258406Y-74990476D02*
X113258406Y-74893714D01*
X113258406Y-74893714D02*
X113282596Y-74845333D01*
X113282596Y-74845333D02*
X113306787Y-74821142D01*
X113306787Y-74821142D02*
X113355168Y-74796952D01*
X113355168Y-74796952D02*
X113379358Y-74796952D01*
X113379358Y-74796952D02*
X113427739Y-74821142D01*
X113427739Y-74821142D02*
X113451930Y-74845333D01*
X113451930Y-74845333D02*
X113476120Y-74893714D01*
X113476120Y-74893714D02*
X113476120Y-74990476D01*
X113476120Y-74990476D02*
X113500311Y-75038857D01*
X113500311Y-75038857D02*
X113524501Y-75063047D01*
X113524501Y-75063047D02*
X113572882Y-75087238D01*
X113572882Y-75087238D02*
X113669644Y-75087238D01*
X113669644Y-75087238D02*
X113718025Y-75063047D01*
X113718025Y-75063047D02*
X113742216Y-75038857D01*
X113742216Y-75038857D02*
X113766406Y-74990476D01*
X113766406Y-74990476D02*
X113766406Y-74893714D01*
X113766406Y-74893714D02*
X113742216Y-74845333D01*
X113742216Y-74845333D02*
X113718025Y-74821142D01*
X113718025Y-74821142D02*
X113669644Y-74796952D01*
X113669644Y-74796952D02*
X113572882Y-74796952D01*
X113572882Y-74796952D02*
X113524501Y-74821142D01*
X113524501Y-74821142D02*
X113500311Y-74845333D01*
X113500311Y-74845333D02*
X113476120Y-74893714D01*
X92331225Y-64346666D02*
X92355416Y-64370857D01*
X92355416Y-64370857D02*
X92379606Y-64443428D01*
X92379606Y-64443428D02*
X92379606Y-64491809D01*
X92379606Y-64491809D02*
X92355416Y-64564381D01*
X92355416Y-64564381D02*
X92307035Y-64612762D01*
X92307035Y-64612762D02*
X92258654Y-64636952D01*
X92258654Y-64636952D02*
X92161892Y-64661143D01*
X92161892Y-64661143D02*
X92089320Y-64661143D01*
X92089320Y-64661143D02*
X91992558Y-64636952D01*
X91992558Y-64636952D02*
X91944177Y-64612762D01*
X91944177Y-64612762D02*
X91895796Y-64564381D01*
X91895796Y-64564381D02*
X91871606Y-64491809D01*
X91871606Y-64491809D02*
X91871606Y-64443428D01*
X91871606Y-64443428D02*
X91895796Y-64370857D01*
X91895796Y-64370857D02*
X91919987Y-64346666D01*
X91871606Y-64177333D02*
X91871606Y-63838666D01*
X91871606Y-63838666D02*
X92379606Y-64056381D01*
X90072028Y-69748206D02*
X89902694Y-69506301D01*
X89781742Y-69748206D02*
X89781742Y-69240206D01*
X89781742Y-69240206D02*
X89975266Y-69240206D01*
X89975266Y-69240206D02*
X90023647Y-69264396D01*
X90023647Y-69264396D02*
X90047837Y-69288587D01*
X90047837Y-69288587D02*
X90072028Y-69336968D01*
X90072028Y-69336968D02*
X90072028Y-69409539D01*
X90072028Y-69409539D02*
X90047837Y-69457920D01*
X90047837Y-69457920D02*
X90023647Y-69482111D01*
X90023647Y-69482111D02*
X89975266Y-69506301D01*
X89975266Y-69506301D02*
X89781742Y-69506301D01*
X90265551Y-69288587D02*
X90289742Y-69264396D01*
X90289742Y-69264396D02*
X90338123Y-69240206D01*
X90338123Y-69240206D02*
X90459075Y-69240206D01*
X90459075Y-69240206D02*
X90507456Y-69264396D01*
X90507456Y-69264396D02*
X90531647Y-69288587D01*
X90531647Y-69288587D02*
X90555837Y-69336968D01*
X90555837Y-69336968D02*
X90555837Y-69385349D01*
X90555837Y-69385349D02*
X90531647Y-69457920D01*
X90531647Y-69457920D02*
X90241361Y-69748206D01*
X90241361Y-69748206D02*
X90555837Y-69748206D01*
X90725171Y-69240206D02*
X91039647Y-69240206D01*
X91039647Y-69240206D02*
X90870314Y-69433730D01*
X90870314Y-69433730D02*
X90942885Y-69433730D01*
X90942885Y-69433730D02*
X90991266Y-69457920D01*
X90991266Y-69457920D02*
X91015457Y-69482111D01*
X91015457Y-69482111D02*
X91039647Y-69530492D01*
X91039647Y-69530492D02*
X91039647Y-69651444D01*
X91039647Y-69651444D02*
X91015457Y-69699825D01*
X91015457Y-69699825D02*
X90991266Y-69724016D01*
X90991266Y-69724016D02*
X90942885Y-69748206D01*
X90942885Y-69748206D02*
X90797742Y-69748206D01*
X90797742Y-69748206D02*
X90749361Y-69724016D01*
X90749361Y-69724016D02*
X90725171Y-69699825D01*
X93060761Y-55600406D02*
X93060761Y-55963263D01*
X93060761Y-55963263D02*
X93036570Y-56035835D01*
X93036570Y-56035835D02*
X92988189Y-56084216D01*
X92988189Y-56084216D02*
X92915618Y-56108406D01*
X92915618Y-56108406D02*
X92867237Y-56108406D01*
X93568761Y-56108406D02*
X93278475Y-56108406D01*
X93423618Y-56108406D02*
X93423618Y-55600406D01*
X93423618Y-55600406D02*
X93375237Y-55672977D01*
X93375237Y-55672977D02*
X93326856Y-55721358D01*
X93326856Y-55721358D02*
X93278475Y-55745549D01*
X94052571Y-56108406D02*
X93762285Y-56108406D01*
X93907428Y-56108406D02*
X93907428Y-55600406D01*
X93907428Y-55600406D02*
X93859047Y-55672977D01*
X93859047Y-55672977D02*
X93810666Y-55721358D01*
X93810666Y-55721358D02*
X93762285Y-55745549D01*
X104944333Y-81307625D02*
X104920142Y-81331816D01*
X104920142Y-81331816D02*
X104847571Y-81356006D01*
X104847571Y-81356006D02*
X104799190Y-81356006D01*
X104799190Y-81356006D02*
X104726618Y-81331816D01*
X104726618Y-81331816D02*
X104678237Y-81283435D01*
X104678237Y-81283435D02*
X104654047Y-81235054D01*
X104654047Y-81235054D02*
X104629856Y-81138292D01*
X104629856Y-81138292D02*
X104629856Y-81065720D01*
X104629856Y-81065720D02*
X104654047Y-80968958D01*
X104654047Y-80968958D02*
X104678237Y-80920577D01*
X104678237Y-80920577D02*
X104726618Y-80872196D01*
X104726618Y-80872196D02*
X104799190Y-80848006D01*
X104799190Y-80848006D02*
X104847571Y-80848006D01*
X104847571Y-80848006D02*
X104920142Y-80872196D01*
X104920142Y-80872196D02*
X104944333Y-80896387D01*
X105403952Y-80848006D02*
X105162047Y-80848006D01*
X105162047Y-80848006D02*
X105137856Y-81089911D01*
X105137856Y-81089911D02*
X105162047Y-81065720D01*
X105162047Y-81065720D02*
X105210428Y-81041530D01*
X105210428Y-81041530D02*
X105331380Y-81041530D01*
X105331380Y-81041530D02*
X105379761Y-81065720D01*
X105379761Y-81065720D02*
X105403952Y-81089911D01*
X105403952Y-81089911D02*
X105428142Y-81138292D01*
X105428142Y-81138292D02*
X105428142Y-81259244D01*
X105428142Y-81259244D02*
X105403952Y-81307625D01*
X105403952Y-81307625D02*
X105379761Y-81331816D01*
X105379761Y-81331816D02*
X105331380Y-81356006D01*
X105331380Y-81356006D02*
X105210428Y-81356006D01*
X105210428Y-81356006D02*
X105162047Y-81331816D01*
X105162047Y-81331816D02*
X105137856Y-81307625D01*
X95277625Y-77542571D02*
X95301816Y-77566762D01*
X95301816Y-77566762D02*
X95326006Y-77639333D01*
X95326006Y-77639333D02*
X95326006Y-77687714D01*
X95326006Y-77687714D02*
X95301816Y-77760286D01*
X95301816Y-77760286D02*
X95253435Y-77808667D01*
X95253435Y-77808667D02*
X95205054Y-77832857D01*
X95205054Y-77832857D02*
X95108292Y-77857048D01*
X95108292Y-77857048D02*
X95035720Y-77857048D01*
X95035720Y-77857048D02*
X94938958Y-77832857D01*
X94938958Y-77832857D02*
X94890577Y-77808667D01*
X94890577Y-77808667D02*
X94842196Y-77760286D01*
X94842196Y-77760286D02*
X94818006Y-77687714D01*
X94818006Y-77687714D02*
X94818006Y-77639333D01*
X94818006Y-77639333D02*
X94842196Y-77566762D01*
X94842196Y-77566762D02*
X94866387Y-77542571D01*
X95326006Y-77058762D02*
X95326006Y-77349048D01*
X95326006Y-77203905D02*
X94818006Y-77203905D01*
X94818006Y-77203905D02*
X94890577Y-77252286D01*
X94890577Y-77252286D02*
X94938958Y-77300667D01*
X94938958Y-77300667D02*
X94963149Y-77349048D01*
X94987339Y-76623333D02*
X95326006Y-76623333D01*
X94793816Y-76744285D02*
X95156673Y-76865238D01*
X95156673Y-76865238D02*
X95156673Y-76550761D01*
X95419333Y-63172025D02*
X95395142Y-63196216D01*
X95395142Y-63196216D02*
X95322571Y-63220406D01*
X95322571Y-63220406D02*
X95274190Y-63220406D01*
X95274190Y-63220406D02*
X95201618Y-63196216D01*
X95201618Y-63196216D02*
X95153237Y-63147835D01*
X95153237Y-63147835D02*
X95129047Y-63099454D01*
X95129047Y-63099454D02*
X95104856Y-63002692D01*
X95104856Y-63002692D02*
X95104856Y-62930120D01*
X95104856Y-62930120D02*
X95129047Y-62833358D01*
X95129047Y-62833358D02*
X95153237Y-62784977D01*
X95153237Y-62784977D02*
X95201618Y-62736596D01*
X95201618Y-62736596D02*
X95274190Y-62712406D01*
X95274190Y-62712406D02*
X95322571Y-62712406D01*
X95322571Y-62712406D02*
X95395142Y-62736596D01*
X95395142Y-62736596D02*
X95419333Y-62760787D01*
X95588666Y-62712406D02*
X95903142Y-62712406D01*
X95903142Y-62712406D02*
X95733809Y-62905930D01*
X95733809Y-62905930D02*
X95806380Y-62905930D01*
X95806380Y-62905930D02*
X95854761Y-62930120D01*
X95854761Y-62930120D02*
X95878952Y-62954311D01*
X95878952Y-62954311D02*
X95903142Y-63002692D01*
X95903142Y-63002692D02*
X95903142Y-63123644D01*
X95903142Y-63123644D02*
X95878952Y-63172025D01*
X95878952Y-63172025D02*
X95854761Y-63196216D01*
X95854761Y-63196216D02*
X95806380Y-63220406D01*
X95806380Y-63220406D02*
X95661237Y-63220406D01*
X95661237Y-63220406D02*
X95612856Y-63196216D01*
X95612856Y-63196216D02*
X95588666Y-63172025D01*
X106849333Y-81307625D02*
X106825142Y-81331816D01*
X106825142Y-81331816D02*
X106752571Y-81356006D01*
X106752571Y-81356006D02*
X106704190Y-81356006D01*
X106704190Y-81356006D02*
X106631618Y-81331816D01*
X106631618Y-81331816D02*
X106583237Y-81283435D01*
X106583237Y-81283435D02*
X106559047Y-81235054D01*
X106559047Y-81235054D02*
X106534856Y-81138292D01*
X106534856Y-81138292D02*
X106534856Y-81065720D01*
X106534856Y-81065720D02*
X106559047Y-80968958D01*
X106559047Y-80968958D02*
X106583237Y-80920577D01*
X106583237Y-80920577D02*
X106631618Y-80872196D01*
X106631618Y-80872196D02*
X106704190Y-80848006D01*
X106704190Y-80848006D02*
X106752571Y-80848006D01*
X106752571Y-80848006D02*
X106825142Y-80872196D01*
X106825142Y-80872196D02*
X106849333Y-80896387D01*
X107284761Y-80848006D02*
X107187999Y-80848006D01*
X107187999Y-80848006D02*
X107139618Y-80872196D01*
X107139618Y-80872196D02*
X107115428Y-80896387D01*
X107115428Y-80896387D02*
X107067047Y-80968958D01*
X107067047Y-80968958D02*
X107042856Y-81065720D01*
X107042856Y-81065720D02*
X107042856Y-81259244D01*
X107042856Y-81259244D02*
X107067047Y-81307625D01*
X107067047Y-81307625D02*
X107091237Y-81331816D01*
X107091237Y-81331816D02*
X107139618Y-81356006D01*
X107139618Y-81356006D02*
X107236380Y-81356006D01*
X107236380Y-81356006D02*
X107284761Y-81331816D01*
X107284761Y-81331816D02*
X107308952Y-81307625D01*
X107308952Y-81307625D02*
X107333142Y-81259244D01*
X107333142Y-81259244D02*
X107333142Y-81138292D01*
X107333142Y-81138292D02*
X107308952Y-81089911D01*
X107308952Y-81089911D02*
X107284761Y-81065720D01*
X107284761Y-81065720D02*
X107236380Y-81041530D01*
X107236380Y-81041530D02*
X107139618Y-81041530D01*
X107139618Y-81041530D02*
X107091237Y-81065720D01*
X107091237Y-81065720D02*
X107067047Y-81089911D01*
X107067047Y-81089911D02*
X107042856Y-81138292D01*
X112398628Y-86997225D02*
X112374437Y-87021416D01*
X112374437Y-87021416D02*
X112301866Y-87045606D01*
X112301866Y-87045606D02*
X112253485Y-87045606D01*
X112253485Y-87045606D02*
X112180913Y-87021416D01*
X112180913Y-87021416D02*
X112132532Y-86973035D01*
X112132532Y-86973035D02*
X112108342Y-86924654D01*
X112108342Y-86924654D02*
X112084151Y-86827892D01*
X112084151Y-86827892D02*
X112084151Y-86755320D01*
X112084151Y-86755320D02*
X112108342Y-86658558D01*
X112108342Y-86658558D02*
X112132532Y-86610177D01*
X112132532Y-86610177D02*
X112180913Y-86561796D01*
X112180913Y-86561796D02*
X112253485Y-86537606D01*
X112253485Y-86537606D02*
X112301866Y-86537606D01*
X112301866Y-86537606D02*
X112374437Y-86561796D01*
X112374437Y-86561796D02*
X112398628Y-86585987D01*
X112567961Y-86537606D02*
X112882437Y-86537606D01*
X112882437Y-86537606D02*
X112713104Y-86731130D01*
X112713104Y-86731130D02*
X112785675Y-86731130D01*
X112785675Y-86731130D02*
X112834056Y-86755320D01*
X112834056Y-86755320D02*
X112858247Y-86779511D01*
X112858247Y-86779511D02*
X112882437Y-86827892D01*
X112882437Y-86827892D02*
X112882437Y-86948844D01*
X112882437Y-86948844D02*
X112858247Y-86997225D01*
X112858247Y-86997225D02*
X112834056Y-87021416D01*
X112834056Y-87021416D02*
X112785675Y-87045606D01*
X112785675Y-87045606D02*
X112640532Y-87045606D01*
X112640532Y-87045606D02*
X112592151Y-87021416D01*
X112592151Y-87021416D02*
X112567961Y-86997225D01*
X113317866Y-86706939D02*
X113317866Y-87045606D01*
X113196914Y-86513416D02*
X113075961Y-86876273D01*
X113075961Y-86876273D02*
X113390438Y-86876273D01*
X93268606Y-70303571D02*
X93026701Y-70472905D01*
X93268606Y-70593857D02*
X92760606Y-70593857D01*
X92760606Y-70593857D02*
X92760606Y-70400333D01*
X92760606Y-70400333D02*
X92784796Y-70351952D01*
X92784796Y-70351952D02*
X92808987Y-70327762D01*
X92808987Y-70327762D02*
X92857368Y-70303571D01*
X92857368Y-70303571D02*
X92929939Y-70303571D01*
X92929939Y-70303571D02*
X92978320Y-70327762D01*
X92978320Y-70327762D02*
X93002511Y-70351952D01*
X93002511Y-70351952D02*
X93026701Y-70400333D01*
X93026701Y-70400333D02*
X93026701Y-70593857D01*
X92808987Y-70110048D02*
X92784796Y-70085857D01*
X92784796Y-70085857D02*
X92760606Y-70037476D01*
X92760606Y-70037476D02*
X92760606Y-69916524D01*
X92760606Y-69916524D02*
X92784796Y-69868143D01*
X92784796Y-69868143D02*
X92808987Y-69843952D01*
X92808987Y-69843952D02*
X92857368Y-69819762D01*
X92857368Y-69819762D02*
X92905749Y-69819762D01*
X92905749Y-69819762D02*
X92978320Y-69843952D01*
X92978320Y-69843952D02*
X93268606Y-70134238D01*
X93268606Y-70134238D02*
X93268606Y-69819762D01*
X93268606Y-69335952D02*
X93268606Y-69626238D01*
X93268606Y-69481095D02*
X92760606Y-69481095D01*
X92760606Y-69481095D02*
X92833177Y-69529476D01*
X92833177Y-69529476D02*
X92881558Y-69577857D01*
X92881558Y-69577857D02*
X92905749Y-69626238D01*
X93175666Y-54330406D02*
X93175666Y-54693263D01*
X93175666Y-54693263D02*
X93151475Y-54765835D01*
X93151475Y-54765835D02*
X93103094Y-54814216D01*
X93103094Y-54814216D02*
X93030523Y-54838406D01*
X93030523Y-54838406D02*
X92982142Y-54838406D01*
X93490142Y-54548120D02*
X93441761Y-54523930D01*
X93441761Y-54523930D02*
X93417571Y-54499739D01*
X93417571Y-54499739D02*
X93393380Y-54451358D01*
X93393380Y-54451358D02*
X93393380Y-54427168D01*
X93393380Y-54427168D02*
X93417571Y-54378787D01*
X93417571Y-54378787D02*
X93441761Y-54354596D01*
X93441761Y-54354596D02*
X93490142Y-54330406D01*
X93490142Y-54330406D02*
X93586904Y-54330406D01*
X93586904Y-54330406D02*
X93635285Y-54354596D01*
X93635285Y-54354596D02*
X93659476Y-54378787D01*
X93659476Y-54378787D02*
X93683666Y-54427168D01*
X93683666Y-54427168D02*
X93683666Y-54451358D01*
X93683666Y-54451358D02*
X93659476Y-54499739D01*
X93659476Y-54499739D02*
X93635285Y-54523930D01*
X93635285Y-54523930D02*
X93586904Y-54548120D01*
X93586904Y-54548120D02*
X93490142Y-54548120D01*
X93490142Y-54548120D02*
X93441761Y-54572311D01*
X93441761Y-54572311D02*
X93417571Y-54596501D01*
X93417571Y-54596501D02*
X93393380Y-54644882D01*
X93393380Y-54644882D02*
X93393380Y-54741644D01*
X93393380Y-54741644D02*
X93417571Y-54790025D01*
X93417571Y-54790025D02*
X93441761Y-54814216D01*
X93441761Y-54814216D02*
X93490142Y-54838406D01*
X93490142Y-54838406D02*
X93586904Y-54838406D01*
X93586904Y-54838406D02*
X93635285Y-54814216D01*
X93635285Y-54814216D02*
X93659476Y-54790025D01*
X93659476Y-54790025D02*
X93683666Y-54741644D01*
X93683666Y-54741644D02*
X93683666Y-54644882D01*
X93683666Y-54644882D02*
X93659476Y-54596501D01*
X93659476Y-54596501D02*
X93635285Y-54572311D01*
X93635285Y-54572311D02*
X93586904Y-54548120D01*
X93779025Y-65096571D02*
X93803216Y-65120762D01*
X93803216Y-65120762D02*
X93827406Y-65193333D01*
X93827406Y-65193333D02*
X93827406Y-65241714D01*
X93827406Y-65241714D02*
X93803216Y-65314286D01*
X93803216Y-65314286D02*
X93754835Y-65362667D01*
X93754835Y-65362667D02*
X93706454Y-65386857D01*
X93706454Y-65386857D02*
X93609692Y-65411048D01*
X93609692Y-65411048D02*
X93537120Y-65411048D01*
X93537120Y-65411048D02*
X93440358Y-65386857D01*
X93440358Y-65386857D02*
X93391977Y-65362667D01*
X93391977Y-65362667D02*
X93343596Y-65314286D01*
X93343596Y-65314286D02*
X93319406Y-65241714D01*
X93319406Y-65241714D02*
X93319406Y-65193333D01*
X93319406Y-65193333D02*
X93343596Y-65120762D01*
X93343596Y-65120762D02*
X93367787Y-65096571D01*
X93319406Y-64927238D02*
X93319406Y-64612762D01*
X93319406Y-64612762D02*
X93512930Y-64782095D01*
X93512930Y-64782095D02*
X93512930Y-64709524D01*
X93512930Y-64709524D02*
X93537120Y-64661143D01*
X93537120Y-64661143D02*
X93561311Y-64636952D01*
X93561311Y-64636952D02*
X93609692Y-64612762D01*
X93609692Y-64612762D02*
X93730644Y-64612762D01*
X93730644Y-64612762D02*
X93779025Y-64636952D01*
X93779025Y-64636952D02*
X93803216Y-64661143D01*
X93803216Y-64661143D02*
X93827406Y-64709524D01*
X93827406Y-64709524D02*
X93827406Y-64854667D01*
X93827406Y-64854667D02*
X93803216Y-64903048D01*
X93803216Y-64903048D02*
X93779025Y-64927238D01*
X93319406Y-64298285D02*
X93319406Y-64249904D01*
X93319406Y-64249904D02*
X93343596Y-64201523D01*
X93343596Y-64201523D02*
X93367787Y-64177333D01*
X93367787Y-64177333D02*
X93416168Y-64153142D01*
X93416168Y-64153142D02*
X93512930Y-64128952D01*
X93512930Y-64128952D02*
X93633882Y-64128952D01*
X93633882Y-64128952D02*
X93730644Y-64153142D01*
X93730644Y-64153142D02*
X93779025Y-64177333D01*
X93779025Y-64177333D02*
X93803216Y-64201523D01*
X93803216Y-64201523D02*
X93827406Y-64249904D01*
X93827406Y-64249904D02*
X93827406Y-64298285D01*
X93827406Y-64298285D02*
X93803216Y-64346666D01*
X93803216Y-64346666D02*
X93779025Y-64370857D01*
X93779025Y-64370857D02*
X93730644Y-64395047D01*
X93730644Y-64395047D02*
X93633882Y-64419238D01*
X93633882Y-64419238D02*
X93512930Y-64419238D01*
X93512930Y-64419238D02*
X93416168Y-64395047D01*
X93416168Y-64395047D02*
X93367787Y-64370857D01*
X93367787Y-64370857D02*
X93343596Y-64346666D01*
X93343596Y-64346666D02*
X93319406Y-64298285D01*
X107772006Y-85416571D02*
X107530101Y-85585905D01*
X107772006Y-85706857D02*
X107264006Y-85706857D01*
X107264006Y-85706857D02*
X107264006Y-85513333D01*
X107264006Y-85513333D02*
X107288196Y-85464952D01*
X107288196Y-85464952D02*
X107312387Y-85440762D01*
X107312387Y-85440762D02*
X107360768Y-85416571D01*
X107360768Y-85416571D02*
X107433339Y-85416571D01*
X107433339Y-85416571D02*
X107481720Y-85440762D01*
X107481720Y-85440762D02*
X107505911Y-85464952D01*
X107505911Y-85464952D02*
X107530101Y-85513333D01*
X107530101Y-85513333D02*
X107530101Y-85706857D01*
X107772006Y-84932762D02*
X107772006Y-85223048D01*
X107772006Y-85077905D02*
X107264006Y-85077905D01*
X107264006Y-85077905D02*
X107336577Y-85126286D01*
X107336577Y-85126286D02*
X107384958Y-85174667D01*
X107384958Y-85174667D02*
X107409149Y-85223048D01*
X107264006Y-84618285D02*
X107264006Y-84569904D01*
X107264006Y-84569904D02*
X107288196Y-84521523D01*
X107288196Y-84521523D02*
X107312387Y-84497333D01*
X107312387Y-84497333D02*
X107360768Y-84473142D01*
X107360768Y-84473142D02*
X107457530Y-84448952D01*
X107457530Y-84448952D02*
X107578482Y-84448952D01*
X107578482Y-84448952D02*
X107675244Y-84473142D01*
X107675244Y-84473142D02*
X107723625Y-84497333D01*
X107723625Y-84497333D02*
X107747816Y-84521523D01*
X107747816Y-84521523D02*
X107772006Y-84569904D01*
X107772006Y-84569904D02*
X107772006Y-84618285D01*
X107772006Y-84618285D02*
X107747816Y-84666666D01*
X107747816Y-84666666D02*
X107723625Y-84690857D01*
X107723625Y-84690857D02*
X107675244Y-84715047D01*
X107675244Y-84715047D02*
X107578482Y-84739238D01*
X107578482Y-84739238D02*
X107457530Y-84739238D01*
X107457530Y-84739238D02*
X107360768Y-84715047D01*
X107360768Y-84715047D02*
X107312387Y-84690857D01*
X107312387Y-84690857D02*
X107288196Y-84666666D01*
X107288196Y-84666666D02*
X107264006Y-84618285D01*
X116815616Y-92097886D02*
X116839806Y-92025314D01*
X116839806Y-92025314D02*
X116839806Y-91904362D01*
X116839806Y-91904362D02*
X116815616Y-91855981D01*
X116815616Y-91855981D02*
X116791425Y-91831790D01*
X116791425Y-91831790D02*
X116743044Y-91807600D01*
X116743044Y-91807600D02*
X116694663Y-91807600D01*
X116694663Y-91807600D02*
X116646282Y-91831790D01*
X116646282Y-91831790D02*
X116622092Y-91855981D01*
X116622092Y-91855981D02*
X116597901Y-91904362D01*
X116597901Y-91904362D02*
X116573711Y-92001124D01*
X116573711Y-92001124D02*
X116549520Y-92049505D01*
X116549520Y-92049505D02*
X116525330Y-92073695D01*
X116525330Y-92073695D02*
X116476949Y-92097886D01*
X116476949Y-92097886D02*
X116428568Y-92097886D01*
X116428568Y-92097886D02*
X116380187Y-92073695D01*
X116380187Y-92073695D02*
X116355996Y-92049505D01*
X116355996Y-92049505D02*
X116331806Y-92001124D01*
X116331806Y-92001124D02*
X116331806Y-91880171D01*
X116331806Y-91880171D02*
X116355996Y-91807600D01*
X116331806Y-91638266D02*
X116839806Y-91517314D01*
X116839806Y-91517314D02*
X116476949Y-91420552D01*
X116476949Y-91420552D02*
X116839806Y-91323790D01*
X116839806Y-91323790D02*
X116331806Y-91202838D01*
X116839806Y-90743219D02*
X116839806Y-91033505D01*
X116839806Y-90888362D02*
X116331806Y-90888362D01*
X116331806Y-90888362D02*
X116404377Y-90936743D01*
X116404377Y-90936743D02*
X116452758Y-90985124D01*
X116452758Y-90985124D02*
X116476949Y-91033505D01*
X90652406Y-86275333D02*
X91015263Y-86275333D01*
X91015263Y-86275333D02*
X91087835Y-86299524D01*
X91087835Y-86299524D02*
X91136216Y-86347905D01*
X91136216Y-86347905D02*
X91160406Y-86420476D01*
X91160406Y-86420476D02*
X91160406Y-86468857D01*
X90700787Y-86057619D02*
X90676596Y-86033428D01*
X90676596Y-86033428D02*
X90652406Y-85985047D01*
X90652406Y-85985047D02*
X90652406Y-85864095D01*
X90652406Y-85864095D02*
X90676596Y-85815714D01*
X90676596Y-85815714D02*
X90700787Y-85791523D01*
X90700787Y-85791523D02*
X90749168Y-85767333D01*
X90749168Y-85767333D02*
X90797549Y-85767333D01*
X90797549Y-85767333D02*
X90870120Y-85791523D01*
X90870120Y-85791523D02*
X91160406Y-86081809D01*
X91160406Y-86081809D02*
X91160406Y-85767333D01*
X115163406Y-66590333D02*
X115526263Y-66590333D01*
X115526263Y-66590333D02*
X115598835Y-66614524D01*
X115598835Y-66614524D02*
X115647216Y-66662905D01*
X115647216Y-66662905D02*
X115671406Y-66735476D01*
X115671406Y-66735476D02*
X115671406Y-66783857D01*
X115671406Y-66082333D02*
X115671406Y-66372619D01*
X115671406Y-66227476D02*
X115163406Y-66227476D01*
X115163406Y-66227476D02*
X115235977Y-66275857D01*
X115235977Y-66275857D02*
X115284358Y-66324238D01*
X115284358Y-66324238D02*
X115308549Y-66372619D01*
X100905733Y-81307625D02*
X100881542Y-81331816D01*
X100881542Y-81331816D02*
X100808971Y-81356006D01*
X100808971Y-81356006D02*
X100760590Y-81356006D01*
X100760590Y-81356006D02*
X100688018Y-81331816D01*
X100688018Y-81331816D02*
X100639637Y-81283435D01*
X100639637Y-81283435D02*
X100615447Y-81235054D01*
X100615447Y-81235054D02*
X100591256Y-81138292D01*
X100591256Y-81138292D02*
X100591256Y-81065720D01*
X100591256Y-81065720D02*
X100615447Y-80968958D01*
X100615447Y-80968958D02*
X100639637Y-80920577D01*
X100639637Y-80920577D02*
X100688018Y-80872196D01*
X100688018Y-80872196D02*
X100760590Y-80848006D01*
X100760590Y-80848006D02*
X100808971Y-80848006D01*
X100808971Y-80848006D02*
X100881542Y-80872196D01*
X100881542Y-80872196D02*
X100905733Y-80896387D01*
X101389542Y-81356006D02*
X101099256Y-81356006D01*
X101244399Y-81356006D02*
X101244399Y-80848006D01*
X101244399Y-80848006D02*
X101196018Y-80920577D01*
X101196018Y-80920577D02*
X101147637Y-80968958D01*
X101147637Y-80968958D02*
X101099256Y-80993149D01*
X110737951Y-67157406D02*
X111028237Y-67157406D01*
X110883094Y-67665406D02*
X110883094Y-67157406D01*
X111197571Y-67665406D02*
X111197571Y-67157406D01*
X111197571Y-67157406D02*
X111391095Y-67157406D01*
X111391095Y-67157406D02*
X111439476Y-67181596D01*
X111439476Y-67181596D02*
X111463666Y-67205787D01*
X111463666Y-67205787D02*
X111487857Y-67254168D01*
X111487857Y-67254168D02*
X111487857Y-67326739D01*
X111487857Y-67326739D02*
X111463666Y-67375120D01*
X111463666Y-67375120D02*
X111439476Y-67399311D01*
X111439476Y-67399311D02*
X111391095Y-67423501D01*
X111391095Y-67423501D02*
X111197571Y-67423501D01*
X111657190Y-67157406D02*
X111971666Y-67157406D01*
X111971666Y-67157406D02*
X111802333Y-67350930D01*
X111802333Y-67350930D02*
X111874904Y-67350930D01*
X111874904Y-67350930D02*
X111923285Y-67375120D01*
X111923285Y-67375120D02*
X111947476Y-67399311D01*
X111947476Y-67399311D02*
X111971666Y-67447692D01*
X111971666Y-67447692D02*
X111971666Y-67568644D01*
X111971666Y-67568644D02*
X111947476Y-67617025D01*
X111947476Y-67617025D02*
X111923285Y-67641216D01*
X111923285Y-67641216D02*
X111874904Y-67665406D01*
X111874904Y-67665406D02*
X111729761Y-67665406D01*
X111729761Y-67665406D02*
X111681380Y-67641216D01*
X111681380Y-67641216D02*
X111657190Y-67617025D01*
X98149228Y-83616606D02*
X97979894Y-83374701D01*
X97858942Y-83616606D02*
X97858942Y-83108606D01*
X97858942Y-83108606D02*
X98052466Y-83108606D01*
X98052466Y-83108606D02*
X98100847Y-83132796D01*
X98100847Y-83132796D02*
X98125037Y-83156987D01*
X98125037Y-83156987D02*
X98149228Y-83205368D01*
X98149228Y-83205368D02*
X98149228Y-83277939D01*
X98149228Y-83277939D02*
X98125037Y-83326320D01*
X98125037Y-83326320D02*
X98100847Y-83350511D01*
X98100847Y-83350511D02*
X98052466Y-83374701D01*
X98052466Y-83374701D02*
X97858942Y-83374701D01*
X98633037Y-83616606D02*
X98342751Y-83616606D01*
X98487894Y-83616606D02*
X98487894Y-83108606D01*
X98487894Y-83108606D02*
X98439513Y-83181177D01*
X98439513Y-83181177D02*
X98391132Y-83229558D01*
X98391132Y-83229558D02*
X98342751Y-83253749D01*
X99068466Y-83108606D02*
X98971704Y-83108606D01*
X98971704Y-83108606D02*
X98923323Y-83132796D01*
X98923323Y-83132796D02*
X98899133Y-83156987D01*
X98899133Y-83156987D02*
X98850752Y-83229558D01*
X98850752Y-83229558D02*
X98826561Y-83326320D01*
X98826561Y-83326320D02*
X98826561Y-83519844D01*
X98826561Y-83519844D02*
X98850752Y-83568225D01*
X98850752Y-83568225D02*
X98874942Y-83592416D01*
X98874942Y-83592416D02*
X98923323Y-83616606D01*
X98923323Y-83616606D02*
X99020085Y-83616606D01*
X99020085Y-83616606D02*
X99068466Y-83592416D01*
X99068466Y-83592416D02*
X99092657Y-83568225D01*
X99092657Y-83568225D02*
X99116847Y-83519844D01*
X99116847Y-83519844D02*
X99116847Y-83398892D01*
X99116847Y-83398892D02*
X99092657Y-83350511D01*
X99092657Y-83350511D02*
X99068466Y-83326320D01*
X99068466Y-83326320D02*
X99020085Y-83302130D01*
X99020085Y-83302130D02*
X98923323Y-83302130D01*
X98923323Y-83302130D02*
X98874942Y-83326320D01*
X98874942Y-83326320D02*
X98850752Y-83350511D01*
X98850752Y-83350511D02*
X98826561Y-83398892D01*
X90593333Y-63172025D02*
X90569142Y-63196216D01*
X90569142Y-63196216D02*
X90496571Y-63220406D01*
X90496571Y-63220406D02*
X90448190Y-63220406D01*
X90448190Y-63220406D02*
X90375618Y-63196216D01*
X90375618Y-63196216D02*
X90327237Y-63147835D01*
X90327237Y-63147835D02*
X90303047Y-63099454D01*
X90303047Y-63099454D02*
X90278856Y-63002692D01*
X90278856Y-63002692D02*
X90278856Y-62930120D01*
X90278856Y-62930120D02*
X90303047Y-62833358D01*
X90303047Y-62833358D02*
X90327237Y-62784977D01*
X90327237Y-62784977D02*
X90375618Y-62736596D01*
X90375618Y-62736596D02*
X90448190Y-62712406D01*
X90448190Y-62712406D02*
X90496571Y-62712406D01*
X90496571Y-62712406D02*
X90569142Y-62736596D01*
X90569142Y-62736596D02*
X90593333Y-62760787D01*
X90786856Y-62760787D02*
X90811047Y-62736596D01*
X90811047Y-62736596D02*
X90859428Y-62712406D01*
X90859428Y-62712406D02*
X90980380Y-62712406D01*
X90980380Y-62712406D02*
X91028761Y-62736596D01*
X91028761Y-62736596D02*
X91052952Y-62760787D01*
X91052952Y-62760787D02*
X91077142Y-62809168D01*
X91077142Y-62809168D02*
X91077142Y-62857549D01*
X91077142Y-62857549D02*
X91052952Y-62930120D01*
X91052952Y-62930120D02*
X90762666Y-63220406D01*
X90762666Y-63220406D02*
X91077142Y-63220406D01*
X96700025Y-65096571D02*
X96724216Y-65120762D01*
X96724216Y-65120762D02*
X96748406Y-65193333D01*
X96748406Y-65193333D02*
X96748406Y-65241714D01*
X96748406Y-65241714D02*
X96724216Y-65314286D01*
X96724216Y-65314286D02*
X96675835Y-65362667D01*
X96675835Y-65362667D02*
X96627454Y-65386857D01*
X96627454Y-65386857D02*
X96530692Y-65411048D01*
X96530692Y-65411048D02*
X96458120Y-65411048D01*
X96458120Y-65411048D02*
X96361358Y-65386857D01*
X96361358Y-65386857D02*
X96312977Y-65362667D01*
X96312977Y-65362667D02*
X96264596Y-65314286D01*
X96264596Y-65314286D02*
X96240406Y-65241714D01*
X96240406Y-65241714D02*
X96240406Y-65193333D01*
X96240406Y-65193333D02*
X96264596Y-65120762D01*
X96264596Y-65120762D02*
X96288787Y-65096571D01*
X96240406Y-64927238D02*
X96240406Y-64612762D01*
X96240406Y-64612762D02*
X96433930Y-64782095D01*
X96433930Y-64782095D02*
X96433930Y-64709524D01*
X96433930Y-64709524D02*
X96458120Y-64661143D01*
X96458120Y-64661143D02*
X96482311Y-64636952D01*
X96482311Y-64636952D02*
X96530692Y-64612762D01*
X96530692Y-64612762D02*
X96651644Y-64612762D01*
X96651644Y-64612762D02*
X96700025Y-64636952D01*
X96700025Y-64636952D02*
X96724216Y-64661143D01*
X96724216Y-64661143D02*
X96748406Y-64709524D01*
X96748406Y-64709524D02*
X96748406Y-64854667D01*
X96748406Y-64854667D02*
X96724216Y-64903048D01*
X96724216Y-64903048D02*
X96700025Y-64927238D01*
X96748406Y-64128952D02*
X96748406Y-64419238D01*
X96748406Y-64274095D02*
X96240406Y-64274095D01*
X96240406Y-64274095D02*
X96312977Y-64322476D01*
X96312977Y-64322476D02*
X96361358Y-64370857D01*
X96361358Y-64370857D02*
X96385549Y-64419238D01*
X102742806Y-84869866D02*
X102500901Y-85039200D01*
X102742806Y-85160152D02*
X102234806Y-85160152D01*
X102234806Y-85160152D02*
X102234806Y-84966628D01*
X102234806Y-84966628D02*
X102258996Y-84918247D01*
X102258996Y-84918247D02*
X102283187Y-84894057D01*
X102283187Y-84894057D02*
X102331568Y-84869866D01*
X102331568Y-84869866D02*
X102404139Y-84869866D01*
X102404139Y-84869866D02*
X102452520Y-84894057D01*
X102452520Y-84894057D02*
X102476711Y-84918247D01*
X102476711Y-84918247D02*
X102500901Y-84966628D01*
X102500901Y-84966628D02*
X102500901Y-85160152D01*
X102234806Y-84700533D02*
X102234806Y-84386057D01*
X102234806Y-84386057D02*
X102428330Y-84555390D01*
X102428330Y-84555390D02*
X102428330Y-84482819D01*
X102428330Y-84482819D02*
X102452520Y-84434438D01*
X102452520Y-84434438D02*
X102476711Y-84410247D01*
X102476711Y-84410247D02*
X102525092Y-84386057D01*
X102525092Y-84386057D02*
X102646044Y-84386057D01*
X102646044Y-84386057D02*
X102694425Y-84410247D01*
X102694425Y-84410247D02*
X102718616Y-84434438D01*
X102718616Y-84434438D02*
X102742806Y-84482819D01*
X102742806Y-84482819D02*
X102742806Y-84627962D01*
X102742806Y-84627962D02*
X102718616Y-84676343D01*
X102718616Y-84676343D02*
X102694425Y-84700533D01*
X95473761Y-66776406D02*
X95473761Y-67139263D01*
X95473761Y-67139263D02*
X95449570Y-67211835D01*
X95449570Y-67211835D02*
X95401189Y-67260216D01*
X95401189Y-67260216D02*
X95328618Y-67284406D01*
X95328618Y-67284406D02*
X95280237Y-67284406D01*
X95691475Y-66824787D02*
X95715666Y-66800596D01*
X95715666Y-66800596D02*
X95764047Y-66776406D01*
X95764047Y-66776406D02*
X95884999Y-66776406D01*
X95884999Y-66776406D02*
X95933380Y-66800596D01*
X95933380Y-66800596D02*
X95957571Y-66824787D01*
X95957571Y-66824787D02*
X95981761Y-66873168D01*
X95981761Y-66873168D02*
X95981761Y-66921549D01*
X95981761Y-66921549D02*
X95957571Y-66994120D01*
X95957571Y-66994120D02*
X95667285Y-67284406D01*
X95667285Y-67284406D02*
X95981761Y-67284406D01*
X96296238Y-66776406D02*
X96344619Y-66776406D01*
X96344619Y-66776406D02*
X96393000Y-66800596D01*
X96393000Y-66800596D02*
X96417190Y-66824787D01*
X96417190Y-66824787D02*
X96441381Y-66873168D01*
X96441381Y-66873168D02*
X96465571Y-66969930D01*
X96465571Y-66969930D02*
X96465571Y-67090882D01*
X96465571Y-67090882D02*
X96441381Y-67187644D01*
X96441381Y-67187644D02*
X96417190Y-67236025D01*
X96417190Y-67236025D02*
X96393000Y-67260216D01*
X96393000Y-67260216D02*
X96344619Y-67284406D01*
X96344619Y-67284406D02*
X96296238Y-67284406D01*
X96296238Y-67284406D02*
X96247857Y-67260216D01*
X96247857Y-67260216D02*
X96223666Y-67236025D01*
X96223666Y-67236025D02*
X96199476Y-67187644D01*
X96199476Y-67187644D02*
X96175285Y-67090882D01*
X96175285Y-67090882D02*
X96175285Y-66969930D01*
X96175285Y-66969930D02*
X96199476Y-66873168D01*
X96199476Y-66873168D02*
X96223666Y-66824787D01*
X96223666Y-66824787D02*
X96247857Y-66800596D01*
X96247857Y-66800596D02*
X96296238Y-66776406D01*
X108959952Y-51917406D02*
X108959952Y-52328644D01*
X108959952Y-52328644D02*
X108984142Y-52377025D01*
X108984142Y-52377025D02*
X109008333Y-52401216D01*
X109008333Y-52401216D02*
X109056714Y-52425406D01*
X109056714Y-52425406D02*
X109153476Y-52425406D01*
X109153476Y-52425406D02*
X109201857Y-52401216D01*
X109201857Y-52401216D02*
X109226047Y-52377025D01*
X109226047Y-52377025D02*
X109250238Y-52328644D01*
X109250238Y-52328644D02*
X109250238Y-51917406D01*
X109734047Y-51917406D02*
X109492142Y-51917406D01*
X109492142Y-51917406D02*
X109467951Y-52159311D01*
X109467951Y-52159311D02*
X109492142Y-52135120D01*
X109492142Y-52135120D02*
X109540523Y-52110930D01*
X109540523Y-52110930D02*
X109661475Y-52110930D01*
X109661475Y-52110930D02*
X109709856Y-52135120D01*
X109709856Y-52135120D02*
X109734047Y-52159311D01*
X109734047Y-52159311D02*
X109758237Y-52207692D01*
X109758237Y-52207692D02*
X109758237Y-52328644D01*
X109758237Y-52328644D02*
X109734047Y-52377025D01*
X109734047Y-52377025D02*
X109709856Y-52401216D01*
X109709856Y-52401216D02*
X109661475Y-52425406D01*
X109661475Y-52425406D02*
X109540523Y-52425406D01*
X109540523Y-52425406D02*
X109492142Y-52401216D01*
X109492142Y-52401216D02*
X109467951Y-52377025D01*
X92836806Y-86330971D02*
X92594901Y-86500305D01*
X92836806Y-86621257D02*
X92328806Y-86621257D01*
X92328806Y-86621257D02*
X92328806Y-86427733D01*
X92328806Y-86427733D02*
X92352996Y-86379352D01*
X92352996Y-86379352D02*
X92377187Y-86355162D01*
X92377187Y-86355162D02*
X92425568Y-86330971D01*
X92425568Y-86330971D02*
X92498139Y-86330971D01*
X92498139Y-86330971D02*
X92546520Y-86355162D01*
X92546520Y-86355162D02*
X92570711Y-86379352D01*
X92570711Y-86379352D02*
X92594901Y-86427733D01*
X92594901Y-86427733D02*
X92594901Y-86621257D01*
X92836806Y-85847162D02*
X92836806Y-86137448D01*
X92836806Y-85992305D02*
X92328806Y-85992305D01*
X92328806Y-85992305D02*
X92401377Y-86040686D01*
X92401377Y-86040686D02*
X92449758Y-86089067D01*
X92449758Y-86089067D02*
X92473949Y-86137448D01*
X92328806Y-85387542D02*
X92328806Y-85629447D01*
X92328806Y-85629447D02*
X92570711Y-85653638D01*
X92570711Y-85653638D02*
X92546520Y-85629447D01*
X92546520Y-85629447D02*
X92522330Y-85581066D01*
X92522330Y-85581066D02*
X92522330Y-85460114D01*
X92522330Y-85460114D02*
X92546520Y-85411733D01*
X92546520Y-85411733D02*
X92570711Y-85387542D01*
X92570711Y-85387542D02*
X92619092Y-85363352D01*
X92619092Y-85363352D02*
X92740044Y-85363352D01*
X92740044Y-85363352D02*
X92788425Y-85387542D01*
X92788425Y-85387542D02*
X92812616Y-85411733D01*
X92812616Y-85411733D02*
X92836806Y-85460114D01*
X92836806Y-85460114D02*
X92836806Y-85581066D01*
X92836806Y-85581066D02*
X92812616Y-85629447D01*
X92812616Y-85629447D02*
X92788425Y-85653638D01*
X92534425Y-72005371D02*
X92558616Y-72029562D01*
X92558616Y-72029562D02*
X92582806Y-72102133D01*
X92582806Y-72102133D02*
X92582806Y-72150514D01*
X92582806Y-72150514D02*
X92558616Y-72223086D01*
X92558616Y-72223086D02*
X92510235Y-72271467D01*
X92510235Y-72271467D02*
X92461854Y-72295657D01*
X92461854Y-72295657D02*
X92365092Y-72319848D01*
X92365092Y-72319848D02*
X92292520Y-72319848D01*
X92292520Y-72319848D02*
X92195758Y-72295657D01*
X92195758Y-72295657D02*
X92147377Y-72271467D01*
X92147377Y-72271467D02*
X92098996Y-72223086D01*
X92098996Y-72223086D02*
X92074806Y-72150514D01*
X92074806Y-72150514D02*
X92074806Y-72102133D01*
X92074806Y-72102133D02*
X92098996Y-72029562D01*
X92098996Y-72029562D02*
X92123187Y-72005371D01*
X92074806Y-71836038D02*
X92074806Y-71521562D01*
X92074806Y-71521562D02*
X92268330Y-71690895D01*
X92268330Y-71690895D02*
X92268330Y-71618324D01*
X92268330Y-71618324D02*
X92292520Y-71569943D01*
X92292520Y-71569943D02*
X92316711Y-71545752D01*
X92316711Y-71545752D02*
X92365092Y-71521562D01*
X92365092Y-71521562D02*
X92486044Y-71521562D01*
X92486044Y-71521562D02*
X92534425Y-71545752D01*
X92534425Y-71545752D02*
X92558616Y-71569943D01*
X92558616Y-71569943D02*
X92582806Y-71618324D01*
X92582806Y-71618324D02*
X92582806Y-71763467D01*
X92582806Y-71763467D02*
X92558616Y-71811848D01*
X92558616Y-71811848D02*
X92534425Y-71836038D01*
X92292520Y-71231276D02*
X92268330Y-71279657D01*
X92268330Y-71279657D02*
X92244139Y-71303847D01*
X92244139Y-71303847D02*
X92195758Y-71328038D01*
X92195758Y-71328038D02*
X92171568Y-71328038D01*
X92171568Y-71328038D02*
X92123187Y-71303847D01*
X92123187Y-71303847D02*
X92098996Y-71279657D01*
X92098996Y-71279657D02*
X92074806Y-71231276D01*
X92074806Y-71231276D02*
X92074806Y-71134514D01*
X92074806Y-71134514D02*
X92098996Y-71086133D01*
X92098996Y-71086133D02*
X92123187Y-71061942D01*
X92123187Y-71061942D02*
X92171568Y-71037752D01*
X92171568Y-71037752D02*
X92195758Y-71037752D01*
X92195758Y-71037752D02*
X92244139Y-71061942D01*
X92244139Y-71061942D02*
X92268330Y-71086133D01*
X92268330Y-71086133D02*
X92292520Y-71134514D01*
X92292520Y-71134514D02*
X92292520Y-71231276D01*
X92292520Y-71231276D02*
X92316711Y-71279657D01*
X92316711Y-71279657D02*
X92340901Y-71303847D01*
X92340901Y-71303847D02*
X92389282Y-71328038D01*
X92389282Y-71328038D02*
X92486044Y-71328038D01*
X92486044Y-71328038D02*
X92534425Y-71303847D01*
X92534425Y-71303847D02*
X92558616Y-71279657D01*
X92558616Y-71279657D02*
X92582806Y-71231276D01*
X92582806Y-71231276D02*
X92582806Y-71134514D01*
X92582806Y-71134514D02*
X92558616Y-71086133D01*
X92558616Y-71086133D02*
X92534425Y-71061942D01*
X92534425Y-71061942D02*
X92486044Y-71037752D01*
X92486044Y-71037752D02*
X92389282Y-71037752D01*
X92389282Y-71037752D02*
X92340901Y-71061942D01*
X92340901Y-71061942D02*
X92316711Y-71086133D01*
X92316711Y-71086133D02*
X92292520Y-71134514D01*
X110845406Y-80082571D02*
X110603501Y-80251905D01*
X110845406Y-80372857D02*
X110337406Y-80372857D01*
X110337406Y-80372857D02*
X110337406Y-80179333D01*
X110337406Y-80179333D02*
X110361596Y-80130952D01*
X110361596Y-80130952D02*
X110385787Y-80106762D01*
X110385787Y-80106762D02*
X110434168Y-80082571D01*
X110434168Y-80082571D02*
X110506739Y-80082571D01*
X110506739Y-80082571D02*
X110555120Y-80106762D01*
X110555120Y-80106762D02*
X110579311Y-80130952D01*
X110579311Y-80130952D02*
X110603501Y-80179333D01*
X110603501Y-80179333D02*
X110603501Y-80372857D01*
X110845406Y-79598762D02*
X110845406Y-79889048D01*
X110845406Y-79743905D02*
X110337406Y-79743905D01*
X110337406Y-79743905D02*
X110409977Y-79792286D01*
X110409977Y-79792286D02*
X110458358Y-79840667D01*
X110458358Y-79840667D02*
X110482549Y-79889048D01*
X110845406Y-79114952D02*
X110845406Y-79405238D01*
X110845406Y-79260095D02*
X110337406Y-79260095D01*
X110337406Y-79260095D02*
X110409977Y-79308476D01*
X110409977Y-79308476D02*
X110458358Y-79356857D01*
X110458358Y-79356857D02*
X110482549Y-79405238D01*
X118084406Y-84681971D02*
X117842501Y-84851305D01*
X118084406Y-84972257D02*
X117576406Y-84972257D01*
X117576406Y-84972257D02*
X117576406Y-84778733D01*
X117576406Y-84778733D02*
X117600596Y-84730352D01*
X117600596Y-84730352D02*
X117624787Y-84706162D01*
X117624787Y-84706162D02*
X117673168Y-84681971D01*
X117673168Y-84681971D02*
X117745739Y-84681971D01*
X117745739Y-84681971D02*
X117794120Y-84706162D01*
X117794120Y-84706162D02*
X117818311Y-84730352D01*
X117818311Y-84730352D02*
X117842501Y-84778733D01*
X117842501Y-84778733D02*
X117842501Y-84972257D01*
X117624787Y-84488448D02*
X117600596Y-84464257D01*
X117600596Y-84464257D02*
X117576406Y-84415876D01*
X117576406Y-84415876D02*
X117576406Y-84294924D01*
X117576406Y-84294924D02*
X117600596Y-84246543D01*
X117600596Y-84246543D02*
X117624787Y-84222352D01*
X117624787Y-84222352D02*
X117673168Y-84198162D01*
X117673168Y-84198162D02*
X117721549Y-84198162D01*
X117721549Y-84198162D02*
X117794120Y-84222352D01*
X117794120Y-84222352D02*
X118084406Y-84512638D01*
X118084406Y-84512638D02*
X118084406Y-84198162D01*
X117576406Y-83883685D02*
X117576406Y-83835304D01*
X117576406Y-83835304D02*
X117600596Y-83786923D01*
X117600596Y-83786923D02*
X117624787Y-83762733D01*
X117624787Y-83762733D02*
X117673168Y-83738542D01*
X117673168Y-83738542D02*
X117769930Y-83714352D01*
X117769930Y-83714352D02*
X117890882Y-83714352D01*
X117890882Y-83714352D02*
X117987644Y-83738542D01*
X117987644Y-83738542D02*
X118036025Y-83762733D01*
X118036025Y-83762733D02*
X118060216Y-83786923D01*
X118060216Y-83786923D02*
X118084406Y-83835304D01*
X118084406Y-83835304D02*
X118084406Y-83883685D01*
X118084406Y-83883685D02*
X118060216Y-83932066D01*
X118060216Y-83932066D02*
X118036025Y-83956257D01*
X118036025Y-83956257D02*
X117987644Y-83980447D01*
X117987644Y-83980447D02*
X117890882Y-84004638D01*
X117890882Y-84004638D02*
X117769930Y-84004638D01*
X117769930Y-84004638D02*
X117673168Y-83980447D01*
X117673168Y-83980447D02*
X117624787Y-83956257D01*
X117624787Y-83956257D02*
X117600596Y-83932066D01*
X117600596Y-83932066D02*
X117576406Y-83883685D01*
X118059006Y-86663171D02*
X117817101Y-86832505D01*
X118059006Y-86953457D02*
X117551006Y-86953457D01*
X117551006Y-86953457D02*
X117551006Y-86759933D01*
X117551006Y-86759933D02*
X117575196Y-86711552D01*
X117575196Y-86711552D02*
X117599387Y-86687362D01*
X117599387Y-86687362D02*
X117647768Y-86663171D01*
X117647768Y-86663171D02*
X117720339Y-86663171D01*
X117720339Y-86663171D02*
X117768720Y-86687362D01*
X117768720Y-86687362D02*
X117792911Y-86711552D01*
X117792911Y-86711552D02*
X117817101Y-86759933D01*
X117817101Y-86759933D02*
X117817101Y-86953457D01*
X118059006Y-86179362D02*
X118059006Y-86469648D01*
X118059006Y-86324505D02*
X117551006Y-86324505D01*
X117551006Y-86324505D02*
X117623577Y-86372886D01*
X117623577Y-86372886D02*
X117671958Y-86421267D01*
X117671958Y-86421267D02*
X117696149Y-86469648D01*
X118059006Y-85937457D02*
X118059006Y-85840695D01*
X118059006Y-85840695D02*
X118034816Y-85792314D01*
X118034816Y-85792314D02*
X118010625Y-85768123D01*
X118010625Y-85768123D02*
X117938054Y-85719742D01*
X117938054Y-85719742D02*
X117841292Y-85695552D01*
X117841292Y-85695552D02*
X117647768Y-85695552D01*
X117647768Y-85695552D02*
X117599387Y-85719742D01*
X117599387Y-85719742D02*
X117575196Y-85743933D01*
X117575196Y-85743933D02*
X117551006Y-85792314D01*
X117551006Y-85792314D02*
X117551006Y-85889076D01*
X117551006Y-85889076D02*
X117575196Y-85937457D01*
X117575196Y-85937457D02*
X117599387Y-85961647D01*
X117599387Y-85961647D02*
X117647768Y-85985838D01*
X117647768Y-85985838D02*
X117768720Y-85985838D01*
X117768720Y-85985838D02*
X117817101Y-85961647D01*
X117817101Y-85961647D02*
X117841292Y-85937457D01*
X117841292Y-85937457D02*
X117865482Y-85889076D01*
X117865482Y-85889076D02*
X117865482Y-85792314D01*
X117865482Y-85792314D02*
X117841292Y-85743933D01*
X117841292Y-85743933D02*
X117817101Y-85719742D01*
X117817101Y-85719742D02*
X117768720Y-85695552D01*
X96858666Y-51663406D02*
X96858666Y-52026263D01*
X96858666Y-52026263D02*
X96834475Y-52098835D01*
X96834475Y-52098835D02*
X96786094Y-52147216D01*
X96786094Y-52147216D02*
X96713523Y-52171406D01*
X96713523Y-52171406D02*
X96665142Y-52171406D01*
X97318285Y-51832739D02*
X97318285Y-52171406D01*
X97197333Y-51639216D02*
X97076380Y-52002073D01*
X97076380Y-52002073D02*
X97390857Y-52002073D01*
X106756006Y-84920666D02*
X106514101Y-85090000D01*
X106756006Y-85210952D02*
X106248006Y-85210952D01*
X106248006Y-85210952D02*
X106248006Y-85017428D01*
X106248006Y-85017428D02*
X106272196Y-84969047D01*
X106272196Y-84969047D02*
X106296387Y-84944857D01*
X106296387Y-84944857D02*
X106344768Y-84920666D01*
X106344768Y-84920666D02*
X106417339Y-84920666D01*
X106417339Y-84920666D02*
X106465720Y-84944857D01*
X106465720Y-84944857D02*
X106489911Y-84969047D01*
X106489911Y-84969047D02*
X106514101Y-85017428D01*
X106514101Y-85017428D02*
X106514101Y-85210952D01*
X106756006Y-84678762D02*
X106756006Y-84582000D01*
X106756006Y-84582000D02*
X106731816Y-84533619D01*
X106731816Y-84533619D02*
X106707625Y-84509428D01*
X106707625Y-84509428D02*
X106635054Y-84461047D01*
X106635054Y-84461047D02*
X106538292Y-84436857D01*
X106538292Y-84436857D02*
X106344768Y-84436857D01*
X106344768Y-84436857D02*
X106296387Y-84461047D01*
X106296387Y-84461047D02*
X106272196Y-84485238D01*
X106272196Y-84485238D02*
X106248006Y-84533619D01*
X106248006Y-84533619D02*
X106248006Y-84630381D01*
X106248006Y-84630381D02*
X106272196Y-84678762D01*
X106272196Y-84678762D02*
X106296387Y-84702952D01*
X106296387Y-84702952D02*
X106344768Y-84727143D01*
X106344768Y-84727143D02*
X106465720Y-84727143D01*
X106465720Y-84727143D02*
X106514101Y-84702952D01*
X106514101Y-84702952D02*
X106538292Y-84678762D01*
X106538292Y-84678762D02*
X106562482Y-84630381D01*
X106562482Y-84630381D02*
X106562482Y-84533619D01*
X106562482Y-84533619D02*
X106538292Y-84485238D01*
X106538292Y-84485238D02*
X106514101Y-84461047D01*
X106514101Y-84461047D02*
X106465720Y-84436857D01*
X100710806Y-84869866D02*
X100468901Y-85039200D01*
X100710806Y-85160152D02*
X100202806Y-85160152D01*
X100202806Y-85160152D02*
X100202806Y-84966628D01*
X100202806Y-84966628D02*
X100226996Y-84918247D01*
X100226996Y-84918247D02*
X100251187Y-84894057D01*
X100251187Y-84894057D02*
X100299568Y-84869866D01*
X100299568Y-84869866D02*
X100372139Y-84869866D01*
X100372139Y-84869866D02*
X100420520Y-84894057D01*
X100420520Y-84894057D02*
X100444711Y-84918247D01*
X100444711Y-84918247D02*
X100468901Y-84966628D01*
X100468901Y-84966628D02*
X100468901Y-85160152D01*
X100710806Y-84386057D02*
X100710806Y-84676343D01*
X100710806Y-84531200D02*
X100202806Y-84531200D01*
X100202806Y-84531200D02*
X100275377Y-84579581D01*
X100275377Y-84579581D02*
X100323758Y-84627962D01*
X100323758Y-84627962D02*
X100347949Y-84676343D01*
X88639952Y-73685206D02*
X88639952Y-74096444D01*
X88639952Y-74096444D02*
X88664142Y-74144825D01*
X88664142Y-74144825D02*
X88688333Y-74169016D01*
X88688333Y-74169016D02*
X88736714Y-74193206D01*
X88736714Y-74193206D02*
X88833476Y-74193206D01*
X88833476Y-74193206D02*
X88881857Y-74169016D01*
X88881857Y-74169016D02*
X88906047Y-74144825D01*
X88906047Y-74144825D02*
X88930238Y-74096444D01*
X88930238Y-74096444D02*
X88930238Y-73685206D01*
X89123761Y-73685206D02*
X89462428Y-73685206D01*
X89462428Y-73685206D02*
X89244713Y-74193206D01*
X93116206Y-73961171D02*
X92874301Y-74130505D01*
X93116206Y-74251457D02*
X92608206Y-74251457D01*
X92608206Y-74251457D02*
X92608206Y-74057933D01*
X92608206Y-74057933D02*
X92632396Y-74009552D01*
X92632396Y-74009552D02*
X92656587Y-73985362D01*
X92656587Y-73985362D02*
X92704968Y-73961171D01*
X92704968Y-73961171D02*
X92777539Y-73961171D01*
X92777539Y-73961171D02*
X92825920Y-73985362D01*
X92825920Y-73985362D02*
X92850111Y-74009552D01*
X92850111Y-74009552D02*
X92874301Y-74057933D01*
X92874301Y-74057933D02*
X92874301Y-74251457D01*
X92656587Y-73767648D02*
X92632396Y-73743457D01*
X92632396Y-73743457D02*
X92608206Y-73695076D01*
X92608206Y-73695076D02*
X92608206Y-73574124D01*
X92608206Y-73574124D02*
X92632396Y-73525743D01*
X92632396Y-73525743D02*
X92656587Y-73501552D01*
X92656587Y-73501552D02*
X92704968Y-73477362D01*
X92704968Y-73477362D02*
X92753349Y-73477362D01*
X92753349Y-73477362D02*
X92825920Y-73501552D01*
X92825920Y-73501552D02*
X93116206Y-73791838D01*
X93116206Y-73791838D02*
X93116206Y-73477362D01*
X92608206Y-73017742D02*
X92608206Y-73259647D01*
X92608206Y-73259647D02*
X92850111Y-73283838D01*
X92850111Y-73283838D02*
X92825920Y-73259647D01*
X92825920Y-73259647D02*
X92801730Y-73211266D01*
X92801730Y-73211266D02*
X92801730Y-73090314D01*
X92801730Y-73090314D02*
X92825920Y-73041933D01*
X92825920Y-73041933D02*
X92850111Y-73017742D01*
X92850111Y-73017742D02*
X92898492Y-72993552D01*
X92898492Y-72993552D02*
X93019444Y-72993552D01*
X93019444Y-72993552D02*
X93067825Y-73017742D01*
X93067825Y-73017742D02*
X93092016Y-73041933D01*
X93092016Y-73041933D02*
X93116206Y-73090314D01*
X93116206Y-73090314D02*
X93116206Y-73211266D01*
X93116206Y-73211266D02*
X93092016Y-73259647D01*
X93092016Y-73259647D02*
X93067825Y-73283838D01*
X95380628Y-72595425D02*
X95356437Y-72619616D01*
X95356437Y-72619616D02*
X95283866Y-72643806D01*
X95283866Y-72643806D02*
X95235485Y-72643806D01*
X95235485Y-72643806D02*
X95162913Y-72619616D01*
X95162913Y-72619616D02*
X95114532Y-72571235D01*
X95114532Y-72571235D02*
X95090342Y-72522854D01*
X95090342Y-72522854D02*
X95066151Y-72426092D01*
X95066151Y-72426092D02*
X95066151Y-72353520D01*
X95066151Y-72353520D02*
X95090342Y-72256758D01*
X95090342Y-72256758D02*
X95114532Y-72208377D01*
X95114532Y-72208377D02*
X95162913Y-72159996D01*
X95162913Y-72159996D02*
X95235485Y-72135806D01*
X95235485Y-72135806D02*
X95283866Y-72135806D01*
X95283866Y-72135806D02*
X95356437Y-72159996D01*
X95356437Y-72159996D02*
X95380628Y-72184187D01*
X95864437Y-72643806D02*
X95574151Y-72643806D01*
X95719294Y-72643806D02*
X95719294Y-72135806D01*
X95719294Y-72135806D02*
X95670913Y-72208377D01*
X95670913Y-72208377D02*
X95622532Y-72256758D01*
X95622532Y-72256758D02*
X95574151Y-72280949D01*
X96324057Y-72135806D02*
X96082152Y-72135806D01*
X96082152Y-72135806D02*
X96057961Y-72377711D01*
X96057961Y-72377711D02*
X96082152Y-72353520D01*
X96082152Y-72353520D02*
X96130533Y-72329330D01*
X96130533Y-72329330D02*
X96251485Y-72329330D01*
X96251485Y-72329330D02*
X96299866Y-72353520D01*
X96299866Y-72353520D02*
X96324057Y-72377711D01*
X96324057Y-72377711D02*
X96348247Y-72426092D01*
X96348247Y-72426092D02*
X96348247Y-72547044D01*
X96348247Y-72547044D02*
X96324057Y-72595425D01*
X96324057Y-72595425D02*
X96299866Y-72619616D01*
X96299866Y-72619616D02*
X96251485Y-72643806D01*
X96251485Y-72643806D02*
X96130533Y-72643806D01*
X96130533Y-72643806D02*
X96082152Y-72619616D01*
X96082152Y-72619616D02*
X96057961Y-72595425D01*
X86555318Y-79655416D02*
X86627890Y-79679606D01*
X86627890Y-79679606D02*
X86748842Y-79679606D01*
X86748842Y-79679606D02*
X86797223Y-79655416D01*
X86797223Y-79655416D02*
X86821414Y-79631225D01*
X86821414Y-79631225D02*
X86845604Y-79582844D01*
X86845604Y-79582844D02*
X86845604Y-79534463D01*
X86845604Y-79534463D02*
X86821414Y-79486082D01*
X86821414Y-79486082D02*
X86797223Y-79461892D01*
X86797223Y-79461892D02*
X86748842Y-79437701D01*
X86748842Y-79437701D02*
X86652080Y-79413511D01*
X86652080Y-79413511D02*
X86603699Y-79389320D01*
X86603699Y-79389320D02*
X86579509Y-79365130D01*
X86579509Y-79365130D02*
X86555318Y-79316749D01*
X86555318Y-79316749D02*
X86555318Y-79268368D01*
X86555318Y-79268368D02*
X86579509Y-79219987D01*
X86579509Y-79219987D02*
X86603699Y-79195796D01*
X86603699Y-79195796D02*
X86652080Y-79171606D01*
X86652080Y-79171606D02*
X86773033Y-79171606D01*
X86773033Y-79171606D02*
X86845604Y-79195796D01*
X87014938Y-79171606D02*
X87135890Y-79679606D01*
X87135890Y-79679606D02*
X87232652Y-79316749D01*
X87232652Y-79316749D02*
X87329414Y-79679606D01*
X87329414Y-79679606D02*
X87450367Y-79171606D01*
X87619699Y-79219987D02*
X87643890Y-79195796D01*
X87643890Y-79195796D02*
X87692271Y-79171606D01*
X87692271Y-79171606D02*
X87813223Y-79171606D01*
X87813223Y-79171606D02*
X87861604Y-79195796D01*
X87861604Y-79195796D02*
X87885795Y-79219987D01*
X87885795Y-79219987D02*
X87909985Y-79268368D01*
X87909985Y-79268368D02*
X87909985Y-79316749D01*
X87909985Y-79316749D02*
X87885795Y-79389320D01*
X87885795Y-79389320D02*
X87595509Y-79679606D01*
X87595509Y-79679606D02*
X87909985Y-79679606D01*
X114734025Y-78050571D02*
X114758216Y-78074762D01*
X114758216Y-78074762D02*
X114782406Y-78147333D01*
X114782406Y-78147333D02*
X114782406Y-78195714D01*
X114782406Y-78195714D02*
X114758216Y-78268286D01*
X114758216Y-78268286D02*
X114709835Y-78316667D01*
X114709835Y-78316667D02*
X114661454Y-78340857D01*
X114661454Y-78340857D02*
X114564692Y-78365048D01*
X114564692Y-78365048D02*
X114492120Y-78365048D01*
X114492120Y-78365048D02*
X114395358Y-78340857D01*
X114395358Y-78340857D02*
X114346977Y-78316667D01*
X114346977Y-78316667D02*
X114298596Y-78268286D01*
X114298596Y-78268286D02*
X114274406Y-78195714D01*
X114274406Y-78195714D02*
X114274406Y-78147333D01*
X114274406Y-78147333D02*
X114298596Y-78074762D01*
X114298596Y-78074762D02*
X114322787Y-78050571D01*
X114322787Y-77857048D02*
X114298596Y-77832857D01*
X114298596Y-77832857D02*
X114274406Y-77784476D01*
X114274406Y-77784476D02*
X114274406Y-77663524D01*
X114274406Y-77663524D02*
X114298596Y-77615143D01*
X114298596Y-77615143D02*
X114322787Y-77590952D01*
X114322787Y-77590952D02*
X114371168Y-77566762D01*
X114371168Y-77566762D02*
X114419549Y-77566762D01*
X114419549Y-77566762D02*
X114492120Y-77590952D01*
X114492120Y-77590952D02*
X114782406Y-77881238D01*
X114782406Y-77881238D02*
X114782406Y-77566762D01*
X114274406Y-77252285D02*
X114274406Y-77203904D01*
X114274406Y-77203904D02*
X114298596Y-77155523D01*
X114298596Y-77155523D02*
X114322787Y-77131333D01*
X114322787Y-77131333D02*
X114371168Y-77107142D01*
X114371168Y-77107142D02*
X114467930Y-77082952D01*
X114467930Y-77082952D02*
X114588882Y-77082952D01*
X114588882Y-77082952D02*
X114685644Y-77107142D01*
X114685644Y-77107142D02*
X114734025Y-77131333D01*
X114734025Y-77131333D02*
X114758216Y-77155523D01*
X114758216Y-77155523D02*
X114782406Y-77203904D01*
X114782406Y-77203904D02*
X114782406Y-77252285D01*
X114782406Y-77252285D02*
X114758216Y-77300666D01*
X114758216Y-77300666D02*
X114734025Y-77324857D01*
X114734025Y-77324857D02*
X114685644Y-77349047D01*
X114685644Y-77349047D02*
X114588882Y-77373238D01*
X114588882Y-77373238D02*
X114467930Y-77373238D01*
X114467930Y-77373238D02*
X114371168Y-77349047D01*
X114371168Y-77349047D02*
X114322787Y-77324857D01*
X114322787Y-77324857D02*
X114298596Y-77300666D01*
X114298596Y-77300666D02*
X114274406Y-77252285D01*
X113592428Y-70792025D02*
X113568237Y-70816216D01*
X113568237Y-70816216D02*
X113495666Y-70840406D01*
X113495666Y-70840406D02*
X113447285Y-70840406D01*
X113447285Y-70840406D02*
X113374713Y-70816216D01*
X113374713Y-70816216D02*
X113326332Y-70767835D01*
X113326332Y-70767835D02*
X113302142Y-70719454D01*
X113302142Y-70719454D02*
X113277951Y-70622692D01*
X113277951Y-70622692D02*
X113277951Y-70550120D01*
X113277951Y-70550120D02*
X113302142Y-70453358D01*
X113302142Y-70453358D02*
X113326332Y-70404977D01*
X113326332Y-70404977D02*
X113374713Y-70356596D01*
X113374713Y-70356596D02*
X113447285Y-70332406D01*
X113447285Y-70332406D02*
X113495666Y-70332406D01*
X113495666Y-70332406D02*
X113568237Y-70356596D01*
X113568237Y-70356596D02*
X113592428Y-70380787D01*
X113785951Y-70380787D02*
X113810142Y-70356596D01*
X113810142Y-70356596D02*
X113858523Y-70332406D01*
X113858523Y-70332406D02*
X113979475Y-70332406D01*
X113979475Y-70332406D02*
X114027856Y-70356596D01*
X114027856Y-70356596D02*
X114052047Y-70380787D01*
X114052047Y-70380787D02*
X114076237Y-70429168D01*
X114076237Y-70429168D02*
X114076237Y-70477549D01*
X114076237Y-70477549D02*
X114052047Y-70550120D01*
X114052047Y-70550120D02*
X113761761Y-70840406D01*
X113761761Y-70840406D02*
X114076237Y-70840406D01*
X114535857Y-70332406D02*
X114293952Y-70332406D01*
X114293952Y-70332406D02*
X114269761Y-70574311D01*
X114269761Y-70574311D02*
X114293952Y-70550120D01*
X114293952Y-70550120D02*
X114342333Y-70525930D01*
X114342333Y-70525930D02*
X114463285Y-70525930D01*
X114463285Y-70525930D02*
X114511666Y-70550120D01*
X114511666Y-70550120D02*
X114535857Y-70574311D01*
X114535857Y-70574311D02*
X114560047Y-70622692D01*
X114560047Y-70622692D02*
X114560047Y-70743644D01*
X114560047Y-70743644D02*
X114535857Y-70792025D01*
X114535857Y-70792025D02*
X114511666Y-70816216D01*
X114511666Y-70816216D02*
X114463285Y-70840406D01*
X114463285Y-70840406D02*
X114342333Y-70840406D01*
X114342333Y-70840406D02*
X114293952Y-70816216D01*
X114293952Y-70816216D02*
X114269761Y-70792025D01*
X101701406Y-84869866D02*
X101459501Y-85039200D01*
X101701406Y-85160152D02*
X101193406Y-85160152D01*
X101193406Y-85160152D02*
X101193406Y-84966628D01*
X101193406Y-84966628D02*
X101217596Y-84918247D01*
X101217596Y-84918247D02*
X101241787Y-84894057D01*
X101241787Y-84894057D02*
X101290168Y-84869866D01*
X101290168Y-84869866D02*
X101362739Y-84869866D01*
X101362739Y-84869866D02*
X101411120Y-84894057D01*
X101411120Y-84894057D02*
X101435311Y-84918247D01*
X101435311Y-84918247D02*
X101459501Y-84966628D01*
X101459501Y-84966628D02*
X101459501Y-85160152D01*
X101241787Y-84676343D02*
X101217596Y-84652152D01*
X101217596Y-84652152D02*
X101193406Y-84603771D01*
X101193406Y-84603771D02*
X101193406Y-84482819D01*
X101193406Y-84482819D02*
X101217596Y-84434438D01*
X101217596Y-84434438D02*
X101241787Y-84410247D01*
X101241787Y-84410247D02*
X101290168Y-84386057D01*
X101290168Y-84386057D02*
X101338549Y-84386057D01*
X101338549Y-84386057D02*
X101411120Y-84410247D01*
X101411120Y-84410247D02*
X101701406Y-84700533D01*
X101701406Y-84700533D02*
X101701406Y-84386057D01*
X111118951Y-80873406D02*
X111409237Y-80873406D01*
X111264094Y-81381406D02*
X111264094Y-80873406D01*
X111578571Y-81381406D02*
X111578571Y-80873406D01*
X111578571Y-80873406D02*
X111772095Y-80873406D01*
X111772095Y-80873406D02*
X111820476Y-80897596D01*
X111820476Y-80897596D02*
X111844666Y-80921787D01*
X111844666Y-80921787D02*
X111868857Y-80970168D01*
X111868857Y-80970168D02*
X111868857Y-81042739D01*
X111868857Y-81042739D02*
X111844666Y-81091120D01*
X111844666Y-81091120D02*
X111820476Y-81115311D01*
X111820476Y-81115311D02*
X111772095Y-81139501D01*
X111772095Y-81139501D02*
X111578571Y-81139501D01*
X112062380Y-80921787D02*
X112086571Y-80897596D01*
X112086571Y-80897596D02*
X112134952Y-80873406D01*
X112134952Y-80873406D02*
X112255904Y-80873406D01*
X112255904Y-80873406D02*
X112304285Y-80897596D01*
X112304285Y-80897596D02*
X112328476Y-80921787D01*
X112328476Y-80921787D02*
X112352666Y-80970168D01*
X112352666Y-80970168D02*
X112352666Y-81018549D01*
X112352666Y-81018549D02*
X112328476Y-81091120D01*
X112328476Y-81091120D02*
X112038190Y-81381406D01*
X112038190Y-81381406D02*
X112352666Y-81381406D01*
X98687466Y-51079206D02*
X98687466Y-51442063D01*
X98687466Y-51442063D02*
X98663275Y-51514635D01*
X98663275Y-51514635D02*
X98614894Y-51563016D01*
X98614894Y-51563016D02*
X98542323Y-51587206D01*
X98542323Y-51587206D02*
X98493942Y-51587206D01*
X99171276Y-51079206D02*
X98929371Y-51079206D01*
X98929371Y-51079206D02*
X98905180Y-51321111D01*
X98905180Y-51321111D02*
X98929371Y-51296920D01*
X98929371Y-51296920D02*
X98977752Y-51272730D01*
X98977752Y-51272730D02*
X99098704Y-51272730D01*
X99098704Y-51272730D02*
X99147085Y-51296920D01*
X99147085Y-51296920D02*
X99171276Y-51321111D01*
X99171276Y-51321111D02*
X99195466Y-51369492D01*
X99195466Y-51369492D02*
X99195466Y-51490444D01*
X99195466Y-51490444D02*
X99171276Y-51538825D01*
X99171276Y-51538825D02*
X99147085Y-51563016D01*
X99147085Y-51563016D02*
X99098704Y-51587206D01*
X99098704Y-51587206D02*
X98977752Y-51587206D01*
X98977752Y-51587206D02*
X98929371Y-51563016D01*
X98929371Y-51563016D02*
X98905180Y-51538825D01*
X102912333Y-81307625D02*
X102888142Y-81331816D01*
X102888142Y-81331816D02*
X102815571Y-81356006D01*
X102815571Y-81356006D02*
X102767190Y-81356006D01*
X102767190Y-81356006D02*
X102694618Y-81331816D01*
X102694618Y-81331816D02*
X102646237Y-81283435D01*
X102646237Y-81283435D02*
X102622047Y-81235054D01*
X102622047Y-81235054D02*
X102597856Y-81138292D01*
X102597856Y-81138292D02*
X102597856Y-81065720D01*
X102597856Y-81065720D02*
X102622047Y-80968958D01*
X102622047Y-80968958D02*
X102646237Y-80920577D01*
X102646237Y-80920577D02*
X102694618Y-80872196D01*
X102694618Y-80872196D02*
X102767190Y-80848006D01*
X102767190Y-80848006D02*
X102815571Y-80848006D01*
X102815571Y-80848006D02*
X102888142Y-80872196D01*
X102888142Y-80872196D02*
X102912333Y-80896387D01*
X103347761Y-81017339D02*
X103347761Y-81356006D01*
X103226809Y-80823816D02*
X103105856Y-81186673D01*
X103105856Y-81186673D02*
X103420333Y-81186673D01*
X87903352Y-63626806D02*
X87903352Y-64038044D01*
X87903352Y-64038044D02*
X87927542Y-64086425D01*
X87927542Y-64086425D02*
X87951733Y-64110616D01*
X87951733Y-64110616D02*
X88000114Y-64134806D01*
X88000114Y-64134806D02*
X88096876Y-64134806D01*
X88096876Y-64134806D02*
X88145257Y-64110616D01*
X88145257Y-64110616D02*
X88169447Y-64086425D01*
X88169447Y-64086425D02*
X88193638Y-64038044D01*
X88193638Y-64038044D02*
X88193638Y-63626806D01*
X88653256Y-63626806D02*
X88556494Y-63626806D01*
X88556494Y-63626806D02*
X88508113Y-63650996D01*
X88508113Y-63650996D02*
X88483923Y-63675187D01*
X88483923Y-63675187D02*
X88435542Y-63747758D01*
X88435542Y-63747758D02*
X88411351Y-63844520D01*
X88411351Y-63844520D02*
X88411351Y-64038044D01*
X88411351Y-64038044D02*
X88435542Y-64086425D01*
X88435542Y-64086425D02*
X88459732Y-64110616D01*
X88459732Y-64110616D02*
X88508113Y-64134806D01*
X88508113Y-64134806D02*
X88604875Y-64134806D01*
X88604875Y-64134806D02*
X88653256Y-64110616D01*
X88653256Y-64110616D02*
X88677447Y-64086425D01*
X88677447Y-64086425D02*
X88701637Y-64038044D01*
X88701637Y-64038044D02*
X88701637Y-63917092D01*
X88701637Y-63917092D02*
X88677447Y-63868711D01*
X88677447Y-63868711D02*
X88653256Y-63844520D01*
X88653256Y-63844520D02*
X88604875Y-63820330D01*
X88604875Y-63820330D02*
X88508113Y-63820330D01*
X88508113Y-63820330D02*
X88459732Y-63844520D01*
X88459732Y-63844520D02*
X88435542Y-63868711D01*
X88435542Y-63868711D02*
X88411351Y-63917092D01*
X95303025Y-76018571D02*
X95327216Y-76042762D01*
X95327216Y-76042762D02*
X95351406Y-76115333D01*
X95351406Y-76115333D02*
X95351406Y-76163714D01*
X95351406Y-76163714D02*
X95327216Y-76236286D01*
X95327216Y-76236286D02*
X95278835Y-76284667D01*
X95278835Y-76284667D02*
X95230454Y-76308857D01*
X95230454Y-76308857D02*
X95133692Y-76333048D01*
X95133692Y-76333048D02*
X95061120Y-76333048D01*
X95061120Y-76333048D02*
X94964358Y-76308857D01*
X94964358Y-76308857D02*
X94915977Y-76284667D01*
X94915977Y-76284667D02*
X94867596Y-76236286D01*
X94867596Y-76236286D02*
X94843406Y-76163714D01*
X94843406Y-76163714D02*
X94843406Y-76115333D01*
X94843406Y-76115333D02*
X94867596Y-76042762D01*
X94867596Y-76042762D02*
X94891787Y-76018571D01*
X94891787Y-75825048D02*
X94867596Y-75800857D01*
X94867596Y-75800857D02*
X94843406Y-75752476D01*
X94843406Y-75752476D02*
X94843406Y-75631524D01*
X94843406Y-75631524D02*
X94867596Y-75583143D01*
X94867596Y-75583143D02*
X94891787Y-75558952D01*
X94891787Y-75558952D02*
X94940168Y-75534762D01*
X94940168Y-75534762D02*
X94988549Y-75534762D01*
X94988549Y-75534762D02*
X95061120Y-75558952D01*
X95061120Y-75558952D02*
X95351406Y-75849238D01*
X95351406Y-75849238D02*
X95351406Y-75534762D01*
X95012739Y-75099333D02*
X95351406Y-75099333D01*
X94819216Y-75220285D02*
X95182073Y-75341238D01*
X95182073Y-75341238D02*
X95182073Y-75026761D01*
X116094933Y-82016406D02*
X115925599Y-81774501D01*
X115804647Y-82016406D02*
X115804647Y-81508406D01*
X115804647Y-81508406D02*
X115998171Y-81508406D01*
X115998171Y-81508406D02*
X116046552Y-81532596D01*
X116046552Y-81532596D02*
X116070742Y-81556787D01*
X116070742Y-81556787D02*
X116094933Y-81605168D01*
X116094933Y-81605168D02*
X116094933Y-81677739D01*
X116094933Y-81677739D02*
X116070742Y-81726120D01*
X116070742Y-81726120D02*
X116046552Y-81750311D01*
X116046552Y-81750311D02*
X115998171Y-81774501D01*
X115998171Y-81774501D02*
X115804647Y-81774501D01*
X116530361Y-81508406D02*
X116433599Y-81508406D01*
X116433599Y-81508406D02*
X116385218Y-81532596D01*
X116385218Y-81532596D02*
X116361028Y-81556787D01*
X116361028Y-81556787D02*
X116312647Y-81629358D01*
X116312647Y-81629358D02*
X116288456Y-81726120D01*
X116288456Y-81726120D02*
X116288456Y-81919644D01*
X116288456Y-81919644D02*
X116312647Y-81968025D01*
X116312647Y-81968025D02*
X116336837Y-81992216D01*
X116336837Y-81992216D02*
X116385218Y-82016406D01*
X116385218Y-82016406D02*
X116481980Y-82016406D01*
X116481980Y-82016406D02*
X116530361Y-81992216D01*
X116530361Y-81992216D02*
X116554552Y-81968025D01*
X116554552Y-81968025D02*
X116578742Y-81919644D01*
X116578742Y-81919644D02*
X116578742Y-81798692D01*
X116578742Y-81798692D02*
X116554552Y-81750311D01*
X116554552Y-81750311D02*
X116530361Y-81726120D01*
X116530361Y-81726120D02*
X116481980Y-81701930D01*
X116481980Y-81701930D02*
X116385218Y-81701930D01*
X116385218Y-81701930D02*
X116336837Y-81726120D01*
X116336837Y-81726120D02*
X116312647Y-81750311D01*
X116312647Y-81750311D02*
X116288456Y-81798692D01*
X112500228Y-84203225D02*
X112476037Y-84227416D01*
X112476037Y-84227416D02*
X112403466Y-84251606D01*
X112403466Y-84251606D02*
X112355085Y-84251606D01*
X112355085Y-84251606D02*
X112282513Y-84227416D01*
X112282513Y-84227416D02*
X112234132Y-84179035D01*
X112234132Y-84179035D02*
X112209942Y-84130654D01*
X112209942Y-84130654D02*
X112185751Y-84033892D01*
X112185751Y-84033892D02*
X112185751Y-83961320D01*
X112185751Y-83961320D02*
X112209942Y-83864558D01*
X112209942Y-83864558D02*
X112234132Y-83816177D01*
X112234132Y-83816177D02*
X112282513Y-83767796D01*
X112282513Y-83767796D02*
X112355085Y-83743606D01*
X112355085Y-83743606D02*
X112403466Y-83743606D01*
X112403466Y-83743606D02*
X112476037Y-83767796D01*
X112476037Y-83767796D02*
X112500228Y-83791987D01*
X112669561Y-83743606D02*
X112984037Y-83743606D01*
X112984037Y-83743606D02*
X112814704Y-83937130D01*
X112814704Y-83937130D02*
X112887275Y-83937130D01*
X112887275Y-83937130D02*
X112935656Y-83961320D01*
X112935656Y-83961320D02*
X112959847Y-83985511D01*
X112959847Y-83985511D02*
X112984037Y-84033892D01*
X112984037Y-84033892D02*
X112984037Y-84154844D01*
X112984037Y-84154844D02*
X112959847Y-84203225D01*
X112959847Y-84203225D02*
X112935656Y-84227416D01*
X112935656Y-84227416D02*
X112887275Y-84251606D01*
X112887275Y-84251606D02*
X112742132Y-84251606D01*
X112742132Y-84251606D02*
X112693751Y-84227416D01*
X112693751Y-84227416D02*
X112669561Y-84203225D01*
X113153371Y-83743606D02*
X113467847Y-83743606D01*
X113467847Y-83743606D02*
X113298514Y-83937130D01*
X113298514Y-83937130D02*
X113371085Y-83937130D01*
X113371085Y-83937130D02*
X113419466Y-83961320D01*
X113419466Y-83961320D02*
X113443657Y-83985511D01*
X113443657Y-83985511D02*
X113467847Y-84033892D01*
X113467847Y-84033892D02*
X113467847Y-84154844D01*
X113467847Y-84154844D02*
X113443657Y-84203225D01*
X113443657Y-84203225D02*
X113419466Y-84227416D01*
X113419466Y-84227416D02*
X113371085Y-84251606D01*
X113371085Y-84251606D02*
X113225942Y-84251606D01*
X113225942Y-84251606D02*
X113177561Y-84227416D01*
X113177561Y-84227416D02*
X113153371Y-84203225D01*
X113846428Y-55600406D02*
X113677094Y-55358501D01*
X113556142Y-55600406D02*
X113556142Y-55092406D01*
X113556142Y-55092406D02*
X113749666Y-55092406D01*
X113749666Y-55092406D02*
X113798047Y-55116596D01*
X113798047Y-55116596D02*
X113822237Y-55140787D01*
X113822237Y-55140787D02*
X113846428Y-55189168D01*
X113846428Y-55189168D02*
X113846428Y-55261739D01*
X113846428Y-55261739D02*
X113822237Y-55310120D01*
X113822237Y-55310120D02*
X113798047Y-55334311D01*
X113798047Y-55334311D02*
X113749666Y-55358501D01*
X113749666Y-55358501D02*
X113556142Y-55358501D01*
X114330237Y-55600406D02*
X114039951Y-55600406D01*
X114185094Y-55600406D02*
X114185094Y-55092406D01*
X114185094Y-55092406D02*
X114136713Y-55164977D01*
X114136713Y-55164977D02*
X114088332Y-55213358D01*
X114088332Y-55213358D02*
X114039951Y-55237549D01*
X114765666Y-55261739D02*
X114765666Y-55600406D01*
X114644714Y-55068216D02*
X114523761Y-55431073D01*
X114523761Y-55431073D02*
X114838238Y-55431073D01*
X86225206Y-57590266D02*
X86225206Y-57832171D01*
X86225206Y-57832171D02*
X85717206Y-57832171D01*
X85765587Y-57445124D02*
X85741396Y-57420933D01*
X85741396Y-57420933D02*
X85717206Y-57372552D01*
X85717206Y-57372552D02*
X85717206Y-57251600D01*
X85717206Y-57251600D02*
X85741396Y-57203219D01*
X85741396Y-57203219D02*
X85765587Y-57179028D01*
X85765587Y-57179028D02*
X85813968Y-57154838D01*
X85813968Y-57154838D02*
X85862349Y-57154838D01*
X85862349Y-57154838D02*
X85934920Y-57179028D01*
X85934920Y-57179028D02*
X86225206Y-57469314D01*
X86225206Y-57469314D02*
X86225206Y-57154838D01*
X96319025Y-76018571D02*
X96343216Y-76042762D01*
X96343216Y-76042762D02*
X96367406Y-76115333D01*
X96367406Y-76115333D02*
X96367406Y-76163714D01*
X96367406Y-76163714D02*
X96343216Y-76236286D01*
X96343216Y-76236286D02*
X96294835Y-76284667D01*
X96294835Y-76284667D02*
X96246454Y-76308857D01*
X96246454Y-76308857D02*
X96149692Y-76333048D01*
X96149692Y-76333048D02*
X96077120Y-76333048D01*
X96077120Y-76333048D02*
X95980358Y-76308857D01*
X95980358Y-76308857D02*
X95931977Y-76284667D01*
X95931977Y-76284667D02*
X95883596Y-76236286D01*
X95883596Y-76236286D02*
X95859406Y-76163714D01*
X95859406Y-76163714D02*
X95859406Y-76115333D01*
X95859406Y-76115333D02*
X95883596Y-76042762D01*
X95883596Y-76042762D02*
X95907787Y-76018571D01*
X95907787Y-75825048D02*
X95883596Y-75800857D01*
X95883596Y-75800857D02*
X95859406Y-75752476D01*
X95859406Y-75752476D02*
X95859406Y-75631524D01*
X95859406Y-75631524D02*
X95883596Y-75583143D01*
X95883596Y-75583143D02*
X95907787Y-75558952D01*
X95907787Y-75558952D02*
X95956168Y-75534762D01*
X95956168Y-75534762D02*
X96004549Y-75534762D01*
X96004549Y-75534762D02*
X96077120Y-75558952D01*
X96077120Y-75558952D02*
X96367406Y-75849238D01*
X96367406Y-75849238D02*
X96367406Y-75534762D01*
X95859406Y-75365428D02*
X95859406Y-75050952D01*
X95859406Y-75050952D02*
X96052930Y-75220285D01*
X96052930Y-75220285D02*
X96052930Y-75147714D01*
X96052930Y-75147714D02*
X96077120Y-75099333D01*
X96077120Y-75099333D02*
X96101311Y-75075142D01*
X96101311Y-75075142D02*
X96149692Y-75050952D01*
X96149692Y-75050952D02*
X96270644Y-75050952D01*
X96270644Y-75050952D02*
X96319025Y-75075142D01*
X96319025Y-75075142D02*
X96343216Y-75099333D01*
X96343216Y-75099333D02*
X96367406Y-75147714D01*
X96367406Y-75147714D02*
X96367406Y-75292857D01*
X96367406Y-75292857D02*
X96343216Y-75341238D01*
X96343216Y-75341238D02*
X96319025Y-75365428D01*
X113639406Y-60131476D02*
X113397501Y-60300810D01*
X113639406Y-60421762D02*
X113131406Y-60421762D01*
X113131406Y-60421762D02*
X113131406Y-60228238D01*
X113131406Y-60228238D02*
X113155596Y-60179857D01*
X113155596Y-60179857D02*
X113179787Y-60155667D01*
X113179787Y-60155667D02*
X113228168Y-60131476D01*
X113228168Y-60131476D02*
X113300739Y-60131476D01*
X113300739Y-60131476D02*
X113349120Y-60155667D01*
X113349120Y-60155667D02*
X113373311Y-60179857D01*
X113373311Y-60179857D02*
X113397501Y-60228238D01*
X113397501Y-60228238D02*
X113397501Y-60421762D01*
X113131406Y-59962143D02*
X113131406Y-59623476D01*
X113131406Y-59623476D02*
X113639406Y-59962143D01*
X113639406Y-59962143D02*
X113639406Y-59623476D01*
X113639406Y-59163857D02*
X113639406Y-59454143D01*
X113639406Y-59309000D02*
X113131406Y-59309000D01*
X113131406Y-59309000D02*
X113203977Y-59357381D01*
X113203977Y-59357381D02*
X113252358Y-59405762D01*
X113252358Y-59405762D02*
X113276549Y-59454143D01*
X113131406Y-58704237D02*
X113131406Y-58946142D01*
X113131406Y-58946142D02*
X113373311Y-58970333D01*
X113373311Y-58970333D02*
X113349120Y-58946142D01*
X113349120Y-58946142D02*
X113324930Y-58897761D01*
X113324930Y-58897761D02*
X113324930Y-58776809D01*
X113324930Y-58776809D02*
X113349120Y-58728428D01*
X113349120Y-58728428D02*
X113373311Y-58704237D01*
X113373311Y-58704237D02*
X113421692Y-58680047D01*
X113421692Y-58680047D02*
X113542644Y-58680047D01*
X113542644Y-58680047D02*
X113591025Y-58704237D01*
X113591025Y-58704237D02*
X113615216Y-58728428D01*
X113615216Y-58728428D02*
X113639406Y-58776809D01*
X113639406Y-58776809D02*
X113639406Y-58897761D01*
X113639406Y-58897761D02*
X113615216Y-58946142D01*
X113615216Y-58946142D02*
X113591025Y-58970333D01*
X111353406Y-86783333D02*
X111716263Y-86783333D01*
X111716263Y-86783333D02*
X111788835Y-86807524D01*
X111788835Y-86807524D02*
X111837216Y-86855905D01*
X111837216Y-86855905D02*
X111861406Y-86928476D01*
X111861406Y-86928476D02*
X111861406Y-86976857D01*
X111861406Y-86517238D02*
X111861406Y-86420476D01*
X111861406Y-86420476D02*
X111837216Y-86372095D01*
X111837216Y-86372095D02*
X111813025Y-86347904D01*
X111813025Y-86347904D02*
X111740454Y-86299523D01*
X111740454Y-86299523D02*
X111643692Y-86275333D01*
X111643692Y-86275333D02*
X111450168Y-86275333D01*
X111450168Y-86275333D02*
X111401787Y-86299523D01*
X111401787Y-86299523D02*
X111377596Y-86323714D01*
X111377596Y-86323714D02*
X111353406Y-86372095D01*
X111353406Y-86372095D02*
X111353406Y-86468857D01*
X111353406Y-86468857D02*
X111377596Y-86517238D01*
X111377596Y-86517238D02*
X111401787Y-86541428D01*
X111401787Y-86541428D02*
X111450168Y-86565619D01*
X111450168Y-86565619D02*
X111571120Y-86565619D01*
X111571120Y-86565619D02*
X111619501Y-86541428D01*
X111619501Y-86541428D02*
X111643692Y-86517238D01*
X111643692Y-86517238D02*
X111667882Y-86468857D01*
X111667882Y-86468857D02*
X111667882Y-86372095D01*
X111667882Y-86372095D02*
X111643692Y-86323714D01*
X111643692Y-86323714D02*
X111619501Y-86299523D01*
X111619501Y-86299523D02*
X111571120Y-86275333D01*
X94868806Y-80181752D02*
X94360806Y-80181752D01*
X94360806Y-80181752D02*
X94360806Y-80060800D01*
X94360806Y-80060800D02*
X94384996Y-79988228D01*
X94384996Y-79988228D02*
X94433377Y-79939847D01*
X94433377Y-79939847D02*
X94481758Y-79915657D01*
X94481758Y-79915657D02*
X94578520Y-79891466D01*
X94578520Y-79891466D02*
X94651092Y-79891466D01*
X94651092Y-79891466D02*
X94747854Y-79915657D01*
X94747854Y-79915657D02*
X94796235Y-79939847D01*
X94796235Y-79939847D02*
X94844616Y-79988228D01*
X94844616Y-79988228D02*
X94868806Y-80060800D01*
X94868806Y-80060800D02*
X94868806Y-80181752D01*
X94530139Y-79456038D02*
X94868806Y-79456038D01*
X94336616Y-79576990D02*
X94699473Y-79697943D01*
X94699473Y-79697943D02*
X94699473Y-79383466D01*
X114734025Y-57730571D02*
X114758216Y-57754762D01*
X114758216Y-57754762D02*
X114782406Y-57827333D01*
X114782406Y-57827333D02*
X114782406Y-57875714D01*
X114782406Y-57875714D02*
X114758216Y-57948286D01*
X114758216Y-57948286D02*
X114709835Y-57996667D01*
X114709835Y-57996667D02*
X114661454Y-58020857D01*
X114661454Y-58020857D02*
X114564692Y-58045048D01*
X114564692Y-58045048D02*
X114492120Y-58045048D01*
X114492120Y-58045048D02*
X114395358Y-58020857D01*
X114395358Y-58020857D02*
X114346977Y-57996667D01*
X114346977Y-57996667D02*
X114298596Y-57948286D01*
X114298596Y-57948286D02*
X114274406Y-57875714D01*
X114274406Y-57875714D02*
X114274406Y-57827333D01*
X114274406Y-57827333D02*
X114298596Y-57754762D01*
X114298596Y-57754762D02*
X114322787Y-57730571D01*
X114322787Y-57537048D02*
X114298596Y-57512857D01*
X114298596Y-57512857D02*
X114274406Y-57464476D01*
X114274406Y-57464476D02*
X114274406Y-57343524D01*
X114274406Y-57343524D02*
X114298596Y-57295143D01*
X114298596Y-57295143D02*
X114322787Y-57270952D01*
X114322787Y-57270952D02*
X114371168Y-57246762D01*
X114371168Y-57246762D02*
X114419549Y-57246762D01*
X114419549Y-57246762D02*
X114492120Y-57270952D01*
X114492120Y-57270952D02*
X114782406Y-57561238D01*
X114782406Y-57561238D02*
X114782406Y-57246762D01*
X114782406Y-57004857D02*
X114782406Y-56908095D01*
X114782406Y-56908095D02*
X114758216Y-56859714D01*
X114758216Y-56859714D02*
X114734025Y-56835523D01*
X114734025Y-56835523D02*
X114661454Y-56787142D01*
X114661454Y-56787142D02*
X114564692Y-56762952D01*
X114564692Y-56762952D02*
X114371168Y-56762952D01*
X114371168Y-56762952D02*
X114322787Y-56787142D01*
X114322787Y-56787142D02*
X114298596Y-56811333D01*
X114298596Y-56811333D02*
X114274406Y-56859714D01*
X114274406Y-56859714D02*
X114274406Y-56956476D01*
X114274406Y-56956476D02*
X114298596Y-57004857D01*
X114298596Y-57004857D02*
X114322787Y-57029047D01*
X114322787Y-57029047D02*
X114371168Y-57053238D01*
X114371168Y-57053238D02*
X114492120Y-57053238D01*
X114492120Y-57053238D02*
X114540501Y-57029047D01*
X114540501Y-57029047D02*
X114564692Y-57004857D01*
X114564692Y-57004857D02*
X114588882Y-56956476D01*
X114588882Y-56956476D02*
X114588882Y-56859714D01*
X114588882Y-56859714D02*
X114564692Y-56811333D01*
X114564692Y-56811333D02*
X114540501Y-56787142D01*
X114540501Y-56787142D02*
X114492120Y-56762952D01*
X116069533Y-83159406D02*
X115900199Y-82917501D01*
X115779247Y-83159406D02*
X115779247Y-82651406D01*
X115779247Y-82651406D02*
X115972771Y-82651406D01*
X115972771Y-82651406D02*
X116021152Y-82675596D01*
X116021152Y-82675596D02*
X116045342Y-82699787D01*
X116045342Y-82699787D02*
X116069533Y-82748168D01*
X116069533Y-82748168D02*
X116069533Y-82820739D01*
X116069533Y-82820739D02*
X116045342Y-82869120D01*
X116045342Y-82869120D02*
X116021152Y-82893311D01*
X116021152Y-82893311D02*
X115972771Y-82917501D01*
X115972771Y-82917501D02*
X115779247Y-82917501D01*
X116529152Y-82651406D02*
X116287247Y-82651406D01*
X116287247Y-82651406D02*
X116263056Y-82893311D01*
X116263056Y-82893311D02*
X116287247Y-82869120D01*
X116287247Y-82869120D02*
X116335628Y-82844930D01*
X116335628Y-82844930D02*
X116456580Y-82844930D01*
X116456580Y-82844930D02*
X116504961Y-82869120D01*
X116504961Y-82869120D02*
X116529152Y-82893311D01*
X116529152Y-82893311D02*
X116553342Y-82941692D01*
X116553342Y-82941692D02*
X116553342Y-83062644D01*
X116553342Y-83062644D02*
X116529152Y-83111025D01*
X116529152Y-83111025D02*
X116504961Y-83135216D01*
X116504961Y-83135216D02*
X116456580Y-83159406D01*
X116456580Y-83159406D02*
X116335628Y-83159406D01*
X116335628Y-83159406D02*
X116287247Y-83135216D01*
X116287247Y-83135216D02*
X116263056Y-83111025D01*
X104774806Y-84869866D02*
X104532901Y-85039200D01*
X104774806Y-85160152D02*
X104266806Y-85160152D01*
X104266806Y-85160152D02*
X104266806Y-84966628D01*
X104266806Y-84966628D02*
X104290996Y-84918247D01*
X104290996Y-84918247D02*
X104315187Y-84894057D01*
X104315187Y-84894057D02*
X104363568Y-84869866D01*
X104363568Y-84869866D02*
X104436139Y-84869866D01*
X104436139Y-84869866D02*
X104484520Y-84894057D01*
X104484520Y-84894057D02*
X104508711Y-84918247D01*
X104508711Y-84918247D02*
X104532901Y-84966628D01*
X104532901Y-84966628D02*
X104532901Y-85160152D01*
X104266806Y-84700533D02*
X104266806Y-84361866D01*
X104266806Y-84361866D02*
X104774806Y-84579581D01*
X111051025Y-57603571D02*
X111075216Y-57627762D01*
X111075216Y-57627762D02*
X111099406Y-57700333D01*
X111099406Y-57700333D02*
X111099406Y-57748714D01*
X111099406Y-57748714D02*
X111075216Y-57821286D01*
X111075216Y-57821286D02*
X111026835Y-57869667D01*
X111026835Y-57869667D02*
X110978454Y-57893857D01*
X110978454Y-57893857D02*
X110881692Y-57918048D01*
X110881692Y-57918048D02*
X110809120Y-57918048D01*
X110809120Y-57918048D02*
X110712358Y-57893857D01*
X110712358Y-57893857D02*
X110663977Y-57869667D01*
X110663977Y-57869667D02*
X110615596Y-57821286D01*
X110615596Y-57821286D02*
X110591406Y-57748714D01*
X110591406Y-57748714D02*
X110591406Y-57700333D01*
X110591406Y-57700333D02*
X110615596Y-57627762D01*
X110615596Y-57627762D02*
X110639787Y-57603571D01*
X110639787Y-57410048D02*
X110615596Y-57385857D01*
X110615596Y-57385857D02*
X110591406Y-57337476D01*
X110591406Y-57337476D02*
X110591406Y-57216524D01*
X110591406Y-57216524D02*
X110615596Y-57168143D01*
X110615596Y-57168143D02*
X110639787Y-57143952D01*
X110639787Y-57143952D02*
X110688168Y-57119762D01*
X110688168Y-57119762D02*
X110736549Y-57119762D01*
X110736549Y-57119762D02*
X110809120Y-57143952D01*
X110809120Y-57143952D02*
X111099406Y-57434238D01*
X111099406Y-57434238D02*
X111099406Y-57119762D01*
X110809120Y-56829476D02*
X110784930Y-56877857D01*
X110784930Y-56877857D02*
X110760739Y-56902047D01*
X110760739Y-56902047D02*
X110712358Y-56926238D01*
X110712358Y-56926238D02*
X110688168Y-56926238D01*
X110688168Y-56926238D02*
X110639787Y-56902047D01*
X110639787Y-56902047D02*
X110615596Y-56877857D01*
X110615596Y-56877857D02*
X110591406Y-56829476D01*
X110591406Y-56829476D02*
X110591406Y-56732714D01*
X110591406Y-56732714D02*
X110615596Y-56684333D01*
X110615596Y-56684333D02*
X110639787Y-56660142D01*
X110639787Y-56660142D02*
X110688168Y-56635952D01*
X110688168Y-56635952D02*
X110712358Y-56635952D01*
X110712358Y-56635952D02*
X110760739Y-56660142D01*
X110760739Y-56660142D02*
X110784930Y-56684333D01*
X110784930Y-56684333D02*
X110809120Y-56732714D01*
X110809120Y-56732714D02*
X110809120Y-56829476D01*
X110809120Y-56829476D02*
X110833311Y-56877857D01*
X110833311Y-56877857D02*
X110857501Y-56902047D01*
X110857501Y-56902047D02*
X110905882Y-56926238D01*
X110905882Y-56926238D02*
X111002644Y-56926238D01*
X111002644Y-56926238D02*
X111051025Y-56902047D01*
X111051025Y-56902047D02*
X111075216Y-56877857D01*
X111075216Y-56877857D02*
X111099406Y-56829476D01*
X111099406Y-56829476D02*
X111099406Y-56732714D01*
X111099406Y-56732714D02*
X111075216Y-56684333D01*
X111075216Y-56684333D02*
X111051025Y-56660142D01*
X111051025Y-56660142D02*
X111002644Y-56635952D01*
X111002644Y-56635952D02*
X110905882Y-56635952D01*
X110905882Y-56635952D02*
X110857501Y-56660142D01*
X110857501Y-56660142D02*
X110833311Y-56684333D01*
X110833311Y-56684333D02*
X110809120Y-56732714D01*
X101430666Y-51130006D02*
X101430666Y-51492863D01*
X101430666Y-51492863D02*
X101406475Y-51565435D01*
X101406475Y-51565435D02*
X101358094Y-51613816D01*
X101358094Y-51613816D02*
X101285523Y-51638006D01*
X101285523Y-51638006D02*
X101237142Y-51638006D01*
X101890285Y-51130006D02*
X101793523Y-51130006D01*
X101793523Y-51130006D02*
X101745142Y-51154196D01*
X101745142Y-51154196D02*
X101720952Y-51178387D01*
X101720952Y-51178387D02*
X101672571Y-51250958D01*
X101672571Y-51250958D02*
X101648380Y-51347720D01*
X101648380Y-51347720D02*
X101648380Y-51541244D01*
X101648380Y-51541244D02*
X101672571Y-51589625D01*
X101672571Y-51589625D02*
X101696761Y-51613816D01*
X101696761Y-51613816D02*
X101745142Y-51638006D01*
X101745142Y-51638006D02*
X101841904Y-51638006D01*
X101841904Y-51638006D02*
X101890285Y-51613816D01*
X101890285Y-51613816D02*
X101914476Y-51589625D01*
X101914476Y-51589625D02*
X101938666Y-51541244D01*
X101938666Y-51541244D02*
X101938666Y-51420292D01*
X101938666Y-51420292D02*
X101914476Y-51371911D01*
X101914476Y-51371911D02*
X101890285Y-51347720D01*
X101890285Y-51347720D02*
X101841904Y-51323530D01*
X101841904Y-51323530D02*
X101745142Y-51323530D01*
X101745142Y-51323530D02*
X101696761Y-51347720D01*
X101696761Y-51347720D02*
X101672571Y-51371911D01*
X101672571Y-51371911D02*
X101648380Y-51420292D01*
X113845025Y-78050571D02*
X113869216Y-78074762D01*
X113869216Y-78074762D02*
X113893406Y-78147333D01*
X113893406Y-78147333D02*
X113893406Y-78195714D01*
X113893406Y-78195714D02*
X113869216Y-78268286D01*
X113869216Y-78268286D02*
X113820835Y-78316667D01*
X113820835Y-78316667D02*
X113772454Y-78340857D01*
X113772454Y-78340857D02*
X113675692Y-78365048D01*
X113675692Y-78365048D02*
X113603120Y-78365048D01*
X113603120Y-78365048D02*
X113506358Y-78340857D01*
X113506358Y-78340857D02*
X113457977Y-78316667D01*
X113457977Y-78316667D02*
X113409596Y-78268286D01*
X113409596Y-78268286D02*
X113385406Y-78195714D01*
X113385406Y-78195714D02*
X113385406Y-78147333D01*
X113385406Y-78147333D02*
X113409596Y-78074762D01*
X113409596Y-78074762D02*
X113433787Y-78050571D01*
X113433787Y-77857048D02*
X113409596Y-77832857D01*
X113409596Y-77832857D02*
X113385406Y-77784476D01*
X113385406Y-77784476D02*
X113385406Y-77663524D01*
X113385406Y-77663524D02*
X113409596Y-77615143D01*
X113409596Y-77615143D02*
X113433787Y-77590952D01*
X113433787Y-77590952D02*
X113482168Y-77566762D01*
X113482168Y-77566762D02*
X113530549Y-77566762D01*
X113530549Y-77566762D02*
X113603120Y-77590952D01*
X113603120Y-77590952D02*
X113893406Y-77881238D01*
X113893406Y-77881238D02*
X113893406Y-77566762D01*
X113893406Y-77082952D02*
X113893406Y-77373238D01*
X113893406Y-77228095D02*
X113385406Y-77228095D01*
X113385406Y-77228095D02*
X113457977Y-77276476D01*
X113457977Y-77276476D02*
X113506358Y-77324857D01*
X113506358Y-77324857D02*
X113530549Y-77373238D01*
X92661619Y-91970787D02*
X92613238Y-91946596D01*
X92613238Y-91946596D02*
X92564857Y-91898216D01*
X92564857Y-91898216D02*
X92492285Y-91825644D01*
X92492285Y-91825644D02*
X92443904Y-91801454D01*
X92443904Y-91801454D02*
X92395523Y-91801454D01*
X92419714Y-91922406D02*
X92371333Y-91898216D01*
X92371333Y-91898216D02*
X92322952Y-91849835D01*
X92322952Y-91849835D02*
X92298761Y-91753073D01*
X92298761Y-91753073D02*
X92298761Y-91583739D01*
X92298761Y-91583739D02*
X92322952Y-91486977D01*
X92322952Y-91486977D02*
X92371333Y-91438596D01*
X92371333Y-91438596D02*
X92419714Y-91414406D01*
X92419714Y-91414406D02*
X92516476Y-91414406D01*
X92516476Y-91414406D02*
X92564857Y-91438596D01*
X92564857Y-91438596D02*
X92613238Y-91486977D01*
X92613238Y-91486977D02*
X92637428Y-91583739D01*
X92637428Y-91583739D02*
X92637428Y-91753073D01*
X92637428Y-91753073D02*
X92613238Y-91849835D01*
X92613238Y-91849835D02*
X92564857Y-91898216D01*
X92564857Y-91898216D02*
X92516476Y-91922406D01*
X92516476Y-91922406D02*
X92419714Y-91922406D01*
X93121237Y-91922406D02*
X92830951Y-91922406D01*
X92976094Y-91922406D02*
X92976094Y-91414406D01*
X92976094Y-91414406D02*
X92927713Y-91486977D01*
X92927713Y-91486977D02*
X92879332Y-91535358D01*
X92879332Y-91535358D02*
X92830951Y-91559549D01*
X113846428Y-54409025D02*
X113822237Y-54433216D01*
X113822237Y-54433216D02*
X113749666Y-54457406D01*
X113749666Y-54457406D02*
X113701285Y-54457406D01*
X113701285Y-54457406D02*
X113628713Y-54433216D01*
X113628713Y-54433216D02*
X113580332Y-54384835D01*
X113580332Y-54384835D02*
X113556142Y-54336454D01*
X113556142Y-54336454D02*
X113531951Y-54239692D01*
X113531951Y-54239692D02*
X113531951Y-54167120D01*
X113531951Y-54167120D02*
X113556142Y-54070358D01*
X113556142Y-54070358D02*
X113580332Y-54021977D01*
X113580332Y-54021977D02*
X113628713Y-53973596D01*
X113628713Y-53973596D02*
X113701285Y-53949406D01*
X113701285Y-53949406D02*
X113749666Y-53949406D01*
X113749666Y-53949406D02*
X113822237Y-53973596D01*
X113822237Y-53973596D02*
X113846428Y-53997787D01*
X114039951Y-53997787D02*
X114064142Y-53973596D01*
X114064142Y-53973596D02*
X114112523Y-53949406D01*
X114112523Y-53949406D02*
X114233475Y-53949406D01*
X114233475Y-53949406D02*
X114281856Y-53973596D01*
X114281856Y-53973596D02*
X114306047Y-53997787D01*
X114306047Y-53997787D02*
X114330237Y-54046168D01*
X114330237Y-54046168D02*
X114330237Y-54094549D01*
X114330237Y-54094549D02*
X114306047Y-54167120D01*
X114306047Y-54167120D02*
X114015761Y-54457406D01*
X114015761Y-54457406D02*
X114330237Y-54457406D01*
X114499571Y-53949406D02*
X114838238Y-53949406D01*
X114838238Y-53949406D02*
X114620523Y-54457406D01*
X105790806Y-84920666D02*
X105548901Y-85090000D01*
X105790806Y-85210952D02*
X105282806Y-85210952D01*
X105282806Y-85210952D02*
X105282806Y-85017428D01*
X105282806Y-85017428D02*
X105306996Y-84969047D01*
X105306996Y-84969047D02*
X105331187Y-84944857D01*
X105331187Y-84944857D02*
X105379568Y-84920666D01*
X105379568Y-84920666D02*
X105452139Y-84920666D01*
X105452139Y-84920666D02*
X105500520Y-84944857D01*
X105500520Y-84944857D02*
X105524711Y-84969047D01*
X105524711Y-84969047D02*
X105548901Y-85017428D01*
X105548901Y-85017428D02*
X105548901Y-85210952D01*
X105500520Y-84630381D02*
X105476330Y-84678762D01*
X105476330Y-84678762D02*
X105452139Y-84702952D01*
X105452139Y-84702952D02*
X105403758Y-84727143D01*
X105403758Y-84727143D02*
X105379568Y-84727143D01*
X105379568Y-84727143D02*
X105331187Y-84702952D01*
X105331187Y-84702952D02*
X105306996Y-84678762D01*
X105306996Y-84678762D02*
X105282806Y-84630381D01*
X105282806Y-84630381D02*
X105282806Y-84533619D01*
X105282806Y-84533619D02*
X105306996Y-84485238D01*
X105306996Y-84485238D02*
X105331187Y-84461047D01*
X105331187Y-84461047D02*
X105379568Y-84436857D01*
X105379568Y-84436857D02*
X105403758Y-84436857D01*
X105403758Y-84436857D02*
X105452139Y-84461047D01*
X105452139Y-84461047D02*
X105476330Y-84485238D01*
X105476330Y-84485238D02*
X105500520Y-84533619D01*
X105500520Y-84533619D02*
X105500520Y-84630381D01*
X105500520Y-84630381D02*
X105524711Y-84678762D01*
X105524711Y-84678762D02*
X105548901Y-84702952D01*
X105548901Y-84702952D02*
X105597282Y-84727143D01*
X105597282Y-84727143D02*
X105694044Y-84727143D01*
X105694044Y-84727143D02*
X105742425Y-84702952D01*
X105742425Y-84702952D02*
X105766616Y-84678762D01*
X105766616Y-84678762D02*
X105790806Y-84630381D01*
X105790806Y-84630381D02*
X105790806Y-84533619D01*
X105790806Y-84533619D02*
X105766616Y-84485238D01*
X105766616Y-84485238D02*
X105742425Y-84461047D01*
X105742425Y-84461047D02*
X105694044Y-84436857D01*
X105694044Y-84436857D02*
X105597282Y-84436857D01*
X105597282Y-84436857D02*
X105548901Y-84461047D01*
X105548901Y-84461047D02*
X105524711Y-84485238D01*
X105524711Y-84485238D02*
X105500520Y-84533619D01*
X97866006Y-80204752D02*
X97358006Y-80204752D01*
X97358006Y-80204752D02*
X97358006Y-80083800D01*
X97358006Y-80083800D02*
X97382196Y-80011228D01*
X97382196Y-80011228D02*
X97430577Y-79962847D01*
X97430577Y-79962847D02*
X97478958Y-79938657D01*
X97478958Y-79938657D02*
X97575720Y-79914466D01*
X97575720Y-79914466D02*
X97648292Y-79914466D01*
X97648292Y-79914466D02*
X97745054Y-79938657D01*
X97745054Y-79938657D02*
X97793435Y-79962847D01*
X97793435Y-79962847D02*
X97841816Y-80011228D01*
X97841816Y-80011228D02*
X97866006Y-80083800D01*
X97866006Y-80083800D02*
X97866006Y-80204752D01*
X97358006Y-79745133D02*
X97358006Y-79430657D01*
X97358006Y-79430657D02*
X97551530Y-79599990D01*
X97551530Y-79599990D02*
X97551530Y-79527419D01*
X97551530Y-79527419D02*
X97575720Y-79479038D01*
X97575720Y-79479038D02*
X97599911Y-79454847D01*
X97599911Y-79454847D02*
X97648292Y-79430657D01*
X97648292Y-79430657D02*
X97769244Y-79430657D01*
X97769244Y-79430657D02*
X97817625Y-79454847D01*
X97817625Y-79454847D02*
X97841816Y-79479038D01*
X97841816Y-79479038D02*
X97866006Y-79527419D01*
X97866006Y-79527419D02*
X97866006Y-79672562D01*
X97866006Y-79672562D02*
X97841816Y-79720943D01*
X97841816Y-79720943D02*
X97817625Y-79745133D01*
X103352406Y-74682047D02*
X103763644Y-74682047D01*
X103763644Y-74682047D02*
X103812025Y-74657857D01*
X103812025Y-74657857D02*
X103836216Y-74633666D01*
X103836216Y-74633666D02*
X103860406Y-74585285D01*
X103860406Y-74585285D02*
X103860406Y-74488523D01*
X103860406Y-74488523D02*
X103836216Y-74440142D01*
X103836216Y-74440142D02*
X103812025Y-74415952D01*
X103812025Y-74415952D02*
X103763644Y-74391761D01*
X103763644Y-74391761D02*
X103352406Y-74391761D01*
X103521739Y-73932143D02*
X103860406Y-73932143D01*
X103328216Y-74053095D02*
X103691073Y-74174048D01*
X103691073Y-74174048D02*
X103691073Y-73859571D01*
X92661619Y-96288787D02*
X92613238Y-96264596D01*
X92613238Y-96264596D02*
X92564857Y-96216216D01*
X92564857Y-96216216D02*
X92492285Y-96143644D01*
X92492285Y-96143644D02*
X92443904Y-96119454D01*
X92443904Y-96119454D02*
X92395523Y-96119454D01*
X92419714Y-96240406D02*
X92371333Y-96216216D01*
X92371333Y-96216216D02*
X92322952Y-96167835D01*
X92322952Y-96167835D02*
X92298761Y-96071073D01*
X92298761Y-96071073D02*
X92298761Y-95901739D01*
X92298761Y-95901739D02*
X92322952Y-95804977D01*
X92322952Y-95804977D02*
X92371333Y-95756596D01*
X92371333Y-95756596D02*
X92419714Y-95732406D01*
X92419714Y-95732406D02*
X92516476Y-95732406D01*
X92516476Y-95732406D02*
X92564857Y-95756596D01*
X92564857Y-95756596D02*
X92613238Y-95804977D01*
X92613238Y-95804977D02*
X92637428Y-95901739D01*
X92637428Y-95901739D02*
X92637428Y-96071073D01*
X92637428Y-96071073D02*
X92613238Y-96167835D01*
X92613238Y-96167835D02*
X92564857Y-96216216D01*
X92564857Y-96216216D02*
X92516476Y-96240406D01*
X92516476Y-96240406D02*
X92419714Y-96240406D01*
X92830951Y-95780787D02*
X92855142Y-95756596D01*
X92855142Y-95756596D02*
X92903523Y-95732406D01*
X92903523Y-95732406D02*
X93024475Y-95732406D01*
X93024475Y-95732406D02*
X93072856Y-95756596D01*
X93072856Y-95756596D02*
X93097047Y-95780787D01*
X93097047Y-95780787D02*
X93121237Y-95829168D01*
X93121237Y-95829168D02*
X93121237Y-95877549D01*
X93121237Y-95877549D02*
X93097047Y-95950120D01*
X93097047Y-95950120D02*
X92806761Y-96240406D01*
X92806761Y-96240406D02*
X93121237Y-96240406D01*
X98073028Y-82120425D02*
X98048837Y-82144616D01*
X98048837Y-82144616D02*
X97976266Y-82168806D01*
X97976266Y-82168806D02*
X97927885Y-82168806D01*
X97927885Y-82168806D02*
X97855313Y-82144616D01*
X97855313Y-82144616D02*
X97806932Y-82096235D01*
X97806932Y-82096235D02*
X97782742Y-82047854D01*
X97782742Y-82047854D02*
X97758551Y-81951092D01*
X97758551Y-81951092D02*
X97758551Y-81878520D01*
X97758551Y-81878520D02*
X97782742Y-81781758D01*
X97782742Y-81781758D02*
X97806932Y-81733377D01*
X97806932Y-81733377D02*
X97855313Y-81684996D01*
X97855313Y-81684996D02*
X97927885Y-81660806D01*
X97927885Y-81660806D02*
X97976266Y-81660806D01*
X97976266Y-81660806D02*
X98048837Y-81684996D01*
X98048837Y-81684996D02*
X98073028Y-81709187D01*
X98242361Y-81660806D02*
X98556837Y-81660806D01*
X98556837Y-81660806D02*
X98387504Y-81854330D01*
X98387504Y-81854330D02*
X98460075Y-81854330D01*
X98460075Y-81854330D02*
X98508456Y-81878520D01*
X98508456Y-81878520D02*
X98532647Y-81902711D01*
X98532647Y-81902711D02*
X98556837Y-81951092D01*
X98556837Y-81951092D02*
X98556837Y-82072044D01*
X98556837Y-82072044D02*
X98532647Y-82120425D01*
X98532647Y-82120425D02*
X98508456Y-82144616D01*
X98508456Y-82144616D02*
X98460075Y-82168806D01*
X98460075Y-82168806D02*
X98314932Y-82168806D01*
X98314932Y-82168806D02*
X98266551Y-82144616D01*
X98266551Y-82144616D02*
X98242361Y-82120425D01*
X98750361Y-81709187D02*
X98774552Y-81684996D01*
X98774552Y-81684996D02*
X98822933Y-81660806D01*
X98822933Y-81660806D02*
X98943885Y-81660806D01*
X98943885Y-81660806D02*
X98992266Y-81684996D01*
X98992266Y-81684996D02*
X99016457Y-81709187D01*
X99016457Y-81709187D02*
X99040647Y-81757568D01*
X99040647Y-81757568D02*
X99040647Y-81805949D01*
X99040647Y-81805949D02*
X99016457Y-81878520D01*
X99016457Y-81878520D02*
X98726171Y-82168806D01*
X98726171Y-82168806D02*
X99040647Y-82168806D01*
X92838628Y-59054806D02*
X92669294Y-58812901D01*
X92548342Y-59054806D02*
X92548342Y-58546806D01*
X92548342Y-58546806D02*
X92741866Y-58546806D01*
X92741866Y-58546806D02*
X92790247Y-58570996D01*
X92790247Y-58570996D02*
X92814437Y-58595187D01*
X92814437Y-58595187D02*
X92838628Y-58643568D01*
X92838628Y-58643568D02*
X92838628Y-58716139D01*
X92838628Y-58716139D02*
X92814437Y-58764520D01*
X92814437Y-58764520D02*
X92790247Y-58788711D01*
X92790247Y-58788711D02*
X92741866Y-58812901D01*
X92741866Y-58812901D02*
X92548342Y-58812901D01*
X93032151Y-58595187D02*
X93056342Y-58570996D01*
X93056342Y-58570996D02*
X93104723Y-58546806D01*
X93104723Y-58546806D02*
X93225675Y-58546806D01*
X93225675Y-58546806D02*
X93274056Y-58570996D01*
X93274056Y-58570996D02*
X93298247Y-58595187D01*
X93298247Y-58595187D02*
X93322437Y-58643568D01*
X93322437Y-58643568D02*
X93322437Y-58691949D01*
X93322437Y-58691949D02*
X93298247Y-58764520D01*
X93298247Y-58764520D02*
X93007961Y-59054806D01*
X93007961Y-59054806D02*
X93322437Y-59054806D01*
X93491771Y-58546806D02*
X93830438Y-58546806D01*
X93830438Y-58546806D02*
X93612723Y-59054806D01*
X86936225Y-76163371D02*
X86960416Y-76187562D01*
X86960416Y-76187562D02*
X86984606Y-76260133D01*
X86984606Y-76260133D02*
X86984606Y-76308514D01*
X86984606Y-76308514D02*
X86960416Y-76381086D01*
X86960416Y-76381086D02*
X86912035Y-76429467D01*
X86912035Y-76429467D02*
X86863654Y-76453657D01*
X86863654Y-76453657D02*
X86766892Y-76477848D01*
X86766892Y-76477848D02*
X86694320Y-76477848D01*
X86694320Y-76477848D02*
X86597558Y-76453657D01*
X86597558Y-76453657D02*
X86549177Y-76429467D01*
X86549177Y-76429467D02*
X86500796Y-76381086D01*
X86500796Y-76381086D02*
X86476606Y-76308514D01*
X86476606Y-76308514D02*
X86476606Y-76260133D01*
X86476606Y-76260133D02*
X86500796Y-76187562D01*
X86500796Y-76187562D02*
X86524987Y-76163371D01*
X86984606Y-75679562D02*
X86984606Y-75969848D01*
X86984606Y-75824705D02*
X86476606Y-75824705D01*
X86476606Y-75824705D02*
X86549177Y-75873086D01*
X86549177Y-75873086D02*
X86597558Y-75921467D01*
X86597558Y-75921467D02*
X86621749Y-75969848D01*
X86476606Y-75510228D02*
X86476606Y-75195752D01*
X86476606Y-75195752D02*
X86670130Y-75365085D01*
X86670130Y-75365085D02*
X86670130Y-75292514D01*
X86670130Y-75292514D02*
X86694320Y-75244133D01*
X86694320Y-75244133D02*
X86718511Y-75219942D01*
X86718511Y-75219942D02*
X86766892Y-75195752D01*
X86766892Y-75195752D02*
X86887844Y-75195752D01*
X86887844Y-75195752D02*
X86936225Y-75219942D01*
X86936225Y-75219942D02*
X86960416Y-75244133D01*
X86960416Y-75244133D02*
X86984606Y-75292514D01*
X86984606Y-75292514D02*
X86984606Y-75437657D01*
X86984606Y-75437657D02*
X86960416Y-75486038D01*
X86960416Y-75486038D02*
X86936225Y-75510228D01*
X104702428Y-52044406D02*
X104533094Y-51802501D01*
X104412142Y-52044406D02*
X104412142Y-51536406D01*
X104412142Y-51536406D02*
X104605666Y-51536406D01*
X104605666Y-51536406D02*
X104654047Y-51560596D01*
X104654047Y-51560596D02*
X104678237Y-51584787D01*
X104678237Y-51584787D02*
X104702428Y-51633168D01*
X104702428Y-51633168D02*
X104702428Y-51705739D01*
X104702428Y-51705739D02*
X104678237Y-51754120D01*
X104678237Y-51754120D02*
X104654047Y-51778311D01*
X104654047Y-51778311D02*
X104605666Y-51802501D01*
X104605666Y-51802501D02*
X104412142Y-51802501D01*
X105186237Y-52044406D02*
X104895951Y-52044406D01*
X105041094Y-52044406D02*
X105041094Y-51536406D01*
X105041094Y-51536406D02*
X104992713Y-51608977D01*
X104992713Y-51608977D02*
X104944332Y-51657358D01*
X104944332Y-51657358D02*
X104895951Y-51681549D01*
X105355571Y-51536406D02*
X105670047Y-51536406D01*
X105670047Y-51536406D02*
X105500714Y-51729930D01*
X105500714Y-51729930D02*
X105573285Y-51729930D01*
X105573285Y-51729930D02*
X105621666Y-51754120D01*
X105621666Y-51754120D02*
X105645857Y-51778311D01*
X105645857Y-51778311D02*
X105670047Y-51826692D01*
X105670047Y-51826692D02*
X105670047Y-51947644D01*
X105670047Y-51947644D02*
X105645857Y-51996025D01*
X105645857Y-51996025D02*
X105621666Y-52020216D01*
X105621666Y-52020216D02*
X105573285Y-52044406D01*
X105573285Y-52044406D02*
X105428142Y-52044406D01*
X105428142Y-52044406D02*
X105379761Y-52020216D01*
X105379761Y-52020216D02*
X105355571Y-51996025D01*
X116910151Y-89382406D02*
X117200437Y-89382406D01*
X117055294Y-89890406D02*
X117055294Y-89382406D01*
X117369771Y-89890406D02*
X117369771Y-89382406D01*
X117369771Y-89382406D02*
X117563295Y-89382406D01*
X117563295Y-89382406D02*
X117611676Y-89406596D01*
X117611676Y-89406596D02*
X117635866Y-89430787D01*
X117635866Y-89430787D02*
X117660057Y-89479168D01*
X117660057Y-89479168D02*
X117660057Y-89551739D01*
X117660057Y-89551739D02*
X117635866Y-89600120D01*
X117635866Y-89600120D02*
X117611676Y-89624311D01*
X117611676Y-89624311D02*
X117563295Y-89648501D01*
X117563295Y-89648501D02*
X117369771Y-89648501D01*
X118095485Y-89551739D02*
X118095485Y-89890406D01*
X117974533Y-89358216D02*
X117853580Y-89721073D01*
X117853580Y-89721073D02*
X118168057Y-89721073D01*
X89173352Y-77245206D02*
X89173352Y-77656444D01*
X89173352Y-77656444D02*
X89197542Y-77704825D01*
X89197542Y-77704825D02*
X89221733Y-77729016D01*
X89221733Y-77729016D02*
X89270114Y-77753206D01*
X89270114Y-77753206D02*
X89366876Y-77753206D01*
X89366876Y-77753206D02*
X89415257Y-77729016D01*
X89415257Y-77729016D02*
X89439447Y-77704825D01*
X89439447Y-77704825D02*
X89463638Y-77656444D01*
X89463638Y-77656444D02*
X89463638Y-77245206D01*
X89657161Y-77245206D02*
X89971637Y-77245206D01*
X89971637Y-77245206D02*
X89802304Y-77438730D01*
X89802304Y-77438730D02*
X89874875Y-77438730D01*
X89874875Y-77438730D02*
X89923256Y-77462920D01*
X89923256Y-77462920D02*
X89947447Y-77487111D01*
X89947447Y-77487111D02*
X89971637Y-77535492D01*
X89971637Y-77535492D02*
X89971637Y-77656444D01*
X89971637Y-77656444D02*
X89947447Y-77704825D01*
X89947447Y-77704825D02*
X89923256Y-77729016D01*
X89923256Y-77729016D02*
X89874875Y-77753206D01*
X89874875Y-77753206D02*
X89729732Y-77753206D01*
X89729732Y-77753206D02*
X89681351Y-77729016D01*
X89681351Y-77729016D02*
X89657161Y-77704825D01*
X85422425Y-66163371D02*
X85446616Y-66187562D01*
X85446616Y-66187562D02*
X85470806Y-66260133D01*
X85470806Y-66260133D02*
X85470806Y-66308514D01*
X85470806Y-66308514D02*
X85446616Y-66381086D01*
X85446616Y-66381086D02*
X85398235Y-66429467D01*
X85398235Y-66429467D02*
X85349854Y-66453657D01*
X85349854Y-66453657D02*
X85253092Y-66477848D01*
X85253092Y-66477848D02*
X85180520Y-66477848D01*
X85180520Y-66477848D02*
X85083758Y-66453657D01*
X85083758Y-66453657D02*
X85035377Y-66429467D01*
X85035377Y-66429467D02*
X84986996Y-66381086D01*
X84986996Y-66381086D02*
X84962806Y-66308514D01*
X84962806Y-66308514D02*
X84962806Y-66260133D01*
X84962806Y-66260133D02*
X84986996Y-66187562D01*
X84986996Y-66187562D02*
X85011187Y-66163371D01*
X84962806Y-65994038D02*
X84962806Y-65679562D01*
X84962806Y-65679562D02*
X85156330Y-65848895D01*
X85156330Y-65848895D02*
X85156330Y-65776324D01*
X85156330Y-65776324D02*
X85180520Y-65727943D01*
X85180520Y-65727943D02*
X85204711Y-65703752D01*
X85204711Y-65703752D02*
X85253092Y-65679562D01*
X85253092Y-65679562D02*
X85374044Y-65679562D01*
X85374044Y-65679562D02*
X85422425Y-65703752D01*
X85422425Y-65703752D02*
X85446616Y-65727943D01*
X85446616Y-65727943D02*
X85470806Y-65776324D01*
X85470806Y-65776324D02*
X85470806Y-65921467D01*
X85470806Y-65921467D02*
X85446616Y-65969848D01*
X85446616Y-65969848D02*
X85422425Y-65994038D01*
X85470806Y-65437657D02*
X85470806Y-65340895D01*
X85470806Y-65340895D02*
X85446616Y-65292514D01*
X85446616Y-65292514D02*
X85422425Y-65268323D01*
X85422425Y-65268323D02*
X85349854Y-65219942D01*
X85349854Y-65219942D02*
X85253092Y-65195752D01*
X85253092Y-65195752D02*
X85059568Y-65195752D01*
X85059568Y-65195752D02*
X85011187Y-65219942D01*
X85011187Y-65219942D02*
X84986996Y-65244133D01*
X84986996Y-65244133D02*
X84962806Y-65292514D01*
X84962806Y-65292514D02*
X84962806Y-65389276D01*
X84962806Y-65389276D02*
X84986996Y-65437657D01*
X84986996Y-65437657D02*
X85011187Y-65461847D01*
X85011187Y-65461847D02*
X85059568Y-65486038D01*
X85059568Y-65486038D02*
X85180520Y-65486038D01*
X85180520Y-65486038D02*
X85228901Y-65461847D01*
X85228901Y-65461847D02*
X85253092Y-65437657D01*
X85253092Y-65437657D02*
X85277282Y-65389276D01*
X85277282Y-65389276D02*
X85277282Y-65292514D01*
X85277282Y-65292514D02*
X85253092Y-65244133D01*
X85253092Y-65244133D02*
X85228901Y-65219942D01*
X85228901Y-65219942D02*
X85180520Y-65195752D01*
X94464825Y-70328971D02*
X94489016Y-70353162D01*
X94489016Y-70353162D02*
X94513206Y-70425733D01*
X94513206Y-70425733D02*
X94513206Y-70474114D01*
X94513206Y-70474114D02*
X94489016Y-70546686D01*
X94489016Y-70546686D02*
X94440635Y-70595067D01*
X94440635Y-70595067D02*
X94392254Y-70619257D01*
X94392254Y-70619257D02*
X94295492Y-70643448D01*
X94295492Y-70643448D02*
X94222920Y-70643448D01*
X94222920Y-70643448D02*
X94126158Y-70619257D01*
X94126158Y-70619257D02*
X94077777Y-70595067D01*
X94077777Y-70595067D02*
X94029396Y-70546686D01*
X94029396Y-70546686D02*
X94005206Y-70474114D01*
X94005206Y-70474114D02*
X94005206Y-70425733D01*
X94005206Y-70425733D02*
X94029396Y-70353162D01*
X94029396Y-70353162D02*
X94053587Y-70328971D01*
X94513206Y-69845162D02*
X94513206Y-70135448D01*
X94513206Y-69990305D02*
X94005206Y-69990305D01*
X94005206Y-69990305D02*
X94077777Y-70038686D01*
X94077777Y-70038686D02*
X94126158Y-70087067D01*
X94126158Y-70087067D02*
X94150349Y-70135448D01*
X94005206Y-69675828D02*
X94005206Y-69337161D01*
X94005206Y-69337161D02*
X94513206Y-69554876D01*
X112750406Y-62387238D02*
X113113263Y-62387238D01*
X113113263Y-62387238D02*
X113185835Y-62411429D01*
X113185835Y-62411429D02*
X113234216Y-62459810D01*
X113234216Y-62459810D02*
X113258406Y-62532381D01*
X113258406Y-62532381D02*
X113258406Y-62580762D01*
X113258406Y-61879238D02*
X113258406Y-62169524D01*
X113258406Y-62024381D02*
X112750406Y-62024381D01*
X112750406Y-62024381D02*
X112822977Y-62072762D01*
X112822977Y-62072762D02*
X112871358Y-62121143D01*
X112871358Y-62121143D02*
X112895549Y-62169524D01*
X112750406Y-61443809D02*
X112750406Y-61540571D01*
X112750406Y-61540571D02*
X112774596Y-61588952D01*
X112774596Y-61588952D02*
X112798787Y-61613142D01*
X112798787Y-61613142D02*
X112871358Y-61661523D01*
X112871358Y-61661523D02*
X112968120Y-61685714D01*
X112968120Y-61685714D02*
X113161644Y-61685714D01*
X113161644Y-61685714D02*
X113210025Y-61661523D01*
X113210025Y-61661523D02*
X113234216Y-61637333D01*
X113234216Y-61637333D02*
X113258406Y-61588952D01*
X113258406Y-61588952D02*
X113258406Y-61492190D01*
X113258406Y-61492190D02*
X113234216Y-61443809D01*
X113234216Y-61443809D02*
X113210025Y-61419618D01*
X113210025Y-61419618D02*
X113161644Y-61395428D01*
X113161644Y-61395428D02*
X113040692Y-61395428D01*
X113040692Y-61395428D02*
X112992311Y-61419618D01*
X112992311Y-61419618D02*
X112968120Y-61443809D01*
X112968120Y-61443809D02*
X112943930Y-61492190D01*
X112943930Y-61492190D02*
X112943930Y-61588952D01*
X112943930Y-61588952D02*
X112968120Y-61637333D01*
X112968120Y-61637333D02*
X112992311Y-61661523D01*
X112992311Y-61661523D02*
X113040692Y-61685714D01*
X85496206Y-74215171D02*
X85254301Y-74384505D01*
X85496206Y-74505457D02*
X84988206Y-74505457D01*
X84988206Y-74505457D02*
X84988206Y-74311933D01*
X84988206Y-74311933D02*
X85012396Y-74263552D01*
X85012396Y-74263552D02*
X85036587Y-74239362D01*
X85036587Y-74239362D02*
X85084968Y-74215171D01*
X85084968Y-74215171D02*
X85157539Y-74215171D01*
X85157539Y-74215171D02*
X85205920Y-74239362D01*
X85205920Y-74239362D02*
X85230111Y-74263552D01*
X85230111Y-74263552D02*
X85254301Y-74311933D01*
X85254301Y-74311933D02*
X85254301Y-74505457D01*
X85036587Y-74021648D02*
X85012396Y-73997457D01*
X85012396Y-73997457D02*
X84988206Y-73949076D01*
X84988206Y-73949076D02*
X84988206Y-73828124D01*
X84988206Y-73828124D02*
X85012396Y-73779743D01*
X85012396Y-73779743D02*
X85036587Y-73755552D01*
X85036587Y-73755552D02*
X85084968Y-73731362D01*
X85084968Y-73731362D02*
X85133349Y-73731362D01*
X85133349Y-73731362D02*
X85205920Y-73755552D01*
X85205920Y-73755552D02*
X85496206Y-74045838D01*
X85496206Y-74045838D02*
X85496206Y-73731362D01*
X84988206Y-73295933D02*
X84988206Y-73392695D01*
X84988206Y-73392695D02*
X85012396Y-73441076D01*
X85012396Y-73441076D02*
X85036587Y-73465266D01*
X85036587Y-73465266D02*
X85109158Y-73513647D01*
X85109158Y-73513647D02*
X85205920Y-73537838D01*
X85205920Y-73537838D02*
X85399444Y-73537838D01*
X85399444Y-73537838D02*
X85447825Y-73513647D01*
X85447825Y-73513647D02*
X85472016Y-73489457D01*
X85472016Y-73489457D02*
X85496206Y-73441076D01*
X85496206Y-73441076D02*
X85496206Y-73344314D01*
X85496206Y-73344314D02*
X85472016Y-73295933D01*
X85472016Y-73295933D02*
X85447825Y-73271742D01*
X85447825Y-73271742D02*
X85399444Y-73247552D01*
X85399444Y-73247552D02*
X85278492Y-73247552D01*
X85278492Y-73247552D02*
X85230111Y-73271742D01*
X85230111Y-73271742D02*
X85205920Y-73295933D01*
X85205920Y-73295933D02*
X85181730Y-73344314D01*
X85181730Y-73344314D02*
X85181730Y-73441076D01*
X85181730Y-73441076D02*
X85205920Y-73489457D01*
X85205920Y-73489457D02*
X85230111Y-73513647D01*
X85230111Y-73513647D02*
X85278492Y-73537838D01*
X94208406Y-75457352D02*
X93700406Y-75457352D01*
X93700406Y-75457352D02*
X93700406Y-75336400D01*
X93700406Y-75336400D02*
X93724596Y-75263828D01*
X93724596Y-75263828D02*
X93772977Y-75215447D01*
X93772977Y-75215447D02*
X93821358Y-75191257D01*
X93821358Y-75191257D02*
X93918120Y-75167066D01*
X93918120Y-75167066D02*
X93990692Y-75167066D01*
X93990692Y-75167066D02*
X94087454Y-75191257D01*
X94087454Y-75191257D02*
X94135835Y-75215447D01*
X94135835Y-75215447D02*
X94184216Y-75263828D01*
X94184216Y-75263828D02*
X94208406Y-75336400D01*
X94208406Y-75336400D02*
X94208406Y-75457352D01*
X93748787Y-74973543D02*
X93724596Y-74949352D01*
X93724596Y-74949352D02*
X93700406Y-74900971D01*
X93700406Y-74900971D02*
X93700406Y-74780019D01*
X93700406Y-74780019D02*
X93724596Y-74731638D01*
X93724596Y-74731638D02*
X93748787Y-74707447D01*
X93748787Y-74707447D02*
X93797168Y-74683257D01*
X93797168Y-74683257D02*
X93845549Y-74683257D01*
X93845549Y-74683257D02*
X93918120Y-74707447D01*
X93918120Y-74707447D02*
X94208406Y-74997733D01*
X94208406Y-74997733D02*
X94208406Y-74683257D01*
X94059828Y-68681406D02*
X93890494Y-68439501D01*
X93769542Y-68681406D02*
X93769542Y-68173406D01*
X93769542Y-68173406D02*
X93963066Y-68173406D01*
X93963066Y-68173406D02*
X94011447Y-68197596D01*
X94011447Y-68197596D02*
X94035637Y-68221787D01*
X94035637Y-68221787D02*
X94059828Y-68270168D01*
X94059828Y-68270168D02*
X94059828Y-68342739D01*
X94059828Y-68342739D02*
X94035637Y-68391120D01*
X94035637Y-68391120D02*
X94011447Y-68415311D01*
X94011447Y-68415311D02*
X93963066Y-68439501D01*
X93963066Y-68439501D02*
X93769542Y-68439501D01*
X94229161Y-68173406D02*
X94567828Y-68173406D01*
X94567828Y-68173406D02*
X94229161Y-68681406D01*
X94229161Y-68681406D02*
X94567828Y-68681406D01*
X94737161Y-68221787D02*
X94761352Y-68197596D01*
X94761352Y-68197596D02*
X94809733Y-68173406D01*
X94809733Y-68173406D02*
X94930685Y-68173406D01*
X94930685Y-68173406D02*
X94979066Y-68197596D01*
X94979066Y-68197596D02*
X95003257Y-68221787D01*
X95003257Y-68221787D02*
X95027447Y-68270168D01*
X95027447Y-68270168D02*
X95027447Y-68318549D01*
X95027447Y-68318549D02*
X95003257Y-68391120D01*
X95003257Y-68391120D02*
X94712971Y-68681406D01*
X94712971Y-68681406D02*
X95027447Y-68681406D01*
X103733406Y-84869866D02*
X103491501Y-85039200D01*
X103733406Y-85160152D02*
X103225406Y-85160152D01*
X103225406Y-85160152D02*
X103225406Y-84966628D01*
X103225406Y-84966628D02*
X103249596Y-84918247D01*
X103249596Y-84918247D02*
X103273787Y-84894057D01*
X103273787Y-84894057D02*
X103322168Y-84869866D01*
X103322168Y-84869866D02*
X103394739Y-84869866D01*
X103394739Y-84869866D02*
X103443120Y-84894057D01*
X103443120Y-84894057D02*
X103467311Y-84918247D01*
X103467311Y-84918247D02*
X103491501Y-84966628D01*
X103491501Y-84966628D02*
X103491501Y-85160152D01*
X103394739Y-84434438D02*
X103733406Y-84434438D01*
X103201216Y-84555390D02*
X103564073Y-84676343D01*
X103564073Y-84676343D02*
X103564073Y-84361866D01*
X114989428Y-72316025D02*
X114965237Y-72340216D01*
X114965237Y-72340216D02*
X114892666Y-72364406D01*
X114892666Y-72364406D02*
X114844285Y-72364406D01*
X114844285Y-72364406D02*
X114771713Y-72340216D01*
X114771713Y-72340216D02*
X114723332Y-72291835D01*
X114723332Y-72291835D02*
X114699142Y-72243454D01*
X114699142Y-72243454D02*
X114674951Y-72146692D01*
X114674951Y-72146692D02*
X114674951Y-72074120D01*
X114674951Y-72074120D02*
X114699142Y-71977358D01*
X114699142Y-71977358D02*
X114723332Y-71928977D01*
X114723332Y-71928977D02*
X114771713Y-71880596D01*
X114771713Y-71880596D02*
X114844285Y-71856406D01*
X114844285Y-71856406D02*
X114892666Y-71856406D01*
X114892666Y-71856406D02*
X114965237Y-71880596D01*
X114965237Y-71880596D02*
X114989428Y-71904787D01*
X115182951Y-71904787D02*
X115207142Y-71880596D01*
X115207142Y-71880596D02*
X115255523Y-71856406D01*
X115255523Y-71856406D02*
X115376475Y-71856406D01*
X115376475Y-71856406D02*
X115424856Y-71880596D01*
X115424856Y-71880596D02*
X115449047Y-71904787D01*
X115449047Y-71904787D02*
X115473237Y-71953168D01*
X115473237Y-71953168D02*
X115473237Y-72001549D01*
X115473237Y-72001549D02*
X115449047Y-72074120D01*
X115449047Y-72074120D02*
X115158761Y-72364406D01*
X115158761Y-72364406D02*
X115473237Y-72364406D01*
X115908666Y-71856406D02*
X115811904Y-71856406D01*
X115811904Y-71856406D02*
X115763523Y-71880596D01*
X115763523Y-71880596D02*
X115739333Y-71904787D01*
X115739333Y-71904787D02*
X115690952Y-71977358D01*
X115690952Y-71977358D02*
X115666761Y-72074120D01*
X115666761Y-72074120D02*
X115666761Y-72267644D01*
X115666761Y-72267644D02*
X115690952Y-72316025D01*
X115690952Y-72316025D02*
X115715142Y-72340216D01*
X115715142Y-72340216D02*
X115763523Y-72364406D01*
X115763523Y-72364406D02*
X115860285Y-72364406D01*
X115860285Y-72364406D02*
X115908666Y-72340216D01*
X115908666Y-72340216D02*
X115932857Y-72316025D01*
X115932857Y-72316025D02*
X115957047Y-72267644D01*
X115957047Y-72267644D02*
X115957047Y-72146692D01*
X115957047Y-72146692D02*
X115932857Y-72098311D01*
X115932857Y-72098311D02*
X115908666Y-72074120D01*
X115908666Y-72074120D02*
X115860285Y-72049930D01*
X115860285Y-72049930D02*
X115763523Y-72049930D01*
X115763523Y-72049930D02*
X115715142Y-72074120D01*
X115715142Y-72074120D02*
X115690952Y-72098311D01*
X115690952Y-72098311D02*
X115666761Y-72146692D01*
X113592428Y-73840025D02*
X113568237Y-73864216D01*
X113568237Y-73864216D02*
X113495666Y-73888406D01*
X113495666Y-73888406D02*
X113447285Y-73888406D01*
X113447285Y-73888406D02*
X113374713Y-73864216D01*
X113374713Y-73864216D02*
X113326332Y-73815835D01*
X113326332Y-73815835D02*
X113302142Y-73767454D01*
X113302142Y-73767454D02*
X113277951Y-73670692D01*
X113277951Y-73670692D02*
X113277951Y-73598120D01*
X113277951Y-73598120D02*
X113302142Y-73501358D01*
X113302142Y-73501358D02*
X113326332Y-73452977D01*
X113326332Y-73452977D02*
X113374713Y-73404596D01*
X113374713Y-73404596D02*
X113447285Y-73380406D01*
X113447285Y-73380406D02*
X113495666Y-73380406D01*
X113495666Y-73380406D02*
X113568237Y-73404596D01*
X113568237Y-73404596D02*
X113592428Y-73428787D01*
X113785951Y-73428787D02*
X113810142Y-73404596D01*
X113810142Y-73404596D02*
X113858523Y-73380406D01*
X113858523Y-73380406D02*
X113979475Y-73380406D01*
X113979475Y-73380406D02*
X114027856Y-73404596D01*
X114027856Y-73404596D02*
X114052047Y-73428787D01*
X114052047Y-73428787D02*
X114076237Y-73477168D01*
X114076237Y-73477168D02*
X114076237Y-73525549D01*
X114076237Y-73525549D02*
X114052047Y-73598120D01*
X114052047Y-73598120D02*
X113761761Y-73888406D01*
X113761761Y-73888406D02*
X114076237Y-73888406D01*
X114269761Y-73428787D02*
X114293952Y-73404596D01*
X114293952Y-73404596D02*
X114342333Y-73380406D01*
X114342333Y-73380406D02*
X114463285Y-73380406D01*
X114463285Y-73380406D02*
X114511666Y-73404596D01*
X114511666Y-73404596D02*
X114535857Y-73428787D01*
X114535857Y-73428787D02*
X114560047Y-73477168D01*
X114560047Y-73477168D02*
X114560047Y-73525549D01*
X114560047Y-73525549D02*
X114535857Y-73598120D01*
X114535857Y-73598120D02*
X114245571Y-73888406D01*
X114245571Y-73888406D02*
X114560047Y-73888406D01*
X97590428Y-67236025D02*
X97566237Y-67260216D01*
X97566237Y-67260216D02*
X97493666Y-67284406D01*
X97493666Y-67284406D02*
X97445285Y-67284406D01*
X97445285Y-67284406D02*
X97372713Y-67260216D01*
X97372713Y-67260216D02*
X97324332Y-67211835D01*
X97324332Y-67211835D02*
X97300142Y-67163454D01*
X97300142Y-67163454D02*
X97275951Y-67066692D01*
X97275951Y-67066692D02*
X97275951Y-66994120D01*
X97275951Y-66994120D02*
X97300142Y-66897358D01*
X97300142Y-66897358D02*
X97324332Y-66848977D01*
X97324332Y-66848977D02*
X97372713Y-66800596D01*
X97372713Y-66800596D02*
X97445285Y-66776406D01*
X97445285Y-66776406D02*
X97493666Y-66776406D01*
X97493666Y-66776406D02*
X97566237Y-66800596D01*
X97566237Y-66800596D02*
X97590428Y-66824787D01*
X98074237Y-67284406D02*
X97783951Y-67284406D01*
X97929094Y-67284406D02*
X97929094Y-66776406D01*
X97929094Y-66776406D02*
X97880713Y-66848977D01*
X97880713Y-66848977D02*
X97832332Y-66897358D01*
X97832332Y-66897358D02*
X97783951Y-66921549D01*
X98509666Y-66776406D02*
X98412904Y-66776406D01*
X98412904Y-66776406D02*
X98364523Y-66800596D01*
X98364523Y-66800596D02*
X98340333Y-66824787D01*
X98340333Y-66824787D02*
X98291952Y-66897358D01*
X98291952Y-66897358D02*
X98267761Y-66994120D01*
X98267761Y-66994120D02*
X98267761Y-67187644D01*
X98267761Y-67187644D02*
X98291952Y-67236025D01*
X98291952Y-67236025D02*
X98316142Y-67260216D01*
X98316142Y-67260216D02*
X98364523Y-67284406D01*
X98364523Y-67284406D02*
X98461285Y-67284406D01*
X98461285Y-67284406D02*
X98509666Y-67260216D01*
X98509666Y-67260216D02*
X98533857Y-67236025D01*
X98533857Y-67236025D02*
X98558047Y-67187644D01*
X98558047Y-67187644D02*
X98558047Y-67066692D01*
X98558047Y-67066692D02*
X98533857Y-67018311D01*
X98533857Y-67018311D02*
X98509666Y-66994120D01*
X98509666Y-66994120D02*
X98461285Y-66969930D01*
X98461285Y-66969930D02*
X98364523Y-66969930D01*
X98364523Y-66969930D02*
X98316142Y-66994120D01*
X98316142Y-66994120D02*
X98291952Y-67018311D01*
X98291952Y-67018311D02*
X98267761Y-67066692D01*
X90757828Y-78818425D02*
X90733637Y-78842616D01*
X90733637Y-78842616D02*
X90661066Y-78866806D01*
X90661066Y-78866806D02*
X90612685Y-78866806D01*
X90612685Y-78866806D02*
X90540113Y-78842616D01*
X90540113Y-78842616D02*
X90491732Y-78794235D01*
X90491732Y-78794235D02*
X90467542Y-78745854D01*
X90467542Y-78745854D02*
X90443351Y-78649092D01*
X90443351Y-78649092D02*
X90443351Y-78576520D01*
X90443351Y-78576520D02*
X90467542Y-78479758D01*
X90467542Y-78479758D02*
X90491732Y-78431377D01*
X90491732Y-78431377D02*
X90540113Y-78382996D01*
X90540113Y-78382996D02*
X90612685Y-78358806D01*
X90612685Y-78358806D02*
X90661066Y-78358806D01*
X90661066Y-78358806D02*
X90733637Y-78382996D01*
X90733637Y-78382996D02*
X90757828Y-78407187D01*
X91241637Y-78866806D02*
X90951351Y-78866806D01*
X91096494Y-78866806D02*
X91096494Y-78358806D01*
X91096494Y-78358806D02*
X91048113Y-78431377D01*
X91048113Y-78431377D02*
X90999732Y-78479758D01*
X90999732Y-78479758D02*
X90951351Y-78503949D01*
X91725447Y-78866806D02*
X91435161Y-78866806D01*
X91580304Y-78866806D02*
X91580304Y-78358806D01*
X91580304Y-78358806D02*
X91531923Y-78431377D01*
X91531923Y-78431377D02*
X91483542Y-78479758D01*
X91483542Y-78479758D02*
X91435161Y-78503949D01*
X93090806Y-75457352D02*
X92582806Y-75457352D01*
X92582806Y-75457352D02*
X92582806Y-75336400D01*
X92582806Y-75336400D02*
X92606996Y-75263828D01*
X92606996Y-75263828D02*
X92655377Y-75215447D01*
X92655377Y-75215447D02*
X92703758Y-75191257D01*
X92703758Y-75191257D02*
X92800520Y-75167066D01*
X92800520Y-75167066D02*
X92873092Y-75167066D01*
X92873092Y-75167066D02*
X92969854Y-75191257D01*
X92969854Y-75191257D02*
X93018235Y-75215447D01*
X93018235Y-75215447D02*
X93066616Y-75263828D01*
X93066616Y-75263828D02*
X93090806Y-75336400D01*
X93090806Y-75336400D02*
X93090806Y-75457352D01*
X93090806Y-74683257D02*
X93090806Y-74973543D01*
X93090806Y-74828400D02*
X92582806Y-74828400D01*
X92582806Y-74828400D02*
X92655377Y-74876781D01*
X92655377Y-74876781D02*
X92703758Y-74925162D01*
X92703758Y-74925162D02*
X92727949Y-74973543D01*
X114430628Y-84200806D02*
X114261294Y-83958901D01*
X114140342Y-84200806D02*
X114140342Y-83692806D01*
X114140342Y-83692806D02*
X114333866Y-83692806D01*
X114333866Y-83692806D02*
X114382247Y-83716996D01*
X114382247Y-83716996D02*
X114406437Y-83741187D01*
X114406437Y-83741187D02*
X114430628Y-83789568D01*
X114430628Y-83789568D02*
X114430628Y-83862139D01*
X114430628Y-83862139D02*
X114406437Y-83910520D01*
X114406437Y-83910520D02*
X114382247Y-83934711D01*
X114382247Y-83934711D02*
X114333866Y-83958901D01*
X114333866Y-83958901D02*
X114140342Y-83958901D01*
X114914437Y-84200806D02*
X114624151Y-84200806D01*
X114769294Y-84200806D02*
X114769294Y-83692806D01*
X114769294Y-83692806D02*
X114720913Y-83765377D01*
X114720913Y-83765377D02*
X114672532Y-83813758D01*
X114672532Y-83813758D02*
X114624151Y-83837949D01*
X115083771Y-83692806D02*
X115422438Y-83692806D01*
X115422438Y-83692806D02*
X115204723Y-84200806D01*
X87659028Y-69748206D02*
X87489694Y-69506301D01*
X87368742Y-69748206D02*
X87368742Y-69240206D01*
X87368742Y-69240206D02*
X87562266Y-69240206D01*
X87562266Y-69240206D02*
X87610647Y-69264396D01*
X87610647Y-69264396D02*
X87634837Y-69288587D01*
X87634837Y-69288587D02*
X87659028Y-69336968D01*
X87659028Y-69336968D02*
X87659028Y-69409539D01*
X87659028Y-69409539D02*
X87634837Y-69457920D01*
X87634837Y-69457920D02*
X87610647Y-69482111D01*
X87610647Y-69482111D02*
X87562266Y-69506301D01*
X87562266Y-69506301D02*
X87368742Y-69506301D01*
X87852551Y-69288587D02*
X87876742Y-69264396D01*
X87876742Y-69264396D02*
X87925123Y-69240206D01*
X87925123Y-69240206D02*
X88046075Y-69240206D01*
X88046075Y-69240206D02*
X88094456Y-69264396D01*
X88094456Y-69264396D02*
X88118647Y-69288587D01*
X88118647Y-69288587D02*
X88142837Y-69336968D01*
X88142837Y-69336968D02*
X88142837Y-69385349D01*
X88142837Y-69385349D02*
X88118647Y-69457920D01*
X88118647Y-69457920D02*
X87828361Y-69748206D01*
X87828361Y-69748206D02*
X88142837Y-69748206D01*
X88336361Y-69288587D02*
X88360552Y-69264396D01*
X88360552Y-69264396D02*
X88408933Y-69240206D01*
X88408933Y-69240206D02*
X88529885Y-69240206D01*
X88529885Y-69240206D02*
X88578266Y-69264396D01*
X88578266Y-69264396D02*
X88602457Y-69288587D01*
X88602457Y-69288587D02*
X88626647Y-69336968D01*
X88626647Y-69336968D02*
X88626647Y-69385349D01*
X88626647Y-69385349D02*
X88602457Y-69457920D01*
X88602457Y-69457920D02*
X88312171Y-69748206D01*
X88312171Y-69748206D02*
X88626647Y-69748206D01*
X92712225Y-79512171D02*
X92736416Y-79536362D01*
X92736416Y-79536362D02*
X92760606Y-79608933D01*
X92760606Y-79608933D02*
X92760606Y-79657314D01*
X92760606Y-79657314D02*
X92736416Y-79729886D01*
X92736416Y-79729886D02*
X92688035Y-79778267D01*
X92688035Y-79778267D02*
X92639654Y-79802457D01*
X92639654Y-79802457D02*
X92542892Y-79826648D01*
X92542892Y-79826648D02*
X92470320Y-79826648D01*
X92470320Y-79826648D02*
X92373558Y-79802457D01*
X92373558Y-79802457D02*
X92325177Y-79778267D01*
X92325177Y-79778267D02*
X92276796Y-79729886D01*
X92276796Y-79729886D02*
X92252606Y-79657314D01*
X92252606Y-79657314D02*
X92252606Y-79608933D01*
X92252606Y-79608933D02*
X92276796Y-79536362D01*
X92276796Y-79536362D02*
X92300987Y-79512171D01*
X92760606Y-79028362D02*
X92760606Y-79318648D01*
X92760606Y-79173505D02*
X92252606Y-79173505D01*
X92252606Y-79173505D02*
X92325177Y-79221886D01*
X92325177Y-79221886D02*
X92373558Y-79270267D01*
X92373558Y-79270267D02*
X92397749Y-79318648D01*
X92300987Y-78834838D02*
X92276796Y-78810647D01*
X92276796Y-78810647D02*
X92252606Y-78762266D01*
X92252606Y-78762266D02*
X92252606Y-78641314D01*
X92252606Y-78641314D02*
X92276796Y-78592933D01*
X92276796Y-78592933D02*
X92300987Y-78568742D01*
X92300987Y-78568742D02*
X92349368Y-78544552D01*
X92349368Y-78544552D02*
X92397749Y-78544552D01*
X92397749Y-78544552D02*
X92470320Y-78568742D01*
X92470320Y-78568742D02*
X92760606Y-78859028D01*
X92760606Y-78859028D02*
X92760606Y-78544552D01*
X109829406Y-80082571D02*
X109587501Y-80251905D01*
X109829406Y-80372857D02*
X109321406Y-80372857D01*
X109321406Y-80372857D02*
X109321406Y-80179333D01*
X109321406Y-80179333D02*
X109345596Y-80130952D01*
X109345596Y-80130952D02*
X109369787Y-80106762D01*
X109369787Y-80106762D02*
X109418168Y-80082571D01*
X109418168Y-80082571D02*
X109490739Y-80082571D01*
X109490739Y-80082571D02*
X109539120Y-80106762D01*
X109539120Y-80106762D02*
X109563311Y-80130952D01*
X109563311Y-80130952D02*
X109587501Y-80179333D01*
X109587501Y-80179333D02*
X109587501Y-80372857D01*
X109829406Y-79598762D02*
X109829406Y-79889048D01*
X109829406Y-79743905D02*
X109321406Y-79743905D01*
X109321406Y-79743905D02*
X109393977Y-79792286D01*
X109393977Y-79792286D02*
X109442358Y-79840667D01*
X109442358Y-79840667D02*
X109466549Y-79889048D01*
X109369787Y-79405238D02*
X109345596Y-79381047D01*
X109345596Y-79381047D02*
X109321406Y-79332666D01*
X109321406Y-79332666D02*
X109321406Y-79211714D01*
X109321406Y-79211714D02*
X109345596Y-79163333D01*
X109345596Y-79163333D02*
X109369787Y-79139142D01*
X109369787Y-79139142D02*
X109418168Y-79114952D01*
X109418168Y-79114952D02*
X109466549Y-79114952D01*
X109466549Y-79114952D02*
X109539120Y-79139142D01*
X109539120Y-79139142D02*
X109829406Y-79429428D01*
X109829406Y-79429428D02*
X109829406Y-79114952D01*
X114607025Y-75764571D02*
X114631216Y-75788762D01*
X114631216Y-75788762D02*
X114655406Y-75861333D01*
X114655406Y-75861333D02*
X114655406Y-75909714D01*
X114655406Y-75909714D02*
X114631216Y-75982286D01*
X114631216Y-75982286D02*
X114582835Y-76030667D01*
X114582835Y-76030667D02*
X114534454Y-76054857D01*
X114534454Y-76054857D02*
X114437692Y-76079048D01*
X114437692Y-76079048D02*
X114365120Y-76079048D01*
X114365120Y-76079048D02*
X114268358Y-76054857D01*
X114268358Y-76054857D02*
X114219977Y-76030667D01*
X114219977Y-76030667D02*
X114171596Y-75982286D01*
X114171596Y-75982286D02*
X114147406Y-75909714D01*
X114147406Y-75909714D02*
X114147406Y-75861333D01*
X114147406Y-75861333D02*
X114171596Y-75788762D01*
X114171596Y-75788762D02*
X114195787Y-75764571D01*
X114655406Y-75280762D02*
X114655406Y-75571048D01*
X114655406Y-75425905D02*
X114147406Y-75425905D01*
X114147406Y-75425905D02*
X114219977Y-75474286D01*
X114219977Y-75474286D02*
X114268358Y-75522667D01*
X114268358Y-75522667D02*
X114292549Y-75571048D01*
X114655406Y-75038857D02*
X114655406Y-74942095D01*
X114655406Y-74942095D02*
X114631216Y-74893714D01*
X114631216Y-74893714D02*
X114607025Y-74869523D01*
X114607025Y-74869523D02*
X114534454Y-74821142D01*
X114534454Y-74821142D02*
X114437692Y-74796952D01*
X114437692Y-74796952D02*
X114244168Y-74796952D01*
X114244168Y-74796952D02*
X114195787Y-74821142D01*
X114195787Y-74821142D02*
X114171596Y-74845333D01*
X114171596Y-74845333D02*
X114147406Y-74893714D01*
X114147406Y-74893714D02*
X114147406Y-74990476D01*
X114147406Y-74990476D02*
X114171596Y-75038857D01*
X114171596Y-75038857D02*
X114195787Y-75063047D01*
X114195787Y-75063047D02*
X114244168Y-75087238D01*
X114244168Y-75087238D02*
X114365120Y-75087238D01*
X114365120Y-75087238D02*
X114413501Y-75063047D01*
X114413501Y-75063047D02*
X114437692Y-75038857D01*
X114437692Y-75038857D02*
X114461882Y-74990476D01*
X114461882Y-74990476D02*
X114461882Y-74893714D01*
X114461882Y-74893714D02*
X114437692Y-74845333D01*
X114437692Y-74845333D02*
X114413501Y-74821142D01*
X114413501Y-74821142D02*
X114365120Y-74796952D01*
X115163406Y-80560333D02*
X115526263Y-80560333D01*
X115526263Y-80560333D02*
X115598835Y-80584524D01*
X115598835Y-80584524D02*
X115647216Y-80632905D01*
X115647216Y-80632905D02*
X115671406Y-80705476D01*
X115671406Y-80705476D02*
X115671406Y-80753857D01*
X115163406Y-80366809D02*
X115163406Y-80028142D01*
X115163406Y-80028142D02*
X115671406Y-80245857D01*
X85422425Y-71966666D02*
X85446616Y-71990857D01*
X85446616Y-71990857D02*
X85470806Y-72063428D01*
X85470806Y-72063428D02*
X85470806Y-72111809D01*
X85470806Y-72111809D02*
X85446616Y-72184381D01*
X85446616Y-72184381D02*
X85398235Y-72232762D01*
X85398235Y-72232762D02*
X85349854Y-72256952D01*
X85349854Y-72256952D02*
X85253092Y-72281143D01*
X85253092Y-72281143D02*
X85180520Y-72281143D01*
X85180520Y-72281143D02*
X85083758Y-72256952D01*
X85083758Y-72256952D02*
X85035377Y-72232762D01*
X85035377Y-72232762D02*
X84986996Y-72184381D01*
X84986996Y-72184381D02*
X84962806Y-72111809D01*
X84962806Y-72111809D02*
X84962806Y-72063428D01*
X84962806Y-72063428D02*
X84986996Y-71990857D01*
X84986996Y-71990857D02*
X85011187Y-71966666D01*
X85180520Y-71676381D02*
X85156330Y-71724762D01*
X85156330Y-71724762D02*
X85132139Y-71748952D01*
X85132139Y-71748952D02*
X85083758Y-71773143D01*
X85083758Y-71773143D02*
X85059568Y-71773143D01*
X85059568Y-71773143D02*
X85011187Y-71748952D01*
X85011187Y-71748952D02*
X84986996Y-71724762D01*
X84986996Y-71724762D02*
X84962806Y-71676381D01*
X84962806Y-71676381D02*
X84962806Y-71579619D01*
X84962806Y-71579619D02*
X84986996Y-71531238D01*
X84986996Y-71531238D02*
X85011187Y-71507047D01*
X85011187Y-71507047D02*
X85059568Y-71482857D01*
X85059568Y-71482857D02*
X85083758Y-71482857D01*
X85083758Y-71482857D02*
X85132139Y-71507047D01*
X85132139Y-71507047D02*
X85156330Y-71531238D01*
X85156330Y-71531238D02*
X85180520Y-71579619D01*
X85180520Y-71579619D02*
X85180520Y-71676381D01*
X85180520Y-71676381D02*
X85204711Y-71724762D01*
X85204711Y-71724762D02*
X85228901Y-71748952D01*
X85228901Y-71748952D02*
X85277282Y-71773143D01*
X85277282Y-71773143D02*
X85374044Y-71773143D01*
X85374044Y-71773143D02*
X85422425Y-71748952D01*
X85422425Y-71748952D02*
X85446616Y-71724762D01*
X85446616Y-71724762D02*
X85470806Y-71676381D01*
X85470806Y-71676381D02*
X85470806Y-71579619D01*
X85470806Y-71579619D02*
X85446616Y-71531238D01*
X85446616Y-71531238D02*
X85422425Y-71507047D01*
X85422425Y-71507047D02*
X85374044Y-71482857D01*
X85374044Y-71482857D02*
X85277282Y-71482857D01*
X85277282Y-71482857D02*
X85228901Y-71507047D01*
X85228901Y-71507047D02*
X85204711Y-71531238D01*
X85204711Y-71531238D02*
X85180520Y-71579619D01*
X110052151Y-83692806D02*
X110342437Y-83692806D01*
X110197294Y-84200806D02*
X110197294Y-83692806D01*
X110511771Y-84200806D02*
X110511771Y-83692806D01*
X110511771Y-83692806D02*
X110705295Y-83692806D01*
X110705295Y-83692806D02*
X110753676Y-83716996D01*
X110753676Y-83716996D02*
X110777866Y-83741187D01*
X110777866Y-83741187D02*
X110802057Y-83789568D01*
X110802057Y-83789568D02*
X110802057Y-83862139D01*
X110802057Y-83862139D02*
X110777866Y-83910520D01*
X110777866Y-83910520D02*
X110753676Y-83934711D01*
X110753676Y-83934711D02*
X110705295Y-83958901D01*
X110705295Y-83958901D02*
X110511771Y-83958901D01*
X111285866Y-84200806D02*
X110995580Y-84200806D01*
X111140723Y-84200806D02*
X111140723Y-83692806D01*
X111140723Y-83692806D02*
X111092342Y-83765377D01*
X111092342Y-83765377D02*
X111043961Y-83813758D01*
X111043961Y-83813758D02*
X110995580Y-83837949D01*
D12*
%TO.C,RZ1*%
X94054959Y-66066400D02*
X94362241Y-66066400D01*
X94054959Y-66826400D02*
X94362241Y-66826400D01*
%TO.C,R18*%
X114910841Y-86282800D02*
X114603559Y-86282800D01*
X114910841Y-85522800D02*
X114603559Y-85522800D01*
%TO.C,R24*%
X85726000Y-68124041D02*
X85726000Y-67816759D01*
X86486000Y-68124041D02*
X86486000Y-67816759D01*
D13*
%TO.C,D1*%
X108635000Y-80952000D02*
G75*
G03*
X108635000Y-80952000I-50000J0D01*
G01*
D12*
%TO.C,AE1*%
X86491400Y-54305252D02*
X86491400Y-52882748D01*
X88311400Y-54305252D02*
X88311400Y-52882748D01*
%TO.C,C18*%
X111932000Y-75330164D02*
X111932000Y-75545836D01*
X111212000Y-75330164D02*
X111212000Y-75545836D01*
%TO.C,C7*%
X92816000Y-65728964D02*
X92816000Y-65944636D01*
X92096000Y-65728964D02*
X92096000Y-65944636D01*
%TO.C,R23*%
X90577641Y-68985400D02*
X90270359Y-68985400D01*
X90577641Y-68225400D02*
X90270359Y-68225400D01*
%TO.C,C5*%
X104921164Y-81426000D02*
X105136836Y-81426000D01*
X104921164Y-82146000D02*
X105136836Y-82146000D01*
%TO.C,C14*%
X96372000Y-77108164D02*
X96372000Y-77323836D01*
X95652000Y-77108164D02*
X95652000Y-77323836D01*
%TO.C,C3*%
X95045000Y-61100580D02*
X95045000Y-60819420D01*
X96065000Y-61100580D02*
X96065000Y-60819420D01*
%TO.C,C6*%
X106826164Y-81428000D02*
X107041836Y-81428000D01*
X106826164Y-82148000D02*
X107041836Y-82148000D01*
%TO.C,C34*%
X112833036Y-86262800D02*
X112617364Y-86262800D01*
X112833036Y-85542800D02*
X112617364Y-85542800D01*
%TO.C,R21*%
X91695000Y-70130641D02*
X91695000Y-69823359D01*
X92455000Y-70130641D02*
X92455000Y-69823359D01*
%TO.C,C30*%
X94848000Y-64662164D02*
X94848000Y-64877836D01*
X94128000Y-64662164D02*
X94128000Y-64877836D01*
%TO.C,R10*%
X107189000Y-83463641D02*
X107189000Y-83156359D01*
X107949000Y-83463641D02*
X107949000Y-83156359D01*
D10*
%TO.C,SW1*%
X116033400Y-88721000D02*
X116033400Y-94921000D01*
X115588400Y-88721000D02*
X116033400Y-88721000D01*
X112363400Y-88721000D02*
X112808400Y-88721000D01*
X112363400Y-88721000D02*
X112363400Y-94921000D01*
X115588400Y-94921000D02*
X116033400Y-94921000D01*
X112363400Y-94921000D02*
X112808400Y-94921000D01*
D14*
X114958400Y-86821000D02*
G75*
G03*
X114958400Y-86821000I-125000J0D01*
G01*
D15*
X115448400Y-89546000D02*
G75*
G03*
X115448400Y-89546000I-250000J0D01*
G01*
D12*
%TO.C,J2*%
X90197200Y-85422400D02*
X88947200Y-85422400D01*
X89897200Y-85722400D02*
X85177200Y-85722400D01*
X88587200Y-85722400D02*
X88587200Y-86332400D01*
X87287200Y-85722400D02*
X87287200Y-86332400D01*
X85177200Y-85722400D02*
X85177200Y-91842400D01*
X89287200Y-86332400D02*
X85787200Y-86332400D01*
X85787200Y-86332400D02*
X85787200Y-91232400D01*
X90197200Y-86672400D02*
X90197200Y-85422400D01*
X90097200Y-87182400D02*
X89897200Y-87182400D01*
X90097200Y-87482400D02*
X90097200Y-87182400D01*
X89997200Y-87482400D02*
X89997200Y-87182400D01*
X89897200Y-87482400D02*
X90097200Y-87482400D01*
X89897200Y-88282400D02*
X89287200Y-88282400D01*
X89287200Y-88282400D02*
X89287200Y-86332400D01*
X86287200Y-88682400D02*
X86287200Y-88882400D01*
X85787200Y-88682400D02*
X86287200Y-88682400D01*
X85787200Y-88782400D02*
X86287200Y-88782400D01*
X86287200Y-88882400D02*
X85787200Y-88882400D01*
X89287200Y-89282400D02*
X89897200Y-89282400D01*
X89287200Y-91232400D02*
X89287200Y-89282400D01*
X85787200Y-91232400D02*
X89287200Y-91232400D01*
X89897200Y-91842400D02*
X89897200Y-85722400D01*
X88587200Y-91842400D02*
X88587200Y-91232400D01*
X87287200Y-91842400D02*
X87287200Y-91232400D01*
X85177200Y-91842400D02*
X89897200Y-91842400D01*
%TO.C,J1*%
X119983000Y-68251000D02*
X118983000Y-68251000D01*
X119983000Y-68251000D02*
X119983000Y-67251000D01*
X116273000Y-67961000D02*
X119693000Y-67961000D01*
X119693000Y-67961000D02*
X119693000Y-55991000D01*
X117633000Y-67651000D02*
X117633000Y-67451000D01*
X118433000Y-67651000D02*
X117633000Y-67651000D01*
X116783000Y-67451000D02*
X116783000Y-61976000D01*
X117633000Y-67451000D02*
X116783000Y-67451000D01*
X118433000Y-67451000D02*
X118433000Y-67651000D01*
X119183000Y-67451000D02*
X118433000Y-67451000D01*
X119183000Y-61976000D02*
X119183000Y-67451000D01*
X119183000Y-61976000D02*
X119183000Y-56501000D01*
X116783000Y-56501000D02*
X116783000Y-61976000D01*
X117633000Y-56501000D02*
X116783000Y-56501000D01*
X118433000Y-56501000D02*
X118433000Y-56301000D01*
X119183000Y-56501000D02*
X118433000Y-56501000D01*
X117633000Y-56301000D02*
X117633000Y-56501000D01*
X118433000Y-56301000D02*
X117633000Y-56301000D01*
X116273000Y-55991000D02*
X116273000Y-67961000D01*
X119693000Y-55991000D02*
X116273000Y-55991000D01*
%TO.C,C1*%
X100857164Y-81428000D02*
X101072836Y-81428000D01*
X100857164Y-82148000D02*
X101072836Y-82148000D01*
%TO.C,R16*%
X96376258Y-84088500D02*
X95901742Y-84088500D01*
X96376258Y-83043500D02*
X95901742Y-83043500D01*
%TO.C,C2*%
X90219000Y-61100580D02*
X90219000Y-60819420D01*
X91239000Y-61100580D02*
X91239000Y-60819420D01*
%TO.C,C31*%
X95864000Y-64662164D02*
X95864000Y-64877836D01*
X95144000Y-64662164D02*
X95144000Y-64877836D01*
%TO.C,R3*%
X102109000Y-83463641D02*
X102109000Y-83156359D01*
X102869000Y-83463641D02*
X102869000Y-83156359D01*
%TO.C,U5*%
X97482000Y-65586000D02*
X97482000Y-64636000D01*
X98432000Y-53286000D02*
X97232000Y-53286000D01*
X98432000Y-65586000D02*
X97482000Y-65586000D01*
X108832000Y-53286000D02*
X109782000Y-53286000D01*
X108832000Y-65586000D02*
X109782000Y-65586000D01*
X109782000Y-53286000D02*
X109782000Y-54236000D01*
X109782000Y-65586000D02*
X109782000Y-64636000D01*
%TO.C,R15*%
X93330500Y-86216258D02*
X93330500Y-85741742D01*
X94375500Y-86216258D02*
X94375500Y-85741742D01*
%TO.C,C38*%
X93628800Y-71723364D02*
X93628800Y-71939036D01*
X92908800Y-71723364D02*
X92908800Y-71939036D01*
%TO.C,R11*%
X110997000Y-81507359D02*
X110997000Y-81814641D01*
X110237000Y-81507359D02*
X110237000Y-81814641D01*
%TO.C,R20*%
X116510800Y-84509041D02*
X116510800Y-84201759D01*
X117270800Y-84509041D02*
X117270800Y-84201759D01*
%TO.C,R19*%
X116510800Y-86541041D02*
X116510800Y-86233759D01*
X117270800Y-86541041D02*
X117270800Y-86233759D01*
%TO.C,R9*%
X106173000Y-83463641D02*
X106173000Y-83156359D01*
X106933000Y-83463641D02*
X106933000Y-83156359D01*
%TO.C,R1*%
X100077000Y-83463641D02*
X100077000Y-83156359D01*
X100837000Y-83463641D02*
X100837000Y-83156359D01*
%TO.C,U7*%
X87527000Y-73373000D02*
X90527000Y-73373000D01*
X89027000Y-70153000D02*
X90527000Y-70153000D01*
%TO.C,R25*%
X91517200Y-73534241D02*
X91517200Y-73226959D01*
X92277200Y-73534241D02*
X92277200Y-73226959D01*
%TO.C,C15*%
X95815036Y-71835600D02*
X95599364Y-71835600D01*
X95815036Y-71115600D02*
X95599364Y-71115600D01*
D10*
%TO.C,SW2*%
X92663500Y-83953200D02*
X86463500Y-83953200D01*
X92663500Y-83508200D02*
X92663500Y-83953200D01*
X92663500Y-80283200D02*
X92663500Y-80728200D01*
X92663500Y-80283200D02*
X86463500Y-80283200D01*
X86463500Y-83508200D02*
X86463500Y-83953200D01*
X86463500Y-80283200D02*
X86463500Y-80728200D01*
D14*
X94688500Y-82753200D02*
G75*
G03*
X94688500Y-82753200I-125000J0D01*
G01*
D15*
X92088500Y-83118200D02*
G75*
G03*
X92088500Y-83118200I-250000J0D01*
G01*
D12*
%TO.C,C20*%
X113009000Y-77616164D02*
X113009000Y-77831836D01*
X112289000Y-77616164D02*
X112289000Y-77831836D01*
%TO.C,C25*%
X111972164Y-70252000D02*
X112187836Y-70252000D01*
X111972164Y-70972000D02*
X112187836Y-70972000D01*
%TO.C,R2*%
X101093000Y-83463641D02*
X101093000Y-83156359D01*
X101853000Y-83463641D02*
X101853000Y-83156359D01*
%TO.C,C4*%
X102889164Y-81426000D02*
X103104836Y-81426000D01*
X102889164Y-82146000D02*
X103104836Y-82146000D01*
%TO.C,U6*%
X87790500Y-67712800D02*
X90790500Y-67712800D01*
X89290500Y-64492800D02*
X90790500Y-64492800D01*
%TO.C,C24*%
X95483000Y-73933164D02*
X95483000Y-74148836D01*
X94763000Y-73933164D02*
X94763000Y-74148836D01*
%TO.C,R6*%
X114707641Y-82168000D02*
X114400359Y-82168000D01*
X114707641Y-81408000D02*
X114400359Y-81408000D01*
%TO.C,C33*%
X112833036Y-85221400D02*
X112617364Y-85221400D01*
X112833036Y-84501400D02*
X112617364Y-84501400D01*
%TO.C,R14*%
X112114359Y-54992000D02*
X112421641Y-54992000D01*
X112114359Y-55752000D02*
X112421641Y-55752000D01*
%TO.C,L2*%
X86916800Y-57668379D02*
X86916800Y-57342821D01*
X87936800Y-57668379D02*
X87936800Y-57342821D01*
%TO.C,C23*%
X96499000Y-73933164D02*
X96499000Y-74148836D01*
X95779000Y-73933164D02*
X95779000Y-74148836D01*
%TO.C,RZ15*%
X111888000Y-59716641D02*
X111888000Y-59409359D01*
X112648000Y-59716641D02*
X112648000Y-59409359D01*
%TO.C,J9*%
X110488000Y-86384000D02*
X110488000Y-87824000D01*
X111058000Y-87824000D02*
X110488000Y-87824000D01*
X111058000Y-87824000D02*
X111058000Y-93024000D01*
X108968000Y-87824000D02*
X107948000Y-87824000D01*
X106428000Y-87824000D02*
X105408000Y-87824000D01*
X103888000Y-87824000D02*
X102868000Y-87824000D01*
X101348000Y-87824000D02*
X100328000Y-87824000D01*
X98808000Y-87824000D02*
X97788000Y-87824000D01*
X96268000Y-87824000D02*
X95698000Y-87824000D01*
X95698000Y-87824000D02*
X95698000Y-93024000D01*
X111058000Y-93024000D02*
X110488000Y-93024000D01*
X108968000Y-93024000D02*
X107948000Y-93024000D01*
X106428000Y-93024000D02*
X105408000Y-93024000D01*
X103888000Y-93024000D02*
X102868000Y-93024000D01*
X101348000Y-93024000D02*
X100328000Y-93024000D01*
X98808000Y-93024000D02*
X97788000Y-93024000D01*
X96268000Y-93024000D02*
X95698000Y-93024000D01*
D13*
%TO.C,D4*%
X95554000Y-80929300D02*
G75*
G03*
X95554000Y-80929300I-50000J0D01*
G01*
D12*
%TO.C,C29*%
X113898000Y-57169164D02*
X113898000Y-57384836D01*
X113178000Y-57169164D02*
X113178000Y-57384836D01*
%TO.C,R5*%
X114707641Y-83311000D02*
X114400359Y-83311000D01*
X114707641Y-82551000D02*
X114400359Y-82551000D01*
%TO.C,R7*%
X104141000Y-83463641D02*
X104141000Y-83156359D01*
X104901000Y-83463641D02*
X104901000Y-83156359D01*
%TO.C,C28*%
X112120000Y-57169164D02*
X112120000Y-57384836D01*
X111400000Y-57169164D02*
X111400000Y-57384836D01*
%TO.C,C21*%
X111993000Y-77616164D02*
X111993000Y-77831836D01*
X111273000Y-77616164D02*
X111273000Y-77831836D01*
%TO.C,Q1*%
X92710000Y-88102000D02*
X91035000Y-88102000D01*
X92710000Y-88102000D02*
X93360000Y-88102000D01*
X92710000Y-91222000D02*
X92060000Y-91222000D01*
X92710000Y-91222000D02*
X93360000Y-91222000D01*
%TO.C,C27*%
X112160164Y-53869000D02*
X112375836Y-53869000D01*
X112160164Y-54589000D02*
X112375836Y-54589000D01*
%TO.C,R8*%
X105157000Y-83463641D02*
X105157000Y-83156359D01*
X105917000Y-83463641D02*
X105917000Y-83156359D01*
D13*
%TO.C,D3*%
X96646200Y-80919800D02*
G75*
G03*
X96646200Y-80919800I-50000J0D01*
G01*
D12*
%TO.C,U4*%
X98522000Y-79405000D02*
X99472000Y-79405000D01*
X99472000Y-79405000D02*
X99472000Y-80695000D01*
X108742000Y-79405000D02*
X107792000Y-79405000D01*
X98522000Y-78455000D02*
X98522000Y-79405000D01*
X108742000Y-78455000D02*
X108742000Y-79405000D01*
X98522000Y-70135000D02*
X98522000Y-69185000D01*
X108742000Y-70135000D02*
X108742000Y-69185000D01*
X98522000Y-69185000D02*
X99472000Y-69185000D01*
X108742000Y-69185000D02*
X107792000Y-69185000D01*
%TO.C,Q2*%
X92710000Y-92354000D02*
X91035000Y-92354000D01*
X92710000Y-92354000D02*
X93360000Y-92354000D01*
X92710000Y-95474000D02*
X92060000Y-95474000D01*
X92710000Y-95474000D02*
X93360000Y-95474000D01*
%TO.C,C32*%
X96279580Y-82425000D02*
X95998420Y-82425000D01*
X96279580Y-81405000D02*
X95998420Y-81405000D01*
%TO.C,R27*%
X92927942Y-59675500D02*
X93402458Y-59675500D01*
X92927942Y-60720500D02*
X93402458Y-60720500D01*
%TO.C,C13*%
X87285200Y-75944636D02*
X87285200Y-75728964D01*
X88005200Y-75944636D02*
X88005200Y-75728964D01*
%TO.C,R13*%
X102843359Y-51436000D02*
X103150641Y-51436000D01*
X102843359Y-52196000D02*
X103150641Y-52196000D01*
%TO.C,U3*%
X88304200Y-74626800D02*
X90304200Y-74626800D01*
X90304200Y-76866800D02*
X89304200Y-76866800D01*
%TO.C,C39*%
X85746000Y-65944636D02*
X85746000Y-65728964D01*
X86466000Y-65944636D02*
X86466000Y-65728964D01*
%TO.C,C17*%
X95610000Y-69869164D02*
X95610000Y-70084836D01*
X94890000Y-69869164D02*
X94890000Y-70084836D01*
%TO.C,R26*%
X85726000Y-74042241D02*
X85726000Y-73734959D01*
X86486000Y-74042241D02*
X86486000Y-73734959D01*
D13*
%TO.C,D2*%
X94004600Y-75786300D02*
G75*
G03*
X94004600Y-75786300I-50000J0D01*
G01*
D12*
%TO.C,RZ2*%
X92403959Y-68022200D02*
X92711241Y-68022200D01*
X92403959Y-68782200D02*
X92711241Y-68782200D01*
%TO.C,R4*%
X103125000Y-83463641D02*
X103125000Y-83156359D01*
X103885000Y-83463641D02*
X103885000Y-83156359D01*
%TO.C,C26*%
X112580748Y-71401000D02*
X113103252Y-71401000D01*
X112580748Y-72871000D02*
X113103252Y-72871000D01*
%TO.C,C22*%
X111972164Y-73300000D02*
X112187836Y-73300000D01*
X111972164Y-74020000D02*
X112187836Y-74020000D01*
%TO.C,C16*%
X98024836Y-68305000D02*
X97809164Y-68305000D01*
X98024836Y-67585000D02*
X97809164Y-67585000D01*
%TO.C,C11*%
X91217636Y-78033200D02*
X91001964Y-78033200D01*
X91217636Y-77313200D02*
X91001964Y-77313200D01*
D13*
%TO.C,D1*%
X92912400Y-75786300D02*
G75*
G03*
X92912400Y-75786300I-50000J0D01*
G01*
D12*
%TO.C,R17*%
X114603559Y-84481400D02*
X114910841Y-84481400D01*
X114603559Y-85241400D02*
X114910841Y-85241400D01*
%TO.C,R22*%
X88139241Y-68985400D02*
X87831959Y-68985400D01*
X88139241Y-68225400D02*
X87831959Y-68225400D01*
%TO.C,C12*%
X93857400Y-78962364D02*
X93857400Y-79178036D01*
X93137400Y-78962364D02*
X93137400Y-79178036D01*
%TO.C,R12*%
X109981000Y-81507359D02*
X109981000Y-81814641D01*
X109221000Y-81507359D02*
X109221000Y-81814641D01*
%TO.C,C19*%
X112948000Y-75330164D02*
X112948000Y-75545836D01*
X112228000Y-75330164D02*
X112228000Y-75545836D01*
%TO.C,J7*%
X119983000Y-81332000D02*
X118983000Y-81332000D01*
X119983000Y-81332000D02*
X119983000Y-80332000D01*
X116273000Y-81042000D02*
X119693000Y-81042000D01*
X119693000Y-81042000D02*
X119693000Y-69072000D01*
X117633000Y-80732000D02*
X117633000Y-80532000D01*
X118433000Y-80732000D02*
X117633000Y-80732000D01*
X116783000Y-80532000D02*
X116783000Y-75057000D01*
X117633000Y-80532000D02*
X116783000Y-80532000D01*
X118433000Y-80532000D02*
X118433000Y-80732000D01*
X119183000Y-80532000D02*
X118433000Y-80532000D01*
X119183000Y-75057000D02*
X119183000Y-80532000D01*
X119183000Y-75057000D02*
X119183000Y-69582000D01*
X116783000Y-69582000D02*
X116783000Y-75057000D01*
X117633000Y-69582000D02*
X116783000Y-69582000D01*
X118433000Y-69582000D02*
X118433000Y-69382000D01*
X119183000Y-69582000D02*
X118433000Y-69582000D01*
X117633000Y-69382000D02*
X117633000Y-69582000D01*
X118433000Y-69382000D02*
X117633000Y-69382000D01*
X116273000Y-69072000D02*
X116273000Y-81042000D01*
X119693000Y-69072000D02*
X116273000Y-69072000D01*
%TO.C,C8*%
X85746000Y-71989836D02*
X85746000Y-71774164D01*
X86466000Y-71989836D02*
X86466000Y-71774164D01*
%TD*%
%LPC*%
D16*
%TO.C,RZ1*%
X93698600Y-66446400D03*
X94718600Y-66446400D03*
%TD*%
D17*
%TO.C,R18*%
X115267200Y-85902800D03*
X114247200Y-85902800D03*
%TD*%
D18*
%TO.C,R24*%
X86106000Y-68480400D03*
X86106000Y-67460400D03*
%TD*%
D19*
%TO.C,D1*%
X108585000Y-81557000D03*
X108585000Y-82527000D03*
%TD*%
D20*
%TO.C,AE1*%
X87401400Y-55069000D03*
X87401400Y-52119000D03*
%TD*%
D21*
%TO.C,C18*%
X111572000Y-74958000D03*
X111572000Y-75918000D03*
%TD*%
%TO.C,C7*%
X92456000Y-65356800D03*
X92456000Y-66316800D03*
%TD*%
D17*
%TO.C,R23*%
X90934000Y-68605400D03*
X89914000Y-68605400D03*
%TD*%
D22*
%TO.C,J11*%
X94996000Y-55880000D03*
%TD*%
D23*
%TO.C,C5*%
X104549000Y-81786000D03*
X105509000Y-81786000D03*
%TD*%
D21*
%TO.C,C14*%
X96012000Y-76736000D03*
X96012000Y-77696000D03*
%TD*%
D24*
%TO.C,C3*%
X95555000Y-61735000D03*
X95555000Y-60185000D03*
%TD*%
D23*
%TO.C,C6*%
X106454000Y-81788000D03*
X107414000Y-81788000D03*
%TD*%
D25*
%TO.C,C34*%
X113205200Y-85902800D03*
X112245200Y-85902800D03*
%TD*%
D18*
%TO.C,R21*%
X92075000Y-70487000D03*
X92075000Y-69467000D03*
%TD*%
D22*
%TO.C,J8*%
X94488000Y-54610000D03*
%TD*%
D21*
%TO.C,C30*%
X94488000Y-64290000D03*
X94488000Y-65250000D03*
%TD*%
D18*
%TO.C,R10*%
X107569000Y-83820000D03*
X107569000Y-82800000D03*
%TD*%
D26*
%TO.C,SW1*%
X114833400Y-88011000D03*
X113563400Y-88011000D03*
X113563400Y-95631000D03*
X114833400Y-95631000D03*
%TD*%
D27*
%TO.C,J2*%
X88087200Y-87782400D03*
D28*
X88087200Y-89782400D03*
%TD*%
D29*
%TO.C,J1*%
X118433000Y-66351000D03*
D30*
X118433000Y-65101000D03*
X118433000Y-63851000D03*
X118433000Y-62601000D03*
X118433000Y-61351000D03*
X118433000Y-60101000D03*
X118433000Y-58851000D03*
X118433000Y-57601000D03*
%TD*%
D23*
%TO.C,C1*%
X100485000Y-81788000D03*
X101445000Y-81788000D03*
%TD*%
D22*
%TO.C,TP3*%
X111379000Y-68453000D03*
%TD*%
D31*
%TO.C,R16*%
X96964000Y-83566000D03*
X95314000Y-83566000D03*
%TD*%
D24*
%TO.C,C2*%
X90729000Y-61735000D03*
X90729000Y-60185000D03*
%TD*%
D21*
%TO.C,C31*%
X95504000Y-64290000D03*
X95504000Y-65250000D03*
%TD*%
D18*
%TO.C,R3*%
X102489000Y-83820000D03*
X102489000Y-82800000D03*
%TD*%
D22*
%TO.C,J20*%
X96266000Y-67945000D03*
%TD*%
D32*
%TO.C,U5*%
X97732000Y-54636000D03*
X97732000Y-55036000D03*
X97732000Y-55436000D03*
X97732000Y-55836000D03*
X97732000Y-56236000D03*
X97732000Y-56636000D03*
X97732000Y-57036000D03*
X97732000Y-57436000D03*
X97732000Y-57836000D03*
X97732000Y-58236000D03*
X97732000Y-58636000D03*
X97732000Y-59036000D03*
X97732000Y-59436000D03*
X97732000Y-59836000D03*
X97732000Y-60236000D03*
X97732000Y-60636000D03*
X97732000Y-61036000D03*
X97732000Y-61436000D03*
X97732000Y-61836000D03*
X97732000Y-62236000D03*
X97732000Y-62636000D03*
X97732000Y-63036000D03*
X97732000Y-63436000D03*
X97732000Y-63836000D03*
X97732000Y-64236000D03*
D33*
X98832000Y-65336000D03*
X99232000Y-65336000D03*
X99632000Y-65336000D03*
X100032000Y-65336000D03*
X100432000Y-65336000D03*
X100832000Y-65336000D03*
X101232000Y-65336000D03*
X101632000Y-65336000D03*
X102032000Y-65336000D03*
X102432000Y-65336000D03*
X102832000Y-65336000D03*
X103232000Y-65336000D03*
X103632000Y-65336000D03*
X104032000Y-65336000D03*
X104432000Y-65336000D03*
X104832000Y-65336000D03*
X105232000Y-65336000D03*
X105632000Y-65336000D03*
X106032000Y-65336000D03*
X106432000Y-65336000D03*
X106832000Y-65336000D03*
X107232000Y-65336000D03*
X107632000Y-65336000D03*
X108032000Y-65336000D03*
X108432000Y-65336000D03*
D32*
X109532000Y-64236000D03*
X109532000Y-63836000D03*
X109532000Y-63436000D03*
X109532000Y-63036000D03*
X109532000Y-62636000D03*
X109532000Y-62236000D03*
X109532000Y-61836000D03*
X109532000Y-61436000D03*
X109532000Y-61036000D03*
X109532000Y-60636000D03*
X109532000Y-60236000D03*
X109532000Y-59836000D03*
X109532000Y-59436000D03*
X109532000Y-59036000D03*
X109532000Y-58636000D03*
X109532000Y-58236000D03*
X109532000Y-57836000D03*
X109532000Y-57436000D03*
X109532000Y-57036000D03*
X109532000Y-56636000D03*
X109532000Y-56236000D03*
X109532000Y-55836000D03*
X109532000Y-55436000D03*
X109532000Y-55036000D03*
X109532000Y-54636000D03*
D33*
X108432000Y-53536000D03*
X108032000Y-53536000D03*
X107632000Y-53536000D03*
X107232000Y-53536000D03*
X106832000Y-53536000D03*
X106432000Y-53536000D03*
X106032000Y-53536000D03*
X105632000Y-53536000D03*
X105232000Y-53536000D03*
X104832000Y-53536000D03*
X104432000Y-53536000D03*
X104032000Y-53536000D03*
X103632000Y-53536000D03*
X103232000Y-53536000D03*
X102832000Y-53536000D03*
X102432000Y-53536000D03*
X102032000Y-53536000D03*
X101632000Y-53536000D03*
X101232000Y-53536000D03*
X100832000Y-53536000D03*
X100432000Y-53536000D03*
X100032000Y-53536000D03*
X99632000Y-53536000D03*
X99232000Y-53536000D03*
X98832000Y-53536000D03*
D34*
X99650750Y-55454750D03*
D35*
X99650750Y-55454750D03*
D34*
X99650750Y-56592250D03*
D35*
X99650750Y-56592250D03*
D34*
X99650750Y-57729750D03*
D35*
X99650750Y-57729750D03*
D34*
X99650750Y-58867250D03*
D35*
X99650750Y-58867250D03*
D34*
X99650750Y-60004750D03*
D35*
X99650750Y-60004750D03*
D34*
X99650750Y-61142250D03*
D35*
X99650750Y-61142250D03*
D34*
X99650750Y-62279750D03*
D35*
X99650750Y-62279750D03*
D34*
X99650750Y-63417250D03*
D35*
X99650750Y-63417250D03*
D34*
X100788250Y-55454750D03*
D35*
X100788250Y-55454750D03*
D34*
X100788250Y-56592250D03*
D35*
X100788250Y-56592250D03*
D34*
X100788250Y-57729750D03*
D35*
X100788250Y-57729750D03*
D34*
X100788250Y-58867250D03*
D35*
X100788250Y-58867250D03*
D34*
X100788250Y-60004750D03*
D35*
X100788250Y-60004750D03*
D34*
X100788250Y-61142250D03*
D35*
X100788250Y-61142250D03*
D34*
X100788250Y-62279750D03*
D35*
X100788250Y-62279750D03*
D34*
X100788250Y-63417250D03*
D35*
X100788250Y-63417250D03*
D34*
X101925750Y-55454750D03*
D35*
X101925750Y-55454750D03*
D34*
X101925750Y-56592250D03*
D35*
X101925750Y-56592250D03*
D34*
X101925750Y-57729750D03*
D35*
X101925750Y-57729750D03*
D34*
X101925750Y-58867250D03*
D35*
X101925750Y-58867250D03*
D34*
X101925750Y-60004750D03*
D35*
X101925750Y-60004750D03*
D34*
X101925750Y-61142250D03*
D35*
X101925750Y-61142250D03*
D34*
X101925750Y-62279750D03*
D35*
X101925750Y-62279750D03*
D34*
X101925750Y-63417250D03*
D35*
X101925750Y-63417250D03*
D34*
X103063250Y-55454750D03*
D35*
X103063250Y-55454750D03*
D34*
X103063250Y-56592250D03*
D35*
X103063250Y-56592250D03*
D34*
X103063250Y-57729750D03*
D35*
X103063250Y-57729750D03*
D34*
X103063250Y-58867250D03*
D35*
X103063250Y-58867250D03*
D34*
X103063250Y-60004750D03*
D35*
X103063250Y-60004750D03*
D34*
X103063250Y-61142250D03*
D35*
X103063250Y-61142250D03*
D34*
X103063250Y-62279750D03*
D35*
X103063250Y-62279750D03*
D34*
X103063250Y-63417250D03*
D35*
X103063250Y-63417250D03*
D34*
X104200750Y-55454750D03*
D35*
X104200750Y-55454750D03*
D34*
X104200750Y-56592250D03*
D35*
X104200750Y-56592250D03*
D34*
X104200750Y-57729750D03*
D35*
X104200750Y-57729750D03*
D34*
X104200750Y-58867250D03*
D35*
X104200750Y-58867250D03*
D34*
X104200750Y-60004750D03*
D35*
X104200750Y-60004750D03*
D34*
X104200750Y-61142250D03*
D35*
X104200750Y-61142250D03*
D34*
X104200750Y-62279750D03*
D35*
X104200750Y-62279750D03*
D34*
X104200750Y-63417250D03*
D35*
X104200750Y-63417250D03*
D34*
X105338250Y-55454750D03*
D35*
X105338250Y-55454750D03*
D34*
X105338250Y-56592250D03*
D35*
X105338250Y-56592250D03*
D34*
X105338250Y-57729750D03*
D35*
X105338250Y-57729750D03*
D34*
X105338250Y-58867250D03*
D35*
X105338250Y-58867250D03*
D34*
X105338250Y-60004750D03*
D35*
X105338250Y-60004750D03*
D34*
X105338250Y-61142250D03*
D35*
X105338250Y-61142250D03*
D34*
X105338250Y-62279750D03*
D35*
X105338250Y-62279750D03*
D34*
X105338250Y-63417250D03*
D35*
X105338250Y-63417250D03*
D34*
X106475750Y-55454750D03*
D35*
X106475750Y-55454750D03*
D34*
X106475750Y-56592250D03*
D35*
X106475750Y-56592250D03*
D34*
X106475750Y-57729750D03*
D35*
X106475750Y-57729750D03*
D34*
X106475750Y-58867250D03*
D35*
X106475750Y-58867250D03*
D34*
X106475750Y-60004750D03*
D35*
X106475750Y-60004750D03*
D34*
X106475750Y-61142250D03*
D35*
X106475750Y-61142250D03*
D34*
X106475750Y-62279750D03*
D35*
X106475750Y-62279750D03*
D34*
X106475750Y-63417250D03*
D35*
X106475750Y-63417250D03*
D34*
X107613250Y-55454750D03*
D35*
X107613250Y-55454750D03*
D34*
X107613250Y-56592250D03*
D35*
X107613250Y-56592250D03*
D34*
X107613250Y-57729750D03*
D35*
X107613250Y-57729750D03*
D34*
X107613250Y-58867250D03*
D35*
X107613250Y-58867250D03*
D34*
X107613250Y-60004750D03*
D35*
X107613250Y-60004750D03*
D34*
X107613250Y-61142250D03*
D35*
X107613250Y-61142250D03*
D34*
X107613250Y-62279750D03*
D35*
X107613250Y-62279750D03*
D34*
X107613250Y-63417250D03*
D35*
X107613250Y-63417250D03*
%TD*%
D36*
%TO.C,R15*%
X93853000Y-86804000D03*
X93853000Y-85154000D03*
%TD*%
D21*
%TO.C,C38*%
X93268800Y-71351200D03*
X93268800Y-72311200D03*
%TD*%
D37*
%TO.C,R11*%
X110617000Y-81151000D03*
X110617000Y-82171000D03*
%TD*%
D18*
%TO.C,R20*%
X116890800Y-84865400D03*
X116890800Y-83845400D03*
%TD*%
%TO.C,R19*%
X116890800Y-86897400D03*
X116890800Y-85877400D03*
%TD*%
D22*
%TO.C,J4*%
X98171000Y-52070000D03*
%TD*%
D18*
%TO.C,R9*%
X106553000Y-83820000D03*
X106553000Y-82800000D03*
%TD*%
%TO.C,R1*%
X100457000Y-83820000D03*
X100457000Y-82800000D03*
%TD*%
D38*
%TO.C,U7*%
X87639500Y-71013000D03*
X87639500Y-71513000D03*
X87639500Y-72013000D03*
X87639500Y-72513000D03*
X90414500Y-72513000D03*
X90414500Y-72013000D03*
X90414500Y-71513000D03*
X90414500Y-71013000D03*
D39*
X89027000Y-71763000D03*
%TD*%
D18*
%TO.C,R25*%
X91897200Y-73890600D03*
X91897200Y-72870600D03*
%TD*%
D25*
%TO.C,C15*%
X96187200Y-71475600D03*
X95227200Y-71475600D03*
%TD*%
D40*
%TO.C,SW2*%
X93373500Y-82753200D03*
X93373500Y-81483200D03*
X85753500Y-81483200D03*
X85753500Y-82753200D03*
%TD*%
D21*
%TO.C,C20*%
X112649000Y-77244000D03*
X112649000Y-78204000D03*
%TD*%
D23*
%TO.C,C25*%
X111600000Y-70612000D03*
X112560000Y-70612000D03*
%TD*%
D18*
%TO.C,R2*%
X101473000Y-83820000D03*
X101473000Y-82800000D03*
%TD*%
D22*
%TO.C,TP2*%
X111760000Y-82169000D03*
%TD*%
%TO.C,J5*%
X99695000Y-51943000D03*
%TD*%
D23*
%TO.C,C4*%
X102517000Y-81786000D03*
X103477000Y-81786000D03*
%TD*%
D38*
%TO.C,U6*%
X87903000Y-65352800D03*
X87903000Y-65852800D03*
X87903000Y-66352800D03*
X87903000Y-66852800D03*
X90678000Y-66852800D03*
X90678000Y-66352800D03*
X90678000Y-65852800D03*
X90678000Y-65352800D03*
D39*
X89290500Y-66102800D03*
%TD*%
D21*
%TO.C,C24*%
X95123000Y-73561000D03*
X95123000Y-74521000D03*
%TD*%
D17*
%TO.C,R6*%
X115064000Y-81788000D03*
X114044000Y-81788000D03*
%TD*%
D25*
%TO.C,C33*%
X113205200Y-84861400D03*
X112245200Y-84861400D03*
%TD*%
D16*
%TO.C,R14*%
X111758000Y-55372000D03*
X112778000Y-55372000D03*
%TD*%
D41*
%TO.C,L2*%
X87426800Y-58293100D03*
X87426800Y-56718100D03*
%TD*%
D21*
%TO.C,C23*%
X96139000Y-73561000D03*
X96139000Y-74521000D03*
%TD*%
D18*
%TO.C,RZ15*%
X112268000Y-60073000D03*
X112268000Y-59053000D03*
%TD*%
D42*
%TO.C,J9*%
X109728000Y-87899000D03*
X109728000Y-92949000D03*
X107188000Y-87899000D03*
X107188000Y-92949000D03*
X104648000Y-87899000D03*
X104648000Y-92949000D03*
X102108000Y-87899000D03*
X102108000Y-92949000D03*
X99568000Y-87899000D03*
X99568000Y-92949000D03*
X97028000Y-87899000D03*
X97028000Y-92949000D03*
%TD*%
D43*
%TO.C,D4*%
X95504000Y-80324300D03*
X95504000Y-79354300D03*
%TD*%
D21*
%TO.C,C29*%
X113538000Y-56797000D03*
X113538000Y-57757000D03*
%TD*%
D17*
%TO.C,R5*%
X115064000Y-82931000D03*
X114044000Y-82931000D03*
%TD*%
D18*
%TO.C,R7*%
X104521000Y-83820000D03*
X104521000Y-82800000D03*
%TD*%
D21*
%TO.C,C28*%
X111760000Y-56797000D03*
X111760000Y-57757000D03*
%TD*%
D22*
%TO.C,J6*%
X101092000Y-52070000D03*
%TD*%
D21*
%TO.C,C21*%
X111633000Y-77244000D03*
X111633000Y-78204000D03*
%TD*%
D44*
%TO.C,Q1*%
X91772500Y-88712000D03*
X91772500Y-90612000D03*
X93647500Y-89662000D03*
%TD*%
D23*
%TO.C,C27*%
X111788000Y-54229000D03*
X112748000Y-54229000D03*
%TD*%
D18*
%TO.C,R8*%
X105537000Y-83820000D03*
X105537000Y-82800000D03*
%TD*%
D43*
%TO.C,D3*%
X96596200Y-80314800D03*
X96596200Y-79344800D03*
%TD*%
D45*
%TO.C,U4*%
X99882000Y-79957500D03*
X100382000Y-79957500D03*
X100882000Y-79957500D03*
X101382000Y-79957500D03*
X101882000Y-79957500D03*
X102382000Y-79957500D03*
X102882000Y-79957500D03*
X103382000Y-79957500D03*
X103882000Y-79957500D03*
X104382000Y-79957500D03*
X104882000Y-79957500D03*
X105382000Y-79957500D03*
X105882000Y-79957500D03*
X106382000Y-79957500D03*
X106882000Y-79957500D03*
X107382000Y-79957500D03*
D46*
X109294500Y-78045000D03*
X109294500Y-77545000D03*
X109294500Y-77045000D03*
X109294500Y-76545000D03*
X109294500Y-76045000D03*
X109294500Y-75545000D03*
X109294500Y-75045000D03*
X109294500Y-74545000D03*
X109294500Y-74045000D03*
X109294500Y-73545000D03*
X109294500Y-73045000D03*
X109294500Y-72545000D03*
X109294500Y-72045000D03*
X109294500Y-71545000D03*
X109294500Y-71045000D03*
X109294500Y-70545000D03*
D45*
X107382000Y-68632500D03*
X106882000Y-68632500D03*
X106382000Y-68632500D03*
X105882000Y-68632500D03*
X105382000Y-68632500D03*
X104882000Y-68632500D03*
X104382000Y-68632500D03*
X103882000Y-68632500D03*
X103382000Y-68632500D03*
X102882000Y-68632500D03*
X102382000Y-68632500D03*
X101882000Y-68632500D03*
X101382000Y-68632500D03*
X100882000Y-68632500D03*
X100382000Y-68632500D03*
X99882000Y-68632500D03*
D46*
X97969500Y-70545000D03*
X97969500Y-71045000D03*
X97969500Y-71545000D03*
X97969500Y-72045000D03*
X97969500Y-72545000D03*
X97969500Y-73045000D03*
X97969500Y-73545000D03*
X97969500Y-74045000D03*
X97969500Y-74545000D03*
X97969500Y-75045000D03*
X97969500Y-75545000D03*
X97969500Y-76045000D03*
X97969500Y-76545000D03*
X97969500Y-77045000D03*
X97969500Y-77545000D03*
X97969500Y-78045000D03*
%TD*%
D44*
%TO.C,Q2*%
X91772500Y-92964000D03*
X91772500Y-94864000D03*
X93647500Y-93914000D03*
%TD*%
D47*
%TO.C,C32*%
X96914000Y-81915000D03*
X95364000Y-81915000D03*
%TD*%
D48*
%TO.C,R27*%
X92340200Y-60198000D03*
X93990200Y-60198000D03*
%TD*%
D49*
%TO.C,C13*%
X87645200Y-76316800D03*
X87645200Y-75356800D03*
%TD*%
D16*
%TO.C,R13*%
X102487000Y-51816000D03*
X103507000Y-51816000D03*
%TD*%
D22*
%TO.C,TP4*%
X117576600Y-88519000D03*
%TD*%
D50*
%TO.C,U3*%
X88854200Y-74996800D03*
X88854200Y-75496800D03*
X88854200Y-75996800D03*
X88854200Y-76496800D03*
X90754200Y-76496800D03*
X90754200Y-75996800D03*
X90754200Y-75496800D03*
X90754200Y-74996800D03*
D51*
X89804200Y-75746800D03*
%TD*%
D49*
%TO.C,C39*%
X86106000Y-66316800D03*
X86106000Y-65356800D03*
%TD*%
D21*
%TO.C,C17*%
X95250000Y-69497000D03*
X95250000Y-70457000D03*
%TD*%
D22*
%TO.C,J16*%
X112014000Y-61722000D03*
%TD*%
D18*
%TO.C,R26*%
X86106000Y-74398600D03*
X86106000Y-73378600D03*
%TD*%
D19*
%TO.C,D2*%
X93954600Y-76391300D03*
X93954600Y-77361300D03*
%TD*%
D16*
%TO.C,RZ2*%
X92047600Y-68402200D03*
X93067600Y-68402200D03*
%TD*%
D18*
%TO.C,R4*%
X103505000Y-83820000D03*
X103505000Y-82800000D03*
%TD*%
D52*
%TO.C,C26*%
X111892000Y-72136000D03*
X113792000Y-72136000D03*
%TD*%
D23*
%TO.C,C22*%
X111600000Y-73660000D03*
X112560000Y-73660000D03*
%TD*%
D25*
%TO.C,C16*%
X98397000Y-67945000D03*
X97437000Y-67945000D03*
%TD*%
%TO.C,C11*%
X91589800Y-77673200D03*
X90629800Y-77673200D03*
%TD*%
D19*
%TO.C,D1*%
X92862400Y-76391300D03*
X92862400Y-77361300D03*
%TD*%
D16*
%TO.C,R17*%
X114247200Y-84861400D03*
X115267200Y-84861400D03*
%TD*%
D17*
%TO.C,R22*%
X88495600Y-68605400D03*
X87475600Y-68605400D03*
%TD*%
D21*
%TO.C,C12*%
X93497400Y-78590200D03*
X93497400Y-79550200D03*
%TD*%
D37*
%TO.C,R12*%
X109601000Y-81151000D03*
X109601000Y-82171000D03*
%TD*%
D21*
%TO.C,C19*%
X112588000Y-74958000D03*
X112588000Y-75918000D03*
%TD*%
D29*
%TO.C,J7*%
X118433000Y-79432000D03*
D30*
X118433000Y-78182000D03*
X118433000Y-76932000D03*
X118433000Y-75682000D03*
X118433000Y-74432000D03*
X118433000Y-73182000D03*
X118433000Y-71932000D03*
X118433000Y-70682000D03*
%TD*%
D49*
%TO.C,C8*%
X86106000Y-72362000D03*
X86106000Y-71402000D03*
%TD*%
D22*
%TO.C,TP1*%
X111760000Y-83439000D03*
%TD*%
%LPD*%
M02*
