G04 #@! TF.GenerationSoftware,KiCad,Pcbnew,(5.1.6)-1*
G04 #@! TF.CreationDate,2021-11-23T16:21:27-08:00*
G04 #@! TF.ProjectId,scum3c-devboard,7363756d-3363-42d6-9465-76626f617264,rev?*
G04 #@! TF.SameCoordinates,Original*
G04 #@! TF.FileFunction,Soldermask,Top*
G04 #@! TF.FilePolarity,Negative*
%FSLAX46Y46*%
G04 Gerber Fmt 4.6, Leading zero omitted, Abs format (unit mm)*
G04 Created by KiCad (PCBNEW (5.1.6)-1) date 2021-11-23 16:21:27*
%MOMM*%
%LPD*%
G01*
G04 APERTURE LIST*
%ADD10O,1.700000X1.700000*%
%ADD11R,1.700000X1.700000*%
%ADD12R,1.900000X0.850000*%
%ADD13C,2.400000*%
%ADD14C,1.574800*%
%ADD15R,0.500000X0.300000*%
%ADD16C,0.762000*%
%ADD17C,0.568750*%
%ADD18R,1.137500X1.137500*%
%ADD19O,0.200000X0.800000*%
%ADD20O,0.800000X0.200000*%
G04 APERTURE END LIST*
D10*
G04 #@! TO.C,J3*
X114300000Y-80264000D03*
X114300000Y-77724000D03*
X114300000Y-75184000D03*
X114300000Y-72644000D03*
X114300000Y-70104000D03*
X114300000Y-67564000D03*
X114300000Y-65024000D03*
X114300000Y-62484000D03*
X114300000Y-59944000D03*
D11*
X114300000Y-57404000D03*
G04 #@! TD*
G04 #@! TO.C,C_1.8_OUT1*
G36*
G01*
X81321000Y-61803500D02*
X81321000Y-62148500D01*
G75*
G02*
X81173500Y-62296000I-147500J0D01*
G01*
X80878500Y-62296000D01*
G75*
G02*
X80731000Y-62148500I0J147500D01*
G01*
X80731000Y-61803500D01*
G75*
G02*
X80878500Y-61656000I147500J0D01*
G01*
X81173500Y-61656000D01*
G75*
G02*
X81321000Y-61803500I0J-147500D01*
G01*
G37*
G36*
G01*
X82291000Y-61803500D02*
X82291000Y-62148500D01*
G75*
G02*
X82143500Y-62296000I-147500J0D01*
G01*
X81848500Y-62296000D01*
G75*
G02*
X81701000Y-62148500I0J147500D01*
G01*
X81701000Y-61803500D01*
G75*
G02*
X81848500Y-61656000I147500J0D01*
G01*
X82143500Y-61656000D01*
G75*
G02*
X82291000Y-61803500I0J-147500D01*
G01*
G37*
G04 #@! TD*
D12*
G04 #@! TO.C,L2*
X87884000Y-60018000D03*
X87884000Y-61468000D03*
G04 #@! TD*
G04 #@! TO.C,L1*
X79248000Y-64008000D03*
X79248000Y-62558000D03*
G04 #@! TD*
G04 #@! TO.C,C_1.1_OUT1*
G36*
G01*
X85811000Y-62148500D02*
X85811000Y-61803500D01*
G75*
G02*
X85958500Y-61656000I147500J0D01*
G01*
X86253500Y-61656000D01*
G75*
G02*
X86401000Y-61803500I0J-147500D01*
G01*
X86401000Y-62148500D01*
G75*
G02*
X86253500Y-62296000I-147500J0D01*
G01*
X85958500Y-62296000D01*
G75*
G02*
X85811000Y-62148500I0J147500D01*
G01*
G37*
G36*
G01*
X84841000Y-62148500D02*
X84841000Y-61803500D01*
G75*
G02*
X84988500Y-61656000I147500J0D01*
G01*
X85283500Y-61656000D01*
G75*
G02*
X85431000Y-61803500I0J-147500D01*
G01*
X85431000Y-62148500D01*
G75*
G02*
X85283500Y-62296000I-147500J0D01*
G01*
X84988500Y-62296000D01*
G75*
G02*
X84841000Y-62148500I0J147500D01*
G01*
G37*
G04 #@! TD*
D13*
G04 #@! TO.C,J4*
X82804000Y-69469000D03*
X80264000Y-66929000D03*
X85344000Y-66929000D03*
X80264000Y-72009000D03*
X85344000Y-72009000D03*
G04 #@! TD*
D14*
G04 #@! TO.C,B1*
X108889800Y-67310000D03*
X88392000Y-67310000D03*
G04 #@! TD*
D11*
G04 #@! TO.C,J1*
X84455000Y-57023000D03*
D10*
X84455000Y-54483000D03*
X86995000Y-57023000D03*
X86995000Y-54483000D03*
X89535000Y-57023000D03*
X89535000Y-54483000D03*
X92075000Y-57023000D03*
X92075000Y-54483000D03*
X94615000Y-57023000D03*
X94615000Y-54483000D03*
X97155000Y-57023000D03*
X97155000Y-54483000D03*
X99695000Y-57023000D03*
X99695000Y-54483000D03*
X102235000Y-57023000D03*
X102235000Y-54483000D03*
X104775000Y-57023000D03*
X104775000Y-54483000D03*
X107315000Y-57023000D03*
X107315000Y-54483000D03*
X109855000Y-57023000D03*
X109855000Y-54483000D03*
G04 #@! TD*
G04 #@! TO.C,R4*
G36*
G01*
X96601500Y-60665000D02*
X96946500Y-60665000D01*
G75*
G02*
X97094000Y-60812500I0J-147500D01*
G01*
X97094000Y-61107500D01*
G75*
G02*
X96946500Y-61255000I-147500J0D01*
G01*
X96601500Y-61255000D01*
G75*
G02*
X96454000Y-61107500I0J147500D01*
G01*
X96454000Y-60812500D01*
G75*
G02*
X96601500Y-60665000I147500J0D01*
G01*
G37*
G36*
G01*
X96601500Y-59695000D02*
X96946500Y-59695000D01*
G75*
G02*
X97094000Y-59842500I0J-147500D01*
G01*
X97094000Y-60137500D01*
G75*
G02*
X96946500Y-60285000I-147500J0D01*
G01*
X96601500Y-60285000D01*
G75*
G02*
X96454000Y-60137500I0J147500D01*
G01*
X96454000Y-59842500D01*
G75*
G02*
X96601500Y-59695000I147500J0D01*
G01*
G37*
G04 #@! TD*
D15*
G04 #@! TO.C,U3*
X84306000Y-60960000D03*
X84306000Y-60460000D03*
X84306000Y-59960000D03*
X86106000Y-59960000D03*
X86106000Y-60460000D03*
X86106000Y-60960000D03*
G04 #@! TD*
G04 #@! TO.C,U2*
X82804000Y-63008000D03*
X82804000Y-63508000D03*
X82804000Y-64008000D03*
X81004000Y-64008000D03*
X81004000Y-63508000D03*
X81004000Y-63008000D03*
G04 #@! TD*
G04 #@! TO.C,R3*
G36*
G01*
X109895000Y-65450500D02*
X109895000Y-65105500D01*
G75*
G02*
X110042500Y-64958000I147500J0D01*
G01*
X110337500Y-64958000D01*
G75*
G02*
X110485000Y-65105500I0J-147500D01*
G01*
X110485000Y-65450500D01*
G75*
G02*
X110337500Y-65598000I-147500J0D01*
G01*
X110042500Y-65598000D01*
G75*
G02*
X109895000Y-65450500I0J147500D01*
G01*
G37*
G36*
G01*
X108925000Y-65450500D02*
X108925000Y-65105500D01*
G75*
G02*
X109072500Y-64958000I147500J0D01*
G01*
X109367500Y-64958000D01*
G75*
G02*
X109515000Y-65105500I0J-147500D01*
G01*
X109515000Y-65450500D01*
G75*
G02*
X109367500Y-65598000I-147500J0D01*
G01*
X109072500Y-65598000D01*
G75*
G02*
X108925000Y-65450500I0J147500D01*
G01*
G37*
G04 #@! TD*
G04 #@! TO.C,R2*
G36*
G01*
X109515000Y-63073500D02*
X109515000Y-63418500D01*
G75*
G02*
X109367500Y-63566000I-147500J0D01*
G01*
X109072500Y-63566000D01*
G75*
G02*
X108925000Y-63418500I0J147500D01*
G01*
X108925000Y-63073500D01*
G75*
G02*
X109072500Y-62926000I147500J0D01*
G01*
X109367500Y-62926000D01*
G75*
G02*
X109515000Y-63073500I0J-147500D01*
G01*
G37*
G36*
G01*
X110485000Y-63073500D02*
X110485000Y-63418500D01*
G75*
G02*
X110337500Y-63566000I-147500J0D01*
G01*
X110042500Y-63566000D01*
G75*
G02*
X109895000Y-63418500I0J147500D01*
G01*
X109895000Y-63073500D01*
G75*
G02*
X110042500Y-62926000I147500J0D01*
G01*
X110337500Y-62926000D01*
G75*
G02*
X110485000Y-63073500I0J-147500D01*
G01*
G37*
G04 #@! TD*
G04 #@! TO.C,C_1.1_IN1*
G36*
G01*
X83484500Y-60031000D02*
X83139500Y-60031000D01*
G75*
G02*
X82992000Y-59883500I0J147500D01*
G01*
X82992000Y-59588500D01*
G75*
G02*
X83139500Y-59441000I147500J0D01*
G01*
X83484500Y-59441000D01*
G75*
G02*
X83632000Y-59588500I0J-147500D01*
G01*
X83632000Y-59883500D01*
G75*
G02*
X83484500Y-60031000I-147500J0D01*
G01*
G37*
G36*
G01*
X83484500Y-61001000D02*
X83139500Y-61001000D01*
G75*
G02*
X82992000Y-60853500I0J147500D01*
G01*
X82992000Y-60558500D01*
G75*
G02*
X83139500Y-60411000I147500J0D01*
G01*
X83484500Y-60411000D01*
G75*
G02*
X83632000Y-60558500I0J-147500D01*
G01*
X83632000Y-60853500D01*
G75*
G02*
X83484500Y-61001000I-147500J0D01*
G01*
G37*
G04 #@! TD*
G04 #@! TO.C,C_1.8_IN1*
G36*
G01*
X83647500Y-63967000D02*
X83992500Y-63967000D01*
G75*
G02*
X84140000Y-64114500I0J-147500D01*
G01*
X84140000Y-64409500D01*
G75*
G02*
X83992500Y-64557000I-147500J0D01*
G01*
X83647500Y-64557000D01*
G75*
G02*
X83500000Y-64409500I0J147500D01*
G01*
X83500000Y-64114500D01*
G75*
G02*
X83647500Y-63967000I147500J0D01*
G01*
G37*
G36*
G01*
X83647500Y-62997000D02*
X83992500Y-62997000D01*
G75*
G02*
X84140000Y-63144500I0J-147500D01*
G01*
X84140000Y-63439500D01*
G75*
G02*
X83992500Y-63587000I-147500J0D01*
G01*
X83647500Y-63587000D01*
G75*
G02*
X83500000Y-63439500I0J147500D01*
G01*
X83500000Y-63144500D01*
G75*
G02*
X83647500Y-62997000I147500J0D01*
G01*
G37*
G04 #@! TD*
D16*
G04 #@! TO.C,J21*
X108585000Y-70993000D03*
G04 #@! TD*
G04 #@! TO.C,J20*
X104140000Y-62738000D03*
G04 #@! TD*
G04 #@! TO.C,J19*
X93726000Y-60198000D03*
G04 #@! TD*
G04 #@! TO.C,J18*
X92456000Y-60198000D03*
G04 #@! TD*
G04 #@! TO.C,J14*
X91186000Y-60198000D03*
G04 #@! TD*
G04 #@! TO.C,J12*
X86106000Y-77216000D03*
G04 #@! TD*
G04 #@! TO.C,J17*
X108585000Y-73533000D03*
G04 #@! TD*
G04 #@! TO.C,J16*
X105156000Y-66548000D03*
G04 #@! TD*
G04 #@! TO.C,J15*
X103759000Y-66675000D03*
G04 #@! TD*
G04 #@! TO.C,J13*
X88646000Y-78232000D03*
G04 #@! TD*
G04 #@! TO.C,J11*
X86106000Y-75946000D03*
G04 #@! TD*
G04 #@! TO.C,J10*
X104648000Y-67564000D03*
G04 #@! TD*
G04 #@! TO.C,J9*
X104902000Y-68580000D03*
G04 #@! TD*
G04 #@! TO.C,J8*
X85090000Y-63754000D03*
G04 #@! TD*
G04 #@! TO.C,J7*
X86614000Y-63754000D03*
G04 #@! TD*
G04 #@! TO.C,J6*
X88646000Y-63500000D03*
G04 #@! TD*
G04 #@! TO.C,J5*
X104267000Y-64135000D03*
G04 #@! TD*
G04 #@! TO.C,GND6*
X106680000Y-59944000D03*
G04 #@! TD*
G04 #@! TO.C,GND5*
X106680000Y-74422000D03*
G04 #@! TD*
G04 #@! TO.C,GND4*
X107188000Y-62992000D03*
G04 #@! TD*
G04 #@! TO.C,GND3*
X90678000Y-76962000D03*
G04 #@! TD*
G04 #@! TO.C,GND2*
X84328000Y-76708000D03*
G04 #@! TD*
G04 #@! TO.C,GND1*
X98552000Y-77724000D03*
G04 #@! TD*
G04 #@! TO.C,R1*
G36*
G01*
X107147000Y-65196500D02*
X107147000Y-64851500D01*
G75*
G02*
X107294500Y-64704000I147500J0D01*
G01*
X107589500Y-64704000D01*
G75*
G02*
X107737000Y-64851500I0J-147500D01*
G01*
X107737000Y-65196500D01*
G75*
G02*
X107589500Y-65344000I-147500J0D01*
G01*
X107294500Y-65344000D01*
G75*
G02*
X107147000Y-65196500I0J147500D01*
G01*
G37*
G36*
G01*
X106177000Y-65196500D02*
X106177000Y-64851500D01*
G75*
G02*
X106324500Y-64704000I147500J0D01*
G01*
X106619500Y-64704000D01*
G75*
G02*
X106767000Y-64851500I0J-147500D01*
G01*
X106767000Y-65196500D01*
G75*
G02*
X106619500Y-65344000I-147500J0D01*
G01*
X106324500Y-65344000D01*
G75*
G02*
X106177000Y-65196500I0J147500D01*
G01*
G37*
G04 #@! TD*
G04 #@! TO.C,C13*
G36*
G01*
X100629500Y-60158000D02*
X100284500Y-60158000D01*
G75*
G02*
X100137000Y-60010500I0J147500D01*
G01*
X100137000Y-59715500D01*
G75*
G02*
X100284500Y-59568000I147500J0D01*
G01*
X100629500Y-59568000D01*
G75*
G02*
X100777000Y-59715500I0J-147500D01*
G01*
X100777000Y-60010500D01*
G75*
G02*
X100629500Y-60158000I-147500J0D01*
G01*
G37*
G36*
G01*
X100629500Y-61128000D02*
X100284500Y-61128000D01*
G75*
G02*
X100137000Y-60980500I0J147500D01*
G01*
X100137000Y-60685500D01*
G75*
G02*
X100284500Y-60538000I147500J0D01*
G01*
X100629500Y-60538000D01*
G75*
G02*
X100777000Y-60685500I0J-147500D01*
G01*
X100777000Y-60980500D01*
G75*
G02*
X100629500Y-61128000I-147500J0D01*
G01*
G37*
G04 #@! TD*
G04 #@! TO.C,C12*
G36*
G01*
X98724500Y-60158000D02*
X98379500Y-60158000D01*
G75*
G02*
X98232000Y-60010500I0J147500D01*
G01*
X98232000Y-59715500D01*
G75*
G02*
X98379500Y-59568000I147500J0D01*
G01*
X98724500Y-59568000D01*
G75*
G02*
X98872000Y-59715500I0J-147500D01*
G01*
X98872000Y-60010500D01*
G75*
G02*
X98724500Y-60158000I-147500J0D01*
G01*
G37*
G36*
G01*
X98724500Y-61128000D02*
X98379500Y-61128000D01*
G75*
G02*
X98232000Y-60980500I0J147500D01*
G01*
X98232000Y-60685500D01*
G75*
G02*
X98379500Y-60538000I147500J0D01*
G01*
X98724500Y-60538000D01*
G75*
G02*
X98872000Y-60685500I0J-147500D01*
G01*
X98872000Y-60980500D01*
G75*
G02*
X98724500Y-61128000I-147500J0D01*
G01*
G37*
G04 #@! TD*
G04 #@! TO.C,C11*
G36*
G01*
X106767000Y-66375500D02*
X106767000Y-66720500D01*
G75*
G02*
X106619500Y-66868000I-147500J0D01*
G01*
X106324500Y-66868000D01*
G75*
G02*
X106177000Y-66720500I0J147500D01*
G01*
X106177000Y-66375500D01*
G75*
G02*
X106324500Y-66228000I147500J0D01*
G01*
X106619500Y-66228000D01*
G75*
G02*
X106767000Y-66375500I0J-147500D01*
G01*
G37*
G36*
G01*
X107737000Y-66375500D02*
X107737000Y-66720500D01*
G75*
G02*
X107589500Y-66868000I-147500J0D01*
G01*
X107294500Y-66868000D01*
G75*
G02*
X107147000Y-66720500I0J147500D01*
G01*
X107147000Y-66375500D01*
G75*
G02*
X107294500Y-66228000I147500J0D01*
G01*
X107589500Y-66228000D01*
G75*
G02*
X107737000Y-66375500I0J-147500D01*
G01*
G37*
G04 #@! TD*
G04 #@! TO.C,C10*
G36*
G01*
X95168500Y-60239000D02*
X94823500Y-60239000D01*
G75*
G02*
X94676000Y-60091500I0J147500D01*
G01*
X94676000Y-59796500D01*
G75*
G02*
X94823500Y-59649000I147500J0D01*
G01*
X95168500Y-59649000D01*
G75*
G02*
X95316000Y-59796500I0J-147500D01*
G01*
X95316000Y-60091500D01*
G75*
G02*
X95168500Y-60239000I-147500J0D01*
G01*
G37*
G36*
G01*
X95168500Y-61209000D02*
X94823500Y-61209000D01*
G75*
G02*
X94676000Y-61061500I0J147500D01*
G01*
X94676000Y-60766500D01*
G75*
G02*
X94823500Y-60619000I147500J0D01*
G01*
X95168500Y-60619000D01*
G75*
G02*
X95316000Y-60766500I0J-147500D01*
G01*
X95316000Y-61061500D01*
G75*
G02*
X95168500Y-61209000I-147500J0D01*
G01*
G37*
G04 #@! TD*
G04 #@! TO.C,C9*
G36*
G01*
X103459500Y-78445000D02*
X103804500Y-78445000D01*
G75*
G02*
X103952000Y-78592500I0J-147500D01*
G01*
X103952000Y-78887500D01*
G75*
G02*
X103804500Y-79035000I-147500J0D01*
G01*
X103459500Y-79035000D01*
G75*
G02*
X103312000Y-78887500I0J147500D01*
G01*
X103312000Y-78592500D01*
G75*
G02*
X103459500Y-78445000I147500J0D01*
G01*
G37*
G36*
G01*
X103459500Y-77475000D02*
X103804500Y-77475000D01*
G75*
G02*
X103952000Y-77622500I0J-147500D01*
G01*
X103952000Y-77917500D01*
G75*
G02*
X103804500Y-78065000I-147500J0D01*
G01*
X103459500Y-78065000D01*
G75*
G02*
X103312000Y-77917500I0J147500D01*
G01*
X103312000Y-77622500D01*
G75*
G02*
X103459500Y-77475000I147500J0D01*
G01*
G37*
G04 #@! TD*
G04 #@! TO.C,C8*
G36*
G01*
X102062500Y-78399000D02*
X102407500Y-78399000D01*
G75*
G02*
X102555000Y-78546500I0J-147500D01*
G01*
X102555000Y-78841500D01*
G75*
G02*
X102407500Y-78989000I-147500J0D01*
G01*
X102062500Y-78989000D01*
G75*
G02*
X101915000Y-78841500I0J147500D01*
G01*
X101915000Y-78546500D01*
G75*
G02*
X102062500Y-78399000I147500J0D01*
G01*
G37*
G36*
G01*
X102062500Y-77429000D02*
X102407500Y-77429000D01*
G75*
G02*
X102555000Y-77576500I0J-147500D01*
G01*
X102555000Y-77871500D01*
G75*
G02*
X102407500Y-78019000I-147500J0D01*
G01*
X102062500Y-78019000D01*
G75*
G02*
X101915000Y-77871500I0J147500D01*
G01*
X101915000Y-77576500D01*
G75*
G02*
X102062500Y-77429000I147500J0D01*
G01*
G37*
G04 #@! TD*
G04 #@! TO.C,C7*
G36*
G01*
X108031500Y-61381000D02*
X108376500Y-61381000D01*
G75*
G02*
X108524000Y-61528500I0J-147500D01*
G01*
X108524000Y-61823500D01*
G75*
G02*
X108376500Y-61971000I-147500J0D01*
G01*
X108031500Y-61971000D01*
G75*
G02*
X107884000Y-61823500I0J147500D01*
G01*
X107884000Y-61528500D01*
G75*
G02*
X108031500Y-61381000I147500J0D01*
G01*
G37*
G36*
G01*
X108031500Y-60411000D02*
X108376500Y-60411000D01*
G75*
G02*
X108524000Y-60558500I0J-147500D01*
G01*
X108524000Y-60853500D01*
G75*
G02*
X108376500Y-61001000I-147500J0D01*
G01*
X108031500Y-61001000D01*
G75*
G02*
X107884000Y-60853500I0J147500D01*
G01*
X107884000Y-60558500D01*
G75*
G02*
X108031500Y-60411000I147500J0D01*
G01*
G37*
G04 #@! TD*
G04 #@! TO.C,C6*
G36*
G01*
X110063500Y-61381000D02*
X110408500Y-61381000D01*
G75*
G02*
X110556000Y-61528500I0J-147500D01*
G01*
X110556000Y-61823500D01*
G75*
G02*
X110408500Y-61971000I-147500J0D01*
G01*
X110063500Y-61971000D01*
G75*
G02*
X109916000Y-61823500I0J147500D01*
G01*
X109916000Y-61528500D01*
G75*
G02*
X110063500Y-61381000I147500J0D01*
G01*
G37*
G36*
G01*
X110063500Y-60411000D02*
X110408500Y-60411000D01*
G75*
G02*
X110556000Y-60558500I0J-147500D01*
G01*
X110556000Y-60853500D01*
G75*
G02*
X110408500Y-61001000I-147500J0D01*
G01*
X110063500Y-61001000D01*
G75*
G02*
X109916000Y-60853500I0J147500D01*
G01*
X109916000Y-60558500D01*
G75*
G02*
X110063500Y-60411000I147500J0D01*
G01*
G37*
G04 #@! TD*
G04 #@! TO.C,C5*
G36*
G01*
X85685000Y-74503500D02*
X85685000Y-74848500D01*
G75*
G02*
X85537500Y-74996000I-147500J0D01*
G01*
X85242500Y-74996000D01*
G75*
G02*
X85095000Y-74848500I0J147500D01*
G01*
X85095000Y-74503500D01*
G75*
G02*
X85242500Y-74356000I147500J0D01*
G01*
X85537500Y-74356000D01*
G75*
G02*
X85685000Y-74503500I0J-147500D01*
G01*
G37*
G36*
G01*
X86655000Y-74503500D02*
X86655000Y-74848500D01*
G75*
G02*
X86507500Y-74996000I-147500J0D01*
G01*
X86212500Y-74996000D01*
G75*
G02*
X86065000Y-74848500I0J147500D01*
G01*
X86065000Y-74503500D01*
G75*
G02*
X86212500Y-74356000I147500J0D01*
G01*
X86507500Y-74356000D01*
G75*
G02*
X86655000Y-74503500I0J-147500D01*
G01*
G37*
G04 #@! TD*
G04 #@! TO.C,C4*
G36*
G01*
X85662000Y-78567500D02*
X85662000Y-78912500D01*
G75*
G02*
X85514500Y-79060000I-147500J0D01*
G01*
X85219500Y-79060000D01*
G75*
G02*
X85072000Y-78912500I0J147500D01*
G01*
X85072000Y-78567500D01*
G75*
G02*
X85219500Y-78420000I147500J0D01*
G01*
X85514500Y-78420000D01*
G75*
G02*
X85662000Y-78567500I0J-147500D01*
G01*
G37*
G36*
G01*
X86632000Y-78567500D02*
X86632000Y-78912500D01*
G75*
G02*
X86484500Y-79060000I-147500J0D01*
G01*
X86189500Y-79060000D01*
G75*
G02*
X86042000Y-78912500I0J147500D01*
G01*
X86042000Y-78567500D01*
G75*
G02*
X86189500Y-78420000I147500J0D01*
G01*
X86484500Y-78420000D01*
G75*
G02*
X86632000Y-78567500I0J-147500D01*
G01*
G37*
G04 #@! TD*
D10*
G04 #@! TO.C,J2*
X107950000Y-81788000D03*
X107950000Y-84328000D03*
X105410000Y-81788000D03*
X105410000Y-84328000D03*
X102870000Y-81788000D03*
X102870000Y-84328000D03*
X100330000Y-81788000D03*
X100330000Y-84328000D03*
X97790000Y-81788000D03*
X97790000Y-84328000D03*
X95250000Y-81788000D03*
X95250000Y-84328000D03*
X92710000Y-81788000D03*
X92710000Y-84328000D03*
X90170000Y-81788000D03*
X90170000Y-84328000D03*
X87630000Y-81788000D03*
X87630000Y-84328000D03*
X85090000Y-81788000D03*
D11*
X85090000Y-84328000D03*
G04 #@! TD*
D17*
G04 #@! TO.C,U1*
X100501250Y-72619250D03*
X100501250Y-71481750D03*
X100501250Y-70344250D03*
X100501250Y-69206750D03*
X100501250Y-68069250D03*
X100501250Y-66931750D03*
X100501250Y-65794250D03*
X100501250Y-64656750D03*
X99363750Y-72619250D03*
X99363750Y-71481750D03*
X99363750Y-70344250D03*
X99363750Y-69206750D03*
X99363750Y-68069250D03*
X99363750Y-66931750D03*
X99363750Y-65794250D03*
X99363750Y-64656750D03*
X98226250Y-72619250D03*
X98226250Y-71481750D03*
X98226250Y-70344250D03*
X98226250Y-69206750D03*
X98226250Y-68069250D03*
X98226250Y-66931750D03*
X98226250Y-65794250D03*
X98226250Y-64656750D03*
X97088750Y-72619250D03*
X97088750Y-71481750D03*
X97088750Y-70344250D03*
X97088750Y-69206750D03*
X97088750Y-68069250D03*
X97088750Y-66931750D03*
X97088750Y-65794250D03*
X97088750Y-64656750D03*
X95951250Y-72619250D03*
X95951250Y-71481750D03*
X95951250Y-70344250D03*
X95951250Y-69206750D03*
X95951250Y-68069250D03*
X95951250Y-66931750D03*
X95951250Y-65794250D03*
X95951250Y-64656750D03*
X94813750Y-72619250D03*
X94813750Y-71481750D03*
X94813750Y-70344250D03*
X94813750Y-69206750D03*
X94813750Y-68069250D03*
X94813750Y-66931750D03*
X94813750Y-65794250D03*
X94813750Y-64656750D03*
X93676250Y-72619250D03*
X93676250Y-71481750D03*
X93676250Y-70344250D03*
X93676250Y-69206750D03*
X93676250Y-68069250D03*
X93676250Y-66931750D03*
X93676250Y-65794250D03*
X93676250Y-64656750D03*
X92538750Y-72619250D03*
X92538750Y-71481750D03*
X92538750Y-70344250D03*
X92538750Y-69206750D03*
X92538750Y-68069250D03*
X92538750Y-66931750D03*
X92538750Y-65794250D03*
X92538750Y-64656750D03*
D18*
X100501250Y-72619250D03*
X100501250Y-71481750D03*
X100501250Y-70344250D03*
X100501250Y-69206750D03*
X100501250Y-68069250D03*
X100501250Y-66931750D03*
X100501250Y-65794250D03*
X100501250Y-64656750D03*
X99363750Y-72619250D03*
X99363750Y-71481750D03*
X99363750Y-70344250D03*
X99363750Y-69206750D03*
X99363750Y-68069250D03*
X99363750Y-66931750D03*
X99363750Y-65794250D03*
X99363750Y-64656750D03*
X98226250Y-72619250D03*
X98226250Y-71481750D03*
X98226250Y-70344250D03*
X98226250Y-69206750D03*
X98226250Y-68069250D03*
X98226250Y-66931750D03*
X98226250Y-65794250D03*
X98226250Y-64656750D03*
X97088750Y-72619250D03*
X97088750Y-71481750D03*
X97088750Y-70344250D03*
X97088750Y-69206750D03*
X97088750Y-68069250D03*
X97088750Y-66931750D03*
X97088750Y-65794250D03*
X97088750Y-64656750D03*
X95951250Y-72619250D03*
X95951250Y-71481750D03*
X95951250Y-70344250D03*
X95951250Y-69206750D03*
X95951250Y-68069250D03*
X95951250Y-66931750D03*
X95951250Y-65794250D03*
X95951250Y-64656750D03*
X94813750Y-72619250D03*
X94813750Y-71481750D03*
X94813750Y-70344250D03*
X94813750Y-69206750D03*
X94813750Y-68069250D03*
X94813750Y-66931750D03*
X94813750Y-65794250D03*
X94813750Y-64656750D03*
X93676250Y-72619250D03*
X93676250Y-71481750D03*
X93676250Y-70344250D03*
X93676250Y-69206750D03*
X93676250Y-68069250D03*
X93676250Y-66931750D03*
X93676250Y-65794250D03*
X93676250Y-64656750D03*
X92538750Y-72619250D03*
X92538750Y-71481750D03*
X92538750Y-70344250D03*
X92538750Y-69206750D03*
X92538750Y-68069250D03*
X92538750Y-66931750D03*
X92538750Y-65794250D03*
X92538750Y-64656750D03*
D19*
X91720000Y-62738000D03*
X92120000Y-62738000D03*
X92520000Y-62738000D03*
X92920000Y-62738000D03*
X93320000Y-62738000D03*
X93720000Y-62738000D03*
X94120000Y-62738000D03*
X94520000Y-62738000D03*
X94920000Y-62738000D03*
X95320000Y-62738000D03*
X95720000Y-62738000D03*
X96120000Y-62738000D03*
X96520000Y-62738000D03*
X96920000Y-62738000D03*
X97320000Y-62738000D03*
X97720000Y-62738000D03*
X98120000Y-62738000D03*
X98520000Y-62738000D03*
X98920000Y-62738000D03*
X99320000Y-62738000D03*
X99720000Y-62738000D03*
X100120000Y-62738000D03*
X100520000Y-62738000D03*
X100920000Y-62738000D03*
X101320000Y-62738000D03*
D20*
X102420000Y-63838000D03*
X102420000Y-64238000D03*
X102420000Y-64638000D03*
X102420000Y-65038000D03*
X102420000Y-65438000D03*
X102420000Y-65838000D03*
X102420000Y-66238000D03*
X102420000Y-66638000D03*
X102420000Y-67038000D03*
X102420000Y-67438000D03*
X102420000Y-67838000D03*
X102420000Y-68238000D03*
X102420000Y-68638000D03*
X102420000Y-69038000D03*
X102420000Y-69438000D03*
X102420000Y-69838000D03*
X102420000Y-70238000D03*
X102420000Y-70638000D03*
X102420000Y-71038000D03*
X102420000Y-71438000D03*
X102420000Y-71838000D03*
X102420000Y-72238000D03*
X102420000Y-72638000D03*
X102420000Y-73038000D03*
X102420000Y-73438000D03*
D19*
X101320000Y-74538000D03*
X100920000Y-74538000D03*
X100520000Y-74538000D03*
X100120000Y-74538000D03*
X99720000Y-74538000D03*
X99320000Y-74538000D03*
X98920000Y-74538000D03*
X98520000Y-74538000D03*
X98120000Y-74538000D03*
X97720000Y-74538000D03*
X97320000Y-74538000D03*
X96920000Y-74538000D03*
X96520000Y-74538000D03*
X96120000Y-74538000D03*
X95720000Y-74538000D03*
X95320000Y-74538000D03*
X94920000Y-74538000D03*
X94520000Y-74538000D03*
X94120000Y-74538000D03*
X93720000Y-74538000D03*
X93320000Y-74538000D03*
X92920000Y-74538000D03*
X92520000Y-74538000D03*
X92120000Y-74538000D03*
X91720000Y-74538000D03*
D20*
X90620000Y-73438000D03*
X90620000Y-73038000D03*
X90620000Y-72638000D03*
X90620000Y-72238000D03*
X90620000Y-71838000D03*
X90620000Y-71438000D03*
X90620000Y-71038000D03*
X90620000Y-70638000D03*
X90620000Y-70238000D03*
X90620000Y-69838000D03*
X90620000Y-69438000D03*
X90620000Y-69038000D03*
X90620000Y-68638000D03*
X90620000Y-68238000D03*
X90620000Y-67838000D03*
X90620000Y-67438000D03*
X90620000Y-67038000D03*
X90620000Y-66638000D03*
X90620000Y-66238000D03*
X90620000Y-65838000D03*
X90620000Y-65438000D03*
X90620000Y-65038000D03*
X90620000Y-64638000D03*
X90620000Y-64238000D03*
X90620000Y-63838000D03*
G04 #@! TD*
G04 #@! TO.C,C3*
G36*
G01*
X80051000Y-75265500D02*
X80051000Y-75610500D01*
G75*
G02*
X79903500Y-75758000I-147500J0D01*
G01*
X79608500Y-75758000D01*
G75*
G02*
X79461000Y-75610500I0J147500D01*
G01*
X79461000Y-75265500D01*
G75*
G02*
X79608500Y-75118000I147500J0D01*
G01*
X79903500Y-75118000D01*
G75*
G02*
X80051000Y-75265500I0J-147500D01*
G01*
G37*
G36*
G01*
X79081000Y-75265500D02*
X79081000Y-75610500D01*
G75*
G02*
X78933500Y-75758000I-147500J0D01*
G01*
X78638500Y-75758000D01*
G75*
G02*
X78491000Y-75610500I0J147500D01*
G01*
X78491000Y-75265500D01*
G75*
G02*
X78638500Y-75118000I147500J0D01*
G01*
X78933500Y-75118000D01*
G75*
G02*
X79081000Y-75265500I0J-147500D01*
G01*
G37*
G04 #@! TD*
G04 #@! TO.C,C2*
G36*
G01*
X77297500Y-77556000D02*
X77642500Y-77556000D01*
G75*
G02*
X77790000Y-77703500I0J-147500D01*
G01*
X77790000Y-77998500D01*
G75*
G02*
X77642500Y-78146000I-147500J0D01*
G01*
X77297500Y-78146000D01*
G75*
G02*
X77150000Y-77998500I0J147500D01*
G01*
X77150000Y-77703500D01*
G75*
G02*
X77297500Y-77556000I147500J0D01*
G01*
G37*
G36*
G01*
X77297500Y-78526000D02*
X77642500Y-78526000D01*
G75*
G02*
X77790000Y-78673500I0J-147500D01*
G01*
X77790000Y-78968500D01*
G75*
G02*
X77642500Y-79116000I-147500J0D01*
G01*
X77297500Y-79116000D01*
G75*
G02*
X77150000Y-78968500I0J147500D01*
G01*
X77150000Y-78673500D01*
G75*
G02*
X77297500Y-78526000I147500J0D01*
G01*
G37*
G04 #@! TD*
G04 #@! TO.C,C1*
G36*
G01*
X81285000Y-75610500D02*
X81285000Y-75265500D01*
G75*
G02*
X81432500Y-75118000I147500J0D01*
G01*
X81727500Y-75118000D01*
G75*
G02*
X81875000Y-75265500I0J-147500D01*
G01*
X81875000Y-75610500D01*
G75*
G02*
X81727500Y-75758000I-147500J0D01*
G01*
X81432500Y-75758000D01*
G75*
G02*
X81285000Y-75610500I0J147500D01*
G01*
G37*
G36*
G01*
X82255000Y-75610500D02*
X82255000Y-75265500D01*
G75*
G02*
X82402500Y-75118000I147500J0D01*
G01*
X82697500Y-75118000D01*
G75*
G02*
X82845000Y-75265500I0J-147500D01*
G01*
X82845000Y-75610500D01*
G75*
G02*
X82697500Y-75758000I-147500J0D01*
G01*
X82402500Y-75758000D01*
G75*
G02*
X82255000Y-75610500I0J147500D01*
G01*
G37*
G04 #@! TD*
G04 #@! TO.C,U9AB1*
G36*
G01*
X82420000Y-79436000D02*
X82420000Y-79536000D01*
G75*
G02*
X82370000Y-79586000I-50000J0D01*
G01*
X81920000Y-79586000D01*
G75*
G02*
X81870000Y-79536000I0J50000D01*
G01*
X81870000Y-79436000D01*
G75*
G02*
X81920000Y-79386000I50000J0D01*
G01*
X82370000Y-79386000D01*
G75*
G02*
X82420000Y-79436000I0J-50000D01*
G01*
G37*
G36*
G01*
X82420000Y-79036000D02*
X82420000Y-79136000D01*
G75*
G02*
X82370000Y-79186000I-50000J0D01*
G01*
X81920000Y-79186000D01*
G75*
G02*
X81870000Y-79136000I0J50000D01*
G01*
X81870000Y-79036000D01*
G75*
G02*
X81920000Y-78986000I50000J0D01*
G01*
X82370000Y-78986000D01*
G75*
G02*
X82420000Y-79036000I0J-50000D01*
G01*
G37*
G36*
G01*
X82420000Y-78636000D02*
X82420000Y-78736000D01*
G75*
G02*
X82370000Y-78786000I-50000J0D01*
G01*
X81920000Y-78786000D01*
G75*
G02*
X81870000Y-78736000I0J50000D01*
G01*
X81870000Y-78636000D01*
G75*
G02*
X81920000Y-78586000I50000J0D01*
G01*
X82370000Y-78586000D01*
G75*
G02*
X82420000Y-78636000I0J-50000D01*
G01*
G37*
G36*
G01*
X82420000Y-78236000D02*
X82420000Y-78336000D01*
G75*
G02*
X82370000Y-78386000I-50000J0D01*
G01*
X81920000Y-78386000D01*
G75*
G02*
X81870000Y-78336000I0J50000D01*
G01*
X81870000Y-78236000D01*
G75*
G02*
X81920000Y-78186000I50000J0D01*
G01*
X82370000Y-78186000D01*
G75*
G02*
X82420000Y-78236000I0J-50000D01*
G01*
G37*
G36*
G01*
X82420000Y-77836000D02*
X82420000Y-77936000D01*
G75*
G02*
X82370000Y-77986000I-50000J0D01*
G01*
X81920000Y-77986000D01*
G75*
G02*
X81870000Y-77936000I0J50000D01*
G01*
X81870000Y-77836000D01*
G75*
G02*
X81920000Y-77786000I50000J0D01*
G01*
X82370000Y-77786000D01*
G75*
G02*
X82420000Y-77836000I0J-50000D01*
G01*
G37*
G36*
G01*
X82420000Y-77436000D02*
X82420000Y-77536000D01*
G75*
G02*
X82370000Y-77586000I-50000J0D01*
G01*
X81920000Y-77586000D01*
G75*
G02*
X81870000Y-77536000I0J50000D01*
G01*
X81870000Y-77436000D01*
G75*
G02*
X81920000Y-77386000I50000J0D01*
G01*
X82370000Y-77386000D01*
G75*
G02*
X82420000Y-77436000I0J-50000D01*
G01*
G37*
G36*
G01*
X81595000Y-76711000D02*
X81695000Y-76711000D01*
G75*
G02*
X81745000Y-76761000I0J-50000D01*
G01*
X81745000Y-77211000D01*
G75*
G02*
X81695000Y-77261000I-50000J0D01*
G01*
X81595000Y-77261000D01*
G75*
G02*
X81545000Y-77211000I0J50000D01*
G01*
X81545000Y-76761000D01*
G75*
G02*
X81595000Y-76711000I50000J0D01*
G01*
G37*
G36*
G01*
X81195000Y-76711000D02*
X81295000Y-76711000D01*
G75*
G02*
X81345000Y-76761000I0J-50000D01*
G01*
X81345000Y-77211000D01*
G75*
G02*
X81295000Y-77261000I-50000J0D01*
G01*
X81195000Y-77261000D01*
G75*
G02*
X81145000Y-77211000I0J50000D01*
G01*
X81145000Y-76761000D01*
G75*
G02*
X81195000Y-76711000I50000J0D01*
G01*
G37*
G36*
G01*
X80795000Y-76711000D02*
X80895000Y-76711000D01*
G75*
G02*
X80945000Y-76761000I0J-50000D01*
G01*
X80945000Y-77211000D01*
G75*
G02*
X80895000Y-77261000I-50000J0D01*
G01*
X80795000Y-77261000D01*
G75*
G02*
X80745000Y-77211000I0J50000D01*
G01*
X80745000Y-76761000D01*
G75*
G02*
X80795000Y-76711000I50000J0D01*
G01*
G37*
G36*
G01*
X80395000Y-76711000D02*
X80495000Y-76711000D01*
G75*
G02*
X80545000Y-76761000I0J-50000D01*
G01*
X80545000Y-77211000D01*
G75*
G02*
X80495000Y-77261000I-50000J0D01*
G01*
X80395000Y-77261000D01*
G75*
G02*
X80345000Y-77211000I0J50000D01*
G01*
X80345000Y-76761000D01*
G75*
G02*
X80395000Y-76711000I50000J0D01*
G01*
G37*
G36*
G01*
X79995000Y-76711000D02*
X80095000Y-76711000D01*
G75*
G02*
X80145000Y-76761000I0J-50000D01*
G01*
X80145000Y-77211000D01*
G75*
G02*
X80095000Y-77261000I-50000J0D01*
G01*
X79995000Y-77261000D01*
G75*
G02*
X79945000Y-77211000I0J50000D01*
G01*
X79945000Y-76761000D01*
G75*
G02*
X79995000Y-76711000I50000J0D01*
G01*
G37*
G36*
G01*
X79595000Y-76711000D02*
X79695000Y-76711000D01*
G75*
G02*
X79745000Y-76761000I0J-50000D01*
G01*
X79745000Y-77211000D01*
G75*
G02*
X79695000Y-77261000I-50000J0D01*
G01*
X79595000Y-77261000D01*
G75*
G02*
X79545000Y-77211000I0J50000D01*
G01*
X79545000Y-76761000D01*
G75*
G02*
X79595000Y-76711000I50000J0D01*
G01*
G37*
G36*
G01*
X79420000Y-77436000D02*
X79420000Y-77536000D01*
G75*
G02*
X79370000Y-77586000I-50000J0D01*
G01*
X78920000Y-77586000D01*
G75*
G02*
X78870000Y-77536000I0J50000D01*
G01*
X78870000Y-77436000D01*
G75*
G02*
X78920000Y-77386000I50000J0D01*
G01*
X79370000Y-77386000D01*
G75*
G02*
X79420000Y-77436000I0J-50000D01*
G01*
G37*
G36*
G01*
X79420000Y-77836000D02*
X79420000Y-77936000D01*
G75*
G02*
X79370000Y-77986000I-50000J0D01*
G01*
X78920000Y-77986000D01*
G75*
G02*
X78870000Y-77936000I0J50000D01*
G01*
X78870000Y-77836000D01*
G75*
G02*
X78920000Y-77786000I50000J0D01*
G01*
X79370000Y-77786000D01*
G75*
G02*
X79420000Y-77836000I0J-50000D01*
G01*
G37*
G36*
G01*
X79420000Y-78236000D02*
X79420000Y-78336000D01*
G75*
G02*
X79370000Y-78386000I-50000J0D01*
G01*
X78920000Y-78386000D01*
G75*
G02*
X78870000Y-78336000I0J50000D01*
G01*
X78870000Y-78236000D01*
G75*
G02*
X78920000Y-78186000I50000J0D01*
G01*
X79370000Y-78186000D01*
G75*
G02*
X79420000Y-78236000I0J-50000D01*
G01*
G37*
G36*
G01*
X79420000Y-78636000D02*
X79420000Y-78736000D01*
G75*
G02*
X79370000Y-78786000I-50000J0D01*
G01*
X78920000Y-78786000D01*
G75*
G02*
X78870000Y-78736000I0J50000D01*
G01*
X78870000Y-78636000D01*
G75*
G02*
X78920000Y-78586000I50000J0D01*
G01*
X79370000Y-78586000D01*
G75*
G02*
X79420000Y-78636000I0J-50000D01*
G01*
G37*
G36*
G01*
X79420000Y-79036000D02*
X79420000Y-79136000D01*
G75*
G02*
X79370000Y-79186000I-50000J0D01*
G01*
X78920000Y-79186000D01*
G75*
G02*
X78870000Y-79136000I0J50000D01*
G01*
X78870000Y-79036000D01*
G75*
G02*
X78920000Y-78986000I50000J0D01*
G01*
X79370000Y-78986000D01*
G75*
G02*
X79420000Y-79036000I0J-50000D01*
G01*
G37*
G36*
G01*
X79420000Y-79436000D02*
X79420000Y-79536000D01*
G75*
G02*
X79370000Y-79586000I-50000J0D01*
G01*
X78920000Y-79586000D01*
G75*
G02*
X78870000Y-79536000I0J50000D01*
G01*
X78870000Y-79436000D01*
G75*
G02*
X78920000Y-79386000I50000J0D01*
G01*
X79370000Y-79386000D01*
G75*
G02*
X79420000Y-79436000I0J-50000D01*
G01*
G37*
G36*
G01*
X79595000Y-79711000D02*
X79695000Y-79711000D01*
G75*
G02*
X79745000Y-79761000I0J-50000D01*
G01*
X79745000Y-80211000D01*
G75*
G02*
X79695000Y-80261000I-50000J0D01*
G01*
X79595000Y-80261000D01*
G75*
G02*
X79545000Y-80211000I0J50000D01*
G01*
X79545000Y-79761000D01*
G75*
G02*
X79595000Y-79711000I50000J0D01*
G01*
G37*
G36*
G01*
X79995000Y-79711000D02*
X80095000Y-79711000D01*
G75*
G02*
X80145000Y-79761000I0J-50000D01*
G01*
X80145000Y-80211000D01*
G75*
G02*
X80095000Y-80261000I-50000J0D01*
G01*
X79995000Y-80261000D01*
G75*
G02*
X79945000Y-80211000I0J50000D01*
G01*
X79945000Y-79761000D01*
G75*
G02*
X79995000Y-79711000I50000J0D01*
G01*
G37*
G36*
G01*
X80395000Y-79711000D02*
X80495000Y-79711000D01*
G75*
G02*
X80545000Y-79761000I0J-50000D01*
G01*
X80545000Y-80211000D01*
G75*
G02*
X80495000Y-80261000I-50000J0D01*
G01*
X80395000Y-80261000D01*
G75*
G02*
X80345000Y-80211000I0J50000D01*
G01*
X80345000Y-79761000D01*
G75*
G02*
X80395000Y-79711000I50000J0D01*
G01*
G37*
G36*
G01*
X80795000Y-79711000D02*
X80895000Y-79711000D01*
G75*
G02*
X80945000Y-79761000I0J-50000D01*
G01*
X80945000Y-80211000D01*
G75*
G02*
X80895000Y-80261000I-50000J0D01*
G01*
X80795000Y-80261000D01*
G75*
G02*
X80745000Y-80211000I0J50000D01*
G01*
X80745000Y-79761000D01*
G75*
G02*
X80795000Y-79711000I50000J0D01*
G01*
G37*
G36*
G01*
X81195000Y-79711000D02*
X81295000Y-79711000D01*
G75*
G02*
X81345000Y-79761000I0J-50000D01*
G01*
X81345000Y-80211000D01*
G75*
G02*
X81295000Y-80261000I-50000J0D01*
G01*
X81195000Y-80261000D01*
G75*
G02*
X81145000Y-80211000I0J50000D01*
G01*
X81145000Y-79761000D01*
G75*
G02*
X81195000Y-79711000I50000J0D01*
G01*
G37*
G36*
G01*
X81595000Y-79711000D02*
X81695000Y-79711000D01*
G75*
G02*
X81745000Y-79761000I0J-50000D01*
G01*
X81745000Y-80211000D01*
G75*
G02*
X81695000Y-80261000I-50000J0D01*
G01*
X81595000Y-80261000D01*
G75*
G02*
X81545000Y-80211000I0J50000D01*
G01*
X81545000Y-79761000D01*
G75*
G02*
X81595000Y-79711000I50000J0D01*
G01*
G37*
G04 #@! TD*
M02*
