M48
; DRILL file {KiCad (5.1.6)-1} date 04/15/21 17:49:05
; FORMAT={-:-/ absolute / inch / decimal}
; #@! TF.CreationDate,2021-04-15T17:49:05-07:00
; #@! TF.GenerationSoftware,Kicad,Pcbnew,(5.1.6)-1
FMAT,2
INCH
T1C0.0060
T2C0.0112
T3C0.0160
T4C0.0394
%
G90
G05
T1
X4.2Y-3.15
X4.225Y-3.15
X4.25Y-3.15
X4.25Y-3.475
X4.275Y-3.425
X4.375Y-3.575
X4.4Y-3.575
X4.425Y-3.65
X4.45Y-3.675
X4.6Y-3.625
X4.7165Y-3.9835
X4.7245Y-3.95
X4.7858Y-3.9539
X4.8108Y-3.9539
X4.8358Y-3.9539
X4.8608Y-3.9539
X4.8858Y-3.9039
X4.8858Y-3.9289
X4.8858Y-3.9539
X5.175Y-3.575
X5.175Y-3.626
X5.4358Y-3.6608
X5.5Y-3.725
T2
X4.7265Y-3.405
X4.7265Y-3.4498
X4.7265Y-3.4946
X4.7265Y-3.5394
X4.7265Y-3.5842
X4.7265Y-3.6289
X4.7265Y-3.6737
X4.7265Y-3.7185
X4.7713Y-3.405
X4.7713Y-3.4498
X4.7713Y-3.4946
X4.7713Y-3.5394
X4.7713Y-3.5842
X4.7713Y-3.6289
X4.7713Y-3.6737
X4.7713Y-3.7185
X4.816Y-3.405
X4.816Y-3.4498
X4.816Y-3.4946
X4.816Y-3.5394
X4.816Y-3.5842
X4.816Y-3.6289
X4.816Y-3.6737
X4.816Y-3.7185
X4.8608Y-3.405
X4.8608Y-3.4498
X4.8608Y-3.4946
X4.8608Y-3.5394
X4.8608Y-3.5842
X4.8608Y-3.6289
X4.8608Y-3.6737
X4.8608Y-3.7185
X4.9056Y-3.405
X4.9056Y-3.4498
X4.9056Y-3.4946
X4.9056Y-3.5394
X4.9056Y-3.5842
X4.9056Y-3.6289
X4.9056Y-3.6737
X4.9056Y-3.7185
X4.9504Y-3.405
X4.9504Y-3.4498
X4.9504Y-3.4946
X4.9504Y-3.5394
X4.9504Y-3.5842
X4.9504Y-3.6289
X4.9504Y-3.6737
X4.9504Y-3.7185
X4.9952Y-3.405
X4.9952Y-3.4498
X4.9952Y-3.4946
X4.9952Y-3.5394
X4.9952Y-3.5842
X4.9952Y-3.6289
X4.9952Y-3.6737
X4.9952Y-3.7185
X5.04Y-3.405
X5.04Y-3.4498
X5.04Y-3.4946
X5.04Y-3.5394
X5.04Y-3.5842
X5.04Y-3.6289
X5.04Y-3.6737
X5.04Y-3.7185
T3
X4.475Y-3.25
X4.475Y-3.325
X4.475Y-3.4
X4.475Y-3.475
X4.525Y-3.45
X4.525Y-3.775
X4.525Y-3.9
X4.5251Y-3.7285
X4.529Y-3.829
X4.55Y-3.225
X4.55Y-3.3
X4.55Y-3.35
X4.55Y-3.4
X4.565Y-3.794
X4.6Y-3.15
X4.6Y-3.425
X4.6Y-3.9
X4.6Y-3.95
X4.629Y-3.05
X4.675Y-3.075
X4.675Y-3.9
X4.675Y-3.95
X4.725Y-3.05
X4.775Y-3.075
X4.825Y-3.075
X4.875Y-3.075
X4.95Y-3.275
X5.0Y-3.275
X5.05Y-3.275
X5.1Y-3.275
X5.2198Y-3.3198
X5.275Y-3.8
X5.325Y-3.4
X5.35Y-3.775
X5.35Y-3.925
X5.35Y-3.975
X5.375Y-3.4
X5.4Y-3.75
X5.4Y-3.8
X5.4Y-3.925
X5.4Y-3.975
X5.425Y-3.4
X5.425Y-3.45
X5.425Y-3.5
T4
X4.2358Y-3.6789
X4.2358Y-3.7789
X4.2358Y-3.8789
X4.2358Y-3.9789
X4.3358Y-3.6789
X4.3358Y-3.7789
X4.3358Y-3.8789
X4.3358Y-3.9789
X5.575Y-3.2
X5.575Y-3.3
X5.575Y-3.4
X5.575Y-3.5
X5.575Y-3.6
X5.575Y-3.7
X5.575Y-3.8
X5.575Y-3.9
X5.575Y-4.0
X5.675Y-3.2
X5.675Y-3.3
X5.675Y-3.4
X5.675Y-3.5
X5.675Y-3.6
X5.675Y-3.7
X5.675Y-3.8
X5.675Y-3.9
X5.675Y-4.0
X4.5Y-4.075
X4.5Y-4.175
X4.6Y-4.075
X4.6Y-4.175
X4.7Y-4.075
X4.7Y-4.175
X4.8Y-4.075
X4.8Y-4.175
X4.9Y-4.075
X4.9Y-4.175
X5.0Y-4.075
X5.0Y-4.175
X5.1Y-4.075
X5.1Y-4.175
X5.2Y-4.075
X5.2Y-4.175
X5.3Y-4.075
X5.3Y-4.175
X5.4Y-4.075
X5.4Y-4.175
X4.5108Y-3.5789
T0
M30
