G04 #@! TF.GenerationSoftware,KiCad,Pcbnew,(5.1.6)-1*
G04 #@! TF.CreationDate,2021-08-27T22:14:51-07:00*
G04 #@! TF.ProjectId,scum3c-devboard,7363756d-3363-42d6-9465-76626f617264,rev?*
G04 #@! TF.SameCoordinates,Original*
G04 #@! TF.FileFunction,Soldermask,Bot*
G04 #@! TF.FilePolarity,Negative*
%FSLAX46Y46*%
G04 Gerber Fmt 4.6, Leading zero omitted, Abs format (unit mm)*
G04 Created by KiCad (PCBNEW (5.1.6)-1) date 2021-08-27 22:14:51*
%MOMM*%
%LPD*%
G01*
G04 APERTURE LIST*
%ADD10C,8.130000*%
%ADD11R,3.200000X3.200000*%
%ADD12O,1.700000X1.700000*%
%ADD13R,1.700000X1.700000*%
%ADD14C,0.762000*%
%ADD15C,0.568750*%
G04 APERTURE END LIST*
D10*
G04 #@! TO.C,BT1*
X126365000Y-90355000D03*
D11*
X126365000Y-82660000D03*
X126365000Y-98050000D03*
G04 #@! TD*
D12*
G04 #@! TO.C,J1*
X137795000Y-76200000D03*
X137795000Y-78740000D03*
X135255000Y-76200000D03*
X135255000Y-78740000D03*
X132715000Y-76200000D03*
X132715000Y-78740000D03*
X130175000Y-76200000D03*
X130175000Y-78740000D03*
X127635000Y-76200000D03*
X127635000Y-78740000D03*
X125095000Y-76200000D03*
X125095000Y-78740000D03*
X122555000Y-76200000D03*
X122555000Y-78740000D03*
X120015000Y-76200000D03*
X120015000Y-78740000D03*
X117475000Y-76200000D03*
X117475000Y-78740000D03*
X114935000Y-76200000D03*
D13*
X114935000Y-78740000D03*
G04 #@! TD*
D12*
G04 #@! TO.C,J3*
X144145000Y-93980000D03*
X141605000Y-93980000D03*
X144145000Y-91440000D03*
X141605000Y-91440000D03*
X144145000Y-88900000D03*
X141605000Y-88900000D03*
X144145000Y-86360000D03*
X141605000Y-86360000D03*
X144145000Y-83820000D03*
D13*
X141605000Y-83820000D03*
G04 #@! TD*
D14*
G04 #@! TO.C,J21*
X138430000Y-92710000D03*
G04 #@! TD*
G04 #@! TO.C,J20*
X133985000Y-84455000D03*
G04 #@! TD*
G04 #@! TO.C,J19*
X123571000Y-81915000D03*
G04 #@! TD*
G04 #@! TO.C,J18*
X121920000Y-81915000D03*
G04 #@! TD*
G04 #@! TO.C,J14*
X119888000Y-82296000D03*
G04 #@! TD*
G04 #@! TO.C,J12*
X116840000Y-95250000D03*
G04 #@! TD*
G04 #@! TO.C,J17*
X138430000Y-95250000D03*
G04 #@! TD*
G04 #@! TO.C,J16*
X134112000Y-89408000D03*
G04 #@! TD*
G04 #@! TO.C,J15*
X133604000Y-88392000D03*
G04 #@! TD*
G04 #@! TO.C,J13*
X118110000Y-97790000D03*
G04 #@! TD*
G04 #@! TO.C,J11*
X117475000Y-93980000D03*
G04 #@! TD*
G04 #@! TO.C,J10*
X115570000Y-88265000D03*
G04 #@! TD*
G04 #@! TO.C,J9*
X116840000Y-86995000D03*
G04 #@! TD*
G04 #@! TO.C,J8*
X115570000Y-86360000D03*
G04 #@! TD*
G04 #@! TO.C,J7*
X116205000Y-85090000D03*
G04 #@! TD*
G04 #@! TO.C,J6*
X117475000Y-84455000D03*
G04 #@! TD*
G04 #@! TO.C,J5*
X134112000Y-85852000D03*
G04 #@! TD*
G04 #@! TO.C,GND6*
X144272000Y-80010000D03*
G04 #@! TD*
G04 #@! TO.C,GND5*
X136525000Y-95885000D03*
G04 #@! TD*
G04 #@! TO.C,GND4*
X134239000Y-82169000D03*
G04 #@! TD*
G04 #@! TO.C,GND3*
X115189000Y-82169000D03*
G04 #@! TD*
G04 #@! TO.C,GND2*
X138430000Y-87630000D03*
G04 #@! TD*
G04 #@! TO.C,GND1*
X116205000Y-97917000D03*
G04 #@! TD*
D13*
G04 #@! TO.C,J4*
X116840000Y-90805000D03*
G04 #@! TD*
D12*
G04 #@! TO.C,J2*
X137795000Y-103505000D03*
X137795000Y-106045000D03*
X135255000Y-103505000D03*
X135255000Y-106045000D03*
X132715000Y-103505000D03*
X132715000Y-106045000D03*
X130175000Y-103505000D03*
X130175000Y-106045000D03*
X127635000Y-103505000D03*
X127635000Y-106045000D03*
X125095000Y-103505000D03*
X125095000Y-106045000D03*
X122555000Y-103505000D03*
X122555000Y-106045000D03*
X120015000Y-103505000D03*
X120015000Y-106045000D03*
X117475000Y-103505000D03*
X117475000Y-106045000D03*
X114935000Y-103505000D03*
D13*
X114935000Y-106045000D03*
G04 #@! TD*
D15*
G04 #@! TO.C,U1*
X122383750Y-86373750D03*
X122383750Y-87511250D03*
X122383750Y-88648750D03*
X122383750Y-89786250D03*
X122383750Y-90923750D03*
X122383750Y-92061250D03*
X122383750Y-93198750D03*
X122383750Y-94336250D03*
X123521250Y-86373750D03*
X123521250Y-87511250D03*
X123521250Y-88648750D03*
X123521250Y-89786250D03*
X123521250Y-90923750D03*
X123521250Y-92061250D03*
X123521250Y-93198750D03*
X123521250Y-94336250D03*
X124658750Y-86373750D03*
X124658750Y-87511250D03*
X124658750Y-88648750D03*
X124658750Y-89786250D03*
X124658750Y-90923750D03*
X124658750Y-92061250D03*
X124658750Y-93198750D03*
X124658750Y-94336250D03*
X125796250Y-86373750D03*
X125796250Y-87511250D03*
X125796250Y-88648750D03*
X125796250Y-89786250D03*
X125796250Y-90923750D03*
X125796250Y-92061250D03*
X125796250Y-93198750D03*
X125796250Y-94336250D03*
X126933750Y-86373750D03*
X126933750Y-87511250D03*
X126933750Y-88648750D03*
X126933750Y-89786250D03*
X126933750Y-90923750D03*
X126933750Y-92061250D03*
X126933750Y-93198750D03*
X126933750Y-94336250D03*
X128071250Y-86373750D03*
X128071250Y-87511250D03*
X128071250Y-88648750D03*
X128071250Y-89786250D03*
X128071250Y-90923750D03*
X128071250Y-92061250D03*
X128071250Y-93198750D03*
X128071250Y-94336250D03*
X129208750Y-86373750D03*
X129208750Y-87511250D03*
X129208750Y-88648750D03*
X129208750Y-89786250D03*
X129208750Y-90923750D03*
X129208750Y-92061250D03*
X129208750Y-93198750D03*
X129208750Y-94336250D03*
X130346250Y-86373750D03*
X130346250Y-87511250D03*
X130346250Y-88648750D03*
X130346250Y-89786250D03*
X130346250Y-90923750D03*
X130346250Y-92061250D03*
X130346250Y-93198750D03*
X130346250Y-94336250D03*
G04 #@! TD*
M02*
