G04 #@! TF.GenerationSoftware,KiCad,Pcbnew,(5.1.6)-1*
G04 #@! TF.CreationDate,2021-04-25T19:25:52-07:00*
G04 #@! TF.ProjectId,scum3c-devboard,7363756d-3363-42d6-9465-76626f617264,rev?*
G04 #@! TF.SameCoordinates,Original*
G04 #@! TF.FileFunction,Copper,L2,Bot*
G04 #@! TF.FilePolarity,Positive*
%FSLAX46Y46*%
G04 Gerber Fmt 4.6, Leading zero omitted, Abs format (unit mm)*
G04 Created by KiCad (PCBNEW (5.1.6)-1) date 2021-04-25 19:25:52*
%MOMM*%
%LPD*%
G01*
G04 APERTURE LIST*
G04 #@! TA.AperFunction,ComponentPad*
%ADD10O,1.700000X1.700000*%
G04 #@! TD*
G04 #@! TA.AperFunction,ComponentPad*
%ADD11R,1.700000X1.700000*%
G04 #@! TD*
G04 #@! TA.AperFunction,ComponentPad*
%ADD12C,0.568750*%
G04 #@! TD*
G04 #@! TA.AperFunction,ViaPad*
%ADD13C,0.406400*%
G04 #@! TD*
G04 #@! TA.AperFunction,ViaPad*
%ADD14C,0.812800*%
G04 #@! TD*
G04 #@! TA.AperFunction,Conductor*
%ADD15C,0.203200*%
G04 #@! TD*
G04 #@! TA.AperFunction,Conductor*
%ADD16C,0.406400*%
G04 #@! TD*
G04 #@! TA.AperFunction,Conductor*
%ADD17C,0.127000*%
G04 #@! TD*
G04 APERTURE END LIST*
D10*
G04 #@! TO.P,J2,12*
G04 #@! TO.N,+VDDIO*
X144145000Y-96520000D03*
G04 #@! TO.P,J2,11*
G04 #@! TO.N,GND*
X141605000Y-96520000D03*
G04 #@! TO.P,J2,10*
G04 #@! TO.N,/3WB_DATA*
X144145000Y-93980000D03*
G04 #@! TO.P,J2,9*
G04 #@! TO.N,/GPO_ZERO*
X141605000Y-93980000D03*
G04 #@! TO.P,J2,8*
G04 #@! TO.N,/3WB_ENB*
X144145000Y-91440000D03*
G04 #@! TO.P,J2,7*
G04 #@! TO.N,GND*
X141605000Y-91440000D03*
G04 #@! TO.P,J2,6*
G04 #@! TO.N,/3WB_CLK*
X144145000Y-88900000D03*
G04 #@! TO.P,J2,5*
G04 #@! TO.N,/RsRx*
X141605000Y-88900000D03*
G04 #@! TO.P,J2,4*
G04 #@! TO.N,/HARD_RESET*
X144145000Y-86360000D03*
G04 #@! TO.P,J2,3*
G04 #@! TO.N,/RsTx*
X141605000Y-86360000D03*
G04 #@! TO.P,J2,2*
G04 #@! TO.N,+VBAT*
X144145000Y-83820000D03*
D11*
G04 #@! TO.P,J2,1*
G04 #@! TO.N,+VDDD*
X141605000Y-83820000D03*
G04 #@! TD*
D10*
G04 #@! TO.P,J1,12*
G04 #@! TO.N,/SENSOR_LDO_OUTPUT*
X111125000Y-96520000D03*
G04 #@! TO.P,J1,11*
G04 #@! TO.N,/SENSOR_EXT_IN*
X108585000Y-96520000D03*
G04 #@! TO.P,J1,10*
G04 #@! TO.N,/BOOT_SOURCE_SEL*
X111125000Y-93980000D03*
G04 #@! TO.P,J1,9*
G04 #@! TO.N,+VDDD*
X108585000Y-93980000D03*
G04 #@! TO.P,J1,8*
G04 #@! TO.N,+VDDIO*
X111125000Y-91440000D03*
G04 #@! TO.P,J1,7*
G04 #@! TO.N,+VBAT*
X108585000Y-91440000D03*
G04 #@! TO.P,J1,6*
G04 #@! TO.N,/IMU_VDDIO*
X111125000Y-88900000D03*
G04 #@! TO.P,J1,5*
G04 #@! TO.N,+VDDIO*
X108585000Y-88900000D03*
G04 #@! TO.P,J1,4*
G04 #@! TO.N,/IMU_VDD*
X111125000Y-86360000D03*
G04 #@! TO.P,J1,3*
G04 #@! TO.N,+VDDIO*
X108585000Y-86360000D03*
G04 #@! TO.P,J1,2*
G04 #@! TO.N,/ANTENNA*
X111125000Y-83820000D03*
D11*
G04 #@! TO.P,J1,1*
G04 #@! TO.N,GND*
X108585000Y-83820000D03*
G04 #@! TD*
D10*
G04 #@! TO.P,J3,20*
G04 #@! TO.N,GND*
X137795000Y-103505000D03*
G04 #@! TO.P,J3,19*
X137795000Y-106045000D03*
G04 #@! TO.P,J3,18*
G04 #@! TO.N,/GPIO15*
X135255000Y-103505000D03*
G04 #@! TO.P,J3,17*
G04 #@! TO.N,/GPIO7*
X135255000Y-106045000D03*
G04 #@! TO.P,J3,16*
G04 #@! TO.N,/GPIO14*
X132715000Y-103505000D03*
G04 #@! TO.P,J3,15*
G04 #@! TO.N,/GPIO6*
X132715000Y-106045000D03*
G04 #@! TO.P,J3,14*
G04 #@! TO.N,/GPIO13*
X130175000Y-103505000D03*
G04 #@! TO.P,J3,13*
G04 #@! TO.N,/GPIO5*
X130175000Y-106045000D03*
G04 #@! TO.P,J3,12*
G04 #@! TO.N,/GPIO12*
X127635000Y-103505000D03*
G04 #@! TO.P,J3,11*
G04 #@! TO.N,/GPIO4*
X127635000Y-106045000D03*
G04 #@! TO.P,J3,10*
G04 #@! TO.N,/GPIO11*
X125095000Y-103505000D03*
G04 #@! TO.P,J3,9*
G04 #@! TO.N,/GPIO3*
X125095000Y-106045000D03*
G04 #@! TO.P,J3,8*
G04 #@! TO.N,/GPIO10*
X122555000Y-103505000D03*
G04 #@! TO.P,J3,7*
G04 #@! TO.N,/GPIO2*
X122555000Y-106045000D03*
G04 #@! TO.P,J3,6*
G04 #@! TO.N,/GPIO9*
X120015000Y-103505000D03*
G04 #@! TO.P,J3,5*
G04 #@! TO.N,/GPIO1*
X120015000Y-106045000D03*
G04 #@! TO.P,J3,4*
G04 #@! TO.N,/GPIO8*
X117475000Y-103505000D03*
G04 #@! TO.P,J3,3*
G04 #@! TO.N,/GPIO0*
X117475000Y-106045000D03*
G04 #@! TO.P,J3,2*
G04 #@! TO.N,/GPIO1*
X114935000Y-103505000D03*
D11*
G04 #@! TO.P,J3,1*
G04 #@! TO.N,GND*
X114935000Y-106045000D03*
G04 #@! TD*
D12*
G04 #@! TO.P,U8,101*
G04 #@! TO.N,GND*
X122383750Y-86373750D03*
X122383750Y-87511250D03*
X122383750Y-88648750D03*
X122383750Y-89786250D03*
X122383750Y-90923750D03*
X122383750Y-92061250D03*
X122383750Y-93198750D03*
X122383750Y-94336250D03*
X123521250Y-86373750D03*
X123521250Y-87511250D03*
X123521250Y-88648750D03*
X123521250Y-89786250D03*
X123521250Y-90923750D03*
X123521250Y-92061250D03*
X123521250Y-93198750D03*
X123521250Y-94336250D03*
X124658750Y-86373750D03*
X124658750Y-87511250D03*
X124658750Y-88648750D03*
X124658750Y-89786250D03*
X124658750Y-90923750D03*
X124658750Y-92061250D03*
X124658750Y-93198750D03*
X124658750Y-94336250D03*
X125796250Y-86373750D03*
X125796250Y-87511250D03*
X125796250Y-88648750D03*
X125796250Y-89786250D03*
X125796250Y-90923750D03*
X125796250Y-92061250D03*
X125796250Y-93198750D03*
X125796250Y-94336250D03*
X126933750Y-86373750D03*
X126933750Y-87511250D03*
X126933750Y-88648750D03*
X126933750Y-89786250D03*
X126933750Y-90923750D03*
X126933750Y-92061250D03*
X126933750Y-93198750D03*
X126933750Y-94336250D03*
X128071250Y-86373750D03*
X128071250Y-87511250D03*
X128071250Y-88648750D03*
X128071250Y-89786250D03*
X128071250Y-90923750D03*
X128071250Y-92061250D03*
X128071250Y-93198750D03*
X128071250Y-94336250D03*
X129208750Y-86373750D03*
X129208750Y-87511250D03*
X129208750Y-88648750D03*
X129208750Y-89786250D03*
X129208750Y-90923750D03*
X129208750Y-92061250D03*
X129208750Y-93198750D03*
X129208750Y-94336250D03*
X130346250Y-86373750D03*
X130346250Y-87511250D03*
X130346250Y-88648750D03*
X130346250Y-89786250D03*
X130346250Y-90923750D03*
X130346250Y-92061250D03*
X130346250Y-93198750D03*
X130346250Y-94336250D03*
G04 #@! TD*
D13*
G04 #@! TO.N,GND*
X119380000Y-100965000D03*
G04 #@! TO.N,+VBAT*
X133350000Y-92075000D03*
X133350000Y-90723200D03*
D14*
X118745000Y-86995000D03*
X118110000Y-90805000D03*
X119380000Y-95478610D03*
G04 #@! TO.N,+VDDD*
X115671600Y-92710000D03*
X125730000Y-83185000D03*
D13*
G04 #@! TO.N,+VDDIO*
X125533200Y-100330000D03*
D14*
X144145000Y-100330000D03*
D13*
G04 #@! TO.N,/GPIO7*
X125095000Y-100837990D03*
G04 #@! TO.N,/GPIO5*
X123825000Y-100837990D03*
G04 #@! TO.N,/GPIO3*
X122514778Y-100893680D03*
G04 #@! TO.N,/GPIO1*
X120650000Y-100965000D03*
G04 #@! TO.N,/GPIO6*
X124460000Y-100837990D03*
G04 #@! TO.N,/GPIO4*
X123190000Y-100837990D03*
G04 #@! TO.N,/GPIO2*
X121285000Y-100965000D03*
G04 #@! TO.N,/GPIO0*
X120015000Y-100965000D03*
G04 #@! TO.N,/SENSOR_LDO_OUTPUT*
X133350000Y-96520000D03*
G04 #@! TO.N,/SENSOR_EXT_IN*
X133985000Y-96520000D03*
G04 #@! TO.N,/BOOT_SOURCE_SEL*
X133985000Y-90805000D03*
D14*
G04 #@! TO.N,/GPIO13*
X114300000Y-78740000D03*
X113665000Y-95250000D03*
G04 #@! TO.N,/GPIO14*
X121285000Y-80010000D03*
D13*
X132715000Y-99695000D03*
D14*
G04 #@! TO.N,/GPIO15*
X121285000Y-78740000D03*
X135890000Y-99593400D03*
G04 #@! TO.N,/GPIO12*
X115570000Y-75565000D03*
X114935000Y-95250000D03*
G04 #@! TD*
D15*
G04 #@! TO.N,+VBAT*
X133350000Y-92075000D02*
X133350000Y-90723200D01*
D16*
X118745000Y-90170000D02*
X118110000Y-90805000D01*
X118745000Y-86995000D02*
X118745000Y-90170000D01*
X118110000Y-90805000D02*
X119380000Y-92075000D01*
X119380000Y-92075000D02*
X119380000Y-95478610D01*
G04 #@! TO.N,+VDDD*
X115671600Y-92710000D02*
X115671600Y-84353400D01*
X115671600Y-84353400D02*
X116840000Y-83185000D01*
X116840000Y-83185000D02*
X125730000Y-83185000D01*
G04 #@! TO.N,+VDDIO*
X125533200Y-100330000D02*
X144145000Y-100330000D01*
X125533200Y-100330000D02*
X125330001Y-100126801D01*
X107315000Y-88900000D02*
X108585000Y-88900000D01*
X106680000Y-89535000D02*
X107315000Y-88900000D01*
X108585000Y-88900000D02*
X108585000Y-86360000D01*
X111125000Y-91440000D02*
X108585000Y-88900000D01*
X107746801Y-100126801D02*
X106680000Y-99060000D01*
X106680000Y-99060000D02*
X106680000Y-89535000D01*
X125330001Y-100126801D02*
X107746801Y-100126801D01*
X144145000Y-100330000D02*
X144145000Y-96520000D01*
D15*
G04 #@! TO.N,/GPIO7*
X135255000Y-106045000D02*
X135890000Y-106045000D01*
X135890000Y-106045000D02*
X136525000Y-105410000D01*
X136525000Y-105410000D02*
X136525000Y-101600000D01*
X136525000Y-101600000D02*
X135762990Y-100837990D01*
X125095000Y-100837990D02*
X135762990Y-100837990D01*
G04 #@! TO.N,/GPIO5*
X123825000Y-100837990D02*
X124587010Y-101600000D01*
X124587010Y-101600000D02*
X130810000Y-101600000D01*
X130810000Y-101600000D02*
X131445000Y-102235000D01*
X131445000Y-102235000D02*
X131445000Y-105410000D01*
X130810000Y-106045000D02*
X130175000Y-106045000D01*
X131445000Y-105410000D02*
X130810000Y-106045000D01*
G04 #@! TO.N,/GPIO3*
X122514778Y-100893680D02*
X123881518Y-102260420D01*
X123881518Y-102260420D02*
X125755420Y-102260420D01*
X125755420Y-102260420D02*
X126365000Y-102870000D01*
X126365000Y-102870000D02*
X126365000Y-105410000D01*
X125730000Y-106045000D02*
X125095000Y-106045000D01*
X126365000Y-105410000D02*
X125730000Y-106045000D01*
G04 #@! TO.N,/GPIO1*
X120650000Y-100965000D02*
X121285000Y-101600000D01*
X121285000Y-101600000D02*
X121285000Y-105410000D01*
X121285000Y-105410000D02*
X120650000Y-106045000D01*
X120650000Y-106045000D02*
X120015000Y-106045000D01*
G04 #@! TO.N,/GPIO6*
X128600209Y-101269791D02*
X128701800Y-101168200D01*
X124460000Y-100837990D02*
X124891801Y-101269791D01*
X124891801Y-101269791D02*
X128600209Y-101269791D01*
X128701800Y-101168200D02*
X133553200Y-101168200D01*
X133553200Y-101168200D02*
X133985000Y-101600000D01*
X133985000Y-101600000D02*
X133985000Y-105410000D01*
X132715000Y-106045000D02*
X133350000Y-106045000D01*
X133350000Y-106045000D02*
X133985000Y-105410000D01*
G04 #@! TO.N,/GPIO4*
X123190000Y-100837990D02*
X124121998Y-101769988D01*
X127635000Y-106045000D02*
X128905000Y-104775000D01*
X128905000Y-104775000D02*
X128905000Y-102235000D01*
X128905000Y-102235000D02*
X128600210Y-101930210D01*
X124290011Y-101769988D02*
X124121998Y-101769988D01*
X124450233Y-101930210D02*
X124290011Y-101769988D01*
X128600210Y-101930210D02*
X124450233Y-101930210D01*
G04 #@! TO.N,/GPIO2*
X123825000Y-102870000D02*
X121920000Y-100965000D01*
X123825000Y-105410000D02*
X123825000Y-102870000D01*
X122555000Y-106045000D02*
X123190000Y-106045000D01*
X121920000Y-100965000D02*
X121285000Y-100965000D01*
X123190000Y-106045000D02*
X123825000Y-105410000D01*
G04 #@! TO.N,/GPIO0*
X120015000Y-100965000D02*
X118745000Y-102235000D01*
X118745000Y-102235000D02*
X118745000Y-105410000D01*
X118745000Y-105410000D02*
X118110000Y-106045000D01*
X118110000Y-106045000D02*
X117475000Y-106045000D01*
G04 #@! TO.N,/SENSOR_LDO_OUTPUT*
X133350000Y-96520000D02*
X111125000Y-96520000D01*
G04 #@! TO.N,/SENSOR_EXT_IN*
X109663601Y-97598601D02*
X111646609Y-97598601D01*
X112395000Y-96850210D02*
X133045210Y-96850210D01*
X111646609Y-97598601D02*
X112395000Y-96850210D01*
X108585000Y-96520000D02*
X109663601Y-97598601D01*
X133553199Y-96951801D02*
X133146801Y-96951801D01*
X133146801Y-96951801D02*
X133045210Y-96850210D01*
X133985000Y-96520000D02*
X133553199Y-96951801D01*
G04 #@! TO.N,/BOOT_SOURCE_SEL*
X111125000Y-94615000D02*
X111125000Y-93980000D01*
X131539694Y-96113610D02*
X112623610Y-96113610D01*
X131768304Y-95885000D02*
X131539694Y-96113610D01*
X112623610Y-96113610D02*
X111125000Y-94615000D01*
X133985000Y-95250000D02*
X133350000Y-95885000D01*
X133350000Y-95885000D02*
X131768304Y-95885000D01*
X133985000Y-90805000D02*
X133985000Y-95250000D01*
D16*
G04 #@! TO.N,/GPIO13*
X114300000Y-78740000D02*
X113665000Y-79375000D01*
X113665000Y-79375000D02*
X113665000Y-95250000D01*
G04 #@! TO.N,/GPIO14*
X121285000Y-80010000D02*
X134620000Y-80010000D01*
X134620000Y-80010000D02*
X135255000Y-80645000D01*
X132715000Y-99695000D02*
X133985000Y-99695000D01*
X133985000Y-99695000D02*
X135255000Y-98425000D01*
X135255000Y-98425000D02*
X135255000Y-80645000D01*
G04 #@! TO.N,/GPIO15*
X135890000Y-99593400D02*
X135890000Y-79375000D01*
X135890000Y-79375000D02*
X135255000Y-78740000D01*
X135255000Y-78740000D02*
X121285000Y-78740000D01*
G04 #@! TO.N,/GPIO12*
X115570000Y-75565000D02*
X115570000Y-78740000D01*
X115570000Y-78740000D02*
X114935000Y-79375000D01*
X114935000Y-79375000D02*
X114935000Y-95250000D01*
G04 #@! TD*
D17*
G04 #@! TO.N,GND*
G36*
X144989758Y-74692518D02*
G01*
X145537809Y-74857985D01*
X146043290Y-75126754D01*
X146486936Y-75488582D01*
X146851856Y-75929695D01*
X147124144Y-76433280D01*
X147293434Y-76980170D01*
X147354466Y-77560846D01*
X147354501Y-77570835D01*
X147354500Y-105498240D01*
X147297482Y-106079758D01*
X147132015Y-106627809D01*
X146863246Y-107133290D01*
X146501416Y-107576939D01*
X146060305Y-107941855D01*
X145556720Y-108214144D01*
X145009831Y-108383433D01*
X144429155Y-108444466D01*
X144419453Y-108444500D01*
X108236760Y-108444500D01*
X107655242Y-108387482D01*
X107107191Y-108222015D01*
X106601710Y-107953246D01*
X106158061Y-107591416D01*
X105793145Y-107150305D01*
X105520856Y-106646720D01*
X105351567Y-106099831D01*
X105290534Y-105519155D01*
X105290500Y-105509453D01*
X105290500Y-105297329D01*
X107441035Y-105297329D01*
X107441035Y-105522671D01*
X107484997Y-105743682D01*
X107571232Y-105951871D01*
X107696424Y-106139235D01*
X107855765Y-106298576D01*
X108043129Y-106423768D01*
X108251318Y-106510003D01*
X108472329Y-106553965D01*
X108697671Y-106553965D01*
X108918682Y-106510003D01*
X109126871Y-106423768D01*
X109314235Y-106298576D01*
X109473576Y-106139235D01*
X109598768Y-105951871D01*
X109685003Y-105743682D01*
X109728965Y-105522671D01*
X109728965Y-105297329D01*
X109685003Y-105076318D01*
X109598768Y-104868129D01*
X109473576Y-104680765D01*
X109314235Y-104521424D01*
X109126871Y-104396232D01*
X108918682Y-104309997D01*
X108697671Y-104266035D01*
X108472329Y-104266035D01*
X108251318Y-104309997D01*
X108043129Y-104396232D01*
X107855765Y-104521424D01*
X107696424Y-104680765D01*
X107571232Y-104868129D01*
X107484997Y-105076318D01*
X107441035Y-105297329D01*
X105290500Y-105297329D01*
X105290500Y-103402520D01*
X113894500Y-103402520D01*
X113894500Y-103607480D01*
X113934485Y-103808503D01*
X114012920Y-103997862D01*
X114126791Y-104168280D01*
X114271720Y-104313209D01*
X114442138Y-104427080D01*
X114631497Y-104505515D01*
X114832520Y-104545500D01*
X115037480Y-104545500D01*
X115238503Y-104505515D01*
X115427862Y-104427080D01*
X115598280Y-104313209D01*
X115743209Y-104168280D01*
X115857080Y-103997862D01*
X115935515Y-103808503D01*
X115975500Y-103607480D01*
X115975500Y-103402520D01*
X115935515Y-103201497D01*
X115857080Y-103012138D01*
X115743209Y-102841720D01*
X115598280Y-102696791D01*
X115427862Y-102582920D01*
X115238503Y-102504485D01*
X115037480Y-102464500D01*
X114832520Y-102464500D01*
X114631497Y-102504485D01*
X114442138Y-102582920D01*
X114271720Y-102696791D01*
X114126791Y-102841720D01*
X114012920Y-103012138D01*
X113934485Y-103201497D01*
X113894500Y-103402520D01*
X105290500Y-103402520D01*
X105290500Y-89535000D01*
X106284397Y-89535000D01*
X106286301Y-89554333D01*
X106286300Y-99040678D01*
X106284397Y-99060000D01*
X106286300Y-99079322D01*
X106286300Y-99079332D01*
X106291997Y-99137178D01*
X106314510Y-99211390D01*
X106351067Y-99279785D01*
X106400266Y-99339734D01*
X106415285Y-99352060D01*
X107454745Y-100391521D01*
X107467067Y-100406535D01*
X107482080Y-100418856D01*
X107482083Y-100418859D01*
X107527014Y-100455734D01*
X107563571Y-100475273D01*
X107595410Y-100492291D01*
X107669622Y-100514804D01*
X107727468Y-100520501D01*
X107727478Y-100520501D01*
X107746800Y-100522404D01*
X107766123Y-100520501D01*
X122386925Y-100520501D01*
X122328291Y-100544788D01*
X122263809Y-100587873D01*
X122208971Y-100642711D01*
X122165886Y-100707193D01*
X122139349Y-100771258D01*
X122136693Y-100768602D01*
X122127545Y-100757455D01*
X122083067Y-100720953D01*
X122032323Y-100693829D01*
X121977262Y-100677127D01*
X121934346Y-100672900D01*
X121934338Y-100672900D01*
X121920000Y-100671488D01*
X121905662Y-100672900D01*
X121549676Y-100672900D01*
X121535969Y-100659193D01*
X121471487Y-100616108D01*
X121399838Y-100586430D01*
X121323776Y-100571300D01*
X121246224Y-100571300D01*
X121170162Y-100586430D01*
X121098513Y-100616108D01*
X121034031Y-100659193D01*
X120979193Y-100714031D01*
X120967500Y-100731531D01*
X120955807Y-100714031D01*
X120900969Y-100659193D01*
X120836487Y-100616108D01*
X120764838Y-100586430D01*
X120688776Y-100571300D01*
X120611224Y-100571300D01*
X120535162Y-100586430D01*
X120463513Y-100616108D01*
X120399031Y-100659193D01*
X120344193Y-100714031D01*
X120332500Y-100731531D01*
X120320807Y-100714031D01*
X120265969Y-100659193D01*
X120201487Y-100616108D01*
X120129838Y-100586430D01*
X120053776Y-100571300D01*
X119976224Y-100571300D01*
X119900162Y-100586430D01*
X119828513Y-100616108D01*
X119764031Y-100659193D01*
X119709193Y-100714031D01*
X119666108Y-100778513D01*
X119636430Y-100850162D01*
X119621300Y-100926224D01*
X119621300Y-100945609D01*
X118548602Y-102018307D01*
X118537455Y-102027455D01*
X118500953Y-102071934D01*
X118473829Y-102122678D01*
X118457127Y-102177739D01*
X118452900Y-102220655D01*
X118452900Y-102220662D01*
X118451488Y-102235000D01*
X118452900Y-102249338D01*
X118452900Y-103146900D01*
X118397080Y-103012138D01*
X118283209Y-102841720D01*
X118138280Y-102696791D01*
X117967862Y-102582920D01*
X117778503Y-102504485D01*
X117577480Y-102464500D01*
X117372520Y-102464500D01*
X117171497Y-102504485D01*
X116982138Y-102582920D01*
X116811720Y-102696791D01*
X116666791Y-102841720D01*
X116552920Y-103012138D01*
X116474485Y-103201497D01*
X116434500Y-103402520D01*
X116434500Y-103607480D01*
X116474485Y-103808503D01*
X116552920Y-103997862D01*
X116666791Y-104168280D01*
X116811720Y-104313209D01*
X116982138Y-104427080D01*
X117171497Y-104505515D01*
X117372520Y-104545500D01*
X117577480Y-104545500D01*
X117778503Y-104505515D01*
X117967862Y-104427080D01*
X118138280Y-104313209D01*
X118283209Y-104168280D01*
X118397080Y-103997862D01*
X118452901Y-103863100D01*
X118452901Y-105289007D01*
X118314043Y-105427866D01*
X118283209Y-105381720D01*
X118138280Y-105236791D01*
X117967862Y-105122920D01*
X117778503Y-105044485D01*
X117577480Y-105004500D01*
X117372520Y-105004500D01*
X117171497Y-105044485D01*
X116982138Y-105122920D01*
X116811720Y-105236791D01*
X116666791Y-105381720D01*
X116552920Y-105552138D01*
X116474485Y-105741497D01*
X116434500Y-105942520D01*
X116434500Y-106147480D01*
X116474485Y-106348503D01*
X116552920Y-106537862D01*
X116666791Y-106708280D01*
X116811720Y-106853209D01*
X116982138Y-106967080D01*
X117171497Y-107045515D01*
X117372520Y-107085500D01*
X117577480Y-107085500D01*
X117778503Y-107045515D01*
X117967862Y-106967080D01*
X118138280Y-106853209D01*
X118283209Y-106708280D01*
X118397080Y-106537862D01*
X118475515Y-106348503D01*
X118515500Y-106147480D01*
X118515500Y-106052591D01*
X118941403Y-105626689D01*
X118952545Y-105617545D01*
X118964909Y-105602480D01*
X118989047Y-105573067D01*
X119016171Y-105522323D01*
X119032873Y-105467262D01*
X119038513Y-105410000D01*
X119037100Y-105395654D01*
X119037100Y-103863100D01*
X119092920Y-103997862D01*
X119206791Y-104168280D01*
X119351720Y-104313209D01*
X119522138Y-104427080D01*
X119711497Y-104505515D01*
X119912520Y-104545500D01*
X120117480Y-104545500D01*
X120318503Y-104505515D01*
X120507862Y-104427080D01*
X120678280Y-104313209D01*
X120823209Y-104168280D01*
X120937080Y-103997862D01*
X120992901Y-103863100D01*
X120992901Y-105289007D01*
X120854043Y-105427866D01*
X120823209Y-105381720D01*
X120678280Y-105236791D01*
X120507862Y-105122920D01*
X120318503Y-105044485D01*
X120117480Y-105004500D01*
X119912520Y-105004500D01*
X119711497Y-105044485D01*
X119522138Y-105122920D01*
X119351720Y-105236791D01*
X119206791Y-105381720D01*
X119092920Y-105552138D01*
X119014485Y-105741497D01*
X118974500Y-105942520D01*
X118974500Y-106147480D01*
X119014485Y-106348503D01*
X119092920Y-106537862D01*
X119206791Y-106708280D01*
X119351720Y-106853209D01*
X119522138Y-106967080D01*
X119711497Y-107045515D01*
X119912520Y-107085500D01*
X120117480Y-107085500D01*
X120318503Y-107045515D01*
X120507862Y-106967080D01*
X120678280Y-106853209D01*
X120823209Y-106708280D01*
X120937080Y-106537862D01*
X121015515Y-106348503D01*
X121055500Y-106147480D01*
X121055500Y-106052591D01*
X121481403Y-105626689D01*
X121492545Y-105617545D01*
X121504909Y-105602480D01*
X121529047Y-105573067D01*
X121556171Y-105522323D01*
X121572873Y-105467262D01*
X121578513Y-105410000D01*
X121577100Y-105395654D01*
X121577100Y-103863100D01*
X121632920Y-103997862D01*
X121746791Y-104168280D01*
X121891720Y-104313209D01*
X122062138Y-104427080D01*
X122251497Y-104505515D01*
X122452520Y-104545500D01*
X122657480Y-104545500D01*
X122858503Y-104505515D01*
X123047862Y-104427080D01*
X123218280Y-104313209D01*
X123363209Y-104168280D01*
X123477080Y-103997862D01*
X123532901Y-103863100D01*
X123532900Y-105289008D01*
X123394043Y-105427866D01*
X123363209Y-105381720D01*
X123218280Y-105236791D01*
X123047862Y-105122920D01*
X122858503Y-105044485D01*
X122657480Y-105004500D01*
X122452520Y-105004500D01*
X122251497Y-105044485D01*
X122062138Y-105122920D01*
X121891720Y-105236791D01*
X121746791Y-105381720D01*
X121632920Y-105552138D01*
X121554485Y-105741497D01*
X121514500Y-105942520D01*
X121514500Y-106147480D01*
X121554485Y-106348503D01*
X121632920Y-106537862D01*
X121746791Y-106708280D01*
X121891720Y-106853209D01*
X122062138Y-106967080D01*
X122251497Y-107045515D01*
X122452520Y-107085500D01*
X122657480Y-107085500D01*
X122858503Y-107045515D01*
X123047862Y-106967080D01*
X123218280Y-106853209D01*
X123363209Y-106708280D01*
X123477080Y-106537862D01*
X123555515Y-106348503D01*
X123595500Y-106147480D01*
X123595500Y-106052591D01*
X124021404Y-105626688D01*
X124032545Y-105617545D01*
X124044909Y-105602480D01*
X124069047Y-105573067D01*
X124096171Y-105522323D01*
X124112873Y-105467262D01*
X124118513Y-105410000D01*
X124117100Y-105395654D01*
X124117100Y-103863100D01*
X124172920Y-103997862D01*
X124286791Y-104168280D01*
X124431720Y-104313209D01*
X124602138Y-104427080D01*
X124791497Y-104505515D01*
X124992520Y-104545500D01*
X125197480Y-104545500D01*
X125398503Y-104505515D01*
X125587862Y-104427080D01*
X125758280Y-104313209D01*
X125903209Y-104168280D01*
X126017080Y-103997862D01*
X126072900Y-103863100D01*
X126072901Y-105289007D01*
X125934043Y-105427866D01*
X125903209Y-105381720D01*
X125758280Y-105236791D01*
X125587862Y-105122920D01*
X125398503Y-105044485D01*
X125197480Y-105004500D01*
X124992520Y-105004500D01*
X124791497Y-105044485D01*
X124602138Y-105122920D01*
X124431720Y-105236791D01*
X124286791Y-105381720D01*
X124172920Y-105552138D01*
X124094485Y-105741497D01*
X124054500Y-105942520D01*
X124054500Y-106147480D01*
X124094485Y-106348503D01*
X124172920Y-106537862D01*
X124286791Y-106708280D01*
X124431720Y-106853209D01*
X124602138Y-106967080D01*
X124791497Y-107045515D01*
X124992520Y-107085500D01*
X125197480Y-107085500D01*
X125398503Y-107045515D01*
X125587862Y-106967080D01*
X125758280Y-106853209D01*
X125903209Y-106708280D01*
X126017080Y-106537862D01*
X126095515Y-106348503D01*
X126135500Y-106147480D01*
X126135500Y-106052591D01*
X126561403Y-105626689D01*
X126572545Y-105617545D01*
X126584909Y-105602480D01*
X126609047Y-105573067D01*
X126636171Y-105522323D01*
X126652873Y-105467262D01*
X126658513Y-105410000D01*
X126657100Y-105395654D01*
X126657100Y-103863100D01*
X126712920Y-103997862D01*
X126826791Y-104168280D01*
X126971720Y-104313209D01*
X127142138Y-104427080D01*
X127331497Y-104505515D01*
X127532520Y-104545500D01*
X127737480Y-104545500D01*
X127938503Y-104505515D01*
X128127862Y-104427080D01*
X128298280Y-104313209D01*
X128443209Y-104168280D01*
X128557080Y-103997862D01*
X128612900Y-103863100D01*
X128612900Y-104654009D01*
X128137529Y-105129380D01*
X128127862Y-105122920D01*
X127938503Y-105044485D01*
X127737480Y-105004500D01*
X127532520Y-105004500D01*
X127331497Y-105044485D01*
X127142138Y-105122920D01*
X126971720Y-105236791D01*
X126826791Y-105381720D01*
X126712920Y-105552138D01*
X126634485Y-105741497D01*
X126594500Y-105942520D01*
X126594500Y-106147480D01*
X126634485Y-106348503D01*
X126712920Y-106537862D01*
X126826791Y-106708280D01*
X126971720Y-106853209D01*
X127142138Y-106967080D01*
X127331497Y-107045515D01*
X127532520Y-107085500D01*
X127737480Y-107085500D01*
X127938503Y-107045515D01*
X128127862Y-106967080D01*
X128298280Y-106853209D01*
X128443209Y-106708280D01*
X128557080Y-106537862D01*
X128635515Y-106348503D01*
X128675500Y-106147480D01*
X128675500Y-105942520D01*
X128635515Y-105741497D01*
X128557080Y-105552138D01*
X128550620Y-105542471D01*
X129101399Y-104991692D01*
X129112545Y-104982545D01*
X129149047Y-104938067D01*
X129176171Y-104887323D01*
X129192873Y-104832262D01*
X129197100Y-104789346D01*
X129197100Y-104789337D01*
X129198512Y-104775001D01*
X129197100Y-104760665D01*
X129197100Y-103863100D01*
X129252920Y-103997862D01*
X129366791Y-104168280D01*
X129511720Y-104313209D01*
X129682138Y-104427080D01*
X129871497Y-104505515D01*
X130072520Y-104545500D01*
X130277480Y-104545500D01*
X130478503Y-104505515D01*
X130667862Y-104427080D01*
X130838280Y-104313209D01*
X130983209Y-104168280D01*
X131097080Y-103997862D01*
X131152901Y-103863100D01*
X131152901Y-105289007D01*
X131014043Y-105427866D01*
X130983209Y-105381720D01*
X130838280Y-105236791D01*
X130667862Y-105122920D01*
X130478503Y-105044485D01*
X130277480Y-105004500D01*
X130072520Y-105004500D01*
X129871497Y-105044485D01*
X129682138Y-105122920D01*
X129511720Y-105236791D01*
X129366791Y-105381720D01*
X129252920Y-105552138D01*
X129174485Y-105741497D01*
X129134500Y-105942520D01*
X129134500Y-106147480D01*
X129174485Y-106348503D01*
X129252920Y-106537862D01*
X129366791Y-106708280D01*
X129511720Y-106853209D01*
X129682138Y-106967080D01*
X129871497Y-107045515D01*
X130072520Y-107085500D01*
X130277480Y-107085500D01*
X130478503Y-107045515D01*
X130667862Y-106967080D01*
X130838280Y-106853209D01*
X130983209Y-106708280D01*
X131097080Y-106537862D01*
X131175515Y-106348503D01*
X131215500Y-106147480D01*
X131215500Y-106052591D01*
X131641403Y-105626689D01*
X131652545Y-105617545D01*
X131664909Y-105602480D01*
X131689047Y-105573067D01*
X131716171Y-105522323D01*
X131732873Y-105467262D01*
X131738513Y-105410000D01*
X131737100Y-105395654D01*
X131737100Y-103863100D01*
X131792920Y-103997862D01*
X131906791Y-104168280D01*
X132051720Y-104313209D01*
X132222138Y-104427080D01*
X132411497Y-104505515D01*
X132612520Y-104545500D01*
X132817480Y-104545500D01*
X133018503Y-104505515D01*
X133207862Y-104427080D01*
X133378280Y-104313209D01*
X133523209Y-104168280D01*
X133637080Y-103997862D01*
X133692901Y-103863100D01*
X133692901Y-105289007D01*
X133554043Y-105427866D01*
X133523209Y-105381720D01*
X133378280Y-105236791D01*
X133207862Y-105122920D01*
X133018503Y-105044485D01*
X132817480Y-105004500D01*
X132612520Y-105004500D01*
X132411497Y-105044485D01*
X132222138Y-105122920D01*
X132051720Y-105236791D01*
X131906791Y-105381720D01*
X131792920Y-105552138D01*
X131714485Y-105741497D01*
X131674500Y-105942520D01*
X131674500Y-106147480D01*
X131714485Y-106348503D01*
X131792920Y-106537862D01*
X131906791Y-106708280D01*
X132051720Y-106853209D01*
X132222138Y-106967080D01*
X132411497Y-107045515D01*
X132612520Y-107085500D01*
X132817480Y-107085500D01*
X133018503Y-107045515D01*
X133207862Y-106967080D01*
X133378280Y-106853209D01*
X133523209Y-106708280D01*
X133637080Y-106537862D01*
X133715515Y-106348503D01*
X133755500Y-106147480D01*
X133755500Y-106052591D01*
X134181403Y-105626689D01*
X134192545Y-105617545D01*
X134204909Y-105602480D01*
X134229047Y-105573067D01*
X134256171Y-105522323D01*
X134272873Y-105467262D01*
X134278513Y-105410000D01*
X134277100Y-105395654D01*
X134277100Y-103863100D01*
X134332920Y-103997862D01*
X134446791Y-104168280D01*
X134591720Y-104313209D01*
X134762138Y-104427080D01*
X134951497Y-104505515D01*
X135152520Y-104545500D01*
X135357480Y-104545500D01*
X135558503Y-104505515D01*
X135747862Y-104427080D01*
X135918280Y-104313209D01*
X136063209Y-104168280D01*
X136177080Y-103997862D01*
X136232900Y-103863100D01*
X136232900Y-105289008D01*
X136094043Y-105427866D01*
X136063209Y-105381720D01*
X135918280Y-105236791D01*
X135747862Y-105122920D01*
X135558503Y-105044485D01*
X135357480Y-105004500D01*
X135152520Y-105004500D01*
X134951497Y-105044485D01*
X134762138Y-105122920D01*
X134591720Y-105236791D01*
X134446791Y-105381720D01*
X134332920Y-105552138D01*
X134254485Y-105741497D01*
X134214500Y-105942520D01*
X134214500Y-106147480D01*
X134254485Y-106348503D01*
X134332920Y-106537862D01*
X134446791Y-106708280D01*
X134591720Y-106853209D01*
X134762138Y-106967080D01*
X134951497Y-107045515D01*
X135152520Y-107085500D01*
X135357480Y-107085500D01*
X135558503Y-107045515D01*
X135747862Y-106967080D01*
X135918280Y-106853209D01*
X136063209Y-106708280D01*
X136177080Y-106537862D01*
X136255515Y-106348503D01*
X136295500Y-106147480D01*
X136295500Y-106052591D01*
X136721404Y-105626688D01*
X136732545Y-105617545D01*
X136744909Y-105602480D01*
X136769047Y-105573067D01*
X136796171Y-105522323D01*
X136812873Y-105467262D01*
X136818513Y-105410000D01*
X136817100Y-105395654D01*
X136817100Y-105297329D01*
X143001035Y-105297329D01*
X143001035Y-105522671D01*
X143044997Y-105743682D01*
X143131232Y-105951871D01*
X143256424Y-106139235D01*
X143415765Y-106298576D01*
X143603129Y-106423768D01*
X143811318Y-106510003D01*
X144032329Y-106553965D01*
X144257671Y-106553965D01*
X144478682Y-106510003D01*
X144686871Y-106423768D01*
X144874235Y-106298576D01*
X145033576Y-106139235D01*
X145158768Y-105951871D01*
X145245003Y-105743682D01*
X145288965Y-105522671D01*
X145288965Y-105297329D01*
X145245003Y-105076318D01*
X145158768Y-104868129D01*
X145033576Y-104680765D01*
X144874235Y-104521424D01*
X144686871Y-104396232D01*
X144478682Y-104309997D01*
X144257671Y-104266035D01*
X144032329Y-104266035D01*
X143811318Y-104309997D01*
X143603129Y-104396232D01*
X143415765Y-104521424D01*
X143256424Y-104680765D01*
X143131232Y-104868129D01*
X143044997Y-105076318D01*
X143001035Y-105297329D01*
X136817100Y-105297329D01*
X136817100Y-101614346D01*
X136818513Y-101600000D01*
X136812873Y-101542738D01*
X136796171Y-101487677D01*
X136769047Y-101436933D01*
X136741690Y-101403598D01*
X136741689Y-101403597D01*
X136732545Y-101392455D01*
X136721402Y-101383310D01*
X136061791Y-100723700D01*
X143694557Y-100723700D01*
X143764499Y-100793642D01*
X143862262Y-100858966D01*
X143970891Y-100903961D01*
X144086210Y-100926900D01*
X144203790Y-100926900D01*
X144319109Y-100903961D01*
X144427738Y-100858966D01*
X144525501Y-100793642D01*
X144608642Y-100710501D01*
X144673966Y-100612738D01*
X144718961Y-100504109D01*
X144741900Y-100388790D01*
X144741900Y-100271210D01*
X144718961Y-100155891D01*
X144673966Y-100047262D01*
X144608642Y-99949499D01*
X144538700Y-99879557D01*
X144538700Y-97483154D01*
X144637862Y-97442080D01*
X144808280Y-97328209D01*
X144953209Y-97183280D01*
X145067080Y-97012862D01*
X145145515Y-96823503D01*
X145185500Y-96622480D01*
X145185500Y-96417520D01*
X145145515Y-96216497D01*
X145067080Y-96027138D01*
X144953209Y-95856720D01*
X144808280Y-95711791D01*
X144637862Y-95597920D01*
X144448503Y-95519485D01*
X144247480Y-95479500D01*
X144042520Y-95479500D01*
X143841497Y-95519485D01*
X143652138Y-95597920D01*
X143481720Y-95711791D01*
X143336791Y-95856720D01*
X143222920Y-96027138D01*
X143144485Y-96216497D01*
X143104500Y-96417520D01*
X143104500Y-96622480D01*
X143144485Y-96823503D01*
X143222920Y-97012862D01*
X143336791Y-97183280D01*
X143481720Y-97328209D01*
X143652138Y-97442080D01*
X143751301Y-97483155D01*
X143751300Y-99879557D01*
X143694557Y-99936300D01*
X136378767Y-99936300D01*
X136418966Y-99876138D01*
X136463961Y-99767509D01*
X136486900Y-99652190D01*
X136486900Y-99534610D01*
X136463961Y-99419291D01*
X136418966Y-99310662D01*
X136353642Y-99212899D01*
X136283700Y-99142957D01*
X136283700Y-93877520D01*
X140564500Y-93877520D01*
X140564500Y-94082480D01*
X140604485Y-94283503D01*
X140682920Y-94472862D01*
X140796791Y-94643280D01*
X140941720Y-94788209D01*
X141112138Y-94902080D01*
X141301497Y-94980515D01*
X141502520Y-95020500D01*
X141707480Y-95020500D01*
X141908503Y-94980515D01*
X142097862Y-94902080D01*
X142268280Y-94788209D01*
X142413209Y-94643280D01*
X142527080Y-94472862D01*
X142605515Y-94283503D01*
X142645500Y-94082480D01*
X142645500Y-93877520D01*
X143104500Y-93877520D01*
X143104500Y-94082480D01*
X143144485Y-94283503D01*
X143222920Y-94472862D01*
X143336791Y-94643280D01*
X143481720Y-94788209D01*
X143652138Y-94902080D01*
X143841497Y-94980515D01*
X144042520Y-95020500D01*
X144247480Y-95020500D01*
X144448503Y-94980515D01*
X144637862Y-94902080D01*
X144808280Y-94788209D01*
X144953209Y-94643280D01*
X145067080Y-94472862D01*
X145145515Y-94283503D01*
X145185500Y-94082480D01*
X145185500Y-93877520D01*
X145145515Y-93676497D01*
X145067080Y-93487138D01*
X144953209Y-93316720D01*
X144808280Y-93171791D01*
X144637862Y-93057920D01*
X144448503Y-92979485D01*
X144247480Y-92939500D01*
X144042520Y-92939500D01*
X143841497Y-92979485D01*
X143652138Y-93057920D01*
X143481720Y-93171791D01*
X143336791Y-93316720D01*
X143222920Y-93487138D01*
X143144485Y-93676497D01*
X143104500Y-93877520D01*
X142645500Y-93877520D01*
X142605515Y-93676497D01*
X142527080Y-93487138D01*
X142413209Y-93316720D01*
X142268280Y-93171791D01*
X142097862Y-93057920D01*
X141908503Y-92979485D01*
X141707480Y-92939500D01*
X141502520Y-92939500D01*
X141301497Y-92979485D01*
X141112138Y-93057920D01*
X140941720Y-93171791D01*
X140796791Y-93316720D01*
X140682920Y-93487138D01*
X140604485Y-93676497D01*
X140564500Y-93877520D01*
X136283700Y-93877520D01*
X136283700Y-91337520D01*
X143104500Y-91337520D01*
X143104500Y-91542480D01*
X143144485Y-91743503D01*
X143222920Y-91932862D01*
X143336791Y-92103280D01*
X143481720Y-92248209D01*
X143652138Y-92362080D01*
X143841497Y-92440515D01*
X144042520Y-92480500D01*
X144247480Y-92480500D01*
X144448503Y-92440515D01*
X144637862Y-92362080D01*
X144808280Y-92248209D01*
X144953209Y-92103280D01*
X145067080Y-91932862D01*
X145145515Y-91743503D01*
X145185500Y-91542480D01*
X145185500Y-91337520D01*
X145145515Y-91136497D01*
X145067080Y-90947138D01*
X144953209Y-90776720D01*
X144808280Y-90631791D01*
X144637862Y-90517920D01*
X144448503Y-90439485D01*
X144247480Y-90399500D01*
X144042520Y-90399500D01*
X143841497Y-90439485D01*
X143652138Y-90517920D01*
X143481720Y-90631791D01*
X143336791Y-90776720D01*
X143222920Y-90947138D01*
X143144485Y-91136497D01*
X143104500Y-91337520D01*
X136283700Y-91337520D01*
X136283700Y-88797520D01*
X140564500Y-88797520D01*
X140564500Y-89002480D01*
X140604485Y-89203503D01*
X140682920Y-89392862D01*
X140796791Y-89563280D01*
X140941720Y-89708209D01*
X141112138Y-89822080D01*
X141301497Y-89900515D01*
X141502520Y-89940500D01*
X141707480Y-89940500D01*
X141908503Y-89900515D01*
X142097862Y-89822080D01*
X142268280Y-89708209D01*
X142413209Y-89563280D01*
X142527080Y-89392862D01*
X142605515Y-89203503D01*
X142645500Y-89002480D01*
X142645500Y-88797520D01*
X143104500Y-88797520D01*
X143104500Y-89002480D01*
X143144485Y-89203503D01*
X143222920Y-89392862D01*
X143336791Y-89563280D01*
X143481720Y-89708209D01*
X143652138Y-89822080D01*
X143841497Y-89900515D01*
X144042520Y-89940500D01*
X144247480Y-89940500D01*
X144448503Y-89900515D01*
X144637862Y-89822080D01*
X144808280Y-89708209D01*
X144953209Y-89563280D01*
X145067080Y-89392862D01*
X145145515Y-89203503D01*
X145185500Y-89002480D01*
X145185500Y-88797520D01*
X145145515Y-88596497D01*
X145067080Y-88407138D01*
X144953209Y-88236720D01*
X144808280Y-88091791D01*
X144637862Y-87977920D01*
X144448503Y-87899485D01*
X144247480Y-87859500D01*
X144042520Y-87859500D01*
X143841497Y-87899485D01*
X143652138Y-87977920D01*
X143481720Y-88091791D01*
X143336791Y-88236720D01*
X143222920Y-88407138D01*
X143144485Y-88596497D01*
X143104500Y-88797520D01*
X142645500Y-88797520D01*
X142605515Y-88596497D01*
X142527080Y-88407138D01*
X142413209Y-88236720D01*
X142268280Y-88091791D01*
X142097862Y-87977920D01*
X141908503Y-87899485D01*
X141707480Y-87859500D01*
X141502520Y-87859500D01*
X141301497Y-87899485D01*
X141112138Y-87977920D01*
X140941720Y-88091791D01*
X140796791Y-88236720D01*
X140682920Y-88407138D01*
X140604485Y-88596497D01*
X140564500Y-88797520D01*
X136283700Y-88797520D01*
X136283700Y-86257520D01*
X140564500Y-86257520D01*
X140564500Y-86462480D01*
X140604485Y-86663503D01*
X140682920Y-86852862D01*
X140796791Y-87023280D01*
X140941720Y-87168209D01*
X141112138Y-87282080D01*
X141301497Y-87360515D01*
X141502520Y-87400500D01*
X141707480Y-87400500D01*
X141908503Y-87360515D01*
X142097862Y-87282080D01*
X142268280Y-87168209D01*
X142413209Y-87023280D01*
X142527080Y-86852862D01*
X142605515Y-86663503D01*
X142645500Y-86462480D01*
X142645500Y-86257520D01*
X143104500Y-86257520D01*
X143104500Y-86462480D01*
X143144485Y-86663503D01*
X143222920Y-86852862D01*
X143336791Y-87023280D01*
X143481720Y-87168209D01*
X143652138Y-87282080D01*
X143841497Y-87360515D01*
X144042520Y-87400500D01*
X144247480Y-87400500D01*
X144448503Y-87360515D01*
X144637862Y-87282080D01*
X144808280Y-87168209D01*
X144953209Y-87023280D01*
X145067080Y-86852862D01*
X145145515Y-86663503D01*
X145185500Y-86462480D01*
X145185500Y-86257520D01*
X145145515Y-86056497D01*
X145067080Y-85867138D01*
X144953209Y-85696720D01*
X144808280Y-85551791D01*
X144637862Y-85437920D01*
X144448503Y-85359485D01*
X144247480Y-85319500D01*
X144042520Y-85319500D01*
X143841497Y-85359485D01*
X143652138Y-85437920D01*
X143481720Y-85551791D01*
X143336791Y-85696720D01*
X143222920Y-85867138D01*
X143144485Y-86056497D01*
X143104500Y-86257520D01*
X142645500Y-86257520D01*
X142605515Y-86056497D01*
X142527080Y-85867138D01*
X142413209Y-85696720D01*
X142268280Y-85551791D01*
X142097862Y-85437920D01*
X141908503Y-85359485D01*
X141707480Y-85319500D01*
X141502520Y-85319500D01*
X141301497Y-85359485D01*
X141112138Y-85437920D01*
X140941720Y-85551791D01*
X140796791Y-85696720D01*
X140682920Y-85867138D01*
X140604485Y-86056497D01*
X140564500Y-86257520D01*
X136283700Y-86257520D01*
X136283700Y-82970000D01*
X140563579Y-82970000D01*
X140563579Y-84670000D01*
X140567257Y-84707344D01*
X140578150Y-84743254D01*
X140595839Y-84776348D01*
X140619645Y-84805355D01*
X140648652Y-84829161D01*
X140681746Y-84846850D01*
X140717656Y-84857743D01*
X140755000Y-84861421D01*
X142455000Y-84861421D01*
X142492344Y-84857743D01*
X142528254Y-84846850D01*
X142561348Y-84829161D01*
X142590355Y-84805355D01*
X142614161Y-84776348D01*
X142631850Y-84743254D01*
X142642743Y-84707344D01*
X142646421Y-84670000D01*
X142646421Y-83717520D01*
X143104500Y-83717520D01*
X143104500Y-83922480D01*
X143144485Y-84123503D01*
X143222920Y-84312862D01*
X143336791Y-84483280D01*
X143481720Y-84628209D01*
X143652138Y-84742080D01*
X143841497Y-84820515D01*
X144042520Y-84860500D01*
X144247480Y-84860500D01*
X144448503Y-84820515D01*
X144637862Y-84742080D01*
X144808280Y-84628209D01*
X144953209Y-84483280D01*
X145067080Y-84312862D01*
X145145515Y-84123503D01*
X145185500Y-83922480D01*
X145185500Y-83717520D01*
X145145515Y-83516497D01*
X145067080Y-83327138D01*
X144953209Y-83156720D01*
X144808280Y-83011791D01*
X144637862Y-82897920D01*
X144448503Y-82819485D01*
X144247480Y-82779500D01*
X144042520Y-82779500D01*
X143841497Y-82819485D01*
X143652138Y-82897920D01*
X143481720Y-83011791D01*
X143336791Y-83156720D01*
X143222920Y-83327138D01*
X143144485Y-83516497D01*
X143104500Y-83717520D01*
X142646421Y-83717520D01*
X142646421Y-82970000D01*
X142642743Y-82932656D01*
X142631850Y-82896746D01*
X142614161Y-82863652D01*
X142590355Y-82834645D01*
X142561348Y-82810839D01*
X142528254Y-82793150D01*
X142492344Y-82782257D01*
X142455000Y-82778579D01*
X140755000Y-82778579D01*
X140717656Y-82782257D01*
X140681746Y-82793150D01*
X140648652Y-82810839D01*
X140619645Y-82834645D01*
X140595839Y-82863652D01*
X140578150Y-82896746D01*
X140567257Y-82932656D01*
X140563579Y-82970000D01*
X136283700Y-82970000D01*
X136283700Y-79394325D01*
X136285603Y-79375000D01*
X136283700Y-79355675D01*
X136283700Y-79355667D01*
X136278003Y-79297821D01*
X136255490Y-79223609D01*
X136218933Y-79155214D01*
X136196601Y-79128003D01*
X136182058Y-79110282D01*
X136182055Y-79110279D01*
X136169734Y-79095266D01*
X136154720Y-79082944D01*
X135547060Y-78475285D01*
X135534734Y-78460266D01*
X135474786Y-78411067D01*
X135406391Y-78374510D01*
X135332179Y-78351997D01*
X135274333Y-78346300D01*
X135274322Y-78346300D01*
X135255000Y-78344397D01*
X135235678Y-78346300D01*
X121735443Y-78346300D01*
X121665501Y-78276358D01*
X121567738Y-78211034D01*
X121459109Y-78166039D01*
X121343790Y-78143100D01*
X121226210Y-78143100D01*
X121110891Y-78166039D01*
X121002262Y-78211034D01*
X120904499Y-78276358D01*
X120821358Y-78359499D01*
X120756034Y-78457262D01*
X120711039Y-78565891D01*
X120688100Y-78681210D01*
X120688100Y-78798790D01*
X120711039Y-78914109D01*
X120756034Y-79022738D01*
X120821358Y-79120501D01*
X120904499Y-79203642D01*
X121002262Y-79268966D01*
X121110891Y-79313961D01*
X121226210Y-79336900D01*
X121343790Y-79336900D01*
X121459109Y-79313961D01*
X121567738Y-79268966D01*
X121665501Y-79203642D01*
X121735443Y-79133700D01*
X135091925Y-79133700D01*
X135496301Y-79538077D01*
X135496301Y-80329525D01*
X134912060Y-79745285D01*
X134899734Y-79730266D01*
X134839786Y-79681067D01*
X134771391Y-79644510D01*
X134697179Y-79621997D01*
X134639333Y-79616300D01*
X134639322Y-79616300D01*
X134620000Y-79614397D01*
X134600678Y-79616300D01*
X121735443Y-79616300D01*
X121665501Y-79546358D01*
X121567738Y-79481034D01*
X121459109Y-79436039D01*
X121343790Y-79413100D01*
X121226210Y-79413100D01*
X121110891Y-79436039D01*
X121002262Y-79481034D01*
X120904499Y-79546358D01*
X120821358Y-79629499D01*
X120756034Y-79727262D01*
X120711039Y-79835891D01*
X120688100Y-79951210D01*
X120688100Y-80068790D01*
X120711039Y-80184109D01*
X120756034Y-80292738D01*
X120821358Y-80390501D01*
X120904499Y-80473642D01*
X121002262Y-80538966D01*
X121110891Y-80583961D01*
X121226210Y-80606900D01*
X121343790Y-80606900D01*
X121459109Y-80583961D01*
X121567738Y-80538966D01*
X121665501Y-80473642D01*
X121735443Y-80403700D01*
X134456925Y-80403700D01*
X134861301Y-80808077D01*
X134861300Y-98261924D01*
X133821925Y-99301300D01*
X132676224Y-99301300D01*
X132657158Y-99305093D01*
X132637821Y-99306997D01*
X132619227Y-99312638D01*
X132600162Y-99316430D01*
X132582199Y-99323871D01*
X132563609Y-99329510D01*
X132546477Y-99338667D01*
X132528513Y-99346108D01*
X132512349Y-99356909D01*
X132495214Y-99366067D01*
X132480197Y-99378391D01*
X132464031Y-99389193D01*
X132450279Y-99402945D01*
X132435266Y-99415266D01*
X132422945Y-99430279D01*
X132409193Y-99444031D01*
X132398391Y-99460197D01*
X132386067Y-99475214D01*
X132376909Y-99492349D01*
X132366108Y-99508513D01*
X132358667Y-99526477D01*
X132349510Y-99543609D01*
X132343871Y-99562199D01*
X132336430Y-99580162D01*
X132332638Y-99599227D01*
X132326997Y-99617821D01*
X132325093Y-99637158D01*
X132321300Y-99656224D01*
X132321300Y-99675667D01*
X132319396Y-99695000D01*
X132321300Y-99714333D01*
X132321300Y-99733776D01*
X132325093Y-99752842D01*
X132326997Y-99772179D01*
X132332638Y-99790773D01*
X132336430Y-99809838D01*
X132343871Y-99827801D01*
X132349510Y-99846391D01*
X132358667Y-99863523D01*
X132366108Y-99881487D01*
X132376909Y-99897651D01*
X132386067Y-99914786D01*
X132398391Y-99929803D01*
X132402732Y-99936300D01*
X125696275Y-99936300D01*
X125622061Y-99862086D01*
X125609735Y-99847067D01*
X125549787Y-99797868D01*
X125481392Y-99761311D01*
X125407180Y-99738798D01*
X125349334Y-99733101D01*
X125349323Y-99733101D01*
X125330001Y-99731198D01*
X125310679Y-99733101D01*
X107909877Y-99733101D01*
X107073700Y-98896925D01*
X107073700Y-96417520D01*
X107544500Y-96417520D01*
X107544500Y-96622480D01*
X107584485Y-96823503D01*
X107662920Y-97012862D01*
X107776791Y-97183280D01*
X107921720Y-97328209D01*
X108092138Y-97442080D01*
X108281497Y-97520515D01*
X108482520Y-97560500D01*
X108687480Y-97560500D01*
X108888503Y-97520515D01*
X109077862Y-97442080D01*
X109087529Y-97435620D01*
X109446908Y-97794999D01*
X109456056Y-97806146D01*
X109500534Y-97842648D01*
X109551278Y-97869772D01*
X109606339Y-97886474D01*
X109649255Y-97890701D01*
X109649264Y-97890701D01*
X109663600Y-97892113D01*
X109677936Y-97890701D01*
X111632271Y-97890701D01*
X111646609Y-97892113D01*
X111660947Y-97890701D01*
X111660955Y-97890701D01*
X111703871Y-97886474D01*
X111758932Y-97869772D01*
X111809676Y-97842648D01*
X111854154Y-97806146D01*
X111863302Y-97794999D01*
X112515992Y-97142310D01*
X132924220Y-97142310D01*
X132930104Y-97148194D01*
X132939256Y-97159346D01*
X132983734Y-97195848D01*
X133034478Y-97222972D01*
X133089539Y-97239674D01*
X133132455Y-97243901D01*
X133132464Y-97243901D01*
X133146800Y-97245313D01*
X133161136Y-97243901D01*
X133538861Y-97243901D01*
X133553199Y-97245313D01*
X133567537Y-97243901D01*
X133567545Y-97243901D01*
X133610461Y-97239674D01*
X133665522Y-97222972D01*
X133716266Y-97195848D01*
X133760744Y-97159346D01*
X133769892Y-97148199D01*
X134004392Y-96913700D01*
X134023776Y-96913700D01*
X134099838Y-96898570D01*
X134171487Y-96868892D01*
X134235969Y-96825807D01*
X134290807Y-96770969D01*
X134333892Y-96706487D01*
X134363570Y-96634838D01*
X134378700Y-96558776D01*
X134378700Y-96481224D01*
X134363570Y-96405162D01*
X134333892Y-96333513D01*
X134290807Y-96269031D01*
X134235969Y-96214193D01*
X134171487Y-96171108D01*
X134099838Y-96141430D01*
X134023776Y-96126300D01*
X133946224Y-96126300D01*
X133870162Y-96141430D01*
X133798513Y-96171108D01*
X133734031Y-96214193D01*
X133679193Y-96269031D01*
X133667500Y-96286531D01*
X133655807Y-96269031D01*
X133600969Y-96214193D01*
X133536487Y-96171108D01*
X133478958Y-96147279D01*
X133513067Y-96129047D01*
X133557545Y-96092545D01*
X133566693Y-96081398D01*
X134181403Y-95466689D01*
X134192545Y-95457545D01*
X134229047Y-95413067D01*
X134256171Y-95362323D01*
X134272873Y-95307262D01*
X134277100Y-95264346D01*
X134278513Y-95250000D01*
X134277100Y-95235654D01*
X134277100Y-91069676D01*
X134290807Y-91055969D01*
X134333892Y-90991487D01*
X134363570Y-90919838D01*
X134378700Y-90843776D01*
X134378700Y-90766224D01*
X134363570Y-90690162D01*
X134333892Y-90618513D01*
X134290807Y-90554031D01*
X134235969Y-90499193D01*
X134171487Y-90456108D01*
X134099838Y-90426430D01*
X134023776Y-90411300D01*
X133946224Y-90411300D01*
X133870162Y-90426430D01*
X133798513Y-90456108D01*
X133734031Y-90499193D01*
X133697938Y-90535286D01*
X133655807Y-90472231D01*
X133600969Y-90417393D01*
X133536487Y-90374308D01*
X133464838Y-90344630D01*
X133388776Y-90329500D01*
X133311224Y-90329500D01*
X133235162Y-90344630D01*
X133163513Y-90374308D01*
X133099031Y-90417393D01*
X133044193Y-90472231D01*
X133001108Y-90536713D01*
X132971430Y-90608362D01*
X132956300Y-90684424D01*
X132956300Y-90761976D01*
X132971430Y-90838038D01*
X133001108Y-90909687D01*
X133044193Y-90974169D01*
X133057901Y-90987877D01*
X133057900Y-91810324D01*
X133044193Y-91824031D01*
X133001108Y-91888513D01*
X132971430Y-91960162D01*
X132956300Y-92036224D01*
X132956300Y-92113776D01*
X132971430Y-92189838D01*
X133001108Y-92261487D01*
X133044193Y-92325969D01*
X133099031Y-92380807D01*
X133163513Y-92423892D01*
X133235162Y-92453570D01*
X133311224Y-92468700D01*
X133388776Y-92468700D01*
X133464838Y-92453570D01*
X133536487Y-92423892D01*
X133600969Y-92380807D01*
X133655807Y-92325969D01*
X133692900Y-92270454D01*
X133692901Y-95129007D01*
X133229009Y-95592900D01*
X131782639Y-95592900D01*
X131768303Y-95591488D01*
X131753967Y-95592900D01*
X131753958Y-95592900D01*
X131711042Y-95597127D01*
X131655981Y-95613829D01*
X131605237Y-95640953D01*
X131560759Y-95677455D01*
X131551611Y-95688602D01*
X131418703Y-95821510D01*
X119868767Y-95821510D01*
X119908966Y-95761348D01*
X119953961Y-95652719D01*
X119976900Y-95537400D01*
X119976900Y-95419820D01*
X119953961Y-95304501D01*
X119908966Y-95195872D01*
X119843642Y-95098109D01*
X119773700Y-95028167D01*
X119773700Y-92094322D01*
X119775603Y-92074999D01*
X119773700Y-92055677D01*
X119773700Y-92055667D01*
X119768003Y-91997821D01*
X119745490Y-91923609D01*
X119708933Y-91855214D01*
X119672058Y-91810282D01*
X119672055Y-91810279D01*
X119659734Y-91795266D01*
X119644722Y-91782946D01*
X118706900Y-90845125D01*
X118706900Y-90764876D01*
X119009720Y-90462056D01*
X119024734Y-90449734D01*
X119041187Y-90429687D01*
X119073933Y-90389786D01*
X119110490Y-90321391D01*
X119133003Y-90247179D01*
X119138700Y-90189333D01*
X119138700Y-90189325D01*
X119140603Y-90170000D01*
X119138700Y-90150675D01*
X119138700Y-87445443D01*
X119208642Y-87375501D01*
X119273966Y-87277738D01*
X119318961Y-87169109D01*
X119341900Y-87053790D01*
X119341900Y-86936210D01*
X119318961Y-86820891D01*
X119273966Y-86712262D01*
X119208642Y-86614499D01*
X119125501Y-86531358D01*
X119027738Y-86466034D01*
X118919109Y-86421039D01*
X118803790Y-86398100D01*
X118686210Y-86398100D01*
X118570891Y-86421039D01*
X118462262Y-86466034D01*
X118364499Y-86531358D01*
X118281358Y-86614499D01*
X118216034Y-86712262D01*
X118171039Y-86820891D01*
X118148100Y-86936210D01*
X118148100Y-87053790D01*
X118171039Y-87169109D01*
X118216034Y-87277738D01*
X118281358Y-87375501D01*
X118351300Y-87445443D01*
X118351301Y-90006923D01*
X118150124Y-90208100D01*
X118051210Y-90208100D01*
X117935891Y-90231039D01*
X117827262Y-90276034D01*
X117729499Y-90341358D01*
X117646358Y-90424499D01*
X117581034Y-90522262D01*
X117536039Y-90630891D01*
X117513100Y-90746210D01*
X117513100Y-90863790D01*
X117536039Y-90979109D01*
X117581034Y-91087738D01*
X117646358Y-91185501D01*
X117729499Y-91268642D01*
X117827262Y-91333966D01*
X117935891Y-91378961D01*
X118051210Y-91401900D01*
X118150125Y-91401900D01*
X118986300Y-92238076D01*
X118986301Y-95028166D01*
X118916358Y-95098109D01*
X118851034Y-95195872D01*
X118806039Y-95304501D01*
X118783100Y-95419820D01*
X118783100Y-95537400D01*
X118806039Y-95652719D01*
X118851034Y-95761348D01*
X118891233Y-95821510D01*
X115115026Y-95821510D01*
X115217738Y-95778966D01*
X115315501Y-95713642D01*
X115398642Y-95630501D01*
X115463966Y-95532738D01*
X115508961Y-95424109D01*
X115531900Y-95308790D01*
X115531900Y-95191210D01*
X115508961Y-95075891D01*
X115463966Y-94967262D01*
X115398642Y-94869499D01*
X115328700Y-94799557D01*
X115328700Y-93198767D01*
X115388862Y-93238966D01*
X115497491Y-93283961D01*
X115612810Y-93306900D01*
X115730390Y-93306900D01*
X115845709Y-93283961D01*
X115954338Y-93238966D01*
X116052101Y-93173642D01*
X116135242Y-93090501D01*
X116200566Y-92992738D01*
X116245561Y-92884109D01*
X116268500Y-92768790D01*
X116268500Y-92651210D01*
X116245561Y-92535891D01*
X116200566Y-92427262D01*
X116135242Y-92329499D01*
X116065300Y-92259557D01*
X116065300Y-84516475D01*
X117003076Y-83578700D01*
X125279557Y-83578700D01*
X125349499Y-83648642D01*
X125447262Y-83713966D01*
X125555891Y-83758961D01*
X125671210Y-83781900D01*
X125788790Y-83781900D01*
X125904109Y-83758961D01*
X126012738Y-83713966D01*
X126110501Y-83648642D01*
X126193642Y-83565501D01*
X126258966Y-83467738D01*
X126303961Y-83359109D01*
X126326900Y-83243790D01*
X126326900Y-83126210D01*
X126303961Y-83010891D01*
X126258966Y-82902262D01*
X126193642Y-82804499D01*
X126110501Y-82721358D01*
X126012738Y-82656034D01*
X125904109Y-82611039D01*
X125788790Y-82588100D01*
X125671210Y-82588100D01*
X125555891Y-82611039D01*
X125447262Y-82656034D01*
X125349499Y-82721358D01*
X125279557Y-82791300D01*
X116859322Y-82791300D01*
X116839999Y-82789397D01*
X116820677Y-82791300D01*
X116820667Y-82791300D01*
X116762821Y-82796997D01*
X116688609Y-82819510D01*
X116620214Y-82856067D01*
X116575282Y-82892942D01*
X116575279Y-82892945D01*
X116560266Y-82905266D01*
X116547944Y-82920280D01*
X115406880Y-84061345D01*
X115391867Y-84073666D01*
X115379546Y-84088679D01*
X115379542Y-84088683D01*
X115342667Y-84133615D01*
X115328700Y-84159746D01*
X115328700Y-79538075D01*
X115834720Y-79032056D01*
X115849734Y-79019734D01*
X115862059Y-79004717D01*
X115898933Y-78959786D01*
X115935490Y-78891391D01*
X115958003Y-78817179D01*
X115959814Y-78798790D01*
X115963700Y-78759333D01*
X115963700Y-78759325D01*
X115965603Y-78740000D01*
X115963700Y-78720675D01*
X115963700Y-77357329D01*
X143001035Y-77357329D01*
X143001035Y-77582671D01*
X143044997Y-77803682D01*
X143131232Y-78011871D01*
X143256424Y-78199235D01*
X143415765Y-78358576D01*
X143603129Y-78483768D01*
X143811318Y-78570003D01*
X144032329Y-78613965D01*
X144257671Y-78613965D01*
X144478682Y-78570003D01*
X144686871Y-78483768D01*
X144874235Y-78358576D01*
X145033576Y-78199235D01*
X145158768Y-78011871D01*
X145245003Y-77803682D01*
X145288965Y-77582671D01*
X145288965Y-77357329D01*
X145245003Y-77136318D01*
X145158768Y-76928129D01*
X145033576Y-76740765D01*
X144874235Y-76581424D01*
X144686871Y-76456232D01*
X144478682Y-76369997D01*
X144257671Y-76326035D01*
X144032329Y-76326035D01*
X143811318Y-76369997D01*
X143603129Y-76456232D01*
X143415765Y-76581424D01*
X143256424Y-76740765D01*
X143131232Y-76928129D01*
X143044997Y-77136318D01*
X143001035Y-77357329D01*
X115963700Y-77357329D01*
X115963700Y-76015443D01*
X116033642Y-75945501D01*
X116098966Y-75847738D01*
X116143961Y-75739109D01*
X116166900Y-75623790D01*
X116166900Y-75506210D01*
X116143961Y-75390891D01*
X116098966Y-75282262D01*
X116033642Y-75184499D01*
X115950501Y-75101358D01*
X115852738Y-75036034D01*
X115744109Y-74991039D01*
X115628790Y-74968100D01*
X115511210Y-74968100D01*
X115395891Y-74991039D01*
X115287262Y-75036034D01*
X115189499Y-75101358D01*
X115106358Y-75184499D01*
X115041034Y-75282262D01*
X114996039Y-75390891D01*
X114973100Y-75506210D01*
X114973100Y-75623790D01*
X114996039Y-75739109D01*
X115041034Y-75847738D01*
X115106358Y-75945501D01*
X115176300Y-76015443D01*
X115176301Y-78576923D01*
X114882613Y-78870611D01*
X114896900Y-78798790D01*
X114896900Y-78681210D01*
X114873961Y-78565891D01*
X114828966Y-78457262D01*
X114763642Y-78359499D01*
X114680501Y-78276358D01*
X114582738Y-78211034D01*
X114474109Y-78166039D01*
X114358790Y-78143100D01*
X114241210Y-78143100D01*
X114125891Y-78166039D01*
X114017262Y-78211034D01*
X113919499Y-78276358D01*
X113836358Y-78359499D01*
X113771034Y-78457262D01*
X113726039Y-78565891D01*
X113703100Y-78681210D01*
X113703100Y-78780125D01*
X113400285Y-79082940D01*
X113385266Y-79095266D01*
X113336067Y-79155215D01*
X113299510Y-79223610D01*
X113276997Y-79297822D01*
X113271300Y-79355668D01*
X113271300Y-79355678D01*
X113269397Y-79375000D01*
X113271300Y-79394322D01*
X113271301Y-94799556D01*
X113201358Y-94869499D01*
X113136034Y-94967262D01*
X113091039Y-95075891D01*
X113068100Y-95191210D01*
X113068100Y-95308790D01*
X113091039Y-95424109D01*
X113136034Y-95532738D01*
X113201358Y-95630501D01*
X113284499Y-95713642D01*
X113382262Y-95778966D01*
X113484974Y-95821510D01*
X112744602Y-95821510D01*
X111742134Y-94819043D01*
X111788280Y-94788209D01*
X111933209Y-94643280D01*
X112047080Y-94472862D01*
X112125515Y-94283503D01*
X112165500Y-94082480D01*
X112165500Y-93877520D01*
X112125515Y-93676497D01*
X112047080Y-93487138D01*
X111933209Y-93316720D01*
X111788280Y-93171791D01*
X111617862Y-93057920D01*
X111428503Y-92979485D01*
X111227480Y-92939500D01*
X111022520Y-92939500D01*
X110821497Y-92979485D01*
X110632138Y-93057920D01*
X110461720Y-93171791D01*
X110316791Y-93316720D01*
X110202920Y-93487138D01*
X110124485Y-93676497D01*
X110084500Y-93877520D01*
X110084500Y-94082480D01*
X110124485Y-94283503D01*
X110202920Y-94472862D01*
X110316791Y-94643280D01*
X110461720Y-94788209D01*
X110632138Y-94902080D01*
X110821497Y-94980515D01*
X111022520Y-95020500D01*
X111117409Y-95020500D01*
X112324808Y-96227900D01*
X112127783Y-96227900D01*
X112125515Y-96216497D01*
X112047080Y-96027138D01*
X111933209Y-95856720D01*
X111788280Y-95711791D01*
X111617862Y-95597920D01*
X111428503Y-95519485D01*
X111227480Y-95479500D01*
X111022520Y-95479500D01*
X110821497Y-95519485D01*
X110632138Y-95597920D01*
X110461720Y-95711791D01*
X110316791Y-95856720D01*
X110202920Y-96027138D01*
X110124485Y-96216497D01*
X110084500Y-96417520D01*
X110084500Y-96622480D01*
X110124485Y-96823503D01*
X110202920Y-97012862D01*
X110316791Y-97183280D01*
X110440012Y-97306501D01*
X109784592Y-97306501D01*
X109500620Y-97022529D01*
X109507080Y-97012862D01*
X109585515Y-96823503D01*
X109625500Y-96622480D01*
X109625500Y-96417520D01*
X109585515Y-96216497D01*
X109507080Y-96027138D01*
X109393209Y-95856720D01*
X109248280Y-95711791D01*
X109077862Y-95597920D01*
X108888503Y-95519485D01*
X108687480Y-95479500D01*
X108482520Y-95479500D01*
X108281497Y-95519485D01*
X108092138Y-95597920D01*
X107921720Y-95711791D01*
X107776791Y-95856720D01*
X107662920Y-96027138D01*
X107584485Y-96216497D01*
X107544500Y-96417520D01*
X107073700Y-96417520D01*
X107073700Y-93877520D01*
X107544500Y-93877520D01*
X107544500Y-94082480D01*
X107584485Y-94283503D01*
X107662920Y-94472862D01*
X107776791Y-94643280D01*
X107921720Y-94788209D01*
X108092138Y-94902080D01*
X108281497Y-94980515D01*
X108482520Y-95020500D01*
X108687480Y-95020500D01*
X108888503Y-94980515D01*
X109077862Y-94902080D01*
X109248280Y-94788209D01*
X109393209Y-94643280D01*
X109507080Y-94472862D01*
X109585515Y-94283503D01*
X109625500Y-94082480D01*
X109625500Y-93877520D01*
X109585515Y-93676497D01*
X109507080Y-93487138D01*
X109393209Y-93316720D01*
X109248280Y-93171791D01*
X109077862Y-93057920D01*
X108888503Y-92979485D01*
X108687480Y-92939500D01*
X108482520Y-92939500D01*
X108281497Y-92979485D01*
X108092138Y-93057920D01*
X107921720Y-93171791D01*
X107776791Y-93316720D01*
X107662920Y-93487138D01*
X107584485Y-93676497D01*
X107544500Y-93877520D01*
X107073700Y-93877520D01*
X107073700Y-91337520D01*
X107544500Y-91337520D01*
X107544500Y-91542480D01*
X107584485Y-91743503D01*
X107662920Y-91932862D01*
X107776791Y-92103280D01*
X107921720Y-92248209D01*
X108092138Y-92362080D01*
X108281497Y-92440515D01*
X108482520Y-92480500D01*
X108687480Y-92480500D01*
X108888503Y-92440515D01*
X109077862Y-92362080D01*
X109248280Y-92248209D01*
X109393209Y-92103280D01*
X109507080Y-91932862D01*
X109585515Y-91743503D01*
X109625500Y-91542480D01*
X109625500Y-91337520D01*
X109585515Y-91136497D01*
X109507080Y-90947138D01*
X109393209Y-90776720D01*
X109248280Y-90631791D01*
X109077862Y-90517920D01*
X108888503Y-90439485D01*
X108687480Y-90399500D01*
X108482520Y-90399500D01*
X108281497Y-90439485D01*
X108092138Y-90517920D01*
X107921720Y-90631791D01*
X107776791Y-90776720D01*
X107662920Y-90947138D01*
X107584485Y-91136497D01*
X107544500Y-91337520D01*
X107073700Y-91337520D01*
X107073700Y-89698075D01*
X107478076Y-89293700D01*
X107621846Y-89293700D01*
X107662920Y-89392862D01*
X107776791Y-89563280D01*
X107921720Y-89708209D01*
X108092138Y-89822080D01*
X108281497Y-89900515D01*
X108482520Y-89940500D01*
X108687480Y-89940500D01*
X108888503Y-89900515D01*
X108987665Y-89859441D01*
X110165559Y-91037335D01*
X110124485Y-91136497D01*
X110084500Y-91337520D01*
X110084500Y-91542480D01*
X110124485Y-91743503D01*
X110202920Y-91932862D01*
X110316791Y-92103280D01*
X110461720Y-92248209D01*
X110632138Y-92362080D01*
X110821497Y-92440515D01*
X111022520Y-92480500D01*
X111227480Y-92480500D01*
X111428503Y-92440515D01*
X111617862Y-92362080D01*
X111788280Y-92248209D01*
X111933209Y-92103280D01*
X112047080Y-91932862D01*
X112125515Y-91743503D01*
X112165500Y-91542480D01*
X112165500Y-91337520D01*
X112125515Y-91136497D01*
X112047080Y-90947138D01*
X111933209Y-90776720D01*
X111788280Y-90631791D01*
X111617862Y-90517920D01*
X111428503Y-90439485D01*
X111227480Y-90399500D01*
X111022520Y-90399500D01*
X110821497Y-90439485D01*
X110722335Y-90480559D01*
X109544441Y-89302665D01*
X109585515Y-89203503D01*
X109625500Y-89002480D01*
X109625500Y-88797520D01*
X110084500Y-88797520D01*
X110084500Y-89002480D01*
X110124485Y-89203503D01*
X110202920Y-89392862D01*
X110316791Y-89563280D01*
X110461720Y-89708209D01*
X110632138Y-89822080D01*
X110821497Y-89900515D01*
X111022520Y-89940500D01*
X111227480Y-89940500D01*
X111428503Y-89900515D01*
X111617862Y-89822080D01*
X111788280Y-89708209D01*
X111933209Y-89563280D01*
X112047080Y-89392862D01*
X112125515Y-89203503D01*
X112165500Y-89002480D01*
X112165500Y-88797520D01*
X112125515Y-88596497D01*
X112047080Y-88407138D01*
X111933209Y-88236720D01*
X111788280Y-88091791D01*
X111617862Y-87977920D01*
X111428503Y-87899485D01*
X111227480Y-87859500D01*
X111022520Y-87859500D01*
X110821497Y-87899485D01*
X110632138Y-87977920D01*
X110461720Y-88091791D01*
X110316791Y-88236720D01*
X110202920Y-88407138D01*
X110124485Y-88596497D01*
X110084500Y-88797520D01*
X109625500Y-88797520D01*
X109585515Y-88596497D01*
X109507080Y-88407138D01*
X109393209Y-88236720D01*
X109248280Y-88091791D01*
X109077862Y-87977920D01*
X108978700Y-87936846D01*
X108978700Y-87323154D01*
X109077862Y-87282080D01*
X109248280Y-87168209D01*
X109393209Y-87023280D01*
X109507080Y-86852862D01*
X109585515Y-86663503D01*
X109625500Y-86462480D01*
X109625500Y-86257520D01*
X110084500Y-86257520D01*
X110084500Y-86462480D01*
X110124485Y-86663503D01*
X110202920Y-86852862D01*
X110316791Y-87023280D01*
X110461720Y-87168209D01*
X110632138Y-87282080D01*
X110821497Y-87360515D01*
X111022520Y-87400500D01*
X111227480Y-87400500D01*
X111428503Y-87360515D01*
X111617862Y-87282080D01*
X111788280Y-87168209D01*
X111933209Y-87023280D01*
X112047080Y-86852862D01*
X112125515Y-86663503D01*
X112165500Y-86462480D01*
X112165500Y-86257520D01*
X112125515Y-86056497D01*
X112047080Y-85867138D01*
X111933209Y-85696720D01*
X111788280Y-85551791D01*
X111617862Y-85437920D01*
X111428503Y-85359485D01*
X111227480Y-85319500D01*
X111022520Y-85319500D01*
X110821497Y-85359485D01*
X110632138Y-85437920D01*
X110461720Y-85551791D01*
X110316791Y-85696720D01*
X110202920Y-85867138D01*
X110124485Y-86056497D01*
X110084500Y-86257520D01*
X109625500Y-86257520D01*
X109585515Y-86056497D01*
X109507080Y-85867138D01*
X109393209Y-85696720D01*
X109248280Y-85551791D01*
X109077862Y-85437920D01*
X108888503Y-85359485D01*
X108687480Y-85319500D01*
X108482520Y-85319500D01*
X108281497Y-85359485D01*
X108092138Y-85437920D01*
X107921720Y-85551791D01*
X107776791Y-85696720D01*
X107662920Y-85867138D01*
X107584485Y-86056497D01*
X107544500Y-86257520D01*
X107544500Y-86462480D01*
X107584485Y-86663503D01*
X107662920Y-86852862D01*
X107776791Y-87023280D01*
X107921720Y-87168209D01*
X108092138Y-87282080D01*
X108191301Y-87323154D01*
X108191300Y-87936846D01*
X108092138Y-87977920D01*
X107921720Y-88091791D01*
X107776791Y-88236720D01*
X107662920Y-88407138D01*
X107621846Y-88506300D01*
X107334325Y-88506300D01*
X107315000Y-88504397D01*
X107295675Y-88506300D01*
X107295667Y-88506300D01*
X107237821Y-88511997D01*
X107163609Y-88534510D01*
X107095214Y-88571067D01*
X107050282Y-88607942D01*
X107050279Y-88607945D01*
X107035266Y-88620266D01*
X107022944Y-88635280D01*
X106415280Y-89242945D01*
X106400267Y-89255266D01*
X106387946Y-89270279D01*
X106387942Y-89270283D01*
X106351067Y-89315215D01*
X106314510Y-89383610D01*
X106291998Y-89457822D01*
X106284397Y-89535000D01*
X105290500Y-89535000D01*
X105290500Y-83717520D01*
X110084500Y-83717520D01*
X110084500Y-83922480D01*
X110124485Y-84123503D01*
X110202920Y-84312862D01*
X110316791Y-84483280D01*
X110461720Y-84628209D01*
X110632138Y-84742080D01*
X110821497Y-84820515D01*
X111022520Y-84860500D01*
X111227480Y-84860500D01*
X111428503Y-84820515D01*
X111617862Y-84742080D01*
X111788280Y-84628209D01*
X111933209Y-84483280D01*
X112047080Y-84312862D01*
X112125515Y-84123503D01*
X112165500Y-83922480D01*
X112165500Y-83717520D01*
X112125515Y-83516497D01*
X112047080Y-83327138D01*
X111933209Y-83156720D01*
X111788280Y-83011791D01*
X111617862Y-82897920D01*
X111428503Y-82819485D01*
X111227480Y-82779500D01*
X111022520Y-82779500D01*
X110821497Y-82819485D01*
X110632138Y-82897920D01*
X110461720Y-83011791D01*
X110316791Y-83156720D01*
X110202920Y-83327138D01*
X110124485Y-83516497D01*
X110084500Y-83717520D01*
X105290500Y-83717520D01*
X105290500Y-77581761D01*
X105312505Y-77357329D01*
X107441035Y-77357329D01*
X107441035Y-77582671D01*
X107484997Y-77803682D01*
X107571232Y-78011871D01*
X107696424Y-78199235D01*
X107855765Y-78358576D01*
X108043129Y-78483768D01*
X108251318Y-78570003D01*
X108472329Y-78613965D01*
X108697671Y-78613965D01*
X108918682Y-78570003D01*
X109126871Y-78483768D01*
X109314235Y-78358576D01*
X109473576Y-78199235D01*
X109598768Y-78011871D01*
X109685003Y-77803682D01*
X109728965Y-77582671D01*
X109728965Y-77357329D01*
X109685003Y-77136318D01*
X109598768Y-76928129D01*
X109473576Y-76740765D01*
X109314235Y-76581424D01*
X109126871Y-76456232D01*
X108918682Y-76369997D01*
X108697671Y-76326035D01*
X108472329Y-76326035D01*
X108251318Y-76369997D01*
X108043129Y-76456232D01*
X107855765Y-76581424D01*
X107696424Y-76740765D01*
X107571232Y-76928129D01*
X107484997Y-77136318D01*
X107441035Y-77357329D01*
X105312505Y-77357329D01*
X105347518Y-77000242D01*
X105512985Y-76452191D01*
X105781754Y-75946710D01*
X106143582Y-75503064D01*
X106584695Y-75138144D01*
X107088280Y-74865856D01*
X107635170Y-74696566D01*
X108215846Y-74635534D01*
X108225547Y-74635500D01*
X144408239Y-74635500D01*
X144989758Y-74692518D01*
G37*
X144989758Y-74692518D02*
X145537809Y-74857985D01*
X146043290Y-75126754D01*
X146486936Y-75488582D01*
X146851856Y-75929695D01*
X147124144Y-76433280D01*
X147293434Y-76980170D01*
X147354466Y-77560846D01*
X147354501Y-77570835D01*
X147354500Y-105498240D01*
X147297482Y-106079758D01*
X147132015Y-106627809D01*
X146863246Y-107133290D01*
X146501416Y-107576939D01*
X146060305Y-107941855D01*
X145556720Y-108214144D01*
X145009831Y-108383433D01*
X144429155Y-108444466D01*
X144419453Y-108444500D01*
X108236760Y-108444500D01*
X107655242Y-108387482D01*
X107107191Y-108222015D01*
X106601710Y-107953246D01*
X106158061Y-107591416D01*
X105793145Y-107150305D01*
X105520856Y-106646720D01*
X105351567Y-106099831D01*
X105290534Y-105519155D01*
X105290500Y-105509453D01*
X105290500Y-105297329D01*
X107441035Y-105297329D01*
X107441035Y-105522671D01*
X107484997Y-105743682D01*
X107571232Y-105951871D01*
X107696424Y-106139235D01*
X107855765Y-106298576D01*
X108043129Y-106423768D01*
X108251318Y-106510003D01*
X108472329Y-106553965D01*
X108697671Y-106553965D01*
X108918682Y-106510003D01*
X109126871Y-106423768D01*
X109314235Y-106298576D01*
X109473576Y-106139235D01*
X109598768Y-105951871D01*
X109685003Y-105743682D01*
X109728965Y-105522671D01*
X109728965Y-105297329D01*
X109685003Y-105076318D01*
X109598768Y-104868129D01*
X109473576Y-104680765D01*
X109314235Y-104521424D01*
X109126871Y-104396232D01*
X108918682Y-104309997D01*
X108697671Y-104266035D01*
X108472329Y-104266035D01*
X108251318Y-104309997D01*
X108043129Y-104396232D01*
X107855765Y-104521424D01*
X107696424Y-104680765D01*
X107571232Y-104868129D01*
X107484997Y-105076318D01*
X107441035Y-105297329D01*
X105290500Y-105297329D01*
X105290500Y-103402520D01*
X113894500Y-103402520D01*
X113894500Y-103607480D01*
X113934485Y-103808503D01*
X114012920Y-103997862D01*
X114126791Y-104168280D01*
X114271720Y-104313209D01*
X114442138Y-104427080D01*
X114631497Y-104505515D01*
X114832520Y-104545500D01*
X115037480Y-104545500D01*
X115238503Y-104505515D01*
X115427862Y-104427080D01*
X115598280Y-104313209D01*
X115743209Y-104168280D01*
X115857080Y-103997862D01*
X115935515Y-103808503D01*
X115975500Y-103607480D01*
X115975500Y-103402520D01*
X115935515Y-103201497D01*
X115857080Y-103012138D01*
X115743209Y-102841720D01*
X115598280Y-102696791D01*
X115427862Y-102582920D01*
X115238503Y-102504485D01*
X115037480Y-102464500D01*
X114832520Y-102464500D01*
X114631497Y-102504485D01*
X114442138Y-102582920D01*
X114271720Y-102696791D01*
X114126791Y-102841720D01*
X114012920Y-103012138D01*
X113934485Y-103201497D01*
X113894500Y-103402520D01*
X105290500Y-103402520D01*
X105290500Y-89535000D01*
X106284397Y-89535000D01*
X106286301Y-89554333D01*
X106286300Y-99040678D01*
X106284397Y-99060000D01*
X106286300Y-99079322D01*
X106286300Y-99079332D01*
X106291997Y-99137178D01*
X106314510Y-99211390D01*
X106351067Y-99279785D01*
X106400266Y-99339734D01*
X106415285Y-99352060D01*
X107454745Y-100391521D01*
X107467067Y-100406535D01*
X107482080Y-100418856D01*
X107482083Y-100418859D01*
X107527014Y-100455734D01*
X107563571Y-100475273D01*
X107595410Y-100492291D01*
X107669622Y-100514804D01*
X107727468Y-100520501D01*
X107727478Y-100520501D01*
X107746800Y-100522404D01*
X107766123Y-100520501D01*
X122386925Y-100520501D01*
X122328291Y-100544788D01*
X122263809Y-100587873D01*
X122208971Y-100642711D01*
X122165886Y-100707193D01*
X122139349Y-100771258D01*
X122136693Y-100768602D01*
X122127545Y-100757455D01*
X122083067Y-100720953D01*
X122032323Y-100693829D01*
X121977262Y-100677127D01*
X121934346Y-100672900D01*
X121934338Y-100672900D01*
X121920000Y-100671488D01*
X121905662Y-100672900D01*
X121549676Y-100672900D01*
X121535969Y-100659193D01*
X121471487Y-100616108D01*
X121399838Y-100586430D01*
X121323776Y-100571300D01*
X121246224Y-100571300D01*
X121170162Y-100586430D01*
X121098513Y-100616108D01*
X121034031Y-100659193D01*
X120979193Y-100714031D01*
X120967500Y-100731531D01*
X120955807Y-100714031D01*
X120900969Y-100659193D01*
X120836487Y-100616108D01*
X120764838Y-100586430D01*
X120688776Y-100571300D01*
X120611224Y-100571300D01*
X120535162Y-100586430D01*
X120463513Y-100616108D01*
X120399031Y-100659193D01*
X120344193Y-100714031D01*
X120332500Y-100731531D01*
X120320807Y-100714031D01*
X120265969Y-100659193D01*
X120201487Y-100616108D01*
X120129838Y-100586430D01*
X120053776Y-100571300D01*
X119976224Y-100571300D01*
X119900162Y-100586430D01*
X119828513Y-100616108D01*
X119764031Y-100659193D01*
X119709193Y-100714031D01*
X119666108Y-100778513D01*
X119636430Y-100850162D01*
X119621300Y-100926224D01*
X119621300Y-100945609D01*
X118548602Y-102018307D01*
X118537455Y-102027455D01*
X118500953Y-102071934D01*
X118473829Y-102122678D01*
X118457127Y-102177739D01*
X118452900Y-102220655D01*
X118452900Y-102220662D01*
X118451488Y-102235000D01*
X118452900Y-102249338D01*
X118452900Y-103146900D01*
X118397080Y-103012138D01*
X118283209Y-102841720D01*
X118138280Y-102696791D01*
X117967862Y-102582920D01*
X117778503Y-102504485D01*
X117577480Y-102464500D01*
X117372520Y-102464500D01*
X117171497Y-102504485D01*
X116982138Y-102582920D01*
X116811720Y-102696791D01*
X116666791Y-102841720D01*
X116552920Y-103012138D01*
X116474485Y-103201497D01*
X116434500Y-103402520D01*
X116434500Y-103607480D01*
X116474485Y-103808503D01*
X116552920Y-103997862D01*
X116666791Y-104168280D01*
X116811720Y-104313209D01*
X116982138Y-104427080D01*
X117171497Y-104505515D01*
X117372520Y-104545500D01*
X117577480Y-104545500D01*
X117778503Y-104505515D01*
X117967862Y-104427080D01*
X118138280Y-104313209D01*
X118283209Y-104168280D01*
X118397080Y-103997862D01*
X118452901Y-103863100D01*
X118452901Y-105289007D01*
X118314043Y-105427866D01*
X118283209Y-105381720D01*
X118138280Y-105236791D01*
X117967862Y-105122920D01*
X117778503Y-105044485D01*
X117577480Y-105004500D01*
X117372520Y-105004500D01*
X117171497Y-105044485D01*
X116982138Y-105122920D01*
X116811720Y-105236791D01*
X116666791Y-105381720D01*
X116552920Y-105552138D01*
X116474485Y-105741497D01*
X116434500Y-105942520D01*
X116434500Y-106147480D01*
X116474485Y-106348503D01*
X116552920Y-106537862D01*
X116666791Y-106708280D01*
X116811720Y-106853209D01*
X116982138Y-106967080D01*
X117171497Y-107045515D01*
X117372520Y-107085500D01*
X117577480Y-107085500D01*
X117778503Y-107045515D01*
X117967862Y-106967080D01*
X118138280Y-106853209D01*
X118283209Y-106708280D01*
X118397080Y-106537862D01*
X118475515Y-106348503D01*
X118515500Y-106147480D01*
X118515500Y-106052591D01*
X118941403Y-105626689D01*
X118952545Y-105617545D01*
X118964909Y-105602480D01*
X118989047Y-105573067D01*
X119016171Y-105522323D01*
X119032873Y-105467262D01*
X119038513Y-105410000D01*
X119037100Y-105395654D01*
X119037100Y-103863100D01*
X119092920Y-103997862D01*
X119206791Y-104168280D01*
X119351720Y-104313209D01*
X119522138Y-104427080D01*
X119711497Y-104505515D01*
X119912520Y-104545500D01*
X120117480Y-104545500D01*
X120318503Y-104505515D01*
X120507862Y-104427080D01*
X120678280Y-104313209D01*
X120823209Y-104168280D01*
X120937080Y-103997862D01*
X120992901Y-103863100D01*
X120992901Y-105289007D01*
X120854043Y-105427866D01*
X120823209Y-105381720D01*
X120678280Y-105236791D01*
X120507862Y-105122920D01*
X120318503Y-105044485D01*
X120117480Y-105004500D01*
X119912520Y-105004500D01*
X119711497Y-105044485D01*
X119522138Y-105122920D01*
X119351720Y-105236791D01*
X119206791Y-105381720D01*
X119092920Y-105552138D01*
X119014485Y-105741497D01*
X118974500Y-105942520D01*
X118974500Y-106147480D01*
X119014485Y-106348503D01*
X119092920Y-106537862D01*
X119206791Y-106708280D01*
X119351720Y-106853209D01*
X119522138Y-106967080D01*
X119711497Y-107045515D01*
X119912520Y-107085500D01*
X120117480Y-107085500D01*
X120318503Y-107045515D01*
X120507862Y-106967080D01*
X120678280Y-106853209D01*
X120823209Y-106708280D01*
X120937080Y-106537862D01*
X121015515Y-106348503D01*
X121055500Y-106147480D01*
X121055500Y-106052591D01*
X121481403Y-105626689D01*
X121492545Y-105617545D01*
X121504909Y-105602480D01*
X121529047Y-105573067D01*
X121556171Y-105522323D01*
X121572873Y-105467262D01*
X121578513Y-105410000D01*
X121577100Y-105395654D01*
X121577100Y-103863100D01*
X121632920Y-103997862D01*
X121746791Y-104168280D01*
X121891720Y-104313209D01*
X122062138Y-104427080D01*
X122251497Y-104505515D01*
X122452520Y-104545500D01*
X122657480Y-104545500D01*
X122858503Y-104505515D01*
X123047862Y-104427080D01*
X123218280Y-104313209D01*
X123363209Y-104168280D01*
X123477080Y-103997862D01*
X123532901Y-103863100D01*
X123532900Y-105289008D01*
X123394043Y-105427866D01*
X123363209Y-105381720D01*
X123218280Y-105236791D01*
X123047862Y-105122920D01*
X122858503Y-105044485D01*
X122657480Y-105004500D01*
X122452520Y-105004500D01*
X122251497Y-105044485D01*
X122062138Y-105122920D01*
X121891720Y-105236791D01*
X121746791Y-105381720D01*
X121632920Y-105552138D01*
X121554485Y-105741497D01*
X121514500Y-105942520D01*
X121514500Y-106147480D01*
X121554485Y-106348503D01*
X121632920Y-106537862D01*
X121746791Y-106708280D01*
X121891720Y-106853209D01*
X122062138Y-106967080D01*
X122251497Y-107045515D01*
X122452520Y-107085500D01*
X122657480Y-107085500D01*
X122858503Y-107045515D01*
X123047862Y-106967080D01*
X123218280Y-106853209D01*
X123363209Y-106708280D01*
X123477080Y-106537862D01*
X123555515Y-106348503D01*
X123595500Y-106147480D01*
X123595500Y-106052591D01*
X124021404Y-105626688D01*
X124032545Y-105617545D01*
X124044909Y-105602480D01*
X124069047Y-105573067D01*
X124096171Y-105522323D01*
X124112873Y-105467262D01*
X124118513Y-105410000D01*
X124117100Y-105395654D01*
X124117100Y-103863100D01*
X124172920Y-103997862D01*
X124286791Y-104168280D01*
X124431720Y-104313209D01*
X124602138Y-104427080D01*
X124791497Y-104505515D01*
X124992520Y-104545500D01*
X125197480Y-104545500D01*
X125398503Y-104505515D01*
X125587862Y-104427080D01*
X125758280Y-104313209D01*
X125903209Y-104168280D01*
X126017080Y-103997862D01*
X126072900Y-103863100D01*
X126072901Y-105289007D01*
X125934043Y-105427866D01*
X125903209Y-105381720D01*
X125758280Y-105236791D01*
X125587862Y-105122920D01*
X125398503Y-105044485D01*
X125197480Y-105004500D01*
X124992520Y-105004500D01*
X124791497Y-105044485D01*
X124602138Y-105122920D01*
X124431720Y-105236791D01*
X124286791Y-105381720D01*
X124172920Y-105552138D01*
X124094485Y-105741497D01*
X124054500Y-105942520D01*
X124054500Y-106147480D01*
X124094485Y-106348503D01*
X124172920Y-106537862D01*
X124286791Y-106708280D01*
X124431720Y-106853209D01*
X124602138Y-106967080D01*
X124791497Y-107045515D01*
X124992520Y-107085500D01*
X125197480Y-107085500D01*
X125398503Y-107045515D01*
X125587862Y-106967080D01*
X125758280Y-106853209D01*
X125903209Y-106708280D01*
X126017080Y-106537862D01*
X126095515Y-106348503D01*
X126135500Y-106147480D01*
X126135500Y-106052591D01*
X126561403Y-105626689D01*
X126572545Y-105617545D01*
X126584909Y-105602480D01*
X126609047Y-105573067D01*
X126636171Y-105522323D01*
X126652873Y-105467262D01*
X126658513Y-105410000D01*
X126657100Y-105395654D01*
X126657100Y-103863100D01*
X126712920Y-103997862D01*
X126826791Y-104168280D01*
X126971720Y-104313209D01*
X127142138Y-104427080D01*
X127331497Y-104505515D01*
X127532520Y-104545500D01*
X127737480Y-104545500D01*
X127938503Y-104505515D01*
X128127862Y-104427080D01*
X128298280Y-104313209D01*
X128443209Y-104168280D01*
X128557080Y-103997862D01*
X128612900Y-103863100D01*
X128612900Y-104654009D01*
X128137529Y-105129380D01*
X128127862Y-105122920D01*
X127938503Y-105044485D01*
X127737480Y-105004500D01*
X127532520Y-105004500D01*
X127331497Y-105044485D01*
X127142138Y-105122920D01*
X126971720Y-105236791D01*
X126826791Y-105381720D01*
X126712920Y-105552138D01*
X126634485Y-105741497D01*
X126594500Y-105942520D01*
X126594500Y-106147480D01*
X126634485Y-106348503D01*
X126712920Y-106537862D01*
X126826791Y-106708280D01*
X126971720Y-106853209D01*
X127142138Y-106967080D01*
X127331497Y-107045515D01*
X127532520Y-107085500D01*
X127737480Y-107085500D01*
X127938503Y-107045515D01*
X128127862Y-106967080D01*
X128298280Y-106853209D01*
X128443209Y-106708280D01*
X128557080Y-106537862D01*
X128635515Y-106348503D01*
X128675500Y-106147480D01*
X128675500Y-105942520D01*
X128635515Y-105741497D01*
X128557080Y-105552138D01*
X128550620Y-105542471D01*
X129101399Y-104991692D01*
X129112545Y-104982545D01*
X129149047Y-104938067D01*
X129176171Y-104887323D01*
X129192873Y-104832262D01*
X129197100Y-104789346D01*
X129197100Y-104789337D01*
X129198512Y-104775001D01*
X129197100Y-104760665D01*
X129197100Y-103863100D01*
X129252920Y-103997862D01*
X129366791Y-104168280D01*
X129511720Y-104313209D01*
X129682138Y-104427080D01*
X129871497Y-104505515D01*
X130072520Y-104545500D01*
X130277480Y-104545500D01*
X130478503Y-104505515D01*
X130667862Y-104427080D01*
X130838280Y-104313209D01*
X130983209Y-104168280D01*
X131097080Y-103997862D01*
X131152901Y-103863100D01*
X131152901Y-105289007D01*
X131014043Y-105427866D01*
X130983209Y-105381720D01*
X130838280Y-105236791D01*
X130667862Y-105122920D01*
X130478503Y-105044485D01*
X130277480Y-105004500D01*
X130072520Y-105004500D01*
X129871497Y-105044485D01*
X129682138Y-105122920D01*
X129511720Y-105236791D01*
X129366791Y-105381720D01*
X129252920Y-105552138D01*
X129174485Y-105741497D01*
X129134500Y-105942520D01*
X129134500Y-106147480D01*
X129174485Y-106348503D01*
X129252920Y-106537862D01*
X129366791Y-106708280D01*
X129511720Y-106853209D01*
X129682138Y-106967080D01*
X129871497Y-107045515D01*
X130072520Y-107085500D01*
X130277480Y-107085500D01*
X130478503Y-107045515D01*
X130667862Y-106967080D01*
X130838280Y-106853209D01*
X130983209Y-106708280D01*
X131097080Y-106537862D01*
X131175515Y-106348503D01*
X131215500Y-106147480D01*
X131215500Y-106052591D01*
X131641403Y-105626689D01*
X131652545Y-105617545D01*
X131664909Y-105602480D01*
X131689047Y-105573067D01*
X131716171Y-105522323D01*
X131732873Y-105467262D01*
X131738513Y-105410000D01*
X131737100Y-105395654D01*
X131737100Y-103863100D01*
X131792920Y-103997862D01*
X131906791Y-104168280D01*
X132051720Y-104313209D01*
X132222138Y-104427080D01*
X132411497Y-104505515D01*
X132612520Y-104545500D01*
X132817480Y-104545500D01*
X133018503Y-104505515D01*
X133207862Y-104427080D01*
X133378280Y-104313209D01*
X133523209Y-104168280D01*
X133637080Y-103997862D01*
X133692901Y-103863100D01*
X133692901Y-105289007D01*
X133554043Y-105427866D01*
X133523209Y-105381720D01*
X133378280Y-105236791D01*
X133207862Y-105122920D01*
X133018503Y-105044485D01*
X132817480Y-105004500D01*
X132612520Y-105004500D01*
X132411497Y-105044485D01*
X132222138Y-105122920D01*
X132051720Y-105236791D01*
X131906791Y-105381720D01*
X131792920Y-105552138D01*
X131714485Y-105741497D01*
X131674500Y-105942520D01*
X131674500Y-106147480D01*
X131714485Y-106348503D01*
X131792920Y-106537862D01*
X131906791Y-106708280D01*
X132051720Y-106853209D01*
X132222138Y-106967080D01*
X132411497Y-107045515D01*
X132612520Y-107085500D01*
X132817480Y-107085500D01*
X133018503Y-107045515D01*
X133207862Y-106967080D01*
X133378280Y-106853209D01*
X133523209Y-106708280D01*
X133637080Y-106537862D01*
X133715515Y-106348503D01*
X133755500Y-106147480D01*
X133755500Y-106052591D01*
X134181403Y-105626689D01*
X134192545Y-105617545D01*
X134204909Y-105602480D01*
X134229047Y-105573067D01*
X134256171Y-105522323D01*
X134272873Y-105467262D01*
X134278513Y-105410000D01*
X134277100Y-105395654D01*
X134277100Y-103863100D01*
X134332920Y-103997862D01*
X134446791Y-104168280D01*
X134591720Y-104313209D01*
X134762138Y-104427080D01*
X134951497Y-104505515D01*
X135152520Y-104545500D01*
X135357480Y-104545500D01*
X135558503Y-104505515D01*
X135747862Y-104427080D01*
X135918280Y-104313209D01*
X136063209Y-104168280D01*
X136177080Y-103997862D01*
X136232900Y-103863100D01*
X136232900Y-105289008D01*
X136094043Y-105427866D01*
X136063209Y-105381720D01*
X135918280Y-105236791D01*
X135747862Y-105122920D01*
X135558503Y-105044485D01*
X135357480Y-105004500D01*
X135152520Y-105004500D01*
X134951497Y-105044485D01*
X134762138Y-105122920D01*
X134591720Y-105236791D01*
X134446791Y-105381720D01*
X134332920Y-105552138D01*
X134254485Y-105741497D01*
X134214500Y-105942520D01*
X134214500Y-106147480D01*
X134254485Y-106348503D01*
X134332920Y-106537862D01*
X134446791Y-106708280D01*
X134591720Y-106853209D01*
X134762138Y-106967080D01*
X134951497Y-107045515D01*
X135152520Y-107085500D01*
X135357480Y-107085500D01*
X135558503Y-107045515D01*
X135747862Y-106967080D01*
X135918280Y-106853209D01*
X136063209Y-106708280D01*
X136177080Y-106537862D01*
X136255515Y-106348503D01*
X136295500Y-106147480D01*
X136295500Y-106052591D01*
X136721404Y-105626688D01*
X136732545Y-105617545D01*
X136744909Y-105602480D01*
X136769047Y-105573067D01*
X136796171Y-105522323D01*
X136812873Y-105467262D01*
X136818513Y-105410000D01*
X136817100Y-105395654D01*
X136817100Y-105297329D01*
X143001035Y-105297329D01*
X143001035Y-105522671D01*
X143044997Y-105743682D01*
X143131232Y-105951871D01*
X143256424Y-106139235D01*
X143415765Y-106298576D01*
X143603129Y-106423768D01*
X143811318Y-106510003D01*
X144032329Y-106553965D01*
X144257671Y-106553965D01*
X144478682Y-106510003D01*
X144686871Y-106423768D01*
X144874235Y-106298576D01*
X145033576Y-106139235D01*
X145158768Y-105951871D01*
X145245003Y-105743682D01*
X145288965Y-105522671D01*
X145288965Y-105297329D01*
X145245003Y-105076318D01*
X145158768Y-104868129D01*
X145033576Y-104680765D01*
X144874235Y-104521424D01*
X144686871Y-104396232D01*
X144478682Y-104309997D01*
X144257671Y-104266035D01*
X144032329Y-104266035D01*
X143811318Y-104309997D01*
X143603129Y-104396232D01*
X143415765Y-104521424D01*
X143256424Y-104680765D01*
X143131232Y-104868129D01*
X143044997Y-105076318D01*
X143001035Y-105297329D01*
X136817100Y-105297329D01*
X136817100Y-101614346D01*
X136818513Y-101600000D01*
X136812873Y-101542738D01*
X136796171Y-101487677D01*
X136769047Y-101436933D01*
X136741690Y-101403598D01*
X136741689Y-101403597D01*
X136732545Y-101392455D01*
X136721402Y-101383310D01*
X136061791Y-100723700D01*
X143694557Y-100723700D01*
X143764499Y-100793642D01*
X143862262Y-100858966D01*
X143970891Y-100903961D01*
X144086210Y-100926900D01*
X144203790Y-100926900D01*
X144319109Y-100903961D01*
X144427738Y-100858966D01*
X144525501Y-100793642D01*
X144608642Y-100710501D01*
X144673966Y-100612738D01*
X144718961Y-100504109D01*
X144741900Y-100388790D01*
X144741900Y-100271210D01*
X144718961Y-100155891D01*
X144673966Y-100047262D01*
X144608642Y-99949499D01*
X144538700Y-99879557D01*
X144538700Y-97483154D01*
X144637862Y-97442080D01*
X144808280Y-97328209D01*
X144953209Y-97183280D01*
X145067080Y-97012862D01*
X145145515Y-96823503D01*
X145185500Y-96622480D01*
X145185500Y-96417520D01*
X145145515Y-96216497D01*
X145067080Y-96027138D01*
X144953209Y-95856720D01*
X144808280Y-95711791D01*
X144637862Y-95597920D01*
X144448503Y-95519485D01*
X144247480Y-95479500D01*
X144042520Y-95479500D01*
X143841497Y-95519485D01*
X143652138Y-95597920D01*
X143481720Y-95711791D01*
X143336791Y-95856720D01*
X143222920Y-96027138D01*
X143144485Y-96216497D01*
X143104500Y-96417520D01*
X143104500Y-96622480D01*
X143144485Y-96823503D01*
X143222920Y-97012862D01*
X143336791Y-97183280D01*
X143481720Y-97328209D01*
X143652138Y-97442080D01*
X143751301Y-97483155D01*
X143751300Y-99879557D01*
X143694557Y-99936300D01*
X136378767Y-99936300D01*
X136418966Y-99876138D01*
X136463961Y-99767509D01*
X136486900Y-99652190D01*
X136486900Y-99534610D01*
X136463961Y-99419291D01*
X136418966Y-99310662D01*
X136353642Y-99212899D01*
X136283700Y-99142957D01*
X136283700Y-93877520D01*
X140564500Y-93877520D01*
X140564500Y-94082480D01*
X140604485Y-94283503D01*
X140682920Y-94472862D01*
X140796791Y-94643280D01*
X140941720Y-94788209D01*
X141112138Y-94902080D01*
X141301497Y-94980515D01*
X141502520Y-95020500D01*
X141707480Y-95020500D01*
X141908503Y-94980515D01*
X142097862Y-94902080D01*
X142268280Y-94788209D01*
X142413209Y-94643280D01*
X142527080Y-94472862D01*
X142605515Y-94283503D01*
X142645500Y-94082480D01*
X142645500Y-93877520D01*
X143104500Y-93877520D01*
X143104500Y-94082480D01*
X143144485Y-94283503D01*
X143222920Y-94472862D01*
X143336791Y-94643280D01*
X143481720Y-94788209D01*
X143652138Y-94902080D01*
X143841497Y-94980515D01*
X144042520Y-95020500D01*
X144247480Y-95020500D01*
X144448503Y-94980515D01*
X144637862Y-94902080D01*
X144808280Y-94788209D01*
X144953209Y-94643280D01*
X145067080Y-94472862D01*
X145145515Y-94283503D01*
X145185500Y-94082480D01*
X145185500Y-93877520D01*
X145145515Y-93676497D01*
X145067080Y-93487138D01*
X144953209Y-93316720D01*
X144808280Y-93171791D01*
X144637862Y-93057920D01*
X144448503Y-92979485D01*
X144247480Y-92939500D01*
X144042520Y-92939500D01*
X143841497Y-92979485D01*
X143652138Y-93057920D01*
X143481720Y-93171791D01*
X143336791Y-93316720D01*
X143222920Y-93487138D01*
X143144485Y-93676497D01*
X143104500Y-93877520D01*
X142645500Y-93877520D01*
X142605515Y-93676497D01*
X142527080Y-93487138D01*
X142413209Y-93316720D01*
X142268280Y-93171791D01*
X142097862Y-93057920D01*
X141908503Y-92979485D01*
X141707480Y-92939500D01*
X141502520Y-92939500D01*
X141301497Y-92979485D01*
X141112138Y-93057920D01*
X140941720Y-93171791D01*
X140796791Y-93316720D01*
X140682920Y-93487138D01*
X140604485Y-93676497D01*
X140564500Y-93877520D01*
X136283700Y-93877520D01*
X136283700Y-91337520D01*
X143104500Y-91337520D01*
X143104500Y-91542480D01*
X143144485Y-91743503D01*
X143222920Y-91932862D01*
X143336791Y-92103280D01*
X143481720Y-92248209D01*
X143652138Y-92362080D01*
X143841497Y-92440515D01*
X144042520Y-92480500D01*
X144247480Y-92480500D01*
X144448503Y-92440515D01*
X144637862Y-92362080D01*
X144808280Y-92248209D01*
X144953209Y-92103280D01*
X145067080Y-91932862D01*
X145145515Y-91743503D01*
X145185500Y-91542480D01*
X145185500Y-91337520D01*
X145145515Y-91136497D01*
X145067080Y-90947138D01*
X144953209Y-90776720D01*
X144808280Y-90631791D01*
X144637862Y-90517920D01*
X144448503Y-90439485D01*
X144247480Y-90399500D01*
X144042520Y-90399500D01*
X143841497Y-90439485D01*
X143652138Y-90517920D01*
X143481720Y-90631791D01*
X143336791Y-90776720D01*
X143222920Y-90947138D01*
X143144485Y-91136497D01*
X143104500Y-91337520D01*
X136283700Y-91337520D01*
X136283700Y-88797520D01*
X140564500Y-88797520D01*
X140564500Y-89002480D01*
X140604485Y-89203503D01*
X140682920Y-89392862D01*
X140796791Y-89563280D01*
X140941720Y-89708209D01*
X141112138Y-89822080D01*
X141301497Y-89900515D01*
X141502520Y-89940500D01*
X141707480Y-89940500D01*
X141908503Y-89900515D01*
X142097862Y-89822080D01*
X142268280Y-89708209D01*
X142413209Y-89563280D01*
X142527080Y-89392862D01*
X142605515Y-89203503D01*
X142645500Y-89002480D01*
X142645500Y-88797520D01*
X143104500Y-88797520D01*
X143104500Y-89002480D01*
X143144485Y-89203503D01*
X143222920Y-89392862D01*
X143336791Y-89563280D01*
X143481720Y-89708209D01*
X143652138Y-89822080D01*
X143841497Y-89900515D01*
X144042520Y-89940500D01*
X144247480Y-89940500D01*
X144448503Y-89900515D01*
X144637862Y-89822080D01*
X144808280Y-89708209D01*
X144953209Y-89563280D01*
X145067080Y-89392862D01*
X145145515Y-89203503D01*
X145185500Y-89002480D01*
X145185500Y-88797520D01*
X145145515Y-88596497D01*
X145067080Y-88407138D01*
X144953209Y-88236720D01*
X144808280Y-88091791D01*
X144637862Y-87977920D01*
X144448503Y-87899485D01*
X144247480Y-87859500D01*
X144042520Y-87859500D01*
X143841497Y-87899485D01*
X143652138Y-87977920D01*
X143481720Y-88091791D01*
X143336791Y-88236720D01*
X143222920Y-88407138D01*
X143144485Y-88596497D01*
X143104500Y-88797520D01*
X142645500Y-88797520D01*
X142605515Y-88596497D01*
X142527080Y-88407138D01*
X142413209Y-88236720D01*
X142268280Y-88091791D01*
X142097862Y-87977920D01*
X141908503Y-87899485D01*
X141707480Y-87859500D01*
X141502520Y-87859500D01*
X141301497Y-87899485D01*
X141112138Y-87977920D01*
X140941720Y-88091791D01*
X140796791Y-88236720D01*
X140682920Y-88407138D01*
X140604485Y-88596497D01*
X140564500Y-88797520D01*
X136283700Y-88797520D01*
X136283700Y-86257520D01*
X140564500Y-86257520D01*
X140564500Y-86462480D01*
X140604485Y-86663503D01*
X140682920Y-86852862D01*
X140796791Y-87023280D01*
X140941720Y-87168209D01*
X141112138Y-87282080D01*
X141301497Y-87360515D01*
X141502520Y-87400500D01*
X141707480Y-87400500D01*
X141908503Y-87360515D01*
X142097862Y-87282080D01*
X142268280Y-87168209D01*
X142413209Y-87023280D01*
X142527080Y-86852862D01*
X142605515Y-86663503D01*
X142645500Y-86462480D01*
X142645500Y-86257520D01*
X143104500Y-86257520D01*
X143104500Y-86462480D01*
X143144485Y-86663503D01*
X143222920Y-86852862D01*
X143336791Y-87023280D01*
X143481720Y-87168209D01*
X143652138Y-87282080D01*
X143841497Y-87360515D01*
X144042520Y-87400500D01*
X144247480Y-87400500D01*
X144448503Y-87360515D01*
X144637862Y-87282080D01*
X144808280Y-87168209D01*
X144953209Y-87023280D01*
X145067080Y-86852862D01*
X145145515Y-86663503D01*
X145185500Y-86462480D01*
X145185500Y-86257520D01*
X145145515Y-86056497D01*
X145067080Y-85867138D01*
X144953209Y-85696720D01*
X144808280Y-85551791D01*
X144637862Y-85437920D01*
X144448503Y-85359485D01*
X144247480Y-85319500D01*
X144042520Y-85319500D01*
X143841497Y-85359485D01*
X143652138Y-85437920D01*
X143481720Y-85551791D01*
X143336791Y-85696720D01*
X143222920Y-85867138D01*
X143144485Y-86056497D01*
X143104500Y-86257520D01*
X142645500Y-86257520D01*
X142605515Y-86056497D01*
X142527080Y-85867138D01*
X142413209Y-85696720D01*
X142268280Y-85551791D01*
X142097862Y-85437920D01*
X141908503Y-85359485D01*
X141707480Y-85319500D01*
X141502520Y-85319500D01*
X141301497Y-85359485D01*
X141112138Y-85437920D01*
X140941720Y-85551791D01*
X140796791Y-85696720D01*
X140682920Y-85867138D01*
X140604485Y-86056497D01*
X140564500Y-86257520D01*
X136283700Y-86257520D01*
X136283700Y-82970000D01*
X140563579Y-82970000D01*
X140563579Y-84670000D01*
X140567257Y-84707344D01*
X140578150Y-84743254D01*
X140595839Y-84776348D01*
X140619645Y-84805355D01*
X140648652Y-84829161D01*
X140681746Y-84846850D01*
X140717656Y-84857743D01*
X140755000Y-84861421D01*
X142455000Y-84861421D01*
X142492344Y-84857743D01*
X142528254Y-84846850D01*
X142561348Y-84829161D01*
X142590355Y-84805355D01*
X142614161Y-84776348D01*
X142631850Y-84743254D01*
X142642743Y-84707344D01*
X142646421Y-84670000D01*
X142646421Y-83717520D01*
X143104500Y-83717520D01*
X143104500Y-83922480D01*
X143144485Y-84123503D01*
X143222920Y-84312862D01*
X143336791Y-84483280D01*
X143481720Y-84628209D01*
X143652138Y-84742080D01*
X143841497Y-84820515D01*
X144042520Y-84860500D01*
X144247480Y-84860500D01*
X144448503Y-84820515D01*
X144637862Y-84742080D01*
X144808280Y-84628209D01*
X144953209Y-84483280D01*
X145067080Y-84312862D01*
X145145515Y-84123503D01*
X145185500Y-83922480D01*
X145185500Y-83717520D01*
X145145515Y-83516497D01*
X145067080Y-83327138D01*
X144953209Y-83156720D01*
X144808280Y-83011791D01*
X144637862Y-82897920D01*
X144448503Y-82819485D01*
X144247480Y-82779500D01*
X144042520Y-82779500D01*
X143841497Y-82819485D01*
X143652138Y-82897920D01*
X143481720Y-83011791D01*
X143336791Y-83156720D01*
X143222920Y-83327138D01*
X143144485Y-83516497D01*
X143104500Y-83717520D01*
X142646421Y-83717520D01*
X142646421Y-82970000D01*
X142642743Y-82932656D01*
X142631850Y-82896746D01*
X142614161Y-82863652D01*
X142590355Y-82834645D01*
X142561348Y-82810839D01*
X142528254Y-82793150D01*
X142492344Y-82782257D01*
X142455000Y-82778579D01*
X140755000Y-82778579D01*
X140717656Y-82782257D01*
X140681746Y-82793150D01*
X140648652Y-82810839D01*
X140619645Y-82834645D01*
X140595839Y-82863652D01*
X140578150Y-82896746D01*
X140567257Y-82932656D01*
X140563579Y-82970000D01*
X136283700Y-82970000D01*
X136283700Y-79394325D01*
X136285603Y-79375000D01*
X136283700Y-79355675D01*
X136283700Y-79355667D01*
X136278003Y-79297821D01*
X136255490Y-79223609D01*
X136218933Y-79155214D01*
X136196601Y-79128003D01*
X136182058Y-79110282D01*
X136182055Y-79110279D01*
X136169734Y-79095266D01*
X136154720Y-79082944D01*
X135547060Y-78475285D01*
X135534734Y-78460266D01*
X135474786Y-78411067D01*
X135406391Y-78374510D01*
X135332179Y-78351997D01*
X135274333Y-78346300D01*
X135274322Y-78346300D01*
X135255000Y-78344397D01*
X135235678Y-78346300D01*
X121735443Y-78346300D01*
X121665501Y-78276358D01*
X121567738Y-78211034D01*
X121459109Y-78166039D01*
X121343790Y-78143100D01*
X121226210Y-78143100D01*
X121110891Y-78166039D01*
X121002262Y-78211034D01*
X120904499Y-78276358D01*
X120821358Y-78359499D01*
X120756034Y-78457262D01*
X120711039Y-78565891D01*
X120688100Y-78681210D01*
X120688100Y-78798790D01*
X120711039Y-78914109D01*
X120756034Y-79022738D01*
X120821358Y-79120501D01*
X120904499Y-79203642D01*
X121002262Y-79268966D01*
X121110891Y-79313961D01*
X121226210Y-79336900D01*
X121343790Y-79336900D01*
X121459109Y-79313961D01*
X121567738Y-79268966D01*
X121665501Y-79203642D01*
X121735443Y-79133700D01*
X135091925Y-79133700D01*
X135496301Y-79538077D01*
X135496301Y-80329525D01*
X134912060Y-79745285D01*
X134899734Y-79730266D01*
X134839786Y-79681067D01*
X134771391Y-79644510D01*
X134697179Y-79621997D01*
X134639333Y-79616300D01*
X134639322Y-79616300D01*
X134620000Y-79614397D01*
X134600678Y-79616300D01*
X121735443Y-79616300D01*
X121665501Y-79546358D01*
X121567738Y-79481034D01*
X121459109Y-79436039D01*
X121343790Y-79413100D01*
X121226210Y-79413100D01*
X121110891Y-79436039D01*
X121002262Y-79481034D01*
X120904499Y-79546358D01*
X120821358Y-79629499D01*
X120756034Y-79727262D01*
X120711039Y-79835891D01*
X120688100Y-79951210D01*
X120688100Y-80068790D01*
X120711039Y-80184109D01*
X120756034Y-80292738D01*
X120821358Y-80390501D01*
X120904499Y-80473642D01*
X121002262Y-80538966D01*
X121110891Y-80583961D01*
X121226210Y-80606900D01*
X121343790Y-80606900D01*
X121459109Y-80583961D01*
X121567738Y-80538966D01*
X121665501Y-80473642D01*
X121735443Y-80403700D01*
X134456925Y-80403700D01*
X134861301Y-80808077D01*
X134861300Y-98261924D01*
X133821925Y-99301300D01*
X132676224Y-99301300D01*
X132657158Y-99305093D01*
X132637821Y-99306997D01*
X132619227Y-99312638D01*
X132600162Y-99316430D01*
X132582199Y-99323871D01*
X132563609Y-99329510D01*
X132546477Y-99338667D01*
X132528513Y-99346108D01*
X132512349Y-99356909D01*
X132495214Y-99366067D01*
X132480197Y-99378391D01*
X132464031Y-99389193D01*
X132450279Y-99402945D01*
X132435266Y-99415266D01*
X132422945Y-99430279D01*
X132409193Y-99444031D01*
X132398391Y-99460197D01*
X132386067Y-99475214D01*
X132376909Y-99492349D01*
X132366108Y-99508513D01*
X132358667Y-99526477D01*
X132349510Y-99543609D01*
X132343871Y-99562199D01*
X132336430Y-99580162D01*
X132332638Y-99599227D01*
X132326997Y-99617821D01*
X132325093Y-99637158D01*
X132321300Y-99656224D01*
X132321300Y-99675667D01*
X132319396Y-99695000D01*
X132321300Y-99714333D01*
X132321300Y-99733776D01*
X132325093Y-99752842D01*
X132326997Y-99772179D01*
X132332638Y-99790773D01*
X132336430Y-99809838D01*
X132343871Y-99827801D01*
X132349510Y-99846391D01*
X132358667Y-99863523D01*
X132366108Y-99881487D01*
X132376909Y-99897651D01*
X132386067Y-99914786D01*
X132398391Y-99929803D01*
X132402732Y-99936300D01*
X125696275Y-99936300D01*
X125622061Y-99862086D01*
X125609735Y-99847067D01*
X125549787Y-99797868D01*
X125481392Y-99761311D01*
X125407180Y-99738798D01*
X125349334Y-99733101D01*
X125349323Y-99733101D01*
X125330001Y-99731198D01*
X125310679Y-99733101D01*
X107909877Y-99733101D01*
X107073700Y-98896925D01*
X107073700Y-96417520D01*
X107544500Y-96417520D01*
X107544500Y-96622480D01*
X107584485Y-96823503D01*
X107662920Y-97012862D01*
X107776791Y-97183280D01*
X107921720Y-97328209D01*
X108092138Y-97442080D01*
X108281497Y-97520515D01*
X108482520Y-97560500D01*
X108687480Y-97560500D01*
X108888503Y-97520515D01*
X109077862Y-97442080D01*
X109087529Y-97435620D01*
X109446908Y-97794999D01*
X109456056Y-97806146D01*
X109500534Y-97842648D01*
X109551278Y-97869772D01*
X109606339Y-97886474D01*
X109649255Y-97890701D01*
X109649264Y-97890701D01*
X109663600Y-97892113D01*
X109677936Y-97890701D01*
X111632271Y-97890701D01*
X111646609Y-97892113D01*
X111660947Y-97890701D01*
X111660955Y-97890701D01*
X111703871Y-97886474D01*
X111758932Y-97869772D01*
X111809676Y-97842648D01*
X111854154Y-97806146D01*
X111863302Y-97794999D01*
X112515992Y-97142310D01*
X132924220Y-97142310D01*
X132930104Y-97148194D01*
X132939256Y-97159346D01*
X132983734Y-97195848D01*
X133034478Y-97222972D01*
X133089539Y-97239674D01*
X133132455Y-97243901D01*
X133132464Y-97243901D01*
X133146800Y-97245313D01*
X133161136Y-97243901D01*
X133538861Y-97243901D01*
X133553199Y-97245313D01*
X133567537Y-97243901D01*
X133567545Y-97243901D01*
X133610461Y-97239674D01*
X133665522Y-97222972D01*
X133716266Y-97195848D01*
X133760744Y-97159346D01*
X133769892Y-97148199D01*
X134004392Y-96913700D01*
X134023776Y-96913700D01*
X134099838Y-96898570D01*
X134171487Y-96868892D01*
X134235969Y-96825807D01*
X134290807Y-96770969D01*
X134333892Y-96706487D01*
X134363570Y-96634838D01*
X134378700Y-96558776D01*
X134378700Y-96481224D01*
X134363570Y-96405162D01*
X134333892Y-96333513D01*
X134290807Y-96269031D01*
X134235969Y-96214193D01*
X134171487Y-96171108D01*
X134099838Y-96141430D01*
X134023776Y-96126300D01*
X133946224Y-96126300D01*
X133870162Y-96141430D01*
X133798513Y-96171108D01*
X133734031Y-96214193D01*
X133679193Y-96269031D01*
X133667500Y-96286531D01*
X133655807Y-96269031D01*
X133600969Y-96214193D01*
X133536487Y-96171108D01*
X133478958Y-96147279D01*
X133513067Y-96129047D01*
X133557545Y-96092545D01*
X133566693Y-96081398D01*
X134181403Y-95466689D01*
X134192545Y-95457545D01*
X134229047Y-95413067D01*
X134256171Y-95362323D01*
X134272873Y-95307262D01*
X134277100Y-95264346D01*
X134278513Y-95250000D01*
X134277100Y-95235654D01*
X134277100Y-91069676D01*
X134290807Y-91055969D01*
X134333892Y-90991487D01*
X134363570Y-90919838D01*
X134378700Y-90843776D01*
X134378700Y-90766224D01*
X134363570Y-90690162D01*
X134333892Y-90618513D01*
X134290807Y-90554031D01*
X134235969Y-90499193D01*
X134171487Y-90456108D01*
X134099838Y-90426430D01*
X134023776Y-90411300D01*
X133946224Y-90411300D01*
X133870162Y-90426430D01*
X133798513Y-90456108D01*
X133734031Y-90499193D01*
X133697938Y-90535286D01*
X133655807Y-90472231D01*
X133600969Y-90417393D01*
X133536487Y-90374308D01*
X133464838Y-90344630D01*
X133388776Y-90329500D01*
X133311224Y-90329500D01*
X133235162Y-90344630D01*
X133163513Y-90374308D01*
X133099031Y-90417393D01*
X133044193Y-90472231D01*
X133001108Y-90536713D01*
X132971430Y-90608362D01*
X132956300Y-90684424D01*
X132956300Y-90761976D01*
X132971430Y-90838038D01*
X133001108Y-90909687D01*
X133044193Y-90974169D01*
X133057901Y-90987877D01*
X133057900Y-91810324D01*
X133044193Y-91824031D01*
X133001108Y-91888513D01*
X132971430Y-91960162D01*
X132956300Y-92036224D01*
X132956300Y-92113776D01*
X132971430Y-92189838D01*
X133001108Y-92261487D01*
X133044193Y-92325969D01*
X133099031Y-92380807D01*
X133163513Y-92423892D01*
X133235162Y-92453570D01*
X133311224Y-92468700D01*
X133388776Y-92468700D01*
X133464838Y-92453570D01*
X133536487Y-92423892D01*
X133600969Y-92380807D01*
X133655807Y-92325969D01*
X133692900Y-92270454D01*
X133692901Y-95129007D01*
X133229009Y-95592900D01*
X131782639Y-95592900D01*
X131768303Y-95591488D01*
X131753967Y-95592900D01*
X131753958Y-95592900D01*
X131711042Y-95597127D01*
X131655981Y-95613829D01*
X131605237Y-95640953D01*
X131560759Y-95677455D01*
X131551611Y-95688602D01*
X131418703Y-95821510D01*
X119868767Y-95821510D01*
X119908966Y-95761348D01*
X119953961Y-95652719D01*
X119976900Y-95537400D01*
X119976900Y-95419820D01*
X119953961Y-95304501D01*
X119908966Y-95195872D01*
X119843642Y-95098109D01*
X119773700Y-95028167D01*
X119773700Y-92094322D01*
X119775603Y-92074999D01*
X119773700Y-92055677D01*
X119773700Y-92055667D01*
X119768003Y-91997821D01*
X119745490Y-91923609D01*
X119708933Y-91855214D01*
X119672058Y-91810282D01*
X119672055Y-91810279D01*
X119659734Y-91795266D01*
X119644722Y-91782946D01*
X118706900Y-90845125D01*
X118706900Y-90764876D01*
X119009720Y-90462056D01*
X119024734Y-90449734D01*
X119041187Y-90429687D01*
X119073933Y-90389786D01*
X119110490Y-90321391D01*
X119133003Y-90247179D01*
X119138700Y-90189333D01*
X119138700Y-90189325D01*
X119140603Y-90170000D01*
X119138700Y-90150675D01*
X119138700Y-87445443D01*
X119208642Y-87375501D01*
X119273966Y-87277738D01*
X119318961Y-87169109D01*
X119341900Y-87053790D01*
X119341900Y-86936210D01*
X119318961Y-86820891D01*
X119273966Y-86712262D01*
X119208642Y-86614499D01*
X119125501Y-86531358D01*
X119027738Y-86466034D01*
X118919109Y-86421039D01*
X118803790Y-86398100D01*
X118686210Y-86398100D01*
X118570891Y-86421039D01*
X118462262Y-86466034D01*
X118364499Y-86531358D01*
X118281358Y-86614499D01*
X118216034Y-86712262D01*
X118171039Y-86820891D01*
X118148100Y-86936210D01*
X118148100Y-87053790D01*
X118171039Y-87169109D01*
X118216034Y-87277738D01*
X118281358Y-87375501D01*
X118351300Y-87445443D01*
X118351301Y-90006923D01*
X118150124Y-90208100D01*
X118051210Y-90208100D01*
X117935891Y-90231039D01*
X117827262Y-90276034D01*
X117729499Y-90341358D01*
X117646358Y-90424499D01*
X117581034Y-90522262D01*
X117536039Y-90630891D01*
X117513100Y-90746210D01*
X117513100Y-90863790D01*
X117536039Y-90979109D01*
X117581034Y-91087738D01*
X117646358Y-91185501D01*
X117729499Y-91268642D01*
X117827262Y-91333966D01*
X117935891Y-91378961D01*
X118051210Y-91401900D01*
X118150125Y-91401900D01*
X118986300Y-92238076D01*
X118986301Y-95028166D01*
X118916358Y-95098109D01*
X118851034Y-95195872D01*
X118806039Y-95304501D01*
X118783100Y-95419820D01*
X118783100Y-95537400D01*
X118806039Y-95652719D01*
X118851034Y-95761348D01*
X118891233Y-95821510D01*
X115115026Y-95821510D01*
X115217738Y-95778966D01*
X115315501Y-95713642D01*
X115398642Y-95630501D01*
X115463966Y-95532738D01*
X115508961Y-95424109D01*
X115531900Y-95308790D01*
X115531900Y-95191210D01*
X115508961Y-95075891D01*
X115463966Y-94967262D01*
X115398642Y-94869499D01*
X115328700Y-94799557D01*
X115328700Y-93198767D01*
X115388862Y-93238966D01*
X115497491Y-93283961D01*
X115612810Y-93306900D01*
X115730390Y-93306900D01*
X115845709Y-93283961D01*
X115954338Y-93238966D01*
X116052101Y-93173642D01*
X116135242Y-93090501D01*
X116200566Y-92992738D01*
X116245561Y-92884109D01*
X116268500Y-92768790D01*
X116268500Y-92651210D01*
X116245561Y-92535891D01*
X116200566Y-92427262D01*
X116135242Y-92329499D01*
X116065300Y-92259557D01*
X116065300Y-84516475D01*
X117003076Y-83578700D01*
X125279557Y-83578700D01*
X125349499Y-83648642D01*
X125447262Y-83713966D01*
X125555891Y-83758961D01*
X125671210Y-83781900D01*
X125788790Y-83781900D01*
X125904109Y-83758961D01*
X126012738Y-83713966D01*
X126110501Y-83648642D01*
X126193642Y-83565501D01*
X126258966Y-83467738D01*
X126303961Y-83359109D01*
X126326900Y-83243790D01*
X126326900Y-83126210D01*
X126303961Y-83010891D01*
X126258966Y-82902262D01*
X126193642Y-82804499D01*
X126110501Y-82721358D01*
X126012738Y-82656034D01*
X125904109Y-82611039D01*
X125788790Y-82588100D01*
X125671210Y-82588100D01*
X125555891Y-82611039D01*
X125447262Y-82656034D01*
X125349499Y-82721358D01*
X125279557Y-82791300D01*
X116859322Y-82791300D01*
X116839999Y-82789397D01*
X116820677Y-82791300D01*
X116820667Y-82791300D01*
X116762821Y-82796997D01*
X116688609Y-82819510D01*
X116620214Y-82856067D01*
X116575282Y-82892942D01*
X116575279Y-82892945D01*
X116560266Y-82905266D01*
X116547944Y-82920280D01*
X115406880Y-84061345D01*
X115391867Y-84073666D01*
X115379546Y-84088679D01*
X115379542Y-84088683D01*
X115342667Y-84133615D01*
X115328700Y-84159746D01*
X115328700Y-79538075D01*
X115834720Y-79032056D01*
X115849734Y-79019734D01*
X115862059Y-79004717D01*
X115898933Y-78959786D01*
X115935490Y-78891391D01*
X115958003Y-78817179D01*
X115959814Y-78798790D01*
X115963700Y-78759333D01*
X115963700Y-78759325D01*
X115965603Y-78740000D01*
X115963700Y-78720675D01*
X115963700Y-77357329D01*
X143001035Y-77357329D01*
X143001035Y-77582671D01*
X143044997Y-77803682D01*
X143131232Y-78011871D01*
X143256424Y-78199235D01*
X143415765Y-78358576D01*
X143603129Y-78483768D01*
X143811318Y-78570003D01*
X144032329Y-78613965D01*
X144257671Y-78613965D01*
X144478682Y-78570003D01*
X144686871Y-78483768D01*
X144874235Y-78358576D01*
X145033576Y-78199235D01*
X145158768Y-78011871D01*
X145245003Y-77803682D01*
X145288965Y-77582671D01*
X145288965Y-77357329D01*
X145245003Y-77136318D01*
X145158768Y-76928129D01*
X145033576Y-76740765D01*
X144874235Y-76581424D01*
X144686871Y-76456232D01*
X144478682Y-76369997D01*
X144257671Y-76326035D01*
X144032329Y-76326035D01*
X143811318Y-76369997D01*
X143603129Y-76456232D01*
X143415765Y-76581424D01*
X143256424Y-76740765D01*
X143131232Y-76928129D01*
X143044997Y-77136318D01*
X143001035Y-77357329D01*
X115963700Y-77357329D01*
X115963700Y-76015443D01*
X116033642Y-75945501D01*
X116098966Y-75847738D01*
X116143961Y-75739109D01*
X116166900Y-75623790D01*
X116166900Y-75506210D01*
X116143961Y-75390891D01*
X116098966Y-75282262D01*
X116033642Y-75184499D01*
X115950501Y-75101358D01*
X115852738Y-75036034D01*
X115744109Y-74991039D01*
X115628790Y-74968100D01*
X115511210Y-74968100D01*
X115395891Y-74991039D01*
X115287262Y-75036034D01*
X115189499Y-75101358D01*
X115106358Y-75184499D01*
X115041034Y-75282262D01*
X114996039Y-75390891D01*
X114973100Y-75506210D01*
X114973100Y-75623790D01*
X114996039Y-75739109D01*
X115041034Y-75847738D01*
X115106358Y-75945501D01*
X115176300Y-76015443D01*
X115176301Y-78576923D01*
X114882613Y-78870611D01*
X114896900Y-78798790D01*
X114896900Y-78681210D01*
X114873961Y-78565891D01*
X114828966Y-78457262D01*
X114763642Y-78359499D01*
X114680501Y-78276358D01*
X114582738Y-78211034D01*
X114474109Y-78166039D01*
X114358790Y-78143100D01*
X114241210Y-78143100D01*
X114125891Y-78166039D01*
X114017262Y-78211034D01*
X113919499Y-78276358D01*
X113836358Y-78359499D01*
X113771034Y-78457262D01*
X113726039Y-78565891D01*
X113703100Y-78681210D01*
X113703100Y-78780125D01*
X113400285Y-79082940D01*
X113385266Y-79095266D01*
X113336067Y-79155215D01*
X113299510Y-79223610D01*
X113276997Y-79297822D01*
X113271300Y-79355668D01*
X113271300Y-79355678D01*
X113269397Y-79375000D01*
X113271300Y-79394322D01*
X113271301Y-94799556D01*
X113201358Y-94869499D01*
X113136034Y-94967262D01*
X113091039Y-95075891D01*
X113068100Y-95191210D01*
X113068100Y-95308790D01*
X113091039Y-95424109D01*
X113136034Y-95532738D01*
X113201358Y-95630501D01*
X113284499Y-95713642D01*
X113382262Y-95778966D01*
X113484974Y-95821510D01*
X112744602Y-95821510D01*
X111742134Y-94819043D01*
X111788280Y-94788209D01*
X111933209Y-94643280D01*
X112047080Y-94472862D01*
X112125515Y-94283503D01*
X112165500Y-94082480D01*
X112165500Y-93877520D01*
X112125515Y-93676497D01*
X112047080Y-93487138D01*
X111933209Y-93316720D01*
X111788280Y-93171791D01*
X111617862Y-93057920D01*
X111428503Y-92979485D01*
X111227480Y-92939500D01*
X111022520Y-92939500D01*
X110821497Y-92979485D01*
X110632138Y-93057920D01*
X110461720Y-93171791D01*
X110316791Y-93316720D01*
X110202920Y-93487138D01*
X110124485Y-93676497D01*
X110084500Y-93877520D01*
X110084500Y-94082480D01*
X110124485Y-94283503D01*
X110202920Y-94472862D01*
X110316791Y-94643280D01*
X110461720Y-94788209D01*
X110632138Y-94902080D01*
X110821497Y-94980515D01*
X111022520Y-95020500D01*
X111117409Y-95020500D01*
X112324808Y-96227900D01*
X112127783Y-96227900D01*
X112125515Y-96216497D01*
X112047080Y-96027138D01*
X111933209Y-95856720D01*
X111788280Y-95711791D01*
X111617862Y-95597920D01*
X111428503Y-95519485D01*
X111227480Y-95479500D01*
X111022520Y-95479500D01*
X110821497Y-95519485D01*
X110632138Y-95597920D01*
X110461720Y-95711791D01*
X110316791Y-95856720D01*
X110202920Y-96027138D01*
X110124485Y-96216497D01*
X110084500Y-96417520D01*
X110084500Y-96622480D01*
X110124485Y-96823503D01*
X110202920Y-97012862D01*
X110316791Y-97183280D01*
X110440012Y-97306501D01*
X109784592Y-97306501D01*
X109500620Y-97022529D01*
X109507080Y-97012862D01*
X109585515Y-96823503D01*
X109625500Y-96622480D01*
X109625500Y-96417520D01*
X109585515Y-96216497D01*
X109507080Y-96027138D01*
X109393209Y-95856720D01*
X109248280Y-95711791D01*
X109077862Y-95597920D01*
X108888503Y-95519485D01*
X108687480Y-95479500D01*
X108482520Y-95479500D01*
X108281497Y-95519485D01*
X108092138Y-95597920D01*
X107921720Y-95711791D01*
X107776791Y-95856720D01*
X107662920Y-96027138D01*
X107584485Y-96216497D01*
X107544500Y-96417520D01*
X107073700Y-96417520D01*
X107073700Y-93877520D01*
X107544500Y-93877520D01*
X107544500Y-94082480D01*
X107584485Y-94283503D01*
X107662920Y-94472862D01*
X107776791Y-94643280D01*
X107921720Y-94788209D01*
X108092138Y-94902080D01*
X108281497Y-94980515D01*
X108482520Y-95020500D01*
X108687480Y-95020500D01*
X108888503Y-94980515D01*
X109077862Y-94902080D01*
X109248280Y-94788209D01*
X109393209Y-94643280D01*
X109507080Y-94472862D01*
X109585515Y-94283503D01*
X109625500Y-94082480D01*
X109625500Y-93877520D01*
X109585515Y-93676497D01*
X109507080Y-93487138D01*
X109393209Y-93316720D01*
X109248280Y-93171791D01*
X109077862Y-93057920D01*
X108888503Y-92979485D01*
X108687480Y-92939500D01*
X108482520Y-92939500D01*
X108281497Y-92979485D01*
X108092138Y-93057920D01*
X107921720Y-93171791D01*
X107776791Y-93316720D01*
X107662920Y-93487138D01*
X107584485Y-93676497D01*
X107544500Y-93877520D01*
X107073700Y-93877520D01*
X107073700Y-91337520D01*
X107544500Y-91337520D01*
X107544500Y-91542480D01*
X107584485Y-91743503D01*
X107662920Y-91932862D01*
X107776791Y-92103280D01*
X107921720Y-92248209D01*
X108092138Y-92362080D01*
X108281497Y-92440515D01*
X108482520Y-92480500D01*
X108687480Y-92480500D01*
X108888503Y-92440515D01*
X109077862Y-92362080D01*
X109248280Y-92248209D01*
X109393209Y-92103280D01*
X109507080Y-91932862D01*
X109585515Y-91743503D01*
X109625500Y-91542480D01*
X109625500Y-91337520D01*
X109585515Y-91136497D01*
X109507080Y-90947138D01*
X109393209Y-90776720D01*
X109248280Y-90631791D01*
X109077862Y-90517920D01*
X108888503Y-90439485D01*
X108687480Y-90399500D01*
X108482520Y-90399500D01*
X108281497Y-90439485D01*
X108092138Y-90517920D01*
X107921720Y-90631791D01*
X107776791Y-90776720D01*
X107662920Y-90947138D01*
X107584485Y-91136497D01*
X107544500Y-91337520D01*
X107073700Y-91337520D01*
X107073700Y-89698075D01*
X107478076Y-89293700D01*
X107621846Y-89293700D01*
X107662920Y-89392862D01*
X107776791Y-89563280D01*
X107921720Y-89708209D01*
X108092138Y-89822080D01*
X108281497Y-89900515D01*
X108482520Y-89940500D01*
X108687480Y-89940500D01*
X108888503Y-89900515D01*
X108987665Y-89859441D01*
X110165559Y-91037335D01*
X110124485Y-91136497D01*
X110084500Y-91337520D01*
X110084500Y-91542480D01*
X110124485Y-91743503D01*
X110202920Y-91932862D01*
X110316791Y-92103280D01*
X110461720Y-92248209D01*
X110632138Y-92362080D01*
X110821497Y-92440515D01*
X111022520Y-92480500D01*
X111227480Y-92480500D01*
X111428503Y-92440515D01*
X111617862Y-92362080D01*
X111788280Y-92248209D01*
X111933209Y-92103280D01*
X112047080Y-91932862D01*
X112125515Y-91743503D01*
X112165500Y-91542480D01*
X112165500Y-91337520D01*
X112125515Y-91136497D01*
X112047080Y-90947138D01*
X111933209Y-90776720D01*
X111788280Y-90631791D01*
X111617862Y-90517920D01*
X111428503Y-90439485D01*
X111227480Y-90399500D01*
X111022520Y-90399500D01*
X110821497Y-90439485D01*
X110722335Y-90480559D01*
X109544441Y-89302665D01*
X109585515Y-89203503D01*
X109625500Y-89002480D01*
X109625500Y-88797520D01*
X110084500Y-88797520D01*
X110084500Y-89002480D01*
X110124485Y-89203503D01*
X110202920Y-89392862D01*
X110316791Y-89563280D01*
X110461720Y-89708209D01*
X110632138Y-89822080D01*
X110821497Y-89900515D01*
X111022520Y-89940500D01*
X111227480Y-89940500D01*
X111428503Y-89900515D01*
X111617862Y-89822080D01*
X111788280Y-89708209D01*
X111933209Y-89563280D01*
X112047080Y-89392862D01*
X112125515Y-89203503D01*
X112165500Y-89002480D01*
X112165500Y-88797520D01*
X112125515Y-88596497D01*
X112047080Y-88407138D01*
X111933209Y-88236720D01*
X111788280Y-88091791D01*
X111617862Y-87977920D01*
X111428503Y-87899485D01*
X111227480Y-87859500D01*
X111022520Y-87859500D01*
X110821497Y-87899485D01*
X110632138Y-87977920D01*
X110461720Y-88091791D01*
X110316791Y-88236720D01*
X110202920Y-88407138D01*
X110124485Y-88596497D01*
X110084500Y-88797520D01*
X109625500Y-88797520D01*
X109585515Y-88596497D01*
X109507080Y-88407138D01*
X109393209Y-88236720D01*
X109248280Y-88091791D01*
X109077862Y-87977920D01*
X108978700Y-87936846D01*
X108978700Y-87323154D01*
X109077862Y-87282080D01*
X109248280Y-87168209D01*
X109393209Y-87023280D01*
X109507080Y-86852862D01*
X109585515Y-86663503D01*
X109625500Y-86462480D01*
X109625500Y-86257520D01*
X110084500Y-86257520D01*
X110084500Y-86462480D01*
X110124485Y-86663503D01*
X110202920Y-86852862D01*
X110316791Y-87023280D01*
X110461720Y-87168209D01*
X110632138Y-87282080D01*
X110821497Y-87360515D01*
X111022520Y-87400500D01*
X111227480Y-87400500D01*
X111428503Y-87360515D01*
X111617862Y-87282080D01*
X111788280Y-87168209D01*
X111933209Y-87023280D01*
X112047080Y-86852862D01*
X112125515Y-86663503D01*
X112165500Y-86462480D01*
X112165500Y-86257520D01*
X112125515Y-86056497D01*
X112047080Y-85867138D01*
X111933209Y-85696720D01*
X111788280Y-85551791D01*
X111617862Y-85437920D01*
X111428503Y-85359485D01*
X111227480Y-85319500D01*
X111022520Y-85319500D01*
X110821497Y-85359485D01*
X110632138Y-85437920D01*
X110461720Y-85551791D01*
X110316791Y-85696720D01*
X110202920Y-85867138D01*
X110124485Y-86056497D01*
X110084500Y-86257520D01*
X109625500Y-86257520D01*
X109585515Y-86056497D01*
X109507080Y-85867138D01*
X109393209Y-85696720D01*
X109248280Y-85551791D01*
X109077862Y-85437920D01*
X108888503Y-85359485D01*
X108687480Y-85319500D01*
X108482520Y-85319500D01*
X108281497Y-85359485D01*
X108092138Y-85437920D01*
X107921720Y-85551791D01*
X107776791Y-85696720D01*
X107662920Y-85867138D01*
X107584485Y-86056497D01*
X107544500Y-86257520D01*
X107544500Y-86462480D01*
X107584485Y-86663503D01*
X107662920Y-86852862D01*
X107776791Y-87023280D01*
X107921720Y-87168209D01*
X108092138Y-87282080D01*
X108191301Y-87323154D01*
X108191300Y-87936846D01*
X108092138Y-87977920D01*
X107921720Y-88091791D01*
X107776791Y-88236720D01*
X107662920Y-88407138D01*
X107621846Y-88506300D01*
X107334325Y-88506300D01*
X107315000Y-88504397D01*
X107295675Y-88506300D01*
X107295667Y-88506300D01*
X107237821Y-88511997D01*
X107163609Y-88534510D01*
X107095214Y-88571067D01*
X107050282Y-88607942D01*
X107050279Y-88607945D01*
X107035266Y-88620266D01*
X107022944Y-88635280D01*
X106415280Y-89242945D01*
X106400267Y-89255266D01*
X106387946Y-89270279D01*
X106387942Y-89270283D01*
X106351067Y-89315215D01*
X106314510Y-89383610D01*
X106291998Y-89457822D01*
X106284397Y-89535000D01*
X105290500Y-89535000D01*
X105290500Y-83717520D01*
X110084500Y-83717520D01*
X110084500Y-83922480D01*
X110124485Y-84123503D01*
X110202920Y-84312862D01*
X110316791Y-84483280D01*
X110461720Y-84628209D01*
X110632138Y-84742080D01*
X110821497Y-84820515D01*
X111022520Y-84860500D01*
X111227480Y-84860500D01*
X111428503Y-84820515D01*
X111617862Y-84742080D01*
X111788280Y-84628209D01*
X111933209Y-84483280D01*
X112047080Y-84312862D01*
X112125515Y-84123503D01*
X112165500Y-83922480D01*
X112165500Y-83717520D01*
X112125515Y-83516497D01*
X112047080Y-83327138D01*
X111933209Y-83156720D01*
X111788280Y-83011791D01*
X111617862Y-82897920D01*
X111428503Y-82819485D01*
X111227480Y-82779500D01*
X111022520Y-82779500D01*
X110821497Y-82819485D01*
X110632138Y-82897920D01*
X110461720Y-83011791D01*
X110316791Y-83156720D01*
X110202920Y-83327138D01*
X110124485Y-83516497D01*
X110084500Y-83717520D01*
X105290500Y-83717520D01*
X105290500Y-77581761D01*
X105312505Y-77357329D01*
X107441035Y-77357329D01*
X107441035Y-77582671D01*
X107484997Y-77803682D01*
X107571232Y-78011871D01*
X107696424Y-78199235D01*
X107855765Y-78358576D01*
X108043129Y-78483768D01*
X108251318Y-78570003D01*
X108472329Y-78613965D01*
X108697671Y-78613965D01*
X108918682Y-78570003D01*
X109126871Y-78483768D01*
X109314235Y-78358576D01*
X109473576Y-78199235D01*
X109598768Y-78011871D01*
X109685003Y-77803682D01*
X109728965Y-77582671D01*
X109728965Y-77357329D01*
X109685003Y-77136318D01*
X109598768Y-76928129D01*
X109473576Y-76740765D01*
X109314235Y-76581424D01*
X109126871Y-76456232D01*
X108918682Y-76369997D01*
X108697671Y-76326035D01*
X108472329Y-76326035D01*
X108251318Y-76369997D01*
X108043129Y-76456232D01*
X107855765Y-76581424D01*
X107696424Y-76740765D01*
X107571232Y-76928129D01*
X107484997Y-77136318D01*
X107441035Y-77357329D01*
X105312505Y-77357329D01*
X105347518Y-77000242D01*
X105512985Y-76452191D01*
X105781754Y-75946710D01*
X106143582Y-75503064D01*
X106584695Y-75138144D01*
X107088280Y-74865856D01*
X107635170Y-74696566D01*
X108215846Y-74635534D01*
X108225547Y-74635500D01*
X144408239Y-74635500D01*
X144989758Y-74692518D01*
G04 #@! TD*
M02*
