%TF.GenerationSoftware,KiCad,Pcbnew,(5.1.6)-1*%
%TF.CreationDate,2021-04-15T17:49:08-07:00*%
%TF.ProjectId,scum3c-devboard,7363756d-3363-42d6-9465-76626f617264,rev?*%
%TF.SameCoordinates,Original*%
%TF.FileFunction,Legend,Bot*%
%TF.FilePolarity,Positive*%
%FSLAX46Y46*%
G04 Gerber Fmt 4.6, Leading zero omitted, Abs format (unit mm)*
G04 Created by KiCad (PCBNEW (5.1.6)-1) date 2021-04-15 17:49:08*
%MOMM*%
%LPD*%
G01*
G04 APERTURE LIST*
%ADD10C,0.150000*%
%ADD11C,0.100000*%
%ADD12C,0.300000*%
G04 APERTURE END LIST*
D10*
X110236000Y-77470000D02*
G75*
G03*
X110236000Y-77470000I-1651000J0D01*
G01*
X110236000Y-105410000D02*
G75*
G03*
X110236000Y-105410000I-1651000J0D01*
G01*
X145796000Y-105410000D02*
G75*
G03*
X145796000Y-105410000I-1651000J0D01*
G01*
X145796000Y-77470000D02*
G75*
G03*
X145796000Y-77470000I-1651000J0D01*
G01*
D11*
X134797151Y-92117053D02*
X134881350Y-92023426D01*
X135392886Y-92170426D02*
X135424684Y-92055181D01*
X135705837Y-92054596D02*
X135986989Y-92054011D01*
X134485693Y-92298518D02*
X134597068Y-92254554D01*
X138114478Y-92171338D02*
X138183223Y-92210776D01*
X138055633Y-92122071D02*
X138114478Y-92171338D01*
X135986989Y-92054011D02*
X136019084Y-92175027D01*
X135359784Y-92290857D02*
X135392886Y-92170426D01*
X136574474Y-92211339D02*
X136544267Y-92122024D01*
X134233435Y-92344390D02*
X134364550Y-92328442D01*
X137559800Y-92277936D02*
X137658231Y-92228344D01*
X137450904Y-92314273D02*
X137559800Y-92277936D01*
X137330452Y-92337807D02*
X137450904Y-92314273D01*
X136793000Y-92279184D02*
X136939281Y-92320415D01*
X136544267Y-92122024D02*
X136565407Y-92139509D01*
X137987979Y-92037704D02*
X138055633Y-92122071D01*
X137943555Y-91937630D02*
X137987979Y-92037704D01*
X137933986Y-91906592D02*
X137943555Y-91937630D01*
X137923869Y-91925664D02*
X137933986Y-91906592D01*
X137892017Y-91991414D02*
X137923869Y-91925664D01*
X137850865Y-92054725D02*
X137892017Y-91991414D01*
X137802069Y-92113351D02*
X137850865Y-92054725D01*
X135078477Y-92296043D02*
X135358479Y-92296043D01*
X134798476Y-92294033D02*
X135078477Y-92296043D01*
X134845543Y-92151715D02*
X134798476Y-92294033D01*
X134698875Y-92196487D02*
X134797151Y-92117053D01*
X137658231Y-92228344D02*
X137747288Y-92165044D01*
X137106587Y-92342337D02*
X137223633Y-92343837D01*
X137747288Y-92165044D02*
X137802069Y-92113351D01*
X137223633Y-92343837D02*
X137330452Y-92337807D01*
X136939281Y-92320415D02*
X137106587Y-92342337D01*
X136668217Y-92218823D02*
X136793000Y-92279184D01*
X136565407Y-92139509D02*
X136668217Y-92218823D01*
X136602998Y-92296044D02*
X136574474Y-92211339D01*
X136327088Y-92296044D02*
X136602998Y-92296044D01*
X136051178Y-92296044D02*
X136327088Y-92296044D01*
X136019084Y-92175027D02*
X136051178Y-92296044D01*
X135358479Y-92296043D02*
X135359784Y-92290857D01*
X134881350Y-92023426D02*
X134891965Y-92010758D01*
X135424684Y-92055181D02*
X135705837Y-92054596D01*
X134891965Y-92010758D02*
X134845543Y-92151715D01*
X134364550Y-92328442D02*
X134485693Y-92298518D01*
X134597068Y-92254554D02*
X134698875Y-92196487D01*
X134079491Y-88114937D02*
X134096810Y-88000199D01*
X134047499Y-88450281D02*
X134079491Y-88114937D01*
X132991484Y-88299327D02*
X132991484Y-88299329D01*
X133366782Y-88038199D02*
X133444114Y-88278009D01*
X133386334Y-88354430D02*
X133305547Y-88342157D01*
X132991484Y-88299329D02*
X132991484Y-88186389D01*
X133323729Y-87821464D02*
X133412219Y-87281914D01*
X132995519Y-88411996D02*
X132991484Y-88299327D01*
X133137069Y-88373504D02*
X132995519Y-88411996D01*
X134119929Y-88461868D02*
X134047499Y-88450281D01*
X133463133Y-86787994D02*
X133376429Y-87312864D01*
X133741269Y-88406421D02*
X133741270Y-88406422D01*
X134119929Y-88461868D02*
X134119929Y-88461868D01*
X134205642Y-88474061D02*
X134199034Y-88473717D01*
X133386334Y-88354430D02*
X133386334Y-88354430D01*
X133469576Y-88366171D02*
X133386334Y-88354430D01*
X133307207Y-88173540D02*
X133316388Y-87889533D01*
X133305547Y-88342157D02*
X133307207Y-88173540D01*
X132962268Y-88181474D02*
X133463133Y-86787994D01*
X133412004Y-88095059D02*
X133323729Y-87821464D01*
X133539483Y-88376850D02*
X133501733Y-88370109D01*
X133908747Y-88430707D02*
X133741269Y-88406421D01*
X133412219Y-87281914D02*
X133499307Y-86754209D01*
X133741270Y-88406422D02*
X133539483Y-88376850D01*
X132877972Y-88443527D02*
X132808248Y-88462017D01*
X134205517Y-88468486D02*
X134205642Y-88474061D01*
X134096810Y-88000199D02*
X134205517Y-88468486D01*
X133444114Y-88278009D02*
X133469576Y-88366171D01*
X133316388Y-87889533D02*
X133366782Y-88038199D01*
X133289182Y-87837194D02*
X133213889Y-88104563D01*
X132808248Y-88462017D02*
X132807573Y-88450376D01*
X133376429Y-87312864D02*
X133289182Y-87837194D01*
X133501733Y-88370109D02*
X133412004Y-88095059D01*
X133918749Y-88407082D02*
X133908747Y-88430707D01*
X132813914Y-88239382D02*
X132820928Y-88029848D01*
X134012557Y-88128619D02*
X133969661Y-88258154D01*
X133499307Y-86754209D02*
X133515574Y-86675559D01*
X132680255Y-88490061D02*
X132680254Y-88490060D01*
X133969661Y-88258154D02*
X133918749Y-88407082D01*
X132683210Y-88495051D02*
X132680255Y-88490061D01*
X133515574Y-86675559D02*
X134012557Y-88128619D01*
X132820928Y-88029848D02*
X132822118Y-88020861D01*
X134199034Y-88473717D02*
X134119929Y-88461868D01*
X132813914Y-88239382D02*
X132813914Y-88239382D01*
X132947695Y-88422583D02*
X132877972Y-88443527D01*
X133213889Y-88104563D02*
X133137069Y-88373504D01*
X132991484Y-88186389D02*
X132976234Y-88186389D01*
X132822118Y-88020861D02*
X132947695Y-88422583D01*
X132807573Y-88450376D02*
X132813914Y-88239382D01*
X132976234Y-88186389D02*
X132962268Y-88181474D01*
X133110891Y-89054615D02*
X133105567Y-89070318D01*
X132681877Y-88831694D02*
X132680722Y-88821298D01*
X133170008Y-89885112D02*
X133170004Y-89885111D01*
X132681459Y-88812533D02*
X132971877Y-88751911D01*
X132790626Y-88077600D02*
X132777607Y-88465110D01*
X133269916Y-88489274D02*
X133269136Y-88625471D01*
X133118873Y-89894097D02*
X133170008Y-89885112D01*
X133109983Y-89892438D02*
X133118873Y-89894097D01*
X132680254Y-88490060D02*
X132735065Y-88277957D01*
X133123058Y-89031719D02*
X133110891Y-89054615D01*
X132680309Y-88661148D02*
X132680304Y-88661149D01*
X132683189Y-88783106D02*
X132680309Y-88661148D01*
X132976858Y-88717993D02*
X132683189Y-88783106D01*
X133311642Y-88383358D02*
X134216762Y-88515992D01*
X133753815Y-88767036D02*
X133753815Y-88767036D01*
X133304152Y-88448269D02*
X133305677Y-88382103D01*
X133857486Y-88732601D02*
X133857489Y-88732598D01*
X133302627Y-88581596D02*
X133304152Y-88448269D01*
X133269136Y-88625471D02*
X133267646Y-88653130D01*
X132925776Y-88472041D02*
X133215041Y-88395172D01*
X132685490Y-88536705D02*
X132925776Y-88472041D01*
X134210185Y-88833530D02*
X133753815Y-88767036D01*
X133105774Y-89854555D02*
X133109983Y-89892438D01*
X134213017Y-88785666D02*
X133857486Y-88732601D01*
X132680304Y-88538940D02*
X132685490Y-88536705D01*
X133404619Y-88664145D02*
X133302627Y-88648757D01*
X132971877Y-88751911D02*
X133265175Y-88691226D01*
X132680724Y-88821298D02*
X132681459Y-88812533D01*
X133304935Y-88690875D02*
X133308970Y-88681017D01*
X133104952Y-89476904D02*
X133105774Y-89854555D01*
X133304935Y-88701680D02*
X133304935Y-88690875D01*
X133183050Y-89017844D02*
X133160442Y-89013342D01*
X133215886Y-89052749D02*
X133201445Y-89031796D01*
X133305677Y-88382103D02*
X133311642Y-88383358D01*
X132680722Y-88821298D02*
X132680724Y-88821298D01*
X132742538Y-88820061D02*
X132681877Y-88831694D01*
X133105567Y-89070318D02*
X133104952Y-89476904D01*
X133262869Y-88703460D02*
X133029498Y-88755766D01*
X133268056Y-88696675D02*
X133262869Y-88703460D01*
X133220811Y-89063403D02*
X133215886Y-89052749D01*
X133029498Y-88755766D02*
X132742538Y-88820061D01*
X133710599Y-88741919D02*
X134160915Y-88809903D01*
X134215656Y-88817932D02*
X134217676Y-88826301D01*
X134160915Y-88809903D02*
X134215656Y-88817932D01*
X132731037Y-88482778D02*
X132683210Y-88495051D01*
X132777607Y-88465110D02*
X132731037Y-88482778D01*
X134217672Y-88650829D02*
X134213017Y-88785666D01*
X132735065Y-88277957D02*
X132790626Y-88077600D01*
X133267646Y-88653130D02*
X132976858Y-88717993D01*
X133265175Y-88691226D02*
X133268056Y-88696675D01*
X134217676Y-88826301D02*
X134216665Y-88833383D01*
X133139967Y-89016794D02*
X133123058Y-89031719D01*
X133269207Y-88380735D02*
X133269916Y-88489274D01*
X133308970Y-88681017D02*
X133710599Y-88741919D01*
X132680304Y-88661149D02*
X132680304Y-88538940D01*
X133221411Y-89464745D02*
X133220811Y-89063403D01*
X134216665Y-88833383D02*
X134210185Y-88833530D01*
X133201445Y-89031796D02*
X133183050Y-89017844D01*
X133160442Y-89013342D02*
X133139967Y-89016794D01*
X134216762Y-88515992D02*
X134217672Y-88650829D01*
X133857489Y-88732598D02*
X133404619Y-88664145D01*
X133753815Y-88767036D02*
X133304935Y-88701680D01*
X133215041Y-88395172D02*
X133269207Y-88380735D01*
X133302627Y-88648757D02*
X133302627Y-88581596D01*
X133458210Y-89456901D02*
X133462855Y-89885008D01*
X132728995Y-89488266D02*
X132728130Y-89017305D01*
X133478547Y-89000584D02*
X133463233Y-89022567D01*
X132940962Y-89917924D02*
X132947356Y-89921724D01*
X132947356Y-89921724D02*
X132993775Y-89912295D01*
X133170004Y-89885111D02*
X133217856Y-89871218D01*
X132993775Y-89912295D02*
X132993775Y-89912319D01*
X132803075Y-89092697D02*
X132787010Y-89112631D01*
X132849882Y-89090430D02*
X132827663Y-89086550D01*
X132879146Y-89124457D02*
X132849882Y-89090430D01*
X132725403Y-89962498D02*
X132725390Y-89962499D01*
X133463233Y-89022567D02*
X133458210Y-89033439D01*
X133265101Y-90009064D02*
X133239499Y-90012914D01*
X132884901Y-89525536D02*
X132884291Y-89137160D01*
X133267716Y-88747694D02*
X133266811Y-89378769D01*
X133206345Y-88917643D02*
X133211722Y-88909710D01*
X133500446Y-88984229D02*
X133478547Y-89000584D01*
X132936672Y-89503616D02*
X132936042Y-89913889D01*
X132968537Y-89049491D02*
X132941913Y-89082148D01*
X133009406Y-89049691D02*
X132968537Y-89049491D01*
X132993775Y-89912319D02*
X133042754Y-89899516D01*
X132833688Y-89937074D02*
X132833691Y-89937075D01*
X132882881Y-89920279D02*
X132884901Y-89525536D01*
X132680869Y-88878836D02*
X132780634Y-88855913D01*
X132680511Y-90096937D02*
X132678706Y-89488347D01*
X132704796Y-89961463D02*
X132725403Y-89962498D01*
X132699552Y-89001743D02*
X132699452Y-89482550D01*
X133026626Y-89061816D02*
X133009406Y-89049691D01*
X132777194Y-89142922D02*
X132774824Y-89546343D01*
X132705550Y-88993165D02*
X132699552Y-89001743D01*
X133042754Y-89899516D02*
X133046784Y-89495791D01*
X132884291Y-89137160D02*
X132879146Y-89124457D01*
X133239499Y-90012914D02*
X132948835Y-90056744D01*
X132875304Y-89927460D02*
X132882881Y-89920279D01*
X133526673Y-88974716D02*
X133500446Y-88984229D01*
X133217856Y-89871218D02*
X133221411Y-89464745D01*
X133612717Y-89908168D02*
X133612720Y-89908167D01*
X132678699Y-89488351D02*
X132680869Y-88878836D01*
X132965250Y-88969231D02*
X133206345Y-88917643D01*
X132936042Y-89913889D02*
X132940962Y-89917924D01*
X132790495Y-89944774D02*
X132833688Y-89937074D01*
X133040150Y-89081842D02*
X133026626Y-89061816D01*
X132941913Y-89082148D02*
X132936672Y-89503616D01*
X133046784Y-89495791D02*
X133046783Y-89095672D01*
X132725390Y-89962499D02*
X132728995Y-89488266D01*
X132780859Y-89943625D02*
X132790495Y-89944774D01*
X132774824Y-89546343D02*
X132776265Y-89908128D01*
X132833691Y-89937075D02*
X132875304Y-89927460D01*
X133266811Y-89378769D02*
X133265101Y-90009064D01*
X133532002Y-89898833D02*
X133602265Y-89908993D01*
X133458210Y-89033439D02*
X133458210Y-89456901D01*
X133046783Y-89095672D02*
X133040150Y-89081842D01*
X132776265Y-89908128D02*
X132780859Y-89943625D01*
X132948835Y-90056744D02*
X132680511Y-90096937D01*
X132787010Y-89112631D02*
X132777194Y-89142922D01*
X133211722Y-88909710D02*
X133201779Y-88893019D01*
X132827663Y-89086550D02*
X132803075Y-89092697D01*
X132699452Y-89482550D02*
X132704796Y-89961463D01*
X132728130Y-89017305D02*
X132965250Y-88969231D01*
X133462855Y-89885008D02*
X133532002Y-89898833D01*
X132780634Y-88855913D02*
X133267716Y-88747694D01*
X133201779Y-88893019D02*
X132705550Y-88993165D01*
X132678706Y-89488347D02*
X132678699Y-89488351D01*
X133602265Y-89908993D02*
X133612717Y-89908168D01*
X134078244Y-89935751D02*
X134080402Y-89992312D01*
X134007597Y-89041326D02*
X133980642Y-89028492D01*
X134040153Y-89538213D02*
X134038083Y-89099129D01*
X134106874Y-89998882D02*
X134111649Y-89796433D01*
X134080141Y-88998425D02*
X134078616Y-89494945D01*
X133980642Y-89028492D02*
X133947256Y-89027456D01*
X133470506Y-88914442D02*
X133769370Y-88956222D01*
X133947256Y-89027456D02*
X133907964Y-89041756D01*
X134037238Y-89970336D02*
X134040153Y-89538213D01*
X133831415Y-89106221D02*
X133827653Y-89056696D01*
X133878689Y-89957552D02*
X133947260Y-89970488D01*
X133874249Y-89519163D02*
X133878689Y-89957552D01*
X134038083Y-89099129D02*
X134027089Y-89065144D01*
X133462039Y-88892489D02*
X133461524Y-88905365D01*
X134218061Y-90149216D02*
X134012540Y-90118978D01*
X134028767Y-89978834D02*
X134037238Y-89970336D01*
X133827653Y-89056696D02*
X133819977Y-89039972D01*
X133580943Y-88980503D02*
X133554968Y-88973258D01*
X133623071Y-89861811D02*
X133624826Y-89483117D01*
X134027089Y-89065144D02*
X134007597Y-89041326D01*
X133612720Y-89908167D02*
X133619647Y-89902746D01*
X134224210Y-90150446D02*
X134218061Y-90149216D01*
X133827101Y-89941675D02*
X133827100Y-89941675D01*
X133470890Y-88884122D02*
X133462039Y-88892489D01*
X133681152Y-89927636D02*
X133819406Y-89947332D01*
X134028768Y-89978835D02*
X134028767Y-89978834D01*
X134111649Y-89796433D02*
X134113134Y-89289088D01*
X133666807Y-89491538D02*
X133671356Y-89921920D01*
X133881507Y-89071174D02*
X133874249Y-89084793D01*
X134012540Y-90118978D02*
X134012540Y-90118979D01*
X133791263Y-88924860D02*
X133470890Y-88884122D01*
X134017289Y-89980510D02*
X134028768Y-89978835D01*
X133947260Y-89970488D02*
X134017289Y-89980510D01*
X133554968Y-88973258D02*
X133526673Y-88974716D01*
X133601178Y-88996024D02*
X133580943Y-88980503D01*
X133615364Y-89019470D02*
X133601178Y-88996024D01*
X134096326Y-90004798D02*
X134106869Y-89998880D01*
X133874249Y-89084793D02*
X133874249Y-89519163D01*
X133673536Y-89051488D02*
X133666808Y-89065708D01*
X134084909Y-90003190D02*
X134096326Y-90004798D01*
X134071116Y-88997010D02*
X134080141Y-88998425D01*
X134110249Y-88972814D02*
X133791263Y-88924860D01*
X134080402Y-89992312D02*
X134084909Y-90003190D01*
X133832758Y-89506533D02*
X133831415Y-89106221D01*
X133623191Y-89050491D02*
X133615364Y-89019470D01*
X133619647Y-89902746D02*
X133623071Y-89861811D01*
X133624826Y-89483117D02*
X133623191Y-89050491D01*
X133737348Y-89004375D02*
X133698642Y-89020394D01*
X133666808Y-89065708D02*
X133666807Y-89491538D01*
X133819406Y-89947332D02*
X133827101Y-89941675D01*
X134113134Y-89289088D02*
X134110249Y-88972814D01*
X133827100Y-89941675D02*
X133832758Y-89936017D01*
X133671356Y-89921920D02*
X133681152Y-89927636D01*
X133785365Y-89009065D02*
X133737348Y-89004375D01*
X133698642Y-89020394D02*
X133673536Y-89051488D01*
X133804879Y-89021470D02*
X133785365Y-89009065D01*
X133819977Y-89039972D02*
X133804879Y-89021470D01*
X134223245Y-89731389D02*
X134224210Y-90150446D01*
X133832758Y-89936017D02*
X133832758Y-89506533D01*
X134078616Y-89494945D02*
X134078244Y-89935751D01*
X134106869Y-89998880D02*
X134106874Y-89998882D01*
X133461524Y-88905365D02*
X133470506Y-88914442D01*
X133769370Y-88956222D02*
X134071116Y-88997010D01*
X133907964Y-89041756D02*
X133881507Y-89071174D01*
X138645205Y-91190538D02*
X138645205Y-91190540D01*
X138602385Y-91864191D02*
X138602385Y-91864194D01*
X138593767Y-91175513D02*
X138553230Y-91150176D01*
X138792312Y-90888402D02*
X138931182Y-90887177D01*
X133326491Y-91127242D02*
X133306668Y-91135058D01*
X138931138Y-91870032D02*
X138779591Y-91868997D01*
X133480193Y-90751847D02*
X133425919Y-90850513D01*
X138931182Y-91040720D02*
X138931182Y-91194263D01*
X138512860Y-90973238D02*
X138539042Y-90931619D01*
X138645205Y-91190540D02*
X138593767Y-91175513D01*
X135522955Y-91671412D02*
X135612440Y-91346998D01*
X138553230Y-91150176D02*
X138524119Y-91114986D01*
X135703679Y-91018619D02*
X135791632Y-91340152D01*
X138931138Y-91699271D02*
X138931138Y-91870032D01*
X134219340Y-88883364D02*
X134223245Y-89731389D01*
X133634535Y-88797292D02*
X134219340Y-88883364D01*
X133311273Y-88750066D02*
X133634535Y-88797292D01*
X133304934Y-88748901D02*
X133311273Y-88750066D01*
X138652722Y-90891251D02*
X138792312Y-90888402D01*
X133304934Y-89381136D02*
X133304934Y-88748901D01*
X133304935Y-90594690D02*
X133304935Y-90055295D01*
X134231554Y-90412921D02*
X134202145Y-90412921D01*
X133346414Y-91117749D02*
X133326491Y-91127242D01*
X133304934Y-90013371D02*
X133304934Y-89381136D01*
X133368895Y-90023133D02*
X133304934Y-90013371D01*
X138931182Y-90887177D02*
X138931182Y-91040720D01*
X134012540Y-90118979D02*
X133368895Y-90023133D01*
X133354316Y-91083636D02*
X133346414Y-91117749D01*
X134202145Y-90412921D02*
X134063363Y-90421572D01*
X138506957Y-91070398D02*
X138504617Y-91031942D01*
X138524119Y-91114986D02*
X138506957Y-91070398D01*
X138799057Y-91194263D02*
X138645205Y-91190538D01*
X135612440Y-91346998D02*
X135703679Y-91018619D01*
X138931138Y-91528510D02*
X138931138Y-91699271D01*
X138450275Y-91637630D02*
X138475917Y-91591643D01*
X133383901Y-90961175D02*
X133354316Y-91083636D01*
X133816306Y-90481082D02*
X133714781Y-90529794D01*
X138931182Y-91194263D02*
X138799057Y-91194263D01*
X138539042Y-90931619D02*
X138563493Y-90912976D01*
X138504617Y-91031942D02*
X138512860Y-90973238D01*
X133546546Y-90665374D02*
X133480193Y-90751847D01*
X133714781Y-90529794D02*
X133624801Y-90591290D01*
X134063363Y-90421572D02*
X133929201Y-90445351D01*
X138595952Y-90900532D02*
X138652722Y-90891251D01*
X138561536Y-91544149D02*
X138617662Y-91534648D01*
X138475917Y-91591643D02*
X138519713Y-91559599D01*
X133311274Y-90056575D02*
X134115109Y-90173991D01*
X135791632Y-91340152D02*
X135878834Y-91668532D01*
X138519713Y-91559599D02*
X138561536Y-91544149D01*
X138821079Y-91528522D02*
X138931138Y-91528510D01*
X135878834Y-91668532D02*
X135701396Y-91671412D01*
X138563493Y-90912976D02*
X138595952Y-90900532D01*
X138617662Y-91534648D02*
X138821079Y-91528522D01*
X134230954Y-90301836D02*
X134231554Y-90412921D01*
X135701396Y-91671412D02*
X135522955Y-91671412D01*
X138779591Y-91868997D02*
X138602385Y-91864191D01*
X133304938Y-90594678D02*
X133304935Y-90594690D01*
X133306668Y-91135058D02*
X133304938Y-90594678D01*
X133425919Y-90850513D02*
X133383901Y-90961175D01*
X133624801Y-90591290D02*
X133546546Y-90665374D01*
X133929201Y-90445351D02*
X133816306Y-90481082D01*
X134230354Y-90190751D02*
X134230954Y-90301836D01*
X133304935Y-90055295D02*
X133311274Y-90056575D01*
X134115109Y-90173991D02*
X134230354Y-90190751D01*
X134502458Y-91534277D02*
X134477447Y-91665101D01*
X134420685Y-90991820D02*
X134461946Y-91077486D01*
X138463719Y-91789930D02*
X138445889Y-91744398D01*
X133923015Y-91743179D02*
X133901644Y-91689720D01*
X138495341Y-91824764D02*
X138463719Y-91789930D01*
X138541362Y-91849364D02*
X138495341Y-91824764D01*
X138602385Y-91864194D02*
X138541362Y-91849364D01*
X133901644Y-91689720D02*
X133886755Y-91629538D01*
X132677140Y-90603080D02*
X132678530Y-90137478D01*
X133695557Y-92220437D02*
X133774302Y-92264094D01*
X133336739Y-91586137D02*
X133338054Y-91594781D01*
X134233411Y-92344392D02*
X134233435Y-92344390D01*
X133881092Y-91140141D02*
X133890411Y-91097814D01*
X133890411Y-91097814D02*
X133926492Y-91006661D01*
X134372013Y-91835753D02*
X134333157Y-91861000D01*
X134434401Y-91764889D02*
X134405706Y-91803804D01*
X134185265Y-91896676D02*
X134124036Y-91894351D01*
X134477447Y-91665101D02*
X134434401Y-91764889D01*
X133338054Y-91594781D02*
X133341874Y-91623016D01*
X132975645Y-92302959D02*
X132673621Y-92302959D01*
X133886755Y-91629538D02*
X133879714Y-91591323D01*
X133277668Y-92302959D02*
X132975645Y-92302959D01*
X132678530Y-90137478D02*
X132974195Y-90093104D01*
X134240986Y-91891962D02*
X134185265Y-91896676D01*
X134045902Y-92340058D02*
X134233411Y-92344392D01*
X134053713Y-90888858D02*
X134142230Y-90864636D01*
X133368287Y-91752612D02*
X133410080Y-91876051D01*
X134071668Y-91882739D02*
X134025923Y-91861078D01*
X134505982Y-91313007D02*
X134502458Y-91534277D01*
X133984561Y-91828609D02*
X133950708Y-91789585D01*
X133607724Y-91586137D02*
X133336739Y-91586137D01*
X133981363Y-90936605D02*
X134053713Y-90888858D01*
X133926492Y-91006661D02*
X133981363Y-90936605D01*
X133949420Y-92323886D02*
X134045902Y-92340058D01*
X133463689Y-91980542D02*
X133530122Y-92074218D01*
X134405706Y-91803804D02*
X134372013Y-91835753D01*
X134256803Y-90868921D02*
X134316609Y-90891610D01*
X133877482Y-91161461D02*
X133881092Y-91140141D01*
X134025923Y-91861078D02*
X133984561Y-91828609D01*
X134202922Y-90863027D02*
X134256803Y-90868921D01*
X134461946Y-91077486D02*
X134490301Y-91184333D01*
X134316609Y-90891610D02*
X134366285Y-90926691D01*
X134366285Y-90926691D02*
X134420685Y-90991820D01*
X133878709Y-91586137D02*
X133607724Y-91586137D01*
X133276878Y-91177039D02*
X133277668Y-92302959D01*
X133608133Y-92153186D02*
X133695557Y-92220437D01*
X134288975Y-91879809D02*
X134240986Y-91891962D01*
X133530122Y-92074218D02*
X133608133Y-92153186D01*
X132974195Y-90093104D02*
X133272973Y-90049924D01*
X132674685Y-91685820D02*
X132677140Y-90603080D01*
X133410080Y-91876051D02*
X133463689Y-91980542D01*
X134142230Y-90864636D02*
X134202922Y-90863027D01*
X133341874Y-91623016D02*
X133368287Y-91752612D01*
X138442702Y-91690090D02*
X138450275Y-91637630D01*
X138445889Y-91744398D02*
X138442702Y-91690090D01*
X132673621Y-92302959D02*
X132674685Y-91685820D01*
X133272973Y-90049924D02*
X133276878Y-91177039D01*
X133879714Y-91591323D02*
X133878709Y-91586137D01*
X134124036Y-91894351D02*
X134071668Y-91882739D01*
X134333157Y-91861000D02*
X134288975Y-91879809D01*
X134490301Y-91184333D02*
X134505982Y-91313007D01*
X133858905Y-92298571D02*
X133949420Y-92323886D01*
X133950708Y-91789585D02*
X133923015Y-91743179D01*
X133774302Y-92264094D02*
X133858905Y-92298571D01*
X132633511Y-90147198D02*
X132650484Y-90145913D01*
X133304881Y-91749138D02*
X133304881Y-91167658D01*
X132602738Y-90134839D02*
X132612404Y-90145903D01*
X132619171Y-88795487D02*
X132584131Y-88807975D01*
X132584131Y-88807975D02*
X132582195Y-88819083D01*
X133322206Y-91159086D02*
X133342054Y-91150513D01*
X132637034Y-90101721D02*
X132613349Y-90108268D01*
X133304881Y-91167658D02*
X133322206Y-91159086D01*
X133304881Y-92330618D02*
X133304881Y-91749138D01*
X132975183Y-92330618D02*
X133304881Y-92330618D01*
X132646734Y-91799913D02*
X132645484Y-92330618D01*
X132943030Y-88214068D02*
X132963774Y-88214068D01*
X132650288Y-89740327D02*
X132650287Y-90099151D01*
X133510091Y-86607477D02*
X133497421Y-86608301D01*
X133492742Y-86618913D02*
X133206668Y-87418438D01*
X132651823Y-89133937D02*
X132650288Y-89740327D01*
X133206668Y-87418438D02*
X132922286Y-88212063D01*
X132653358Y-88886371D02*
X132651823Y-89133937D01*
X132646850Y-88818895D02*
X132651989Y-88819022D01*
X132588801Y-88827406D02*
X132646850Y-88818895D01*
X132582195Y-88819083D02*
X132588801Y-88827406D01*
X132654532Y-88666855D02*
X132652167Y-88786881D01*
X132615304Y-88552719D02*
X132635896Y-88551884D01*
X132635896Y-88551884D02*
X132652627Y-88548279D01*
X132654448Y-88485997D02*
X132653748Y-88500850D01*
X132725633Y-88206042D02*
X132654448Y-88485997D01*
X133521937Y-86608707D02*
X133510091Y-86607477D01*
X132606491Y-88855987D02*
X132600709Y-88873846D01*
X132963574Y-88298774D02*
X132962439Y-88381174D01*
X132651440Y-88839421D02*
X132631138Y-88845737D01*
X132605346Y-88544954D02*
X132615304Y-88552719D01*
X132653748Y-88500850D02*
X132631856Y-88508309D01*
X133497421Y-86608301D02*
X133492742Y-86618913D01*
X132649234Y-90707563D02*
X132646734Y-91799913D01*
X133774588Y-87345707D02*
X133521937Y-86608707D01*
X132650484Y-90145913D02*
X132649234Y-90707563D01*
X132603508Y-90118359D02*
X132602738Y-90134839D01*
X132645485Y-88888126D02*
X132653358Y-88886371D01*
X132652155Y-88828402D02*
X132651440Y-88839421D01*
X132652167Y-88786881D02*
X132619171Y-88795487D01*
X132796670Y-87940270D02*
X132725633Y-88206042D01*
X132601888Y-88533041D02*
X132605346Y-88544954D01*
X132652627Y-88548279D02*
X132654532Y-88666855D01*
X133876407Y-91166647D02*
X133877482Y-91161461D01*
X133608978Y-91166647D02*
X133876407Y-91166647D01*
X132631856Y-88508309D02*
X132607938Y-88519390D01*
X132822726Y-87936320D02*
X132796670Y-87940270D01*
X134028568Y-88082697D02*
X133774588Y-87345707D01*
X132962439Y-88381174D02*
X132892466Y-88157935D01*
X133341549Y-91166647D02*
X133608978Y-91166647D01*
X133343065Y-91158580D02*
X133341549Y-91166647D01*
X132612809Y-88889676D02*
X132645485Y-88888126D01*
X132892466Y-88157935D02*
X132822726Y-87936320D01*
X132645484Y-92330618D02*
X132975183Y-92330618D01*
X132612404Y-90145903D02*
X132633511Y-90147198D01*
X132651989Y-88819022D02*
X132652155Y-88828402D01*
X132631138Y-88845737D02*
X132606491Y-88855987D01*
X132607938Y-88519390D02*
X132601888Y-88533041D01*
X132600709Y-88873846D02*
X132612809Y-88889676D01*
X132613349Y-90108268D02*
X132603508Y-90118359D01*
X132963774Y-88214068D02*
X132963574Y-88298774D01*
X132650287Y-90099151D02*
X132637034Y-90101721D01*
X132922286Y-88212063D02*
X132943030Y-88214068D01*
X133342054Y-91150513D02*
X133343065Y-91158580D01*
X134281809Y-88879487D02*
X134286084Y-88866917D01*
X134260053Y-88522179D02*
X134280816Y-88517589D01*
X134258275Y-90050434D02*
X134256025Y-89416604D01*
X134281566Y-88489842D02*
X134256982Y-88481882D01*
X134314407Y-88809953D02*
X134307002Y-88801784D01*
X134300496Y-88829725D02*
X134314139Y-88821171D01*
X136432383Y-91519520D02*
X136414324Y-91576326D01*
X134256025Y-89416604D02*
X134259285Y-88888309D01*
X134264584Y-90156156D02*
X134258275Y-90050434D01*
X134259682Y-90304334D02*
X134259082Y-90194567D01*
X134955804Y-90861850D02*
X134894262Y-90760108D01*
X135412732Y-90461418D02*
X135241137Y-90972998D01*
X136191692Y-91071569D02*
X135986928Y-90461349D01*
X135699830Y-90461383D02*
X135412732Y-90461418D01*
X136490257Y-91417066D02*
X136457694Y-91466433D01*
X134269501Y-90414660D02*
X134260282Y-90414100D01*
X135986928Y-90461349D02*
X135699830Y-90461383D01*
X134079366Y-87930211D02*
X134028568Y-88082697D01*
X134081255Y-87924836D02*
X134079366Y-87930211D01*
X134246330Y-88823628D02*
X134252790Y-88823646D01*
X134265919Y-90193202D02*
X134278354Y-90179539D01*
X134632672Y-90521018D02*
X134519015Y-90467476D01*
X134737821Y-90592229D02*
X134632672Y-90521018D01*
X136530067Y-91371423D02*
X136490257Y-91417066D01*
X134246452Y-88791454D02*
X134245857Y-88656126D01*
X134106779Y-87922932D02*
X134092600Y-87923182D01*
X134397681Y-90431919D02*
X134269501Y-90414660D01*
X134894262Y-90760108D02*
X134818836Y-90668699D01*
X135005469Y-90977003D02*
X134955804Y-90861850D01*
X134171804Y-88200506D02*
X134106779Y-87922932D01*
X136577125Y-91329505D02*
X136530067Y-91371423D01*
X134092600Y-87923182D02*
X134081255Y-87924836D01*
X134307002Y-88801784D02*
X134274111Y-88795474D01*
X134236761Y-88478282D02*
X134171804Y-88200506D01*
X134273402Y-90161076D02*
X134264584Y-90156156D01*
X134256982Y-88481882D02*
X134236761Y-88478282D01*
X134247659Y-88838094D02*
X134245299Y-88830349D01*
X134245299Y-88830349D02*
X134246330Y-88823628D01*
X134286892Y-88503561D02*
X134281566Y-88489842D01*
X134259082Y-90194567D02*
X134265919Y-90193202D01*
X135064540Y-91234643D02*
X135042100Y-91102342D01*
X136692973Y-91256855D02*
X136577125Y-91329505D01*
X134280816Y-88517589D02*
X134286892Y-88503561D01*
X136397118Y-91682604D02*
X136191692Y-91071569D01*
X134245262Y-88520799D02*
X134260053Y-88522179D01*
X134519015Y-90467476D02*
X134397681Y-90431919D01*
X134314139Y-88821171D02*
X134314407Y-88809953D01*
X135069025Y-91484063D02*
X135070945Y-91431698D01*
X135042100Y-91102342D02*
X135005469Y-90977003D01*
X134281539Y-88850859D02*
X134266481Y-88842085D01*
X134259285Y-88888309D02*
X134281809Y-88879487D01*
X134278354Y-90179539D02*
X134273402Y-90161076D01*
X134274111Y-88795474D02*
X134246452Y-88791454D01*
X135241137Y-90972998D02*
X135069025Y-91484063D01*
X134245857Y-88656126D02*
X134245262Y-88520799D01*
X134252790Y-88823646D02*
X134300496Y-88829725D01*
X134266481Y-88842085D02*
X134247659Y-88838094D01*
X134286084Y-88866917D02*
X134281539Y-88850859D01*
X134818836Y-90668699D02*
X134737821Y-90592229D01*
X135070945Y-91431698D02*
X135064540Y-91234643D01*
X136403519Y-91636847D02*
X136397118Y-91682604D01*
X136457694Y-91466433D02*
X136432383Y-91519520D01*
X136414324Y-91576326D02*
X136403519Y-91636847D01*
X134260282Y-90414100D02*
X134259682Y-90304334D01*
X137322320Y-90851585D02*
X137356502Y-90871094D01*
X137274747Y-90840042D02*
X137322320Y-90851585D01*
X137057503Y-90418175D02*
X136901485Y-90448412D01*
X137456886Y-90443459D02*
X137311969Y-90418152D01*
X137688885Y-90540190D02*
X137582256Y-90484027D01*
X137378214Y-90898913D02*
X137385728Y-90940785D01*
X137311969Y-90418152D02*
X137183864Y-90413866D01*
X137356502Y-90871094D02*
X137378214Y-90898913D01*
X137134517Y-90842118D02*
X137212860Y-90836122D01*
X137029327Y-90894575D02*
X137071108Y-90864123D01*
X136998935Y-90936157D02*
X137029327Y-90894575D01*
X136463148Y-90903384D02*
X136447588Y-90981679D01*
X136486833Y-90823970D02*
X136463148Y-90903384D01*
X137777577Y-90612283D02*
X137688885Y-90540190D01*
X136771722Y-90499567D02*
X136706208Y-90539015D01*
X137212860Y-90836122D02*
X137274747Y-90840042D01*
X136984353Y-90975916D02*
X136998935Y-90936157D01*
X136447588Y-90981679D02*
X136446048Y-90993779D01*
X137582256Y-90484027D02*
X137456886Y-90443459D01*
X137071108Y-90864123D02*
X137134517Y-90842118D01*
X137838308Y-90685675D02*
X137777577Y-90612283D01*
X136980279Y-90993779D02*
X136984353Y-90975916D01*
X136446048Y-90993779D02*
X136713164Y-90993779D01*
X136549583Y-90698752D02*
X136486833Y-90823970D01*
X136594544Y-90639140D02*
X136549583Y-90698752D01*
X136706208Y-90539015D02*
X136646951Y-90585717D01*
X137883267Y-90768351D02*
X137838308Y-90685675D01*
X136830972Y-91199525D02*
X136692973Y-91256855D01*
X136646951Y-90585717D02*
X136594544Y-90639140D01*
X137038840Y-91138972D02*
X136830972Y-91199525D01*
X137378066Y-90982938D02*
X137355667Y-91014282D01*
X137270466Y-91068146D02*
X137204793Y-91092484D01*
X136713164Y-90993779D02*
X136980279Y-90993779D01*
X137204793Y-91092484D02*
X137038840Y-91138972D01*
X137320279Y-91042382D02*
X137270466Y-91068146D01*
X136901485Y-90448412D02*
X136771722Y-90499567D01*
X137355667Y-91014282D02*
X137320279Y-91042382D01*
X137183864Y-90413866D02*
X137057503Y-90418175D01*
X137385728Y-90940785D02*
X137378066Y-90982938D01*
X137424842Y-91737677D02*
X137416459Y-91766523D01*
X137097426Y-91643492D02*
X137273938Y-91594180D01*
X137916302Y-91731338D02*
X137671226Y-91731338D01*
X137618521Y-91480073D02*
X137707888Y-91429345D01*
X136945297Y-91826232D02*
X136938257Y-91795876D01*
X136982854Y-91873896D02*
X136959949Y-91851968D01*
X137671226Y-91731338D02*
X137426149Y-91731338D01*
X137917796Y-91705178D02*
X137916302Y-91731338D01*
X138108228Y-91363401D02*
X138046014Y-91410715D01*
X137984609Y-90836191D02*
X137980095Y-90918975D01*
X138353098Y-90491371D02*
X138276028Y-90512998D01*
X139022783Y-90461982D02*
X138573270Y-90464148D01*
X138259178Y-92242098D02*
X138344145Y-92266210D01*
X138344145Y-92266210D02*
X138439109Y-92283340D01*
X138440218Y-90475339D02*
X138353098Y-90491371D01*
X138202133Y-91322433D02*
X138180000Y-91330000D01*
X138573270Y-90464148D02*
X138440218Y-90475339D01*
X137912500Y-90860419D02*
X137883267Y-90768351D01*
X137926053Y-90961985D02*
X137912500Y-90860419D01*
X137896326Y-91192560D02*
X137922058Y-91083665D01*
X137074819Y-91912996D02*
X137014650Y-91892825D01*
X137994702Y-91470672D02*
X137955636Y-91542002D01*
X138016806Y-91103092D02*
X138072210Y-91198295D01*
X138072210Y-91198295D02*
X138122790Y-91254919D01*
X136953190Y-91734356D02*
X136975599Y-91706952D01*
X139038878Y-92296042D02*
X139495864Y-92296042D01*
X138178847Y-91305146D02*
X138202133Y-91322433D01*
X137980095Y-90918975D02*
X137984684Y-90999533D01*
X138005623Y-90754589D02*
X137984609Y-90836191D01*
X137848916Y-91288501D02*
X137896326Y-91192560D01*
X136938257Y-91795876D02*
X136940470Y-91764443D01*
X138545053Y-92293712D02*
X139038878Y-92296042D01*
X138439109Y-92283340D02*
X138545053Y-92293712D01*
X137922058Y-91083665D02*
X137926053Y-90961985D01*
X137929979Y-91621715D02*
X137917796Y-91705178D01*
X137152931Y-91921781D02*
X137074819Y-91912996D01*
X137243876Y-91913820D02*
X137152931Y-91921781D01*
X138183223Y-92210776D02*
X138259178Y-92242098D01*
X137482043Y-91535567D02*
X137618521Y-91480073D01*
X137779887Y-91371323D02*
X137848916Y-91288501D01*
X138046014Y-91410715D02*
X137994702Y-91470672D01*
X138087345Y-90624637D02*
X138039616Y-90684472D01*
X137006881Y-91683568D02*
X137097426Y-91643492D01*
X139495864Y-90461172D02*
X139022783Y-90461982D01*
X136959949Y-91851968D02*
X136945297Y-91826232D01*
X138122790Y-91254919D02*
X138178847Y-91305146D01*
X137380138Y-91833541D02*
X137321111Y-91883523D01*
X138208391Y-90540431D02*
X138149569Y-90573877D01*
X138039616Y-90684472D02*
X138005623Y-90754589D01*
X137426149Y-91731338D02*
X137424842Y-91737677D01*
X137955636Y-91542002D02*
X137929979Y-91621715D01*
X139495864Y-92296042D02*
X139495864Y-91378607D01*
X136940470Y-91764443D02*
X136953190Y-91734356D01*
X138276028Y-90512998D02*
X138208391Y-90540431D01*
X137707888Y-91429345D02*
X137779887Y-91371323D01*
X137273938Y-91594180D02*
X137482043Y-91535567D01*
X136975599Y-91706952D02*
X137006881Y-91683568D01*
X137014650Y-91892825D02*
X136982854Y-91873896D01*
X137416459Y-91766523D02*
X137380138Y-91833541D01*
X137984684Y-90999533D02*
X138016806Y-91103092D01*
X138149569Y-90573877D02*
X138087345Y-90624637D01*
X137321111Y-91883523D02*
X137243876Y-91913820D01*
X139495864Y-91378607D02*
X139495864Y-90461172D01*
X138180000Y-91330000D02*
X138108228Y-91363401D01*
D12*
X137635238Y-85359761D02*
X137635238Y-83359761D01*
X136968571Y-84788333D01*
X136301904Y-83359761D01*
X136301904Y-85359761D01*
X134492380Y-85264523D02*
X134682857Y-85359761D01*
X135063809Y-85359761D01*
X135254285Y-85264523D01*
X135349523Y-85169285D01*
X135444761Y-84978809D01*
X135444761Y-84407380D01*
X135349523Y-84216904D01*
X135254285Y-84121666D01*
X135063809Y-84026428D01*
X134682857Y-84026428D01*
X134492380Y-84121666D01*
X132492380Y-85169285D02*
X132587619Y-85264523D01*
X132873333Y-85359761D01*
X133063809Y-85359761D01*
X133349523Y-85264523D01*
X133540000Y-85074047D01*
X133635238Y-84883571D01*
X133730476Y-84502619D01*
X133730476Y-84216904D01*
X133635238Y-83835952D01*
X133540000Y-83645476D01*
X133349523Y-83455000D01*
X133063809Y-83359761D01*
X132873333Y-83359761D01*
X132587619Y-83455000D01*
X132492380Y-83550238D01*
X131349523Y-85359761D02*
X131540000Y-85264523D01*
X131635238Y-85169285D01*
X131730476Y-84978809D01*
X131730476Y-84407380D01*
X131635238Y-84216904D01*
X131540000Y-84121666D01*
X131349523Y-84026428D01*
X131063809Y-84026428D01*
X130873333Y-84121666D01*
X130778095Y-84216904D01*
X130682857Y-84407380D01*
X130682857Y-84978809D01*
X130778095Y-85169285D01*
X130873333Y-85264523D01*
X131063809Y-85359761D01*
X131349523Y-85359761D01*
X130016190Y-84026428D02*
X129540000Y-85359761D01*
X129063809Y-84026428D02*
X129540000Y-85359761D01*
X129730476Y-85835952D01*
X129825714Y-85931190D01*
X130016190Y-86026428D01*
X126968571Y-84026428D02*
X126492380Y-85359761D01*
X126016190Y-84026428D01*
X124206666Y-85359761D02*
X125349523Y-85359761D01*
X124778095Y-85359761D02*
X124778095Y-83359761D01*
X124968571Y-83645476D01*
X125159047Y-83835952D01*
X125349523Y-83931190D01*
X123349523Y-85169285D02*
X123254285Y-85264523D01*
X123349523Y-85359761D01*
X123444761Y-85264523D01*
X123349523Y-85169285D01*
X123349523Y-85359761D01*
X121349523Y-85359761D02*
X122492380Y-85359761D01*
X121920952Y-85359761D02*
X121920952Y-83359761D01*
X122111428Y-83645476D01*
X122301904Y-83835952D01*
X122492380Y-83931190D01*
X140718571Y-78627857D02*
X140504285Y-78699285D01*
X140432857Y-78770714D01*
X140361428Y-78913571D01*
X140361428Y-79127857D01*
X140432857Y-79270714D01*
X140504285Y-79342142D01*
X140647142Y-79413571D01*
X141218571Y-79413571D01*
X141218571Y-77913571D01*
X140718571Y-77913571D01*
X140575714Y-77985000D01*
X140504285Y-78056428D01*
X140432857Y-78199285D01*
X140432857Y-78342142D01*
X140504285Y-78485000D01*
X140575714Y-78556428D01*
X140718571Y-78627857D01*
X141218571Y-78627857D01*
X139147142Y-79342142D02*
X139290000Y-79413571D01*
X139575714Y-79413571D01*
X139718571Y-79342142D01*
X139790000Y-79199285D01*
X139790000Y-78627857D01*
X139718571Y-78485000D01*
X139575714Y-78413571D01*
X139290000Y-78413571D01*
X139147142Y-78485000D01*
X139075714Y-78627857D01*
X139075714Y-78770714D01*
X139790000Y-78913571D01*
X138432857Y-79413571D02*
X138432857Y-78413571D01*
X138432857Y-78699285D02*
X138361428Y-78556428D01*
X138290000Y-78485000D01*
X138147142Y-78413571D01*
X138004285Y-78413571D01*
X137504285Y-79413571D02*
X137504285Y-77913571D01*
X137361428Y-78842142D02*
X136932857Y-79413571D01*
X136932857Y-78413571D02*
X137504285Y-78985000D01*
X135718571Y-79342142D02*
X135861428Y-79413571D01*
X136147142Y-79413571D01*
X136290000Y-79342142D01*
X136361428Y-79199285D01*
X136361428Y-78627857D01*
X136290000Y-78485000D01*
X136147142Y-78413571D01*
X135861428Y-78413571D01*
X135718571Y-78485000D01*
X135647142Y-78627857D01*
X135647142Y-78770714D01*
X136361428Y-78913571D01*
X134790000Y-79413571D02*
X134932857Y-79342142D01*
X135004285Y-79199285D01*
X135004285Y-77913571D01*
X133647142Y-79342142D02*
X133790000Y-79413571D01*
X134075714Y-79413571D01*
X134218571Y-79342142D01*
X134290000Y-79199285D01*
X134290000Y-78627857D01*
X134218571Y-78485000D01*
X134075714Y-78413571D01*
X133790000Y-78413571D01*
X133647142Y-78485000D01*
X133575714Y-78627857D01*
X133575714Y-78770714D01*
X134290000Y-78913571D01*
X133075714Y-78413571D02*
X132718571Y-79413571D01*
X132361428Y-78413571D02*
X132718571Y-79413571D01*
X132861428Y-79770714D01*
X132932857Y-79842142D01*
X133075714Y-79913571D01*
X130718571Y-78985000D02*
X130004285Y-78985000D01*
X130861428Y-79413571D02*
X130361428Y-77913571D01*
X129861428Y-79413571D01*
X128718571Y-78413571D02*
X128718571Y-79413571D01*
X129361428Y-78413571D02*
X129361428Y-79199285D01*
X129290000Y-79342142D01*
X129147142Y-79413571D01*
X128932857Y-79413571D01*
X128790000Y-79342142D01*
X128718571Y-79270714D01*
X128218571Y-78413571D02*
X127647142Y-78413571D01*
X128004285Y-77913571D02*
X128004285Y-79199285D01*
X127932857Y-79342142D01*
X127790000Y-79413571D01*
X127647142Y-79413571D01*
X126932857Y-79413571D02*
X127075714Y-79342142D01*
X127147142Y-79270714D01*
X127218571Y-79127857D01*
X127218571Y-78699285D01*
X127147142Y-78556428D01*
X127075714Y-78485000D01*
X126932857Y-78413571D01*
X126718571Y-78413571D01*
X126575714Y-78485000D01*
X126504285Y-78556428D01*
X126432857Y-78699285D01*
X126432857Y-79127857D01*
X126504285Y-79270714D01*
X126575714Y-79342142D01*
X126718571Y-79413571D01*
X126932857Y-79413571D01*
X125790000Y-78413571D02*
X125790000Y-79413571D01*
X125790000Y-78556428D02*
X125718571Y-78485000D01*
X125575714Y-78413571D01*
X125361428Y-78413571D01*
X125218571Y-78485000D01*
X125147142Y-78627857D01*
X125147142Y-79413571D01*
X124218571Y-79413571D02*
X124361428Y-79342142D01*
X124432857Y-79270714D01*
X124504285Y-79127857D01*
X124504285Y-78699285D01*
X124432857Y-78556428D01*
X124361428Y-78485000D01*
X124218571Y-78413571D01*
X124004285Y-78413571D01*
X123861428Y-78485000D01*
X123790000Y-78556428D01*
X123718571Y-78699285D01*
X123718571Y-79127857D01*
X123790000Y-79270714D01*
X123861428Y-79342142D01*
X124004285Y-79413571D01*
X124218571Y-79413571D01*
X123075714Y-79413571D02*
X123075714Y-78413571D01*
X123075714Y-78556428D02*
X123004285Y-78485000D01*
X122861428Y-78413571D01*
X122647142Y-78413571D01*
X122504285Y-78485000D01*
X122432857Y-78627857D01*
X122432857Y-79413571D01*
X122432857Y-78627857D02*
X122361428Y-78485000D01*
X122218571Y-78413571D01*
X122004285Y-78413571D01*
X121861428Y-78485000D01*
X121790000Y-78627857D01*
X121790000Y-79413571D01*
X120861428Y-79413571D02*
X121004285Y-79342142D01*
X121075714Y-79270714D01*
X121147142Y-79127857D01*
X121147142Y-78699285D01*
X121075714Y-78556428D01*
X121004285Y-78485000D01*
X120861428Y-78413571D01*
X120647142Y-78413571D01*
X120504285Y-78485000D01*
X120432857Y-78556428D01*
X120361428Y-78699285D01*
X120361428Y-79127857D01*
X120432857Y-79270714D01*
X120504285Y-79342142D01*
X120647142Y-79413571D01*
X120861428Y-79413571D01*
X119075714Y-78413571D02*
X119075714Y-79413571D01*
X119718571Y-78413571D02*
X119718571Y-79199285D01*
X119647142Y-79342142D01*
X119504285Y-79413571D01*
X119290000Y-79413571D01*
X119147142Y-79342142D01*
X119075714Y-79270714D01*
X118432857Y-79342142D02*
X118290000Y-79413571D01*
X118004285Y-79413571D01*
X117861428Y-79342142D01*
X117790000Y-79199285D01*
X117790000Y-79127857D01*
X117861428Y-78985000D01*
X118004285Y-78913571D01*
X118218571Y-78913571D01*
X118361428Y-78842142D01*
X118432857Y-78699285D01*
X118432857Y-78627857D01*
X118361428Y-78485000D01*
X118218571Y-78413571D01*
X118004285Y-78413571D01*
X117861428Y-78485000D01*
X139182857Y-81963571D02*
X139182857Y-80463571D01*
X138682857Y-81535000D01*
X138182857Y-80463571D01*
X138182857Y-81963571D01*
X137468571Y-81963571D02*
X137468571Y-80963571D01*
X137468571Y-80463571D02*
X137540000Y-80535000D01*
X137468571Y-80606428D01*
X137397142Y-80535000D01*
X137468571Y-80463571D01*
X137468571Y-80606428D01*
X136111428Y-81892142D02*
X136254285Y-81963571D01*
X136540000Y-81963571D01*
X136682857Y-81892142D01*
X136754285Y-81820714D01*
X136825714Y-81677857D01*
X136825714Y-81249285D01*
X136754285Y-81106428D01*
X136682857Y-81035000D01*
X136540000Y-80963571D01*
X136254285Y-80963571D01*
X136111428Y-81035000D01*
X135468571Y-81963571D02*
X135468571Y-80963571D01*
X135468571Y-81249285D02*
X135397142Y-81106428D01*
X135325714Y-81035000D01*
X135182857Y-80963571D01*
X135040000Y-80963571D01*
X134325714Y-81963571D02*
X134468571Y-81892142D01*
X134540000Y-81820714D01*
X134611428Y-81677857D01*
X134611428Y-81249285D01*
X134540000Y-81106428D01*
X134468571Y-81035000D01*
X134325714Y-80963571D01*
X134111428Y-80963571D01*
X133968571Y-81035000D01*
X133897142Y-81106428D01*
X133825714Y-81249285D01*
X133825714Y-81677857D01*
X133897142Y-81820714D01*
X133968571Y-81892142D01*
X134111428Y-81963571D01*
X134325714Y-81963571D01*
X133254285Y-81892142D02*
X133111428Y-81963571D01*
X132825714Y-81963571D01*
X132682857Y-81892142D01*
X132611428Y-81749285D01*
X132611428Y-81677857D01*
X132682857Y-81535000D01*
X132825714Y-81463571D01*
X133040000Y-81463571D01*
X133182857Y-81392142D01*
X133254285Y-81249285D01*
X133254285Y-81177857D01*
X133182857Y-81035000D01*
X133040000Y-80963571D01*
X132825714Y-80963571D01*
X132682857Y-81035000D01*
X132111428Y-80963571D02*
X131754285Y-81963571D01*
X131397142Y-80963571D02*
X131754285Y-81963571D01*
X131897142Y-82320714D01*
X131968571Y-82392142D01*
X132111428Y-82463571D01*
X130897142Y-81892142D02*
X130754285Y-81963571D01*
X130468571Y-81963571D01*
X130325714Y-81892142D01*
X130254285Y-81749285D01*
X130254285Y-81677857D01*
X130325714Y-81535000D01*
X130468571Y-81463571D01*
X130682857Y-81463571D01*
X130825714Y-81392142D01*
X130897142Y-81249285D01*
X130897142Y-81177857D01*
X130825714Y-81035000D01*
X130682857Y-80963571D01*
X130468571Y-80963571D01*
X130325714Y-81035000D01*
X129825714Y-80963571D02*
X129254285Y-80963571D01*
X129611428Y-80463571D02*
X129611428Y-81749285D01*
X129540000Y-81892142D01*
X129397142Y-81963571D01*
X129254285Y-81963571D01*
X128182857Y-81892142D02*
X128325714Y-81963571D01*
X128611428Y-81963571D01*
X128754285Y-81892142D01*
X128825714Y-81749285D01*
X128825714Y-81177857D01*
X128754285Y-81035000D01*
X128611428Y-80963571D01*
X128325714Y-80963571D01*
X128182857Y-81035000D01*
X128111428Y-81177857D01*
X128111428Y-81320714D01*
X128825714Y-81463571D01*
X127468571Y-81963571D02*
X127468571Y-80963571D01*
X127468571Y-81106428D02*
X127397142Y-81035000D01*
X127254285Y-80963571D01*
X127040000Y-80963571D01*
X126897142Y-81035000D01*
X126825714Y-81177857D01*
X126825714Y-81963571D01*
X126825714Y-81177857D02*
X126754285Y-81035000D01*
X126611428Y-80963571D01*
X126397142Y-80963571D01*
X126254285Y-81035000D01*
X126182857Y-81177857D01*
X126182857Y-81963571D01*
X125540000Y-81892142D02*
X125397142Y-81963571D01*
X125111428Y-81963571D01*
X124968571Y-81892142D01*
X124897142Y-81749285D01*
X124897142Y-81677857D01*
X124968571Y-81535000D01*
X125111428Y-81463571D01*
X125325714Y-81463571D01*
X125468571Y-81392142D01*
X125540000Y-81249285D01*
X125540000Y-81177857D01*
X125468571Y-81035000D01*
X125325714Y-80963571D01*
X125111428Y-80963571D01*
X124968571Y-81035000D01*
X122397142Y-81963571D02*
X123111428Y-81963571D01*
X123111428Y-80463571D01*
X121254285Y-81963571D02*
X121254285Y-81177857D01*
X121325714Y-81035000D01*
X121468571Y-80963571D01*
X121754285Y-80963571D01*
X121897142Y-81035000D01*
X121254285Y-81892142D02*
X121397142Y-81963571D01*
X121754285Y-81963571D01*
X121897142Y-81892142D01*
X121968571Y-81749285D01*
X121968571Y-81606428D01*
X121897142Y-81463571D01*
X121754285Y-81392142D01*
X121397142Y-81392142D01*
X121254285Y-81320714D01*
X120540000Y-81963571D02*
X120540000Y-80463571D01*
X120540000Y-81035000D02*
X120397142Y-80963571D01*
X120111428Y-80963571D01*
X119968571Y-81035000D01*
X119897142Y-81106428D01*
X119825714Y-81249285D01*
X119825714Y-81677857D01*
X119897142Y-81820714D01*
X119968571Y-81892142D01*
X120111428Y-81963571D01*
X120397142Y-81963571D01*
X120540000Y-81892142D01*
M02*
