G04 #@! TF.GenerationSoftware,KiCad,Pcbnew,(5.1.6)-1*
G04 #@! TF.CreationDate,2021-04-25T23:48:20-07:00*
G04 #@! TF.ProjectId,scum3c-devboard,7363756d-3363-42d6-9465-76626f617264,rev?*
G04 #@! TF.SameCoordinates,Original*
G04 #@! TF.FileFunction,Legend,Bot*
G04 #@! TF.FilePolarity,Positive*
%FSLAX46Y46*%
G04 Gerber Fmt 4.6, Leading zero omitted, Abs format (unit mm)*
G04 Created by KiCad (PCBNEW (5.1.6)-1) date 2021-04-25 23:48:20*
%MOMM*%
%LPD*%
G01*
G04 APERTURE LIST*
%ADD10C,0.300000*%
%ADD11C,0.100000*%
%ADD12C,0.080000*%
%ADD13C,0.150000*%
G04 APERTURE END LIST*
D10*
X131166428Y-99738571D02*
X131166428Y-98238571D01*
X130666428Y-99310000D01*
X130166428Y-98238571D01*
X130166428Y-99738571D01*
X128809285Y-99667142D02*
X128952142Y-99738571D01*
X129237857Y-99738571D01*
X129380714Y-99667142D01*
X129452142Y-99595714D01*
X129523571Y-99452857D01*
X129523571Y-99024285D01*
X129452142Y-98881428D01*
X129380714Y-98810000D01*
X129237857Y-98738571D01*
X128952142Y-98738571D01*
X128809285Y-98810000D01*
X127309285Y-99595714D02*
X127380714Y-99667142D01*
X127595000Y-99738571D01*
X127737857Y-99738571D01*
X127952142Y-99667142D01*
X128095000Y-99524285D01*
X128166428Y-99381428D01*
X128237857Y-99095714D01*
X128237857Y-98881428D01*
X128166428Y-98595714D01*
X128095000Y-98452857D01*
X127952142Y-98310000D01*
X127737857Y-98238571D01*
X127595000Y-98238571D01*
X127380714Y-98310000D01*
X127309285Y-98381428D01*
X126452142Y-99738571D02*
X126595000Y-99667142D01*
X126666428Y-99595714D01*
X126737857Y-99452857D01*
X126737857Y-99024285D01*
X126666428Y-98881428D01*
X126595000Y-98810000D01*
X126452142Y-98738571D01*
X126237857Y-98738571D01*
X126095000Y-98810000D01*
X126023571Y-98881428D01*
X125952142Y-99024285D01*
X125952142Y-99452857D01*
X126023571Y-99595714D01*
X126095000Y-99667142D01*
X126237857Y-99738571D01*
X126452142Y-99738571D01*
X125452142Y-98738571D02*
X125095000Y-99738571D01*
X124737857Y-98738571D02*
X125095000Y-99738571D01*
X125237857Y-100095714D01*
X125309285Y-100167142D01*
X125452142Y-100238571D01*
X123166428Y-98738571D02*
X122809285Y-99738571D01*
X122452142Y-98738571D01*
X121952142Y-98381428D02*
X121880714Y-98310000D01*
X121737857Y-98238571D01*
X121380714Y-98238571D01*
X121237857Y-98310000D01*
X121166428Y-98381428D01*
X121095000Y-98524285D01*
X121095000Y-98667142D01*
X121166428Y-98881428D01*
X122023571Y-99738571D01*
X121095000Y-99738571D01*
X120452142Y-99595714D02*
X120380714Y-99667142D01*
X120452142Y-99738571D01*
X120523571Y-99667142D01*
X120452142Y-99595714D01*
X120452142Y-99738571D01*
X119452142Y-98238571D02*
X119309285Y-98238571D01*
X119166428Y-98310000D01*
X119095000Y-98381428D01*
X119023571Y-98524285D01*
X118952142Y-98810000D01*
X118952142Y-99167142D01*
X119023571Y-99452857D01*
X119095000Y-99595714D01*
X119166428Y-99667142D01*
X119309285Y-99738571D01*
X119452142Y-99738571D01*
X119595000Y-99667142D01*
X119666428Y-99595714D01*
X119737857Y-99452857D01*
X119809285Y-99167142D01*
X119809285Y-98810000D01*
X119737857Y-98524285D01*
X119666428Y-98381428D01*
X119595000Y-98310000D01*
X119452142Y-98238571D01*
D11*
X138938047Y-96770000D02*
X138890428Y-96793809D01*
X138819000Y-96793809D01*
X138747571Y-96770000D01*
X138699952Y-96722380D01*
X138676142Y-96674761D01*
X138652333Y-96579523D01*
X138652333Y-96508095D01*
X138676142Y-96412857D01*
X138699952Y-96365238D01*
X138747571Y-96317619D01*
X138819000Y-96293809D01*
X138866619Y-96293809D01*
X138938047Y-96317619D01*
X138961857Y-96341428D01*
X138961857Y-96508095D01*
X138866619Y-96508095D01*
X139176142Y-96293809D02*
X139176142Y-96793809D01*
X139461857Y-96293809D01*
X139461857Y-96793809D01*
X139699952Y-96293809D02*
X139699952Y-96793809D01*
X139819000Y-96793809D01*
X139890428Y-96770000D01*
X139938047Y-96722380D01*
X139961857Y-96674761D01*
X139985666Y-96579523D01*
X139985666Y-96508095D01*
X139961857Y-96412857D01*
X139938047Y-96365238D01*
X139890428Y-96317619D01*
X139819000Y-96293809D01*
X139699952Y-96293809D01*
X138878523Y-86133809D02*
X138711857Y-86371904D01*
X138592809Y-86133809D02*
X138592809Y-86633809D01*
X138783285Y-86633809D01*
X138830904Y-86610000D01*
X138854714Y-86586190D01*
X138878523Y-86538571D01*
X138878523Y-86467142D01*
X138854714Y-86419523D01*
X138830904Y-86395714D01*
X138783285Y-86371904D01*
X138592809Y-86371904D01*
X139069000Y-86157619D02*
X139116619Y-86133809D01*
X139211857Y-86133809D01*
X139259476Y-86157619D01*
X139283285Y-86205238D01*
X139283285Y-86229047D01*
X139259476Y-86276666D01*
X139211857Y-86300476D01*
X139140428Y-86300476D01*
X139092809Y-86324285D01*
X139069000Y-86371904D01*
X139069000Y-86395714D01*
X139092809Y-86443333D01*
X139140428Y-86467142D01*
X139211857Y-86467142D01*
X139259476Y-86443333D01*
X139426142Y-86633809D02*
X139711857Y-86633809D01*
X139569000Y-86133809D02*
X139569000Y-86633809D01*
X139830904Y-86133809D02*
X140092809Y-86467142D01*
X139830904Y-86467142D02*
X140092809Y-86133809D01*
X138402333Y-84093809D02*
X138569000Y-83593809D01*
X138735666Y-84093809D01*
X138902333Y-83593809D02*
X138902333Y-84093809D01*
X139021380Y-84093809D01*
X139092809Y-84070000D01*
X139140428Y-84022380D01*
X139164238Y-83974761D01*
X139188047Y-83879523D01*
X139188047Y-83808095D01*
X139164238Y-83712857D01*
X139140428Y-83665238D01*
X139092809Y-83617619D01*
X139021380Y-83593809D01*
X138902333Y-83593809D01*
X139402333Y-83593809D02*
X139402333Y-84093809D01*
X139521380Y-84093809D01*
X139592809Y-84070000D01*
X139640428Y-84022380D01*
X139664238Y-83974761D01*
X139688047Y-83879523D01*
X139688047Y-83808095D01*
X139664238Y-83712857D01*
X139640428Y-83665238D01*
X139592809Y-83617619D01*
X139521380Y-83593809D01*
X139402333Y-83593809D01*
X139902333Y-83593809D02*
X139902333Y-84093809D01*
X140021380Y-84093809D01*
X140092809Y-84070000D01*
X140140428Y-84022380D01*
X140164238Y-83974761D01*
X140188047Y-83879523D01*
X140188047Y-83808095D01*
X140164238Y-83712857D01*
X140140428Y-83665238D01*
X140092809Y-83617619D01*
X140021380Y-83593809D01*
X139902333Y-83593809D01*
X138938047Y-91690000D02*
X138890428Y-91713809D01*
X138819000Y-91713809D01*
X138747571Y-91690000D01*
X138699952Y-91642380D01*
X138676142Y-91594761D01*
X138652333Y-91499523D01*
X138652333Y-91428095D01*
X138676142Y-91332857D01*
X138699952Y-91285238D01*
X138747571Y-91237619D01*
X138819000Y-91213809D01*
X138866619Y-91213809D01*
X138938047Y-91237619D01*
X138961857Y-91261428D01*
X138961857Y-91428095D01*
X138866619Y-91428095D01*
X139176142Y-91213809D02*
X139176142Y-91713809D01*
X139461857Y-91213809D01*
X139461857Y-91713809D01*
X139699952Y-91213809D02*
X139699952Y-91713809D01*
X139819000Y-91713809D01*
X139890428Y-91690000D01*
X139938047Y-91642380D01*
X139961857Y-91594761D01*
X139985666Y-91499523D01*
X139985666Y-91428095D01*
X139961857Y-91332857D01*
X139938047Y-91285238D01*
X139890428Y-91237619D01*
X139819000Y-91213809D01*
X139699952Y-91213809D01*
D12*
X138715904Y-94180000D02*
X138677809Y-94199047D01*
X138620666Y-94199047D01*
X138563523Y-94180000D01*
X138525428Y-94141904D01*
X138506380Y-94103809D01*
X138487333Y-94027619D01*
X138487333Y-93970476D01*
X138506380Y-93894285D01*
X138525428Y-93856190D01*
X138563523Y-93818095D01*
X138620666Y-93799047D01*
X138658761Y-93799047D01*
X138715904Y-93818095D01*
X138734952Y-93837142D01*
X138734952Y-93970476D01*
X138658761Y-93970476D01*
X138906380Y-93799047D02*
X138906380Y-94199047D01*
X139058761Y-94199047D01*
X139096857Y-94180000D01*
X139115904Y-94160952D01*
X139134952Y-94122857D01*
X139134952Y-94065714D01*
X139115904Y-94027619D01*
X139096857Y-94008571D01*
X139058761Y-93989523D01*
X138906380Y-93989523D01*
X139382571Y-94199047D02*
X139458761Y-94199047D01*
X139496857Y-94180000D01*
X139534952Y-94141904D01*
X139554000Y-94065714D01*
X139554000Y-93932380D01*
X139534952Y-93856190D01*
X139496857Y-93818095D01*
X139458761Y-93799047D01*
X139382571Y-93799047D01*
X139344476Y-93818095D01*
X139306380Y-93856190D01*
X139287333Y-93932380D01*
X139287333Y-94065714D01*
X139306380Y-94141904D01*
X139344476Y-94180000D01*
X139382571Y-94199047D01*
X139630190Y-93760952D02*
X139934952Y-93760952D01*
X139992095Y-94199047D02*
X140258761Y-94199047D01*
X139992095Y-93799047D01*
X140258761Y-93799047D01*
X140411142Y-94008571D02*
X140544476Y-94008571D01*
X140601619Y-93799047D02*
X140411142Y-93799047D01*
X140411142Y-94199047D01*
X140601619Y-94199047D01*
X141001619Y-93799047D02*
X140868285Y-93989523D01*
X140773047Y-93799047D02*
X140773047Y-94199047D01*
X140925428Y-94199047D01*
X140963523Y-94180000D01*
X140982571Y-94160952D01*
X141001619Y-94122857D01*
X141001619Y-94065714D01*
X140982571Y-94027619D01*
X140963523Y-94008571D01*
X140925428Y-93989523D01*
X140773047Y-93989523D01*
X141249238Y-94199047D02*
X141325428Y-94199047D01*
X141363523Y-94180000D01*
X141401619Y-94141904D01*
X141420666Y-94065714D01*
X141420666Y-93932380D01*
X141401619Y-93856190D01*
X141363523Y-93818095D01*
X141325428Y-93799047D01*
X141249238Y-93799047D01*
X141211142Y-93818095D01*
X141173047Y-93856190D01*
X141154000Y-93932380D01*
X141154000Y-94065714D01*
X141173047Y-94141904D01*
X141211142Y-94180000D01*
X141249238Y-94199047D01*
D11*
X138819000Y-88673809D02*
X138652333Y-88911904D01*
X138533285Y-88673809D02*
X138533285Y-89173809D01*
X138723761Y-89173809D01*
X138771380Y-89150000D01*
X138795190Y-89126190D01*
X138819000Y-89078571D01*
X138819000Y-89007142D01*
X138795190Y-88959523D01*
X138771380Y-88935714D01*
X138723761Y-88911904D01*
X138533285Y-88911904D01*
X139009476Y-88697619D02*
X139057095Y-88673809D01*
X139152333Y-88673809D01*
X139199952Y-88697619D01*
X139223761Y-88745238D01*
X139223761Y-88769047D01*
X139199952Y-88816666D01*
X139152333Y-88840476D01*
X139080904Y-88840476D01*
X139033285Y-88864285D01*
X139009476Y-88911904D01*
X139009476Y-88935714D01*
X139033285Y-88983333D01*
X139080904Y-89007142D01*
X139152333Y-89007142D01*
X139199952Y-88983333D01*
X139723761Y-88673809D02*
X139557095Y-88911904D01*
X139438047Y-88673809D02*
X139438047Y-89173809D01*
X139628523Y-89173809D01*
X139676142Y-89150000D01*
X139699952Y-89126190D01*
X139723761Y-89078571D01*
X139723761Y-89007142D01*
X139699952Y-88959523D01*
X139676142Y-88935714D01*
X139628523Y-88911904D01*
X139438047Y-88911904D01*
X139890428Y-88673809D02*
X140152333Y-89007142D01*
X139890428Y-89007142D02*
X140152333Y-88673809D01*
X145728619Y-92138809D02*
X146038142Y-92138809D01*
X145871476Y-91948333D01*
X145942904Y-91948333D01*
X145990523Y-91924523D01*
X146014333Y-91900714D01*
X146038142Y-91853095D01*
X146038142Y-91734047D01*
X146014333Y-91686428D01*
X145990523Y-91662619D01*
X145942904Y-91638809D01*
X145800047Y-91638809D01*
X145752428Y-91662619D01*
X145728619Y-91686428D01*
X146204809Y-92138809D02*
X146323857Y-91638809D01*
X146419095Y-91995952D01*
X146514333Y-91638809D01*
X146633380Y-92138809D01*
X146990523Y-91900714D02*
X147061952Y-91876904D01*
X147085761Y-91853095D01*
X147109571Y-91805476D01*
X147109571Y-91734047D01*
X147085761Y-91686428D01*
X147061952Y-91662619D01*
X147014333Y-91638809D01*
X146823857Y-91638809D01*
X146823857Y-92138809D01*
X146990523Y-92138809D01*
X147038142Y-92115000D01*
X147061952Y-92091190D01*
X147085761Y-92043571D01*
X147085761Y-91995952D01*
X147061952Y-91948333D01*
X147038142Y-91924523D01*
X146990523Y-91900714D01*
X146823857Y-91900714D01*
X145811952Y-91050714D02*
X145978619Y-91050714D01*
X146050047Y-90788809D02*
X145811952Y-90788809D01*
X145811952Y-91288809D01*
X146050047Y-91288809D01*
X146264333Y-90788809D02*
X146264333Y-91288809D01*
X146550047Y-90788809D01*
X146550047Y-91288809D01*
X146954809Y-91050714D02*
X147026238Y-91026904D01*
X147050047Y-91003095D01*
X147073857Y-90955476D01*
X147073857Y-90884047D01*
X147050047Y-90836428D01*
X147026238Y-90812619D01*
X146978619Y-90788809D01*
X146788142Y-90788809D01*
X146788142Y-91288809D01*
X146954809Y-91288809D01*
X147002428Y-91265000D01*
X147026238Y-91241190D01*
X147050047Y-91193571D01*
X147050047Y-91145952D01*
X147026238Y-91098333D01*
X147002428Y-91074523D01*
X146954809Y-91050714D01*
X146788142Y-91050714D01*
D12*
X145745285Y-86519047D02*
X145745285Y-86919047D01*
X145745285Y-86728571D02*
X145973857Y-86728571D01*
X145973857Y-86519047D02*
X145973857Y-86919047D01*
X146145285Y-86633333D02*
X146335761Y-86633333D01*
X146107190Y-86519047D02*
X146240523Y-86919047D01*
X146373857Y-86519047D01*
X146735761Y-86519047D02*
X146602428Y-86709523D01*
X146507190Y-86519047D02*
X146507190Y-86919047D01*
X146659571Y-86919047D01*
X146697666Y-86900000D01*
X146716714Y-86880952D01*
X146735761Y-86842857D01*
X146735761Y-86785714D01*
X146716714Y-86747619D01*
X146697666Y-86728571D01*
X146659571Y-86709523D01*
X146507190Y-86709523D01*
X146907190Y-86519047D02*
X146907190Y-86919047D01*
X147002428Y-86919047D01*
X147059571Y-86900000D01*
X147097666Y-86861904D01*
X147116714Y-86823809D01*
X147135761Y-86747619D01*
X147135761Y-86690476D01*
X147116714Y-86614285D01*
X147097666Y-86576190D01*
X147059571Y-86538095D01*
X147002428Y-86519047D01*
X146907190Y-86519047D01*
X145850047Y-85839047D02*
X145716714Y-86029523D01*
X145621476Y-85839047D02*
X145621476Y-86239047D01*
X145773857Y-86239047D01*
X145811952Y-86220000D01*
X145831000Y-86200952D01*
X145850047Y-86162857D01*
X145850047Y-86105714D01*
X145831000Y-86067619D01*
X145811952Y-86048571D01*
X145773857Y-86029523D01*
X145621476Y-86029523D01*
X146021476Y-86048571D02*
X146154809Y-86048571D01*
X146211952Y-85839047D02*
X146021476Y-85839047D01*
X146021476Y-86239047D01*
X146211952Y-86239047D01*
X146364333Y-85858095D02*
X146421476Y-85839047D01*
X146516714Y-85839047D01*
X146554809Y-85858095D01*
X146573857Y-85877142D01*
X146592904Y-85915238D01*
X146592904Y-85953333D01*
X146573857Y-85991428D01*
X146554809Y-86010476D01*
X146516714Y-86029523D01*
X146440523Y-86048571D01*
X146402428Y-86067619D01*
X146383380Y-86086666D01*
X146364333Y-86124761D01*
X146364333Y-86162857D01*
X146383380Y-86200952D01*
X146402428Y-86220000D01*
X146440523Y-86239047D01*
X146535761Y-86239047D01*
X146592904Y-86220000D01*
X146764333Y-86048571D02*
X146897666Y-86048571D01*
X146954809Y-85839047D02*
X146764333Y-85839047D01*
X146764333Y-86239047D01*
X146954809Y-86239047D01*
X147069095Y-86239047D02*
X147297666Y-86239047D01*
X147183380Y-85839047D02*
X147183380Y-86239047D01*
D11*
X145609571Y-84093809D02*
X145776238Y-83593809D01*
X145942904Y-84093809D01*
X146276238Y-83855714D02*
X146347666Y-83831904D01*
X146371476Y-83808095D01*
X146395285Y-83760476D01*
X146395285Y-83689047D01*
X146371476Y-83641428D01*
X146347666Y-83617619D01*
X146300047Y-83593809D01*
X146109571Y-83593809D01*
X146109571Y-84093809D01*
X146276238Y-84093809D01*
X146323857Y-84070000D01*
X146347666Y-84046190D01*
X146371476Y-83998571D01*
X146371476Y-83950952D01*
X146347666Y-83903333D01*
X146323857Y-83879523D01*
X146276238Y-83855714D01*
X146109571Y-83855714D01*
X146585761Y-83736666D02*
X146823857Y-83736666D01*
X146538142Y-83593809D02*
X146704809Y-84093809D01*
X146871476Y-83593809D01*
X146966714Y-84093809D02*
X147252428Y-84093809D01*
X147109571Y-83593809D02*
X147109571Y-84093809D01*
X145728619Y-89598809D02*
X146038142Y-89598809D01*
X145871476Y-89408333D01*
X145942904Y-89408333D01*
X145990523Y-89384523D01*
X146014333Y-89360714D01*
X146038142Y-89313095D01*
X146038142Y-89194047D01*
X146014333Y-89146428D01*
X145990523Y-89122619D01*
X145942904Y-89098809D01*
X145800047Y-89098809D01*
X145752428Y-89122619D01*
X145728619Y-89146428D01*
X146204809Y-89598809D02*
X146323857Y-89098809D01*
X146419095Y-89455952D01*
X146514333Y-89098809D01*
X146633380Y-89598809D01*
X146990523Y-89360714D02*
X147061952Y-89336904D01*
X147085761Y-89313095D01*
X147109571Y-89265476D01*
X147109571Y-89194047D01*
X147085761Y-89146428D01*
X147061952Y-89122619D01*
X147014333Y-89098809D01*
X146823857Y-89098809D01*
X146823857Y-89598809D01*
X146990523Y-89598809D01*
X147038142Y-89575000D01*
X147061952Y-89551190D01*
X147085761Y-89503571D01*
X147085761Y-89455952D01*
X147061952Y-89408333D01*
X147038142Y-89384523D01*
X146990523Y-89360714D01*
X146823857Y-89360714D01*
X146133380Y-88296428D02*
X146109571Y-88272619D01*
X146038142Y-88248809D01*
X145990523Y-88248809D01*
X145919095Y-88272619D01*
X145871476Y-88320238D01*
X145847666Y-88367857D01*
X145823857Y-88463095D01*
X145823857Y-88534523D01*
X145847666Y-88629761D01*
X145871476Y-88677380D01*
X145919095Y-88725000D01*
X145990523Y-88748809D01*
X146038142Y-88748809D01*
X146109571Y-88725000D01*
X146133380Y-88701190D01*
X146585761Y-88248809D02*
X146347666Y-88248809D01*
X146347666Y-88748809D01*
X146752428Y-88248809D02*
X146752428Y-88748809D01*
X147038142Y-88248809D02*
X146823857Y-88534523D01*
X147038142Y-88748809D02*
X146752428Y-88463095D01*
D12*
X145728619Y-94668809D02*
X146038142Y-94668809D01*
X145871476Y-94478333D01*
X145942904Y-94478333D01*
X145990523Y-94454523D01*
X146014333Y-94430714D01*
X146038142Y-94383095D01*
X146038142Y-94264047D01*
X146014333Y-94216428D01*
X145990523Y-94192619D01*
X145942904Y-94168809D01*
X145800047Y-94168809D01*
X145752428Y-94192619D01*
X145728619Y-94216428D01*
X146204809Y-94668809D02*
X146323857Y-94168809D01*
X146419095Y-94525952D01*
X146514333Y-94168809D01*
X146633380Y-94668809D01*
X146990523Y-94430714D02*
X147061952Y-94406904D01*
X147085761Y-94383095D01*
X147109571Y-94335476D01*
X147109571Y-94264047D01*
X147085761Y-94216428D01*
X147061952Y-94192619D01*
X147014333Y-94168809D01*
X146823857Y-94168809D01*
X146823857Y-94668809D01*
X146990523Y-94668809D01*
X147038142Y-94645000D01*
X147061952Y-94621190D01*
X147085761Y-94573571D01*
X147085761Y-94525952D01*
X147061952Y-94478333D01*
X147038142Y-94454523D01*
X146990523Y-94430714D01*
X146823857Y-94430714D01*
X145681000Y-93338809D02*
X145681000Y-93838809D01*
X145800047Y-93838809D01*
X145871476Y-93815000D01*
X145919095Y-93767380D01*
X145942904Y-93719761D01*
X145966714Y-93624523D01*
X145966714Y-93553095D01*
X145942904Y-93457857D01*
X145919095Y-93410238D01*
X145871476Y-93362619D01*
X145800047Y-93338809D01*
X145681000Y-93338809D01*
X146157190Y-93481666D02*
X146395285Y-93481666D01*
X146109571Y-93338809D02*
X146276238Y-93838809D01*
X146442904Y-93338809D01*
X146538142Y-93838809D02*
X146823857Y-93838809D01*
X146681000Y-93338809D02*
X146681000Y-93838809D01*
X146966714Y-93481666D02*
X147204809Y-93481666D01*
X146919095Y-93338809D02*
X147085761Y-93838809D01*
X147252428Y-93338809D01*
D11*
X117415476Y-101552380D02*
X117391666Y-101504761D01*
X117367857Y-101480952D01*
X117320238Y-101457142D01*
X117296428Y-101457142D01*
X117248809Y-101480952D01*
X117225000Y-101504761D01*
X117201190Y-101552380D01*
X117201190Y-101647619D01*
X117225000Y-101695238D01*
X117248809Y-101719047D01*
X117296428Y-101742857D01*
X117320238Y-101742857D01*
X117367857Y-101719047D01*
X117391666Y-101695238D01*
X117415476Y-101647619D01*
X117415476Y-101552380D01*
X117439285Y-101504761D01*
X117463095Y-101480952D01*
X117510714Y-101457142D01*
X117605952Y-101457142D01*
X117653571Y-101480952D01*
X117677380Y-101504761D01*
X117701190Y-101552380D01*
X117701190Y-101647619D01*
X117677380Y-101695238D01*
X117653571Y-101719047D01*
X117605952Y-101742857D01*
X117510714Y-101742857D01*
X117463095Y-101719047D01*
X117439285Y-101695238D01*
X117415476Y-101647619D01*
X132941190Y-101504761D02*
X132941190Y-101219047D01*
X132941190Y-101361904D02*
X132441190Y-101361904D01*
X132512619Y-101314285D01*
X132560238Y-101266666D01*
X132584047Y-101219047D01*
X132607857Y-101933333D02*
X132941190Y-101933333D01*
X132417380Y-101814285D02*
X132774523Y-101695238D01*
X132774523Y-102004761D01*
X135481190Y-101504761D02*
X135481190Y-101219047D01*
X135481190Y-101361904D02*
X134981190Y-101361904D01*
X135052619Y-101314285D01*
X135100238Y-101266666D01*
X135124047Y-101219047D01*
X134981190Y-101957142D02*
X134981190Y-101719047D01*
X135219285Y-101695238D01*
X135195476Y-101719047D01*
X135171666Y-101766666D01*
X135171666Y-101885714D01*
X135195476Y-101933333D01*
X135219285Y-101957142D01*
X135266904Y-101980952D01*
X135385952Y-101980952D01*
X135433571Y-101957142D01*
X135457380Y-101933333D01*
X135481190Y-101885714D01*
X135481190Y-101766666D01*
X135457380Y-101719047D01*
X135433571Y-101695238D01*
X138175952Y-101350000D02*
X138223571Y-101326190D01*
X138295000Y-101326190D01*
X138366428Y-101350000D01*
X138414047Y-101397619D01*
X138437857Y-101445238D01*
X138461666Y-101540476D01*
X138461666Y-101611904D01*
X138437857Y-101707142D01*
X138414047Y-101754761D01*
X138366428Y-101802380D01*
X138295000Y-101826190D01*
X138247380Y-101826190D01*
X138175952Y-101802380D01*
X138152142Y-101778571D01*
X138152142Y-101611904D01*
X138247380Y-101611904D01*
X137937857Y-101826190D02*
X137937857Y-101326190D01*
X137652142Y-101826190D01*
X137652142Y-101326190D01*
X137414047Y-101826190D02*
X137414047Y-101326190D01*
X137295000Y-101326190D01*
X137223571Y-101350000D01*
X137175952Y-101397619D01*
X137152142Y-101445238D01*
X137128333Y-101540476D01*
X137128333Y-101611904D01*
X137152142Y-101707142D01*
X137175952Y-101754761D01*
X137223571Y-101802380D01*
X137295000Y-101826190D01*
X137414047Y-101826190D01*
X115161190Y-101742857D02*
X115161190Y-101457142D01*
X115161190Y-101600000D02*
X114661190Y-101600000D01*
X114732619Y-101552380D01*
X114780238Y-101504761D01*
X114804047Y-101457142D01*
X125321190Y-101504761D02*
X125321190Y-101219047D01*
X125321190Y-101361904D02*
X124821190Y-101361904D01*
X124892619Y-101314285D01*
X124940238Y-101266666D01*
X124964047Y-101219047D01*
X125321190Y-101980952D02*
X125321190Y-101695238D01*
X125321190Y-101838095D02*
X124821190Y-101838095D01*
X124892619Y-101790476D01*
X124940238Y-101742857D01*
X124964047Y-101695238D01*
X120241190Y-101504761D02*
X120241190Y-101600000D01*
X120217380Y-101647619D01*
X120193571Y-101671428D01*
X120122142Y-101719047D01*
X120026904Y-101742857D01*
X119836428Y-101742857D01*
X119788809Y-101719047D01*
X119765000Y-101695238D01*
X119741190Y-101647619D01*
X119741190Y-101552380D01*
X119765000Y-101504761D01*
X119788809Y-101480952D01*
X119836428Y-101457142D01*
X119955476Y-101457142D01*
X120003095Y-101480952D01*
X120026904Y-101504761D01*
X120050714Y-101552380D01*
X120050714Y-101647619D01*
X120026904Y-101695238D01*
X120003095Y-101719047D01*
X119955476Y-101742857D01*
X122781190Y-101504761D02*
X122781190Y-101219047D01*
X122781190Y-101361904D02*
X122281190Y-101361904D01*
X122352619Y-101314285D01*
X122400238Y-101266666D01*
X122424047Y-101219047D01*
X122281190Y-101814285D02*
X122281190Y-101861904D01*
X122305000Y-101909523D01*
X122328809Y-101933333D01*
X122376428Y-101957142D01*
X122471666Y-101980952D01*
X122590714Y-101980952D01*
X122685952Y-101957142D01*
X122733571Y-101933333D01*
X122757380Y-101909523D01*
X122781190Y-101861904D01*
X122781190Y-101814285D01*
X122757380Y-101766666D01*
X122733571Y-101742857D01*
X122685952Y-101719047D01*
X122590714Y-101695238D01*
X122471666Y-101695238D01*
X122376428Y-101719047D01*
X122328809Y-101742857D01*
X122305000Y-101766666D01*
X122281190Y-101814285D01*
X127861190Y-101504761D02*
X127861190Y-101219047D01*
X127861190Y-101361904D02*
X127361190Y-101361904D01*
X127432619Y-101314285D01*
X127480238Y-101266666D01*
X127504047Y-101219047D01*
X127408809Y-101695238D02*
X127385000Y-101719047D01*
X127361190Y-101766666D01*
X127361190Y-101885714D01*
X127385000Y-101933333D01*
X127408809Y-101957142D01*
X127456428Y-101980952D01*
X127504047Y-101980952D01*
X127575476Y-101957142D01*
X127861190Y-101671428D01*
X127861190Y-101980952D01*
X130401190Y-101504761D02*
X130401190Y-101219047D01*
X130401190Y-101361904D02*
X129901190Y-101361904D01*
X129972619Y-101314285D01*
X130020238Y-101266666D01*
X130044047Y-101219047D01*
X129901190Y-101671428D02*
X129901190Y-101980952D01*
X130091666Y-101814285D01*
X130091666Y-101885714D01*
X130115476Y-101933333D01*
X130139285Y-101957142D01*
X130186904Y-101980952D01*
X130305952Y-101980952D01*
X130353571Y-101957142D01*
X130377380Y-101933333D01*
X130401190Y-101885714D01*
X130401190Y-101742857D01*
X130377380Y-101695238D01*
X130353571Y-101671428D01*
X132441190Y-108045238D02*
X132441190Y-107950000D01*
X132465000Y-107902380D01*
X132488809Y-107878571D01*
X132560238Y-107830952D01*
X132655476Y-107807142D01*
X132845952Y-107807142D01*
X132893571Y-107830952D01*
X132917380Y-107854761D01*
X132941190Y-107902380D01*
X132941190Y-107997619D01*
X132917380Y-108045238D01*
X132893571Y-108069047D01*
X132845952Y-108092857D01*
X132726904Y-108092857D01*
X132679285Y-108069047D01*
X132655476Y-108045238D01*
X132631666Y-107997619D01*
X132631666Y-107902380D01*
X132655476Y-107854761D01*
X132679285Y-107830952D01*
X132726904Y-107807142D01*
X122328809Y-107807142D02*
X122305000Y-107830952D01*
X122281190Y-107878571D01*
X122281190Y-107997619D01*
X122305000Y-108045238D01*
X122328809Y-108069047D01*
X122376428Y-108092857D01*
X122424047Y-108092857D01*
X122495476Y-108069047D01*
X122781190Y-107783333D01*
X122781190Y-108092857D01*
X129901190Y-108069047D02*
X129901190Y-107830952D01*
X130139285Y-107807142D01*
X130115476Y-107830952D01*
X130091666Y-107878571D01*
X130091666Y-107997619D01*
X130115476Y-108045238D01*
X130139285Y-108069047D01*
X130186904Y-108092857D01*
X130305952Y-108092857D01*
X130353571Y-108069047D01*
X130377380Y-108045238D01*
X130401190Y-107997619D01*
X130401190Y-107878571D01*
X130377380Y-107830952D01*
X130353571Y-107807142D01*
X127527857Y-108045238D02*
X127861190Y-108045238D01*
X127337380Y-107926190D02*
X127694523Y-107807142D01*
X127694523Y-108116666D01*
X117201190Y-107926190D02*
X117201190Y-107973809D01*
X117225000Y-108021428D01*
X117248809Y-108045238D01*
X117296428Y-108069047D01*
X117391666Y-108092857D01*
X117510714Y-108092857D01*
X117605952Y-108069047D01*
X117653571Y-108045238D01*
X117677380Y-108021428D01*
X117701190Y-107973809D01*
X117701190Y-107926190D01*
X117677380Y-107878571D01*
X117653571Y-107854761D01*
X117605952Y-107830952D01*
X117510714Y-107807142D01*
X117391666Y-107807142D01*
X117296428Y-107830952D01*
X117248809Y-107854761D01*
X117225000Y-107878571D01*
X117201190Y-107926190D01*
X124821190Y-107783333D02*
X124821190Y-108092857D01*
X125011666Y-107926190D01*
X125011666Y-107997619D01*
X125035476Y-108045238D01*
X125059285Y-108069047D01*
X125106904Y-108092857D01*
X125225952Y-108092857D01*
X125273571Y-108069047D01*
X125297380Y-108045238D01*
X125321190Y-107997619D01*
X125321190Y-107854761D01*
X125297380Y-107807142D01*
X125273571Y-107783333D01*
X120241190Y-108092857D02*
X120241190Y-107807142D01*
X120241190Y-107950000D02*
X119741190Y-107950000D01*
X119812619Y-107902380D01*
X119860238Y-107854761D01*
X119884047Y-107807142D01*
X134981190Y-107783333D02*
X134981190Y-108116666D01*
X135481190Y-107902380D01*
X138175952Y-107700000D02*
X138223571Y-107676190D01*
X138295000Y-107676190D01*
X138366428Y-107700000D01*
X138414047Y-107747619D01*
X138437857Y-107795238D01*
X138461666Y-107890476D01*
X138461666Y-107961904D01*
X138437857Y-108057142D01*
X138414047Y-108104761D01*
X138366428Y-108152380D01*
X138295000Y-108176190D01*
X138247380Y-108176190D01*
X138175952Y-108152380D01*
X138152142Y-108128571D01*
X138152142Y-107961904D01*
X138247380Y-107961904D01*
X137937857Y-108176190D02*
X137937857Y-107676190D01*
X137652142Y-108176190D01*
X137652142Y-107676190D01*
X137414047Y-108176190D02*
X137414047Y-107676190D01*
X137295000Y-107676190D01*
X137223571Y-107700000D01*
X137175952Y-107747619D01*
X137152142Y-107795238D01*
X137128333Y-107890476D01*
X137128333Y-107961904D01*
X137152142Y-108057142D01*
X137175952Y-108104761D01*
X137223571Y-108152380D01*
X137295000Y-108176190D01*
X137414047Y-108176190D01*
X115315952Y-107700000D02*
X115363571Y-107676190D01*
X115435000Y-107676190D01*
X115506428Y-107700000D01*
X115554047Y-107747619D01*
X115577857Y-107795238D01*
X115601666Y-107890476D01*
X115601666Y-107961904D01*
X115577857Y-108057142D01*
X115554047Y-108104761D01*
X115506428Y-108152380D01*
X115435000Y-108176190D01*
X115387380Y-108176190D01*
X115315952Y-108152380D01*
X115292142Y-108128571D01*
X115292142Y-107961904D01*
X115387380Y-107961904D01*
X115077857Y-108176190D02*
X115077857Y-107676190D01*
X114792142Y-108176190D01*
X114792142Y-107676190D01*
X114554047Y-108176190D02*
X114554047Y-107676190D01*
X114435000Y-107676190D01*
X114363571Y-107700000D01*
X114315952Y-107747619D01*
X114292142Y-107795238D01*
X114268333Y-107890476D01*
X114268333Y-107961904D01*
X114292142Y-108057142D01*
X114315952Y-108104761D01*
X114363571Y-108152380D01*
X114435000Y-108176190D01*
X114554047Y-108176190D01*
X113117380Y-86558809D02*
X113117380Y-87058809D01*
X113355476Y-86558809D02*
X113355476Y-87058809D01*
X113522142Y-86701666D01*
X113688809Y-87058809D01*
X113688809Y-86558809D01*
X113926904Y-87058809D02*
X113926904Y-86654047D01*
X113950714Y-86606428D01*
X113974523Y-86582619D01*
X114022142Y-86558809D01*
X114117380Y-86558809D01*
X114165000Y-86582619D01*
X114188809Y-86606428D01*
X114212619Y-86654047D01*
X114212619Y-87058809D01*
X112998333Y-86208809D02*
X113165000Y-85708809D01*
X113331666Y-86208809D01*
X113498333Y-85708809D02*
X113498333Y-86208809D01*
X113617380Y-86208809D01*
X113688809Y-86185000D01*
X113736428Y-86137380D01*
X113760238Y-86089761D01*
X113784047Y-85994523D01*
X113784047Y-85923095D01*
X113760238Y-85827857D01*
X113736428Y-85780238D01*
X113688809Y-85732619D01*
X113617380Y-85708809D01*
X113498333Y-85708809D01*
X113998333Y-85708809D02*
X113998333Y-86208809D01*
X114117380Y-86208809D01*
X114188809Y-86185000D01*
X114236428Y-86137380D01*
X114260238Y-86089761D01*
X114284047Y-85994523D01*
X114284047Y-85923095D01*
X114260238Y-85827857D01*
X114236428Y-85780238D01*
X114188809Y-85732619D01*
X114117380Y-85708809D01*
X113998333Y-85708809D01*
X113117380Y-89098809D02*
X113117380Y-89598809D01*
X113355476Y-89098809D02*
X113355476Y-89598809D01*
X113522142Y-89241666D01*
X113688809Y-89598809D01*
X113688809Y-89098809D01*
X113926904Y-89598809D02*
X113926904Y-89194047D01*
X113950714Y-89146428D01*
X113974523Y-89122619D01*
X114022142Y-89098809D01*
X114117380Y-89098809D01*
X114165000Y-89122619D01*
X114188809Y-89146428D01*
X114212619Y-89194047D01*
X114212619Y-89598809D01*
X112617380Y-88748809D02*
X112784047Y-88248809D01*
X112950714Y-88748809D01*
X113117380Y-88248809D02*
X113117380Y-88748809D01*
X113236428Y-88748809D01*
X113307857Y-88725000D01*
X113355476Y-88677380D01*
X113379285Y-88629761D01*
X113403095Y-88534523D01*
X113403095Y-88463095D01*
X113379285Y-88367857D01*
X113355476Y-88320238D01*
X113307857Y-88272619D01*
X113236428Y-88248809D01*
X113117380Y-88248809D01*
X113617380Y-88248809D02*
X113617380Y-88748809D01*
X113736428Y-88748809D01*
X113807857Y-88725000D01*
X113855476Y-88677380D01*
X113879285Y-88629761D01*
X113903095Y-88534523D01*
X113903095Y-88463095D01*
X113879285Y-88367857D01*
X113855476Y-88320238D01*
X113807857Y-88272619D01*
X113736428Y-88248809D01*
X113617380Y-88248809D01*
X114117380Y-88248809D02*
X114117380Y-88748809D01*
X114450714Y-88748809D02*
X114545952Y-88748809D01*
X114593571Y-88725000D01*
X114641190Y-88677380D01*
X114665000Y-88582142D01*
X114665000Y-88415476D01*
X114641190Y-88320238D01*
X114593571Y-88272619D01*
X114545952Y-88248809D01*
X114450714Y-88248809D01*
X114403095Y-88272619D01*
X114355476Y-88320238D01*
X114331666Y-88415476D01*
X114331666Y-88582142D01*
X114355476Y-88677380D01*
X114403095Y-88725000D01*
X114450714Y-88748809D01*
D12*
X113169761Y-96793333D02*
X113360238Y-96793333D01*
X113131666Y-96679047D02*
X113265000Y-97079047D01*
X113398333Y-96679047D01*
X113531666Y-96679047D02*
X113531666Y-97079047D01*
X113626904Y-97079047D01*
X113684047Y-97060000D01*
X113722142Y-97021904D01*
X113741190Y-96983809D01*
X113760238Y-96907619D01*
X113760238Y-96850476D01*
X113741190Y-96774285D01*
X113722142Y-96736190D01*
X113684047Y-96698095D01*
X113626904Y-96679047D01*
X113531666Y-96679047D01*
X114160238Y-96717142D02*
X114141190Y-96698095D01*
X114084047Y-96679047D01*
X114045952Y-96679047D01*
X113988809Y-96698095D01*
X113950714Y-96736190D01*
X113931666Y-96774285D01*
X113912619Y-96850476D01*
X113912619Y-96907619D01*
X113931666Y-96983809D01*
X113950714Y-97021904D01*
X113988809Y-97060000D01*
X114045952Y-97079047D01*
X114084047Y-97079047D01*
X114141190Y-97060000D01*
X114160238Y-97040952D01*
X113265000Y-96399047D02*
X113341190Y-96399047D01*
X113379285Y-96380000D01*
X113417380Y-96341904D01*
X113436428Y-96265714D01*
X113436428Y-96132380D01*
X113417380Y-96056190D01*
X113379285Y-96018095D01*
X113341190Y-95999047D01*
X113265000Y-95999047D01*
X113226904Y-96018095D01*
X113188809Y-96056190D01*
X113169761Y-96132380D01*
X113169761Y-96265714D01*
X113188809Y-96341904D01*
X113226904Y-96380000D01*
X113265000Y-96399047D01*
X113607857Y-96399047D02*
X113607857Y-96075238D01*
X113626904Y-96037142D01*
X113645952Y-96018095D01*
X113684047Y-95999047D01*
X113760238Y-95999047D01*
X113798333Y-96018095D01*
X113817380Y-96037142D01*
X113836428Y-96075238D01*
X113836428Y-96399047D01*
X113969761Y-96399047D02*
X114198333Y-96399047D01*
X114084047Y-95999047D02*
X114084047Y-96399047D01*
D11*
X112617380Y-91713809D02*
X112784047Y-91213809D01*
X112950714Y-91713809D01*
X113117380Y-91213809D02*
X113117380Y-91713809D01*
X113236428Y-91713809D01*
X113307857Y-91690000D01*
X113355476Y-91642380D01*
X113379285Y-91594761D01*
X113403095Y-91499523D01*
X113403095Y-91428095D01*
X113379285Y-91332857D01*
X113355476Y-91285238D01*
X113307857Y-91237619D01*
X113236428Y-91213809D01*
X113117380Y-91213809D01*
X113617380Y-91213809D02*
X113617380Y-91713809D01*
X113736428Y-91713809D01*
X113807857Y-91690000D01*
X113855476Y-91642380D01*
X113879285Y-91594761D01*
X113903095Y-91499523D01*
X113903095Y-91428095D01*
X113879285Y-91332857D01*
X113855476Y-91285238D01*
X113807857Y-91237619D01*
X113736428Y-91213809D01*
X113617380Y-91213809D01*
X114117380Y-91213809D02*
X114117380Y-91713809D01*
X114450714Y-91713809D02*
X114545952Y-91713809D01*
X114593571Y-91690000D01*
X114641190Y-91642380D01*
X114665000Y-91547142D01*
X114665000Y-91380476D01*
X114641190Y-91285238D01*
X114593571Y-91237619D01*
X114545952Y-91213809D01*
X114450714Y-91213809D01*
X114403095Y-91237619D01*
X114355476Y-91285238D01*
X114331666Y-91380476D01*
X114331666Y-91547142D01*
X114355476Y-91642380D01*
X114403095Y-91690000D01*
X114450714Y-91713809D01*
D12*
X112950714Y-94348571D02*
X113007857Y-94329523D01*
X113026904Y-94310476D01*
X113045952Y-94272380D01*
X113045952Y-94215238D01*
X113026904Y-94177142D01*
X113007857Y-94158095D01*
X112969761Y-94139047D01*
X112817380Y-94139047D01*
X112817380Y-94539047D01*
X112950714Y-94539047D01*
X112988809Y-94520000D01*
X113007857Y-94500952D01*
X113026904Y-94462857D01*
X113026904Y-94424761D01*
X113007857Y-94386666D01*
X112988809Y-94367619D01*
X112950714Y-94348571D01*
X112817380Y-94348571D01*
X113160238Y-94539047D02*
X113388809Y-94539047D01*
X113274523Y-94139047D02*
X113274523Y-94539047D01*
X113503095Y-94158095D02*
X113560238Y-94139047D01*
X113655476Y-94139047D01*
X113693571Y-94158095D01*
X113712619Y-94177142D01*
X113731666Y-94215238D01*
X113731666Y-94253333D01*
X113712619Y-94291428D01*
X113693571Y-94310476D01*
X113655476Y-94329523D01*
X113579285Y-94348571D01*
X113541190Y-94367619D01*
X113522142Y-94386666D01*
X113503095Y-94424761D01*
X113503095Y-94462857D01*
X113522142Y-94500952D01*
X113541190Y-94520000D01*
X113579285Y-94539047D01*
X113674523Y-94539047D01*
X113731666Y-94520000D01*
X114131666Y-94139047D02*
X113998333Y-94329523D01*
X113903095Y-94139047D02*
X113903095Y-94539047D01*
X114055476Y-94539047D01*
X114093571Y-94520000D01*
X114112619Y-94500952D01*
X114131666Y-94462857D01*
X114131666Y-94405714D01*
X114112619Y-94367619D01*
X114093571Y-94348571D01*
X114055476Y-94329523D01*
X113903095Y-94329523D01*
X114531666Y-94177142D02*
X114512619Y-94158095D01*
X114455476Y-94139047D01*
X114417380Y-94139047D01*
X114360238Y-94158095D01*
X114322142Y-94196190D01*
X114303095Y-94234285D01*
X114284047Y-94310476D01*
X114284047Y-94367619D01*
X114303095Y-94443809D01*
X114322142Y-94481904D01*
X114360238Y-94520000D01*
X114417380Y-94539047D01*
X114455476Y-94539047D01*
X114512619Y-94520000D01*
X114531666Y-94500952D01*
X113207857Y-93478095D02*
X113265000Y-93459047D01*
X113360238Y-93459047D01*
X113398333Y-93478095D01*
X113417380Y-93497142D01*
X113436428Y-93535238D01*
X113436428Y-93573333D01*
X113417380Y-93611428D01*
X113398333Y-93630476D01*
X113360238Y-93649523D01*
X113284047Y-93668571D01*
X113245952Y-93687619D01*
X113226904Y-93706666D01*
X113207857Y-93744761D01*
X113207857Y-93782857D01*
X113226904Y-93820952D01*
X113245952Y-93840000D01*
X113284047Y-93859047D01*
X113379285Y-93859047D01*
X113436428Y-93840000D01*
X113607857Y-93668571D02*
X113741190Y-93668571D01*
X113798333Y-93459047D02*
X113607857Y-93459047D01*
X113607857Y-93859047D01*
X113798333Y-93859047D01*
X114160238Y-93459047D02*
X113969761Y-93459047D01*
X113969761Y-93859047D01*
D11*
X105223571Y-91713809D02*
X105390238Y-91213809D01*
X105556904Y-91713809D01*
X105890238Y-91475714D02*
X105961666Y-91451904D01*
X105985476Y-91428095D01*
X106009285Y-91380476D01*
X106009285Y-91309047D01*
X105985476Y-91261428D01*
X105961666Y-91237619D01*
X105914047Y-91213809D01*
X105723571Y-91213809D01*
X105723571Y-91713809D01*
X105890238Y-91713809D01*
X105937857Y-91690000D01*
X105961666Y-91666190D01*
X105985476Y-91618571D01*
X105985476Y-91570952D01*
X105961666Y-91523333D01*
X105937857Y-91499523D01*
X105890238Y-91475714D01*
X105723571Y-91475714D01*
X106199761Y-91356666D02*
X106437857Y-91356666D01*
X106152142Y-91213809D02*
X106318809Y-91713809D01*
X106485476Y-91213809D01*
X106580714Y-91713809D02*
X106866428Y-91713809D01*
X106723571Y-91213809D02*
X106723571Y-91713809D01*
X106318809Y-94896666D02*
X105818809Y-94730000D01*
X106318809Y-94563333D01*
X105818809Y-94396666D02*
X106318809Y-94396666D01*
X106318809Y-94277619D01*
X106295000Y-94206190D01*
X106247380Y-94158571D01*
X106199761Y-94134761D01*
X106104523Y-94110952D01*
X106033095Y-94110952D01*
X105937857Y-94134761D01*
X105890238Y-94158571D01*
X105842619Y-94206190D01*
X105818809Y-94277619D01*
X105818809Y-94396666D01*
X105818809Y-93896666D02*
X106318809Y-93896666D01*
X106318809Y-93777619D01*
X106295000Y-93706190D01*
X106247380Y-93658571D01*
X106199761Y-93634761D01*
X106104523Y-93610952D01*
X106033095Y-93610952D01*
X105937857Y-93634761D01*
X105890238Y-93658571D01*
X105842619Y-93706190D01*
X105818809Y-93777619D01*
X105818809Y-93896666D01*
X105818809Y-93396666D02*
X106318809Y-93396666D01*
X106318809Y-93277619D01*
X106295000Y-93206190D01*
X106247380Y-93158571D01*
X106199761Y-93134761D01*
X106104523Y-93110952D01*
X106033095Y-93110952D01*
X105937857Y-93134761D01*
X105890238Y-93158571D01*
X105842619Y-93206190D01*
X105818809Y-93277619D01*
X105818809Y-93396666D01*
X106318809Y-89947619D02*
X105818809Y-89780952D01*
X106318809Y-89614285D01*
X105818809Y-89447619D02*
X106318809Y-89447619D01*
X106318809Y-89328571D01*
X106295000Y-89257142D01*
X106247380Y-89209523D01*
X106199761Y-89185714D01*
X106104523Y-89161904D01*
X106033095Y-89161904D01*
X105937857Y-89185714D01*
X105890238Y-89209523D01*
X105842619Y-89257142D01*
X105818809Y-89328571D01*
X105818809Y-89447619D01*
X105818809Y-88947619D02*
X106318809Y-88947619D01*
X106318809Y-88828571D01*
X106295000Y-88757142D01*
X106247380Y-88709523D01*
X106199761Y-88685714D01*
X106104523Y-88661904D01*
X106033095Y-88661904D01*
X105937857Y-88685714D01*
X105890238Y-88709523D01*
X105842619Y-88757142D01*
X105818809Y-88828571D01*
X105818809Y-88947619D01*
X105818809Y-88447619D02*
X106318809Y-88447619D01*
X106318809Y-88114285D02*
X106318809Y-88019047D01*
X106295000Y-87971428D01*
X106247380Y-87923809D01*
X106152142Y-87900000D01*
X105985476Y-87900000D01*
X105890238Y-87923809D01*
X105842619Y-87971428D01*
X105818809Y-88019047D01*
X105818809Y-88114285D01*
X105842619Y-88161904D01*
X105890238Y-88209523D01*
X105985476Y-88233333D01*
X106152142Y-88233333D01*
X106247380Y-88209523D01*
X106295000Y-88161904D01*
X106318809Y-88114285D01*
X106318809Y-87407619D02*
X105818809Y-87240952D01*
X106318809Y-87074285D01*
X105818809Y-86907619D02*
X106318809Y-86907619D01*
X106318809Y-86788571D01*
X106295000Y-86717142D01*
X106247380Y-86669523D01*
X106199761Y-86645714D01*
X106104523Y-86621904D01*
X106033095Y-86621904D01*
X105937857Y-86645714D01*
X105890238Y-86669523D01*
X105842619Y-86717142D01*
X105818809Y-86788571D01*
X105818809Y-86907619D01*
X105818809Y-86407619D02*
X106318809Y-86407619D01*
X106318809Y-86288571D01*
X106295000Y-86217142D01*
X106247380Y-86169523D01*
X106199761Y-86145714D01*
X106104523Y-86121904D01*
X106033095Y-86121904D01*
X105937857Y-86145714D01*
X105890238Y-86169523D01*
X105842619Y-86217142D01*
X105818809Y-86288571D01*
X105818809Y-86407619D01*
X105818809Y-85907619D02*
X106318809Y-85907619D01*
X106318809Y-85574285D02*
X106318809Y-85479047D01*
X106295000Y-85431428D01*
X106247380Y-85383809D01*
X106152142Y-85360000D01*
X105985476Y-85360000D01*
X105890238Y-85383809D01*
X105842619Y-85431428D01*
X105818809Y-85479047D01*
X105818809Y-85574285D01*
X105842619Y-85621904D01*
X105890238Y-85669523D01*
X105985476Y-85693333D01*
X106152142Y-85693333D01*
X106247380Y-85669523D01*
X106295000Y-85621904D01*
X106318809Y-85574285D01*
D12*
X105549761Y-96793333D02*
X105740238Y-96793333D01*
X105511666Y-96679047D02*
X105645000Y-97079047D01*
X105778333Y-96679047D01*
X105911666Y-96679047D02*
X105911666Y-97079047D01*
X106006904Y-97079047D01*
X106064047Y-97060000D01*
X106102142Y-97021904D01*
X106121190Y-96983809D01*
X106140238Y-96907619D01*
X106140238Y-96850476D01*
X106121190Y-96774285D01*
X106102142Y-96736190D01*
X106064047Y-96698095D01*
X106006904Y-96679047D01*
X105911666Y-96679047D01*
X106540238Y-96717142D02*
X106521190Y-96698095D01*
X106464047Y-96679047D01*
X106425952Y-96679047D01*
X106368809Y-96698095D01*
X106330714Y-96736190D01*
X106311666Y-96774285D01*
X106292619Y-96850476D01*
X106292619Y-96907619D01*
X106311666Y-96983809D01*
X106330714Y-97021904D01*
X106368809Y-97060000D01*
X106425952Y-97079047D01*
X106464047Y-97079047D01*
X106521190Y-97060000D01*
X106540238Y-97040952D01*
X105835476Y-95999047D02*
X105835476Y-96399047D01*
X106025952Y-95999047D02*
X106025952Y-96399047D01*
X106254523Y-95999047D01*
X106254523Y-96399047D01*
D11*
X106295000Y-84200952D02*
X106318809Y-84248571D01*
X106318809Y-84320000D01*
X106295000Y-84391428D01*
X106247380Y-84439047D01*
X106199761Y-84462857D01*
X106104523Y-84486666D01*
X106033095Y-84486666D01*
X105937857Y-84462857D01*
X105890238Y-84439047D01*
X105842619Y-84391428D01*
X105818809Y-84320000D01*
X105818809Y-84272380D01*
X105842619Y-84200952D01*
X105866428Y-84177142D01*
X106033095Y-84177142D01*
X106033095Y-84272380D01*
X105818809Y-83962857D02*
X106318809Y-83962857D01*
X105818809Y-83677142D01*
X106318809Y-83677142D01*
X105818809Y-83439047D02*
X106318809Y-83439047D01*
X106318809Y-83320000D01*
X106295000Y-83248571D01*
X106247380Y-83200952D01*
X106199761Y-83177142D01*
X106104523Y-83153333D01*
X106033095Y-83153333D01*
X105937857Y-83177142D01*
X105890238Y-83200952D01*
X105842619Y-83248571D01*
X105818809Y-83320000D01*
X105818809Y-83439047D01*
D13*
X110236000Y-77470000D02*
G75*
G03*
X110236000Y-77470000I-1651000J0D01*
G01*
X110236000Y-105410000D02*
G75*
G03*
X110236000Y-105410000I-1651000J0D01*
G01*
X145796000Y-105410000D02*
G75*
G03*
X145796000Y-105410000I-1651000J0D01*
G01*
X145796000Y-77470000D02*
G75*
G03*
X145796000Y-77470000I-1651000J0D01*
G01*
D11*
X114350151Y-82338053D02*
X114434350Y-82244426D01*
X114945886Y-82391426D02*
X114977684Y-82276181D01*
X115258837Y-82275596D02*
X115539989Y-82275011D01*
X114038693Y-82519518D02*
X114150068Y-82475554D01*
X117667478Y-82392338D02*
X117736223Y-82431776D01*
X117608633Y-82343071D02*
X117667478Y-82392338D01*
X115539989Y-82275011D02*
X115572084Y-82396027D01*
X114912784Y-82511857D02*
X114945886Y-82391426D01*
X116127474Y-82432339D02*
X116097267Y-82343024D01*
X113786435Y-82565390D02*
X113917550Y-82549442D01*
X117112800Y-82498936D02*
X117211231Y-82449344D01*
X117003904Y-82535273D02*
X117112800Y-82498936D01*
X116883452Y-82558807D02*
X117003904Y-82535273D01*
X116346000Y-82500184D02*
X116492281Y-82541415D01*
X116097267Y-82343024D02*
X116118407Y-82360509D01*
X117540979Y-82258704D02*
X117608633Y-82343071D01*
X117496555Y-82158630D02*
X117540979Y-82258704D01*
X117486986Y-82127592D02*
X117496555Y-82158630D01*
X117476869Y-82146664D02*
X117486986Y-82127592D01*
X117445017Y-82212414D02*
X117476869Y-82146664D01*
X117403865Y-82275725D02*
X117445017Y-82212414D01*
X117355069Y-82334351D02*
X117403865Y-82275725D01*
X114631477Y-82517043D02*
X114911479Y-82517043D01*
X114351476Y-82515033D02*
X114631477Y-82517043D01*
X114398543Y-82372715D02*
X114351476Y-82515033D01*
X114251875Y-82417487D02*
X114350151Y-82338053D01*
X117211231Y-82449344D02*
X117300288Y-82386044D01*
X116659587Y-82563337D02*
X116776633Y-82564837D01*
X117300288Y-82386044D02*
X117355069Y-82334351D01*
X116776633Y-82564837D02*
X116883452Y-82558807D01*
X116492281Y-82541415D02*
X116659587Y-82563337D01*
X116221217Y-82439823D02*
X116346000Y-82500184D01*
X116118407Y-82360509D02*
X116221217Y-82439823D01*
X116155998Y-82517044D02*
X116127474Y-82432339D01*
X115880088Y-82517044D02*
X116155998Y-82517044D01*
X115604178Y-82517044D02*
X115880088Y-82517044D01*
X115572084Y-82396027D02*
X115604178Y-82517044D01*
X114911479Y-82517043D02*
X114912784Y-82511857D01*
X114434350Y-82244426D02*
X114444965Y-82231758D01*
X114977684Y-82276181D02*
X115258837Y-82275596D01*
X114444965Y-82231758D02*
X114398543Y-82372715D01*
X113917550Y-82549442D02*
X114038693Y-82519518D01*
X114150068Y-82475554D02*
X114251875Y-82417487D01*
X113632491Y-78335937D02*
X113649810Y-78221199D01*
X113600499Y-78671281D02*
X113632491Y-78335937D01*
X112544484Y-78520327D02*
X112544484Y-78520329D01*
X112919782Y-78259199D02*
X112997114Y-78499009D01*
X112939334Y-78575430D02*
X112858547Y-78563157D01*
X112544484Y-78520329D02*
X112544484Y-78407389D01*
X112876729Y-78042464D02*
X112965219Y-77502914D01*
X112548519Y-78632996D02*
X112544484Y-78520327D01*
X112690069Y-78594504D02*
X112548519Y-78632996D01*
X113672929Y-78682868D02*
X113600499Y-78671281D01*
X113016133Y-77008994D02*
X112929429Y-77533864D01*
X113294269Y-78627421D02*
X113294270Y-78627422D01*
X113672929Y-78682868D02*
X113672929Y-78682868D01*
X113758642Y-78695061D02*
X113752034Y-78694717D01*
X112939334Y-78575430D02*
X112939334Y-78575430D01*
X113022576Y-78587171D02*
X112939334Y-78575430D01*
X112860207Y-78394540D02*
X112869388Y-78110533D01*
X112858547Y-78563157D02*
X112860207Y-78394540D01*
X112515268Y-78402474D02*
X113016133Y-77008994D01*
X112965004Y-78316059D02*
X112876729Y-78042464D01*
X113092483Y-78597850D02*
X113054733Y-78591109D01*
X113461747Y-78651707D02*
X113294269Y-78627421D01*
X112965219Y-77502914D02*
X113052307Y-76975209D01*
X113294270Y-78627422D02*
X113092483Y-78597850D01*
X112430972Y-78664527D02*
X112361248Y-78683017D01*
X113758517Y-78689486D02*
X113758642Y-78695061D01*
X113649810Y-78221199D02*
X113758517Y-78689486D01*
X112997114Y-78499009D02*
X113022576Y-78587171D01*
X112869388Y-78110533D02*
X112919782Y-78259199D01*
X112842182Y-78058194D02*
X112766889Y-78325563D01*
X112361248Y-78683017D02*
X112360573Y-78671376D01*
X112929429Y-77533864D02*
X112842182Y-78058194D01*
X113054733Y-78591109D02*
X112965004Y-78316059D01*
X113471749Y-78628082D02*
X113461747Y-78651707D01*
X112366914Y-78460382D02*
X112373928Y-78250848D01*
X113565557Y-78349619D02*
X113522661Y-78479154D01*
X113052307Y-76975209D02*
X113068574Y-76896559D01*
X112233255Y-78711061D02*
X112233254Y-78711060D01*
X113522661Y-78479154D02*
X113471749Y-78628082D01*
X112236210Y-78716051D02*
X112233255Y-78711061D01*
X113068574Y-76896559D02*
X113565557Y-78349619D01*
X112373928Y-78250848D02*
X112375118Y-78241861D01*
X113752034Y-78694717D02*
X113672929Y-78682868D01*
X112366914Y-78460382D02*
X112366914Y-78460382D01*
X112500695Y-78643583D02*
X112430972Y-78664527D01*
X112766889Y-78325563D02*
X112690069Y-78594504D01*
X112544484Y-78407389D02*
X112529234Y-78407389D01*
X112375118Y-78241861D02*
X112500695Y-78643583D01*
X112360573Y-78671376D02*
X112366914Y-78460382D01*
X112529234Y-78407389D02*
X112515268Y-78402474D01*
X112663891Y-79275615D02*
X112658567Y-79291318D01*
X112234877Y-79052694D02*
X112233722Y-79042298D01*
X112723008Y-80106112D02*
X112723004Y-80106111D01*
X112234459Y-79033533D02*
X112524877Y-78972911D01*
X112343626Y-78298600D02*
X112330607Y-78686110D01*
X112822916Y-78710274D02*
X112822136Y-78846471D01*
X112671873Y-80115097D02*
X112723008Y-80106112D01*
X112662983Y-80113438D02*
X112671873Y-80115097D01*
X112233254Y-78711060D02*
X112288065Y-78498957D01*
X112676058Y-79252719D02*
X112663891Y-79275615D01*
X112233309Y-78882148D02*
X112233304Y-78882149D01*
X112236189Y-79004106D02*
X112233309Y-78882148D01*
X112529858Y-78938993D02*
X112236189Y-79004106D01*
X112864642Y-78604358D02*
X113769762Y-78736992D01*
X113306815Y-78988036D02*
X113306815Y-78988036D01*
X112857152Y-78669269D02*
X112858677Y-78603103D01*
X113410486Y-78953601D02*
X113410489Y-78953598D01*
X112855627Y-78802596D02*
X112857152Y-78669269D01*
X112822136Y-78846471D02*
X112820646Y-78874130D01*
X112478776Y-78693041D02*
X112768041Y-78616172D01*
X112238490Y-78757705D02*
X112478776Y-78693041D01*
X113763185Y-79054530D02*
X113306815Y-78988036D01*
X112658774Y-80075555D02*
X112662983Y-80113438D01*
X113766017Y-79006666D02*
X113410486Y-78953601D01*
X112233304Y-78759940D02*
X112238490Y-78757705D01*
X112957619Y-78885145D02*
X112855627Y-78869757D01*
X112524877Y-78972911D02*
X112818175Y-78912226D01*
X112233724Y-79042298D02*
X112234459Y-79033533D01*
X112857935Y-78911875D02*
X112861970Y-78902017D01*
X112657952Y-79697904D02*
X112658774Y-80075555D01*
X112857935Y-78922680D02*
X112857935Y-78911875D01*
X112736050Y-79238844D02*
X112713442Y-79234342D01*
X112768886Y-79273749D02*
X112754445Y-79252796D01*
X112858677Y-78603103D02*
X112864642Y-78604358D01*
X112233722Y-79042298D02*
X112233724Y-79042298D01*
X112295538Y-79041061D02*
X112234877Y-79052694D01*
X112658567Y-79291318D02*
X112657952Y-79697904D01*
X112815869Y-78924460D02*
X112582498Y-78976766D01*
X112821056Y-78917675D02*
X112815869Y-78924460D01*
X112773811Y-79284403D02*
X112768886Y-79273749D01*
X112582498Y-78976766D02*
X112295538Y-79041061D01*
X113263599Y-78962919D02*
X113713915Y-79030903D01*
X113768656Y-79038932D02*
X113770676Y-79047301D01*
X113713915Y-79030903D02*
X113768656Y-79038932D01*
X112284037Y-78703778D02*
X112236210Y-78716051D01*
X112330607Y-78686110D02*
X112284037Y-78703778D01*
X113770672Y-78871829D02*
X113766017Y-79006666D01*
X112288065Y-78498957D02*
X112343626Y-78298600D01*
X112820646Y-78874130D02*
X112529858Y-78938993D01*
X112818175Y-78912226D02*
X112821056Y-78917675D01*
X113770676Y-79047301D02*
X113769665Y-79054383D01*
X112692967Y-79237794D02*
X112676058Y-79252719D01*
X112822207Y-78601735D02*
X112822916Y-78710274D01*
X112861970Y-78902017D02*
X113263599Y-78962919D01*
X112233304Y-78882149D02*
X112233304Y-78759940D01*
X112774411Y-79685745D02*
X112773811Y-79284403D01*
X113769665Y-79054383D02*
X113763185Y-79054530D01*
X112754445Y-79252796D02*
X112736050Y-79238844D01*
X112713442Y-79234342D02*
X112692967Y-79237794D01*
X113769762Y-78736992D02*
X113770672Y-78871829D01*
X113410489Y-78953598D02*
X112957619Y-78885145D01*
X113306815Y-78988036D02*
X112857935Y-78922680D01*
X112768041Y-78616172D02*
X112822207Y-78601735D01*
X112855627Y-78869757D02*
X112855627Y-78802596D01*
X113011210Y-79677901D02*
X113015855Y-80106008D01*
X112281995Y-79709266D02*
X112281130Y-79238305D01*
X113031547Y-79221584D02*
X113016233Y-79243567D01*
X112493962Y-80138924D02*
X112500356Y-80142724D01*
X112500356Y-80142724D02*
X112546775Y-80133295D01*
X112723004Y-80106111D02*
X112770856Y-80092218D01*
X112546775Y-80133295D02*
X112546775Y-80133319D01*
X112356075Y-79313697D02*
X112340010Y-79333631D01*
X112402882Y-79311430D02*
X112380663Y-79307550D01*
X112432146Y-79345457D02*
X112402882Y-79311430D01*
X112278403Y-80183498D02*
X112278390Y-80183499D01*
X113016233Y-79243567D02*
X113011210Y-79254439D01*
X112818101Y-80230064D02*
X112792499Y-80233914D01*
X112437901Y-79746536D02*
X112437291Y-79358160D01*
X112820716Y-78968694D02*
X112819811Y-79599769D01*
X112759345Y-79138643D02*
X112764722Y-79130710D01*
X113053446Y-79205229D02*
X113031547Y-79221584D01*
X112489672Y-79724616D02*
X112489042Y-80134889D01*
X112521537Y-79270491D02*
X112494913Y-79303148D01*
X112562406Y-79270691D02*
X112521537Y-79270491D01*
X112546775Y-80133319D02*
X112595754Y-80120516D01*
X112386688Y-80158074D02*
X112386691Y-80158075D01*
X112435881Y-80141279D02*
X112437901Y-79746536D01*
X112233869Y-79099836D02*
X112333634Y-79076913D01*
X112233511Y-80317937D02*
X112231706Y-79709347D01*
X112257796Y-80182463D02*
X112278403Y-80183498D01*
X112252552Y-79222743D02*
X112252452Y-79703550D01*
X112579626Y-79282816D02*
X112562406Y-79270691D01*
X112330194Y-79363922D02*
X112327824Y-79767343D01*
X112258550Y-79214165D02*
X112252552Y-79222743D01*
X112595754Y-80120516D02*
X112599784Y-79716791D01*
X112437291Y-79358160D02*
X112432146Y-79345457D01*
X112792499Y-80233914D02*
X112501835Y-80277744D01*
X112428304Y-80148460D02*
X112435881Y-80141279D01*
X113079673Y-79195716D02*
X113053446Y-79205229D01*
X112770856Y-80092218D02*
X112774411Y-79685745D01*
X113165717Y-80129168D02*
X113165720Y-80129167D01*
X112231699Y-79709351D02*
X112233869Y-79099836D01*
X112518250Y-79190231D02*
X112759345Y-79138643D01*
X112489042Y-80134889D02*
X112493962Y-80138924D01*
X112343495Y-80165774D02*
X112386688Y-80158074D01*
X112593150Y-79302842D02*
X112579626Y-79282816D01*
X112494913Y-79303148D02*
X112489672Y-79724616D01*
X112599784Y-79716791D02*
X112599783Y-79316672D01*
X112278390Y-80183499D02*
X112281995Y-79709266D01*
X112333859Y-80164625D02*
X112343495Y-80165774D01*
X112327824Y-79767343D02*
X112329265Y-80129128D01*
X112386691Y-80158075D02*
X112428304Y-80148460D01*
X112819811Y-79599769D02*
X112818101Y-80230064D01*
X113085002Y-80119833D02*
X113155265Y-80129993D01*
X113011210Y-79254439D02*
X113011210Y-79677901D01*
X112599783Y-79316672D02*
X112593150Y-79302842D01*
X112329265Y-80129128D02*
X112333859Y-80164625D01*
X112501835Y-80277744D02*
X112233511Y-80317937D01*
X112340010Y-79333631D02*
X112330194Y-79363922D01*
X112764722Y-79130710D02*
X112754779Y-79114019D01*
X112380663Y-79307550D02*
X112356075Y-79313697D01*
X112252452Y-79703550D02*
X112257796Y-80182463D01*
X112281130Y-79238305D02*
X112518250Y-79190231D01*
X113015855Y-80106008D02*
X113085002Y-80119833D01*
X112333634Y-79076913D02*
X112820716Y-78968694D01*
X112754779Y-79114019D02*
X112258550Y-79214165D01*
X112231706Y-79709347D02*
X112231699Y-79709351D01*
X113155265Y-80129993D02*
X113165717Y-80129168D01*
X113631244Y-80156751D02*
X113633402Y-80213312D01*
X113560597Y-79262326D02*
X113533642Y-79249492D01*
X113593153Y-79759213D02*
X113591083Y-79320129D01*
X113659874Y-80219882D02*
X113664649Y-80017433D01*
X113633141Y-79219425D02*
X113631616Y-79715945D01*
X113533642Y-79249492D02*
X113500256Y-79248456D01*
X113023506Y-79135442D02*
X113322370Y-79177222D01*
X113500256Y-79248456D02*
X113460964Y-79262756D01*
X113590238Y-80191336D02*
X113593153Y-79759213D01*
X113384415Y-79327221D02*
X113380653Y-79277696D01*
X113431689Y-80178552D02*
X113500260Y-80191488D01*
X113427249Y-79740163D02*
X113431689Y-80178552D01*
X113591083Y-79320129D02*
X113580089Y-79286144D01*
X113015039Y-79113489D02*
X113014524Y-79126365D01*
X113771061Y-80370216D02*
X113565540Y-80339978D01*
X113581767Y-80199834D02*
X113590238Y-80191336D01*
X113380653Y-79277696D02*
X113372977Y-79260972D01*
X113133943Y-79201503D02*
X113107968Y-79194258D01*
X113176071Y-80082811D02*
X113177826Y-79704117D01*
X113580089Y-79286144D02*
X113560597Y-79262326D01*
X113165720Y-80129167D02*
X113172647Y-80123746D01*
X113777210Y-80371446D02*
X113771061Y-80370216D01*
X113380101Y-80162675D02*
X113380100Y-80162675D01*
X113023890Y-79105122D02*
X113015039Y-79113489D01*
X113234152Y-80148636D02*
X113372406Y-80168332D01*
X113581768Y-80199835D02*
X113581767Y-80199834D01*
X113664649Y-80017433D02*
X113666134Y-79510088D01*
X113219807Y-79712538D02*
X113224356Y-80142920D01*
X113434507Y-79292174D02*
X113427249Y-79305793D01*
X113565540Y-80339978D02*
X113565540Y-80339979D01*
X113344263Y-79145860D02*
X113023890Y-79105122D01*
X113570289Y-80201510D02*
X113581768Y-80199835D01*
X113500260Y-80191488D02*
X113570289Y-80201510D01*
X113107968Y-79194258D02*
X113079673Y-79195716D01*
X113154178Y-79217024D02*
X113133943Y-79201503D01*
X113168364Y-79240470D02*
X113154178Y-79217024D01*
X113649326Y-80225798D02*
X113659869Y-80219880D01*
X113427249Y-79305793D02*
X113427249Y-79740163D01*
X113226536Y-79272488D02*
X113219808Y-79286708D01*
X113637909Y-80224190D02*
X113649326Y-80225798D01*
X113624116Y-79218010D02*
X113633141Y-79219425D01*
X113663249Y-79193814D02*
X113344263Y-79145860D01*
X113633402Y-80213312D02*
X113637909Y-80224190D01*
X113385758Y-79727533D02*
X113384415Y-79327221D01*
X113176191Y-79271491D02*
X113168364Y-79240470D01*
X113172647Y-80123746D02*
X113176071Y-80082811D01*
X113177826Y-79704117D02*
X113176191Y-79271491D01*
X113290348Y-79225375D02*
X113251642Y-79241394D01*
X113219808Y-79286708D02*
X113219807Y-79712538D01*
X113372406Y-80168332D02*
X113380101Y-80162675D01*
X113666134Y-79510088D02*
X113663249Y-79193814D01*
X113380100Y-80162675D02*
X113385758Y-80157017D01*
X113224356Y-80142920D02*
X113234152Y-80148636D01*
X113338365Y-79230065D02*
X113290348Y-79225375D01*
X113251642Y-79241394D02*
X113226536Y-79272488D01*
X113357879Y-79242470D02*
X113338365Y-79230065D01*
X113372977Y-79260972D02*
X113357879Y-79242470D01*
X113776245Y-79952389D02*
X113777210Y-80371446D01*
X113385758Y-80157017D02*
X113385758Y-79727533D01*
X113631616Y-79715945D02*
X113631244Y-80156751D01*
X113659869Y-80219880D02*
X113659874Y-80219882D01*
X113014524Y-79126365D02*
X113023506Y-79135442D01*
X113322370Y-79177222D02*
X113624116Y-79218010D01*
X113460964Y-79262756D02*
X113434507Y-79292174D01*
X118198205Y-81411538D02*
X118198205Y-81411540D01*
X118155385Y-82085191D02*
X118155385Y-82085194D01*
X118146767Y-81396513D02*
X118106230Y-81371176D01*
X118345312Y-81109402D02*
X118484182Y-81108177D01*
X112879491Y-81348242D02*
X112859668Y-81356058D01*
X118484138Y-82091032D02*
X118332591Y-82089997D01*
X113033193Y-80972847D02*
X112978919Y-81071513D01*
X118484182Y-81261720D02*
X118484182Y-81415263D01*
X118065860Y-81194238D02*
X118092042Y-81152619D01*
X118198205Y-81411540D02*
X118146767Y-81396513D01*
X115075955Y-81892412D02*
X115165440Y-81567998D01*
X118106230Y-81371176D02*
X118077119Y-81335986D01*
X115256679Y-81239619D02*
X115344632Y-81561152D01*
X118484138Y-81920271D02*
X118484138Y-82091032D01*
X113772340Y-79104364D02*
X113776245Y-79952389D01*
X113187535Y-79018292D02*
X113772340Y-79104364D01*
X112864273Y-78971066D02*
X113187535Y-79018292D01*
X112857934Y-78969901D02*
X112864273Y-78971066D01*
X118205722Y-81112251D02*
X118345312Y-81109402D01*
X112857934Y-79602136D02*
X112857934Y-78969901D01*
X112857935Y-80815690D02*
X112857935Y-80276295D01*
X113784554Y-80633921D02*
X113755145Y-80633921D01*
X112899414Y-81338749D02*
X112879491Y-81348242D01*
X112857934Y-80234371D02*
X112857934Y-79602136D01*
X112921895Y-80244133D02*
X112857934Y-80234371D01*
X118484182Y-81108177D02*
X118484182Y-81261720D01*
X113565540Y-80339979D02*
X112921895Y-80244133D01*
X112907316Y-81304636D02*
X112899414Y-81338749D01*
X113755145Y-80633921D02*
X113616363Y-80642572D01*
X118059957Y-81291398D02*
X118057617Y-81252942D01*
X118077119Y-81335986D02*
X118059957Y-81291398D01*
X118352057Y-81415263D02*
X118198205Y-81411538D01*
X115165440Y-81567998D02*
X115256679Y-81239619D01*
X118484138Y-81749510D02*
X118484138Y-81920271D01*
X118003275Y-81858630D02*
X118028917Y-81812643D01*
X112936901Y-81182175D02*
X112907316Y-81304636D01*
X113369306Y-80702082D02*
X113267781Y-80750794D01*
X118484182Y-81415263D02*
X118352057Y-81415263D01*
X118092042Y-81152619D02*
X118116493Y-81133976D01*
X118057617Y-81252942D02*
X118065860Y-81194238D01*
X113099546Y-80886374D02*
X113033193Y-80972847D01*
X113267781Y-80750794D02*
X113177801Y-80812290D01*
X113616363Y-80642572D02*
X113482201Y-80666351D01*
X118148952Y-81121532D02*
X118205722Y-81112251D01*
X118114536Y-81765149D02*
X118170662Y-81755648D01*
X118028917Y-81812643D02*
X118072713Y-81780599D01*
X112864274Y-80277575D02*
X113668109Y-80394991D01*
X115344632Y-81561152D02*
X115431834Y-81889532D01*
X118072713Y-81780599D02*
X118114536Y-81765149D01*
X118374079Y-81749522D02*
X118484138Y-81749510D01*
X115431834Y-81889532D02*
X115254396Y-81892412D01*
X118116493Y-81133976D02*
X118148952Y-81121532D01*
X118170662Y-81755648D02*
X118374079Y-81749522D01*
X113783954Y-80522836D02*
X113784554Y-80633921D01*
X115254396Y-81892412D02*
X115075955Y-81892412D01*
X118332591Y-82089997D02*
X118155385Y-82085191D01*
X112857938Y-80815678D02*
X112857935Y-80815690D01*
X112859668Y-81356058D02*
X112857938Y-80815678D01*
X112978919Y-81071513D02*
X112936901Y-81182175D01*
X113177801Y-80812290D02*
X113099546Y-80886374D01*
X113482201Y-80666351D02*
X113369306Y-80702082D01*
X113783354Y-80411751D02*
X113783954Y-80522836D01*
X112857935Y-80276295D02*
X112864274Y-80277575D01*
X113668109Y-80394991D02*
X113783354Y-80411751D01*
X114055458Y-81755277D02*
X114030447Y-81886101D01*
X113973685Y-81212820D02*
X114014946Y-81298486D01*
X118016719Y-82010930D02*
X117998889Y-81965398D01*
X113476015Y-81964179D02*
X113454644Y-81910720D01*
X118048341Y-82045764D02*
X118016719Y-82010930D01*
X118094362Y-82070364D02*
X118048341Y-82045764D01*
X118155385Y-82085194D02*
X118094362Y-82070364D01*
X113454644Y-81910720D02*
X113439755Y-81850538D01*
X112230140Y-80824080D02*
X112231530Y-80358478D01*
X113248557Y-82441437D02*
X113327302Y-82485094D01*
X112889739Y-81807137D02*
X112891054Y-81815781D01*
X113786411Y-82565392D02*
X113786435Y-82565390D01*
X113434092Y-81361141D02*
X113443411Y-81318814D01*
X113443411Y-81318814D02*
X113479492Y-81227661D01*
X113925013Y-82056753D02*
X113886157Y-82082000D01*
X113987401Y-81985889D02*
X113958706Y-82024804D01*
X113738265Y-82117676D02*
X113677036Y-82115351D01*
X114030447Y-81886101D02*
X113987401Y-81985889D01*
X112891054Y-81815781D02*
X112894874Y-81844016D01*
X112528645Y-82523959D02*
X112226621Y-82523959D01*
X113439755Y-81850538D02*
X113432714Y-81812323D01*
X112830668Y-82523959D02*
X112528645Y-82523959D01*
X112231530Y-80358478D02*
X112527195Y-80314104D01*
X113793986Y-82112962D02*
X113738265Y-82117676D01*
X113598902Y-82561058D02*
X113786411Y-82565392D01*
X113606713Y-81109858D02*
X113695230Y-81085636D01*
X112921287Y-81973612D02*
X112963080Y-82097051D01*
X113624668Y-82103739D02*
X113578923Y-82082078D01*
X114058982Y-81534007D02*
X114055458Y-81755277D01*
X113537561Y-82049609D02*
X113503708Y-82010585D01*
X113160724Y-81807137D02*
X112889739Y-81807137D01*
X113534363Y-81157605D02*
X113606713Y-81109858D01*
X113479492Y-81227661D02*
X113534363Y-81157605D01*
X113502420Y-82544886D02*
X113598902Y-82561058D01*
X113016689Y-82201542D02*
X113083122Y-82295218D01*
X113958706Y-82024804D02*
X113925013Y-82056753D01*
X113809803Y-81089921D02*
X113869609Y-81112610D01*
X113430482Y-81382461D02*
X113434092Y-81361141D01*
X113578923Y-82082078D02*
X113537561Y-82049609D01*
X113755922Y-81084027D02*
X113809803Y-81089921D01*
X114014946Y-81298486D02*
X114043301Y-81405333D01*
X113869609Y-81112610D02*
X113919285Y-81147691D01*
X113919285Y-81147691D02*
X113973685Y-81212820D01*
X113431709Y-81807137D02*
X113160724Y-81807137D01*
X112829878Y-81398039D02*
X112830668Y-82523959D01*
X113161133Y-82374186D02*
X113248557Y-82441437D01*
X113841975Y-82100809D02*
X113793986Y-82112962D01*
X113083122Y-82295218D02*
X113161133Y-82374186D01*
X112527195Y-80314104D02*
X112825973Y-80270924D01*
X112227685Y-81906820D02*
X112230140Y-80824080D01*
X112963080Y-82097051D02*
X113016689Y-82201542D01*
X113695230Y-81085636D02*
X113755922Y-81084027D01*
X112894874Y-81844016D02*
X112921287Y-81973612D01*
X117995702Y-81911090D02*
X118003275Y-81858630D01*
X117998889Y-81965398D02*
X117995702Y-81911090D01*
X112226621Y-82523959D02*
X112227685Y-81906820D01*
X112825973Y-80270924D02*
X112829878Y-81398039D01*
X113432714Y-81812323D02*
X113431709Y-81807137D01*
X113677036Y-82115351D02*
X113624668Y-82103739D01*
X113886157Y-82082000D02*
X113841975Y-82100809D01*
X114043301Y-81405333D02*
X114058982Y-81534007D01*
X113411905Y-82519571D02*
X113502420Y-82544886D01*
X113503708Y-82010585D02*
X113476015Y-81964179D01*
X113327302Y-82485094D02*
X113411905Y-82519571D01*
X112186511Y-80368198D02*
X112203484Y-80366913D01*
X112857881Y-81970138D02*
X112857881Y-81388658D01*
X112155738Y-80355839D02*
X112165404Y-80366903D01*
X112172171Y-79016487D02*
X112137131Y-79028975D01*
X112137131Y-79028975D02*
X112135195Y-79040083D01*
X112875206Y-81380086D02*
X112895054Y-81371513D01*
X112190034Y-80322721D02*
X112166349Y-80329268D01*
X112857881Y-81388658D02*
X112875206Y-81380086D01*
X112857881Y-82551618D02*
X112857881Y-81970138D01*
X112528183Y-82551618D02*
X112857881Y-82551618D01*
X112199734Y-82020913D02*
X112198484Y-82551618D01*
X112496030Y-78435068D02*
X112516774Y-78435068D01*
X112203288Y-79961327D02*
X112203287Y-80320151D01*
X113063091Y-76828477D02*
X113050421Y-76829301D01*
X113045742Y-76839913D02*
X112759668Y-77639438D01*
X112204823Y-79354937D02*
X112203288Y-79961327D01*
X112759668Y-77639438D02*
X112475286Y-78433063D01*
X112206358Y-79107371D02*
X112204823Y-79354937D01*
X112199850Y-79039895D02*
X112204989Y-79040022D01*
X112141801Y-79048406D02*
X112199850Y-79039895D01*
X112135195Y-79040083D02*
X112141801Y-79048406D01*
X112207532Y-78887855D02*
X112205167Y-79007881D01*
X112168304Y-78773719D02*
X112188896Y-78772884D01*
X112188896Y-78772884D02*
X112205627Y-78769279D01*
X112207448Y-78706997D02*
X112206748Y-78721850D01*
X112278633Y-78427042D02*
X112207448Y-78706997D01*
X113074937Y-76829707D02*
X113063091Y-76828477D01*
X112159491Y-79076987D02*
X112153709Y-79094846D01*
X112516574Y-78519774D02*
X112515439Y-78602174D01*
X112204440Y-79060421D02*
X112184138Y-79066737D01*
X112158346Y-78765954D02*
X112168304Y-78773719D01*
X112206748Y-78721850D02*
X112184856Y-78729309D01*
X113050421Y-76829301D02*
X113045742Y-76839913D01*
X112202234Y-80928563D02*
X112199734Y-82020913D01*
X113327588Y-77566707D02*
X113074937Y-76829707D01*
X112203484Y-80366913D02*
X112202234Y-80928563D01*
X112156508Y-80339359D02*
X112155738Y-80355839D01*
X112198485Y-79109126D02*
X112206358Y-79107371D01*
X112205155Y-79049402D02*
X112204440Y-79060421D01*
X112205167Y-79007881D02*
X112172171Y-79016487D01*
X112349670Y-78161270D02*
X112278633Y-78427042D01*
X112154888Y-78754041D02*
X112158346Y-78765954D01*
X112205627Y-78769279D02*
X112207532Y-78887855D01*
X113429407Y-81387647D02*
X113430482Y-81382461D01*
X113161978Y-81387647D02*
X113429407Y-81387647D01*
X112184856Y-78729309D02*
X112160938Y-78740390D01*
X112375726Y-78157320D02*
X112349670Y-78161270D01*
X113581568Y-78303697D02*
X113327588Y-77566707D01*
X112515439Y-78602174D02*
X112445466Y-78378935D01*
X112894549Y-81387647D02*
X113161978Y-81387647D01*
X112896065Y-81379580D02*
X112894549Y-81387647D01*
X112165809Y-79110676D02*
X112198485Y-79109126D01*
X112445466Y-78378935D02*
X112375726Y-78157320D01*
X112198484Y-82551618D02*
X112528183Y-82551618D01*
X112165404Y-80366903D02*
X112186511Y-80368198D01*
X112204989Y-79040022D02*
X112205155Y-79049402D01*
X112184138Y-79066737D02*
X112159491Y-79076987D01*
X112160938Y-78740390D02*
X112154888Y-78754041D01*
X112153709Y-79094846D02*
X112165809Y-79110676D01*
X112166349Y-80329268D02*
X112156508Y-80339359D01*
X112516774Y-78435068D02*
X112516574Y-78519774D01*
X112203287Y-80320151D02*
X112190034Y-80322721D01*
X112475286Y-78433063D02*
X112496030Y-78435068D01*
X112895054Y-81371513D02*
X112896065Y-81379580D01*
X113834809Y-79100487D02*
X113839084Y-79087917D01*
X113813053Y-78743179D02*
X113833816Y-78738589D01*
X113811275Y-80271434D02*
X113809025Y-79637604D01*
X113834566Y-78710842D02*
X113809982Y-78702882D01*
X113867407Y-79030953D02*
X113860002Y-79022784D01*
X113853496Y-79050725D02*
X113867139Y-79042171D01*
X115985383Y-81740520D02*
X115967324Y-81797326D01*
X113809025Y-79637604D02*
X113812285Y-79109309D01*
X113817584Y-80377156D02*
X113811275Y-80271434D01*
X113812682Y-80525334D02*
X113812082Y-80415567D01*
X114508804Y-81082850D02*
X114447262Y-80981108D01*
X114965732Y-80682418D02*
X114794137Y-81193998D01*
X115744692Y-81292569D02*
X115539928Y-80682349D01*
X115252830Y-80682383D02*
X114965732Y-80682418D01*
X116043257Y-81638066D02*
X116010694Y-81687433D01*
X113822501Y-80635660D02*
X113813282Y-80635100D01*
X115539928Y-80682349D02*
X115252830Y-80682383D01*
X113632366Y-78151211D02*
X113581568Y-78303697D01*
X113634255Y-78145836D02*
X113632366Y-78151211D01*
X113799330Y-79044628D02*
X113805790Y-79044646D01*
X113818919Y-80414202D02*
X113831354Y-80400539D01*
X114185672Y-80742018D02*
X114072015Y-80688476D01*
X114290821Y-80813229D02*
X114185672Y-80742018D01*
X116083067Y-81592423D02*
X116043257Y-81638066D01*
X113799452Y-79012454D02*
X113798857Y-78877126D01*
X113659779Y-78143932D02*
X113645600Y-78144182D01*
X113950681Y-80652919D02*
X113822501Y-80635660D01*
X114447262Y-80981108D02*
X114371836Y-80889699D01*
X114558469Y-81198003D02*
X114508804Y-81082850D01*
X113724804Y-78421506D02*
X113659779Y-78143932D01*
X116130125Y-81550505D02*
X116083067Y-81592423D01*
X113645600Y-78144182D02*
X113634255Y-78145836D01*
X113860002Y-79022784D02*
X113827111Y-79016474D01*
X113789761Y-78699282D02*
X113724804Y-78421506D01*
X113826402Y-80382076D02*
X113817584Y-80377156D01*
X113809982Y-78702882D02*
X113789761Y-78699282D01*
X113800659Y-79059094D02*
X113798299Y-79051349D01*
X113798299Y-79051349D02*
X113799330Y-79044628D01*
X113839892Y-78724561D02*
X113834566Y-78710842D01*
X113812082Y-80415567D02*
X113818919Y-80414202D01*
X114617540Y-81455643D02*
X114595100Y-81323342D01*
X116245973Y-81477855D02*
X116130125Y-81550505D01*
X113833816Y-78738589D02*
X113839892Y-78724561D01*
X115950118Y-81903604D02*
X115744692Y-81292569D01*
X113798262Y-78741799D02*
X113813053Y-78743179D01*
X114072015Y-80688476D02*
X113950681Y-80652919D01*
X113867139Y-79042171D02*
X113867407Y-79030953D01*
X114622025Y-81705063D02*
X114623945Y-81652698D01*
X114595100Y-81323342D02*
X114558469Y-81198003D01*
X113834539Y-79071859D02*
X113819481Y-79063085D01*
X113812285Y-79109309D02*
X113834809Y-79100487D01*
X113831354Y-80400539D02*
X113826402Y-80382076D01*
X113827111Y-79016474D02*
X113799452Y-79012454D01*
X114794137Y-81193998D02*
X114622025Y-81705063D01*
X113798857Y-78877126D02*
X113798262Y-78741799D01*
X113805790Y-79044646D02*
X113853496Y-79050725D01*
X113819481Y-79063085D02*
X113800659Y-79059094D01*
X113839084Y-79087917D02*
X113834539Y-79071859D01*
X114371836Y-80889699D02*
X114290821Y-80813229D01*
X114623945Y-81652698D02*
X114617540Y-81455643D01*
X115956519Y-81857847D02*
X115950118Y-81903604D01*
X116010694Y-81687433D02*
X115985383Y-81740520D01*
X115967324Y-81797326D02*
X115956519Y-81857847D01*
X113813282Y-80635100D02*
X113812682Y-80525334D01*
X116875320Y-81072585D02*
X116909502Y-81092094D01*
X116827747Y-81061042D02*
X116875320Y-81072585D01*
X116610503Y-80639175D02*
X116454485Y-80669412D01*
X117009886Y-80664459D02*
X116864969Y-80639152D01*
X117241885Y-80761190D02*
X117135256Y-80705027D01*
X116931214Y-81119913D02*
X116938728Y-81161785D01*
X116864969Y-80639152D02*
X116736864Y-80634866D01*
X116909502Y-81092094D02*
X116931214Y-81119913D01*
X116687517Y-81063118D02*
X116765860Y-81057122D01*
X116582327Y-81115575D02*
X116624108Y-81085123D01*
X116551935Y-81157157D02*
X116582327Y-81115575D01*
X116016148Y-81124384D02*
X116000588Y-81202679D01*
X116039833Y-81044970D02*
X116016148Y-81124384D01*
X117330577Y-80833283D02*
X117241885Y-80761190D01*
X116324722Y-80720567D02*
X116259208Y-80760015D01*
X116765860Y-81057122D02*
X116827747Y-81061042D01*
X116537353Y-81196916D02*
X116551935Y-81157157D01*
X116000588Y-81202679D02*
X115999048Y-81214779D01*
X117135256Y-80705027D02*
X117009886Y-80664459D01*
X116624108Y-81085123D02*
X116687517Y-81063118D01*
X117391308Y-80906675D02*
X117330577Y-80833283D01*
X116533279Y-81214779D02*
X116537353Y-81196916D01*
X115999048Y-81214779D02*
X116266164Y-81214779D01*
X116102583Y-80919752D02*
X116039833Y-81044970D01*
X116147544Y-80860140D02*
X116102583Y-80919752D01*
X116259208Y-80760015D02*
X116199951Y-80806717D01*
X117436267Y-80989351D02*
X117391308Y-80906675D01*
X116383972Y-81420525D02*
X116245973Y-81477855D01*
X116199951Y-80806717D02*
X116147544Y-80860140D01*
X116591840Y-81359972D02*
X116383972Y-81420525D01*
X116931066Y-81203938D02*
X116908667Y-81235282D01*
X116823466Y-81289146D02*
X116757793Y-81313484D01*
X116266164Y-81214779D02*
X116533279Y-81214779D01*
X116757793Y-81313484D02*
X116591840Y-81359972D01*
X116873279Y-81263382D02*
X116823466Y-81289146D01*
X116454485Y-80669412D02*
X116324722Y-80720567D01*
X116908667Y-81235282D02*
X116873279Y-81263382D01*
X116736864Y-80634866D02*
X116610503Y-80639175D01*
X116938728Y-81161785D02*
X116931066Y-81203938D01*
X116977842Y-81958677D02*
X116969459Y-81987523D01*
X116650426Y-81864492D02*
X116826938Y-81815180D01*
X117469302Y-81952338D02*
X117224226Y-81952338D01*
X117171521Y-81701073D02*
X117260888Y-81650345D01*
X116498297Y-82047232D02*
X116491257Y-82016876D01*
X116535854Y-82094896D02*
X116512949Y-82072968D01*
X117224226Y-81952338D02*
X116979149Y-81952338D01*
X117470796Y-81926178D02*
X117469302Y-81952338D01*
X117661228Y-81584401D02*
X117599014Y-81631715D01*
X117537609Y-81057191D02*
X117533095Y-81139975D01*
X117906098Y-80712371D02*
X117829028Y-80733998D01*
X118575783Y-80682982D02*
X118126270Y-80685148D01*
X117812178Y-82463098D02*
X117897145Y-82487210D01*
X117897145Y-82487210D02*
X117992109Y-82504340D01*
X117993218Y-80696339D02*
X117906098Y-80712371D01*
X117755133Y-81543433D02*
X117733000Y-81551000D01*
X118126270Y-80685148D02*
X117993218Y-80696339D01*
X117465500Y-81081419D02*
X117436267Y-80989351D01*
X117479053Y-81182985D02*
X117465500Y-81081419D01*
X117449326Y-81413560D02*
X117475058Y-81304665D01*
X116627819Y-82133996D02*
X116567650Y-82113825D01*
X117547702Y-81691672D02*
X117508636Y-81763002D01*
X117569806Y-81324092D02*
X117625210Y-81419295D01*
X117625210Y-81419295D02*
X117675790Y-81475919D01*
X116506190Y-81955356D02*
X116528599Y-81927952D01*
X118591878Y-82517042D02*
X119048864Y-82517042D01*
X117731847Y-81526146D02*
X117755133Y-81543433D01*
X117533095Y-81139975D02*
X117537684Y-81220533D01*
X117558623Y-80975589D02*
X117537609Y-81057191D01*
X117401916Y-81509501D02*
X117449326Y-81413560D01*
X116491257Y-82016876D02*
X116493470Y-81985443D01*
X118098053Y-82514712D02*
X118591878Y-82517042D01*
X117992109Y-82504340D02*
X118098053Y-82514712D01*
X117475058Y-81304665D02*
X117479053Y-81182985D01*
X117482979Y-81842715D02*
X117470796Y-81926178D01*
X116705931Y-82142781D02*
X116627819Y-82133996D01*
X116796876Y-82134820D02*
X116705931Y-82142781D01*
X117736223Y-82431776D02*
X117812178Y-82463098D01*
X117035043Y-81756567D02*
X117171521Y-81701073D01*
X117332887Y-81592323D02*
X117401916Y-81509501D01*
X117599014Y-81631715D02*
X117547702Y-81691672D01*
X117640345Y-80845637D02*
X117592616Y-80905472D01*
X116559881Y-81904568D02*
X116650426Y-81864492D01*
X119048864Y-80682172D02*
X118575783Y-80682982D01*
X116512949Y-82072968D02*
X116498297Y-82047232D01*
X117675790Y-81475919D02*
X117731847Y-81526146D01*
X116933138Y-82054541D02*
X116874111Y-82104523D01*
X117761391Y-80761431D02*
X117702569Y-80794877D01*
X117592616Y-80905472D02*
X117558623Y-80975589D01*
X116979149Y-81952338D02*
X116977842Y-81958677D01*
X117508636Y-81763002D02*
X117482979Y-81842715D01*
X119048864Y-82517042D02*
X119048864Y-81599607D01*
X116493470Y-81985443D02*
X116506190Y-81955356D01*
X117829028Y-80733998D02*
X117761391Y-80761431D01*
X117260888Y-81650345D02*
X117332887Y-81592323D01*
X116826938Y-81815180D02*
X117035043Y-81756567D01*
X116528599Y-81927952D02*
X116559881Y-81904568D01*
X116567650Y-82113825D02*
X116535854Y-82094896D01*
X116969459Y-81987523D02*
X116933138Y-82054541D01*
X117537684Y-81220533D02*
X117569806Y-81324092D01*
X117702569Y-80794877D02*
X117640345Y-80845637D01*
X116874111Y-82104523D02*
X116796876Y-82134820D01*
X119048864Y-81599607D02*
X119048864Y-80682172D01*
X117733000Y-81551000D02*
X117661228Y-81584401D01*
D10*
X137670571Y-76849857D02*
X137456285Y-76921285D01*
X137384857Y-76992714D01*
X137313428Y-77135571D01*
X137313428Y-77349857D01*
X137384857Y-77492714D01*
X137456285Y-77564142D01*
X137599142Y-77635571D01*
X138170571Y-77635571D01*
X138170571Y-76135571D01*
X137670571Y-76135571D01*
X137527714Y-76207000D01*
X137456285Y-76278428D01*
X137384857Y-76421285D01*
X137384857Y-76564142D01*
X137456285Y-76707000D01*
X137527714Y-76778428D01*
X137670571Y-76849857D01*
X138170571Y-76849857D01*
X136099142Y-77564142D02*
X136242000Y-77635571D01*
X136527714Y-77635571D01*
X136670571Y-77564142D01*
X136742000Y-77421285D01*
X136742000Y-76849857D01*
X136670571Y-76707000D01*
X136527714Y-76635571D01*
X136242000Y-76635571D01*
X136099142Y-76707000D01*
X136027714Y-76849857D01*
X136027714Y-76992714D01*
X136742000Y-77135571D01*
X135384857Y-77635571D02*
X135384857Y-76635571D01*
X135384857Y-76921285D02*
X135313428Y-76778428D01*
X135242000Y-76707000D01*
X135099142Y-76635571D01*
X134956285Y-76635571D01*
X134456285Y-77635571D02*
X134456285Y-76135571D01*
X134313428Y-77064142D02*
X133884857Y-77635571D01*
X133884857Y-76635571D02*
X134456285Y-77207000D01*
X132670571Y-77564142D02*
X132813428Y-77635571D01*
X133099142Y-77635571D01*
X133242000Y-77564142D01*
X133313428Y-77421285D01*
X133313428Y-76849857D01*
X133242000Y-76707000D01*
X133099142Y-76635571D01*
X132813428Y-76635571D01*
X132670571Y-76707000D01*
X132599142Y-76849857D01*
X132599142Y-76992714D01*
X133313428Y-77135571D01*
X131742000Y-77635571D02*
X131884857Y-77564142D01*
X131956285Y-77421285D01*
X131956285Y-76135571D01*
X130599142Y-77564142D02*
X130742000Y-77635571D01*
X131027714Y-77635571D01*
X131170571Y-77564142D01*
X131242000Y-77421285D01*
X131242000Y-76849857D01*
X131170571Y-76707000D01*
X131027714Y-76635571D01*
X130742000Y-76635571D01*
X130599142Y-76707000D01*
X130527714Y-76849857D01*
X130527714Y-76992714D01*
X131242000Y-77135571D01*
X130027714Y-76635571D02*
X129670571Y-77635571D01*
X129313428Y-76635571D02*
X129670571Y-77635571D01*
X129813428Y-77992714D01*
X129884857Y-78064142D01*
X130027714Y-78135571D01*
X127670571Y-77207000D02*
X126956285Y-77207000D01*
X127813428Y-77635571D02*
X127313428Y-76135571D01*
X126813428Y-77635571D01*
X125670571Y-76635571D02*
X125670571Y-77635571D01*
X126313428Y-76635571D02*
X126313428Y-77421285D01*
X126242000Y-77564142D01*
X126099142Y-77635571D01*
X125884857Y-77635571D01*
X125742000Y-77564142D01*
X125670571Y-77492714D01*
X125170571Y-76635571D02*
X124599142Y-76635571D01*
X124956285Y-76135571D02*
X124956285Y-77421285D01*
X124884857Y-77564142D01*
X124742000Y-77635571D01*
X124599142Y-77635571D01*
X123884857Y-77635571D02*
X124027714Y-77564142D01*
X124099142Y-77492714D01*
X124170571Y-77349857D01*
X124170571Y-76921285D01*
X124099142Y-76778428D01*
X124027714Y-76707000D01*
X123884857Y-76635571D01*
X123670571Y-76635571D01*
X123527714Y-76707000D01*
X123456285Y-76778428D01*
X123384857Y-76921285D01*
X123384857Y-77349857D01*
X123456285Y-77492714D01*
X123527714Y-77564142D01*
X123670571Y-77635571D01*
X123884857Y-77635571D01*
X122742000Y-76635571D02*
X122742000Y-77635571D01*
X122742000Y-76778428D02*
X122670571Y-76707000D01*
X122527714Y-76635571D01*
X122313428Y-76635571D01*
X122170571Y-76707000D01*
X122099142Y-76849857D01*
X122099142Y-77635571D01*
X121170571Y-77635571D02*
X121313428Y-77564142D01*
X121384857Y-77492714D01*
X121456285Y-77349857D01*
X121456285Y-76921285D01*
X121384857Y-76778428D01*
X121313428Y-76707000D01*
X121170571Y-76635571D01*
X120956285Y-76635571D01*
X120813428Y-76707000D01*
X120742000Y-76778428D01*
X120670571Y-76921285D01*
X120670571Y-77349857D01*
X120742000Y-77492714D01*
X120813428Y-77564142D01*
X120956285Y-77635571D01*
X121170571Y-77635571D01*
X120027714Y-77635571D02*
X120027714Y-76635571D01*
X120027714Y-76778428D02*
X119956285Y-76707000D01*
X119813428Y-76635571D01*
X119599142Y-76635571D01*
X119456285Y-76707000D01*
X119384857Y-76849857D01*
X119384857Y-77635571D01*
X119384857Y-76849857D02*
X119313428Y-76707000D01*
X119170571Y-76635571D01*
X118956285Y-76635571D01*
X118813428Y-76707000D01*
X118742000Y-76849857D01*
X118742000Y-77635571D01*
X117813428Y-77635571D02*
X117956285Y-77564142D01*
X118027714Y-77492714D01*
X118099142Y-77349857D01*
X118099142Y-76921285D01*
X118027714Y-76778428D01*
X117956285Y-76707000D01*
X117813428Y-76635571D01*
X117599142Y-76635571D01*
X117456285Y-76707000D01*
X117384857Y-76778428D01*
X117313428Y-76921285D01*
X117313428Y-77349857D01*
X117384857Y-77492714D01*
X117456285Y-77564142D01*
X117599142Y-77635571D01*
X117813428Y-77635571D01*
X116027714Y-76635571D02*
X116027714Y-77635571D01*
X116670571Y-76635571D02*
X116670571Y-77421285D01*
X116599142Y-77564142D01*
X116456285Y-77635571D01*
X116242000Y-77635571D01*
X116099142Y-77564142D01*
X116027714Y-77492714D01*
X115384857Y-77564142D02*
X115242000Y-77635571D01*
X114956285Y-77635571D01*
X114813428Y-77564142D01*
X114742000Y-77421285D01*
X114742000Y-77349857D01*
X114813428Y-77207000D01*
X114956285Y-77135571D01*
X115170571Y-77135571D01*
X115313428Y-77064142D01*
X115384857Y-76921285D01*
X115384857Y-76849857D01*
X115313428Y-76707000D01*
X115170571Y-76635571D01*
X114956285Y-76635571D01*
X114813428Y-76707000D01*
X136134857Y-80185571D02*
X136134857Y-78685571D01*
X135634857Y-79757000D01*
X135134857Y-78685571D01*
X135134857Y-80185571D01*
X134420571Y-80185571D02*
X134420571Y-79185571D01*
X134420571Y-78685571D02*
X134492000Y-78757000D01*
X134420571Y-78828428D01*
X134349142Y-78757000D01*
X134420571Y-78685571D01*
X134420571Y-78828428D01*
X133063428Y-80114142D02*
X133206285Y-80185571D01*
X133492000Y-80185571D01*
X133634857Y-80114142D01*
X133706285Y-80042714D01*
X133777714Y-79899857D01*
X133777714Y-79471285D01*
X133706285Y-79328428D01*
X133634857Y-79257000D01*
X133492000Y-79185571D01*
X133206285Y-79185571D01*
X133063428Y-79257000D01*
X132420571Y-80185571D02*
X132420571Y-79185571D01*
X132420571Y-79471285D02*
X132349142Y-79328428D01*
X132277714Y-79257000D01*
X132134857Y-79185571D01*
X131992000Y-79185571D01*
X131277714Y-80185571D02*
X131420571Y-80114142D01*
X131492000Y-80042714D01*
X131563428Y-79899857D01*
X131563428Y-79471285D01*
X131492000Y-79328428D01*
X131420571Y-79257000D01*
X131277714Y-79185571D01*
X131063428Y-79185571D01*
X130920571Y-79257000D01*
X130849142Y-79328428D01*
X130777714Y-79471285D01*
X130777714Y-79899857D01*
X130849142Y-80042714D01*
X130920571Y-80114142D01*
X131063428Y-80185571D01*
X131277714Y-80185571D01*
X130206285Y-80114142D02*
X130063428Y-80185571D01*
X129777714Y-80185571D01*
X129634857Y-80114142D01*
X129563428Y-79971285D01*
X129563428Y-79899857D01*
X129634857Y-79757000D01*
X129777714Y-79685571D01*
X129992000Y-79685571D01*
X130134857Y-79614142D01*
X130206285Y-79471285D01*
X130206285Y-79399857D01*
X130134857Y-79257000D01*
X129992000Y-79185571D01*
X129777714Y-79185571D01*
X129634857Y-79257000D01*
X129063428Y-79185571D02*
X128706285Y-80185571D01*
X128349142Y-79185571D02*
X128706285Y-80185571D01*
X128849142Y-80542714D01*
X128920571Y-80614142D01*
X129063428Y-80685571D01*
X127849142Y-80114142D02*
X127706285Y-80185571D01*
X127420571Y-80185571D01*
X127277714Y-80114142D01*
X127206285Y-79971285D01*
X127206285Y-79899857D01*
X127277714Y-79757000D01*
X127420571Y-79685571D01*
X127634857Y-79685571D01*
X127777714Y-79614142D01*
X127849142Y-79471285D01*
X127849142Y-79399857D01*
X127777714Y-79257000D01*
X127634857Y-79185571D01*
X127420571Y-79185571D01*
X127277714Y-79257000D01*
X126777714Y-79185571D02*
X126206285Y-79185571D01*
X126563428Y-78685571D02*
X126563428Y-79971285D01*
X126492000Y-80114142D01*
X126349142Y-80185571D01*
X126206285Y-80185571D01*
X125134857Y-80114142D02*
X125277714Y-80185571D01*
X125563428Y-80185571D01*
X125706285Y-80114142D01*
X125777714Y-79971285D01*
X125777714Y-79399857D01*
X125706285Y-79257000D01*
X125563428Y-79185571D01*
X125277714Y-79185571D01*
X125134857Y-79257000D01*
X125063428Y-79399857D01*
X125063428Y-79542714D01*
X125777714Y-79685571D01*
X124420571Y-80185571D02*
X124420571Y-79185571D01*
X124420571Y-79328428D02*
X124349142Y-79257000D01*
X124206285Y-79185571D01*
X123992000Y-79185571D01*
X123849142Y-79257000D01*
X123777714Y-79399857D01*
X123777714Y-80185571D01*
X123777714Y-79399857D02*
X123706285Y-79257000D01*
X123563428Y-79185571D01*
X123349142Y-79185571D01*
X123206285Y-79257000D01*
X123134857Y-79399857D01*
X123134857Y-80185571D01*
X122492000Y-80114142D02*
X122349142Y-80185571D01*
X122063428Y-80185571D01*
X121920571Y-80114142D01*
X121849142Y-79971285D01*
X121849142Y-79899857D01*
X121920571Y-79757000D01*
X122063428Y-79685571D01*
X122277714Y-79685571D01*
X122420571Y-79614142D01*
X122492000Y-79471285D01*
X122492000Y-79399857D01*
X122420571Y-79257000D01*
X122277714Y-79185571D01*
X122063428Y-79185571D01*
X121920571Y-79257000D01*
X119349142Y-80185571D02*
X120063428Y-80185571D01*
X120063428Y-78685571D01*
X118206285Y-80185571D02*
X118206285Y-79399857D01*
X118277714Y-79257000D01*
X118420571Y-79185571D01*
X118706285Y-79185571D01*
X118849142Y-79257000D01*
X118206285Y-80114142D02*
X118349142Y-80185571D01*
X118706285Y-80185571D01*
X118849142Y-80114142D01*
X118920571Y-79971285D01*
X118920571Y-79828428D01*
X118849142Y-79685571D01*
X118706285Y-79614142D01*
X118349142Y-79614142D01*
X118206285Y-79542714D01*
X117492000Y-80185571D02*
X117492000Y-78685571D01*
X117492000Y-79257000D02*
X117349142Y-79185571D01*
X117063428Y-79185571D01*
X116920571Y-79257000D01*
X116849142Y-79328428D01*
X116777714Y-79471285D01*
X116777714Y-79899857D01*
X116849142Y-80042714D01*
X116920571Y-80114142D01*
X117063428Y-80185571D01*
X117349142Y-80185571D01*
X117492000Y-80114142D01*
M02*
