G04 #@! TF.GenerationSoftware,KiCad,Pcbnew,(5.1.6)-1*
G04 #@! TF.CreationDate,2021-08-27T22:14:51-07:00*
G04 #@! TF.ProjectId,scum3c-devboard,7363756d-3363-42d6-9465-76626f617264,rev?*
G04 #@! TF.SameCoordinates,Original*
G04 #@! TF.FileFunction,Legend,Top*
G04 #@! TF.FilePolarity,Positive*
%FSLAX46Y46*%
G04 Gerber Fmt 4.6, Leading zero omitted, Abs format (unit mm)*
G04 Created by KiCad (PCBNEW (5.1.6)-1) date 2021-08-27 22:14:51*
%MOMM*%
%LPD*%
G01*
G04 APERTURE LIST*
%ADD10C,0.080000*%
%ADD11C,0.100000*%
%ADD12C,0.150000*%
%ADD13C,0.127000*%
%ADD14C,0.120000*%
%ADD15C,0.101600*%
%ADD16C,0.015000*%
%ADD17C,0.050800*%
%ADD18C,0.125000*%
G04 APERTURE END LIST*
D10*
X137426761Y-80879666D02*
X137617238Y-80879666D01*
X137388666Y-80993952D02*
X137522000Y-80593952D01*
X137655333Y-80993952D01*
X137788666Y-80993952D02*
X137788666Y-80593952D01*
X137883904Y-80593952D01*
X137941047Y-80613000D01*
X137979142Y-80651095D01*
X137998190Y-80689190D01*
X138017238Y-80765380D01*
X138017238Y-80822523D01*
X137998190Y-80898714D01*
X137979142Y-80936809D01*
X137941047Y-80974904D01*
X137883904Y-80993952D01*
X137788666Y-80993952D01*
X138417238Y-80955857D02*
X138398190Y-80974904D01*
X138341047Y-80993952D01*
X138302952Y-80993952D01*
X138245809Y-80974904D01*
X138207714Y-80936809D01*
X138188666Y-80898714D01*
X138169619Y-80822523D01*
X138169619Y-80765380D01*
X138188666Y-80689190D01*
X138207714Y-80651095D01*
X138245809Y-80613000D01*
X138302952Y-80593952D01*
X138341047Y-80593952D01*
X138398190Y-80613000D01*
X138417238Y-80632047D01*
X137712476Y-81673952D02*
X137712476Y-81273952D01*
X137902952Y-81673952D02*
X137902952Y-81273952D01*
X138131523Y-81673952D01*
X138131523Y-81273952D01*
D11*
X131334047Y-73624285D02*
X131500714Y-73624285D01*
X131572142Y-73886190D02*
X131334047Y-73886190D01*
X131334047Y-73386190D01*
X131572142Y-73386190D01*
X131738809Y-73386190D02*
X132072142Y-73886190D01*
X132072142Y-73386190D02*
X131738809Y-73886190D01*
X132191190Y-73386190D02*
X132476904Y-73386190D01*
X132334047Y-73886190D02*
X132334047Y-73386190D01*
X132524523Y-73933809D02*
X132905476Y-73933809D01*
X133191190Y-73624285D02*
X133262619Y-73648095D01*
X133286428Y-73671904D01*
X133310238Y-73719523D01*
X133310238Y-73790952D01*
X133286428Y-73838571D01*
X133262619Y-73862380D01*
X133215000Y-73886190D01*
X133024523Y-73886190D01*
X133024523Y-73386190D01*
X133191190Y-73386190D01*
X133238809Y-73410000D01*
X133262619Y-73433809D01*
X133286428Y-73481428D01*
X133286428Y-73529047D01*
X133262619Y-73576666D01*
X133238809Y-73600476D01*
X133191190Y-73624285D01*
X133024523Y-73624285D01*
X133500714Y-73743333D02*
X133738809Y-73743333D01*
X133453095Y-73886190D02*
X133619761Y-73386190D01*
X133786428Y-73886190D01*
X133881666Y-73386190D02*
X134167380Y-73386190D01*
X134024523Y-73886190D02*
X134024523Y-73386190D01*
X134338333Y-80625190D02*
X134505000Y-81125190D01*
X134671666Y-80625190D01*
X134838333Y-81125190D02*
X134838333Y-80625190D01*
X134957380Y-80625190D01*
X135028809Y-80649000D01*
X135076428Y-80696619D01*
X135100238Y-80744238D01*
X135124047Y-80839476D01*
X135124047Y-80910904D01*
X135100238Y-81006142D01*
X135076428Y-81053761D01*
X135028809Y-81101380D01*
X134957380Y-81125190D01*
X134838333Y-81125190D01*
X135338333Y-81125190D02*
X135338333Y-80625190D01*
X135457380Y-80625190D01*
X135528809Y-80649000D01*
X135576428Y-80696619D01*
X135600238Y-80744238D01*
X135624047Y-80839476D01*
X135624047Y-80910904D01*
X135600238Y-81006142D01*
X135576428Y-81053761D01*
X135528809Y-81101380D01*
X135457380Y-81125190D01*
X135338333Y-81125190D01*
X135838333Y-81125190D02*
X135838333Y-80625190D01*
X135957380Y-80625190D01*
X136028809Y-80649000D01*
X136076428Y-80696619D01*
X136100238Y-80744238D01*
X136124047Y-80839476D01*
X136124047Y-80910904D01*
X136100238Y-81006142D01*
X136076428Y-81053761D01*
X136028809Y-81101380D01*
X135957380Y-81125190D01*
X135838333Y-81125190D01*
X132334047Y-80649000D02*
X132286428Y-80625190D01*
X132215000Y-80625190D01*
X132143571Y-80649000D01*
X132095952Y-80696619D01*
X132072142Y-80744238D01*
X132048333Y-80839476D01*
X132048333Y-80910904D01*
X132072142Y-81006142D01*
X132095952Y-81053761D01*
X132143571Y-81101380D01*
X132215000Y-81125190D01*
X132262619Y-81125190D01*
X132334047Y-81101380D01*
X132357857Y-81077571D01*
X132357857Y-80910904D01*
X132262619Y-80910904D01*
X132572142Y-81125190D02*
X132572142Y-80625190D01*
X132857857Y-81125190D01*
X132857857Y-80625190D01*
X133095952Y-81125190D02*
X133095952Y-80625190D01*
X133215000Y-80625190D01*
X133286428Y-80649000D01*
X133334047Y-80696619D01*
X133357857Y-80744238D01*
X133381666Y-80839476D01*
X133381666Y-80910904D01*
X133357857Y-81006142D01*
X133334047Y-81053761D01*
X133286428Y-81101380D01*
X133215000Y-81125190D01*
X133095952Y-81125190D01*
X129667047Y-80649000D02*
X129619428Y-80625190D01*
X129548000Y-80625190D01*
X129476571Y-80649000D01*
X129428952Y-80696619D01*
X129405142Y-80744238D01*
X129381333Y-80839476D01*
X129381333Y-80910904D01*
X129405142Y-81006142D01*
X129428952Y-81053761D01*
X129476571Y-81101380D01*
X129548000Y-81125190D01*
X129595619Y-81125190D01*
X129667047Y-81101380D01*
X129690857Y-81077571D01*
X129690857Y-80910904D01*
X129595619Y-80910904D01*
X129905142Y-81125190D02*
X129905142Y-80625190D01*
X130190857Y-81125190D01*
X130190857Y-80625190D01*
X130428952Y-81125190D02*
X130428952Y-80625190D01*
X130548000Y-80625190D01*
X130619428Y-80649000D01*
X130667047Y-80696619D01*
X130690857Y-80744238D01*
X130714666Y-80839476D01*
X130714666Y-80910904D01*
X130690857Y-81006142D01*
X130667047Y-81053761D01*
X130619428Y-81101380D01*
X130548000Y-81125190D01*
X130428952Y-81125190D01*
X126813571Y-80625190D02*
X126980238Y-81125190D01*
X127146904Y-80625190D01*
X127480238Y-80863285D02*
X127551666Y-80887095D01*
X127575476Y-80910904D01*
X127599285Y-80958523D01*
X127599285Y-81029952D01*
X127575476Y-81077571D01*
X127551666Y-81101380D01*
X127504047Y-81125190D01*
X127313571Y-81125190D01*
X127313571Y-80625190D01*
X127480238Y-80625190D01*
X127527857Y-80649000D01*
X127551666Y-80672809D01*
X127575476Y-80720428D01*
X127575476Y-80768047D01*
X127551666Y-80815666D01*
X127527857Y-80839476D01*
X127480238Y-80863285D01*
X127313571Y-80863285D01*
X127789761Y-80982333D02*
X128027857Y-80982333D01*
X127742142Y-81125190D02*
X127908809Y-80625190D01*
X128075476Y-81125190D01*
X128170714Y-80625190D02*
X128456428Y-80625190D01*
X128313571Y-81125190D02*
X128313571Y-80625190D01*
X129619428Y-73886190D02*
X129333714Y-73886190D01*
X129476571Y-73886190D02*
X129476571Y-73386190D01*
X129428952Y-73457619D01*
X129381333Y-73505238D01*
X129333714Y-73529047D01*
X129833714Y-73838571D02*
X129857523Y-73862380D01*
X129833714Y-73886190D01*
X129809904Y-73862380D01*
X129833714Y-73838571D01*
X129833714Y-73886190D01*
X130143238Y-73600476D02*
X130095619Y-73576666D01*
X130071809Y-73552857D01*
X130048000Y-73505238D01*
X130048000Y-73481428D01*
X130071809Y-73433809D01*
X130095619Y-73410000D01*
X130143238Y-73386190D01*
X130238476Y-73386190D01*
X130286095Y-73410000D01*
X130309904Y-73433809D01*
X130333714Y-73481428D01*
X130333714Y-73505238D01*
X130309904Y-73552857D01*
X130286095Y-73576666D01*
X130238476Y-73600476D01*
X130143238Y-73600476D01*
X130095619Y-73624285D01*
X130071809Y-73648095D01*
X130048000Y-73695714D01*
X130048000Y-73790952D01*
X130071809Y-73838571D01*
X130095619Y-73862380D01*
X130143238Y-73886190D01*
X130238476Y-73886190D01*
X130286095Y-73862380D01*
X130309904Y-73838571D01*
X130333714Y-73790952D01*
X130333714Y-73695714D01*
X130309904Y-73648095D01*
X130286095Y-73624285D01*
X130238476Y-73600476D01*
X130476571Y-73386190D02*
X130643238Y-73886190D01*
X130809904Y-73386190D01*
X126952428Y-73886190D02*
X126666714Y-73886190D01*
X126809571Y-73886190D02*
X126809571Y-73386190D01*
X126761952Y-73457619D01*
X126714333Y-73505238D01*
X126666714Y-73529047D01*
X127166714Y-73838571D02*
X127190523Y-73862380D01*
X127166714Y-73886190D01*
X127142904Y-73862380D01*
X127166714Y-73838571D01*
X127166714Y-73886190D01*
X127476238Y-73600476D02*
X127428619Y-73576666D01*
X127404809Y-73552857D01*
X127381000Y-73505238D01*
X127381000Y-73481428D01*
X127404809Y-73433809D01*
X127428619Y-73410000D01*
X127476238Y-73386190D01*
X127571476Y-73386190D01*
X127619095Y-73410000D01*
X127642904Y-73433809D01*
X127666714Y-73481428D01*
X127666714Y-73505238D01*
X127642904Y-73552857D01*
X127619095Y-73576666D01*
X127571476Y-73600476D01*
X127476238Y-73600476D01*
X127428619Y-73624285D01*
X127404809Y-73648095D01*
X127381000Y-73695714D01*
X127381000Y-73790952D01*
X127404809Y-73838571D01*
X127428619Y-73862380D01*
X127476238Y-73886190D01*
X127571476Y-73886190D01*
X127619095Y-73862380D01*
X127642904Y-73838571D01*
X127666714Y-73790952D01*
X127666714Y-73695714D01*
X127642904Y-73648095D01*
X127619095Y-73624285D01*
X127571476Y-73600476D01*
X127809571Y-73386190D02*
X127976238Y-73886190D01*
X128142904Y-73386190D01*
X124666428Y-73886190D02*
X124380714Y-73886190D01*
X124523571Y-73886190D02*
X124523571Y-73386190D01*
X124475952Y-73457619D01*
X124428333Y-73505238D01*
X124380714Y-73529047D01*
X124880714Y-73838571D02*
X124904523Y-73862380D01*
X124880714Y-73886190D01*
X124856904Y-73862380D01*
X124880714Y-73838571D01*
X124880714Y-73886190D01*
X125380714Y-73886190D02*
X125095000Y-73886190D01*
X125237857Y-73886190D02*
X125237857Y-73386190D01*
X125190238Y-73457619D01*
X125142619Y-73505238D01*
X125095000Y-73529047D01*
X125523571Y-73386190D02*
X125690238Y-73886190D01*
X125856904Y-73386190D01*
X137592714Y-96746190D02*
X137592714Y-96246190D01*
X137783190Y-96246190D01*
X137830809Y-96270000D01*
X137854619Y-96293809D01*
X137878428Y-96341428D01*
X137878428Y-96412857D01*
X137854619Y-96460476D01*
X137830809Y-96484285D01*
X137783190Y-96508095D01*
X137592714Y-96508095D01*
X138187952Y-96246190D02*
X138235571Y-96246190D01*
X138283190Y-96270000D01*
X138307000Y-96293809D01*
X138330809Y-96341428D01*
X138354619Y-96436666D01*
X138354619Y-96555714D01*
X138330809Y-96650952D01*
X138307000Y-96698571D01*
X138283190Y-96722380D01*
X138235571Y-96746190D01*
X138187952Y-96746190D01*
X138140333Y-96722380D01*
X138116523Y-96698571D01*
X138092714Y-96650952D01*
X138068904Y-96555714D01*
X138068904Y-96436666D01*
X138092714Y-96341428D01*
X138116523Y-96293809D01*
X138140333Y-96270000D01*
X138187952Y-96246190D01*
X138568904Y-96698571D02*
X138592714Y-96722380D01*
X138568904Y-96746190D01*
X138545095Y-96722380D01*
X138568904Y-96698571D01*
X138568904Y-96746190D01*
X139068904Y-96746190D02*
X138783190Y-96746190D01*
X138926047Y-96746190D02*
X138926047Y-96246190D01*
X138878428Y-96317619D01*
X138830809Y-96365238D01*
X138783190Y-96389047D01*
X139521285Y-96246190D02*
X139283190Y-96246190D01*
X139259380Y-96484285D01*
X139283190Y-96460476D01*
X139330809Y-96436666D01*
X139449857Y-96436666D01*
X139497476Y-96460476D01*
X139521285Y-96484285D01*
X139545095Y-96531904D01*
X139545095Y-96650952D01*
X139521285Y-96698571D01*
X139497476Y-96722380D01*
X139449857Y-96746190D01*
X139330809Y-96746190D01*
X139283190Y-96722380D01*
X139259380Y-96698571D01*
X145212714Y-97000190D02*
X145212714Y-96500190D01*
X145403190Y-96500190D01*
X145450809Y-96524000D01*
X145474619Y-96547809D01*
X145498428Y-96595428D01*
X145498428Y-96666857D01*
X145474619Y-96714476D01*
X145450809Y-96738285D01*
X145403190Y-96762095D01*
X145212714Y-96762095D01*
X145807952Y-96500190D02*
X145855571Y-96500190D01*
X145903190Y-96524000D01*
X145927000Y-96547809D01*
X145950809Y-96595428D01*
X145974619Y-96690666D01*
X145974619Y-96809714D01*
X145950809Y-96904952D01*
X145927000Y-96952571D01*
X145903190Y-96976380D01*
X145855571Y-97000190D01*
X145807952Y-97000190D01*
X145760333Y-96976380D01*
X145736523Y-96952571D01*
X145712714Y-96904952D01*
X145688904Y-96809714D01*
X145688904Y-96690666D01*
X145712714Y-96595428D01*
X145736523Y-96547809D01*
X145760333Y-96524000D01*
X145807952Y-96500190D01*
X146188904Y-96952571D02*
X146212714Y-96976380D01*
X146188904Y-97000190D01*
X146165095Y-96976380D01*
X146188904Y-96952571D01*
X146188904Y-97000190D01*
X146688904Y-97000190D02*
X146403190Y-97000190D01*
X146546047Y-97000190D02*
X146546047Y-96500190D01*
X146498428Y-96571619D01*
X146450809Y-96619238D01*
X146403190Y-96643047D01*
X146998428Y-96500190D02*
X147046047Y-96500190D01*
X147093666Y-96524000D01*
X147117476Y-96547809D01*
X147141285Y-96595428D01*
X147165095Y-96690666D01*
X147165095Y-96809714D01*
X147141285Y-96904952D01*
X147117476Y-96952571D01*
X147093666Y-96976380D01*
X147046047Y-97000190D01*
X146998428Y-97000190D01*
X146950809Y-96976380D01*
X146927000Y-96952571D01*
X146903190Y-96904952D01*
X146879380Y-96809714D01*
X146879380Y-96690666D01*
X146903190Y-96595428D01*
X146927000Y-96547809D01*
X146950809Y-96524000D01*
X146998428Y-96500190D01*
X145212714Y-81506190D02*
X145212714Y-81006190D01*
X145403190Y-81006190D01*
X145450809Y-81030000D01*
X145474619Y-81053809D01*
X145498428Y-81101428D01*
X145498428Y-81172857D01*
X145474619Y-81220476D01*
X145450809Y-81244285D01*
X145403190Y-81268095D01*
X145212714Y-81268095D01*
X145807952Y-81006190D02*
X145855571Y-81006190D01*
X145903190Y-81030000D01*
X145927000Y-81053809D01*
X145950809Y-81101428D01*
X145974619Y-81196666D01*
X145974619Y-81315714D01*
X145950809Y-81410952D01*
X145927000Y-81458571D01*
X145903190Y-81482380D01*
X145855571Y-81506190D01*
X145807952Y-81506190D01*
X145760333Y-81482380D01*
X145736523Y-81458571D01*
X145712714Y-81410952D01*
X145688904Y-81315714D01*
X145688904Y-81196666D01*
X145712714Y-81101428D01*
X145736523Y-81053809D01*
X145760333Y-81030000D01*
X145807952Y-81006190D01*
X146188904Y-81458571D02*
X146212714Y-81482380D01*
X146188904Y-81506190D01*
X146165095Y-81482380D01*
X146188904Y-81458571D01*
X146188904Y-81506190D01*
X146688904Y-81506190D02*
X146403190Y-81506190D01*
X146546047Y-81506190D02*
X146546047Y-81006190D01*
X146498428Y-81077619D01*
X146450809Y-81125238D01*
X146403190Y-81149047D01*
X147117476Y-81172857D02*
X147117476Y-81506190D01*
X146998428Y-80982380D02*
X146879380Y-81339523D01*
X147188904Y-81339523D01*
X139116714Y-81506190D02*
X139116714Y-81006190D01*
X139307190Y-81006190D01*
X139354809Y-81030000D01*
X139378619Y-81053809D01*
X139402428Y-81101428D01*
X139402428Y-81172857D01*
X139378619Y-81220476D01*
X139354809Y-81244285D01*
X139307190Y-81268095D01*
X139116714Y-81268095D01*
X139711952Y-81006190D02*
X139759571Y-81006190D01*
X139807190Y-81030000D01*
X139831000Y-81053809D01*
X139854809Y-81101428D01*
X139878619Y-81196666D01*
X139878619Y-81315714D01*
X139854809Y-81410952D01*
X139831000Y-81458571D01*
X139807190Y-81482380D01*
X139759571Y-81506190D01*
X139711952Y-81506190D01*
X139664333Y-81482380D01*
X139640523Y-81458571D01*
X139616714Y-81410952D01*
X139592904Y-81315714D01*
X139592904Y-81196666D01*
X139616714Y-81101428D01*
X139640523Y-81053809D01*
X139664333Y-81030000D01*
X139711952Y-81006190D01*
X140092904Y-81458571D02*
X140116714Y-81482380D01*
X140092904Y-81506190D01*
X140069095Y-81482380D01*
X140092904Y-81458571D01*
X140092904Y-81506190D01*
X140307190Y-81053809D02*
X140331000Y-81030000D01*
X140378619Y-81006190D01*
X140497666Y-81006190D01*
X140545285Y-81030000D01*
X140569095Y-81053809D01*
X140592904Y-81101428D01*
X140592904Y-81149047D01*
X140569095Y-81220476D01*
X140283380Y-81506190D01*
X140592904Y-81506190D01*
X140759571Y-81006190D02*
X141092904Y-81006190D01*
X140878619Y-81506190D01*
X137945904Y-93730000D02*
X137898285Y-93706190D01*
X137826857Y-93706190D01*
X137755428Y-93730000D01*
X137707809Y-93777619D01*
X137684000Y-93825238D01*
X137660190Y-93920476D01*
X137660190Y-93991904D01*
X137684000Y-94087142D01*
X137707809Y-94134761D01*
X137755428Y-94182380D01*
X137826857Y-94206190D01*
X137874476Y-94206190D01*
X137945904Y-94182380D01*
X137969714Y-94158571D01*
X137969714Y-93991904D01*
X137874476Y-93991904D01*
X138184000Y-94206190D02*
X138184000Y-93706190D01*
X138374476Y-93706190D01*
X138422095Y-93730000D01*
X138445904Y-93753809D01*
X138469714Y-93801428D01*
X138469714Y-93872857D01*
X138445904Y-93920476D01*
X138422095Y-93944285D01*
X138374476Y-93968095D01*
X138184000Y-93968095D01*
X138684000Y-94206190D02*
X138684000Y-93706190D01*
X139017333Y-93706190D02*
X139112571Y-93706190D01*
X139160190Y-93730000D01*
X139207809Y-93777619D01*
X139231619Y-93872857D01*
X139231619Y-94039523D01*
X139207809Y-94134761D01*
X139160190Y-94182380D01*
X139112571Y-94206190D01*
X139017333Y-94206190D01*
X138969714Y-94182380D01*
X138922095Y-94134761D01*
X138898285Y-94039523D01*
X138898285Y-93872857D01*
X138922095Y-93777619D01*
X138969714Y-93730000D01*
X139017333Y-93706190D01*
X139422095Y-93753809D02*
X139445904Y-93730000D01*
X139493523Y-93706190D01*
X139612571Y-93706190D01*
X139660190Y-93730000D01*
X139684000Y-93753809D01*
X139707809Y-93801428D01*
X139707809Y-93849047D01*
X139684000Y-93920476D01*
X139398285Y-94206190D01*
X139707809Y-94206190D01*
X114300047Y-80649000D02*
X114252428Y-80625190D01*
X114181000Y-80625190D01*
X114109571Y-80649000D01*
X114061952Y-80696619D01*
X114038142Y-80744238D01*
X114014333Y-80839476D01*
X114014333Y-80910904D01*
X114038142Y-81006142D01*
X114061952Y-81053761D01*
X114109571Y-81101380D01*
X114181000Y-81125190D01*
X114228619Y-81125190D01*
X114300047Y-81101380D01*
X114323857Y-81077571D01*
X114323857Y-80910904D01*
X114228619Y-80910904D01*
X114538142Y-81125190D02*
X114538142Y-80625190D01*
X114823857Y-81125190D01*
X114823857Y-80625190D01*
X115061952Y-81125190D02*
X115061952Y-80625190D01*
X115181000Y-80625190D01*
X115252428Y-80649000D01*
X115300047Y-80696619D01*
X115323857Y-80744238D01*
X115347666Y-80839476D01*
X115347666Y-80910904D01*
X115323857Y-81006142D01*
X115300047Y-81053761D01*
X115252428Y-81101380D01*
X115181000Y-81125190D01*
X115061952Y-81125190D01*
X114764333Y-92213714D02*
X114764333Y-91975619D01*
X114907190Y-92261333D02*
X114407190Y-92094666D01*
X114907190Y-91928000D01*
X114907190Y-91761333D02*
X114407190Y-91761333D01*
X114907190Y-91475619D01*
X114407190Y-91475619D01*
X114407190Y-91308952D02*
X114407190Y-91023238D01*
X114907190Y-91166095D02*
X114407190Y-91166095D01*
X114645285Y-90856571D02*
X114645285Y-90689904D01*
X114907190Y-90618476D02*
X114907190Y-90856571D01*
X114407190Y-90856571D01*
X114407190Y-90618476D01*
X114907190Y-90404190D02*
X114407190Y-90404190D01*
X114907190Y-90118476D01*
X114407190Y-90118476D01*
X114907190Y-89880380D02*
X114407190Y-89880380D01*
X114907190Y-89594666D01*
X114407190Y-89594666D01*
X114764333Y-89380380D02*
X114764333Y-89142285D01*
X114907190Y-89428000D02*
X114407190Y-89261333D01*
X114907190Y-89094666D01*
X114554047Y-107700000D02*
X114506428Y-107676190D01*
X114435000Y-107676190D01*
X114363571Y-107700000D01*
X114315952Y-107747619D01*
X114292142Y-107795238D01*
X114268333Y-107890476D01*
X114268333Y-107961904D01*
X114292142Y-108057142D01*
X114315952Y-108104761D01*
X114363571Y-108152380D01*
X114435000Y-108176190D01*
X114482619Y-108176190D01*
X114554047Y-108152380D01*
X114577857Y-108128571D01*
X114577857Y-107961904D01*
X114482619Y-107961904D01*
X114792142Y-108176190D02*
X114792142Y-107676190D01*
X115077857Y-108176190D01*
X115077857Y-107676190D01*
X115315952Y-108176190D02*
X115315952Y-107676190D01*
X115435000Y-107676190D01*
X115506428Y-107700000D01*
X115554047Y-107747619D01*
X115577857Y-107795238D01*
X115601666Y-107890476D01*
X115601666Y-107961904D01*
X115577857Y-108057142D01*
X115554047Y-108104761D01*
X115506428Y-108152380D01*
X115435000Y-108176190D01*
X115315952Y-108176190D01*
X115161190Y-101457142D02*
X115161190Y-101742857D01*
X115161190Y-101600000D02*
X114661190Y-101600000D01*
X114732619Y-101647619D01*
X114780238Y-101695238D01*
X114804047Y-101742857D01*
D12*
X111252000Y-76073000D02*
G75*
G03*
X111252000Y-76073000I-1651000J0D01*
G01*
X111252000Y-105029000D02*
G75*
G03*
X111252000Y-105029000I-1651000J0D01*
G01*
X145796000Y-105029000D02*
G75*
G03*
X145796000Y-105029000I-1651000J0D01*
G01*
X145796000Y-76073000D02*
G75*
G03*
X145796000Y-76073000I-1651000J0D01*
G01*
D11*
X137414047Y-107700000D02*
X137366428Y-107676190D01*
X137295000Y-107676190D01*
X137223571Y-107700000D01*
X137175952Y-107747619D01*
X137152142Y-107795238D01*
X137128333Y-107890476D01*
X137128333Y-107961904D01*
X137152142Y-108057142D01*
X137175952Y-108104761D01*
X137223571Y-108152380D01*
X137295000Y-108176190D01*
X137342619Y-108176190D01*
X137414047Y-108152380D01*
X137437857Y-108128571D01*
X137437857Y-107961904D01*
X137342619Y-107961904D01*
X137652142Y-108176190D02*
X137652142Y-107676190D01*
X137937857Y-108176190D01*
X137937857Y-107676190D01*
X138175952Y-108176190D02*
X138175952Y-107676190D01*
X138295000Y-107676190D01*
X138366428Y-107700000D01*
X138414047Y-107747619D01*
X138437857Y-107795238D01*
X138461666Y-107890476D01*
X138461666Y-107961904D01*
X138437857Y-108057142D01*
X138414047Y-108104761D01*
X138366428Y-108152380D01*
X138295000Y-108176190D01*
X138175952Y-108176190D01*
X137414047Y-101350000D02*
X137366428Y-101326190D01*
X137295000Y-101326190D01*
X137223571Y-101350000D01*
X137175952Y-101397619D01*
X137152142Y-101445238D01*
X137128333Y-101540476D01*
X137128333Y-101611904D01*
X137152142Y-101707142D01*
X137175952Y-101754761D01*
X137223571Y-101802380D01*
X137295000Y-101826190D01*
X137342619Y-101826190D01*
X137414047Y-101802380D01*
X137437857Y-101778571D01*
X137437857Y-101611904D01*
X137342619Y-101611904D01*
X137652142Y-101826190D02*
X137652142Y-101326190D01*
X137937857Y-101826190D01*
X137937857Y-101326190D01*
X138175952Y-101826190D02*
X138175952Y-101326190D01*
X138295000Y-101326190D01*
X138366428Y-101350000D01*
X138414047Y-101397619D01*
X138437857Y-101445238D01*
X138461666Y-101540476D01*
X138461666Y-101611904D01*
X138437857Y-101707142D01*
X138414047Y-101754761D01*
X138366428Y-101802380D01*
X138295000Y-101826190D01*
X138175952Y-101826190D01*
D10*
X145999285Y-86200952D02*
X145999285Y-85800952D01*
X145999285Y-85991428D02*
X146227857Y-85991428D01*
X146227857Y-86200952D02*
X146227857Y-85800952D01*
X146399285Y-86086666D02*
X146589761Y-86086666D01*
X146361190Y-86200952D02*
X146494523Y-85800952D01*
X146627857Y-86200952D01*
X146989761Y-86200952D02*
X146856428Y-86010476D01*
X146761190Y-86200952D02*
X146761190Y-85800952D01*
X146913571Y-85800952D01*
X146951666Y-85820000D01*
X146970714Y-85839047D01*
X146989761Y-85877142D01*
X146989761Y-85934285D01*
X146970714Y-85972380D01*
X146951666Y-85991428D01*
X146913571Y-86010476D01*
X146761190Y-86010476D01*
X147161190Y-86200952D02*
X147161190Y-85800952D01*
X147256428Y-85800952D01*
X147313571Y-85820000D01*
X147351666Y-85858095D01*
X147370714Y-85896190D01*
X147389761Y-85972380D01*
X147389761Y-86029523D01*
X147370714Y-86105714D01*
X147351666Y-86143809D01*
X147313571Y-86181904D01*
X147256428Y-86200952D01*
X147161190Y-86200952D01*
X146104047Y-86880952D02*
X145970714Y-86690476D01*
X145875476Y-86880952D02*
X145875476Y-86480952D01*
X146027857Y-86480952D01*
X146065952Y-86500000D01*
X146085000Y-86519047D01*
X146104047Y-86557142D01*
X146104047Y-86614285D01*
X146085000Y-86652380D01*
X146065952Y-86671428D01*
X146027857Y-86690476D01*
X145875476Y-86690476D01*
X146275476Y-86671428D02*
X146408809Y-86671428D01*
X146465952Y-86880952D02*
X146275476Y-86880952D01*
X146275476Y-86480952D01*
X146465952Y-86480952D01*
X146618333Y-86861904D02*
X146675476Y-86880952D01*
X146770714Y-86880952D01*
X146808809Y-86861904D01*
X146827857Y-86842857D01*
X146846904Y-86804761D01*
X146846904Y-86766666D01*
X146827857Y-86728571D01*
X146808809Y-86709523D01*
X146770714Y-86690476D01*
X146694523Y-86671428D01*
X146656428Y-86652380D01*
X146637380Y-86633333D01*
X146618333Y-86595238D01*
X146618333Y-86557142D01*
X146637380Y-86519047D01*
X146656428Y-86500000D01*
X146694523Y-86480952D01*
X146789761Y-86480952D01*
X146846904Y-86500000D01*
X147018333Y-86671428D02*
X147151666Y-86671428D01*
X147208809Y-86880952D02*
X147018333Y-86880952D01*
X147018333Y-86480952D01*
X147208809Y-86480952D01*
X147323095Y-86480952D02*
X147551666Y-86480952D01*
X147437380Y-86880952D02*
X147437380Y-86480952D01*
D11*
X119594380Y-73334190D02*
X119594380Y-72834190D01*
X119832476Y-73334190D02*
X119832476Y-72834190D01*
X119999142Y-73191333D01*
X120165809Y-72834190D01*
X120165809Y-73334190D01*
X120403904Y-72834190D02*
X120403904Y-73238952D01*
X120427714Y-73286571D01*
X120451523Y-73310380D01*
X120499142Y-73334190D01*
X120594380Y-73334190D01*
X120642000Y-73310380D01*
X120665809Y-73286571D01*
X120689619Y-73238952D01*
X120689619Y-72834190D01*
X119094380Y-73684190D02*
X119261047Y-74184190D01*
X119427714Y-73684190D01*
X119594380Y-74184190D02*
X119594380Y-73684190D01*
X119713428Y-73684190D01*
X119784857Y-73708000D01*
X119832476Y-73755619D01*
X119856285Y-73803238D01*
X119880095Y-73898476D01*
X119880095Y-73969904D01*
X119856285Y-74065142D01*
X119832476Y-74112761D01*
X119784857Y-74160380D01*
X119713428Y-74184190D01*
X119594380Y-74184190D01*
X120094380Y-74184190D02*
X120094380Y-73684190D01*
X120213428Y-73684190D01*
X120284857Y-73708000D01*
X120332476Y-73755619D01*
X120356285Y-73803238D01*
X120380095Y-73898476D01*
X120380095Y-73969904D01*
X120356285Y-74065142D01*
X120332476Y-74112761D01*
X120284857Y-74160380D01*
X120213428Y-74184190D01*
X120094380Y-74184190D01*
X120594380Y-74184190D02*
X120594380Y-73684190D01*
X120927714Y-73684190D02*
X121022952Y-73684190D01*
X121070571Y-73708000D01*
X121118190Y-73755619D01*
X121142000Y-73850857D01*
X121142000Y-74017523D01*
X121118190Y-74112761D01*
X121070571Y-74160380D01*
X121022952Y-74184190D01*
X120927714Y-74184190D01*
X120880095Y-74160380D01*
X120832476Y-74112761D01*
X120808666Y-74017523D01*
X120808666Y-73850857D01*
X120832476Y-73755619D01*
X120880095Y-73708000D01*
X120927714Y-73684190D01*
X116427380Y-80625190D02*
X116594047Y-81125190D01*
X116760714Y-80625190D01*
X116927380Y-81125190D02*
X116927380Y-80625190D01*
X117046428Y-80625190D01*
X117117857Y-80649000D01*
X117165476Y-80696619D01*
X117189285Y-80744238D01*
X117213095Y-80839476D01*
X117213095Y-80910904D01*
X117189285Y-81006142D01*
X117165476Y-81053761D01*
X117117857Y-81101380D01*
X117046428Y-81125190D01*
X116927380Y-81125190D01*
X117427380Y-81125190D02*
X117427380Y-80625190D01*
X117546428Y-80625190D01*
X117617857Y-80649000D01*
X117665476Y-80696619D01*
X117689285Y-80744238D01*
X117713095Y-80839476D01*
X117713095Y-80910904D01*
X117689285Y-81006142D01*
X117665476Y-81053761D01*
X117617857Y-81101380D01*
X117546428Y-81125190D01*
X117427380Y-81125190D01*
X117927380Y-81125190D02*
X117927380Y-80625190D01*
X118260714Y-80625190D02*
X118355952Y-80625190D01*
X118403571Y-80649000D01*
X118451190Y-80696619D01*
X118475000Y-80791857D01*
X118475000Y-80958523D01*
X118451190Y-81053761D01*
X118403571Y-81101380D01*
X118355952Y-81125190D01*
X118260714Y-81125190D01*
X118213095Y-81101380D01*
X118165476Y-81053761D01*
X118141666Y-80958523D01*
X118141666Y-80791857D01*
X118165476Y-80696619D01*
X118213095Y-80649000D01*
X118260714Y-80625190D01*
X121634380Y-73386190D02*
X121801047Y-73886190D01*
X121967714Y-73386190D01*
X122134380Y-73886190D02*
X122134380Y-73386190D01*
X122253428Y-73386190D01*
X122324857Y-73410000D01*
X122372476Y-73457619D01*
X122396285Y-73505238D01*
X122420095Y-73600476D01*
X122420095Y-73671904D01*
X122396285Y-73767142D01*
X122372476Y-73814761D01*
X122324857Y-73862380D01*
X122253428Y-73886190D01*
X122134380Y-73886190D01*
X122634380Y-73886190D02*
X122634380Y-73386190D01*
X122753428Y-73386190D01*
X122824857Y-73410000D01*
X122872476Y-73457619D01*
X122896285Y-73505238D01*
X122920095Y-73600476D01*
X122920095Y-73671904D01*
X122896285Y-73767142D01*
X122872476Y-73814761D01*
X122824857Y-73862380D01*
X122753428Y-73886190D01*
X122634380Y-73886190D01*
X123134380Y-73886190D02*
X123134380Y-73386190D01*
X123467714Y-73386190D02*
X123562952Y-73386190D01*
X123610571Y-73410000D01*
X123658190Y-73457619D01*
X123682000Y-73552857D01*
X123682000Y-73719523D01*
X123658190Y-73814761D01*
X123610571Y-73862380D01*
X123562952Y-73886190D01*
X123467714Y-73886190D01*
X123420095Y-73862380D01*
X123372476Y-73814761D01*
X123348666Y-73719523D01*
X123348666Y-73552857D01*
X123372476Y-73457619D01*
X123420095Y-73410000D01*
X123467714Y-73386190D01*
X138267380Y-83621190D02*
X138267380Y-83121190D01*
X138553095Y-83621190D01*
X138553095Y-83121190D01*
X139076904Y-83621190D02*
X138910238Y-83383095D01*
X138791190Y-83621190D02*
X138791190Y-83121190D01*
X138981666Y-83121190D01*
X139029285Y-83145000D01*
X139053095Y-83168809D01*
X139076904Y-83216428D01*
X139076904Y-83287857D01*
X139053095Y-83335476D01*
X139029285Y-83359285D01*
X138981666Y-83383095D01*
X138791190Y-83383095D01*
X139457857Y-83359285D02*
X139291190Y-83359285D01*
X139291190Y-83621190D02*
X139291190Y-83121190D01*
X139529285Y-83121190D01*
X139600714Y-83668809D02*
X139981666Y-83668809D01*
X138148333Y-83971190D02*
X138315000Y-84471190D01*
X138481666Y-83971190D01*
X138648333Y-84471190D02*
X138648333Y-83971190D01*
X138767380Y-83971190D01*
X138838809Y-83995000D01*
X138886428Y-84042619D01*
X138910238Y-84090238D01*
X138934047Y-84185476D01*
X138934047Y-84256904D01*
X138910238Y-84352142D01*
X138886428Y-84399761D01*
X138838809Y-84447380D01*
X138767380Y-84471190D01*
X138648333Y-84471190D01*
X139148333Y-84471190D02*
X139148333Y-83971190D01*
X139267380Y-83971190D01*
X139338809Y-83995000D01*
X139386428Y-84042619D01*
X139410238Y-84090238D01*
X139434047Y-84185476D01*
X139434047Y-84256904D01*
X139410238Y-84352142D01*
X139386428Y-84399761D01*
X139338809Y-84447380D01*
X139267380Y-84471190D01*
X139148333Y-84471190D01*
X139648333Y-84471190D02*
X139648333Y-83971190D01*
X139767380Y-83971190D01*
X139838809Y-83995000D01*
X139886428Y-84042619D01*
X139910238Y-84090238D01*
X139934047Y-84185476D01*
X139934047Y-84256904D01*
X139910238Y-84352142D01*
X139886428Y-84399761D01*
X139838809Y-84447380D01*
X139767380Y-84471190D01*
X139648333Y-84471190D01*
X125321190Y-101695238D02*
X125321190Y-101980952D01*
X125321190Y-101838095D02*
X124821190Y-101838095D01*
X124892619Y-101885714D01*
X124940238Y-101933333D01*
X124964047Y-101980952D01*
X125321190Y-101219047D02*
X125321190Y-101504761D01*
X125321190Y-101361904D02*
X124821190Y-101361904D01*
X124892619Y-101409523D01*
X124940238Y-101457142D01*
X124964047Y-101504761D01*
D10*
X134667714Y-73291428D02*
X134724857Y-73310476D01*
X134743904Y-73329523D01*
X134762952Y-73367619D01*
X134762952Y-73424761D01*
X134743904Y-73462857D01*
X134724857Y-73481904D01*
X134686761Y-73500952D01*
X134534380Y-73500952D01*
X134534380Y-73100952D01*
X134667714Y-73100952D01*
X134705809Y-73120000D01*
X134724857Y-73139047D01*
X134743904Y-73177142D01*
X134743904Y-73215238D01*
X134724857Y-73253333D01*
X134705809Y-73272380D01*
X134667714Y-73291428D01*
X134534380Y-73291428D01*
X134877238Y-73100952D02*
X135105809Y-73100952D01*
X134991523Y-73500952D02*
X134991523Y-73100952D01*
X135220095Y-73481904D02*
X135277238Y-73500952D01*
X135372476Y-73500952D01*
X135410571Y-73481904D01*
X135429619Y-73462857D01*
X135448666Y-73424761D01*
X135448666Y-73386666D01*
X135429619Y-73348571D01*
X135410571Y-73329523D01*
X135372476Y-73310476D01*
X135296285Y-73291428D01*
X135258190Y-73272380D01*
X135239142Y-73253333D01*
X135220095Y-73215238D01*
X135220095Y-73177142D01*
X135239142Y-73139047D01*
X135258190Y-73120000D01*
X135296285Y-73100952D01*
X135391523Y-73100952D01*
X135448666Y-73120000D01*
X135848666Y-73500952D02*
X135715333Y-73310476D01*
X135620095Y-73500952D02*
X135620095Y-73100952D01*
X135772476Y-73100952D01*
X135810571Y-73120000D01*
X135829619Y-73139047D01*
X135848666Y-73177142D01*
X135848666Y-73234285D01*
X135829619Y-73272380D01*
X135810571Y-73291428D01*
X135772476Y-73310476D01*
X135620095Y-73310476D01*
X136248666Y-73462857D02*
X136229619Y-73481904D01*
X136172476Y-73500952D01*
X136134380Y-73500952D01*
X136077238Y-73481904D01*
X136039142Y-73443809D01*
X136020095Y-73405714D01*
X136001047Y-73329523D01*
X136001047Y-73272380D01*
X136020095Y-73196190D01*
X136039142Y-73158095D01*
X136077238Y-73120000D01*
X136134380Y-73100952D01*
X136172476Y-73100952D01*
X136229619Y-73120000D01*
X136248666Y-73139047D01*
X134924857Y-74161904D02*
X134982000Y-74180952D01*
X135077238Y-74180952D01*
X135115333Y-74161904D01*
X135134380Y-74142857D01*
X135153428Y-74104761D01*
X135153428Y-74066666D01*
X135134380Y-74028571D01*
X135115333Y-74009523D01*
X135077238Y-73990476D01*
X135001047Y-73971428D01*
X134962952Y-73952380D01*
X134943904Y-73933333D01*
X134924857Y-73895238D01*
X134924857Y-73857142D01*
X134943904Y-73819047D01*
X134962952Y-73800000D01*
X135001047Y-73780952D01*
X135096285Y-73780952D01*
X135153428Y-73800000D01*
X135324857Y-73971428D02*
X135458190Y-73971428D01*
X135515333Y-74180952D02*
X135324857Y-74180952D01*
X135324857Y-73780952D01*
X135515333Y-73780952D01*
X135877238Y-74180952D02*
X135686761Y-74180952D01*
X135686761Y-73780952D01*
D11*
X112018000Y-105275000D02*
X111994190Y-105322619D01*
X111994190Y-105394047D01*
X112018000Y-105465476D01*
X112065619Y-105513095D01*
X112113238Y-105536904D01*
X112208476Y-105560714D01*
X112279904Y-105560714D01*
X112375142Y-105536904D01*
X112422761Y-105513095D01*
X112470380Y-105465476D01*
X112494190Y-105394047D01*
X112494190Y-105346428D01*
X112470380Y-105275000D01*
X112446571Y-105251190D01*
X112279904Y-105251190D01*
X112279904Y-105346428D01*
X112494190Y-105036904D02*
X111994190Y-105036904D01*
X111994190Y-104846428D01*
X112018000Y-104798809D01*
X112041809Y-104775000D01*
X112089428Y-104751190D01*
X112160857Y-104751190D01*
X112208476Y-104775000D01*
X112232285Y-104798809D01*
X112256095Y-104846428D01*
X112256095Y-105036904D01*
X112494190Y-104536904D02*
X111994190Y-104536904D01*
X111994190Y-104203571D02*
X111994190Y-104108333D01*
X112018000Y-104060714D01*
X112065619Y-104013095D01*
X112160857Y-103989285D01*
X112327523Y-103989285D01*
X112422761Y-104013095D01*
X112470380Y-104060714D01*
X112494190Y-104108333D01*
X112494190Y-104203571D01*
X112470380Y-104251190D01*
X112422761Y-104298809D01*
X112327523Y-104322619D01*
X112160857Y-104322619D01*
X112065619Y-104298809D01*
X112018000Y-104251190D01*
X111994190Y-104203571D01*
D13*
X140806714Y-101436714D02*
X140806714Y-100674714D01*
X141060714Y-101219000D01*
X141314714Y-100674714D01*
X141314714Y-101436714D01*
X142004142Y-101400428D02*
X141931571Y-101436714D01*
X141786428Y-101436714D01*
X141713857Y-101400428D01*
X141677571Y-101364142D01*
X141641285Y-101291571D01*
X141641285Y-101073857D01*
X141677571Y-101001285D01*
X141713857Y-100965000D01*
X141786428Y-100928714D01*
X141931571Y-100928714D01*
X142004142Y-100965000D01*
X142766142Y-101364142D02*
X142729857Y-101400428D01*
X142621000Y-101436714D01*
X142548428Y-101436714D01*
X142439571Y-101400428D01*
X142367000Y-101327857D01*
X142330714Y-101255285D01*
X142294428Y-101110142D01*
X142294428Y-101001285D01*
X142330714Y-100856142D01*
X142367000Y-100783571D01*
X142439571Y-100711000D01*
X142548428Y-100674714D01*
X142621000Y-100674714D01*
X142729857Y-100711000D01*
X142766142Y-100747285D01*
X143201571Y-101436714D02*
X143129000Y-101400428D01*
X143092714Y-101364142D01*
X143056428Y-101291571D01*
X143056428Y-101073857D01*
X143092714Y-101001285D01*
X143129000Y-100965000D01*
X143201571Y-100928714D01*
X143310428Y-100928714D01*
X143383000Y-100965000D01*
X143419285Y-101001285D01*
X143455571Y-101073857D01*
X143455571Y-101291571D01*
X143419285Y-101364142D01*
X143383000Y-101400428D01*
X143310428Y-101436714D01*
X143201571Y-101436714D01*
X143709571Y-100928714D02*
X143891000Y-101436714D01*
X144072428Y-100928714D02*
X143891000Y-101436714D01*
X143818428Y-101618142D01*
X143782142Y-101654428D01*
X143709571Y-101690714D01*
X144870714Y-100928714D02*
X145052142Y-101436714D01*
X145233571Y-100928714D01*
X145451285Y-100674714D02*
X145923000Y-100674714D01*
X145669000Y-100965000D01*
X145777857Y-100965000D01*
X145850428Y-101001285D01*
X145886714Y-101037571D01*
X145923000Y-101110142D01*
X145923000Y-101291571D01*
X145886714Y-101364142D01*
X145850428Y-101400428D01*
X145777857Y-101436714D01*
X145560142Y-101436714D01*
X145487571Y-101400428D01*
X145451285Y-101364142D01*
X146249571Y-101364142D02*
X146285857Y-101400428D01*
X146249571Y-101436714D01*
X146213285Y-101400428D01*
X146249571Y-101364142D01*
X146249571Y-101436714D01*
X146757571Y-100674714D02*
X146830142Y-100674714D01*
X146902714Y-100711000D01*
X146939000Y-100747285D01*
X146975285Y-100819857D01*
X147011571Y-100965000D01*
X147011571Y-101146428D01*
X146975285Y-101291571D01*
X146939000Y-101364142D01*
X146902714Y-101400428D01*
X146830142Y-101436714D01*
X146757571Y-101436714D01*
X146685000Y-101400428D01*
X146648714Y-101364142D01*
X146612428Y-101291571D01*
X146576142Y-101146428D01*
X146576142Y-100965000D01*
X146612428Y-100819857D01*
X146648714Y-100747285D01*
X146685000Y-100711000D01*
X146757571Y-100674714D01*
D11*
X138684047Y-91190000D02*
X138636428Y-91166190D01*
X138565000Y-91166190D01*
X138493571Y-91190000D01*
X138445952Y-91237619D01*
X138422142Y-91285238D01*
X138398333Y-91380476D01*
X138398333Y-91451904D01*
X138422142Y-91547142D01*
X138445952Y-91594761D01*
X138493571Y-91642380D01*
X138565000Y-91666190D01*
X138612619Y-91666190D01*
X138684047Y-91642380D01*
X138707857Y-91618571D01*
X138707857Y-91451904D01*
X138612619Y-91451904D01*
X138922142Y-91666190D02*
X138922142Y-91166190D01*
X139207857Y-91666190D01*
X139207857Y-91166190D01*
X139445952Y-91666190D02*
X139445952Y-91166190D01*
X139565000Y-91166190D01*
X139636428Y-91190000D01*
X139684047Y-91237619D01*
X139707857Y-91285238D01*
X139731666Y-91380476D01*
X139731666Y-91451904D01*
X139707857Y-91547142D01*
X139684047Y-91594761D01*
X139636428Y-91642380D01*
X139565000Y-91666190D01*
X139445952Y-91666190D01*
X114300047Y-73410000D02*
X114252428Y-73386190D01*
X114181000Y-73386190D01*
X114109571Y-73410000D01*
X114061952Y-73457619D01*
X114038142Y-73505238D01*
X114014333Y-73600476D01*
X114014333Y-73671904D01*
X114038142Y-73767142D01*
X114061952Y-73814761D01*
X114109571Y-73862380D01*
X114181000Y-73886190D01*
X114228619Y-73886190D01*
X114300047Y-73862380D01*
X114323857Y-73838571D01*
X114323857Y-73671904D01*
X114228619Y-73671904D01*
X114538142Y-73886190D02*
X114538142Y-73386190D01*
X114823857Y-73886190D01*
X114823857Y-73386190D01*
X115061952Y-73886190D02*
X115061952Y-73386190D01*
X115181000Y-73386190D01*
X115252428Y-73410000D01*
X115300047Y-73457619D01*
X115323857Y-73505238D01*
X115347666Y-73600476D01*
X115347666Y-73671904D01*
X115323857Y-73767142D01*
X115300047Y-73814761D01*
X115252428Y-73862380D01*
X115181000Y-73886190D01*
X115061952Y-73886190D01*
X121606571Y-80625190D02*
X121773238Y-81125190D01*
X121939904Y-80625190D01*
X122273238Y-80863285D02*
X122344666Y-80887095D01*
X122368476Y-80910904D01*
X122392285Y-80958523D01*
X122392285Y-81029952D01*
X122368476Y-81077571D01*
X122344666Y-81101380D01*
X122297047Y-81125190D01*
X122106571Y-81125190D01*
X122106571Y-80625190D01*
X122273238Y-80625190D01*
X122320857Y-80649000D01*
X122344666Y-80672809D01*
X122368476Y-80720428D01*
X122368476Y-80768047D01*
X122344666Y-80815666D01*
X122320857Y-80839476D01*
X122273238Y-80863285D01*
X122106571Y-80863285D01*
X122582761Y-80982333D02*
X122820857Y-80982333D01*
X122535142Y-81125190D02*
X122701809Y-80625190D01*
X122868476Y-81125190D01*
X122963714Y-80625190D02*
X123249428Y-80625190D01*
X123106571Y-81125190D02*
X123106571Y-80625190D01*
X118967380Y-80625190D02*
X119134047Y-81125190D01*
X119300714Y-80625190D01*
X119467380Y-81125190D02*
X119467380Y-80625190D01*
X119586428Y-80625190D01*
X119657857Y-80649000D01*
X119705476Y-80696619D01*
X119729285Y-80744238D01*
X119753095Y-80839476D01*
X119753095Y-80910904D01*
X119729285Y-81006142D01*
X119705476Y-81053761D01*
X119657857Y-81101380D01*
X119586428Y-81125190D01*
X119467380Y-81125190D01*
X119967380Y-81125190D02*
X119967380Y-80625190D01*
X120086428Y-80625190D01*
X120157857Y-80649000D01*
X120205476Y-80696619D01*
X120229285Y-80744238D01*
X120253095Y-80839476D01*
X120253095Y-80910904D01*
X120229285Y-81006142D01*
X120205476Y-81053761D01*
X120157857Y-81101380D01*
X120086428Y-81125190D01*
X119967380Y-81125190D01*
X120467380Y-81125190D02*
X120467380Y-80625190D01*
X120800714Y-80625190D02*
X120895952Y-80625190D01*
X120943571Y-80649000D01*
X120991190Y-80696619D01*
X121015000Y-80791857D01*
X121015000Y-80958523D01*
X120991190Y-81053761D01*
X120943571Y-81101380D01*
X120895952Y-81125190D01*
X120800714Y-81125190D01*
X120753095Y-81101380D01*
X120705476Y-81053761D01*
X120681666Y-80958523D01*
X120681666Y-80791857D01*
X120705476Y-80696619D01*
X120753095Y-80649000D01*
X120800714Y-80625190D01*
X116927380Y-73334190D02*
X116927380Y-72834190D01*
X117165476Y-73334190D02*
X117165476Y-72834190D01*
X117332142Y-73191333D01*
X117498809Y-72834190D01*
X117498809Y-73334190D01*
X117736904Y-72834190D02*
X117736904Y-73238952D01*
X117760714Y-73286571D01*
X117784523Y-73310380D01*
X117832142Y-73334190D01*
X117927380Y-73334190D01*
X117975000Y-73310380D01*
X117998809Y-73286571D01*
X118022619Y-73238952D01*
X118022619Y-72834190D01*
X116808333Y-73684190D02*
X116975000Y-74184190D01*
X117141666Y-73684190D01*
X117308333Y-74184190D02*
X117308333Y-73684190D01*
X117427380Y-73684190D01*
X117498809Y-73708000D01*
X117546428Y-73755619D01*
X117570238Y-73803238D01*
X117594047Y-73898476D01*
X117594047Y-73969904D01*
X117570238Y-74065142D01*
X117546428Y-74112761D01*
X117498809Y-74160380D01*
X117427380Y-74184190D01*
X117308333Y-74184190D01*
X117808333Y-74184190D02*
X117808333Y-73684190D01*
X117927380Y-73684190D01*
X117998809Y-73708000D01*
X118046428Y-73755619D01*
X118070238Y-73803238D01*
X118094047Y-73898476D01*
X118094047Y-73969904D01*
X118070238Y-74065142D01*
X118046428Y-74112761D01*
X117998809Y-74160380D01*
X117927380Y-74184190D01*
X117808333Y-74184190D01*
X135481190Y-101695238D02*
X135481190Y-101980952D01*
X135481190Y-101838095D02*
X134981190Y-101838095D01*
X135052619Y-101885714D01*
X135100238Y-101933333D01*
X135124047Y-101980952D01*
X134981190Y-101242857D02*
X134981190Y-101480952D01*
X135219285Y-101504761D01*
X135195476Y-101480952D01*
X135171666Y-101433333D01*
X135171666Y-101314285D01*
X135195476Y-101266666D01*
X135219285Y-101242857D01*
X135266904Y-101219047D01*
X135385952Y-101219047D01*
X135433571Y-101242857D01*
X135457380Y-101266666D01*
X135481190Y-101314285D01*
X135481190Y-101433333D01*
X135457380Y-101480952D01*
X135433571Y-101504761D01*
X132941190Y-101695238D02*
X132941190Y-101980952D01*
X132941190Y-101838095D02*
X132441190Y-101838095D01*
X132512619Y-101885714D01*
X132560238Y-101933333D01*
X132584047Y-101980952D01*
X132607857Y-101266666D02*
X132941190Y-101266666D01*
X132417380Y-101385714D02*
X132774523Y-101504761D01*
X132774523Y-101195238D01*
X130401190Y-101695238D02*
X130401190Y-101980952D01*
X130401190Y-101838095D02*
X129901190Y-101838095D01*
X129972619Y-101885714D01*
X130020238Y-101933333D01*
X130044047Y-101980952D01*
X129901190Y-101528571D02*
X129901190Y-101219047D01*
X130091666Y-101385714D01*
X130091666Y-101314285D01*
X130115476Y-101266666D01*
X130139285Y-101242857D01*
X130186904Y-101219047D01*
X130305952Y-101219047D01*
X130353571Y-101242857D01*
X130377380Y-101266666D01*
X130401190Y-101314285D01*
X130401190Y-101457142D01*
X130377380Y-101504761D01*
X130353571Y-101528571D01*
X127861190Y-101695238D02*
X127861190Y-101980952D01*
X127861190Y-101838095D02*
X127361190Y-101838095D01*
X127432619Y-101885714D01*
X127480238Y-101933333D01*
X127504047Y-101980952D01*
X127408809Y-101504761D02*
X127385000Y-101480952D01*
X127361190Y-101433333D01*
X127361190Y-101314285D01*
X127385000Y-101266666D01*
X127408809Y-101242857D01*
X127456428Y-101219047D01*
X127504047Y-101219047D01*
X127575476Y-101242857D01*
X127861190Y-101528571D01*
X127861190Y-101219047D01*
X138624523Y-86586190D02*
X138457857Y-86348095D01*
X138338809Y-86586190D02*
X138338809Y-86086190D01*
X138529285Y-86086190D01*
X138576904Y-86110000D01*
X138600714Y-86133809D01*
X138624523Y-86181428D01*
X138624523Y-86252857D01*
X138600714Y-86300476D01*
X138576904Y-86324285D01*
X138529285Y-86348095D01*
X138338809Y-86348095D01*
X138815000Y-86562380D02*
X138862619Y-86586190D01*
X138957857Y-86586190D01*
X139005476Y-86562380D01*
X139029285Y-86514761D01*
X139029285Y-86490952D01*
X139005476Y-86443333D01*
X138957857Y-86419523D01*
X138886428Y-86419523D01*
X138838809Y-86395714D01*
X138815000Y-86348095D01*
X138815000Y-86324285D01*
X138838809Y-86276666D01*
X138886428Y-86252857D01*
X138957857Y-86252857D01*
X139005476Y-86276666D01*
X139172142Y-86086190D02*
X139457857Y-86086190D01*
X139315000Y-86586190D02*
X139315000Y-86086190D01*
X139576904Y-86586190D02*
X139838809Y-86252857D01*
X139576904Y-86252857D02*
X139838809Y-86586190D01*
X138565000Y-89126190D02*
X138398333Y-88888095D01*
X138279285Y-89126190D02*
X138279285Y-88626190D01*
X138469761Y-88626190D01*
X138517380Y-88650000D01*
X138541190Y-88673809D01*
X138565000Y-88721428D01*
X138565000Y-88792857D01*
X138541190Y-88840476D01*
X138517380Y-88864285D01*
X138469761Y-88888095D01*
X138279285Y-88888095D01*
X138755476Y-89102380D02*
X138803095Y-89126190D01*
X138898333Y-89126190D01*
X138945952Y-89102380D01*
X138969761Y-89054761D01*
X138969761Y-89030952D01*
X138945952Y-88983333D01*
X138898333Y-88959523D01*
X138826904Y-88959523D01*
X138779285Y-88935714D01*
X138755476Y-88888095D01*
X138755476Y-88864285D01*
X138779285Y-88816666D01*
X138826904Y-88792857D01*
X138898333Y-88792857D01*
X138945952Y-88816666D01*
X139469761Y-89126190D02*
X139303095Y-88888095D01*
X139184047Y-89126190D02*
X139184047Y-88626190D01*
X139374523Y-88626190D01*
X139422142Y-88650000D01*
X139445952Y-88673809D01*
X139469761Y-88721428D01*
X139469761Y-88792857D01*
X139445952Y-88840476D01*
X139422142Y-88864285D01*
X139374523Y-88888095D01*
X139184047Y-88888095D01*
X139636428Y-89126190D02*
X139898333Y-88792857D01*
X139636428Y-88792857D02*
X139898333Y-89126190D01*
X145982619Y-88201190D02*
X146292142Y-88201190D01*
X146125476Y-88391666D01*
X146196904Y-88391666D01*
X146244523Y-88415476D01*
X146268333Y-88439285D01*
X146292142Y-88486904D01*
X146292142Y-88605952D01*
X146268333Y-88653571D01*
X146244523Y-88677380D01*
X146196904Y-88701190D01*
X146054047Y-88701190D01*
X146006428Y-88677380D01*
X145982619Y-88653571D01*
X146458809Y-88201190D02*
X146577857Y-88701190D01*
X146673095Y-88344047D01*
X146768333Y-88701190D01*
X146887380Y-88201190D01*
X147244523Y-88439285D02*
X147315952Y-88463095D01*
X147339761Y-88486904D01*
X147363571Y-88534523D01*
X147363571Y-88605952D01*
X147339761Y-88653571D01*
X147315952Y-88677380D01*
X147268333Y-88701190D01*
X147077857Y-88701190D01*
X147077857Y-88201190D01*
X147244523Y-88201190D01*
X147292142Y-88225000D01*
X147315952Y-88248809D01*
X147339761Y-88296428D01*
X147339761Y-88344047D01*
X147315952Y-88391666D01*
X147292142Y-88415476D01*
X147244523Y-88439285D01*
X147077857Y-88439285D01*
X146387380Y-89503571D02*
X146363571Y-89527380D01*
X146292142Y-89551190D01*
X146244523Y-89551190D01*
X146173095Y-89527380D01*
X146125476Y-89479761D01*
X146101666Y-89432142D01*
X146077857Y-89336904D01*
X146077857Y-89265476D01*
X146101666Y-89170238D01*
X146125476Y-89122619D01*
X146173095Y-89075000D01*
X146244523Y-89051190D01*
X146292142Y-89051190D01*
X146363571Y-89075000D01*
X146387380Y-89098809D01*
X146839761Y-89551190D02*
X146601666Y-89551190D01*
X146601666Y-89051190D01*
X147006428Y-89551190D02*
X147006428Y-89051190D01*
X147292142Y-89551190D02*
X147077857Y-89265476D01*
X147292142Y-89051190D02*
X147006428Y-89336904D01*
X145982619Y-90741190D02*
X146292142Y-90741190D01*
X146125476Y-90931666D01*
X146196904Y-90931666D01*
X146244523Y-90955476D01*
X146268333Y-90979285D01*
X146292142Y-91026904D01*
X146292142Y-91145952D01*
X146268333Y-91193571D01*
X146244523Y-91217380D01*
X146196904Y-91241190D01*
X146054047Y-91241190D01*
X146006428Y-91217380D01*
X145982619Y-91193571D01*
X146458809Y-90741190D02*
X146577857Y-91241190D01*
X146673095Y-90884047D01*
X146768333Y-91241190D01*
X146887380Y-90741190D01*
X147244523Y-90979285D02*
X147315952Y-91003095D01*
X147339761Y-91026904D01*
X147363571Y-91074523D01*
X147363571Y-91145952D01*
X147339761Y-91193571D01*
X147315952Y-91217380D01*
X147268333Y-91241190D01*
X147077857Y-91241190D01*
X147077857Y-90741190D01*
X147244523Y-90741190D01*
X147292142Y-90765000D01*
X147315952Y-90788809D01*
X147339761Y-90836428D01*
X147339761Y-90884047D01*
X147315952Y-90931666D01*
X147292142Y-90955476D01*
X147244523Y-90979285D01*
X147077857Y-90979285D01*
X146065952Y-91829285D02*
X146232619Y-91829285D01*
X146304047Y-92091190D02*
X146065952Y-92091190D01*
X146065952Y-91591190D01*
X146304047Y-91591190D01*
X146518333Y-92091190D02*
X146518333Y-91591190D01*
X146804047Y-92091190D01*
X146804047Y-91591190D01*
X147208809Y-91829285D02*
X147280238Y-91853095D01*
X147304047Y-91876904D01*
X147327857Y-91924523D01*
X147327857Y-91995952D01*
X147304047Y-92043571D01*
X147280238Y-92067380D01*
X147232619Y-92091190D01*
X147042142Y-92091190D01*
X147042142Y-91591190D01*
X147208809Y-91591190D01*
X147256428Y-91615000D01*
X147280238Y-91638809D01*
X147304047Y-91686428D01*
X147304047Y-91734047D01*
X147280238Y-91781666D01*
X147256428Y-91805476D01*
X147208809Y-91829285D01*
X147042142Y-91829285D01*
D10*
X145982619Y-93291190D02*
X146292142Y-93291190D01*
X146125476Y-93481666D01*
X146196904Y-93481666D01*
X146244523Y-93505476D01*
X146268333Y-93529285D01*
X146292142Y-93576904D01*
X146292142Y-93695952D01*
X146268333Y-93743571D01*
X146244523Y-93767380D01*
X146196904Y-93791190D01*
X146054047Y-93791190D01*
X146006428Y-93767380D01*
X145982619Y-93743571D01*
X146458809Y-93291190D02*
X146577857Y-93791190D01*
X146673095Y-93434047D01*
X146768333Y-93791190D01*
X146887380Y-93291190D01*
X147244523Y-93529285D02*
X147315952Y-93553095D01*
X147339761Y-93576904D01*
X147363571Y-93624523D01*
X147363571Y-93695952D01*
X147339761Y-93743571D01*
X147315952Y-93767380D01*
X147268333Y-93791190D01*
X147077857Y-93791190D01*
X147077857Y-93291190D01*
X147244523Y-93291190D01*
X147292142Y-93315000D01*
X147315952Y-93338809D01*
X147339761Y-93386428D01*
X147339761Y-93434047D01*
X147315952Y-93481666D01*
X147292142Y-93505476D01*
X147244523Y-93529285D01*
X147077857Y-93529285D01*
X145935000Y-94621190D02*
X145935000Y-94121190D01*
X146054047Y-94121190D01*
X146125476Y-94145000D01*
X146173095Y-94192619D01*
X146196904Y-94240238D01*
X146220714Y-94335476D01*
X146220714Y-94406904D01*
X146196904Y-94502142D01*
X146173095Y-94549761D01*
X146125476Y-94597380D01*
X146054047Y-94621190D01*
X145935000Y-94621190D01*
X146411190Y-94478333D02*
X146649285Y-94478333D01*
X146363571Y-94621190D02*
X146530238Y-94121190D01*
X146696904Y-94621190D01*
X146792142Y-94121190D02*
X147077857Y-94121190D01*
X146935000Y-94621190D02*
X146935000Y-94121190D01*
X147220714Y-94478333D02*
X147458809Y-94478333D01*
X147173095Y-94621190D02*
X147339761Y-94121190D01*
X147506428Y-94621190D01*
X137426761Y-73513666D02*
X137617238Y-73513666D01*
X137388666Y-73627952D02*
X137522000Y-73227952D01*
X137655333Y-73627952D01*
X137788666Y-73627952D02*
X137788666Y-73227952D01*
X137883904Y-73227952D01*
X137941047Y-73247000D01*
X137979142Y-73285095D01*
X137998190Y-73323190D01*
X138017238Y-73399380D01*
X138017238Y-73456523D01*
X137998190Y-73532714D01*
X137979142Y-73570809D01*
X137941047Y-73608904D01*
X137883904Y-73627952D01*
X137788666Y-73627952D01*
X138417238Y-73589857D02*
X138398190Y-73608904D01*
X138341047Y-73627952D01*
X138302952Y-73627952D01*
X138245809Y-73608904D01*
X138207714Y-73570809D01*
X138188666Y-73532714D01*
X138169619Y-73456523D01*
X138169619Y-73399380D01*
X138188666Y-73323190D01*
X138207714Y-73285095D01*
X138245809Y-73247000D01*
X138302952Y-73227952D01*
X138341047Y-73227952D01*
X138398190Y-73247000D01*
X138417238Y-73266047D01*
X137522000Y-73907952D02*
X137598190Y-73907952D01*
X137636285Y-73927000D01*
X137674380Y-73965095D01*
X137693428Y-74041285D01*
X137693428Y-74174619D01*
X137674380Y-74250809D01*
X137636285Y-74288904D01*
X137598190Y-74307952D01*
X137522000Y-74307952D01*
X137483904Y-74288904D01*
X137445809Y-74250809D01*
X137426761Y-74174619D01*
X137426761Y-74041285D01*
X137445809Y-73965095D01*
X137483904Y-73927000D01*
X137522000Y-73907952D01*
X137864857Y-73907952D02*
X137864857Y-74231761D01*
X137883904Y-74269857D01*
X137902952Y-74288904D01*
X137941047Y-74307952D01*
X138017238Y-74307952D01*
X138055333Y-74288904D01*
X138074380Y-74269857D01*
X138093428Y-74231761D01*
X138093428Y-73907952D01*
X138226761Y-73907952D02*
X138455333Y-73907952D01*
X138341047Y-74307952D02*
X138341047Y-73907952D01*
D11*
X124178333Y-80625190D02*
X124345000Y-81125190D01*
X124511666Y-80625190D01*
X124678333Y-81125190D02*
X124678333Y-80625190D01*
X124797380Y-80625190D01*
X124868809Y-80649000D01*
X124916428Y-80696619D01*
X124940238Y-80744238D01*
X124964047Y-80839476D01*
X124964047Y-80910904D01*
X124940238Y-81006142D01*
X124916428Y-81053761D01*
X124868809Y-81101380D01*
X124797380Y-81125190D01*
X124678333Y-81125190D01*
X125178333Y-81125190D02*
X125178333Y-80625190D01*
X125297380Y-80625190D01*
X125368809Y-80649000D01*
X125416428Y-80696619D01*
X125440238Y-80744238D01*
X125464047Y-80839476D01*
X125464047Y-80910904D01*
X125440238Y-81006142D01*
X125416428Y-81053761D01*
X125368809Y-81101380D01*
X125297380Y-81125190D01*
X125178333Y-81125190D01*
X125678333Y-81125190D02*
X125678333Y-80625190D01*
X125797380Y-80625190D01*
X125868809Y-80649000D01*
X125916428Y-80696619D01*
X125940238Y-80744238D01*
X125964047Y-80839476D01*
X125964047Y-80910904D01*
X125940238Y-81006142D01*
X125916428Y-81053761D01*
X125868809Y-81101380D01*
X125797380Y-81125190D01*
X125678333Y-81125190D01*
X145863571Y-83546190D02*
X146030238Y-84046190D01*
X146196904Y-83546190D01*
X146530238Y-83784285D02*
X146601666Y-83808095D01*
X146625476Y-83831904D01*
X146649285Y-83879523D01*
X146649285Y-83950952D01*
X146625476Y-83998571D01*
X146601666Y-84022380D01*
X146554047Y-84046190D01*
X146363571Y-84046190D01*
X146363571Y-83546190D01*
X146530238Y-83546190D01*
X146577857Y-83570000D01*
X146601666Y-83593809D01*
X146625476Y-83641428D01*
X146625476Y-83689047D01*
X146601666Y-83736666D01*
X146577857Y-83760476D01*
X146530238Y-83784285D01*
X146363571Y-83784285D01*
X146839761Y-83903333D02*
X147077857Y-83903333D01*
X146792142Y-84046190D02*
X146958809Y-83546190D01*
X147125476Y-84046190D01*
X147220714Y-83546190D02*
X147506428Y-83546190D01*
X147363571Y-84046190D02*
X147363571Y-83546190D01*
X122781190Y-101695238D02*
X122781190Y-101980952D01*
X122781190Y-101838095D02*
X122281190Y-101838095D01*
X122352619Y-101885714D01*
X122400238Y-101933333D01*
X122424047Y-101980952D01*
X122281190Y-101385714D02*
X122281190Y-101338095D01*
X122305000Y-101290476D01*
X122328809Y-101266666D01*
X122376428Y-101242857D01*
X122471666Y-101219047D01*
X122590714Y-101219047D01*
X122685952Y-101242857D01*
X122733571Y-101266666D01*
X122757380Y-101290476D01*
X122781190Y-101338095D01*
X122781190Y-101385714D01*
X122757380Y-101433333D01*
X122733571Y-101457142D01*
X122685952Y-101480952D01*
X122590714Y-101504761D01*
X122471666Y-101504761D01*
X122376428Y-101480952D01*
X122328809Y-101457142D01*
X122305000Y-101433333D01*
X122281190Y-101385714D01*
X120241190Y-101695238D02*
X120241190Y-101600000D01*
X120217380Y-101552380D01*
X120193571Y-101528571D01*
X120122142Y-101480952D01*
X120026904Y-101457142D01*
X119836428Y-101457142D01*
X119788809Y-101480952D01*
X119765000Y-101504761D01*
X119741190Y-101552380D01*
X119741190Y-101647619D01*
X119765000Y-101695238D01*
X119788809Y-101719047D01*
X119836428Y-101742857D01*
X119955476Y-101742857D01*
X120003095Y-101719047D01*
X120026904Y-101695238D01*
X120050714Y-101647619D01*
X120050714Y-101552380D01*
X120026904Y-101504761D01*
X120003095Y-101480952D01*
X119955476Y-101457142D01*
X117415476Y-101647619D02*
X117391666Y-101695238D01*
X117367857Y-101719047D01*
X117320238Y-101742857D01*
X117296428Y-101742857D01*
X117248809Y-101719047D01*
X117225000Y-101695238D01*
X117201190Y-101647619D01*
X117201190Y-101552380D01*
X117225000Y-101504761D01*
X117248809Y-101480952D01*
X117296428Y-101457142D01*
X117320238Y-101457142D01*
X117367857Y-101480952D01*
X117391666Y-101504761D01*
X117415476Y-101552380D01*
X117415476Y-101647619D01*
X117439285Y-101695238D01*
X117463095Y-101719047D01*
X117510714Y-101742857D01*
X117605952Y-101742857D01*
X117653571Y-101719047D01*
X117677380Y-101695238D01*
X117701190Y-101647619D01*
X117701190Y-101552380D01*
X117677380Y-101504761D01*
X117653571Y-101480952D01*
X117605952Y-101457142D01*
X117510714Y-101457142D01*
X117463095Y-101480952D01*
X117439285Y-101504761D01*
X117415476Y-101552380D01*
X134981190Y-108116666D02*
X134981190Y-107783333D01*
X135481190Y-107997619D01*
X132441190Y-107854761D02*
X132441190Y-107950000D01*
X132465000Y-107997619D01*
X132488809Y-108021428D01*
X132560238Y-108069047D01*
X132655476Y-108092857D01*
X132845952Y-108092857D01*
X132893571Y-108069047D01*
X132917380Y-108045238D01*
X132941190Y-107997619D01*
X132941190Y-107902380D01*
X132917380Y-107854761D01*
X132893571Y-107830952D01*
X132845952Y-107807142D01*
X132726904Y-107807142D01*
X132679285Y-107830952D01*
X132655476Y-107854761D01*
X132631666Y-107902380D01*
X132631666Y-107997619D01*
X132655476Y-108045238D01*
X132679285Y-108069047D01*
X132726904Y-108092857D01*
X129901190Y-107830952D02*
X129901190Y-108069047D01*
X130139285Y-108092857D01*
X130115476Y-108069047D01*
X130091666Y-108021428D01*
X130091666Y-107902380D01*
X130115476Y-107854761D01*
X130139285Y-107830952D01*
X130186904Y-107807142D01*
X130305952Y-107807142D01*
X130353571Y-107830952D01*
X130377380Y-107854761D01*
X130401190Y-107902380D01*
X130401190Y-108021428D01*
X130377380Y-108069047D01*
X130353571Y-108092857D01*
X127527857Y-107854761D02*
X127861190Y-107854761D01*
X127337380Y-107973809D02*
X127694523Y-108092857D01*
X127694523Y-107783333D01*
X124821190Y-108116666D02*
X124821190Y-107807142D01*
X125011666Y-107973809D01*
X125011666Y-107902380D01*
X125035476Y-107854761D01*
X125059285Y-107830952D01*
X125106904Y-107807142D01*
X125225952Y-107807142D01*
X125273571Y-107830952D01*
X125297380Y-107854761D01*
X125321190Y-107902380D01*
X125321190Y-108045238D01*
X125297380Y-108092857D01*
X125273571Y-108116666D01*
X122328809Y-108092857D02*
X122305000Y-108069047D01*
X122281190Y-108021428D01*
X122281190Y-107902380D01*
X122305000Y-107854761D01*
X122328809Y-107830952D01*
X122376428Y-107807142D01*
X122424047Y-107807142D01*
X122495476Y-107830952D01*
X122781190Y-108116666D01*
X122781190Y-107807142D01*
X120241190Y-107807142D02*
X120241190Y-108092857D01*
X120241190Y-107950000D02*
X119741190Y-107950000D01*
X119812619Y-107997619D01*
X119860238Y-108045238D01*
X119884047Y-108092857D01*
X117201190Y-107973809D02*
X117201190Y-107926190D01*
X117225000Y-107878571D01*
X117248809Y-107854761D01*
X117296428Y-107830952D01*
X117391666Y-107807142D01*
X117510714Y-107807142D01*
X117605952Y-107830952D01*
X117653571Y-107854761D01*
X117677380Y-107878571D01*
X117701190Y-107926190D01*
X117701190Y-107973809D01*
X117677380Y-108021428D01*
X117653571Y-108045238D01*
X117605952Y-108069047D01*
X117510714Y-108092857D01*
X117391666Y-108092857D01*
X117296428Y-108069047D01*
X117248809Y-108045238D01*
X117225000Y-108021428D01*
X117201190Y-107973809D01*
D13*
G04 #@! TO.C,U3*
X111679000Y-84718999D02*
X111679000Y-83118999D01*
X113619000Y-84718999D02*
X113619000Y-83118999D01*
D11*
X112199000Y-85518999D02*
G75*
G03*
X112199000Y-85518999I-50000J0D01*
G01*
D13*
G04 #@! TO.C,U2*
X111627999Y-90814999D02*
X111627999Y-89214999D01*
X113567999Y-90814999D02*
X113567999Y-89214999D01*
D11*
X112147999Y-91614999D02*
G75*
G03*
X112147999Y-91614999I-50000J0D01*
G01*
D14*
G04 #@! TO.C,C_1.8_OUT1*
X109399000Y-89761422D02*
X109399000Y-90278578D01*
X110819000Y-89761422D02*
X110819000Y-90278578D01*
G04 #@! TO.C,C_1.1_OUT1*
X109399000Y-83639922D02*
X109399000Y-84157078D01*
X110819000Y-83639922D02*
X110819000Y-84157078D01*
G04 #@! TO.C,J1*
X113605000Y-80070000D02*
X113605000Y-78740000D01*
X114935000Y-80070000D02*
X113605000Y-80070000D01*
X113605000Y-77470000D02*
X113605000Y-74870000D01*
X116205000Y-77470000D02*
X113605000Y-77470000D01*
X116205000Y-80070000D02*
X116205000Y-77470000D01*
X113605000Y-74870000D02*
X139125000Y-74870000D01*
X116205000Y-80070000D02*
X139125000Y-80070000D01*
X139125000Y-80070000D02*
X139125000Y-74870000D01*
G04 #@! TO.C,J3*
X140275000Y-82490000D02*
X141605000Y-82490000D01*
X140275000Y-83820000D02*
X140275000Y-82490000D01*
X142875000Y-82490000D02*
X145475000Y-82490000D01*
X142875000Y-85090000D02*
X142875000Y-82490000D01*
X140275000Y-85090000D02*
X142875000Y-85090000D01*
X145475000Y-82490000D02*
X145475000Y-95310000D01*
X140275000Y-85090000D02*
X140275000Y-95310000D01*
X140275000Y-95310000D02*
X145475000Y-95310000D01*
G04 #@! TO.C,J4*
X115510000Y-92135000D02*
X118170000Y-92135000D01*
X115510000Y-92075000D02*
X115510000Y-92135000D01*
X118170000Y-92075000D02*
X118170000Y-92135000D01*
X115510000Y-92075000D02*
X118170000Y-92075000D01*
X115510000Y-90805000D02*
X115510000Y-89475000D01*
X115510000Y-89475000D02*
X116840000Y-89475000D01*
G04 #@! TO.C,J2*
X113605000Y-107375000D02*
X113605000Y-106045000D01*
X114935000Y-107375000D02*
X113605000Y-107375000D01*
X113605000Y-104775000D02*
X113605000Y-102175000D01*
X116205000Y-104775000D02*
X113605000Y-104775000D01*
X116205000Y-107375000D02*
X116205000Y-104775000D01*
X113605000Y-102175000D02*
X139125000Y-102175000D01*
X116205000Y-107375000D02*
X139125000Y-107375000D01*
X139125000Y-107375000D02*
X139125000Y-102175000D01*
G04 #@! TO.C,U1*
X121165000Y-84205000D02*
X119965000Y-84205000D01*
X120215000Y-96505000D02*
X120215000Y-95555000D01*
X121165000Y-96505000D02*
X120215000Y-96505000D01*
X132515000Y-96505000D02*
X132515000Y-95555000D01*
X131565000Y-96505000D02*
X132515000Y-96505000D01*
X132515000Y-84205000D02*
X132515000Y-85155000D01*
X131565000Y-84205000D02*
X132515000Y-84205000D01*
D12*
G04 #@! TO.C,U9AB1*
X113360000Y-96825000D02*
X113360000Y-97225000D01*
X113360000Y-96825000D02*
X112960000Y-96825000D01*
X110160000Y-96825000D02*
X110160000Y-97225000D01*
X110160000Y-96825000D02*
X110560000Y-96825000D01*
X110160000Y-100025000D02*
X110160000Y-99625000D01*
X110160000Y-100025000D02*
X110560000Y-100025000D01*
X113360000Y-100025000D02*
X112960000Y-100025000D01*
G04 #@! TO.C,R4*
D15*
X127550333Y-83160809D02*
X127381000Y-82918904D01*
X127260047Y-83160809D02*
X127260047Y-82652809D01*
X127453571Y-82652809D01*
X127501952Y-82677000D01*
X127526142Y-82701190D01*
X127550333Y-82749571D01*
X127550333Y-82822142D01*
X127526142Y-82870523D01*
X127501952Y-82894714D01*
X127453571Y-82918904D01*
X127260047Y-82918904D01*
X127985761Y-82822142D02*
X127985761Y-83160809D01*
X127864809Y-82628619D02*
X127743857Y-82991476D01*
X128058333Y-82991476D01*
G04 #@! TO.C,U3*
D16*
X110981342Y-84160713D02*
X111369914Y-84160713D01*
X111415628Y-84137856D01*
X111438485Y-84114999D01*
X111461342Y-84069284D01*
X111461342Y-83977856D01*
X111438485Y-83932141D01*
X111415628Y-83909284D01*
X111369914Y-83886427D01*
X110981342Y-83886427D01*
X110981342Y-83703570D02*
X110981342Y-83406427D01*
X111164200Y-83566427D01*
X111164200Y-83497856D01*
X111187057Y-83452141D01*
X111209914Y-83429284D01*
X111255628Y-83406427D01*
X111369914Y-83406427D01*
X111415628Y-83429284D01*
X111438485Y-83452141D01*
X111461342Y-83497856D01*
X111461342Y-83634999D01*
X111438485Y-83680713D01*
X111415628Y-83703570D01*
G04 #@! TO.C,U2*
X110930341Y-90256713D02*
X111318913Y-90256713D01*
X111364627Y-90233856D01*
X111387484Y-90210999D01*
X111410341Y-90165284D01*
X111410341Y-90073856D01*
X111387484Y-90028141D01*
X111364627Y-90005284D01*
X111318913Y-89982427D01*
X110930341Y-89982427D01*
X110976056Y-89776713D02*
X110953199Y-89753856D01*
X110930341Y-89708141D01*
X110930341Y-89593856D01*
X110953199Y-89548141D01*
X110976056Y-89525284D01*
X111021770Y-89502427D01*
X111067484Y-89502427D01*
X111136056Y-89525284D01*
X111410341Y-89799570D01*
X111410341Y-89502427D01*
G04 #@! TO.C,R3*
D15*
X141543333Y-79196809D02*
X141374000Y-78954904D01*
X141253047Y-79196809D02*
X141253047Y-78688809D01*
X141446571Y-78688809D01*
X141494952Y-78713000D01*
X141519142Y-78737190D01*
X141543333Y-78785571D01*
X141543333Y-78858142D01*
X141519142Y-78906523D01*
X141494952Y-78930714D01*
X141446571Y-78954904D01*
X141253047Y-78954904D01*
X141712666Y-78688809D02*
X142027142Y-78688809D01*
X141857809Y-78882333D01*
X141930380Y-78882333D01*
X141978761Y-78906523D01*
X142002952Y-78930714D01*
X142027142Y-78979095D01*
X142027142Y-79100047D01*
X142002952Y-79148428D01*
X141978761Y-79172619D01*
X141930380Y-79196809D01*
X141785238Y-79196809D01*
X141736857Y-79172619D01*
X141712666Y-79148428D01*
G04 #@! TO.C,R2*
X136059333Y-82779809D02*
X135890000Y-82537904D01*
X135769047Y-82779809D02*
X135769047Y-82271809D01*
X135962571Y-82271809D01*
X136010952Y-82296000D01*
X136035142Y-82320190D01*
X136059333Y-82368571D01*
X136059333Y-82441142D01*
X136035142Y-82489523D01*
X136010952Y-82513714D01*
X135962571Y-82537904D01*
X135769047Y-82537904D01*
X136252857Y-82320190D02*
X136277047Y-82296000D01*
X136325428Y-82271809D01*
X136446380Y-82271809D01*
X136494761Y-82296000D01*
X136518952Y-82320190D01*
X136543142Y-82368571D01*
X136543142Y-82416952D01*
X136518952Y-82489523D01*
X136228666Y-82779809D01*
X136543142Y-82779809D01*
G04 #@! TO.C,C_1.8_OUT1*
X108258428Y-91822190D02*
X108282619Y-91846380D01*
X108306809Y-91918952D01*
X108306809Y-91967333D01*
X108282619Y-92039904D01*
X108234238Y-92088285D01*
X108185857Y-92112476D01*
X108089095Y-92136666D01*
X108016523Y-92136666D01*
X107919761Y-92112476D01*
X107871380Y-92088285D01*
X107823000Y-92039904D01*
X107798809Y-91967333D01*
X107798809Y-91918952D01*
X107823000Y-91846380D01*
X107847190Y-91822190D01*
X108355190Y-91725428D02*
X108355190Y-91338380D01*
X108306809Y-90951333D02*
X108306809Y-91241619D01*
X108306809Y-91096476D02*
X107798809Y-91096476D01*
X107871380Y-91144857D01*
X107919761Y-91193238D01*
X107943952Y-91241619D01*
X108258428Y-90733619D02*
X108282619Y-90709428D01*
X108306809Y-90733619D01*
X108282619Y-90757809D01*
X108258428Y-90733619D01*
X108306809Y-90733619D01*
X108016523Y-90419142D02*
X107992333Y-90467523D01*
X107968142Y-90491714D01*
X107919761Y-90515904D01*
X107895571Y-90515904D01*
X107847190Y-90491714D01*
X107823000Y-90467523D01*
X107798809Y-90419142D01*
X107798809Y-90322380D01*
X107823000Y-90274000D01*
X107847190Y-90249809D01*
X107895571Y-90225619D01*
X107919761Y-90225619D01*
X107968142Y-90249809D01*
X107992333Y-90274000D01*
X108016523Y-90322380D01*
X108016523Y-90419142D01*
X108040714Y-90467523D01*
X108064904Y-90491714D01*
X108113285Y-90515904D01*
X108210047Y-90515904D01*
X108258428Y-90491714D01*
X108282619Y-90467523D01*
X108306809Y-90419142D01*
X108306809Y-90322380D01*
X108282619Y-90274000D01*
X108258428Y-90249809D01*
X108210047Y-90225619D01*
X108113285Y-90225619D01*
X108064904Y-90249809D01*
X108040714Y-90274000D01*
X108016523Y-90322380D01*
X108355190Y-90128857D02*
X108355190Y-89741809D01*
X107798809Y-89524095D02*
X107798809Y-89427333D01*
X107823000Y-89378952D01*
X107871380Y-89330571D01*
X107968142Y-89306380D01*
X108137476Y-89306380D01*
X108234238Y-89330571D01*
X108282619Y-89378952D01*
X108306809Y-89427333D01*
X108306809Y-89524095D01*
X108282619Y-89572476D01*
X108234238Y-89620857D01*
X108137476Y-89645047D01*
X107968142Y-89645047D01*
X107871380Y-89620857D01*
X107823000Y-89572476D01*
X107798809Y-89524095D01*
X107798809Y-89088666D02*
X108210047Y-89088666D01*
X108258428Y-89064476D01*
X108282619Y-89040285D01*
X108306809Y-88991904D01*
X108306809Y-88895142D01*
X108282619Y-88846761D01*
X108258428Y-88822571D01*
X108210047Y-88798380D01*
X107798809Y-88798380D01*
X107798809Y-88629047D02*
X107798809Y-88338761D01*
X108306809Y-88483904D02*
X107798809Y-88483904D01*
X108306809Y-87903333D02*
X108306809Y-88193619D01*
X108306809Y-88048476D02*
X107798809Y-88048476D01*
X107871380Y-88096857D01*
X107919761Y-88145238D01*
X107943952Y-88193619D01*
G04 #@! TO.C,C_1.1_OUT1*
X108258428Y-86003190D02*
X108282619Y-86027380D01*
X108306809Y-86099952D01*
X108306809Y-86148333D01*
X108282619Y-86220904D01*
X108234238Y-86269285D01*
X108185857Y-86293476D01*
X108089095Y-86317666D01*
X108016523Y-86317666D01*
X107919761Y-86293476D01*
X107871380Y-86269285D01*
X107823000Y-86220904D01*
X107798809Y-86148333D01*
X107798809Y-86099952D01*
X107823000Y-86027380D01*
X107847190Y-86003190D01*
X108355190Y-85906428D02*
X108355190Y-85519380D01*
X108306809Y-85132333D02*
X108306809Y-85422619D01*
X108306809Y-85277476D02*
X107798809Y-85277476D01*
X107871380Y-85325857D01*
X107919761Y-85374238D01*
X107943952Y-85422619D01*
X108258428Y-84914619D02*
X108282619Y-84890428D01*
X108306809Y-84914619D01*
X108282619Y-84938809D01*
X108258428Y-84914619D01*
X108306809Y-84914619D01*
X108306809Y-84406619D02*
X108306809Y-84696904D01*
X108306809Y-84551761D02*
X107798809Y-84551761D01*
X107871380Y-84600142D01*
X107919761Y-84648523D01*
X107943952Y-84696904D01*
X108355190Y-84309857D02*
X108355190Y-83922809D01*
X107798809Y-83705095D02*
X107798809Y-83608333D01*
X107823000Y-83559952D01*
X107871380Y-83511571D01*
X107968142Y-83487380D01*
X108137476Y-83487380D01*
X108234238Y-83511571D01*
X108282619Y-83559952D01*
X108306809Y-83608333D01*
X108306809Y-83705095D01*
X108282619Y-83753476D01*
X108234238Y-83801857D01*
X108137476Y-83826047D01*
X107968142Y-83826047D01*
X107871380Y-83801857D01*
X107823000Y-83753476D01*
X107798809Y-83705095D01*
X107798809Y-83269666D02*
X108210047Y-83269666D01*
X108258428Y-83245476D01*
X108282619Y-83221285D01*
X108306809Y-83172904D01*
X108306809Y-83076142D01*
X108282619Y-83027761D01*
X108258428Y-83003571D01*
X108210047Y-82979380D01*
X107798809Y-82979380D01*
X107798809Y-82810047D02*
X107798809Y-82519761D01*
X108306809Y-82664904D02*
X107798809Y-82664904D01*
X108306809Y-82084333D02*
X108306809Y-82374619D01*
X108306809Y-82229476D02*
X107798809Y-82229476D01*
X107871380Y-82277857D01*
X107919761Y-82326238D01*
X107943952Y-82374619D01*
G04 #@! TO.C,J1*
D12*
X112057380Y-77803333D02*
X112771666Y-77803333D01*
X112914523Y-77850952D01*
X113009761Y-77946190D01*
X113057380Y-78089047D01*
X113057380Y-78184285D01*
X113057380Y-76803333D02*
X113057380Y-77374761D01*
X113057380Y-77089047D02*
X112057380Y-77089047D01*
X112200238Y-77184285D01*
X112295476Y-77279523D01*
X112343095Y-77374761D01*
G04 #@! TO.C,L2*
D15*
X111040333Y-86462809D02*
X110798428Y-86462809D01*
X110798428Y-85954809D01*
X111185476Y-86003190D02*
X111209666Y-85979000D01*
X111258047Y-85954809D01*
X111379000Y-85954809D01*
X111427380Y-85979000D01*
X111451571Y-86003190D01*
X111475761Y-86051571D01*
X111475761Y-86099952D01*
X111451571Y-86172523D01*
X111161285Y-86462809D01*
X111475761Y-86462809D01*
G04 #@! TO.C,L1*
X111040333Y-92558809D02*
X110798428Y-92558809D01*
X110798428Y-92050809D01*
X111475761Y-92558809D02*
X111185476Y-92558809D01*
X111330619Y-92558809D02*
X111330619Y-92050809D01*
X111282238Y-92123380D01*
X111233857Y-92171761D01*
X111185476Y-92195952D01*
G04 #@! TO.C,J3*
D12*
X142541666Y-80942380D02*
X142541666Y-81656666D01*
X142494047Y-81799523D01*
X142398809Y-81894761D01*
X142255952Y-81942380D01*
X142160714Y-81942380D01*
X142922619Y-80942380D02*
X143541666Y-80942380D01*
X143208333Y-81323333D01*
X143351190Y-81323333D01*
X143446428Y-81370952D01*
X143494047Y-81418571D01*
X143541666Y-81513809D01*
X143541666Y-81751904D01*
X143494047Y-81847142D01*
X143446428Y-81894761D01*
X143351190Y-81942380D01*
X143065476Y-81942380D01*
X142970238Y-81894761D01*
X142922619Y-81847142D01*
G04 #@! TO.C,C_1.1_IN1*
D15*
X108137476Y-81334428D02*
X108113285Y-81358619D01*
X108040714Y-81382809D01*
X107992333Y-81382809D01*
X107919761Y-81358619D01*
X107871380Y-81310238D01*
X107847190Y-81261857D01*
X107823000Y-81165095D01*
X107823000Y-81092523D01*
X107847190Y-80995761D01*
X107871380Y-80947380D01*
X107919761Y-80899000D01*
X107992333Y-80874809D01*
X108040714Y-80874809D01*
X108113285Y-80899000D01*
X108137476Y-80923190D01*
X108234238Y-81431190D02*
X108621285Y-81431190D01*
X109008333Y-81382809D02*
X108718047Y-81382809D01*
X108863190Y-81382809D02*
X108863190Y-80874809D01*
X108814809Y-80947380D01*
X108766428Y-80995761D01*
X108718047Y-81019952D01*
X109226047Y-81334428D02*
X109250238Y-81358619D01*
X109226047Y-81382809D01*
X109201857Y-81358619D01*
X109226047Y-81334428D01*
X109226047Y-81382809D01*
X109734047Y-81382809D02*
X109443761Y-81382809D01*
X109588904Y-81382809D02*
X109588904Y-80874809D01*
X109540523Y-80947380D01*
X109492142Y-80995761D01*
X109443761Y-81019952D01*
X109830809Y-81431190D02*
X110217857Y-81431190D01*
X110338809Y-81382809D02*
X110338809Y-80874809D01*
X110580714Y-81382809D02*
X110580714Y-80874809D01*
X110871000Y-81382809D01*
X110871000Y-80874809D01*
X111379000Y-81382809D02*
X111088714Y-81382809D01*
X111233857Y-81382809D02*
X111233857Y-80874809D01*
X111185476Y-80947380D01*
X111137095Y-80995761D01*
X111088714Y-81019952D01*
G04 #@! TO.C,C_1.8_IN1*
X107629476Y-87430428D02*
X107605285Y-87454619D01*
X107532714Y-87478809D01*
X107484333Y-87478809D01*
X107411761Y-87454619D01*
X107363380Y-87406238D01*
X107339190Y-87357857D01*
X107315000Y-87261095D01*
X107315000Y-87188523D01*
X107339190Y-87091761D01*
X107363380Y-87043380D01*
X107411761Y-86995000D01*
X107484333Y-86970809D01*
X107532714Y-86970809D01*
X107605285Y-86995000D01*
X107629476Y-87019190D01*
X107726238Y-87527190D02*
X108113285Y-87527190D01*
X108500333Y-87478809D02*
X108210047Y-87478809D01*
X108355190Y-87478809D02*
X108355190Y-86970809D01*
X108306809Y-87043380D01*
X108258428Y-87091761D01*
X108210047Y-87115952D01*
X108718047Y-87430428D02*
X108742238Y-87454619D01*
X108718047Y-87478809D01*
X108693857Y-87454619D01*
X108718047Y-87430428D01*
X108718047Y-87478809D01*
X109032523Y-87188523D02*
X108984142Y-87164333D01*
X108959952Y-87140142D01*
X108935761Y-87091761D01*
X108935761Y-87067571D01*
X108959952Y-87019190D01*
X108984142Y-86995000D01*
X109032523Y-86970809D01*
X109129285Y-86970809D01*
X109177666Y-86995000D01*
X109201857Y-87019190D01*
X109226047Y-87067571D01*
X109226047Y-87091761D01*
X109201857Y-87140142D01*
X109177666Y-87164333D01*
X109129285Y-87188523D01*
X109032523Y-87188523D01*
X108984142Y-87212714D01*
X108959952Y-87236904D01*
X108935761Y-87285285D01*
X108935761Y-87382047D01*
X108959952Y-87430428D01*
X108984142Y-87454619D01*
X109032523Y-87478809D01*
X109129285Y-87478809D01*
X109177666Y-87454619D01*
X109201857Y-87430428D01*
X109226047Y-87382047D01*
X109226047Y-87285285D01*
X109201857Y-87236904D01*
X109177666Y-87212714D01*
X109129285Y-87188523D01*
X109322809Y-87527190D02*
X109709857Y-87527190D01*
X109830809Y-87478809D02*
X109830809Y-86970809D01*
X110072714Y-87478809D02*
X110072714Y-86970809D01*
X110363000Y-87478809D01*
X110363000Y-86970809D01*
X110871000Y-87478809D02*
X110580714Y-87478809D01*
X110725857Y-87478809D02*
X110725857Y-86970809D01*
X110677476Y-87043380D01*
X110629095Y-87091761D01*
X110580714Y-87115952D01*
G04 #@! TO.C,J21*
D17*
X136954380Y-92570904D02*
X136954380Y-92752333D01*
X136942285Y-92788619D01*
X136918095Y-92812809D01*
X136881809Y-92824904D01*
X136857619Y-92824904D01*
X137063238Y-92595095D02*
X137075333Y-92583000D01*
X137099523Y-92570904D01*
X137160000Y-92570904D01*
X137184190Y-92583000D01*
X137196285Y-92595095D01*
X137208380Y-92619285D01*
X137208380Y-92643476D01*
X137196285Y-92679761D01*
X137051142Y-92824904D01*
X137208380Y-92824904D01*
X137450285Y-92824904D02*
X137305142Y-92824904D01*
X137377714Y-92824904D02*
X137377714Y-92570904D01*
X137353523Y-92607190D01*
X137329333Y-92631380D01*
X137305142Y-92643476D01*
G04 #@! TO.C,J20*
X133931780Y-84950904D02*
X133931780Y-85132333D01*
X133919685Y-85168619D01*
X133895495Y-85192809D01*
X133859209Y-85204904D01*
X133835019Y-85204904D01*
X134040638Y-84975095D02*
X134052733Y-84963000D01*
X134076923Y-84950904D01*
X134137400Y-84950904D01*
X134161590Y-84963000D01*
X134173685Y-84975095D01*
X134185780Y-84999285D01*
X134185780Y-85023476D01*
X134173685Y-85059761D01*
X134028542Y-85204904D01*
X134185780Y-85204904D01*
X134343019Y-84950904D02*
X134367209Y-84950904D01*
X134391400Y-84963000D01*
X134403495Y-84975095D01*
X134415590Y-84999285D01*
X134427685Y-85047666D01*
X134427685Y-85108142D01*
X134415590Y-85156523D01*
X134403495Y-85180714D01*
X134391400Y-85192809D01*
X134367209Y-85204904D01*
X134343019Y-85204904D01*
X134318828Y-85192809D01*
X134306733Y-85180714D01*
X134294638Y-85156523D01*
X134282542Y-85108142D01*
X134282542Y-85047666D01*
X134294638Y-84999285D01*
X134306733Y-84975095D01*
X134318828Y-84963000D01*
X134343019Y-84950904D01*
G04 #@! TO.C,J19*
X122857380Y-82791904D02*
X122857380Y-82973333D01*
X122845285Y-83009619D01*
X122821095Y-83033809D01*
X122784809Y-83045904D01*
X122760619Y-83045904D01*
X123111380Y-83045904D02*
X122966238Y-83045904D01*
X123038809Y-83045904D02*
X123038809Y-82791904D01*
X123014619Y-82828190D01*
X122990428Y-82852380D01*
X122966238Y-82864476D01*
X123232333Y-83045904D02*
X123280714Y-83045904D01*
X123304904Y-83033809D01*
X123317000Y-83021714D01*
X123341190Y-82985428D01*
X123353285Y-82937047D01*
X123353285Y-82840285D01*
X123341190Y-82816095D01*
X123329095Y-82804000D01*
X123304904Y-82791904D01*
X123256523Y-82791904D01*
X123232333Y-82804000D01*
X123220238Y-82816095D01*
X123208142Y-82840285D01*
X123208142Y-82900761D01*
X123220238Y-82924952D01*
X123232333Y-82937047D01*
X123256523Y-82949142D01*
X123304904Y-82949142D01*
X123329095Y-82937047D01*
X123341190Y-82924952D01*
X123353285Y-82900761D01*
G04 #@! TO.C,J18*
X121866780Y-82791904D02*
X121866780Y-82973333D01*
X121854685Y-83009619D01*
X121830495Y-83033809D01*
X121794209Y-83045904D01*
X121770019Y-83045904D01*
X122120780Y-83045904D02*
X121975638Y-83045904D01*
X122048209Y-83045904D02*
X122048209Y-82791904D01*
X122024019Y-82828190D01*
X121999828Y-82852380D01*
X121975638Y-82864476D01*
X122265923Y-82900761D02*
X122241733Y-82888666D01*
X122229638Y-82876571D01*
X122217542Y-82852380D01*
X122217542Y-82840285D01*
X122229638Y-82816095D01*
X122241733Y-82804000D01*
X122265923Y-82791904D01*
X122314304Y-82791904D01*
X122338495Y-82804000D01*
X122350590Y-82816095D01*
X122362685Y-82840285D01*
X122362685Y-82852380D01*
X122350590Y-82876571D01*
X122338495Y-82888666D01*
X122314304Y-82900761D01*
X122265923Y-82900761D01*
X122241733Y-82912857D01*
X122229638Y-82924952D01*
X122217542Y-82949142D01*
X122217542Y-82997523D01*
X122229638Y-83021714D01*
X122241733Y-83033809D01*
X122265923Y-83045904D01*
X122314304Y-83045904D01*
X122338495Y-83033809D01*
X122350590Y-83021714D01*
X122362685Y-82997523D01*
X122362685Y-82949142D01*
X122350590Y-82924952D01*
X122338495Y-82912857D01*
X122314304Y-82900761D01*
G04 #@! TO.C,J14*
X119682380Y-83172904D02*
X119682380Y-83354333D01*
X119670285Y-83390619D01*
X119646095Y-83414809D01*
X119609809Y-83426904D01*
X119585619Y-83426904D01*
X119936380Y-83426904D02*
X119791238Y-83426904D01*
X119863809Y-83426904D02*
X119863809Y-83172904D01*
X119839619Y-83209190D01*
X119815428Y-83233380D01*
X119791238Y-83245476D01*
X120154095Y-83257571D02*
X120154095Y-83426904D01*
X120093619Y-83160809D02*
X120033142Y-83342238D01*
X120190380Y-83342238D01*
G04 #@! TO.C,J12*
X117269380Y-95745904D02*
X117269380Y-95927333D01*
X117257285Y-95963619D01*
X117233095Y-95987809D01*
X117196809Y-95999904D01*
X117172619Y-95999904D01*
X117523380Y-95999904D02*
X117378238Y-95999904D01*
X117450809Y-95999904D02*
X117450809Y-95745904D01*
X117426619Y-95782190D01*
X117402428Y-95806380D01*
X117378238Y-95818476D01*
X117620142Y-95770095D02*
X117632238Y-95758000D01*
X117656428Y-95745904D01*
X117716904Y-95745904D01*
X117741095Y-95758000D01*
X117753190Y-95770095D01*
X117765285Y-95794285D01*
X117765285Y-95818476D01*
X117753190Y-95854761D01*
X117608047Y-95999904D01*
X117765285Y-95999904D01*
G04 #@! TO.C,J17*
X136954380Y-95110904D02*
X136954380Y-95292333D01*
X136942285Y-95328619D01*
X136918095Y-95352809D01*
X136881809Y-95364904D01*
X136857619Y-95364904D01*
X137208380Y-95364904D02*
X137063238Y-95364904D01*
X137135809Y-95364904D02*
X137135809Y-95110904D01*
X137111619Y-95147190D01*
X137087428Y-95171380D01*
X137063238Y-95183476D01*
X137293047Y-95110904D02*
X137462380Y-95110904D01*
X137353523Y-95364904D01*
G04 #@! TO.C,J16*
X133779380Y-90030904D02*
X133779380Y-90212333D01*
X133767285Y-90248619D01*
X133743095Y-90272809D01*
X133706809Y-90284904D01*
X133682619Y-90284904D01*
X134033380Y-90284904D02*
X133888238Y-90284904D01*
X133960809Y-90284904D02*
X133960809Y-90030904D01*
X133936619Y-90067190D01*
X133912428Y-90091380D01*
X133888238Y-90103476D01*
X134251095Y-90030904D02*
X134202714Y-90030904D01*
X134178523Y-90043000D01*
X134166428Y-90055095D01*
X134142238Y-90091380D01*
X134130142Y-90139761D01*
X134130142Y-90236523D01*
X134142238Y-90260714D01*
X134154333Y-90272809D01*
X134178523Y-90284904D01*
X134226904Y-90284904D01*
X134251095Y-90272809D01*
X134263190Y-90260714D01*
X134275285Y-90236523D01*
X134275285Y-90176047D01*
X134263190Y-90151857D01*
X134251095Y-90139761D01*
X134226904Y-90127666D01*
X134178523Y-90127666D01*
X134154333Y-90139761D01*
X134142238Y-90151857D01*
X134130142Y-90176047D01*
G04 #@! TO.C,J15*
X133779380Y-87490904D02*
X133779380Y-87672333D01*
X133767285Y-87708619D01*
X133743095Y-87732809D01*
X133706809Y-87744904D01*
X133682619Y-87744904D01*
X134033380Y-87744904D02*
X133888238Y-87744904D01*
X133960809Y-87744904D02*
X133960809Y-87490904D01*
X133936619Y-87527190D01*
X133912428Y-87551380D01*
X133888238Y-87563476D01*
X134263190Y-87490904D02*
X134142238Y-87490904D01*
X134130142Y-87611857D01*
X134142238Y-87599761D01*
X134166428Y-87587666D01*
X134226904Y-87587666D01*
X134251095Y-87599761D01*
X134263190Y-87611857D01*
X134275285Y-87636047D01*
X134275285Y-87696523D01*
X134263190Y-87720714D01*
X134251095Y-87732809D01*
X134226904Y-87744904D01*
X134166428Y-87744904D01*
X134142238Y-87732809D01*
X134130142Y-87720714D01*
G04 #@! TO.C,J13*
X117904380Y-98920904D02*
X117904380Y-99102333D01*
X117892285Y-99138619D01*
X117868095Y-99162809D01*
X117831809Y-99174904D01*
X117807619Y-99174904D01*
X118158380Y-99174904D02*
X118013238Y-99174904D01*
X118085809Y-99174904D02*
X118085809Y-98920904D01*
X118061619Y-98957190D01*
X118037428Y-98981380D01*
X118013238Y-98993476D01*
X118243047Y-98920904D02*
X118400285Y-98920904D01*
X118315619Y-99017666D01*
X118351904Y-99017666D01*
X118376095Y-99029761D01*
X118388190Y-99041857D01*
X118400285Y-99066047D01*
X118400285Y-99126523D01*
X118388190Y-99150714D01*
X118376095Y-99162809D01*
X118351904Y-99174904D01*
X118279333Y-99174904D01*
X118255142Y-99162809D01*
X118243047Y-99150714D01*
G04 #@! TO.C,J11*
X117904380Y-94475904D02*
X117904380Y-94657333D01*
X117892285Y-94693619D01*
X117868095Y-94717809D01*
X117831809Y-94729904D01*
X117807619Y-94729904D01*
X118158380Y-94729904D02*
X118013238Y-94729904D01*
X118085809Y-94729904D02*
X118085809Y-94475904D01*
X118061619Y-94512190D01*
X118037428Y-94536380D01*
X118013238Y-94548476D01*
X118400285Y-94729904D02*
X118255142Y-94729904D01*
X118327714Y-94729904D02*
X118327714Y-94475904D01*
X118303523Y-94512190D01*
X118279333Y-94536380D01*
X118255142Y-94548476D01*
G04 #@! TO.C,J10*
X115999380Y-87744904D02*
X115999380Y-87926333D01*
X115987285Y-87962619D01*
X115963095Y-87986809D01*
X115926809Y-87998904D01*
X115902619Y-87998904D01*
X116253380Y-87998904D02*
X116108238Y-87998904D01*
X116180809Y-87998904D02*
X116180809Y-87744904D01*
X116156619Y-87781190D01*
X116132428Y-87805380D01*
X116108238Y-87817476D01*
X116410619Y-87744904D02*
X116434809Y-87744904D01*
X116459000Y-87757000D01*
X116471095Y-87769095D01*
X116483190Y-87793285D01*
X116495285Y-87841666D01*
X116495285Y-87902142D01*
X116483190Y-87950523D01*
X116471095Y-87974714D01*
X116459000Y-87986809D01*
X116434809Y-87998904D01*
X116410619Y-87998904D01*
X116386428Y-87986809D01*
X116374333Y-87974714D01*
X116362238Y-87950523D01*
X116350142Y-87902142D01*
X116350142Y-87841666D01*
X116362238Y-87793285D01*
X116374333Y-87769095D01*
X116386428Y-87757000D01*
X116410619Y-87744904D01*
G04 #@! TO.C,J9*
X117390333Y-86474904D02*
X117390333Y-86656333D01*
X117378238Y-86692619D01*
X117354047Y-86716809D01*
X117317761Y-86728904D01*
X117293571Y-86728904D01*
X117523380Y-86728904D02*
X117571761Y-86728904D01*
X117595952Y-86716809D01*
X117608047Y-86704714D01*
X117632238Y-86668428D01*
X117644333Y-86620047D01*
X117644333Y-86523285D01*
X117632238Y-86499095D01*
X117620142Y-86487000D01*
X117595952Y-86474904D01*
X117547571Y-86474904D01*
X117523380Y-86487000D01*
X117511285Y-86499095D01*
X117499190Y-86523285D01*
X117499190Y-86583761D01*
X117511285Y-86607952D01*
X117523380Y-86620047D01*
X117547571Y-86632142D01*
X117595952Y-86632142D01*
X117620142Y-86620047D01*
X117632238Y-86607952D01*
X117644333Y-86583761D01*
G04 #@! TO.C,J8*
X116120333Y-85839904D02*
X116120333Y-86021333D01*
X116108238Y-86057619D01*
X116084047Y-86081809D01*
X116047761Y-86093904D01*
X116023571Y-86093904D01*
X116277571Y-85948761D02*
X116253380Y-85936666D01*
X116241285Y-85924571D01*
X116229190Y-85900380D01*
X116229190Y-85888285D01*
X116241285Y-85864095D01*
X116253380Y-85852000D01*
X116277571Y-85839904D01*
X116325952Y-85839904D01*
X116350142Y-85852000D01*
X116362238Y-85864095D01*
X116374333Y-85888285D01*
X116374333Y-85900380D01*
X116362238Y-85924571D01*
X116350142Y-85936666D01*
X116325952Y-85948761D01*
X116277571Y-85948761D01*
X116253380Y-85960857D01*
X116241285Y-85972952D01*
X116229190Y-85997142D01*
X116229190Y-86045523D01*
X116241285Y-86069714D01*
X116253380Y-86081809D01*
X116277571Y-86093904D01*
X116325952Y-86093904D01*
X116350142Y-86081809D01*
X116362238Y-86069714D01*
X116374333Y-86045523D01*
X116374333Y-85997142D01*
X116362238Y-85972952D01*
X116350142Y-85960857D01*
X116325952Y-85948761D01*
G04 #@! TO.C,J7*
X116120333Y-84315904D02*
X116120333Y-84497333D01*
X116108238Y-84533619D01*
X116084047Y-84557809D01*
X116047761Y-84569904D01*
X116023571Y-84569904D01*
X116217095Y-84315904D02*
X116386428Y-84315904D01*
X116277571Y-84569904D01*
G04 #@! TO.C,J6*
X118025333Y-83934904D02*
X118025333Y-84116333D01*
X118013238Y-84152619D01*
X117989047Y-84176809D01*
X117952761Y-84188904D01*
X117928571Y-84188904D01*
X118255142Y-83934904D02*
X118206761Y-83934904D01*
X118182571Y-83947000D01*
X118170476Y-83959095D01*
X118146285Y-83995380D01*
X118134190Y-84043761D01*
X118134190Y-84140523D01*
X118146285Y-84164714D01*
X118158380Y-84176809D01*
X118182571Y-84188904D01*
X118230952Y-84188904D01*
X118255142Y-84176809D01*
X118267238Y-84164714D01*
X118279333Y-84140523D01*
X118279333Y-84080047D01*
X118267238Y-84055857D01*
X118255142Y-84043761D01*
X118230952Y-84031666D01*
X118182571Y-84031666D01*
X118158380Y-84043761D01*
X118146285Y-84055857D01*
X118134190Y-84080047D01*
G04 #@! TO.C,J5*
X134179733Y-86855904D02*
X134179733Y-87037333D01*
X134167638Y-87073619D01*
X134143447Y-87097809D01*
X134107161Y-87109904D01*
X134082971Y-87109904D01*
X134421638Y-86855904D02*
X134300685Y-86855904D01*
X134288590Y-86976857D01*
X134300685Y-86964761D01*
X134324876Y-86952666D01*
X134385352Y-86952666D01*
X134409542Y-86964761D01*
X134421638Y-86976857D01*
X134433733Y-87001047D01*
X134433733Y-87061523D01*
X134421638Y-87085714D01*
X134409542Y-87097809D01*
X134385352Y-87109904D01*
X134324876Y-87109904D01*
X134300685Y-87097809D01*
X134288590Y-87085714D01*
G04 #@! TO.C,GND6*
X144109923Y-80518000D02*
X144085733Y-80505904D01*
X144049447Y-80505904D01*
X144013161Y-80518000D01*
X143988971Y-80542190D01*
X143976876Y-80566380D01*
X143964780Y-80614761D01*
X143964780Y-80651047D01*
X143976876Y-80699428D01*
X143988971Y-80723619D01*
X144013161Y-80747809D01*
X144049447Y-80759904D01*
X144073638Y-80759904D01*
X144109923Y-80747809D01*
X144122019Y-80735714D01*
X144122019Y-80651047D01*
X144073638Y-80651047D01*
X144230876Y-80759904D02*
X144230876Y-80505904D01*
X144376019Y-80759904D01*
X144376019Y-80505904D01*
X144496971Y-80759904D02*
X144496971Y-80505904D01*
X144557447Y-80505904D01*
X144593733Y-80518000D01*
X144617923Y-80542190D01*
X144630019Y-80566380D01*
X144642114Y-80614761D01*
X144642114Y-80651047D01*
X144630019Y-80699428D01*
X144617923Y-80723619D01*
X144593733Y-80747809D01*
X144557447Y-80759904D01*
X144496971Y-80759904D01*
X144859828Y-80505904D02*
X144811447Y-80505904D01*
X144787257Y-80518000D01*
X144775161Y-80530095D01*
X144750971Y-80566380D01*
X144738876Y-80614761D01*
X144738876Y-80711523D01*
X144750971Y-80735714D01*
X144763066Y-80747809D01*
X144787257Y-80759904D01*
X144835638Y-80759904D01*
X144859828Y-80747809D01*
X144871923Y-80735714D01*
X144884019Y-80711523D01*
X144884019Y-80651047D01*
X144871923Y-80626857D01*
X144859828Y-80614761D01*
X144835638Y-80602666D01*
X144787257Y-80602666D01*
X144763066Y-80614761D01*
X144750971Y-80626857D01*
X144738876Y-80651047D01*
G04 #@! TO.C,GND5*
X134940523Y-95758000D02*
X134916333Y-95745904D01*
X134880047Y-95745904D01*
X134843761Y-95758000D01*
X134819571Y-95782190D01*
X134807476Y-95806380D01*
X134795380Y-95854761D01*
X134795380Y-95891047D01*
X134807476Y-95939428D01*
X134819571Y-95963619D01*
X134843761Y-95987809D01*
X134880047Y-95999904D01*
X134904238Y-95999904D01*
X134940523Y-95987809D01*
X134952619Y-95975714D01*
X134952619Y-95891047D01*
X134904238Y-95891047D01*
X135061476Y-95999904D02*
X135061476Y-95745904D01*
X135206619Y-95999904D01*
X135206619Y-95745904D01*
X135327571Y-95999904D02*
X135327571Y-95745904D01*
X135388047Y-95745904D01*
X135424333Y-95758000D01*
X135448523Y-95782190D01*
X135460619Y-95806380D01*
X135472714Y-95854761D01*
X135472714Y-95891047D01*
X135460619Y-95939428D01*
X135448523Y-95963619D01*
X135424333Y-95987809D01*
X135388047Y-95999904D01*
X135327571Y-95999904D01*
X135702523Y-95745904D02*
X135581571Y-95745904D01*
X135569476Y-95866857D01*
X135581571Y-95854761D01*
X135605761Y-95842666D01*
X135666238Y-95842666D01*
X135690428Y-95854761D01*
X135702523Y-95866857D01*
X135714619Y-95891047D01*
X135714619Y-95951523D01*
X135702523Y-95975714D01*
X135690428Y-95987809D01*
X135666238Y-95999904D01*
X135605761Y-95999904D01*
X135581571Y-95987809D01*
X135569476Y-95975714D01*
G04 #@! TO.C,GND4*
X134076923Y-81407000D02*
X134052733Y-81394904D01*
X134016447Y-81394904D01*
X133980161Y-81407000D01*
X133955971Y-81431190D01*
X133943876Y-81455380D01*
X133931780Y-81503761D01*
X133931780Y-81540047D01*
X133943876Y-81588428D01*
X133955971Y-81612619D01*
X133980161Y-81636809D01*
X134016447Y-81648904D01*
X134040638Y-81648904D01*
X134076923Y-81636809D01*
X134089019Y-81624714D01*
X134089019Y-81540047D01*
X134040638Y-81540047D01*
X134197876Y-81648904D02*
X134197876Y-81394904D01*
X134343019Y-81648904D01*
X134343019Y-81394904D01*
X134463971Y-81648904D02*
X134463971Y-81394904D01*
X134524447Y-81394904D01*
X134560733Y-81407000D01*
X134584923Y-81431190D01*
X134597019Y-81455380D01*
X134609114Y-81503761D01*
X134609114Y-81540047D01*
X134597019Y-81588428D01*
X134584923Y-81612619D01*
X134560733Y-81636809D01*
X134524447Y-81648904D01*
X134463971Y-81648904D01*
X134826828Y-81479571D02*
X134826828Y-81648904D01*
X134766352Y-81382809D02*
X134705876Y-81564238D01*
X134863114Y-81564238D01*
G04 #@! TO.C,GND3*
X115026923Y-83312000D02*
X115002733Y-83299904D01*
X114966447Y-83299904D01*
X114930161Y-83312000D01*
X114905971Y-83336190D01*
X114893876Y-83360380D01*
X114881780Y-83408761D01*
X114881780Y-83445047D01*
X114893876Y-83493428D01*
X114905971Y-83517619D01*
X114930161Y-83541809D01*
X114966447Y-83553904D01*
X114990638Y-83553904D01*
X115026923Y-83541809D01*
X115039019Y-83529714D01*
X115039019Y-83445047D01*
X114990638Y-83445047D01*
X115147876Y-83553904D02*
X115147876Y-83299904D01*
X115293019Y-83553904D01*
X115293019Y-83299904D01*
X115413971Y-83553904D02*
X115413971Y-83299904D01*
X115474447Y-83299904D01*
X115510733Y-83312000D01*
X115534923Y-83336190D01*
X115547019Y-83360380D01*
X115559114Y-83408761D01*
X115559114Y-83445047D01*
X115547019Y-83493428D01*
X115534923Y-83517619D01*
X115510733Y-83541809D01*
X115474447Y-83553904D01*
X115413971Y-83553904D01*
X115643780Y-83299904D02*
X115801019Y-83299904D01*
X115716352Y-83396666D01*
X115752638Y-83396666D01*
X115776828Y-83408761D01*
X115788923Y-83420857D01*
X115801019Y-83445047D01*
X115801019Y-83505523D01*
X115788923Y-83529714D01*
X115776828Y-83541809D01*
X115752638Y-83553904D01*
X115680066Y-83553904D01*
X115655876Y-83541809D01*
X115643780Y-83529714D01*
G04 #@! TO.C,GND2*
X136845523Y-86868000D02*
X136821333Y-86855904D01*
X136785047Y-86855904D01*
X136748761Y-86868000D01*
X136724571Y-86892190D01*
X136712476Y-86916380D01*
X136700380Y-86964761D01*
X136700380Y-87001047D01*
X136712476Y-87049428D01*
X136724571Y-87073619D01*
X136748761Y-87097809D01*
X136785047Y-87109904D01*
X136809238Y-87109904D01*
X136845523Y-87097809D01*
X136857619Y-87085714D01*
X136857619Y-87001047D01*
X136809238Y-87001047D01*
X136966476Y-87109904D02*
X136966476Y-86855904D01*
X137111619Y-87109904D01*
X137111619Y-86855904D01*
X137232571Y-87109904D02*
X137232571Y-86855904D01*
X137293047Y-86855904D01*
X137329333Y-86868000D01*
X137353523Y-86892190D01*
X137365619Y-86916380D01*
X137377714Y-86964761D01*
X137377714Y-87001047D01*
X137365619Y-87049428D01*
X137353523Y-87073619D01*
X137329333Y-87097809D01*
X137293047Y-87109904D01*
X137232571Y-87109904D01*
X137474476Y-86880095D02*
X137486571Y-86868000D01*
X137510761Y-86855904D01*
X137571238Y-86855904D01*
X137595428Y-86868000D01*
X137607523Y-86880095D01*
X137619619Y-86904285D01*
X137619619Y-86928476D01*
X137607523Y-86964761D01*
X137462380Y-87109904D01*
X137619619Y-87109904D01*
G04 #@! TO.C,GND1*
X116779523Y-98425000D02*
X116755333Y-98412904D01*
X116719047Y-98412904D01*
X116682761Y-98425000D01*
X116658571Y-98449190D01*
X116646476Y-98473380D01*
X116634380Y-98521761D01*
X116634380Y-98558047D01*
X116646476Y-98606428D01*
X116658571Y-98630619D01*
X116682761Y-98654809D01*
X116719047Y-98666904D01*
X116743238Y-98666904D01*
X116779523Y-98654809D01*
X116791619Y-98642714D01*
X116791619Y-98558047D01*
X116743238Y-98558047D01*
X116900476Y-98666904D02*
X116900476Y-98412904D01*
X117045619Y-98666904D01*
X117045619Y-98412904D01*
X117166571Y-98666904D02*
X117166571Y-98412904D01*
X117227047Y-98412904D01*
X117263333Y-98425000D01*
X117287523Y-98449190D01*
X117299619Y-98473380D01*
X117311714Y-98521761D01*
X117311714Y-98558047D01*
X117299619Y-98606428D01*
X117287523Y-98630619D01*
X117263333Y-98654809D01*
X117227047Y-98666904D01*
X117166571Y-98666904D01*
X117553619Y-98666904D02*
X117408476Y-98666904D01*
X117481047Y-98666904D02*
X117481047Y-98412904D01*
X117456857Y-98449190D01*
X117432666Y-98473380D01*
X117408476Y-98485476D01*
G04 #@! TO.C,R1*
D15*
X137075333Y-90399809D02*
X136906000Y-90157904D01*
X136785047Y-90399809D02*
X136785047Y-89891809D01*
X136978571Y-89891809D01*
X137026952Y-89916000D01*
X137051142Y-89940190D01*
X137075333Y-89988571D01*
X137075333Y-90061142D01*
X137051142Y-90109523D01*
X137026952Y-90133714D01*
X136978571Y-90157904D01*
X136785047Y-90157904D01*
X137559142Y-90399809D02*
X137268857Y-90399809D01*
X137414000Y-90399809D02*
X137414000Y-89891809D01*
X137365619Y-89964380D01*
X137317238Y-90012761D01*
X137268857Y-90036952D01*
G04 #@! TO.C,C13*
X137087428Y-86160428D02*
X137063238Y-86184619D01*
X136990666Y-86208809D01*
X136942285Y-86208809D01*
X136869714Y-86184619D01*
X136821333Y-86136238D01*
X136797142Y-86087857D01*
X136772952Y-85991095D01*
X136772952Y-85918523D01*
X136797142Y-85821761D01*
X136821333Y-85773380D01*
X136869714Y-85725000D01*
X136942285Y-85700809D01*
X136990666Y-85700809D01*
X137063238Y-85725000D01*
X137087428Y-85749190D01*
X137571238Y-86208809D02*
X137280952Y-86208809D01*
X137426095Y-86208809D02*
X137426095Y-85700809D01*
X137377714Y-85773380D01*
X137329333Y-85821761D01*
X137280952Y-85845952D01*
X137740571Y-85700809D02*
X138055047Y-85700809D01*
X137885714Y-85894333D01*
X137958285Y-85894333D01*
X138006666Y-85918523D01*
X138030857Y-85942714D01*
X138055047Y-85991095D01*
X138055047Y-86112047D01*
X138030857Y-86160428D01*
X138006666Y-86184619D01*
X137958285Y-86208809D01*
X137813142Y-86208809D01*
X137764761Y-86184619D01*
X137740571Y-86160428D01*
G04 #@! TO.C,C12*
X135182428Y-86287428D02*
X135158238Y-86311619D01*
X135085666Y-86335809D01*
X135037285Y-86335809D01*
X134964714Y-86311619D01*
X134916333Y-86263238D01*
X134892142Y-86214857D01*
X134867952Y-86118095D01*
X134867952Y-86045523D01*
X134892142Y-85948761D01*
X134916333Y-85900380D01*
X134964714Y-85852000D01*
X135037285Y-85827809D01*
X135085666Y-85827809D01*
X135158238Y-85852000D01*
X135182428Y-85876190D01*
X135666238Y-86335809D02*
X135375952Y-86335809D01*
X135521095Y-86335809D02*
X135521095Y-85827809D01*
X135472714Y-85900380D01*
X135424333Y-85948761D01*
X135375952Y-85972952D01*
X135859761Y-85876190D02*
X135883952Y-85852000D01*
X135932333Y-85827809D01*
X136053285Y-85827809D01*
X136101666Y-85852000D01*
X136125857Y-85876190D01*
X136150047Y-85924571D01*
X136150047Y-85972952D01*
X136125857Y-86045523D01*
X135835571Y-86335809D01*
X136150047Y-86335809D01*
G04 #@! TO.C,C11*
X134928428Y-90351428D02*
X134904238Y-90375619D01*
X134831666Y-90399809D01*
X134783285Y-90399809D01*
X134710714Y-90375619D01*
X134662333Y-90327238D01*
X134638142Y-90278857D01*
X134613952Y-90182095D01*
X134613952Y-90109523D01*
X134638142Y-90012761D01*
X134662333Y-89964380D01*
X134710714Y-89916000D01*
X134783285Y-89891809D01*
X134831666Y-89891809D01*
X134904238Y-89916000D01*
X134928428Y-89940190D01*
X135412238Y-90399809D02*
X135121952Y-90399809D01*
X135267095Y-90399809D02*
X135267095Y-89891809D01*
X135218714Y-89964380D01*
X135170333Y-90012761D01*
X135121952Y-90036952D01*
X135896047Y-90399809D02*
X135605761Y-90399809D01*
X135750904Y-90399809D02*
X135750904Y-89891809D01*
X135702523Y-89964380D01*
X135654142Y-90012761D01*
X135605761Y-90036952D01*
G04 #@! TO.C,C10*
X124260428Y-83257571D02*
X124284619Y-83281761D01*
X124308809Y-83354333D01*
X124308809Y-83402714D01*
X124284619Y-83475285D01*
X124236238Y-83523666D01*
X124187857Y-83547857D01*
X124091095Y-83572047D01*
X124018523Y-83572047D01*
X123921761Y-83547857D01*
X123873380Y-83523666D01*
X123825000Y-83475285D01*
X123800809Y-83402714D01*
X123800809Y-83354333D01*
X123825000Y-83281761D01*
X123849190Y-83257571D01*
X124308809Y-82773761D02*
X124308809Y-83064047D01*
X124308809Y-82918904D02*
X123800809Y-82918904D01*
X123873380Y-82967285D01*
X123921761Y-83015666D01*
X123945952Y-83064047D01*
X123800809Y-82459285D02*
X123800809Y-82410904D01*
X123825000Y-82362523D01*
X123849190Y-82338333D01*
X123897571Y-82314142D01*
X123994333Y-82289952D01*
X124115285Y-82289952D01*
X124212047Y-82314142D01*
X124260428Y-82338333D01*
X124284619Y-82362523D01*
X124308809Y-82410904D01*
X124308809Y-82459285D01*
X124284619Y-82507666D01*
X124260428Y-82531857D01*
X124212047Y-82556047D01*
X124115285Y-82580238D01*
X123994333Y-82580238D01*
X123897571Y-82556047D01*
X123849190Y-82531857D01*
X123825000Y-82507666D01*
X123800809Y-82459285D01*
G04 #@! TO.C,C9*
X139615333Y-101146428D02*
X139591142Y-101170619D01*
X139518571Y-101194809D01*
X139470190Y-101194809D01*
X139397619Y-101170619D01*
X139349238Y-101122238D01*
X139325047Y-101073857D01*
X139300857Y-100977095D01*
X139300857Y-100904523D01*
X139325047Y-100807761D01*
X139349238Y-100759380D01*
X139397619Y-100711000D01*
X139470190Y-100686809D01*
X139518571Y-100686809D01*
X139591142Y-100711000D01*
X139615333Y-100735190D01*
X139857238Y-101194809D02*
X139954000Y-101194809D01*
X140002380Y-101170619D01*
X140026571Y-101146428D01*
X140074952Y-101073857D01*
X140099142Y-100977095D01*
X140099142Y-100783571D01*
X140074952Y-100735190D01*
X140050761Y-100711000D01*
X140002380Y-100686809D01*
X139905619Y-100686809D01*
X139857238Y-100711000D01*
X139833047Y-100735190D01*
X139808857Y-100783571D01*
X139808857Y-100904523D01*
X139833047Y-100952904D01*
X139857238Y-100977095D01*
X139905619Y-101001285D01*
X140002380Y-101001285D01*
X140050761Y-100977095D01*
X140074952Y-100952904D01*
X140099142Y-100904523D01*
G04 #@! TO.C,C8*
X137075333Y-101146428D02*
X137051142Y-101170619D01*
X136978571Y-101194809D01*
X136930190Y-101194809D01*
X136857619Y-101170619D01*
X136809238Y-101122238D01*
X136785047Y-101073857D01*
X136760857Y-100977095D01*
X136760857Y-100904523D01*
X136785047Y-100807761D01*
X136809238Y-100759380D01*
X136857619Y-100711000D01*
X136930190Y-100686809D01*
X136978571Y-100686809D01*
X137051142Y-100711000D01*
X137075333Y-100735190D01*
X137365619Y-100904523D02*
X137317238Y-100880333D01*
X137293047Y-100856142D01*
X137268857Y-100807761D01*
X137268857Y-100783571D01*
X137293047Y-100735190D01*
X137317238Y-100711000D01*
X137365619Y-100686809D01*
X137462380Y-100686809D01*
X137510761Y-100711000D01*
X137534952Y-100735190D01*
X137559142Y-100783571D01*
X137559142Y-100807761D01*
X137534952Y-100856142D01*
X137510761Y-100880333D01*
X137462380Y-100904523D01*
X137365619Y-100904523D01*
X137317238Y-100928714D01*
X137293047Y-100952904D01*
X137268857Y-101001285D01*
X137268857Y-101098047D01*
X137293047Y-101146428D01*
X137317238Y-101170619D01*
X137365619Y-101194809D01*
X137462380Y-101194809D01*
X137510761Y-101170619D01*
X137534952Y-101146428D01*
X137559142Y-101098047D01*
X137559142Y-101001285D01*
X137534952Y-100952904D01*
X137510761Y-100928714D01*
X137462380Y-100904523D01*
G04 #@! TO.C,C7*
X132122333Y-83112428D02*
X132098142Y-83136619D01*
X132025571Y-83160809D01*
X131977190Y-83160809D01*
X131904619Y-83136619D01*
X131856238Y-83088238D01*
X131832047Y-83039857D01*
X131807857Y-82943095D01*
X131807857Y-82870523D01*
X131832047Y-82773761D01*
X131856238Y-82725380D01*
X131904619Y-82677000D01*
X131977190Y-82652809D01*
X132025571Y-82652809D01*
X132098142Y-82677000D01*
X132122333Y-82701190D01*
X132291666Y-82652809D02*
X132630333Y-82652809D01*
X132412619Y-83160809D01*
G04 #@! TO.C,C6*
X129582333Y-83112428D02*
X129558142Y-83136619D01*
X129485571Y-83160809D01*
X129437190Y-83160809D01*
X129364619Y-83136619D01*
X129316238Y-83088238D01*
X129292047Y-83039857D01*
X129267857Y-82943095D01*
X129267857Y-82870523D01*
X129292047Y-82773761D01*
X129316238Y-82725380D01*
X129364619Y-82677000D01*
X129437190Y-82652809D01*
X129485571Y-82652809D01*
X129558142Y-82677000D01*
X129582333Y-82701190D01*
X130017761Y-82652809D02*
X129921000Y-82652809D01*
X129872619Y-82677000D01*
X129848428Y-82701190D01*
X129800047Y-82773761D01*
X129775857Y-82870523D01*
X129775857Y-83064047D01*
X129800047Y-83112428D01*
X129824238Y-83136619D01*
X129872619Y-83160809D01*
X129969380Y-83160809D01*
X130017761Y-83136619D01*
X130041952Y-83112428D01*
X130066142Y-83064047D01*
X130066142Y-82943095D01*
X130041952Y-82894714D01*
X130017761Y-82870523D01*
X129969380Y-82846333D01*
X129872619Y-82846333D01*
X129824238Y-82870523D01*
X129800047Y-82894714D01*
X129775857Y-82943095D01*
G04 #@! TO.C,C5*
X115485333Y-95431428D02*
X115461142Y-95455619D01*
X115388571Y-95479809D01*
X115340190Y-95479809D01*
X115267619Y-95455619D01*
X115219238Y-95407238D01*
X115195047Y-95358857D01*
X115170857Y-95262095D01*
X115170857Y-95189523D01*
X115195047Y-95092761D01*
X115219238Y-95044380D01*
X115267619Y-94996000D01*
X115340190Y-94971809D01*
X115388571Y-94971809D01*
X115461142Y-94996000D01*
X115485333Y-95020190D01*
X115944952Y-94971809D02*
X115703047Y-94971809D01*
X115678857Y-95213714D01*
X115703047Y-95189523D01*
X115751428Y-95165333D01*
X115872380Y-95165333D01*
X115920761Y-95189523D01*
X115944952Y-95213714D01*
X115969142Y-95262095D01*
X115969142Y-95383047D01*
X115944952Y-95431428D01*
X115920761Y-95455619D01*
X115872380Y-95479809D01*
X115751428Y-95479809D01*
X115703047Y-95455619D01*
X115678857Y-95431428D01*
G04 #@! TO.C,C4*
X114850333Y-97971428D02*
X114826142Y-97995619D01*
X114753571Y-98019809D01*
X114705190Y-98019809D01*
X114632619Y-97995619D01*
X114584238Y-97947238D01*
X114560047Y-97898857D01*
X114535857Y-97802095D01*
X114535857Y-97729523D01*
X114560047Y-97632761D01*
X114584238Y-97584380D01*
X114632619Y-97536000D01*
X114705190Y-97511809D01*
X114753571Y-97511809D01*
X114826142Y-97536000D01*
X114850333Y-97560190D01*
X115285761Y-97681142D02*
X115285761Y-98019809D01*
X115164809Y-97487619D02*
X115043857Y-97850476D01*
X115358333Y-97850476D01*
G04 #@! TO.C,J2*
D12*
X110577380Y-103203333D02*
X111291666Y-103203333D01*
X111434523Y-103250952D01*
X111529761Y-103346190D01*
X111577380Y-103489047D01*
X111577380Y-103584285D01*
X110672619Y-102774761D02*
X110625000Y-102727142D01*
X110577380Y-102631904D01*
X110577380Y-102393809D01*
X110625000Y-102298571D01*
X110672619Y-102250952D01*
X110767857Y-102203333D01*
X110863095Y-102203333D01*
X111005952Y-102250952D01*
X111577380Y-102822380D01*
X111577380Y-102203333D01*
G04 #@! TO.C,U1*
X134366095Y-95972380D02*
X134366095Y-96781904D01*
X134413714Y-96877142D01*
X134461333Y-96924761D01*
X134556571Y-96972380D01*
X134747047Y-96972380D01*
X134842285Y-96924761D01*
X134889904Y-96877142D01*
X134937523Y-96781904D01*
X134937523Y-95972380D01*
X135937523Y-96972380D02*
X135366095Y-96972380D01*
X135651809Y-96972380D02*
X135651809Y-95972380D01*
X135556571Y-96115238D01*
X135461333Y-96210476D01*
X135366095Y-96258095D01*
G04 #@! TO.C,C3*
D18*
X109136666Y-96698571D02*
X109112857Y-96722380D01*
X109041428Y-96746190D01*
X108993809Y-96746190D01*
X108922380Y-96722380D01*
X108874761Y-96674761D01*
X108850952Y-96627142D01*
X108827142Y-96531904D01*
X108827142Y-96460476D01*
X108850952Y-96365238D01*
X108874761Y-96317619D01*
X108922380Y-96270000D01*
X108993809Y-96246190D01*
X109041428Y-96246190D01*
X109112857Y-96270000D01*
X109136666Y-96293809D01*
X109303333Y-96246190D02*
X109612857Y-96246190D01*
X109446190Y-96436666D01*
X109517619Y-96436666D01*
X109565238Y-96460476D01*
X109589047Y-96484285D01*
X109612857Y-96531904D01*
X109612857Y-96650952D01*
X109589047Y-96698571D01*
X109565238Y-96722380D01*
X109517619Y-96746190D01*
X109374761Y-96746190D01*
X109327142Y-96722380D01*
X109303333Y-96698571D01*
G04 #@! TO.C,C2*
X107493571Y-98293333D02*
X107517380Y-98317142D01*
X107541190Y-98388571D01*
X107541190Y-98436190D01*
X107517380Y-98507619D01*
X107469761Y-98555238D01*
X107422142Y-98579047D01*
X107326904Y-98602857D01*
X107255476Y-98602857D01*
X107160238Y-98579047D01*
X107112619Y-98555238D01*
X107065000Y-98507619D01*
X107041190Y-98436190D01*
X107041190Y-98388571D01*
X107065000Y-98317142D01*
X107088809Y-98293333D01*
X107088809Y-98102857D02*
X107065000Y-98079047D01*
X107041190Y-98031428D01*
X107041190Y-97912380D01*
X107065000Y-97864761D01*
X107088809Y-97840952D01*
X107136428Y-97817142D01*
X107184047Y-97817142D01*
X107255476Y-97840952D01*
X107541190Y-98126666D01*
X107541190Y-97817142D01*
G04 #@! TO.C,C1*
X113246666Y-94158571D02*
X113222857Y-94182380D01*
X113151428Y-94206190D01*
X113103809Y-94206190D01*
X113032380Y-94182380D01*
X112984761Y-94134761D01*
X112960952Y-94087142D01*
X112937142Y-93991904D01*
X112937142Y-93920476D01*
X112960952Y-93825238D01*
X112984761Y-93777619D01*
X113032380Y-93730000D01*
X113103809Y-93706190D01*
X113151428Y-93706190D01*
X113222857Y-93730000D01*
X113246666Y-93753809D01*
X113722857Y-94206190D02*
X113437142Y-94206190D01*
X113580000Y-94206190D02*
X113580000Y-93706190D01*
X113532380Y-93777619D01*
X113484761Y-93825238D01*
X113437142Y-93849047D01*
G04 #@! TO.C,U9AB1*
D12*
X108267380Y-103242666D02*
X109076904Y-103242666D01*
X109172142Y-103195047D01*
X109219761Y-103147428D01*
X109267380Y-103052190D01*
X109267380Y-102861714D01*
X109219761Y-102766476D01*
X109172142Y-102718857D01*
X109076904Y-102671238D01*
X108267380Y-102671238D01*
X109267380Y-102147428D02*
X109267380Y-101956952D01*
X109219761Y-101861714D01*
X109172142Y-101814095D01*
X109029285Y-101718857D01*
X108838809Y-101671238D01*
X108457857Y-101671238D01*
X108362619Y-101718857D01*
X108315000Y-101766476D01*
X108267380Y-101861714D01*
X108267380Y-102052190D01*
X108315000Y-102147428D01*
X108362619Y-102195047D01*
X108457857Y-102242666D01*
X108695952Y-102242666D01*
X108791190Y-102195047D01*
X108838809Y-102147428D01*
X108886428Y-102052190D01*
X108886428Y-101861714D01*
X108838809Y-101766476D01*
X108791190Y-101718857D01*
X108695952Y-101671238D01*
X108981666Y-101290285D02*
X108981666Y-100814095D01*
X109267380Y-101385523D02*
X108267380Y-101052190D01*
X109267380Y-100718857D01*
X108743571Y-100052190D02*
X108791190Y-99909333D01*
X108838809Y-99861714D01*
X108934047Y-99814095D01*
X109076904Y-99814095D01*
X109172142Y-99861714D01*
X109219761Y-99909333D01*
X109267380Y-100004571D01*
X109267380Y-100385523D01*
X108267380Y-100385523D01*
X108267380Y-100052190D01*
X108315000Y-99956952D01*
X108362619Y-99909333D01*
X108457857Y-99861714D01*
X108553095Y-99861714D01*
X108648333Y-99909333D01*
X108695952Y-99956952D01*
X108743571Y-100052190D01*
X108743571Y-100385523D01*
X109267380Y-98861714D02*
X109267380Y-99433142D01*
X109267380Y-99147428D02*
X108267380Y-99147428D01*
X108410238Y-99242666D01*
X108505476Y-99337904D01*
X108553095Y-99433142D01*
G04 #@! TD*
M02*
