G04 #@! TF.GenerationSoftware,KiCad,Pcbnew,(5.1.6)-1*
G04 #@! TF.CreationDate,2021-09-12T23:36:55-07:00*
G04 #@! TF.ProjectId,sulu_ldo_and_reg_panel,73756c75-5f6c-4646-9f5f-616e645f7265,rev?*
G04 #@! TF.SameCoordinates,Original*
G04 #@! TF.FileFunction,Paste,Top*
G04 #@! TF.FilePolarity,Positive*
%FSLAX46Y46*%
G04 Gerber Fmt 4.6, Leading zero omitted, Abs format (unit mm)*
G04 Created by KiCad (PCBNEW (5.1.6)-1) date 2021-09-12 23:36:55*
%MOMM*%
%LPD*%
G01*
G04 APERTURE LIST*
%ADD10R,1.210000X0.590000*%
%ADD11R,1.060000X0.650000*%
%ADD12O,0.200000X0.800000*%
%ADD13O,0.800000X0.200000*%
%ADD14R,0.500000X0.300000*%
G04 APERTURE END LIST*
D10*
G04 #@! TO.C,U3*
X76975001Y-59502000D03*
X76975001Y-61402000D03*
X74465001Y-61402000D03*
X74465001Y-60452000D03*
X74465001Y-59502000D03*
G04 #@! TD*
D11*
G04 #@! TO.C,U2*
X68467999Y-59421001D03*
X68467999Y-57521001D03*
X70667999Y-57521001D03*
X70667999Y-58471001D03*
X70667999Y-59421001D03*
G04 #@! TD*
G04 #@! TO.C,R4*
G36*
G01*
X86441500Y-58125000D02*
X86786500Y-58125000D01*
G75*
G02*
X86934000Y-58272500I0J-147500D01*
G01*
X86934000Y-58567500D01*
G75*
G02*
X86786500Y-58715000I-147500J0D01*
G01*
X86441500Y-58715000D01*
G75*
G02*
X86294000Y-58567500I0J147500D01*
G01*
X86294000Y-58272500D01*
G75*
G02*
X86441500Y-58125000I147500J0D01*
G01*
G37*
G36*
G01*
X86441500Y-57155000D02*
X86786500Y-57155000D01*
G75*
G02*
X86934000Y-57302500I0J-147500D01*
G01*
X86934000Y-57597500D01*
G75*
G02*
X86786500Y-57745000I-147500J0D01*
G01*
X86441500Y-57745000D01*
G75*
G02*
X86294000Y-57597500I0J147500D01*
G01*
X86294000Y-57302500D01*
G75*
G02*
X86441500Y-57155000I147500J0D01*
G01*
G37*
G04 #@! TD*
G04 #@! TO.C,R3*
G36*
G01*
X92029500Y-58079000D02*
X92374500Y-58079000D01*
G75*
G02*
X92522000Y-58226500I0J-147500D01*
G01*
X92522000Y-58521500D01*
G75*
G02*
X92374500Y-58669000I-147500J0D01*
G01*
X92029500Y-58669000D01*
G75*
G02*
X91882000Y-58521500I0J147500D01*
G01*
X91882000Y-58226500D01*
G75*
G02*
X92029500Y-58079000I147500J0D01*
G01*
G37*
G36*
G01*
X92029500Y-57109000D02*
X92374500Y-57109000D01*
G75*
G02*
X92522000Y-57256500I0J-147500D01*
G01*
X92522000Y-57551500D01*
G75*
G02*
X92374500Y-57699000I-147500J0D01*
G01*
X92029500Y-57699000D01*
G75*
G02*
X91882000Y-57551500I0J147500D01*
G01*
X91882000Y-57256500D01*
G75*
G02*
X92029500Y-57109000I147500J0D01*
G01*
G37*
G04 #@! TD*
G04 #@! TO.C,R2*
G36*
G01*
X94406500Y-57699000D02*
X94061500Y-57699000D01*
G75*
G02*
X93914000Y-57551500I0J147500D01*
G01*
X93914000Y-57256500D01*
G75*
G02*
X94061500Y-57109000I147500J0D01*
G01*
X94406500Y-57109000D01*
G75*
G02*
X94554000Y-57256500I0J-147500D01*
G01*
X94554000Y-57551500D01*
G75*
G02*
X94406500Y-57699000I-147500J0D01*
G01*
G37*
G36*
G01*
X94406500Y-58669000D02*
X94061500Y-58669000D01*
G75*
G02*
X93914000Y-58521500I0J147500D01*
G01*
X93914000Y-58226500D01*
G75*
G02*
X94061500Y-58079000I147500J0D01*
G01*
X94406500Y-58079000D01*
G75*
G02*
X94554000Y-58226500I0J-147500D01*
G01*
X94554000Y-58521500D01*
G75*
G02*
X94406500Y-58669000I-147500J0D01*
G01*
G37*
G04 #@! TD*
G04 #@! TO.C,C_1.8_OUT1*
G36*
G01*
X70998000Y-60884750D02*
X70998000Y-61797250D01*
G75*
G02*
X70754250Y-62041000I-243750J0D01*
G01*
X70266750Y-62041000D01*
G75*
G02*
X70023000Y-61797250I0J243750D01*
G01*
X70023000Y-60884750D01*
G75*
G02*
X70266750Y-60641000I243750J0D01*
G01*
X70754250Y-60641000D01*
G75*
G02*
X70998000Y-60884750I0J-243750D01*
G01*
G37*
G36*
G01*
X69123000Y-60884750D02*
X69123000Y-61797250D01*
G75*
G02*
X68879250Y-62041000I-243750J0D01*
G01*
X68391750Y-62041000D01*
G75*
G02*
X68148000Y-61797250I0J243750D01*
G01*
X68148000Y-60884750D01*
G75*
G02*
X68391750Y-60641000I243750J0D01*
G01*
X68879250Y-60641000D01*
G75*
G02*
X69123000Y-60884750I0J-243750D01*
G01*
G37*
G04 #@! TD*
G04 #@! TO.C,C_1.1_OUT1*
G36*
G01*
X74315500Y-57987250D02*
X74315500Y-57074750D01*
G75*
G02*
X74559250Y-56831000I243750J0D01*
G01*
X75046750Y-56831000D01*
G75*
G02*
X75290500Y-57074750I0J-243750D01*
G01*
X75290500Y-57987250D01*
G75*
G02*
X75046750Y-58231000I-243750J0D01*
G01*
X74559250Y-58231000D01*
G75*
G02*
X74315500Y-57987250I0J243750D01*
G01*
G37*
G36*
G01*
X76190500Y-57987250D02*
X76190500Y-57074750D01*
G75*
G02*
X76434250Y-56831000I243750J0D01*
G01*
X76921750Y-56831000D01*
G75*
G02*
X77165500Y-57074750I0J-243750D01*
G01*
X77165500Y-57987250D01*
G75*
G02*
X76921750Y-58231000I-243750J0D01*
G01*
X76434250Y-58231000D01*
G75*
G02*
X76190500Y-57987250I0J243750D01*
G01*
G37*
G04 #@! TD*
G04 #@! TO.C,C_1.1_IN1*
G36*
G01*
X73197500Y-60666000D02*
X72852500Y-60666000D01*
G75*
G02*
X72705000Y-60518500I0J147500D01*
G01*
X72705000Y-60223500D01*
G75*
G02*
X72852500Y-60076000I147500J0D01*
G01*
X73197500Y-60076000D01*
G75*
G02*
X73345000Y-60223500I0J-147500D01*
G01*
X73345000Y-60518500D01*
G75*
G02*
X73197500Y-60666000I-147500J0D01*
G01*
G37*
G36*
G01*
X73197500Y-61636000D02*
X72852500Y-61636000D01*
G75*
G02*
X72705000Y-61488500I0J147500D01*
G01*
X72705000Y-61193500D01*
G75*
G02*
X72852500Y-61046000I147500J0D01*
G01*
X73197500Y-61046000D01*
G75*
G02*
X73345000Y-61193500I0J-147500D01*
G01*
X73345000Y-61488500D01*
G75*
G02*
X73197500Y-61636000I-147500J0D01*
G01*
G37*
G04 #@! TD*
G04 #@! TO.C,C_1.8_IN1*
G36*
G01*
X72181500Y-58634000D02*
X71836500Y-58634000D01*
G75*
G02*
X71689000Y-58486500I0J147500D01*
G01*
X71689000Y-58191500D01*
G75*
G02*
X71836500Y-58044000I147500J0D01*
G01*
X72181500Y-58044000D01*
G75*
G02*
X72329000Y-58191500I0J-147500D01*
G01*
X72329000Y-58486500D01*
G75*
G02*
X72181500Y-58634000I-147500J0D01*
G01*
G37*
G36*
G01*
X72181500Y-59604000D02*
X71836500Y-59604000D01*
G75*
G02*
X71689000Y-59456500I0J147500D01*
G01*
X71689000Y-59161500D01*
G75*
G02*
X71836500Y-59014000I147500J0D01*
G01*
X72181500Y-59014000D01*
G75*
G02*
X72329000Y-59161500I0J-147500D01*
G01*
X72329000Y-59456500D01*
G75*
G02*
X72181500Y-59604000I-147500J0D01*
G01*
G37*
G04 #@! TD*
G04 #@! TO.C,R1*
G36*
G01*
X96987000Y-62656500D02*
X96987000Y-62311500D01*
G75*
G02*
X97134500Y-62164000I147500J0D01*
G01*
X97429500Y-62164000D01*
G75*
G02*
X97577000Y-62311500I0J-147500D01*
G01*
X97577000Y-62656500D01*
G75*
G02*
X97429500Y-62804000I-147500J0D01*
G01*
X97134500Y-62804000D01*
G75*
G02*
X96987000Y-62656500I0J147500D01*
G01*
G37*
G36*
G01*
X96017000Y-62656500D02*
X96017000Y-62311500D01*
G75*
G02*
X96164500Y-62164000I147500J0D01*
G01*
X96459500Y-62164000D01*
G75*
G02*
X96607000Y-62311500I0J-147500D01*
G01*
X96607000Y-62656500D01*
G75*
G02*
X96459500Y-62804000I-147500J0D01*
G01*
X96164500Y-62804000D01*
G75*
G02*
X96017000Y-62656500I0J147500D01*
G01*
G37*
G04 #@! TD*
G04 #@! TO.C,C13*
G36*
G01*
X90469500Y-57618000D02*
X90124500Y-57618000D01*
G75*
G02*
X89977000Y-57470500I0J147500D01*
G01*
X89977000Y-57175500D01*
G75*
G02*
X90124500Y-57028000I147500J0D01*
G01*
X90469500Y-57028000D01*
G75*
G02*
X90617000Y-57175500I0J-147500D01*
G01*
X90617000Y-57470500D01*
G75*
G02*
X90469500Y-57618000I-147500J0D01*
G01*
G37*
G36*
G01*
X90469500Y-58588000D02*
X90124500Y-58588000D01*
G75*
G02*
X89977000Y-58440500I0J147500D01*
G01*
X89977000Y-58145500D01*
G75*
G02*
X90124500Y-57998000I147500J0D01*
G01*
X90469500Y-57998000D01*
G75*
G02*
X90617000Y-58145500I0J-147500D01*
G01*
X90617000Y-58440500D01*
G75*
G02*
X90469500Y-58588000I-147500J0D01*
G01*
G37*
G04 #@! TD*
G04 #@! TO.C,C12*
G36*
G01*
X88564500Y-57618000D02*
X88219500Y-57618000D01*
G75*
G02*
X88072000Y-57470500I0J147500D01*
G01*
X88072000Y-57175500D01*
G75*
G02*
X88219500Y-57028000I147500J0D01*
G01*
X88564500Y-57028000D01*
G75*
G02*
X88712000Y-57175500I0J-147500D01*
G01*
X88712000Y-57470500D01*
G75*
G02*
X88564500Y-57618000I-147500J0D01*
G01*
G37*
G36*
G01*
X88564500Y-58588000D02*
X88219500Y-58588000D01*
G75*
G02*
X88072000Y-58440500I0J147500D01*
G01*
X88072000Y-58145500D01*
G75*
G02*
X88219500Y-57998000I147500J0D01*
G01*
X88564500Y-57998000D01*
G75*
G02*
X88712000Y-58145500I0J-147500D01*
G01*
X88712000Y-58440500D01*
G75*
G02*
X88564500Y-58588000I-147500J0D01*
G01*
G37*
G04 #@! TD*
G04 #@! TO.C,C11*
G36*
G01*
X96607000Y-63835500D02*
X96607000Y-64180500D01*
G75*
G02*
X96459500Y-64328000I-147500J0D01*
G01*
X96164500Y-64328000D01*
G75*
G02*
X96017000Y-64180500I0J147500D01*
G01*
X96017000Y-63835500D01*
G75*
G02*
X96164500Y-63688000I147500J0D01*
G01*
X96459500Y-63688000D01*
G75*
G02*
X96607000Y-63835500I0J-147500D01*
G01*
G37*
G36*
G01*
X97577000Y-63835500D02*
X97577000Y-64180500D01*
G75*
G02*
X97429500Y-64328000I-147500J0D01*
G01*
X97134500Y-64328000D01*
G75*
G02*
X96987000Y-64180500I0J147500D01*
G01*
X96987000Y-63835500D01*
G75*
G02*
X97134500Y-63688000I147500J0D01*
G01*
X97429500Y-63688000D01*
G75*
G02*
X97577000Y-63835500I0J-147500D01*
G01*
G37*
G04 #@! TD*
G04 #@! TO.C,C10*
G36*
G01*
X85008500Y-57699000D02*
X84663500Y-57699000D01*
G75*
G02*
X84516000Y-57551500I0J147500D01*
G01*
X84516000Y-57256500D01*
G75*
G02*
X84663500Y-57109000I147500J0D01*
G01*
X85008500Y-57109000D01*
G75*
G02*
X85156000Y-57256500I0J-147500D01*
G01*
X85156000Y-57551500D01*
G75*
G02*
X85008500Y-57699000I-147500J0D01*
G01*
G37*
G36*
G01*
X85008500Y-58669000D02*
X84663500Y-58669000D01*
G75*
G02*
X84516000Y-58521500I0J147500D01*
G01*
X84516000Y-58226500D01*
G75*
G02*
X84663500Y-58079000I147500J0D01*
G01*
X85008500Y-58079000D01*
G75*
G02*
X85156000Y-58226500I0J-147500D01*
G01*
X85156000Y-58521500D01*
G75*
G02*
X85008500Y-58669000I-147500J0D01*
G01*
G37*
G04 #@! TD*
G04 #@! TO.C,C9*
G36*
G01*
X97871500Y-75651000D02*
X98216500Y-75651000D01*
G75*
G02*
X98364000Y-75798500I0J-147500D01*
G01*
X98364000Y-76093500D01*
G75*
G02*
X98216500Y-76241000I-147500J0D01*
G01*
X97871500Y-76241000D01*
G75*
G02*
X97724000Y-76093500I0J147500D01*
G01*
X97724000Y-75798500D01*
G75*
G02*
X97871500Y-75651000I147500J0D01*
G01*
G37*
G36*
G01*
X97871500Y-74681000D02*
X98216500Y-74681000D01*
G75*
G02*
X98364000Y-74828500I0J-147500D01*
G01*
X98364000Y-75123500D01*
G75*
G02*
X98216500Y-75271000I-147500J0D01*
G01*
X97871500Y-75271000D01*
G75*
G02*
X97724000Y-75123500I0J147500D01*
G01*
X97724000Y-74828500D01*
G75*
G02*
X97871500Y-74681000I147500J0D01*
G01*
G37*
G04 #@! TD*
G04 #@! TO.C,C8*
G36*
G01*
X96474500Y-75605000D02*
X96819500Y-75605000D01*
G75*
G02*
X96967000Y-75752500I0J-147500D01*
G01*
X96967000Y-76047500D01*
G75*
G02*
X96819500Y-76195000I-147500J0D01*
G01*
X96474500Y-76195000D01*
G75*
G02*
X96327000Y-76047500I0J147500D01*
G01*
X96327000Y-75752500D01*
G75*
G02*
X96474500Y-75605000I147500J0D01*
G01*
G37*
G36*
G01*
X96474500Y-74635000D02*
X96819500Y-74635000D01*
G75*
G02*
X96967000Y-74782500I0J-147500D01*
G01*
X96967000Y-75077500D01*
G75*
G02*
X96819500Y-75225000I-147500J0D01*
G01*
X96474500Y-75225000D01*
G75*
G02*
X96327000Y-75077500I0J147500D01*
G01*
X96327000Y-74782500D01*
G75*
G02*
X96474500Y-74635000I147500J0D01*
G01*
G37*
G04 #@! TD*
G04 #@! TO.C,C7*
G36*
G01*
X104053000Y-56814500D02*
X104053000Y-56469500D01*
G75*
G02*
X104200500Y-56322000I147500J0D01*
G01*
X104495500Y-56322000D01*
G75*
G02*
X104643000Y-56469500I0J-147500D01*
G01*
X104643000Y-56814500D01*
G75*
G02*
X104495500Y-56962000I-147500J0D01*
G01*
X104200500Y-56962000D01*
G75*
G02*
X104053000Y-56814500I0J147500D01*
G01*
G37*
G36*
G01*
X103083000Y-56814500D02*
X103083000Y-56469500D01*
G75*
G02*
X103230500Y-56322000I147500J0D01*
G01*
X103525500Y-56322000D01*
G75*
G02*
X103673000Y-56469500I0J-147500D01*
G01*
X103673000Y-56814500D01*
G75*
G02*
X103525500Y-56962000I-147500J0D01*
G01*
X103230500Y-56962000D01*
G75*
G02*
X103083000Y-56814500I0J147500D01*
G01*
G37*
G04 #@! TD*
G04 #@! TO.C,C6*
G36*
G01*
X104053000Y-55290500D02*
X104053000Y-54945500D01*
G75*
G02*
X104200500Y-54798000I147500J0D01*
G01*
X104495500Y-54798000D01*
G75*
G02*
X104643000Y-54945500I0J-147500D01*
G01*
X104643000Y-55290500D01*
G75*
G02*
X104495500Y-55438000I-147500J0D01*
G01*
X104200500Y-55438000D01*
G75*
G02*
X104053000Y-55290500I0J147500D01*
G01*
G37*
G36*
G01*
X103083000Y-55290500D02*
X103083000Y-54945500D01*
G75*
G02*
X103230500Y-54798000I147500J0D01*
G01*
X103525500Y-54798000D01*
G75*
G02*
X103673000Y-54945500I0J-147500D01*
G01*
X103673000Y-55290500D01*
G75*
G02*
X103525500Y-55438000I-147500J0D01*
G01*
X103230500Y-55438000D01*
G75*
G02*
X103083000Y-55290500I0J147500D01*
G01*
G37*
G04 #@! TD*
G04 #@! TO.C,C5*
G36*
G01*
X75525000Y-71963500D02*
X75525000Y-72308500D01*
G75*
G02*
X75377500Y-72456000I-147500J0D01*
G01*
X75082500Y-72456000D01*
G75*
G02*
X74935000Y-72308500I0J147500D01*
G01*
X74935000Y-71963500D01*
G75*
G02*
X75082500Y-71816000I147500J0D01*
G01*
X75377500Y-71816000D01*
G75*
G02*
X75525000Y-71963500I0J-147500D01*
G01*
G37*
G36*
G01*
X76495000Y-71963500D02*
X76495000Y-72308500D01*
G75*
G02*
X76347500Y-72456000I-147500J0D01*
G01*
X76052500Y-72456000D01*
G75*
G02*
X75905000Y-72308500I0J147500D01*
G01*
X75905000Y-71963500D01*
G75*
G02*
X76052500Y-71816000I147500J0D01*
G01*
X76347500Y-71816000D01*
G75*
G02*
X76495000Y-71963500I0J-147500D01*
G01*
G37*
G04 #@! TD*
G04 #@! TO.C,C4*
G36*
G01*
X75502000Y-76027500D02*
X75502000Y-76372500D01*
G75*
G02*
X75354500Y-76520000I-147500J0D01*
G01*
X75059500Y-76520000D01*
G75*
G02*
X74912000Y-76372500I0J147500D01*
G01*
X74912000Y-76027500D01*
G75*
G02*
X75059500Y-75880000I147500J0D01*
G01*
X75354500Y-75880000D01*
G75*
G02*
X75502000Y-76027500I0J-147500D01*
G01*
G37*
G36*
G01*
X76472000Y-76027500D02*
X76472000Y-76372500D01*
G75*
G02*
X76324500Y-76520000I-147500J0D01*
G01*
X76029500Y-76520000D01*
G75*
G02*
X75882000Y-76372500I0J147500D01*
G01*
X75882000Y-76027500D01*
G75*
G02*
X76029500Y-75880000I147500J0D01*
G01*
X76324500Y-75880000D01*
G75*
G02*
X76472000Y-76027500I0J-147500D01*
G01*
G37*
G04 #@! TD*
D12*
G04 #@! TO.C,U1*
X81560000Y-60198000D03*
X81960000Y-60198000D03*
X82360000Y-60198000D03*
X82760000Y-60198000D03*
X83160000Y-60198000D03*
X83560000Y-60198000D03*
X83960000Y-60198000D03*
X84360000Y-60198000D03*
X84760000Y-60198000D03*
X85160000Y-60198000D03*
X85560000Y-60198000D03*
X85960000Y-60198000D03*
X86360000Y-60198000D03*
X86760000Y-60198000D03*
X87160000Y-60198000D03*
X87560000Y-60198000D03*
X87960000Y-60198000D03*
X88360000Y-60198000D03*
X88760000Y-60198000D03*
X89160000Y-60198000D03*
X89560000Y-60198000D03*
X89960000Y-60198000D03*
X90360000Y-60198000D03*
X90760000Y-60198000D03*
X91160000Y-60198000D03*
D13*
X92260000Y-61298000D03*
X92260000Y-61698000D03*
X92260000Y-62098000D03*
X92260000Y-62498000D03*
X92260000Y-62898000D03*
X92260000Y-63298000D03*
X92260000Y-63698000D03*
X92260000Y-64098000D03*
X92260000Y-64498000D03*
X92260000Y-64898000D03*
X92260000Y-65298000D03*
X92260000Y-65698000D03*
X92260000Y-66098000D03*
X92260000Y-66498000D03*
X92260000Y-66898000D03*
X92260000Y-67298000D03*
X92260000Y-67698000D03*
X92260000Y-68098000D03*
X92260000Y-68498000D03*
X92260000Y-68898000D03*
X92260000Y-69298000D03*
X92260000Y-69698000D03*
X92260000Y-70098000D03*
X92260000Y-70498000D03*
X92260000Y-70898000D03*
D12*
X91160000Y-71998000D03*
X90760000Y-71998000D03*
X90360000Y-71998000D03*
X89960000Y-71998000D03*
X89560000Y-71998000D03*
X89160000Y-71998000D03*
X88760000Y-71998000D03*
X88360000Y-71998000D03*
X87960000Y-71998000D03*
X87560000Y-71998000D03*
X87160000Y-71998000D03*
X86760000Y-71998000D03*
X86360000Y-71998000D03*
X85960000Y-71998000D03*
X85560000Y-71998000D03*
X85160000Y-71998000D03*
X84760000Y-71998000D03*
X84360000Y-71998000D03*
X83960000Y-71998000D03*
X83560000Y-71998000D03*
X83160000Y-71998000D03*
X82760000Y-71998000D03*
X82360000Y-71998000D03*
X81960000Y-71998000D03*
X81560000Y-71998000D03*
D13*
X80460000Y-70898000D03*
X80460000Y-70498000D03*
X80460000Y-70098000D03*
X80460000Y-69698000D03*
X80460000Y-69298000D03*
X80460000Y-68898000D03*
X80460000Y-68498000D03*
X80460000Y-68098000D03*
X80460000Y-67698000D03*
X80460000Y-67298000D03*
X80460000Y-66898000D03*
X80460000Y-66498000D03*
X80460000Y-66098000D03*
X80460000Y-65698000D03*
X80460000Y-65298000D03*
X80460000Y-64898000D03*
X80460000Y-64498000D03*
X80460000Y-64098000D03*
X80460000Y-63698000D03*
X80460000Y-63298000D03*
X80460000Y-62898000D03*
X80460000Y-62498000D03*
X80460000Y-62098000D03*
X80460000Y-61698000D03*
X80460000Y-61298000D03*
G04 #@! TD*
G04 #@! TO.C,C3*
G36*
G01*
X69891000Y-72725500D02*
X69891000Y-73070500D01*
G75*
G02*
X69743500Y-73218000I-147500J0D01*
G01*
X69448500Y-73218000D01*
G75*
G02*
X69301000Y-73070500I0J147500D01*
G01*
X69301000Y-72725500D01*
G75*
G02*
X69448500Y-72578000I147500J0D01*
G01*
X69743500Y-72578000D01*
G75*
G02*
X69891000Y-72725500I0J-147500D01*
G01*
G37*
G36*
G01*
X68921000Y-72725500D02*
X68921000Y-73070500D01*
G75*
G02*
X68773500Y-73218000I-147500J0D01*
G01*
X68478500Y-73218000D01*
G75*
G02*
X68331000Y-73070500I0J147500D01*
G01*
X68331000Y-72725500D01*
G75*
G02*
X68478500Y-72578000I147500J0D01*
G01*
X68773500Y-72578000D01*
G75*
G02*
X68921000Y-72725500I0J-147500D01*
G01*
G37*
G04 #@! TD*
G04 #@! TO.C,C2*
G36*
G01*
X67137500Y-75016000D02*
X67482500Y-75016000D01*
G75*
G02*
X67630000Y-75163500I0J-147500D01*
G01*
X67630000Y-75458500D01*
G75*
G02*
X67482500Y-75606000I-147500J0D01*
G01*
X67137500Y-75606000D01*
G75*
G02*
X66990000Y-75458500I0J147500D01*
G01*
X66990000Y-75163500D01*
G75*
G02*
X67137500Y-75016000I147500J0D01*
G01*
G37*
G36*
G01*
X67137500Y-75986000D02*
X67482500Y-75986000D01*
G75*
G02*
X67630000Y-76133500I0J-147500D01*
G01*
X67630000Y-76428500D01*
G75*
G02*
X67482500Y-76576000I-147500J0D01*
G01*
X67137500Y-76576000D01*
G75*
G02*
X66990000Y-76428500I0J147500D01*
G01*
X66990000Y-76133500D01*
G75*
G02*
X67137500Y-75986000I147500J0D01*
G01*
G37*
G04 #@! TD*
G04 #@! TO.C,C1*
G36*
G01*
X71125000Y-73070500D02*
X71125000Y-72725500D01*
G75*
G02*
X71272500Y-72578000I147500J0D01*
G01*
X71567500Y-72578000D01*
G75*
G02*
X71715000Y-72725500I0J-147500D01*
G01*
X71715000Y-73070500D01*
G75*
G02*
X71567500Y-73218000I-147500J0D01*
G01*
X71272500Y-73218000D01*
G75*
G02*
X71125000Y-73070500I0J147500D01*
G01*
G37*
G36*
G01*
X72095000Y-73070500D02*
X72095000Y-72725500D01*
G75*
G02*
X72242500Y-72578000I147500J0D01*
G01*
X72537500Y-72578000D01*
G75*
G02*
X72685000Y-72725500I0J-147500D01*
G01*
X72685000Y-73070500D01*
G75*
G02*
X72537500Y-73218000I-147500J0D01*
G01*
X72242500Y-73218000D01*
G75*
G02*
X72095000Y-73070500I0J147500D01*
G01*
G37*
G04 #@! TD*
G04 #@! TO.C,U9AB1*
G36*
G01*
X72260000Y-76896000D02*
X72260000Y-76996000D01*
G75*
G02*
X72210000Y-77046000I-50000J0D01*
G01*
X71760000Y-77046000D01*
G75*
G02*
X71710000Y-76996000I0J50000D01*
G01*
X71710000Y-76896000D01*
G75*
G02*
X71760000Y-76846000I50000J0D01*
G01*
X72210000Y-76846000D01*
G75*
G02*
X72260000Y-76896000I0J-50000D01*
G01*
G37*
G36*
G01*
X72260000Y-76496000D02*
X72260000Y-76596000D01*
G75*
G02*
X72210000Y-76646000I-50000J0D01*
G01*
X71760000Y-76646000D01*
G75*
G02*
X71710000Y-76596000I0J50000D01*
G01*
X71710000Y-76496000D01*
G75*
G02*
X71760000Y-76446000I50000J0D01*
G01*
X72210000Y-76446000D01*
G75*
G02*
X72260000Y-76496000I0J-50000D01*
G01*
G37*
G36*
G01*
X72260000Y-76096000D02*
X72260000Y-76196000D01*
G75*
G02*
X72210000Y-76246000I-50000J0D01*
G01*
X71760000Y-76246000D01*
G75*
G02*
X71710000Y-76196000I0J50000D01*
G01*
X71710000Y-76096000D01*
G75*
G02*
X71760000Y-76046000I50000J0D01*
G01*
X72210000Y-76046000D01*
G75*
G02*
X72260000Y-76096000I0J-50000D01*
G01*
G37*
G36*
G01*
X72260000Y-75696000D02*
X72260000Y-75796000D01*
G75*
G02*
X72210000Y-75846000I-50000J0D01*
G01*
X71760000Y-75846000D01*
G75*
G02*
X71710000Y-75796000I0J50000D01*
G01*
X71710000Y-75696000D01*
G75*
G02*
X71760000Y-75646000I50000J0D01*
G01*
X72210000Y-75646000D01*
G75*
G02*
X72260000Y-75696000I0J-50000D01*
G01*
G37*
G36*
G01*
X72260000Y-75296000D02*
X72260000Y-75396000D01*
G75*
G02*
X72210000Y-75446000I-50000J0D01*
G01*
X71760000Y-75446000D01*
G75*
G02*
X71710000Y-75396000I0J50000D01*
G01*
X71710000Y-75296000D01*
G75*
G02*
X71760000Y-75246000I50000J0D01*
G01*
X72210000Y-75246000D01*
G75*
G02*
X72260000Y-75296000I0J-50000D01*
G01*
G37*
G36*
G01*
X72260000Y-74896000D02*
X72260000Y-74996000D01*
G75*
G02*
X72210000Y-75046000I-50000J0D01*
G01*
X71760000Y-75046000D01*
G75*
G02*
X71710000Y-74996000I0J50000D01*
G01*
X71710000Y-74896000D01*
G75*
G02*
X71760000Y-74846000I50000J0D01*
G01*
X72210000Y-74846000D01*
G75*
G02*
X72260000Y-74896000I0J-50000D01*
G01*
G37*
G36*
G01*
X71435000Y-74171000D02*
X71535000Y-74171000D01*
G75*
G02*
X71585000Y-74221000I0J-50000D01*
G01*
X71585000Y-74671000D01*
G75*
G02*
X71535000Y-74721000I-50000J0D01*
G01*
X71435000Y-74721000D01*
G75*
G02*
X71385000Y-74671000I0J50000D01*
G01*
X71385000Y-74221000D01*
G75*
G02*
X71435000Y-74171000I50000J0D01*
G01*
G37*
G36*
G01*
X71035000Y-74171000D02*
X71135000Y-74171000D01*
G75*
G02*
X71185000Y-74221000I0J-50000D01*
G01*
X71185000Y-74671000D01*
G75*
G02*
X71135000Y-74721000I-50000J0D01*
G01*
X71035000Y-74721000D01*
G75*
G02*
X70985000Y-74671000I0J50000D01*
G01*
X70985000Y-74221000D01*
G75*
G02*
X71035000Y-74171000I50000J0D01*
G01*
G37*
G36*
G01*
X70635000Y-74171000D02*
X70735000Y-74171000D01*
G75*
G02*
X70785000Y-74221000I0J-50000D01*
G01*
X70785000Y-74671000D01*
G75*
G02*
X70735000Y-74721000I-50000J0D01*
G01*
X70635000Y-74721000D01*
G75*
G02*
X70585000Y-74671000I0J50000D01*
G01*
X70585000Y-74221000D01*
G75*
G02*
X70635000Y-74171000I50000J0D01*
G01*
G37*
G36*
G01*
X70235000Y-74171000D02*
X70335000Y-74171000D01*
G75*
G02*
X70385000Y-74221000I0J-50000D01*
G01*
X70385000Y-74671000D01*
G75*
G02*
X70335000Y-74721000I-50000J0D01*
G01*
X70235000Y-74721000D01*
G75*
G02*
X70185000Y-74671000I0J50000D01*
G01*
X70185000Y-74221000D01*
G75*
G02*
X70235000Y-74171000I50000J0D01*
G01*
G37*
G36*
G01*
X69835000Y-74171000D02*
X69935000Y-74171000D01*
G75*
G02*
X69985000Y-74221000I0J-50000D01*
G01*
X69985000Y-74671000D01*
G75*
G02*
X69935000Y-74721000I-50000J0D01*
G01*
X69835000Y-74721000D01*
G75*
G02*
X69785000Y-74671000I0J50000D01*
G01*
X69785000Y-74221000D01*
G75*
G02*
X69835000Y-74171000I50000J0D01*
G01*
G37*
G36*
G01*
X69435000Y-74171000D02*
X69535000Y-74171000D01*
G75*
G02*
X69585000Y-74221000I0J-50000D01*
G01*
X69585000Y-74671000D01*
G75*
G02*
X69535000Y-74721000I-50000J0D01*
G01*
X69435000Y-74721000D01*
G75*
G02*
X69385000Y-74671000I0J50000D01*
G01*
X69385000Y-74221000D01*
G75*
G02*
X69435000Y-74171000I50000J0D01*
G01*
G37*
G36*
G01*
X69260000Y-74896000D02*
X69260000Y-74996000D01*
G75*
G02*
X69210000Y-75046000I-50000J0D01*
G01*
X68760000Y-75046000D01*
G75*
G02*
X68710000Y-74996000I0J50000D01*
G01*
X68710000Y-74896000D01*
G75*
G02*
X68760000Y-74846000I50000J0D01*
G01*
X69210000Y-74846000D01*
G75*
G02*
X69260000Y-74896000I0J-50000D01*
G01*
G37*
G36*
G01*
X69260000Y-75296000D02*
X69260000Y-75396000D01*
G75*
G02*
X69210000Y-75446000I-50000J0D01*
G01*
X68760000Y-75446000D01*
G75*
G02*
X68710000Y-75396000I0J50000D01*
G01*
X68710000Y-75296000D01*
G75*
G02*
X68760000Y-75246000I50000J0D01*
G01*
X69210000Y-75246000D01*
G75*
G02*
X69260000Y-75296000I0J-50000D01*
G01*
G37*
G36*
G01*
X69260000Y-75696000D02*
X69260000Y-75796000D01*
G75*
G02*
X69210000Y-75846000I-50000J0D01*
G01*
X68760000Y-75846000D01*
G75*
G02*
X68710000Y-75796000I0J50000D01*
G01*
X68710000Y-75696000D01*
G75*
G02*
X68760000Y-75646000I50000J0D01*
G01*
X69210000Y-75646000D01*
G75*
G02*
X69260000Y-75696000I0J-50000D01*
G01*
G37*
G36*
G01*
X69260000Y-76096000D02*
X69260000Y-76196000D01*
G75*
G02*
X69210000Y-76246000I-50000J0D01*
G01*
X68760000Y-76246000D01*
G75*
G02*
X68710000Y-76196000I0J50000D01*
G01*
X68710000Y-76096000D01*
G75*
G02*
X68760000Y-76046000I50000J0D01*
G01*
X69210000Y-76046000D01*
G75*
G02*
X69260000Y-76096000I0J-50000D01*
G01*
G37*
G36*
G01*
X69260000Y-76496000D02*
X69260000Y-76596000D01*
G75*
G02*
X69210000Y-76646000I-50000J0D01*
G01*
X68760000Y-76646000D01*
G75*
G02*
X68710000Y-76596000I0J50000D01*
G01*
X68710000Y-76496000D01*
G75*
G02*
X68760000Y-76446000I50000J0D01*
G01*
X69210000Y-76446000D01*
G75*
G02*
X69260000Y-76496000I0J-50000D01*
G01*
G37*
G36*
G01*
X69260000Y-76896000D02*
X69260000Y-76996000D01*
G75*
G02*
X69210000Y-77046000I-50000J0D01*
G01*
X68760000Y-77046000D01*
G75*
G02*
X68710000Y-76996000I0J50000D01*
G01*
X68710000Y-76896000D01*
G75*
G02*
X68760000Y-76846000I50000J0D01*
G01*
X69210000Y-76846000D01*
G75*
G02*
X69260000Y-76896000I0J-50000D01*
G01*
G37*
G36*
G01*
X69435000Y-77171000D02*
X69535000Y-77171000D01*
G75*
G02*
X69585000Y-77221000I0J-50000D01*
G01*
X69585000Y-77671000D01*
G75*
G02*
X69535000Y-77721000I-50000J0D01*
G01*
X69435000Y-77721000D01*
G75*
G02*
X69385000Y-77671000I0J50000D01*
G01*
X69385000Y-77221000D01*
G75*
G02*
X69435000Y-77171000I50000J0D01*
G01*
G37*
G36*
G01*
X69835000Y-77171000D02*
X69935000Y-77171000D01*
G75*
G02*
X69985000Y-77221000I0J-50000D01*
G01*
X69985000Y-77671000D01*
G75*
G02*
X69935000Y-77721000I-50000J0D01*
G01*
X69835000Y-77721000D01*
G75*
G02*
X69785000Y-77671000I0J50000D01*
G01*
X69785000Y-77221000D01*
G75*
G02*
X69835000Y-77171000I50000J0D01*
G01*
G37*
G36*
G01*
X70235000Y-77171000D02*
X70335000Y-77171000D01*
G75*
G02*
X70385000Y-77221000I0J-50000D01*
G01*
X70385000Y-77671000D01*
G75*
G02*
X70335000Y-77721000I-50000J0D01*
G01*
X70235000Y-77721000D01*
G75*
G02*
X70185000Y-77671000I0J50000D01*
G01*
X70185000Y-77221000D01*
G75*
G02*
X70235000Y-77171000I50000J0D01*
G01*
G37*
G36*
G01*
X70635000Y-77171000D02*
X70735000Y-77171000D01*
G75*
G02*
X70785000Y-77221000I0J-50000D01*
G01*
X70785000Y-77671000D01*
G75*
G02*
X70735000Y-77721000I-50000J0D01*
G01*
X70635000Y-77721000D01*
G75*
G02*
X70585000Y-77671000I0J50000D01*
G01*
X70585000Y-77221000D01*
G75*
G02*
X70635000Y-77171000I50000J0D01*
G01*
G37*
G36*
G01*
X71035000Y-77171000D02*
X71135000Y-77171000D01*
G75*
G02*
X71185000Y-77221000I0J-50000D01*
G01*
X71185000Y-77671000D01*
G75*
G02*
X71135000Y-77721000I-50000J0D01*
G01*
X71035000Y-77721000D01*
G75*
G02*
X70985000Y-77671000I0J50000D01*
G01*
X70985000Y-77221000D01*
G75*
G02*
X71035000Y-77171000I50000J0D01*
G01*
G37*
G36*
G01*
X71435000Y-77171000D02*
X71535000Y-77171000D01*
G75*
G02*
X71585000Y-77221000I0J-50000D01*
G01*
X71585000Y-77671000D01*
G75*
G02*
X71535000Y-77721000I-50000J0D01*
G01*
X71435000Y-77721000D01*
G75*
G02*
X71385000Y-77671000I0J50000D01*
G01*
X71385000Y-77221000D01*
G75*
G02*
X71435000Y-77171000I50000J0D01*
G01*
G37*
G04 #@! TD*
G04 #@! TO.C,R4*
G36*
G01*
X86441500Y-95209000D02*
X86786500Y-95209000D01*
G75*
G02*
X86934000Y-95356500I0J-147500D01*
G01*
X86934000Y-95651500D01*
G75*
G02*
X86786500Y-95799000I-147500J0D01*
G01*
X86441500Y-95799000D01*
G75*
G02*
X86294000Y-95651500I0J147500D01*
G01*
X86294000Y-95356500D01*
G75*
G02*
X86441500Y-95209000I147500J0D01*
G01*
G37*
G36*
G01*
X86441500Y-94239000D02*
X86786500Y-94239000D01*
G75*
G02*
X86934000Y-94386500I0J-147500D01*
G01*
X86934000Y-94681500D01*
G75*
G02*
X86786500Y-94829000I-147500J0D01*
G01*
X86441500Y-94829000D01*
G75*
G02*
X86294000Y-94681500I0J147500D01*
G01*
X86294000Y-94386500D01*
G75*
G02*
X86441500Y-94239000I147500J0D01*
G01*
G37*
G04 #@! TD*
D14*
G04 #@! TO.C,U3*
X75017999Y-95496000D03*
X75017999Y-94996000D03*
X75017999Y-94496000D03*
X76817999Y-94496000D03*
X76817999Y-94996000D03*
X76817999Y-95496000D03*
G04 #@! TD*
G04 #@! TO.C,U2*
X71286001Y-96984999D03*
X71286001Y-97484999D03*
X71286001Y-97984999D03*
X69486001Y-97984999D03*
X69486001Y-97484999D03*
X69486001Y-96984999D03*
G04 #@! TD*
G04 #@! TO.C,R3*
G36*
G01*
X92029500Y-95163000D02*
X92374500Y-95163000D01*
G75*
G02*
X92522000Y-95310500I0J-147500D01*
G01*
X92522000Y-95605500D01*
G75*
G02*
X92374500Y-95753000I-147500J0D01*
G01*
X92029500Y-95753000D01*
G75*
G02*
X91882000Y-95605500I0J147500D01*
G01*
X91882000Y-95310500D01*
G75*
G02*
X92029500Y-95163000I147500J0D01*
G01*
G37*
G36*
G01*
X92029500Y-94193000D02*
X92374500Y-94193000D01*
G75*
G02*
X92522000Y-94340500I0J-147500D01*
G01*
X92522000Y-94635500D01*
G75*
G02*
X92374500Y-94783000I-147500J0D01*
G01*
X92029500Y-94783000D01*
G75*
G02*
X91882000Y-94635500I0J147500D01*
G01*
X91882000Y-94340500D01*
G75*
G02*
X92029500Y-94193000I147500J0D01*
G01*
G37*
G04 #@! TD*
G04 #@! TO.C,R2*
G36*
G01*
X94406500Y-94783000D02*
X94061500Y-94783000D01*
G75*
G02*
X93914000Y-94635500I0J147500D01*
G01*
X93914000Y-94340500D01*
G75*
G02*
X94061500Y-94193000I147500J0D01*
G01*
X94406500Y-94193000D01*
G75*
G02*
X94554000Y-94340500I0J-147500D01*
G01*
X94554000Y-94635500D01*
G75*
G02*
X94406500Y-94783000I-147500J0D01*
G01*
G37*
G36*
G01*
X94406500Y-95753000D02*
X94061500Y-95753000D01*
G75*
G02*
X93914000Y-95605500I0J147500D01*
G01*
X93914000Y-95310500D01*
G75*
G02*
X94061500Y-95163000I147500J0D01*
G01*
X94406500Y-95163000D01*
G75*
G02*
X94554000Y-95310500I0J-147500D01*
G01*
X94554000Y-95605500D01*
G75*
G02*
X94406500Y-95753000I-147500J0D01*
G01*
G37*
G04 #@! TD*
G04 #@! TO.C,C_1.8_OUT1*
G36*
G01*
X69931000Y-94539750D02*
X69931000Y-95452250D01*
G75*
G02*
X69687250Y-95696000I-243750J0D01*
G01*
X69199750Y-95696000D01*
G75*
G02*
X68956000Y-95452250I0J243750D01*
G01*
X68956000Y-94539750D01*
G75*
G02*
X69199750Y-94296000I243750J0D01*
G01*
X69687250Y-94296000D01*
G75*
G02*
X69931000Y-94539750I0J-243750D01*
G01*
G37*
G36*
G01*
X71806000Y-94539750D02*
X71806000Y-95452250D01*
G75*
G02*
X71562250Y-95696000I-243750J0D01*
G01*
X71074750Y-95696000D01*
G75*
G02*
X70831000Y-95452250I0J243750D01*
G01*
X70831000Y-94539750D01*
G75*
G02*
X71074750Y-94296000I243750J0D01*
G01*
X71562250Y-94296000D01*
G75*
G02*
X71806000Y-94539750I0J-243750D01*
G01*
G37*
G04 #@! TD*
G04 #@! TO.C,C_1.1_OUT1*
G36*
G01*
X76347500Y-97992250D02*
X76347500Y-97079750D01*
G75*
G02*
X76591250Y-96836000I243750J0D01*
G01*
X77078750Y-96836000D01*
G75*
G02*
X77322500Y-97079750I0J-243750D01*
G01*
X77322500Y-97992250D01*
G75*
G02*
X77078750Y-98236000I-243750J0D01*
G01*
X76591250Y-98236000D01*
G75*
G02*
X76347500Y-97992250I0J243750D01*
G01*
G37*
G36*
G01*
X74472500Y-97992250D02*
X74472500Y-97079750D01*
G75*
G02*
X74716250Y-96836000I243750J0D01*
G01*
X75203750Y-96836000D01*
G75*
G02*
X75447500Y-97079750I0J-243750D01*
G01*
X75447500Y-97992250D01*
G75*
G02*
X75203750Y-98236000I-243750J0D01*
G01*
X74716250Y-98236000D01*
G75*
G02*
X74472500Y-97992250I0J243750D01*
G01*
G37*
G04 #@! TD*
G04 #@! TO.C,L2*
G36*
G01*
X78150500Y-94829000D02*
X77805500Y-94829000D01*
G75*
G02*
X77658000Y-94681500I0J147500D01*
G01*
X77658000Y-94386500D01*
G75*
G02*
X77805500Y-94239000I147500J0D01*
G01*
X78150500Y-94239000D01*
G75*
G02*
X78298000Y-94386500I0J-147500D01*
G01*
X78298000Y-94681500D01*
G75*
G02*
X78150500Y-94829000I-147500J0D01*
G01*
G37*
G36*
G01*
X78150500Y-95799000D02*
X77805500Y-95799000D01*
G75*
G02*
X77658000Y-95651500I0J147500D01*
G01*
X77658000Y-95356500D01*
G75*
G02*
X77805500Y-95209000I147500J0D01*
G01*
X78150500Y-95209000D01*
G75*
G02*
X78298000Y-95356500I0J-147500D01*
G01*
X78298000Y-95651500D01*
G75*
G02*
X78150500Y-95799000I-147500J0D01*
G01*
G37*
G04 #@! TD*
G04 #@! TO.C,L1*
G36*
G01*
X68153500Y-97703000D02*
X68498500Y-97703000D01*
G75*
G02*
X68646000Y-97850500I0J-147500D01*
G01*
X68646000Y-98145500D01*
G75*
G02*
X68498500Y-98293000I-147500J0D01*
G01*
X68153500Y-98293000D01*
G75*
G02*
X68006000Y-98145500I0J147500D01*
G01*
X68006000Y-97850500D01*
G75*
G02*
X68153500Y-97703000I147500J0D01*
G01*
G37*
G36*
G01*
X68153500Y-96733000D02*
X68498500Y-96733000D01*
G75*
G02*
X68646000Y-96880500I0J-147500D01*
G01*
X68646000Y-97175500D01*
G75*
G02*
X68498500Y-97323000I-147500J0D01*
G01*
X68153500Y-97323000D01*
G75*
G02*
X68006000Y-97175500I0J147500D01*
G01*
X68006000Y-96880500D01*
G75*
G02*
X68153500Y-96733000I147500J0D01*
G01*
G37*
G04 #@! TD*
G04 #@! TO.C,C_1.1_IN1*
G36*
G01*
X74086500Y-94829000D02*
X73741500Y-94829000D01*
G75*
G02*
X73594000Y-94681500I0J147500D01*
G01*
X73594000Y-94386500D01*
G75*
G02*
X73741500Y-94239000I147500J0D01*
G01*
X74086500Y-94239000D01*
G75*
G02*
X74234000Y-94386500I0J-147500D01*
G01*
X74234000Y-94681500D01*
G75*
G02*
X74086500Y-94829000I-147500J0D01*
G01*
G37*
G36*
G01*
X74086500Y-95799000D02*
X73741500Y-95799000D01*
G75*
G02*
X73594000Y-95651500I0J147500D01*
G01*
X73594000Y-95356500D01*
G75*
G02*
X73741500Y-95209000I147500J0D01*
G01*
X74086500Y-95209000D01*
G75*
G02*
X74234000Y-95356500I0J-147500D01*
G01*
X74234000Y-95651500D01*
G75*
G02*
X74086500Y-95799000I-147500J0D01*
G01*
G37*
G04 #@! TD*
G04 #@! TO.C,C_1.8_IN1*
G36*
G01*
X72217500Y-97703000D02*
X72562500Y-97703000D01*
G75*
G02*
X72710000Y-97850500I0J-147500D01*
G01*
X72710000Y-98145500D01*
G75*
G02*
X72562500Y-98293000I-147500J0D01*
G01*
X72217500Y-98293000D01*
G75*
G02*
X72070000Y-98145500I0J147500D01*
G01*
X72070000Y-97850500D01*
G75*
G02*
X72217500Y-97703000I147500J0D01*
G01*
G37*
G36*
G01*
X72217500Y-96733000D02*
X72562500Y-96733000D01*
G75*
G02*
X72710000Y-96880500I0J-147500D01*
G01*
X72710000Y-97175500D01*
G75*
G02*
X72562500Y-97323000I-147500J0D01*
G01*
X72217500Y-97323000D01*
G75*
G02*
X72070000Y-97175500I0J147500D01*
G01*
X72070000Y-96880500D01*
G75*
G02*
X72217500Y-96733000I147500J0D01*
G01*
G37*
G04 #@! TD*
G04 #@! TO.C,R1*
G36*
G01*
X96987000Y-99740500D02*
X96987000Y-99395500D01*
G75*
G02*
X97134500Y-99248000I147500J0D01*
G01*
X97429500Y-99248000D01*
G75*
G02*
X97577000Y-99395500I0J-147500D01*
G01*
X97577000Y-99740500D01*
G75*
G02*
X97429500Y-99888000I-147500J0D01*
G01*
X97134500Y-99888000D01*
G75*
G02*
X96987000Y-99740500I0J147500D01*
G01*
G37*
G36*
G01*
X96017000Y-99740500D02*
X96017000Y-99395500D01*
G75*
G02*
X96164500Y-99248000I147500J0D01*
G01*
X96459500Y-99248000D01*
G75*
G02*
X96607000Y-99395500I0J-147500D01*
G01*
X96607000Y-99740500D01*
G75*
G02*
X96459500Y-99888000I-147500J0D01*
G01*
X96164500Y-99888000D01*
G75*
G02*
X96017000Y-99740500I0J147500D01*
G01*
G37*
G04 #@! TD*
G04 #@! TO.C,C13*
G36*
G01*
X90469500Y-94702000D02*
X90124500Y-94702000D01*
G75*
G02*
X89977000Y-94554500I0J147500D01*
G01*
X89977000Y-94259500D01*
G75*
G02*
X90124500Y-94112000I147500J0D01*
G01*
X90469500Y-94112000D01*
G75*
G02*
X90617000Y-94259500I0J-147500D01*
G01*
X90617000Y-94554500D01*
G75*
G02*
X90469500Y-94702000I-147500J0D01*
G01*
G37*
G36*
G01*
X90469500Y-95672000D02*
X90124500Y-95672000D01*
G75*
G02*
X89977000Y-95524500I0J147500D01*
G01*
X89977000Y-95229500D01*
G75*
G02*
X90124500Y-95082000I147500J0D01*
G01*
X90469500Y-95082000D01*
G75*
G02*
X90617000Y-95229500I0J-147500D01*
G01*
X90617000Y-95524500D01*
G75*
G02*
X90469500Y-95672000I-147500J0D01*
G01*
G37*
G04 #@! TD*
G04 #@! TO.C,C12*
G36*
G01*
X88564500Y-94702000D02*
X88219500Y-94702000D01*
G75*
G02*
X88072000Y-94554500I0J147500D01*
G01*
X88072000Y-94259500D01*
G75*
G02*
X88219500Y-94112000I147500J0D01*
G01*
X88564500Y-94112000D01*
G75*
G02*
X88712000Y-94259500I0J-147500D01*
G01*
X88712000Y-94554500D01*
G75*
G02*
X88564500Y-94702000I-147500J0D01*
G01*
G37*
G36*
G01*
X88564500Y-95672000D02*
X88219500Y-95672000D01*
G75*
G02*
X88072000Y-95524500I0J147500D01*
G01*
X88072000Y-95229500D01*
G75*
G02*
X88219500Y-95082000I147500J0D01*
G01*
X88564500Y-95082000D01*
G75*
G02*
X88712000Y-95229500I0J-147500D01*
G01*
X88712000Y-95524500D01*
G75*
G02*
X88564500Y-95672000I-147500J0D01*
G01*
G37*
G04 #@! TD*
G04 #@! TO.C,C11*
G36*
G01*
X96607000Y-100919500D02*
X96607000Y-101264500D01*
G75*
G02*
X96459500Y-101412000I-147500J0D01*
G01*
X96164500Y-101412000D01*
G75*
G02*
X96017000Y-101264500I0J147500D01*
G01*
X96017000Y-100919500D01*
G75*
G02*
X96164500Y-100772000I147500J0D01*
G01*
X96459500Y-100772000D01*
G75*
G02*
X96607000Y-100919500I0J-147500D01*
G01*
G37*
G36*
G01*
X97577000Y-100919500D02*
X97577000Y-101264500D01*
G75*
G02*
X97429500Y-101412000I-147500J0D01*
G01*
X97134500Y-101412000D01*
G75*
G02*
X96987000Y-101264500I0J147500D01*
G01*
X96987000Y-100919500D01*
G75*
G02*
X97134500Y-100772000I147500J0D01*
G01*
X97429500Y-100772000D01*
G75*
G02*
X97577000Y-100919500I0J-147500D01*
G01*
G37*
G04 #@! TD*
G04 #@! TO.C,C10*
G36*
G01*
X85008500Y-94783000D02*
X84663500Y-94783000D01*
G75*
G02*
X84516000Y-94635500I0J147500D01*
G01*
X84516000Y-94340500D01*
G75*
G02*
X84663500Y-94193000I147500J0D01*
G01*
X85008500Y-94193000D01*
G75*
G02*
X85156000Y-94340500I0J-147500D01*
G01*
X85156000Y-94635500D01*
G75*
G02*
X85008500Y-94783000I-147500J0D01*
G01*
G37*
G36*
G01*
X85008500Y-95753000D02*
X84663500Y-95753000D01*
G75*
G02*
X84516000Y-95605500I0J147500D01*
G01*
X84516000Y-95310500D01*
G75*
G02*
X84663500Y-95163000I147500J0D01*
G01*
X85008500Y-95163000D01*
G75*
G02*
X85156000Y-95310500I0J-147500D01*
G01*
X85156000Y-95605500D01*
G75*
G02*
X85008500Y-95753000I-147500J0D01*
G01*
G37*
G04 #@! TD*
G04 #@! TO.C,C9*
G36*
G01*
X97871500Y-112735000D02*
X98216500Y-112735000D01*
G75*
G02*
X98364000Y-112882500I0J-147500D01*
G01*
X98364000Y-113177500D01*
G75*
G02*
X98216500Y-113325000I-147500J0D01*
G01*
X97871500Y-113325000D01*
G75*
G02*
X97724000Y-113177500I0J147500D01*
G01*
X97724000Y-112882500D01*
G75*
G02*
X97871500Y-112735000I147500J0D01*
G01*
G37*
G36*
G01*
X97871500Y-111765000D02*
X98216500Y-111765000D01*
G75*
G02*
X98364000Y-111912500I0J-147500D01*
G01*
X98364000Y-112207500D01*
G75*
G02*
X98216500Y-112355000I-147500J0D01*
G01*
X97871500Y-112355000D01*
G75*
G02*
X97724000Y-112207500I0J147500D01*
G01*
X97724000Y-111912500D01*
G75*
G02*
X97871500Y-111765000I147500J0D01*
G01*
G37*
G04 #@! TD*
G04 #@! TO.C,C8*
G36*
G01*
X96474500Y-112689000D02*
X96819500Y-112689000D01*
G75*
G02*
X96967000Y-112836500I0J-147500D01*
G01*
X96967000Y-113131500D01*
G75*
G02*
X96819500Y-113279000I-147500J0D01*
G01*
X96474500Y-113279000D01*
G75*
G02*
X96327000Y-113131500I0J147500D01*
G01*
X96327000Y-112836500D01*
G75*
G02*
X96474500Y-112689000I147500J0D01*
G01*
G37*
G36*
G01*
X96474500Y-111719000D02*
X96819500Y-111719000D01*
G75*
G02*
X96967000Y-111866500I0J-147500D01*
G01*
X96967000Y-112161500D01*
G75*
G02*
X96819500Y-112309000I-147500J0D01*
G01*
X96474500Y-112309000D01*
G75*
G02*
X96327000Y-112161500I0J147500D01*
G01*
X96327000Y-111866500D01*
G75*
G02*
X96474500Y-111719000I147500J0D01*
G01*
G37*
G04 #@! TD*
G04 #@! TO.C,C7*
G36*
G01*
X104053000Y-93898500D02*
X104053000Y-93553500D01*
G75*
G02*
X104200500Y-93406000I147500J0D01*
G01*
X104495500Y-93406000D01*
G75*
G02*
X104643000Y-93553500I0J-147500D01*
G01*
X104643000Y-93898500D01*
G75*
G02*
X104495500Y-94046000I-147500J0D01*
G01*
X104200500Y-94046000D01*
G75*
G02*
X104053000Y-93898500I0J147500D01*
G01*
G37*
G36*
G01*
X103083000Y-93898500D02*
X103083000Y-93553500D01*
G75*
G02*
X103230500Y-93406000I147500J0D01*
G01*
X103525500Y-93406000D01*
G75*
G02*
X103673000Y-93553500I0J-147500D01*
G01*
X103673000Y-93898500D01*
G75*
G02*
X103525500Y-94046000I-147500J0D01*
G01*
X103230500Y-94046000D01*
G75*
G02*
X103083000Y-93898500I0J147500D01*
G01*
G37*
G04 #@! TD*
G04 #@! TO.C,C6*
G36*
G01*
X104053000Y-92374500D02*
X104053000Y-92029500D01*
G75*
G02*
X104200500Y-91882000I147500J0D01*
G01*
X104495500Y-91882000D01*
G75*
G02*
X104643000Y-92029500I0J-147500D01*
G01*
X104643000Y-92374500D01*
G75*
G02*
X104495500Y-92522000I-147500J0D01*
G01*
X104200500Y-92522000D01*
G75*
G02*
X104053000Y-92374500I0J147500D01*
G01*
G37*
G36*
G01*
X103083000Y-92374500D02*
X103083000Y-92029500D01*
G75*
G02*
X103230500Y-91882000I147500J0D01*
G01*
X103525500Y-91882000D01*
G75*
G02*
X103673000Y-92029500I0J-147500D01*
G01*
X103673000Y-92374500D01*
G75*
G02*
X103525500Y-92522000I-147500J0D01*
G01*
X103230500Y-92522000D01*
G75*
G02*
X103083000Y-92374500I0J147500D01*
G01*
G37*
G04 #@! TD*
G04 #@! TO.C,C5*
G36*
G01*
X75525000Y-109047500D02*
X75525000Y-109392500D01*
G75*
G02*
X75377500Y-109540000I-147500J0D01*
G01*
X75082500Y-109540000D01*
G75*
G02*
X74935000Y-109392500I0J147500D01*
G01*
X74935000Y-109047500D01*
G75*
G02*
X75082500Y-108900000I147500J0D01*
G01*
X75377500Y-108900000D01*
G75*
G02*
X75525000Y-109047500I0J-147500D01*
G01*
G37*
G36*
G01*
X76495000Y-109047500D02*
X76495000Y-109392500D01*
G75*
G02*
X76347500Y-109540000I-147500J0D01*
G01*
X76052500Y-109540000D01*
G75*
G02*
X75905000Y-109392500I0J147500D01*
G01*
X75905000Y-109047500D01*
G75*
G02*
X76052500Y-108900000I147500J0D01*
G01*
X76347500Y-108900000D01*
G75*
G02*
X76495000Y-109047500I0J-147500D01*
G01*
G37*
G04 #@! TD*
G04 #@! TO.C,C4*
G36*
G01*
X75502000Y-113111500D02*
X75502000Y-113456500D01*
G75*
G02*
X75354500Y-113604000I-147500J0D01*
G01*
X75059500Y-113604000D01*
G75*
G02*
X74912000Y-113456500I0J147500D01*
G01*
X74912000Y-113111500D01*
G75*
G02*
X75059500Y-112964000I147500J0D01*
G01*
X75354500Y-112964000D01*
G75*
G02*
X75502000Y-113111500I0J-147500D01*
G01*
G37*
G36*
G01*
X76472000Y-113111500D02*
X76472000Y-113456500D01*
G75*
G02*
X76324500Y-113604000I-147500J0D01*
G01*
X76029500Y-113604000D01*
G75*
G02*
X75882000Y-113456500I0J147500D01*
G01*
X75882000Y-113111500D01*
G75*
G02*
X76029500Y-112964000I147500J0D01*
G01*
X76324500Y-112964000D01*
G75*
G02*
X76472000Y-113111500I0J-147500D01*
G01*
G37*
G04 #@! TD*
D12*
G04 #@! TO.C,U1*
X81560000Y-97282000D03*
X81960000Y-97282000D03*
X82360000Y-97282000D03*
X82760000Y-97282000D03*
X83160000Y-97282000D03*
X83560000Y-97282000D03*
X83960000Y-97282000D03*
X84360000Y-97282000D03*
X84760000Y-97282000D03*
X85160000Y-97282000D03*
X85560000Y-97282000D03*
X85960000Y-97282000D03*
X86360000Y-97282000D03*
X86760000Y-97282000D03*
X87160000Y-97282000D03*
X87560000Y-97282000D03*
X87960000Y-97282000D03*
X88360000Y-97282000D03*
X88760000Y-97282000D03*
X89160000Y-97282000D03*
X89560000Y-97282000D03*
X89960000Y-97282000D03*
X90360000Y-97282000D03*
X90760000Y-97282000D03*
X91160000Y-97282000D03*
D13*
X92260000Y-98382000D03*
X92260000Y-98782000D03*
X92260000Y-99182000D03*
X92260000Y-99582000D03*
X92260000Y-99982000D03*
X92260000Y-100382000D03*
X92260000Y-100782000D03*
X92260000Y-101182000D03*
X92260000Y-101582000D03*
X92260000Y-101982000D03*
X92260000Y-102382000D03*
X92260000Y-102782000D03*
X92260000Y-103182000D03*
X92260000Y-103582000D03*
X92260000Y-103982000D03*
X92260000Y-104382000D03*
X92260000Y-104782000D03*
X92260000Y-105182000D03*
X92260000Y-105582000D03*
X92260000Y-105982000D03*
X92260000Y-106382000D03*
X92260000Y-106782000D03*
X92260000Y-107182000D03*
X92260000Y-107582000D03*
X92260000Y-107982000D03*
D12*
X91160000Y-109082000D03*
X90760000Y-109082000D03*
X90360000Y-109082000D03*
X89960000Y-109082000D03*
X89560000Y-109082000D03*
X89160000Y-109082000D03*
X88760000Y-109082000D03*
X88360000Y-109082000D03*
X87960000Y-109082000D03*
X87560000Y-109082000D03*
X87160000Y-109082000D03*
X86760000Y-109082000D03*
X86360000Y-109082000D03*
X85960000Y-109082000D03*
X85560000Y-109082000D03*
X85160000Y-109082000D03*
X84760000Y-109082000D03*
X84360000Y-109082000D03*
X83960000Y-109082000D03*
X83560000Y-109082000D03*
X83160000Y-109082000D03*
X82760000Y-109082000D03*
X82360000Y-109082000D03*
X81960000Y-109082000D03*
X81560000Y-109082000D03*
D13*
X80460000Y-107982000D03*
X80460000Y-107582000D03*
X80460000Y-107182000D03*
X80460000Y-106782000D03*
X80460000Y-106382000D03*
X80460000Y-105982000D03*
X80460000Y-105582000D03*
X80460000Y-105182000D03*
X80460000Y-104782000D03*
X80460000Y-104382000D03*
X80460000Y-103982000D03*
X80460000Y-103582000D03*
X80460000Y-103182000D03*
X80460000Y-102782000D03*
X80460000Y-102382000D03*
X80460000Y-101982000D03*
X80460000Y-101582000D03*
X80460000Y-101182000D03*
X80460000Y-100782000D03*
X80460000Y-100382000D03*
X80460000Y-99982000D03*
X80460000Y-99582000D03*
X80460000Y-99182000D03*
X80460000Y-98782000D03*
X80460000Y-98382000D03*
G04 #@! TD*
G04 #@! TO.C,C3*
G36*
G01*
X69891000Y-109809500D02*
X69891000Y-110154500D01*
G75*
G02*
X69743500Y-110302000I-147500J0D01*
G01*
X69448500Y-110302000D01*
G75*
G02*
X69301000Y-110154500I0J147500D01*
G01*
X69301000Y-109809500D01*
G75*
G02*
X69448500Y-109662000I147500J0D01*
G01*
X69743500Y-109662000D01*
G75*
G02*
X69891000Y-109809500I0J-147500D01*
G01*
G37*
G36*
G01*
X68921000Y-109809500D02*
X68921000Y-110154500D01*
G75*
G02*
X68773500Y-110302000I-147500J0D01*
G01*
X68478500Y-110302000D01*
G75*
G02*
X68331000Y-110154500I0J147500D01*
G01*
X68331000Y-109809500D01*
G75*
G02*
X68478500Y-109662000I147500J0D01*
G01*
X68773500Y-109662000D01*
G75*
G02*
X68921000Y-109809500I0J-147500D01*
G01*
G37*
G04 #@! TD*
G04 #@! TO.C,C2*
G36*
G01*
X67137500Y-112100000D02*
X67482500Y-112100000D01*
G75*
G02*
X67630000Y-112247500I0J-147500D01*
G01*
X67630000Y-112542500D01*
G75*
G02*
X67482500Y-112690000I-147500J0D01*
G01*
X67137500Y-112690000D01*
G75*
G02*
X66990000Y-112542500I0J147500D01*
G01*
X66990000Y-112247500D01*
G75*
G02*
X67137500Y-112100000I147500J0D01*
G01*
G37*
G36*
G01*
X67137500Y-113070000D02*
X67482500Y-113070000D01*
G75*
G02*
X67630000Y-113217500I0J-147500D01*
G01*
X67630000Y-113512500D01*
G75*
G02*
X67482500Y-113660000I-147500J0D01*
G01*
X67137500Y-113660000D01*
G75*
G02*
X66990000Y-113512500I0J147500D01*
G01*
X66990000Y-113217500D01*
G75*
G02*
X67137500Y-113070000I147500J0D01*
G01*
G37*
G04 #@! TD*
G04 #@! TO.C,C1*
G36*
G01*
X71125000Y-110154500D02*
X71125000Y-109809500D01*
G75*
G02*
X71272500Y-109662000I147500J0D01*
G01*
X71567500Y-109662000D01*
G75*
G02*
X71715000Y-109809500I0J-147500D01*
G01*
X71715000Y-110154500D01*
G75*
G02*
X71567500Y-110302000I-147500J0D01*
G01*
X71272500Y-110302000D01*
G75*
G02*
X71125000Y-110154500I0J147500D01*
G01*
G37*
G36*
G01*
X72095000Y-110154500D02*
X72095000Y-109809500D01*
G75*
G02*
X72242500Y-109662000I147500J0D01*
G01*
X72537500Y-109662000D01*
G75*
G02*
X72685000Y-109809500I0J-147500D01*
G01*
X72685000Y-110154500D01*
G75*
G02*
X72537500Y-110302000I-147500J0D01*
G01*
X72242500Y-110302000D01*
G75*
G02*
X72095000Y-110154500I0J147500D01*
G01*
G37*
G04 #@! TD*
G04 #@! TO.C,U9AB1*
G36*
G01*
X72260000Y-113980000D02*
X72260000Y-114080000D01*
G75*
G02*
X72210000Y-114130000I-50000J0D01*
G01*
X71760000Y-114130000D01*
G75*
G02*
X71710000Y-114080000I0J50000D01*
G01*
X71710000Y-113980000D01*
G75*
G02*
X71760000Y-113930000I50000J0D01*
G01*
X72210000Y-113930000D01*
G75*
G02*
X72260000Y-113980000I0J-50000D01*
G01*
G37*
G36*
G01*
X72260000Y-113580000D02*
X72260000Y-113680000D01*
G75*
G02*
X72210000Y-113730000I-50000J0D01*
G01*
X71760000Y-113730000D01*
G75*
G02*
X71710000Y-113680000I0J50000D01*
G01*
X71710000Y-113580000D01*
G75*
G02*
X71760000Y-113530000I50000J0D01*
G01*
X72210000Y-113530000D01*
G75*
G02*
X72260000Y-113580000I0J-50000D01*
G01*
G37*
G36*
G01*
X72260000Y-113180000D02*
X72260000Y-113280000D01*
G75*
G02*
X72210000Y-113330000I-50000J0D01*
G01*
X71760000Y-113330000D01*
G75*
G02*
X71710000Y-113280000I0J50000D01*
G01*
X71710000Y-113180000D01*
G75*
G02*
X71760000Y-113130000I50000J0D01*
G01*
X72210000Y-113130000D01*
G75*
G02*
X72260000Y-113180000I0J-50000D01*
G01*
G37*
G36*
G01*
X72260000Y-112780000D02*
X72260000Y-112880000D01*
G75*
G02*
X72210000Y-112930000I-50000J0D01*
G01*
X71760000Y-112930000D01*
G75*
G02*
X71710000Y-112880000I0J50000D01*
G01*
X71710000Y-112780000D01*
G75*
G02*
X71760000Y-112730000I50000J0D01*
G01*
X72210000Y-112730000D01*
G75*
G02*
X72260000Y-112780000I0J-50000D01*
G01*
G37*
G36*
G01*
X72260000Y-112380000D02*
X72260000Y-112480000D01*
G75*
G02*
X72210000Y-112530000I-50000J0D01*
G01*
X71760000Y-112530000D01*
G75*
G02*
X71710000Y-112480000I0J50000D01*
G01*
X71710000Y-112380000D01*
G75*
G02*
X71760000Y-112330000I50000J0D01*
G01*
X72210000Y-112330000D01*
G75*
G02*
X72260000Y-112380000I0J-50000D01*
G01*
G37*
G36*
G01*
X72260000Y-111980000D02*
X72260000Y-112080000D01*
G75*
G02*
X72210000Y-112130000I-50000J0D01*
G01*
X71760000Y-112130000D01*
G75*
G02*
X71710000Y-112080000I0J50000D01*
G01*
X71710000Y-111980000D01*
G75*
G02*
X71760000Y-111930000I50000J0D01*
G01*
X72210000Y-111930000D01*
G75*
G02*
X72260000Y-111980000I0J-50000D01*
G01*
G37*
G36*
G01*
X71435000Y-111255000D02*
X71535000Y-111255000D01*
G75*
G02*
X71585000Y-111305000I0J-50000D01*
G01*
X71585000Y-111755000D01*
G75*
G02*
X71535000Y-111805000I-50000J0D01*
G01*
X71435000Y-111805000D01*
G75*
G02*
X71385000Y-111755000I0J50000D01*
G01*
X71385000Y-111305000D01*
G75*
G02*
X71435000Y-111255000I50000J0D01*
G01*
G37*
G36*
G01*
X71035000Y-111255000D02*
X71135000Y-111255000D01*
G75*
G02*
X71185000Y-111305000I0J-50000D01*
G01*
X71185000Y-111755000D01*
G75*
G02*
X71135000Y-111805000I-50000J0D01*
G01*
X71035000Y-111805000D01*
G75*
G02*
X70985000Y-111755000I0J50000D01*
G01*
X70985000Y-111305000D01*
G75*
G02*
X71035000Y-111255000I50000J0D01*
G01*
G37*
G36*
G01*
X70635000Y-111255000D02*
X70735000Y-111255000D01*
G75*
G02*
X70785000Y-111305000I0J-50000D01*
G01*
X70785000Y-111755000D01*
G75*
G02*
X70735000Y-111805000I-50000J0D01*
G01*
X70635000Y-111805000D01*
G75*
G02*
X70585000Y-111755000I0J50000D01*
G01*
X70585000Y-111305000D01*
G75*
G02*
X70635000Y-111255000I50000J0D01*
G01*
G37*
G36*
G01*
X70235000Y-111255000D02*
X70335000Y-111255000D01*
G75*
G02*
X70385000Y-111305000I0J-50000D01*
G01*
X70385000Y-111755000D01*
G75*
G02*
X70335000Y-111805000I-50000J0D01*
G01*
X70235000Y-111805000D01*
G75*
G02*
X70185000Y-111755000I0J50000D01*
G01*
X70185000Y-111305000D01*
G75*
G02*
X70235000Y-111255000I50000J0D01*
G01*
G37*
G36*
G01*
X69835000Y-111255000D02*
X69935000Y-111255000D01*
G75*
G02*
X69985000Y-111305000I0J-50000D01*
G01*
X69985000Y-111755000D01*
G75*
G02*
X69935000Y-111805000I-50000J0D01*
G01*
X69835000Y-111805000D01*
G75*
G02*
X69785000Y-111755000I0J50000D01*
G01*
X69785000Y-111305000D01*
G75*
G02*
X69835000Y-111255000I50000J0D01*
G01*
G37*
G36*
G01*
X69435000Y-111255000D02*
X69535000Y-111255000D01*
G75*
G02*
X69585000Y-111305000I0J-50000D01*
G01*
X69585000Y-111755000D01*
G75*
G02*
X69535000Y-111805000I-50000J0D01*
G01*
X69435000Y-111805000D01*
G75*
G02*
X69385000Y-111755000I0J50000D01*
G01*
X69385000Y-111305000D01*
G75*
G02*
X69435000Y-111255000I50000J0D01*
G01*
G37*
G36*
G01*
X69260000Y-111980000D02*
X69260000Y-112080000D01*
G75*
G02*
X69210000Y-112130000I-50000J0D01*
G01*
X68760000Y-112130000D01*
G75*
G02*
X68710000Y-112080000I0J50000D01*
G01*
X68710000Y-111980000D01*
G75*
G02*
X68760000Y-111930000I50000J0D01*
G01*
X69210000Y-111930000D01*
G75*
G02*
X69260000Y-111980000I0J-50000D01*
G01*
G37*
G36*
G01*
X69260000Y-112380000D02*
X69260000Y-112480000D01*
G75*
G02*
X69210000Y-112530000I-50000J0D01*
G01*
X68760000Y-112530000D01*
G75*
G02*
X68710000Y-112480000I0J50000D01*
G01*
X68710000Y-112380000D01*
G75*
G02*
X68760000Y-112330000I50000J0D01*
G01*
X69210000Y-112330000D01*
G75*
G02*
X69260000Y-112380000I0J-50000D01*
G01*
G37*
G36*
G01*
X69260000Y-112780000D02*
X69260000Y-112880000D01*
G75*
G02*
X69210000Y-112930000I-50000J0D01*
G01*
X68760000Y-112930000D01*
G75*
G02*
X68710000Y-112880000I0J50000D01*
G01*
X68710000Y-112780000D01*
G75*
G02*
X68760000Y-112730000I50000J0D01*
G01*
X69210000Y-112730000D01*
G75*
G02*
X69260000Y-112780000I0J-50000D01*
G01*
G37*
G36*
G01*
X69260000Y-113180000D02*
X69260000Y-113280000D01*
G75*
G02*
X69210000Y-113330000I-50000J0D01*
G01*
X68760000Y-113330000D01*
G75*
G02*
X68710000Y-113280000I0J50000D01*
G01*
X68710000Y-113180000D01*
G75*
G02*
X68760000Y-113130000I50000J0D01*
G01*
X69210000Y-113130000D01*
G75*
G02*
X69260000Y-113180000I0J-50000D01*
G01*
G37*
G36*
G01*
X69260000Y-113580000D02*
X69260000Y-113680000D01*
G75*
G02*
X69210000Y-113730000I-50000J0D01*
G01*
X68760000Y-113730000D01*
G75*
G02*
X68710000Y-113680000I0J50000D01*
G01*
X68710000Y-113580000D01*
G75*
G02*
X68760000Y-113530000I50000J0D01*
G01*
X69210000Y-113530000D01*
G75*
G02*
X69260000Y-113580000I0J-50000D01*
G01*
G37*
G36*
G01*
X69260000Y-113980000D02*
X69260000Y-114080000D01*
G75*
G02*
X69210000Y-114130000I-50000J0D01*
G01*
X68760000Y-114130000D01*
G75*
G02*
X68710000Y-114080000I0J50000D01*
G01*
X68710000Y-113980000D01*
G75*
G02*
X68760000Y-113930000I50000J0D01*
G01*
X69210000Y-113930000D01*
G75*
G02*
X69260000Y-113980000I0J-50000D01*
G01*
G37*
G36*
G01*
X69435000Y-114255000D02*
X69535000Y-114255000D01*
G75*
G02*
X69585000Y-114305000I0J-50000D01*
G01*
X69585000Y-114755000D01*
G75*
G02*
X69535000Y-114805000I-50000J0D01*
G01*
X69435000Y-114805000D01*
G75*
G02*
X69385000Y-114755000I0J50000D01*
G01*
X69385000Y-114305000D01*
G75*
G02*
X69435000Y-114255000I50000J0D01*
G01*
G37*
G36*
G01*
X69835000Y-114255000D02*
X69935000Y-114255000D01*
G75*
G02*
X69985000Y-114305000I0J-50000D01*
G01*
X69985000Y-114755000D01*
G75*
G02*
X69935000Y-114805000I-50000J0D01*
G01*
X69835000Y-114805000D01*
G75*
G02*
X69785000Y-114755000I0J50000D01*
G01*
X69785000Y-114305000D01*
G75*
G02*
X69835000Y-114255000I50000J0D01*
G01*
G37*
G36*
G01*
X70235000Y-114255000D02*
X70335000Y-114255000D01*
G75*
G02*
X70385000Y-114305000I0J-50000D01*
G01*
X70385000Y-114755000D01*
G75*
G02*
X70335000Y-114805000I-50000J0D01*
G01*
X70235000Y-114805000D01*
G75*
G02*
X70185000Y-114755000I0J50000D01*
G01*
X70185000Y-114305000D01*
G75*
G02*
X70235000Y-114255000I50000J0D01*
G01*
G37*
G36*
G01*
X70635000Y-114255000D02*
X70735000Y-114255000D01*
G75*
G02*
X70785000Y-114305000I0J-50000D01*
G01*
X70785000Y-114755000D01*
G75*
G02*
X70735000Y-114805000I-50000J0D01*
G01*
X70635000Y-114805000D01*
G75*
G02*
X70585000Y-114755000I0J50000D01*
G01*
X70585000Y-114305000D01*
G75*
G02*
X70635000Y-114255000I50000J0D01*
G01*
G37*
G36*
G01*
X71035000Y-114255000D02*
X71135000Y-114255000D01*
G75*
G02*
X71185000Y-114305000I0J-50000D01*
G01*
X71185000Y-114755000D01*
G75*
G02*
X71135000Y-114805000I-50000J0D01*
G01*
X71035000Y-114805000D01*
G75*
G02*
X70985000Y-114755000I0J50000D01*
G01*
X70985000Y-114305000D01*
G75*
G02*
X71035000Y-114255000I50000J0D01*
G01*
G37*
G36*
G01*
X71435000Y-114255000D02*
X71535000Y-114255000D01*
G75*
G02*
X71585000Y-114305000I0J-50000D01*
G01*
X71585000Y-114755000D01*
G75*
G02*
X71535000Y-114805000I-50000J0D01*
G01*
X71435000Y-114805000D01*
G75*
G02*
X71385000Y-114755000I0J50000D01*
G01*
X71385000Y-114305000D01*
G75*
G02*
X71435000Y-114255000I50000J0D01*
G01*
G37*
G04 #@! TD*
M02*
