G04 #@! TF.GenerationSoftware,KiCad,Pcbnew,(5.1.6)-1*
G04 #@! TF.CreationDate,2021-09-14T14:20:35-07:00*
G04 #@! TF.ProjectId,sulu_ldo_and_reg_panel,73756c75-5f6c-4646-9f5f-616e645f7265,rev?*
G04 #@! TF.SameCoordinates,Original*
G04 #@! TF.FileFunction,Soldermask,Bot*
G04 #@! TF.FilePolarity,Negative*
%FSLAX46Y46*%
G04 Gerber Fmt 4.6, Leading zero omitted, Abs format (unit mm)*
G04 Created by KiCad (PCBNEW (5.1.6)-1) date 2021-09-14 14:20:35*
%MOMM*%
%LPD*%
G01*
G04 APERTURE LIST*
%ADD10C,1.574800*%
%ADD11C,2.400000*%
%ADD12R,1.700000X1.700000*%
%ADD13O,1.700000X1.700000*%
%ADD14C,0.762000*%
%ADD15C,0.568750*%
G04 APERTURE END LIST*
D10*
G04 #@! TO.C,B1*
X98729800Y-64770000D03*
X78232000Y-64770000D03*
G04 #@! TD*
D11*
G04 #@! TO.C,J4*
X75184000Y-69469000D03*
X70104000Y-69469000D03*
X75184000Y-64389000D03*
X70104000Y-64389000D03*
X72644000Y-66929000D03*
G04 #@! TD*
D12*
G04 #@! TO.C,J1*
X74295000Y-54483000D03*
D13*
X74295000Y-51943000D03*
X76835000Y-54483000D03*
X76835000Y-51943000D03*
X79375000Y-54483000D03*
X79375000Y-51943000D03*
X81915000Y-54483000D03*
X81915000Y-51943000D03*
X84455000Y-54483000D03*
X84455000Y-51943000D03*
X86995000Y-54483000D03*
X86995000Y-51943000D03*
X89535000Y-54483000D03*
X89535000Y-51943000D03*
X92075000Y-54483000D03*
X92075000Y-51943000D03*
X94615000Y-54483000D03*
X94615000Y-51943000D03*
X97155000Y-54483000D03*
X97155000Y-51943000D03*
X99695000Y-54483000D03*
X99695000Y-51943000D03*
G04 #@! TD*
G04 #@! TO.C,J3*
X104140000Y-69723000D03*
X101600000Y-69723000D03*
X104140000Y-67183000D03*
X101600000Y-67183000D03*
X104140000Y-64643000D03*
X101600000Y-64643000D03*
X104140000Y-62103000D03*
X101600000Y-62103000D03*
X104140000Y-59563000D03*
D12*
X101600000Y-59563000D03*
G04 #@! TD*
D14*
G04 #@! TO.C,J21*
X98425000Y-68453000D03*
G04 #@! TD*
G04 #@! TO.C,J20*
X93980000Y-60198000D03*
G04 #@! TD*
G04 #@! TO.C,J19*
X83566000Y-57658000D03*
G04 #@! TD*
G04 #@! TO.C,J18*
X81915000Y-57658000D03*
G04 #@! TD*
G04 #@! TO.C,J14*
X80264000Y-57404000D03*
G04 #@! TD*
G04 #@! TO.C,J12*
X75946000Y-74676000D03*
G04 #@! TD*
G04 #@! TO.C,J17*
X98425000Y-70993000D03*
G04 #@! TD*
G04 #@! TO.C,J16*
X94996000Y-64008000D03*
G04 #@! TD*
G04 #@! TO.C,J15*
X93599000Y-64135000D03*
G04 #@! TD*
G04 #@! TO.C,J13*
X78486000Y-75692000D03*
G04 #@! TD*
G04 #@! TO.C,J11*
X75946000Y-73406000D03*
G04 #@! TD*
G04 #@! TO.C,J10*
X94488000Y-65024000D03*
G04 #@! TD*
G04 #@! TO.C,J9*
X94742000Y-66040000D03*
G04 #@! TD*
G04 #@! TO.C,J8*
X78359000Y-61087000D03*
G04 #@! TD*
G04 #@! TO.C,J7*
X78486000Y-59690000D03*
G04 #@! TD*
G04 #@! TO.C,J6*
X80264000Y-58674000D03*
G04 #@! TD*
G04 #@! TO.C,J5*
X94107000Y-61595000D03*
G04 #@! TD*
G04 #@! TO.C,GND6*
X96520000Y-57404000D03*
G04 #@! TD*
G04 #@! TO.C,GND5*
X96520000Y-71882000D03*
G04 #@! TD*
G04 #@! TO.C,GND4*
X97028000Y-60452000D03*
G04 #@! TD*
G04 #@! TO.C,GND3*
X80518000Y-74422000D03*
G04 #@! TD*
G04 #@! TO.C,GND2*
X74168000Y-74168000D03*
G04 #@! TD*
G04 #@! TO.C,GND1*
X88392000Y-75184000D03*
G04 #@! TD*
D13*
G04 #@! TO.C,J2*
X97790000Y-79248000D03*
X97790000Y-81788000D03*
X95250000Y-79248000D03*
X95250000Y-81788000D03*
X92710000Y-79248000D03*
X92710000Y-81788000D03*
X90170000Y-79248000D03*
X90170000Y-81788000D03*
X87630000Y-79248000D03*
X87630000Y-81788000D03*
X85090000Y-79248000D03*
X85090000Y-81788000D03*
X82550000Y-79248000D03*
X82550000Y-81788000D03*
X80010000Y-79248000D03*
X80010000Y-81788000D03*
X77470000Y-79248000D03*
X77470000Y-81788000D03*
X74930000Y-79248000D03*
D12*
X74930000Y-81788000D03*
G04 #@! TD*
D15*
G04 #@! TO.C,U1*
X90341250Y-70079250D03*
X90341250Y-68941750D03*
X90341250Y-67804250D03*
X90341250Y-66666750D03*
X90341250Y-65529250D03*
X90341250Y-64391750D03*
X90341250Y-63254250D03*
X90341250Y-62116750D03*
X89203750Y-70079250D03*
X89203750Y-68941750D03*
X89203750Y-67804250D03*
X89203750Y-66666750D03*
X89203750Y-65529250D03*
X89203750Y-64391750D03*
X89203750Y-63254250D03*
X89203750Y-62116750D03*
X88066250Y-70079250D03*
X88066250Y-68941750D03*
X88066250Y-67804250D03*
X88066250Y-66666750D03*
X88066250Y-65529250D03*
X88066250Y-64391750D03*
X88066250Y-63254250D03*
X88066250Y-62116750D03*
X86928750Y-70079250D03*
X86928750Y-68941750D03*
X86928750Y-67804250D03*
X86928750Y-66666750D03*
X86928750Y-65529250D03*
X86928750Y-64391750D03*
X86928750Y-63254250D03*
X86928750Y-62116750D03*
X85791250Y-70079250D03*
X85791250Y-68941750D03*
X85791250Y-67804250D03*
X85791250Y-66666750D03*
X85791250Y-65529250D03*
X85791250Y-64391750D03*
X85791250Y-63254250D03*
X85791250Y-62116750D03*
X84653750Y-70079250D03*
X84653750Y-68941750D03*
X84653750Y-67804250D03*
X84653750Y-66666750D03*
X84653750Y-65529250D03*
X84653750Y-64391750D03*
X84653750Y-63254250D03*
X84653750Y-62116750D03*
X83516250Y-70079250D03*
X83516250Y-68941750D03*
X83516250Y-67804250D03*
X83516250Y-66666750D03*
X83516250Y-65529250D03*
X83516250Y-64391750D03*
X83516250Y-63254250D03*
X83516250Y-62116750D03*
X82378750Y-70079250D03*
X82378750Y-68941750D03*
X82378750Y-67804250D03*
X82378750Y-66666750D03*
X82378750Y-65529250D03*
X82378750Y-64391750D03*
X82378750Y-63254250D03*
X82378750Y-62116750D03*
G04 #@! TD*
D11*
G04 #@! TO.C,J4*
X72644000Y-104013000D03*
X70104000Y-101473000D03*
X75184000Y-101473000D03*
X70104000Y-106553000D03*
X75184000Y-106553000D03*
G04 #@! TD*
D10*
G04 #@! TO.C,B1*
X98729800Y-101854000D03*
X78232000Y-101854000D03*
G04 #@! TD*
D12*
G04 #@! TO.C,J1*
X74295000Y-91567000D03*
D13*
X74295000Y-89027000D03*
X76835000Y-91567000D03*
X76835000Y-89027000D03*
X79375000Y-91567000D03*
X79375000Y-89027000D03*
X81915000Y-91567000D03*
X81915000Y-89027000D03*
X84455000Y-91567000D03*
X84455000Y-89027000D03*
X86995000Y-91567000D03*
X86995000Y-89027000D03*
X89535000Y-91567000D03*
X89535000Y-89027000D03*
X92075000Y-91567000D03*
X92075000Y-89027000D03*
X94615000Y-91567000D03*
X94615000Y-89027000D03*
X97155000Y-91567000D03*
X97155000Y-89027000D03*
X99695000Y-91567000D03*
X99695000Y-89027000D03*
G04 #@! TD*
G04 #@! TO.C,J3*
X104140000Y-106807000D03*
X101600000Y-106807000D03*
X104140000Y-104267000D03*
X101600000Y-104267000D03*
X104140000Y-101727000D03*
X101600000Y-101727000D03*
X104140000Y-99187000D03*
X101600000Y-99187000D03*
X104140000Y-96647000D03*
D12*
X101600000Y-96647000D03*
G04 #@! TD*
D14*
G04 #@! TO.C,J21*
X98425000Y-105537000D03*
G04 #@! TD*
G04 #@! TO.C,J20*
X93980000Y-97282000D03*
G04 #@! TD*
G04 #@! TO.C,J19*
X83566000Y-94742000D03*
G04 #@! TD*
G04 #@! TO.C,J18*
X81915000Y-94742000D03*
G04 #@! TD*
G04 #@! TO.C,J14*
X80264000Y-94488000D03*
G04 #@! TD*
G04 #@! TO.C,J12*
X75946000Y-111760000D03*
G04 #@! TD*
G04 #@! TO.C,J17*
X98425000Y-108077000D03*
G04 #@! TD*
G04 #@! TO.C,J16*
X94996000Y-101092000D03*
G04 #@! TD*
G04 #@! TO.C,J15*
X93599000Y-101219000D03*
G04 #@! TD*
G04 #@! TO.C,J13*
X78486000Y-112776000D03*
G04 #@! TD*
G04 #@! TO.C,J11*
X75946000Y-110490000D03*
G04 #@! TD*
G04 #@! TO.C,J10*
X94488000Y-102108000D03*
G04 #@! TD*
G04 #@! TO.C,J9*
X94742000Y-103124000D03*
G04 #@! TD*
G04 #@! TO.C,J8*
X78359000Y-98171000D03*
G04 #@! TD*
G04 #@! TO.C,J7*
X78486000Y-96774000D03*
G04 #@! TD*
G04 #@! TO.C,J6*
X80264000Y-95758000D03*
G04 #@! TD*
G04 #@! TO.C,J5*
X94107000Y-98679000D03*
G04 #@! TD*
G04 #@! TO.C,GND6*
X96520000Y-94488000D03*
G04 #@! TD*
G04 #@! TO.C,GND5*
X96520000Y-108966000D03*
G04 #@! TD*
G04 #@! TO.C,GND4*
X97028000Y-97536000D03*
G04 #@! TD*
G04 #@! TO.C,GND3*
X80518000Y-111506000D03*
G04 #@! TD*
G04 #@! TO.C,GND2*
X74168000Y-111252000D03*
G04 #@! TD*
G04 #@! TO.C,GND1*
X88392000Y-112268000D03*
G04 #@! TD*
D13*
G04 #@! TO.C,J2*
X97790000Y-116332000D03*
X97790000Y-118872000D03*
X95250000Y-116332000D03*
X95250000Y-118872000D03*
X92710000Y-116332000D03*
X92710000Y-118872000D03*
X90170000Y-116332000D03*
X90170000Y-118872000D03*
X87630000Y-116332000D03*
X87630000Y-118872000D03*
X85090000Y-116332000D03*
X85090000Y-118872000D03*
X82550000Y-116332000D03*
X82550000Y-118872000D03*
X80010000Y-116332000D03*
X80010000Y-118872000D03*
X77470000Y-116332000D03*
X77470000Y-118872000D03*
X74930000Y-116332000D03*
D12*
X74930000Y-118872000D03*
G04 #@! TD*
D15*
G04 #@! TO.C,U1*
X90341250Y-107163250D03*
X90341250Y-106025750D03*
X90341250Y-104888250D03*
X90341250Y-103750750D03*
X90341250Y-102613250D03*
X90341250Y-101475750D03*
X90341250Y-100338250D03*
X90341250Y-99200750D03*
X89203750Y-107163250D03*
X89203750Y-106025750D03*
X89203750Y-104888250D03*
X89203750Y-103750750D03*
X89203750Y-102613250D03*
X89203750Y-101475750D03*
X89203750Y-100338250D03*
X89203750Y-99200750D03*
X88066250Y-107163250D03*
X88066250Y-106025750D03*
X88066250Y-104888250D03*
X88066250Y-103750750D03*
X88066250Y-102613250D03*
X88066250Y-101475750D03*
X88066250Y-100338250D03*
X88066250Y-99200750D03*
X86928750Y-107163250D03*
X86928750Y-106025750D03*
X86928750Y-104888250D03*
X86928750Y-103750750D03*
X86928750Y-102613250D03*
X86928750Y-101475750D03*
X86928750Y-100338250D03*
X86928750Y-99200750D03*
X85791250Y-107163250D03*
X85791250Y-106025750D03*
X85791250Y-104888250D03*
X85791250Y-103750750D03*
X85791250Y-102613250D03*
X85791250Y-101475750D03*
X85791250Y-100338250D03*
X85791250Y-99200750D03*
X84653750Y-107163250D03*
X84653750Y-106025750D03*
X84653750Y-104888250D03*
X84653750Y-103750750D03*
X84653750Y-102613250D03*
X84653750Y-101475750D03*
X84653750Y-100338250D03*
X84653750Y-99200750D03*
X83516250Y-107163250D03*
X83516250Y-106025750D03*
X83516250Y-104888250D03*
X83516250Y-103750750D03*
X83516250Y-102613250D03*
X83516250Y-101475750D03*
X83516250Y-100338250D03*
X83516250Y-99200750D03*
X82378750Y-107163250D03*
X82378750Y-106025750D03*
X82378750Y-104888250D03*
X82378750Y-103750750D03*
X82378750Y-102613250D03*
X82378750Y-101475750D03*
X82378750Y-100338250D03*
X82378750Y-99200750D03*
G04 #@! TD*
M02*
