G04 #@! TF.GenerationSoftware,KiCad,Pcbnew,(5.1.6)-1*
G04 #@! TF.CreationDate,2021-09-03T00:37:37-07:00*
G04 #@! TF.ProjectId,sulu_ldo_and_reg_panel,73756c75-5f6c-4646-9f5f-616e645f7265,rev?*
G04 #@! TF.SameCoordinates,Original*
G04 #@! TF.FileFunction,Soldermask,Top*
G04 #@! TF.FilePolarity,Negative*
%FSLAX46Y46*%
G04 Gerber Fmt 4.6, Leading zero omitted, Abs format (unit mm)*
G04 Created by KiCad (PCBNEW (5.1.6)-1) date 2021-09-03 00:37:37*
%MOMM*%
%LPD*%
G01*
G04 APERTURE LIST*
%ADD10R,0.590000X1.210000*%
%ADD11R,0.650000X1.060000*%
%ADD12C,1.574800*%
%ADD13O,1.700000X1.700000*%
%ADD14R,1.700000X1.700000*%
%ADD15C,0.762000*%
%ADD16O,0.800000X0.200000*%
%ADD17O,0.200000X0.800000*%
%ADD18R,1.137500X1.137500*%
%ADD19C,0.568750*%
%ADD20R,0.300000X0.500000*%
G04 APERTURE END LIST*
D10*
G04 #@! TO.C,U3*
X115377000Y-86981999D03*
X114427000Y-86981999D03*
X113477000Y-86981999D03*
X113477000Y-89491999D03*
X115377000Y-89491999D03*
G04 #@! TD*
D11*
G04 #@! TO.C,U2*
X115325999Y-93232999D03*
X114375999Y-93232999D03*
X113425999Y-93232999D03*
X113425999Y-95432999D03*
X115325999Y-95432999D03*
G04 #@! TD*
D12*
G04 #@! TO.C,B1*
X140512800Y-93853000D03*
X120015000Y-93853000D03*
G04 #@! TD*
D13*
G04 #@! TO.C,J1*
X141478000Y-79756000D03*
X141478000Y-82296000D03*
X138938000Y-79756000D03*
X138938000Y-82296000D03*
X136398000Y-79756000D03*
X136398000Y-82296000D03*
X133858000Y-79756000D03*
X133858000Y-82296000D03*
X131318000Y-79756000D03*
X131318000Y-82296000D03*
X128778000Y-79756000D03*
X128778000Y-82296000D03*
X126238000Y-79756000D03*
X126238000Y-82296000D03*
X123698000Y-79756000D03*
X123698000Y-82296000D03*
X121158000Y-79756000D03*
X121158000Y-82296000D03*
X118618000Y-79756000D03*
X118618000Y-82296000D03*
X116078000Y-79756000D03*
D14*
X116078000Y-82296000D03*
G04 #@! TD*
G04 #@! TO.C,R4*
G36*
G01*
X129118000Y-85643500D02*
X129118000Y-85298500D01*
G75*
G02*
X129265500Y-85151000I147500J0D01*
G01*
X129560500Y-85151000D01*
G75*
G02*
X129708000Y-85298500I0J-147500D01*
G01*
X129708000Y-85643500D01*
G75*
G02*
X129560500Y-85791000I-147500J0D01*
G01*
X129265500Y-85791000D01*
G75*
G02*
X129118000Y-85643500I0J147500D01*
G01*
G37*
G36*
G01*
X128148000Y-85643500D02*
X128148000Y-85298500D01*
G75*
G02*
X128295500Y-85151000I147500J0D01*
G01*
X128590500Y-85151000D01*
G75*
G02*
X128738000Y-85298500I0J-147500D01*
G01*
X128738000Y-85643500D01*
G75*
G02*
X128590500Y-85791000I-147500J0D01*
G01*
X128295500Y-85791000D01*
G75*
G02*
X128148000Y-85643500I0J147500D01*
G01*
G37*
G04 #@! TD*
G04 #@! TO.C,R3*
G36*
G01*
X144612000Y-84119500D02*
X144612000Y-83774500D01*
G75*
G02*
X144759500Y-83627000I147500J0D01*
G01*
X145054500Y-83627000D01*
G75*
G02*
X145202000Y-83774500I0J-147500D01*
G01*
X145202000Y-84119500D01*
G75*
G02*
X145054500Y-84267000I-147500J0D01*
G01*
X144759500Y-84267000D01*
G75*
G02*
X144612000Y-84119500I0J147500D01*
G01*
G37*
G36*
G01*
X143642000Y-84119500D02*
X143642000Y-83774500D01*
G75*
G02*
X143789500Y-83627000I147500J0D01*
G01*
X144084500Y-83627000D01*
G75*
G02*
X144232000Y-83774500I0J-147500D01*
G01*
X144232000Y-84119500D01*
G75*
G02*
X144084500Y-84267000I-147500J0D01*
G01*
X143789500Y-84267000D01*
G75*
G02*
X143642000Y-84119500I0J147500D01*
G01*
G37*
G04 #@! TD*
G04 #@! TO.C,R2*
G36*
G01*
X139233000Y-85933500D02*
X139233000Y-86278500D01*
G75*
G02*
X139085500Y-86426000I-147500J0D01*
G01*
X138790500Y-86426000D01*
G75*
G02*
X138643000Y-86278500I0J147500D01*
G01*
X138643000Y-85933500D01*
G75*
G02*
X138790500Y-85786000I147500J0D01*
G01*
X139085500Y-85786000D01*
G75*
G02*
X139233000Y-85933500I0J-147500D01*
G01*
G37*
G36*
G01*
X140203000Y-85933500D02*
X140203000Y-86278500D01*
G75*
G02*
X140055500Y-86426000I-147500J0D01*
G01*
X139760500Y-86426000D01*
G75*
G02*
X139613000Y-86278500I0J147500D01*
G01*
X139613000Y-85933500D01*
G75*
G02*
X139760500Y-85786000I147500J0D01*
G01*
X140055500Y-85786000D01*
G75*
G02*
X140203000Y-85933500I0J-147500D01*
G01*
G37*
G04 #@! TD*
G04 #@! TO.C,C_1.8_OUT1*
G36*
G01*
X110668750Y-92913000D02*
X111581250Y-92913000D01*
G75*
G02*
X111825000Y-93156750I0J-243750D01*
G01*
X111825000Y-93644250D01*
G75*
G02*
X111581250Y-93888000I-243750J0D01*
G01*
X110668750Y-93888000D01*
G75*
G02*
X110425000Y-93644250I0J243750D01*
G01*
X110425000Y-93156750D01*
G75*
G02*
X110668750Y-92913000I243750J0D01*
G01*
G37*
G36*
G01*
X110668750Y-94788000D02*
X111581250Y-94788000D01*
G75*
G02*
X111825000Y-95031750I0J-243750D01*
G01*
X111825000Y-95519250D01*
G75*
G02*
X111581250Y-95763000I-243750J0D01*
G01*
X110668750Y-95763000D01*
G75*
G02*
X110425000Y-95519250I0J243750D01*
G01*
X110425000Y-95031750D01*
G75*
G02*
X110668750Y-94788000I243750J0D01*
G01*
G37*
G04 #@! TD*
G04 #@! TO.C,C_1.1_OUT1*
G36*
G01*
X110668750Y-86791500D02*
X111581250Y-86791500D01*
G75*
G02*
X111825000Y-87035250I0J-243750D01*
G01*
X111825000Y-87522750D01*
G75*
G02*
X111581250Y-87766500I-243750J0D01*
G01*
X110668750Y-87766500D01*
G75*
G02*
X110425000Y-87522750I0J243750D01*
G01*
X110425000Y-87035250D01*
G75*
G02*
X110668750Y-86791500I243750J0D01*
G01*
G37*
G36*
G01*
X110668750Y-88666500D02*
X111581250Y-88666500D01*
G75*
G02*
X111825000Y-88910250I0J-243750D01*
G01*
X111825000Y-89397750D01*
G75*
G02*
X111581250Y-89641500I-243750J0D01*
G01*
X110668750Y-89641500D01*
G75*
G02*
X110425000Y-89397750I0J243750D01*
G01*
X110425000Y-88910250D01*
G75*
G02*
X110668750Y-88666500I243750J0D01*
G01*
G37*
G04 #@! TD*
D13*
G04 #@! TO.C,J3*
X145923000Y-97536000D03*
X143383000Y-97536000D03*
X145923000Y-94996000D03*
X143383000Y-94996000D03*
X145923000Y-92456000D03*
X143383000Y-92456000D03*
X145923000Y-89916000D03*
X143383000Y-89916000D03*
X145923000Y-87376000D03*
D14*
X143383000Y-87376000D03*
G04 #@! TD*
G04 #@! TO.C,C_1.1_IN1*
G36*
G01*
X114767000Y-85389500D02*
X114767000Y-85044500D01*
G75*
G02*
X114914500Y-84897000I147500J0D01*
G01*
X115209500Y-84897000D01*
G75*
G02*
X115357000Y-85044500I0J-147500D01*
G01*
X115357000Y-85389500D01*
G75*
G02*
X115209500Y-85537000I-147500J0D01*
G01*
X114914500Y-85537000D01*
G75*
G02*
X114767000Y-85389500I0J147500D01*
G01*
G37*
G36*
G01*
X113797000Y-85389500D02*
X113797000Y-85044500D01*
G75*
G02*
X113944500Y-84897000I147500J0D01*
G01*
X114239500Y-84897000D01*
G75*
G02*
X114387000Y-85044500I0J-147500D01*
G01*
X114387000Y-85389500D01*
G75*
G02*
X114239500Y-85537000I-147500J0D01*
G01*
X113944500Y-85537000D01*
G75*
G02*
X113797000Y-85389500I0J147500D01*
G01*
G37*
G04 #@! TD*
G04 #@! TO.C,C_1.8_IN1*
G36*
G01*
X114721000Y-91739500D02*
X114721000Y-91394500D01*
G75*
G02*
X114868500Y-91247000I147500J0D01*
G01*
X115163500Y-91247000D01*
G75*
G02*
X115311000Y-91394500I0J-147500D01*
G01*
X115311000Y-91739500D01*
G75*
G02*
X115163500Y-91887000I-147500J0D01*
G01*
X114868500Y-91887000D01*
G75*
G02*
X114721000Y-91739500I0J147500D01*
G01*
G37*
G36*
G01*
X113751000Y-91739500D02*
X113751000Y-91394500D01*
G75*
G02*
X113898500Y-91247000I147500J0D01*
G01*
X114193500Y-91247000D01*
G75*
G02*
X114341000Y-91394500I0J-147500D01*
G01*
X114341000Y-91739500D01*
G75*
G02*
X114193500Y-91887000I-147500J0D01*
G01*
X113898500Y-91887000D01*
G75*
G02*
X113751000Y-91739500I0J147500D01*
G01*
G37*
G04 #@! TD*
D15*
G04 #@! TO.C,J21*
X140208000Y-96266000D03*
G04 #@! TD*
G04 #@! TO.C,J20*
X135763000Y-88011000D03*
G04 #@! TD*
G04 #@! TO.C,J19*
X125349000Y-85471000D03*
G04 #@! TD*
G04 #@! TO.C,J18*
X123698000Y-85471000D03*
G04 #@! TD*
G04 #@! TO.C,J14*
X121666000Y-85852000D03*
G04 #@! TD*
G04 #@! TO.C,J12*
X119507000Y-101473000D03*
G04 #@! TD*
G04 #@! TO.C,J17*
X140208000Y-98806000D03*
G04 #@! TD*
G04 #@! TO.C,J16*
X135890000Y-92964000D03*
G04 #@! TD*
G04 #@! TO.C,J15*
X135382000Y-91948000D03*
G04 #@! TD*
G04 #@! TO.C,J13*
X122047000Y-102489000D03*
G04 #@! TD*
G04 #@! TO.C,J11*
X119507000Y-99949000D03*
G04 #@! TD*
G04 #@! TO.C,J10*
X117348000Y-91821000D03*
G04 #@! TD*
G04 #@! TO.C,J9*
X118618000Y-90551000D03*
G04 #@! TD*
G04 #@! TO.C,J8*
X117348000Y-89916000D03*
G04 #@! TD*
G04 #@! TO.C,J7*
X117983000Y-88646000D03*
G04 #@! TD*
G04 #@! TO.C,J6*
X119253000Y-88011000D03*
G04 #@! TD*
G04 #@! TO.C,J5*
X135890000Y-89408000D03*
G04 #@! TD*
G04 #@! TO.C,GND6*
X146050000Y-83566000D03*
G04 #@! TD*
G04 #@! TO.C,GND5*
X138303000Y-99441000D03*
G04 #@! TD*
G04 #@! TO.C,GND4*
X136017000Y-85725000D03*
G04 #@! TD*
G04 #@! TO.C,GND3*
X116967000Y-85725000D03*
G04 #@! TD*
G04 #@! TO.C,GND2*
X140208000Y-91186000D03*
G04 #@! TD*
G04 #@! TO.C,GND1*
X130175000Y-102997000D03*
G04 #@! TD*
D14*
G04 #@! TO.C,J4*
X118491000Y-96901000D03*
G04 #@! TD*
G04 #@! TO.C,R1*
G36*
G01*
X138765500Y-92496000D02*
X139110500Y-92496000D01*
G75*
G02*
X139258000Y-92643500I0J-147500D01*
G01*
X139258000Y-92938500D01*
G75*
G02*
X139110500Y-93086000I-147500J0D01*
G01*
X138765500Y-93086000D01*
G75*
G02*
X138618000Y-92938500I0J147500D01*
G01*
X138618000Y-92643500D01*
G75*
G02*
X138765500Y-92496000I147500J0D01*
G01*
G37*
G36*
G01*
X138765500Y-91526000D02*
X139110500Y-91526000D01*
G75*
G02*
X139258000Y-91673500I0J-147500D01*
G01*
X139258000Y-91968500D01*
G75*
G02*
X139110500Y-92116000I-147500J0D01*
G01*
X138765500Y-92116000D01*
G75*
G02*
X138618000Y-91968500I0J147500D01*
G01*
X138618000Y-91673500D01*
G75*
G02*
X138765500Y-91526000I147500J0D01*
G01*
G37*
G04 #@! TD*
G04 #@! TO.C,C13*
G36*
G01*
X139110500Y-87971000D02*
X138765500Y-87971000D01*
G75*
G02*
X138618000Y-87823500I0J147500D01*
G01*
X138618000Y-87528500D01*
G75*
G02*
X138765500Y-87381000I147500J0D01*
G01*
X139110500Y-87381000D01*
G75*
G02*
X139258000Y-87528500I0J-147500D01*
G01*
X139258000Y-87823500D01*
G75*
G02*
X139110500Y-87971000I-147500J0D01*
G01*
G37*
G36*
G01*
X139110500Y-88941000D02*
X138765500Y-88941000D01*
G75*
G02*
X138618000Y-88793500I0J147500D01*
G01*
X138618000Y-88498500D01*
G75*
G02*
X138765500Y-88351000I147500J0D01*
G01*
X139110500Y-88351000D01*
G75*
G02*
X139258000Y-88498500I0J-147500D01*
G01*
X139258000Y-88793500D01*
G75*
G02*
X139110500Y-88941000I-147500J0D01*
G01*
G37*
G04 #@! TD*
G04 #@! TO.C,C12*
G36*
G01*
X137205500Y-87971000D02*
X136860500Y-87971000D01*
G75*
G02*
X136713000Y-87823500I0J147500D01*
G01*
X136713000Y-87528500D01*
G75*
G02*
X136860500Y-87381000I147500J0D01*
G01*
X137205500Y-87381000D01*
G75*
G02*
X137353000Y-87528500I0J-147500D01*
G01*
X137353000Y-87823500D01*
G75*
G02*
X137205500Y-87971000I-147500J0D01*
G01*
G37*
G36*
G01*
X137205500Y-88941000D02*
X136860500Y-88941000D01*
G75*
G02*
X136713000Y-88793500I0J147500D01*
G01*
X136713000Y-88498500D01*
G75*
G02*
X136860500Y-88351000I147500J0D01*
G01*
X137205500Y-88351000D01*
G75*
G02*
X137353000Y-88498500I0J-147500D01*
G01*
X137353000Y-88793500D01*
G75*
G02*
X137205500Y-88941000I-147500J0D01*
G01*
G37*
G04 #@! TD*
G04 #@! TO.C,C11*
G36*
G01*
X137205500Y-92116000D02*
X136860500Y-92116000D01*
G75*
G02*
X136713000Y-91968500I0J147500D01*
G01*
X136713000Y-91673500D01*
G75*
G02*
X136860500Y-91526000I147500J0D01*
G01*
X137205500Y-91526000D01*
G75*
G02*
X137353000Y-91673500I0J-147500D01*
G01*
X137353000Y-91968500D01*
G75*
G02*
X137205500Y-92116000I-147500J0D01*
G01*
G37*
G36*
G01*
X137205500Y-93086000D02*
X136860500Y-93086000D01*
G75*
G02*
X136713000Y-92938500I0J147500D01*
G01*
X136713000Y-92643500D01*
G75*
G02*
X136860500Y-92496000I147500J0D01*
G01*
X137205500Y-92496000D01*
G75*
G02*
X137353000Y-92643500I0J-147500D01*
G01*
X137353000Y-92938500D01*
G75*
G02*
X137205500Y-93086000I-147500J0D01*
G01*
G37*
G04 #@! TD*
G04 #@! TO.C,C10*
G36*
G01*
X126791500Y-85512000D02*
X126446500Y-85512000D01*
G75*
G02*
X126299000Y-85364500I0J147500D01*
G01*
X126299000Y-85069500D01*
G75*
G02*
X126446500Y-84922000I147500J0D01*
G01*
X126791500Y-84922000D01*
G75*
G02*
X126939000Y-85069500I0J-147500D01*
G01*
X126939000Y-85364500D01*
G75*
G02*
X126791500Y-85512000I-147500J0D01*
G01*
G37*
G36*
G01*
X126791500Y-86482000D02*
X126446500Y-86482000D01*
G75*
G02*
X126299000Y-86334500I0J147500D01*
G01*
X126299000Y-86039500D01*
G75*
G02*
X126446500Y-85892000I147500J0D01*
G01*
X126791500Y-85892000D01*
G75*
G02*
X126939000Y-86039500I0J-147500D01*
G01*
X126939000Y-86334500D01*
G75*
G02*
X126791500Y-86482000I-147500J0D01*
G01*
G37*
G04 #@! TD*
G04 #@! TO.C,C9*
G36*
G01*
X117262000Y-103840500D02*
X117262000Y-104185500D01*
G75*
G02*
X117114500Y-104333000I-147500J0D01*
G01*
X116819500Y-104333000D01*
G75*
G02*
X116672000Y-104185500I0J147500D01*
G01*
X116672000Y-103840500D01*
G75*
G02*
X116819500Y-103693000I147500J0D01*
G01*
X117114500Y-103693000D01*
G75*
G02*
X117262000Y-103840500I0J-147500D01*
G01*
G37*
G36*
G01*
X118232000Y-103840500D02*
X118232000Y-104185500D01*
G75*
G02*
X118084500Y-104333000I-147500J0D01*
G01*
X117789500Y-104333000D01*
G75*
G02*
X117642000Y-104185500I0J147500D01*
G01*
X117642000Y-103840500D01*
G75*
G02*
X117789500Y-103693000I147500J0D01*
G01*
X118084500Y-103693000D01*
G75*
G02*
X118232000Y-103840500I0J-147500D01*
G01*
G37*
G04 #@! TD*
G04 #@! TO.C,C8*
G36*
G01*
X117308000Y-102443500D02*
X117308000Y-102788500D01*
G75*
G02*
X117160500Y-102936000I-147500J0D01*
G01*
X116865500Y-102936000D01*
G75*
G02*
X116718000Y-102788500I0J147500D01*
G01*
X116718000Y-102443500D01*
G75*
G02*
X116865500Y-102296000I147500J0D01*
G01*
X117160500Y-102296000D01*
G75*
G02*
X117308000Y-102443500I0J-147500D01*
G01*
G37*
G36*
G01*
X118278000Y-102443500D02*
X118278000Y-102788500D01*
G75*
G02*
X118130500Y-102936000I-147500J0D01*
G01*
X117835500Y-102936000D01*
G75*
G02*
X117688000Y-102788500I0J147500D01*
G01*
X117688000Y-102443500D01*
G75*
G02*
X117835500Y-102296000I147500J0D01*
G01*
X118130500Y-102296000D01*
G75*
G02*
X118278000Y-102443500I0J-147500D01*
G01*
G37*
G04 #@! TD*
G04 #@! TO.C,C7*
G36*
G01*
X134279000Y-85643500D02*
X134279000Y-85298500D01*
G75*
G02*
X134426500Y-85151000I147500J0D01*
G01*
X134721500Y-85151000D01*
G75*
G02*
X134869000Y-85298500I0J-147500D01*
G01*
X134869000Y-85643500D01*
G75*
G02*
X134721500Y-85791000I-147500J0D01*
G01*
X134426500Y-85791000D01*
G75*
G02*
X134279000Y-85643500I0J147500D01*
G01*
G37*
G36*
G01*
X133309000Y-85643500D02*
X133309000Y-85298500D01*
G75*
G02*
X133456500Y-85151000I147500J0D01*
G01*
X133751500Y-85151000D01*
G75*
G02*
X133899000Y-85298500I0J-147500D01*
G01*
X133899000Y-85643500D01*
G75*
G02*
X133751500Y-85791000I-147500J0D01*
G01*
X133456500Y-85791000D01*
G75*
G02*
X133309000Y-85643500I0J147500D01*
G01*
G37*
G04 #@! TD*
G04 #@! TO.C,C6*
G36*
G01*
X131405000Y-85298500D02*
X131405000Y-85643500D01*
G75*
G02*
X131257500Y-85791000I-147500J0D01*
G01*
X130962500Y-85791000D01*
G75*
G02*
X130815000Y-85643500I0J147500D01*
G01*
X130815000Y-85298500D01*
G75*
G02*
X130962500Y-85151000I147500J0D01*
G01*
X131257500Y-85151000D01*
G75*
G02*
X131405000Y-85298500I0J-147500D01*
G01*
G37*
G36*
G01*
X132375000Y-85298500D02*
X132375000Y-85643500D01*
G75*
G02*
X132227500Y-85791000I-147500J0D01*
G01*
X131932500Y-85791000D01*
G75*
G02*
X131785000Y-85643500I0J147500D01*
G01*
X131785000Y-85298500D01*
G75*
G02*
X131932500Y-85151000I147500J0D01*
G01*
X132227500Y-85151000D01*
G75*
G02*
X132375000Y-85298500I0J-147500D01*
G01*
G37*
G04 #@! TD*
G04 #@! TO.C,C5*
G36*
G01*
X117308000Y-99776500D02*
X117308000Y-100121500D01*
G75*
G02*
X117160500Y-100269000I-147500J0D01*
G01*
X116865500Y-100269000D01*
G75*
G02*
X116718000Y-100121500I0J147500D01*
G01*
X116718000Y-99776500D01*
G75*
G02*
X116865500Y-99629000I147500J0D01*
G01*
X117160500Y-99629000D01*
G75*
G02*
X117308000Y-99776500I0J-147500D01*
G01*
G37*
G36*
G01*
X118278000Y-99776500D02*
X118278000Y-100121500D01*
G75*
G02*
X118130500Y-100269000I-147500J0D01*
G01*
X117835500Y-100269000D01*
G75*
G02*
X117688000Y-100121500I0J147500D01*
G01*
X117688000Y-99776500D01*
G75*
G02*
X117835500Y-99629000I147500J0D01*
G01*
X118130500Y-99629000D01*
G75*
G02*
X118278000Y-99776500I0J-147500D01*
G01*
G37*
G04 #@! TD*
G04 #@! TO.C,C4*
G36*
G01*
X117308000Y-101173500D02*
X117308000Y-101518500D01*
G75*
G02*
X117160500Y-101666000I-147500J0D01*
G01*
X116865500Y-101666000D01*
G75*
G02*
X116718000Y-101518500I0J147500D01*
G01*
X116718000Y-101173500D01*
G75*
G02*
X116865500Y-101026000I147500J0D01*
G01*
X117160500Y-101026000D01*
G75*
G02*
X117308000Y-101173500I0J-147500D01*
G01*
G37*
G36*
G01*
X118278000Y-101173500D02*
X118278000Y-101518500D01*
G75*
G02*
X118130500Y-101666000I-147500J0D01*
G01*
X117835500Y-101666000D01*
G75*
G02*
X117688000Y-101518500I0J147500D01*
G01*
X117688000Y-101173500D01*
G75*
G02*
X117835500Y-101026000I147500J0D01*
G01*
X118130500Y-101026000D01*
G75*
G02*
X118278000Y-101173500I0J-147500D01*
G01*
G37*
G04 #@! TD*
D13*
G04 #@! TO.C,J2*
X139573000Y-107061000D03*
X139573000Y-109601000D03*
X137033000Y-107061000D03*
X137033000Y-109601000D03*
X134493000Y-107061000D03*
X134493000Y-109601000D03*
X131953000Y-107061000D03*
X131953000Y-109601000D03*
X129413000Y-107061000D03*
X129413000Y-109601000D03*
X126873000Y-107061000D03*
X126873000Y-109601000D03*
X124333000Y-107061000D03*
X124333000Y-109601000D03*
X121793000Y-107061000D03*
X121793000Y-109601000D03*
X119253000Y-107061000D03*
X119253000Y-109601000D03*
X116713000Y-107061000D03*
D14*
X116713000Y-109601000D03*
G04 #@! TD*
D16*
G04 #@! TO.C,U1*
X122243000Y-89111000D03*
X122243000Y-89511000D03*
X122243000Y-89911000D03*
X122243000Y-90311000D03*
X122243000Y-90711000D03*
X122243000Y-91111000D03*
X122243000Y-91511000D03*
X122243000Y-91911000D03*
X122243000Y-92311000D03*
X122243000Y-92711000D03*
X122243000Y-93111000D03*
X122243000Y-93511000D03*
X122243000Y-93911000D03*
X122243000Y-94311000D03*
X122243000Y-94711000D03*
X122243000Y-95111000D03*
X122243000Y-95511000D03*
X122243000Y-95911000D03*
X122243000Y-96311000D03*
X122243000Y-96711000D03*
X122243000Y-97111000D03*
X122243000Y-97511000D03*
X122243000Y-97911000D03*
X122243000Y-98311000D03*
X122243000Y-98711000D03*
D17*
X123343000Y-99811000D03*
X123743000Y-99811000D03*
X124143000Y-99811000D03*
X124543000Y-99811000D03*
X124943000Y-99811000D03*
X125343000Y-99811000D03*
X125743000Y-99811000D03*
X126143000Y-99811000D03*
X126543000Y-99811000D03*
X126943000Y-99811000D03*
X127343000Y-99811000D03*
X127743000Y-99811000D03*
X128143000Y-99811000D03*
X128543000Y-99811000D03*
X128943000Y-99811000D03*
X129343000Y-99811000D03*
X129743000Y-99811000D03*
X130143000Y-99811000D03*
X130543000Y-99811000D03*
X130943000Y-99811000D03*
X131343000Y-99811000D03*
X131743000Y-99811000D03*
X132143000Y-99811000D03*
X132543000Y-99811000D03*
X132943000Y-99811000D03*
D16*
X134043000Y-98711000D03*
X134043000Y-98311000D03*
X134043000Y-97911000D03*
X134043000Y-97511000D03*
X134043000Y-97111000D03*
X134043000Y-96711000D03*
X134043000Y-96311000D03*
X134043000Y-95911000D03*
X134043000Y-95511000D03*
X134043000Y-95111000D03*
X134043000Y-94711000D03*
X134043000Y-94311000D03*
X134043000Y-93911000D03*
X134043000Y-93511000D03*
X134043000Y-93111000D03*
X134043000Y-92711000D03*
X134043000Y-92311000D03*
X134043000Y-91911000D03*
X134043000Y-91511000D03*
X134043000Y-91111000D03*
X134043000Y-90711000D03*
X134043000Y-90311000D03*
X134043000Y-89911000D03*
X134043000Y-89511000D03*
X134043000Y-89111000D03*
D17*
X132943000Y-88011000D03*
X132543000Y-88011000D03*
X132143000Y-88011000D03*
X131743000Y-88011000D03*
X131343000Y-88011000D03*
X130943000Y-88011000D03*
X130543000Y-88011000D03*
X130143000Y-88011000D03*
X129743000Y-88011000D03*
X129343000Y-88011000D03*
X128943000Y-88011000D03*
X128543000Y-88011000D03*
X128143000Y-88011000D03*
X127743000Y-88011000D03*
X127343000Y-88011000D03*
X126943000Y-88011000D03*
X126543000Y-88011000D03*
X126143000Y-88011000D03*
X125743000Y-88011000D03*
X125343000Y-88011000D03*
X124943000Y-88011000D03*
X124543000Y-88011000D03*
X124143000Y-88011000D03*
X123743000Y-88011000D03*
X123343000Y-88011000D03*
D18*
X124161750Y-89929750D03*
X124161750Y-91067250D03*
X124161750Y-92204750D03*
X124161750Y-93342250D03*
X124161750Y-94479750D03*
X124161750Y-95617250D03*
X124161750Y-96754750D03*
X124161750Y-97892250D03*
X125299250Y-89929750D03*
X125299250Y-91067250D03*
X125299250Y-92204750D03*
X125299250Y-93342250D03*
X125299250Y-94479750D03*
X125299250Y-95617250D03*
X125299250Y-96754750D03*
X125299250Y-97892250D03*
X126436750Y-89929750D03*
X126436750Y-91067250D03*
X126436750Y-92204750D03*
X126436750Y-93342250D03*
X126436750Y-94479750D03*
X126436750Y-95617250D03*
X126436750Y-96754750D03*
X126436750Y-97892250D03*
X127574250Y-89929750D03*
X127574250Y-91067250D03*
X127574250Y-92204750D03*
X127574250Y-93342250D03*
X127574250Y-94479750D03*
X127574250Y-95617250D03*
X127574250Y-96754750D03*
X127574250Y-97892250D03*
X128711750Y-89929750D03*
X128711750Y-91067250D03*
X128711750Y-92204750D03*
X128711750Y-93342250D03*
X128711750Y-94479750D03*
X128711750Y-95617250D03*
X128711750Y-96754750D03*
X128711750Y-97892250D03*
X129849250Y-89929750D03*
X129849250Y-91067250D03*
X129849250Y-92204750D03*
X129849250Y-93342250D03*
X129849250Y-94479750D03*
X129849250Y-95617250D03*
X129849250Y-96754750D03*
X129849250Y-97892250D03*
X130986750Y-89929750D03*
X130986750Y-91067250D03*
X130986750Y-92204750D03*
X130986750Y-93342250D03*
X130986750Y-94479750D03*
X130986750Y-95617250D03*
X130986750Y-96754750D03*
X130986750Y-97892250D03*
X132124250Y-89929750D03*
X132124250Y-91067250D03*
X132124250Y-92204750D03*
X132124250Y-93342250D03*
X132124250Y-94479750D03*
X132124250Y-95617250D03*
X132124250Y-96754750D03*
X132124250Y-97892250D03*
D19*
X124161750Y-89929750D03*
X124161750Y-91067250D03*
X124161750Y-92204750D03*
X124161750Y-93342250D03*
X124161750Y-94479750D03*
X124161750Y-95617250D03*
X124161750Y-96754750D03*
X124161750Y-97892250D03*
X125299250Y-89929750D03*
X125299250Y-91067250D03*
X125299250Y-92204750D03*
X125299250Y-93342250D03*
X125299250Y-94479750D03*
X125299250Y-95617250D03*
X125299250Y-96754750D03*
X125299250Y-97892250D03*
X126436750Y-89929750D03*
X126436750Y-91067250D03*
X126436750Y-92204750D03*
X126436750Y-93342250D03*
X126436750Y-94479750D03*
X126436750Y-95617250D03*
X126436750Y-96754750D03*
X126436750Y-97892250D03*
X127574250Y-89929750D03*
X127574250Y-91067250D03*
X127574250Y-92204750D03*
X127574250Y-93342250D03*
X127574250Y-94479750D03*
X127574250Y-95617250D03*
X127574250Y-96754750D03*
X127574250Y-97892250D03*
X128711750Y-89929750D03*
X128711750Y-91067250D03*
X128711750Y-92204750D03*
X128711750Y-93342250D03*
X128711750Y-94479750D03*
X128711750Y-95617250D03*
X128711750Y-96754750D03*
X128711750Y-97892250D03*
X129849250Y-89929750D03*
X129849250Y-91067250D03*
X129849250Y-92204750D03*
X129849250Y-93342250D03*
X129849250Y-94479750D03*
X129849250Y-95617250D03*
X129849250Y-96754750D03*
X129849250Y-97892250D03*
X130986750Y-89929750D03*
X130986750Y-91067250D03*
X130986750Y-92204750D03*
X130986750Y-93342250D03*
X130986750Y-94479750D03*
X130986750Y-95617250D03*
X130986750Y-96754750D03*
X130986750Y-97892250D03*
X132124250Y-89929750D03*
X132124250Y-91067250D03*
X132124250Y-92204750D03*
X132124250Y-93342250D03*
X132124250Y-94479750D03*
X132124250Y-95617250D03*
X132124250Y-96754750D03*
X132124250Y-97892250D03*
G04 #@! TD*
G04 #@! TO.C,C3*
G36*
G01*
X112563000Y-98633500D02*
X112563000Y-98978500D01*
G75*
G02*
X112415500Y-99126000I-147500J0D01*
G01*
X112120500Y-99126000D01*
G75*
G02*
X111973000Y-98978500I0J147500D01*
G01*
X111973000Y-98633500D01*
G75*
G02*
X112120500Y-98486000I147500J0D01*
G01*
X112415500Y-98486000D01*
G75*
G02*
X112563000Y-98633500I0J-147500D01*
G01*
G37*
G36*
G01*
X111593000Y-98633500D02*
X111593000Y-98978500D01*
G75*
G02*
X111445500Y-99126000I-147500J0D01*
G01*
X111150500Y-99126000D01*
G75*
G02*
X111003000Y-98978500I0J147500D01*
G01*
X111003000Y-98633500D01*
G75*
G02*
X111150500Y-98486000I147500J0D01*
G01*
X111445500Y-98486000D01*
G75*
G02*
X111593000Y-98633500I0J-147500D01*
G01*
G37*
G04 #@! TD*
G04 #@! TO.C,C2*
G36*
G01*
X110190500Y-101051000D02*
X110535500Y-101051000D01*
G75*
G02*
X110683000Y-101198500I0J-147500D01*
G01*
X110683000Y-101493500D01*
G75*
G02*
X110535500Y-101641000I-147500J0D01*
G01*
X110190500Y-101641000D01*
G75*
G02*
X110043000Y-101493500I0J147500D01*
G01*
X110043000Y-101198500D01*
G75*
G02*
X110190500Y-101051000I147500J0D01*
G01*
G37*
G36*
G01*
X110190500Y-102021000D02*
X110535500Y-102021000D01*
G75*
G02*
X110683000Y-102168500I0J-147500D01*
G01*
X110683000Y-102463500D01*
G75*
G02*
X110535500Y-102611000I-147500J0D01*
G01*
X110190500Y-102611000D01*
G75*
G02*
X110043000Y-102463500I0J147500D01*
G01*
X110043000Y-102168500D01*
G75*
G02*
X110190500Y-102021000I147500J0D01*
G01*
G37*
G04 #@! TD*
G04 #@! TO.C,C1*
G36*
G01*
X114178000Y-98978500D02*
X114178000Y-98633500D01*
G75*
G02*
X114325500Y-98486000I147500J0D01*
G01*
X114620500Y-98486000D01*
G75*
G02*
X114768000Y-98633500I0J-147500D01*
G01*
X114768000Y-98978500D01*
G75*
G02*
X114620500Y-99126000I-147500J0D01*
G01*
X114325500Y-99126000D01*
G75*
G02*
X114178000Y-98978500I0J147500D01*
G01*
G37*
G36*
G01*
X115148000Y-98978500D02*
X115148000Y-98633500D01*
G75*
G02*
X115295500Y-98486000I147500J0D01*
G01*
X115590500Y-98486000D01*
G75*
G02*
X115738000Y-98633500I0J-147500D01*
G01*
X115738000Y-98978500D01*
G75*
G02*
X115590500Y-99126000I-147500J0D01*
G01*
X115295500Y-99126000D01*
G75*
G02*
X115148000Y-98978500I0J147500D01*
G01*
G37*
G04 #@! TD*
G04 #@! TO.C,U9AB1*
G36*
G01*
X114488000Y-103206000D02*
X114588000Y-103206000D01*
G75*
G02*
X114638000Y-103256000I0J-50000D01*
G01*
X114638000Y-103706000D01*
G75*
G02*
X114588000Y-103756000I-50000J0D01*
G01*
X114488000Y-103756000D01*
G75*
G02*
X114438000Y-103706000I0J50000D01*
G01*
X114438000Y-103256000D01*
G75*
G02*
X114488000Y-103206000I50000J0D01*
G01*
G37*
G36*
G01*
X114088000Y-103206000D02*
X114188000Y-103206000D01*
G75*
G02*
X114238000Y-103256000I0J-50000D01*
G01*
X114238000Y-103706000D01*
G75*
G02*
X114188000Y-103756000I-50000J0D01*
G01*
X114088000Y-103756000D01*
G75*
G02*
X114038000Y-103706000I0J50000D01*
G01*
X114038000Y-103256000D01*
G75*
G02*
X114088000Y-103206000I50000J0D01*
G01*
G37*
G36*
G01*
X113688000Y-103206000D02*
X113788000Y-103206000D01*
G75*
G02*
X113838000Y-103256000I0J-50000D01*
G01*
X113838000Y-103706000D01*
G75*
G02*
X113788000Y-103756000I-50000J0D01*
G01*
X113688000Y-103756000D01*
G75*
G02*
X113638000Y-103706000I0J50000D01*
G01*
X113638000Y-103256000D01*
G75*
G02*
X113688000Y-103206000I50000J0D01*
G01*
G37*
G36*
G01*
X113288000Y-103206000D02*
X113388000Y-103206000D01*
G75*
G02*
X113438000Y-103256000I0J-50000D01*
G01*
X113438000Y-103706000D01*
G75*
G02*
X113388000Y-103756000I-50000J0D01*
G01*
X113288000Y-103756000D01*
G75*
G02*
X113238000Y-103706000I0J50000D01*
G01*
X113238000Y-103256000D01*
G75*
G02*
X113288000Y-103206000I50000J0D01*
G01*
G37*
G36*
G01*
X112888000Y-103206000D02*
X112988000Y-103206000D01*
G75*
G02*
X113038000Y-103256000I0J-50000D01*
G01*
X113038000Y-103706000D01*
G75*
G02*
X112988000Y-103756000I-50000J0D01*
G01*
X112888000Y-103756000D01*
G75*
G02*
X112838000Y-103706000I0J50000D01*
G01*
X112838000Y-103256000D01*
G75*
G02*
X112888000Y-103206000I50000J0D01*
G01*
G37*
G36*
G01*
X112488000Y-103206000D02*
X112588000Y-103206000D01*
G75*
G02*
X112638000Y-103256000I0J-50000D01*
G01*
X112638000Y-103706000D01*
G75*
G02*
X112588000Y-103756000I-50000J0D01*
G01*
X112488000Y-103756000D01*
G75*
G02*
X112438000Y-103706000I0J50000D01*
G01*
X112438000Y-103256000D01*
G75*
G02*
X112488000Y-103206000I50000J0D01*
G01*
G37*
G36*
G01*
X112313000Y-102931000D02*
X112313000Y-103031000D01*
G75*
G02*
X112263000Y-103081000I-50000J0D01*
G01*
X111813000Y-103081000D01*
G75*
G02*
X111763000Y-103031000I0J50000D01*
G01*
X111763000Y-102931000D01*
G75*
G02*
X111813000Y-102881000I50000J0D01*
G01*
X112263000Y-102881000D01*
G75*
G02*
X112313000Y-102931000I0J-50000D01*
G01*
G37*
G36*
G01*
X112313000Y-102531000D02*
X112313000Y-102631000D01*
G75*
G02*
X112263000Y-102681000I-50000J0D01*
G01*
X111813000Y-102681000D01*
G75*
G02*
X111763000Y-102631000I0J50000D01*
G01*
X111763000Y-102531000D01*
G75*
G02*
X111813000Y-102481000I50000J0D01*
G01*
X112263000Y-102481000D01*
G75*
G02*
X112313000Y-102531000I0J-50000D01*
G01*
G37*
G36*
G01*
X112313000Y-102131000D02*
X112313000Y-102231000D01*
G75*
G02*
X112263000Y-102281000I-50000J0D01*
G01*
X111813000Y-102281000D01*
G75*
G02*
X111763000Y-102231000I0J50000D01*
G01*
X111763000Y-102131000D01*
G75*
G02*
X111813000Y-102081000I50000J0D01*
G01*
X112263000Y-102081000D01*
G75*
G02*
X112313000Y-102131000I0J-50000D01*
G01*
G37*
G36*
G01*
X112313000Y-101731000D02*
X112313000Y-101831000D01*
G75*
G02*
X112263000Y-101881000I-50000J0D01*
G01*
X111813000Y-101881000D01*
G75*
G02*
X111763000Y-101831000I0J50000D01*
G01*
X111763000Y-101731000D01*
G75*
G02*
X111813000Y-101681000I50000J0D01*
G01*
X112263000Y-101681000D01*
G75*
G02*
X112313000Y-101731000I0J-50000D01*
G01*
G37*
G36*
G01*
X112313000Y-101331000D02*
X112313000Y-101431000D01*
G75*
G02*
X112263000Y-101481000I-50000J0D01*
G01*
X111813000Y-101481000D01*
G75*
G02*
X111763000Y-101431000I0J50000D01*
G01*
X111763000Y-101331000D01*
G75*
G02*
X111813000Y-101281000I50000J0D01*
G01*
X112263000Y-101281000D01*
G75*
G02*
X112313000Y-101331000I0J-50000D01*
G01*
G37*
G36*
G01*
X112313000Y-100931000D02*
X112313000Y-101031000D01*
G75*
G02*
X112263000Y-101081000I-50000J0D01*
G01*
X111813000Y-101081000D01*
G75*
G02*
X111763000Y-101031000I0J50000D01*
G01*
X111763000Y-100931000D01*
G75*
G02*
X111813000Y-100881000I50000J0D01*
G01*
X112263000Y-100881000D01*
G75*
G02*
X112313000Y-100931000I0J-50000D01*
G01*
G37*
G36*
G01*
X112488000Y-100206000D02*
X112588000Y-100206000D01*
G75*
G02*
X112638000Y-100256000I0J-50000D01*
G01*
X112638000Y-100706000D01*
G75*
G02*
X112588000Y-100756000I-50000J0D01*
G01*
X112488000Y-100756000D01*
G75*
G02*
X112438000Y-100706000I0J50000D01*
G01*
X112438000Y-100256000D01*
G75*
G02*
X112488000Y-100206000I50000J0D01*
G01*
G37*
G36*
G01*
X112888000Y-100206000D02*
X112988000Y-100206000D01*
G75*
G02*
X113038000Y-100256000I0J-50000D01*
G01*
X113038000Y-100706000D01*
G75*
G02*
X112988000Y-100756000I-50000J0D01*
G01*
X112888000Y-100756000D01*
G75*
G02*
X112838000Y-100706000I0J50000D01*
G01*
X112838000Y-100256000D01*
G75*
G02*
X112888000Y-100206000I50000J0D01*
G01*
G37*
G36*
G01*
X113288000Y-100206000D02*
X113388000Y-100206000D01*
G75*
G02*
X113438000Y-100256000I0J-50000D01*
G01*
X113438000Y-100706000D01*
G75*
G02*
X113388000Y-100756000I-50000J0D01*
G01*
X113288000Y-100756000D01*
G75*
G02*
X113238000Y-100706000I0J50000D01*
G01*
X113238000Y-100256000D01*
G75*
G02*
X113288000Y-100206000I50000J0D01*
G01*
G37*
G36*
G01*
X113688000Y-100206000D02*
X113788000Y-100206000D01*
G75*
G02*
X113838000Y-100256000I0J-50000D01*
G01*
X113838000Y-100706000D01*
G75*
G02*
X113788000Y-100756000I-50000J0D01*
G01*
X113688000Y-100756000D01*
G75*
G02*
X113638000Y-100706000I0J50000D01*
G01*
X113638000Y-100256000D01*
G75*
G02*
X113688000Y-100206000I50000J0D01*
G01*
G37*
G36*
G01*
X114088000Y-100206000D02*
X114188000Y-100206000D01*
G75*
G02*
X114238000Y-100256000I0J-50000D01*
G01*
X114238000Y-100706000D01*
G75*
G02*
X114188000Y-100756000I-50000J0D01*
G01*
X114088000Y-100756000D01*
G75*
G02*
X114038000Y-100706000I0J50000D01*
G01*
X114038000Y-100256000D01*
G75*
G02*
X114088000Y-100206000I50000J0D01*
G01*
G37*
G36*
G01*
X114488000Y-100206000D02*
X114588000Y-100206000D01*
G75*
G02*
X114638000Y-100256000I0J-50000D01*
G01*
X114638000Y-100706000D01*
G75*
G02*
X114588000Y-100756000I-50000J0D01*
G01*
X114488000Y-100756000D01*
G75*
G02*
X114438000Y-100706000I0J50000D01*
G01*
X114438000Y-100256000D01*
G75*
G02*
X114488000Y-100206000I50000J0D01*
G01*
G37*
G36*
G01*
X115313000Y-100931000D02*
X115313000Y-101031000D01*
G75*
G02*
X115263000Y-101081000I-50000J0D01*
G01*
X114813000Y-101081000D01*
G75*
G02*
X114763000Y-101031000I0J50000D01*
G01*
X114763000Y-100931000D01*
G75*
G02*
X114813000Y-100881000I50000J0D01*
G01*
X115263000Y-100881000D01*
G75*
G02*
X115313000Y-100931000I0J-50000D01*
G01*
G37*
G36*
G01*
X115313000Y-101331000D02*
X115313000Y-101431000D01*
G75*
G02*
X115263000Y-101481000I-50000J0D01*
G01*
X114813000Y-101481000D01*
G75*
G02*
X114763000Y-101431000I0J50000D01*
G01*
X114763000Y-101331000D01*
G75*
G02*
X114813000Y-101281000I50000J0D01*
G01*
X115263000Y-101281000D01*
G75*
G02*
X115313000Y-101331000I0J-50000D01*
G01*
G37*
G36*
G01*
X115313000Y-101731000D02*
X115313000Y-101831000D01*
G75*
G02*
X115263000Y-101881000I-50000J0D01*
G01*
X114813000Y-101881000D01*
G75*
G02*
X114763000Y-101831000I0J50000D01*
G01*
X114763000Y-101731000D01*
G75*
G02*
X114813000Y-101681000I50000J0D01*
G01*
X115263000Y-101681000D01*
G75*
G02*
X115313000Y-101731000I0J-50000D01*
G01*
G37*
G36*
G01*
X115313000Y-102131000D02*
X115313000Y-102231000D01*
G75*
G02*
X115263000Y-102281000I-50000J0D01*
G01*
X114813000Y-102281000D01*
G75*
G02*
X114763000Y-102231000I0J50000D01*
G01*
X114763000Y-102131000D01*
G75*
G02*
X114813000Y-102081000I50000J0D01*
G01*
X115263000Y-102081000D01*
G75*
G02*
X115313000Y-102131000I0J-50000D01*
G01*
G37*
G36*
G01*
X115313000Y-102531000D02*
X115313000Y-102631000D01*
G75*
G02*
X115263000Y-102681000I-50000J0D01*
G01*
X114813000Y-102681000D01*
G75*
G02*
X114763000Y-102631000I0J50000D01*
G01*
X114763000Y-102531000D01*
G75*
G02*
X114813000Y-102481000I50000J0D01*
G01*
X115263000Y-102481000D01*
G75*
G02*
X115313000Y-102531000I0J-50000D01*
G01*
G37*
G36*
G01*
X115313000Y-102931000D02*
X115313000Y-103031000D01*
G75*
G02*
X115263000Y-103081000I-50000J0D01*
G01*
X114813000Y-103081000D01*
G75*
G02*
X114763000Y-103031000I0J50000D01*
G01*
X114763000Y-102931000D01*
G75*
G02*
X114813000Y-102881000I50000J0D01*
G01*
X115263000Y-102881000D01*
G75*
G02*
X115313000Y-102931000I0J-50000D01*
G01*
G37*
G04 #@! TD*
D12*
G04 #@! TO.C,B1*
X140512800Y-130937000D03*
X120015000Y-130937000D03*
G04 #@! TD*
D13*
G04 #@! TO.C,J1*
X141478000Y-116840000D03*
X141478000Y-119380000D03*
X138938000Y-116840000D03*
X138938000Y-119380000D03*
X136398000Y-116840000D03*
X136398000Y-119380000D03*
X133858000Y-116840000D03*
X133858000Y-119380000D03*
X131318000Y-116840000D03*
X131318000Y-119380000D03*
X128778000Y-116840000D03*
X128778000Y-119380000D03*
X126238000Y-116840000D03*
X126238000Y-119380000D03*
X123698000Y-116840000D03*
X123698000Y-119380000D03*
X121158000Y-116840000D03*
X121158000Y-119380000D03*
X118618000Y-116840000D03*
X118618000Y-119380000D03*
X116078000Y-116840000D03*
D14*
X116078000Y-119380000D03*
G04 #@! TD*
G04 #@! TO.C,R4*
G36*
G01*
X129118000Y-122727500D02*
X129118000Y-122382500D01*
G75*
G02*
X129265500Y-122235000I147500J0D01*
G01*
X129560500Y-122235000D01*
G75*
G02*
X129708000Y-122382500I0J-147500D01*
G01*
X129708000Y-122727500D01*
G75*
G02*
X129560500Y-122875000I-147500J0D01*
G01*
X129265500Y-122875000D01*
G75*
G02*
X129118000Y-122727500I0J147500D01*
G01*
G37*
G36*
G01*
X128148000Y-122727500D02*
X128148000Y-122382500D01*
G75*
G02*
X128295500Y-122235000I147500J0D01*
G01*
X128590500Y-122235000D01*
G75*
G02*
X128738000Y-122382500I0J-147500D01*
G01*
X128738000Y-122727500D01*
G75*
G02*
X128590500Y-122875000I-147500J0D01*
G01*
X128295500Y-122875000D01*
G75*
G02*
X128148000Y-122727500I0J147500D01*
G01*
G37*
G04 #@! TD*
D20*
G04 #@! TO.C,U3*
X113927000Y-123658999D03*
X114427000Y-123658999D03*
X114927000Y-123658999D03*
X114927000Y-125458999D03*
X114427000Y-125458999D03*
X113927000Y-125458999D03*
G04 #@! TD*
G04 #@! TO.C,U2*
X113875999Y-129754999D03*
X114375999Y-129754999D03*
X114875999Y-129754999D03*
X114875999Y-131554999D03*
X114375999Y-131554999D03*
X113875999Y-131554999D03*
G04 #@! TD*
G04 #@! TO.C,R3*
G36*
G01*
X144612000Y-121203500D02*
X144612000Y-120858500D01*
G75*
G02*
X144759500Y-120711000I147500J0D01*
G01*
X145054500Y-120711000D01*
G75*
G02*
X145202000Y-120858500I0J-147500D01*
G01*
X145202000Y-121203500D01*
G75*
G02*
X145054500Y-121351000I-147500J0D01*
G01*
X144759500Y-121351000D01*
G75*
G02*
X144612000Y-121203500I0J147500D01*
G01*
G37*
G36*
G01*
X143642000Y-121203500D02*
X143642000Y-120858500D01*
G75*
G02*
X143789500Y-120711000I147500J0D01*
G01*
X144084500Y-120711000D01*
G75*
G02*
X144232000Y-120858500I0J-147500D01*
G01*
X144232000Y-121203500D01*
G75*
G02*
X144084500Y-121351000I-147500J0D01*
G01*
X143789500Y-121351000D01*
G75*
G02*
X143642000Y-121203500I0J147500D01*
G01*
G37*
G04 #@! TD*
G04 #@! TO.C,R2*
G36*
G01*
X139233000Y-123017500D02*
X139233000Y-123362500D01*
G75*
G02*
X139085500Y-123510000I-147500J0D01*
G01*
X138790500Y-123510000D01*
G75*
G02*
X138643000Y-123362500I0J147500D01*
G01*
X138643000Y-123017500D01*
G75*
G02*
X138790500Y-122870000I147500J0D01*
G01*
X139085500Y-122870000D01*
G75*
G02*
X139233000Y-123017500I0J-147500D01*
G01*
G37*
G36*
G01*
X140203000Y-123017500D02*
X140203000Y-123362500D01*
G75*
G02*
X140055500Y-123510000I-147500J0D01*
G01*
X139760500Y-123510000D01*
G75*
G02*
X139613000Y-123362500I0J147500D01*
G01*
X139613000Y-123017500D01*
G75*
G02*
X139760500Y-122870000I147500J0D01*
G01*
X140055500Y-122870000D01*
G75*
G02*
X140203000Y-123017500I0J-147500D01*
G01*
G37*
G04 #@! TD*
G04 #@! TO.C,C_1.8_OUT1*
G36*
G01*
X111430750Y-131110000D02*
X112343250Y-131110000D01*
G75*
G02*
X112587000Y-131353750I0J-243750D01*
G01*
X112587000Y-131841250D01*
G75*
G02*
X112343250Y-132085000I-243750J0D01*
G01*
X111430750Y-132085000D01*
G75*
G02*
X111187000Y-131841250I0J243750D01*
G01*
X111187000Y-131353750D01*
G75*
G02*
X111430750Y-131110000I243750J0D01*
G01*
G37*
G36*
G01*
X111430750Y-129235000D02*
X112343250Y-129235000D01*
G75*
G02*
X112587000Y-129478750I0J-243750D01*
G01*
X112587000Y-129966250D01*
G75*
G02*
X112343250Y-130210000I-243750J0D01*
G01*
X111430750Y-130210000D01*
G75*
G02*
X111187000Y-129966250I0J243750D01*
G01*
X111187000Y-129478750D01*
G75*
G02*
X111430750Y-129235000I243750J0D01*
G01*
G37*
G04 #@! TD*
G04 #@! TO.C,C_1.1_OUT1*
G36*
G01*
X111430750Y-124988500D02*
X112343250Y-124988500D01*
G75*
G02*
X112587000Y-125232250I0J-243750D01*
G01*
X112587000Y-125719750D01*
G75*
G02*
X112343250Y-125963500I-243750J0D01*
G01*
X111430750Y-125963500D01*
G75*
G02*
X111187000Y-125719750I0J243750D01*
G01*
X111187000Y-125232250D01*
G75*
G02*
X111430750Y-124988500I243750J0D01*
G01*
G37*
G36*
G01*
X111430750Y-123113500D02*
X112343250Y-123113500D01*
G75*
G02*
X112587000Y-123357250I0J-243750D01*
G01*
X112587000Y-123844750D01*
G75*
G02*
X112343250Y-124088500I-243750J0D01*
G01*
X111430750Y-124088500D01*
G75*
G02*
X111187000Y-123844750I0J243750D01*
G01*
X111187000Y-123357250D01*
G75*
G02*
X111430750Y-123113500I243750J0D01*
G01*
G37*
G04 #@! TD*
G04 #@! TO.C,L2*
G36*
G01*
X114594000Y-127045500D02*
X114594000Y-126700500D01*
G75*
G02*
X114741500Y-126553000I147500J0D01*
G01*
X115036500Y-126553000D01*
G75*
G02*
X115184000Y-126700500I0J-147500D01*
G01*
X115184000Y-127045500D01*
G75*
G02*
X115036500Y-127193000I-147500J0D01*
G01*
X114741500Y-127193000D01*
G75*
G02*
X114594000Y-127045500I0J147500D01*
G01*
G37*
G36*
G01*
X113624000Y-127045500D02*
X113624000Y-126700500D01*
G75*
G02*
X113771500Y-126553000I147500J0D01*
G01*
X114066500Y-126553000D01*
G75*
G02*
X114214000Y-126700500I0J-147500D01*
G01*
X114214000Y-127045500D01*
G75*
G02*
X114066500Y-127193000I-147500J0D01*
G01*
X113771500Y-127193000D01*
G75*
G02*
X113624000Y-127045500I0J147500D01*
G01*
G37*
G04 #@! TD*
G04 #@! TO.C,L1*
G36*
G01*
X114640000Y-133141500D02*
X114640000Y-132796500D01*
G75*
G02*
X114787500Y-132649000I147500J0D01*
G01*
X115082500Y-132649000D01*
G75*
G02*
X115230000Y-132796500I0J-147500D01*
G01*
X115230000Y-133141500D01*
G75*
G02*
X115082500Y-133289000I-147500J0D01*
G01*
X114787500Y-133289000D01*
G75*
G02*
X114640000Y-133141500I0J147500D01*
G01*
G37*
G36*
G01*
X113670000Y-133141500D02*
X113670000Y-132796500D01*
G75*
G02*
X113817500Y-132649000I147500J0D01*
G01*
X114112500Y-132649000D01*
G75*
G02*
X114260000Y-132796500I0J-147500D01*
G01*
X114260000Y-133141500D01*
G75*
G02*
X114112500Y-133289000I-147500J0D01*
G01*
X113817500Y-133289000D01*
G75*
G02*
X113670000Y-133141500I0J147500D01*
G01*
G37*
G04 #@! TD*
D13*
G04 #@! TO.C,J3*
X145923000Y-134620000D03*
X143383000Y-134620000D03*
X145923000Y-132080000D03*
X143383000Y-132080000D03*
X145923000Y-129540000D03*
X143383000Y-129540000D03*
X145923000Y-127000000D03*
X143383000Y-127000000D03*
X145923000Y-124460000D03*
D14*
X143383000Y-124460000D03*
G04 #@! TD*
G04 #@! TO.C,C_1.1_IN1*
G36*
G01*
X114767000Y-122727500D02*
X114767000Y-122382500D01*
G75*
G02*
X114914500Y-122235000I147500J0D01*
G01*
X115209500Y-122235000D01*
G75*
G02*
X115357000Y-122382500I0J-147500D01*
G01*
X115357000Y-122727500D01*
G75*
G02*
X115209500Y-122875000I-147500J0D01*
G01*
X114914500Y-122875000D01*
G75*
G02*
X114767000Y-122727500I0J147500D01*
G01*
G37*
G36*
G01*
X113797000Y-122727500D02*
X113797000Y-122382500D01*
G75*
G02*
X113944500Y-122235000I147500J0D01*
G01*
X114239500Y-122235000D01*
G75*
G02*
X114387000Y-122382500I0J-147500D01*
G01*
X114387000Y-122727500D01*
G75*
G02*
X114239500Y-122875000I-147500J0D01*
G01*
X113944500Y-122875000D01*
G75*
G02*
X113797000Y-122727500I0J147500D01*
G01*
G37*
G04 #@! TD*
G04 #@! TO.C,C_1.8_IN1*
G36*
G01*
X114721000Y-128823500D02*
X114721000Y-128478500D01*
G75*
G02*
X114868500Y-128331000I147500J0D01*
G01*
X115163500Y-128331000D01*
G75*
G02*
X115311000Y-128478500I0J-147500D01*
G01*
X115311000Y-128823500D01*
G75*
G02*
X115163500Y-128971000I-147500J0D01*
G01*
X114868500Y-128971000D01*
G75*
G02*
X114721000Y-128823500I0J147500D01*
G01*
G37*
G36*
G01*
X113751000Y-128823500D02*
X113751000Y-128478500D01*
G75*
G02*
X113898500Y-128331000I147500J0D01*
G01*
X114193500Y-128331000D01*
G75*
G02*
X114341000Y-128478500I0J-147500D01*
G01*
X114341000Y-128823500D01*
G75*
G02*
X114193500Y-128971000I-147500J0D01*
G01*
X113898500Y-128971000D01*
G75*
G02*
X113751000Y-128823500I0J147500D01*
G01*
G37*
G04 #@! TD*
D15*
G04 #@! TO.C,J21*
X140208000Y-133350000D03*
G04 #@! TD*
G04 #@! TO.C,J20*
X135763000Y-125095000D03*
G04 #@! TD*
G04 #@! TO.C,J19*
X125349000Y-122555000D03*
G04 #@! TD*
G04 #@! TO.C,J18*
X123698000Y-122555000D03*
G04 #@! TD*
G04 #@! TO.C,J14*
X121666000Y-122936000D03*
G04 #@! TD*
G04 #@! TO.C,J12*
X119507000Y-138557000D03*
G04 #@! TD*
G04 #@! TO.C,J17*
X140208000Y-135890000D03*
G04 #@! TD*
G04 #@! TO.C,J16*
X135890000Y-130048000D03*
G04 #@! TD*
G04 #@! TO.C,J15*
X135382000Y-129032000D03*
G04 #@! TD*
G04 #@! TO.C,J13*
X122047000Y-139573000D03*
G04 #@! TD*
G04 #@! TO.C,J11*
X119507000Y-137033000D03*
G04 #@! TD*
G04 #@! TO.C,J10*
X117348000Y-128905000D03*
G04 #@! TD*
G04 #@! TO.C,J9*
X118618000Y-127635000D03*
G04 #@! TD*
G04 #@! TO.C,J8*
X117348000Y-127000000D03*
G04 #@! TD*
G04 #@! TO.C,J7*
X117983000Y-125730000D03*
G04 #@! TD*
G04 #@! TO.C,J6*
X119253000Y-125095000D03*
G04 #@! TD*
G04 #@! TO.C,J5*
X135890000Y-126492000D03*
G04 #@! TD*
G04 #@! TO.C,GND6*
X146050000Y-120650000D03*
G04 #@! TD*
G04 #@! TO.C,GND5*
X138303000Y-136525000D03*
G04 #@! TD*
G04 #@! TO.C,GND4*
X136017000Y-122809000D03*
G04 #@! TD*
G04 #@! TO.C,GND3*
X116967000Y-122809000D03*
G04 #@! TD*
G04 #@! TO.C,GND2*
X140208000Y-128270000D03*
G04 #@! TD*
G04 #@! TO.C,GND1*
X130175000Y-140081000D03*
G04 #@! TD*
D14*
G04 #@! TO.C,J4*
X118491000Y-133985000D03*
G04 #@! TD*
G04 #@! TO.C,R1*
G36*
G01*
X138765500Y-129580000D02*
X139110500Y-129580000D01*
G75*
G02*
X139258000Y-129727500I0J-147500D01*
G01*
X139258000Y-130022500D01*
G75*
G02*
X139110500Y-130170000I-147500J0D01*
G01*
X138765500Y-130170000D01*
G75*
G02*
X138618000Y-130022500I0J147500D01*
G01*
X138618000Y-129727500D01*
G75*
G02*
X138765500Y-129580000I147500J0D01*
G01*
G37*
G36*
G01*
X138765500Y-128610000D02*
X139110500Y-128610000D01*
G75*
G02*
X139258000Y-128757500I0J-147500D01*
G01*
X139258000Y-129052500D01*
G75*
G02*
X139110500Y-129200000I-147500J0D01*
G01*
X138765500Y-129200000D01*
G75*
G02*
X138618000Y-129052500I0J147500D01*
G01*
X138618000Y-128757500D01*
G75*
G02*
X138765500Y-128610000I147500J0D01*
G01*
G37*
G04 #@! TD*
G04 #@! TO.C,C13*
G36*
G01*
X139110500Y-125055000D02*
X138765500Y-125055000D01*
G75*
G02*
X138618000Y-124907500I0J147500D01*
G01*
X138618000Y-124612500D01*
G75*
G02*
X138765500Y-124465000I147500J0D01*
G01*
X139110500Y-124465000D01*
G75*
G02*
X139258000Y-124612500I0J-147500D01*
G01*
X139258000Y-124907500D01*
G75*
G02*
X139110500Y-125055000I-147500J0D01*
G01*
G37*
G36*
G01*
X139110500Y-126025000D02*
X138765500Y-126025000D01*
G75*
G02*
X138618000Y-125877500I0J147500D01*
G01*
X138618000Y-125582500D01*
G75*
G02*
X138765500Y-125435000I147500J0D01*
G01*
X139110500Y-125435000D01*
G75*
G02*
X139258000Y-125582500I0J-147500D01*
G01*
X139258000Y-125877500D01*
G75*
G02*
X139110500Y-126025000I-147500J0D01*
G01*
G37*
G04 #@! TD*
G04 #@! TO.C,C12*
G36*
G01*
X137205500Y-125055000D02*
X136860500Y-125055000D01*
G75*
G02*
X136713000Y-124907500I0J147500D01*
G01*
X136713000Y-124612500D01*
G75*
G02*
X136860500Y-124465000I147500J0D01*
G01*
X137205500Y-124465000D01*
G75*
G02*
X137353000Y-124612500I0J-147500D01*
G01*
X137353000Y-124907500D01*
G75*
G02*
X137205500Y-125055000I-147500J0D01*
G01*
G37*
G36*
G01*
X137205500Y-126025000D02*
X136860500Y-126025000D01*
G75*
G02*
X136713000Y-125877500I0J147500D01*
G01*
X136713000Y-125582500D01*
G75*
G02*
X136860500Y-125435000I147500J0D01*
G01*
X137205500Y-125435000D01*
G75*
G02*
X137353000Y-125582500I0J-147500D01*
G01*
X137353000Y-125877500D01*
G75*
G02*
X137205500Y-126025000I-147500J0D01*
G01*
G37*
G04 #@! TD*
G04 #@! TO.C,C11*
G36*
G01*
X137205500Y-129200000D02*
X136860500Y-129200000D01*
G75*
G02*
X136713000Y-129052500I0J147500D01*
G01*
X136713000Y-128757500D01*
G75*
G02*
X136860500Y-128610000I147500J0D01*
G01*
X137205500Y-128610000D01*
G75*
G02*
X137353000Y-128757500I0J-147500D01*
G01*
X137353000Y-129052500D01*
G75*
G02*
X137205500Y-129200000I-147500J0D01*
G01*
G37*
G36*
G01*
X137205500Y-130170000D02*
X136860500Y-130170000D01*
G75*
G02*
X136713000Y-130022500I0J147500D01*
G01*
X136713000Y-129727500D01*
G75*
G02*
X136860500Y-129580000I147500J0D01*
G01*
X137205500Y-129580000D01*
G75*
G02*
X137353000Y-129727500I0J-147500D01*
G01*
X137353000Y-130022500D01*
G75*
G02*
X137205500Y-130170000I-147500J0D01*
G01*
G37*
G04 #@! TD*
G04 #@! TO.C,C10*
G36*
G01*
X126791500Y-122596000D02*
X126446500Y-122596000D01*
G75*
G02*
X126299000Y-122448500I0J147500D01*
G01*
X126299000Y-122153500D01*
G75*
G02*
X126446500Y-122006000I147500J0D01*
G01*
X126791500Y-122006000D01*
G75*
G02*
X126939000Y-122153500I0J-147500D01*
G01*
X126939000Y-122448500D01*
G75*
G02*
X126791500Y-122596000I-147500J0D01*
G01*
G37*
G36*
G01*
X126791500Y-123566000D02*
X126446500Y-123566000D01*
G75*
G02*
X126299000Y-123418500I0J147500D01*
G01*
X126299000Y-123123500D01*
G75*
G02*
X126446500Y-122976000I147500J0D01*
G01*
X126791500Y-122976000D01*
G75*
G02*
X126939000Y-123123500I0J-147500D01*
G01*
X126939000Y-123418500D01*
G75*
G02*
X126791500Y-123566000I-147500J0D01*
G01*
G37*
G04 #@! TD*
G04 #@! TO.C,C9*
G36*
G01*
X117262000Y-140924500D02*
X117262000Y-141269500D01*
G75*
G02*
X117114500Y-141417000I-147500J0D01*
G01*
X116819500Y-141417000D01*
G75*
G02*
X116672000Y-141269500I0J147500D01*
G01*
X116672000Y-140924500D01*
G75*
G02*
X116819500Y-140777000I147500J0D01*
G01*
X117114500Y-140777000D01*
G75*
G02*
X117262000Y-140924500I0J-147500D01*
G01*
G37*
G36*
G01*
X118232000Y-140924500D02*
X118232000Y-141269500D01*
G75*
G02*
X118084500Y-141417000I-147500J0D01*
G01*
X117789500Y-141417000D01*
G75*
G02*
X117642000Y-141269500I0J147500D01*
G01*
X117642000Y-140924500D01*
G75*
G02*
X117789500Y-140777000I147500J0D01*
G01*
X118084500Y-140777000D01*
G75*
G02*
X118232000Y-140924500I0J-147500D01*
G01*
G37*
G04 #@! TD*
G04 #@! TO.C,C8*
G36*
G01*
X117308000Y-139527500D02*
X117308000Y-139872500D01*
G75*
G02*
X117160500Y-140020000I-147500J0D01*
G01*
X116865500Y-140020000D01*
G75*
G02*
X116718000Y-139872500I0J147500D01*
G01*
X116718000Y-139527500D01*
G75*
G02*
X116865500Y-139380000I147500J0D01*
G01*
X117160500Y-139380000D01*
G75*
G02*
X117308000Y-139527500I0J-147500D01*
G01*
G37*
G36*
G01*
X118278000Y-139527500D02*
X118278000Y-139872500D01*
G75*
G02*
X118130500Y-140020000I-147500J0D01*
G01*
X117835500Y-140020000D01*
G75*
G02*
X117688000Y-139872500I0J147500D01*
G01*
X117688000Y-139527500D01*
G75*
G02*
X117835500Y-139380000I147500J0D01*
G01*
X118130500Y-139380000D01*
G75*
G02*
X118278000Y-139527500I0J-147500D01*
G01*
G37*
G04 #@! TD*
G04 #@! TO.C,C7*
G36*
G01*
X134279000Y-122727500D02*
X134279000Y-122382500D01*
G75*
G02*
X134426500Y-122235000I147500J0D01*
G01*
X134721500Y-122235000D01*
G75*
G02*
X134869000Y-122382500I0J-147500D01*
G01*
X134869000Y-122727500D01*
G75*
G02*
X134721500Y-122875000I-147500J0D01*
G01*
X134426500Y-122875000D01*
G75*
G02*
X134279000Y-122727500I0J147500D01*
G01*
G37*
G36*
G01*
X133309000Y-122727500D02*
X133309000Y-122382500D01*
G75*
G02*
X133456500Y-122235000I147500J0D01*
G01*
X133751500Y-122235000D01*
G75*
G02*
X133899000Y-122382500I0J-147500D01*
G01*
X133899000Y-122727500D01*
G75*
G02*
X133751500Y-122875000I-147500J0D01*
G01*
X133456500Y-122875000D01*
G75*
G02*
X133309000Y-122727500I0J147500D01*
G01*
G37*
G04 #@! TD*
G04 #@! TO.C,C6*
G36*
G01*
X131405000Y-122382500D02*
X131405000Y-122727500D01*
G75*
G02*
X131257500Y-122875000I-147500J0D01*
G01*
X130962500Y-122875000D01*
G75*
G02*
X130815000Y-122727500I0J147500D01*
G01*
X130815000Y-122382500D01*
G75*
G02*
X130962500Y-122235000I147500J0D01*
G01*
X131257500Y-122235000D01*
G75*
G02*
X131405000Y-122382500I0J-147500D01*
G01*
G37*
G36*
G01*
X132375000Y-122382500D02*
X132375000Y-122727500D01*
G75*
G02*
X132227500Y-122875000I-147500J0D01*
G01*
X131932500Y-122875000D01*
G75*
G02*
X131785000Y-122727500I0J147500D01*
G01*
X131785000Y-122382500D01*
G75*
G02*
X131932500Y-122235000I147500J0D01*
G01*
X132227500Y-122235000D01*
G75*
G02*
X132375000Y-122382500I0J-147500D01*
G01*
G37*
G04 #@! TD*
G04 #@! TO.C,C5*
G36*
G01*
X117308000Y-136860500D02*
X117308000Y-137205500D01*
G75*
G02*
X117160500Y-137353000I-147500J0D01*
G01*
X116865500Y-137353000D01*
G75*
G02*
X116718000Y-137205500I0J147500D01*
G01*
X116718000Y-136860500D01*
G75*
G02*
X116865500Y-136713000I147500J0D01*
G01*
X117160500Y-136713000D01*
G75*
G02*
X117308000Y-136860500I0J-147500D01*
G01*
G37*
G36*
G01*
X118278000Y-136860500D02*
X118278000Y-137205500D01*
G75*
G02*
X118130500Y-137353000I-147500J0D01*
G01*
X117835500Y-137353000D01*
G75*
G02*
X117688000Y-137205500I0J147500D01*
G01*
X117688000Y-136860500D01*
G75*
G02*
X117835500Y-136713000I147500J0D01*
G01*
X118130500Y-136713000D01*
G75*
G02*
X118278000Y-136860500I0J-147500D01*
G01*
G37*
G04 #@! TD*
G04 #@! TO.C,C4*
G36*
G01*
X117308000Y-138257500D02*
X117308000Y-138602500D01*
G75*
G02*
X117160500Y-138750000I-147500J0D01*
G01*
X116865500Y-138750000D01*
G75*
G02*
X116718000Y-138602500I0J147500D01*
G01*
X116718000Y-138257500D01*
G75*
G02*
X116865500Y-138110000I147500J0D01*
G01*
X117160500Y-138110000D01*
G75*
G02*
X117308000Y-138257500I0J-147500D01*
G01*
G37*
G36*
G01*
X118278000Y-138257500D02*
X118278000Y-138602500D01*
G75*
G02*
X118130500Y-138750000I-147500J0D01*
G01*
X117835500Y-138750000D01*
G75*
G02*
X117688000Y-138602500I0J147500D01*
G01*
X117688000Y-138257500D01*
G75*
G02*
X117835500Y-138110000I147500J0D01*
G01*
X118130500Y-138110000D01*
G75*
G02*
X118278000Y-138257500I0J-147500D01*
G01*
G37*
G04 #@! TD*
D13*
G04 #@! TO.C,J2*
X139573000Y-144145000D03*
X139573000Y-146685000D03*
X137033000Y-144145000D03*
X137033000Y-146685000D03*
X134493000Y-144145000D03*
X134493000Y-146685000D03*
X131953000Y-144145000D03*
X131953000Y-146685000D03*
X129413000Y-144145000D03*
X129413000Y-146685000D03*
X126873000Y-144145000D03*
X126873000Y-146685000D03*
X124333000Y-144145000D03*
X124333000Y-146685000D03*
X121793000Y-144145000D03*
X121793000Y-146685000D03*
X119253000Y-144145000D03*
X119253000Y-146685000D03*
X116713000Y-144145000D03*
D14*
X116713000Y-146685000D03*
G04 #@! TD*
D16*
G04 #@! TO.C,U1*
X122243000Y-126195000D03*
X122243000Y-126595000D03*
X122243000Y-126995000D03*
X122243000Y-127395000D03*
X122243000Y-127795000D03*
X122243000Y-128195000D03*
X122243000Y-128595000D03*
X122243000Y-128995000D03*
X122243000Y-129395000D03*
X122243000Y-129795000D03*
X122243000Y-130195000D03*
X122243000Y-130595000D03*
X122243000Y-130995000D03*
X122243000Y-131395000D03*
X122243000Y-131795000D03*
X122243000Y-132195000D03*
X122243000Y-132595000D03*
X122243000Y-132995000D03*
X122243000Y-133395000D03*
X122243000Y-133795000D03*
X122243000Y-134195000D03*
X122243000Y-134595000D03*
X122243000Y-134995000D03*
X122243000Y-135395000D03*
X122243000Y-135795000D03*
D17*
X123343000Y-136895000D03*
X123743000Y-136895000D03*
X124143000Y-136895000D03*
X124543000Y-136895000D03*
X124943000Y-136895000D03*
X125343000Y-136895000D03*
X125743000Y-136895000D03*
X126143000Y-136895000D03*
X126543000Y-136895000D03*
X126943000Y-136895000D03*
X127343000Y-136895000D03*
X127743000Y-136895000D03*
X128143000Y-136895000D03*
X128543000Y-136895000D03*
X128943000Y-136895000D03*
X129343000Y-136895000D03*
X129743000Y-136895000D03*
X130143000Y-136895000D03*
X130543000Y-136895000D03*
X130943000Y-136895000D03*
X131343000Y-136895000D03*
X131743000Y-136895000D03*
X132143000Y-136895000D03*
X132543000Y-136895000D03*
X132943000Y-136895000D03*
D16*
X134043000Y-135795000D03*
X134043000Y-135395000D03*
X134043000Y-134995000D03*
X134043000Y-134595000D03*
X134043000Y-134195000D03*
X134043000Y-133795000D03*
X134043000Y-133395000D03*
X134043000Y-132995000D03*
X134043000Y-132595000D03*
X134043000Y-132195000D03*
X134043000Y-131795000D03*
X134043000Y-131395000D03*
X134043000Y-130995000D03*
X134043000Y-130595000D03*
X134043000Y-130195000D03*
X134043000Y-129795000D03*
X134043000Y-129395000D03*
X134043000Y-128995000D03*
X134043000Y-128595000D03*
X134043000Y-128195000D03*
X134043000Y-127795000D03*
X134043000Y-127395000D03*
X134043000Y-126995000D03*
X134043000Y-126595000D03*
X134043000Y-126195000D03*
D17*
X132943000Y-125095000D03*
X132543000Y-125095000D03*
X132143000Y-125095000D03*
X131743000Y-125095000D03*
X131343000Y-125095000D03*
X130943000Y-125095000D03*
X130543000Y-125095000D03*
X130143000Y-125095000D03*
X129743000Y-125095000D03*
X129343000Y-125095000D03*
X128943000Y-125095000D03*
X128543000Y-125095000D03*
X128143000Y-125095000D03*
X127743000Y-125095000D03*
X127343000Y-125095000D03*
X126943000Y-125095000D03*
X126543000Y-125095000D03*
X126143000Y-125095000D03*
X125743000Y-125095000D03*
X125343000Y-125095000D03*
X124943000Y-125095000D03*
X124543000Y-125095000D03*
X124143000Y-125095000D03*
X123743000Y-125095000D03*
X123343000Y-125095000D03*
D18*
X124161750Y-127013750D03*
X124161750Y-128151250D03*
X124161750Y-129288750D03*
X124161750Y-130426250D03*
X124161750Y-131563750D03*
X124161750Y-132701250D03*
X124161750Y-133838750D03*
X124161750Y-134976250D03*
X125299250Y-127013750D03*
X125299250Y-128151250D03*
X125299250Y-129288750D03*
X125299250Y-130426250D03*
X125299250Y-131563750D03*
X125299250Y-132701250D03*
X125299250Y-133838750D03*
X125299250Y-134976250D03*
X126436750Y-127013750D03*
X126436750Y-128151250D03*
X126436750Y-129288750D03*
X126436750Y-130426250D03*
X126436750Y-131563750D03*
X126436750Y-132701250D03*
X126436750Y-133838750D03*
X126436750Y-134976250D03*
X127574250Y-127013750D03*
X127574250Y-128151250D03*
X127574250Y-129288750D03*
X127574250Y-130426250D03*
X127574250Y-131563750D03*
X127574250Y-132701250D03*
X127574250Y-133838750D03*
X127574250Y-134976250D03*
X128711750Y-127013750D03*
X128711750Y-128151250D03*
X128711750Y-129288750D03*
X128711750Y-130426250D03*
X128711750Y-131563750D03*
X128711750Y-132701250D03*
X128711750Y-133838750D03*
X128711750Y-134976250D03*
X129849250Y-127013750D03*
X129849250Y-128151250D03*
X129849250Y-129288750D03*
X129849250Y-130426250D03*
X129849250Y-131563750D03*
X129849250Y-132701250D03*
X129849250Y-133838750D03*
X129849250Y-134976250D03*
X130986750Y-127013750D03*
X130986750Y-128151250D03*
X130986750Y-129288750D03*
X130986750Y-130426250D03*
X130986750Y-131563750D03*
X130986750Y-132701250D03*
X130986750Y-133838750D03*
X130986750Y-134976250D03*
X132124250Y-127013750D03*
X132124250Y-128151250D03*
X132124250Y-129288750D03*
X132124250Y-130426250D03*
X132124250Y-131563750D03*
X132124250Y-132701250D03*
X132124250Y-133838750D03*
X132124250Y-134976250D03*
D19*
X124161750Y-127013750D03*
X124161750Y-128151250D03*
X124161750Y-129288750D03*
X124161750Y-130426250D03*
X124161750Y-131563750D03*
X124161750Y-132701250D03*
X124161750Y-133838750D03*
X124161750Y-134976250D03*
X125299250Y-127013750D03*
X125299250Y-128151250D03*
X125299250Y-129288750D03*
X125299250Y-130426250D03*
X125299250Y-131563750D03*
X125299250Y-132701250D03*
X125299250Y-133838750D03*
X125299250Y-134976250D03*
X126436750Y-127013750D03*
X126436750Y-128151250D03*
X126436750Y-129288750D03*
X126436750Y-130426250D03*
X126436750Y-131563750D03*
X126436750Y-132701250D03*
X126436750Y-133838750D03*
X126436750Y-134976250D03*
X127574250Y-127013750D03*
X127574250Y-128151250D03*
X127574250Y-129288750D03*
X127574250Y-130426250D03*
X127574250Y-131563750D03*
X127574250Y-132701250D03*
X127574250Y-133838750D03*
X127574250Y-134976250D03*
X128711750Y-127013750D03*
X128711750Y-128151250D03*
X128711750Y-129288750D03*
X128711750Y-130426250D03*
X128711750Y-131563750D03*
X128711750Y-132701250D03*
X128711750Y-133838750D03*
X128711750Y-134976250D03*
X129849250Y-127013750D03*
X129849250Y-128151250D03*
X129849250Y-129288750D03*
X129849250Y-130426250D03*
X129849250Y-131563750D03*
X129849250Y-132701250D03*
X129849250Y-133838750D03*
X129849250Y-134976250D03*
X130986750Y-127013750D03*
X130986750Y-128151250D03*
X130986750Y-129288750D03*
X130986750Y-130426250D03*
X130986750Y-131563750D03*
X130986750Y-132701250D03*
X130986750Y-133838750D03*
X130986750Y-134976250D03*
X132124250Y-127013750D03*
X132124250Y-128151250D03*
X132124250Y-129288750D03*
X132124250Y-130426250D03*
X132124250Y-131563750D03*
X132124250Y-132701250D03*
X132124250Y-133838750D03*
X132124250Y-134976250D03*
G04 #@! TD*
G04 #@! TO.C,C3*
G36*
G01*
X112563000Y-135717500D02*
X112563000Y-136062500D01*
G75*
G02*
X112415500Y-136210000I-147500J0D01*
G01*
X112120500Y-136210000D01*
G75*
G02*
X111973000Y-136062500I0J147500D01*
G01*
X111973000Y-135717500D01*
G75*
G02*
X112120500Y-135570000I147500J0D01*
G01*
X112415500Y-135570000D01*
G75*
G02*
X112563000Y-135717500I0J-147500D01*
G01*
G37*
G36*
G01*
X111593000Y-135717500D02*
X111593000Y-136062500D01*
G75*
G02*
X111445500Y-136210000I-147500J0D01*
G01*
X111150500Y-136210000D01*
G75*
G02*
X111003000Y-136062500I0J147500D01*
G01*
X111003000Y-135717500D01*
G75*
G02*
X111150500Y-135570000I147500J0D01*
G01*
X111445500Y-135570000D01*
G75*
G02*
X111593000Y-135717500I0J-147500D01*
G01*
G37*
G04 #@! TD*
G04 #@! TO.C,C2*
G36*
G01*
X110190500Y-138135000D02*
X110535500Y-138135000D01*
G75*
G02*
X110683000Y-138282500I0J-147500D01*
G01*
X110683000Y-138577500D01*
G75*
G02*
X110535500Y-138725000I-147500J0D01*
G01*
X110190500Y-138725000D01*
G75*
G02*
X110043000Y-138577500I0J147500D01*
G01*
X110043000Y-138282500D01*
G75*
G02*
X110190500Y-138135000I147500J0D01*
G01*
G37*
G36*
G01*
X110190500Y-139105000D02*
X110535500Y-139105000D01*
G75*
G02*
X110683000Y-139252500I0J-147500D01*
G01*
X110683000Y-139547500D01*
G75*
G02*
X110535500Y-139695000I-147500J0D01*
G01*
X110190500Y-139695000D01*
G75*
G02*
X110043000Y-139547500I0J147500D01*
G01*
X110043000Y-139252500D01*
G75*
G02*
X110190500Y-139105000I147500J0D01*
G01*
G37*
G04 #@! TD*
G04 #@! TO.C,C1*
G36*
G01*
X114178000Y-136062500D02*
X114178000Y-135717500D01*
G75*
G02*
X114325500Y-135570000I147500J0D01*
G01*
X114620500Y-135570000D01*
G75*
G02*
X114768000Y-135717500I0J-147500D01*
G01*
X114768000Y-136062500D01*
G75*
G02*
X114620500Y-136210000I-147500J0D01*
G01*
X114325500Y-136210000D01*
G75*
G02*
X114178000Y-136062500I0J147500D01*
G01*
G37*
G36*
G01*
X115148000Y-136062500D02*
X115148000Y-135717500D01*
G75*
G02*
X115295500Y-135570000I147500J0D01*
G01*
X115590500Y-135570000D01*
G75*
G02*
X115738000Y-135717500I0J-147500D01*
G01*
X115738000Y-136062500D01*
G75*
G02*
X115590500Y-136210000I-147500J0D01*
G01*
X115295500Y-136210000D01*
G75*
G02*
X115148000Y-136062500I0J147500D01*
G01*
G37*
G04 #@! TD*
G04 #@! TO.C,U9AB1*
G36*
G01*
X114488000Y-140290000D02*
X114588000Y-140290000D01*
G75*
G02*
X114638000Y-140340000I0J-50000D01*
G01*
X114638000Y-140790000D01*
G75*
G02*
X114588000Y-140840000I-50000J0D01*
G01*
X114488000Y-140840000D01*
G75*
G02*
X114438000Y-140790000I0J50000D01*
G01*
X114438000Y-140340000D01*
G75*
G02*
X114488000Y-140290000I50000J0D01*
G01*
G37*
G36*
G01*
X114088000Y-140290000D02*
X114188000Y-140290000D01*
G75*
G02*
X114238000Y-140340000I0J-50000D01*
G01*
X114238000Y-140790000D01*
G75*
G02*
X114188000Y-140840000I-50000J0D01*
G01*
X114088000Y-140840000D01*
G75*
G02*
X114038000Y-140790000I0J50000D01*
G01*
X114038000Y-140340000D01*
G75*
G02*
X114088000Y-140290000I50000J0D01*
G01*
G37*
G36*
G01*
X113688000Y-140290000D02*
X113788000Y-140290000D01*
G75*
G02*
X113838000Y-140340000I0J-50000D01*
G01*
X113838000Y-140790000D01*
G75*
G02*
X113788000Y-140840000I-50000J0D01*
G01*
X113688000Y-140840000D01*
G75*
G02*
X113638000Y-140790000I0J50000D01*
G01*
X113638000Y-140340000D01*
G75*
G02*
X113688000Y-140290000I50000J0D01*
G01*
G37*
G36*
G01*
X113288000Y-140290000D02*
X113388000Y-140290000D01*
G75*
G02*
X113438000Y-140340000I0J-50000D01*
G01*
X113438000Y-140790000D01*
G75*
G02*
X113388000Y-140840000I-50000J0D01*
G01*
X113288000Y-140840000D01*
G75*
G02*
X113238000Y-140790000I0J50000D01*
G01*
X113238000Y-140340000D01*
G75*
G02*
X113288000Y-140290000I50000J0D01*
G01*
G37*
G36*
G01*
X112888000Y-140290000D02*
X112988000Y-140290000D01*
G75*
G02*
X113038000Y-140340000I0J-50000D01*
G01*
X113038000Y-140790000D01*
G75*
G02*
X112988000Y-140840000I-50000J0D01*
G01*
X112888000Y-140840000D01*
G75*
G02*
X112838000Y-140790000I0J50000D01*
G01*
X112838000Y-140340000D01*
G75*
G02*
X112888000Y-140290000I50000J0D01*
G01*
G37*
G36*
G01*
X112488000Y-140290000D02*
X112588000Y-140290000D01*
G75*
G02*
X112638000Y-140340000I0J-50000D01*
G01*
X112638000Y-140790000D01*
G75*
G02*
X112588000Y-140840000I-50000J0D01*
G01*
X112488000Y-140840000D01*
G75*
G02*
X112438000Y-140790000I0J50000D01*
G01*
X112438000Y-140340000D01*
G75*
G02*
X112488000Y-140290000I50000J0D01*
G01*
G37*
G36*
G01*
X112313000Y-140015000D02*
X112313000Y-140115000D01*
G75*
G02*
X112263000Y-140165000I-50000J0D01*
G01*
X111813000Y-140165000D01*
G75*
G02*
X111763000Y-140115000I0J50000D01*
G01*
X111763000Y-140015000D01*
G75*
G02*
X111813000Y-139965000I50000J0D01*
G01*
X112263000Y-139965000D01*
G75*
G02*
X112313000Y-140015000I0J-50000D01*
G01*
G37*
G36*
G01*
X112313000Y-139615000D02*
X112313000Y-139715000D01*
G75*
G02*
X112263000Y-139765000I-50000J0D01*
G01*
X111813000Y-139765000D01*
G75*
G02*
X111763000Y-139715000I0J50000D01*
G01*
X111763000Y-139615000D01*
G75*
G02*
X111813000Y-139565000I50000J0D01*
G01*
X112263000Y-139565000D01*
G75*
G02*
X112313000Y-139615000I0J-50000D01*
G01*
G37*
G36*
G01*
X112313000Y-139215000D02*
X112313000Y-139315000D01*
G75*
G02*
X112263000Y-139365000I-50000J0D01*
G01*
X111813000Y-139365000D01*
G75*
G02*
X111763000Y-139315000I0J50000D01*
G01*
X111763000Y-139215000D01*
G75*
G02*
X111813000Y-139165000I50000J0D01*
G01*
X112263000Y-139165000D01*
G75*
G02*
X112313000Y-139215000I0J-50000D01*
G01*
G37*
G36*
G01*
X112313000Y-138815000D02*
X112313000Y-138915000D01*
G75*
G02*
X112263000Y-138965000I-50000J0D01*
G01*
X111813000Y-138965000D01*
G75*
G02*
X111763000Y-138915000I0J50000D01*
G01*
X111763000Y-138815000D01*
G75*
G02*
X111813000Y-138765000I50000J0D01*
G01*
X112263000Y-138765000D01*
G75*
G02*
X112313000Y-138815000I0J-50000D01*
G01*
G37*
G36*
G01*
X112313000Y-138415000D02*
X112313000Y-138515000D01*
G75*
G02*
X112263000Y-138565000I-50000J0D01*
G01*
X111813000Y-138565000D01*
G75*
G02*
X111763000Y-138515000I0J50000D01*
G01*
X111763000Y-138415000D01*
G75*
G02*
X111813000Y-138365000I50000J0D01*
G01*
X112263000Y-138365000D01*
G75*
G02*
X112313000Y-138415000I0J-50000D01*
G01*
G37*
G36*
G01*
X112313000Y-138015000D02*
X112313000Y-138115000D01*
G75*
G02*
X112263000Y-138165000I-50000J0D01*
G01*
X111813000Y-138165000D01*
G75*
G02*
X111763000Y-138115000I0J50000D01*
G01*
X111763000Y-138015000D01*
G75*
G02*
X111813000Y-137965000I50000J0D01*
G01*
X112263000Y-137965000D01*
G75*
G02*
X112313000Y-138015000I0J-50000D01*
G01*
G37*
G36*
G01*
X112488000Y-137290000D02*
X112588000Y-137290000D01*
G75*
G02*
X112638000Y-137340000I0J-50000D01*
G01*
X112638000Y-137790000D01*
G75*
G02*
X112588000Y-137840000I-50000J0D01*
G01*
X112488000Y-137840000D01*
G75*
G02*
X112438000Y-137790000I0J50000D01*
G01*
X112438000Y-137340000D01*
G75*
G02*
X112488000Y-137290000I50000J0D01*
G01*
G37*
G36*
G01*
X112888000Y-137290000D02*
X112988000Y-137290000D01*
G75*
G02*
X113038000Y-137340000I0J-50000D01*
G01*
X113038000Y-137790000D01*
G75*
G02*
X112988000Y-137840000I-50000J0D01*
G01*
X112888000Y-137840000D01*
G75*
G02*
X112838000Y-137790000I0J50000D01*
G01*
X112838000Y-137340000D01*
G75*
G02*
X112888000Y-137290000I50000J0D01*
G01*
G37*
G36*
G01*
X113288000Y-137290000D02*
X113388000Y-137290000D01*
G75*
G02*
X113438000Y-137340000I0J-50000D01*
G01*
X113438000Y-137790000D01*
G75*
G02*
X113388000Y-137840000I-50000J0D01*
G01*
X113288000Y-137840000D01*
G75*
G02*
X113238000Y-137790000I0J50000D01*
G01*
X113238000Y-137340000D01*
G75*
G02*
X113288000Y-137290000I50000J0D01*
G01*
G37*
G36*
G01*
X113688000Y-137290000D02*
X113788000Y-137290000D01*
G75*
G02*
X113838000Y-137340000I0J-50000D01*
G01*
X113838000Y-137790000D01*
G75*
G02*
X113788000Y-137840000I-50000J0D01*
G01*
X113688000Y-137840000D01*
G75*
G02*
X113638000Y-137790000I0J50000D01*
G01*
X113638000Y-137340000D01*
G75*
G02*
X113688000Y-137290000I50000J0D01*
G01*
G37*
G36*
G01*
X114088000Y-137290000D02*
X114188000Y-137290000D01*
G75*
G02*
X114238000Y-137340000I0J-50000D01*
G01*
X114238000Y-137790000D01*
G75*
G02*
X114188000Y-137840000I-50000J0D01*
G01*
X114088000Y-137840000D01*
G75*
G02*
X114038000Y-137790000I0J50000D01*
G01*
X114038000Y-137340000D01*
G75*
G02*
X114088000Y-137290000I50000J0D01*
G01*
G37*
G36*
G01*
X114488000Y-137290000D02*
X114588000Y-137290000D01*
G75*
G02*
X114638000Y-137340000I0J-50000D01*
G01*
X114638000Y-137790000D01*
G75*
G02*
X114588000Y-137840000I-50000J0D01*
G01*
X114488000Y-137840000D01*
G75*
G02*
X114438000Y-137790000I0J50000D01*
G01*
X114438000Y-137340000D01*
G75*
G02*
X114488000Y-137290000I50000J0D01*
G01*
G37*
G36*
G01*
X115313000Y-138015000D02*
X115313000Y-138115000D01*
G75*
G02*
X115263000Y-138165000I-50000J0D01*
G01*
X114813000Y-138165000D01*
G75*
G02*
X114763000Y-138115000I0J50000D01*
G01*
X114763000Y-138015000D01*
G75*
G02*
X114813000Y-137965000I50000J0D01*
G01*
X115263000Y-137965000D01*
G75*
G02*
X115313000Y-138015000I0J-50000D01*
G01*
G37*
G36*
G01*
X115313000Y-138415000D02*
X115313000Y-138515000D01*
G75*
G02*
X115263000Y-138565000I-50000J0D01*
G01*
X114813000Y-138565000D01*
G75*
G02*
X114763000Y-138515000I0J50000D01*
G01*
X114763000Y-138415000D01*
G75*
G02*
X114813000Y-138365000I50000J0D01*
G01*
X115263000Y-138365000D01*
G75*
G02*
X115313000Y-138415000I0J-50000D01*
G01*
G37*
G36*
G01*
X115313000Y-138815000D02*
X115313000Y-138915000D01*
G75*
G02*
X115263000Y-138965000I-50000J0D01*
G01*
X114813000Y-138965000D01*
G75*
G02*
X114763000Y-138915000I0J50000D01*
G01*
X114763000Y-138815000D01*
G75*
G02*
X114813000Y-138765000I50000J0D01*
G01*
X115263000Y-138765000D01*
G75*
G02*
X115313000Y-138815000I0J-50000D01*
G01*
G37*
G36*
G01*
X115313000Y-139215000D02*
X115313000Y-139315000D01*
G75*
G02*
X115263000Y-139365000I-50000J0D01*
G01*
X114813000Y-139365000D01*
G75*
G02*
X114763000Y-139315000I0J50000D01*
G01*
X114763000Y-139215000D01*
G75*
G02*
X114813000Y-139165000I50000J0D01*
G01*
X115263000Y-139165000D01*
G75*
G02*
X115313000Y-139215000I0J-50000D01*
G01*
G37*
G36*
G01*
X115313000Y-139615000D02*
X115313000Y-139715000D01*
G75*
G02*
X115263000Y-139765000I-50000J0D01*
G01*
X114813000Y-139765000D01*
G75*
G02*
X114763000Y-139715000I0J50000D01*
G01*
X114763000Y-139615000D01*
G75*
G02*
X114813000Y-139565000I50000J0D01*
G01*
X115263000Y-139565000D01*
G75*
G02*
X115313000Y-139615000I0J-50000D01*
G01*
G37*
G36*
G01*
X115313000Y-140015000D02*
X115313000Y-140115000D01*
G75*
G02*
X115263000Y-140165000I-50000J0D01*
G01*
X114813000Y-140165000D01*
G75*
G02*
X114763000Y-140115000I0J50000D01*
G01*
X114763000Y-140015000D01*
G75*
G02*
X114813000Y-139965000I50000J0D01*
G01*
X115263000Y-139965000D01*
G75*
G02*
X115313000Y-140015000I0J-50000D01*
G01*
G37*
G04 #@! TD*
M02*
