G04 #@! TF.GenerationSoftware,KiCad,Pcbnew,(5.1.10)-1*
G04 #@! TF.CreationDate,2022-03-18T02:24:13-07:00*
G04 #@! TF.ProjectId,Chekov,4368656b-6f76-42e6-9b69-6361645f7063,rev?*
G04 #@! TF.SameCoordinates,Original*
G04 #@! TF.FileFunction,Paste,Top*
G04 #@! TF.FilePolarity,Positive*
%FSLAX46Y46*%
G04 Gerber Fmt 4.6, Leading zero omitted, Abs format (unit mm)*
G04 Created by KiCad (PCBNEW (5.1.10)-1) date 2022-03-18 02:24:13*
%MOMM*%
%LPD*%
G01*
G04 APERTURE LIST*
%ADD10O,0.457200X1.219200*%
%ADD11R,0.457200X1.219200*%
%ADD12O,0.200000X0.800000*%
%ADD13O,0.800000X0.200000*%
%ADD14R,1.346200X0.279400*%
%ADD15R,0.279400X1.346200*%
%ADD16R,0.500000X0.300000*%
%ADD17R,1.900000X0.850000*%
G04 APERTURE END LIST*
D10*
G04 #@! TO.C,U7*
X106034799Y-67981200D03*
X107934801Y-67981200D03*
X107934801Y-70601200D03*
X106984800Y-70601200D03*
D11*
X106034799Y-70601200D03*
G04 #@! TD*
G04 #@! TO.C,C24*
G36*
G01*
X107235600Y-66616400D02*
X107235600Y-66276400D01*
G75*
G02*
X107375600Y-66136400I140000J0D01*
G01*
X107655600Y-66136400D01*
G75*
G02*
X107795600Y-66276400I0J-140000D01*
G01*
X107795600Y-66616400D01*
G75*
G02*
X107655600Y-66756400I-140000J0D01*
G01*
X107375600Y-66756400D01*
G75*
G02*
X107235600Y-66616400I0J140000D01*
G01*
G37*
G36*
G01*
X106275600Y-66616400D02*
X106275600Y-66276400D01*
G75*
G02*
X106415600Y-66136400I140000J0D01*
G01*
X106695600Y-66136400D01*
G75*
G02*
X106835600Y-66276400I0J-140000D01*
G01*
X106835600Y-66616400D01*
G75*
G02*
X106695600Y-66756400I-140000J0D01*
G01*
X106415600Y-66756400D01*
G75*
G02*
X106275600Y-66616400I0J140000D01*
G01*
G37*
G04 #@! TD*
G04 #@! TO.C,C23*
G36*
G01*
X107750000Y-71940600D02*
X107750000Y-72280600D01*
G75*
G02*
X107610000Y-72420600I-140000J0D01*
G01*
X107330000Y-72420600D01*
G75*
G02*
X107190000Y-72280600I0J140000D01*
G01*
X107190000Y-71940600D01*
G75*
G02*
X107330000Y-71800600I140000J0D01*
G01*
X107610000Y-71800600D01*
G75*
G02*
X107750000Y-71940600I0J-140000D01*
G01*
G37*
G36*
G01*
X108710000Y-71940600D02*
X108710000Y-72280600D01*
G75*
G02*
X108570000Y-72420600I-140000J0D01*
G01*
X108290000Y-72420600D01*
G75*
G02*
X108150000Y-72280600I0J140000D01*
G01*
X108150000Y-71940600D01*
G75*
G02*
X108290000Y-71800600I140000J0D01*
G01*
X108570000Y-71800600D01*
G75*
G02*
X108710000Y-71940600I0J-140000D01*
G01*
G37*
G04 #@! TD*
G04 #@! TO.C,C22*
G36*
G01*
X106194200Y-72280600D02*
X106194200Y-71940600D01*
G75*
G02*
X106334200Y-71800600I140000J0D01*
G01*
X106614200Y-71800600D01*
G75*
G02*
X106754200Y-71940600I0J-140000D01*
G01*
X106754200Y-72280600D01*
G75*
G02*
X106614200Y-72420600I-140000J0D01*
G01*
X106334200Y-72420600D01*
G75*
G02*
X106194200Y-72280600I0J140000D01*
G01*
G37*
G36*
G01*
X105234200Y-72280600D02*
X105234200Y-71940600D01*
G75*
G02*
X105374200Y-71800600I140000J0D01*
G01*
X105654200Y-71800600D01*
G75*
G02*
X105794200Y-71940600I0J-140000D01*
G01*
X105794200Y-72280600D01*
G75*
G02*
X105654200Y-72420600I-140000J0D01*
G01*
X105374200Y-72420600D01*
G75*
G02*
X105234200Y-72280600I0J140000D01*
G01*
G37*
G04 #@! TD*
D12*
G04 #@! TO.C,U6*
X91720000Y-62738000D03*
X92120000Y-62738000D03*
X92520000Y-62738000D03*
X92920000Y-62738000D03*
X93320000Y-62738000D03*
X93720000Y-62738000D03*
X94120000Y-62738000D03*
X94520000Y-62738000D03*
X94920000Y-62738000D03*
X95320000Y-62738000D03*
X95720000Y-62738000D03*
X96120000Y-62738000D03*
X96520000Y-62738000D03*
X96920000Y-62738000D03*
X97320000Y-62738000D03*
X97720000Y-62738000D03*
X98120000Y-62738000D03*
X98520000Y-62738000D03*
X98920000Y-62738000D03*
X99320000Y-62738000D03*
X99720000Y-62738000D03*
X100120000Y-62738000D03*
X100520000Y-62738000D03*
X100920000Y-62738000D03*
X101320000Y-62738000D03*
D13*
X102420000Y-63838000D03*
X102420000Y-64238000D03*
X102420000Y-64638000D03*
X102420000Y-65038000D03*
X102420000Y-65438000D03*
X102420000Y-65838000D03*
X102420000Y-66238000D03*
X102420000Y-66638000D03*
X102420000Y-67038000D03*
X102420000Y-67438000D03*
X102420000Y-67838000D03*
X102420000Y-68238000D03*
X102420000Y-68638000D03*
X102420000Y-69038000D03*
X102420000Y-69438000D03*
X102420000Y-69838000D03*
X102420000Y-70238000D03*
X102420000Y-70638000D03*
X102420000Y-71038000D03*
X102420000Y-71438000D03*
X102420000Y-71838000D03*
X102420000Y-72238000D03*
X102420000Y-72638000D03*
X102420000Y-73038000D03*
X102420000Y-73438000D03*
D12*
X101320000Y-74538000D03*
X100920000Y-74538000D03*
X100520000Y-74538000D03*
X100120000Y-74538000D03*
X99720000Y-74538000D03*
X99320000Y-74538000D03*
X98920000Y-74538000D03*
X98520000Y-74538000D03*
X98120000Y-74538000D03*
X97720000Y-74538000D03*
X97320000Y-74538000D03*
X96920000Y-74538000D03*
X96520000Y-74538000D03*
X96120000Y-74538000D03*
X95720000Y-74538000D03*
X95320000Y-74538000D03*
X94920000Y-74538000D03*
X94520000Y-74538000D03*
X94120000Y-74538000D03*
X93720000Y-74538000D03*
X93320000Y-74538000D03*
X92920000Y-74538000D03*
X92520000Y-74538000D03*
X92120000Y-74538000D03*
X91720000Y-74538000D03*
D13*
X90620000Y-73438000D03*
X90620000Y-73038000D03*
X90620000Y-72638000D03*
X90620000Y-72238000D03*
X90620000Y-71838000D03*
X90620000Y-71438000D03*
X90620000Y-71038000D03*
X90620000Y-70638000D03*
X90620000Y-70238000D03*
X90620000Y-69838000D03*
X90620000Y-69438000D03*
X90620000Y-69038000D03*
X90620000Y-68638000D03*
X90620000Y-68238000D03*
X90620000Y-67838000D03*
X90620000Y-67438000D03*
X90620000Y-67038000D03*
X90620000Y-66638000D03*
X90620000Y-66238000D03*
X90620000Y-65838000D03*
X90620000Y-65438000D03*
X90620000Y-65038000D03*
X90620000Y-64638000D03*
X90620000Y-64238000D03*
X90620000Y-63838000D03*
G04 #@! TD*
G04 #@! TO.C,R2*
G36*
G01*
X91113580Y-92120300D02*
X91113580Y-91750300D01*
G75*
G02*
X91248580Y-91615300I135000J0D01*
G01*
X91518580Y-91615300D01*
G75*
G02*
X91653580Y-91750300I0J-135000D01*
G01*
X91653580Y-92120300D01*
G75*
G02*
X91518580Y-92255300I-135000J0D01*
G01*
X91248580Y-92255300D01*
G75*
G02*
X91113580Y-92120300I0J135000D01*
G01*
G37*
G36*
G01*
X90093580Y-92120300D02*
X90093580Y-91750300D01*
G75*
G02*
X90228580Y-91615300I135000J0D01*
G01*
X90498580Y-91615300D01*
G75*
G02*
X90633580Y-91750300I0J-135000D01*
G01*
X90633580Y-92120300D01*
G75*
G02*
X90498580Y-92255300I-135000J0D01*
G01*
X90228580Y-92255300D01*
G75*
G02*
X90093580Y-92120300I0J135000D01*
G01*
G37*
G04 #@! TD*
G04 #@! TO.C,R1*
G36*
G01*
X94903260Y-92072040D02*
X94903260Y-91702040D01*
G75*
G02*
X95038260Y-91567040I135000J0D01*
G01*
X95308260Y-91567040D01*
G75*
G02*
X95443260Y-91702040I0J-135000D01*
G01*
X95443260Y-92072040D01*
G75*
G02*
X95308260Y-92207040I-135000J0D01*
G01*
X95038260Y-92207040D01*
G75*
G02*
X94903260Y-92072040I0J135000D01*
G01*
G37*
G36*
G01*
X93883260Y-92072040D02*
X93883260Y-91702040D01*
G75*
G02*
X94018260Y-91567040I135000J0D01*
G01*
X94288260Y-91567040D01*
G75*
G02*
X94423260Y-91702040I0J-135000D01*
G01*
X94423260Y-92072040D01*
G75*
G02*
X94288260Y-92207040I-135000J0D01*
G01*
X94018260Y-92207040D01*
G75*
G02*
X93883260Y-92072040I0J135000D01*
G01*
G37*
G04 #@! TD*
G04 #@! TO.C,C4*
G36*
G01*
X97764000Y-52621000D02*
X97764000Y-52281000D01*
G75*
G02*
X97904000Y-52141000I140000J0D01*
G01*
X98184000Y-52141000D01*
G75*
G02*
X98324000Y-52281000I0J-140000D01*
G01*
X98324000Y-52621000D01*
G75*
G02*
X98184000Y-52761000I-140000J0D01*
G01*
X97904000Y-52761000D01*
G75*
G02*
X97764000Y-52621000I0J140000D01*
G01*
G37*
G36*
G01*
X96804000Y-52621000D02*
X96804000Y-52281000D01*
G75*
G02*
X96944000Y-52141000I140000J0D01*
G01*
X97224000Y-52141000D01*
G75*
G02*
X97364000Y-52281000I0J-140000D01*
G01*
X97364000Y-52621000D01*
G75*
G02*
X97224000Y-52761000I-140000J0D01*
G01*
X96944000Y-52761000D01*
G75*
G02*
X96804000Y-52621000I0J140000D01*
G01*
G37*
G04 #@! TD*
G04 #@! TO.C,C8*
G36*
G01*
X99092600Y-79938860D02*
X99092600Y-80888860D01*
G75*
G02*
X98842600Y-81138860I-250000J0D01*
G01*
X98342600Y-81138860D01*
G75*
G02*
X98092600Y-80888860I0J250000D01*
G01*
X98092600Y-79938860D01*
G75*
G02*
X98342600Y-79688860I250000J0D01*
G01*
X98842600Y-79688860D01*
G75*
G02*
X99092600Y-79938860I0J-250000D01*
G01*
G37*
G36*
G01*
X100992600Y-79938860D02*
X100992600Y-80888860D01*
G75*
G02*
X100742600Y-81138860I-250000J0D01*
G01*
X100242600Y-81138860D01*
G75*
G02*
X99992600Y-80888860I0J250000D01*
G01*
X99992600Y-79938860D01*
G75*
G02*
X100242600Y-79688860I250000J0D01*
G01*
X100742600Y-79688860D01*
G75*
G02*
X100992600Y-79938860I0J-250000D01*
G01*
G37*
G04 #@! TD*
G04 #@! TO.C,U5*
G36*
G01*
X108600000Y-53659700D02*
X108600000Y-53152300D01*
G75*
G02*
X108641300Y-53111000I41300J0D01*
G01*
X109768700Y-53111000D01*
G75*
G02*
X109810000Y-53152300I0J-41300D01*
G01*
X109810000Y-53659700D01*
G75*
G02*
X109768700Y-53701000I-41300J0D01*
G01*
X108641300Y-53701000D01*
G75*
G02*
X108600000Y-53659700I0J41300D01*
G01*
G37*
G36*
G01*
X108600000Y-55559700D02*
X108600000Y-55052300D01*
G75*
G02*
X108641300Y-55011000I41300J0D01*
G01*
X109768700Y-55011000D01*
G75*
G02*
X109810000Y-55052300I0J-41300D01*
G01*
X109810000Y-55559700D01*
G75*
G02*
X109768700Y-55601000I-41300J0D01*
G01*
X108641300Y-55601000D01*
G75*
G02*
X108600000Y-55559700I0J41300D01*
G01*
G37*
G36*
G01*
X106090000Y-55559700D02*
X106090000Y-55052300D01*
G75*
G02*
X106131300Y-55011000I41300J0D01*
G01*
X107258700Y-55011000D01*
G75*
G02*
X107300000Y-55052300I0J-41300D01*
G01*
X107300000Y-55559700D01*
G75*
G02*
X107258700Y-55601000I-41300J0D01*
G01*
X106131300Y-55601000D01*
G75*
G02*
X106090000Y-55559700I0J41300D01*
G01*
G37*
G36*
G01*
X106090000Y-54609700D02*
X106090000Y-54102300D01*
G75*
G02*
X106131300Y-54061000I41300J0D01*
G01*
X107258700Y-54061000D01*
G75*
G02*
X107300000Y-54102300I0J-41300D01*
G01*
X107300000Y-54609700D01*
G75*
G02*
X107258700Y-54651000I-41300J0D01*
G01*
X106131300Y-54651000D01*
G75*
G02*
X106090000Y-54609700I0J41300D01*
G01*
G37*
G36*
G01*
X106090000Y-53659700D02*
X106090000Y-53152300D01*
G75*
G02*
X106131300Y-53111000I41300J0D01*
G01*
X107258700Y-53111000D01*
G75*
G02*
X107300000Y-53152300I0J-41300D01*
G01*
X107300000Y-53659700D01*
G75*
G02*
X107258700Y-53701000I-41300J0D01*
G01*
X106131300Y-53701000D01*
G75*
G02*
X106090000Y-53659700I0J41300D01*
G01*
G37*
G04 #@! TD*
D14*
G04 #@! TO.C,U4*
X84391500Y-87697000D03*
X84391500Y-87197001D03*
X84391500Y-86697000D03*
X84391500Y-86197001D03*
X84391500Y-85696999D03*
X84391500Y-85197000D03*
X84391500Y-84697001D03*
X84391500Y-84197000D03*
X84391500Y-83697000D03*
X84391500Y-83196999D03*
X84391500Y-82697000D03*
X84391500Y-82197001D03*
X84391500Y-81696999D03*
X84391500Y-81197000D03*
X84391500Y-80696999D03*
X84391500Y-80197000D03*
D15*
X86420000Y-78168500D03*
X86919999Y-78168500D03*
X87420000Y-78168500D03*
X87919999Y-78168500D03*
X88420001Y-78168500D03*
X88920000Y-78168500D03*
X89419999Y-78168500D03*
X89920000Y-78168500D03*
X90420000Y-78168500D03*
X90920001Y-78168500D03*
X91420000Y-78168500D03*
X91919999Y-78168500D03*
X92420001Y-78168500D03*
X92920000Y-78168500D03*
X93420001Y-78168500D03*
X93920000Y-78168500D03*
D14*
X95948500Y-80197000D03*
X95948500Y-80696999D03*
X95948500Y-81197000D03*
X95948500Y-81696999D03*
X95948500Y-82197001D03*
X95948500Y-82697000D03*
X95948500Y-83196999D03*
X95948500Y-83697000D03*
X95948500Y-84197000D03*
X95948500Y-84697001D03*
X95948500Y-85197000D03*
X95948500Y-85696999D03*
X95948500Y-86197001D03*
X95948500Y-86697000D03*
X95948500Y-87197001D03*
X95948500Y-87697000D03*
D15*
X93920000Y-89725500D03*
X93420001Y-89725500D03*
X92920000Y-89725500D03*
X92420001Y-89725500D03*
X91919999Y-89725500D03*
X91420000Y-89725500D03*
X90920001Y-89725500D03*
X90420000Y-89725500D03*
X89920000Y-89725500D03*
X89419999Y-89725500D03*
X88920000Y-89725500D03*
X88420001Y-89725500D03*
X87919999Y-89725500D03*
X87420000Y-89725500D03*
X86919999Y-89725500D03*
X86420000Y-89725500D03*
G04 #@! TD*
G04 #@! TO.C,U3*
G36*
G01*
X88026000Y-54040700D02*
X88026000Y-53533300D01*
G75*
G02*
X88067300Y-53492000I41300J0D01*
G01*
X89194700Y-53492000D01*
G75*
G02*
X89236000Y-53533300I0J-41300D01*
G01*
X89236000Y-54040700D01*
G75*
G02*
X89194700Y-54082000I-41300J0D01*
G01*
X88067300Y-54082000D01*
G75*
G02*
X88026000Y-54040700I0J41300D01*
G01*
G37*
G36*
G01*
X88026000Y-55940700D02*
X88026000Y-55433300D01*
G75*
G02*
X88067300Y-55392000I41300J0D01*
G01*
X89194700Y-55392000D01*
G75*
G02*
X89236000Y-55433300I0J-41300D01*
G01*
X89236000Y-55940700D01*
G75*
G02*
X89194700Y-55982000I-41300J0D01*
G01*
X88067300Y-55982000D01*
G75*
G02*
X88026000Y-55940700I0J41300D01*
G01*
G37*
G36*
G01*
X85516000Y-55940700D02*
X85516000Y-55433300D01*
G75*
G02*
X85557300Y-55392000I41300J0D01*
G01*
X86684700Y-55392000D01*
G75*
G02*
X86726000Y-55433300I0J-41300D01*
G01*
X86726000Y-55940700D01*
G75*
G02*
X86684700Y-55982000I-41300J0D01*
G01*
X85557300Y-55982000D01*
G75*
G02*
X85516000Y-55940700I0J41300D01*
G01*
G37*
G36*
G01*
X85516000Y-54990700D02*
X85516000Y-54483300D01*
G75*
G02*
X85557300Y-54442000I41300J0D01*
G01*
X86684700Y-54442000D01*
G75*
G02*
X86726000Y-54483300I0J-41300D01*
G01*
X86726000Y-54990700D01*
G75*
G02*
X86684700Y-55032000I-41300J0D01*
G01*
X85557300Y-55032000D01*
G75*
G02*
X85516000Y-54990700I0J41300D01*
G01*
G37*
G36*
G01*
X85516000Y-54040700D02*
X85516000Y-53533300D01*
G75*
G02*
X85557300Y-53492000I41300J0D01*
G01*
X86684700Y-53492000D01*
G75*
G02*
X86726000Y-53533300I0J-41300D01*
G01*
X86726000Y-54040700D01*
G75*
G02*
X86684700Y-54082000I-41300J0D01*
G01*
X85557300Y-54082000D01*
G75*
G02*
X85516000Y-54040700I0J41300D01*
G01*
G37*
G04 #@! TD*
D16*
G04 #@! TO.C,U2*
X99833000Y-53856000D03*
X99833000Y-54356000D03*
X99833000Y-54856000D03*
X98033000Y-54856000D03*
X98033000Y-54356000D03*
X98033000Y-53856000D03*
G04 #@! TD*
G04 #@! TO.C,U1*
X87514000Y-60841000D03*
X87514000Y-61341000D03*
X87514000Y-61841000D03*
X85714000Y-61841000D03*
X85714000Y-61341000D03*
X85714000Y-60841000D03*
G04 #@! TD*
D17*
G04 #@! TO.C,L2*
X95250000Y-55208000D03*
X95250000Y-53758000D03*
G04 #@! TD*
G04 #@! TO.C,L1*
X82767000Y-61812000D03*
X82767000Y-60362000D03*
G04 #@! TD*
G04 #@! TO.C,C21*
G36*
G01*
X111041000Y-54057000D02*
X110701000Y-54057000D01*
G75*
G02*
X110561000Y-53917000I0J140000D01*
G01*
X110561000Y-53637000D01*
G75*
G02*
X110701000Y-53497000I140000J0D01*
G01*
X111041000Y-53497000D01*
G75*
G02*
X111181000Y-53637000I0J-140000D01*
G01*
X111181000Y-53917000D01*
G75*
G02*
X111041000Y-54057000I-140000J0D01*
G01*
G37*
G36*
G01*
X111041000Y-55017000D02*
X110701000Y-55017000D01*
G75*
G02*
X110561000Y-54877000I0J140000D01*
G01*
X110561000Y-54597000D01*
G75*
G02*
X110701000Y-54457000I140000J0D01*
G01*
X111041000Y-54457000D01*
G75*
G02*
X111181000Y-54597000I0J-140000D01*
G01*
X111181000Y-54877000D01*
G75*
G02*
X111041000Y-55017000I-140000J0D01*
G01*
G37*
G04 #@! TD*
G04 #@! TO.C,C20*
G36*
G01*
X81715000Y-84285000D02*
X81715000Y-84625000D01*
G75*
G02*
X81575000Y-84765000I-140000J0D01*
G01*
X81295000Y-84765000D01*
G75*
G02*
X81155000Y-84625000I0J140000D01*
G01*
X81155000Y-84285000D01*
G75*
G02*
X81295000Y-84145000I140000J0D01*
G01*
X81575000Y-84145000D01*
G75*
G02*
X81715000Y-84285000I0J-140000D01*
G01*
G37*
G36*
G01*
X82675000Y-84285000D02*
X82675000Y-84625000D01*
G75*
G02*
X82535000Y-84765000I-140000J0D01*
G01*
X82255000Y-84765000D01*
G75*
G02*
X82115000Y-84625000I0J140000D01*
G01*
X82115000Y-84285000D01*
G75*
G02*
X82255000Y-84145000I140000J0D01*
G01*
X82535000Y-84145000D01*
G75*
G02*
X82675000Y-84285000I0J-140000D01*
G01*
G37*
G04 #@! TD*
G04 #@! TO.C,C19*
G36*
G01*
X81715000Y-83142000D02*
X81715000Y-83482000D01*
G75*
G02*
X81575000Y-83622000I-140000J0D01*
G01*
X81295000Y-83622000D01*
G75*
G02*
X81155000Y-83482000I0J140000D01*
G01*
X81155000Y-83142000D01*
G75*
G02*
X81295000Y-83002000I140000J0D01*
G01*
X81575000Y-83002000D01*
G75*
G02*
X81715000Y-83142000I0J-140000D01*
G01*
G37*
G36*
G01*
X82675000Y-83142000D02*
X82675000Y-83482000D01*
G75*
G02*
X82535000Y-83622000I-140000J0D01*
G01*
X82255000Y-83622000D01*
G75*
G02*
X82115000Y-83482000I0J140000D01*
G01*
X82115000Y-83142000D01*
G75*
G02*
X82255000Y-83002000I140000J0D01*
G01*
X82535000Y-83002000D01*
G75*
G02*
X82675000Y-83142000I0J-140000D01*
G01*
G37*
G04 #@! TD*
G04 #@! TO.C,C18*
G36*
G01*
X83112000Y-77427000D02*
X83112000Y-77767000D01*
G75*
G02*
X82972000Y-77907000I-140000J0D01*
G01*
X82692000Y-77907000D01*
G75*
G02*
X82552000Y-77767000I0J140000D01*
G01*
X82552000Y-77427000D01*
G75*
G02*
X82692000Y-77287000I140000J0D01*
G01*
X82972000Y-77287000D01*
G75*
G02*
X83112000Y-77427000I0J-140000D01*
G01*
G37*
G36*
G01*
X84072000Y-77427000D02*
X84072000Y-77767000D01*
G75*
G02*
X83932000Y-77907000I-140000J0D01*
G01*
X83652000Y-77907000D01*
G75*
G02*
X83512000Y-77767000I0J140000D01*
G01*
X83512000Y-77427000D01*
G75*
G02*
X83652000Y-77287000I140000J0D01*
G01*
X83932000Y-77287000D01*
G75*
G02*
X84072000Y-77427000I0J-140000D01*
G01*
G37*
G04 #@! TD*
G04 #@! TO.C,C17*
G36*
G01*
X82126000Y-79702000D02*
X82466000Y-79702000D01*
G75*
G02*
X82606000Y-79842000I0J-140000D01*
G01*
X82606000Y-80122000D01*
G75*
G02*
X82466000Y-80262000I-140000J0D01*
G01*
X82126000Y-80262000D01*
G75*
G02*
X81986000Y-80122000I0J140000D01*
G01*
X81986000Y-79842000D01*
G75*
G02*
X82126000Y-79702000I140000J0D01*
G01*
G37*
G36*
G01*
X82126000Y-78742000D02*
X82466000Y-78742000D01*
G75*
G02*
X82606000Y-78882000I0J-140000D01*
G01*
X82606000Y-79162000D01*
G75*
G02*
X82466000Y-79302000I-140000J0D01*
G01*
X82126000Y-79302000D01*
G75*
G02*
X81986000Y-79162000I0J140000D01*
G01*
X81986000Y-78882000D01*
G75*
G02*
X82126000Y-78742000I140000J0D01*
G01*
G37*
G04 #@! TD*
G04 #@! TO.C,C16*
G36*
G01*
X81715000Y-85555000D02*
X81715000Y-85895000D01*
G75*
G02*
X81575000Y-86035000I-140000J0D01*
G01*
X81295000Y-86035000D01*
G75*
G02*
X81155000Y-85895000I0J140000D01*
G01*
X81155000Y-85555000D01*
G75*
G02*
X81295000Y-85415000I140000J0D01*
G01*
X81575000Y-85415000D01*
G75*
G02*
X81715000Y-85555000I0J-140000D01*
G01*
G37*
G36*
G01*
X82675000Y-85555000D02*
X82675000Y-85895000D01*
G75*
G02*
X82535000Y-86035000I-140000J0D01*
G01*
X82255000Y-86035000D01*
G75*
G02*
X82115000Y-85895000I0J140000D01*
G01*
X82115000Y-85555000D01*
G75*
G02*
X82255000Y-85415000I140000J0D01*
G01*
X82535000Y-85415000D01*
G75*
G02*
X82675000Y-85555000I0J-140000D01*
G01*
G37*
G04 #@! TD*
G04 #@! TO.C,C15*
G36*
G01*
X82466000Y-81433000D02*
X82126000Y-81433000D01*
G75*
G02*
X81986000Y-81293000I0J140000D01*
G01*
X81986000Y-81013000D01*
G75*
G02*
X82126000Y-80873000I140000J0D01*
G01*
X82466000Y-80873000D01*
G75*
G02*
X82606000Y-81013000I0J-140000D01*
G01*
X82606000Y-81293000D01*
G75*
G02*
X82466000Y-81433000I-140000J0D01*
G01*
G37*
G36*
G01*
X82466000Y-82393000D02*
X82126000Y-82393000D01*
G75*
G02*
X81986000Y-82253000I0J140000D01*
G01*
X81986000Y-81973000D01*
G75*
G02*
X82126000Y-81833000I140000J0D01*
G01*
X82466000Y-81833000D01*
G75*
G02*
X82606000Y-81973000I0J-140000D01*
G01*
X82606000Y-82253000D01*
G75*
G02*
X82466000Y-82393000I-140000J0D01*
G01*
G37*
G04 #@! TD*
G04 #@! TO.C,C14*
G36*
G01*
X105199000Y-54509000D02*
X104859000Y-54509000D01*
G75*
G02*
X104719000Y-54369000I0J140000D01*
G01*
X104719000Y-54089000D01*
G75*
G02*
X104859000Y-53949000I140000J0D01*
G01*
X105199000Y-53949000D01*
G75*
G02*
X105339000Y-54089000I0J-140000D01*
G01*
X105339000Y-54369000D01*
G75*
G02*
X105199000Y-54509000I-140000J0D01*
G01*
G37*
G36*
G01*
X105199000Y-55469000D02*
X104859000Y-55469000D01*
G75*
G02*
X104719000Y-55329000I0J140000D01*
G01*
X104719000Y-55049000D01*
G75*
G02*
X104859000Y-54909000I140000J0D01*
G01*
X105199000Y-54909000D01*
G75*
G02*
X105339000Y-55049000I0J-140000D01*
G01*
X105339000Y-55329000D01*
G75*
G02*
X105199000Y-55469000I-140000J0D01*
G01*
G37*
G04 #@! TD*
G04 #@! TO.C,C13*
G36*
G01*
X90467000Y-54537000D02*
X90127000Y-54537000D01*
G75*
G02*
X89987000Y-54397000I0J140000D01*
G01*
X89987000Y-54117000D01*
G75*
G02*
X90127000Y-53977000I140000J0D01*
G01*
X90467000Y-53977000D01*
G75*
G02*
X90607000Y-54117000I0J-140000D01*
G01*
X90607000Y-54397000D01*
G75*
G02*
X90467000Y-54537000I-140000J0D01*
G01*
G37*
G36*
G01*
X90467000Y-55497000D02*
X90127000Y-55497000D01*
G75*
G02*
X89987000Y-55357000I0J140000D01*
G01*
X89987000Y-55077000D01*
G75*
G02*
X90127000Y-54937000I140000J0D01*
G01*
X90467000Y-54937000D01*
G75*
G02*
X90607000Y-55077000I0J-140000D01*
G01*
X90607000Y-55357000D01*
G75*
G02*
X90467000Y-55497000I-140000J0D01*
G01*
G37*
G04 #@! TD*
G04 #@! TO.C,C12*
G36*
G01*
X98722000Y-83620000D02*
X98382000Y-83620000D01*
G75*
G02*
X98242000Y-83480000I0J140000D01*
G01*
X98242000Y-83200000D01*
G75*
G02*
X98382000Y-83060000I140000J0D01*
G01*
X98722000Y-83060000D01*
G75*
G02*
X98862000Y-83200000I0J-140000D01*
G01*
X98862000Y-83480000D01*
G75*
G02*
X98722000Y-83620000I-140000J0D01*
G01*
G37*
G36*
G01*
X98722000Y-84580000D02*
X98382000Y-84580000D01*
G75*
G02*
X98242000Y-84440000I0J140000D01*
G01*
X98242000Y-84160000D01*
G75*
G02*
X98382000Y-84020000I140000J0D01*
G01*
X98722000Y-84020000D01*
G75*
G02*
X98862000Y-84160000I0J-140000D01*
G01*
X98862000Y-84440000D01*
G75*
G02*
X98722000Y-84580000I-140000J0D01*
G01*
G37*
G04 #@! TD*
G04 #@! TO.C,C11*
G36*
G01*
X98526000Y-87165000D02*
X98526000Y-86825000D01*
G75*
G02*
X98666000Y-86685000I140000J0D01*
G01*
X98946000Y-86685000D01*
G75*
G02*
X99086000Y-86825000I0J-140000D01*
G01*
X99086000Y-87165000D01*
G75*
G02*
X98946000Y-87305000I-140000J0D01*
G01*
X98666000Y-87305000D01*
G75*
G02*
X98526000Y-87165000I0J140000D01*
G01*
G37*
G36*
G01*
X97566000Y-87165000D02*
X97566000Y-86825000D01*
G75*
G02*
X97706000Y-86685000I140000J0D01*
G01*
X97986000Y-86685000D01*
G75*
G02*
X98126000Y-86825000I0J-140000D01*
G01*
X98126000Y-87165000D01*
G75*
G02*
X97986000Y-87305000I-140000J0D01*
G01*
X97706000Y-87305000D01*
G75*
G02*
X97566000Y-87165000I0J140000D01*
G01*
G37*
G04 #@! TD*
G04 #@! TO.C,C10*
G36*
G01*
X98526000Y-85768000D02*
X98526000Y-85428000D01*
G75*
G02*
X98666000Y-85288000I140000J0D01*
G01*
X98946000Y-85288000D01*
G75*
G02*
X99086000Y-85428000I0J-140000D01*
G01*
X99086000Y-85768000D01*
G75*
G02*
X98946000Y-85908000I-140000J0D01*
G01*
X98666000Y-85908000D01*
G75*
G02*
X98526000Y-85768000I0J140000D01*
G01*
G37*
G36*
G01*
X97566000Y-85768000D02*
X97566000Y-85428000D01*
G75*
G02*
X97706000Y-85288000I140000J0D01*
G01*
X97986000Y-85288000D01*
G75*
G02*
X98126000Y-85428000I0J-140000D01*
G01*
X98126000Y-85768000D01*
G75*
G02*
X97986000Y-85908000I-140000J0D01*
G01*
X97706000Y-85908000D01*
G75*
G02*
X97566000Y-85768000I0J140000D01*
G01*
G37*
G04 #@! TD*
G04 #@! TO.C,C9*
G36*
G01*
X98174200Y-78570000D02*
X98174200Y-78910000D01*
G75*
G02*
X98034200Y-79050000I-140000J0D01*
G01*
X97754200Y-79050000D01*
G75*
G02*
X97614200Y-78910000I0J140000D01*
G01*
X97614200Y-78570000D01*
G75*
G02*
X97754200Y-78430000I140000J0D01*
G01*
X98034200Y-78430000D01*
G75*
G02*
X98174200Y-78570000I0J-140000D01*
G01*
G37*
G36*
G01*
X99134200Y-78570000D02*
X99134200Y-78910000D01*
G75*
G02*
X98994200Y-79050000I-140000J0D01*
G01*
X98714200Y-79050000D01*
G75*
G02*
X98574200Y-78910000I0J140000D01*
G01*
X98574200Y-78570000D01*
G75*
G02*
X98714200Y-78430000I140000J0D01*
G01*
X98994200Y-78430000D01*
G75*
G02*
X99134200Y-78570000I0J-140000D01*
G01*
G37*
G04 #@! TD*
G04 #@! TO.C,C7*
G36*
G01*
X98098000Y-81872000D02*
X98098000Y-82212000D01*
G75*
G02*
X97958000Y-82352000I-140000J0D01*
G01*
X97678000Y-82352000D01*
G75*
G02*
X97538000Y-82212000I0J140000D01*
G01*
X97538000Y-81872000D01*
G75*
G02*
X97678000Y-81732000I140000J0D01*
G01*
X97958000Y-81732000D01*
G75*
G02*
X98098000Y-81872000I0J-140000D01*
G01*
G37*
G36*
G01*
X99058000Y-81872000D02*
X99058000Y-82212000D01*
G75*
G02*
X98918000Y-82352000I-140000J0D01*
G01*
X98638000Y-82352000D01*
G75*
G02*
X98498000Y-82212000I0J140000D01*
G01*
X98498000Y-81872000D01*
G75*
G02*
X98638000Y-81732000I140000J0D01*
G01*
X98918000Y-81732000D01*
G75*
G02*
X99058000Y-81872000I0J-140000D01*
G01*
G37*
G04 #@! TD*
G04 #@! TO.C,C6*
G36*
G01*
X100119000Y-83620000D02*
X99779000Y-83620000D01*
G75*
G02*
X99639000Y-83480000I0J140000D01*
G01*
X99639000Y-83200000D01*
G75*
G02*
X99779000Y-83060000I140000J0D01*
G01*
X100119000Y-83060000D01*
G75*
G02*
X100259000Y-83200000I0J-140000D01*
G01*
X100259000Y-83480000D01*
G75*
G02*
X100119000Y-83620000I-140000J0D01*
G01*
G37*
G36*
G01*
X100119000Y-84580000D02*
X99779000Y-84580000D01*
G75*
G02*
X99639000Y-84440000I0J140000D01*
G01*
X99639000Y-84160000D01*
G75*
G02*
X99779000Y-84020000I140000J0D01*
G01*
X100119000Y-84020000D01*
G75*
G02*
X100259000Y-84160000I0J-140000D01*
G01*
X100259000Y-84440000D01*
G75*
G02*
X100119000Y-84580000I-140000J0D01*
G01*
G37*
G04 #@! TD*
G04 #@! TO.C,C5*
G36*
G01*
X84625000Y-55045000D02*
X84285000Y-55045000D01*
G75*
G02*
X84145000Y-54905000I0J140000D01*
G01*
X84145000Y-54625000D01*
G75*
G02*
X84285000Y-54485000I140000J0D01*
G01*
X84625000Y-54485000D01*
G75*
G02*
X84765000Y-54625000I0J-140000D01*
G01*
X84765000Y-54905000D01*
G75*
G02*
X84625000Y-55045000I-140000J0D01*
G01*
G37*
G36*
G01*
X84625000Y-56005000D02*
X84285000Y-56005000D01*
G75*
G02*
X84145000Y-55865000I0J140000D01*
G01*
X84145000Y-55585000D01*
G75*
G02*
X84285000Y-55445000I140000J0D01*
G01*
X84625000Y-55445000D01*
G75*
G02*
X84765000Y-55585000I0J-140000D01*
G01*
X84765000Y-55865000D01*
G75*
G02*
X84625000Y-56005000I-140000J0D01*
G01*
G37*
G04 #@! TD*
G04 #@! TO.C,C3*
G36*
G01*
X85290000Y-59479000D02*
X85290000Y-59139000D01*
G75*
G02*
X85430000Y-58999000I140000J0D01*
G01*
X85710000Y-58999000D01*
G75*
G02*
X85850000Y-59139000I0J-140000D01*
G01*
X85850000Y-59479000D01*
G75*
G02*
X85710000Y-59619000I-140000J0D01*
G01*
X85430000Y-59619000D01*
G75*
G02*
X85290000Y-59479000I0J140000D01*
G01*
G37*
G36*
G01*
X84330000Y-59479000D02*
X84330000Y-59139000D01*
G75*
G02*
X84470000Y-58999000I140000J0D01*
G01*
X84750000Y-58999000D01*
G75*
G02*
X84890000Y-59139000I0J-140000D01*
G01*
X84890000Y-59479000D01*
G75*
G02*
X84750000Y-59619000I-140000J0D01*
G01*
X84470000Y-59619000D01*
G75*
G02*
X84330000Y-59479000I0J140000D01*
G01*
G37*
G04 #@! TD*
G04 #@! TO.C,C2*
G36*
G01*
X102054000Y-53764000D02*
X102054000Y-53424000D01*
G75*
G02*
X102194000Y-53284000I140000J0D01*
G01*
X102474000Y-53284000D01*
G75*
G02*
X102614000Y-53424000I0J-140000D01*
G01*
X102614000Y-53764000D01*
G75*
G02*
X102474000Y-53904000I-140000J0D01*
G01*
X102194000Y-53904000D01*
G75*
G02*
X102054000Y-53764000I0J140000D01*
G01*
G37*
G36*
G01*
X101094000Y-53764000D02*
X101094000Y-53424000D01*
G75*
G02*
X101234000Y-53284000I140000J0D01*
G01*
X101514000Y-53284000D01*
G75*
G02*
X101654000Y-53424000I0J-140000D01*
G01*
X101654000Y-53764000D01*
G75*
G02*
X101514000Y-53904000I-140000J0D01*
G01*
X101234000Y-53904000D01*
G75*
G02*
X101094000Y-53764000I0J140000D01*
G01*
G37*
G04 #@! TD*
G04 #@! TO.C,C1*
G36*
G01*
X89608000Y-60368000D02*
X89608000Y-60028000D01*
G75*
G02*
X89748000Y-59888000I140000J0D01*
G01*
X90028000Y-59888000D01*
G75*
G02*
X90168000Y-60028000I0J-140000D01*
G01*
X90168000Y-60368000D01*
G75*
G02*
X90028000Y-60508000I-140000J0D01*
G01*
X89748000Y-60508000D01*
G75*
G02*
X89608000Y-60368000I0J140000D01*
G01*
G37*
G36*
G01*
X88648000Y-60368000D02*
X88648000Y-60028000D01*
G75*
G02*
X88788000Y-59888000I140000J0D01*
G01*
X89068000Y-59888000D01*
G75*
G02*
X89208000Y-60028000I0J-140000D01*
G01*
X89208000Y-60368000D01*
G75*
G02*
X89068000Y-60508000I-140000J0D01*
G01*
X88788000Y-60508000D01*
G75*
G02*
X88648000Y-60368000I0J140000D01*
G01*
G37*
G04 #@! TD*
M02*
