M48
; DRILL file {KiCad (5.1.10)-1} date 03/18/22 02:24:28
; FORMAT={-:-/ absolute / inch / decimal}
; #@! TF.CreationDate,2022-03-18T02:24:28-07:00
; #@! TF.GenerationSoftware,Kicad,Pcbnew,(5.1.10)-1
; #@! TF.FileFunction,Plated,1,2,PTH
FMAT,2
INCH
T1C0.0080
T2C0.0112
T3C0.0160
T4C0.0394
T5C0.0551
T6C0.0591
%
G90
G05
T1
X3.2598Y-3.5989
X3.5054Y-2.9991
X3.7668Y-3.0648
X3.8098Y-3.1208
X3.8309Y-3.3955
X3.8538Y-3.6176
X3.855Y-3.015
X3.8834Y-3.06
X4.0033Y-2.3118
X4.1504Y-2.9294
X4.2408Y-2.9756
X4.29Y-2.636
X4.301Y-2.748
T2
X3.6433Y-2.5455
X3.6433Y-2.5903
X3.6433Y-2.6351
X3.6433Y-2.6799
X3.6433Y-2.7247
X3.6433Y-2.7695
X3.6433Y-2.8142
X3.6433Y-2.859
X3.688Y-2.5455
X3.688Y-2.5903
X3.688Y-2.6351
X3.688Y-2.6799
X3.688Y-2.7247
X3.688Y-2.7695
X3.688Y-2.8142
X3.688Y-2.859
X3.7328Y-2.5455
X3.7328Y-2.5903
X3.7328Y-2.6351
X3.7328Y-2.6799
X3.7328Y-2.7247
X3.7328Y-2.7695
X3.7328Y-2.8142
X3.7328Y-2.859
X3.7776Y-2.5455
X3.7776Y-2.5903
X3.7776Y-2.6351
X3.7776Y-2.6799
X3.7776Y-2.7247
X3.7776Y-2.7695
X3.7776Y-2.8142
X3.7776Y-2.859
X3.8224Y-2.5455
X3.8224Y-2.5903
X3.8224Y-2.6351
X3.8224Y-2.6799
X3.8224Y-2.7247
X3.8224Y-2.7695
X3.8224Y-2.8142
X3.8224Y-2.859
X3.8672Y-2.5455
X3.8672Y-2.5903
X3.8672Y-2.6351
X3.8672Y-2.6799
X3.8672Y-2.7247
X3.8672Y-2.7695
X3.8672Y-2.8142
X3.8672Y-2.859
X3.912Y-2.5455
X3.912Y-2.5903
X3.912Y-2.6351
X3.912Y-2.6799
X3.912Y-2.7247
X3.912Y-2.7695
X3.912Y-2.8142
X3.912Y-2.859
X3.9567Y-2.5455
X3.9567Y-2.5903
X3.9567Y-2.6351
X3.9567Y-2.6799
X3.9567Y-2.7247
X3.9567Y-2.7695
X3.9567Y-2.8142
X3.9567Y-2.859
T3
X3.3025Y-2.2775
X3.44Y-2.25
X3.4602Y-2.9911
X3.96Y-2.245
X4.18Y-2.255
X4.235Y-2.535
T4
X4.1Y-3.09
X4.1Y-3.19
X4.1Y-3.29
X4.1Y-3.39
X4.2Y-3.09
X4.2Y-3.19
X4.2Y-3.29
X4.2Y-3.39
X4.409Y-2.288
X4.409Y-2.388
X4.409Y-2.488
X4.409Y-2.588
X4.409Y-2.688
X4.409Y-2.788
X4.409Y-2.888
X4.409Y-2.988
X4.409Y-3.088
X4.409Y-3.188
X4.409Y-3.288
X4.409Y-3.388
X4.409Y-3.488
X4.509Y-2.288
X4.509Y-2.388
X4.509Y-2.488
X4.509Y-2.588
X4.509Y-2.688
X4.509Y-2.788
X4.509Y-2.888
X4.509Y-2.988
X4.509Y-3.088
X4.509Y-3.188
X4.509Y-3.288
X4.509Y-3.388
X4.509Y-3.488
T5
X3.26Y-2.7354
T6
X3.1596Y-2.635
X3.1596Y-2.8358
X3.3604Y-2.635
X3.3604Y-2.8358
T0
M30
