%TF.GenerationSoftware,KiCad,Pcbnew,8.0.4*%
%TF.CreationDate,2025-04-17T12:18:26-07:00*%
%TF.ProjectId,pico-w-breakout,7069636f-2d77-42d6-9272-65616b6f7574,rev?*%
%TF.SameCoordinates,Original*%
%TF.FileFunction,Legend,Bot*%
%TF.FilePolarity,Positive*%
%FSLAX46Y46*%
G04 Gerber Fmt 4.6, Leading zero omitted, Abs format (unit mm)*
G04 Created by KiCad (PCBNEW 8.0.4) date 2025-04-17 12:18:26*
%MOMM*%
%LPD*%
G01*
G04 APERTURE LIST*
%ADD10C,0.100000*%
%ADD11C,0.150000*%
%ADD12C,0.127000*%
%ADD13R,1.700000X1.700000*%
%ADD14O,1.700000X1.700000*%
G04 APERTURE END LIST*
D10*
X54052261Y-78205684D02*
X54052260Y-78564508D01*
X59510201Y-79828758D02*
X59447987Y-79876072D01*
X58094946Y-79722212D02*
X57979098Y-79794862D01*
X58499399Y-80108849D02*
X58675911Y-80059537D01*
X54033829Y-76973666D02*
X54009911Y-76984747D01*
X59877890Y-80057000D02*
X59921686Y-80024956D01*
X55473089Y-77462367D02*
X55482114Y-77463782D01*
X55635384Y-80809749D02*
X55635408Y-80809747D01*
X54863497Y-77370722D02*
X54872479Y-77379799D01*
X54678851Y-79642396D02*
X54679641Y-80768316D01*
X54738712Y-80051494D02*
X54740027Y-80060138D01*
X55414513Y-78584336D02*
X54770868Y-78488490D01*
X58382252Y-79459136D02*
X58386326Y-79441273D01*
X55904431Y-79999634D02*
X55879420Y-80130458D01*
X54608641Y-75883795D02*
X54324259Y-76677420D01*
X54411379Y-77515048D02*
X54370510Y-77514848D01*
X59921686Y-80024956D02*
X59963509Y-80009506D01*
X54277277Y-78392817D02*
X54284854Y-78385636D01*
X59314473Y-79325776D02*
X59285240Y-79233708D01*
X59386582Y-79301548D02*
X59382068Y-79384332D01*
X55112572Y-77207276D02*
X55562888Y-77275260D01*
X54706907Y-78478728D02*
X54706907Y-77846493D01*
X55021620Y-78368103D02*
X55025044Y-78327168D01*
X54539042Y-76838861D02*
X54397492Y-76877353D01*
X55486882Y-78468547D02*
X55498299Y-78470155D01*
X59179550Y-79077640D02*
X59090858Y-79005547D01*
X54286874Y-77990893D02*
X54286264Y-77602517D01*
X54377156Y-80795975D02*
X54706854Y-80795975D01*
X54053796Y-77599294D02*
X54052261Y-78205684D01*
X55427896Y-80326435D02*
X55386534Y-80293966D01*
X55604118Y-78878278D02*
X55465336Y-78886929D01*
X54052260Y-78564508D02*
X54039007Y-78567078D01*
X55768258Y-79392048D02*
X55822658Y-79457177D01*
X54710943Y-77146374D02*
X55112572Y-77207276D01*
X55278380Y-79632004D02*
X55279455Y-79626818D01*
X56247516Y-80617072D02*
X56200449Y-80759390D01*
X60054695Y-79356608D02*
X60194285Y-79353759D01*
X55662255Y-78879457D02*
X55661655Y-78769691D01*
X58614833Y-79301479D02*
X58676720Y-79305399D01*
X54745038Y-79623937D02*
X54743522Y-79632004D01*
X60047178Y-79655897D02*
X59995740Y-79640870D01*
X59474183Y-79663652D02*
X59524763Y-79720276D01*
X58070190Y-80684180D02*
X58194973Y-80744541D01*
X55766523Y-80793799D02*
X55887666Y-80763875D01*
X57453151Y-80761401D02*
X57729061Y-80761401D01*
X59755071Y-78956728D02*
X59678001Y-78978355D01*
X54706125Y-76913626D02*
X54707650Y-76847460D01*
X55229073Y-78407032D02*
X55234731Y-78401374D01*
X54393457Y-76764686D02*
X54393457Y-76651746D01*
X54571981Y-78350469D02*
X54571977Y-78350468D01*
X55633527Y-78878278D02*
X55604118Y-78878278D01*
X54948519Y-79130731D02*
X54882166Y-79217204D01*
X55439211Y-78435693D02*
X55442126Y-78003570D01*
X60019635Y-80000005D02*
X60223052Y-79993879D01*
X54378207Y-76651746D02*
X54364241Y-76646831D01*
X54785874Y-79426532D02*
X54756289Y-79548993D01*
X55647830Y-77121483D02*
X55647235Y-76986156D01*
X55455686Y-79354215D02*
X55544203Y-79329993D01*
X55661258Y-77353666D02*
X55683782Y-77344844D01*
X54448757Y-77961148D02*
X54448756Y-77561029D01*
X59020494Y-79945430D02*
X59109861Y-79894702D01*
X56472918Y-79897055D02*
X56466513Y-79700000D01*
X54619829Y-78336575D02*
X54623384Y-77930102D01*
X54130968Y-77953623D02*
X54130103Y-77482662D01*
X54903706Y-76835466D02*
X54813977Y-76560416D01*
X55481339Y-76395568D02*
X55430541Y-76548054D01*
X54827892Y-79315870D02*
X54785874Y-79426532D01*
X55688865Y-76968918D02*
X55683539Y-76955199D01*
X54806592Y-77129502D02*
X54704600Y-77114114D01*
X58758475Y-79336451D02*
X58780187Y-79364270D01*
X54080679Y-77953704D02*
X54080672Y-77953708D01*
X60004358Y-80329548D02*
X60004358Y-80329551D01*
X55014690Y-78373525D02*
X55014693Y-78373524D01*
X55512222Y-77438171D02*
X55193236Y-77390217D01*
X55716380Y-77275310D02*
X55708975Y-77267141D01*
X59489318Y-79089994D02*
X59441589Y-79149829D01*
X59947026Y-80759069D02*
X60440851Y-80761399D01*
X54082277Y-77004297D02*
X54087463Y-77002062D01*
X55014693Y-78373524D02*
X55021620Y-78368103D01*
X55447875Y-80805415D02*
X55635384Y-80809749D01*
X60194285Y-79353759D02*
X60333155Y-79352534D01*
X54033111Y-77311094D02*
X54008464Y-77321344D01*
X55773986Y-80301110D02*
X55735130Y-80326357D01*
X54053413Y-77304778D02*
X54033111Y-77311094D01*
X55562888Y-77275260D02*
X55617629Y-77283289D01*
X54215887Y-76704739D02*
X54222901Y-76495205D01*
X58884016Y-80000924D02*
X59020494Y-79945430D01*
D11*
X67151000Y-87730000D02*
G75*
G02*
X63849000Y-87730000I-1651000J0D01*
G01*
X63849000Y-87730000D02*
G75*
G02*
X67151000Y-87730000I1651000J0D01*
G01*
D10*
X54054140Y-77252238D02*
X54021144Y-77260844D01*
X55004238Y-78374350D02*
X55014690Y-78373525D01*
X55324988Y-80208536D02*
X55303617Y-80155077D01*
X55292384Y-79563171D02*
X55328465Y-79472018D01*
X54725702Y-76286821D02*
X54814192Y-75747271D01*
X55349233Y-78435845D02*
X55419262Y-78445867D01*
X55620034Y-78614573D02*
X55414513Y-78584335D01*
X57101803Y-78926740D02*
X56814705Y-78926775D01*
X55822658Y-79457177D02*
X55863919Y-79542843D01*
X59524763Y-79720276D02*
X59580820Y-79770503D01*
X54053962Y-77284379D02*
X54054128Y-77293759D01*
X54671109Y-77090828D02*
X54669619Y-77118487D01*
X55498783Y-76465556D02*
X55607490Y-76933843D01*
X59240281Y-79151032D02*
X59179550Y-79077640D01*
X59955203Y-79615533D02*
X59926092Y-79580343D01*
X55661655Y-78769691D02*
X55661055Y-78659924D01*
X54768755Y-76503556D02*
X54846087Y-76743366D01*
X54342935Y-78383281D02*
X54349329Y-78387081D01*
X54003861Y-76998398D02*
X54007319Y-77010311D01*
X54144511Y-77285418D02*
X54083850Y-77297051D01*
X55483228Y-76390193D02*
X55481339Y-76395568D01*
X55414513Y-78584335D02*
X55414513Y-78584336D01*
X54511956Y-78357795D02*
X54520846Y-78359454D01*
X54002682Y-77339203D02*
X54014782Y-77355033D01*
X59516451Y-80636695D02*
X59585196Y-80676133D01*
X55683782Y-77344844D02*
X55688057Y-77332274D01*
X58355163Y-80199713D02*
X58377572Y-80172309D01*
X56199124Y-80582410D02*
X56283323Y-80488783D01*
X54912064Y-75072834D02*
X54899394Y-75073658D01*
X59997925Y-79365889D02*
X60054695Y-79356608D01*
X58386326Y-79441273D02*
X58400908Y-79401514D01*
X57799091Y-80147961D02*
X57593665Y-79536926D01*
X55508752Y-76388289D02*
X55494573Y-76388539D01*
X55612158Y-77298887D02*
X55155788Y-77232393D01*
X59331952Y-80087072D02*
X59319769Y-80170535D01*
X54525031Y-77497076D02*
X54512864Y-77519972D01*
X58384827Y-80339253D02*
X58361922Y-80317325D01*
X54928646Y-77440073D02*
X54902419Y-77449586D01*
X55682789Y-76982946D02*
X55688865Y-76968918D01*
X59389952Y-80503061D02*
X59457606Y-80587428D01*
X55352681Y-80254942D02*
X55324988Y-80208536D01*
X60333111Y-80335389D02*
X60181564Y-80334354D01*
X55009697Y-80051494D02*
X54738712Y-80051494D01*
X55887666Y-80763875D02*
X55999041Y-80719911D01*
X55683539Y-76955199D02*
X55658955Y-76947239D01*
X54603752Y-77358376D02*
X54107523Y-77458522D01*
X58961773Y-80743293D02*
X59060204Y-80693701D01*
X54008464Y-77321344D02*
X54002682Y-77339203D01*
X54085162Y-77248463D02*
X54082282Y-77126505D01*
X59090858Y-79005547D02*
X58984229Y-78949384D01*
X55513622Y-78261790D02*
X55515107Y-77754445D01*
X55010951Y-79632004D02*
X55278380Y-79632004D01*
X60333155Y-79506077D02*
X60333155Y-79659620D01*
X55382615Y-77493849D02*
X55349229Y-77492813D01*
X57105652Y-79483976D02*
X57193605Y-79805509D01*
X59407596Y-79219946D02*
X59386582Y-79301548D01*
X57593665Y-79536926D02*
X57388901Y-78926706D01*
X55642959Y-80357319D02*
X55587238Y-80362033D01*
X58473081Y-79329480D02*
X58536490Y-79307475D01*
X55281687Y-80056680D02*
X55280682Y-80051494D01*
X57421057Y-80640384D02*
X57453151Y-80761401D01*
X55221379Y-78412689D02*
X55229074Y-78407032D01*
X58852877Y-80779630D02*
X58961773Y-80743293D01*
X54507747Y-78319912D02*
X54511956Y-78357795D01*
X57193605Y-79805509D02*
X57280807Y-80133889D01*
X54192599Y-76542957D02*
X54179580Y-76930467D01*
X59897314Y-80290121D02*
X59865692Y-80255287D01*
X55260878Y-80763928D02*
X55351393Y-80789243D01*
X57816297Y-80041683D02*
X57805492Y-80102204D01*
X59447987Y-79876072D02*
X59396675Y-79936029D01*
X54864012Y-77357846D02*
X54863497Y-77370722D01*
X55025164Y-77515848D02*
X55017337Y-77484827D01*
X55280662Y-78422909D02*
X55349233Y-78435845D01*
X54431471Y-77221123D02*
X54144511Y-77285418D01*
X54778402Y-75778221D02*
X54691155Y-76302551D01*
X55666557Y-78621513D02*
X55660248Y-78515791D01*
X54182607Y-77321270D02*
X54669689Y-77213051D01*
X57107810Y-80519953D02*
X57388962Y-80519368D01*
X54704600Y-77046953D02*
X54706125Y-76913626D01*
X55430740Y-78444191D02*
X55439211Y-78435693D01*
X58625606Y-80809194D02*
X58732425Y-80803164D01*
X55690948Y-80345166D02*
X55642959Y-80357319D01*
X54562415Y-77478699D02*
X54541940Y-77482151D01*
X55229074Y-78407032D02*
X55229073Y-78407032D01*
X54048707Y-80265270D02*
X54047457Y-80795975D01*
X54182832Y-78408982D02*
X54192468Y-78410131D01*
X54056421Y-76951354D02*
X54055721Y-76966207D01*
X54814192Y-75747271D02*
X54901280Y-75219566D01*
D11*
X67151000Y-40730000D02*
G75*
G02*
X63849000Y-40730000I-1651000J0D01*
G01*
X63849000Y-40730000D02*
G75*
G02*
X67151000Y-40730000I1651000J0D01*
G01*
D10*
X55619645Y-77116186D02*
X55614990Y-77251023D01*
X55139321Y-77469732D02*
X55100615Y-77485751D01*
X54176797Y-78011700D02*
X54178238Y-78373485D01*
X54448756Y-77561029D02*
X54442123Y-77547199D01*
X55625218Y-78196746D02*
X55626183Y-78615803D01*
X55025044Y-78327168D02*
X55026799Y-77948474D01*
X58459476Y-78883532D02*
X58303458Y-78913769D01*
X58724293Y-79316942D02*
X58758475Y-79336451D01*
X55068780Y-77956895D02*
X55073329Y-78387277D01*
X54133010Y-76948135D02*
X54085183Y-76960408D01*
X54713615Y-76848715D02*
X55618735Y-76981349D01*
X60333111Y-79993867D02*
X60333111Y-80164628D01*
X59335959Y-80371949D02*
X59345528Y-80402987D01*
X55521902Y-76927225D02*
X55521902Y-76927225D01*
X54864828Y-78350365D02*
X54933975Y-78364190D01*
X54670029Y-77162032D02*
X54664842Y-77168817D01*
X54052457Y-78611270D02*
X54051207Y-79172920D01*
X57976447Y-80676696D02*
X57946240Y-80587381D01*
X54127376Y-78427855D02*
X54127363Y-78427856D01*
X55515107Y-77754445D02*
X55512222Y-77438171D01*
X60333155Y-79352534D02*
X60333155Y-79506077D01*
X56200449Y-80759390D02*
X56480450Y-80761400D01*
X55662026Y-76987536D02*
X55682789Y-76982946D01*
X59073199Y-80196695D02*
X58828122Y-80196695D01*
X54706854Y-80214495D02*
X54706854Y-79633015D01*
X55036508Y-77262649D02*
X55621313Y-77348721D01*
X55667892Y-78658559D02*
X55680327Y-78644896D01*
X55187338Y-77474422D02*
X55139321Y-77469732D01*
X56643110Y-79438355D02*
X56470998Y-79949420D01*
X57892230Y-79882423D02*
X57859667Y-79931790D01*
X54205048Y-77558054D02*
X54188983Y-77577988D01*
X54224091Y-76486218D02*
X54349668Y-76887940D01*
X59060204Y-80693701D02*
X59149261Y-80630401D01*
X55702469Y-77295082D02*
X55716112Y-77286528D01*
X55879420Y-80130458D02*
X55836374Y-80230246D01*
X58536490Y-79307475D02*
X58614833Y-79301479D01*
X54039007Y-78567078D02*
X54015322Y-78573625D01*
X59382068Y-79384332D02*
X59386657Y-79464890D01*
X59328026Y-79427342D02*
X59314473Y-79325776D01*
X59324031Y-79549022D02*
X59328026Y-79427342D01*
X54055331Y-77351728D02*
X54053796Y-77599294D01*
X55807679Y-80269161D02*
X55773986Y-80301110D01*
X59908930Y-79535755D02*
X59906590Y-79497299D01*
X58782111Y-80298898D02*
X58723084Y-80348880D01*
X59457606Y-80587428D02*
X59516451Y-80636695D01*
X55999041Y-80719911D02*
X56100848Y-80661844D01*
X55648303Y-77288985D02*
X55654763Y-77289003D01*
X58341254Y-80785772D02*
X58508560Y-80807694D01*
X57967380Y-80604866D02*
X58070190Y-80684180D01*
X60424756Y-78927339D02*
X59975243Y-78929505D01*
X58858859Y-78908816D02*
X58713942Y-78883509D01*
X55632327Y-78656108D02*
X55632927Y-78767193D01*
X55836374Y-80230246D02*
X55807679Y-80269161D01*
X58361922Y-80317325D02*
X58347270Y-80291589D01*
X55618735Y-76981349D02*
X55619645Y-77116186D01*
X54709180Y-76638897D02*
X54718361Y-76354890D01*
X54917547Y-75140916D02*
X55414530Y-76593976D01*
X54932095Y-80539575D02*
X55010106Y-80618543D01*
X59914833Y-79438595D02*
X59941015Y-79396976D01*
X54706907Y-77214258D02*
X54713246Y-77215423D01*
X59995740Y-79640870D02*
X59955203Y-79615533D01*
X54788307Y-76819787D02*
X54707520Y-76807514D01*
X59345528Y-80402987D02*
X59389952Y-80503061D01*
X55508847Y-78464239D02*
X55513622Y-78261790D01*
X59941015Y-79396976D02*
X59965466Y-79378333D01*
X58303458Y-78913769D02*
X58173695Y-78964924D01*
X56220809Y-79134056D02*
X56139794Y-79057586D01*
X59746118Y-80731567D02*
X59841082Y-80748697D01*
X54198643Y-76405627D02*
X54127606Y-76671399D01*
X55654763Y-77289003D02*
X55702469Y-77295082D01*
X56407442Y-79442360D02*
X56357777Y-79327207D01*
X54707650Y-76847460D02*
X54713615Y-76848715D01*
X55587238Y-80362033D02*
X55526009Y-80359708D01*
X55234731Y-78401374D02*
X55234731Y-77971890D01*
X54706911Y-79060035D02*
X54706908Y-79060047D01*
X55171343Y-77421579D02*
X55473089Y-77462367D01*
X54860183Y-77922258D02*
X54864828Y-78350365D01*
X56444073Y-79567699D02*
X56407442Y-79442360D01*
X54082282Y-77126505D02*
X54082277Y-77126506D01*
X54075594Y-80768316D02*
X54076658Y-80151177D01*
X55626183Y-78615803D02*
X55620034Y-78614573D01*
X54101425Y-77947907D02*
X54106769Y-78426820D01*
X54865206Y-77487924D02*
X54860183Y-77498796D01*
X54393457Y-76651746D02*
X54378207Y-76651746D01*
X55494573Y-76388539D02*
X55483228Y-76390193D01*
X54047458Y-77353483D02*
X54055331Y-77351728D01*
X58115137Y-79459136D02*
X58382252Y-79459136D01*
X55193236Y-77390217D02*
X54872863Y-77349479D01*
X57014413Y-79812355D02*
X57105652Y-79483976D01*
X54107523Y-77458522D02*
X54101525Y-77467100D01*
X54393457Y-76764684D02*
X54393457Y-76764686D01*
D11*
X40951000Y-94421000D02*
G75*
G02*
X37649000Y-94421000I-1651000J0D01*
G01*
X37649000Y-94421000D02*
G75*
G02*
X40951000Y-94421000I1651000J0D01*
G01*
D10*
X54671180Y-76846092D02*
X54671889Y-76954631D01*
X54704600Y-77114114D02*
X54704600Y-77046953D01*
X55414530Y-76593976D02*
X55371634Y-76723511D01*
X55660248Y-78515791D02*
X55657998Y-77881961D01*
X54294439Y-76623292D02*
X54224699Y-76401677D01*
X55498299Y-78470155D02*
X55508842Y-78464237D01*
X55143243Y-76871779D02*
X54941456Y-76842207D01*
X60333155Y-79659620D02*
X60201030Y-79659620D01*
X55010106Y-80618543D02*
X55097530Y-80685794D01*
X55449472Y-76915638D02*
X55481464Y-76580294D01*
X55716112Y-77286528D02*
X55716380Y-77275310D01*
X60897837Y-80761399D02*
X60897837Y-79843964D01*
X55601007Y-76939074D02*
X55521902Y-76927225D01*
X54708641Y-79600415D02*
X54706911Y-79060035D01*
X55526009Y-80359708D02*
X55473641Y-80348096D01*
X57805492Y-80102204D02*
X57799091Y-80147961D01*
X59319769Y-80170535D02*
X59318275Y-80196695D01*
X57951556Y-79164109D02*
X57888806Y-79289327D01*
X59965466Y-79378333D02*
X59997925Y-79365889D01*
X54706908Y-77167037D02*
X54706908Y-77156232D01*
X58416623Y-80358182D02*
X58384827Y-80339253D01*
X55331174Y-78910708D02*
X55218279Y-78946439D01*
X54188983Y-77577988D02*
X54179167Y-77608279D01*
X57865121Y-79368741D02*
X57849561Y-79447036D01*
X54215887Y-76704739D02*
X54215887Y-76704739D01*
X57849561Y-79447036D02*
X57848021Y-79459136D01*
X59181860Y-79836680D02*
X59250889Y-79753858D01*
X56100848Y-80661844D02*
X56199124Y-80582410D01*
X59250889Y-79753858D02*
X59298299Y-79657917D01*
X60897837Y-78926529D02*
X60424756Y-78927339D01*
X58342443Y-80229800D02*
X58355163Y-80199713D01*
X55683512Y-77316216D02*
X55668454Y-77307442D01*
X54641472Y-78478271D02*
X54350808Y-78522101D01*
X54395748Y-78377652D02*
X54395748Y-78377676D01*
X54395748Y-78377676D02*
X54444727Y-78364873D01*
X55648425Y-77256811D02*
X55647830Y-77121483D01*
X59841082Y-80748697D02*
X59947026Y-80759069D01*
X56034645Y-78986375D02*
X55920988Y-78932833D01*
X54706907Y-77846493D02*
X54706907Y-77214258D01*
X58713942Y-78883509D02*
X58585837Y-78879223D01*
X56760452Y-80761400D02*
X56761757Y-80756214D01*
X56480450Y-80761400D02*
X56760452Y-80761400D01*
X54083850Y-77297051D02*
X54082695Y-77286655D01*
X54706908Y-79060047D02*
X54706908Y-78520652D01*
X55218279Y-78946439D02*
X55116754Y-78995151D01*
X54880520Y-77465941D02*
X54865206Y-77487924D01*
X54106769Y-78426820D02*
X54127376Y-78427855D01*
X56826657Y-80520538D02*
X57107810Y-80519953D01*
X56794859Y-80635783D02*
X56826657Y-80520538D01*
X54617014Y-76860529D02*
X54671180Y-76846092D01*
X55429062Y-77530501D02*
X55409570Y-77506683D01*
X58606766Y-79557841D02*
X58440813Y-79604329D01*
X54047457Y-80795975D02*
X54377156Y-80795975D01*
X54130103Y-77482662D02*
X54367223Y-77434588D01*
X59149261Y-80630401D02*
X59204042Y-80578708D01*
X60333111Y-80164628D02*
X60333111Y-80335389D01*
X55607490Y-76933843D02*
X55607615Y-76939418D01*
X58347270Y-80291589D02*
X58340230Y-80261233D01*
X54224699Y-76401677D02*
X54198643Y-76405627D01*
X58400908Y-79401514D02*
X58431300Y-79359932D01*
X55635408Y-80809747D02*
X55766523Y-80793799D01*
X58048924Y-79051074D02*
X57996517Y-79104497D01*
X55229626Y-77522053D02*
X55221950Y-77505329D01*
D11*
X55751000Y-40730000D02*
G75*
G02*
X52449000Y-40730000I-1651000J0D01*
G01*
X52449000Y-40730000D02*
G75*
G02*
X55751000Y-40730000I1651000J0D01*
G01*
D10*
X59581973Y-79795357D02*
X59510201Y-79828758D01*
X54378831Y-77183350D02*
X54085162Y-77248463D01*
X54667074Y-78474421D02*
X54641472Y-78478271D01*
X59109861Y-79894702D02*
X59181860Y-79836680D01*
X54871549Y-76831528D02*
X54788307Y-76819787D01*
X55688057Y-77332274D02*
X55683512Y-77316216D01*
X60047178Y-79655895D02*
X60047178Y-79655897D01*
X55075509Y-77516845D02*
X55068781Y-77531065D01*
X54021144Y-77260844D02*
X53986104Y-77273332D01*
X54603418Y-77497153D02*
X54585023Y-77483201D01*
X54054600Y-77013636D02*
X54056505Y-77132212D01*
X54674946Y-78515281D02*
X54678851Y-79642396D01*
X54101525Y-77467100D02*
X54101425Y-77947907D01*
X55668454Y-77307442D02*
X55649632Y-77303451D01*
X54706854Y-79633015D02*
X54724179Y-79624443D01*
X54051207Y-79172920D02*
X54048707Y-80265270D01*
X55675375Y-78626433D02*
X55666557Y-78621513D01*
X58108181Y-79004372D02*
X58048924Y-79051074D01*
X58984229Y-78949384D02*
X58858859Y-78908816D01*
X55892274Y-79649690D02*
X55907955Y-79778364D01*
X55614990Y-77251023D02*
X55259459Y-77197958D01*
X55671474Y-78880017D02*
X55662255Y-78879457D01*
X55349229Y-77492813D02*
X55309937Y-77507113D01*
X59204042Y-80578708D02*
X59252838Y-80520082D01*
X54367223Y-77434588D02*
X54608318Y-77383000D01*
X59926092Y-79580343D02*
X59908930Y-79535755D01*
X54613695Y-77375067D02*
X54603752Y-77358376D01*
X54865106Y-75253351D02*
X54778402Y-75778221D01*
X54622784Y-77528760D02*
X54617859Y-77518106D01*
X54901280Y-75219566D02*
X54917547Y-75140916D01*
X54222901Y-76495205D02*
X54224091Y-76486218D01*
X58440813Y-79604329D02*
X58232945Y-79664882D01*
X54718361Y-76354890D02*
X54768755Y-76503556D01*
X54035484Y-78612555D02*
X54052457Y-78611270D01*
X54079113Y-79068437D02*
X54080503Y-78602835D01*
X59318275Y-80196695D02*
X59073199Y-80196695D01*
X58508560Y-80807694D02*
X58625606Y-80809194D01*
X54085183Y-76960408D02*
X54082228Y-76955418D01*
X54706854Y-80795975D02*
X54706854Y-80214495D01*
X54770260Y-80217969D02*
X54812053Y-80341408D01*
X55480217Y-78401108D02*
X55482375Y-78457669D01*
X54037869Y-77017241D02*
X54054600Y-77013636D01*
X58431300Y-79359932D02*
X58473081Y-79329480D01*
X55116754Y-78995151D02*
X55026774Y-79056647D01*
X55619649Y-77291658D02*
X55618638Y-77298740D01*
X54324259Y-76677420D02*
X54345003Y-76679425D01*
X55521902Y-76927225D02*
X55449472Y-76915638D01*
X55618638Y-77298740D02*
X55612158Y-77298887D01*
X55604895Y-79328384D02*
X55658776Y-79334278D01*
X54281119Y-77589814D02*
X54251855Y-77555787D01*
X55386534Y-80293966D02*
X55352681Y-80254942D01*
X55288728Y-80094895D02*
X55281687Y-80056680D01*
X55351393Y-80789243D02*
X55447875Y-80805415D01*
X55638734Y-76943639D02*
X55573777Y-76665863D01*
X58675911Y-80059537D02*
X58884016Y-80000924D01*
X59842191Y-78940696D02*
X59755071Y-78956728D01*
X55026774Y-79056647D02*
X54948519Y-79130731D01*
X58787701Y-79406142D02*
X58780039Y-79448295D01*
X59844675Y-80155447D02*
X59852248Y-80102987D01*
X55508842Y-78464237D02*
X55508847Y-78464239D01*
X54664842Y-77168817D02*
X54431471Y-77221123D01*
X54364412Y-76846531D02*
X54294439Y-76623292D01*
X54127363Y-78427856D02*
X54130968Y-77953623D01*
X54284854Y-78385636D02*
X54286874Y-77990893D01*
X55206852Y-77486827D02*
X55187338Y-77474422D01*
X55718582Y-79356967D02*
X55768258Y-79392048D01*
X54365547Y-76764131D02*
X54364412Y-76846531D01*
X58554904Y-80387138D02*
X58476792Y-80378353D01*
X55442126Y-78003570D02*
X55440056Y-77564486D01*
X54713247Y-78521932D02*
X55517082Y-78639348D01*
X55155788Y-77232393D02*
X54706908Y-77167037D01*
X54846087Y-76743366D02*
X54871549Y-76831528D01*
X60201030Y-79659620D02*
X60047178Y-79655895D01*
X55680327Y-78644896D02*
X55675375Y-78626433D01*
X54373850Y-77217268D02*
X54667148Y-77156583D01*
X54872863Y-77349479D02*
X54864012Y-77357846D01*
X59357609Y-80007359D02*
X59331952Y-80087072D01*
X54055721Y-76966207D02*
X54033829Y-76973666D01*
X56296235Y-79225465D02*
X56220809Y-79134056D01*
X55279455Y-79626818D02*
X55283065Y-79605498D01*
X55632927Y-78767193D02*
X55633527Y-78878278D01*
X55517082Y-78639348D02*
X55632327Y-78656108D01*
X58722252Y-79507739D02*
X58672439Y-79533503D01*
X57888806Y-79289327D02*
X57865121Y-79368741D01*
X55328465Y-79472018D02*
X55383336Y-79401962D01*
X54349668Y-76887940D02*
X54279945Y-76908884D01*
X54048823Y-77284252D02*
X54053962Y-77284379D01*
X54894715Y-75084270D02*
X54608641Y-75883795D01*
X54608318Y-77383000D02*
X54613695Y-77375067D01*
X54933975Y-78364190D02*
X55004238Y-78374350D01*
X56283323Y-80488783D02*
X56293938Y-80476115D01*
X54743522Y-79632004D02*
X55010951Y-79632004D01*
X55430741Y-78444192D02*
X55430740Y-78444191D01*
X54724179Y-79624443D02*
X54744027Y-79615870D01*
X58676720Y-79305399D02*
X58724293Y-79316942D01*
X55409570Y-77506683D02*
X55382615Y-77493849D01*
X54009911Y-76984747D02*
X54003861Y-76998398D01*
X55083125Y-78392993D02*
X55221379Y-78412689D01*
X57979098Y-79794862D02*
X57932040Y-79836780D01*
X57729061Y-80761401D02*
X58004971Y-80761401D01*
X54707520Y-76807514D02*
X54709180Y-76638897D01*
X54004711Y-78600196D02*
X54014377Y-78611260D01*
X57280807Y-80133889D02*
X57103369Y-80136769D01*
X54941456Y-76842207D02*
X54903706Y-76835466D01*
X57388901Y-78926706D02*
X57101803Y-78926740D01*
X59847862Y-80209755D02*
X59844675Y-80155447D01*
X55920988Y-78932833D02*
X55799654Y-78897276D01*
X55657998Y-77881961D02*
X55661258Y-77353666D01*
X57388962Y-80519368D02*
X57421057Y-80640384D01*
X54210221Y-76927374D02*
X54209546Y-76915733D01*
X60897837Y-79843964D02*
X60897837Y-78926529D01*
X55320722Y-76872439D02*
X55310720Y-76896064D01*
X55310720Y-76896064D02*
X55143242Y-76871778D01*
X55383336Y-79401962D02*
X55455686Y-79354215D01*
X57834356Y-79984877D02*
X57816297Y-80041683D01*
X55430541Y-76548054D02*
X55176561Y-75811064D01*
X55259462Y-77197955D02*
X54806592Y-77129502D01*
X54083432Y-77277890D02*
X54373850Y-77217268D01*
X54343886Y-77547505D02*
X54338645Y-77968973D01*
X59580820Y-79770503D02*
X59604106Y-79787790D01*
X54541940Y-77482151D02*
X54525031Y-77497076D01*
X55907955Y-79778364D02*
X55904431Y-79999634D01*
X60223052Y-79993879D02*
X60333111Y-79993867D01*
X54082277Y-77126506D02*
X54082277Y-77004297D01*
X60181564Y-80334354D02*
X60004358Y-80329548D01*
X55482375Y-78457669D02*
X55486882Y-78468547D01*
X54956941Y-77438615D02*
X54928646Y-77440073D01*
X54813977Y-76560416D02*
X54725702Y-76286821D01*
X54338645Y-77968973D02*
X54338015Y-78379246D01*
X55309937Y-77507113D02*
X55283480Y-77536531D01*
X59441589Y-79149829D02*
X59407596Y-79219946D01*
X54744027Y-79615870D02*
X54745038Y-79623937D01*
X54812053Y-80341408D02*
X54865662Y-80445899D01*
X54017277Y-77018076D02*
X54037869Y-77017241D01*
X54279945Y-76908884D02*
X54210221Y-76927374D01*
X59252838Y-80520082D02*
X59293990Y-80456771D01*
X54788307Y-76819787D02*
X54788307Y-76819787D01*
X54397492Y-76877353D02*
X54393457Y-76764684D01*
X54054128Y-77293759D02*
X54053413Y-77304778D01*
X54748387Y-79583106D02*
X54728464Y-79592599D01*
X58826815Y-80203034D02*
X58818432Y-80231880D01*
X55621313Y-77348721D02*
X55625218Y-78196746D01*
X55068781Y-77531065D02*
X55068780Y-77956895D01*
X59906590Y-79497299D02*
X59914833Y-79438595D01*
X54860183Y-77498796D02*
X54860183Y-77922258D01*
X54507540Y-77535675D02*
X54506925Y-77942261D01*
X59678001Y-78978355D02*
X59610364Y-79005788D01*
X59975243Y-78929505D02*
X59842191Y-78940696D01*
X55735130Y-80326357D02*
X55690948Y-80345166D01*
X55221950Y-77505329D02*
X55206852Y-77486827D01*
X56293938Y-80476115D02*
X56247516Y-80617072D01*
X57932040Y-79836780D02*
X57892230Y-79882423D01*
X59418779Y-79568449D02*
X59474183Y-79663652D01*
X54082697Y-77286655D02*
X54083432Y-77277890D01*
X58377572Y-80172309D02*
X58408854Y-80148925D01*
X54350808Y-78522101D02*
X54082484Y-78562294D01*
X55617629Y-77283289D02*
X55619649Y-77291658D01*
X54756289Y-79548993D02*
X54748387Y-79583106D01*
X55473641Y-80348096D02*
X55427896Y-80326435D01*
X58340230Y-80261233D02*
X58342443Y-80229800D01*
X57996517Y-79104497D02*
X57951556Y-79164109D01*
X54345003Y-76679425D02*
X54365747Y-76679425D01*
X54080503Y-78602835D02*
X54376168Y-78558461D01*
X55155788Y-77232393D02*
X55155788Y-77232393D01*
X55544203Y-79329993D02*
X55604895Y-79328384D01*
X54506925Y-77942261D02*
X54507747Y-78319912D01*
X55176561Y-75811064D02*
X54923910Y-75074064D01*
X58732425Y-80803164D02*
X58852877Y-80779630D01*
X54087463Y-77002062D02*
X54327749Y-76937398D01*
X59943335Y-80314721D02*
X59897314Y-80290121D01*
X55465336Y-78886929D02*
X55331174Y-78910708D01*
X56814705Y-78926775D02*
X56643110Y-79438355D01*
X54667148Y-77156583D02*
X54670029Y-77162032D01*
X54743847Y-80088373D02*
X54770260Y-80217969D01*
X59661151Y-80707455D02*
X59746118Y-80731567D01*
X54229636Y-77551907D02*
X54205048Y-77558054D01*
X54376168Y-78558461D02*
X54674946Y-78515281D01*
D11*
X81951000Y-94421000D02*
G75*
G02*
X78649000Y-94421000I-1651000J0D01*
G01*
X78649000Y-94421000D02*
G75*
G02*
X81951000Y-94421000I1651000J0D01*
G01*
D10*
X58408854Y-80148925D02*
X58499399Y-80108849D01*
X54512864Y-77519972D02*
X54507540Y-77535675D01*
X58780187Y-79364270D02*
X58787701Y-79406142D01*
X53986104Y-77273332D02*
X53984168Y-77284440D01*
X54679641Y-80768316D02*
X54377618Y-80768316D01*
X55863919Y-79542843D02*
X55892274Y-79649690D01*
X59852248Y-80102987D02*
X59877890Y-80057000D01*
X55676084Y-77260831D02*
X55648425Y-77256811D01*
X56139794Y-79057586D02*
X56034645Y-78986375D01*
X59585196Y-80676133D02*
X59661151Y-80707455D01*
X54982916Y-77445860D02*
X54956941Y-77438615D01*
X55026799Y-77948474D02*
X55025164Y-77515848D01*
X58723084Y-80348880D02*
X58645849Y-80379177D01*
X55419262Y-78445867D02*
X55430741Y-78444192D01*
X59604106Y-79787790D02*
X59581973Y-79795357D01*
X55283480Y-77536531D02*
X55276222Y-77550150D01*
X55661055Y-78659924D02*
X55667892Y-78658559D01*
X54923910Y-75074064D02*
X54912064Y-75072834D01*
X56924928Y-80136769D02*
X57014413Y-79812355D01*
X54082695Y-77286655D02*
X54082697Y-77286655D01*
X54370510Y-77514848D02*
X54343886Y-77547505D01*
X54617859Y-77518106D02*
X54603418Y-77497153D01*
X55647272Y-77295706D02*
X55648303Y-77288985D01*
X56761757Y-80756214D02*
X56794859Y-80635783D01*
X54349329Y-78387081D02*
X54395748Y-78377652D01*
X55708975Y-77267141D02*
X55676084Y-77260831D01*
X58645849Y-80379177D02*
X58554904Y-80387138D01*
X55440056Y-77564486D02*
X55429062Y-77530501D01*
X54005481Y-78583716D02*
X54004711Y-78600196D01*
D11*
X40951000Y-40421000D02*
G75*
G02*
X37649000Y-40421000I-1651000J0D01*
G01*
X37649000Y-40421000D02*
G75*
G02*
X40951000Y-40421000I1651000J0D01*
G01*
D10*
X55573777Y-76665863D02*
X55508752Y-76388289D01*
X54671889Y-76954631D02*
X54671109Y-77090828D01*
X54235661Y-78402431D02*
X54235664Y-78402432D01*
X54014782Y-77355033D02*
X54047458Y-77353483D01*
X59325842Y-80391021D02*
X59335959Y-80371949D01*
X58757640Y-79479639D02*
X58722252Y-79507739D01*
X54377618Y-80768316D02*
X54075594Y-80768316D01*
X55003151Y-77461381D02*
X54982916Y-77445860D01*
X55017337Y-77484827D02*
X55003151Y-77461381D01*
X60004358Y-80329551D02*
X59943335Y-80314721D01*
X58232945Y-79664882D02*
X58094946Y-79722212D01*
X58476792Y-80378353D02*
X58416623Y-80358182D01*
X55303617Y-80155077D02*
X55288728Y-80094895D01*
X54251855Y-77555787D02*
X54229636Y-77551907D01*
X54007319Y-77010311D02*
X54017277Y-77018076D01*
X54082228Y-76955418D02*
X54082227Y-76955417D01*
X56470998Y-79949420D02*
X56472918Y-79897055D01*
X55276222Y-77984520D02*
X55280662Y-78422909D01*
X54365747Y-76679425D02*
X54365547Y-76764131D01*
X54585023Y-77483201D02*
X54562415Y-77478699D01*
X54076658Y-80151177D02*
X54079113Y-79068437D01*
X55658776Y-79334278D02*
X55718582Y-79356967D01*
X55073329Y-78387277D02*
X55083125Y-78392993D01*
X54706908Y-77156232D02*
X54710943Y-77146374D01*
X54872479Y-77379799D02*
X55171343Y-77421579D01*
X54669619Y-77118487D02*
X54378831Y-77183350D01*
X55283065Y-79605498D02*
X55292384Y-79563171D01*
X55482114Y-77463782D02*
X55480589Y-77960302D01*
X55799654Y-78897276D02*
X55671474Y-78880017D01*
X57946240Y-80587381D02*
X57967380Y-80604866D01*
X55481464Y-76580294D02*
X55498783Y-76465556D01*
X55143242Y-76871778D02*
X55143243Y-76871779D01*
X55647235Y-76986156D02*
X55662026Y-76987536D01*
X59386657Y-79464890D02*
X59418779Y-79568449D01*
X53990774Y-77292763D02*
X54048823Y-77284252D01*
X54056505Y-77132212D02*
X54054140Y-77252238D01*
D11*
X55751000Y-87730000D02*
G75*
G02*
X52449000Y-87730000I-1651000J0D01*
G01*
X52449000Y-87730000D02*
G75*
G02*
X55751000Y-87730000I1651000J0D01*
G01*
D10*
X54179580Y-76930467D02*
X54133010Y-76948135D01*
X55371634Y-76723511D02*
X55320722Y-76872439D01*
X54882166Y-79217204D02*
X54827892Y-79315870D01*
X59963509Y-80009506D02*
X60019635Y-80000005D01*
X59865692Y-80255287D02*
X59847862Y-80209755D01*
D11*
X81951000Y-40421000D02*
G75*
G02*
X78649000Y-40421000I-1651000J0D01*
G01*
X78649000Y-40421000D02*
G75*
G02*
X81951000Y-40421000I1651000J0D01*
G01*
D10*
X54444727Y-78364873D02*
X54448757Y-77961148D01*
X54082227Y-76955417D02*
X54137038Y-76743314D01*
X55280682Y-80051494D02*
X55009697Y-80051494D01*
X54669689Y-77213051D02*
X54668784Y-77844126D01*
X58585837Y-78879223D02*
X58459476Y-78883532D01*
X54286264Y-77602517D02*
X54281119Y-77589814D01*
X55607615Y-76939418D02*
X55601007Y-76939074D01*
X55234731Y-77971890D02*
X55233388Y-77571578D01*
X54082484Y-78562294D02*
X54080679Y-77953704D01*
X54615862Y-76569920D02*
X54539042Y-76838861D01*
X53984168Y-77284440D02*
X53990774Y-77292763D01*
X54127606Y-76671399D02*
X54056421Y-76951354D01*
X54364241Y-76646831D02*
X54865106Y-75253351D01*
X55649632Y-77303451D02*
X55647272Y-77295706D01*
X55480589Y-77960302D02*
X55480217Y-78401108D01*
X59293990Y-80456771D02*
X59325842Y-80391021D01*
X55276222Y-77550150D02*
X55276222Y-77984520D01*
X55233388Y-77571578D02*
X55229626Y-77522053D01*
X54899394Y-75073658D02*
X54894715Y-75084270D01*
X54015322Y-78573625D02*
X54005481Y-78583716D01*
X56466513Y-79700000D02*
X56444073Y-79567699D01*
X58780039Y-79448295D02*
X58757640Y-79479639D01*
X57848021Y-79459136D02*
X58115137Y-79459136D01*
X54178238Y-78373485D02*
X54182832Y-78408982D01*
X54520846Y-78359454D02*
X54571981Y-78350469D01*
X58173695Y-78964924D02*
X58108181Y-79004372D01*
X54327749Y-76937398D02*
X54617014Y-76860529D01*
X58818432Y-80231880D02*
X58782111Y-80298898D01*
X60440851Y-80761399D02*
X60897837Y-80761399D01*
X58828122Y-80196695D02*
X58826815Y-80203034D01*
X54691155Y-76302551D02*
X54615862Y-76569920D01*
X54082842Y-77344193D02*
X54182607Y-77321270D01*
X54137038Y-76743314D02*
X54192599Y-76542957D01*
X54728464Y-79592599D02*
X54708641Y-79600415D01*
X54740027Y-80060138D02*
X54743847Y-80088373D01*
X59610364Y-79005788D02*
X59551542Y-79039234D01*
X54442123Y-77547199D02*
X54428599Y-77527173D01*
X54209546Y-76915733D02*
X54215887Y-76704739D01*
X59298299Y-79657917D02*
X59324031Y-79549022D01*
X54014377Y-78611260D02*
X54035484Y-78612555D01*
X58004971Y-80761401D02*
X57976447Y-80676696D01*
X55658955Y-76947239D02*
X55638734Y-76943639D01*
X54902419Y-77449586D02*
X54880520Y-77465941D01*
X54706908Y-78520652D02*
X54713247Y-78521932D01*
X55097530Y-80685794D02*
X55176275Y-80729451D01*
X59285240Y-79233708D02*
X59240281Y-79151032D01*
X59551542Y-79039234D02*
X59489318Y-79089994D01*
X54770868Y-78488490D02*
X54706907Y-78478728D01*
X54571977Y-78350468D02*
X54619829Y-78336575D01*
X57103369Y-80136769D02*
X56924928Y-80136769D01*
X57859667Y-79931790D02*
X57834356Y-79984877D01*
X54623384Y-77930102D02*
X54622784Y-77528760D01*
X58194973Y-80744541D02*
X58341254Y-80785772D01*
X59396675Y-79936029D02*
X59357609Y-80007359D01*
X54865662Y-80445899D02*
X54932095Y-80539575D01*
X55176275Y-80729451D02*
X55260878Y-80763928D01*
X55100615Y-77485751D02*
X55075509Y-77516845D01*
X54192468Y-78410131D02*
X54235661Y-78402431D01*
X58672439Y-79533503D02*
X58606766Y-79557841D01*
X54668784Y-77844126D02*
X54667074Y-78474421D01*
X54080672Y-77953708D02*
X54082842Y-77344193D01*
X54713246Y-77215423D02*
X55036508Y-77262649D01*
X54338015Y-78379246D02*
X54342935Y-78383281D01*
X56357777Y-79327207D02*
X56296235Y-79225465D01*
X54179167Y-77608279D02*
X54176797Y-78011700D01*
X54428599Y-77527173D02*
X54411379Y-77515048D01*
X54235664Y-78402432D02*
X54277277Y-78392817D01*
X55259459Y-77197958D02*
X55259462Y-77197955D01*
D12*
X47559305Y-62648538D02*
X47616448Y-62619967D01*
X47616448Y-62619967D02*
X47702162Y-62619967D01*
X47702162Y-62619967D02*
X47787876Y-62648538D01*
X47787876Y-62648538D02*
X47845019Y-62705681D01*
X47845019Y-62705681D02*
X47873590Y-62762824D01*
X47873590Y-62762824D02*
X47902162Y-62877110D01*
X47902162Y-62877110D02*
X47902162Y-62962824D01*
X47902162Y-62962824D02*
X47873590Y-63077110D01*
X47873590Y-63077110D02*
X47845019Y-63134253D01*
X47845019Y-63134253D02*
X47787876Y-63191396D01*
X47787876Y-63191396D02*
X47702162Y-63219967D01*
X47702162Y-63219967D02*
X47645019Y-63219967D01*
X47645019Y-63219967D02*
X47559305Y-63191396D01*
X47559305Y-63191396D02*
X47530733Y-63162824D01*
X47530733Y-63162824D02*
X47530733Y-62962824D01*
X47530733Y-62962824D02*
X47645019Y-62962824D01*
X47273590Y-63219967D02*
X47273590Y-62619967D01*
X47273590Y-62619967D02*
X47045019Y-62619967D01*
X47045019Y-62619967D02*
X46987876Y-62648538D01*
X46987876Y-62648538D02*
X46959305Y-62677110D01*
X46959305Y-62677110D02*
X46930733Y-62734253D01*
X46930733Y-62734253D02*
X46930733Y-62819967D01*
X46930733Y-62819967D02*
X46959305Y-62877110D01*
X46959305Y-62877110D02*
X46987876Y-62905681D01*
X46987876Y-62905681D02*
X47045019Y-62934253D01*
X47045019Y-62934253D02*
X47273590Y-62934253D01*
X46730733Y-62619967D02*
X46330733Y-62619967D01*
X46330733Y-62619967D02*
X46587876Y-63219967D01*
X47859305Y-77948538D02*
X47916448Y-77919967D01*
X47916448Y-77919967D02*
X48002162Y-77919967D01*
X48002162Y-77919967D02*
X48087876Y-77948538D01*
X48087876Y-77948538D02*
X48145019Y-78005681D01*
X48145019Y-78005681D02*
X48173590Y-78062824D01*
X48173590Y-78062824D02*
X48202162Y-78177110D01*
X48202162Y-78177110D02*
X48202162Y-78262824D01*
X48202162Y-78262824D02*
X48173590Y-78377110D01*
X48173590Y-78377110D02*
X48145019Y-78434253D01*
X48145019Y-78434253D02*
X48087876Y-78491396D01*
X48087876Y-78491396D02*
X48002162Y-78519967D01*
X48002162Y-78519967D02*
X47945019Y-78519967D01*
X47945019Y-78519967D02*
X47859305Y-78491396D01*
X47859305Y-78491396D02*
X47830733Y-78462824D01*
X47830733Y-78462824D02*
X47830733Y-78262824D01*
X47830733Y-78262824D02*
X47945019Y-78262824D01*
X47573590Y-78519967D02*
X47573590Y-77919967D01*
X47573590Y-77919967D02*
X47345019Y-77919967D01*
X47345019Y-77919967D02*
X47287876Y-77948538D01*
X47287876Y-77948538D02*
X47259305Y-77977110D01*
X47259305Y-77977110D02*
X47230733Y-78034253D01*
X47230733Y-78034253D02*
X47230733Y-78119967D01*
X47230733Y-78119967D02*
X47259305Y-78177110D01*
X47259305Y-78177110D02*
X47287876Y-78205681D01*
X47287876Y-78205681D02*
X47345019Y-78234253D01*
X47345019Y-78234253D02*
X47573590Y-78234253D01*
X46659305Y-78519967D02*
X47002162Y-78519967D01*
X46830733Y-78519967D02*
X46830733Y-77919967D01*
X46830733Y-77919967D02*
X46887876Y-78005681D01*
X46887876Y-78005681D02*
X46945019Y-78062824D01*
X46945019Y-78062824D02*
X47002162Y-78091396D01*
X46430733Y-77977110D02*
X46402161Y-77948538D01*
X46402161Y-77948538D02*
X46345019Y-77919967D01*
X46345019Y-77919967D02*
X46202161Y-77919967D01*
X46202161Y-77919967D02*
X46145019Y-77948538D01*
X46145019Y-77948538D02*
X46116447Y-77977110D01*
X46116447Y-77977110D02*
X46087876Y-78034253D01*
X46087876Y-78034253D02*
X46087876Y-78091396D01*
X46087876Y-78091396D02*
X46116447Y-78177110D01*
X46116447Y-78177110D02*
X46459304Y-78519967D01*
X46459304Y-78519967D02*
X46087876Y-78519967D01*
X47559305Y-57648538D02*
X47616448Y-57619967D01*
X47616448Y-57619967D02*
X47702162Y-57619967D01*
X47702162Y-57619967D02*
X47787876Y-57648538D01*
X47787876Y-57648538D02*
X47845019Y-57705681D01*
X47845019Y-57705681D02*
X47873590Y-57762824D01*
X47873590Y-57762824D02*
X47902162Y-57877110D01*
X47902162Y-57877110D02*
X47902162Y-57962824D01*
X47902162Y-57962824D02*
X47873590Y-58077110D01*
X47873590Y-58077110D02*
X47845019Y-58134253D01*
X47845019Y-58134253D02*
X47787876Y-58191396D01*
X47787876Y-58191396D02*
X47702162Y-58219967D01*
X47702162Y-58219967D02*
X47645019Y-58219967D01*
X47645019Y-58219967D02*
X47559305Y-58191396D01*
X47559305Y-58191396D02*
X47530733Y-58162824D01*
X47530733Y-58162824D02*
X47530733Y-57962824D01*
X47530733Y-57962824D02*
X47645019Y-57962824D01*
X47273590Y-58219967D02*
X47273590Y-57619967D01*
X47273590Y-57619967D02*
X46930733Y-58219967D01*
X46930733Y-58219967D02*
X46930733Y-57619967D01*
X46645019Y-58219967D02*
X46645019Y-57619967D01*
X46645019Y-57619967D02*
X46502162Y-57619967D01*
X46502162Y-57619967D02*
X46416448Y-57648538D01*
X46416448Y-57648538D02*
X46359305Y-57705681D01*
X46359305Y-57705681D02*
X46330734Y-57762824D01*
X46330734Y-57762824D02*
X46302162Y-57877110D01*
X46302162Y-57877110D02*
X46302162Y-57962824D01*
X46302162Y-57962824D02*
X46330734Y-58077110D01*
X46330734Y-58077110D02*
X46359305Y-58134253D01*
X46359305Y-58134253D02*
X46416448Y-58191396D01*
X46416448Y-58191396D02*
X46502162Y-58219967D01*
X46502162Y-58219967D02*
X46645019Y-58219967D01*
X60065691Y-92359305D02*
X60094262Y-92416448D01*
X60094262Y-92416448D02*
X60094262Y-92502162D01*
X60094262Y-92502162D02*
X60065691Y-92587876D01*
X60065691Y-92587876D02*
X60008548Y-92645019D01*
X60008548Y-92645019D02*
X59951405Y-92673590D01*
X59951405Y-92673590D02*
X59837119Y-92702162D01*
X59837119Y-92702162D02*
X59751405Y-92702162D01*
X59751405Y-92702162D02*
X59637119Y-92673590D01*
X59637119Y-92673590D02*
X59579976Y-92645019D01*
X59579976Y-92645019D02*
X59522834Y-92587876D01*
X59522834Y-92587876D02*
X59494262Y-92502162D01*
X59494262Y-92502162D02*
X59494262Y-92445019D01*
X59494262Y-92445019D02*
X59522834Y-92359305D01*
X59522834Y-92359305D02*
X59551405Y-92330733D01*
X59551405Y-92330733D02*
X59751405Y-92330733D01*
X59751405Y-92330733D02*
X59751405Y-92445019D01*
X59494262Y-92073590D02*
X60094262Y-92073590D01*
X60094262Y-92073590D02*
X59494262Y-91730733D01*
X59494262Y-91730733D02*
X60094262Y-91730733D01*
X59494262Y-91445019D02*
X60094262Y-91445019D01*
X60094262Y-91445019D02*
X60094262Y-91302162D01*
X60094262Y-91302162D02*
X60065691Y-91216448D01*
X60065691Y-91216448D02*
X60008548Y-91159305D01*
X60008548Y-91159305D02*
X59951405Y-91130734D01*
X59951405Y-91130734D02*
X59837119Y-91102162D01*
X59837119Y-91102162D02*
X59751405Y-91102162D01*
X59751405Y-91102162D02*
X59637119Y-91130734D01*
X59637119Y-91130734D02*
X59579976Y-91159305D01*
X59579976Y-91159305D02*
X59522834Y-91216448D01*
X59522834Y-91216448D02*
X59494262Y-91302162D01*
X59494262Y-91302162D02*
X59494262Y-91445019D01*
X47559305Y-42348538D02*
X47616448Y-42319967D01*
X47616448Y-42319967D02*
X47702162Y-42319967D01*
X47702162Y-42319967D02*
X47787876Y-42348538D01*
X47787876Y-42348538D02*
X47845019Y-42405681D01*
X47845019Y-42405681D02*
X47873590Y-42462824D01*
X47873590Y-42462824D02*
X47902162Y-42577110D01*
X47902162Y-42577110D02*
X47902162Y-42662824D01*
X47902162Y-42662824D02*
X47873590Y-42777110D01*
X47873590Y-42777110D02*
X47845019Y-42834253D01*
X47845019Y-42834253D02*
X47787876Y-42891396D01*
X47787876Y-42891396D02*
X47702162Y-42919967D01*
X47702162Y-42919967D02*
X47645019Y-42919967D01*
X47645019Y-42919967D02*
X47559305Y-42891396D01*
X47559305Y-42891396D02*
X47530733Y-42862824D01*
X47530733Y-42862824D02*
X47530733Y-42662824D01*
X47530733Y-42662824D02*
X47645019Y-42662824D01*
X47273590Y-42919967D02*
X47273590Y-42319967D01*
X47273590Y-42319967D02*
X47045019Y-42319967D01*
X47045019Y-42319967D02*
X46987876Y-42348538D01*
X46987876Y-42348538D02*
X46959305Y-42377110D01*
X46959305Y-42377110D02*
X46930733Y-42434253D01*
X46930733Y-42434253D02*
X46930733Y-42519967D01*
X46930733Y-42519967D02*
X46959305Y-42577110D01*
X46959305Y-42577110D02*
X46987876Y-42605681D01*
X46987876Y-42605681D02*
X47045019Y-42634253D01*
X47045019Y-42634253D02*
X47273590Y-42634253D01*
X46359305Y-42919967D02*
X46702162Y-42919967D01*
X46530733Y-42919967D02*
X46530733Y-42319967D01*
X46530733Y-42319967D02*
X46587876Y-42405681D01*
X46587876Y-42405681D02*
X46645019Y-42462824D01*
X46645019Y-42462824D02*
X46702162Y-42491396D01*
X73163163Y-80448538D02*
X73220306Y-80419967D01*
X73220306Y-80419967D02*
X73306020Y-80419967D01*
X73306020Y-80419967D02*
X73391734Y-80448538D01*
X73391734Y-80448538D02*
X73448877Y-80505681D01*
X73448877Y-80505681D02*
X73477448Y-80562824D01*
X73477448Y-80562824D02*
X73506020Y-80677110D01*
X73506020Y-80677110D02*
X73506020Y-80762824D01*
X73506020Y-80762824D02*
X73477448Y-80877110D01*
X73477448Y-80877110D02*
X73448877Y-80934253D01*
X73448877Y-80934253D02*
X73391734Y-80991396D01*
X73391734Y-80991396D02*
X73306020Y-81019967D01*
X73306020Y-81019967D02*
X73248877Y-81019967D01*
X73248877Y-81019967D02*
X73163163Y-80991396D01*
X73163163Y-80991396D02*
X73134591Y-80962824D01*
X73134591Y-80962824D02*
X73134591Y-80762824D01*
X73134591Y-80762824D02*
X73248877Y-80762824D01*
X72877448Y-81019967D02*
X72877448Y-80419967D01*
X72877448Y-80419967D02*
X72648877Y-80419967D01*
X72648877Y-80419967D02*
X72591734Y-80448538D01*
X72591734Y-80448538D02*
X72563163Y-80477110D01*
X72563163Y-80477110D02*
X72534591Y-80534253D01*
X72534591Y-80534253D02*
X72534591Y-80619967D01*
X72534591Y-80619967D02*
X72563163Y-80677110D01*
X72563163Y-80677110D02*
X72591734Y-80705681D01*
X72591734Y-80705681D02*
X72648877Y-80734253D01*
X72648877Y-80734253D02*
X72877448Y-80734253D01*
X71963163Y-81019967D02*
X72306020Y-81019967D01*
X72134591Y-81019967D02*
X72134591Y-80419967D01*
X72134591Y-80419967D02*
X72191734Y-80505681D01*
X72191734Y-80505681D02*
X72248877Y-80562824D01*
X72248877Y-80562824D02*
X72306020Y-80591396D01*
X71620305Y-80677110D02*
X71677448Y-80648538D01*
X71677448Y-80648538D02*
X71706019Y-80619967D01*
X71706019Y-80619967D02*
X71734591Y-80562824D01*
X71734591Y-80562824D02*
X71734591Y-80534253D01*
X71734591Y-80534253D02*
X71706019Y-80477110D01*
X71706019Y-80477110D02*
X71677448Y-80448538D01*
X71677448Y-80448538D02*
X71620305Y-80419967D01*
X71620305Y-80419967D02*
X71506019Y-80419967D01*
X71506019Y-80419967D02*
X71448877Y-80448538D01*
X71448877Y-80448538D02*
X71420305Y-80477110D01*
X71420305Y-80477110D02*
X71391734Y-80534253D01*
X71391734Y-80534253D02*
X71391734Y-80562824D01*
X71391734Y-80562824D02*
X71420305Y-80619967D01*
X71420305Y-80619967D02*
X71448877Y-80648538D01*
X71448877Y-80648538D02*
X71506019Y-80677110D01*
X71506019Y-80677110D02*
X71620305Y-80677110D01*
X71620305Y-80677110D02*
X71677448Y-80705681D01*
X71677448Y-80705681D02*
X71706019Y-80734253D01*
X71706019Y-80734253D02*
X71734591Y-80791396D01*
X71734591Y-80791396D02*
X71734591Y-80905681D01*
X71734591Y-80905681D02*
X71706019Y-80962824D01*
X71706019Y-80962824D02*
X71677448Y-80991396D01*
X71677448Y-80991396D02*
X71620305Y-81019967D01*
X71620305Y-81019967D02*
X71506019Y-81019967D01*
X71506019Y-81019967D02*
X71448877Y-80991396D01*
X71448877Y-80991396D02*
X71420305Y-80962824D01*
X71420305Y-80962824D02*
X71391734Y-80905681D01*
X71391734Y-80905681D02*
X71391734Y-80791396D01*
X71391734Y-80791396D02*
X71420305Y-80734253D01*
X71420305Y-80734253D02*
X71448877Y-80705681D01*
X71448877Y-80705681D02*
X71506019Y-80677110D01*
X56922834Y-92702162D02*
X56894262Y-92616448D01*
X56894262Y-92616448D02*
X56894262Y-92473590D01*
X56894262Y-92473590D02*
X56922834Y-92416448D01*
X56922834Y-92416448D02*
X56951405Y-92387876D01*
X56951405Y-92387876D02*
X57008548Y-92359305D01*
X57008548Y-92359305D02*
X57065691Y-92359305D01*
X57065691Y-92359305D02*
X57122834Y-92387876D01*
X57122834Y-92387876D02*
X57151405Y-92416448D01*
X57151405Y-92416448D02*
X57179976Y-92473590D01*
X57179976Y-92473590D02*
X57208548Y-92587876D01*
X57208548Y-92587876D02*
X57237119Y-92645019D01*
X57237119Y-92645019D02*
X57265691Y-92673590D01*
X57265691Y-92673590D02*
X57322834Y-92702162D01*
X57322834Y-92702162D02*
X57379976Y-92702162D01*
X57379976Y-92702162D02*
X57437119Y-92673590D01*
X57437119Y-92673590D02*
X57465691Y-92645019D01*
X57465691Y-92645019D02*
X57494262Y-92587876D01*
X57494262Y-92587876D02*
X57494262Y-92445019D01*
X57494262Y-92445019D02*
X57465691Y-92359305D01*
X57494262Y-92159304D02*
X56894262Y-92016447D01*
X56894262Y-92016447D02*
X57322834Y-91902161D01*
X57322834Y-91902161D02*
X56894262Y-91787876D01*
X56894262Y-91787876D02*
X57494262Y-91645019D01*
X56951405Y-91073590D02*
X56922834Y-91102162D01*
X56922834Y-91102162D02*
X56894262Y-91187876D01*
X56894262Y-91187876D02*
X56894262Y-91245019D01*
X56894262Y-91245019D02*
X56922834Y-91330733D01*
X56922834Y-91330733D02*
X56979976Y-91387876D01*
X56979976Y-91387876D02*
X57037119Y-91416447D01*
X57037119Y-91416447D02*
X57151405Y-91445019D01*
X57151405Y-91445019D02*
X57237119Y-91445019D01*
X57237119Y-91445019D02*
X57351405Y-91416447D01*
X57351405Y-91416447D02*
X57408548Y-91387876D01*
X57408548Y-91387876D02*
X57465691Y-91330733D01*
X57465691Y-91330733D02*
X57494262Y-91245019D01*
X57494262Y-91245019D02*
X57494262Y-91187876D01*
X57494262Y-91187876D02*
X57465691Y-91102162D01*
X57465691Y-91102162D02*
X57437119Y-91073590D01*
X56894262Y-90530733D02*
X56894262Y-90816447D01*
X56894262Y-90816447D02*
X57494262Y-90816447D01*
X56894262Y-90330733D02*
X57494262Y-90330733D01*
X56894262Y-89987876D02*
X57237119Y-90245019D01*
X57494262Y-89987876D02*
X57151405Y-90330733D01*
X47559305Y-82948538D02*
X47616448Y-82919967D01*
X47616448Y-82919967D02*
X47702162Y-82919967D01*
X47702162Y-82919967D02*
X47787876Y-82948538D01*
X47787876Y-82948538D02*
X47845019Y-83005681D01*
X47845019Y-83005681D02*
X47873590Y-83062824D01*
X47873590Y-83062824D02*
X47902162Y-83177110D01*
X47902162Y-83177110D02*
X47902162Y-83262824D01*
X47902162Y-83262824D02*
X47873590Y-83377110D01*
X47873590Y-83377110D02*
X47845019Y-83434253D01*
X47845019Y-83434253D02*
X47787876Y-83491396D01*
X47787876Y-83491396D02*
X47702162Y-83519967D01*
X47702162Y-83519967D02*
X47645019Y-83519967D01*
X47645019Y-83519967D02*
X47559305Y-83491396D01*
X47559305Y-83491396D02*
X47530733Y-83462824D01*
X47530733Y-83462824D02*
X47530733Y-83262824D01*
X47530733Y-83262824D02*
X47645019Y-83262824D01*
X47273590Y-83519967D02*
X47273590Y-82919967D01*
X47273590Y-82919967D02*
X46930733Y-83519967D01*
X46930733Y-83519967D02*
X46930733Y-82919967D01*
X46645019Y-83519967D02*
X46645019Y-82919967D01*
X46645019Y-82919967D02*
X46502162Y-82919967D01*
X46502162Y-82919967D02*
X46416448Y-82948538D01*
X46416448Y-82948538D02*
X46359305Y-83005681D01*
X46359305Y-83005681D02*
X46330734Y-83062824D01*
X46330734Y-83062824D02*
X46302162Y-83177110D01*
X46302162Y-83177110D02*
X46302162Y-83262824D01*
X46302162Y-83262824D02*
X46330734Y-83377110D01*
X46330734Y-83377110D02*
X46359305Y-83434253D01*
X46359305Y-83434253D02*
X46416448Y-83491396D01*
X46416448Y-83491396D02*
X46502162Y-83519967D01*
X46502162Y-83519967D02*
X46645019Y-83519967D01*
X47559305Y-49948538D02*
X47616448Y-49919967D01*
X47616448Y-49919967D02*
X47702162Y-49919967D01*
X47702162Y-49919967D02*
X47787876Y-49948538D01*
X47787876Y-49948538D02*
X47845019Y-50005681D01*
X47845019Y-50005681D02*
X47873590Y-50062824D01*
X47873590Y-50062824D02*
X47902162Y-50177110D01*
X47902162Y-50177110D02*
X47902162Y-50262824D01*
X47902162Y-50262824D02*
X47873590Y-50377110D01*
X47873590Y-50377110D02*
X47845019Y-50434253D01*
X47845019Y-50434253D02*
X47787876Y-50491396D01*
X47787876Y-50491396D02*
X47702162Y-50519967D01*
X47702162Y-50519967D02*
X47645019Y-50519967D01*
X47645019Y-50519967D02*
X47559305Y-50491396D01*
X47559305Y-50491396D02*
X47530733Y-50462824D01*
X47530733Y-50462824D02*
X47530733Y-50262824D01*
X47530733Y-50262824D02*
X47645019Y-50262824D01*
X47273590Y-50519967D02*
X47273590Y-49919967D01*
X47273590Y-49919967D02*
X47045019Y-49919967D01*
X47045019Y-49919967D02*
X46987876Y-49948538D01*
X46987876Y-49948538D02*
X46959305Y-49977110D01*
X46959305Y-49977110D02*
X46930733Y-50034253D01*
X46930733Y-50034253D02*
X46930733Y-50119967D01*
X46930733Y-50119967D02*
X46959305Y-50177110D01*
X46959305Y-50177110D02*
X46987876Y-50205681D01*
X46987876Y-50205681D02*
X47045019Y-50234253D01*
X47045019Y-50234253D02*
X47273590Y-50234253D01*
X46730733Y-49919967D02*
X46359305Y-49919967D01*
X46359305Y-49919967D02*
X46559305Y-50148538D01*
X46559305Y-50148538D02*
X46473590Y-50148538D01*
X46473590Y-50148538D02*
X46416448Y-50177110D01*
X46416448Y-50177110D02*
X46387876Y-50205681D01*
X46387876Y-50205681D02*
X46359305Y-50262824D01*
X46359305Y-50262824D02*
X46359305Y-50405681D01*
X46359305Y-50405681D02*
X46387876Y-50462824D01*
X46387876Y-50462824D02*
X46416448Y-50491396D01*
X46416448Y-50491396D02*
X46473590Y-50519967D01*
X46473590Y-50519967D02*
X46645019Y-50519967D01*
X46645019Y-50519967D02*
X46702162Y-50491396D01*
X46702162Y-50491396D02*
X46730733Y-50462824D01*
X73959305Y-60148538D02*
X74016448Y-60119967D01*
X74016448Y-60119967D02*
X74102162Y-60119967D01*
X74102162Y-60119967D02*
X74187876Y-60148538D01*
X74187876Y-60148538D02*
X74245019Y-60205681D01*
X74245019Y-60205681D02*
X74273590Y-60262824D01*
X74273590Y-60262824D02*
X74302162Y-60377110D01*
X74302162Y-60377110D02*
X74302162Y-60462824D01*
X74302162Y-60462824D02*
X74273590Y-60577110D01*
X74273590Y-60577110D02*
X74245019Y-60634253D01*
X74245019Y-60634253D02*
X74187876Y-60691396D01*
X74187876Y-60691396D02*
X74102162Y-60719967D01*
X74102162Y-60719967D02*
X74045019Y-60719967D01*
X74045019Y-60719967D02*
X73959305Y-60691396D01*
X73959305Y-60691396D02*
X73930733Y-60662824D01*
X73930733Y-60662824D02*
X73930733Y-60462824D01*
X73930733Y-60462824D02*
X74045019Y-60462824D01*
X73673590Y-60719967D02*
X73673590Y-60119967D01*
X73673590Y-60119967D02*
X73445019Y-60119967D01*
X73445019Y-60119967D02*
X73387876Y-60148538D01*
X73387876Y-60148538D02*
X73359305Y-60177110D01*
X73359305Y-60177110D02*
X73330733Y-60234253D01*
X73330733Y-60234253D02*
X73330733Y-60319967D01*
X73330733Y-60319967D02*
X73359305Y-60377110D01*
X73359305Y-60377110D02*
X73387876Y-60405681D01*
X73387876Y-60405681D02*
X73445019Y-60434253D01*
X73445019Y-60434253D02*
X73673590Y-60434253D01*
X73102162Y-60177110D02*
X73073590Y-60148538D01*
X73073590Y-60148538D02*
X73016448Y-60119967D01*
X73016448Y-60119967D02*
X72873590Y-60119967D01*
X72873590Y-60119967D02*
X72816448Y-60148538D01*
X72816448Y-60148538D02*
X72787876Y-60177110D01*
X72787876Y-60177110D02*
X72759305Y-60234253D01*
X72759305Y-60234253D02*
X72759305Y-60291396D01*
X72759305Y-60291396D02*
X72787876Y-60377110D01*
X72787876Y-60377110D02*
X73130733Y-60719967D01*
X73130733Y-60719967D02*
X72759305Y-60719967D01*
X72559304Y-60119967D02*
X72159304Y-60119967D01*
X72159304Y-60119967D02*
X72416447Y-60719967D01*
X72073590Y-60777110D02*
X71616447Y-60777110D01*
X71502161Y-60548538D02*
X71216447Y-60548538D01*
X71559304Y-60719967D02*
X71359304Y-60119967D01*
X71359304Y-60119967D02*
X71159304Y-60719967D01*
X70645018Y-60719967D02*
X70987875Y-60719967D01*
X70816446Y-60719967D02*
X70816446Y-60119967D01*
X70816446Y-60119967D02*
X70873589Y-60205681D01*
X70873589Y-60205681D02*
X70930732Y-60262824D01*
X70930732Y-60262824D02*
X70987875Y-60291396D01*
X72859305Y-70348538D02*
X72916448Y-70319967D01*
X72916448Y-70319967D02*
X73002162Y-70319967D01*
X73002162Y-70319967D02*
X73087876Y-70348538D01*
X73087876Y-70348538D02*
X73145019Y-70405681D01*
X73145019Y-70405681D02*
X73173590Y-70462824D01*
X73173590Y-70462824D02*
X73202162Y-70577110D01*
X73202162Y-70577110D02*
X73202162Y-70662824D01*
X73202162Y-70662824D02*
X73173590Y-70777110D01*
X73173590Y-70777110D02*
X73145019Y-70834253D01*
X73145019Y-70834253D02*
X73087876Y-70891396D01*
X73087876Y-70891396D02*
X73002162Y-70919967D01*
X73002162Y-70919967D02*
X72945019Y-70919967D01*
X72945019Y-70919967D02*
X72859305Y-70891396D01*
X72859305Y-70891396D02*
X72830733Y-70862824D01*
X72830733Y-70862824D02*
X72830733Y-70662824D01*
X72830733Y-70662824D02*
X72945019Y-70662824D01*
X72573590Y-70919967D02*
X72573590Y-70319967D01*
X72573590Y-70319967D02*
X72230733Y-70919967D01*
X72230733Y-70919967D02*
X72230733Y-70319967D01*
X71945019Y-70919967D02*
X71945019Y-70319967D01*
X71945019Y-70319967D02*
X71802162Y-70319967D01*
X71802162Y-70319967D02*
X71716448Y-70348538D01*
X71716448Y-70348538D02*
X71659305Y-70405681D01*
X71659305Y-70405681D02*
X71630734Y-70462824D01*
X71630734Y-70462824D02*
X71602162Y-70577110D01*
X71602162Y-70577110D02*
X71602162Y-70662824D01*
X71602162Y-70662824D02*
X71630734Y-70777110D01*
X71630734Y-70777110D02*
X71659305Y-70834253D01*
X71659305Y-70834253D02*
X71716448Y-70891396D01*
X71716448Y-70891396D02*
X71802162Y-70919967D01*
X71802162Y-70919967D02*
X71945019Y-70919967D01*
X47559305Y-44948538D02*
X47616448Y-44919967D01*
X47616448Y-44919967D02*
X47702162Y-44919967D01*
X47702162Y-44919967D02*
X47787876Y-44948538D01*
X47787876Y-44948538D02*
X47845019Y-45005681D01*
X47845019Y-45005681D02*
X47873590Y-45062824D01*
X47873590Y-45062824D02*
X47902162Y-45177110D01*
X47902162Y-45177110D02*
X47902162Y-45262824D01*
X47902162Y-45262824D02*
X47873590Y-45377110D01*
X47873590Y-45377110D02*
X47845019Y-45434253D01*
X47845019Y-45434253D02*
X47787876Y-45491396D01*
X47787876Y-45491396D02*
X47702162Y-45519967D01*
X47702162Y-45519967D02*
X47645019Y-45519967D01*
X47645019Y-45519967D02*
X47559305Y-45491396D01*
X47559305Y-45491396D02*
X47530733Y-45462824D01*
X47530733Y-45462824D02*
X47530733Y-45262824D01*
X47530733Y-45262824D02*
X47645019Y-45262824D01*
X47273590Y-45519967D02*
X47273590Y-44919967D01*
X47273590Y-44919967D02*
X46930733Y-45519967D01*
X46930733Y-45519967D02*
X46930733Y-44919967D01*
X46645019Y-45519967D02*
X46645019Y-44919967D01*
X46645019Y-44919967D02*
X46502162Y-44919967D01*
X46502162Y-44919967D02*
X46416448Y-44948538D01*
X46416448Y-44948538D02*
X46359305Y-45005681D01*
X46359305Y-45005681D02*
X46330734Y-45062824D01*
X46330734Y-45062824D02*
X46302162Y-45177110D01*
X46302162Y-45177110D02*
X46302162Y-45262824D01*
X46302162Y-45262824D02*
X46330734Y-45377110D01*
X46330734Y-45377110D02*
X46359305Y-45434253D01*
X46359305Y-45434253D02*
X46416448Y-45491396D01*
X46416448Y-45491396D02*
X46502162Y-45519967D01*
X46502162Y-45519967D02*
X46645019Y-45519967D01*
X72859305Y-44848538D02*
X72916448Y-44819967D01*
X72916448Y-44819967D02*
X73002162Y-44819967D01*
X73002162Y-44819967D02*
X73087876Y-44848538D01*
X73087876Y-44848538D02*
X73145019Y-44905681D01*
X73145019Y-44905681D02*
X73173590Y-44962824D01*
X73173590Y-44962824D02*
X73202162Y-45077110D01*
X73202162Y-45077110D02*
X73202162Y-45162824D01*
X73202162Y-45162824D02*
X73173590Y-45277110D01*
X73173590Y-45277110D02*
X73145019Y-45334253D01*
X73145019Y-45334253D02*
X73087876Y-45391396D01*
X73087876Y-45391396D02*
X73002162Y-45419967D01*
X73002162Y-45419967D02*
X72945019Y-45419967D01*
X72945019Y-45419967D02*
X72859305Y-45391396D01*
X72859305Y-45391396D02*
X72830733Y-45362824D01*
X72830733Y-45362824D02*
X72830733Y-45162824D01*
X72830733Y-45162824D02*
X72945019Y-45162824D01*
X72573590Y-45419967D02*
X72573590Y-44819967D01*
X72573590Y-44819967D02*
X72230733Y-45419967D01*
X72230733Y-45419967D02*
X72230733Y-44819967D01*
X71945019Y-45419967D02*
X71945019Y-44819967D01*
X71945019Y-44819967D02*
X71802162Y-44819967D01*
X71802162Y-44819967D02*
X71716448Y-44848538D01*
X71716448Y-44848538D02*
X71659305Y-44905681D01*
X71659305Y-44905681D02*
X71630734Y-44962824D01*
X71630734Y-44962824D02*
X71602162Y-45077110D01*
X71602162Y-45077110D02*
X71602162Y-45162824D01*
X71602162Y-45162824D02*
X71630734Y-45277110D01*
X71630734Y-45277110D02*
X71659305Y-45334253D01*
X71659305Y-45334253D02*
X71716448Y-45391396D01*
X71716448Y-45391396D02*
X71802162Y-45419967D01*
X71802162Y-45419967D02*
X71945019Y-45419967D01*
X47559305Y-70348538D02*
X47616448Y-70319967D01*
X47616448Y-70319967D02*
X47702162Y-70319967D01*
X47702162Y-70319967D02*
X47787876Y-70348538D01*
X47787876Y-70348538D02*
X47845019Y-70405681D01*
X47845019Y-70405681D02*
X47873590Y-70462824D01*
X47873590Y-70462824D02*
X47902162Y-70577110D01*
X47902162Y-70577110D02*
X47902162Y-70662824D01*
X47902162Y-70662824D02*
X47873590Y-70777110D01*
X47873590Y-70777110D02*
X47845019Y-70834253D01*
X47845019Y-70834253D02*
X47787876Y-70891396D01*
X47787876Y-70891396D02*
X47702162Y-70919967D01*
X47702162Y-70919967D02*
X47645019Y-70919967D01*
X47645019Y-70919967D02*
X47559305Y-70891396D01*
X47559305Y-70891396D02*
X47530733Y-70862824D01*
X47530733Y-70862824D02*
X47530733Y-70662824D01*
X47530733Y-70662824D02*
X47645019Y-70662824D01*
X47273590Y-70919967D02*
X47273590Y-70319967D01*
X47273590Y-70319967D02*
X46930733Y-70919967D01*
X46930733Y-70919967D02*
X46930733Y-70319967D01*
X46645019Y-70919967D02*
X46645019Y-70319967D01*
X46645019Y-70319967D02*
X46502162Y-70319967D01*
X46502162Y-70319967D02*
X46416448Y-70348538D01*
X46416448Y-70348538D02*
X46359305Y-70405681D01*
X46359305Y-70405681D02*
X46330734Y-70462824D01*
X46330734Y-70462824D02*
X46302162Y-70577110D01*
X46302162Y-70577110D02*
X46302162Y-70662824D01*
X46302162Y-70662824D02*
X46330734Y-70777110D01*
X46330734Y-70777110D02*
X46359305Y-70834253D01*
X46359305Y-70834253D02*
X46416448Y-70891396D01*
X46416448Y-70891396D02*
X46502162Y-70919967D01*
X46502162Y-70919967D02*
X46645019Y-70919967D01*
X73163163Y-67748538D02*
X73220306Y-67719967D01*
X73220306Y-67719967D02*
X73306020Y-67719967D01*
X73306020Y-67719967D02*
X73391734Y-67748538D01*
X73391734Y-67748538D02*
X73448877Y-67805681D01*
X73448877Y-67805681D02*
X73477448Y-67862824D01*
X73477448Y-67862824D02*
X73506020Y-67977110D01*
X73506020Y-67977110D02*
X73506020Y-68062824D01*
X73506020Y-68062824D02*
X73477448Y-68177110D01*
X73477448Y-68177110D02*
X73448877Y-68234253D01*
X73448877Y-68234253D02*
X73391734Y-68291396D01*
X73391734Y-68291396D02*
X73306020Y-68319967D01*
X73306020Y-68319967D02*
X73248877Y-68319967D01*
X73248877Y-68319967D02*
X73163163Y-68291396D01*
X73163163Y-68291396D02*
X73134591Y-68262824D01*
X73134591Y-68262824D02*
X73134591Y-68062824D01*
X73134591Y-68062824D02*
X73248877Y-68062824D01*
X72877448Y-68319967D02*
X72877448Y-67719967D01*
X72877448Y-67719967D02*
X72648877Y-67719967D01*
X72648877Y-67719967D02*
X72591734Y-67748538D01*
X72591734Y-67748538D02*
X72563163Y-67777110D01*
X72563163Y-67777110D02*
X72534591Y-67834253D01*
X72534591Y-67834253D02*
X72534591Y-67919967D01*
X72534591Y-67919967D02*
X72563163Y-67977110D01*
X72563163Y-67977110D02*
X72591734Y-68005681D01*
X72591734Y-68005681D02*
X72648877Y-68034253D01*
X72648877Y-68034253D02*
X72877448Y-68034253D01*
X72306020Y-67777110D02*
X72277448Y-67748538D01*
X72277448Y-67748538D02*
X72220306Y-67719967D01*
X72220306Y-67719967D02*
X72077448Y-67719967D01*
X72077448Y-67719967D02*
X72020306Y-67748538D01*
X72020306Y-67748538D02*
X71991734Y-67777110D01*
X71991734Y-67777110D02*
X71963163Y-67834253D01*
X71963163Y-67834253D02*
X71963163Y-67891396D01*
X71963163Y-67891396D02*
X71991734Y-67977110D01*
X71991734Y-67977110D02*
X72334591Y-68319967D01*
X72334591Y-68319967D02*
X71963163Y-68319967D01*
X71734591Y-67777110D02*
X71706019Y-67748538D01*
X71706019Y-67748538D02*
X71648877Y-67719967D01*
X71648877Y-67719967D02*
X71506019Y-67719967D01*
X71506019Y-67719967D02*
X71448877Y-67748538D01*
X71448877Y-67748538D02*
X71420305Y-67777110D01*
X71420305Y-67777110D02*
X71391734Y-67834253D01*
X71391734Y-67834253D02*
X71391734Y-67891396D01*
X71391734Y-67891396D02*
X71420305Y-67977110D01*
X71420305Y-67977110D02*
X71763162Y-68319967D01*
X71763162Y-68319967D02*
X71391734Y-68319967D01*
X73163163Y-75348538D02*
X73220306Y-75319967D01*
X73220306Y-75319967D02*
X73306020Y-75319967D01*
X73306020Y-75319967D02*
X73391734Y-75348538D01*
X73391734Y-75348538D02*
X73448877Y-75405681D01*
X73448877Y-75405681D02*
X73477448Y-75462824D01*
X73477448Y-75462824D02*
X73506020Y-75577110D01*
X73506020Y-75577110D02*
X73506020Y-75662824D01*
X73506020Y-75662824D02*
X73477448Y-75777110D01*
X73477448Y-75777110D02*
X73448877Y-75834253D01*
X73448877Y-75834253D02*
X73391734Y-75891396D01*
X73391734Y-75891396D02*
X73306020Y-75919967D01*
X73306020Y-75919967D02*
X73248877Y-75919967D01*
X73248877Y-75919967D02*
X73163163Y-75891396D01*
X73163163Y-75891396D02*
X73134591Y-75862824D01*
X73134591Y-75862824D02*
X73134591Y-75662824D01*
X73134591Y-75662824D02*
X73248877Y-75662824D01*
X72877448Y-75919967D02*
X72877448Y-75319967D01*
X72877448Y-75319967D02*
X72648877Y-75319967D01*
X72648877Y-75319967D02*
X72591734Y-75348538D01*
X72591734Y-75348538D02*
X72563163Y-75377110D01*
X72563163Y-75377110D02*
X72534591Y-75434253D01*
X72534591Y-75434253D02*
X72534591Y-75519967D01*
X72534591Y-75519967D02*
X72563163Y-75577110D01*
X72563163Y-75577110D02*
X72591734Y-75605681D01*
X72591734Y-75605681D02*
X72648877Y-75634253D01*
X72648877Y-75634253D02*
X72877448Y-75634253D01*
X72306020Y-75377110D02*
X72277448Y-75348538D01*
X72277448Y-75348538D02*
X72220306Y-75319967D01*
X72220306Y-75319967D02*
X72077448Y-75319967D01*
X72077448Y-75319967D02*
X72020306Y-75348538D01*
X72020306Y-75348538D02*
X71991734Y-75377110D01*
X71991734Y-75377110D02*
X71963163Y-75434253D01*
X71963163Y-75434253D02*
X71963163Y-75491396D01*
X71963163Y-75491396D02*
X71991734Y-75577110D01*
X71991734Y-75577110D02*
X72334591Y-75919967D01*
X72334591Y-75919967D02*
X71963163Y-75919967D01*
X71591734Y-75319967D02*
X71534591Y-75319967D01*
X71534591Y-75319967D02*
X71477448Y-75348538D01*
X71477448Y-75348538D02*
X71448877Y-75377110D01*
X71448877Y-75377110D02*
X71420305Y-75434253D01*
X71420305Y-75434253D02*
X71391734Y-75548538D01*
X71391734Y-75548538D02*
X71391734Y-75691396D01*
X71391734Y-75691396D02*
X71420305Y-75805681D01*
X71420305Y-75805681D02*
X71448877Y-75862824D01*
X71448877Y-75862824D02*
X71477448Y-75891396D01*
X71477448Y-75891396D02*
X71534591Y-75919967D01*
X71534591Y-75919967D02*
X71591734Y-75919967D01*
X71591734Y-75919967D02*
X71648877Y-75891396D01*
X71648877Y-75891396D02*
X71677448Y-75862824D01*
X71677448Y-75862824D02*
X71706019Y-75805681D01*
X71706019Y-75805681D02*
X71734591Y-75691396D01*
X71734591Y-75691396D02*
X71734591Y-75548538D01*
X71734591Y-75548538D02*
X71706019Y-75434253D01*
X71706019Y-75434253D02*
X71677448Y-75377110D01*
X71677448Y-75377110D02*
X71648877Y-75348538D01*
X71648877Y-75348538D02*
X71591734Y-75319967D01*
X47559305Y-47448538D02*
X47616448Y-47419967D01*
X47616448Y-47419967D02*
X47702162Y-47419967D01*
X47702162Y-47419967D02*
X47787876Y-47448538D01*
X47787876Y-47448538D02*
X47845019Y-47505681D01*
X47845019Y-47505681D02*
X47873590Y-47562824D01*
X47873590Y-47562824D02*
X47902162Y-47677110D01*
X47902162Y-47677110D02*
X47902162Y-47762824D01*
X47902162Y-47762824D02*
X47873590Y-47877110D01*
X47873590Y-47877110D02*
X47845019Y-47934253D01*
X47845019Y-47934253D02*
X47787876Y-47991396D01*
X47787876Y-47991396D02*
X47702162Y-48019967D01*
X47702162Y-48019967D02*
X47645019Y-48019967D01*
X47645019Y-48019967D02*
X47559305Y-47991396D01*
X47559305Y-47991396D02*
X47530733Y-47962824D01*
X47530733Y-47962824D02*
X47530733Y-47762824D01*
X47530733Y-47762824D02*
X47645019Y-47762824D01*
X47273590Y-48019967D02*
X47273590Y-47419967D01*
X47273590Y-47419967D02*
X47045019Y-47419967D01*
X47045019Y-47419967D02*
X46987876Y-47448538D01*
X46987876Y-47448538D02*
X46959305Y-47477110D01*
X46959305Y-47477110D02*
X46930733Y-47534253D01*
X46930733Y-47534253D02*
X46930733Y-47619967D01*
X46930733Y-47619967D02*
X46959305Y-47677110D01*
X46959305Y-47677110D02*
X46987876Y-47705681D01*
X46987876Y-47705681D02*
X47045019Y-47734253D01*
X47045019Y-47734253D02*
X47273590Y-47734253D01*
X46702162Y-47477110D02*
X46673590Y-47448538D01*
X46673590Y-47448538D02*
X46616448Y-47419967D01*
X46616448Y-47419967D02*
X46473590Y-47419967D01*
X46473590Y-47419967D02*
X46416448Y-47448538D01*
X46416448Y-47448538D02*
X46387876Y-47477110D01*
X46387876Y-47477110D02*
X46359305Y-47534253D01*
X46359305Y-47534253D02*
X46359305Y-47591396D01*
X46359305Y-47591396D02*
X46387876Y-47677110D01*
X46387876Y-47677110D02*
X46730733Y-48019967D01*
X46730733Y-48019967D02*
X46359305Y-48019967D01*
X74502162Y-52948538D02*
X74216448Y-52948538D01*
X74559305Y-53119967D02*
X74359305Y-52519967D01*
X74359305Y-52519967D02*
X74159305Y-53119967D01*
X73959304Y-53119967D02*
X73959304Y-52519967D01*
X73959304Y-52519967D02*
X73816447Y-52519967D01*
X73816447Y-52519967D02*
X73730733Y-52548538D01*
X73730733Y-52548538D02*
X73673590Y-52605681D01*
X73673590Y-52605681D02*
X73645019Y-52662824D01*
X73645019Y-52662824D02*
X73616447Y-52777110D01*
X73616447Y-52777110D02*
X73616447Y-52862824D01*
X73616447Y-52862824D02*
X73645019Y-52977110D01*
X73645019Y-52977110D02*
X73673590Y-53034253D01*
X73673590Y-53034253D02*
X73730733Y-53091396D01*
X73730733Y-53091396D02*
X73816447Y-53119967D01*
X73816447Y-53119967D02*
X73959304Y-53119967D01*
X73016447Y-53062824D02*
X73045019Y-53091396D01*
X73045019Y-53091396D02*
X73130733Y-53119967D01*
X73130733Y-53119967D02*
X73187876Y-53119967D01*
X73187876Y-53119967D02*
X73273590Y-53091396D01*
X73273590Y-53091396D02*
X73330733Y-53034253D01*
X73330733Y-53034253D02*
X73359304Y-52977110D01*
X73359304Y-52977110D02*
X73387876Y-52862824D01*
X73387876Y-52862824D02*
X73387876Y-52777110D01*
X73387876Y-52777110D02*
X73359304Y-52662824D01*
X73359304Y-52662824D02*
X73330733Y-52605681D01*
X73330733Y-52605681D02*
X73273590Y-52548538D01*
X73273590Y-52548538D02*
X73187876Y-52519967D01*
X73187876Y-52519967D02*
X73130733Y-52519967D01*
X73130733Y-52519967D02*
X73045019Y-52548538D01*
X73045019Y-52548538D02*
X73016447Y-52577110D01*
X72902162Y-53177110D02*
X72445019Y-53177110D01*
X72387876Y-52519967D02*
X72187876Y-53119967D01*
X72187876Y-53119967D02*
X71987876Y-52519967D01*
X71445018Y-53119967D02*
X71645018Y-52834253D01*
X71787875Y-53119967D02*
X71787875Y-52519967D01*
X71787875Y-52519967D02*
X71559304Y-52519967D01*
X71559304Y-52519967D02*
X71502161Y-52548538D01*
X71502161Y-52548538D02*
X71473590Y-52577110D01*
X71473590Y-52577110D02*
X71445018Y-52634253D01*
X71445018Y-52634253D02*
X71445018Y-52719967D01*
X71445018Y-52719967D02*
X71473590Y-52777110D01*
X71473590Y-52777110D02*
X71502161Y-52805681D01*
X71502161Y-52805681D02*
X71559304Y-52834253D01*
X71559304Y-52834253D02*
X71787875Y-52834253D01*
X71187875Y-52805681D02*
X70987875Y-52805681D01*
X70902161Y-53119967D02*
X71187875Y-53119967D01*
X71187875Y-53119967D02*
X71187875Y-52519967D01*
X71187875Y-52519967D02*
X70902161Y-52519967D01*
X70445018Y-52805681D02*
X70645018Y-52805681D01*
X70645018Y-53119967D02*
X70645018Y-52519967D01*
X70645018Y-52519967D02*
X70359304Y-52519967D01*
X73163163Y-72848538D02*
X73220306Y-72819967D01*
X73220306Y-72819967D02*
X73306020Y-72819967D01*
X73306020Y-72819967D02*
X73391734Y-72848538D01*
X73391734Y-72848538D02*
X73448877Y-72905681D01*
X73448877Y-72905681D02*
X73477448Y-72962824D01*
X73477448Y-72962824D02*
X73506020Y-73077110D01*
X73506020Y-73077110D02*
X73506020Y-73162824D01*
X73506020Y-73162824D02*
X73477448Y-73277110D01*
X73477448Y-73277110D02*
X73448877Y-73334253D01*
X73448877Y-73334253D02*
X73391734Y-73391396D01*
X73391734Y-73391396D02*
X73306020Y-73419967D01*
X73306020Y-73419967D02*
X73248877Y-73419967D01*
X73248877Y-73419967D02*
X73163163Y-73391396D01*
X73163163Y-73391396D02*
X73134591Y-73362824D01*
X73134591Y-73362824D02*
X73134591Y-73162824D01*
X73134591Y-73162824D02*
X73248877Y-73162824D01*
X72877448Y-73419967D02*
X72877448Y-72819967D01*
X72877448Y-72819967D02*
X72648877Y-72819967D01*
X72648877Y-72819967D02*
X72591734Y-72848538D01*
X72591734Y-72848538D02*
X72563163Y-72877110D01*
X72563163Y-72877110D02*
X72534591Y-72934253D01*
X72534591Y-72934253D02*
X72534591Y-73019967D01*
X72534591Y-73019967D02*
X72563163Y-73077110D01*
X72563163Y-73077110D02*
X72591734Y-73105681D01*
X72591734Y-73105681D02*
X72648877Y-73134253D01*
X72648877Y-73134253D02*
X72877448Y-73134253D01*
X72306020Y-72877110D02*
X72277448Y-72848538D01*
X72277448Y-72848538D02*
X72220306Y-72819967D01*
X72220306Y-72819967D02*
X72077448Y-72819967D01*
X72077448Y-72819967D02*
X72020306Y-72848538D01*
X72020306Y-72848538D02*
X71991734Y-72877110D01*
X71991734Y-72877110D02*
X71963163Y-72934253D01*
X71963163Y-72934253D02*
X71963163Y-72991396D01*
X71963163Y-72991396D02*
X71991734Y-73077110D01*
X71991734Y-73077110D02*
X72334591Y-73419967D01*
X72334591Y-73419967D02*
X71963163Y-73419967D01*
X71391734Y-73419967D02*
X71734591Y-73419967D01*
X71563162Y-73419967D02*
X71563162Y-72819967D01*
X71563162Y-72819967D02*
X71620305Y-72905681D01*
X71620305Y-72905681D02*
X71677448Y-72962824D01*
X71677448Y-72962824D02*
X71734591Y-72991396D01*
X47859305Y-72848538D02*
X47916448Y-72819967D01*
X47916448Y-72819967D02*
X48002162Y-72819967D01*
X48002162Y-72819967D02*
X48087876Y-72848538D01*
X48087876Y-72848538D02*
X48145019Y-72905681D01*
X48145019Y-72905681D02*
X48173590Y-72962824D01*
X48173590Y-72962824D02*
X48202162Y-73077110D01*
X48202162Y-73077110D02*
X48202162Y-73162824D01*
X48202162Y-73162824D02*
X48173590Y-73277110D01*
X48173590Y-73277110D02*
X48145019Y-73334253D01*
X48145019Y-73334253D02*
X48087876Y-73391396D01*
X48087876Y-73391396D02*
X48002162Y-73419967D01*
X48002162Y-73419967D02*
X47945019Y-73419967D01*
X47945019Y-73419967D02*
X47859305Y-73391396D01*
X47859305Y-73391396D02*
X47830733Y-73362824D01*
X47830733Y-73362824D02*
X47830733Y-73162824D01*
X47830733Y-73162824D02*
X47945019Y-73162824D01*
X47573590Y-73419967D02*
X47573590Y-72819967D01*
X47573590Y-72819967D02*
X47345019Y-72819967D01*
X47345019Y-72819967D02*
X47287876Y-72848538D01*
X47287876Y-72848538D02*
X47259305Y-72877110D01*
X47259305Y-72877110D02*
X47230733Y-72934253D01*
X47230733Y-72934253D02*
X47230733Y-73019967D01*
X47230733Y-73019967D02*
X47259305Y-73077110D01*
X47259305Y-73077110D02*
X47287876Y-73105681D01*
X47287876Y-73105681D02*
X47345019Y-73134253D01*
X47345019Y-73134253D02*
X47573590Y-73134253D01*
X46659305Y-73419967D02*
X47002162Y-73419967D01*
X46830733Y-73419967D02*
X46830733Y-72819967D01*
X46830733Y-72819967D02*
X46887876Y-72905681D01*
X46887876Y-72905681D02*
X46945019Y-72962824D01*
X46945019Y-72962824D02*
X47002162Y-72991396D01*
X46287876Y-72819967D02*
X46230733Y-72819967D01*
X46230733Y-72819967D02*
X46173590Y-72848538D01*
X46173590Y-72848538D02*
X46145019Y-72877110D01*
X46145019Y-72877110D02*
X46116447Y-72934253D01*
X46116447Y-72934253D02*
X46087876Y-73048538D01*
X46087876Y-73048538D02*
X46087876Y-73191396D01*
X46087876Y-73191396D02*
X46116447Y-73305681D01*
X46116447Y-73305681D02*
X46145019Y-73362824D01*
X46145019Y-73362824D02*
X46173590Y-73391396D01*
X46173590Y-73391396D02*
X46230733Y-73419967D01*
X46230733Y-73419967D02*
X46287876Y-73419967D01*
X46287876Y-73419967D02*
X46345019Y-73391396D01*
X46345019Y-73391396D02*
X46373590Y-73362824D01*
X46373590Y-73362824D02*
X46402161Y-73305681D01*
X46402161Y-73305681D02*
X46430733Y-73191396D01*
X46430733Y-73191396D02*
X46430733Y-73048538D01*
X46430733Y-73048538D02*
X46402161Y-72934253D01*
X46402161Y-72934253D02*
X46373590Y-72877110D01*
X46373590Y-72877110D02*
X46345019Y-72848538D01*
X46345019Y-72848538D02*
X46287876Y-72819967D01*
X73163163Y-85548538D02*
X73220306Y-85519967D01*
X73220306Y-85519967D02*
X73306020Y-85519967D01*
X73306020Y-85519967D02*
X73391734Y-85548538D01*
X73391734Y-85548538D02*
X73448877Y-85605681D01*
X73448877Y-85605681D02*
X73477448Y-85662824D01*
X73477448Y-85662824D02*
X73506020Y-85777110D01*
X73506020Y-85777110D02*
X73506020Y-85862824D01*
X73506020Y-85862824D02*
X73477448Y-85977110D01*
X73477448Y-85977110D02*
X73448877Y-86034253D01*
X73448877Y-86034253D02*
X73391734Y-86091396D01*
X73391734Y-86091396D02*
X73306020Y-86119967D01*
X73306020Y-86119967D02*
X73248877Y-86119967D01*
X73248877Y-86119967D02*
X73163163Y-86091396D01*
X73163163Y-86091396D02*
X73134591Y-86062824D01*
X73134591Y-86062824D02*
X73134591Y-85862824D01*
X73134591Y-85862824D02*
X73248877Y-85862824D01*
X72877448Y-86119967D02*
X72877448Y-85519967D01*
X72877448Y-85519967D02*
X72648877Y-85519967D01*
X72648877Y-85519967D02*
X72591734Y-85548538D01*
X72591734Y-85548538D02*
X72563163Y-85577110D01*
X72563163Y-85577110D02*
X72534591Y-85634253D01*
X72534591Y-85634253D02*
X72534591Y-85719967D01*
X72534591Y-85719967D02*
X72563163Y-85777110D01*
X72563163Y-85777110D02*
X72591734Y-85805681D01*
X72591734Y-85805681D02*
X72648877Y-85834253D01*
X72648877Y-85834253D02*
X72877448Y-85834253D01*
X71963163Y-86119967D02*
X72306020Y-86119967D01*
X72134591Y-86119967D02*
X72134591Y-85519967D01*
X72134591Y-85519967D02*
X72191734Y-85605681D01*
X72191734Y-85605681D02*
X72248877Y-85662824D01*
X72248877Y-85662824D02*
X72306020Y-85691396D01*
X71763162Y-85519967D02*
X71363162Y-85519967D01*
X71363162Y-85519967D02*
X71620305Y-86119967D01*
X47859305Y-88048538D02*
X47916448Y-88019967D01*
X47916448Y-88019967D02*
X48002162Y-88019967D01*
X48002162Y-88019967D02*
X48087876Y-88048538D01*
X48087876Y-88048538D02*
X48145019Y-88105681D01*
X48145019Y-88105681D02*
X48173590Y-88162824D01*
X48173590Y-88162824D02*
X48202162Y-88277110D01*
X48202162Y-88277110D02*
X48202162Y-88362824D01*
X48202162Y-88362824D02*
X48173590Y-88477110D01*
X48173590Y-88477110D02*
X48145019Y-88534253D01*
X48145019Y-88534253D02*
X48087876Y-88591396D01*
X48087876Y-88591396D02*
X48002162Y-88619967D01*
X48002162Y-88619967D02*
X47945019Y-88619967D01*
X47945019Y-88619967D02*
X47859305Y-88591396D01*
X47859305Y-88591396D02*
X47830733Y-88562824D01*
X47830733Y-88562824D02*
X47830733Y-88362824D01*
X47830733Y-88362824D02*
X47945019Y-88362824D01*
X47573590Y-88619967D02*
X47573590Y-88019967D01*
X47573590Y-88019967D02*
X47345019Y-88019967D01*
X47345019Y-88019967D02*
X47287876Y-88048538D01*
X47287876Y-88048538D02*
X47259305Y-88077110D01*
X47259305Y-88077110D02*
X47230733Y-88134253D01*
X47230733Y-88134253D02*
X47230733Y-88219967D01*
X47230733Y-88219967D02*
X47259305Y-88277110D01*
X47259305Y-88277110D02*
X47287876Y-88305681D01*
X47287876Y-88305681D02*
X47345019Y-88334253D01*
X47345019Y-88334253D02*
X47573590Y-88334253D01*
X46659305Y-88619967D02*
X47002162Y-88619967D01*
X46830733Y-88619967D02*
X46830733Y-88019967D01*
X46830733Y-88019967D02*
X46887876Y-88105681D01*
X46887876Y-88105681D02*
X46945019Y-88162824D01*
X46945019Y-88162824D02*
X47002162Y-88191396D01*
X46116447Y-88019967D02*
X46402161Y-88019967D01*
X46402161Y-88019967D02*
X46430733Y-88305681D01*
X46430733Y-88305681D02*
X46402161Y-88277110D01*
X46402161Y-88277110D02*
X46345019Y-88248538D01*
X46345019Y-88248538D02*
X46202161Y-88248538D01*
X46202161Y-88248538D02*
X46145019Y-88277110D01*
X46145019Y-88277110D02*
X46116447Y-88305681D01*
X46116447Y-88305681D02*
X46087876Y-88362824D01*
X46087876Y-88362824D02*
X46087876Y-88505681D01*
X46087876Y-88505681D02*
X46116447Y-88562824D01*
X46116447Y-88562824D02*
X46145019Y-88591396D01*
X46145019Y-88591396D02*
X46202161Y-88619967D01*
X46202161Y-88619967D02*
X46345019Y-88619967D01*
X46345019Y-88619967D02*
X46402161Y-88591396D01*
X46402161Y-88591396D02*
X46430733Y-88562824D01*
X73163163Y-77948538D02*
X73220306Y-77919967D01*
X73220306Y-77919967D02*
X73306020Y-77919967D01*
X73306020Y-77919967D02*
X73391734Y-77948538D01*
X73391734Y-77948538D02*
X73448877Y-78005681D01*
X73448877Y-78005681D02*
X73477448Y-78062824D01*
X73477448Y-78062824D02*
X73506020Y-78177110D01*
X73506020Y-78177110D02*
X73506020Y-78262824D01*
X73506020Y-78262824D02*
X73477448Y-78377110D01*
X73477448Y-78377110D02*
X73448877Y-78434253D01*
X73448877Y-78434253D02*
X73391734Y-78491396D01*
X73391734Y-78491396D02*
X73306020Y-78519967D01*
X73306020Y-78519967D02*
X73248877Y-78519967D01*
X73248877Y-78519967D02*
X73163163Y-78491396D01*
X73163163Y-78491396D02*
X73134591Y-78462824D01*
X73134591Y-78462824D02*
X73134591Y-78262824D01*
X73134591Y-78262824D02*
X73248877Y-78262824D01*
X72877448Y-78519967D02*
X72877448Y-77919967D01*
X72877448Y-77919967D02*
X72648877Y-77919967D01*
X72648877Y-77919967D02*
X72591734Y-77948538D01*
X72591734Y-77948538D02*
X72563163Y-77977110D01*
X72563163Y-77977110D02*
X72534591Y-78034253D01*
X72534591Y-78034253D02*
X72534591Y-78119967D01*
X72534591Y-78119967D02*
X72563163Y-78177110D01*
X72563163Y-78177110D02*
X72591734Y-78205681D01*
X72591734Y-78205681D02*
X72648877Y-78234253D01*
X72648877Y-78234253D02*
X72877448Y-78234253D01*
X71963163Y-78519967D02*
X72306020Y-78519967D01*
X72134591Y-78519967D02*
X72134591Y-77919967D01*
X72134591Y-77919967D02*
X72191734Y-78005681D01*
X72191734Y-78005681D02*
X72248877Y-78062824D01*
X72248877Y-78062824D02*
X72306020Y-78091396D01*
X71677448Y-78519967D02*
X71563162Y-78519967D01*
X71563162Y-78519967D02*
X71506019Y-78491396D01*
X71506019Y-78491396D02*
X71477448Y-78462824D01*
X71477448Y-78462824D02*
X71420305Y-78377110D01*
X71420305Y-78377110D02*
X71391734Y-78262824D01*
X71391734Y-78262824D02*
X71391734Y-78034253D01*
X71391734Y-78034253D02*
X71420305Y-77977110D01*
X71420305Y-77977110D02*
X71448877Y-77948538D01*
X71448877Y-77948538D02*
X71506019Y-77919967D01*
X71506019Y-77919967D02*
X71620305Y-77919967D01*
X71620305Y-77919967D02*
X71677448Y-77948538D01*
X71677448Y-77948538D02*
X71706019Y-77977110D01*
X71706019Y-77977110D02*
X71734591Y-78034253D01*
X71734591Y-78034253D02*
X71734591Y-78177110D01*
X71734591Y-78177110D02*
X71706019Y-78234253D01*
X71706019Y-78234253D02*
X71677448Y-78262824D01*
X71677448Y-78262824D02*
X71620305Y-78291396D01*
X71620305Y-78291396D02*
X71506019Y-78291396D01*
X71506019Y-78291396D02*
X71448877Y-78262824D01*
X71448877Y-78262824D02*
X71420305Y-78234253D01*
X71420305Y-78234253D02*
X71391734Y-78177110D01*
X47859305Y-85548538D02*
X47916448Y-85519967D01*
X47916448Y-85519967D02*
X48002162Y-85519967D01*
X48002162Y-85519967D02*
X48087876Y-85548538D01*
X48087876Y-85548538D02*
X48145019Y-85605681D01*
X48145019Y-85605681D02*
X48173590Y-85662824D01*
X48173590Y-85662824D02*
X48202162Y-85777110D01*
X48202162Y-85777110D02*
X48202162Y-85862824D01*
X48202162Y-85862824D02*
X48173590Y-85977110D01*
X48173590Y-85977110D02*
X48145019Y-86034253D01*
X48145019Y-86034253D02*
X48087876Y-86091396D01*
X48087876Y-86091396D02*
X48002162Y-86119967D01*
X48002162Y-86119967D02*
X47945019Y-86119967D01*
X47945019Y-86119967D02*
X47859305Y-86091396D01*
X47859305Y-86091396D02*
X47830733Y-86062824D01*
X47830733Y-86062824D02*
X47830733Y-85862824D01*
X47830733Y-85862824D02*
X47945019Y-85862824D01*
X47573590Y-86119967D02*
X47573590Y-85519967D01*
X47573590Y-85519967D02*
X47345019Y-85519967D01*
X47345019Y-85519967D02*
X47287876Y-85548538D01*
X47287876Y-85548538D02*
X47259305Y-85577110D01*
X47259305Y-85577110D02*
X47230733Y-85634253D01*
X47230733Y-85634253D02*
X47230733Y-85719967D01*
X47230733Y-85719967D02*
X47259305Y-85777110D01*
X47259305Y-85777110D02*
X47287876Y-85805681D01*
X47287876Y-85805681D02*
X47345019Y-85834253D01*
X47345019Y-85834253D02*
X47573590Y-85834253D01*
X46659305Y-86119967D02*
X47002162Y-86119967D01*
X46830733Y-86119967D02*
X46830733Y-85519967D01*
X46830733Y-85519967D02*
X46887876Y-85605681D01*
X46887876Y-85605681D02*
X46945019Y-85662824D01*
X46945019Y-85662824D02*
X47002162Y-85691396D01*
X46145019Y-85719967D02*
X46145019Y-86119967D01*
X46287876Y-85491396D02*
X46430733Y-85919967D01*
X46430733Y-85919967D02*
X46059304Y-85919967D01*
X73359305Y-42319967D02*
X73159305Y-42919967D01*
X73159305Y-42919967D02*
X72959305Y-42319967D01*
X72787876Y-42891396D02*
X72702162Y-42919967D01*
X72702162Y-42919967D02*
X72559304Y-42919967D01*
X72559304Y-42919967D02*
X72502162Y-42891396D01*
X72502162Y-42891396D02*
X72473590Y-42862824D01*
X72473590Y-42862824D02*
X72445019Y-42805681D01*
X72445019Y-42805681D02*
X72445019Y-42748538D01*
X72445019Y-42748538D02*
X72473590Y-42691396D01*
X72473590Y-42691396D02*
X72502162Y-42662824D01*
X72502162Y-42662824D02*
X72559304Y-42634253D01*
X72559304Y-42634253D02*
X72673590Y-42605681D01*
X72673590Y-42605681D02*
X72730733Y-42577110D01*
X72730733Y-42577110D02*
X72759304Y-42548538D01*
X72759304Y-42548538D02*
X72787876Y-42491396D01*
X72787876Y-42491396D02*
X72787876Y-42434253D01*
X72787876Y-42434253D02*
X72759304Y-42377110D01*
X72759304Y-42377110D02*
X72730733Y-42348538D01*
X72730733Y-42348538D02*
X72673590Y-42319967D01*
X72673590Y-42319967D02*
X72530733Y-42319967D01*
X72530733Y-42319967D02*
X72445019Y-42348538D01*
X72073590Y-42634253D02*
X72073590Y-42919967D01*
X72273590Y-42319967D02*
X72073590Y-42634253D01*
X72073590Y-42634253D02*
X71873590Y-42319967D01*
X71702161Y-42891396D02*
X71616447Y-42919967D01*
X71616447Y-42919967D02*
X71473589Y-42919967D01*
X71473589Y-42919967D02*
X71416447Y-42891396D01*
X71416447Y-42891396D02*
X71387875Y-42862824D01*
X71387875Y-42862824D02*
X71359304Y-42805681D01*
X71359304Y-42805681D02*
X71359304Y-42748538D01*
X71359304Y-42748538D02*
X71387875Y-42691396D01*
X71387875Y-42691396D02*
X71416447Y-42662824D01*
X71416447Y-42662824D02*
X71473589Y-42634253D01*
X71473589Y-42634253D02*
X71587875Y-42605681D01*
X71587875Y-42605681D02*
X71645018Y-42577110D01*
X71645018Y-42577110D02*
X71673589Y-42548538D01*
X71673589Y-42548538D02*
X71702161Y-42491396D01*
X71702161Y-42491396D02*
X71702161Y-42434253D01*
X71702161Y-42434253D02*
X71673589Y-42377110D01*
X71673589Y-42377110D02*
X71645018Y-42348538D01*
X71645018Y-42348538D02*
X71587875Y-42319967D01*
X71587875Y-42319967D02*
X71445018Y-42319967D01*
X71445018Y-42319967D02*
X71359304Y-42348538D01*
X47559305Y-52548538D02*
X47616448Y-52519967D01*
X47616448Y-52519967D02*
X47702162Y-52519967D01*
X47702162Y-52519967D02*
X47787876Y-52548538D01*
X47787876Y-52548538D02*
X47845019Y-52605681D01*
X47845019Y-52605681D02*
X47873590Y-52662824D01*
X47873590Y-52662824D02*
X47902162Y-52777110D01*
X47902162Y-52777110D02*
X47902162Y-52862824D01*
X47902162Y-52862824D02*
X47873590Y-52977110D01*
X47873590Y-52977110D02*
X47845019Y-53034253D01*
X47845019Y-53034253D02*
X47787876Y-53091396D01*
X47787876Y-53091396D02*
X47702162Y-53119967D01*
X47702162Y-53119967D02*
X47645019Y-53119967D01*
X47645019Y-53119967D02*
X47559305Y-53091396D01*
X47559305Y-53091396D02*
X47530733Y-53062824D01*
X47530733Y-53062824D02*
X47530733Y-52862824D01*
X47530733Y-52862824D02*
X47645019Y-52862824D01*
X47273590Y-53119967D02*
X47273590Y-52519967D01*
X47273590Y-52519967D02*
X47045019Y-52519967D01*
X47045019Y-52519967D02*
X46987876Y-52548538D01*
X46987876Y-52548538D02*
X46959305Y-52577110D01*
X46959305Y-52577110D02*
X46930733Y-52634253D01*
X46930733Y-52634253D02*
X46930733Y-52719967D01*
X46930733Y-52719967D02*
X46959305Y-52777110D01*
X46959305Y-52777110D02*
X46987876Y-52805681D01*
X46987876Y-52805681D02*
X47045019Y-52834253D01*
X47045019Y-52834253D02*
X47273590Y-52834253D01*
X46416448Y-52719967D02*
X46416448Y-53119967D01*
X46559305Y-52491396D02*
X46702162Y-52919967D01*
X46702162Y-52919967D02*
X46330733Y-52919967D01*
X73959305Y-62648538D02*
X74016448Y-62619967D01*
X74016448Y-62619967D02*
X74102162Y-62619967D01*
X74102162Y-62619967D02*
X74187876Y-62648538D01*
X74187876Y-62648538D02*
X74245019Y-62705681D01*
X74245019Y-62705681D02*
X74273590Y-62762824D01*
X74273590Y-62762824D02*
X74302162Y-62877110D01*
X74302162Y-62877110D02*
X74302162Y-62962824D01*
X74302162Y-62962824D02*
X74273590Y-63077110D01*
X74273590Y-63077110D02*
X74245019Y-63134253D01*
X74245019Y-63134253D02*
X74187876Y-63191396D01*
X74187876Y-63191396D02*
X74102162Y-63219967D01*
X74102162Y-63219967D02*
X74045019Y-63219967D01*
X74045019Y-63219967D02*
X73959305Y-63191396D01*
X73959305Y-63191396D02*
X73930733Y-63162824D01*
X73930733Y-63162824D02*
X73930733Y-62962824D01*
X73930733Y-62962824D02*
X74045019Y-62962824D01*
X73673590Y-63219967D02*
X73673590Y-62619967D01*
X73673590Y-62619967D02*
X73445019Y-62619967D01*
X73445019Y-62619967D02*
X73387876Y-62648538D01*
X73387876Y-62648538D02*
X73359305Y-62677110D01*
X73359305Y-62677110D02*
X73330733Y-62734253D01*
X73330733Y-62734253D02*
X73330733Y-62819967D01*
X73330733Y-62819967D02*
X73359305Y-62877110D01*
X73359305Y-62877110D02*
X73387876Y-62905681D01*
X73387876Y-62905681D02*
X73445019Y-62934253D01*
X73445019Y-62934253D02*
X73673590Y-62934253D01*
X73102162Y-62677110D02*
X73073590Y-62648538D01*
X73073590Y-62648538D02*
X73016448Y-62619967D01*
X73016448Y-62619967D02*
X72873590Y-62619967D01*
X72873590Y-62619967D02*
X72816448Y-62648538D01*
X72816448Y-62648538D02*
X72787876Y-62677110D01*
X72787876Y-62677110D02*
X72759305Y-62734253D01*
X72759305Y-62734253D02*
X72759305Y-62791396D01*
X72759305Y-62791396D02*
X72787876Y-62877110D01*
X72787876Y-62877110D02*
X73130733Y-63219967D01*
X73130733Y-63219967D02*
X72759305Y-63219967D01*
X72245019Y-62619967D02*
X72359304Y-62619967D01*
X72359304Y-62619967D02*
X72416447Y-62648538D01*
X72416447Y-62648538D02*
X72445019Y-62677110D01*
X72445019Y-62677110D02*
X72502161Y-62762824D01*
X72502161Y-62762824D02*
X72530733Y-62877110D01*
X72530733Y-62877110D02*
X72530733Y-63105681D01*
X72530733Y-63105681D02*
X72502161Y-63162824D01*
X72502161Y-63162824D02*
X72473590Y-63191396D01*
X72473590Y-63191396D02*
X72416447Y-63219967D01*
X72416447Y-63219967D02*
X72302161Y-63219967D01*
X72302161Y-63219967D02*
X72245019Y-63191396D01*
X72245019Y-63191396D02*
X72216447Y-63162824D01*
X72216447Y-63162824D02*
X72187876Y-63105681D01*
X72187876Y-63105681D02*
X72187876Y-62962824D01*
X72187876Y-62962824D02*
X72216447Y-62905681D01*
X72216447Y-62905681D02*
X72245019Y-62877110D01*
X72245019Y-62877110D02*
X72302161Y-62848538D01*
X72302161Y-62848538D02*
X72416447Y-62848538D01*
X72416447Y-62848538D02*
X72473590Y-62877110D01*
X72473590Y-62877110D02*
X72502161Y-62905681D01*
X72502161Y-62905681D02*
X72530733Y-62962824D01*
X72073590Y-63277110D02*
X71616447Y-63277110D01*
X71502161Y-63048538D02*
X71216447Y-63048538D01*
X71559304Y-63219967D02*
X71359304Y-62619967D01*
X71359304Y-62619967D02*
X71159304Y-63219967D01*
X70845018Y-62619967D02*
X70787875Y-62619967D01*
X70787875Y-62619967D02*
X70730732Y-62648538D01*
X70730732Y-62648538D02*
X70702161Y-62677110D01*
X70702161Y-62677110D02*
X70673589Y-62734253D01*
X70673589Y-62734253D02*
X70645018Y-62848538D01*
X70645018Y-62848538D02*
X70645018Y-62991396D01*
X70645018Y-62991396D02*
X70673589Y-63105681D01*
X70673589Y-63105681D02*
X70702161Y-63162824D01*
X70702161Y-63162824D02*
X70730732Y-63191396D01*
X70730732Y-63191396D02*
X70787875Y-63219967D01*
X70787875Y-63219967D02*
X70845018Y-63219967D01*
X70845018Y-63219967D02*
X70902161Y-63191396D01*
X70902161Y-63191396D02*
X70930732Y-63162824D01*
X70930732Y-63162824D02*
X70959303Y-63105681D01*
X70959303Y-63105681D02*
X70987875Y-62991396D01*
X70987875Y-62991396D02*
X70987875Y-62848538D01*
X70987875Y-62848538D02*
X70959303Y-62734253D01*
X70959303Y-62734253D02*
X70930732Y-62677110D01*
X70930732Y-62677110D02*
X70902161Y-62648538D01*
X70902161Y-62648538D02*
X70845018Y-62619967D01*
X73930733Y-47419967D02*
X73559305Y-47419967D01*
X73559305Y-47419967D02*
X73759305Y-47648538D01*
X73759305Y-47648538D02*
X73673590Y-47648538D01*
X73673590Y-47648538D02*
X73616448Y-47677110D01*
X73616448Y-47677110D02*
X73587876Y-47705681D01*
X73587876Y-47705681D02*
X73559305Y-47762824D01*
X73559305Y-47762824D02*
X73559305Y-47905681D01*
X73559305Y-47905681D02*
X73587876Y-47962824D01*
X73587876Y-47962824D02*
X73616448Y-47991396D01*
X73616448Y-47991396D02*
X73673590Y-48019967D01*
X73673590Y-48019967D02*
X73845019Y-48019967D01*
X73845019Y-48019967D02*
X73902162Y-47991396D01*
X73902162Y-47991396D02*
X73930733Y-47962824D01*
X73387876Y-47419967D02*
X73187876Y-48019967D01*
X73187876Y-48019967D02*
X72987876Y-47419967D01*
X72845018Y-47419967D02*
X72473590Y-47419967D01*
X72473590Y-47419967D02*
X72673590Y-47648538D01*
X72673590Y-47648538D02*
X72587875Y-47648538D01*
X72587875Y-47648538D02*
X72530733Y-47677110D01*
X72530733Y-47677110D02*
X72502161Y-47705681D01*
X72502161Y-47705681D02*
X72473590Y-47762824D01*
X72473590Y-47762824D02*
X72473590Y-47905681D01*
X72473590Y-47905681D02*
X72502161Y-47962824D01*
X72502161Y-47962824D02*
X72530733Y-47991396D01*
X72530733Y-47991396D02*
X72587875Y-48019967D01*
X72587875Y-48019967D02*
X72759304Y-48019967D01*
X72759304Y-48019967D02*
X72816447Y-47991396D01*
X72816447Y-47991396D02*
X72845018Y-47962824D01*
X72359304Y-48077110D02*
X71902161Y-48077110D01*
X71759303Y-47705681D02*
X71559303Y-47705681D01*
X71473589Y-48019967D02*
X71759303Y-48019967D01*
X71759303Y-48019967D02*
X71759303Y-47419967D01*
X71759303Y-47419967D02*
X71473589Y-47419967D01*
X71216446Y-48019967D02*
X71216446Y-47419967D01*
X71216446Y-47419967D02*
X70873589Y-48019967D01*
X70873589Y-48019967D02*
X70873589Y-47419967D01*
X62022834Y-92702162D02*
X61994262Y-92616448D01*
X61994262Y-92616448D02*
X61994262Y-92473590D01*
X61994262Y-92473590D02*
X62022834Y-92416448D01*
X62022834Y-92416448D02*
X62051405Y-92387876D01*
X62051405Y-92387876D02*
X62108548Y-92359305D01*
X62108548Y-92359305D02*
X62165691Y-92359305D01*
X62165691Y-92359305D02*
X62222834Y-92387876D01*
X62222834Y-92387876D02*
X62251405Y-92416448D01*
X62251405Y-92416448D02*
X62279976Y-92473590D01*
X62279976Y-92473590D02*
X62308548Y-92587876D01*
X62308548Y-92587876D02*
X62337119Y-92645019D01*
X62337119Y-92645019D02*
X62365691Y-92673590D01*
X62365691Y-92673590D02*
X62422834Y-92702162D01*
X62422834Y-92702162D02*
X62479976Y-92702162D01*
X62479976Y-92702162D02*
X62537119Y-92673590D01*
X62537119Y-92673590D02*
X62565691Y-92645019D01*
X62565691Y-92645019D02*
X62594262Y-92587876D01*
X62594262Y-92587876D02*
X62594262Y-92445019D01*
X62594262Y-92445019D02*
X62565691Y-92359305D01*
X62594262Y-92159304D02*
X61994262Y-92016447D01*
X61994262Y-92016447D02*
X62422834Y-91902161D01*
X62422834Y-91902161D02*
X61994262Y-91787876D01*
X61994262Y-91787876D02*
X62594262Y-91645019D01*
X61994262Y-91416447D02*
X62594262Y-91416447D01*
X62594262Y-91416447D02*
X62594262Y-91273590D01*
X62594262Y-91273590D02*
X62565691Y-91187876D01*
X62565691Y-91187876D02*
X62508548Y-91130733D01*
X62508548Y-91130733D02*
X62451405Y-91102162D01*
X62451405Y-91102162D02*
X62337119Y-91073590D01*
X62337119Y-91073590D02*
X62251405Y-91073590D01*
X62251405Y-91073590D02*
X62137119Y-91102162D01*
X62137119Y-91102162D02*
X62079976Y-91130733D01*
X62079976Y-91130733D02*
X62022834Y-91187876D01*
X62022834Y-91187876D02*
X61994262Y-91273590D01*
X61994262Y-91273590D02*
X61994262Y-91416447D01*
X61994262Y-90816447D02*
X62594262Y-90816447D01*
X62594262Y-90416448D02*
X62594262Y-90302162D01*
X62594262Y-90302162D02*
X62565691Y-90245019D01*
X62565691Y-90245019D02*
X62508548Y-90187876D01*
X62508548Y-90187876D02*
X62394262Y-90159305D01*
X62394262Y-90159305D02*
X62194262Y-90159305D01*
X62194262Y-90159305D02*
X62079976Y-90187876D01*
X62079976Y-90187876D02*
X62022834Y-90245019D01*
X62022834Y-90245019D02*
X61994262Y-90302162D01*
X61994262Y-90302162D02*
X61994262Y-90416448D01*
X61994262Y-90416448D02*
X62022834Y-90473591D01*
X62022834Y-90473591D02*
X62079976Y-90530733D01*
X62079976Y-90530733D02*
X62194262Y-90559305D01*
X62194262Y-90559305D02*
X62394262Y-90559305D01*
X62394262Y-90559305D02*
X62508548Y-90530733D01*
X62508548Y-90530733D02*
X62565691Y-90473591D01*
X62565691Y-90473591D02*
X62594262Y-90416448D01*
X73959305Y-55048538D02*
X74016448Y-55019967D01*
X74016448Y-55019967D02*
X74102162Y-55019967D01*
X74102162Y-55019967D02*
X74187876Y-55048538D01*
X74187876Y-55048538D02*
X74245019Y-55105681D01*
X74245019Y-55105681D02*
X74273590Y-55162824D01*
X74273590Y-55162824D02*
X74302162Y-55277110D01*
X74302162Y-55277110D02*
X74302162Y-55362824D01*
X74302162Y-55362824D02*
X74273590Y-55477110D01*
X74273590Y-55477110D02*
X74245019Y-55534253D01*
X74245019Y-55534253D02*
X74187876Y-55591396D01*
X74187876Y-55591396D02*
X74102162Y-55619967D01*
X74102162Y-55619967D02*
X74045019Y-55619967D01*
X74045019Y-55619967D02*
X73959305Y-55591396D01*
X73959305Y-55591396D02*
X73930733Y-55562824D01*
X73930733Y-55562824D02*
X73930733Y-55362824D01*
X73930733Y-55362824D02*
X74045019Y-55362824D01*
X73673590Y-55619967D02*
X73673590Y-55019967D01*
X73673590Y-55019967D02*
X73445019Y-55019967D01*
X73445019Y-55019967D02*
X73387876Y-55048538D01*
X73387876Y-55048538D02*
X73359305Y-55077110D01*
X73359305Y-55077110D02*
X73330733Y-55134253D01*
X73330733Y-55134253D02*
X73330733Y-55219967D01*
X73330733Y-55219967D02*
X73359305Y-55277110D01*
X73359305Y-55277110D02*
X73387876Y-55305681D01*
X73387876Y-55305681D02*
X73445019Y-55334253D01*
X73445019Y-55334253D02*
X73673590Y-55334253D01*
X73102162Y-55077110D02*
X73073590Y-55048538D01*
X73073590Y-55048538D02*
X73016448Y-55019967D01*
X73016448Y-55019967D02*
X72873590Y-55019967D01*
X72873590Y-55019967D02*
X72816448Y-55048538D01*
X72816448Y-55048538D02*
X72787876Y-55077110D01*
X72787876Y-55077110D02*
X72759305Y-55134253D01*
X72759305Y-55134253D02*
X72759305Y-55191396D01*
X72759305Y-55191396D02*
X72787876Y-55277110D01*
X72787876Y-55277110D02*
X73130733Y-55619967D01*
X73130733Y-55619967D02*
X72759305Y-55619967D01*
X72416447Y-55277110D02*
X72473590Y-55248538D01*
X72473590Y-55248538D02*
X72502161Y-55219967D01*
X72502161Y-55219967D02*
X72530733Y-55162824D01*
X72530733Y-55162824D02*
X72530733Y-55134253D01*
X72530733Y-55134253D02*
X72502161Y-55077110D01*
X72502161Y-55077110D02*
X72473590Y-55048538D01*
X72473590Y-55048538D02*
X72416447Y-55019967D01*
X72416447Y-55019967D02*
X72302161Y-55019967D01*
X72302161Y-55019967D02*
X72245019Y-55048538D01*
X72245019Y-55048538D02*
X72216447Y-55077110D01*
X72216447Y-55077110D02*
X72187876Y-55134253D01*
X72187876Y-55134253D02*
X72187876Y-55162824D01*
X72187876Y-55162824D02*
X72216447Y-55219967D01*
X72216447Y-55219967D02*
X72245019Y-55248538D01*
X72245019Y-55248538D02*
X72302161Y-55277110D01*
X72302161Y-55277110D02*
X72416447Y-55277110D01*
X72416447Y-55277110D02*
X72473590Y-55305681D01*
X72473590Y-55305681D02*
X72502161Y-55334253D01*
X72502161Y-55334253D02*
X72530733Y-55391396D01*
X72530733Y-55391396D02*
X72530733Y-55505681D01*
X72530733Y-55505681D02*
X72502161Y-55562824D01*
X72502161Y-55562824D02*
X72473590Y-55591396D01*
X72473590Y-55591396D02*
X72416447Y-55619967D01*
X72416447Y-55619967D02*
X72302161Y-55619967D01*
X72302161Y-55619967D02*
X72245019Y-55591396D01*
X72245019Y-55591396D02*
X72216447Y-55562824D01*
X72216447Y-55562824D02*
X72187876Y-55505681D01*
X72187876Y-55505681D02*
X72187876Y-55391396D01*
X72187876Y-55391396D02*
X72216447Y-55334253D01*
X72216447Y-55334253D02*
X72245019Y-55305681D01*
X72245019Y-55305681D02*
X72302161Y-55277110D01*
X72073590Y-55677110D02*
X71616447Y-55677110D01*
X71502161Y-55448538D02*
X71216447Y-55448538D01*
X71559304Y-55619967D02*
X71359304Y-55019967D01*
X71359304Y-55019967D02*
X71159304Y-55619967D01*
X70987875Y-55077110D02*
X70959303Y-55048538D01*
X70959303Y-55048538D02*
X70902161Y-55019967D01*
X70902161Y-55019967D02*
X70759303Y-55019967D01*
X70759303Y-55019967D02*
X70702161Y-55048538D01*
X70702161Y-55048538D02*
X70673589Y-55077110D01*
X70673589Y-55077110D02*
X70645018Y-55134253D01*
X70645018Y-55134253D02*
X70645018Y-55191396D01*
X70645018Y-55191396D02*
X70673589Y-55277110D01*
X70673589Y-55277110D02*
X71016446Y-55619967D01*
X71016446Y-55619967D02*
X70645018Y-55619967D01*
X47559305Y-65248538D02*
X47616448Y-65219967D01*
X47616448Y-65219967D02*
X47702162Y-65219967D01*
X47702162Y-65219967D02*
X47787876Y-65248538D01*
X47787876Y-65248538D02*
X47845019Y-65305681D01*
X47845019Y-65305681D02*
X47873590Y-65362824D01*
X47873590Y-65362824D02*
X47902162Y-65477110D01*
X47902162Y-65477110D02*
X47902162Y-65562824D01*
X47902162Y-65562824D02*
X47873590Y-65677110D01*
X47873590Y-65677110D02*
X47845019Y-65734253D01*
X47845019Y-65734253D02*
X47787876Y-65791396D01*
X47787876Y-65791396D02*
X47702162Y-65819967D01*
X47702162Y-65819967D02*
X47645019Y-65819967D01*
X47645019Y-65819967D02*
X47559305Y-65791396D01*
X47559305Y-65791396D02*
X47530733Y-65762824D01*
X47530733Y-65762824D02*
X47530733Y-65562824D01*
X47530733Y-65562824D02*
X47645019Y-65562824D01*
X47273590Y-65819967D02*
X47273590Y-65219967D01*
X47273590Y-65219967D02*
X47045019Y-65219967D01*
X47045019Y-65219967D02*
X46987876Y-65248538D01*
X46987876Y-65248538D02*
X46959305Y-65277110D01*
X46959305Y-65277110D02*
X46930733Y-65334253D01*
X46930733Y-65334253D02*
X46930733Y-65419967D01*
X46930733Y-65419967D02*
X46959305Y-65477110D01*
X46959305Y-65477110D02*
X46987876Y-65505681D01*
X46987876Y-65505681D02*
X47045019Y-65534253D01*
X47045019Y-65534253D02*
X47273590Y-65534253D01*
X46587876Y-65477110D02*
X46645019Y-65448538D01*
X46645019Y-65448538D02*
X46673590Y-65419967D01*
X46673590Y-65419967D02*
X46702162Y-65362824D01*
X46702162Y-65362824D02*
X46702162Y-65334253D01*
X46702162Y-65334253D02*
X46673590Y-65277110D01*
X46673590Y-65277110D02*
X46645019Y-65248538D01*
X46645019Y-65248538D02*
X46587876Y-65219967D01*
X46587876Y-65219967D02*
X46473590Y-65219967D01*
X46473590Y-65219967D02*
X46416448Y-65248538D01*
X46416448Y-65248538D02*
X46387876Y-65277110D01*
X46387876Y-65277110D02*
X46359305Y-65334253D01*
X46359305Y-65334253D02*
X46359305Y-65362824D01*
X46359305Y-65362824D02*
X46387876Y-65419967D01*
X46387876Y-65419967D02*
X46416448Y-65448538D01*
X46416448Y-65448538D02*
X46473590Y-65477110D01*
X46473590Y-65477110D02*
X46587876Y-65477110D01*
X46587876Y-65477110D02*
X46645019Y-65505681D01*
X46645019Y-65505681D02*
X46673590Y-65534253D01*
X46673590Y-65534253D02*
X46702162Y-65591396D01*
X46702162Y-65591396D02*
X46702162Y-65705681D01*
X46702162Y-65705681D02*
X46673590Y-65762824D01*
X46673590Y-65762824D02*
X46645019Y-65791396D01*
X46645019Y-65791396D02*
X46587876Y-65819967D01*
X46587876Y-65819967D02*
X46473590Y-65819967D01*
X46473590Y-65819967D02*
X46416448Y-65791396D01*
X46416448Y-65791396D02*
X46387876Y-65762824D01*
X46387876Y-65762824D02*
X46359305Y-65705681D01*
X46359305Y-65705681D02*
X46359305Y-65591396D01*
X46359305Y-65591396D02*
X46387876Y-65534253D01*
X46387876Y-65534253D02*
X46416448Y-65505681D01*
X46416448Y-65505681D02*
X46473590Y-65477110D01*
X73163163Y-88048538D02*
X73220306Y-88019967D01*
X73220306Y-88019967D02*
X73306020Y-88019967D01*
X73306020Y-88019967D02*
X73391734Y-88048538D01*
X73391734Y-88048538D02*
X73448877Y-88105681D01*
X73448877Y-88105681D02*
X73477448Y-88162824D01*
X73477448Y-88162824D02*
X73506020Y-88277110D01*
X73506020Y-88277110D02*
X73506020Y-88362824D01*
X73506020Y-88362824D02*
X73477448Y-88477110D01*
X73477448Y-88477110D02*
X73448877Y-88534253D01*
X73448877Y-88534253D02*
X73391734Y-88591396D01*
X73391734Y-88591396D02*
X73306020Y-88619967D01*
X73306020Y-88619967D02*
X73248877Y-88619967D01*
X73248877Y-88619967D02*
X73163163Y-88591396D01*
X73163163Y-88591396D02*
X73134591Y-88562824D01*
X73134591Y-88562824D02*
X73134591Y-88362824D01*
X73134591Y-88362824D02*
X73248877Y-88362824D01*
X72877448Y-88619967D02*
X72877448Y-88019967D01*
X72877448Y-88019967D02*
X72648877Y-88019967D01*
X72648877Y-88019967D02*
X72591734Y-88048538D01*
X72591734Y-88048538D02*
X72563163Y-88077110D01*
X72563163Y-88077110D02*
X72534591Y-88134253D01*
X72534591Y-88134253D02*
X72534591Y-88219967D01*
X72534591Y-88219967D02*
X72563163Y-88277110D01*
X72563163Y-88277110D02*
X72591734Y-88305681D01*
X72591734Y-88305681D02*
X72648877Y-88334253D01*
X72648877Y-88334253D02*
X72877448Y-88334253D01*
X71963163Y-88619967D02*
X72306020Y-88619967D01*
X72134591Y-88619967D02*
X72134591Y-88019967D01*
X72134591Y-88019967D02*
X72191734Y-88105681D01*
X72191734Y-88105681D02*
X72248877Y-88162824D01*
X72248877Y-88162824D02*
X72306020Y-88191396D01*
X71448877Y-88019967D02*
X71563162Y-88019967D01*
X71563162Y-88019967D02*
X71620305Y-88048538D01*
X71620305Y-88048538D02*
X71648877Y-88077110D01*
X71648877Y-88077110D02*
X71706019Y-88162824D01*
X71706019Y-88162824D02*
X71734591Y-88277110D01*
X71734591Y-88277110D02*
X71734591Y-88505681D01*
X71734591Y-88505681D02*
X71706019Y-88562824D01*
X71706019Y-88562824D02*
X71677448Y-88591396D01*
X71677448Y-88591396D02*
X71620305Y-88619967D01*
X71620305Y-88619967D02*
X71506019Y-88619967D01*
X71506019Y-88619967D02*
X71448877Y-88591396D01*
X71448877Y-88591396D02*
X71420305Y-88562824D01*
X71420305Y-88562824D02*
X71391734Y-88505681D01*
X71391734Y-88505681D02*
X71391734Y-88362824D01*
X71391734Y-88362824D02*
X71420305Y-88305681D01*
X71420305Y-88305681D02*
X71448877Y-88277110D01*
X71448877Y-88277110D02*
X71506019Y-88248538D01*
X71506019Y-88248538D02*
X71620305Y-88248538D01*
X71620305Y-88248538D02*
X71677448Y-88277110D01*
X71677448Y-88277110D02*
X71706019Y-88305681D01*
X71706019Y-88305681D02*
X71734591Y-88362824D01*
X47859305Y-75348538D02*
X47916448Y-75319967D01*
X47916448Y-75319967D02*
X48002162Y-75319967D01*
X48002162Y-75319967D02*
X48087876Y-75348538D01*
X48087876Y-75348538D02*
X48145019Y-75405681D01*
X48145019Y-75405681D02*
X48173590Y-75462824D01*
X48173590Y-75462824D02*
X48202162Y-75577110D01*
X48202162Y-75577110D02*
X48202162Y-75662824D01*
X48202162Y-75662824D02*
X48173590Y-75777110D01*
X48173590Y-75777110D02*
X48145019Y-75834253D01*
X48145019Y-75834253D02*
X48087876Y-75891396D01*
X48087876Y-75891396D02*
X48002162Y-75919967D01*
X48002162Y-75919967D02*
X47945019Y-75919967D01*
X47945019Y-75919967D02*
X47859305Y-75891396D01*
X47859305Y-75891396D02*
X47830733Y-75862824D01*
X47830733Y-75862824D02*
X47830733Y-75662824D01*
X47830733Y-75662824D02*
X47945019Y-75662824D01*
X47573590Y-75919967D02*
X47573590Y-75319967D01*
X47573590Y-75319967D02*
X47345019Y-75319967D01*
X47345019Y-75319967D02*
X47287876Y-75348538D01*
X47287876Y-75348538D02*
X47259305Y-75377110D01*
X47259305Y-75377110D02*
X47230733Y-75434253D01*
X47230733Y-75434253D02*
X47230733Y-75519967D01*
X47230733Y-75519967D02*
X47259305Y-75577110D01*
X47259305Y-75577110D02*
X47287876Y-75605681D01*
X47287876Y-75605681D02*
X47345019Y-75634253D01*
X47345019Y-75634253D02*
X47573590Y-75634253D01*
X46659305Y-75919967D02*
X47002162Y-75919967D01*
X46830733Y-75919967D02*
X46830733Y-75319967D01*
X46830733Y-75319967D02*
X46887876Y-75405681D01*
X46887876Y-75405681D02*
X46945019Y-75462824D01*
X46945019Y-75462824D02*
X47002162Y-75491396D01*
X46087876Y-75919967D02*
X46430733Y-75919967D01*
X46259304Y-75919967D02*
X46259304Y-75319967D01*
X46259304Y-75319967D02*
X46316447Y-75405681D01*
X46316447Y-75405681D02*
X46373590Y-75462824D01*
X46373590Y-75462824D02*
X46430733Y-75491396D01*
X47559305Y-60148538D02*
X47616448Y-60119967D01*
X47616448Y-60119967D02*
X47702162Y-60119967D01*
X47702162Y-60119967D02*
X47787876Y-60148538D01*
X47787876Y-60148538D02*
X47845019Y-60205681D01*
X47845019Y-60205681D02*
X47873590Y-60262824D01*
X47873590Y-60262824D02*
X47902162Y-60377110D01*
X47902162Y-60377110D02*
X47902162Y-60462824D01*
X47902162Y-60462824D02*
X47873590Y-60577110D01*
X47873590Y-60577110D02*
X47845019Y-60634253D01*
X47845019Y-60634253D02*
X47787876Y-60691396D01*
X47787876Y-60691396D02*
X47702162Y-60719967D01*
X47702162Y-60719967D02*
X47645019Y-60719967D01*
X47645019Y-60719967D02*
X47559305Y-60691396D01*
X47559305Y-60691396D02*
X47530733Y-60662824D01*
X47530733Y-60662824D02*
X47530733Y-60462824D01*
X47530733Y-60462824D02*
X47645019Y-60462824D01*
X47273590Y-60719967D02*
X47273590Y-60119967D01*
X47273590Y-60119967D02*
X47045019Y-60119967D01*
X47045019Y-60119967D02*
X46987876Y-60148538D01*
X46987876Y-60148538D02*
X46959305Y-60177110D01*
X46959305Y-60177110D02*
X46930733Y-60234253D01*
X46930733Y-60234253D02*
X46930733Y-60319967D01*
X46930733Y-60319967D02*
X46959305Y-60377110D01*
X46959305Y-60377110D02*
X46987876Y-60405681D01*
X46987876Y-60405681D02*
X47045019Y-60434253D01*
X47045019Y-60434253D02*
X47273590Y-60434253D01*
X46416448Y-60119967D02*
X46530733Y-60119967D01*
X46530733Y-60119967D02*
X46587876Y-60148538D01*
X46587876Y-60148538D02*
X46616448Y-60177110D01*
X46616448Y-60177110D02*
X46673590Y-60262824D01*
X46673590Y-60262824D02*
X46702162Y-60377110D01*
X46702162Y-60377110D02*
X46702162Y-60605681D01*
X46702162Y-60605681D02*
X46673590Y-60662824D01*
X46673590Y-60662824D02*
X46645019Y-60691396D01*
X46645019Y-60691396D02*
X46587876Y-60719967D01*
X46587876Y-60719967D02*
X46473590Y-60719967D01*
X46473590Y-60719967D02*
X46416448Y-60691396D01*
X46416448Y-60691396D02*
X46387876Y-60662824D01*
X46387876Y-60662824D02*
X46359305Y-60605681D01*
X46359305Y-60605681D02*
X46359305Y-60462824D01*
X46359305Y-60462824D02*
X46387876Y-60405681D01*
X46387876Y-60405681D02*
X46416448Y-60377110D01*
X46416448Y-60377110D02*
X46473590Y-60348538D01*
X46473590Y-60348538D02*
X46587876Y-60348538D01*
X46587876Y-60348538D02*
X46645019Y-60377110D01*
X46645019Y-60377110D02*
X46673590Y-60405681D01*
X46673590Y-60405681D02*
X46702162Y-60462824D01*
X47859305Y-80448538D02*
X47916448Y-80419967D01*
X47916448Y-80419967D02*
X48002162Y-80419967D01*
X48002162Y-80419967D02*
X48087876Y-80448538D01*
X48087876Y-80448538D02*
X48145019Y-80505681D01*
X48145019Y-80505681D02*
X48173590Y-80562824D01*
X48173590Y-80562824D02*
X48202162Y-80677110D01*
X48202162Y-80677110D02*
X48202162Y-80762824D01*
X48202162Y-80762824D02*
X48173590Y-80877110D01*
X48173590Y-80877110D02*
X48145019Y-80934253D01*
X48145019Y-80934253D02*
X48087876Y-80991396D01*
X48087876Y-80991396D02*
X48002162Y-81019967D01*
X48002162Y-81019967D02*
X47945019Y-81019967D01*
X47945019Y-81019967D02*
X47859305Y-80991396D01*
X47859305Y-80991396D02*
X47830733Y-80962824D01*
X47830733Y-80962824D02*
X47830733Y-80762824D01*
X47830733Y-80762824D02*
X47945019Y-80762824D01*
X47573590Y-81019967D02*
X47573590Y-80419967D01*
X47573590Y-80419967D02*
X47345019Y-80419967D01*
X47345019Y-80419967D02*
X47287876Y-80448538D01*
X47287876Y-80448538D02*
X47259305Y-80477110D01*
X47259305Y-80477110D02*
X47230733Y-80534253D01*
X47230733Y-80534253D02*
X47230733Y-80619967D01*
X47230733Y-80619967D02*
X47259305Y-80677110D01*
X47259305Y-80677110D02*
X47287876Y-80705681D01*
X47287876Y-80705681D02*
X47345019Y-80734253D01*
X47345019Y-80734253D02*
X47573590Y-80734253D01*
X46659305Y-81019967D02*
X47002162Y-81019967D01*
X46830733Y-81019967D02*
X46830733Y-80419967D01*
X46830733Y-80419967D02*
X46887876Y-80505681D01*
X46887876Y-80505681D02*
X46945019Y-80562824D01*
X46945019Y-80562824D02*
X47002162Y-80591396D01*
X46459304Y-80419967D02*
X46087876Y-80419967D01*
X46087876Y-80419967D02*
X46287876Y-80648538D01*
X46287876Y-80648538D02*
X46202161Y-80648538D01*
X46202161Y-80648538D02*
X46145019Y-80677110D01*
X46145019Y-80677110D02*
X46116447Y-80705681D01*
X46116447Y-80705681D02*
X46087876Y-80762824D01*
X46087876Y-80762824D02*
X46087876Y-80905681D01*
X46087876Y-80905681D02*
X46116447Y-80962824D01*
X46116447Y-80962824D02*
X46145019Y-80991396D01*
X46145019Y-80991396D02*
X46202161Y-81019967D01*
X46202161Y-81019967D02*
X46373590Y-81019967D01*
X46373590Y-81019967D02*
X46430733Y-80991396D01*
X46430733Y-80991396D02*
X46459304Y-80962824D01*
X73163163Y-82948538D02*
X73220306Y-82919967D01*
X73220306Y-82919967D02*
X73306020Y-82919967D01*
X73306020Y-82919967D02*
X73391734Y-82948538D01*
X73391734Y-82948538D02*
X73448877Y-83005681D01*
X73448877Y-83005681D02*
X73477448Y-83062824D01*
X73477448Y-83062824D02*
X73506020Y-83177110D01*
X73506020Y-83177110D02*
X73506020Y-83262824D01*
X73506020Y-83262824D02*
X73477448Y-83377110D01*
X73477448Y-83377110D02*
X73448877Y-83434253D01*
X73448877Y-83434253D02*
X73391734Y-83491396D01*
X73391734Y-83491396D02*
X73306020Y-83519967D01*
X73306020Y-83519967D02*
X73248877Y-83519967D01*
X73248877Y-83519967D02*
X73163163Y-83491396D01*
X73163163Y-83491396D02*
X73134591Y-83462824D01*
X73134591Y-83462824D02*
X73134591Y-83262824D01*
X73134591Y-83262824D02*
X73248877Y-83262824D01*
X72877448Y-83519967D02*
X72877448Y-82919967D01*
X72877448Y-82919967D02*
X72534591Y-83519967D01*
X72534591Y-83519967D02*
X72534591Y-82919967D01*
X72248877Y-83519967D02*
X72248877Y-82919967D01*
X72248877Y-82919967D02*
X72106020Y-82919967D01*
X72106020Y-82919967D02*
X72020306Y-82948538D01*
X72020306Y-82948538D02*
X71963163Y-83005681D01*
X71963163Y-83005681D02*
X71934592Y-83062824D01*
X71934592Y-83062824D02*
X71906020Y-83177110D01*
X71906020Y-83177110D02*
X71906020Y-83262824D01*
X71906020Y-83262824D02*
X71934592Y-83377110D01*
X71934592Y-83377110D02*
X71963163Y-83434253D01*
X71963163Y-83434253D02*
X72020306Y-83491396D01*
X72020306Y-83491396D02*
X72106020Y-83519967D01*
X72106020Y-83519967D02*
X72248877Y-83519967D01*
X73502162Y-57948538D02*
X73216448Y-57948538D01*
X73559305Y-58119967D02*
X73359305Y-57519967D01*
X73359305Y-57519967D02*
X73159305Y-58119967D01*
X72645019Y-57548538D02*
X72702162Y-57519967D01*
X72702162Y-57519967D02*
X72787876Y-57519967D01*
X72787876Y-57519967D02*
X72873590Y-57548538D01*
X72873590Y-57548538D02*
X72930733Y-57605681D01*
X72930733Y-57605681D02*
X72959304Y-57662824D01*
X72959304Y-57662824D02*
X72987876Y-57777110D01*
X72987876Y-57777110D02*
X72987876Y-57862824D01*
X72987876Y-57862824D02*
X72959304Y-57977110D01*
X72959304Y-57977110D02*
X72930733Y-58034253D01*
X72930733Y-58034253D02*
X72873590Y-58091396D01*
X72873590Y-58091396D02*
X72787876Y-58119967D01*
X72787876Y-58119967D02*
X72730733Y-58119967D01*
X72730733Y-58119967D02*
X72645019Y-58091396D01*
X72645019Y-58091396D02*
X72616447Y-58062824D01*
X72616447Y-58062824D02*
X72616447Y-57862824D01*
X72616447Y-57862824D02*
X72730733Y-57862824D01*
X72359304Y-58119967D02*
X72359304Y-57519967D01*
X72359304Y-57519967D02*
X72016447Y-58119967D01*
X72016447Y-58119967D02*
X72016447Y-57519967D01*
X71730733Y-58119967D02*
X71730733Y-57519967D01*
X71730733Y-57519967D02*
X71587876Y-57519967D01*
X71587876Y-57519967D02*
X71502162Y-57548538D01*
X71502162Y-57548538D02*
X71445019Y-57605681D01*
X71445019Y-57605681D02*
X71416448Y-57662824D01*
X71416448Y-57662824D02*
X71387876Y-57777110D01*
X71387876Y-57777110D02*
X71387876Y-57862824D01*
X71387876Y-57862824D02*
X71416448Y-57977110D01*
X71416448Y-57977110D02*
X71445019Y-58034253D01*
X71445019Y-58034253D02*
X71502162Y-58091396D01*
X71502162Y-58091396D02*
X71587876Y-58119967D01*
X71587876Y-58119967D02*
X71730733Y-58119967D01*
D10*
X65291621Y-78248774D02*
X65291621Y-77748774D01*
X65291621Y-77748774D02*
X65101145Y-77748774D01*
X65101145Y-77748774D02*
X65053526Y-77772584D01*
X65053526Y-77772584D02*
X65029716Y-77796393D01*
X65029716Y-77796393D02*
X65005907Y-77844012D01*
X65005907Y-77844012D02*
X65005907Y-77915441D01*
X65005907Y-77915441D02*
X65029716Y-77963060D01*
X65029716Y-77963060D02*
X65053526Y-77986869D01*
X65053526Y-77986869D02*
X65101145Y-78010679D01*
X65101145Y-78010679D02*
X65291621Y-78010679D01*
X64791621Y-78248774D02*
X64791621Y-77915441D01*
X64791621Y-77748774D02*
X64815430Y-77772584D01*
X64815430Y-77772584D02*
X64791621Y-77796393D01*
X64791621Y-77796393D02*
X64767811Y-77772584D01*
X64767811Y-77772584D02*
X64791621Y-77748774D01*
X64791621Y-77748774D02*
X64791621Y-77796393D01*
X64339240Y-78224965D02*
X64386859Y-78248774D01*
X64386859Y-78248774D02*
X64482097Y-78248774D01*
X64482097Y-78248774D02*
X64529716Y-78224965D01*
X64529716Y-78224965D02*
X64553526Y-78201155D01*
X64553526Y-78201155D02*
X64577335Y-78153536D01*
X64577335Y-78153536D02*
X64577335Y-78010679D01*
X64577335Y-78010679D02*
X64553526Y-77963060D01*
X64553526Y-77963060D02*
X64529716Y-77939250D01*
X64529716Y-77939250D02*
X64482097Y-77915441D01*
X64482097Y-77915441D02*
X64386859Y-77915441D01*
X64386859Y-77915441D02*
X64339240Y-77939250D01*
X64053526Y-78248774D02*
X64101145Y-78224965D01*
X64101145Y-78224965D02*
X64124955Y-78201155D01*
X64124955Y-78201155D02*
X64148764Y-78153536D01*
X64148764Y-78153536D02*
X64148764Y-78010679D01*
X64148764Y-78010679D02*
X64124955Y-77963060D01*
X64124955Y-77963060D02*
X64101145Y-77939250D01*
X64101145Y-77939250D02*
X64053526Y-77915441D01*
X64053526Y-77915441D02*
X63982098Y-77915441D01*
X63982098Y-77915441D02*
X63934479Y-77939250D01*
X63934479Y-77939250D02*
X63910669Y-77963060D01*
X63910669Y-77963060D02*
X63886860Y-78010679D01*
X63886860Y-78010679D02*
X63886860Y-78153536D01*
X63886860Y-78153536D02*
X63910669Y-78201155D01*
X63910669Y-78201155D02*
X63934479Y-78224965D01*
X63934479Y-78224965D02*
X63982098Y-78248774D01*
X63982098Y-78248774D02*
X64053526Y-78248774D01*
X63339241Y-77748774D02*
X63220193Y-78248774D01*
X63220193Y-78248774D02*
X63124955Y-77891631D01*
X63124955Y-77891631D02*
X63029717Y-78248774D01*
X63029717Y-78248774D02*
X62910670Y-77748774D01*
X62172574Y-77986869D02*
X62101146Y-78010679D01*
X62101146Y-78010679D02*
X62077336Y-78034488D01*
X62077336Y-78034488D02*
X62053527Y-78082107D01*
X62053527Y-78082107D02*
X62053527Y-78153536D01*
X62053527Y-78153536D02*
X62077336Y-78201155D01*
X62077336Y-78201155D02*
X62101146Y-78224965D01*
X62101146Y-78224965D02*
X62148765Y-78248774D01*
X62148765Y-78248774D02*
X62339241Y-78248774D01*
X62339241Y-78248774D02*
X62339241Y-77748774D01*
X62339241Y-77748774D02*
X62172574Y-77748774D01*
X62172574Y-77748774D02*
X62124955Y-77772584D01*
X62124955Y-77772584D02*
X62101146Y-77796393D01*
X62101146Y-77796393D02*
X62077336Y-77844012D01*
X62077336Y-77844012D02*
X62077336Y-77891631D01*
X62077336Y-77891631D02*
X62101146Y-77939250D01*
X62101146Y-77939250D02*
X62124955Y-77963060D01*
X62124955Y-77963060D02*
X62172574Y-77986869D01*
X62172574Y-77986869D02*
X62339241Y-77986869D01*
X61839241Y-78248774D02*
X61839241Y-77915441D01*
X61839241Y-78010679D02*
X61815431Y-77963060D01*
X61815431Y-77963060D02*
X61791622Y-77939250D01*
X61791622Y-77939250D02*
X61744003Y-77915441D01*
X61744003Y-77915441D02*
X61696384Y-77915441D01*
X61339241Y-78224965D02*
X61386860Y-78248774D01*
X61386860Y-78248774D02*
X61482098Y-78248774D01*
X61482098Y-78248774D02*
X61529717Y-78224965D01*
X61529717Y-78224965D02*
X61553526Y-78177345D01*
X61553526Y-78177345D02*
X61553526Y-77986869D01*
X61553526Y-77986869D02*
X61529717Y-77939250D01*
X61529717Y-77939250D02*
X61482098Y-77915441D01*
X61482098Y-77915441D02*
X61386860Y-77915441D01*
X61386860Y-77915441D02*
X61339241Y-77939250D01*
X61339241Y-77939250D02*
X61315431Y-77986869D01*
X61315431Y-77986869D02*
X61315431Y-78034488D01*
X61315431Y-78034488D02*
X61553526Y-78082107D01*
X60886860Y-78248774D02*
X60886860Y-77986869D01*
X60886860Y-77986869D02*
X60910670Y-77939250D01*
X60910670Y-77939250D02*
X60958289Y-77915441D01*
X60958289Y-77915441D02*
X61053527Y-77915441D01*
X61053527Y-77915441D02*
X61101146Y-77939250D01*
X60886860Y-78224965D02*
X60934479Y-78248774D01*
X60934479Y-78248774D02*
X61053527Y-78248774D01*
X61053527Y-78248774D02*
X61101146Y-78224965D01*
X61101146Y-78224965D02*
X61124955Y-78177345D01*
X61124955Y-78177345D02*
X61124955Y-78129726D01*
X61124955Y-78129726D02*
X61101146Y-78082107D01*
X61101146Y-78082107D02*
X61053527Y-78058298D01*
X61053527Y-78058298D02*
X60934479Y-78058298D01*
X60934479Y-78058298D02*
X60886860Y-78034488D01*
X60648765Y-78248774D02*
X60648765Y-77748774D01*
X60601146Y-78058298D02*
X60458289Y-78248774D01*
X60458289Y-77915441D02*
X60648765Y-78105917D01*
X60172574Y-78248774D02*
X60220193Y-78224965D01*
X60220193Y-78224965D02*
X60244003Y-78201155D01*
X60244003Y-78201155D02*
X60267812Y-78153536D01*
X60267812Y-78153536D02*
X60267812Y-78010679D01*
X60267812Y-78010679D02*
X60244003Y-77963060D01*
X60244003Y-77963060D02*
X60220193Y-77939250D01*
X60220193Y-77939250D02*
X60172574Y-77915441D01*
X60172574Y-77915441D02*
X60101146Y-77915441D01*
X60101146Y-77915441D02*
X60053527Y-77939250D01*
X60053527Y-77939250D02*
X60029717Y-77963060D01*
X60029717Y-77963060D02*
X60005908Y-78010679D01*
X60005908Y-78010679D02*
X60005908Y-78153536D01*
X60005908Y-78153536D02*
X60029717Y-78201155D01*
X60029717Y-78201155D02*
X60053527Y-78224965D01*
X60053527Y-78224965D02*
X60101146Y-78248774D01*
X60101146Y-78248774D02*
X60172574Y-78248774D01*
X59577336Y-77915441D02*
X59577336Y-78248774D01*
X59791622Y-77915441D02*
X59791622Y-78177345D01*
X59791622Y-78177345D02*
X59767812Y-78224965D01*
X59767812Y-78224965D02*
X59720193Y-78248774D01*
X59720193Y-78248774D02*
X59648765Y-78248774D01*
X59648765Y-78248774D02*
X59601146Y-78224965D01*
X59601146Y-78224965D02*
X59577336Y-78201155D01*
X59410669Y-77915441D02*
X59220193Y-77915441D01*
X59339241Y-77748774D02*
X59339241Y-78177345D01*
X59339241Y-78177345D02*
X59315431Y-78224965D01*
X59315431Y-78224965D02*
X59267812Y-78248774D01*
X59267812Y-78248774D02*
X59220193Y-78248774D01*
X58386861Y-78248774D02*
X58553527Y-78010679D01*
X58672575Y-78248774D02*
X58672575Y-77748774D01*
X58672575Y-77748774D02*
X58482099Y-77748774D01*
X58482099Y-77748774D02*
X58434480Y-77772584D01*
X58434480Y-77772584D02*
X58410670Y-77796393D01*
X58410670Y-77796393D02*
X58386861Y-77844012D01*
X58386861Y-77844012D02*
X58386861Y-77915441D01*
X58386861Y-77915441D02*
X58410670Y-77963060D01*
X58410670Y-77963060D02*
X58434480Y-77986869D01*
X58434480Y-77986869D02*
X58482099Y-78010679D01*
X58482099Y-78010679D02*
X58672575Y-78010679D01*
X57982099Y-78224965D02*
X58029718Y-78248774D01*
X58029718Y-78248774D02*
X58124956Y-78248774D01*
X58124956Y-78248774D02*
X58172575Y-78224965D01*
X58172575Y-78224965D02*
X58196384Y-78177345D01*
X58196384Y-78177345D02*
X58196384Y-77986869D01*
X58196384Y-77986869D02*
X58172575Y-77939250D01*
X58172575Y-77939250D02*
X58124956Y-77915441D01*
X58124956Y-77915441D02*
X58029718Y-77915441D01*
X58029718Y-77915441D02*
X57982099Y-77939250D01*
X57982099Y-77939250D02*
X57958289Y-77986869D01*
X57958289Y-77986869D02*
X57958289Y-78034488D01*
X57958289Y-78034488D02*
X58196384Y-78082107D01*
X57791623Y-77915441D02*
X57672575Y-78248774D01*
X57672575Y-78248774D02*
X57553528Y-77915441D01*
X57363052Y-78201155D02*
X57339242Y-78224965D01*
X57339242Y-78224965D02*
X57363052Y-78248774D01*
X57363052Y-78248774D02*
X57386861Y-78224965D01*
X57386861Y-78224965D02*
X57363052Y-78201155D01*
X57363052Y-78201155D02*
X57363052Y-78248774D01*
X56863052Y-78248774D02*
X57148766Y-78248774D01*
X57005909Y-78248774D02*
X57005909Y-77748774D01*
X57005909Y-77748774D02*
X57053528Y-77820203D01*
X57053528Y-77820203D02*
X57101147Y-77867822D01*
X57101147Y-77867822D02*
X57148766Y-77891631D01*
D12*
X47559305Y-39748538D02*
X47616448Y-39719967D01*
X47616448Y-39719967D02*
X47702162Y-39719967D01*
X47702162Y-39719967D02*
X47787876Y-39748538D01*
X47787876Y-39748538D02*
X47845019Y-39805681D01*
X47845019Y-39805681D02*
X47873590Y-39862824D01*
X47873590Y-39862824D02*
X47902162Y-39977110D01*
X47902162Y-39977110D02*
X47902162Y-40062824D01*
X47902162Y-40062824D02*
X47873590Y-40177110D01*
X47873590Y-40177110D02*
X47845019Y-40234253D01*
X47845019Y-40234253D02*
X47787876Y-40291396D01*
X47787876Y-40291396D02*
X47702162Y-40319967D01*
X47702162Y-40319967D02*
X47645019Y-40319967D01*
X47645019Y-40319967D02*
X47559305Y-40291396D01*
X47559305Y-40291396D02*
X47530733Y-40262824D01*
X47530733Y-40262824D02*
X47530733Y-40062824D01*
X47530733Y-40062824D02*
X47645019Y-40062824D01*
X47273590Y-40319967D02*
X47273590Y-39719967D01*
X47273590Y-39719967D02*
X47045019Y-39719967D01*
X47045019Y-39719967D02*
X46987876Y-39748538D01*
X46987876Y-39748538D02*
X46959305Y-39777110D01*
X46959305Y-39777110D02*
X46930733Y-39834253D01*
X46930733Y-39834253D02*
X46930733Y-39919967D01*
X46930733Y-39919967D02*
X46959305Y-39977110D01*
X46959305Y-39977110D02*
X46987876Y-40005681D01*
X46987876Y-40005681D02*
X47045019Y-40034253D01*
X47045019Y-40034253D02*
X47273590Y-40034253D01*
X46559305Y-39719967D02*
X46502162Y-39719967D01*
X46502162Y-39719967D02*
X46445019Y-39748538D01*
X46445019Y-39748538D02*
X46416448Y-39777110D01*
X46416448Y-39777110D02*
X46387876Y-39834253D01*
X46387876Y-39834253D02*
X46359305Y-39948538D01*
X46359305Y-39948538D02*
X46359305Y-40091396D01*
X46359305Y-40091396D02*
X46387876Y-40205681D01*
X46387876Y-40205681D02*
X46416448Y-40262824D01*
X46416448Y-40262824D02*
X46445019Y-40291396D01*
X46445019Y-40291396D02*
X46502162Y-40319967D01*
X46502162Y-40319967D02*
X46559305Y-40319967D01*
X46559305Y-40319967D02*
X46616448Y-40291396D01*
X46616448Y-40291396D02*
X46645019Y-40262824D01*
X46645019Y-40262824D02*
X46673590Y-40205681D01*
X46673590Y-40205681D02*
X46702162Y-40091396D01*
X46702162Y-40091396D02*
X46702162Y-39948538D01*
X46702162Y-39948538D02*
X46673590Y-39834253D01*
X46673590Y-39834253D02*
X46645019Y-39777110D01*
X46645019Y-39777110D02*
X46616448Y-39748538D01*
X46616448Y-39748538D02*
X46559305Y-39719967D01*
X47559305Y-67748538D02*
X47616448Y-67719967D01*
X47616448Y-67719967D02*
X47702162Y-67719967D01*
X47702162Y-67719967D02*
X47787876Y-67748538D01*
X47787876Y-67748538D02*
X47845019Y-67805681D01*
X47845019Y-67805681D02*
X47873590Y-67862824D01*
X47873590Y-67862824D02*
X47902162Y-67977110D01*
X47902162Y-67977110D02*
X47902162Y-68062824D01*
X47902162Y-68062824D02*
X47873590Y-68177110D01*
X47873590Y-68177110D02*
X47845019Y-68234253D01*
X47845019Y-68234253D02*
X47787876Y-68291396D01*
X47787876Y-68291396D02*
X47702162Y-68319967D01*
X47702162Y-68319967D02*
X47645019Y-68319967D01*
X47645019Y-68319967D02*
X47559305Y-68291396D01*
X47559305Y-68291396D02*
X47530733Y-68262824D01*
X47530733Y-68262824D02*
X47530733Y-68062824D01*
X47530733Y-68062824D02*
X47645019Y-68062824D01*
X47273590Y-68319967D02*
X47273590Y-67719967D01*
X47273590Y-67719967D02*
X47045019Y-67719967D01*
X47045019Y-67719967D02*
X46987876Y-67748538D01*
X46987876Y-67748538D02*
X46959305Y-67777110D01*
X46959305Y-67777110D02*
X46930733Y-67834253D01*
X46930733Y-67834253D02*
X46930733Y-67919967D01*
X46930733Y-67919967D02*
X46959305Y-67977110D01*
X46959305Y-67977110D02*
X46987876Y-68005681D01*
X46987876Y-68005681D02*
X47045019Y-68034253D01*
X47045019Y-68034253D02*
X47273590Y-68034253D01*
X46645019Y-68319967D02*
X46530733Y-68319967D01*
X46530733Y-68319967D02*
X46473590Y-68291396D01*
X46473590Y-68291396D02*
X46445019Y-68262824D01*
X46445019Y-68262824D02*
X46387876Y-68177110D01*
X46387876Y-68177110D02*
X46359305Y-68062824D01*
X46359305Y-68062824D02*
X46359305Y-67834253D01*
X46359305Y-67834253D02*
X46387876Y-67777110D01*
X46387876Y-67777110D02*
X46416448Y-67748538D01*
X46416448Y-67748538D02*
X46473590Y-67719967D01*
X46473590Y-67719967D02*
X46587876Y-67719967D01*
X46587876Y-67719967D02*
X46645019Y-67748538D01*
X46645019Y-67748538D02*
X46673590Y-67777110D01*
X46673590Y-67777110D02*
X46702162Y-67834253D01*
X46702162Y-67834253D02*
X46702162Y-67977110D01*
X46702162Y-67977110D02*
X46673590Y-68034253D01*
X46673590Y-68034253D02*
X46645019Y-68062824D01*
X46645019Y-68062824D02*
X46587876Y-68091396D01*
X46587876Y-68091396D02*
X46473590Y-68091396D01*
X46473590Y-68091396D02*
X46416448Y-68062824D01*
X46416448Y-68062824D02*
X46387876Y-68034253D01*
X46387876Y-68034253D02*
X46359305Y-67977110D01*
X47559305Y-55048538D02*
X47616448Y-55019967D01*
X47616448Y-55019967D02*
X47702162Y-55019967D01*
X47702162Y-55019967D02*
X47787876Y-55048538D01*
X47787876Y-55048538D02*
X47845019Y-55105681D01*
X47845019Y-55105681D02*
X47873590Y-55162824D01*
X47873590Y-55162824D02*
X47902162Y-55277110D01*
X47902162Y-55277110D02*
X47902162Y-55362824D01*
X47902162Y-55362824D02*
X47873590Y-55477110D01*
X47873590Y-55477110D02*
X47845019Y-55534253D01*
X47845019Y-55534253D02*
X47787876Y-55591396D01*
X47787876Y-55591396D02*
X47702162Y-55619967D01*
X47702162Y-55619967D02*
X47645019Y-55619967D01*
X47645019Y-55619967D02*
X47559305Y-55591396D01*
X47559305Y-55591396D02*
X47530733Y-55562824D01*
X47530733Y-55562824D02*
X47530733Y-55362824D01*
X47530733Y-55362824D02*
X47645019Y-55362824D01*
X47273590Y-55619967D02*
X47273590Y-55019967D01*
X47273590Y-55019967D02*
X47045019Y-55019967D01*
X47045019Y-55019967D02*
X46987876Y-55048538D01*
X46987876Y-55048538D02*
X46959305Y-55077110D01*
X46959305Y-55077110D02*
X46930733Y-55134253D01*
X46930733Y-55134253D02*
X46930733Y-55219967D01*
X46930733Y-55219967D02*
X46959305Y-55277110D01*
X46959305Y-55277110D02*
X46987876Y-55305681D01*
X46987876Y-55305681D02*
X47045019Y-55334253D01*
X47045019Y-55334253D02*
X47273590Y-55334253D01*
X46387876Y-55019967D02*
X46673590Y-55019967D01*
X46673590Y-55019967D02*
X46702162Y-55305681D01*
X46702162Y-55305681D02*
X46673590Y-55277110D01*
X46673590Y-55277110D02*
X46616448Y-55248538D01*
X46616448Y-55248538D02*
X46473590Y-55248538D01*
X46473590Y-55248538D02*
X46416448Y-55277110D01*
X46416448Y-55277110D02*
X46387876Y-55305681D01*
X46387876Y-55305681D02*
X46359305Y-55362824D01*
X46359305Y-55362824D02*
X46359305Y-55505681D01*
X46359305Y-55505681D02*
X46387876Y-55562824D01*
X46387876Y-55562824D02*
X46416448Y-55591396D01*
X46416448Y-55591396D02*
X46473590Y-55619967D01*
X46473590Y-55619967D02*
X46616448Y-55619967D01*
X46616448Y-55619967D02*
X46673590Y-55591396D01*
X46673590Y-55591396D02*
X46702162Y-55562824D01*
X73359305Y-39819967D02*
X73159305Y-40419967D01*
X73159305Y-40419967D02*
X72959305Y-39819967D01*
X72559304Y-40105681D02*
X72473590Y-40134253D01*
X72473590Y-40134253D02*
X72445019Y-40162824D01*
X72445019Y-40162824D02*
X72416447Y-40219967D01*
X72416447Y-40219967D02*
X72416447Y-40305681D01*
X72416447Y-40305681D02*
X72445019Y-40362824D01*
X72445019Y-40362824D02*
X72473590Y-40391396D01*
X72473590Y-40391396D02*
X72530733Y-40419967D01*
X72530733Y-40419967D02*
X72759304Y-40419967D01*
X72759304Y-40419967D02*
X72759304Y-39819967D01*
X72759304Y-39819967D02*
X72559304Y-39819967D01*
X72559304Y-39819967D02*
X72502162Y-39848538D01*
X72502162Y-39848538D02*
X72473590Y-39877110D01*
X72473590Y-39877110D02*
X72445019Y-39934253D01*
X72445019Y-39934253D02*
X72445019Y-39991396D01*
X72445019Y-39991396D02*
X72473590Y-40048538D01*
X72473590Y-40048538D02*
X72502162Y-40077110D01*
X72502162Y-40077110D02*
X72559304Y-40105681D01*
X72559304Y-40105681D02*
X72759304Y-40105681D01*
X72159304Y-39819967D02*
X72159304Y-40305681D01*
X72159304Y-40305681D02*
X72130733Y-40362824D01*
X72130733Y-40362824D02*
X72102162Y-40391396D01*
X72102162Y-40391396D02*
X72045019Y-40419967D01*
X72045019Y-40419967D02*
X71930733Y-40419967D01*
X71930733Y-40419967D02*
X71873590Y-40391396D01*
X71873590Y-40391396D02*
X71845019Y-40362824D01*
X71845019Y-40362824D02*
X71816447Y-40305681D01*
X71816447Y-40305681D02*
X71816447Y-39819967D01*
X71559305Y-40391396D02*
X71473591Y-40419967D01*
X71473591Y-40419967D02*
X71330733Y-40419967D01*
X71330733Y-40419967D02*
X71273591Y-40391396D01*
X71273591Y-40391396D02*
X71245019Y-40362824D01*
X71245019Y-40362824D02*
X71216448Y-40305681D01*
X71216448Y-40305681D02*
X71216448Y-40248538D01*
X71216448Y-40248538D02*
X71245019Y-40191396D01*
X71245019Y-40191396D02*
X71273591Y-40162824D01*
X71273591Y-40162824D02*
X71330733Y-40134253D01*
X71330733Y-40134253D02*
X71445019Y-40105681D01*
X71445019Y-40105681D02*
X71502162Y-40077110D01*
X71502162Y-40077110D02*
X71530733Y-40048538D01*
X71530733Y-40048538D02*
X71559305Y-39991396D01*
X71559305Y-39991396D02*
X71559305Y-39934253D01*
X71559305Y-39934253D02*
X71530733Y-39877110D01*
X71530733Y-39877110D02*
X71502162Y-39848538D01*
X71502162Y-39848538D02*
X71445019Y-39819967D01*
X71445019Y-39819967D02*
X71302162Y-39819967D01*
X71302162Y-39819967D02*
X71216448Y-39848538D01*
X73130733Y-49919967D02*
X72759305Y-49919967D01*
X72759305Y-49919967D02*
X72959305Y-50148538D01*
X72959305Y-50148538D02*
X72873590Y-50148538D01*
X72873590Y-50148538D02*
X72816448Y-50177110D01*
X72816448Y-50177110D02*
X72787876Y-50205681D01*
X72787876Y-50205681D02*
X72759305Y-50262824D01*
X72759305Y-50262824D02*
X72759305Y-50405681D01*
X72759305Y-50405681D02*
X72787876Y-50462824D01*
X72787876Y-50462824D02*
X72816448Y-50491396D01*
X72816448Y-50491396D02*
X72873590Y-50519967D01*
X72873590Y-50519967D02*
X73045019Y-50519967D01*
X73045019Y-50519967D02*
X73102162Y-50491396D01*
X73102162Y-50491396D02*
X73130733Y-50462824D01*
X72587876Y-49919967D02*
X72387876Y-50519967D01*
X72387876Y-50519967D02*
X72187876Y-49919967D01*
X72045018Y-49919967D02*
X71673590Y-49919967D01*
X71673590Y-49919967D02*
X71873590Y-50148538D01*
X71873590Y-50148538D02*
X71787875Y-50148538D01*
X71787875Y-50148538D02*
X71730733Y-50177110D01*
X71730733Y-50177110D02*
X71702161Y-50205681D01*
X71702161Y-50205681D02*
X71673590Y-50262824D01*
X71673590Y-50262824D02*
X71673590Y-50405681D01*
X71673590Y-50405681D02*
X71702161Y-50462824D01*
X71702161Y-50462824D02*
X71730733Y-50491396D01*
X71730733Y-50491396D02*
X71787875Y-50519967D01*
X71787875Y-50519967D02*
X71959304Y-50519967D01*
X71959304Y-50519967D02*
X72016447Y-50491396D01*
X72016447Y-50491396D02*
X72045018Y-50462824D01*
X72730733Y-65819967D02*
X72930733Y-65534253D01*
X73073590Y-65819967D02*
X73073590Y-65219967D01*
X73073590Y-65219967D02*
X72845019Y-65219967D01*
X72845019Y-65219967D02*
X72787876Y-65248538D01*
X72787876Y-65248538D02*
X72759305Y-65277110D01*
X72759305Y-65277110D02*
X72730733Y-65334253D01*
X72730733Y-65334253D02*
X72730733Y-65419967D01*
X72730733Y-65419967D02*
X72759305Y-65477110D01*
X72759305Y-65477110D02*
X72787876Y-65505681D01*
X72787876Y-65505681D02*
X72845019Y-65534253D01*
X72845019Y-65534253D02*
X73073590Y-65534253D01*
X72473590Y-65219967D02*
X72473590Y-65705681D01*
X72473590Y-65705681D02*
X72445019Y-65762824D01*
X72445019Y-65762824D02*
X72416448Y-65791396D01*
X72416448Y-65791396D02*
X72359305Y-65819967D01*
X72359305Y-65819967D02*
X72245019Y-65819967D01*
X72245019Y-65819967D02*
X72187876Y-65791396D01*
X72187876Y-65791396D02*
X72159305Y-65762824D01*
X72159305Y-65762824D02*
X72130733Y-65705681D01*
X72130733Y-65705681D02*
X72130733Y-65219967D01*
X71845019Y-65819967D02*
X71845019Y-65219967D01*
X71845019Y-65219967D02*
X71502162Y-65819967D01*
X71502162Y-65819967D02*
X71502162Y-65219967D01*
X65461553Y-75591363D02*
X65375839Y-75619935D01*
X65375839Y-75619935D02*
X65347268Y-75648506D01*
X65347268Y-75648506D02*
X65318696Y-75705649D01*
X65318696Y-75705649D02*
X65318696Y-75791363D01*
X65318696Y-75791363D02*
X65347268Y-75848506D01*
X65347268Y-75848506D02*
X65375839Y-75877078D01*
X65375839Y-75877078D02*
X65432982Y-75905649D01*
X65432982Y-75905649D02*
X65661553Y-75905649D01*
X65661553Y-75905649D02*
X65661553Y-75305649D01*
X65661553Y-75305649D02*
X65461553Y-75305649D01*
X65461553Y-75305649D02*
X65404411Y-75334220D01*
X65404411Y-75334220D02*
X65375839Y-75362792D01*
X65375839Y-75362792D02*
X65347268Y-75419935D01*
X65347268Y-75419935D02*
X65347268Y-75477078D01*
X65347268Y-75477078D02*
X65375839Y-75534220D01*
X65375839Y-75534220D02*
X65404411Y-75562792D01*
X65404411Y-75562792D02*
X65461553Y-75591363D01*
X65461553Y-75591363D02*
X65661553Y-75591363D01*
X64832982Y-75877078D02*
X64890125Y-75905649D01*
X64890125Y-75905649D02*
X65004411Y-75905649D01*
X65004411Y-75905649D02*
X65061553Y-75877078D01*
X65061553Y-75877078D02*
X65090125Y-75819935D01*
X65090125Y-75819935D02*
X65090125Y-75591363D01*
X65090125Y-75591363D02*
X65061553Y-75534220D01*
X65061553Y-75534220D02*
X65004411Y-75505649D01*
X65004411Y-75505649D02*
X64890125Y-75505649D01*
X64890125Y-75505649D02*
X64832982Y-75534220D01*
X64832982Y-75534220D02*
X64804411Y-75591363D01*
X64804411Y-75591363D02*
X64804411Y-75648506D01*
X64804411Y-75648506D02*
X65090125Y-75705649D01*
X64547267Y-75905649D02*
X64547267Y-75505649D01*
X64547267Y-75619935D02*
X64518696Y-75562792D01*
X64518696Y-75562792D02*
X64490125Y-75534220D01*
X64490125Y-75534220D02*
X64432982Y-75505649D01*
X64432982Y-75505649D02*
X64375839Y-75505649D01*
X64175838Y-75905649D02*
X64175838Y-75305649D01*
X64118696Y-75677078D02*
X63947267Y-75905649D01*
X63947267Y-75505649D02*
X64175838Y-75734220D01*
X63461553Y-75877078D02*
X63518696Y-75905649D01*
X63518696Y-75905649D02*
X63632982Y-75905649D01*
X63632982Y-75905649D02*
X63690124Y-75877078D01*
X63690124Y-75877078D02*
X63718696Y-75819935D01*
X63718696Y-75819935D02*
X63718696Y-75591363D01*
X63718696Y-75591363D02*
X63690124Y-75534220D01*
X63690124Y-75534220D02*
X63632982Y-75505649D01*
X63632982Y-75505649D02*
X63518696Y-75505649D01*
X63518696Y-75505649D02*
X63461553Y-75534220D01*
X63461553Y-75534220D02*
X63432982Y-75591363D01*
X63432982Y-75591363D02*
X63432982Y-75648506D01*
X63432982Y-75648506D02*
X63718696Y-75705649D01*
X63090124Y-75905649D02*
X63147267Y-75877078D01*
X63147267Y-75877078D02*
X63175838Y-75819935D01*
X63175838Y-75819935D02*
X63175838Y-75305649D01*
X62632981Y-75877078D02*
X62690124Y-75905649D01*
X62690124Y-75905649D02*
X62804410Y-75905649D01*
X62804410Y-75905649D02*
X62861552Y-75877078D01*
X62861552Y-75877078D02*
X62890124Y-75819935D01*
X62890124Y-75819935D02*
X62890124Y-75591363D01*
X62890124Y-75591363D02*
X62861552Y-75534220D01*
X62861552Y-75534220D02*
X62804410Y-75505649D01*
X62804410Y-75505649D02*
X62690124Y-75505649D01*
X62690124Y-75505649D02*
X62632981Y-75534220D01*
X62632981Y-75534220D02*
X62604410Y-75591363D01*
X62604410Y-75591363D02*
X62604410Y-75648506D01*
X62604410Y-75648506D02*
X62890124Y-75705649D01*
X62404409Y-75505649D02*
X62261552Y-75905649D01*
X62118695Y-75505649D02*
X62261552Y-75905649D01*
X62261552Y-75905649D02*
X62318695Y-76048506D01*
X62318695Y-76048506D02*
X62347266Y-76077078D01*
X62347266Y-76077078D02*
X62404409Y-76105649D01*
X61461552Y-75734220D02*
X61175838Y-75734220D01*
X61518695Y-75905649D02*
X61318695Y-75305649D01*
X61318695Y-75305649D02*
X61118695Y-75905649D01*
X60661552Y-75505649D02*
X60661552Y-75905649D01*
X60918694Y-75505649D02*
X60918694Y-75819935D01*
X60918694Y-75819935D02*
X60890123Y-75877078D01*
X60890123Y-75877078D02*
X60832980Y-75905649D01*
X60832980Y-75905649D02*
X60747266Y-75905649D01*
X60747266Y-75905649D02*
X60690123Y-75877078D01*
X60690123Y-75877078D02*
X60661552Y-75848506D01*
X60461552Y-75505649D02*
X60232980Y-75505649D01*
X60375837Y-75305649D02*
X60375837Y-75819935D01*
X60375837Y-75819935D02*
X60347266Y-75877078D01*
X60347266Y-75877078D02*
X60290123Y-75905649D01*
X60290123Y-75905649D02*
X60232980Y-75905649D01*
X59947266Y-75905649D02*
X60004409Y-75877078D01*
X60004409Y-75877078D02*
X60032980Y-75848506D01*
X60032980Y-75848506D02*
X60061552Y-75791363D01*
X60061552Y-75791363D02*
X60061552Y-75619935D01*
X60061552Y-75619935D02*
X60032980Y-75562792D01*
X60032980Y-75562792D02*
X60004409Y-75534220D01*
X60004409Y-75534220D02*
X59947266Y-75505649D01*
X59947266Y-75505649D02*
X59861552Y-75505649D01*
X59861552Y-75505649D02*
X59804409Y-75534220D01*
X59804409Y-75534220D02*
X59775838Y-75562792D01*
X59775838Y-75562792D02*
X59747266Y-75619935D01*
X59747266Y-75619935D02*
X59747266Y-75791363D01*
X59747266Y-75791363D02*
X59775838Y-75848506D01*
X59775838Y-75848506D02*
X59804409Y-75877078D01*
X59804409Y-75877078D02*
X59861552Y-75905649D01*
X59861552Y-75905649D02*
X59947266Y-75905649D01*
X59490123Y-75505649D02*
X59490123Y-75905649D01*
X59490123Y-75562792D02*
X59461552Y-75534220D01*
X59461552Y-75534220D02*
X59404409Y-75505649D01*
X59404409Y-75505649D02*
X59318695Y-75505649D01*
X59318695Y-75505649D02*
X59261552Y-75534220D01*
X59261552Y-75534220D02*
X59232981Y-75591363D01*
X59232981Y-75591363D02*
X59232981Y-75905649D01*
X58861552Y-75905649D02*
X58918695Y-75877078D01*
X58918695Y-75877078D02*
X58947266Y-75848506D01*
X58947266Y-75848506D02*
X58975838Y-75791363D01*
X58975838Y-75791363D02*
X58975838Y-75619935D01*
X58975838Y-75619935D02*
X58947266Y-75562792D01*
X58947266Y-75562792D02*
X58918695Y-75534220D01*
X58918695Y-75534220D02*
X58861552Y-75505649D01*
X58861552Y-75505649D02*
X58775838Y-75505649D01*
X58775838Y-75505649D02*
X58718695Y-75534220D01*
X58718695Y-75534220D02*
X58690124Y-75562792D01*
X58690124Y-75562792D02*
X58661552Y-75619935D01*
X58661552Y-75619935D02*
X58661552Y-75791363D01*
X58661552Y-75791363D02*
X58690124Y-75848506D01*
X58690124Y-75848506D02*
X58718695Y-75877078D01*
X58718695Y-75877078D02*
X58775838Y-75905649D01*
X58775838Y-75905649D02*
X58861552Y-75905649D01*
X58404409Y-75905649D02*
X58404409Y-75505649D01*
X58404409Y-75562792D02*
X58375838Y-75534220D01*
X58375838Y-75534220D02*
X58318695Y-75505649D01*
X58318695Y-75505649D02*
X58232981Y-75505649D01*
X58232981Y-75505649D02*
X58175838Y-75534220D01*
X58175838Y-75534220D02*
X58147267Y-75591363D01*
X58147267Y-75591363D02*
X58147267Y-75905649D01*
X58147267Y-75591363D02*
X58118695Y-75534220D01*
X58118695Y-75534220D02*
X58061552Y-75505649D01*
X58061552Y-75505649D02*
X57975838Y-75505649D01*
X57975838Y-75505649D02*
X57918695Y-75534220D01*
X57918695Y-75534220D02*
X57890124Y-75591363D01*
X57890124Y-75591363D02*
X57890124Y-75905649D01*
X57518695Y-75905649D02*
X57575838Y-75877078D01*
X57575838Y-75877078D02*
X57604409Y-75848506D01*
X57604409Y-75848506D02*
X57632981Y-75791363D01*
X57632981Y-75791363D02*
X57632981Y-75619935D01*
X57632981Y-75619935D02*
X57604409Y-75562792D01*
X57604409Y-75562792D02*
X57575838Y-75534220D01*
X57575838Y-75534220D02*
X57518695Y-75505649D01*
X57518695Y-75505649D02*
X57432981Y-75505649D01*
X57432981Y-75505649D02*
X57375838Y-75534220D01*
X57375838Y-75534220D02*
X57347267Y-75562792D01*
X57347267Y-75562792D02*
X57318695Y-75619935D01*
X57318695Y-75619935D02*
X57318695Y-75791363D01*
X57318695Y-75791363D02*
X57347267Y-75848506D01*
X57347267Y-75848506D02*
X57375838Y-75877078D01*
X57375838Y-75877078D02*
X57432981Y-75905649D01*
X57432981Y-75905649D02*
X57518695Y-75905649D01*
X56804410Y-75505649D02*
X56804410Y-75905649D01*
X57061552Y-75505649D02*
X57061552Y-75819935D01*
X57061552Y-75819935D02*
X57032981Y-75877078D01*
X57032981Y-75877078D02*
X56975838Y-75905649D01*
X56975838Y-75905649D02*
X56890124Y-75905649D01*
X56890124Y-75905649D02*
X56832981Y-75877078D01*
X56832981Y-75877078D02*
X56804410Y-75848506D01*
X56547267Y-75877078D02*
X56490124Y-75905649D01*
X56490124Y-75905649D02*
X56375838Y-75905649D01*
X56375838Y-75905649D02*
X56318695Y-75877078D01*
X56318695Y-75877078D02*
X56290124Y-75819935D01*
X56290124Y-75819935D02*
X56290124Y-75791363D01*
X56290124Y-75791363D02*
X56318695Y-75734220D01*
X56318695Y-75734220D02*
X56375838Y-75705649D01*
X56375838Y-75705649D02*
X56461553Y-75705649D01*
X56461553Y-75705649D02*
X56518695Y-75677078D01*
X56518695Y-75677078D02*
X56547267Y-75619935D01*
X56547267Y-75619935D02*
X56547267Y-75591363D01*
X56547267Y-75591363D02*
X56518695Y-75534220D01*
X56518695Y-75534220D02*
X56461553Y-75505649D01*
X56461553Y-75505649D02*
X56375838Y-75505649D01*
X56375838Y-75505649D02*
X56318695Y-75534220D01*
X64847266Y-76871615D02*
X64847266Y-76271615D01*
X64847266Y-76271615D02*
X64647266Y-76700186D01*
X64647266Y-76700186D02*
X64447266Y-76271615D01*
X64447266Y-76271615D02*
X64447266Y-76871615D01*
X64161552Y-76871615D02*
X64161552Y-76471615D01*
X64161552Y-76271615D02*
X64190124Y-76300186D01*
X64190124Y-76300186D02*
X64161552Y-76328758D01*
X64161552Y-76328758D02*
X64132981Y-76300186D01*
X64132981Y-76300186D02*
X64161552Y-76271615D01*
X64161552Y-76271615D02*
X64161552Y-76328758D01*
X63618696Y-76843044D02*
X63675838Y-76871615D01*
X63675838Y-76871615D02*
X63790124Y-76871615D01*
X63790124Y-76871615D02*
X63847267Y-76843044D01*
X63847267Y-76843044D02*
X63875838Y-76814472D01*
X63875838Y-76814472D02*
X63904410Y-76757329D01*
X63904410Y-76757329D02*
X63904410Y-76585901D01*
X63904410Y-76585901D02*
X63875838Y-76528758D01*
X63875838Y-76528758D02*
X63847267Y-76500186D01*
X63847267Y-76500186D02*
X63790124Y-76471615D01*
X63790124Y-76471615D02*
X63675838Y-76471615D01*
X63675838Y-76471615D02*
X63618696Y-76500186D01*
X63361552Y-76871615D02*
X63361552Y-76471615D01*
X63361552Y-76585901D02*
X63332981Y-76528758D01*
X63332981Y-76528758D02*
X63304410Y-76500186D01*
X63304410Y-76500186D02*
X63247267Y-76471615D01*
X63247267Y-76471615D02*
X63190124Y-76471615D01*
X62904409Y-76871615D02*
X62961552Y-76843044D01*
X62961552Y-76843044D02*
X62990123Y-76814472D01*
X62990123Y-76814472D02*
X63018695Y-76757329D01*
X63018695Y-76757329D02*
X63018695Y-76585901D01*
X63018695Y-76585901D02*
X62990123Y-76528758D01*
X62990123Y-76528758D02*
X62961552Y-76500186D01*
X62961552Y-76500186D02*
X62904409Y-76471615D01*
X62904409Y-76471615D02*
X62818695Y-76471615D01*
X62818695Y-76471615D02*
X62761552Y-76500186D01*
X62761552Y-76500186D02*
X62732981Y-76528758D01*
X62732981Y-76528758D02*
X62704409Y-76585901D01*
X62704409Y-76585901D02*
X62704409Y-76757329D01*
X62704409Y-76757329D02*
X62732981Y-76814472D01*
X62732981Y-76814472D02*
X62761552Y-76843044D01*
X62761552Y-76843044D02*
X62818695Y-76871615D01*
X62818695Y-76871615D02*
X62904409Y-76871615D01*
X62475838Y-76843044D02*
X62418695Y-76871615D01*
X62418695Y-76871615D02*
X62304409Y-76871615D01*
X62304409Y-76871615D02*
X62247266Y-76843044D01*
X62247266Y-76843044D02*
X62218695Y-76785901D01*
X62218695Y-76785901D02*
X62218695Y-76757329D01*
X62218695Y-76757329D02*
X62247266Y-76700186D01*
X62247266Y-76700186D02*
X62304409Y-76671615D01*
X62304409Y-76671615D02*
X62390124Y-76671615D01*
X62390124Y-76671615D02*
X62447266Y-76643044D01*
X62447266Y-76643044D02*
X62475838Y-76585901D01*
X62475838Y-76585901D02*
X62475838Y-76557329D01*
X62475838Y-76557329D02*
X62447266Y-76500186D01*
X62447266Y-76500186D02*
X62390124Y-76471615D01*
X62390124Y-76471615D02*
X62304409Y-76471615D01*
X62304409Y-76471615D02*
X62247266Y-76500186D01*
X62018695Y-76471615D02*
X61875838Y-76871615D01*
X61732981Y-76471615D02*
X61875838Y-76871615D01*
X61875838Y-76871615D02*
X61932981Y-77014472D01*
X61932981Y-77014472D02*
X61961552Y-77043044D01*
X61961552Y-77043044D02*
X62018695Y-77071615D01*
X61532981Y-76843044D02*
X61475838Y-76871615D01*
X61475838Y-76871615D02*
X61361552Y-76871615D01*
X61361552Y-76871615D02*
X61304409Y-76843044D01*
X61304409Y-76843044D02*
X61275838Y-76785901D01*
X61275838Y-76785901D02*
X61275838Y-76757329D01*
X61275838Y-76757329D02*
X61304409Y-76700186D01*
X61304409Y-76700186D02*
X61361552Y-76671615D01*
X61361552Y-76671615D02*
X61447267Y-76671615D01*
X61447267Y-76671615D02*
X61504409Y-76643044D01*
X61504409Y-76643044D02*
X61532981Y-76585901D01*
X61532981Y-76585901D02*
X61532981Y-76557329D01*
X61532981Y-76557329D02*
X61504409Y-76500186D01*
X61504409Y-76500186D02*
X61447267Y-76471615D01*
X61447267Y-76471615D02*
X61361552Y-76471615D01*
X61361552Y-76471615D02*
X61304409Y-76500186D01*
X61104410Y-76471615D02*
X60875838Y-76471615D01*
X61018695Y-76271615D02*
X61018695Y-76785901D01*
X61018695Y-76785901D02*
X60990124Y-76843044D01*
X60990124Y-76843044D02*
X60932981Y-76871615D01*
X60932981Y-76871615D02*
X60875838Y-76871615D01*
X60447267Y-76843044D02*
X60504410Y-76871615D01*
X60504410Y-76871615D02*
X60618696Y-76871615D01*
X60618696Y-76871615D02*
X60675838Y-76843044D01*
X60675838Y-76843044D02*
X60704410Y-76785901D01*
X60704410Y-76785901D02*
X60704410Y-76557329D01*
X60704410Y-76557329D02*
X60675838Y-76500186D01*
X60675838Y-76500186D02*
X60618696Y-76471615D01*
X60618696Y-76471615D02*
X60504410Y-76471615D01*
X60504410Y-76471615D02*
X60447267Y-76500186D01*
X60447267Y-76500186D02*
X60418696Y-76557329D01*
X60418696Y-76557329D02*
X60418696Y-76614472D01*
X60418696Y-76614472D02*
X60704410Y-76671615D01*
X60161552Y-76871615D02*
X60161552Y-76471615D01*
X60161552Y-76528758D02*
X60132981Y-76500186D01*
X60132981Y-76500186D02*
X60075838Y-76471615D01*
X60075838Y-76471615D02*
X59990124Y-76471615D01*
X59990124Y-76471615D02*
X59932981Y-76500186D01*
X59932981Y-76500186D02*
X59904410Y-76557329D01*
X59904410Y-76557329D02*
X59904410Y-76871615D01*
X59904410Y-76557329D02*
X59875838Y-76500186D01*
X59875838Y-76500186D02*
X59818695Y-76471615D01*
X59818695Y-76471615D02*
X59732981Y-76471615D01*
X59732981Y-76471615D02*
X59675838Y-76500186D01*
X59675838Y-76500186D02*
X59647267Y-76557329D01*
X59647267Y-76557329D02*
X59647267Y-76871615D01*
X59390124Y-76843044D02*
X59332981Y-76871615D01*
X59332981Y-76871615D02*
X59218695Y-76871615D01*
X59218695Y-76871615D02*
X59161552Y-76843044D01*
X59161552Y-76843044D02*
X59132981Y-76785901D01*
X59132981Y-76785901D02*
X59132981Y-76757329D01*
X59132981Y-76757329D02*
X59161552Y-76700186D01*
X59161552Y-76700186D02*
X59218695Y-76671615D01*
X59218695Y-76671615D02*
X59304410Y-76671615D01*
X59304410Y-76671615D02*
X59361552Y-76643044D01*
X59361552Y-76643044D02*
X59390124Y-76585901D01*
X59390124Y-76585901D02*
X59390124Y-76557329D01*
X59390124Y-76557329D02*
X59361552Y-76500186D01*
X59361552Y-76500186D02*
X59304410Y-76471615D01*
X59304410Y-76471615D02*
X59218695Y-76471615D01*
X59218695Y-76471615D02*
X59161552Y-76500186D01*
X58132981Y-76871615D02*
X58418695Y-76871615D01*
X58418695Y-76871615D02*
X58418695Y-76271615D01*
X57675839Y-76871615D02*
X57675839Y-76557329D01*
X57675839Y-76557329D02*
X57704410Y-76500186D01*
X57704410Y-76500186D02*
X57761553Y-76471615D01*
X57761553Y-76471615D02*
X57875839Y-76471615D01*
X57875839Y-76471615D02*
X57932981Y-76500186D01*
X57675839Y-76843044D02*
X57732981Y-76871615D01*
X57732981Y-76871615D02*
X57875839Y-76871615D01*
X57875839Y-76871615D02*
X57932981Y-76843044D01*
X57932981Y-76843044D02*
X57961553Y-76785901D01*
X57961553Y-76785901D02*
X57961553Y-76728758D01*
X57961553Y-76728758D02*
X57932981Y-76671615D01*
X57932981Y-76671615D02*
X57875839Y-76643044D01*
X57875839Y-76643044D02*
X57732981Y-76643044D01*
X57732981Y-76643044D02*
X57675839Y-76614472D01*
X57390124Y-76871615D02*
X57390124Y-76271615D01*
X57390124Y-76500186D02*
X57332982Y-76471615D01*
X57332982Y-76471615D02*
X57218696Y-76471615D01*
X57218696Y-76471615D02*
X57161553Y-76500186D01*
X57161553Y-76500186D02*
X57132982Y-76528758D01*
X57132982Y-76528758D02*
X57104410Y-76585901D01*
X57104410Y-76585901D02*
X57104410Y-76757329D01*
X57104410Y-76757329D02*
X57132982Y-76814472D01*
X57132982Y-76814472D02*
X57161553Y-76843044D01*
X57161553Y-76843044D02*
X57218696Y-76871615D01*
X57218696Y-76871615D02*
X57332982Y-76871615D01*
X57332982Y-76871615D02*
X57390124Y-76843044D01*
%LPC*%
D13*
%TO.C,J3*%
X68690000Y-40100000D03*
D14*
X68690000Y-42640000D03*
X68690000Y-45180000D03*
X68690000Y-47720000D03*
X68690000Y-50260000D03*
X68690000Y-52800000D03*
X68690000Y-55340000D03*
X68690000Y-57880000D03*
X68690000Y-60420000D03*
X68690000Y-62960000D03*
X68690000Y-65500000D03*
X68690000Y-68040000D03*
X68690000Y-70580000D03*
X68690000Y-73120000D03*
X68690000Y-75660000D03*
X68690000Y-78200000D03*
X68690000Y-80740000D03*
X68690000Y-83280000D03*
X68690000Y-85820000D03*
X68690000Y-88360000D03*
%TD*%
D13*
%TO.C,J5*%
X57275000Y-94630000D03*
D14*
X59815000Y-94630000D03*
X62355000Y-94630000D03*
%TD*%
D13*
%TO.C,J2*%
X50910000Y-40100000D03*
D14*
X50910000Y-42640000D03*
X50910000Y-45180000D03*
X50910000Y-47720000D03*
X50910000Y-50260000D03*
X50910000Y-52800000D03*
X50910000Y-55340000D03*
X50910000Y-57880000D03*
X50910000Y-60420000D03*
X50910000Y-62960000D03*
X50910000Y-65500000D03*
X50910000Y-68040000D03*
X50910000Y-70580000D03*
X50910000Y-73120000D03*
X50910000Y-75660000D03*
X50910000Y-78200000D03*
X50910000Y-80740000D03*
X50910000Y-83280000D03*
X50910000Y-85820000D03*
X50910000Y-88360000D03*
%TD*%
D13*
%TO.C,J1*%
X43410000Y-40100000D03*
D14*
X43410000Y-42640000D03*
X43410000Y-45180000D03*
X43410000Y-47720000D03*
X43410000Y-50260000D03*
X43410000Y-52800000D03*
X43410000Y-55340000D03*
X43410000Y-57880000D03*
X43410000Y-60420000D03*
X43410000Y-62960000D03*
X43410000Y-65500000D03*
X43410000Y-68040000D03*
X43410000Y-70580000D03*
X43410000Y-73120000D03*
X43410000Y-75660000D03*
X43410000Y-78200000D03*
X43410000Y-80740000D03*
X43410000Y-83280000D03*
X43410000Y-85820000D03*
X43410000Y-88360000D03*
%TD*%
D13*
%TO.C,J6*%
X60399100Y-69905000D03*
D14*
X62939100Y-69905000D03*
X65479100Y-69905000D03*
%TD*%
D13*
%TO.C,J4*%
X76190000Y-40100000D03*
D14*
X76190000Y-42640000D03*
X76190000Y-45180000D03*
X76190000Y-47720000D03*
X76190000Y-50260000D03*
X76190000Y-52800000D03*
X76190000Y-55340000D03*
X76190000Y-57880000D03*
X76190000Y-60420000D03*
X76190000Y-62960000D03*
X76190000Y-65500000D03*
X76190000Y-68040000D03*
X76190000Y-70580000D03*
X76190000Y-73120000D03*
X76190000Y-75660000D03*
X76190000Y-78200000D03*
X76190000Y-80740000D03*
X76190000Y-83280000D03*
X76190000Y-85820000D03*
X76190000Y-88360000D03*
%TD*%
%LPD*%
M02*
