%TF.GenerationSoftware,KiCad,Pcbnew,8.0.4*%
%TF.CreationDate,2025-04-11T23:17:47-07:00*%
%TF.ProjectId,pico-w-breakout,7069636f-2d77-42d6-9272-65616b6f7574,rev?*%
%TF.SameCoordinates,Original*%
%TF.FileFunction,Profile,NP*%
%FSLAX46Y46*%
G04 Gerber Fmt 4.6, Leading zero omitted, Abs format (unit mm)*
G04 Created by KiCad (PCBNEW 8.0.4) date 2025-04-11 23:17:47*
%MOMM*%
%LPD*%
G01*
G04 APERTURE LIST*
%TA.AperFunction,Profile*%
%ADD10C,0.100000*%
%TD*%
%TA.AperFunction,Profile*%
%ADD11C,0.050000*%
%TD*%
G04 APERTURE END LIST*
D10*
X81189000Y-40421000D02*
G75*
G02*
X79411000Y-40421000I-889000J0D01*
G01*
X79411000Y-40421000D02*
G75*
G02*
X81189000Y-40421000I889000J0D01*
G01*
X54989000Y-40730000D02*
G75*
G02*
X53211000Y-40730000I-889000J0D01*
G01*
X53211000Y-40730000D02*
G75*
G02*
X54989000Y-40730000I889000J0D01*
G01*
D11*
X39300000Y-96921000D02*
X79300000Y-96921000D01*
D10*
X54989000Y-87730000D02*
G75*
G02*
X53211000Y-87730000I-889000J0D01*
G01*
X53211000Y-87730000D02*
G75*
G02*
X54989000Y-87730000I889000J0D01*
G01*
X40189000Y-94421000D02*
G75*
G02*
X38411000Y-94421000I-889000J0D01*
G01*
X38411000Y-94421000D02*
G75*
G02*
X40189000Y-94421000I889000J0D01*
G01*
D11*
X36800000Y-40421000D02*
G75*
G02*
X39300000Y-37921000I2500000J0D01*
G01*
X82800000Y-40421000D02*
X82800000Y-94421000D01*
X36800000Y-40421000D02*
X36800000Y-94421000D01*
D10*
X81189000Y-94421000D02*
G75*
G02*
X79411000Y-94421000I-889000J0D01*
G01*
X79411000Y-94421000D02*
G75*
G02*
X81189000Y-94421000I889000J0D01*
G01*
X40189000Y-40421000D02*
G75*
G02*
X38411000Y-40421000I-889000J0D01*
G01*
X38411000Y-40421000D02*
G75*
G02*
X40189000Y-40421000I889000J0D01*
G01*
X66389000Y-87730000D02*
G75*
G02*
X64611000Y-87730000I-889000J0D01*
G01*
X64611000Y-87730000D02*
G75*
G02*
X66389000Y-87730000I889000J0D01*
G01*
D11*
X39300000Y-96921000D02*
G75*
G02*
X36800000Y-94421000I0J2500000D01*
G01*
X80300000Y-37921000D02*
G75*
G02*
X82800000Y-40421000I0J-2500000D01*
G01*
D10*
X66389000Y-40730000D02*
G75*
G02*
X64611000Y-40730000I-889000J0D01*
G01*
X64611000Y-40730000D02*
G75*
G02*
X66389000Y-40730000I889000J0D01*
G01*
D11*
X82800000Y-94421000D02*
G75*
G02*
X80300000Y-96921000I-2500000J0D01*
G01*
X80300000Y-37921000D02*
X39300000Y-37921000D01*
M02*
