M48
; DRILL file {KiCad 8.0.4} date 2025-04-08T19:57:38-0700
; FORMAT={-:-/ absolute / inch / decimal}
; #@! TF.CreationDate,2025-04-08T19:57:38-07:00
; #@! TF.GenerationSoftware,Kicad,Pcbnew,8.0.4
; #@! TF.FileFunction,Plated,1,2,PTH
FMAT,2
INCH
; #@! TA.AperFunction,Plated,PTH,ViaDrill
T1C0.0138
; #@! TA.AperFunction,Plated,PTH,ComponentDrill
T2C0.0394
%
G90
G05
T1
X1.5866Y-1.7795
X1.5866Y-2.2756
X1.5866Y-2.7795
X1.5866Y-3.2756
X1.815Y-3.7126
X2.1102Y-3.7126
X2.185Y-1.7756
X2.185Y-2.2756
X2.185Y-2.878
X2.185Y-3.2756
X2.3543Y-2.878
X2.5236Y-1.7756
X2.5236Y-2.2756
X2.5236Y-2.878
X2.5236Y-3.2756
X2.6024Y-3.7126
X2.8976Y-3.7126
X3.122Y-1.7756
X3.122Y-2.2756
X3.122Y-2.7795
X3.122Y-3.2756
T2
X1.7484Y-1.5787
X1.7484Y-1.6787
X1.7484Y-1.7787
X1.7484Y-1.8787
X1.7484Y-1.9787
X1.7484Y-2.0787
X1.7484Y-2.1787
X1.7484Y-2.2787
X1.7484Y-2.3787
X1.7484Y-2.4787
X1.7484Y-2.5787
X1.7484Y-2.6787
X1.7484Y-2.7787
X1.7484Y-2.8787
X1.7484Y-2.9787
X1.7484Y-3.0787
X1.7484Y-3.1787
X1.7484Y-3.2787
X1.7484Y-3.3787
X1.7484Y-3.4787
X2.0043Y-1.5787
X2.0043Y-1.6787
X2.0043Y-1.7787
X2.0043Y-1.8787
X2.0043Y-1.9787
X2.0043Y-2.0787
X2.0043Y-2.1787
X2.0043Y-2.2787
X2.0043Y-2.3787
X2.0043Y-2.4787
X2.0043Y-2.5787
X2.0043Y-2.6787
X2.0043Y-2.7787
X2.0043Y-2.8787
X2.0043Y-2.9787
X2.0043Y-3.0787
X2.0043Y-3.1787
X2.0043Y-3.2787
X2.0043Y-3.3787
X2.0043Y-3.4787
X2.2549Y-3.7256
X2.3549Y-3.7256
X2.3779Y-2.7531
X2.4549Y-3.7256
X2.4779Y-2.7531
X2.5779Y-2.7531
X2.7043Y-1.5787
X2.7043Y-1.6787
X2.7043Y-1.7787
X2.7043Y-1.8787
X2.7043Y-1.9787
X2.7043Y-2.0787
X2.7043Y-2.1787
X2.7043Y-2.2787
X2.7043Y-2.3787
X2.7043Y-2.4787
X2.7043Y-2.5787
X2.7043Y-2.6787
X2.7043Y-2.7787
X2.7043Y-2.8787
X2.7043Y-2.9787
X2.7043Y-3.0787
X2.7043Y-3.1787
X2.7043Y-3.2787
X2.7043Y-3.3787
X2.7043Y-3.4787
X2.9602Y-1.5787
X2.9602Y-1.6787
X2.9602Y-1.7787
X2.9602Y-1.8787
X2.9602Y-1.9787
X2.9602Y-2.0787
X2.9602Y-2.1787
X2.9602Y-2.2787
X2.9602Y-2.3787
X2.9602Y-2.4787
X2.9602Y-2.5787
X2.9602Y-2.6787
X2.9602Y-2.7787
X2.9602Y-2.8787
X2.9602Y-2.9787
X2.9602Y-3.0787
X2.9602Y-3.1787
X2.9602Y-3.2787
X2.9602Y-3.3787
X2.9602Y-3.4787
M30
