G04 #@! TF.GenerationSoftware,KiCad,Pcbnew,(5.1.6)-1*
G04 #@! TF.CreationDate,2021-01-19T17:49:51-08:00*
G04 #@! TF.ProjectId,scum3c-devboard,7363756d-3363-42d6-9465-76626f617264,rev?*
G04 #@! TF.SameCoordinates,Original*
G04 #@! TF.FileFunction,Soldermask,Bot*
G04 #@! TF.FilePolarity,Negative*
%FSLAX46Y46*%
G04 Gerber Fmt 4.6, Leading zero omitted, Abs format (unit mm)*
G04 Created by KiCad (PCBNEW (5.1.6)-1) date 2021-01-19 17:49:51*
%MOMM*%
%LPD*%
G01*
G04 APERTURE LIST*
%ADD10O,1.000000X1.000000*%
%ADD11R,1.000000X1.000000*%
%ADD12C,0.568750*%
G04 APERTURE END LIST*
D10*
G04 #@! TO.C,JB1*
X115500000Y-101470000D03*
X115500000Y-100200000D03*
X115500000Y-98930000D03*
X115500000Y-97660000D03*
X115500000Y-96390000D03*
X115500000Y-95120000D03*
X115500000Y-93850000D03*
X115500000Y-92580000D03*
X115500000Y-91310000D03*
X115500000Y-90040000D03*
X115500000Y-88770000D03*
D11*
X115500000Y-87500000D03*
G04 #@! TD*
D10*
G04 #@! TO.C,JA1*
X93990000Y-105500000D03*
X95260000Y-105500000D03*
X96530000Y-105500000D03*
X97800000Y-105500000D03*
X99070000Y-105500000D03*
X100340000Y-105500000D03*
X101610000Y-105500000D03*
X102880000Y-105500000D03*
X104150000Y-105500000D03*
X105420000Y-105500000D03*
X106690000Y-105500000D03*
X107960000Y-105500000D03*
X109230000Y-105500000D03*
D11*
X110500000Y-105500000D03*
G04 #@! TD*
D12*
G04 #@! TO.C,U8*
X106412500Y-97187500D03*
X106412500Y-96050000D03*
X106412500Y-94912500D03*
X106412500Y-93775000D03*
X106412500Y-92637500D03*
X106412500Y-91500000D03*
X106412500Y-90362500D03*
X106412500Y-89225000D03*
X105275000Y-97187500D03*
X105275000Y-96050000D03*
X105275000Y-94912500D03*
X105275000Y-93775000D03*
X105275000Y-92637500D03*
X105275000Y-91500000D03*
X105275000Y-90362500D03*
X105275000Y-89225000D03*
X104137500Y-97187500D03*
X104137500Y-96050000D03*
X104137500Y-94912500D03*
X104137500Y-93775000D03*
X104137500Y-92637500D03*
X104137500Y-91500000D03*
X104137500Y-90362500D03*
X104137500Y-89225000D03*
X103000000Y-97187500D03*
X103000000Y-96050000D03*
X103000000Y-94912500D03*
X103000000Y-93775000D03*
X103000000Y-92637500D03*
X103000000Y-91500000D03*
X103000000Y-90362500D03*
X103000000Y-89225000D03*
X101862500Y-97187500D03*
X101862500Y-96050000D03*
X101862500Y-94912500D03*
X101862500Y-93775000D03*
X101862500Y-92637500D03*
X101862500Y-91500000D03*
X101862500Y-90362500D03*
X101862500Y-89225000D03*
X100725000Y-97187500D03*
X100725000Y-96050000D03*
X100725000Y-94912500D03*
X100725000Y-93775000D03*
X100725000Y-92637500D03*
X100725000Y-91500000D03*
X100725000Y-90362500D03*
X100725000Y-89225000D03*
X99587500Y-97187500D03*
X99587500Y-96050000D03*
X99587500Y-94912500D03*
X99587500Y-93775000D03*
X99587500Y-92637500D03*
X99587500Y-91500000D03*
X99587500Y-90362500D03*
X99587500Y-89225000D03*
X98450000Y-97187500D03*
X98450000Y-96050000D03*
X98450000Y-94912500D03*
X98450000Y-93775000D03*
X98450000Y-92637500D03*
X98450000Y-91500000D03*
X98450000Y-90362500D03*
X98450000Y-89225000D03*
G04 #@! TD*
M02*
