%TF.GenerationSoftware,KiCad,Pcbnew,(5.1.6)-1*%
%TF.CreationDate,2021-01-23T06:31:54-08:00*%
%TF.ProjectId,scum3c-devboard,7363756d-3363-42d6-9465-76626f617264,rev?*%
%TF.SameCoordinates,Original*%
%TF.FileFunction,Copper,L2,Inr*%
%TF.FilePolarity,Positive*%
%FSLAX46Y46*%
G04 Gerber Fmt 4.6, Leading zero omitted, Abs format (unit mm)*
G04 Created by KiCad (PCBNEW (5.1.6)-1) date 2021-01-23 06:31:54*
%MOMM*%
%LPD*%
G01*
G04 APERTURE LIST*
%TA.AperFunction,ViaPad*%
%ADD10O,1.000000X1.000000*%
%TD*%
%TA.AperFunction,ViaPad*%
%ADD11R,1.000000X1.000000*%
%TD*%
%TA.AperFunction,ViaPad*%
%ADD12C,0.568750*%
%TD*%
%TA.AperFunction,ViaPad*%
%ADD13C,0.600000*%
%TD*%
%TA.AperFunction,Conductor*%
%ADD14C,0.254000*%
%TD*%
G04 APERTURE END LIST*
D10*
%TO.N,GND*%
%TO.C,J2*%
X90770000Y-101310000D03*
X89500000Y-101310000D03*
%TO.N,/IMU*%
X90770000Y-100040000D03*
%TO.N,GND*%
X89500000Y-100040000D03*
%TO.N,/IMU_VDDIO*%
X90770000Y-98770000D03*
%TO.N,+VBAT*%
X89500000Y-98770000D03*
%TO.N,/IMU_VDD*%
X90770000Y-97500000D03*
D11*
%TO.N,+VDDIO*%
X89500000Y-97500000D03*
%TD*%
D10*
%TO.N,/GPIO15*%
%TO.C,JA1*%
X111510000Y-105500000D03*
%TO.N,/GPIO14*%
X110240000Y-105500000D03*
%TO.N,/GPIO13*%
X108970000Y-105500000D03*
%TO.N,/GPIO12*%
X107700000Y-105500000D03*
%TO.N,/GPIO10*%
X106430000Y-105500000D03*
%TO.N,/GPIO9*%
X105160000Y-105500000D03*
%TO.N,/GPIO8*%
X103890000Y-105500000D03*
%TO.N,/GPIO7*%
X102620000Y-105500000D03*
%TO.N,/GPIO6*%
X101350000Y-105500000D03*
%TO.N,/GPIO5*%
X100080000Y-105500000D03*
%TO.N,/GPIO4*%
X98810000Y-105500000D03*
%TO.N,/GPIO3*%
X97540000Y-105500000D03*
%TO.N,/GPIO2*%
X96270000Y-105500000D03*
%TO.N,/GPIO1*%
X95000000Y-105500000D03*
D11*
%TO.N,/GPIO0*%
X93730000Y-105500000D03*
%TD*%
D10*
%TO.N,/RsTx*%
%TO.C,JB1*%
X115500000Y-101470000D03*
%TO.N,/RsRx*%
X115500000Y-100200000D03*
%TO.N,/3WB_CLK*%
X115500000Y-98930000D03*
%TO.N,/3WB_ENB*%
X115500000Y-97660000D03*
%TO.N,/3WB_DATA*%
X115500000Y-96390000D03*
%TO.N,/SENSOR_LDO_OUTPUT*%
X115500000Y-95120000D03*
%TO.N,/SENSOR_EXT_IN*%
X115500000Y-93850000D03*
%TO.N,/BOOT_SOURCE_SEL*%
X115500000Y-92580000D03*
%TO.N,+VDDD*%
X115500000Y-91310000D03*
%TO.N,+VDDIO*%
X115500000Y-90040000D03*
%TO.N,+VBAT*%
X115500000Y-88770000D03*
D11*
%TO.N,GND*%
X115500000Y-87500000D03*
%TD*%
D12*
%TO.N,GND*%
%TO.C,U8*%
X106412500Y-97187500D03*
X106412500Y-96050000D03*
X106412500Y-94912500D03*
X106412500Y-93775000D03*
X106412500Y-92637500D03*
X106412500Y-91500000D03*
X106412500Y-90362500D03*
X106412500Y-89225000D03*
X105275000Y-97187500D03*
X105275000Y-96050000D03*
X105275000Y-94912500D03*
X105275000Y-93775000D03*
X105275000Y-92637500D03*
X105275000Y-91500000D03*
X105275000Y-90362500D03*
X105275000Y-89225000D03*
X104137500Y-97187500D03*
X104137500Y-96050000D03*
X104137500Y-94912500D03*
X104137500Y-93775000D03*
X104137500Y-92637500D03*
X104137500Y-91500000D03*
X104137500Y-90362500D03*
X104137500Y-89225000D03*
X103000000Y-97187500D03*
X103000000Y-96050000D03*
X103000000Y-94912500D03*
X103000000Y-93775000D03*
X103000000Y-92637500D03*
X103000000Y-91500000D03*
X103000000Y-90362500D03*
X103000000Y-89225000D03*
X101862500Y-97187500D03*
X101862500Y-96050000D03*
X101862500Y-94912500D03*
X101862500Y-93775000D03*
X101862500Y-92637500D03*
X101862500Y-91500000D03*
X101862500Y-90362500D03*
X101862500Y-89225000D03*
X100725000Y-97187500D03*
X100725000Y-96050000D03*
X100725000Y-94912500D03*
X100725000Y-93775000D03*
X100725000Y-92637500D03*
X100725000Y-91500000D03*
X100725000Y-90362500D03*
X100725000Y-89225000D03*
X99587500Y-97187500D03*
X99587500Y-96050000D03*
X99587500Y-94912500D03*
X99587500Y-93775000D03*
X99587500Y-92637500D03*
X99587500Y-91500000D03*
X99587500Y-90362500D03*
X99587500Y-89225000D03*
X98450000Y-97187500D03*
X98450000Y-96050000D03*
X98450000Y-94912500D03*
X98450000Y-93775000D03*
X98450000Y-92637500D03*
X98450000Y-91500000D03*
X98450000Y-90362500D03*
X98450000Y-89225000D03*
%TD*%
D13*
%TO.N,GND*%
X110000000Y-96206250D03*
X95000000Y-94000000D03*
X107000000Y-82000000D03*
X96000000Y-85000000D03*
X110200000Y-91000000D03*
X112000000Y-93000000D03*
X110500000Y-95000000D03*
X95000000Y-101000000D03*
X113500000Y-102100000D03*
X100500000Y-80000000D03*
X88500000Y-92500000D03*
X88500000Y-89500000D03*
%TO.N,+VBAT*%
X103150000Y-82000000D03*
X112899999Y-83899999D03*
X95000000Y-95000000D03*
X95000000Y-99500000D03*
X95299999Y-89200001D03*
%TO.N,+VDDD*%
X99500000Y-82600000D03*
X109500000Y-88000000D03*
%TO.N,+VDDIO*%
X101724265Y-102875735D03*
%TO.N,/BOOT_SOURCE_SEL*%
X109500000Y-94000000D03*
%TO.N,/IMU*%
X94000000Y-79500000D03*
%TO.N,/GPIO13*%
X92000000Y-81399990D03*
%TO.N,/GPIO14*%
X93500000Y-81999990D03*
%TO.N,/GPIO15*%
X94500000Y-83000000D03*
%TO.N,/GPIO12*%
X89674265Y-88674265D03*
%TO.N,/IMU_VDD*%
X91500000Y-89500000D03*
%TD*%
D14*
%TO.N,GND*%
G36*
X116815001Y-106815000D02*
G01*
X88185000Y-106815000D01*
X88185000Y-104852484D01*
X88502247Y-104852484D01*
X88502247Y-105147516D01*
X88559805Y-105436878D01*
X88672708Y-105709452D01*
X88836619Y-105954762D01*
X89045238Y-106163381D01*
X89290548Y-106327292D01*
X89563122Y-106440195D01*
X89852484Y-106497753D01*
X90147516Y-106497753D01*
X90436878Y-106440195D01*
X90709452Y-106327292D01*
X90954762Y-106163381D01*
X91163381Y-105954762D01*
X91327292Y-105709452D01*
X91440195Y-105436878D01*
X91497753Y-105147516D01*
X91497753Y-105000000D01*
X92591928Y-105000000D01*
X92591928Y-106000000D01*
X92604188Y-106124482D01*
X92640498Y-106244180D01*
X92699463Y-106354494D01*
X92778815Y-106451185D01*
X92875506Y-106530537D01*
X92985820Y-106589502D01*
X93105518Y-106625812D01*
X93230000Y-106638072D01*
X94230000Y-106638072D01*
X94354482Y-106625812D01*
X94474180Y-106589502D01*
X94557226Y-106545112D01*
X94668933Y-106591383D01*
X94888212Y-106635000D01*
X95111788Y-106635000D01*
X95331067Y-106591383D01*
X95537624Y-106505824D01*
X95635000Y-106440759D01*
X95732376Y-106505824D01*
X95938933Y-106591383D01*
X96158212Y-106635000D01*
X96381788Y-106635000D01*
X96601067Y-106591383D01*
X96807624Y-106505824D01*
X96905000Y-106440759D01*
X97002376Y-106505824D01*
X97208933Y-106591383D01*
X97428212Y-106635000D01*
X97651788Y-106635000D01*
X97871067Y-106591383D01*
X98077624Y-106505824D01*
X98175000Y-106440759D01*
X98272376Y-106505824D01*
X98478933Y-106591383D01*
X98698212Y-106635000D01*
X98921788Y-106635000D01*
X99141067Y-106591383D01*
X99347624Y-106505824D01*
X99445000Y-106440759D01*
X99542376Y-106505824D01*
X99748933Y-106591383D01*
X99968212Y-106635000D01*
X100191788Y-106635000D01*
X100411067Y-106591383D01*
X100617624Y-106505824D01*
X100715000Y-106440759D01*
X100812376Y-106505824D01*
X101018933Y-106591383D01*
X101238212Y-106635000D01*
X101461788Y-106635000D01*
X101681067Y-106591383D01*
X101887624Y-106505824D01*
X101985000Y-106440759D01*
X102082376Y-106505824D01*
X102288933Y-106591383D01*
X102508212Y-106635000D01*
X102731788Y-106635000D01*
X102951067Y-106591383D01*
X103157624Y-106505824D01*
X103255000Y-106440759D01*
X103352376Y-106505824D01*
X103558933Y-106591383D01*
X103778212Y-106635000D01*
X104001788Y-106635000D01*
X104221067Y-106591383D01*
X104427624Y-106505824D01*
X104525000Y-106440759D01*
X104622376Y-106505824D01*
X104828933Y-106591383D01*
X105048212Y-106635000D01*
X105271788Y-106635000D01*
X105491067Y-106591383D01*
X105697624Y-106505824D01*
X105795000Y-106440759D01*
X105892376Y-106505824D01*
X106098933Y-106591383D01*
X106318212Y-106635000D01*
X106541788Y-106635000D01*
X106761067Y-106591383D01*
X106967624Y-106505824D01*
X107065000Y-106440759D01*
X107162376Y-106505824D01*
X107368933Y-106591383D01*
X107588212Y-106635000D01*
X107811788Y-106635000D01*
X108031067Y-106591383D01*
X108237624Y-106505824D01*
X108335000Y-106440759D01*
X108432376Y-106505824D01*
X108638933Y-106591383D01*
X108858212Y-106635000D01*
X109081788Y-106635000D01*
X109301067Y-106591383D01*
X109507624Y-106505824D01*
X109605000Y-106440759D01*
X109702376Y-106505824D01*
X109908933Y-106591383D01*
X110128212Y-106635000D01*
X110351788Y-106635000D01*
X110571067Y-106591383D01*
X110777624Y-106505824D01*
X110875000Y-106440759D01*
X110972376Y-106505824D01*
X111178933Y-106591383D01*
X111398212Y-106635000D01*
X111621788Y-106635000D01*
X111841067Y-106591383D01*
X112047624Y-106505824D01*
X112233520Y-106381612D01*
X112391612Y-106223520D01*
X112515824Y-106037624D01*
X112601383Y-105831067D01*
X112645000Y-105611788D01*
X112645000Y-105388212D01*
X112601383Y-105168933D01*
X112515824Y-104962376D01*
X112442397Y-104852484D01*
X113502247Y-104852484D01*
X113502247Y-105147516D01*
X113559805Y-105436878D01*
X113672708Y-105709452D01*
X113836619Y-105954762D01*
X114045238Y-106163381D01*
X114290548Y-106327292D01*
X114563122Y-106440195D01*
X114852484Y-106497753D01*
X115147516Y-106497753D01*
X115436878Y-106440195D01*
X115709452Y-106327292D01*
X115954762Y-106163381D01*
X116163381Y-105954762D01*
X116327292Y-105709452D01*
X116440195Y-105436878D01*
X116497753Y-105147516D01*
X116497753Y-104852484D01*
X116440195Y-104563122D01*
X116327292Y-104290548D01*
X116163381Y-104045238D01*
X115954762Y-103836619D01*
X115709452Y-103672708D01*
X115436878Y-103559805D01*
X115147516Y-103502247D01*
X114852484Y-103502247D01*
X114563122Y-103559805D01*
X114290548Y-103672708D01*
X114045238Y-103836619D01*
X113836619Y-104045238D01*
X113672708Y-104290548D01*
X113559805Y-104563122D01*
X113502247Y-104852484D01*
X112442397Y-104852484D01*
X112391612Y-104776480D01*
X112233520Y-104618388D01*
X112047624Y-104494176D01*
X111841067Y-104408617D01*
X111621788Y-104365000D01*
X111398212Y-104365000D01*
X111178933Y-104408617D01*
X110972376Y-104494176D01*
X110875000Y-104559241D01*
X110777624Y-104494176D01*
X110571067Y-104408617D01*
X110351788Y-104365000D01*
X110128212Y-104365000D01*
X109908933Y-104408617D01*
X109702376Y-104494176D01*
X109605000Y-104559241D01*
X109507624Y-104494176D01*
X109301067Y-104408617D01*
X109081788Y-104365000D01*
X108858212Y-104365000D01*
X108638933Y-104408617D01*
X108432376Y-104494176D01*
X108335000Y-104559241D01*
X108237624Y-104494176D01*
X108031067Y-104408617D01*
X107811788Y-104365000D01*
X107588212Y-104365000D01*
X107368933Y-104408617D01*
X107162376Y-104494176D01*
X107065000Y-104559241D01*
X106967624Y-104494176D01*
X106761067Y-104408617D01*
X106541788Y-104365000D01*
X106318212Y-104365000D01*
X106098933Y-104408617D01*
X105892376Y-104494176D01*
X105795000Y-104559241D01*
X105697624Y-104494176D01*
X105491067Y-104408617D01*
X105271788Y-104365000D01*
X105048212Y-104365000D01*
X104828933Y-104408617D01*
X104622376Y-104494176D01*
X104525000Y-104559241D01*
X104427624Y-104494176D01*
X104221067Y-104408617D01*
X104001788Y-104365000D01*
X103778212Y-104365000D01*
X103558933Y-104408617D01*
X103352376Y-104494176D01*
X103255000Y-104559241D01*
X103157624Y-104494176D01*
X102951067Y-104408617D01*
X102731788Y-104365000D01*
X102508212Y-104365000D01*
X102288933Y-104408617D01*
X102082376Y-104494176D01*
X101985000Y-104559241D01*
X101887624Y-104494176D01*
X101681067Y-104408617D01*
X101461788Y-104365000D01*
X101238212Y-104365000D01*
X101018933Y-104408617D01*
X100812376Y-104494176D01*
X100715000Y-104559241D01*
X100617624Y-104494176D01*
X100411067Y-104408617D01*
X100191788Y-104365000D01*
X99968212Y-104365000D01*
X99748933Y-104408617D01*
X99542376Y-104494176D01*
X99445000Y-104559241D01*
X99347624Y-104494176D01*
X99141067Y-104408617D01*
X98921788Y-104365000D01*
X98698212Y-104365000D01*
X98478933Y-104408617D01*
X98272376Y-104494176D01*
X98175000Y-104559241D01*
X98077624Y-104494176D01*
X97871067Y-104408617D01*
X97651788Y-104365000D01*
X97428212Y-104365000D01*
X97208933Y-104408617D01*
X97002376Y-104494176D01*
X96905000Y-104559241D01*
X96807624Y-104494176D01*
X96601067Y-104408617D01*
X96381788Y-104365000D01*
X96158212Y-104365000D01*
X95938933Y-104408617D01*
X95732376Y-104494176D01*
X95635000Y-104559241D01*
X95537624Y-104494176D01*
X95331067Y-104408617D01*
X95111788Y-104365000D01*
X94888212Y-104365000D01*
X94668933Y-104408617D01*
X94557226Y-104454888D01*
X94474180Y-104410498D01*
X94354482Y-104374188D01*
X94230000Y-104361928D01*
X93230000Y-104361928D01*
X93105518Y-104374188D01*
X92985820Y-104410498D01*
X92875506Y-104469463D01*
X92778815Y-104548815D01*
X92699463Y-104645506D01*
X92640498Y-104755820D01*
X92604188Y-104875518D01*
X92591928Y-105000000D01*
X91497753Y-105000000D01*
X91497753Y-104852484D01*
X91440195Y-104563122D01*
X91327292Y-104290548D01*
X91163381Y-104045238D01*
X90954762Y-103836619D01*
X90709452Y-103672708D01*
X90436878Y-103559805D01*
X90147516Y-103502247D01*
X89852484Y-103502247D01*
X89563122Y-103559805D01*
X89290548Y-103672708D01*
X89045238Y-103836619D01*
X88836619Y-104045238D01*
X88672708Y-104290548D01*
X88559805Y-104563122D01*
X88502247Y-104852484D01*
X88185000Y-104852484D01*
X88185000Y-102783646D01*
X100789265Y-102783646D01*
X100789265Y-102967824D01*
X100825197Y-103148464D01*
X100895679Y-103318624D01*
X100998003Y-103471763D01*
X101128237Y-103601997D01*
X101281376Y-103704321D01*
X101451536Y-103774803D01*
X101632176Y-103810735D01*
X101816354Y-103810735D01*
X101996994Y-103774803D01*
X102167154Y-103704321D01*
X102320293Y-103601997D01*
X102450527Y-103471763D01*
X102552851Y-103318624D01*
X102623333Y-103148464D01*
X102659265Y-102967824D01*
X102659265Y-102783646D01*
X102623333Y-102603006D01*
X102552851Y-102432846D01*
X102450527Y-102279707D01*
X102320293Y-102149473D01*
X102167154Y-102047149D01*
X101996994Y-101976667D01*
X101816354Y-101940735D01*
X101632176Y-101940735D01*
X101451536Y-101976667D01*
X101281376Y-102047149D01*
X101128237Y-102149473D01*
X100998003Y-102279707D01*
X100895679Y-102432846D01*
X100825197Y-102603006D01*
X100789265Y-102783646D01*
X88185000Y-102783646D01*
X88185000Y-97000000D01*
X88361928Y-97000000D01*
X88361928Y-98000000D01*
X88374188Y-98124482D01*
X88410498Y-98244180D01*
X88454888Y-98327226D01*
X88408617Y-98438933D01*
X88365000Y-98658212D01*
X88365000Y-98881788D01*
X88408617Y-99101067D01*
X88494176Y-99307624D01*
X88618388Y-99493520D01*
X88776480Y-99651612D01*
X88962376Y-99775824D01*
X89168933Y-99861383D01*
X89388212Y-99905000D01*
X89611788Y-99905000D01*
X89640764Y-99899236D01*
X89635000Y-99928212D01*
X89635000Y-100151788D01*
X89678617Y-100371067D01*
X89764176Y-100577624D01*
X89888388Y-100763520D01*
X90046480Y-100921612D01*
X90232376Y-101045824D01*
X90438933Y-101131383D01*
X90658212Y-101175000D01*
X90881788Y-101175000D01*
X91101067Y-101131383D01*
X91307624Y-101045824D01*
X91493520Y-100921612D01*
X91651612Y-100763520D01*
X91775824Y-100577624D01*
X91861383Y-100371067D01*
X91905000Y-100151788D01*
X91905000Y-99928212D01*
X91861383Y-99708933D01*
X91775824Y-99502376D01*
X91712705Y-99407911D01*
X94065000Y-99407911D01*
X94065000Y-99592089D01*
X94100932Y-99772729D01*
X94171414Y-99942889D01*
X94273738Y-100096028D01*
X94403972Y-100226262D01*
X94557111Y-100328586D01*
X94727271Y-100399068D01*
X94907911Y-100435000D01*
X95092089Y-100435000D01*
X95272729Y-100399068D01*
X95442889Y-100328586D01*
X95596028Y-100226262D01*
X95726262Y-100096028D01*
X95828586Y-99942889D01*
X95899068Y-99772729D01*
X95935000Y-99592089D01*
X95935000Y-99407911D01*
X95899068Y-99227271D01*
X95828586Y-99057111D01*
X95726262Y-98903972D01*
X95596028Y-98773738D01*
X95442889Y-98671414D01*
X95272729Y-98600932D01*
X95092089Y-98565000D01*
X94907911Y-98565000D01*
X94727271Y-98600932D01*
X94557111Y-98671414D01*
X94403972Y-98773738D01*
X94273738Y-98903972D01*
X94171414Y-99057111D01*
X94100932Y-99227271D01*
X94065000Y-99407911D01*
X91712705Y-99407911D01*
X91710759Y-99405000D01*
X91775824Y-99307624D01*
X91861383Y-99101067D01*
X91905000Y-98881788D01*
X91905000Y-98658212D01*
X91861383Y-98438933D01*
X91775824Y-98232376D01*
X91710759Y-98135000D01*
X91775824Y-98037624D01*
X91861383Y-97831067D01*
X91905000Y-97611788D01*
X91905000Y-97388212D01*
X91861383Y-97168933D01*
X91775824Y-96962376D01*
X91651612Y-96776480D01*
X91493520Y-96618388D01*
X91307624Y-96494176D01*
X91101067Y-96408617D01*
X90881788Y-96365000D01*
X90658212Y-96365000D01*
X90438933Y-96408617D01*
X90327226Y-96454888D01*
X90244180Y-96410498D01*
X90124482Y-96374188D01*
X90000000Y-96361928D01*
X89000000Y-96361928D01*
X88875518Y-96374188D01*
X88755820Y-96410498D01*
X88645506Y-96469463D01*
X88548815Y-96548815D01*
X88469463Y-96645506D01*
X88410498Y-96755820D01*
X88374188Y-96875518D01*
X88361928Y-97000000D01*
X88185000Y-97000000D01*
X88185000Y-94907911D01*
X94065000Y-94907911D01*
X94065000Y-95092089D01*
X94100932Y-95272729D01*
X94171414Y-95442889D01*
X94273738Y-95596028D01*
X94403972Y-95726262D01*
X94557111Y-95828586D01*
X94727271Y-95899068D01*
X94907911Y-95935000D01*
X95092089Y-95935000D01*
X95272729Y-95899068D01*
X95442889Y-95828586D01*
X95596028Y-95726262D01*
X95726262Y-95596028D01*
X95828586Y-95442889D01*
X95899068Y-95272729D01*
X95935000Y-95092089D01*
X95935000Y-94907911D01*
X95899068Y-94727271D01*
X95828586Y-94557111D01*
X95726262Y-94403972D01*
X95596028Y-94273738D01*
X95442889Y-94171414D01*
X95272729Y-94100932D01*
X95092089Y-94065000D01*
X94907911Y-94065000D01*
X94727271Y-94100932D01*
X94557111Y-94171414D01*
X94403972Y-94273738D01*
X94273738Y-94403972D01*
X94171414Y-94557111D01*
X94100932Y-94727271D01*
X94065000Y-94907911D01*
X88185000Y-94907911D01*
X88185000Y-93907911D01*
X108565000Y-93907911D01*
X108565000Y-94092089D01*
X108600932Y-94272729D01*
X108671414Y-94442889D01*
X108773738Y-94596028D01*
X108903972Y-94726262D01*
X109057111Y-94828586D01*
X109227271Y-94899068D01*
X109407911Y-94935000D01*
X109592089Y-94935000D01*
X109772729Y-94899068D01*
X109942889Y-94828586D01*
X110096028Y-94726262D01*
X110226262Y-94596028D01*
X110328586Y-94442889D01*
X110399068Y-94272729D01*
X110435000Y-94092089D01*
X110435000Y-93907911D01*
X110399068Y-93727271D01*
X110328586Y-93557111D01*
X110226262Y-93403972D01*
X110096028Y-93273738D01*
X109942889Y-93171414D01*
X109772729Y-93100932D01*
X109592089Y-93065000D01*
X109407911Y-93065000D01*
X109227271Y-93100932D01*
X109057111Y-93171414D01*
X108903972Y-93273738D01*
X108773738Y-93403972D01*
X108671414Y-93557111D01*
X108600932Y-93727271D01*
X108565000Y-93907911D01*
X88185000Y-93907911D01*
X88185000Y-88582176D01*
X88739265Y-88582176D01*
X88739265Y-88766354D01*
X88775197Y-88946994D01*
X88845679Y-89117154D01*
X88948003Y-89270293D01*
X89078237Y-89400527D01*
X89231376Y-89502851D01*
X89401536Y-89573333D01*
X89582176Y-89609265D01*
X89766354Y-89609265D01*
X89946994Y-89573333D01*
X90117154Y-89502851D01*
X90259242Y-89407911D01*
X90565000Y-89407911D01*
X90565000Y-89592089D01*
X90600932Y-89772729D01*
X90671414Y-89942889D01*
X90773738Y-90096028D01*
X90903972Y-90226262D01*
X91057111Y-90328586D01*
X91227271Y-90399068D01*
X91407911Y-90435000D01*
X91592089Y-90435000D01*
X91772729Y-90399068D01*
X91942889Y-90328586D01*
X92096028Y-90226262D01*
X92226262Y-90096028D01*
X92328586Y-89942889D01*
X92399068Y-89772729D01*
X92435000Y-89592089D01*
X92435000Y-89407911D01*
X92399068Y-89227271D01*
X92349629Y-89107912D01*
X94364999Y-89107912D01*
X94364999Y-89292090D01*
X94400931Y-89472730D01*
X94471413Y-89642890D01*
X94573737Y-89796029D01*
X94703971Y-89926263D01*
X94857110Y-90028587D01*
X95027270Y-90099069D01*
X95207910Y-90135001D01*
X95392088Y-90135001D01*
X95572728Y-90099069D01*
X95742888Y-90028587D01*
X95896027Y-89926263D01*
X96026261Y-89796029D01*
X96128585Y-89642890D01*
X96199067Y-89472730D01*
X96234999Y-89292090D01*
X96234999Y-89107912D01*
X96199067Y-88927272D01*
X96128585Y-88757112D01*
X96026261Y-88603973D01*
X95896027Y-88473739D01*
X95742888Y-88371415D01*
X95572728Y-88300933D01*
X95392088Y-88265001D01*
X95207910Y-88265001D01*
X95027270Y-88300933D01*
X94857110Y-88371415D01*
X94703971Y-88473739D01*
X94573737Y-88603973D01*
X94471413Y-88757112D01*
X94400931Y-88927272D01*
X94364999Y-89107912D01*
X92349629Y-89107912D01*
X92328586Y-89057111D01*
X92226262Y-88903972D01*
X92096028Y-88773738D01*
X91942889Y-88671414D01*
X91772729Y-88600932D01*
X91592089Y-88565000D01*
X91407911Y-88565000D01*
X91227271Y-88600932D01*
X91057111Y-88671414D01*
X90903972Y-88773738D01*
X90773738Y-88903972D01*
X90671414Y-89057111D01*
X90600932Y-89227271D01*
X90565000Y-89407911D01*
X90259242Y-89407911D01*
X90270293Y-89400527D01*
X90400527Y-89270293D01*
X90502851Y-89117154D01*
X90573333Y-88946994D01*
X90609265Y-88766354D01*
X90609265Y-88582176D01*
X90573333Y-88401536D01*
X90502851Y-88231376D01*
X90400527Y-88078237D01*
X90270293Y-87948003D01*
X90210291Y-87907911D01*
X108565000Y-87907911D01*
X108565000Y-88092089D01*
X108600932Y-88272729D01*
X108671414Y-88442889D01*
X108773738Y-88596028D01*
X108903972Y-88726262D01*
X109057111Y-88828586D01*
X109227271Y-88899068D01*
X109407911Y-88935000D01*
X109592089Y-88935000D01*
X109772729Y-88899068D01*
X109942889Y-88828586D01*
X110096028Y-88726262D01*
X110164078Y-88658212D01*
X114365000Y-88658212D01*
X114365000Y-88881788D01*
X114408617Y-89101067D01*
X114494176Y-89307624D01*
X114559241Y-89405000D01*
X114494176Y-89502376D01*
X114408617Y-89708933D01*
X114365000Y-89928212D01*
X114365000Y-90151788D01*
X114408617Y-90371067D01*
X114494176Y-90577624D01*
X114559241Y-90675000D01*
X114494176Y-90772376D01*
X114408617Y-90978933D01*
X114365000Y-91198212D01*
X114365000Y-91421788D01*
X114408617Y-91641067D01*
X114494176Y-91847624D01*
X114559241Y-91945000D01*
X114494176Y-92042376D01*
X114408617Y-92248933D01*
X114365000Y-92468212D01*
X114365000Y-92691788D01*
X114408617Y-92911067D01*
X114494176Y-93117624D01*
X114559241Y-93215000D01*
X114494176Y-93312376D01*
X114408617Y-93518933D01*
X114365000Y-93738212D01*
X114365000Y-93961788D01*
X114408617Y-94181067D01*
X114494176Y-94387624D01*
X114559241Y-94485000D01*
X114494176Y-94582376D01*
X114408617Y-94788933D01*
X114365000Y-95008212D01*
X114365000Y-95231788D01*
X114408617Y-95451067D01*
X114494176Y-95657624D01*
X114559241Y-95755000D01*
X114494176Y-95852376D01*
X114408617Y-96058933D01*
X114365000Y-96278212D01*
X114365000Y-96501788D01*
X114408617Y-96721067D01*
X114494176Y-96927624D01*
X114559241Y-97025000D01*
X114494176Y-97122376D01*
X114408617Y-97328933D01*
X114365000Y-97548212D01*
X114365000Y-97771788D01*
X114408617Y-97991067D01*
X114494176Y-98197624D01*
X114559241Y-98295000D01*
X114494176Y-98392376D01*
X114408617Y-98598933D01*
X114365000Y-98818212D01*
X114365000Y-99041788D01*
X114408617Y-99261067D01*
X114494176Y-99467624D01*
X114559241Y-99565000D01*
X114494176Y-99662376D01*
X114408617Y-99868933D01*
X114365000Y-100088212D01*
X114365000Y-100311788D01*
X114408617Y-100531067D01*
X114494176Y-100737624D01*
X114559241Y-100835000D01*
X114494176Y-100932376D01*
X114408617Y-101138933D01*
X114365000Y-101358212D01*
X114365000Y-101581788D01*
X114408617Y-101801067D01*
X114494176Y-102007624D01*
X114618388Y-102193520D01*
X114776480Y-102351612D01*
X114962376Y-102475824D01*
X115168933Y-102561383D01*
X115388212Y-102605000D01*
X115611788Y-102605000D01*
X115831067Y-102561383D01*
X116037624Y-102475824D01*
X116223520Y-102351612D01*
X116381612Y-102193520D01*
X116505824Y-102007624D01*
X116591383Y-101801067D01*
X116635000Y-101581788D01*
X116635000Y-101358212D01*
X116591383Y-101138933D01*
X116505824Y-100932376D01*
X116440759Y-100835000D01*
X116505824Y-100737624D01*
X116591383Y-100531067D01*
X116635000Y-100311788D01*
X116635000Y-100088212D01*
X116591383Y-99868933D01*
X116505824Y-99662376D01*
X116440759Y-99565000D01*
X116505824Y-99467624D01*
X116591383Y-99261067D01*
X116635000Y-99041788D01*
X116635000Y-98818212D01*
X116591383Y-98598933D01*
X116505824Y-98392376D01*
X116440759Y-98295000D01*
X116505824Y-98197624D01*
X116591383Y-97991067D01*
X116635000Y-97771788D01*
X116635000Y-97548212D01*
X116591383Y-97328933D01*
X116505824Y-97122376D01*
X116440759Y-97025000D01*
X116505824Y-96927624D01*
X116591383Y-96721067D01*
X116635000Y-96501788D01*
X116635000Y-96278212D01*
X116591383Y-96058933D01*
X116505824Y-95852376D01*
X116440759Y-95755000D01*
X116505824Y-95657624D01*
X116591383Y-95451067D01*
X116635000Y-95231788D01*
X116635000Y-95008212D01*
X116591383Y-94788933D01*
X116505824Y-94582376D01*
X116440759Y-94485000D01*
X116505824Y-94387624D01*
X116591383Y-94181067D01*
X116635000Y-93961788D01*
X116635000Y-93738212D01*
X116591383Y-93518933D01*
X116505824Y-93312376D01*
X116440759Y-93215000D01*
X116505824Y-93117624D01*
X116591383Y-92911067D01*
X116635000Y-92691788D01*
X116635000Y-92468212D01*
X116591383Y-92248933D01*
X116505824Y-92042376D01*
X116440759Y-91945000D01*
X116505824Y-91847624D01*
X116591383Y-91641067D01*
X116635000Y-91421788D01*
X116635000Y-91198212D01*
X116591383Y-90978933D01*
X116505824Y-90772376D01*
X116440759Y-90675000D01*
X116505824Y-90577624D01*
X116591383Y-90371067D01*
X116635000Y-90151788D01*
X116635000Y-89928212D01*
X116591383Y-89708933D01*
X116505824Y-89502376D01*
X116440759Y-89405000D01*
X116505824Y-89307624D01*
X116591383Y-89101067D01*
X116635000Y-88881788D01*
X116635000Y-88658212D01*
X116591383Y-88438933D01*
X116505824Y-88232376D01*
X116381612Y-88046480D01*
X116223520Y-87888388D01*
X116037624Y-87764176D01*
X115831067Y-87678617D01*
X115611788Y-87635000D01*
X115388212Y-87635000D01*
X115168933Y-87678617D01*
X114962376Y-87764176D01*
X114776480Y-87888388D01*
X114618388Y-88046480D01*
X114494176Y-88232376D01*
X114408617Y-88438933D01*
X114365000Y-88658212D01*
X110164078Y-88658212D01*
X110226262Y-88596028D01*
X110328586Y-88442889D01*
X110399068Y-88272729D01*
X110435000Y-88092089D01*
X110435000Y-87907911D01*
X110399068Y-87727271D01*
X110328586Y-87557111D01*
X110226262Y-87403972D01*
X110096028Y-87273738D01*
X109942889Y-87171414D01*
X109772729Y-87100932D01*
X109592089Y-87065000D01*
X109407911Y-87065000D01*
X109227271Y-87100932D01*
X109057111Y-87171414D01*
X108903972Y-87273738D01*
X108773738Y-87403972D01*
X108671414Y-87557111D01*
X108600932Y-87727271D01*
X108565000Y-87907911D01*
X90210291Y-87907911D01*
X90117154Y-87845679D01*
X89946994Y-87775197D01*
X89766354Y-87739265D01*
X89582176Y-87739265D01*
X89401536Y-87775197D01*
X89231376Y-87845679D01*
X89078237Y-87948003D01*
X88948003Y-88078237D01*
X88845679Y-88231376D01*
X88775197Y-88401536D01*
X88739265Y-88582176D01*
X88185000Y-88582176D01*
X88185000Y-79852484D01*
X88502247Y-79852484D01*
X88502247Y-80147516D01*
X88559805Y-80436878D01*
X88672708Y-80709452D01*
X88836619Y-80954762D01*
X89045238Y-81163381D01*
X89290548Y-81327292D01*
X89563122Y-81440195D01*
X89852484Y-81497753D01*
X90147516Y-81497753D01*
X90436878Y-81440195D01*
X90709452Y-81327292D01*
X90738472Y-81307901D01*
X91065000Y-81307901D01*
X91065000Y-81492079D01*
X91100932Y-81672719D01*
X91171414Y-81842879D01*
X91273738Y-81996018D01*
X91403972Y-82126252D01*
X91557111Y-82228576D01*
X91727271Y-82299058D01*
X91907911Y-82334990D01*
X92092089Y-82334990D01*
X92272729Y-82299058D01*
X92442889Y-82228576D01*
X92574640Y-82140543D01*
X92600932Y-82272719D01*
X92671414Y-82442879D01*
X92773738Y-82596018D01*
X92903972Y-82726252D01*
X93057111Y-82828576D01*
X93227271Y-82899058D01*
X93407911Y-82934990D01*
X93565000Y-82934990D01*
X93565000Y-83092089D01*
X93600932Y-83272729D01*
X93671414Y-83442889D01*
X93773738Y-83596028D01*
X93903972Y-83726262D01*
X94057111Y-83828586D01*
X94227271Y-83899068D01*
X94407911Y-83935000D01*
X94592089Y-83935000D01*
X94772729Y-83899068D01*
X94942889Y-83828586D01*
X94973832Y-83807910D01*
X111964999Y-83807910D01*
X111964999Y-83992088D01*
X112000931Y-84172728D01*
X112071413Y-84342888D01*
X112173737Y-84496027D01*
X112303971Y-84626261D01*
X112457110Y-84728585D01*
X112627270Y-84799067D01*
X112807910Y-84834999D01*
X112992088Y-84834999D01*
X113172728Y-84799067D01*
X113342888Y-84728585D01*
X113496027Y-84626261D01*
X113626261Y-84496027D01*
X113728585Y-84342888D01*
X113799067Y-84172728D01*
X113834999Y-83992088D01*
X113834999Y-83807910D01*
X113799067Y-83627270D01*
X113728585Y-83457110D01*
X113626261Y-83303971D01*
X113496027Y-83173737D01*
X113342888Y-83071413D01*
X113172728Y-83000931D01*
X112992088Y-82964999D01*
X112807910Y-82964999D01*
X112627270Y-83000931D01*
X112457110Y-83071413D01*
X112303971Y-83173737D01*
X112173737Y-83303971D01*
X112071413Y-83457110D01*
X112000931Y-83627270D01*
X111964999Y-83807910D01*
X94973832Y-83807910D01*
X95096028Y-83726262D01*
X95226262Y-83596028D01*
X95328586Y-83442889D01*
X95399068Y-83272729D01*
X95435000Y-83092089D01*
X95435000Y-82907911D01*
X95399068Y-82727271D01*
X95328586Y-82557111D01*
X95295712Y-82507911D01*
X98565000Y-82507911D01*
X98565000Y-82692089D01*
X98600932Y-82872729D01*
X98671414Y-83042889D01*
X98773738Y-83196028D01*
X98903972Y-83326262D01*
X99057111Y-83428586D01*
X99227271Y-83499068D01*
X99407911Y-83535000D01*
X99592089Y-83535000D01*
X99772729Y-83499068D01*
X99942889Y-83428586D01*
X100096028Y-83326262D01*
X100226262Y-83196028D01*
X100328586Y-83042889D01*
X100399068Y-82872729D01*
X100435000Y-82692089D01*
X100435000Y-82507911D01*
X100399068Y-82327271D01*
X100328586Y-82157111D01*
X100226262Y-82003972D01*
X100130201Y-81907911D01*
X102215000Y-81907911D01*
X102215000Y-82092089D01*
X102250932Y-82272729D01*
X102321414Y-82442889D01*
X102423738Y-82596028D01*
X102553972Y-82726262D01*
X102707111Y-82828586D01*
X102877271Y-82899068D01*
X103057911Y-82935000D01*
X103242089Y-82935000D01*
X103422729Y-82899068D01*
X103592889Y-82828586D01*
X103746028Y-82726262D01*
X103876262Y-82596028D01*
X103978586Y-82442889D01*
X104049068Y-82272729D01*
X104085000Y-82092089D01*
X104085000Y-81907911D01*
X104049068Y-81727271D01*
X103978586Y-81557111D01*
X103876262Y-81403972D01*
X103746028Y-81273738D01*
X103592889Y-81171414D01*
X103422729Y-81100932D01*
X103242089Y-81065000D01*
X103057911Y-81065000D01*
X102877271Y-81100932D01*
X102707111Y-81171414D01*
X102553972Y-81273738D01*
X102423738Y-81403972D01*
X102321414Y-81557111D01*
X102250932Y-81727271D01*
X102215000Y-81907911D01*
X100130201Y-81907911D01*
X100096028Y-81873738D01*
X99942889Y-81771414D01*
X99772729Y-81700932D01*
X99592089Y-81665000D01*
X99407911Y-81665000D01*
X99227271Y-81700932D01*
X99057111Y-81771414D01*
X98903972Y-81873738D01*
X98773738Y-82003972D01*
X98671414Y-82157111D01*
X98600932Y-82327271D01*
X98565000Y-82507911D01*
X95295712Y-82507911D01*
X95226262Y-82403972D01*
X95096028Y-82273738D01*
X94942889Y-82171414D01*
X94772729Y-82100932D01*
X94592089Y-82065000D01*
X94435000Y-82065000D01*
X94435000Y-81907901D01*
X94399068Y-81727261D01*
X94328586Y-81557101D01*
X94226262Y-81403962D01*
X94096028Y-81273728D01*
X93942889Y-81171404D01*
X93772729Y-81100922D01*
X93592089Y-81064990D01*
X93407911Y-81064990D01*
X93227271Y-81100922D01*
X93057111Y-81171404D01*
X92925360Y-81259437D01*
X92899068Y-81127261D01*
X92828586Y-80957101D01*
X92726262Y-80803962D01*
X92596028Y-80673728D01*
X92442889Y-80571404D01*
X92272729Y-80500922D01*
X92092089Y-80464990D01*
X91907911Y-80464990D01*
X91727271Y-80500922D01*
X91557111Y-80571404D01*
X91403972Y-80673728D01*
X91273738Y-80803962D01*
X91171414Y-80957101D01*
X91100932Y-81127261D01*
X91065000Y-81307901D01*
X90738472Y-81307901D01*
X90954762Y-81163381D01*
X91163381Y-80954762D01*
X91327292Y-80709452D01*
X91440195Y-80436878D01*
X91497753Y-80147516D01*
X91497753Y-79852484D01*
X91440195Y-79563122D01*
X91375905Y-79407911D01*
X93065000Y-79407911D01*
X93065000Y-79592089D01*
X93100932Y-79772729D01*
X93171414Y-79942889D01*
X93273738Y-80096028D01*
X93403972Y-80226262D01*
X93557111Y-80328586D01*
X93727271Y-80399068D01*
X93907911Y-80435000D01*
X94092089Y-80435000D01*
X94272729Y-80399068D01*
X94442889Y-80328586D01*
X94596028Y-80226262D01*
X94726262Y-80096028D01*
X94828586Y-79942889D01*
X94866032Y-79852484D01*
X113502247Y-79852484D01*
X113502247Y-80147516D01*
X113559805Y-80436878D01*
X113672708Y-80709452D01*
X113836619Y-80954762D01*
X114045238Y-81163381D01*
X114290548Y-81327292D01*
X114563122Y-81440195D01*
X114852484Y-81497753D01*
X115147516Y-81497753D01*
X115436878Y-81440195D01*
X115709452Y-81327292D01*
X115954762Y-81163381D01*
X116163381Y-80954762D01*
X116327292Y-80709452D01*
X116440195Y-80436878D01*
X116497753Y-80147516D01*
X116497753Y-79852484D01*
X116440195Y-79563122D01*
X116327292Y-79290548D01*
X116163381Y-79045238D01*
X115954762Y-78836619D01*
X115709452Y-78672708D01*
X115436878Y-78559805D01*
X115147516Y-78502247D01*
X114852484Y-78502247D01*
X114563122Y-78559805D01*
X114290548Y-78672708D01*
X114045238Y-78836619D01*
X113836619Y-79045238D01*
X113672708Y-79290548D01*
X113559805Y-79563122D01*
X113502247Y-79852484D01*
X94866032Y-79852484D01*
X94899068Y-79772729D01*
X94935000Y-79592089D01*
X94935000Y-79407911D01*
X94899068Y-79227271D01*
X94828586Y-79057111D01*
X94726262Y-78903972D01*
X94596028Y-78773738D01*
X94442889Y-78671414D01*
X94272729Y-78600932D01*
X94092089Y-78565000D01*
X93907911Y-78565000D01*
X93727271Y-78600932D01*
X93557111Y-78671414D01*
X93403972Y-78773738D01*
X93273738Y-78903972D01*
X93171414Y-79057111D01*
X93100932Y-79227271D01*
X93065000Y-79407911D01*
X91375905Y-79407911D01*
X91327292Y-79290548D01*
X91163381Y-79045238D01*
X90954762Y-78836619D01*
X90709452Y-78672708D01*
X90436878Y-78559805D01*
X90147516Y-78502247D01*
X89852484Y-78502247D01*
X89563122Y-78559805D01*
X89290548Y-78672708D01*
X89045238Y-78836619D01*
X88836619Y-79045238D01*
X88672708Y-79290548D01*
X88559805Y-79563122D01*
X88502247Y-79852484D01*
X88185000Y-79852484D01*
X88185000Y-78185000D01*
X116815000Y-78185000D01*
X116815001Y-106815000D01*
G37*
X116815001Y-106815000D02*
X88185000Y-106815000D01*
X88185000Y-104852484D01*
X88502247Y-104852484D01*
X88502247Y-105147516D01*
X88559805Y-105436878D01*
X88672708Y-105709452D01*
X88836619Y-105954762D01*
X89045238Y-106163381D01*
X89290548Y-106327292D01*
X89563122Y-106440195D01*
X89852484Y-106497753D01*
X90147516Y-106497753D01*
X90436878Y-106440195D01*
X90709452Y-106327292D01*
X90954762Y-106163381D01*
X91163381Y-105954762D01*
X91327292Y-105709452D01*
X91440195Y-105436878D01*
X91497753Y-105147516D01*
X91497753Y-105000000D01*
X92591928Y-105000000D01*
X92591928Y-106000000D01*
X92604188Y-106124482D01*
X92640498Y-106244180D01*
X92699463Y-106354494D01*
X92778815Y-106451185D01*
X92875506Y-106530537D01*
X92985820Y-106589502D01*
X93105518Y-106625812D01*
X93230000Y-106638072D01*
X94230000Y-106638072D01*
X94354482Y-106625812D01*
X94474180Y-106589502D01*
X94557226Y-106545112D01*
X94668933Y-106591383D01*
X94888212Y-106635000D01*
X95111788Y-106635000D01*
X95331067Y-106591383D01*
X95537624Y-106505824D01*
X95635000Y-106440759D01*
X95732376Y-106505824D01*
X95938933Y-106591383D01*
X96158212Y-106635000D01*
X96381788Y-106635000D01*
X96601067Y-106591383D01*
X96807624Y-106505824D01*
X96905000Y-106440759D01*
X97002376Y-106505824D01*
X97208933Y-106591383D01*
X97428212Y-106635000D01*
X97651788Y-106635000D01*
X97871067Y-106591383D01*
X98077624Y-106505824D01*
X98175000Y-106440759D01*
X98272376Y-106505824D01*
X98478933Y-106591383D01*
X98698212Y-106635000D01*
X98921788Y-106635000D01*
X99141067Y-106591383D01*
X99347624Y-106505824D01*
X99445000Y-106440759D01*
X99542376Y-106505824D01*
X99748933Y-106591383D01*
X99968212Y-106635000D01*
X100191788Y-106635000D01*
X100411067Y-106591383D01*
X100617624Y-106505824D01*
X100715000Y-106440759D01*
X100812376Y-106505824D01*
X101018933Y-106591383D01*
X101238212Y-106635000D01*
X101461788Y-106635000D01*
X101681067Y-106591383D01*
X101887624Y-106505824D01*
X101985000Y-106440759D01*
X102082376Y-106505824D01*
X102288933Y-106591383D01*
X102508212Y-106635000D01*
X102731788Y-106635000D01*
X102951067Y-106591383D01*
X103157624Y-106505824D01*
X103255000Y-106440759D01*
X103352376Y-106505824D01*
X103558933Y-106591383D01*
X103778212Y-106635000D01*
X104001788Y-106635000D01*
X104221067Y-106591383D01*
X104427624Y-106505824D01*
X104525000Y-106440759D01*
X104622376Y-106505824D01*
X104828933Y-106591383D01*
X105048212Y-106635000D01*
X105271788Y-106635000D01*
X105491067Y-106591383D01*
X105697624Y-106505824D01*
X105795000Y-106440759D01*
X105892376Y-106505824D01*
X106098933Y-106591383D01*
X106318212Y-106635000D01*
X106541788Y-106635000D01*
X106761067Y-106591383D01*
X106967624Y-106505824D01*
X107065000Y-106440759D01*
X107162376Y-106505824D01*
X107368933Y-106591383D01*
X107588212Y-106635000D01*
X107811788Y-106635000D01*
X108031067Y-106591383D01*
X108237624Y-106505824D01*
X108335000Y-106440759D01*
X108432376Y-106505824D01*
X108638933Y-106591383D01*
X108858212Y-106635000D01*
X109081788Y-106635000D01*
X109301067Y-106591383D01*
X109507624Y-106505824D01*
X109605000Y-106440759D01*
X109702376Y-106505824D01*
X109908933Y-106591383D01*
X110128212Y-106635000D01*
X110351788Y-106635000D01*
X110571067Y-106591383D01*
X110777624Y-106505824D01*
X110875000Y-106440759D01*
X110972376Y-106505824D01*
X111178933Y-106591383D01*
X111398212Y-106635000D01*
X111621788Y-106635000D01*
X111841067Y-106591383D01*
X112047624Y-106505824D01*
X112233520Y-106381612D01*
X112391612Y-106223520D01*
X112515824Y-106037624D01*
X112601383Y-105831067D01*
X112645000Y-105611788D01*
X112645000Y-105388212D01*
X112601383Y-105168933D01*
X112515824Y-104962376D01*
X112442397Y-104852484D01*
X113502247Y-104852484D01*
X113502247Y-105147516D01*
X113559805Y-105436878D01*
X113672708Y-105709452D01*
X113836619Y-105954762D01*
X114045238Y-106163381D01*
X114290548Y-106327292D01*
X114563122Y-106440195D01*
X114852484Y-106497753D01*
X115147516Y-106497753D01*
X115436878Y-106440195D01*
X115709452Y-106327292D01*
X115954762Y-106163381D01*
X116163381Y-105954762D01*
X116327292Y-105709452D01*
X116440195Y-105436878D01*
X116497753Y-105147516D01*
X116497753Y-104852484D01*
X116440195Y-104563122D01*
X116327292Y-104290548D01*
X116163381Y-104045238D01*
X115954762Y-103836619D01*
X115709452Y-103672708D01*
X115436878Y-103559805D01*
X115147516Y-103502247D01*
X114852484Y-103502247D01*
X114563122Y-103559805D01*
X114290548Y-103672708D01*
X114045238Y-103836619D01*
X113836619Y-104045238D01*
X113672708Y-104290548D01*
X113559805Y-104563122D01*
X113502247Y-104852484D01*
X112442397Y-104852484D01*
X112391612Y-104776480D01*
X112233520Y-104618388D01*
X112047624Y-104494176D01*
X111841067Y-104408617D01*
X111621788Y-104365000D01*
X111398212Y-104365000D01*
X111178933Y-104408617D01*
X110972376Y-104494176D01*
X110875000Y-104559241D01*
X110777624Y-104494176D01*
X110571067Y-104408617D01*
X110351788Y-104365000D01*
X110128212Y-104365000D01*
X109908933Y-104408617D01*
X109702376Y-104494176D01*
X109605000Y-104559241D01*
X109507624Y-104494176D01*
X109301067Y-104408617D01*
X109081788Y-104365000D01*
X108858212Y-104365000D01*
X108638933Y-104408617D01*
X108432376Y-104494176D01*
X108335000Y-104559241D01*
X108237624Y-104494176D01*
X108031067Y-104408617D01*
X107811788Y-104365000D01*
X107588212Y-104365000D01*
X107368933Y-104408617D01*
X107162376Y-104494176D01*
X107065000Y-104559241D01*
X106967624Y-104494176D01*
X106761067Y-104408617D01*
X106541788Y-104365000D01*
X106318212Y-104365000D01*
X106098933Y-104408617D01*
X105892376Y-104494176D01*
X105795000Y-104559241D01*
X105697624Y-104494176D01*
X105491067Y-104408617D01*
X105271788Y-104365000D01*
X105048212Y-104365000D01*
X104828933Y-104408617D01*
X104622376Y-104494176D01*
X104525000Y-104559241D01*
X104427624Y-104494176D01*
X104221067Y-104408617D01*
X104001788Y-104365000D01*
X103778212Y-104365000D01*
X103558933Y-104408617D01*
X103352376Y-104494176D01*
X103255000Y-104559241D01*
X103157624Y-104494176D01*
X102951067Y-104408617D01*
X102731788Y-104365000D01*
X102508212Y-104365000D01*
X102288933Y-104408617D01*
X102082376Y-104494176D01*
X101985000Y-104559241D01*
X101887624Y-104494176D01*
X101681067Y-104408617D01*
X101461788Y-104365000D01*
X101238212Y-104365000D01*
X101018933Y-104408617D01*
X100812376Y-104494176D01*
X100715000Y-104559241D01*
X100617624Y-104494176D01*
X100411067Y-104408617D01*
X100191788Y-104365000D01*
X99968212Y-104365000D01*
X99748933Y-104408617D01*
X99542376Y-104494176D01*
X99445000Y-104559241D01*
X99347624Y-104494176D01*
X99141067Y-104408617D01*
X98921788Y-104365000D01*
X98698212Y-104365000D01*
X98478933Y-104408617D01*
X98272376Y-104494176D01*
X98175000Y-104559241D01*
X98077624Y-104494176D01*
X97871067Y-104408617D01*
X97651788Y-104365000D01*
X97428212Y-104365000D01*
X97208933Y-104408617D01*
X97002376Y-104494176D01*
X96905000Y-104559241D01*
X96807624Y-104494176D01*
X96601067Y-104408617D01*
X96381788Y-104365000D01*
X96158212Y-104365000D01*
X95938933Y-104408617D01*
X95732376Y-104494176D01*
X95635000Y-104559241D01*
X95537624Y-104494176D01*
X95331067Y-104408617D01*
X95111788Y-104365000D01*
X94888212Y-104365000D01*
X94668933Y-104408617D01*
X94557226Y-104454888D01*
X94474180Y-104410498D01*
X94354482Y-104374188D01*
X94230000Y-104361928D01*
X93230000Y-104361928D01*
X93105518Y-104374188D01*
X92985820Y-104410498D01*
X92875506Y-104469463D01*
X92778815Y-104548815D01*
X92699463Y-104645506D01*
X92640498Y-104755820D01*
X92604188Y-104875518D01*
X92591928Y-105000000D01*
X91497753Y-105000000D01*
X91497753Y-104852484D01*
X91440195Y-104563122D01*
X91327292Y-104290548D01*
X91163381Y-104045238D01*
X90954762Y-103836619D01*
X90709452Y-103672708D01*
X90436878Y-103559805D01*
X90147516Y-103502247D01*
X89852484Y-103502247D01*
X89563122Y-103559805D01*
X89290548Y-103672708D01*
X89045238Y-103836619D01*
X88836619Y-104045238D01*
X88672708Y-104290548D01*
X88559805Y-104563122D01*
X88502247Y-104852484D01*
X88185000Y-104852484D01*
X88185000Y-102783646D01*
X100789265Y-102783646D01*
X100789265Y-102967824D01*
X100825197Y-103148464D01*
X100895679Y-103318624D01*
X100998003Y-103471763D01*
X101128237Y-103601997D01*
X101281376Y-103704321D01*
X101451536Y-103774803D01*
X101632176Y-103810735D01*
X101816354Y-103810735D01*
X101996994Y-103774803D01*
X102167154Y-103704321D01*
X102320293Y-103601997D01*
X102450527Y-103471763D01*
X102552851Y-103318624D01*
X102623333Y-103148464D01*
X102659265Y-102967824D01*
X102659265Y-102783646D01*
X102623333Y-102603006D01*
X102552851Y-102432846D01*
X102450527Y-102279707D01*
X102320293Y-102149473D01*
X102167154Y-102047149D01*
X101996994Y-101976667D01*
X101816354Y-101940735D01*
X101632176Y-101940735D01*
X101451536Y-101976667D01*
X101281376Y-102047149D01*
X101128237Y-102149473D01*
X100998003Y-102279707D01*
X100895679Y-102432846D01*
X100825197Y-102603006D01*
X100789265Y-102783646D01*
X88185000Y-102783646D01*
X88185000Y-97000000D01*
X88361928Y-97000000D01*
X88361928Y-98000000D01*
X88374188Y-98124482D01*
X88410498Y-98244180D01*
X88454888Y-98327226D01*
X88408617Y-98438933D01*
X88365000Y-98658212D01*
X88365000Y-98881788D01*
X88408617Y-99101067D01*
X88494176Y-99307624D01*
X88618388Y-99493520D01*
X88776480Y-99651612D01*
X88962376Y-99775824D01*
X89168933Y-99861383D01*
X89388212Y-99905000D01*
X89611788Y-99905000D01*
X89640764Y-99899236D01*
X89635000Y-99928212D01*
X89635000Y-100151788D01*
X89678617Y-100371067D01*
X89764176Y-100577624D01*
X89888388Y-100763520D01*
X90046480Y-100921612D01*
X90232376Y-101045824D01*
X90438933Y-101131383D01*
X90658212Y-101175000D01*
X90881788Y-101175000D01*
X91101067Y-101131383D01*
X91307624Y-101045824D01*
X91493520Y-100921612D01*
X91651612Y-100763520D01*
X91775824Y-100577624D01*
X91861383Y-100371067D01*
X91905000Y-100151788D01*
X91905000Y-99928212D01*
X91861383Y-99708933D01*
X91775824Y-99502376D01*
X91712705Y-99407911D01*
X94065000Y-99407911D01*
X94065000Y-99592089D01*
X94100932Y-99772729D01*
X94171414Y-99942889D01*
X94273738Y-100096028D01*
X94403972Y-100226262D01*
X94557111Y-100328586D01*
X94727271Y-100399068D01*
X94907911Y-100435000D01*
X95092089Y-100435000D01*
X95272729Y-100399068D01*
X95442889Y-100328586D01*
X95596028Y-100226262D01*
X95726262Y-100096028D01*
X95828586Y-99942889D01*
X95899068Y-99772729D01*
X95935000Y-99592089D01*
X95935000Y-99407911D01*
X95899068Y-99227271D01*
X95828586Y-99057111D01*
X95726262Y-98903972D01*
X95596028Y-98773738D01*
X95442889Y-98671414D01*
X95272729Y-98600932D01*
X95092089Y-98565000D01*
X94907911Y-98565000D01*
X94727271Y-98600932D01*
X94557111Y-98671414D01*
X94403972Y-98773738D01*
X94273738Y-98903972D01*
X94171414Y-99057111D01*
X94100932Y-99227271D01*
X94065000Y-99407911D01*
X91712705Y-99407911D01*
X91710759Y-99405000D01*
X91775824Y-99307624D01*
X91861383Y-99101067D01*
X91905000Y-98881788D01*
X91905000Y-98658212D01*
X91861383Y-98438933D01*
X91775824Y-98232376D01*
X91710759Y-98135000D01*
X91775824Y-98037624D01*
X91861383Y-97831067D01*
X91905000Y-97611788D01*
X91905000Y-97388212D01*
X91861383Y-97168933D01*
X91775824Y-96962376D01*
X91651612Y-96776480D01*
X91493520Y-96618388D01*
X91307624Y-96494176D01*
X91101067Y-96408617D01*
X90881788Y-96365000D01*
X90658212Y-96365000D01*
X90438933Y-96408617D01*
X90327226Y-96454888D01*
X90244180Y-96410498D01*
X90124482Y-96374188D01*
X90000000Y-96361928D01*
X89000000Y-96361928D01*
X88875518Y-96374188D01*
X88755820Y-96410498D01*
X88645506Y-96469463D01*
X88548815Y-96548815D01*
X88469463Y-96645506D01*
X88410498Y-96755820D01*
X88374188Y-96875518D01*
X88361928Y-97000000D01*
X88185000Y-97000000D01*
X88185000Y-94907911D01*
X94065000Y-94907911D01*
X94065000Y-95092089D01*
X94100932Y-95272729D01*
X94171414Y-95442889D01*
X94273738Y-95596028D01*
X94403972Y-95726262D01*
X94557111Y-95828586D01*
X94727271Y-95899068D01*
X94907911Y-95935000D01*
X95092089Y-95935000D01*
X95272729Y-95899068D01*
X95442889Y-95828586D01*
X95596028Y-95726262D01*
X95726262Y-95596028D01*
X95828586Y-95442889D01*
X95899068Y-95272729D01*
X95935000Y-95092089D01*
X95935000Y-94907911D01*
X95899068Y-94727271D01*
X95828586Y-94557111D01*
X95726262Y-94403972D01*
X95596028Y-94273738D01*
X95442889Y-94171414D01*
X95272729Y-94100932D01*
X95092089Y-94065000D01*
X94907911Y-94065000D01*
X94727271Y-94100932D01*
X94557111Y-94171414D01*
X94403972Y-94273738D01*
X94273738Y-94403972D01*
X94171414Y-94557111D01*
X94100932Y-94727271D01*
X94065000Y-94907911D01*
X88185000Y-94907911D01*
X88185000Y-93907911D01*
X108565000Y-93907911D01*
X108565000Y-94092089D01*
X108600932Y-94272729D01*
X108671414Y-94442889D01*
X108773738Y-94596028D01*
X108903972Y-94726262D01*
X109057111Y-94828586D01*
X109227271Y-94899068D01*
X109407911Y-94935000D01*
X109592089Y-94935000D01*
X109772729Y-94899068D01*
X109942889Y-94828586D01*
X110096028Y-94726262D01*
X110226262Y-94596028D01*
X110328586Y-94442889D01*
X110399068Y-94272729D01*
X110435000Y-94092089D01*
X110435000Y-93907911D01*
X110399068Y-93727271D01*
X110328586Y-93557111D01*
X110226262Y-93403972D01*
X110096028Y-93273738D01*
X109942889Y-93171414D01*
X109772729Y-93100932D01*
X109592089Y-93065000D01*
X109407911Y-93065000D01*
X109227271Y-93100932D01*
X109057111Y-93171414D01*
X108903972Y-93273738D01*
X108773738Y-93403972D01*
X108671414Y-93557111D01*
X108600932Y-93727271D01*
X108565000Y-93907911D01*
X88185000Y-93907911D01*
X88185000Y-88582176D01*
X88739265Y-88582176D01*
X88739265Y-88766354D01*
X88775197Y-88946994D01*
X88845679Y-89117154D01*
X88948003Y-89270293D01*
X89078237Y-89400527D01*
X89231376Y-89502851D01*
X89401536Y-89573333D01*
X89582176Y-89609265D01*
X89766354Y-89609265D01*
X89946994Y-89573333D01*
X90117154Y-89502851D01*
X90259242Y-89407911D01*
X90565000Y-89407911D01*
X90565000Y-89592089D01*
X90600932Y-89772729D01*
X90671414Y-89942889D01*
X90773738Y-90096028D01*
X90903972Y-90226262D01*
X91057111Y-90328586D01*
X91227271Y-90399068D01*
X91407911Y-90435000D01*
X91592089Y-90435000D01*
X91772729Y-90399068D01*
X91942889Y-90328586D01*
X92096028Y-90226262D01*
X92226262Y-90096028D01*
X92328586Y-89942889D01*
X92399068Y-89772729D01*
X92435000Y-89592089D01*
X92435000Y-89407911D01*
X92399068Y-89227271D01*
X92349629Y-89107912D01*
X94364999Y-89107912D01*
X94364999Y-89292090D01*
X94400931Y-89472730D01*
X94471413Y-89642890D01*
X94573737Y-89796029D01*
X94703971Y-89926263D01*
X94857110Y-90028587D01*
X95027270Y-90099069D01*
X95207910Y-90135001D01*
X95392088Y-90135001D01*
X95572728Y-90099069D01*
X95742888Y-90028587D01*
X95896027Y-89926263D01*
X96026261Y-89796029D01*
X96128585Y-89642890D01*
X96199067Y-89472730D01*
X96234999Y-89292090D01*
X96234999Y-89107912D01*
X96199067Y-88927272D01*
X96128585Y-88757112D01*
X96026261Y-88603973D01*
X95896027Y-88473739D01*
X95742888Y-88371415D01*
X95572728Y-88300933D01*
X95392088Y-88265001D01*
X95207910Y-88265001D01*
X95027270Y-88300933D01*
X94857110Y-88371415D01*
X94703971Y-88473739D01*
X94573737Y-88603973D01*
X94471413Y-88757112D01*
X94400931Y-88927272D01*
X94364999Y-89107912D01*
X92349629Y-89107912D01*
X92328586Y-89057111D01*
X92226262Y-88903972D01*
X92096028Y-88773738D01*
X91942889Y-88671414D01*
X91772729Y-88600932D01*
X91592089Y-88565000D01*
X91407911Y-88565000D01*
X91227271Y-88600932D01*
X91057111Y-88671414D01*
X90903972Y-88773738D01*
X90773738Y-88903972D01*
X90671414Y-89057111D01*
X90600932Y-89227271D01*
X90565000Y-89407911D01*
X90259242Y-89407911D01*
X90270293Y-89400527D01*
X90400527Y-89270293D01*
X90502851Y-89117154D01*
X90573333Y-88946994D01*
X90609265Y-88766354D01*
X90609265Y-88582176D01*
X90573333Y-88401536D01*
X90502851Y-88231376D01*
X90400527Y-88078237D01*
X90270293Y-87948003D01*
X90210291Y-87907911D01*
X108565000Y-87907911D01*
X108565000Y-88092089D01*
X108600932Y-88272729D01*
X108671414Y-88442889D01*
X108773738Y-88596028D01*
X108903972Y-88726262D01*
X109057111Y-88828586D01*
X109227271Y-88899068D01*
X109407911Y-88935000D01*
X109592089Y-88935000D01*
X109772729Y-88899068D01*
X109942889Y-88828586D01*
X110096028Y-88726262D01*
X110164078Y-88658212D01*
X114365000Y-88658212D01*
X114365000Y-88881788D01*
X114408617Y-89101067D01*
X114494176Y-89307624D01*
X114559241Y-89405000D01*
X114494176Y-89502376D01*
X114408617Y-89708933D01*
X114365000Y-89928212D01*
X114365000Y-90151788D01*
X114408617Y-90371067D01*
X114494176Y-90577624D01*
X114559241Y-90675000D01*
X114494176Y-90772376D01*
X114408617Y-90978933D01*
X114365000Y-91198212D01*
X114365000Y-91421788D01*
X114408617Y-91641067D01*
X114494176Y-91847624D01*
X114559241Y-91945000D01*
X114494176Y-92042376D01*
X114408617Y-92248933D01*
X114365000Y-92468212D01*
X114365000Y-92691788D01*
X114408617Y-92911067D01*
X114494176Y-93117624D01*
X114559241Y-93215000D01*
X114494176Y-93312376D01*
X114408617Y-93518933D01*
X114365000Y-93738212D01*
X114365000Y-93961788D01*
X114408617Y-94181067D01*
X114494176Y-94387624D01*
X114559241Y-94485000D01*
X114494176Y-94582376D01*
X114408617Y-94788933D01*
X114365000Y-95008212D01*
X114365000Y-95231788D01*
X114408617Y-95451067D01*
X114494176Y-95657624D01*
X114559241Y-95755000D01*
X114494176Y-95852376D01*
X114408617Y-96058933D01*
X114365000Y-96278212D01*
X114365000Y-96501788D01*
X114408617Y-96721067D01*
X114494176Y-96927624D01*
X114559241Y-97025000D01*
X114494176Y-97122376D01*
X114408617Y-97328933D01*
X114365000Y-97548212D01*
X114365000Y-97771788D01*
X114408617Y-97991067D01*
X114494176Y-98197624D01*
X114559241Y-98295000D01*
X114494176Y-98392376D01*
X114408617Y-98598933D01*
X114365000Y-98818212D01*
X114365000Y-99041788D01*
X114408617Y-99261067D01*
X114494176Y-99467624D01*
X114559241Y-99565000D01*
X114494176Y-99662376D01*
X114408617Y-99868933D01*
X114365000Y-100088212D01*
X114365000Y-100311788D01*
X114408617Y-100531067D01*
X114494176Y-100737624D01*
X114559241Y-100835000D01*
X114494176Y-100932376D01*
X114408617Y-101138933D01*
X114365000Y-101358212D01*
X114365000Y-101581788D01*
X114408617Y-101801067D01*
X114494176Y-102007624D01*
X114618388Y-102193520D01*
X114776480Y-102351612D01*
X114962376Y-102475824D01*
X115168933Y-102561383D01*
X115388212Y-102605000D01*
X115611788Y-102605000D01*
X115831067Y-102561383D01*
X116037624Y-102475824D01*
X116223520Y-102351612D01*
X116381612Y-102193520D01*
X116505824Y-102007624D01*
X116591383Y-101801067D01*
X116635000Y-101581788D01*
X116635000Y-101358212D01*
X116591383Y-101138933D01*
X116505824Y-100932376D01*
X116440759Y-100835000D01*
X116505824Y-100737624D01*
X116591383Y-100531067D01*
X116635000Y-100311788D01*
X116635000Y-100088212D01*
X116591383Y-99868933D01*
X116505824Y-99662376D01*
X116440759Y-99565000D01*
X116505824Y-99467624D01*
X116591383Y-99261067D01*
X116635000Y-99041788D01*
X116635000Y-98818212D01*
X116591383Y-98598933D01*
X116505824Y-98392376D01*
X116440759Y-98295000D01*
X116505824Y-98197624D01*
X116591383Y-97991067D01*
X116635000Y-97771788D01*
X116635000Y-97548212D01*
X116591383Y-97328933D01*
X116505824Y-97122376D01*
X116440759Y-97025000D01*
X116505824Y-96927624D01*
X116591383Y-96721067D01*
X116635000Y-96501788D01*
X116635000Y-96278212D01*
X116591383Y-96058933D01*
X116505824Y-95852376D01*
X116440759Y-95755000D01*
X116505824Y-95657624D01*
X116591383Y-95451067D01*
X116635000Y-95231788D01*
X116635000Y-95008212D01*
X116591383Y-94788933D01*
X116505824Y-94582376D01*
X116440759Y-94485000D01*
X116505824Y-94387624D01*
X116591383Y-94181067D01*
X116635000Y-93961788D01*
X116635000Y-93738212D01*
X116591383Y-93518933D01*
X116505824Y-93312376D01*
X116440759Y-93215000D01*
X116505824Y-93117624D01*
X116591383Y-92911067D01*
X116635000Y-92691788D01*
X116635000Y-92468212D01*
X116591383Y-92248933D01*
X116505824Y-92042376D01*
X116440759Y-91945000D01*
X116505824Y-91847624D01*
X116591383Y-91641067D01*
X116635000Y-91421788D01*
X116635000Y-91198212D01*
X116591383Y-90978933D01*
X116505824Y-90772376D01*
X116440759Y-90675000D01*
X116505824Y-90577624D01*
X116591383Y-90371067D01*
X116635000Y-90151788D01*
X116635000Y-89928212D01*
X116591383Y-89708933D01*
X116505824Y-89502376D01*
X116440759Y-89405000D01*
X116505824Y-89307624D01*
X116591383Y-89101067D01*
X116635000Y-88881788D01*
X116635000Y-88658212D01*
X116591383Y-88438933D01*
X116505824Y-88232376D01*
X116381612Y-88046480D01*
X116223520Y-87888388D01*
X116037624Y-87764176D01*
X115831067Y-87678617D01*
X115611788Y-87635000D01*
X115388212Y-87635000D01*
X115168933Y-87678617D01*
X114962376Y-87764176D01*
X114776480Y-87888388D01*
X114618388Y-88046480D01*
X114494176Y-88232376D01*
X114408617Y-88438933D01*
X114365000Y-88658212D01*
X110164078Y-88658212D01*
X110226262Y-88596028D01*
X110328586Y-88442889D01*
X110399068Y-88272729D01*
X110435000Y-88092089D01*
X110435000Y-87907911D01*
X110399068Y-87727271D01*
X110328586Y-87557111D01*
X110226262Y-87403972D01*
X110096028Y-87273738D01*
X109942889Y-87171414D01*
X109772729Y-87100932D01*
X109592089Y-87065000D01*
X109407911Y-87065000D01*
X109227271Y-87100932D01*
X109057111Y-87171414D01*
X108903972Y-87273738D01*
X108773738Y-87403972D01*
X108671414Y-87557111D01*
X108600932Y-87727271D01*
X108565000Y-87907911D01*
X90210291Y-87907911D01*
X90117154Y-87845679D01*
X89946994Y-87775197D01*
X89766354Y-87739265D01*
X89582176Y-87739265D01*
X89401536Y-87775197D01*
X89231376Y-87845679D01*
X89078237Y-87948003D01*
X88948003Y-88078237D01*
X88845679Y-88231376D01*
X88775197Y-88401536D01*
X88739265Y-88582176D01*
X88185000Y-88582176D01*
X88185000Y-79852484D01*
X88502247Y-79852484D01*
X88502247Y-80147516D01*
X88559805Y-80436878D01*
X88672708Y-80709452D01*
X88836619Y-80954762D01*
X89045238Y-81163381D01*
X89290548Y-81327292D01*
X89563122Y-81440195D01*
X89852484Y-81497753D01*
X90147516Y-81497753D01*
X90436878Y-81440195D01*
X90709452Y-81327292D01*
X90738472Y-81307901D01*
X91065000Y-81307901D01*
X91065000Y-81492079D01*
X91100932Y-81672719D01*
X91171414Y-81842879D01*
X91273738Y-81996018D01*
X91403972Y-82126252D01*
X91557111Y-82228576D01*
X91727271Y-82299058D01*
X91907911Y-82334990D01*
X92092089Y-82334990D01*
X92272729Y-82299058D01*
X92442889Y-82228576D01*
X92574640Y-82140543D01*
X92600932Y-82272719D01*
X92671414Y-82442879D01*
X92773738Y-82596018D01*
X92903972Y-82726252D01*
X93057111Y-82828576D01*
X93227271Y-82899058D01*
X93407911Y-82934990D01*
X93565000Y-82934990D01*
X93565000Y-83092089D01*
X93600932Y-83272729D01*
X93671414Y-83442889D01*
X93773738Y-83596028D01*
X93903972Y-83726262D01*
X94057111Y-83828586D01*
X94227271Y-83899068D01*
X94407911Y-83935000D01*
X94592089Y-83935000D01*
X94772729Y-83899068D01*
X94942889Y-83828586D01*
X94973832Y-83807910D01*
X111964999Y-83807910D01*
X111964999Y-83992088D01*
X112000931Y-84172728D01*
X112071413Y-84342888D01*
X112173737Y-84496027D01*
X112303971Y-84626261D01*
X112457110Y-84728585D01*
X112627270Y-84799067D01*
X112807910Y-84834999D01*
X112992088Y-84834999D01*
X113172728Y-84799067D01*
X113342888Y-84728585D01*
X113496027Y-84626261D01*
X113626261Y-84496027D01*
X113728585Y-84342888D01*
X113799067Y-84172728D01*
X113834999Y-83992088D01*
X113834999Y-83807910D01*
X113799067Y-83627270D01*
X113728585Y-83457110D01*
X113626261Y-83303971D01*
X113496027Y-83173737D01*
X113342888Y-83071413D01*
X113172728Y-83000931D01*
X112992088Y-82964999D01*
X112807910Y-82964999D01*
X112627270Y-83000931D01*
X112457110Y-83071413D01*
X112303971Y-83173737D01*
X112173737Y-83303971D01*
X112071413Y-83457110D01*
X112000931Y-83627270D01*
X111964999Y-83807910D01*
X94973832Y-83807910D01*
X95096028Y-83726262D01*
X95226262Y-83596028D01*
X95328586Y-83442889D01*
X95399068Y-83272729D01*
X95435000Y-83092089D01*
X95435000Y-82907911D01*
X95399068Y-82727271D01*
X95328586Y-82557111D01*
X95295712Y-82507911D01*
X98565000Y-82507911D01*
X98565000Y-82692089D01*
X98600932Y-82872729D01*
X98671414Y-83042889D01*
X98773738Y-83196028D01*
X98903972Y-83326262D01*
X99057111Y-83428586D01*
X99227271Y-83499068D01*
X99407911Y-83535000D01*
X99592089Y-83535000D01*
X99772729Y-83499068D01*
X99942889Y-83428586D01*
X100096028Y-83326262D01*
X100226262Y-83196028D01*
X100328586Y-83042889D01*
X100399068Y-82872729D01*
X100435000Y-82692089D01*
X100435000Y-82507911D01*
X100399068Y-82327271D01*
X100328586Y-82157111D01*
X100226262Y-82003972D01*
X100130201Y-81907911D01*
X102215000Y-81907911D01*
X102215000Y-82092089D01*
X102250932Y-82272729D01*
X102321414Y-82442889D01*
X102423738Y-82596028D01*
X102553972Y-82726262D01*
X102707111Y-82828586D01*
X102877271Y-82899068D01*
X103057911Y-82935000D01*
X103242089Y-82935000D01*
X103422729Y-82899068D01*
X103592889Y-82828586D01*
X103746028Y-82726262D01*
X103876262Y-82596028D01*
X103978586Y-82442889D01*
X104049068Y-82272729D01*
X104085000Y-82092089D01*
X104085000Y-81907911D01*
X104049068Y-81727271D01*
X103978586Y-81557111D01*
X103876262Y-81403972D01*
X103746028Y-81273738D01*
X103592889Y-81171414D01*
X103422729Y-81100932D01*
X103242089Y-81065000D01*
X103057911Y-81065000D01*
X102877271Y-81100932D01*
X102707111Y-81171414D01*
X102553972Y-81273738D01*
X102423738Y-81403972D01*
X102321414Y-81557111D01*
X102250932Y-81727271D01*
X102215000Y-81907911D01*
X100130201Y-81907911D01*
X100096028Y-81873738D01*
X99942889Y-81771414D01*
X99772729Y-81700932D01*
X99592089Y-81665000D01*
X99407911Y-81665000D01*
X99227271Y-81700932D01*
X99057111Y-81771414D01*
X98903972Y-81873738D01*
X98773738Y-82003972D01*
X98671414Y-82157111D01*
X98600932Y-82327271D01*
X98565000Y-82507911D01*
X95295712Y-82507911D01*
X95226262Y-82403972D01*
X95096028Y-82273738D01*
X94942889Y-82171414D01*
X94772729Y-82100932D01*
X94592089Y-82065000D01*
X94435000Y-82065000D01*
X94435000Y-81907901D01*
X94399068Y-81727261D01*
X94328586Y-81557101D01*
X94226262Y-81403962D01*
X94096028Y-81273728D01*
X93942889Y-81171404D01*
X93772729Y-81100922D01*
X93592089Y-81064990D01*
X93407911Y-81064990D01*
X93227271Y-81100922D01*
X93057111Y-81171404D01*
X92925360Y-81259437D01*
X92899068Y-81127261D01*
X92828586Y-80957101D01*
X92726262Y-80803962D01*
X92596028Y-80673728D01*
X92442889Y-80571404D01*
X92272729Y-80500922D01*
X92092089Y-80464990D01*
X91907911Y-80464990D01*
X91727271Y-80500922D01*
X91557111Y-80571404D01*
X91403972Y-80673728D01*
X91273738Y-80803962D01*
X91171414Y-80957101D01*
X91100932Y-81127261D01*
X91065000Y-81307901D01*
X90738472Y-81307901D01*
X90954762Y-81163381D01*
X91163381Y-80954762D01*
X91327292Y-80709452D01*
X91440195Y-80436878D01*
X91497753Y-80147516D01*
X91497753Y-79852484D01*
X91440195Y-79563122D01*
X91375905Y-79407911D01*
X93065000Y-79407911D01*
X93065000Y-79592089D01*
X93100932Y-79772729D01*
X93171414Y-79942889D01*
X93273738Y-80096028D01*
X93403972Y-80226262D01*
X93557111Y-80328586D01*
X93727271Y-80399068D01*
X93907911Y-80435000D01*
X94092089Y-80435000D01*
X94272729Y-80399068D01*
X94442889Y-80328586D01*
X94596028Y-80226262D01*
X94726262Y-80096028D01*
X94828586Y-79942889D01*
X94866032Y-79852484D01*
X113502247Y-79852484D01*
X113502247Y-80147516D01*
X113559805Y-80436878D01*
X113672708Y-80709452D01*
X113836619Y-80954762D01*
X114045238Y-81163381D01*
X114290548Y-81327292D01*
X114563122Y-81440195D01*
X114852484Y-81497753D01*
X115147516Y-81497753D01*
X115436878Y-81440195D01*
X115709452Y-81327292D01*
X115954762Y-81163381D01*
X116163381Y-80954762D01*
X116327292Y-80709452D01*
X116440195Y-80436878D01*
X116497753Y-80147516D01*
X116497753Y-79852484D01*
X116440195Y-79563122D01*
X116327292Y-79290548D01*
X116163381Y-79045238D01*
X115954762Y-78836619D01*
X115709452Y-78672708D01*
X115436878Y-78559805D01*
X115147516Y-78502247D01*
X114852484Y-78502247D01*
X114563122Y-78559805D01*
X114290548Y-78672708D01*
X114045238Y-78836619D01*
X113836619Y-79045238D01*
X113672708Y-79290548D01*
X113559805Y-79563122D01*
X113502247Y-79852484D01*
X94866032Y-79852484D01*
X94899068Y-79772729D01*
X94935000Y-79592089D01*
X94935000Y-79407911D01*
X94899068Y-79227271D01*
X94828586Y-79057111D01*
X94726262Y-78903972D01*
X94596028Y-78773738D01*
X94442889Y-78671414D01*
X94272729Y-78600932D01*
X94092089Y-78565000D01*
X93907911Y-78565000D01*
X93727271Y-78600932D01*
X93557111Y-78671414D01*
X93403972Y-78773738D01*
X93273738Y-78903972D01*
X93171414Y-79057111D01*
X93100932Y-79227271D01*
X93065000Y-79407911D01*
X91375905Y-79407911D01*
X91327292Y-79290548D01*
X91163381Y-79045238D01*
X90954762Y-78836619D01*
X90709452Y-78672708D01*
X90436878Y-78559805D01*
X90147516Y-78502247D01*
X89852484Y-78502247D01*
X89563122Y-78559805D01*
X89290548Y-78672708D01*
X89045238Y-78836619D01*
X88836619Y-79045238D01*
X88672708Y-79290548D01*
X88559805Y-79563122D01*
X88502247Y-79852484D01*
X88185000Y-79852484D01*
X88185000Y-78185000D01*
X116815000Y-78185000D01*
X116815001Y-106815000D01*
%TD*%
M02*
