M48
; DRILL file {KiCad (5.1.6)-1} date 01/19/21 17:49:47
; FORMAT={-:-/ absolute / inch / decimal}
; #@! TF.CreationDate,2021-01-19T17:49:47-08:00
; #@! TF.GenerationSoftware,Kicad,Pcbnew,(5.1.6)-1
FMAT,2
INCH
T1C0.0112
T2C0.0118
T3C0.0256
%
G90
G05
T1
X3.876Y-3.5128
X3.876Y-3.5576
X3.876Y-3.6024
X3.876Y-3.6471
X3.876Y-3.6919
X3.876Y-3.7367
X3.876Y-3.7815
X3.876Y-3.8263
X3.9208Y-3.5128
X3.9208Y-3.5576
X3.9208Y-3.6024
X3.9208Y-3.6471
X3.9208Y-3.6919
X3.9208Y-3.7367
X3.9208Y-3.7815
X3.9208Y-3.8263
X3.9656Y-3.5128
X3.9656Y-3.5576
X3.9656Y-3.6024
X3.9656Y-3.6471
X3.9656Y-3.6919
X3.9656Y-3.7367
X3.9656Y-3.7815
X3.9656Y-3.8263
X4.0103Y-3.5128
X4.0103Y-3.5576
X4.0103Y-3.6024
X4.0103Y-3.6471
X4.0103Y-3.6919
X4.0103Y-3.7367
X4.0103Y-3.7815
X4.0103Y-3.8263
X4.0551Y-3.5128
X4.0551Y-3.5576
X4.0551Y-3.6024
X4.0551Y-3.6471
X4.0551Y-3.6919
X4.0551Y-3.7367
X4.0551Y-3.7815
X4.0551Y-3.8263
X4.0999Y-3.5128
X4.0999Y-3.5576
X4.0999Y-3.6024
X4.0999Y-3.6471
X4.0999Y-3.6919
X4.0999Y-3.7367
X4.0999Y-3.7815
X4.0999Y-3.8263
X4.1447Y-3.5128
X4.1447Y-3.5576
X4.1447Y-3.6024
X4.1447Y-3.6471
X4.1447Y-3.6919
X4.1447Y-3.7367
X4.1447Y-3.7815
X4.1447Y-3.8263
X4.1895Y-3.5128
X4.1895Y-3.5576
X4.1895Y-3.6024
X4.1895Y-3.6471
X4.1895Y-3.6919
X4.1895Y-3.7367
X4.1895Y-3.7815
X4.1895Y-3.8263
T2
X3.5039Y-3.7598
X3.5236Y-3.4646
X3.622Y-3.3071
X3.6614Y-3.6614
X3.7008Y-3.563
X3.7008Y-3.7402
X3.7205Y-3.4449
X3.7402Y-3.5236
X3.7402Y-3.7008
X3.7402Y-3.9567
X3.7795Y-3.189
X3.7795Y-3.3465
X3.8386Y-3.9764
X3.9173Y-3.252
X4.0157Y-4.0551
X4.061Y-3.2283
X4.1535Y-3.9961
X4.2126Y-3.2283
X4.311Y-3.4646
X4.311Y-3.7008
X4.3307Y-3.7876
X4.3386Y-3.5827
X4.3504Y-3.7402
X4.4094Y-3.6614
X4.4449Y-3.3031
T3
X4.5472Y-3.4449
X4.5472Y-3.4949
X4.5472Y-3.5449
X4.5472Y-3.5949
X4.5472Y-3.6449
X4.5472Y-3.6949
X4.5472Y-3.7449
X4.5472Y-3.7949
X4.5472Y-3.8449
X4.5472Y-3.8949
X4.5472Y-3.9449
X4.5472Y-3.9949
X3.7004Y-4.1535
X3.7504Y-4.1535
X3.8004Y-4.1535
X3.8504Y-4.1535
X3.9004Y-4.1535
X3.9504Y-4.1535
X4.0004Y-4.1535
X4.0504Y-4.1535
X4.1004Y-4.1535
X4.1504Y-4.1535
X4.2004Y-4.1535
X4.2504Y-4.1535
X4.3004Y-4.1535
X4.3504Y-4.1535
T0
M30
