%TF.GenerationSoftware,KiCad,Pcbnew,(5.1.6)-1*%
%TF.CreationDate,2021-01-23T06:31:54-08:00*%
%TF.ProjectId,scum3c-devboard,7363756d-3363-42d6-9465-76626f617264,rev?*%
%TF.SameCoordinates,Original*%
%TF.FileFunction,Copper,L1,Top*%
%TF.FilePolarity,Positive*%
%FSLAX46Y46*%
G04 Gerber Fmt 4.6, Leading zero omitted, Abs format (unit mm)*
G04 Created by KiCad (PCBNEW (5.1.6)-1) date 2021-01-23 06:31:54*
%MOMM*%
%LPD*%
G01*
G04 APERTURE LIST*
%TA.AperFunction,ComponentPad*%
%ADD10O,1.000000X1.000000*%
%TD*%
%TA.AperFunction,ComponentPad*%
%ADD11R,1.000000X1.000000*%
%TD*%
%TA.AperFunction,ComponentPad*%
%ADD12C,0.568750*%
%TD*%
%TA.AperFunction,SMDPad,CuDef*%
%ADD13R,1.137500X1.137500*%
%TD*%
%TA.AperFunction,SMDPad,CuDef*%
%ADD14O,0.200000X0.800000*%
%TD*%
%TA.AperFunction,SMDPad,CuDef*%
%ADD15O,0.800000X0.200000*%
%TD*%
%TA.AperFunction,SMDPad,CuDef*%
%ADD16R,0.900000X1.200000*%
%TD*%
%TA.AperFunction,SMDPad,CuDef*%
%ADD17R,1.350000X3.500000*%
%TD*%
%TA.AperFunction,SMDPad,CuDef*%
%ADD18R,3.170000X3.170000*%
%TD*%
%TA.AperFunction,ViaPad*%
%ADD19C,0.600000*%
%TD*%
%TA.AperFunction,Conductor*%
%ADD20C,0.200000*%
%TD*%
G04 APERTURE END LIST*
%TO.P,C25,1*%
%TO.N,Net-(C25-Pad1)*%
%TA.AperFunction,SMDPad,CuDef*%
G36*
G01*
X90235000Y-92672500D02*
X90235000Y-92327500D01*
G75*
G02*
X90382500Y-92180000I147500J0D01*
G01*
X90677500Y-92180000D01*
G75*
G02*
X90825000Y-92327500I0J-147500D01*
G01*
X90825000Y-92672500D01*
G75*
G02*
X90677500Y-92820000I-147500J0D01*
G01*
X90382500Y-92820000D01*
G75*
G02*
X90235000Y-92672500I0J147500D01*
G01*
G37*
%TD.AperFunction*%
%TO.P,C25,2*%
%TO.N,GND*%
%TA.AperFunction,SMDPad,CuDef*%
G36*
G01*
X91205000Y-92672500D02*
X91205000Y-92327500D01*
G75*
G02*
X91352500Y-92180000I147500J0D01*
G01*
X91647500Y-92180000D01*
G75*
G02*
X91795000Y-92327500I0J-147500D01*
G01*
X91795000Y-92672500D01*
G75*
G02*
X91647500Y-92820000I-147500J0D01*
G01*
X91352500Y-92820000D01*
G75*
G02*
X91205000Y-92672500I0J147500D01*
G01*
G37*
%TD.AperFunction*%
%TD*%
%TO.P,C26,1*%
%TO.N,/IMU_VDD*%
%TA.AperFunction,SMDPad,CuDef*%
G36*
G01*
X91795000Y-90327500D02*
X91795000Y-90672500D01*
G75*
G02*
X91647500Y-90820000I-147500J0D01*
G01*
X91352500Y-90820000D01*
G75*
G02*
X91205000Y-90672500I0J147500D01*
G01*
X91205000Y-90327500D01*
G75*
G02*
X91352500Y-90180000I147500J0D01*
G01*
X91647500Y-90180000D01*
G75*
G02*
X91795000Y-90327500I0J-147500D01*
G01*
G37*
%TD.AperFunction*%
%TO.P,C26,2*%
%TO.N,GND*%
%TA.AperFunction,SMDPad,CuDef*%
G36*
G01*
X90825000Y-90327500D02*
X90825000Y-90672500D01*
G75*
G02*
X90677500Y-90820000I-147500J0D01*
G01*
X90382500Y-90820000D01*
G75*
G02*
X90235000Y-90672500I0J147500D01*
G01*
X90235000Y-90327500D01*
G75*
G02*
X90382500Y-90180000I147500J0D01*
G01*
X90677500Y-90180000D01*
G75*
G02*
X90825000Y-90327500I0J-147500D01*
G01*
G37*
%TD.AperFunction*%
%TD*%
%TO.P,U9AB1,24*%
%TO.N,/GPIO13*%
%TA.AperFunction,SMDPad,CuDef*%
G36*
G01*
X89650000Y-84275000D02*
X89550000Y-84275000D01*
G75*
G02*
X89500000Y-84225000I0J50000D01*
G01*
X89500000Y-83775000D01*
G75*
G02*
X89550000Y-83725000I50000J0D01*
G01*
X89650000Y-83725000D01*
G75*
G02*
X89700000Y-83775000I0J-50000D01*
G01*
X89700000Y-84225000D01*
G75*
G02*
X89650000Y-84275000I-50000J0D01*
G01*
G37*
%TD.AperFunction*%
%TO.P,U9AB1,23*%
%TO.N,/GPIO14*%
%TA.AperFunction,SMDPad,CuDef*%
G36*
G01*
X90050000Y-84275000D02*
X89950000Y-84275000D01*
G75*
G02*
X89900000Y-84225000I0J50000D01*
G01*
X89900000Y-83775000D01*
G75*
G02*
X89950000Y-83725000I50000J0D01*
G01*
X90050000Y-83725000D01*
G75*
G02*
X90100000Y-83775000I0J-50000D01*
G01*
X90100000Y-84225000D01*
G75*
G02*
X90050000Y-84275000I-50000J0D01*
G01*
G37*
%TD.AperFunction*%
%TO.P,U9AB1,22*%
%TO.N,/GPIO15*%
%TA.AperFunction,SMDPad,CuDef*%
G36*
G01*
X90450000Y-84275000D02*
X90350000Y-84275000D01*
G75*
G02*
X90300000Y-84225000I0J50000D01*
G01*
X90300000Y-83775000D01*
G75*
G02*
X90350000Y-83725000I50000J0D01*
G01*
X90450000Y-83725000D01*
G75*
G02*
X90500000Y-83775000I0J-50000D01*
G01*
X90500000Y-84225000D01*
G75*
G02*
X90450000Y-84275000I-50000J0D01*
G01*
G37*
%TD.AperFunction*%
%TO.P,U9AB1,21*%
%TO.N,N/C*%
%TA.AperFunction,SMDPad,CuDef*%
G36*
G01*
X90850000Y-84275000D02*
X90750000Y-84275000D01*
G75*
G02*
X90700000Y-84225000I0J50000D01*
G01*
X90700000Y-83775000D01*
G75*
G02*
X90750000Y-83725000I50000J0D01*
G01*
X90850000Y-83725000D01*
G75*
G02*
X90900000Y-83775000I0J-50000D01*
G01*
X90900000Y-84225000D01*
G75*
G02*
X90850000Y-84275000I-50000J0D01*
G01*
G37*
%TD.AperFunction*%
%TO.P,U9AB1,20*%
%TO.N,GND*%
%TA.AperFunction,SMDPad,CuDef*%
G36*
G01*
X91250000Y-84275000D02*
X91150000Y-84275000D01*
G75*
G02*
X91100000Y-84225000I0J50000D01*
G01*
X91100000Y-83775000D01*
G75*
G02*
X91150000Y-83725000I50000J0D01*
G01*
X91250000Y-83725000D01*
G75*
G02*
X91300000Y-83775000I0J-50000D01*
G01*
X91300000Y-84225000D01*
G75*
G02*
X91250000Y-84275000I-50000J0D01*
G01*
G37*
%TD.AperFunction*%
%TO.P,U9AB1,19*%
%TO.N,N/C*%
%TA.AperFunction,SMDPad,CuDef*%
G36*
G01*
X91650000Y-84275000D02*
X91550000Y-84275000D01*
G75*
G02*
X91500000Y-84225000I0J50000D01*
G01*
X91500000Y-83775000D01*
G75*
G02*
X91550000Y-83725000I50000J0D01*
G01*
X91650000Y-83725000D01*
G75*
G02*
X91700000Y-83775000I0J-50000D01*
G01*
X91700000Y-84225000D01*
G75*
G02*
X91650000Y-84275000I-50000J0D01*
G01*
G37*
%TD.AperFunction*%
%TO.P,U9AB1,18*%
%TO.N,GND*%
%TA.AperFunction,SMDPad,CuDef*%
G36*
G01*
X91825000Y-84550000D02*
X91825000Y-84450000D01*
G75*
G02*
X91875000Y-84400000I50000J0D01*
G01*
X92325000Y-84400000D01*
G75*
G02*
X92375000Y-84450000I0J-50000D01*
G01*
X92375000Y-84550000D01*
G75*
G02*
X92325000Y-84600000I-50000J0D01*
G01*
X91875000Y-84600000D01*
G75*
G02*
X91825000Y-84550000I0J50000D01*
G01*
G37*
%TD.AperFunction*%
%TO.P,U9AB1,17*%
%TO.N,N/C*%
%TA.AperFunction,SMDPad,CuDef*%
G36*
G01*
X91825000Y-84950000D02*
X91825000Y-84850000D01*
G75*
G02*
X91875000Y-84800000I50000J0D01*
G01*
X92325000Y-84800000D01*
G75*
G02*
X92375000Y-84850000I0J-50000D01*
G01*
X92375000Y-84950000D01*
G75*
G02*
X92325000Y-85000000I-50000J0D01*
G01*
X91875000Y-85000000D01*
G75*
G02*
X91825000Y-84950000I0J50000D01*
G01*
G37*
%TD.AperFunction*%
%TO.P,U9AB1,16*%
%TA.AperFunction,SMDPad,CuDef*%
G36*
G01*
X91825000Y-85350000D02*
X91825000Y-85250000D01*
G75*
G02*
X91875000Y-85200000I50000J0D01*
G01*
X92325000Y-85200000D01*
G75*
G02*
X92375000Y-85250000I0J-50000D01*
G01*
X92375000Y-85350000D01*
G75*
G02*
X92325000Y-85400000I-50000J0D01*
G01*
X91875000Y-85400000D01*
G75*
G02*
X91825000Y-85350000I0J50000D01*
G01*
G37*
%TD.AperFunction*%
%TO.P,U9AB1,15*%
%TA.AperFunction,SMDPad,CuDef*%
G36*
G01*
X91825000Y-85750000D02*
X91825000Y-85650000D01*
G75*
G02*
X91875000Y-85600000I50000J0D01*
G01*
X92325000Y-85600000D01*
G75*
G02*
X92375000Y-85650000I0J-50000D01*
G01*
X92375000Y-85750000D01*
G75*
G02*
X92325000Y-85800000I-50000J0D01*
G01*
X91875000Y-85800000D01*
G75*
G02*
X91825000Y-85750000I0J50000D01*
G01*
G37*
%TD.AperFunction*%
%TO.P,U9AB1,14*%
%TA.AperFunction,SMDPad,CuDef*%
G36*
G01*
X91825000Y-86150000D02*
X91825000Y-86050000D01*
G75*
G02*
X91875000Y-86000000I50000J0D01*
G01*
X92325000Y-86000000D01*
G75*
G02*
X92375000Y-86050000I0J-50000D01*
G01*
X92375000Y-86150000D01*
G75*
G02*
X92325000Y-86200000I-50000J0D01*
G01*
X91875000Y-86200000D01*
G75*
G02*
X91825000Y-86150000I0J50000D01*
G01*
G37*
%TD.AperFunction*%
%TO.P,U9AB1,13*%
%TO.N,/IMU_VDD*%
%TA.AperFunction,SMDPad,CuDef*%
G36*
G01*
X91825000Y-86550000D02*
X91825000Y-86450000D01*
G75*
G02*
X91875000Y-86400000I50000J0D01*
G01*
X92325000Y-86400000D01*
G75*
G02*
X92375000Y-86450000I0J-50000D01*
G01*
X92375000Y-86550000D01*
G75*
G02*
X92325000Y-86600000I-50000J0D01*
G01*
X91875000Y-86600000D01*
G75*
G02*
X91825000Y-86550000I0J50000D01*
G01*
G37*
%TD.AperFunction*%
%TO.P,U9AB1,12*%
%TO.N,N/C*%
%TA.AperFunction,SMDPad,CuDef*%
G36*
G01*
X91650000Y-87275000D02*
X91550000Y-87275000D01*
G75*
G02*
X91500000Y-87225000I0J50000D01*
G01*
X91500000Y-86775000D01*
G75*
G02*
X91550000Y-86725000I50000J0D01*
G01*
X91650000Y-86725000D01*
G75*
G02*
X91700000Y-86775000I0J-50000D01*
G01*
X91700000Y-87225000D01*
G75*
G02*
X91650000Y-87275000I-50000J0D01*
G01*
G37*
%TD.AperFunction*%
%TO.P,U9AB1,11*%
%TO.N,GND*%
%TA.AperFunction,SMDPad,CuDef*%
G36*
G01*
X91250000Y-87275000D02*
X91150000Y-87275000D01*
G75*
G02*
X91100000Y-87225000I0J50000D01*
G01*
X91100000Y-86775000D01*
G75*
G02*
X91150000Y-86725000I50000J0D01*
G01*
X91250000Y-86725000D01*
G75*
G02*
X91300000Y-86775000I0J-50000D01*
G01*
X91300000Y-87225000D01*
G75*
G02*
X91250000Y-87275000I-50000J0D01*
G01*
G37*
%TD.AperFunction*%
%TO.P,U9AB1,10*%
%TO.N,Net-(C25-Pad1)*%
%TA.AperFunction,SMDPad,CuDef*%
G36*
G01*
X90850000Y-87275000D02*
X90750000Y-87275000D01*
G75*
G02*
X90700000Y-87225000I0J50000D01*
G01*
X90700000Y-86775000D01*
G75*
G02*
X90750000Y-86725000I50000J0D01*
G01*
X90850000Y-86725000D01*
G75*
G02*
X90900000Y-86775000I0J-50000D01*
G01*
X90900000Y-87225000D01*
G75*
G02*
X90850000Y-87275000I-50000J0D01*
G01*
G37*
%TD.AperFunction*%
%TO.P,U9AB1,9*%
%TO.N,/GPIO12*%
%TA.AperFunction,SMDPad,CuDef*%
G36*
G01*
X90450000Y-87275000D02*
X90350000Y-87275000D01*
G75*
G02*
X90300000Y-87225000I0J50000D01*
G01*
X90300000Y-86775000D01*
G75*
G02*
X90350000Y-86725000I50000J0D01*
G01*
X90450000Y-86725000D01*
G75*
G02*
X90500000Y-86775000I0J-50000D01*
G01*
X90500000Y-87225000D01*
G75*
G02*
X90450000Y-87275000I-50000J0D01*
G01*
G37*
%TD.AperFunction*%
%TO.P,U9AB1,8*%
%TO.N,/IMU_VDDIO*%
%TA.AperFunction,SMDPad,CuDef*%
G36*
G01*
X90050000Y-87275000D02*
X89950000Y-87275000D01*
G75*
G02*
X89900000Y-87225000I0J50000D01*
G01*
X89900000Y-86775000D01*
G75*
G02*
X89950000Y-86725000I50000J0D01*
G01*
X90050000Y-86725000D01*
G75*
G02*
X90100000Y-86775000I0J-50000D01*
G01*
X90100000Y-87225000D01*
G75*
G02*
X90050000Y-87275000I-50000J0D01*
G01*
G37*
%TD.AperFunction*%
%TO.P,U9AB1,7*%
%TO.N,N/C*%
%TA.AperFunction,SMDPad,CuDef*%
G36*
G01*
X89650000Y-87275000D02*
X89550000Y-87275000D01*
G75*
G02*
X89500000Y-87225000I0J50000D01*
G01*
X89500000Y-86775000D01*
G75*
G02*
X89550000Y-86725000I50000J0D01*
G01*
X89650000Y-86725000D01*
G75*
G02*
X89700000Y-86775000I0J-50000D01*
G01*
X89700000Y-87225000D01*
G75*
G02*
X89650000Y-87275000I-50000J0D01*
G01*
G37*
%TD.AperFunction*%
%TO.P,U9AB1,6*%
%TA.AperFunction,SMDPad,CuDef*%
G36*
G01*
X88825000Y-86550000D02*
X88825000Y-86450000D01*
G75*
G02*
X88875000Y-86400000I50000J0D01*
G01*
X89325000Y-86400000D01*
G75*
G02*
X89375000Y-86450000I0J-50000D01*
G01*
X89375000Y-86550000D01*
G75*
G02*
X89325000Y-86600000I-50000J0D01*
G01*
X88875000Y-86600000D01*
G75*
G02*
X88825000Y-86550000I0J50000D01*
G01*
G37*
%TD.AperFunction*%
%TO.P,U9AB1,5*%
%TA.AperFunction,SMDPad,CuDef*%
G36*
G01*
X88825000Y-86150000D02*
X88825000Y-86050000D01*
G75*
G02*
X88875000Y-86000000I50000J0D01*
G01*
X89325000Y-86000000D01*
G75*
G02*
X89375000Y-86050000I0J-50000D01*
G01*
X89375000Y-86150000D01*
G75*
G02*
X89325000Y-86200000I-50000J0D01*
G01*
X88875000Y-86200000D01*
G75*
G02*
X88825000Y-86150000I0J50000D01*
G01*
G37*
%TD.AperFunction*%
%TO.P,U9AB1,4*%
%TA.AperFunction,SMDPad,CuDef*%
G36*
G01*
X88825000Y-85750000D02*
X88825000Y-85650000D01*
G75*
G02*
X88875000Y-85600000I50000J0D01*
G01*
X89325000Y-85600000D01*
G75*
G02*
X89375000Y-85650000I0J-50000D01*
G01*
X89375000Y-85750000D01*
G75*
G02*
X89325000Y-85800000I-50000J0D01*
G01*
X88875000Y-85800000D01*
G75*
G02*
X88825000Y-85750000I0J50000D01*
G01*
G37*
%TD.AperFunction*%
%TO.P,U9AB1,3*%
%TA.AperFunction,SMDPad,CuDef*%
G36*
G01*
X88825000Y-85350000D02*
X88825000Y-85250000D01*
G75*
G02*
X88875000Y-85200000I50000J0D01*
G01*
X89325000Y-85200000D01*
G75*
G02*
X89375000Y-85250000I0J-50000D01*
G01*
X89375000Y-85350000D01*
G75*
G02*
X89325000Y-85400000I-50000J0D01*
G01*
X88875000Y-85400000D01*
G75*
G02*
X88825000Y-85350000I0J50000D01*
G01*
G37*
%TD.AperFunction*%
%TO.P,U9AB1,2*%
%TA.AperFunction,SMDPad,CuDef*%
G36*
G01*
X88825000Y-84950000D02*
X88825000Y-84850000D01*
G75*
G02*
X88875000Y-84800000I50000J0D01*
G01*
X89325000Y-84800000D01*
G75*
G02*
X89375000Y-84850000I0J-50000D01*
G01*
X89375000Y-84950000D01*
G75*
G02*
X89325000Y-85000000I-50000J0D01*
G01*
X88875000Y-85000000D01*
G75*
G02*
X88825000Y-84950000I0J50000D01*
G01*
G37*
%TD.AperFunction*%
%TO.P,U9AB1,1*%
%TA.AperFunction,SMDPad,CuDef*%
G36*
G01*
X88825000Y-84550000D02*
X88825000Y-84450000D01*
G75*
G02*
X88875000Y-84400000I50000J0D01*
G01*
X89325000Y-84400000D01*
G75*
G02*
X89375000Y-84450000I0J-50000D01*
G01*
X89375000Y-84550000D01*
G75*
G02*
X89325000Y-84600000I-50000J0D01*
G01*
X88875000Y-84600000D01*
G75*
G02*
X88825000Y-84550000I0J50000D01*
G01*
G37*
%TD.AperFunction*%
%TD*%
D10*
%TO.P,J2,8*%
%TO.N,GND*%
X90770000Y-101310000D03*
%TO.P,J2,7*%
X89500000Y-101310000D03*
%TO.P,J2,6*%
%TO.N,/IMU*%
X90770000Y-100040000D03*
%TO.P,J2,5*%
%TO.N,GND*%
X89500000Y-100040000D03*
%TO.P,J2,4*%
%TO.N,/IMU_VDDIO*%
X90770000Y-98770000D03*
%TO.P,J2,3*%
%TO.N,+VBAT*%
X89500000Y-98770000D03*
%TO.P,J2,2*%
%TO.N,/IMU_VDD*%
X90770000Y-97500000D03*
D11*
%TO.P,J2,1*%
%TO.N,+VDDIO*%
X89500000Y-97500000D03*
%TD*%
D10*
%TO.P,JA1,15*%
%TO.N,/GPIO15*%
X111510000Y-105500000D03*
%TO.P,JA1,14*%
%TO.N,/GPIO14*%
X110240000Y-105500000D03*
%TO.P,JA1,13*%
%TO.N,/GPIO13*%
X108970000Y-105500000D03*
%TO.P,JA1,12*%
%TO.N,/GPIO12*%
X107700000Y-105500000D03*
%TO.P,JA1,11*%
%TO.N,/GPIO10*%
X106430000Y-105500000D03*
%TO.P,JA1,10*%
%TO.N,/GPIO9*%
X105160000Y-105500000D03*
%TO.P,JA1,9*%
%TO.N,/GPIO8*%
X103890000Y-105500000D03*
%TO.P,JA1,8*%
%TO.N,/GPIO7*%
X102620000Y-105500000D03*
%TO.P,JA1,7*%
%TO.N,/GPIO6*%
X101350000Y-105500000D03*
%TO.P,JA1,6*%
%TO.N,/GPIO5*%
X100080000Y-105500000D03*
%TO.P,JA1,5*%
%TO.N,/GPIO4*%
X98810000Y-105500000D03*
%TO.P,JA1,4*%
%TO.N,/GPIO3*%
X97540000Y-105500000D03*
%TO.P,JA1,3*%
%TO.N,/GPIO2*%
X96270000Y-105500000D03*
%TO.P,JA1,2*%
%TO.N,/GPIO1*%
X95000000Y-105500000D03*
D11*
%TO.P,JA1,1*%
%TO.N,/GPIO0*%
X93730000Y-105500000D03*
%TD*%
%TO.P,C27,1*%
%TO.N,/IMU_VDDIO*%
%TA.AperFunction,SMDPad,CuDef*%
G36*
G01*
X90235000Y-95172500D02*
X90235000Y-94827500D01*
G75*
G02*
X90382500Y-94680000I147500J0D01*
G01*
X90677500Y-94680000D01*
G75*
G02*
X90825000Y-94827500I0J-147500D01*
G01*
X90825000Y-95172500D01*
G75*
G02*
X90677500Y-95320000I-147500J0D01*
G01*
X90382500Y-95320000D01*
G75*
G02*
X90235000Y-95172500I0J147500D01*
G01*
G37*
%TD.AperFunction*%
%TO.P,C27,2*%
%TO.N,GND*%
%TA.AperFunction,SMDPad,CuDef*%
G36*
G01*
X91205000Y-95172500D02*
X91205000Y-94827500D01*
G75*
G02*
X91352500Y-94680000I147500J0D01*
G01*
X91647500Y-94680000D01*
G75*
G02*
X91795000Y-94827500I0J-147500D01*
G01*
X91795000Y-95172500D01*
G75*
G02*
X91647500Y-95320000I-147500J0D01*
G01*
X91352500Y-95320000D01*
G75*
G02*
X91205000Y-95172500I0J147500D01*
G01*
G37*
%TD.AperFunction*%
%TD*%
%TO.P,R2,2*%
%TO.N,/GPIO14*%
%TA.AperFunction,SMDPad,CuDef*%
G36*
G01*
X94827500Y-80190000D02*
X95172500Y-80190000D01*
G75*
G02*
X95320000Y-80337500I0J-147500D01*
G01*
X95320000Y-80632500D01*
G75*
G02*
X95172500Y-80780000I-147500J0D01*
G01*
X94827500Y-80780000D01*
G75*
G02*
X94680000Y-80632500I0J147500D01*
G01*
X94680000Y-80337500D01*
G75*
G02*
X94827500Y-80190000I147500J0D01*
G01*
G37*
%TD.AperFunction*%
%TO.P,R2,1*%
%TO.N,/IMU*%
%TA.AperFunction,SMDPad,CuDef*%
G36*
G01*
X94827500Y-79220000D02*
X95172500Y-79220000D01*
G75*
G02*
X95320000Y-79367500I0J-147500D01*
G01*
X95320000Y-79662500D01*
G75*
G02*
X95172500Y-79810000I-147500J0D01*
G01*
X94827500Y-79810000D01*
G75*
G02*
X94680000Y-79662500I0J147500D01*
G01*
X94680000Y-79367500D01*
G75*
G02*
X94827500Y-79220000I147500J0D01*
G01*
G37*
%TD.AperFunction*%
%TD*%
%TO.P,R1,2*%
%TO.N,/IMU*%
%TA.AperFunction,SMDPad,CuDef*%
G36*
G01*
X93172500Y-79810000D02*
X92827500Y-79810000D01*
G75*
G02*
X92680000Y-79662500I0J147500D01*
G01*
X92680000Y-79367500D01*
G75*
G02*
X92827500Y-79220000I147500J0D01*
G01*
X93172500Y-79220000D01*
G75*
G02*
X93320000Y-79367500I0J-147500D01*
G01*
X93320000Y-79662500D01*
G75*
G02*
X93172500Y-79810000I-147500J0D01*
G01*
G37*
%TD.AperFunction*%
%TO.P,R1,1*%
%TO.N,/GPIO13*%
%TA.AperFunction,SMDPad,CuDef*%
G36*
G01*
X93172500Y-80780000D02*
X92827500Y-80780000D01*
G75*
G02*
X92680000Y-80632500I0J147500D01*
G01*
X92680000Y-80337500D01*
G75*
G02*
X92827500Y-80190000I147500J0D01*
G01*
X93172500Y-80190000D01*
G75*
G02*
X93320000Y-80337500I0J-147500D01*
G01*
X93320000Y-80632500D01*
G75*
G02*
X93172500Y-80780000I-147500J0D01*
G01*
G37*
%TD.AperFunction*%
%TD*%
D10*
%TO.P,JB1,12*%
%TO.N,/RsTx*%
X115500000Y-101470000D03*
%TO.P,JB1,11*%
%TO.N,/RsRx*%
X115500000Y-100200000D03*
%TO.P,JB1,10*%
%TO.N,/3WB_CLK*%
X115500000Y-98930000D03*
%TO.P,JB1,9*%
%TO.N,/3WB_ENB*%
X115500000Y-97660000D03*
%TO.P,JB1,8*%
%TO.N,/3WB_DATA*%
X115500000Y-96390000D03*
%TO.P,JB1,7*%
%TO.N,/SENSOR_LDO_OUTPUT*%
X115500000Y-95120000D03*
%TO.P,JB1,6*%
%TO.N,/SENSOR_EXT_IN*%
X115500000Y-93850000D03*
%TO.P,JB1,5*%
%TO.N,/BOOT_SOURCE_SEL*%
X115500000Y-92580000D03*
%TO.P,JB1,4*%
%TO.N,+VDDD*%
X115500000Y-91310000D03*
%TO.P,JB1,3*%
%TO.N,+VDDIO*%
X115500000Y-90040000D03*
%TO.P,JB1,2*%
%TO.N,+VBAT*%
X115500000Y-88770000D03*
D11*
%TO.P,JB1,1*%
%TO.N,GND*%
X115500000Y-87500000D03*
%TD*%
%TO.P,R13,2*%
%TO.N,GND*%
%TA.AperFunction,SMDPad,CuDef*%
G36*
G01*
X111190000Y-88172500D02*
X111190000Y-87827500D01*
G75*
G02*
X111337500Y-87680000I147500J0D01*
G01*
X111632500Y-87680000D01*
G75*
G02*
X111780000Y-87827500I0J-147500D01*
G01*
X111780000Y-88172500D01*
G75*
G02*
X111632500Y-88320000I-147500J0D01*
G01*
X111337500Y-88320000D01*
G75*
G02*
X111190000Y-88172500I0J147500D01*
G01*
G37*
%TD.AperFunction*%
%TO.P,R13,1*%
%TO.N,Net-(R13-Pad1)*%
%TA.AperFunction,SMDPad,CuDef*%
G36*
G01*
X110220000Y-88172500D02*
X110220000Y-87827500D01*
G75*
G02*
X110367500Y-87680000I147500J0D01*
G01*
X110662500Y-87680000D01*
G75*
G02*
X110810000Y-87827500I0J-147500D01*
G01*
X110810000Y-88172500D01*
G75*
G02*
X110662500Y-88320000I-147500J0D01*
G01*
X110367500Y-88320000D01*
G75*
G02*
X110220000Y-88172500I0J147500D01*
G01*
G37*
%TD.AperFunction*%
%TD*%
%TO.P,C24,1*%
%TO.N,+VDDAO*%
%TA.AperFunction,SMDPad,CuDef*%
G36*
G01*
X98295000Y-84827500D02*
X98295000Y-85172500D01*
G75*
G02*
X98147500Y-85320000I-147500J0D01*
G01*
X97852500Y-85320000D01*
G75*
G02*
X97705000Y-85172500I0J147500D01*
G01*
X97705000Y-84827500D01*
G75*
G02*
X97852500Y-84680000I147500J0D01*
G01*
X98147500Y-84680000D01*
G75*
G02*
X98295000Y-84827500I0J-147500D01*
G01*
G37*
%TD.AperFunction*%
%TO.P,C24,2*%
%TO.N,GND*%
%TA.AperFunction,SMDPad,CuDef*%
G36*
G01*
X97325000Y-84827500D02*
X97325000Y-85172500D01*
G75*
G02*
X97177500Y-85320000I-147500J0D01*
G01*
X96882500Y-85320000D01*
G75*
G02*
X96735000Y-85172500I0J147500D01*
G01*
X96735000Y-84827500D01*
G75*
G02*
X96882500Y-84680000I147500J0D01*
G01*
X97177500Y-84680000D01*
G75*
G02*
X97325000Y-84827500I0J-147500D01*
G01*
G37*
%TD.AperFunction*%
%TD*%
D12*
%TO.P,U8,101*%
%TO.N,GND*%
X106412500Y-97187500D03*
X106412500Y-96050000D03*
X106412500Y-94912500D03*
X106412500Y-93775000D03*
X106412500Y-92637500D03*
X106412500Y-91500000D03*
X106412500Y-90362500D03*
X106412500Y-89225000D03*
X105275000Y-97187500D03*
X105275000Y-96050000D03*
X105275000Y-94912500D03*
X105275000Y-93775000D03*
X105275000Y-92637500D03*
X105275000Y-91500000D03*
X105275000Y-90362500D03*
X105275000Y-89225000D03*
X104137500Y-97187500D03*
X104137500Y-96050000D03*
X104137500Y-94912500D03*
X104137500Y-93775000D03*
X104137500Y-92637500D03*
X104137500Y-91500000D03*
X104137500Y-90362500D03*
X104137500Y-89225000D03*
X103000000Y-97187500D03*
X103000000Y-96050000D03*
X103000000Y-94912500D03*
X103000000Y-93775000D03*
X103000000Y-92637500D03*
X103000000Y-91500000D03*
X103000000Y-90362500D03*
X103000000Y-89225000D03*
X101862500Y-97187500D03*
X101862500Y-96050000D03*
X101862500Y-94912500D03*
X101862500Y-93775000D03*
X101862500Y-92637500D03*
X101862500Y-91500000D03*
X101862500Y-90362500D03*
X101862500Y-89225000D03*
X100725000Y-97187500D03*
X100725000Y-96050000D03*
X100725000Y-94912500D03*
X100725000Y-93775000D03*
X100725000Y-92637500D03*
X100725000Y-91500000D03*
X100725000Y-90362500D03*
X100725000Y-89225000D03*
X99587500Y-97187500D03*
X99587500Y-96050000D03*
X99587500Y-94912500D03*
X99587500Y-93775000D03*
X99587500Y-92637500D03*
X99587500Y-91500000D03*
X99587500Y-90362500D03*
X99587500Y-89225000D03*
X98450000Y-97187500D03*
X98450000Y-96050000D03*
X98450000Y-94912500D03*
X98450000Y-93775000D03*
X98450000Y-92637500D03*
X98450000Y-91500000D03*
X98450000Y-90362500D03*
X98450000Y-89225000D03*
D13*
X106412500Y-97187500D03*
X106412500Y-96050000D03*
X106412500Y-94912500D03*
X106412500Y-93775000D03*
X106412500Y-92637500D03*
X106412500Y-91500000D03*
X106412500Y-90362500D03*
X106412500Y-89225000D03*
X105275000Y-97187500D03*
X105275000Y-96050000D03*
X105275000Y-94912500D03*
X105275000Y-93775000D03*
X105275000Y-92637500D03*
X105275000Y-91500000D03*
X105275000Y-90362500D03*
X105275000Y-89225000D03*
X104137500Y-97187500D03*
X104137500Y-96050000D03*
X104137500Y-94912500D03*
X104137500Y-93775000D03*
X104137500Y-92637500D03*
X104137500Y-91500000D03*
X104137500Y-90362500D03*
X104137500Y-89225000D03*
X103000000Y-97187500D03*
X103000000Y-96050000D03*
X103000000Y-94912500D03*
X103000000Y-93775000D03*
X103000000Y-92637500D03*
X103000000Y-91500000D03*
X103000000Y-90362500D03*
X103000000Y-89225000D03*
X101862500Y-97187500D03*
X101862500Y-96050000D03*
X101862500Y-94912500D03*
X101862500Y-93775000D03*
X101862500Y-92637500D03*
X101862500Y-91500000D03*
X101862500Y-90362500D03*
X101862500Y-89225000D03*
X100725000Y-97187500D03*
X100725000Y-96050000D03*
X100725000Y-94912500D03*
X100725000Y-93775000D03*
X100725000Y-92637500D03*
X100725000Y-91500000D03*
X100725000Y-90362500D03*
X100725000Y-89225000D03*
X99587500Y-97187500D03*
X99587500Y-96050000D03*
X99587500Y-94912500D03*
X99587500Y-93775000D03*
X99587500Y-92637500D03*
X99587500Y-91500000D03*
X99587500Y-90362500D03*
X99587500Y-89225000D03*
X98450000Y-97187500D03*
X98450000Y-96050000D03*
X98450000Y-94912500D03*
X98450000Y-93775000D03*
X98450000Y-92637500D03*
X98450000Y-91500000D03*
X98450000Y-90362500D03*
X98450000Y-89225000D03*
D14*
%TO.P,U8,100*%
%TO.N,N/C*%
X97631250Y-87306250D03*
%TO.P,U8,99*%
X98031250Y-87306250D03*
%TO.P,U8,98*%
X98431250Y-87306250D03*
%TO.P,U8,97*%
X98831250Y-87306250D03*
%TO.P,U8,96*%
X99231250Y-87306250D03*
%TO.P,U8,95*%
X99631250Y-87306250D03*
%TO.P,U8,94*%
X100031250Y-87306250D03*
%TO.P,U8,93*%
X100431250Y-87306250D03*
%TO.P,U8,92*%
%TO.N,+VDDAO*%
X100831250Y-87306250D03*
%TO.P,U8,91*%
%TO.N,N/C*%
X101231250Y-87306250D03*
%TO.P,U8,90*%
%TO.N,+VDDD*%
X101631250Y-87306250D03*
%TO.P,U8,89*%
%TO.N,Net-(R12-Pad2)*%
X102031250Y-87306250D03*
%TO.P,U8,88*%
%TO.N,N/C*%
X102431250Y-87306250D03*
%TO.P,U8,87*%
X102831250Y-87306250D03*
%TO.P,U8,86*%
X103231250Y-87306250D03*
%TO.P,U8,85*%
X103631250Y-87306250D03*
%TO.P,U8,84*%
X104031250Y-87306250D03*
%TO.P,U8,83*%
X104431250Y-87306250D03*
%TO.P,U8,82*%
X104831250Y-87306250D03*
%TO.P,U8,81*%
X105231250Y-87306250D03*
%TO.P,U8,80*%
X105631250Y-87306250D03*
%TO.P,U8,79*%
X106031250Y-87306250D03*
%TO.P,U8,78*%
X106431250Y-87306250D03*
%TO.P,U8,77*%
X106831250Y-87306250D03*
%TO.P,U8,76*%
X107231250Y-87306250D03*
D15*
%TO.P,U8,75*%
X108331250Y-88406250D03*
%TO.P,U8,74*%
X108331250Y-88806250D03*
%TO.P,U8,73*%
X108331250Y-89206250D03*
%TO.P,U8,72*%
%TO.N,+VDDD*%
X108331250Y-89606250D03*
%TO.P,U8,71*%
%TO.N,Net-(R13-Pad1)*%
X108331250Y-90006250D03*
%TO.P,U8,70*%
%TO.N,/scumsheet/AUX_LDO_OUTPUT*%
X108331250Y-90406250D03*
%TO.P,U8,69*%
%TO.N,GND*%
X108331250Y-90806250D03*
%TO.P,U8,68*%
%TO.N,N/C*%
X108331250Y-91206250D03*
%TO.P,U8,67*%
X108331250Y-91606250D03*
%TO.P,U8,66*%
X108331250Y-92006250D03*
%TO.P,U8,65*%
X108331250Y-92406250D03*
%TO.P,U8,64*%
X108331250Y-92806250D03*
%TO.P,U8,63*%
X108331250Y-93206250D03*
%TO.P,U8,62*%
%TO.N,+VBAT*%
X108331250Y-93606250D03*
%TO.P,U8,61*%
%TO.N,/BOOT_SOURCE_SEL*%
X108331250Y-94006250D03*
%TO.P,U8,60*%
%TO.N,N/C*%
X108331250Y-94406250D03*
%TO.P,U8,59*%
%TO.N,+VBAT*%
X108331250Y-94806250D03*
%TO.P,U8,58*%
%TO.N,GND*%
X108331250Y-95206250D03*
%TO.P,U8,57*%
%TO.N,Net-(LED1-Pad2)*%
X108331250Y-95606250D03*
%TO.P,U8,56*%
%TO.N,N/C*%
X108331250Y-96006250D03*
%TO.P,U8,55*%
%TO.N,GND*%
X108331250Y-96406250D03*
%TO.P,U8,54*%
%TO.N,/SENSOR_EXT_IN*%
X108331250Y-96806250D03*
%TO.P,U8,53*%
%TO.N,/SENSOR_LDO_OUTPUT*%
X108331250Y-97206250D03*
%TO.P,U8,52*%
%TO.N,N/C*%
X108331250Y-97606250D03*
%TO.P,U8,51*%
X108331250Y-98006250D03*
D14*
%TO.P,U8,50*%
%TO.N,/3WB_DATA*%
X107231250Y-99106250D03*
%TO.P,U8,49*%
%TO.N,/3WB_ENB*%
X106831250Y-99106250D03*
%TO.P,U8,48*%
%TO.N,/3WB_CLK*%
X106431250Y-99106250D03*
%TO.P,U8,47*%
%TO.N,/RsRx*%
X106031250Y-99106250D03*
%TO.P,U8,46*%
%TO.N,/RsTx*%
X105631250Y-99106250D03*
%TO.P,U8,45*%
%TO.N,GND*%
X105231250Y-99106250D03*
%TO.P,U8,44*%
%TO.N,/GPIO15*%
X104831250Y-99106250D03*
%TO.P,U8,43*%
%TO.N,/GPIO14*%
X104431250Y-99106250D03*
%TO.P,U8,42*%
%TO.N,/GPIO13*%
X104031250Y-99106250D03*
%TO.P,U8,41*%
%TO.N,/GPIO12*%
X103631250Y-99106250D03*
%TO.P,U8,40*%
%TO.N,N/C*%
X103231250Y-99106250D03*
%TO.P,U8,39*%
%TO.N,/GPIO10*%
X102831250Y-99106250D03*
%TO.P,U8,38*%
%TO.N,/GPIO9*%
X102431250Y-99106250D03*
%TO.P,U8,37*%
%TO.N,/GPIO8*%
X102031250Y-99106250D03*
%TO.P,U8,36*%
%TO.N,+VDDIO*%
X101631250Y-99106250D03*
%TO.P,U8,35*%
%TO.N,/GPIO7*%
X101231250Y-99106250D03*
%TO.P,U8,34*%
%TO.N,/GPIO6*%
X100831250Y-99106250D03*
%TO.P,U8,33*%
%TO.N,/GPIO5*%
X100431250Y-99106250D03*
%TO.P,U8,32*%
%TO.N,/GPIO4*%
X100031250Y-99106250D03*
%TO.P,U8,31*%
%TO.N,/GPIO3*%
X99631250Y-99106250D03*
%TO.P,U8,30*%
%TO.N,/GPIO2*%
X99231250Y-99106250D03*
%TO.P,U8,29*%
%TO.N,/GPIO1*%
X98831250Y-99106250D03*
%TO.P,U8,28*%
%TO.N,/GPIO0*%
X98431250Y-99106250D03*
%TO.P,U8,27*%
%TO.N,GND*%
X98031250Y-99106250D03*
%TO.P,U8,26*%
%TO.N,+VBAT*%
X97631250Y-99106250D03*
D15*
%TO.P,U8,25*%
%TO.N,N/C*%
X96531250Y-98006250D03*
%TO.P,U8,24*%
X96531250Y-97606250D03*
%TO.P,U8,23*%
X96531250Y-97206250D03*
%TO.P,U8,22*%
%TO.N,Net-(C22-Pad1)*%
X96531250Y-96806250D03*
%TO.P,U8,21*%
%TO.N,N/C*%
X96531250Y-96406250D03*
%TO.P,U8,20*%
X96531250Y-96006250D03*
%TO.P,U8,19*%
X96531250Y-95606250D03*
%TO.P,U8,18*%
X96531250Y-95206250D03*
%TO.P,U8,17*%
%TO.N,+VBAT*%
X96531250Y-94806250D03*
%TO.P,U8,16*%
%TO.N,GND*%
X96531250Y-94406250D03*
%TO.P,U8,15*%
%TO.N,N/C*%
X96531250Y-94006250D03*
%TO.P,U8,14*%
%TO.N,GND*%
X96531250Y-93606250D03*
%TO.P,U8,13*%
%TO.N,N/C*%
X96531250Y-93206250D03*
%TO.P,U8,12*%
%TO.N,Net-(R14-Pad1)*%
X96531250Y-92806250D03*
%TO.P,U8,11*%
%TO.N,GND*%
X96531250Y-92406250D03*
%TO.P,U8,10*%
%TO.N,+VDD25*%
X96531250Y-92006250D03*
%TO.P,U8,9*%
%TO.N,N/C*%
X96531250Y-91606250D03*
%TO.P,U8,8*%
X96531250Y-91206250D03*
%TO.P,U8,7*%
X96531250Y-90806250D03*
%TO.P,U8,6*%
X96531250Y-90406250D03*
%TO.P,U8,5*%
%TO.N,GND*%
X96531250Y-90006250D03*
%TO.P,U8,4*%
%TO.N,+VBAT*%
X96531250Y-89606250D03*
%TO.P,U8,3*%
%TO.N,N/C*%
X96531250Y-89206250D03*
%TO.P,U8,2*%
X96531250Y-88806250D03*
%TO.P,U8,1*%
X96531250Y-88406250D03*
%TD*%
D16*
%TO.P,LED1,1*%
%TO.N,GND*%
X112000000Y-93000000D03*
%TO.P,LED1,2*%
%TO.N,Net-(LED1-Pad2)*%
X112000000Y-95100000D03*
%TD*%
D17*
%TO.P,BT1,3*%
%TO.N,N/C*%
X110850000Y-82000000D03*
D18*
%TO.P,BT1,2*%
%TO.N,GND*%
X107000000Y-82000000D03*
D17*
%TO.P,BT1,1*%
%TO.N,+VBAT*%
X103150000Y-82000000D03*
%TD*%
%TO.P,R14,2*%
%TO.N,GND*%
%TA.AperFunction,SMDPad,CuDef*%
G36*
G01*
X93825000Y-92327500D02*
X93825000Y-92672500D01*
G75*
G02*
X93677500Y-92820000I-147500J0D01*
G01*
X93382500Y-92820000D01*
G75*
G02*
X93235000Y-92672500I0J147500D01*
G01*
X93235000Y-92327500D01*
G75*
G02*
X93382500Y-92180000I147500J0D01*
G01*
X93677500Y-92180000D01*
G75*
G02*
X93825000Y-92327500I0J-147500D01*
G01*
G37*
%TD.AperFunction*%
%TO.P,R14,1*%
%TO.N,Net-(R14-Pad1)*%
%TA.AperFunction,SMDPad,CuDef*%
G36*
G01*
X94795000Y-92327500D02*
X94795000Y-92672500D01*
G75*
G02*
X94647500Y-92820000I-147500J0D01*
G01*
X94352500Y-92820000D01*
G75*
G02*
X94205000Y-92672500I0J147500D01*
G01*
X94205000Y-92327500D01*
G75*
G02*
X94352500Y-92180000I147500J0D01*
G01*
X94647500Y-92180000D01*
G75*
G02*
X94795000Y-92327500I0J-147500D01*
G01*
G37*
%TD.AperFunction*%
%TD*%
%TO.P,R12,2*%
%TO.N,Net-(R12-Pad2)*%
%TA.AperFunction,SMDPad,CuDef*%
G36*
G01*
X100175000Y-83672500D02*
X100175000Y-83327500D01*
G75*
G02*
X100322500Y-83180000I147500J0D01*
G01*
X100617500Y-83180000D01*
G75*
G02*
X100765000Y-83327500I0J-147500D01*
G01*
X100765000Y-83672500D01*
G75*
G02*
X100617500Y-83820000I-147500J0D01*
G01*
X100322500Y-83820000D01*
G75*
G02*
X100175000Y-83672500I0J147500D01*
G01*
G37*
%TD.AperFunction*%
%TO.P,R12,1*%
%TO.N,+VDDD*%
%TA.AperFunction,SMDPad,CuDef*%
G36*
G01*
X99205000Y-83672500D02*
X99205000Y-83327500D01*
G75*
G02*
X99352500Y-83180000I147500J0D01*
G01*
X99647500Y-83180000D01*
G75*
G02*
X99795000Y-83327500I0J-147500D01*
G01*
X99795000Y-83672500D01*
G75*
G02*
X99647500Y-83820000I-147500J0D01*
G01*
X99352500Y-83820000D01*
G75*
G02*
X99205000Y-83672500I0J147500D01*
G01*
G37*
%TD.AperFunction*%
%TD*%
%TO.P,C13,1*%
%TO.N,+VDDD*%
%TA.AperFunction,SMDPad,CuDef*%
G36*
G01*
X98095000Y-82627500D02*
X98095000Y-82972500D01*
G75*
G02*
X97947500Y-83120000I-147500J0D01*
G01*
X97652500Y-83120000D01*
G75*
G02*
X97505000Y-82972500I0J147500D01*
G01*
X97505000Y-82627500D01*
G75*
G02*
X97652500Y-82480000I147500J0D01*
G01*
X97947500Y-82480000D01*
G75*
G02*
X98095000Y-82627500I0J-147500D01*
G01*
G37*
%TD.AperFunction*%
%TO.P,C13,2*%
%TO.N,GND*%
%TA.AperFunction,SMDPad,CuDef*%
G36*
G01*
X97125000Y-82627500D02*
X97125000Y-82972500D01*
G75*
G02*
X96977500Y-83120000I-147500J0D01*
G01*
X96682500Y-83120000D01*
G75*
G02*
X96535000Y-82972500I0J147500D01*
G01*
X96535000Y-82627500D01*
G75*
G02*
X96682500Y-82480000I147500J0D01*
G01*
X96977500Y-82480000D01*
G75*
G02*
X97125000Y-82627500I0J-147500D01*
G01*
G37*
%TD.AperFunction*%
%TD*%
%TO.P,C14,1*%
%TO.N,+VBAT*%
%TA.AperFunction,SMDPad,CuDef*%
G36*
G01*
X113705000Y-85672500D02*
X113705000Y-85327500D01*
G75*
G02*
X113852500Y-85180000I147500J0D01*
G01*
X114147500Y-85180000D01*
G75*
G02*
X114295000Y-85327500I0J-147500D01*
G01*
X114295000Y-85672500D01*
G75*
G02*
X114147500Y-85820000I-147500J0D01*
G01*
X113852500Y-85820000D01*
G75*
G02*
X113705000Y-85672500I0J147500D01*
G01*
G37*
%TD.AperFunction*%
%TO.P,C14,2*%
%TO.N,GND*%
%TA.AperFunction,SMDPad,CuDef*%
G36*
G01*
X114675000Y-85672500D02*
X114675000Y-85327500D01*
G75*
G02*
X114822500Y-85180000I147500J0D01*
G01*
X115117500Y-85180000D01*
G75*
G02*
X115265000Y-85327500I0J-147500D01*
G01*
X115265000Y-85672500D01*
G75*
G02*
X115117500Y-85820000I-147500J0D01*
G01*
X114822500Y-85820000D01*
G75*
G02*
X114675000Y-85672500I0J147500D01*
G01*
G37*
%TD.AperFunction*%
%TD*%
%TO.P,C15,1*%
%TO.N,+VBAT*%
%TA.AperFunction,SMDPad,CuDef*%
G36*
G01*
X113705000Y-83672500D02*
X113705000Y-83327500D01*
G75*
G02*
X113852500Y-83180000I147500J0D01*
G01*
X114147500Y-83180000D01*
G75*
G02*
X114295000Y-83327500I0J-147500D01*
G01*
X114295000Y-83672500D01*
G75*
G02*
X114147500Y-83820000I-147500J0D01*
G01*
X113852500Y-83820000D01*
G75*
G02*
X113705000Y-83672500I0J147500D01*
G01*
G37*
%TD.AperFunction*%
%TO.P,C15,2*%
%TO.N,GND*%
%TA.AperFunction,SMDPad,CuDef*%
G36*
G01*
X114675000Y-83672500D02*
X114675000Y-83327500D01*
G75*
G02*
X114822500Y-83180000I147500J0D01*
G01*
X115117500Y-83180000D01*
G75*
G02*
X115265000Y-83327500I0J-147500D01*
G01*
X115265000Y-83672500D01*
G75*
G02*
X115117500Y-83820000I-147500J0D01*
G01*
X114822500Y-83820000D01*
G75*
G02*
X114675000Y-83672500I0J147500D01*
G01*
G37*
%TD.AperFunction*%
%TD*%
%TO.P,C16,2*%
%TO.N,GND*%
%TA.AperFunction,SMDPad,CuDef*%
G36*
G01*
X88672500Y-90795000D02*
X88327500Y-90795000D01*
G75*
G02*
X88180000Y-90647500I0J147500D01*
G01*
X88180000Y-90352500D01*
G75*
G02*
X88327500Y-90205000I147500J0D01*
G01*
X88672500Y-90205000D01*
G75*
G02*
X88820000Y-90352500I0J-147500D01*
G01*
X88820000Y-90647500D01*
G75*
G02*
X88672500Y-90795000I-147500J0D01*
G01*
G37*
%TD.AperFunction*%
%TO.P,C16,1*%
%TO.N,+VDDIO*%
%TA.AperFunction,SMDPad,CuDef*%
G36*
G01*
X88672500Y-91765000D02*
X88327500Y-91765000D01*
G75*
G02*
X88180000Y-91617500I0J147500D01*
G01*
X88180000Y-91322500D01*
G75*
G02*
X88327500Y-91175000I147500J0D01*
G01*
X88672500Y-91175000D01*
G75*
G02*
X88820000Y-91322500I0J-147500D01*
G01*
X88820000Y-91617500D01*
G75*
G02*
X88672500Y-91765000I-147500J0D01*
G01*
G37*
%TD.AperFunction*%
%TD*%
%TO.P,C17,1*%
%TO.N,+VDDIO*%
%TA.AperFunction,SMDPad,CuDef*%
G36*
G01*
X88672500Y-94765000D02*
X88327500Y-94765000D01*
G75*
G02*
X88180000Y-94617500I0J147500D01*
G01*
X88180000Y-94322500D01*
G75*
G02*
X88327500Y-94175000I147500J0D01*
G01*
X88672500Y-94175000D01*
G75*
G02*
X88820000Y-94322500I0J-147500D01*
G01*
X88820000Y-94617500D01*
G75*
G02*
X88672500Y-94765000I-147500J0D01*
G01*
G37*
%TD.AperFunction*%
%TO.P,C17,2*%
%TO.N,GND*%
%TA.AperFunction,SMDPad,CuDef*%
G36*
G01*
X88672500Y-93795000D02*
X88327500Y-93795000D01*
G75*
G02*
X88180000Y-93647500I0J147500D01*
G01*
X88180000Y-93352500D01*
G75*
G02*
X88327500Y-93205000I147500J0D01*
G01*
X88672500Y-93205000D01*
G75*
G02*
X88820000Y-93352500I0J-147500D01*
G01*
X88820000Y-93647500D01*
G75*
G02*
X88672500Y-93795000I-147500J0D01*
G01*
G37*
%TD.AperFunction*%
%TD*%
%TO.P,C18,2*%
%TO.N,+VDDD*%
%TA.AperFunction,SMDPad,CuDef*%
G36*
G01*
X99810000Y-78827500D02*
X99810000Y-79172500D01*
G75*
G02*
X99662500Y-79320000I-147500J0D01*
G01*
X99367500Y-79320000D01*
G75*
G02*
X99220000Y-79172500I0J147500D01*
G01*
X99220000Y-78827500D01*
G75*
G02*
X99367500Y-78680000I147500J0D01*
G01*
X99662500Y-78680000D01*
G75*
G02*
X99810000Y-78827500I0J-147500D01*
G01*
G37*
%TD.AperFunction*%
%TO.P,C18,1*%
%TO.N,GND*%
%TA.AperFunction,SMDPad,CuDef*%
G36*
G01*
X100780000Y-78827500D02*
X100780000Y-79172500D01*
G75*
G02*
X100632500Y-79320000I-147500J0D01*
G01*
X100337500Y-79320000D01*
G75*
G02*
X100190000Y-79172500I0J147500D01*
G01*
X100190000Y-78827500D01*
G75*
G02*
X100337500Y-78680000I147500J0D01*
G01*
X100632500Y-78680000D01*
G75*
G02*
X100780000Y-78827500I0J-147500D01*
G01*
G37*
%TD.AperFunction*%
%TD*%
%TO.P,C19,1*%
%TO.N,GND*%
%TA.AperFunction,SMDPad,CuDef*%
G36*
G01*
X100765000Y-80827500D02*
X100765000Y-81172500D01*
G75*
G02*
X100617500Y-81320000I-147500J0D01*
G01*
X100322500Y-81320000D01*
G75*
G02*
X100175000Y-81172500I0J147500D01*
G01*
X100175000Y-80827500D01*
G75*
G02*
X100322500Y-80680000I147500J0D01*
G01*
X100617500Y-80680000D01*
G75*
G02*
X100765000Y-80827500I0J-147500D01*
G01*
G37*
%TD.AperFunction*%
%TO.P,C19,2*%
%TO.N,+VDDD*%
%TA.AperFunction,SMDPad,CuDef*%
G36*
G01*
X99795000Y-80827500D02*
X99795000Y-81172500D01*
G75*
G02*
X99647500Y-81320000I-147500J0D01*
G01*
X99352500Y-81320000D01*
G75*
G02*
X99205000Y-81172500I0J147500D01*
G01*
X99205000Y-80827500D01*
G75*
G02*
X99352500Y-80680000I147500J0D01*
G01*
X99647500Y-80680000D01*
G75*
G02*
X99795000Y-80827500I0J-147500D01*
G01*
G37*
%TD.AperFunction*%
%TD*%
%TO.P,C20,2*%
%TO.N,/scumsheet/AUX_LDO_OUTPUT*%
%TA.AperFunction,SMDPad,CuDef*%
G36*
G01*
X110825000Y-89827500D02*
X110825000Y-90172500D01*
G75*
G02*
X110677500Y-90320000I-147500J0D01*
G01*
X110382500Y-90320000D01*
G75*
G02*
X110235000Y-90172500I0J147500D01*
G01*
X110235000Y-89827500D01*
G75*
G02*
X110382500Y-89680000I147500J0D01*
G01*
X110677500Y-89680000D01*
G75*
G02*
X110825000Y-89827500I0J-147500D01*
G01*
G37*
%TD.AperFunction*%
%TO.P,C20,1*%
%TO.N,GND*%
%TA.AperFunction,SMDPad,CuDef*%
G36*
G01*
X111795000Y-89827500D02*
X111795000Y-90172500D01*
G75*
G02*
X111647500Y-90320000I-147500J0D01*
G01*
X111352500Y-90320000D01*
G75*
G02*
X111205000Y-90172500I0J147500D01*
G01*
X111205000Y-89827500D01*
G75*
G02*
X111352500Y-89680000I147500J0D01*
G01*
X111647500Y-89680000D01*
G75*
G02*
X111795000Y-89827500I0J-147500D01*
G01*
G37*
%TD.AperFunction*%
%TD*%
%TO.P,C21,1*%
%TO.N,+VDD25*%
%TA.AperFunction,SMDPad,CuDef*%
G36*
G01*
X94795000Y-90327500D02*
X94795000Y-90672500D01*
G75*
G02*
X94647500Y-90820000I-147500J0D01*
G01*
X94352500Y-90820000D01*
G75*
G02*
X94205000Y-90672500I0J147500D01*
G01*
X94205000Y-90327500D01*
G75*
G02*
X94352500Y-90180000I147500J0D01*
G01*
X94647500Y-90180000D01*
G75*
G02*
X94795000Y-90327500I0J-147500D01*
G01*
G37*
%TD.AperFunction*%
%TO.P,C21,2*%
%TO.N,GND*%
%TA.AperFunction,SMDPad,CuDef*%
G36*
G01*
X93825000Y-90327500D02*
X93825000Y-90672500D01*
G75*
G02*
X93677500Y-90820000I-147500J0D01*
G01*
X93382500Y-90820000D01*
G75*
G02*
X93235000Y-90672500I0J147500D01*
G01*
X93235000Y-90327500D01*
G75*
G02*
X93382500Y-90180000I147500J0D01*
G01*
X93677500Y-90180000D01*
G75*
G02*
X93825000Y-90327500I0J-147500D01*
G01*
G37*
%TD.AperFunction*%
%TD*%
%TO.P,C22,1*%
%TO.N,Net-(C22-Pad1)*%
%TA.AperFunction,SMDPad,CuDef*%
G36*
G01*
X94327500Y-96735000D02*
X94672500Y-96735000D01*
G75*
G02*
X94820000Y-96882500I0J-147500D01*
G01*
X94820000Y-97177500D01*
G75*
G02*
X94672500Y-97325000I-147500J0D01*
G01*
X94327500Y-97325000D01*
G75*
G02*
X94180000Y-97177500I0J147500D01*
G01*
X94180000Y-96882500D01*
G75*
G02*
X94327500Y-96735000I147500J0D01*
G01*
G37*
%TD.AperFunction*%
%TO.P,C22,2*%
%TO.N,GND*%
%TA.AperFunction,SMDPad,CuDef*%
G36*
G01*
X94327500Y-97705000D02*
X94672500Y-97705000D01*
G75*
G02*
X94820000Y-97852500I0J-147500D01*
G01*
X94820000Y-98147500D01*
G75*
G02*
X94672500Y-98295000I-147500J0D01*
G01*
X94327500Y-98295000D01*
G75*
G02*
X94180000Y-98147500I0J147500D01*
G01*
X94180000Y-97852500D01*
G75*
G02*
X94327500Y-97705000I147500J0D01*
G01*
G37*
%TD.AperFunction*%
%TD*%
D19*
%TO.N,GND*%
X110000000Y-96206250D03*
X95000000Y-94000000D03*
X107000000Y-82000000D03*
X96000000Y-85000000D03*
X110200000Y-91000000D03*
X112000000Y-93000000D03*
X110500000Y-95000000D03*
X95000000Y-101000000D03*
X113500000Y-102100000D03*
X100500000Y-80000000D03*
X88500000Y-92500000D03*
X88500000Y-89500000D03*
%TO.N,+VBAT*%
X103150000Y-82000000D03*
X112899999Y-83899999D03*
X95000000Y-95000000D03*
X95000000Y-99500000D03*
X95299999Y-89200001D03*
%TO.N,+VDDD*%
X99500000Y-82600000D03*
X109500000Y-88000000D03*
%TO.N,+VDDIO*%
X101724265Y-102875735D03*
%TO.N,/BOOT_SOURCE_SEL*%
X109500000Y-94000000D03*
%TO.N,/IMU*%
X94000000Y-79500000D03*
%TO.N,/GPIO13*%
X92000000Y-81399990D03*
%TO.N,/GPIO14*%
X93500000Y-81999990D03*
%TO.N,/GPIO15*%
X94500000Y-83000000D03*
%TO.N,/GPIO12*%
X89674265Y-88674265D03*
%TO.N,/IMU_VDD*%
X91500000Y-89500000D03*
%TD*%
D20*
%TO.N,GND*%
X108331250Y-96406250D02*
X109800000Y-96406250D01*
X109800000Y-96406250D02*
X110000000Y-96206250D01*
X96531250Y-93606250D02*
X95393750Y-93606250D01*
X95393750Y-93606250D02*
X95000000Y-94000000D01*
X95406250Y-94406250D02*
X95000000Y-94000000D01*
X96531250Y-94406250D02*
X95406250Y-94406250D01*
X114970000Y-85500000D02*
X114970000Y-83500000D01*
X97030000Y-85000000D02*
X96000000Y-85000000D01*
X114970000Y-86970000D02*
X115500000Y-87500000D01*
X114970000Y-85500000D02*
X114970000Y-86970000D01*
X111485000Y-89985000D02*
X111500000Y-90000000D01*
X111485000Y-88000000D02*
X111485000Y-89985000D01*
X108331250Y-90806250D02*
X110006250Y-90806250D01*
X110006250Y-90806250D02*
X110200000Y-91000000D01*
X110500000Y-91000000D02*
X111500000Y-90000000D01*
X110200000Y-91000000D02*
X110500000Y-91000000D01*
X108331250Y-95206250D02*
X110293750Y-95206250D01*
X110293750Y-95206250D02*
X110500000Y-95000000D01*
X98031250Y-99106250D02*
X98031250Y-99571949D01*
X98031250Y-99106250D02*
X98031250Y-100468750D01*
X98031250Y-100468750D02*
X97500000Y-101000000D01*
X97500000Y-101000000D02*
X95000000Y-101000000D01*
X105231250Y-100908946D02*
X106322304Y-102000000D01*
X105231250Y-99106250D02*
X105231250Y-100908946D01*
X106322304Y-102000000D02*
X113000000Y-102000000D01*
X113000000Y-102000000D02*
X113400000Y-102000000D01*
X113400000Y-102000000D02*
X113500000Y-102100000D01*
X100470000Y-79015000D02*
X100485000Y-79000000D01*
X100470000Y-80030000D02*
X100500000Y-80000000D01*
X100470000Y-80030000D02*
X100470000Y-79015000D01*
X100470000Y-81000000D02*
X100470000Y-80030000D01*
X91200000Y-84000000D02*
X91200000Y-83300000D01*
X91200000Y-83300000D02*
X91500000Y-83000000D01*
X91500000Y-83000000D02*
X92500000Y-83000000D01*
X92500000Y-83000000D02*
X93000000Y-83500000D01*
X92100000Y-84500000D02*
X92500000Y-84500000D01*
X92500000Y-84500000D02*
X93000000Y-84000000D01*
X93000000Y-84000000D02*
X93000000Y-83500000D01*
X94470000Y-89560000D02*
X93530000Y-90500000D01*
X93530000Y-90500000D02*
X93530000Y-92500000D01*
X94959126Y-90006250D02*
X94512876Y-89560000D01*
X94512876Y-89560000D02*
X94470000Y-89560000D01*
X96531250Y-90006250D02*
X94959126Y-90006250D01*
X94500000Y-98000000D02*
X94500000Y-99000000D01*
X92190000Y-101310000D02*
X90770000Y-101310000D01*
X94500000Y-99000000D02*
X92190000Y-101310000D01*
X94000000Y-85000000D02*
X93000000Y-84000000D01*
X96000000Y-85000000D02*
X94000000Y-85000000D01*
X88500000Y-93500000D02*
X88500000Y-92500000D01*
X88500000Y-90500000D02*
X88500000Y-89500000D01*
X93530000Y-92500000D02*
X91500000Y-92500000D01*
X91500000Y-92500000D02*
X91500000Y-95000000D01*
X91500000Y-91470000D02*
X91500000Y-92500000D01*
X90530000Y-90500000D02*
X91500000Y-91470000D01*
X90530000Y-89272230D02*
X91200010Y-88602221D01*
X90530000Y-90500000D02*
X90530000Y-89272230D01*
X91200000Y-88602211D02*
X91200010Y-88602221D01*
X91200000Y-87000000D02*
X91200000Y-88602211D01*
X96830000Y-84800000D02*
X97030000Y-85000000D01*
X96830000Y-82800000D02*
X96830000Y-84800000D01*
X93530000Y-90577124D02*
X93530000Y-90500000D01*
X95359126Y-92406250D02*
X93530000Y-90577124D01*
X96531250Y-92406250D02*
X95359126Y-92406250D01*
X93530000Y-92530000D02*
X95000000Y-94000000D01*
X93530000Y-92500000D02*
X93530000Y-92530000D01*
%TO.N,+VBAT*%
X114000000Y-83500000D02*
X114000000Y-85500000D01*
X114000000Y-83500000D02*
X113299998Y-83500000D01*
X113299998Y-83500000D02*
X112899999Y-83899999D01*
X114230000Y-88770000D02*
X115500000Y-88770000D01*
X113841998Y-88770000D02*
X114230000Y-88770000D01*
X108331250Y-93606250D02*
X109005748Y-93606250D01*
X110305999Y-94305999D02*
X110305999Y-92305999D01*
X109805748Y-94806250D02*
X110305999Y-94305999D01*
X108331250Y-94806250D02*
X109805748Y-94806250D01*
X109005748Y-93606250D02*
X110305999Y-92305999D01*
X110305999Y-92305999D02*
X113841998Y-88770000D01*
X96531250Y-94806250D02*
X95193750Y-94806250D01*
X95193750Y-94806250D02*
X95000000Y-95000000D01*
X97631250Y-99106250D02*
X97631250Y-99868750D01*
X97631250Y-99868750D02*
X97000000Y-100500000D01*
X95500000Y-100500000D02*
X95000000Y-100000000D01*
X95000000Y-100000000D02*
X95000000Y-99500000D01*
X97000000Y-100500000D02*
X95500000Y-100500000D01*
X92389999Y-102110001D02*
X89110001Y-102110001D01*
X95000000Y-99500000D02*
X92389999Y-102110001D01*
X88699999Y-99570001D02*
X89500000Y-98770000D01*
X88699999Y-101699999D02*
X88699999Y-99570001D01*
X89110001Y-102110001D02*
X88699999Y-101699999D01*
X96531250Y-89606250D02*
X95606250Y-89606250D01*
X95606250Y-89606250D02*
X95299999Y-89299999D01*
X95299999Y-89299999D02*
X95299999Y-89200001D01*
%TO.N,+VDDD*%
X101631250Y-86696948D02*
X99500000Y-84565698D01*
X101631250Y-87306250D02*
X101631250Y-86696948D01*
X99500000Y-84565698D02*
X99500000Y-83500000D01*
X99500000Y-82600000D02*
X99500000Y-83500000D01*
X108331250Y-89606250D02*
X108828052Y-89606250D01*
X108828052Y-89606250D02*
X109500000Y-88934302D01*
X109500000Y-88934302D02*
X109500000Y-88000000D01*
X99500000Y-82600000D02*
X99500000Y-81000000D01*
X99500000Y-79015000D02*
X99515000Y-79000000D01*
X99500000Y-81000000D02*
X99500000Y-79015000D01*
X99300000Y-82800000D02*
X99500000Y-82600000D01*
X97800000Y-82800000D02*
X99300000Y-82800000D01*
%TO.N,+VDDIO*%
X101631250Y-99106250D02*
X101631250Y-102782720D01*
X101631250Y-102782720D02*
X101724265Y-102875735D01*
X89499989Y-97499989D02*
X89500000Y-97500000D01*
X88820000Y-91470000D02*
X89499989Y-92149989D01*
X88500000Y-91470000D02*
X88820000Y-91470000D01*
X88500000Y-94500022D02*
X89499989Y-95500011D01*
X88500000Y-94470000D02*
X88500000Y-94500022D01*
X89499989Y-92149989D02*
X89499989Y-95500011D01*
X89499989Y-95500011D02*
X89499989Y-97499989D01*
%TO.N,/scumsheet/AUX_LDO_OUTPUT*%
X108331250Y-90406250D02*
X109159448Y-90406250D01*
X109565698Y-90000000D02*
X110530000Y-90000000D01*
X109159448Y-90406250D02*
X109565698Y-90000000D01*
%TO.N,+VDD25*%
X96006250Y-92006250D02*
X94500000Y-90500000D01*
X96531250Y-92006250D02*
X96006250Y-92006250D01*
%TO.N,Net-(C22-Pad1)*%
X94678750Y-96806250D02*
X94485000Y-97000000D01*
X96531250Y-96806250D02*
X94678750Y-96806250D01*
%TO.N,+VDDAO*%
X100831250Y-87306250D02*
X100831250Y-86462646D01*
X99368604Y-85000000D02*
X98000000Y-85000000D01*
X100831250Y-86462646D02*
X99368604Y-85000000D01*
%TO.N,Net-(C25-Pad1)*%
X90800000Y-88436532D02*
X90000000Y-89236532D01*
X90800000Y-87000000D02*
X90800000Y-88436532D01*
X90530000Y-92048604D02*
X90530000Y-92500000D01*
X89934990Y-90142134D02*
X89934990Y-91453594D01*
X90000000Y-90077124D02*
X89934990Y-90142134D01*
X89934990Y-91453594D02*
X90530000Y-92048604D01*
X90000000Y-89236532D02*
X90000000Y-90077124D01*
%TO.N,/GPIO7*%
X101231250Y-99106250D02*
X101231250Y-102480748D01*
X101124264Y-102587734D02*
X101124264Y-104124264D01*
X101231250Y-102480748D02*
X101124264Y-102587734D01*
X102500000Y-105500000D02*
X102620000Y-105500000D01*
X101124264Y-104124264D02*
X102500000Y-105500000D01*
%TO.N,/GPIO5*%
X100431250Y-99106250D02*
X100431250Y-101568750D01*
X100431250Y-101568750D02*
X99500000Y-102500000D01*
X99500000Y-104920000D02*
X100080000Y-105500000D01*
X99500000Y-102500000D02*
X99500000Y-104920000D01*
%TO.N,/GPIO3*%
X99631250Y-101131543D02*
X97500000Y-103262793D01*
X99631250Y-99106250D02*
X99631250Y-101131543D01*
X97500000Y-105460000D02*
X97540000Y-105500000D01*
X97500000Y-103262793D02*
X97500000Y-105460000D01*
%TO.N,/GPIO1*%
X98831250Y-100800146D02*
X97631386Y-102000011D01*
X98831250Y-99106250D02*
X98831250Y-100800146D01*
X97631386Y-102000011D02*
X95499989Y-102000011D01*
X95000000Y-102500000D02*
X95000000Y-105500000D01*
X95499989Y-102000011D02*
X95000000Y-102500000D01*
%TO.N,/GPIO6*%
X100831250Y-99106250D02*
X100831250Y-101734448D01*
X100831250Y-101734448D02*
X100000000Y-102565698D01*
X100000000Y-104150000D02*
X101350000Y-105500000D01*
X100000000Y-102565698D02*
X100000000Y-104150000D01*
%TO.N,/GPIO4*%
X100031250Y-99106250D02*
X100031250Y-101297241D01*
X98810000Y-102518491D02*
X98810000Y-105500000D01*
X100031250Y-101297241D02*
X98810000Y-102518491D01*
%TO.N,/GPIO2*%
X99231250Y-100965845D02*
X97697095Y-102500000D01*
X99231250Y-99106250D02*
X99231250Y-100965845D01*
X97697095Y-102500000D02*
X96500000Y-102500000D01*
X96270000Y-105500000D02*
X96270000Y-102730000D01*
X96270000Y-102730000D02*
X96500000Y-102500000D01*
%TO.N,/GPIO0*%
X98431250Y-100634448D02*
X97465697Y-101600001D01*
X98431250Y-99106250D02*
X98431250Y-100634448D01*
X97465697Y-101600001D02*
X94899999Y-101600001D01*
X93730000Y-102770000D02*
X93730000Y-105500000D01*
X94899999Y-101600001D02*
X93730000Y-102770000D01*
%TO.N,Net-(R12-Pad2)*%
X102031250Y-87306250D02*
X102031250Y-86531250D01*
X100470000Y-84970000D02*
X100470000Y-83500000D01*
X102031250Y-86531250D02*
X100470000Y-84970000D01*
%TO.N,Net-(R13-Pad1)*%
X108331250Y-90006250D02*
X108993750Y-90006250D01*
X110515000Y-88485000D02*
X110515000Y-88000000D01*
X108993750Y-90006250D02*
X110515000Y-88485000D01*
%TO.N,Net-(R14-Pad1)*%
X94806250Y-92806250D02*
X94500000Y-92500000D01*
X96531250Y-92806250D02*
X94806250Y-92806250D01*
%TO.N,/3WB_DATA*%
X107231250Y-99106250D02*
X107231250Y-99665552D01*
X107231250Y-99665552D02*
X107465658Y-99899960D01*
X111990040Y-99899960D02*
X115500000Y-96390000D01*
X107465658Y-99899960D02*
X111990040Y-99899960D01*
%TO.N,/3WB_ENB*%
X106831250Y-99831250D02*
X107299970Y-100299970D01*
X106831250Y-99106250D02*
X106831250Y-99831250D01*
X112860030Y-100299970D02*
X115500000Y-97660000D01*
X107299970Y-100299970D02*
X112860030Y-100299970D01*
%TO.N,/3WB_CLK*%
X106431250Y-99106250D02*
X106431250Y-100411852D01*
X106431250Y-100411852D02*
X106719378Y-100699980D01*
X113730020Y-100699980D02*
X115500000Y-98930000D01*
X106719378Y-100699980D02*
X113730020Y-100699980D01*
%TO.N,/RsTx*%
X105631250Y-100743248D02*
X106388002Y-101500000D01*
X105631250Y-99106250D02*
X105631250Y-100743248D01*
X115470000Y-101500000D02*
X115500000Y-101470000D01*
X106388002Y-101500000D02*
X115470000Y-101500000D01*
%TO.N,/RsRx*%
X106031250Y-99106250D02*
X106031250Y-100577550D01*
X106031250Y-100577550D02*
X106553690Y-101099990D01*
X114600010Y-101099990D02*
X115500000Y-100200000D01*
X106553690Y-101099990D02*
X114600010Y-101099990D01*
%TO.N,Net-(LED1-Pad2)*%
X111493750Y-95606250D02*
X112000000Y-95100000D01*
X108331250Y-95606250D02*
X111493750Y-95606250D01*
%TO.N,/SENSOR_LDO_OUTPUT*%
X113413750Y-97206250D02*
X115500000Y-95120000D01*
X108331250Y-97206250D02*
X113413750Y-97206250D01*
%TO.N,/SENSOR_EXT_IN*%
X112543750Y-96806250D02*
X115500000Y-93850000D01*
X108331250Y-96806250D02*
X112543750Y-96806250D01*
%TO.N,/GPIO10*%
X102831250Y-101901250D02*
X106430000Y-105500000D01*
X102831250Y-99106250D02*
X102831250Y-101901250D01*
%TO.N,/GPIO9*%
X102431250Y-99106250D02*
X102431250Y-102066948D01*
X105160000Y-104795698D02*
X105160000Y-105500000D01*
X102431250Y-102066948D02*
X105160000Y-104795698D01*
%TO.N,/GPIO8*%
X103890000Y-104153468D02*
X103890000Y-105500000D01*
X102031250Y-102294718D02*
X103890000Y-104153468D01*
X102031250Y-99106250D02*
X102031250Y-102294718D01*
%TO.N,/BOOT_SOURCE_SEL*%
X108331250Y-94006250D02*
X109493750Y-94006250D01*
X109493750Y-94006250D02*
X109500000Y-94000000D01*
%TO.N,/IMU*%
X93985000Y-79515000D02*
X94000000Y-79500000D01*
X93985000Y-79515000D02*
X95000000Y-79515000D01*
X93000000Y-79515000D02*
X93985000Y-79515000D01*
%TO.N,/GPIO13*%
X104031250Y-99106250D02*
X104031250Y-101969853D01*
X106361386Y-104299989D02*
X107769989Y-104299989D01*
X107769989Y-104299989D02*
X108970000Y-105500000D01*
X104031250Y-101969853D02*
X106361386Y-104299989D01*
X89600000Y-82834302D02*
X90934302Y-81500000D01*
X89600000Y-84000000D02*
X89600000Y-82834302D01*
X90934302Y-81500000D02*
X91899990Y-81500000D01*
X91899990Y-81500000D02*
X92000000Y-81399990D01*
X92085010Y-81399990D02*
X93000000Y-80485000D01*
X92000000Y-81399990D02*
X92085010Y-81399990D01*
%TO.N,/GPIO14*%
X104431250Y-99106250D02*
X104431250Y-101804155D01*
X107935678Y-103899979D02*
X108735697Y-104699999D01*
X104431250Y-101804155D02*
X106527074Y-103899979D01*
X106527074Y-103899979D02*
X107935678Y-103899979D01*
X109439999Y-104699999D02*
X110240000Y-105500000D01*
X108735697Y-104699999D02*
X109439999Y-104699999D01*
X90000000Y-84000000D02*
X90000000Y-83000000D01*
X90000000Y-83000000D02*
X90500000Y-82500000D01*
X90500000Y-82500000D02*
X91000010Y-81999990D01*
X91000010Y-81999990D02*
X93500000Y-81999990D01*
X95000000Y-80499990D02*
X95000000Y-80485000D01*
X93500000Y-81999990D02*
X95000000Y-80499990D01*
%TO.N,/GPIO15*%
X104831250Y-99106250D02*
X104831250Y-101638457D01*
X108101367Y-103499969D02*
X108901387Y-104299989D01*
X104831250Y-101638457D02*
X106692762Y-103499969D01*
X106692762Y-103499969D02*
X108101367Y-103499969D01*
X110709999Y-104699999D02*
X111510000Y-105500000D01*
X110005698Y-104699999D02*
X110709999Y-104699999D01*
X109605688Y-104299989D02*
X110005698Y-104699999D01*
X108901387Y-104299989D02*
X109605688Y-104299989D01*
X90400000Y-84000000D02*
X90400000Y-83534302D01*
X91334311Y-82599990D02*
X94099990Y-82599990D01*
X90400000Y-83534302D02*
X91334311Y-82599990D01*
X94099990Y-82599990D02*
X94500000Y-83000000D01*
%TO.N,/GPIO12*%
X103631250Y-102135551D02*
X106195698Y-104699999D01*
X103631250Y-99106250D02*
X103631250Y-102135551D01*
X106899999Y-104699999D02*
X107700000Y-105500000D01*
X106195698Y-104699999D02*
X106899999Y-104699999D01*
X90400000Y-87000000D02*
X90400000Y-87948530D01*
X90400000Y-87948530D02*
X89674265Y-88674265D01*
%TO.N,/IMU_VDD*%
X92100000Y-86500000D02*
X92500000Y-86500000D01*
X92500000Y-86500000D02*
X93000000Y-87000000D01*
X93000000Y-89000000D02*
X91500000Y-90500000D01*
X93000000Y-87000000D02*
X93000000Y-89000000D01*
X91500000Y-90500000D02*
X91500000Y-89500000D01*
%TO.N,/IMU_VDDIO*%
X91570001Y-96040001D02*
X91570001Y-98429999D01*
X90530000Y-95000000D02*
X91570001Y-96040001D01*
X91230000Y-98770000D02*
X90770000Y-98770000D01*
X91570001Y-98429999D02*
X91230000Y-98770000D01*
X90000000Y-87000000D02*
X90000000Y-87500000D01*
X90000000Y-87500000D02*
X89000000Y-88500000D01*
X89934990Y-94404990D02*
X90530000Y-95000000D01*
X89934990Y-92019292D02*
X89934990Y-94404990D01*
X89500000Y-91584302D02*
X89934990Y-92019292D01*
X89500000Y-89611998D02*
X89500000Y-91584302D01*
X89000000Y-89111998D02*
X89500000Y-89611998D01*
X89000000Y-88500000D02*
X89000000Y-89111998D01*
%TD*%
M02*
