%TF.GenerationSoftware,KiCad,Pcbnew,(5.1.6)-1*%
%TF.CreationDate,2021-01-23T06:31:54-08:00*%
%TF.ProjectId,scum3c-devboard,7363756d-3363-42d6-9465-76626f617264,rev?*%
%TF.SameCoordinates,Original*%
%TF.FileFunction,Copper,L4,Bot*%
%TF.FilePolarity,Positive*%
%FSLAX46Y46*%
G04 Gerber Fmt 4.6, Leading zero omitted, Abs format (unit mm)*
G04 Created by KiCad (PCBNEW (5.1.6)-1) date 2021-01-23 06:31:54*
%MOMM*%
%LPD*%
G01*
G04 APERTURE LIST*
%TA.AperFunction,ComponentPad*%
%ADD10O,1.000000X1.000000*%
%TD*%
%TA.AperFunction,ComponentPad*%
%ADD11R,1.000000X1.000000*%
%TD*%
%TA.AperFunction,ComponentPad*%
%ADD12C,0.568750*%
%TD*%
%TA.AperFunction,ViaPad*%
%ADD13C,0.600000*%
%TD*%
%TA.AperFunction,Conductor*%
%ADD14C,0.200000*%
%TD*%
G04 APERTURE END LIST*
D10*
%TO.P,J2,8*%
%TO.N,GND*%
X90770000Y-101310000D03*
%TO.P,J2,7*%
X89500000Y-101310000D03*
%TO.P,J2,6*%
%TO.N,/IMU*%
X90770000Y-100040000D03*
%TO.P,J2,5*%
%TO.N,GND*%
X89500000Y-100040000D03*
%TO.P,J2,4*%
%TO.N,/IMU_VDDIO*%
X90770000Y-98770000D03*
%TO.P,J2,3*%
%TO.N,+VBAT*%
X89500000Y-98770000D03*
%TO.P,J2,2*%
%TO.N,/IMU_VDD*%
X90770000Y-97500000D03*
D11*
%TO.P,J2,1*%
%TO.N,+VDDIO*%
X89500000Y-97500000D03*
%TD*%
D10*
%TO.P,JA1,15*%
%TO.N,/GPIO15*%
X111510000Y-105500000D03*
%TO.P,JA1,14*%
%TO.N,/GPIO14*%
X110240000Y-105500000D03*
%TO.P,JA1,13*%
%TO.N,/GPIO13*%
X108970000Y-105500000D03*
%TO.P,JA1,12*%
%TO.N,/GPIO12*%
X107700000Y-105500000D03*
%TO.P,JA1,11*%
%TO.N,/GPIO10*%
X106430000Y-105500000D03*
%TO.P,JA1,10*%
%TO.N,/GPIO9*%
X105160000Y-105500000D03*
%TO.P,JA1,9*%
%TO.N,/GPIO8*%
X103890000Y-105500000D03*
%TO.P,JA1,8*%
%TO.N,/GPIO7*%
X102620000Y-105500000D03*
%TO.P,JA1,7*%
%TO.N,/GPIO6*%
X101350000Y-105500000D03*
%TO.P,JA1,6*%
%TO.N,/GPIO5*%
X100080000Y-105500000D03*
%TO.P,JA1,5*%
%TO.N,/GPIO4*%
X98810000Y-105500000D03*
%TO.P,JA1,4*%
%TO.N,/GPIO3*%
X97540000Y-105500000D03*
%TO.P,JA1,3*%
%TO.N,/GPIO2*%
X96270000Y-105500000D03*
%TO.P,JA1,2*%
%TO.N,/GPIO1*%
X95000000Y-105500000D03*
D11*
%TO.P,JA1,1*%
%TO.N,/GPIO0*%
X93730000Y-105500000D03*
%TD*%
D10*
%TO.P,JB1,12*%
%TO.N,/RsTx*%
X115500000Y-101470000D03*
%TO.P,JB1,11*%
%TO.N,/RsRx*%
X115500000Y-100200000D03*
%TO.P,JB1,10*%
%TO.N,/3WB_CLK*%
X115500000Y-98930000D03*
%TO.P,JB1,9*%
%TO.N,/3WB_ENB*%
X115500000Y-97660000D03*
%TO.P,JB1,8*%
%TO.N,/3WB_DATA*%
X115500000Y-96390000D03*
%TO.P,JB1,7*%
%TO.N,/SENSOR_LDO_OUTPUT*%
X115500000Y-95120000D03*
%TO.P,JB1,6*%
%TO.N,/SENSOR_EXT_IN*%
X115500000Y-93850000D03*
%TO.P,JB1,5*%
%TO.N,/BOOT_SOURCE_SEL*%
X115500000Y-92580000D03*
%TO.P,JB1,4*%
%TO.N,+VDDD*%
X115500000Y-91310000D03*
%TO.P,JB1,3*%
%TO.N,+VDDIO*%
X115500000Y-90040000D03*
%TO.P,JB1,2*%
%TO.N,+VBAT*%
X115500000Y-88770000D03*
D11*
%TO.P,JB1,1*%
%TO.N,GND*%
X115500000Y-87500000D03*
%TD*%
D12*
%TO.P,U8,101*%
%TO.N,GND*%
X106412500Y-97187500D03*
X106412500Y-96050000D03*
X106412500Y-94912500D03*
X106412500Y-93775000D03*
X106412500Y-92637500D03*
X106412500Y-91500000D03*
X106412500Y-90362500D03*
X106412500Y-89225000D03*
X105275000Y-97187500D03*
X105275000Y-96050000D03*
X105275000Y-94912500D03*
X105275000Y-93775000D03*
X105275000Y-92637500D03*
X105275000Y-91500000D03*
X105275000Y-90362500D03*
X105275000Y-89225000D03*
X104137500Y-97187500D03*
X104137500Y-96050000D03*
X104137500Y-94912500D03*
X104137500Y-93775000D03*
X104137500Y-92637500D03*
X104137500Y-91500000D03*
X104137500Y-90362500D03*
X104137500Y-89225000D03*
X103000000Y-97187500D03*
X103000000Y-96050000D03*
X103000000Y-94912500D03*
X103000000Y-93775000D03*
X103000000Y-92637500D03*
X103000000Y-91500000D03*
X103000000Y-90362500D03*
X103000000Y-89225000D03*
X101862500Y-97187500D03*
X101862500Y-96050000D03*
X101862500Y-94912500D03*
X101862500Y-93775000D03*
X101862500Y-92637500D03*
X101862500Y-91500000D03*
X101862500Y-90362500D03*
X101862500Y-89225000D03*
X100725000Y-97187500D03*
X100725000Y-96050000D03*
X100725000Y-94912500D03*
X100725000Y-93775000D03*
X100725000Y-92637500D03*
X100725000Y-91500000D03*
X100725000Y-90362500D03*
X100725000Y-89225000D03*
X99587500Y-97187500D03*
X99587500Y-96050000D03*
X99587500Y-94912500D03*
X99587500Y-93775000D03*
X99587500Y-92637500D03*
X99587500Y-91500000D03*
X99587500Y-90362500D03*
X99587500Y-89225000D03*
X98450000Y-97187500D03*
X98450000Y-96050000D03*
X98450000Y-94912500D03*
X98450000Y-93775000D03*
X98450000Y-92637500D03*
X98450000Y-91500000D03*
X98450000Y-90362500D03*
X98450000Y-89225000D03*
%TD*%
D13*
%TO.N,GND*%
X110000000Y-96206250D03*
X95000000Y-94000000D03*
X107000000Y-82000000D03*
X96000000Y-85000000D03*
X110200000Y-91000000D03*
X112000000Y-93000000D03*
X110500000Y-95000000D03*
X95000000Y-101000000D03*
X113500000Y-102100000D03*
X100500000Y-80000000D03*
X88500000Y-92500000D03*
X88500000Y-89500000D03*
%TO.N,+VBAT*%
X103150000Y-82000000D03*
X112899999Y-83899999D03*
X95000000Y-95000000D03*
X95000000Y-99500000D03*
X95299999Y-89200001D03*
%TO.N,+VDDD*%
X99500000Y-82600000D03*
X109500000Y-88000000D03*
%TO.N,+VDDIO*%
X101724265Y-102875735D03*
%TO.N,/BOOT_SOURCE_SEL*%
X109500000Y-94000000D03*
%TO.N,/IMU*%
X94000000Y-79500000D03*
%TO.N,/GPIO13*%
X92000000Y-81399990D03*
%TO.N,/GPIO14*%
X93500000Y-81999990D03*
%TO.N,/GPIO15*%
X94500000Y-83000000D03*
%TO.N,/GPIO12*%
X89674265Y-88674265D03*
%TO.N,/IMU_VDD*%
X91500000Y-89500000D03*
%TD*%
D14*
%TO.N,+VBAT*%
X95000000Y-89500000D02*
X95000000Y-93111998D01*
X95299999Y-89200001D02*
X95299999Y-82700001D01*
X95000000Y-89500000D02*
X95299999Y-89200001D01*
X95299999Y-82700001D02*
X96000000Y-82000000D01*
X96000000Y-82000000D02*
X103150000Y-82000000D01*
X103750001Y-82600001D02*
X111600001Y-82600001D01*
X103150000Y-82000000D02*
X103750001Y-82600001D01*
X111600001Y-82600001D02*
X112899999Y-83899999D01*
X113881998Y-88770000D02*
X115500000Y-88770000D01*
X112899999Y-87788001D02*
X113881998Y-88770000D01*
X112899999Y-83899999D02*
X112899999Y-87788001D01*
X94305999Y-94305999D02*
X94305999Y-93805999D01*
X95000000Y-95000000D02*
X94305999Y-94305999D01*
X95000000Y-93111998D02*
X94305999Y-93805999D01*
X95000000Y-99500000D02*
X95000000Y-95000000D01*
%TO.N,+VDDIO*%
X101724265Y-102875735D02*
X101724265Y-101275735D01*
X101724265Y-101275735D02*
X102500000Y-100500000D01*
X102500000Y-100500000D02*
X113500000Y-100500000D01*
X113500000Y-100500000D02*
X114000000Y-100000000D01*
X114000000Y-91540000D02*
X115500000Y-90040000D01*
X114000000Y-100000000D02*
X114000000Y-91540000D01*
X88699999Y-98300001D02*
X89500000Y-97500000D01*
X88699999Y-101694001D02*
X88699999Y-98300001D01*
X89881733Y-102875735D02*
X88699999Y-101694001D01*
X101724265Y-102875735D02*
X89881733Y-102875735D01*
%TO.N,/IMU*%
X94299999Y-82311999D02*
X93500000Y-83111998D01*
X94000000Y-79500000D02*
X94299999Y-79799999D01*
X94299999Y-79799999D02*
X94299999Y-82311999D01*
X93500000Y-83111998D02*
X93500000Y-99500000D01*
X92960000Y-100040000D02*
X90770000Y-100040000D01*
X93500000Y-99500000D02*
X92960000Y-100040000D01*
%TO.N,/IMU_VDD*%
X91500000Y-89500000D02*
X92500000Y-89500000D01*
X92500000Y-89500000D02*
X93000000Y-90000000D01*
X93000000Y-90000000D02*
X93000000Y-97000000D01*
X93000000Y-97000000D02*
X92500000Y-97500000D01*
X92500000Y-97500000D02*
X90770000Y-97500000D01*
%TD*%
M02*
