M48
;DRILL file {KiCad (5.0.2)-1} date 3/8/2021 5:39:03 PM
;FORMAT={-:-/ absolute / inch / decimal}
FMAT,2
INCH,TZ
T1C0.0112
T2C0.0118
T3C0.0157
T4C0.0300
T5C0.0394
T6C0.0551
T7C0.0591
%
G90
G05
T1
X8.1778Y-3.9769
X8.1778Y-4.0217
X8.1778Y-4.0665
X8.1778Y-4.1113
X8.1778Y-4.156
X8.1778Y-4.2008
X8.1778Y-4.2456
X8.1778Y-4.2904
X8.2226Y-3.9769
X8.2226Y-4.0217
X8.2226Y-4.0665
X8.2226Y-4.1113
X8.2226Y-4.156
X8.2226Y-4.2008
X8.2226Y-4.2456
X8.2226Y-4.2904
X8.2674Y-3.9769
X8.2674Y-4.0217
X8.2674Y-4.0665
X8.2674Y-4.1113
X8.2674Y-4.156
X8.2674Y-4.2008
X8.2674Y-4.2456
X8.2674Y-4.2904
X8.3122Y-3.9769
X8.3122Y-4.0217
X8.3122Y-4.0665
X8.3122Y-4.1113
X8.3122Y-4.156
X8.3122Y-4.2008
X8.3122Y-4.2456
X8.3122Y-4.2904
X8.3569Y-3.9769
X8.3569Y-4.0217
X8.3569Y-4.0665
X8.3569Y-4.1113
X8.3569Y-4.156
X8.3569Y-4.2008
X8.3569Y-4.2456
X8.3569Y-4.2904
X8.4017Y-3.9769
X8.4017Y-4.0217
X8.4017Y-4.0665
X8.4017Y-4.1113
X8.4017Y-4.156
X8.4017Y-4.2008
X8.4017Y-4.2456
X8.4017Y-4.2904
X8.4465Y-3.9769
X8.4465Y-4.0217
X8.4465Y-4.0665
X8.4465Y-4.1113
X8.4465Y-4.156
X8.4465Y-4.2008
X8.4465Y-4.2456
X8.4465Y-4.2904
X8.4913Y-3.9769
X8.4913Y-4.0217
X8.4913Y-4.0665
X8.4913Y-4.1113
X8.4913Y-4.156
X8.4913Y-4.2008
X8.4913Y-4.2456
X8.4913Y-4.2904
T2
X7.83Y-3.4675
X7.915Y-3.41
X7.9231Y-3.325
X7.935Y-4.075
X7.935Y-4.105
X7.94Y-4.045
X7.945Y-4.27
X7.95Y-3.295
X7.95Y-4.13
X7.954Y-4.299
X7.954Y-4.327
X7.955Y-4.215
X7.955Y-4.244
X7.9573Y-4.1867
X7.96Y-4.025
X7.975Y-3.43
X7.979Y-3.349
X7.98Y-3.535
X7.98Y-4.145
X7.982Y-4.327
X7.9875Y-3.9775
X7.9875Y-4.0075
X7.9875Y-4.0075
X8.011Y-4.327
X8.0125Y-3.9525
X8.015Y-4.145
X8.039Y-4.3287
X8.04Y-4.379
X8.045Y-3.4
X8.0453Y-3.9447
X8.0475Y-4.1425
X8.055Y-3.654
X8.055Y-3.687
X8.085Y-3.28
X8.085Y-4.465
X8.0952Y-4.426
X8.1Y-3.395
X8.11Y-3.815
X8.115Y-4.447
X8.133Y-4.424
X8.135Y-3.8419
X8.16Y-3.815
X8.165Y-3.44
X8.175Y-4.482
X8.176Y-4.7875
X8.179Y-4.529
X8.1813Y-3.7937
X8.2Y-3.815
X8.205Y-3.515
X8.22Y-3.835
X8.233Y-4.509
X8.24Y-3.66
X8.25Y-3.455
X8.25Y-3.59
X8.25Y-3.75
X8.26Y-3.825
X8.265Y-3.62
X8.2693Y-4.4873
X8.285Y-3.185
X8.285Y-3.69
X8.288Y-4.44
X8.29Y-3.737
X8.31Y-3.27
X8.311Y-4.477
X8.321Y-4.515
X8.33Y-3.69
X8.335Y-3.645
X8.355Y-3.67
X8.375Y-3.825
X8.385Y-3.775
X8.405Y-3.795
X8.41Y-3.845
X8.421Y-4.504
X8.44Y-3.815
X8.4423Y-3.785
X8.456Y-4.482
X8.463Y-4.452
X8.471Y-4.509
X8.474Y-4.424
X8.48Y-3.835
X8.485Y-3.67
X8.485Y-4.482
X8.5048Y-4.4498
X8.523Y-4.486
X8.5235Y-4.4235
X8.56Y-5.005
X8.5616Y-4.955
X8.565Y-3.785
X8.575Y-3.8401
X8.5906Y-4.815
X8.5906Y-4.865
X8.6Y-3.785
X8.6Y-3.815
X8.6Y-4.535
X8.605Y-4.765
X8.605Y-4.96
X8.625Y-3.9028
X8.635Y-3.28
X8.635Y-3.76
X8.635Y-3.815
X8.635Y-4.365
X8.6356Y-3.86
X8.6372Y-3.32
X8.639Y-3.977
X8.644Y-4.33
X8.6441Y-3.93
X8.645Y-3.665
X8.685Y-4.01
X8.69Y-4.04
X8.925Y-4.005
X8.965Y-4.72
X8.965Y-4.8394
X8.97Y-3.22
X8.97Y-3.285
X8.97Y-3.475
X8.97Y-3.5178
X8.97Y-3.64
T3
X7.715Y-3.96
X7.722Y-4.005
X7.725Y-3.505
X7.725Y-3.9
X7.86Y-4.105
X7.89Y-3.5775
X7.925Y-4.17
X7.983Y-4.835
X7.9915Y-3.2935
X8.02Y-3.9085
X8.02Y-4.02
X8.06Y-3.77
X8.068Y-3.606
X8.105Y-3.165
X8.115Y-5.016
X8.125Y-3.765
X8.1762Y-3.6438
X8.315Y-3.81
X8.345Y-3.18
X8.605Y-4.425
X8.64Y-4.62
X8.6628Y-4.1869
T4
X7.935Y-2.713
X7.935Y-2.813
X7.935Y-2.913
X7.935Y-3.013
X8.035Y-2.713
X8.035Y-2.813
X8.035Y-2.913
X8.035Y-3.013
X8.135Y-2.713
X8.135Y-2.813
X8.135Y-2.913
X8.135Y-3.013
X8.235Y-2.713
X8.235Y-2.813
X8.235Y-2.913
X8.235Y-3.013
X8.335Y-2.713
X8.335Y-2.813
X8.335Y-2.913
X8.335Y-3.013
X8.435Y-2.713
X8.435Y-2.813
X8.435Y-2.913
X8.435Y-3.013
X8.535Y-2.713
X8.535Y-2.813
X8.535Y-2.913
X8.535Y-3.013
X8.635Y-2.713
X8.635Y-2.813
X8.635Y-2.913
X8.635Y-3.013
T5
X7.736Y-4.431
X7.836Y-4.431
X7.936Y-4.431
X8.45Y-3.14
X8.55Y-3.14
X8.08Y-4.585
X8.08Y-4.685
X8.08Y-4.785
X7.736Y-4.573
X7.836Y-4.573
X7.936Y-4.573
X7.735Y-4.715
X7.735Y-4.815
X7.735Y-4.915
X7.735Y-5.015
X7.835Y-4.715
X7.835Y-4.815
X7.835Y-4.915
X7.835Y-5.015
X9.06Y-2.955
X9.06Y-3.055
X9.06Y-3.155
X9.06Y-3.255
X9.06Y-3.355
X9.06Y-3.455
X9.06Y-3.555
X9.06Y-3.655
X9.06Y-3.755
X9.06Y-3.855
X9.06Y-3.955
X9.06Y-4.055
X9.06Y-4.155
X9.06Y-4.255
X9.06Y-4.355
X9.06Y-4.455
X9.06Y-4.555
X9.06Y-4.655
X9.06Y-4.755
X9.06Y-4.855
X9.06Y-4.955
X9.06Y-5.055
X8.77Y-2.76
X8.77Y-2.86
X8.77Y-2.96
X8.87Y-2.76
X8.87Y-2.86
X8.87Y-2.96
X7.835Y-4.329
X8.785Y-4.09
X8.785Y-4.19
X8.785Y-4.29
X8.785Y-4.39
X8.785Y-4.49
X8.785Y-4.59
X8.885Y-4.09
X8.885Y-4.19
X8.885Y-4.29
X8.885Y-4.39
X8.885Y-4.49
X8.885Y-4.59
T6
X8.365Y-4.7
T7
X8.2646Y-4.5996
X8.2646Y-4.8004
X8.4654Y-4.5996
X8.4654Y-4.8004
T0
M30
