M48
;DRILL file {KiCad (5.0.2)-1} date 4/28/2021 3:40:09 PM
;FORMAT={-:-/ absolute / metric / decimal}
FMAT,2
METRIC,TZ
T1C0.284
T2C0.300
T3C0.400
T4C0.600
T5C0.762
T6C0.850
T7C1.000
T8C1.400
T9C1.500
%
G90
G05
T1
X207.716Y-101.013
X207.716Y-102.151
X207.716Y-103.288
X207.716Y-104.426
X207.716Y-105.563
X207.716Y-106.701
X207.716Y-107.838
X207.716Y-108.976
X208.854Y-101.013
X208.854Y-102.151
X208.854Y-103.288
X208.854Y-104.426
X208.854Y-105.563
X208.854Y-106.701
X208.854Y-107.838
X208.854Y-108.976
X209.991Y-101.013
X209.991Y-102.151
X209.991Y-103.288
X209.991Y-104.426
X209.991Y-105.563
X209.991Y-106.701
X209.991Y-107.838
X209.991Y-108.976
X211.129Y-101.013
X211.129Y-102.151
X211.129Y-103.288
X211.129Y-104.426
X211.129Y-105.563
X211.129Y-106.701
X211.129Y-107.838
X211.129Y-108.976
X212.266Y-101.013
X212.266Y-102.151
X212.266Y-103.288
X212.266Y-104.426
X212.266Y-105.563
X212.266Y-106.701
X212.266Y-107.838
X212.266Y-108.976
X213.404Y-101.013
X213.404Y-102.151
X213.404Y-103.288
X213.404Y-104.426
X213.404Y-105.563
X213.404Y-106.701
X213.404Y-107.838
X213.404Y-108.976
X214.541Y-101.013
X214.541Y-102.151
X214.541Y-103.288
X214.541Y-104.426
X214.541Y-105.563
X214.541Y-106.701
X214.541Y-107.838
X214.541Y-108.976
X215.679Y-101.013
X215.679Y-102.151
X215.679Y-103.288
X215.679Y-104.426
X215.679Y-105.563
X215.679Y-106.701
X215.679Y-107.838
X215.679Y-108.976
T2
X191.872Y-78.842
X192.126Y-80.112
X193.142Y-106.147
X195.174Y-69.952
X195.555Y-80.874
X195.809Y-93.193
X196.444Y-85.573
X196.469Y-86.995
X196.941Y-124.297
X197.206Y-83.795
X198.603Y-111.481
X198.984Y-90.145
X199.136Y-127.508
X199.238Y-79.858
X201.549Y-103.505
X201.549Y-104.267
X201.676Y-102.743
X201.803Y-108.458
X201.93Y-104.902
X202.032Y-109.195
X202.032Y-109.906
X202.057Y-107.061
X202.057Y-107.798
X202.115Y-106.342
X202.159Y-83.541
X202.311Y-102.298
X202.692Y-105.283
X202.743Y-109.906
X202.882Y-101.028
X202.882Y-101.79
X203.479Y-109.906
X203.517Y-100.393
X203.581Y-105.283
X203.708Y-102.108
X203.81Y-73.
X204.191Y-109.949
X204.216Y-111.227
X204.351Y-100.195
X204.406Y-105.219
X204.826Y-93.447
X204.953Y-78.207
X205.334Y-89.891
X205.359Y-113.411
X205.619Y-112.42
X205.715Y-93.955
X205.842Y-75.032
X205.994Y-96.901
X206.121Y-75.946
X206.121Y-112.954
X206.578Y-112.37
X206.629Y-97.583
X207.264Y-96.901
X207.645Y-113.843
X207.67Y-121.602
X207.747Y-115.037
X207.804Y-96.361
X208.001Y-84.557
X208.28Y-96.901
X208.636Y-114.529
X208.763Y-78.207
X208.788Y-97.409
X209.173Y-92.939
X209.271Y-113.767
X209.525Y-96.495
X209.55Y-95.25
X209.779Y-80.493
X210.033Y-113.259
X210.547Y-83.017
X210.668Y-80.874
X210.922Y-74.905
X210.972Y-85.573
X210.998Y-86.995
X211.099Y-113.716
X211.176Y-71.476
X211.176Y-77.791
X211.353Y-114.681
X212.725Y-97.155
X212.954Y-93.32
X212.954Y-94.082
X212.954Y-94.844
X212.979Y-95.885
X213.487Y-96.393
X213.614Y-97.663
X213.893Y-114.402
X213.97Y-94.082
X213.97Y-94.844
X214.376Y-96.901
X214.478Y-79.985
X214.732Y-95.606
X214.782Y-113.843
X214.96Y-113.081
X215.163Y-114.529
X215.24Y-97.638
X215.24Y-112.37
X215.367Y-79.985
X215.494Y-81.001
X215.519Y-113.843
X216.002Y-96.495
X216.021Y-113.024
X216.497Y-112.357
X217.145Y-80.366
X217.424Y-127.127
X218.161Y-93.066
X218.288Y-97.638
X218.567Y-121.031
X218.796Y-96.876
X219.177Y-98.781
X219.304Y-97.638
X219.431Y-84.811
X219.71Y-122.936
X219.71Y-124.206
X219.71Y-125.476
X219.812Y-109.83
X219.812Y-126.721
X219.939Y-102.083
X220.066Y-98.527
X220.447Y-99.797
X220.447Y-100.559
X220.574Y-72.619
X220.574Y-73.508
X220.828Y-97.638
X220.955Y-102.083
X221.082Y-71.857
X221.082Y-106.528
X221.336Y-82.906
X221.463Y-100.305
X221.463Y-101.067
X221.59Y-111.1
X221.717Y-112.497
X221.971Y-105.766
X222.225Y-67.666
X222.352Y-92.05
X229.235Y-101.727
X229.337Y-91.542
X229.464Y-84.43
X229.845Y-85.446
T3
X190.348Y-79.477
X196.317Y-79.857
X196.637Y-103.927
X196.825Y-111.354
X196.952Y-113.894
X197.508Y-128.196
X200.889Y-90.145
X201.524Y-94.717
X202.768Y-122.809
X203.302Y-92.685
X204.883Y-94.774
X205.4Y-121.707
X206.477Y-92.939
X206.604Y-95.987
X210.541Y-93.955
X215.302Y-84.557
X215.367Y-92.939
X218.796Y-80.62
X220.066Y-106.528
X220.32Y-113.767
X220.447Y-111.1
X221.336Y-113.64
X228.067Y-68.174
X229.845Y-118.339
T5
X200.279Y-59.182
X200.279Y-61.722
X200.279Y-64.262
X200.279Y-66.802
X202.819Y-59.182
X202.819Y-61.722
X202.819Y-64.262
X202.819Y-66.802
X205.359Y-59.182
X205.359Y-61.722
X205.359Y-64.262
X205.359Y-66.802
X207.899Y-59.182
X207.899Y-61.722
X207.899Y-64.262
X207.899Y-66.802
X210.439Y-59.182
X210.439Y-61.722
X210.439Y-64.262
X210.439Y-66.802
X212.979Y-59.182
X212.979Y-61.722
X212.979Y-64.262
X212.979Y-66.802
X215.519Y-59.182
X215.519Y-61.722
X215.519Y-64.262
X215.519Y-66.802
X218.059Y-59.182
X218.059Y-61.722
X218.059Y-64.262
X218.059Y-66.802
T6
X194.628Y-84.114
X194.628Y-89.114
T7
X191.491Y-68.682
X191.491Y-71.222
X191.491Y-73.762
X191.491Y-76.302
X194.031Y-68.682
X194.031Y-71.222
X194.031Y-73.762
X194.031Y-76.302
X224.46Y-93.091
X224.46Y-95.631
X224.46Y-98.171
X224.46Y-100.711
X224.46Y-103.251
X224.46Y-105.791
X224.46Y-108.331
X224.46Y-110.871
X224.46Y-113.411
X224.46Y-115.951
X227.Y-93.091
X227.Y-95.631
X227.Y-98.171
X227.Y-100.711
X227.Y-103.251
X227.Y-105.791
X227.Y-108.331
X227.Y-110.871
X227.Y-113.411
X227.Y-115.951
X232.791Y-73.914
X232.791Y-76.454
X232.791Y-78.994
X232.791Y-81.534
X232.791Y-84.074
X232.791Y-86.614
X232.791Y-89.154
X232.791Y-91.694
X232.791Y-94.234
X232.791Y-96.774
X232.791Y-99.314
X232.791Y-101.854
X232.791Y-104.394
X232.791Y-106.934
X232.791Y-109.474
X232.791Y-112.014
X232.791Y-114.554
X232.791Y-117.094
X232.791Y-119.634
X232.791Y-122.174
X232.791Y-124.714
X232.791Y-127.254
X232.791Y-129.794
X232.791Y-132.334
X224.028Y-60.325
X224.028Y-62.865
X224.028Y-65.405
X226.568Y-60.325
X226.568Y-62.865
X226.568Y-65.405
X191.872Y-97.384
X191.872Y-99.924
X191.872Y-102.464
X191.872Y-105.004
X191.872Y-107.544
X191.872Y-110.084
X191.872Y-112.624
X191.872Y-115.164
X191.872Y-117.704
X191.872Y-120.244
X191.872Y-122.784
X191.872Y-125.324
X191.872Y-127.864
X194.412Y-97.384
X194.412Y-99.924
X194.412Y-102.464
X194.412Y-105.004
X194.412Y-107.544
X194.412Y-110.084
X194.412Y-112.624
X194.412Y-115.164
X194.412Y-117.704
X194.412Y-120.244
X194.412Y-122.784
X194.412Y-125.324
X194.412Y-127.864
T8
X212.471Y-119.38
T9
X209.921Y-116.83
X209.921Y-121.93
X215.021Y-116.83
X215.021Y-121.93
T4
X192.278Y-83.114G85X191.578Y-83.114
G05
X192.278Y-90.114G85X191.578Y-90.114
G05
T0
M30
