%TF.GenerationSoftware,KiCad,Pcbnew,(5.0.2)-1*%
%TF.CreationDate,2021-03-08T17:37:58-08:00*%
%TF.ProjectId,scum3c-devboard,7363756d-3363-42d6-9465-76626f617264,rev?*%
%TF.SameCoordinates,Original*%
%TF.FileFunction,Soldermask,Bot*%
%TF.FilePolarity,Negative*%
%FSLAX46Y46*%
G04 Gerber Fmt 4.6, Leading zero omitted, Abs format (unit mm)*
G04 Created by KiCad (PCBNEW (5.0.2)-1) date 3/8/2021 5:37:58 PM*
%MOMM*%
%LPD*%
G01*
G04 APERTURE LIST*
%ADD10C,0.100000*%
G04 APERTURE END LIST*
D10*
G36*
X197370778Y-135988879D02*
X197616466Y-136090646D01*
X197837578Y-136238389D01*
X198025611Y-136426422D01*
X198173354Y-136647534D01*
X198275121Y-136893222D01*
X198327000Y-137154035D01*
X198327000Y-137419965D01*
X198275121Y-137680778D01*
X198173354Y-137926466D01*
X198025611Y-138147578D01*
X197837578Y-138335611D01*
X197616466Y-138483354D01*
X197370778Y-138585121D01*
X197109965Y-138637000D01*
X196844035Y-138637000D01*
X196583222Y-138585121D01*
X196337534Y-138483354D01*
X196116422Y-138335611D01*
X195928389Y-138147578D01*
X195780646Y-137926466D01*
X195678879Y-137680778D01*
X195627000Y-137419965D01*
X195627000Y-137154035D01*
X195678879Y-136893222D01*
X195780646Y-136647534D01*
X195928389Y-136426422D01*
X196116422Y-136238389D01*
X196337534Y-136090646D01*
X196583222Y-135988879D01*
X196844035Y-135937000D01*
X197109965Y-135937000D01*
X197370778Y-135988879D01*
X197370778Y-135988879D01*
G37*
G36*
X230461898Y-135954389D02*
X230707586Y-136056156D01*
X230928698Y-136203899D01*
X231116731Y-136391932D01*
X231264474Y-136613044D01*
X231366241Y-136858732D01*
X231418120Y-137119545D01*
X231418120Y-137385475D01*
X231366241Y-137646288D01*
X231264474Y-137891976D01*
X231116731Y-138113088D01*
X230928698Y-138301121D01*
X230707586Y-138448864D01*
X230461898Y-138550631D01*
X230201085Y-138602510D01*
X229935155Y-138602510D01*
X229674342Y-138550631D01*
X229428654Y-138448864D01*
X229207542Y-138301121D01*
X229019509Y-138113088D01*
X228871766Y-137891976D01*
X228769999Y-137646288D01*
X228718120Y-137385475D01*
X228718120Y-137119545D01*
X228769999Y-136858732D01*
X228871766Y-136613044D01*
X229019509Y-136391932D01*
X229207542Y-136203899D01*
X229428654Y-136056156D01*
X229674342Y-135954389D01*
X229935155Y-135902510D01*
X230201085Y-135902510D01*
X230461898Y-135954389D01*
X230461898Y-135954389D01*
G37*
G36*
X230974000Y-129247000D02*
X229274000Y-129247000D01*
X229274000Y-127547000D01*
X230974000Y-127547000D01*
X230974000Y-129247000D01*
X230974000Y-129247000D01*
G37*
G36*
X196635630Y-126543299D02*
X196795855Y-126591903D01*
X196943520Y-126670831D01*
X197072949Y-126777051D01*
X197179169Y-126906480D01*
X197258097Y-127054145D01*
X197306701Y-127214370D01*
X197323112Y-127381000D01*
X197306701Y-127547630D01*
X197258097Y-127707855D01*
X197179169Y-127855520D01*
X197072949Y-127984949D01*
X196943520Y-128091169D01*
X196795855Y-128170097D01*
X196635630Y-128218701D01*
X196510752Y-128231000D01*
X196427248Y-128231000D01*
X196302370Y-128218701D01*
X196142145Y-128170097D01*
X195994480Y-128091169D01*
X195865051Y-127984949D01*
X195758831Y-127855520D01*
X195679903Y-127707855D01*
X195631299Y-127547630D01*
X195614888Y-127381000D01*
X195631299Y-127214370D01*
X195679903Y-127054145D01*
X195758831Y-126906480D01*
X195865051Y-126777051D01*
X195994480Y-126670831D01*
X196142145Y-126591903D01*
X196302370Y-126543299D01*
X196427248Y-126531000D01*
X196510752Y-126531000D01*
X196635630Y-126543299D01*
X196635630Y-126543299D01*
G37*
G36*
X199175630Y-126543299D02*
X199335855Y-126591903D01*
X199483520Y-126670831D01*
X199612949Y-126777051D01*
X199719169Y-126906480D01*
X199798097Y-127054145D01*
X199846701Y-127214370D01*
X199863112Y-127381000D01*
X199846701Y-127547630D01*
X199798097Y-127707855D01*
X199719169Y-127855520D01*
X199612949Y-127984949D01*
X199483520Y-128091169D01*
X199335855Y-128170097D01*
X199175630Y-128218701D01*
X199050752Y-128231000D01*
X198967248Y-128231000D01*
X198842370Y-128218701D01*
X198682145Y-128170097D01*
X198534480Y-128091169D01*
X198405051Y-127984949D01*
X198298831Y-127855520D01*
X198219903Y-127707855D01*
X198171299Y-127547630D01*
X198154888Y-127381000D01*
X198171299Y-127214370D01*
X198219903Y-127054145D01*
X198298831Y-126906480D01*
X198405051Y-126777051D01*
X198534480Y-126670831D01*
X198682145Y-126591903D01*
X198842370Y-126543299D01*
X198967248Y-126531000D01*
X199050752Y-126531000D01*
X199175630Y-126543299D01*
X199175630Y-126543299D01*
G37*
G36*
X230290630Y-125019299D02*
X230450855Y-125067903D01*
X230598520Y-125146831D01*
X230727949Y-125253051D01*
X230834169Y-125382480D01*
X230913097Y-125530145D01*
X230961701Y-125690370D01*
X230978112Y-125857000D01*
X230961701Y-126023630D01*
X230913097Y-126183855D01*
X230834169Y-126331520D01*
X230727949Y-126460949D01*
X230598520Y-126567169D01*
X230450855Y-126646097D01*
X230290630Y-126694701D01*
X230165752Y-126707000D01*
X230082248Y-126707000D01*
X229957370Y-126694701D01*
X229797145Y-126646097D01*
X229649480Y-126567169D01*
X229520051Y-126460949D01*
X229413831Y-126331520D01*
X229334903Y-126183855D01*
X229286299Y-126023630D01*
X229269888Y-125857000D01*
X229286299Y-125690370D01*
X229334903Y-125530145D01*
X229413831Y-125382480D01*
X229520051Y-125253051D01*
X229649480Y-125146831D01*
X229797145Y-125067903D01*
X229957370Y-125019299D01*
X230082248Y-125007000D01*
X230165752Y-125007000D01*
X230290630Y-125019299D01*
X230290630Y-125019299D01*
G37*
G36*
X199175630Y-124003299D02*
X199335855Y-124051903D01*
X199483520Y-124130831D01*
X199612949Y-124237051D01*
X199719169Y-124366480D01*
X199798097Y-124514145D01*
X199846701Y-124674370D01*
X199863112Y-124841000D01*
X199846701Y-125007630D01*
X199798097Y-125167855D01*
X199719169Y-125315520D01*
X199612949Y-125444949D01*
X199483520Y-125551169D01*
X199335855Y-125630097D01*
X199175630Y-125678701D01*
X199050752Y-125691000D01*
X198967248Y-125691000D01*
X198842370Y-125678701D01*
X198682145Y-125630097D01*
X198534480Y-125551169D01*
X198405051Y-125444949D01*
X198298831Y-125315520D01*
X198219903Y-125167855D01*
X198171299Y-125007630D01*
X198154888Y-124841000D01*
X198171299Y-124674370D01*
X198219903Y-124514145D01*
X198298831Y-124366480D01*
X198405051Y-124237051D01*
X198534480Y-124130831D01*
X198682145Y-124051903D01*
X198842370Y-124003299D01*
X198967248Y-123991000D01*
X199050752Y-123991000D01*
X199175630Y-124003299D01*
X199175630Y-124003299D01*
G37*
G36*
X196635630Y-124003299D02*
X196795855Y-124051903D01*
X196943520Y-124130831D01*
X197072949Y-124237051D01*
X197179169Y-124366480D01*
X197258097Y-124514145D01*
X197306701Y-124674370D01*
X197323112Y-124841000D01*
X197306701Y-125007630D01*
X197258097Y-125167855D01*
X197179169Y-125315520D01*
X197072949Y-125444949D01*
X196943520Y-125551169D01*
X196795855Y-125630097D01*
X196635630Y-125678701D01*
X196510752Y-125691000D01*
X196427248Y-125691000D01*
X196302370Y-125678701D01*
X196142145Y-125630097D01*
X195994480Y-125551169D01*
X195865051Y-125444949D01*
X195758831Y-125315520D01*
X195679903Y-125167855D01*
X195631299Y-125007630D01*
X195614888Y-124841000D01*
X195631299Y-124674370D01*
X195679903Y-124514145D01*
X195758831Y-124366480D01*
X195865051Y-124237051D01*
X195994480Y-124130831D01*
X196142145Y-124051903D01*
X196302370Y-124003299D01*
X196427248Y-123991000D01*
X196510752Y-123991000D01*
X196635630Y-124003299D01*
X196635630Y-124003299D01*
G37*
G36*
X230290630Y-122479299D02*
X230450855Y-122527903D01*
X230598520Y-122606831D01*
X230727949Y-122713051D01*
X230834169Y-122842480D01*
X230913097Y-122990145D01*
X230961701Y-123150370D01*
X230978112Y-123317000D01*
X230961701Y-123483630D01*
X230913097Y-123643855D01*
X230834169Y-123791520D01*
X230727949Y-123920949D01*
X230598520Y-124027169D01*
X230450855Y-124106097D01*
X230290630Y-124154701D01*
X230165752Y-124167000D01*
X230082248Y-124167000D01*
X229957370Y-124154701D01*
X229797145Y-124106097D01*
X229649480Y-124027169D01*
X229520051Y-123920949D01*
X229413831Y-123791520D01*
X229334903Y-123643855D01*
X229286299Y-123483630D01*
X229269888Y-123317000D01*
X229286299Y-123150370D01*
X229334903Y-122990145D01*
X229413831Y-122842480D01*
X229520051Y-122713051D01*
X229649480Y-122606831D01*
X229797145Y-122527903D01*
X229957370Y-122479299D01*
X230082248Y-122467000D01*
X230165752Y-122467000D01*
X230290630Y-122479299D01*
X230290630Y-122479299D01*
G37*
G36*
X196635630Y-121463299D02*
X196795855Y-121511903D01*
X196943520Y-121590831D01*
X197072949Y-121697051D01*
X197179169Y-121826480D01*
X197258097Y-121974145D01*
X197306701Y-122134370D01*
X197323112Y-122301000D01*
X197306701Y-122467630D01*
X197258097Y-122627855D01*
X197179169Y-122775520D01*
X197072949Y-122904949D01*
X196943520Y-123011169D01*
X196795855Y-123090097D01*
X196635630Y-123138701D01*
X196510752Y-123151000D01*
X196427248Y-123151000D01*
X196302370Y-123138701D01*
X196142145Y-123090097D01*
X195994480Y-123011169D01*
X195865051Y-122904949D01*
X195758831Y-122775520D01*
X195679903Y-122627855D01*
X195631299Y-122467630D01*
X195614888Y-122301000D01*
X195631299Y-122134370D01*
X195679903Y-121974145D01*
X195758831Y-121826480D01*
X195865051Y-121697051D01*
X195994480Y-121590831D01*
X196142145Y-121511903D01*
X196302370Y-121463299D01*
X196427248Y-121451000D01*
X196510752Y-121451000D01*
X196635630Y-121463299D01*
X196635630Y-121463299D01*
G37*
G36*
X199175630Y-121463299D02*
X199335855Y-121511903D01*
X199483520Y-121590831D01*
X199612949Y-121697051D01*
X199719169Y-121826480D01*
X199798097Y-121974145D01*
X199846701Y-122134370D01*
X199863112Y-122301000D01*
X199846701Y-122467630D01*
X199798097Y-122627855D01*
X199719169Y-122775520D01*
X199612949Y-122904949D01*
X199483520Y-123011169D01*
X199335855Y-123090097D01*
X199175630Y-123138701D01*
X199050752Y-123151000D01*
X198967248Y-123151000D01*
X198842370Y-123138701D01*
X198682145Y-123090097D01*
X198534480Y-123011169D01*
X198405051Y-122904949D01*
X198298831Y-122775520D01*
X198219903Y-122627855D01*
X198171299Y-122467630D01*
X198154888Y-122301000D01*
X198171299Y-122134370D01*
X198219903Y-121974145D01*
X198298831Y-121826480D01*
X198405051Y-121697051D01*
X198534480Y-121590831D01*
X198682145Y-121511903D01*
X198842370Y-121463299D01*
X198967248Y-121451000D01*
X199050752Y-121451000D01*
X199175630Y-121463299D01*
X199175630Y-121463299D01*
G37*
G36*
X210086140Y-120815808D02*
X210249150Y-120848233D01*
X210453887Y-120933038D01*
X210635657Y-121054493D01*
X210638148Y-121056158D01*
X210794842Y-121212852D01*
X210794844Y-121212855D01*
X210917962Y-121397113D01*
X211002767Y-121601850D01*
X211046000Y-121819197D01*
X211046000Y-122040803D01*
X211002767Y-122258150D01*
X210917962Y-122462887D01*
X210906995Y-122479300D01*
X210794842Y-122647148D01*
X210638148Y-122803842D01*
X210638145Y-122803844D01*
X210453887Y-122926962D01*
X210249150Y-123011767D01*
X210086140Y-123044192D01*
X210031804Y-123055000D01*
X209810196Y-123055000D01*
X209755860Y-123044192D01*
X209592850Y-123011767D01*
X209388113Y-122926962D01*
X209203855Y-122803844D01*
X209203852Y-122803842D01*
X209047158Y-122647148D01*
X208935005Y-122479300D01*
X208924038Y-122462887D01*
X208839233Y-122258150D01*
X208796000Y-122040803D01*
X208796000Y-121819197D01*
X208839233Y-121601850D01*
X208924038Y-121397113D01*
X209047156Y-121212855D01*
X209047158Y-121212852D01*
X209203852Y-121056158D01*
X209206343Y-121054493D01*
X209388113Y-120933038D01*
X209592850Y-120848233D01*
X209755860Y-120815808D01*
X209810196Y-120805000D01*
X210031804Y-120805000D01*
X210086140Y-120815808D01*
X210086140Y-120815808D01*
G37*
G36*
X215186140Y-120815808D02*
X215349150Y-120848233D01*
X215553887Y-120933038D01*
X215735657Y-121054493D01*
X215738148Y-121056158D01*
X215894842Y-121212852D01*
X215894844Y-121212855D01*
X216017962Y-121397113D01*
X216102767Y-121601850D01*
X216146000Y-121819197D01*
X216146000Y-122040803D01*
X216102767Y-122258150D01*
X216017962Y-122462887D01*
X216006995Y-122479300D01*
X215894842Y-122647148D01*
X215738148Y-122803842D01*
X215738145Y-122803844D01*
X215553887Y-122926962D01*
X215349150Y-123011767D01*
X215186140Y-123044192D01*
X215131804Y-123055000D01*
X214910196Y-123055000D01*
X214855860Y-123044192D01*
X214692850Y-123011767D01*
X214488113Y-122926962D01*
X214303855Y-122803844D01*
X214303852Y-122803842D01*
X214147158Y-122647148D01*
X214035005Y-122479300D01*
X214024038Y-122462887D01*
X213939233Y-122258150D01*
X213896000Y-122040803D01*
X213896000Y-121819197D01*
X213939233Y-121601850D01*
X214024038Y-121397113D01*
X214147156Y-121212855D01*
X214147158Y-121212852D01*
X214303852Y-121056158D01*
X214306343Y-121054493D01*
X214488113Y-120933038D01*
X214692850Y-120848233D01*
X214855860Y-120815808D01*
X214910196Y-120805000D01*
X215131804Y-120805000D01*
X215186140Y-120815808D01*
X215186140Y-120815808D01*
G37*
G36*
X205398630Y-120701299D02*
X205558855Y-120749903D01*
X205706520Y-120828831D01*
X205835949Y-120935051D01*
X205942169Y-121064480D01*
X206021097Y-121212145D01*
X206069701Y-121372370D01*
X206086112Y-121539000D01*
X206069701Y-121705630D01*
X206021097Y-121865855D01*
X205942169Y-122013520D01*
X205835949Y-122142949D01*
X205706520Y-122249169D01*
X205558855Y-122328097D01*
X205398630Y-122376701D01*
X205273752Y-122389000D01*
X205190248Y-122389000D01*
X205065370Y-122376701D01*
X204905145Y-122328097D01*
X204757480Y-122249169D01*
X204628051Y-122142949D01*
X204521831Y-122013520D01*
X204442903Y-121865855D01*
X204394299Y-121705630D01*
X204377888Y-121539000D01*
X204394299Y-121372370D01*
X204442903Y-121212145D01*
X204521831Y-121064480D01*
X204628051Y-120935051D01*
X204757480Y-120828831D01*
X204905145Y-120749903D01*
X205065370Y-120701299D01*
X205190248Y-120689000D01*
X205273752Y-120689000D01*
X205398630Y-120701299D01*
X205398630Y-120701299D01*
G37*
G36*
X230290630Y-119939299D02*
X230450855Y-119987903D01*
X230598520Y-120066831D01*
X230727949Y-120173051D01*
X230834169Y-120302480D01*
X230913097Y-120450145D01*
X230961701Y-120610370D01*
X230978112Y-120777000D01*
X230961701Y-120943630D01*
X230913097Y-121103855D01*
X230834169Y-121251520D01*
X230727949Y-121380949D01*
X230598520Y-121487169D01*
X230450855Y-121566097D01*
X230290630Y-121614701D01*
X230165752Y-121627000D01*
X230082248Y-121627000D01*
X229957370Y-121614701D01*
X229797145Y-121566097D01*
X229649480Y-121487169D01*
X229520051Y-121380949D01*
X229413831Y-121251520D01*
X229334903Y-121103855D01*
X229286299Y-120943630D01*
X229269888Y-120777000D01*
X229286299Y-120610370D01*
X229334903Y-120450145D01*
X229413831Y-120302480D01*
X229520051Y-120173051D01*
X229649480Y-120066831D01*
X229797145Y-119987903D01*
X229957370Y-119939299D01*
X230082248Y-119927000D01*
X230165752Y-119927000D01*
X230290630Y-119939299D01*
X230290630Y-119939299D01*
G37*
G36*
X197319000Y-120611000D02*
X195619000Y-120611000D01*
X195619000Y-118911000D01*
X197319000Y-118911000D01*
X197319000Y-120611000D01*
X197319000Y-120611000D01*
G37*
G36*
X199175630Y-118923299D02*
X199335855Y-118971903D01*
X199483520Y-119050831D01*
X199612949Y-119157051D01*
X199719169Y-119286480D01*
X199798097Y-119434145D01*
X199846701Y-119594370D01*
X199863112Y-119761000D01*
X199846701Y-119927630D01*
X199798097Y-120087855D01*
X199719169Y-120235520D01*
X199612949Y-120364949D01*
X199483520Y-120471169D01*
X199335855Y-120550097D01*
X199175630Y-120598701D01*
X199050752Y-120611000D01*
X198967248Y-120611000D01*
X198842370Y-120598701D01*
X198682145Y-120550097D01*
X198534480Y-120471169D01*
X198405051Y-120364949D01*
X198298831Y-120235520D01*
X198219903Y-120087855D01*
X198171299Y-119927630D01*
X198154888Y-119761000D01*
X198171299Y-119594370D01*
X198219903Y-119434145D01*
X198298831Y-119286480D01*
X198405051Y-119157051D01*
X198534480Y-119050831D01*
X198682145Y-118971903D01*
X198842370Y-118923299D01*
X198967248Y-118911000D01*
X199050752Y-118911000D01*
X199175630Y-118923299D01*
X199175630Y-118923299D01*
G37*
G36*
X212596888Y-118334470D02*
X212777274Y-118370350D01*
X212968362Y-118449502D01*
X213140336Y-118564411D01*
X213286589Y-118710664D01*
X213401498Y-118882638D01*
X213480650Y-119073726D01*
X213521000Y-119276584D01*
X213521000Y-119483416D01*
X213480650Y-119686274D01*
X213401498Y-119877362D01*
X213286589Y-120049336D01*
X213140336Y-120195589D01*
X212968362Y-120310498D01*
X212777274Y-120389650D01*
X212596888Y-120425530D01*
X212574417Y-120430000D01*
X212367583Y-120430000D01*
X212345112Y-120425530D01*
X212164726Y-120389650D01*
X211973638Y-120310498D01*
X211801664Y-120195589D01*
X211655411Y-120049336D01*
X211540502Y-119877362D01*
X211461350Y-119686274D01*
X211421000Y-119483416D01*
X211421000Y-119276584D01*
X211461350Y-119073726D01*
X211540502Y-118882638D01*
X211655411Y-118710664D01*
X211801664Y-118564411D01*
X211973638Y-118449502D01*
X212164726Y-118370350D01*
X212345112Y-118334470D01*
X212367583Y-118330000D01*
X212574417Y-118330000D01*
X212596888Y-118334470D01*
X212596888Y-118334470D01*
G37*
G36*
X205398630Y-118161299D02*
X205558855Y-118209903D01*
X205706520Y-118288831D01*
X205835949Y-118395051D01*
X205942169Y-118524480D01*
X206021097Y-118672145D01*
X206069701Y-118832370D01*
X206086112Y-118999000D01*
X206069701Y-119165630D01*
X206021097Y-119325855D01*
X205942169Y-119473520D01*
X205835949Y-119602949D01*
X205706520Y-119709169D01*
X205558855Y-119788097D01*
X205398630Y-119836701D01*
X205273752Y-119849000D01*
X205190248Y-119849000D01*
X205065370Y-119836701D01*
X204905145Y-119788097D01*
X204757480Y-119709169D01*
X204628051Y-119602949D01*
X204521831Y-119473520D01*
X204442903Y-119325855D01*
X204394299Y-119165630D01*
X204377888Y-118999000D01*
X204394299Y-118832370D01*
X204442903Y-118672145D01*
X204521831Y-118524480D01*
X204628051Y-118395051D01*
X204757480Y-118288831D01*
X204905145Y-118209903D01*
X205065370Y-118161299D01*
X205190248Y-118149000D01*
X205273752Y-118149000D01*
X205398630Y-118161299D01*
X205398630Y-118161299D01*
G37*
G36*
X230290630Y-117399299D02*
X230450855Y-117447903D01*
X230598520Y-117526831D01*
X230727949Y-117633051D01*
X230834169Y-117762480D01*
X230913097Y-117910145D01*
X230961701Y-118070370D01*
X230978112Y-118237000D01*
X230961701Y-118403630D01*
X230913097Y-118563855D01*
X230834169Y-118711520D01*
X230727949Y-118840949D01*
X230598520Y-118947169D01*
X230450855Y-119026097D01*
X230290630Y-119074701D01*
X230165752Y-119087000D01*
X230082248Y-119087000D01*
X229957370Y-119074701D01*
X229797145Y-119026097D01*
X229649480Y-118947169D01*
X229520051Y-118840949D01*
X229413831Y-118711520D01*
X229334903Y-118563855D01*
X229286299Y-118403630D01*
X229269888Y-118237000D01*
X229286299Y-118070370D01*
X229334903Y-117910145D01*
X229413831Y-117762480D01*
X229520051Y-117633051D01*
X229649480Y-117526831D01*
X229797145Y-117447903D01*
X229957370Y-117399299D01*
X230082248Y-117387000D01*
X230165752Y-117387000D01*
X230290630Y-117399299D01*
X230290630Y-117399299D01*
G37*
G36*
X210086140Y-115715808D02*
X210249150Y-115748233D01*
X210453887Y-115833038D01*
X210453888Y-115833039D01*
X210638148Y-115956158D01*
X210794842Y-116112852D01*
X210794844Y-116112855D01*
X210917962Y-116297113D01*
X211002767Y-116501850D01*
X211046000Y-116719197D01*
X211046000Y-116940803D01*
X211002767Y-117158150D01*
X210917962Y-117362887D01*
X210917961Y-117362888D01*
X210794842Y-117547148D01*
X210638148Y-117703842D01*
X210638145Y-117703844D01*
X210453887Y-117826962D01*
X210249150Y-117911767D01*
X210086140Y-117944192D01*
X210031804Y-117955000D01*
X209810196Y-117955000D01*
X209755860Y-117944192D01*
X209592850Y-117911767D01*
X209388113Y-117826962D01*
X209203855Y-117703844D01*
X209203852Y-117703842D01*
X209047158Y-117547148D01*
X208924039Y-117362888D01*
X208924038Y-117362887D01*
X208839233Y-117158150D01*
X208796000Y-116940803D01*
X208796000Y-116719197D01*
X208839233Y-116501850D01*
X208924038Y-116297113D01*
X209047156Y-116112855D01*
X209047158Y-116112852D01*
X209203852Y-115956158D01*
X209388112Y-115833039D01*
X209388113Y-115833038D01*
X209592850Y-115748233D01*
X209755860Y-115715808D01*
X209810196Y-115705000D01*
X210031804Y-115705000D01*
X210086140Y-115715808D01*
X210086140Y-115715808D01*
G37*
G36*
X215186140Y-115715808D02*
X215349150Y-115748233D01*
X215553887Y-115833038D01*
X215553888Y-115833039D01*
X215738148Y-115956158D01*
X215894842Y-116112852D01*
X215894844Y-116112855D01*
X216017962Y-116297113D01*
X216102767Y-116501850D01*
X216146000Y-116719197D01*
X216146000Y-116940803D01*
X216102767Y-117158150D01*
X216017962Y-117362887D01*
X216017961Y-117362888D01*
X215894842Y-117547148D01*
X215738148Y-117703842D01*
X215738145Y-117703844D01*
X215553887Y-117826962D01*
X215349150Y-117911767D01*
X215186140Y-117944192D01*
X215131804Y-117955000D01*
X214910196Y-117955000D01*
X214855860Y-117944192D01*
X214692850Y-117911767D01*
X214488113Y-117826962D01*
X214303855Y-117703844D01*
X214303852Y-117703842D01*
X214147158Y-117547148D01*
X214024039Y-117362888D01*
X214024038Y-117362887D01*
X213939233Y-117158150D01*
X213896000Y-116940803D01*
X213896000Y-116719197D01*
X213939233Y-116501850D01*
X214024038Y-116297113D01*
X214147156Y-116112855D01*
X214147158Y-116112852D01*
X214303852Y-115956158D01*
X214488112Y-115833039D01*
X214488113Y-115833038D01*
X214692850Y-115748233D01*
X214855860Y-115715808D01*
X214910196Y-115705000D01*
X215131804Y-115705000D01*
X215186140Y-115715808D01*
X215186140Y-115715808D01*
G37*
G36*
X223305630Y-115748299D02*
X223465855Y-115796903D01*
X223613520Y-115875831D01*
X223742949Y-115982051D01*
X223849169Y-116111480D01*
X223928097Y-116259145D01*
X223976701Y-116419370D01*
X223993112Y-116586000D01*
X223976701Y-116752630D01*
X223928097Y-116912855D01*
X223849169Y-117060520D01*
X223742949Y-117189949D01*
X223613520Y-117296169D01*
X223465855Y-117375097D01*
X223305630Y-117423701D01*
X223180752Y-117436000D01*
X223097248Y-117436000D01*
X222972370Y-117423701D01*
X222812145Y-117375097D01*
X222664480Y-117296169D01*
X222535051Y-117189949D01*
X222428831Y-117060520D01*
X222349903Y-116912855D01*
X222301299Y-116752630D01*
X222284888Y-116586000D01*
X222301299Y-116419370D01*
X222349903Y-116259145D01*
X222428831Y-116111480D01*
X222535051Y-115982051D01*
X222664480Y-115875831D01*
X222812145Y-115796903D01*
X222972370Y-115748299D01*
X223097248Y-115736000D01*
X223180752Y-115736000D01*
X223305630Y-115748299D01*
X223305630Y-115748299D01*
G37*
G36*
X226529000Y-117436000D02*
X224829000Y-117436000D01*
X224829000Y-115736000D01*
X226529000Y-115736000D01*
X226529000Y-117436000D01*
X226529000Y-117436000D01*
G37*
G36*
X206082000Y-117309000D02*
X204382000Y-117309000D01*
X204382000Y-115609000D01*
X206082000Y-115609000D01*
X206082000Y-117309000D01*
X206082000Y-117309000D01*
G37*
G36*
X201741030Y-115316499D02*
X201901255Y-115365103D01*
X202048920Y-115444031D01*
X202178349Y-115550251D01*
X202284569Y-115679680D01*
X202363497Y-115827345D01*
X202412101Y-115987570D01*
X202428512Y-116154200D01*
X202412101Y-116320830D01*
X202363497Y-116481055D01*
X202284569Y-116628720D01*
X202178349Y-116758149D01*
X202048920Y-116864369D01*
X201901255Y-116943297D01*
X201741030Y-116991901D01*
X201616152Y-117004200D01*
X201532648Y-117004200D01*
X201407770Y-116991901D01*
X201247545Y-116943297D01*
X201099880Y-116864369D01*
X200970451Y-116758149D01*
X200864231Y-116628720D01*
X200785303Y-116481055D01*
X200736699Y-116320830D01*
X200720288Y-116154200D01*
X200736699Y-115987570D01*
X200785303Y-115827345D01*
X200864231Y-115679680D01*
X200970451Y-115550251D01*
X201099880Y-115444031D01*
X201247545Y-115365103D01*
X201407770Y-115316499D01*
X201532648Y-115304200D01*
X201616152Y-115304200D01*
X201741030Y-115316499D01*
X201741030Y-115316499D01*
G37*
G36*
X199201030Y-115316499D02*
X199361255Y-115365103D01*
X199508920Y-115444031D01*
X199638349Y-115550251D01*
X199744569Y-115679680D01*
X199823497Y-115827345D01*
X199872101Y-115987570D01*
X199888512Y-116154200D01*
X199872101Y-116320830D01*
X199823497Y-116481055D01*
X199744569Y-116628720D01*
X199638349Y-116758149D01*
X199508920Y-116864369D01*
X199361255Y-116943297D01*
X199201030Y-116991901D01*
X199076152Y-117004200D01*
X198992648Y-117004200D01*
X198867770Y-116991901D01*
X198707545Y-116943297D01*
X198559880Y-116864369D01*
X198430451Y-116758149D01*
X198324231Y-116628720D01*
X198245303Y-116481055D01*
X198196699Y-116320830D01*
X198180288Y-116154200D01*
X198196699Y-115987570D01*
X198245303Y-115827345D01*
X198324231Y-115679680D01*
X198430451Y-115550251D01*
X198559880Y-115444031D01*
X198707545Y-115365103D01*
X198867770Y-115316499D01*
X198992648Y-115304200D01*
X199076152Y-115304200D01*
X199201030Y-115316499D01*
X199201030Y-115316499D01*
G37*
G36*
X197344400Y-117004200D02*
X195644400Y-117004200D01*
X195644400Y-115304200D01*
X197344400Y-115304200D01*
X197344400Y-117004200D01*
X197344400Y-117004200D01*
G37*
G36*
X230290630Y-114859299D02*
X230450855Y-114907903D01*
X230598520Y-114986831D01*
X230727949Y-115093051D01*
X230834169Y-115222480D01*
X230913097Y-115370145D01*
X230961701Y-115530370D01*
X230978112Y-115697000D01*
X230961701Y-115863630D01*
X230913097Y-116023855D01*
X230834169Y-116171520D01*
X230727949Y-116300949D01*
X230598520Y-116407169D01*
X230450855Y-116486097D01*
X230290630Y-116534701D01*
X230165752Y-116547000D01*
X230082248Y-116547000D01*
X229957370Y-116534701D01*
X229797145Y-116486097D01*
X229649480Y-116407169D01*
X229520051Y-116300949D01*
X229413831Y-116171520D01*
X229334903Y-116023855D01*
X229286299Y-115863630D01*
X229269888Y-115697000D01*
X229286299Y-115530370D01*
X229334903Y-115370145D01*
X229413831Y-115222480D01*
X229520051Y-115093051D01*
X229649480Y-114986831D01*
X229797145Y-114907903D01*
X229957370Y-114859299D01*
X230082248Y-114847000D01*
X230165752Y-114847000D01*
X230290630Y-114859299D01*
X230290630Y-114859299D01*
G37*
G36*
X223305630Y-113208299D02*
X223465855Y-113256903D01*
X223613520Y-113335831D01*
X223742949Y-113442051D01*
X223849169Y-113571480D01*
X223928097Y-113719145D01*
X223976701Y-113879370D01*
X223993112Y-114046000D01*
X223976701Y-114212630D01*
X223928097Y-114372855D01*
X223849169Y-114520520D01*
X223742949Y-114649949D01*
X223613520Y-114756169D01*
X223465855Y-114835097D01*
X223305630Y-114883701D01*
X223180752Y-114896000D01*
X223097248Y-114896000D01*
X222972370Y-114883701D01*
X222812145Y-114835097D01*
X222664480Y-114756169D01*
X222535051Y-114649949D01*
X222428831Y-114520520D01*
X222349903Y-114372855D01*
X222301299Y-114212630D01*
X222284888Y-114046000D01*
X222301299Y-113879370D01*
X222349903Y-113719145D01*
X222428831Y-113571480D01*
X222535051Y-113442051D01*
X222664480Y-113335831D01*
X222812145Y-113256903D01*
X222972370Y-113208299D01*
X223097248Y-113196000D01*
X223180752Y-113196000D01*
X223305630Y-113208299D01*
X223305630Y-113208299D01*
G37*
G36*
X225845630Y-113208299D02*
X226005855Y-113256903D01*
X226153520Y-113335831D01*
X226282949Y-113442051D01*
X226389169Y-113571480D01*
X226468097Y-113719145D01*
X226516701Y-113879370D01*
X226533112Y-114046000D01*
X226516701Y-114212630D01*
X226468097Y-114372855D01*
X226389169Y-114520520D01*
X226282949Y-114649949D01*
X226153520Y-114756169D01*
X226005855Y-114835097D01*
X225845630Y-114883701D01*
X225720752Y-114896000D01*
X225637248Y-114896000D01*
X225512370Y-114883701D01*
X225352145Y-114835097D01*
X225204480Y-114756169D01*
X225075051Y-114649949D01*
X224968831Y-114520520D01*
X224889903Y-114372855D01*
X224841299Y-114212630D01*
X224824888Y-114046000D01*
X224841299Y-113879370D01*
X224889903Y-113719145D01*
X224968831Y-113571480D01*
X225075051Y-113442051D01*
X225204480Y-113335831D01*
X225352145Y-113256903D01*
X225512370Y-113208299D01*
X225637248Y-113196000D01*
X225720752Y-113196000D01*
X225845630Y-113208299D01*
X225845630Y-113208299D01*
G37*
G36*
X230290630Y-112319299D02*
X230450855Y-112367903D01*
X230598520Y-112446831D01*
X230727949Y-112553051D01*
X230834169Y-112682480D01*
X230913097Y-112830145D01*
X230961701Y-112990370D01*
X230978112Y-113157000D01*
X230961701Y-113323630D01*
X230913097Y-113483855D01*
X230834169Y-113631520D01*
X230727949Y-113760949D01*
X230598520Y-113867169D01*
X230450855Y-113946097D01*
X230290630Y-113994701D01*
X230165752Y-114007000D01*
X230082248Y-114007000D01*
X229957370Y-113994701D01*
X229797145Y-113946097D01*
X229649480Y-113867169D01*
X229520051Y-113760949D01*
X229413831Y-113631520D01*
X229334903Y-113483855D01*
X229286299Y-113323630D01*
X229269888Y-113157000D01*
X229286299Y-112990370D01*
X229334903Y-112830145D01*
X229413831Y-112682480D01*
X229520051Y-112553051D01*
X229649480Y-112446831D01*
X229797145Y-112367903D01*
X229957370Y-112319299D01*
X230082248Y-112307000D01*
X230165752Y-112307000D01*
X230290630Y-112319299D01*
X230290630Y-112319299D01*
G37*
G36*
X201741030Y-111709699D02*
X201901255Y-111758303D01*
X202048920Y-111837231D01*
X202178349Y-111943451D01*
X202284569Y-112072880D01*
X202363497Y-112220545D01*
X202412101Y-112380770D01*
X202428512Y-112547400D01*
X202412101Y-112714030D01*
X202363497Y-112874255D01*
X202284569Y-113021920D01*
X202178349Y-113151349D01*
X202048920Y-113257569D01*
X201901255Y-113336497D01*
X201741030Y-113385101D01*
X201616152Y-113397400D01*
X201532648Y-113397400D01*
X201407770Y-113385101D01*
X201247545Y-113336497D01*
X201099880Y-113257569D01*
X200970451Y-113151349D01*
X200864231Y-113021920D01*
X200785303Y-112874255D01*
X200736699Y-112714030D01*
X200720288Y-112547400D01*
X200736699Y-112380770D01*
X200785303Y-112220545D01*
X200864231Y-112072880D01*
X200970451Y-111943451D01*
X201099880Y-111837231D01*
X201247545Y-111758303D01*
X201407770Y-111709699D01*
X201532648Y-111697400D01*
X201616152Y-111697400D01*
X201741030Y-111709699D01*
X201741030Y-111709699D01*
G37*
G36*
X197344400Y-113397400D02*
X195644400Y-113397400D01*
X195644400Y-111697400D01*
X197344400Y-111697400D01*
X197344400Y-113397400D01*
X197344400Y-113397400D01*
G37*
G36*
X199201030Y-111709699D02*
X199361255Y-111758303D01*
X199508920Y-111837231D01*
X199638349Y-111943451D01*
X199744569Y-112072880D01*
X199823497Y-112220545D01*
X199872101Y-112380770D01*
X199888512Y-112547400D01*
X199872101Y-112714030D01*
X199823497Y-112874255D01*
X199744569Y-113021920D01*
X199638349Y-113151349D01*
X199508920Y-113257569D01*
X199361255Y-113336497D01*
X199201030Y-113385101D01*
X199076152Y-113397400D01*
X198992648Y-113397400D01*
X198867770Y-113385101D01*
X198707545Y-113336497D01*
X198559880Y-113257569D01*
X198430451Y-113151349D01*
X198324231Y-113021920D01*
X198245303Y-112874255D01*
X198196699Y-112714030D01*
X198180288Y-112547400D01*
X198196699Y-112380770D01*
X198245303Y-112220545D01*
X198324231Y-112072880D01*
X198430451Y-111943451D01*
X198559880Y-111837231D01*
X198707545Y-111758303D01*
X198867770Y-111709699D01*
X198992648Y-111697400D01*
X199076152Y-111697400D01*
X199201030Y-111709699D01*
X199201030Y-111709699D01*
G37*
G36*
X225845630Y-110668299D02*
X226005855Y-110716903D01*
X226153520Y-110795831D01*
X226282949Y-110902051D01*
X226389169Y-111031480D01*
X226468097Y-111179145D01*
X226516701Y-111339370D01*
X226533112Y-111506000D01*
X226516701Y-111672630D01*
X226468097Y-111832855D01*
X226389169Y-111980520D01*
X226282949Y-112109949D01*
X226153520Y-112216169D01*
X226005855Y-112295097D01*
X225845630Y-112343701D01*
X225720752Y-112356000D01*
X225637248Y-112356000D01*
X225512370Y-112343701D01*
X225352145Y-112295097D01*
X225204480Y-112216169D01*
X225075051Y-112109949D01*
X224968831Y-111980520D01*
X224889903Y-111832855D01*
X224841299Y-111672630D01*
X224824888Y-111506000D01*
X224841299Y-111339370D01*
X224889903Y-111179145D01*
X224968831Y-111031480D01*
X225075051Y-110902051D01*
X225204480Y-110795831D01*
X225352145Y-110716903D01*
X225512370Y-110668299D01*
X225637248Y-110656000D01*
X225720752Y-110656000D01*
X225845630Y-110668299D01*
X225845630Y-110668299D01*
G37*
G36*
X223305630Y-110668299D02*
X223465855Y-110716903D01*
X223613520Y-110795831D01*
X223742949Y-110902051D01*
X223849169Y-111031480D01*
X223928097Y-111179145D01*
X223976701Y-111339370D01*
X223993112Y-111506000D01*
X223976701Y-111672630D01*
X223928097Y-111832855D01*
X223849169Y-111980520D01*
X223742949Y-112109949D01*
X223613520Y-112216169D01*
X223465855Y-112295097D01*
X223305630Y-112343701D01*
X223180752Y-112356000D01*
X223097248Y-112356000D01*
X222972370Y-112343701D01*
X222812145Y-112295097D01*
X222664480Y-112216169D01*
X222535051Y-112109949D01*
X222428831Y-111980520D01*
X222349903Y-111832855D01*
X222301299Y-111672630D01*
X222284888Y-111506000D01*
X222301299Y-111339370D01*
X222349903Y-111179145D01*
X222428831Y-111031480D01*
X222535051Y-110902051D01*
X222664480Y-110795831D01*
X222812145Y-110716903D01*
X222972370Y-110668299D01*
X223097248Y-110656000D01*
X223180752Y-110656000D01*
X223305630Y-110668299D01*
X223305630Y-110668299D01*
G37*
G36*
X230290630Y-109779299D02*
X230450855Y-109827903D01*
X230598520Y-109906831D01*
X230727949Y-110013051D01*
X230834169Y-110142480D01*
X230913097Y-110290145D01*
X230961701Y-110450370D01*
X230978112Y-110617000D01*
X230961701Y-110783630D01*
X230913097Y-110943855D01*
X230834169Y-111091520D01*
X230727949Y-111220949D01*
X230598520Y-111327169D01*
X230450855Y-111406097D01*
X230290630Y-111454701D01*
X230165752Y-111467000D01*
X230082248Y-111467000D01*
X229957370Y-111454701D01*
X229797145Y-111406097D01*
X229649480Y-111327169D01*
X229520051Y-111220949D01*
X229413831Y-111091520D01*
X229334903Y-110943855D01*
X229286299Y-110783630D01*
X229269888Y-110617000D01*
X229286299Y-110450370D01*
X229334903Y-110290145D01*
X229413831Y-110142480D01*
X229520051Y-110013051D01*
X229649480Y-109906831D01*
X229797145Y-109827903D01*
X229957370Y-109779299D01*
X230082248Y-109767000D01*
X230165752Y-109767000D01*
X230290630Y-109779299D01*
X230290630Y-109779299D01*
G37*
G36*
X199859000Y-110806600D02*
X198159000Y-110806600D01*
X198159000Y-109106600D01*
X199859000Y-109106600D01*
X199859000Y-110806600D01*
X199859000Y-110806600D01*
G37*
G36*
X223305630Y-108128299D02*
X223465855Y-108176903D01*
X223613520Y-108255831D01*
X223742949Y-108362051D01*
X223849169Y-108491480D01*
X223928097Y-108639145D01*
X223976701Y-108799370D01*
X223993112Y-108966000D01*
X223976701Y-109132630D01*
X223928097Y-109292855D01*
X223849169Y-109440520D01*
X223742949Y-109569949D01*
X223613520Y-109676169D01*
X223465855Y-109755097D01*
X223305630Y-109803701D01*
X223180752Y-109816000D01*
X223097248Y-109816000D01*
X222972370Y-109803701D01*
X222812145Y-109755097D01*
X222664480Y-109676169D01*
X222535051Y-109569949D01*
X222428831Y-109440520D01*
X222349903Y-109292855D01*
X222301299Y-109132630D01*
X222284888Y-108966000D01*
X222301299Y-108799370D01*
X222349903Y-108639145D01*
X222428831Y-108491480D01*
X222535051Y-108362051D01*
X222664480Y-108255831D01*
X222812145Y-108176903D01*
X222972370Y-108128299D01*
X223097248Y-108116000D01*
X223180752Y-108116000D01*
X223305630Y-108128299D01*
X223305630Y-108128299D01*
G37*
G36*
X225845630Y-108128299D02*
X226005855Y-108176903D01*
X226153520Y-108255831D01*
X226282949Y-108362051D01*
X226389169Y-108491480D01*
X226468097Y-108639145D01*
X226516701Y-108799370D01*
X226533112Y-108966000D01*
X226516701Y-109132630D01*
X226468097Y-109292855D01*
X226389169Y-109440520D01*
X226282949Y-109569949D01*
X226153520Y-109676169D01*
X226005855Y-109755097D01*
X225845630Y-109803701D01*
X225720752Y-109816000D01*
X225637248Y-109816000D01*
X225512370Y-109803701D01*
X225352145Y-109755097D01*
X225204480Y-109676169D01*
X225075051Y-109569949D01*
X224968831Y-109440520D01*
X224889903Y-109292855D01*
X224841299Y-109132630D01*
X224824888Y-108966000D01*
X224841299Y-108799370D01*
X224889903Y-108639145D01*
X224968831Y-108491480D01*
X225075051Y-108362051D01*
X225204480Y-108255831D01*
X225352145Y-108176903D01*
X225512370Y-108128299D01*
X225637248Y-108116000D01*
X225720752Y-108116000D01*
X225845630Y-108128299D01*
X225845630Y-108128299D01*
G37*
G36*
X208936571Y-108702313D02*
X208988318Y-108723747D01*
X208988322Y-108723750D01*
X209034899Y-108754871D01*
X209074509Y-108794481D01*
X209100515Y-108833403D01*
X209105633Y-108841062D01*
X209127067Y-108892809D01*
X209137995Y-108947750D01*
X209137995Y-109003770D01*
X209127067Y-109058711D01*
X209105633Y-109110458D01*
X209105630Y-109110462D01*
X209074509Y-109157039D01*
X209034899Y-109196649D01*
X208995977Y-109222655D01*
X208988318Y-109227773D01*
X208936571Y-109249207D01*
X208881630Y-109260135D01*
X208825610Y-109260135D01*
X208770669Y-109249207D01*
X208718922Y-109227773D01*
X208711263Y-109222655D01*
X208672341Y-109196649D01*
X208632731Y-109157039D01*
X208601610Y-109110462D01*
X208601607Y-109110458D01*
X208580173Y-109058711D01*
X208569245Y-109003770D01*
X208569245Y-108947750D01*
X208580173Y-108892809D01*
X208601607Y-108841062D01*
X208606725Y-108833403D01*
X208632731Y-108794481D01*
X208672341Y-108754871D01*
X208718918Y-108723750D01*
X208718922Y-108723747D01*
X208770669Y-108702313D01*
X208825610Y-108691385D01*
X208881630Y-108691385D01*
X208936571Y-108702313D01*
X208936571Y-108702313D01*
G37*
G36*
X215761571Y-108702313D02*
X215813318Y-108723747D01*
X215813322Y-108723750D01*
X215859899Y-108754871D01*
X215899509Y-108794481D01*
X215925515Y-108833403D01*
X215930633Y-108841062D01*
X215952067Y-108892809D01*
X215962995Y-108947750D01*
X215962995Y-109003770D01*
X215952067Y-109058711D01*
X215930633Y-109110458D01*
X215930630Y-109110462D01*
X215899509Y-109157039D01*
X215859899Y-109196649D01*
X215820977Y-109222655D01*
X215813318Y-109227773D01*
X215761571Y-109249207D01*
X215706630Y-109260135D01*
X215650610Y-109260135D01*
X215595669Y-109249207D01*
X215543922Y-109227773D01*
X215536263Y-109222655D01*
X215497341Y-109196649D01*
X215457731Y-109157039D01*
X215426610Y-109110462D01*
X215426607Y-109110458D01*
X215405173Y-109058711D01*
X215394245Y-109003770D01*
X215394245Y-108947750D01*
X215405173Y-108892809D01*
X215426607Y-108841062D01*
X215431725Y-108833403D01*
X215457731Y-108794481D01*
X215497341Y-108754871D01*
X215543918Y-108723750D01*
X215543922Y-108723747D01*
X215595669Y-108702313D01*
X215650610Y-108691385D01*
X215706630Y-108691385D01*
X215761571Y-108702313D01*
X215761571Y-108702313D01*
G37*
G36*
X214624071Y-108702313D02*
X214675818Y-108723747D01*
X214675822Y-108723750D01*
X214722399Y-108754871D01*
X214762009Y-108794481D01*
X214788015Y-108833403D01*
X214793133Y-108841062D01*
X214814567Y-108892809D01*
X214825495Y-108947750D01*
X214825495Y-109003770D01*
X214814567Y-109058711D01*
X214793133Y-109110458D01*
X214793130Y-109110462D01*
X214762009Y-109157039D01*
X214722399Y-109196649D01*
X214683477Y-109222655D01*
X214675818Y-109227773D01*
X214624071Y-109249207D01*
X214569130Y-109260135D01*
X214513110Y-109260135D01*
X214458169Y-109249207D01*
X214406422Y-109227773D01*
X214398763Y-109222655D01*
X214359841Y-109196649D01*
X214320231Y-109157039D01*
X214289110Y-109110462D01*
X214289107Y-109110458D01*
X214267673Y-109058711D01*
X214256745Y-109003770D01*
X214256745Y-108947750D01*
X214267673Y-108892809D01*
X214289107Y-108841062D01*
X214294225Y-108833403D01*
X214320231Y-108794481D01*
X214359841Y-108754871D01*
X214406418Y-108723750D01*
X214406422Y-108723747D01*
X214458169Y-108702313D01*
X214513110Y-108691385D01*
X214569130Y-108691385D01*
X214624071Y-108702313D01*
X214624071Y-108702313D01*
G37*
G36*
X213486571Y-108702313D02*
X213538318Y-108723747D01*
X213538322Y-108723750D01*
X213584899Y-108754871D01*
X213624509Y-108794481D01*
X213650515Y-108833403D01*
X213655633Y-108841062D01*
X213677067Y-108892809D01*
X213687995Y-108947750D01*
X213687995Y-109003770D01*
X213677067Y-109058711D01*
X213655633Y-109110458D01*
X213655630Y-109110462D01*
X213624509Y-109157039D01*
X213584899Y-109196649D01*
X213545977Y-109222655D01*
X213538318Y-109227773D01*
X213486571Y-109249207D01*
X213431630Y-109260135D01*
X213375610Y-109260135D01*
X213320669Y-109249207D01*
X213268922Y-109227773D01*
X213261263Y-109222655D01*
X213222341Y-109196649D01*
X213182731Y-109157039D01*
X213151610Y-109110462D01*
X213151607Y-109110458D01*
X213130173Y-109058711D01*
X213119245Y-109003770D01*
X213119245Y-108947750D01*
X213130173Y-108892809D01*
X213151607Y-108841062D01*
X213156725Y-108833403D01*
X213182731Y-108794481D01*
X213222341Y-108754871D01*
X213268918Y-108723750D01*
X213268922Y-108723747D01*
X213320669Y-108702313D01*
X213375610Y-108691385D01*
X213431630Y-108691385D01*
X213486571Y-108702313D01*
X213486571Y-108702313D01*
G37*
G36*
X211211571Y-108702313D02*
X211263318Y-108723747D01*
X211263322Y-108723750D01*
X211309899Y-108754871D01*
X211349509Y-108794481D01*
X211375515Y-108833403D01*
X211380633Y-108841062D01*
X211402067Y-108892809D01*
X211412995Y-108947750D01*
X211412995Y-109003770D01*
X211402067Y-109058711D01*
X211380633Y-109110458D01*
X211380630Y-109110462D01*
X211349509Y-109157039D01*
X211309899Y-109196649D01*
X211270977Y-109222655D01*
X211263318Y-109227773D01*
X211211571Y-109249207D01*
X211156630Y-109260135D01*
X211100610Y-109260135D01*
X211045669Y-109249207D01*
X210993922Y-109227773D01*
X210986263Y-109222655D01*
X210947341Y-109196649D01*
X210907731Y-109157039D01*
X210876610Y-109110462D01*
X210876607Y-109110458D01*
X210855173Y-109058711D01*
X210844245Y-109003770D01*
X210844245Y-108947750D01*
X210855173Y-108892809D01*
X210876607Y-108841062D01*
X210881725Y-108833403D01*
X210907731Y-108794481D01*
X210947341Y-108754871D01*
X210993918Y-108723750D01*
X210993922Y-108723747D01*
X211045669Y-108702313D01*
X211100610Y-108691385D01*
X211156630Y-108691385D01*
X211211571Y-108702313D01*
X211211571Y-108702313D01*
G37*
G36*
X212349071Y-108702313D02*
X212400818Y-108723747D01*
X212400822Y-108723750D01*
X212447399Y-108754871D01*
X212487009Y-108794481D01*
X212513015Y-108833403D01*
X212518133Y-108841062D01*
X212539567Y-108892809D01*
X212550495Y-108947750D01*
X212550495Y-109003770D01*
X212539567Y-109058711D01*
X212518133Y-109110458D01*
X212518130Y-109110462D01*
X212487009Y-109157039D01*
X212447399Y-109196649D01*
X212408477Y-109222655D01*
X212400818Y-109227773D01*
X212349071Y-109249207D01*
X212294130Y-109260135D01*
X212238110Y-109260135D01*
X212183169Y-109249207D01*
X212131422Y-109227773D01*
X212123763Y-109222655D01*
X212084841Y-109196649D01*
X212045231Y-109157039D01*
X212014110Y-109110462D01*
X212014107Y-109110458D01*
X211992673Y-109058711D01*
X211981745Y-109003770D01*
X211981745Y-108947750D01*
X211992673Y-108892809D01*
X212014107Y-108841062D01*
X212019225Y-108833403D01*
X212045231Y-108794481D01*
X212084841Y-108754871D01*
X212131418Y-108723750D01*
X212131422Y-108723747D01*
X212183169Y-108702313D01*
X212238110Y-108691385D01*
X212294130Y-108691385D01*
X212349071Y-108702313D01*
X212349071Y-108702313D01*
G37*
G36*
X207799071Y-108702313D02*
X207850818Y-108723747D01*
X207850822Y-108723750D01*
X207897399Y-108754871D01*
X207937009Y-108794481D01*
X207963015Y-108833403D01*
X207968133Y-108841062D01*
X207989567Y-108892809D01*
X208000495Y-108947750D01*
X208000495Y-109003770D01*
X207989567Y-109058711D01*
X207968133Y-109110458D01*
X207968130Y-109110462D01*
X207937009Y-109157039D01*
X207897399Y-109196649D01*
X207858477Y-109222655D01*
X207850818Y-109227773D01*
X207799071Y-109249207D01*
X207744130Y-109260135D01*
X207688110Y-109260135D01*
X207633169Y-109249207D01*
X207581422Y-109227773D01*
X207573763Y-109222655D01*
X207534841Y-109196649D01*
X207495231Y-109157039D01*
X207464110Y-109110462D01*
X207464107Y-109110458D01*
X207442673Y-109058711D01*
X207431745Y-109003770D01*
X207431745Y-108947750D01*
X207442673Y-108892809D01*
X207464107Y-108841062D01*
X207469225Y-108833403D01*
X207495231Y-108794481D01*
X207534841Y-108754871D01*
X207581418Y-108723750D01*
X207581422Y-108723747D01*
X207633169Y-108702313D01*
X207688110Y-108691385D01*
X207744130Y-108691385D01*
X207799071Y-108702313D01*
X207799071Y-108702313D01*
G37*
G36*
X210074071Y-108702313D02*
X210125818Y-108723747D01*
X210125822Y-108723750D01*
X210172399Y-108754871D01*
X210212009Y-108794481D01*
X210238015Y-108833403D01*
X210243133Y-108841062D01*
X210264567Y-108892809D01*
X210275495Y-108947750D01*
X210275495Y-109003770D01*
X210264567Y-109058711D01*
X210243133Y-109110458D01*
X210243130Y-109110462D01*
X210212009Y-109157039D01*
X210172399Y-109196649D01*
X210133477Y-109222655D01*
X210125818Y-109227773D01*
X210074071Y-109249207D01*
X210019130Y-109260135D01*
X209963110Y-109260135D01*
X209908169Y-109249207D01*
X209856422Y-109227773D01*
X209848763Y-109222655D01*
X209809841Y-109196649D01*
X209770231Y-109157039D01*
X209739110Y-109110462D01*
X209739107Y-109110458D01*
X209717673Y-109058711D01*
X209706745Y-109003770D01*
X209706745Y-108947750D01*
X209717673Y-108892809D01*
X209739107Y-108841062D01*
X209744225Y-108833403D01*
X209770231Y-108794481D01*
X209809841Y-108754871D01*
X209856418Y-108723750D01*
X209856422Y-108723747D01*
X209908169Y-108702313D01*
X209963110Y-108691385D01*
X210019130Y-108691385D01*
X210074071Y-108702313D01*
X210074071Y-108702313D01*
G37*
G36*
X230290630Y-107239299D02*
X230450855Y-107287903D01*
X230598520Y-107366831D01*
X230727949Y-107473051D01*
X230834169Y-107602480D01*
X230913097Y-107750145D01*
X230961701Y-107910370D01*
X230978112Y-108077000D01*
X230961701Y-108243630D01*
X230913097Y-108403855D01*
X230834169Y-108551520D01*
X230727949Y-108680949D01*
X230598520Y-108787169D01*
X230450855Y-108866097D01*
X230290630Y-108914701D01*
X230165752Y-108927000D01*
X230082248Y-108927000D01*
X229957370Y-108914701D01*
X229797145Y-108866097D01*
X229649480Y-108787169D01*
X229520051Y-108680949D01*
X229413831Y-108551520D01*
X229334903Y-108403855D01*
X229286299Y-108243630D01*
X229269888Y-108077000D01*
X229286299Y-107910370D01*
X229334903Y-107750145D01*
X229413831Y-107602480D01*
X229520051Y-107473051D01*
X229649480Y-107366831D01*
X229797145Y-107287903D01*
X229957370Y-107239299D01*
X230082248Y-107227000D01*
X230165752Y-107227000D01*
X230290630Y-107239299D01*
X230290630Y-107239299D01*
G37*
G36*
X207799071Y-107564813D02*
X207850818Y-107586247D01*
X207850822Y-107586250D01*
X207897399Y-107617371D01*
X207937009Y-107656981D01*
X207963015Y-107695903D01*
X207968133Y-107703562D01*
X207989567Y-107755309D01*
X208000495Y-107810250D01*
X208000495Y-107866270D01*
X207989567Y-107921211D01*
X207968133Y-107972958D01*
X207968130Y-107972962D01*
X207937009Y-108019539D01*
X207897399Y-108059149D01*
X207870682Y-108077000D01*
X207850818Y-108090273D01*
X207799071Y-108111707D01*
X207744130Y-108122635D01*
X207688110Y-108122635D01*
X207633169Y-108111707D01*
X207581422Y-108090273D01*
X207561558Y-108077000D01*
X207534841Y-108059149D01*
X207495231Y-108019539D01*
X207464110Y-107972962D01*
X207464107Y-107972958D01*
X207442673Y-107921211D01*
X207431745Y-107866270D01*
X207431745Y-107810250D01*
X207442673Y-107755309D01*
X207464107Y-107703562D01*
X207469225Y-107695903D01*
X207495231Y-107656981D01*
X207534841Y-107617371D01*
X207581418Y-107586250D01*
X207581422Y-107586247D01*
X207633169Y-107564813D01*
X207688110Y-107553885D01*
X207744130Y-107553885D01*
X207799071Y-107564813D01*
X207799071Y-107564813D01*
G37*
G36*
X208936571Y-107564813D02*
X208988318Y-107586247D01*
X208988322Y-107586250D01*
X209034899Y-107617371D01*
X209074509Y-107656981D01*
X209100515Y-107695903D01*
X209105633Y-107703562D01*
X209127067Y-107755309D01*
X209137995Y-107810250D01*
X209137995Y-107866270D01*
X209127067Y-107921211D01*
X209105633Y-107972958D01*
X209105630Y-107972962D01*
X209074509Y-108019539D01*
X209034899Y-108059149D01*
X209008182Y-108077000D01*
X208988318Y-108090273D01*
X208936571Y-108111707D01*
X208881630Y-108122635D01*
X208825610Y-108122635D01*
X208770669Y-108111707D01*
X208718922Y-108090273D01*
X208699058Y-108077000D01*
X208672341Y-108059149D01*
X208632731Y-108019539D01*
X208601610Y-107972962D01*
X208601607Y-107972958D01*
X208580173Y-107921211D01*
X208569245Y-107866270D01*
X208569245Y-107810250D01*
X208580173Y-107755309D01*
X208601607Y-107703562D01*
X208606725Y-107695903D01*
X208632731Y-107656981D01*
X208672341Y-107617371D01*
X208718918Y-107586250D01*
X208718922Y-107586247D01*
X208770669Y-107564813D01*
X208825610Y-107553885D01*
X208881630Y-107553885D01*
X208936571Y-107564813D01*
X208936571Y-107564813D01*
G37*
G36*
X210074071Y-107564813D02*
X210125818Y-107586247D01*
X210125822Y-107586250D01*
X210172399Y-107617371D01*
X210212009Y-107656981D01*
X210238015Y-107695903D01*
X210243133Y-107703562D01*
X210264567Y-107755309D01*
X210275495Y-107810250D01*
X210275495Y-107866270D01*
X210264567Y-107921211D01*
X210243133Y-107972958D01*
X210243130Y-107972962D01*
X210212009Y-108019539D01*
X210172399Y-108059149D01*
X210145682Y-108077000D01*
X210125818Y-108090273D01*
X210074071Y-108111707D01*
X210019130Y-108122635D01*
X209963110Y-108122635D01*
X209908169Y-108111707D01*
X209856422Y-108090273D01*
X209836558Y-108077000D01*
X209809841Y-108059149D01*
X209770231Y-108019539D01*
X209739110Y-107972962D01*
X209739107Y-107972958D01*
X209717673Y-107921211D01*
X209706745Y-107866270D01*
X209706745Y-107810250D01*
X209717673Y-107755309D01*
X209739107Y-107703562D01*
X209744225Y-107695903D01*
X209770231Y-107656981D01*
X209809841Y-107617371D01*
X209856418Y-107586250D01*
X209856422Y-107586247D01*
X209908169Y-107564813D01*
X209963110Y-107553885D01*
X210019130Y-107553885D01*
X210074071Y-107564813D01*
X210074071Y-107564813D01*
G37*
G36*
X211211571Y-107564813D02*
X211263318Y-107586247D01*
X211263322Y-107586250D01*
X211309899Y-107617371D01*
X211349509Y-107656981D01*
X211375515Y-107695903D01*
X211380633Y-107703562D01*
X211402067Y-107755309D01*
X211412995Y-107810250D01*
X211412995Y-107866270D01*
X211402067Y-107921211D01*
X211380633Y-107972958D01*
X211380630Y-107972962D01*
X211349509Y-108019539D01*
X211309899Y-108059149D01*
X211283182Y-108077000D01*
X211263318Y-108090273D01*
X211211571Y-108111707D01*
X211156630Y-108122635D01*
X211100610Y-108122635D01*
X211045669Y-108111707D01*
X210993922Y-108090273D01*
X210974058Y-108077000D01*
X210947341Y-108059149D01*
X210907731Y-108019539D01*
X210876610Y-107972962D01*
X210876607Y-107972958D01*
X210855173Y-107921211D01*
X210844245Y-107866270D01*
X210844245Y-107810250D01*
X210855173Y-107755309D01*
X210876607Y-107703562D01*
X210881725Y-107695903D01*
X210907731Y-107656981D01*
X210947341Y-107617371D01*
X210993918Y-107586250D01*
X210993922Y-107586247D01*
X211045669Y-107564813D01*
X211100610Y-107553885D01*
X211156630Y-107553885D01*
X211211571Y-107564813D01*
X211211571Y-107564813D01*
G37*
G36*
X212349071Y-107564813D02*
X212400818Y-107586247D01*
X212400822Y-107586250D01*
X212447399Y-107617371D01*
X212487009Y-107656981D01*
X212513015Y-107695903D01*
X212518133Y-107703562D01*
X212539567Y-107755309D01*
X212550495Y-107810250D01*
X212550495Y-107866270D01*
X212539567Y-107921211D01*
X212518133Y-107972958D01*
X212518130Y-107972962D01*
X212487009Y-108019539D01*
X212447399Y-108059149D01*
X212420682Y-108077000D01*
X212400818Y-108090273D01*
X212349071Y-108111707D01*
X212294130Y-108122635D01*
X212238110Y-108122635D01*
X212183169Y-108111707D01*
X212131422Y-108090273D01*
X212111558Y-108077000D01*
X212084841Y-108059149D01*
X212045231Y-108019539D01*
X212014110Y-107972962D01*
X212014107Y-107972958D01*
X211992673Y-107921211D01*
X211981745Y-107866270D01*
X211981745Y-107810250D01*
X211992673Y-107755309D01*
X212014107Y-107703562D01*
X212019225Y-107695903D01*
X212045231Y-107656981D01*
X212084841Y-107617371D01*
X212131418Y-107586250D01*
X212131422Y-107586247D01*
X212183169Y-107564813D01*
X212238110Y-107553885D01*
X212294130Y-107553885D01*
X212349071Y-107564813D01*
X212349071Y-107564813D01*
G37*
G36*
X213486571Y-107564813D02*
X213538318Y-107586247D01*
X213538322Y-107586250D01*
X213584899Y-107617371D01*
X213624509Y-107656981D01*
X213650515Y-107695903D01*
X213655633Y-107703562D01*
X213677067Y-107755309D01*
X213687995Y-107810250D01*
X213687995Y-107866270D01*
X213677067Y-107921211D01*
X213655633Y-107972958D01*
X213655630Y-107972962D01*
X213624509Y-108019539D01*
X213584899Y-108059149D01*
X213558182Y-108077000D01*
X213538318Y-108090273D01*
X213486571Y-108111707D01*
X213431630Y-108122635D01*
X213375610Y-108122635D01*
X213320669Y-108111707D01*
X213268922Y-108090273D01*
X213249058Y-108077000D01*
X213222341Y-108059149D01*
X213182731Y-108019539D01*
X213151610Y-107972962D01*
X213151607Y-107972958D01*
X213130173Y-107921211D01*
X213119245Y-107866270D01*
X213119245Y-107810250D01*
X213130173Y-107755309D01*
X213151607Y-107703562D01*
X213156725Y-107695903D01*
X213182731Y-107656981D01*
X213222341Y-107617371D01*
X213268918Y-107586250D01*
X213268922Y-107586247D01*
X213320669Y-107564813D01*
X213375610Y-107553885D01*
X213431630Y-107553885D01*
X213486571Y-107564813D01*
X213486571Y-107564813D01*
G37*
G36*
X214624071Y-107564813D02*
X214675818Y-107586247D01*
X214675822Y-107586250D01*
X214722399Y-107617371D01*
X214762009Y-107656981D01*
X214788015Y-107695903D01*
X214793133Y-107703562D01*
X214814567Y-107755309D01*
X214825495Y-107810250D01*
X214825495Y-107866270D01*
X214814567Y-107921211D01*
X214793133Y-107972958D01*
X214793130Y-107972962D01*
X214762009Y-108019539D01*
X214722399Y-108059149D01*
X214695682Y-108077000D01*
X214675818Y-108090273D01*
X214624071Y-108111707D01*
X214569130Y-108122635D01*
X214513110Y-108122635D01*
X214458169Y-108111707D01*
X214406422Y-108090273D01*
X214386558Y-108077000D01*
X214359841Y-108059149D01*
X214320231Y-108019539D01*
X214289110Y-107972962D01*
X214289107Y-107972958D01*
X214267673Y-107921211D01*
X214256745Y-107866270D01*
X214256745Y-107810250D01*
X214267673Y-107755309D01*
X214289107Y-107703562D01*
X214294225Y-107695903D01*
X214320231Y-107656981D01*
X214359841Y-107617371D01*
X214406418Y-107586250D01*
X214406422Y-107586247D01*
X214458169Y-107564813D01*
X214513110Y-107553885D01*
X214569130Y-107553885D01*
X214624071Y-107564813D01*
X214624071Y-107564813D01*
G37*
G36*
X215761571Y-107564813D02*
X215813318Y-107586247D01*
X215813322Y-107586250D01*
X215859899Y-107617371D01*
X215899509Y-107656981D01*
X215925515Y-107695903D01*
X215930633Y-107703562D01*
X215952067Y-107755309D01*
X215962995Y-107810250D01*
X215962995Y-107866270D01*
X215952067Y-107921211D01*
X215930633Y-107972958D01*
X215930630Y-107972962D01*
X215899509Y-108019539D01*
X215859899Y-108059149D01*
X215833182Y-108077000D01*
X215813318Y-108090273D01*
X215761571Y-108111707D01*
X215706630Y-108122635D01*
X215650610Y-108122635D01*
X215595669Y-108111707D01*
X215543922Y-108090273D01*
X215524058Y-108077000D01*
X215497341Y-108059149D01*
X215457731Y-108019539D01*
X215426610Y-107972962D01*
X215426607Y-107972958D01*
X215405173Y-107921211D01*
X215394245Y-107866270D01*
X215394245Y-107810250D01*
X215405173Y-107755309D01*
X215426607Y-107703562D01*
X215431725Y-107695903D01*
X215457731Y-107656981D01*
X215497341Y-107617371D01*
X215543918Y-107586250D01*
X215543922Y-107586247D01*
X215595669Y-107564813D01*
X215650610Y-107553885D01*
X215706630Y-107553885D01*
X215761571Y-107564813D01*
X215761571Y-107564813D01*
G37*
G36*
X225845630Y-105588299D02*
X226005855Y-105636903D01*
X226153520Y-105715831D01*
X226282949Y-105822051D01*
X226389169Y-105951480D01*
X226468097Y-106099145D01*
X226516701Y-106259370D01*
X226533112Y-106426000D01*
X226516701Y-106592630D01*
X226468097Y-106752855D01*
X226389169Y-106900520D01*
X226282949Y-107029949D01*
X226153520Y-107136169D01*
X226005855Y-107215097D01*
X225845630Y-107263701D01*
X225720752Y-107276000D01*
X225637248Y-107276000D01*
X225512370Y-107263701D01*
X225352145Y-107215097D01*
X225204480Y-107136169D01*
X225075051Y-107029949D01*
X224968831Y-106900520D01*
X224889903Y-106752855D01*
X224841299Y-106592630D01*
X224824888Y-106426000D01*
X224841299Y-106259370D01*
X224889903Y-106099145D01*
X224968831Y-105951480D01*
X225075051Y-105822051D01*
X225204480Y-105715831D01*
X225352145Y-105636903D01*
X225512370Y-105588299D01*
X225637248Y-105576000D01*
X225720752Y-105576000D01*
X225845630Y-105588299D01*
X225845630Y-105588299D01*
G37*
G36*
X223305630Y-105588299D02*
X223465855Y-105636903D01*
X223613520Y-105715831D01*
X223742949Y-105822051D01*
X223849169Y-105951480D01*
X223928097Y-106099145D01*
X223976701Y-106259370D01*
X223993112Y-106426000D01*
X223976701Y-106592630D01*
X223928097Y-106752855D01*
X223849169Y-106900520D01*
X223742949Y-107029949D01*
X223613520Y-107136169D01*
X223465855Y-107215097D01*
X223305630Y-107263701D01*
X223180752Y-107276000D01*
X223097248Y-107276000D01*
X222972370Y-107263701D01*
X222812145Y-107215097D01*
X222664480Y-107136169D01*
X222535051Y-107029949D01*
X222428831Y-106900520D01*
X222349903Y-106752855D01*
X222301299Y-106592630D01*
X222284888Y-106426000D01*
X222301299Y-106259370D01*
X222349903Y-106099145D01*
X222428831Y-105951480D01*
X222535051Y-105822051D01*
X222664480Y-105715831D01*
X222812145Y-105636903D01*
X222972370Y-105588299D01*
X223097248Y-105576000D01*
X223180752Y-105576000D01*
X223305630Y-105588299D01*
X223305630Y-105588299D01*
G37*
G36*
X215761571Y-106427313D02*
X215813318Y-106448747D01*
X215813322Y-106448750D01*
X215859899Y-106479871D01*
X215899509Y-106519481D01*
X215925515Y-106558403D01*
X215930633Y-106566062D01*
X215952067Y-106617809D01*
X215962995Y-106672750D01*
X215962995Y-106728770D01*
X215952067Y-106783711D01*
X215930633Y-106835458D01*
X215930630Y-106835462D01*
X215899509Y-106882039D01*
X215859899Y-106921649D01*
X215820977Y-106947655D01*
X215813318Y-106952773D01*
X215761571Y-106974207D01*
X215706630Y-106985135D01*
X215650610Y-106985135D01*
X215595669Y-106974207D01*
X215543922Y-106952773D01*
X215536263Y-106947655D01*
X215497341Y-106921649D01*
X215457731Y-106882039D01*
X215426610Y-106835462D01*
X215426607Y-106835458D01*
X215405173Y-106783711D01*
X215394245Y-106728770D01*
X215394245Y-106672750D01*
X215405173Y-106617809D01*
X215426607Y-106566062D01*
X215431725Y-106558403D01*
X215457731Y-106519481D01*
X215497341Y-106479871D01*
X215543918Y-106448750D01*
X215543922Y-106448747D01*
X215595669Y-106427313D01*
X215650610Y-106416385D01*
X215706630Y-106416385D01*
X215761571Y-106427313D01*
X215761571Y-106427313D01*
G37*
G36*
X214624071Y-106427313D02*
X214675818Y-106448747D01*
X214675822Y-106448750D01*
X214722399Y-106479871D01*
X214762009Y-106519481D01*
X214788015Y-106558403D01*
X214793133Y-106566062D01*
X214814567Y-106617809D01*
X214825495Y-106672750D01*
X214825495Y-106728770D01*
X214814567Y-106783711D01*
X214793133Y-106835458D01*
X214793130Y-106835462D01*
X214762009Y-106882039D01*
X214722399Y-106921649D01*
X214683477Y-106947655D01*
X214675818Y-106952773D01*
X214624071Y-106974207D01*
X214569130Y-106985135D01*
X214513110Y-106985135D01*
X214458169Y-106974207D01*
X214406422Y-106952773D01*
X214398763Y-106947655D01*
X214359841Y-106921649D01*
X214320231Y-106882039D01*
X214289110Y-106835462D01*
X214289107Y-106835458D01*
X214267673Y-106783711D01*
X214256745Y-106728770D01*
X214256745Y-106672750D01*
X214267673Y-106617809D01*
X214289107Y-106566062D01*
X214294225Y-106558403D01*
X214320231Y-106519481D01*
X214359841Y-106479871D01*
X214406418Y-106448750D01*
X214406422Y-106448747D01*
X214458169Y-106427313D01*
X214513110Y-106416385D01*
X214569130Y-106416385D01*
X214624071Y-106427313D01*
X214624071Y-106427313D01*
G37*
G36*
X213486571Y-106427313D02*
X213538318Y-106448747D01*
X213538322Y-106448750D01*
X213584899Y-106479871D01*
X213624509Y-106519481D01*
X213650515Y-106558403D01*
X213655633Y-106566062D01*
X213677067Y-106617809D01*
X213687995Y-106672750D01*
X213687995Y-106728770D01*
X213677067Y-106783711D01*
X213655633Y-106835458D01*
X213655630Y-106835462D01*
X213624509Y-106882039D01*
X213584899Y-106921649D01*
X213545977Y-106947655D01*
X213538318Y-106952773D01*
X213486571Y-106974207D01*
X213431630Y-106985135D01*
X213375610Y-106985135D01*
X213320669Y-106974207D01*
X213268922Y-106952773D01*
X213261263Y-106947655D01*
X213222341Y-106921649D01*
X213182731Y-106882039D01*
X213151610Y-106835462D01*
X213151607Y-106835458D01*
X213130173Y-106783711D01*
X213119245Y-106728770D01*
X213119245Y-106672750D01*
X213130173Y-106617809D01*
X213151607Y-106566062D01*
X213156725Y-106558403D01*
X213182731Y-106519481D01*
X213222341Y-106479871D01*
X213268918Y-106448750D01*
X213268922Y-106448747D01*
X213320669Y-106427313D01*
X213375610Y-106416385D01*
X213431630Y-106416385D01*
X213486571Y-106427313D01*
X213486571Y-106427313D01*
G37*
G36*
X207799071Y-106427313D02*
X207850818Y-106448747D01*
X207850822Y-106448750D01*
X207897399Y-106479871D01*
X207937009Y-106519481D01*
X207963015Y-106558403D01*
X207968133Y-106566062D01*
X207989567Y-106617809D01*
X208000495Y-106672750D01*
X208000495Y-106728770D01*
X207989567Y-106783711D01*
X207968133Y-106835458D01*
X207968130Y-106835462D01*
X207937009Y-106882039D01*
X207897399Y-106921649D01*
X207858477Y-106947655D01*
X207850818Y-106952773D01*
X207799071Y-106974207D01*
X207744130Y-106985135D01*
X207688110Y-106985135D01*
X207633169Y-106974207D01*
X207581422Y-106952773D01*
X207573763Y-106947655D01*
X207534841Y-106921649D01*
X207495231Y-106882039D01*
X207464110Y-106835462D01*
X207464107Y-106835458D01*
X207442673Y-106783711D01*
X207431745Y-106728770D01*
X207431745Y-106672750D01*
X207442673Y-106617809D01*
X207464107Y-106566062D01*
X207469225Y-106558403D01*
X207495231Y-106519481D01*
X207534841Y-106479871D01*
X207581418Y-106448750D01*
X207581422Y-106448747D01*
X207633169Y-106427313D01*
X207688110Y-106416385D01*
X207744130Y-106416385D01*
X207799071Y-106427313D01*
X207799071Y-106427313D01*
G37*
G36*
X211211571Y-106427313D02*
X211263318Y-106448747D01*
X211263322Y-106448750D01*
X211309899Y-106479871D01*
X211349509Y-106519481D01*
X211375515Y-106558403D01*
X211380633Y-106566062D01*
X211402067Y-106617809D01*
X211412995Y-106672750D01*
X211412995Y-106728770D01*
X211402067Y-106783711D01*
X211380633Y-106835458D01*
X211380630Y-106835462D01*
X211349509Y-106882039D01*
X211309899Y-106921649D01*
X211270977Y-106947655D01*
X211263318Y-106952773D01*
X211211571Y-106974207D01*
X211156630Y-106985135D01*
X211100610Y-106985135D01*
X211045669Y-106974207D01*
X210993922Y-106952773D01*
X210986263Y-106947655D01*
X210947341Y-106921649D01*
X210907731Y-106882039D01*
X210876610Y-106835462D01*
X210876607Y-106835458D01*
X210855173Y-106783711D01*
X210844245Y-106728770D01*
X210844245Y-106672750D01*
X210855173Y-106617809D01*
X210876607Y-106566062D01*
X210881725Y-106558403D01*
X210907731Y-106519481D01*
X210947341Y-106479871D01*
X210993918Y-106448750D01*
X210993922Y-106448747D01*
X211045669Y-106427313D01*
X211100610Y-106416385D01*
X211156630Y-106416385D01*
X211211571Y-106427313D01*
X211211571Y-106427313D01*
G37*
G36*
X208936571Y-106427313D02*
X208988318Y-106448747D01*
X208988322Y-106448750D01*
X209034899Y-106479871D01*
X209074509Y-106519481D01*
X209100515Y-106558403D01*
X209105633Y-106566062D01*
X209127067Y-106617809D01*
X209137995Y-106672750D01*
X209137995Y-106728770D01*
X209127067Y-106783711D01*
X209105633Y-106835458D01*
X209105630Y-106835462D01*
X209074509Y-106882039D01*
X209034899Y-106921649D01*
X208995977Y-106947655D01*
X208988318Y-106952773D01*
X208936571Y-106974207D01*
X208881630Y-106985135D01*
X208825610Y-106985135D01*
X208770669Y-106974207D01*
X208718922Y-106952773D01*
X208711263Y-106947655D01*
X208672341Y-106921649D01*
X208632731Y-106882039D01*
X208601610Y-106835462D01*
X208601607Y-106835458D01*
X208580173Y-106783711D01*
X208569245Y-106728770D01*
X208569245Y-106672750D01*
X208580173Y-106617809D01*
X208601607Y-106566062D01*
X208606725Y-106558403D01*
X208632731Y-106519481D01*
X208672341Y-106479871D01*
X208718918Y-106448750D01*
X208718922Y-106448747D01*
X208770669Y-106427313D01*
X208825610Y-106416385D01*
X208881630Y-106416385D01*
X208936571Y-106427313D01*
X208936571Y-106427313D01*
G37*
G36*
X210074071Y-106427313D02*
X210125818Y-106448747D01*
X210125822Y-106448750D01*
X210172399Y-106479871D01*
X210212009Y-106519481D01*
X210238015Y-106558403D01*
X210243133Y-106566062D01*
X210264567Y-106617809D01*
X210275495Y-106672750D01*
X210275495Y-106728770D01*
X210264567Y-106783711D01*
X210243133Y-106835458D01*
X210243130Y-106835462D01*
X210212009Y-106882039D01*
X210172399Y-106921649D01*
X210133477Y-106947655D01*
X210125818Y-106952773D01*
X210074071Y-106974207D01*
X210019130Y-106985135D01*
X209963110Y-106985135D01*
X209908169Y-106974207D01*
X209856422Y-106952773D01*
X209848763Y-106947655D01*
X209809841Y-106921649D01*
X209770231Y-106882039D01*
X209739110Y-106835462D01*
X209739107Y-106835458D01*
X209717673Y-106783711D01*
X209706745Y-106728770D01*
X209706745Y-106672750D01*
X209717673Y-106617809D01*
X209739107Y-106566062D01*
X209744225Y-106558403D01*
X209770231Y-106519481D01*
X209809841Y-106479871D01*
X209856418Y-106448750D01*
X209856422Y-106448747D01*
X209908169Y-106427313D01*
X209963110Y-106416385D01*
X210019130Y-106416385D01*
X210074071Y-106427313D01*
X210074071Y-106427313D01*
G37*
G36*
X212349071Y-106427313D02*
X212400818Y-106448747D01*
X212400822Y-106448750D01*
X212447399Y-106479871D01*
X212487009Y-106519481D01*
X212513015Y-106558403D01*
X212518133Y-106566062D01*
X212539567Y-106617809D01*
X212550495Y-106672750D01*
X212550495Y-106728770D01*
X212539567Y-106783711D01*
X212518133Y-106835458D01*
X212518130Y-106835462D01*
X212487009Y-106882039D01*
X212447399Y-106921649D01*
X212408477Y-106947655D01*
X212400818Y-106952773D01*
X212349071Y-106974207D01*
X212294130Y-106985135D01*
X212238110Y-106985135D01*
X212183169Y-106974207D01*
X212131422Y-106952773D01*
X212123763Y-106947655D01*
X212084841Y-106921649D01*
X212045231Y-106882039D01*
X212014110Y-106835462D01*
X212014107Y-106835458D01*
X211992673Y-106783711D01*
X211981745Y-106728770D01*
X211981745Y-106672750D01*
X211992673Y-106617809D01*
X212014107Y-106566062D01*
X212019225Y-106558403D01*
X212045231Y-106519481D01*
X212084841Y-106479871D01*
X212131418Y-106448750D01*
X212131422Y-106448747D01*
X212183169Y-106427313D01*
X212238110Y-106416385D01*
X212294130Y-106416385D01*
X212349071Y-106427313D01*
X212349071Y-106427313D01*
G37*
G36*
X230290630Y-104699299D02*
X230450855Y-104747903D01*
X230598520Y-104826831D01*
X230727949Y-104933051D01*
X230834169Y-105062480D01*
X230913097Y-105210145D01*
X230961701Y-105370370D01*
X230978112Y-105537000D01*
X230961701Y-105703630D01*
X230913097Y-105863855D01*
X230834169Y-106011520D01*
X230727949Y-106140949D01*
X230598520Y-106247169D01*
X230450855Y-106326097D01*
X230290630Y-106374701D01*
X230165752Y-106387000D01*
X230082248Y-106387000D01*
X229957370Y-106374701D01*
X229797145Y-106326097D01*
X229649480Y-106247169D01*
X229520051Y-106140949D01*
X229413831Y-106011520D01*
X229334903Y-105863855D01*
X229286299Y-105703630D01*
X229269888Y-105537000D01*
X229286299Y-105370370D01*
X229334903Y-105210145D01*
X229413831Y-105062480D01*
X229520051Y-104933051D01*
X229649480Y-104826831D01*
X229797145Y-104747903D01*
X229957370Y-104699299D01*
X230082248Y-104687000D01*
X230165752Y-104687000D01*
X230290630Y-104699299D01*
X230290630Y-104699299D01*
G37*
G36*
X212349071Y-105289813D02*
X212400818Y-105311247D01*
X212400822Y-105311250D01*
X212447399Y-105342371D01*
X212487009Y-105381981D01*
X212513015Y-105420903D01*
X212518133Y-105428562D01*
X212539567Y-105480309D01*
X212550495Y-105535250D01*
X212550495Y-105591270D01*
X212539567Y-105646211D01*
X212518133Y-105697958D01*
X212518130Y-105697962D01*
X212487009Y-105744539D01*
X212447399Y-105784149D01*
X212408477Y-105810155D01*
X212400818Y-105815273D01*
X212349071Y-105836707D01*
X212294130Y-105847635D01*
X212238110Y-105847635D01*
X212183169Y-105836707D01*
X212131422Y-105815273D01*
X212123763Y-105810155D01*
X212084841Y-105784149D01*
X212045231Y-105744539D01*
X212014110Y-105697962D01*
X212014107Y-105697958D01*
X211992673Y-105646211D01*
X211981745Y-105591270D01*
X211981745Y-105535250D01*
X211992673Y-105480309D01*
X212014107Y-105428562D01*
X212019225Y-105420903D01*
X212045231Y-105381981D01*
X212084841Y-105342371D01*
X212131418Y-105311250D01*
X212131422Y-105311247D01*
X212183169Y-105289813D01*
X212238110Y-105278885D01*
X212294130Y-105278885D01*
X212349071Y-105289813D01*
X212349071Y-105289813D01*
G37*
G36*
X215761571Y-105289813D02*
X215813318Y-105311247D01*
X215813322Y-105311250D01*
X215859899Y-105342371D01*
X215899509Y-105381981D01*
X215925515Y-105420903D01*
X215930633Y-105428562D01*
X215952067Y-105480309D01*
X215962995Y-105535250D01*
X215962995Y-105591270D01*
X215952067Y-105646211D01*
X215930633Y-105697958D01*
X215930630Y-105697962D01*
X215899509Y-105744539D01*
X215859899Y-105784149D01*
X215820977Y-105810155D01*
X215813318Y-105815273D01*
X215761571Y-105836707D01*
X215706630Y-105847635D01*
X215650610Y-105847635D01*
X215595669Y-105836707D01*
X215543922Y-105815273D01*
X215536263Y-105810155D01*
X215497341Y-105784149D01*
X215457731Y-105744539D01*
X215426610Y-105697962D01*
X215426607Y-105697958D01*
X215405173Y-105646211D01*
X215394245Y-105591270D01*
X215394245Y-105535250D01*
X215405173Y-105480309D01*
X215426607Y-105428562D01*
X215431725Y-105420903D01*
X215457731Y-105381981D01*
X215497341Y-105342371D01*
X215543918Y-105311250D01*
X215543922Y-105311247D01*
X215595669Y-105289813D01*
X215650610Y-105278885D01*
X215706630Y-105278885D01*
X215761571Y-105289813D01*
X215761571Y-105289813D01*
G37*
G36*
X214624071Y-105289813D02*
X214675818Y-105311247D01*
X214675822Y-105311250D01*
X214722399Y-105342371D01*
X214762009Y-105381981D01*
X214788015Y-105420903D01*
X214793133Y-105428562D01*
X214814567Y-105480309D01*
X214825495Y-105535250D01*
X214825495Y-105591270D01*
X214814567Y-105646211D01*
X214793133Y-105697958D01*
X214793130Y-105697962D01*
X214762009Y-105744539D01*
X214722399Y-105784149D01*
X214683477Y-105810155D01*
X214675818Y-105815273D01*
X214624071Y-105836707D01*
X214569130Y-105847635D01*
X214513110Y-105847635D01*
X214458169Y-105836707D01*
X214406422Y-105815273D01*
X214398763Y-105810155D01*
X214359841Y-105784149D01*
X214320231Y-105744539D01*
X214289110Y-105697962D01*
X214289107Y-105697958D01*
X214267673Y-105646211D01*
X214256745Y-105591270D01*
X214256745Y-105535250D01*
X214267673Y-105480309D01*
X214289107Y-105428562D01*
X214294225Y-105420903D01*
X214320231Y-105381981D01*
X214359841Y-105342371D01*
X214406418Y-105311250D01*
X214406422Y-105311247D01*
X214458169Y-105289813D01*
X214513110Y-105278885D01*
X214569130Y-105278885D01*
X214624071Y-105289813D01*
X214624071Y-105289813D01*
G37*
G36*
X213486571Y-105289813D02*
X213538318Y-105311247D01*
X213538322Y-105311250D01*
X213584899Y-105342371D01*
X213624509Y-105381981D01*
X213650515Y-105420903D01*
X213655633Y-105428562D01*
X213677067Y-105480309D01*
X213687995Y-105535250D01*
X213687995Y-105591270D01*
X213677067Y-105646211D01*
X213655633Y-105697958D01*
X213655630Y-105697962D01*
X213624509Y-105744539D01*
X213584899Y-105784149D01*
X213545977Y-105810155D01*
X213538318Y-105815273D01*
X213486571Y-105836707D01*
X213431630Y-105847635D01*
X213375610Y-105847635D01*
X213320669Y-105836707D01*
X213268922Y-105815273D01*
X213261263Y-105810155D01*
X213222341Y-105784149D01*
X213182731Y-105744539D01*
X213151610Y-105697962D01*
X213151607Y-105697958D01*
X213130173Y-105646211D01*
X213119245Y-105591270D01*
X213119245Y-105535250D01*
X213130173Y-105480309D01*
X213151607Y-105428562D01*
X213156725Y-105420903D01*
X213182731Y-105381981D01*
X213222341Y-105342371D01*
X213268918Y-105311250D01*
X213268922Y-105311247D01*
X213320669Y-105289813D01*
X213375610Y-105278885D01*
X213431630Y-105278885D01*
X213486571Y-105289813D01*
X213486571Y-105289813D01*
G37*
G36*
X211211571Y-105289813D02*
X211263318Y-105311247D01*
X211263322Y-105311250D01*
X211309899Y-105342371D01*
X211349509Y-105381981D01*
X211375515Y-105420903D01*
X211380633Y-105428562D01*
X211402067Y-105480309D01*
X211412995Y-105535250D01*
X211412995Y-105591270D01*
X211402067Y-105646211D01*
X211380633Y-105697958D01*
X211380630Y-105697962D01*
X211349509Y-105744539D01*
X211309899Y-105784149D01*
X211270977Y-105810155D01*
X211263318Y-105815273D01*
X211211571Y-105836707D01*
X211156630Y-105847635D01*
X211100610Y-105847635D01*
X211045669Y-105836707D01*
X210993922Y-105815273D01*
X210986263Y-105810155D01*
X210947341Y-105784149D01*
X210907731Y-105744539D01*
X210876610Y-105697962D01*
X210876607Y-105697958D01*
X210855173Y-105646211D01*
X210844245Y-105591270D01*
X210844245Y-105535250D01*
X210855173Y-105480309D01*
X210876607Y-105428562D01*
X210881725Y-105420903D01*
X210907731Y-105381981D01*
X210947341Y-105342371D01*
X210993918Y-105311250D01*
X210993922Y-105311247D01*
X211045669Y-105289813D01*
X211100610Y-105278885D01*
X211156630Y-105278885D01*
X211211571Y-105289813D01*
X211211571Y-105289813D01*
G37*
G36*
X210074071Y-105289813D02*
X210125818Y-105311247D01*
X210125822Y-105311250D01*
X210172399Y-105342371D01*
X210212009Y-105381981D01*
X210238015Y-105420903D01*
X210243133Y-105428562D01*
X210264567Y-105480309D01*
X210275495Y-105535250D01*
X210275495Y-105591270D01*
X210264567Y-105646211D01*
X210243133Y-105697958D01*
X210243130Y-105697962D01*
X210212009Y-105744539D01*
X210172399Y-105784149D01*
X210133477Y-105810155D01*
X210125818Y-105815273D01*
X210074071Y-105836707D01*
X210019130Y-105847635D01*
X209963110Y-105847635D01*
X209908169Y-105836707D01*
X209856422Y-105815273D01*
X209848763Y-105810155D01*
X209809841Y-105784149D01*
X209770231Y-105744539D01*
X209739110Y-105697962D01*
X209739107Y-105697958D01*
X209717673Y-105646211D01*
X209706745Y-105591270D01*
X209706745Y-105535250D01*
X209717673Y-105480309D01*
X209739107Y-105428562D01*
X209744225Y-105420903D01*
X209770231Y-105381981D01*
X209809841Y-105342371D01*
X209856418Y-105311250D01*
X209856422Y-105311247D01*
X209908169Y-105289813D01*
X209963110Y-105278885D01*
X210019130Y-105278885D01*
X210074071Y-105289813D01*
X210074071Y-105289813D01*
G37*
G36*
X208936571Y-105289813D02*
X208988318Y-105311247D01*
X208988322Y-105311250D01*
X209034899Y-105342371D01*
X209074509Y-105381981D01*
X209100515Y-105420903D01*
X209105633Y-105428562D01*
X209127067Y-105480309D01*
X209137995Y-105535250D01*
X209137995Y-105591270D01*
X209127067Y-105646211D01*
X209105633Y-105697958D01*
X209105630Y-105697962D01*
X209074509Y-105744539D01*
X209034899Y-105784149D01*
X208995977Y-105810155D01*
X208988318Y-105815273D01*
X208936571Y-105836707D01*
X208881630Y-105847635D01*
X208825610Y-105847635D01*
X208770669Y-105836707D01*
X208718922Y-105815273D01*
X208711263Y-105810155D01*
X208672341Y-105784149D01*
X208632731Y-105744539D01*
X208601610Y-105697962D01*
X208601607Y-105697958D01*
X208580173Y-105646211D01*
X208569245Y-105591270D01*
X208569245Y-105535250D01*
X208580173Y-105480309D01*
X208601607Y-105428562D01*
X208606725Y-105420903D01*
X208632731Y-105381981D01*
X208672341Y-105342371D01*
X208718918Y-105311250D01*
X208718922Y-105311247D01*
X208770669Y-105289813D01*
X208825610Y-105278885D01*
X208881630Y-105278885D01*
X208936571Y-105289813D01*
X208936571Y-105289813D01*
G37*
G36*
X207799071Y-105289813D02*
X207850818Y-105311247D01*
X207850822Y-105311250D01*
X207897399Y-105342371D01*
X207937009Y-105381981D01*
X207963015Y-105420903D01*
X207968133Y-105428562D01*
X207989567Y-105480309D01*
X208000495Y-105535250D01*
X208000495Y-105591270D01*
X207989567Y-105646211D01*
X207968133Y-105697958D01*
X207968130Y-105697962D01*
X207937009Y-105744539D01*
X207897399Y-105784149D01*
X207858477Y-105810155D01*
X207850818Y-105815273D01*
X207799071Y-105836707D01*
X207744130Y-105847635D01*
X207688110Y-105847635D01*
X207633169Y-105836707D01*
X207581422Y-105815273D01*
X207573763Y-105810155D01*
X207534841Y-105784149D01*
X207495231Y-105744539D01*
X207464110Y-105697962D01*
X207464107Y-105697958D01*
X207442673Y-105646211D01*
X207431745Y-105591270D01*
X207431745Y-105535250D01*
X207442673Y-105480309D01*
X207464107Y-105428562D01*
X207469225Y-105420903D01*
X207495231Y-105381981D01*
X207534841Y-105342371D01*
X207581418Y-105311250D01*
X207581422Y-105311247D01*
X207633169Y-105289813D01*
X207688110Y-105278885D01*
X207744130Y-105278885D01*
X207799071Y-105289813D01*
X207799071Y-105289813D01*
G37*
G36*
X223305630Y-103048299D02*
X223465855Y-103096903D01*
X223613520Y-103175831D01*
X223742949Y-103282051D01*
X223849169Y-103411480D01*
X223928097Y-103559145D01*
X223976701Y-103719370D01*
X223993112Y-103886000D01*
X223976701Y-104052630D01*
X223928097Y-104212855D01*
X223849169Y-104360520D01*
X223742949Y-104489949D01*
X223613520Y-104596169D01*
X223465855Y-104675097D01*
X223305630Y-104723701D01*
X223180752Y-104736000D01*
X223097248Y-104736000D01*
X222972370Y-104723701D01*
X222812145Y-104675097D01*
X222664480Y-104596169D01*
X222535051Y-104489949D01*
X222428831Y-104360520D01*
X222349903Y-104212855D01*
X222301299Y-104052630D01*
X222284888Y-103886000D01*
X222301299Y-103719370D01*
X222349903Y-103559145D01*
X222428831Y-103411480D01*
X222535051Y-103282051D01*
X222664480Y-103175831D01*
X222812145Y-103096903D01*
X222972370Y-103048299D01*
X223097248Y-103036000D01*
X223180752Y-103036000D01*
X223305630Y-103048299D01*
X223305630Y-103048299D01*
G37*
G36*
X225845630Y-103048299D02*
X226005855Y-103096903D01*
X226153520Y-103175831D01*
X226282949Y-103282051D01*
X226389169Y-103411480D01*
X226468097Y-103559145D01*
X226516701Y-103719370D01*
X226533112Y-103886000D01*
X226516701Y-104052630D01*
X226468097Y-104212855D01*
X226389169Y-104360520D01*
X226282949Y-104489949D01*
X226153520Y-104596169D01*
X226005855Y-104675097D01*
X225845630Y-104723701D01*
X225720752Y-104736000D01*
X225637248Y-104736000D01*
X225512370Y-104723701D01*
X225352145Y-104675097D01*
X225204480Y-104596169D01*
X225075051Y-104489949D01*
X224968831Y-104360520D01*
X224889903Y-104212855D01*
X224841299Y-104052630D01*
X224824888Y-103886000D01*
X224841299Y-103719370D01*
X224889903Y-103559145D01*
X224968831Y-103411480D01*
X225075051Y-103282051D01*
X225204480Y-103175831D01*
X225352145Y-103096903D01*
X225512370Y-103048299D01*
X225637248Y-103036000D01*
X225720752Y-103036000D01*
X225845630Y-103048299D01*
X225845630Y-103048299D01*
G37*
G36*
X215761571Y-104152313D02*
X215813318Y-104173747D01*
X215813322Y-104173750D01*
X215859899Y-104204871D01*
X215899509Y-104244481D01*
X215925515Y-104283403D01*
X215930633Y-104291062D01*
X215952067Y-104342809D01*
X215962995Y-104397750D01*
X215962995Y-104453770D01*
X215952067Y-104508711D01*
X215930633Y-104560458D01*
X215930630Y-104560462D01*
X215899509Y-104607039D01*
X215859899Y-104646649D01*
X215820977Y-104672655D01*
X215813318Y-104677773D01*
X215761571Y-104699207D01*
X215706630Y-104710135D01*
X215650610Y-104710135D01*
X215595669Y-104699207D01*
X215543922Y-104677773D01*
X215536263Y-104672655D01*
X215497341Y-104646649D01*
X215457731Y-104607039D01*
X215426610Y-104560462D01*
X215426607Y-104560458D01*
X215405173Y-104508711D01*
X215394245Y-104453770D01*
X215394245Y-104397750D01*
X215405173Y-104342809D01*
X215426607Y-104291062D01*
X215431725Y-104283403D01*
X215457731Y-104244481D01*
X215497341Y-104204871D01*
X215543918Y-104173750D01*
X215543922Y-104173747D01*
X215595669Y-104152313D01*
X215650610Y-104141385D01*
X215706630Y-104141385D01*
X215761571Y-104152313D01*
X215761571Y-104152313D01*
G37*
G36*
X214624071Y-104152313D02*
X214675818Y-104173747D01*
X214675822Y-104173750D01*
X214722399Y-104204871D01*
X214762009Y-104244481D01*
X214788015Y-104283403D01*
X214793133Y-104291062D01*
X214814567Y-104342809D01*
X214825495Y-104397750D01*
X214825495Y-104453770D01*
X214814567Y-104508711D01*
X214793133Y-104560458D01*
X214793130Y-104560462D01*
X214762009Y-104607039D01*
X214722399Y-104646649D01*
X214683477Y-104672655D01*
X214675818Y-104677773D01*
X214624071Y-104699207D01*
X214569130Y-104710135D01*
X214513110Y-104710135D01*
X214458169Y-104699207D01*
X214406422Y-104677773D01*
X214398763Y-104672655D01*
X214359841Y-104646649D01*
X214320231Y-104607039D01*
X214289110Y-104560462D01*
X214289107Y-104560458D01*
X214267673Y-104508711D01*
X214256745Y-104453770D01*
X214256745Y-104397750D01*
X214267673Y-104342809D01*
X214289107Y-104291062D01*
X214294225Y-104283403D01*
X214320231Y-104244481D01*
X214359841Y-104204871D01*
X214406418Y-104173750D01*
X214406422Y-104173747D01*
X214458169Y-104152313D01*
X214513110Y-104141385D01*
X214569130Y-104141385D01*
X214624071Y-104152313D01*
X214624071Y-104152313D01*
G37*
G36*
X213486571Y-104152313D02*
X213538318Y-104173747D01*
X213538322Y-104173750D01*
X213584899Y-104204871D01*
X213624509Y-104244481D01*
X213650515Y-104283403D01*
X213655633Y-104291062D01*
X213677067Y-104342809D01*
X213687995Y-104397750D01*
X213687995Y-104453770D01*
X213677067Y-104508711D01*
X213655633Y-104560458D01*
X213655630Y-104560462D01*
X213624509Y-104607039D01*
X213584899Y-104646649D01*
X213545977Y-104672655D01*
X213538318Y-104677773D01*
X213486571Y-104699207D01*
X213431630Y-104710135D01*
X213375610Y-104710135D01*
X213320669Y-104699207D01*
X213268922Y-104677773D01*
X213261263Y-104672655D01*
X213222341Y-104646649D01*
X213182731Y-104607039D01*
X213151610Y-104560462D01*
X213151607Y-104560458D01*
X213130173Y-104508711D01*
X213119245Y-104453770D01*
X213119245Y-104397750D01*
X213130173Y-104342809D01*
X213151607Y-104291062D01*
X213156725Y-104283403D01*
X213182731Y-104244481D01*
X213222341Y-104204871D01*
X213268918Y-104173750D01*
X213268922Y-104173747D01*
X213320669Y-104152313D01*
X213375610Y-104141385D01*
X213431630Y-104141385D01*
X213486571Y-104152313D01*
X213486571Y-104152313D01*
G37*
G36*
X208936571Y-104152313D02*
X208988318Y-104173747D01*
X208988322Y-104173750D01*
X209034899Y-104204871D01*
X209074509Y-104244481D01*
X209100515Y-104283403D01*
X209105633Y-104291062D01*
X209127067Y-104342809D01*
X209137995Y-104397750D01*
X209137995Y-104453770D01*
X209127067Y-104508711D01*
X209105633Y-104560458D01*
X209105630Y-104560462D01*
X209074509Y-104607039D01*
X209034899Y-104646649D01*
X208995977Y-104672655D01*
X208988318Y-104677773D01*
X208936571Y-104699207D01*
X208881630Y-104710135D01*
X208825610Y-104710135D01*
X208770669Y-104699207D01*
X208718922Y-104677773D01*
X208711263Y-104672655D01*
X208672341Y-104646649D01*
X208632731Y-104607039D01*
X208601610Y-104560462D01*
X208601607Y-104560458D01*
X208580173Y-104508711D01*
X208569245Y-104453770D01*
X208569245Y-104397750D01*
X208580173Y-104342809D01*
X208601607Y-104291062D01*
X208606725Y-104283403D01*
X208632731Y-104244481D01*
X208672341Y-104204871D01*
X208718918Y-104173750D01*
X208718922Y-104173747D01*
X208770669Y-104152313D01*
X208825610Y-104141385D01*
X208881630Y-104141385D01*
X208936571Y-104152313D01*
X208936571Y-104152313D01*
G37*
G36*
X210074071Y-104152313D02*
X210125818Y-104173747D01*
X210125822Y-104173750D01*
X210172399Y-104204871D01*
X210212009Y-104244481D01*
X210238015Y-104283403D01*
X210243133Y-104291062D01*
X210264567Y-104342809D01*
X210275495Y-104397750D01*
X210275495Y-104453770D01*
X210264567Y-104508711D01*
X210243133Y-104560458D01*
X210243130Y-104560462D01*
X210212009Y-104607039D01*
X210172399Y-104646649D01*
X210133477Y-104672655D01*
X210125818Y-104677773D01*
X210074071Y-104699207D01*
X210019130Y-104710135D01*
X209963110Y-104710135D01*
X209908169Y-104699207D01*
X209856422Y-104677773D01*
X209848763Y-104672655D01*
X209809841Y-104646649D01*
X209770231Y-104607039D01*
X209739110Y-104560462D01*
X209739107Y-104560458D01*
X209717673Y-104508711D01*
X209706745Y-104453770D01*
X209706745Y-104397750D01*
X209717673Y-104342809D01*
X209739107Y-104291062D01*
X209744225Y-104283403D01*
X209770231Y-104244481D01*
X209809841Y-104204871D01*
X209856418Y-104173750D01*
X209856422Y-104173747D01*
X209908169Y-104152313D01*
X209963110Y-104141385D01*
X210019130Y-104141385D01*
X210074071Y-104152313D01*
X210074071Y-104152313D01*
G37*
G36*
X212349071Y-104152313D02*
X212400818Y-104173747D01*
X212400822Y-104173750D01*
X212447399Y-104204871D01*
X212487009Y-104244481D01*
X212513015Y-104283403D01*
X212518133Y-104291062D01*
X212539567Y-104342809D01*
X212550495Y-104397750D01*
X212550495Y-104453770D01*
X212539567Y-104508711D01*
X212518133Y-104560458D01*
X212518130Y-104560462D01*
X212487009Y-104607039D01*
X212447399Y-104646649D01*
X212408477Y-104672655D01*
X212400818Y-104677773D01*
X212349071Y-104699207D01*
X212294130Y-104710135D01*
X212238110Y-104710135D01*
X212183169Y-104699207D01*
X212131422Y-104677773D01*
X212123763Y-104672655D01*
X212084841Y-104646649D01*
X212045231Y-104607039D01*
X212014110Y-104560462D01*
X212014107Y-104560458D01*
X211992673Y-104508711D01*
X211981745Y-104453770D01*
X211981745Y-104397750D01*
X211992673Y-104342809D01*
X212014107Y-104291062D01*
X212019225Y-104283403D01*
X212045231Y-104244481D01*
X212084841Y-104204871D01*
X212131418Y-104173750D01*
X212131422Y-104173747D01*
X212183169Y-104152313D01*
X212238110Y-104141385D01*
X212294130Y-104141385D01*
X212349071Y-104152313D01*
X212349071Y-104152313D01*
G37*
G36*
X211211571Y-104152313D02*
X211263318Y-104173747D01*
X211263322Y-104173750D01*
X211309899Y-104204871D01*
X211349509Y-104244481D01*
X211375515Y-104283403D01*
X211380633Y-104291062D01*
X211402067Y-104342809D01*
X211412995Y-104397750D01*
X211412995Y-104453770D01*
X211402067Y-104508711D01*
X211380633Y-104560458D01*
X211380630Y-104560462D01*
X211349509Y-104607039D01*
X211309899Y-104646649D01*
X211270977Y-104672655D01*
X211263318Y-104677773D01*
X211211571Y-104699207D01*
X211156630Y-104710135D01*
X211100610Y-104710135D01*
X211045669Y-104699207D01*
X210993922Y-104677773D01*
X210986263Y-104672655D01*
X210947341Y-104646649D01*
X210907731Y-104607039D01*
X210876610Y-104560462D01*
X210876607Y-104560458D01*
X210855173Y-104508711D01*
X210844245Y-104453770D01*
X210844245Y-104397750D01*
X210855173Y-104342809D01*
X210876607Y-104291062D01*
X210881725Y-104283403D01*
X210907731Y-104244481D01*
X210947341Y-104204871D01*
X210993918Y-104173750D01*
X210993922Y-104173747D01*
X211045669Y-104152313D01*
X211100610Y-104141385D01*
X211156630Y-104141385D01*
X211211571Y-104152313D01*
X211211571Y-104152313D01*
G37*
G36*
X207799071Y-104152313D02*
X207850818Y-104173747D01*
X207850822Y-104173750D01*
X207897399Y-104204871D01*
X207937009Y-104244481D01*
X207963015Y-104283403D01*
X207968133Y-104291062D01*
X207989567Y-104342809D01*
X208000495Y-104397750D01*
X208000495Y-104453770D01*
X207989567Y-104508711D01*
X207968133Y-104560458D01*
X207968130Y-104560462D01*
X207937009Y-104607039D01*
X207897399Y-104646649D01*
X207858477Y-104672655D01*
X207850818Y-104677773D01*
X207799071Y-104699207D01*
X207744130Y-104710135D01*
X207688110Y-104710135D01*
X207633169Y-104699207D01*
X207581422Y-104677773D01*
X207573763Y-104672655D01*
X207534841Y-104646649D01*
X207495231Y-104607039D01*
X207464110Y-104560462D01*
X207464107Y-104560458D01*
X207442673Y-104508711D01*
X207431745Y-104453770D01*
X207431745Y-104397750D01*
X207442673Y-104342809D01*
X207464107Y-104291062D01*
X207469225Y-104283403D01*
X207495231Y-104244481D01*
X207534841Y-104204871D01*
X207581418Y-104173750D01*
X207581422Y-104173747D01*
X207633169Y-104152313D01*
X207688110Y-104141385D01*
X207744130Y-104141385D01*
X207799071Y-104152313D01*
X207799071Y-104152313D01*
G37*
G36*
X230290630Y-102159299D02*
X230450855Y-102207903D01*
X230598520Y-102286831D01*
X230727949Y-102393051D01*
X230834169Y-102522480D01*
X230913097Y-102670145D01*
X230961701Y-102830370D01*
X230978112Y-102997000D01*
X230961701Y-103163630D01*
X230913097Y-103323855D01*
X230834169Y-103471520D01*
X230727949Y-103600949D01*
X230598520Y-103707169D01*
X230450855Y-103786097D01*
X230290630Y-103834701D01*
X230165752Y-103847000D01*
X230082248Y-103847000D01*
X229957370Y-103834701D01*
X229797145Y-103786097D01*
X229649480Y-103707169D01*
X229520051Y-103600949D01*
X229413831Y-103471520D01*
X229334903Y-103323855D01*
X229286299Y-103163630D01*
X229269888Y-102997000D01*
X229286299Y-102830370D01*
X229334903Y-102670145D01*
X229413831Y-102522480D01*
X229520051Y-102393051D01*
X229649480Y-102286831D01*
X229797145Y-102207903D01*
X229957370Y-102159299D01*
X230082248Y-102147000D01*
X230165752Y-102147000D01*
X230290630Y-102159299D01*
X230290630Y-102159299D01*
G37*
G36*
X214624071Y-103014813D02*
X214675818Y-103036247D01*
X214675822Y-103036250D01*
X214722399Y-103067371D01*
X214762009Y-103106981D01*
X214788015Y-103145903D01*
X214793133Y-103153562D01*
X214814567Y-103205309D01*
X214825495Y-103260250D01*
X214825495Y-103316270D01*
X214814567Y-103371211D01*
X214793133Y-103422958D01*
X214793130Y-103422962D01*
X214762009Y-103469539D01*
X214722399Y-103509149D01*
X214683477Y-103535155D01*
X214675818Y-103540273D01*
X214624071Y-103561707D01*
X214569130Y-103572635D01*
X214513110Y-103572635D01*
X214458169Y-103561707D01*
X214406422Y-103540273D01*
X214398763Y-103535155D01*
X214359841Y-103509149D01*
X214320231Y-103469539D01*
X214289110Y-103422962D01*
X214289107Y-103422958D01*
X214267673Y-103371211D01*
X214256745Y-103316270D01*
X214256745Y-103260250D01*
X214267673Y-103205309D01*
X214289107Y-103153562D01*
X214294225Y-103145903D01*
X214320231Y-103106981D01*
X214359841Y-103067371D01*
X214406418Y-103036250D01*
X214406422Y-103036247D01*
X214458169Y-103014813D01*
X214513110Y-103003885D01*
X214569130Y-103003885D01*
X214624071Y-103014813D01*
X214624071Y-103014813D01*
G37*
G36*
X208936571Y-103014813D02*
X208988318Y-103036247D01*
X208988322Y-103036250D01*
X209034899Y-103067371D01*
X209074509Y-103106981D01*
X209100515Y-103145903D01*
X209105633Y-103153562D01*
X209127067Y-103205309D01*
X209137995Y-103260250D01*
X209137995Y-103316270D01*
X209127067Y-103371211D01*
X209105633Y-103422958D01*
X209105630Y-103422962D01*
X209074509Y-103469539D01*
X209034899Y-103509149D01*
X208995977Y-103535155D01*
X208988318Y-103540273D01*
X208936571Y-103561707D01*
X208881630Y-103572635D01*
X208825610Y-103572635D01*
X208770669Y-103561707D01*
X208718922Y-103540273D01*
X208711263Y-103535155D01*
X208672341Y-103509149D01*
X208632731Y-103469539D01*
X208601610Y-103422962D01*
X208601607Y-103422958D01*
X208580173Y-103371211D01*
X208569245Y-103316270D01*
X208569245Y-103260250D01*
X208580173Y-103205309D01*
X208601607Y-103153562D01*
X208606725Y-103145903D01*
X208632731Y-103106981D01*
X208672341Y-103067371D01*
X208718918Y-103036250D01*
X208718922Y-103036247D01*
X208770669Y-103014813D01*
X208825610Y-103003885D01*
X208881630Y-103003885D01*
X208936571Y-103014813D01*
X208936571Y-103014813D01*
G37*
G36*
X210074071Y-103014813D02*
X210125818Y-103036247D01*
X210125822Y-103036250D01*
X210172399Y-103067371D01*
X210212009Y-103106981D01*
X210238015Y-103145903D01*
X210243133Y-103153562D01*
X210264567Y-103205309D01*
X210275495Y-103260250D01*
X210275495Y-103316270D01*
X210264567Y-103371211D01*
X210243133Y-103422958D01*
X210243130Y-103422962D01*
X210212009Y-103469539D01*
X210172399Y-103509149D01*
X210133477Y-103535155D01*
X210125818Y-103540273D01*
X210074071Y-103561707D01*
X210019130Y-103572635D01*
X209963110Y-103572635D01*
X209908169Y-103561707D01*
X209856422Y-103540273D01*
X209848763Y-103535155D01*
X209809841Y-103509149D01*
X209770231Y-103469539D01*
X209739110Y-103422962D01*
X209739107Y-103422958D01*
X209717673Y-103371211D01*
X209706745Y-103316270D01*
X209706745Y-103260250D01*
X209717673Y-103205309D01*
X209739107Y-103153562D01*
X209744225Y-103145903D01*
X209770231Y-103106981D01*
X209809841Y-103067371D01*
X209856418Y-103036250D01*
X209856422Y-103036247D01*
X209908169Y-103014813D01*
X209963110Y-103003885D01*
X210019130Y-103003885D01*
X210074071Y-103014813D01*
X210074071Y-103014813D01*
G37*
G36*
X211211571Y-103014813D02*
X211263318Y-103036247D01*
X211263322Y-103036250D01*
X211309899Y-103067371D01*
X211349509Y-103106981D01*
X211375515Y-103145903D01*
X211380633Y-103153562D01*
X211402067Y-103205309D01*
X211412995Y-103260250D01*
X211412995Y-103316270D01*
X211402067Y-103371211D01*
X211380633Y-103422958D01*
X211380630Y-103422962D01*
X211349509Y-103469539D01*
X211309899Y-103509149D01*
X211270977Y-103535155D01*
X211263318Y-103540273D01*
X211211571Y-103561707D01*
X211156630Y-103572635D01*
X211100610Y-103572635D01*
X211045669Y-103561707D01*
X210993922Y-103540273D01*
X210986263Y-103535155D01*
X210947341Y-103509149D01*
X210907731Y-103469539D01*
X210876610Y-103422962D01*
X210876607Y-103422958D01*
X210855173Y-103371211D01*
X210844245Y-103316270D01*
X210844245Y-103260250D01*
X210855173Y-103205309D01*
X210876607Y-103153562D01*
X210881725Y-103145903D01*
X210907731Y-103106981D01*
X210947341Y-103067371D01*
X210993918Y-103036250D01*
X210993922Y-103036247D01*
X211045669Y-103014813D01*
X211100610Y-103003885D01*
X211156630Y-103003885D01*
X211211571Y-103014813D01*
X211211571Y-103014813D01*
G37*
G36*
X212349071Y-103014813D02*
X212400818Y-103036247D01*
X212400822Y-103036250D01*
X212447399Y-103067371D01*
X212487009Y-103106981D01*
X212513015Y-103145903D01*
X212518133Y-103153562D01*
X212539567Y-103205309D01*
X212550495Y-103260250D01*
X212550495Y-103316270D01*
X212539567Y-103371211D01*
X212518133Y-103422958D01*
X212518130Y-103422962D01*
X212487009Y-103469539D01*
X212447399Y-103509149D01*
X212408477Y-103535155D01*
X212400818Y-103540273D01*
X212349071Y-103561707D01*
X212294130Y-103572635D01*
X212238110Y-103572635D01*
X212183169Y-103561707D01*
X212131422Y-103540273D01*
X212123763Y-103535155D01*
X212084841Y-103509149D01*
X212045231Y-103469539D01*
X212014110Y-103422962D01*
X212014107Y-103422958D01*
X211992673Y-103371211D01*
X211981745Y-103316270D01*
X211981745Y-103260250D01*
X211992673Y-103205309D01*
X212014107Y-103153562D01*
X212019225Y-103145903D01*
X212045231Y-103106981D01*
X212084841Y-103067371D01*
X212131418Y-103036250D01*
X212131422Y-103036247D01*
X212183169Y-103014813D01*
X212238110Y-103003885D01*
X212294130Y-103003885D01*
X212349071Y-103014813D01*
X212349071Y-103014813D01*
G37*
G36*
X207799071Y-103014813D02*
X207850818Y-103036247D01*
X207850822Y-103036250D01*
X207897399Y-103067371D01*
X207937009Y-103106981D01*
X207963015Y-103145903D01*
X207968133Y-103153562D01*
X207989567Y-103205309D01*
X208000495Y-103260250D01*
X208000495Y-103316270D01*
X207989567Y-103371211D01*
X207968133Y-103422958D01*
X207968130Y-103422962D01*
X207937009Y-103469539D01*
X207897399Y-103509149D01*
X207858477Y-103535155D01*
X207850818Y-103540273D01*
X207799071Y-103561707D01*
X207744130Y-103572635D01*
X207688110Y-103572635D01*
X207633169Y-103561707D01*
X207581422Y-103540273D01*
X207573763Y-103535155D01*
X207534841Y-103509149D01*
X207495231Y-103469539D01*
X207464110Y-103422962D01*
X207464107Y-103422958D01*
X207442673Y-103371211D01*
X207431745Y-103316270D01*
X207431745Y-103260250D01*
X207442673Y-103205309D01*
X207464107Y-103153562D01*
X207469225Y-103145903D01*
X207495231Y-103106981D01*
X207534841Y-103067371D01*
X207581418Y-103036250D01*
X207581422Y-103036247D01*
X207633169Y-103014813D01*
X207688110Y-103003885D01*
X207744130Y-103003885D01*
X207799071Y-103014813D01*
X207799071Y-103014813D01*
G37*
G36*
X213486571Y-103014813D02*
X213538318Y-103036247D01*
X213538322Y-103036250D01*
X213584899Y-103067371D01*
X213624509Y-103106981D01*
X213650515Y-103145903D01*
X213655633Y-103153562D01*
X213677067Y-103205309D01*
X213687995Y-103260250D01*
X213687995Y-103316270D01*
X213677067Y-103371211D01*
X213655633Y-103422958D01*
X213655630Y-103422962D01*
X213624509Y-103469539D01*
X213584899Y-103509149D01*
X213545977Y-103535155D01*
X213538318Y-103540273D01*
X213486571Y-103561707D01*
X213431630Y-103572635D01*
X213375610Y-103572635D01*
X213320669Y-103561707D01*
X213268922Y-103540273D01*
X213261263Y-103535155D01*
X213222341Y-103509149D01*
X213182731Y-103469539D01*
X213151610Y-103422962D01*
X213151607Y-103422958D01*
X213130173Y-103371211D01*
X213119245Y-103316270D01*
X213119245Y-103260250D01*
X213130173Y-103205309D01*
X213151607Y-103153562D01*
X213156725Y-103145903D01*
X213182731Y-103106981D01*
X213222341Y-103067371D01*
X213268918Y-103036250D01*
X213268922Y-103036247D01*
X213320669Y-103014813D01*
X213375610Y-103003885D01*
X213431630Y-103003885D01*
X213486571Y-103014813D01*
X213486571Y-103014813D01*
G37*
G36*
X215761571Y-103014813D02*
X215813318Y-103036247D01*
X215813322Y-103036250D01*
X215859899Y-103067371D01*
X215899509Y-103106981D01*
X215925515Y-103145903D01*
X215930633Y-103153562D01*
X215952067Y-103205309D01*
X215962995Y-103260250D01*
X215962995Y-103316270D01*
X215952067Y-103371211D01*
X215930633Y-103422958D01*
X215930630Y-103422962D01*
X215899509Y-103469539D01*
X215859899Y-103509149D01*
X215820977Y-103535155D01*
X215813318Y-103540273D01*
X215761571Y-103561707D01*
X215706630Y-103572635D01*
X215650610Y-103572635D01*
X215595669Y-103561707D01*
X215543922Y-103540273D01*
X215536263Y-103535155D01*
X215497341Y-103509149D01*
X215457731Y-103469539D01*
X215426610Y-103422962D01*
X215426607Y-103422958D01*
X215405173Y-103371211D01*
X215394245Y-103316270D01*
X215394245Y-103260250D01*
X215405173Y-103205309D01*
X215426607Y-103153562D01*
X215431725Y-103145903D01*
X215457731Y-103106981D01*
X215497341Y-103067371D01*
X215543918Y-103036250D01*
X215543922Y-103036247D01*
X215595669Y-103014813D01*
X215650610Y-103003885D01*
X215706630Y-103003885D01*
X215761571Y-103014813D01*
X215761571Y-103014813D01*
G37*
G36*
X212349071Y-101877313D02*
X212400818Y-101898747D01*
X212400822Y-101898750D01*
X212447399Y-101929871D01*
X212487009Y-101969481D01*
X212513015Y-102008403D01*
X212518133Y-102016062D01*
X212539567Y-102067809D01*
X212550495Y-102122750D01*
X212550495Y-102178770D01*
X212539567Y-102233711D01*
X212518133Y-102285458D01*
X212517215Y-102286832D01*
X212487009Y-102332039D01*
X212447399Y-102371649D01*
X212415366Y-102393052D01*
X212400818Y-102402773D01*
X212349071Y-102424207D01*
X212294130Y-102435135D01*
X212238110Y-102435135D01*
X212183169Y-102424207D01*
X212131422Y-102402773D01*
X212116874Y-102393052D01*
X212084841Y-102371649D01*
X212045231Y-102332039D01*
X212015025Y-102286832D01*
X212014107Y-102285458D01*
X211992673Y-102233711D01*
X211981745Y-102178770D01*
X211981745Y-102122750D01*
X211992673Y-102067809D01*
X212014107Y-102016062D01*
X212019225Y-102008403D01*
X212045231Y-101969481D01*
X212084841Y-101929871D01*
X212131418Y-101898750D01*
X212131422Y-101898747D01*
X212183169Y-101877313D01*
X212238110Y-101866385D01*
X212294130Y-101866385D01*
X212349071Y-101877313D01*
X212349071Y-101877313D01*
G37*
G36*
X215761571Y-101877313D02*
X215813318Y-101898747D01*
X215813322Y-101898750D01*
X215859899Y-101929871D01*
X215899509Y-101969481D01*
X215925515Y-102008403D01*
X215930633Y-102016062D01*
X215952067Y-102067809D01*
X215962995Y-102122750D01*
X215962995Y-102178770D01*
X215952067Y-102233711D01*
X215930633Y-102285458D01*
X215929715Y-102286832D01*
X215899509Y-102332039D01*
X215859899Y-102371649D01*
X215827866Y-102393052D01*
X215813318Y-102402773D01*
X215761571Y-102424207D01*
X215706630Y-102435135D01*
X215650610Y-102435135D01*
X215595669Y-102424207D01*
X215543922Y-102402773D01*
X215529374Y-102393052D01*
X215497341Y-102371649D01*
X215457731Y-102332039D01*
X215427525Y-102286832D01*
X215426607Y-102285458D01*
X215405173Y-102233711D01*
X215394245Y-102178770D01*
X215394245Y-102122750D01*
X215405173Y-102067809D01*
X215426607Y-102016062D01*
X215431725Y-102008403D01*
X215457731Y-101969481D01*
X215497341Y-101929871D01*
X215543918Y-101898750D01*
X215543922Y-101898747D01*
X215595669Y-101877313D01*
X215650610Y-101866385D01*
X215706630Y-101866385D01*
X215761571Y-101877313D01*
X215761571Y-101877313D01*
G37*
G36*
X214624071Y-101877313D02*
X214675818Y-101898747D01*
X214675822Y-101898750D01*
X214722399Y-101929871D01*
X214762009Y-101969481D01*
X214788015Y-102008403D01*
X214793133Y-102016062D01*
X214814567Y-102067809D01*
X214825495Y-102122750D01*
X214825495Y-102178770D01*
X214814567Y-102233711D01*
X214793133Y-102285458D01*
X214792215Y-102286832D01*
X214762009Y-102332039D01*
X214722399Y-102371649D01*
X214690366Y-102393052D01*
X214675818Y-102402773D01*
X214624071Y-102424207D01*
X214569130Y-102435135D01*
X214513110Y-102435135D01*
X214458169Y-102424207D01*
X214406422Y-102402773D01*
X214391874Y-102393052D01*
X214359841Y-102371649D01*
X214320231Y-102332039D01*
X214290025Y-102286832D01*
X214289107Y-102285458D01*
X214267673Y-102233711D01*
X214256745Y-102178770D01*
X214256745Y-102122750D01*
X214267673Y-102067809D01*
X214289107Y-102016062D01*
X214294225Y-102008403D01*
X214320231Y-101969481D01*
X214359841Y-101929871D01*
X214406418Y-101898750D01*
X214406422Y-101898747D01*
X214458169Y-101877313D01*
X214513110Y-101866385D01*
X214569130Y-101866385D01*
X214624071Y-101877313D01*
X214624071Y-101877313D01*
G37*
G36*
X213486571Y-101877313D02*
X213538318Y-101898747D01*
X213538322Y-101898750D01*
X213584899Y-101929871D01*
X213624509Y-101969481D01*
X213650515Y-102008403D01*
X213655633Y-102016062D01*
X213677067Y-102067809D01*
X213687995Y-102122750D01*
X213687995Y-102178770D01*
X213677067Y-102233711D01*
X213655633Y-102285458D01*
X213654715Y-102286832D01*
X213624509Y-102332039D01*
X213584899Y-102371649D01*
X213552866Y-102393052D01*
X213538318Y-102402773D01*
X213486571Y-102424207D01*
X213431630Y-102435135D01*
X213375610Y-102435135D01*
X213320669Y-102424207D01*
X213268922Y-102402773D01*
X213254374Y-102393052D01*
X213222341Y-102371649D01*
X213182731Y-102332039D01*
X213152525Y-102286832D01*
X213151607Y-102285458D01*
X213130173Y-102233711D01*
X213119245Y-102178770D01*
X213119245Y-102122750D01*
X213130173Y-102067809D01*
X213151607Y-102016062D01*
X213156725Y-102008403D01*
X213182731Y-101969481D01*
X213222341Y-101929871D01*
X213268918Y-101898750D01*
X213268922Y-101898747D01*
X213320669Y-101877313D01*
X213375610Y-101866385D01*
X213431630Y-101866385D01*
X213486571Y-101877313D01*
X213486571Y-101877313D01*
G37*
G36*
X211211571Y-101877313D02*
X211263318Y-101898747D01*
X211263322Y-101898750D01*
X211309899Y-101929871D01*
X211349509Y-101969481D01*
X211375515Y-102008403D01*
X211380633Y-102016062D01*
X211402067Y-102067809D01*
X211412995Y-102122750D01*
X211412995Y-102178770D01*
X211402067Y-102233711D01*
X211380633Y-102285458D01*
X211379715Y-102286832D01*
X211349509Y-102332039D01*
X211309899Y-102371649D01*
X211277866Y-102393052D01*
X211263318Y-102402773D01*
X211211571Y-102424207D01*
X211156630Y-102435135D01*
X211100610Y-102435135D01*
X211045669Y-102424207D01*
X210993922Y-102402773D01*
X210979374Y-102393052D01*
X210947341Y-102371649D01*
X210907731Y-102332039D01*
X210877525Y-102286832D01*
X210876607Y-102285458D01*
X210855173Y-102233711D01*
X210844245Y-102178770D01*
X210844245Y-102122750D01*
X210855173Y-102067809D01*
X210876607Y-102016062D01*
X210881725Y-102008403D01*
X210907731Y-101969481D01*
X210947341Y-101929871D01*
X210993918Y-101898750D01*
X210993922Y-101898747D01*
X211045669Y-101877313D01*
X211100610Y-101866385D01*
X211156630Y-101866385D01*
X211211571Y-101877313D01*
X211211571Y-101877313D01*
G37*
G36*
X210074071Y-101877313D02*
X210125818Y-101898747D01*
X210125822Y-101898750D01*
X210172399Y-101929871D01*
X210212009Y-101969481D01*
X210238015Y-102008403D01*
X210243133Y-102016062D01*
X210264567Y-102067809D01*
X210275495Y-102122750D01*
X210275495Y-102178770D01*
X210264567Y-102233711D01*
X210243133Y-102285458D01*
X210242215Y-102286832D01*
X210212009Y-102332039D01*
X210172399Y-102371649D01*
X210140366Y-102393052D01*
X210125818Y-102402773D01*
X210074071Y-102424207D01*
X210019130Y-102435135D01*
X209963110Y-102435135D01*
X209908169Y-102424207D01*
X209856422Y-102402773D01*
X209841874Y-102393052D01*
X209809841Y-102371649D01*
X209770231Y-102332039D01*
X209740025Y-102286832D01*
X209739107Y-102285458D01*
X209717673Y-102233711D01*
X209706745Y-102178770D01*
X209706745Y-102122750D01*
X209717673Y-102067809D01*
X209739107Y-102016062D01*
X209744225Y-102008403D01*
X209770231Y-101969481D01*
X209809841Y-101929871D01*
X209856418Y-101898750D01*
X209856422Y-101898747D01*
X209908169Y-101877313D01*
X209963110Y-101866385D01*
X210019130Y-101866385D01*
X210074071Y-101877313D01*
X210074071Y-101877313D01*
G37*
G36*
X208936571Y-101877313D02*
X208988318Y-101898747D01*
X208988322Y-101898750D01*
X209034899Y-101929871D01*
X209074509Y-101969481D01*
X209100515Y-102008403D01*
X209105633Y-102016062D01*
X209127067Y-102067809D01*
X209137995Y-102122750D01*
X209137995Y-102178770D01*
X209127067Y-102233711D01*
X209105633Y-102285458D01*
X209104715Y-102286832D01*
X209074509Y-102332039D01*
X209034899Y-102371649D01*
X209002866Y-102393052D01*
X208988318Y-102402773D01*
X208936571Y-102424207D01*
X208881630Y-102435135D01*
X208825610Y-102435135D01*
X208770669Y-102424207D01*
X208718922Y-102402773D01*
X208704374Y-102393052D01*
X208672341Y-102371649D01*
X208632731Y-102332039D01*
X208602525Y-102286832D01*
X208601607Y-102285458D01*
X208580173Y-102233711D01*
X208569245Y-102178770D01*
X208569245Y-102122750D01*
X208580173Y-102067809D01*
X208601607Y-102016062D01*
X208606725Y-102008403D01*
X208632731Y-101969481D01*
X208672341Y-101929871D01*
X208718918Y-101898750D01*
X208718922Y-101898747D01*
X208770669Y-101877313D01*
X208825610Y-101866385D01*
X208881630Y-101866385D01*
X208936571Y-101877313D01*
X208936571Y-101877313D01*
G37*
G36*
X207799071Y-101877313D02*
X207850818Y-101898747D01*
X207850822Y-101898750D01*
X207897399Y-101929871D01*
X207937009Y-101969481D01*
X207963015Y-102008403D01*
X207968133Y-102016062D01*
X207989567Y-102067809D01*
X208000495Y-102122750D01*
X208000495Y-102178770D01*
X207989567Y-102233711D01*
X207968133Y-102285458D01*
X207967215Y-102286832D01*
X207937009Y-102332039D01*
X207897399Y-102371649D01*
X207865366Y-102393052D01*
X207850818Y-102402773D01*
X207799071Y-102424207D01*
X207744130Y-102435135D01*
X207688110Y-102435135D01*
X207633169Y-102424207D01*
X207581422Y-102402773D01*
X207566874Y-102393052D01*
X207534841Y-102371649D01*
X207495231Y-102332039D01*
X207465025Y-102286832D01*
X207464107Y-102285458D01*
X207442673Y-102233711D01*
X207431745Y-102178770D01*
X207431745Y-102122750D01*
X207442673Y-102067809D01*
X207464107Y-102016062D01*
X207469225Y-102008403D01*
X207495231Y-101969481D01*
X207534841Y-101929871D01*
X207581418Y-101898750D01*
X207581422Y-101898747D01*
X207633169Y-101877313D01*
X207688110Y-101866385D01*
X207744130Y-101866385D01*
X207799071Y-101877313D01*
X207799071Y-101877313D01*
G37*
G36*
X230290630Y-99619299D02*
X230450855Y-99667903D01*
X230598520Y-99746831D01*
X230727949Y-99853051D01*
X230834169Y-99982480D01*
X230913097Y-100130145D01*
X230961701Y-100290370D01*
X230978112Y-100457000D01*
X230961701Y-100623630D01*
X230913097Y-100783855D01*
X230834169Y-100931520D01*
X230727949Y-101060949D01*
X230598520Y-101167169D01*
X230450855Y-101246097D01*
X230290630Y-101294701D01*
X230165752Y-101307000D01*
X230082248Y-101307000D01*
X229957370Y-101294701D01*
X229797145Y-101246097D01*
X229649480Y-101167169D01*
X229520051Y-101060949D01*
X229413831Y-100931520D01*
X229334903Y-100783855D01*
X229286299Y-100623630D01*
X229269888Y-100457000D01*
X229286299Y-100290370D01*
X229334903Y-100130145D01*
X229413831Y-99982480D01*
X229520051Y-99853051D01*
X229649480Y-99746831D01*
X229797145Y-99667903D01*
X229957370Y-99619299D01*
X230082248Y-99607000D01*
X230165752Y-99607000D01*
X230290630Y-99619299D01*
X230290630Y-99619299D01*
G37*
G36*
X214624071Y-100739813D02*
X214675818Y-100761247D01*
X214675822Y-100761250D01*
X214722399Y-100792371D01*
X214762009Y-100831981D01*
X214788015Y-100870903D01*
X214793133Y-100878562D01*
X214814567Y-100930309D01*
X214825495Y-100985250D01*
X214825495Y-101041270D01*
X214814567Y-101096211D01*
X214793133Y-101147958D01*
X214793130Y-101147962D01*
X214762009Y-101194539D01*
X214722399Y-101234149D01*
X214683477Y-101260155D01*
X214675818Y-101265273D01*
X214624071Y-101286707D01*
X214569130Y-101297635D01*
X214513110Y-101297635D01*
X214458169Y-101286707D01*
X214406422Y-101265273D01*
X214398763Y-101260155D01*
X214359841Y-101234149D01*
X214320231Y-101194539D01*
X214289110Y-101147962D01*
X214289107Y-101147958D01*
X214267673Y-101096211D01*
X214256745Y-101041270D01*
X214256745Y-100985250D01*
X214267673Y-100930309D01*
X214289107Y-100878562D01*
X214294225Y-100870903D01*
X214320231Y-100831981D01*
X214359841Y-100792371D01*
X214406418Y-100761250D01*
X214406422Y-100761247D01*
X214458169Y-100739813D01*
X214513110Y-100728885D01*
X214569130Y-100728885D01*
X214624071Y-100739813D01*
X214624071Y-100739813D01*
G37*
G36*
X215761571Y-100739813D02*
X215813318Y-100761247D01*
X215813322Y-100761250D01*
X215859899Y-100792371D01*
X215899509Y-100831981D01*
X215925515Y-100870903D01*
X215930633Y-100878562D01*
X215952067Y-100930309D01*
X215962995Y-100985250D01*
X215962995Y-101041270D01*
X215952067Y-101096211D01*
X215930633Y-101147958D01*
X215930630Y-101147962D01*
X215899509Y-101194539D01*
X215859899Y-101234149D01*
X215820977Y-101260155D01*
X215813318Y-101265273D01*
X215761571Y-101286707D01*
X215706630Y-101297635D01*
X215650610Y-101297635D01*
X215595669Y-101286707D01*
X215543922Y-101265273D01*
X215536263Y-101260155D01*
X215497341Y-101234149D01*
X215457731Y-101194539D01*
X215426610Y-101147962D01*
X215426607Y-101147958D01*
X215405173Y-101096211D01*
X215394245Y-101041270D01*
X215394245Y-100985250D01*
X215405173Y-100930309D01*
X215426607Y-100878562D01*
X215431725Y-100870903D01*
X215457731Y-100831981D01*
X215497341Y-100792371D01*
X215543918Y-100761250D01*
X215543922Y-100761247D01*
X215595669Y-100739813D01*
X215650610Y-100728885D01*
X215706630Y-100728885D01*
X215761571Y-100739813D01*
X215761571Y-100739813D01*
G37*
G36*
X207799071Y-100739813D02*
X207850818Y-100761247D01*
X207850822Y-100761250D01*
X207897399Y-100792371D01*
X207937009Y-100831981D01*
X207963015Y-100870903D01*
X207968133Y-100878562D01*
X207989567Y-100930309D01*
X208000495Y-100985250D01*
X208000495Y-101041270D01*
X207989567Y-101096211D01*
X207968133Y-101147958D01*
X207968130Y-101147962D01*
X207937009Y-101194539D01*
X207897399Y-101234149D01*
X207858477Y-101260155D01*
X207850818Y-101265273D01*
X207799071Y-101286707D01*
X207744130Y-101297635D01*
X207688110Y-101297635D01*
X207633169Y-101286707D01*
X207581422Y-101265273D01*
X207573763Y-101260155D01*
X207534841Y-101234149D01*
X207495231Y-101194539D01*
X207464110Y-101147962D01*
X207464107Y-101147958D01*
X207442673Y-101096211D01*
X207431745Y-101041270D01*
X207431745Y-100985250D01*
X207442673Y-100930309D01*
X207464107Y-100878562D01*
X207469225Y-100870903D01*
X207495231Y-100831981D01*
X207534841Y-100792371D01*
X207581418Y-100761250D01*
X207581422Y-100761247D01*
X207633169Y-100739813D01*
X207688110Y-100728885D01*
X207744130Y-100728885D01*
X207799071Y-100739813D01*
X207799071Y-100739813D01*
G37*
G36*
X208936571Y-100739813D02*
X208988318Y-100761247D01*
X208988322Y-100761250D01*
X209034899Y-100792371D01*
X209074509Y-100831981D01*
X209100515Y-100870903D01*
X209105633Y-100878562D01*
X209127067Y-100930309D01*
X209137995Y-100985250D01*
X209137995Y-101041270D01*
X209127067Y-101096211D01*
X209105633Y-101147958D01*
X209105630Y-101147962D01*
X209074509Y-101194539D01*
X209034899Y-101234149D01*
X208995977Y-101260155D01*
X208988318Y-101265273D01*
X208936571Y-101286707D01*
X208881630Y-101297635D01*
X208825610Y-101297635D01*
X208770669Y-101286707D01*
X208718922Y-101265273D01*
X208711263Y-101260155D01*
X208672341Y-101234149D01*
X208632731Y-101194539D01*
X208601610Y-101147962D01*
X208601607Y-101147958D01*
X208580173Y-101096211D01*
X208569245Y-101041270D01*
X208569245Y-100985250D01*
X208580173Y-100930309D01*
X208601607Y-100878562D01*
X208606725Y-100870903D01*
X208632731Y-100831981D01*
X208672341Y-100792371D01*
X208718918Y-100761250D01*
X208718922Y-100761247D01*
X208770669Y-100739813D01*
X208825610Y-100728885D01*
X208881630Y-100728885D01*
X208936571Y-100739813D01*
X208936571Y-100739813D01*
G37*
G36*
X211211571Y-100739813D02*
X211263318Y-100761247D01*
X211263322Y-100761250D01*
X211309899Y-100792371D01*
X211349509Y-100831981D01*
X211375515Y-100870903D01*
X211380633Y-100878562D01*
X211402067Y-100930309D01*
X211412995Y-100985250D01*
X211412995Y-101041270D01*
X211402067Y-101096211D01*
X211380633Y-101147958D01*
X211380630Y-101147962D01*
X211349509Y-101194539D01*
X211309899Y-101234149D01*
X211270977Y-101260155D01*
X211263318Y-101265273D01*
X211211571Y-101286707D01*
X211156630Y-101297635D01*
X211100610Y-101297635D01*
X211045669Y-101286707D01*
X210993922Y-101265273D01*
X210986263Y-101260155D01*
X210947341Y-101234149D01*
X210907731Y-101194539D01*
X210876610Y-101147962D01*
X210876607Y-101147958D01*
X210855173Y-101096211D01*
X210844245Y-101041270D01*
X210844245Y-100985250D01*
X210855173Y-100930309D01*
X210876607Y-100878562D01*
X210881725Y-100870903D01*
X210907731Y-100831981D01*
X210947341Y-100792371D01*
X210993918Y-100761250D01*
X210993922Y-100761247D01*
X211045669Y-100739813D01*
X211100610Y-100728885D01*
X211156630Y-100728885D01*
X211211571Y-100739813D01*
X211211571Y-100739813D01*
G37*
G36*
X212349071Y-100739813D02*
X212400818Y-100761247D01*
X212400822Y-100761250D01*
X212447399Y-100792371D01*
X212487009Y-100831981D01*
X212513015Y-100870903D01*
X212518133Y-100878562D01*
X212539567Y-100930309D01*
X212550495Y-100985250D01*
X212550495Y-101041270D01*
X212539567Y-101096211D01*
X212518133Y-101147958D01*
X212518130Y-101147962D01*
X212487009Y-101194539D01*
X212447399Y-101234149D01*
X212408477Y-101260155D01*
X212400818Y-101265273D01*
X212349071Y-101286707D01*
X212294130Y-101297635D01*
X212238110Y-101297635D01*
X212183169Y-101286707D01*
X212131422Y-101265273D01*
X212123763Y-101260155D01*
X212084841Y-101234149D01*
X212045231Y-101194539D01*
X212014110Y-101147962D01*
X212014107Y-101147958D01*
X211992673Y-101096211D01*
X211981745Y-101041270D01*
X211981745Y-100985250D01*
X211992673Y-100930309D01*
X212014107Y-100878562D01*
X212019225Y-100870903D01*
X212045231Y-100831981D01*
X212084841Y-100792371D01*
X212131418Y-100761250D01*
X212131422Y-100761247D01*
X212183169Y-100739813D01*
X212238110Y-100728885D01*
X212294130Y-100728885D01*
X212349071Y-100739813D01*
X212349071Y-100739813D01*
G37*
G36*
X213486571Y-100739813D02*
X213538318Y-100761247D01*
X213538322Y-100761250D01*
X213584899Y-100792371D01*
X213624509Y-100831981D01*
X213650515Y-100870903D01*
X213655633Y-100878562D01*
X213677067Y-100930309D01*
X213687995Y-100985250D01*
X213687995Y-101041270D01*
X213677067Y-101096211D01*
X213655633Y-101147958D01*
X213655630Y-101147962D01*
X213624509Y-101194539D01*
X213584899Y-101234149D01*
X213545977Y-101260155D01*
X213538318Y-101265273D01*
X213486571Y-101286707D01*
X213431630Y-101297635D01*
X213375610Y-101297635D01*
X213320669Y-101286707D01*
X213268922Y-101265273D01*
X213261263Y-101260155D01*
X213222341Y-101234149D01*
X213182731Y-101194539D01*
X213151610Y-101147962D01*
X213151607Y-101147958D01*
X213130173Y-101096211D01*
X213119245Y-101041270D01*
X213119245Y-100985250D01*
X213130173Y-100930309D01*
X213151607Y-100878562D01*
X213156725Y-100870903D01*
X213182731Y-100831981D01*
X213222341Y-100792371D01*
X213268918Y-100761250D01*
X213268922Y-100761247D01*
X213320669Y-100739813D01*
X213375610Y-100728885D01*
X213431630Y-100728885D01*
X213486571Y-100739813D01*
X213486571Y-100739813D01*
G37*
G36*
X210074071Y-100739813D02*
X210125818Y-100761247D01*
X210125822Y-100761250D01*
X210172399Y-100792371D01*
X210212009Y-100831981D01*
X210238015Y-100870903D01*
X210243133Y-100878562D01*
X210264567Y-100930309D01*
X210275495Y-100985250D01*
X210275495Y-101041270D01*
X210264567Y-101096211D01*
X210243133Y-101147958D01*
X210243130Y-101147962D01*
X210212009Y-101194539D01*
X210172399Y-101234149D01*
X210133477Y-101260155D01*
X210125818Y-101265273D01*
X210074071Y-101286707D01*
X210019130Y-101297635D01*
X209963110Y-101297635D01*
X209908169Y-101286707D01*
X209856422Y-101265273D01*
X209848763Y-101260155D01*
X209809841Y-101234149D01*
X209770231Y-101194539D01*
X209739110Y-101147962D01*
X209739107Y-101147958D01*
X209717673Y-101096211D01*
X209706745Y-101041270D01*
X209706745Y-100985250D01*
X209717673Y-100930309D01*
X209739107Y-100878562D01*
X209744225Y-100870903D01*
X209770231Y-100831981D01*
X209809841Y-100792371D01*
X209856418Y-100761250D01*
X209856422Y-100761247D01*
X209908169Y-100739813D01*
X209963110Y-100728885D01*
X210019130Y-100728885D01*
X210074071Y-100739813D01*
X210074071Y-100739813D01*
G37*
G36*
X230290630Y-97079299D02*
X230450855Y-97127903D01*
X230598520Y-97206831D01*
X230727949Y-97313051D01*
X230834169Y-97442480D01*
X230913097Y-97590145D01*
X230961701Y-97750370D01*
X230978112Y-97917000D01*
X230961701Y-98083630D01*
X230913097Y-98243855D01*
X230834169Y-98391520D01*
X230727949Y-98520949D01*
X230598520Y-98627169D01*
X230450855Y-98706097D01*
X230290630Y-98754701D01*
X230165752Y-98767000D01*
X230082248Y-98767000D01*
X229957370Y-98754701D01*
X229797145Y-98706097D01*
X229649480Y-98627169D01*
X229520051Y-98520949D01*
X229413831Y-98391520D01*
X229334903Y-98243855D01*
X229286299Y-98083630D01*
X229269888Y-97917000D01*
X229286299Y-97750370D01*
X229334903Y-97590145D01*
X229413831Y-97442480D01*
X229520051Y-97313051D01*
X229649480Y-97206831D01*
X229797145Y-97127903D01*
X229957370Y-97079299D01*
X230082248Y-97067000D01*
X230165752Y-97067000D01*
X230290630Y-97079299D01*
X230290630Y-97079299D01*
G37*
G36*
X230290630Y-94539299D02*
X230450855Y-94587903D01*
X230598520Y-94666831D01*
X230727949Y-94773051D01*
X230834169Y-94902480D01*
X230913097Y-95050145D01*
X230961701Y-95210370D01*
X230978112Y-95377000D01*
X230961701Y-95543630D01*
X230913097Y-95703855D01*
X230834169Y-95851520D01*
X230727949Y-95980949D01*
X230598520Y-96087169D01*
X230450855Y-96166097D01*
X230290630Y-96214701D01*
X230165752Y-96227000D01*
X230082248Y-96227000D01*
X229957370Y-96214701D01*
X229797145Y-96166097D01*
X229649480Y-96087169D01*
X229520051Y-95980949D01*
X229413831Y-95851520D01*
X229334903Y-95703855D01*
X229286299Y-95543630D01*
X229269888Y-95377000D01*
X229286299Y-95210370D01*
X229334903Y-95050145D01*
X229413831Y-94902480D01*
X229520051Y-94773051D01*
X229649480Y-94666831D01*
X229797145Y-94587903D01*
X229957370Y-94539299D01*
X230082248Y-94527000D01*
X230165752Y-94527000D01*
X230290630Y-94539299D01*
X230290630Y-94539299D01*
G37*
G36*
X230290630Y-91999299D02*
X230450855Y-92047903D01*
X230598520Y-92126831D01*
X230727949Y-92233051D01*
X230834169Y-92362480D01*
X230913097Y-92510145D01*
X230961701Y-92670370D01*
X230978112Y-92837000D01*
X230961701Y-93003630D01*
X230913097Y-93163855D01*
X230834169Y-93311520D01*
X230727949Y-93440949D01*
X230598520Y-93547169D01*
X230450855Y-93626097D01*
X230290630Y-93674701D01*
X230165752Y-93687000D01*
X230082248Y-93687000D01*
X229957370Y-93674701D01*
X229797145Y-93626097D01*
X229649480Y-93547169D01*
X229520051Y-93440949D01*
X229413831Y-93311520D01*
X229334903Y-93163855D01*
X229286299Y-93003630D01*
X229269888Y-92837000D01*
X229286299Y-92670370D01*
X229334903Y-92510145D01*
X229413831Y-92362480D01*
X229520051Y-92233051D01*
X229649480Y-92126831D01*
X229797145Y-92047903D01*
X229957370Y-91999299D01*
X230082248Y-91987000D01*
X230165752Y-91987000D01*
X230290630Y-91999299D01*
X230290630Y-91999299D01*
G37*
G36*
X230290630Y-89459299D02*
X230450855Y-89507903D01*
X230598520Y-89586831D01*
X230727949Y-89693051D01*
X230834169Y-89822480D01*
X230913097Y-89970145D01*
X230961701Y-90130370D01*
X230978112Y-90297000D01*
X230961701Y-90463630D01*
X230913097Y-90623855D01*
X230834169Y-90771520D01*
X230727949Y-90900949D01*
X230598520Y-91007169D01*
X230450855Y-91086097D01*
X230290630Y-91134701D01*
X230165752Y-91147000D01*
X230082248Y-91147000D01*
X229957370Y-91134701D01*
X229797145Y-91086097D01*
X229649480Y-91007169D01*
X229520051Y-90900949D01*
X229413831Y-90771520D01*
X229334903Y-90623855D01*
X229286299Y-90463630D01*
X229269888Y-90297000D01*
X229286299Y-90130370D01*
X229334903Y-89970145D01*
X229413831Y-89822480D01*
X229520051Y-89693051D01*
X229649480Y-89586831D01*
X229797145Y-89507903D01*
X229957370Y-89459299D01*
X230082248Y-89447000D01*
X230165752Y-89447000D01*
X230290630Y-89459299D01*
X230290630Y-89459299D01*
G37*
G36*
X230290630Y-86919299D02*
X230450855Y-86967903D01*
X230598520Y-87046831D01*
X230727949Y-87153051D01*
X230834169Y-87282480D01*
X230913097Y-87430145D01*
X230961701Y-87590370D01*
X230978112Y-87757000D01*
X230961701Y-87923630D01*
X230913097Y-88083855D01*
X230834169Y-88231520D01*
X230727949Y-88360949D01*
X230598520Y-88467169D01*
X230450855Y-88546097D01*
X230290630Y-88594701D01*
X230165752Y-88607000D01*
X230082248Y-88607000D01*
X229957370Y-88594701D01*
X229797145Y-88546097D01*
X229649480Y-88467169D01*
X229520051Y-88360949D01*
X229413831Y-88231520D01*
X229334903Y-88083855D01*
X229286299Y-87923630D01*
X229269888Y-87757000D01*
X229286299Y-87590370D01*
X229334903Y-87430145D01*
X229413831Y-87282480D01*
X229520051Y-87153051D01*
X229649480Y-87046831D01*
X229797145Y-86967903D01*
X229957370Y-86919299D01*
X230082248Y-86907000D01*
X230165752Y-86907000D01*
X230290630Y-86919299D01*
X230290630Y-86919299D01*
G37*
G36*
X230290630Y-84379299D02*
X230450855Y-84427903D01*
X230598520Y-84506831D01*
X230727949Y-84613051D01*
X230834169Y-84742480D01*
X230913097Y-84890145D01*
X230961701Y-85050370D01*
X230978112Y-85217000D01*
X230961701Y-85383630D01*
X230913097Y-85543855D01*
X230834169Y-85691520D01*
X230727949Y-85820949D01*
X230598520Y-85927169D01*
X230450855Y-86006097D01*
X230290630Y-86054701D01*
X230165752Y-86067000D01*
X230082248Y-86067000D01*
X229957370Y-86054701D01*
X229797145Y-86006097D01*
X229649480Y-85927169D01*
X229520051Y-85820949D01*
X229413831Y-85691520D01*
X229334903Y-85543855D01*
X229286299Y-85383630D01*
X229269888Y-85217000D01*
X229286299Y-85050370D01*
X229334903Y-84890145D01*
X229413831Y-84742480D01*
X229520051Y-84613051D01*
X229649480Y-84506831D01*
X229797145Y-84427903D01*
X229957370Y-84379299D01*
X230082248Y-84367000D01*
X230165752Y-84367000D01*
X230290630Y-84379299D01*
X230290630Y-84379299D01*
G37*
G36*
X230290630Y-81839299D02*
X230450855Y-81887903D01*
X230598520Y-81966831D01*
X230727949Y-82073051D01*
X230834169Y-82202480D01*
X230913097Y-82350145D01*
X230961701Y-82510370D01*
X230978112Y-82677000D01*
X230961701Y-82843630D01*
X230913097Y-83003855D01*
X230834169Y-83151520D01*
X230727949Y-83280949D01*
X230598520Y-83387169D01*
X230450855Y-83466097D01*
X230290630Y-83514701D01*
X230165752Y-83527000D01*
X230082248Y-83527000D01*
X229957370Y-83514701D01*
X229797145Y-83466097D01*
X229649480Y-83387169D01*
X229520051Y-83280949D01*
X229413831Y-83151520D01*
X229334903Y-83003855D01*
X229286299Y-82843630D01*
X229269888Y-82677000D01*
X229286299Y-82510370D01*
X229334903Y-82350145D01*
X229413831Y-82202480D01*
X229520051Y-82073051D01*
X229649480Y-81966831D01*
X229797145Y-81887903D01*
X229957370Y-81839299D01*
X230082248Y-81827000D01*
X230165752Y-81827000D01*
X230290630Y-81839299D01*
X230290630Y-81839299D01*
G37*
G36*
X230290630Y-79299299D02*
X230450855Y-79347903D01*
X230598520Y-79426831D01*
X230727949Y-79533051D01*
X230834169Y-79662480D01*
X230913097Y-79810145D01*
X230961701Y-79970370D01*
X230978112Y-80137000D01*
X230961701Y-80303630D01*
X230913097Y-80463855D01*
X230834169Y-80611520D01*
X230727949Y-80740949D01*
X230598520Y-80847169D01*
X230450855Y-80926097D01*
X230290630Y-80974701D01*
X230165752Y-80987000D01*
X230082248Y-80987000D01*
X229957370Y-80974701D01*
X229797145Y-80926097D01*
X229649480Y-80847169D01*
X229520051Y-80740949D01*
X229413831Y-80611520D01*
X229334903Y-80463855D01*
X229286299Y-80303630D01*
X229269888Y-80137000D01*
X229286299Y-79970370D01*
X229334903Y-79810145D01*
X229413831Y-79662480D01*
X229520051Y-79533051D01*
X229649480Y-79426831D01*
X229797145Y-79347903D01*
X229957370Y-79299299D01*
X230082248Y-79287000D01*
X230165752Y-79287000D01*
X230290630Y-79299299D01*
X230290630Y-79299299D01*
G37*
G36*
X214796630Y-78918299D02*
X214956855Y-78966903D01*
X215104520Y-79045831D01*
X215233949Y-79152051D01*
X215340169Y-79281480D01*
X215419097Y-79429145D01*
X215467701Y-79589370D01*
X215484112Y-79756000D01*
X215467701Y-79922630D01*
X215419097Y-80082855D01*
X215340169Y-80230520D01*
X215233949Y-80359949D01*
X215104520Y-80466169D01*
X214956855Y-80545097D01*
X214796630Y-80593701D01*
X214671752Y-80606000D01*
X214588248Y-80606000D01*
X214463370Y-80593701D01*
X214303145Y-80545097D01*
X214155480Y-80466169D01*
X214026051Y-80359949D01*
X213919831Y-80230520D01*
X213840903Y-80082855D01*
X213792299Y-79922630D01*
X213775888Y-79756000D01*
X213792299Y-79589370D01*
X213840903Y-79429145D01*
X213919831Y-79281480D01*
X214026051Y-79152051D01*
X214155480Y-79045831D01*
X214303145Y-78966903D01*
X214463370Y-78918299D01*
X214588248Y-78906000D01*
X214671752Y-78906000D01*
X214796630Y-78918299D01*
X214796630Y-78918299D01*
G37*
G36*
X218020000Y-80606000D02*
X216320000Y-80606000D01*
X216320000Y-78906000D01*
X218020000Y-78906000D01*
X218020000Y-80606000D01*
X218020000Y-80606000D01*
G37*
G36*
X230290630Y-76759299D02*
X230450855Y-76807903D01*
X230598520Y-76886831D01*
X230727949Y-76993051D01*
X230834169Y-77122480D01*
X230913097Y-77270145D01*
X230961701Y-77430370D01*
X230978112Y-77597000D01*
X230961701Y-77763630D01*
X230913097Y-77923855D01*
X230834169Y-78071520D01*
X230727949Y-78200949D01*
X230598520Y-78307169D01*
X230450855Y-78386097D01*
X230290630Y-78434701D01*
X230165752Y-78447000D01*
X230082248Y-78447000D01*
X229957370Y-78434701D01*
X229797145Y-78386097D01*
X229649480Y-78307169D01*
X229520051Y-78200949D01*
X229413831Y-78071520D01*
X229334903Y-77923855D01*
X229286299Y-77763630D01*
X229269888Y-77597000D01*
X229286299Y-77430370D01*
X229334903Y-77270145D01*
X229413831Y-77122480D01*
X229520051Y-76993051D01*
X229649480Y-76886831D01*
X229797145Y-76807903D01*
X229957370Y-76759299D01*
X230082248Y-76747000D01*
X230165752Y-76747000D01*
X230290630Y-76759299D01*
X230290630Y-76759299D01*
G37*
G36*
X219588312Y-75675364D02*
X219750098Y-75742378D01*
X219895707Y-75839671D01*
X220019529Y-75963493D01*
X220116822Y-76109102D01*
X220183836Y-76270888D01*
X220218000Y-76442641D01*
X220218000Y-76617759D01*
X220183836Y-76789512D01*
X220116822Y-76951298D01*
X220019529Y-77096907D01*
X219895707Y-77220729D01*
X219750098Y-77318022D01*
X219588312Y-77385036D01*
X219416559Y-77419200D01*
X219241441Y-77419200D01*
X219069688Y-77385036D01*
X218907902Y-77318022D01*
X218762293Y-77220729D01*
X218638471Y-77096907D01*
X218541178Y-76951298D01*
X218474164Y-76789512D01*
X218440000Y-76617759D01*
X218440000Y-76442641D01*
X218474164Y-76270888D01*
X218541178Y-76109102D01*
X218638471Y-75963493D01*
X218762293Y-75839671D01*
X218907902Y-75742378D01*
X219069688Y-75675364D01*
X219241441Y-75641200D01*
X219416559Y-75641200D01*
X219588312Y-75675364D01*
X219588312Y-75675364D01*
G37*
G36*
X201808312Y-75675364D02*
X201970098Y-75742378D01*
X202115707Y-75839671D01*
X202239529Y-75963493D01*
X202336822Y-76109102D01*
X202403836Y-76270888D01*
X202438000Y-76442641D01*
X202438000Y-76617759D01*
X202403836Y-76789512D01*
X202336822Y-76951298D01*
X202239529Y-77096907D01*
X202115707Y-77220729D01*
X201970098Y-77318022D01*
X201808312Y-77385036D01*
X201636559Y-77419200D01*
X201461441Y-77419200D01*
X201289688Y-77385036D01*
X201127902Y-77318022D01*
X200982293Y-77220729D01*
X200858471Y-77096907D01*
X200761178Y-76951298D01*
X200694164Y-76789512D01*
X200660000Y-76617759D01*
X200660000Y-76442641D01*
X200694164Y-76270888D01*
X200761178Y-76109102D01*
X200858471Y-75963493D01*
X200982293Y-75839671D01*
X201127902Y-75742378D01*
X201289688Y-75675364D01*
X201461441Y-75641200D01*
X201636559Y-75641200D01*
X201808312Y-75675364D01*
X201808312Y-75675364D01*
G37*
G36*
X204348312Y-75675364D02*
X204510098Y-75742378D01*
X204655707Y-75839671D01*
X204779529Y-75963493D01*
X204876822Y-76109102D01*
X204943836Y-76270888D01*
X204978000Y-76442641D01*
X204978000Y-76617759D01*
X204943836Y-76789512D01*
X204876822Y-76951298D01*
X204779529Y-77096907D01*
X204655707Y-77220729D01*
X204510098Y-77318022D01*
X204348312Y-77385036D01*
X204176559Y-77419200D01*
X204001441Y-77419200D01*
X203829688Y-77385036D01*
X203667902Y-77318022D01*
X203522293Y-77220729D01*
X203398471Y-77096907D01*
X203301178Y-76951298D01*
X203234164Y-76789512D01*
X203200000Y-76617759D01*
X203200000Y-76442641D01*
X203234164Y-76270888D01*
X203301178Y-76109102D01*
X203398471Y-75963493D01*
X203522293Y-75839671D01*
X203667902Y-75742378D01*
X203829688Y-75675364D01*
X204001441Y-75641200D01*
X204176559Y-75641200D01*
X204348312Y-75675364D01*
X204348312Y-75675364D01*
G37*
G36*
X206888312Y-75675364D02*
X207050098Y-75742378D01*
X207195707Y-75839671D01*
X207319529Y-75963493D01*
X207416822Y-76109102D01*
X207483836Y-76270888D01*
X207518000Y-76442641D01*
X207518000Y-76617759D01*
X207483836Y-76789512D01*
X207416822Y-76951298D01*
X207319529Y-77096907D01*
X207195707Y-77220729D01*
X207050098Y-77318022D01*
X206888312Y-77385036D01*
X206716559Y-77419200D01*
X206541441Y-77419200D01*
X206369688Y-77385036D01*
X206207902Y-77318022D01*
X206062293Y-77220729D01*
X205938471Y-77096907D01*
X205841178Y-76951298D01*
X205774164Y-76789512D01*
X205740000Y-76617759D01*
X205740000Y-76442641D01*
X205774164Y-76270888D01*
X205841178Y-76109102D01*
X205938471Y-75963493D01*
X206062293Y-75839671D01*
X206207902Y-75742378D01*
X206369688Y-75675364D01*
X206541441Y-75641200D01*
X206716559Y-75641200D01*
X206888312Y-75675364D01*
X206888312Y-75675364D01*
G37*
G36*
X211968312Y-75675364D02*
X212130098Y-75742378D01*
X212275707Y-75839671D01*
X212399529Y-75963493D01*
X212496822Y-76109102D01*
X212563836Y-76270888D01*
X212598000Y-76442641D01*
X212598000Y-76617759D01*
X212563836Y-76789512D01*
X212496822Y-76951298D01*
X212399529Y-77096907D01*
X212275707Y-77220729D01*
X212130098Y-77318022D01*
X211968312Y-77385036D01*
X211796559Y-77419200D01*
X211621441Y-77419200D01*
X211449688Y-77385036D01*
X211287902Y-77318022D01*
X211142293Y-77220729D01*
X211018471Y-77096907D01*
X210921178Y-76951298D01*
X210854164Y-76789512D01*
X210820000Y-76617759D01*
X210820000Y-76442641D01*
X210854164Y-76270888D01*
X210921178Y-76109102D01*
X211018471Y-75963493D01*
X211142293Y-75839671D01*
X211287902Y-75742378D01*
X211449688Y-75675364D01*
X211621441Y-75641200D01*
X211796559Y-75641200D01*
X211968312Y-75675364D01*
X211968312Y-75675364D01*
G37*
G36*
X214508312Y-75675364D02*
X214670098Y-75742378D01*
X214815707Y-75839671D01*
X214939529Y-75963493D01*
X215036822Y-76109102D01*
X215103836Y-76270888D01*
X215138000Y-76442641D01*
X215138000Y-76617759D01*
X215103836Y-76789512D01*
X215036822Y-76951298D01*
X214939529Y-77096907D01*
X214815707Y-77220729D01*
X214670098Y-77318022D01*
X214508312Y-77385036D01*
X214336559Y-77419200D01*
X214161441Y-77419200D01*
X213989688Y-77385036D01*
X213827902Y-77318022D01*
X213682293Y-77220729D01*
X213558471Y-77096907D01*
X213461178Y-76951298D01*
X213394164Y-76789512D01*
X213360000Y-76617759D01*
X213360000Y-76442641D01*
X213394164Y-76270888D01*
X213461178Y-76109102D01*
X213558471Y-75963493D01*
X213682293Y-75839671D01*
X213827902Y-75742378D01*
X213989688Y-75675364D01*
X214161441Y-75641200D01*
X214336559Y-75641200D01*
X214508312Y-75675364D01*
X214508312Y-75675364D01*
G37*
G36*
X217048312Y-75675364D02*
X217210098Y-75742378D01*
X217355707Y-75839671D01*
X217479529Y-75963493D01*
X217576822Y-76109102D01*
X217643836Y-76270888D01*
X217678000Y-76442641D01*
X217678000Y-76617759D01*
X217643836Y-76789512D01*
X217576822Y-76951298D01*
X217479529Y-77096907D01*
X217355707Y-77220729D01*
X217210098Y-77318022D01*
X217048312Y-77385036D01*
X216876559Y-77419200D01*
X216701441Y-77419200D01*
X216529688Y-77385036D01*
X216367902Y-77318022D01*
X216222293Y-77220729D01*
X216098471Y-77096907D01*
X216001178Y-76951298D01*
X215934164Y-76789512D01*
X215900000Y-76617759D01*
X215900000Y-76442641D01*
X215934164Y-76270888D01*
X216001178Y-76109102D01*
X216098471Y-75963493D01*
X216222293Y-75839671D01*
X216367902Y-75742378D01*
X216529688Y-75675364D01*
X216701441Y-75641200D01*
X216876559Y-75641200D01*
X217048312Y-75675364D01*
X217048312Y-75675364D01*
G37*
G36*
X209428312Y-75675364D02*
X209590098Y-75742378D01*
X209735707Y-75839671D01*
X209859529Y-75963493D01*
X209956822Y-76109102D01*
X210023836Y-76270888D01*
X210058000Y-76442641D01*
X210058000Y-76617759D01*
X210023836Y-76789512D01*
X209956822Y-76951298D01*
X209859529Y-77096907D01*
X209735707Y-77220729D01*
X209590098Y-77318022D01*
X209428312Y-77385036D01*
X209256559Y-77419200D01*
X209081441Y-77419200D01*
X208909688Y-77385036D01*
X208747902Y-77318022D01*
X208602293Y-77220729D01*
X208478471Y-77096907D01*
X208381178Y-76951298D01*
X208314164Y-76789512D01*
X208280000Y-76617759D01*
X208280000Y-76442641D01*
X208314164Y-76270888D01*
X208381178Y-76109102D01*
X208478471Y-75963493D01*
X208602293Y-75839671D01*
X208747902Y-75742378D01*
X208909688Y-75675364D01*
X209081441Y-75641200D01*
X209256559Y-75641200D01*
X209428312Y-75675364D01*
X209428312Y-75675364D01*
G37*
G36*
X222924630Y-74346299D02*
X223084855Y-74394903D01*
X223232520Y-74473831D01*
X223361949Y-74580051D01*
X223468169Y-74709480D01*
X223547097Y-74857145D01*
X223595701Y-75017370D01*
X223612112Y-75184000D01*
X223595701Y-75350630D01*
X223547097Y-75510855D01*
X223468169Y-75658520D01*
X223361949Y-75787949D01*
X223232520Y-75894169D01*
X223084855Y-75973097D01*
X222924630Y-76021701D01*
X222799752Y-76034000D01*
X222716248Y-76034000D01*
X222591370Y-76021701D01*
X222431145Y-75973097D01*
X222283480Y-75894169D01*
X222154051Y-75787949D01*
X222047831Y-75658520D01*
X221968903Y-75510855D01*
X221920299Y-75350630D01*
X221903888Y-75184000D01*
X221920299Y-75017370D01*
X221968903Y-74857145D01*
X222047831Y-74709480D01*
X222154051Y-74580051D01*
X222283480Y-74473831D01*
X222431145Y-74394903D01*
X222591370Y-74346299D01*
X222716248Y-74334000D01*
X222799752Y-74334000D01*
X222924630Y-74346299D01*
X222924630Y-74346299D01*
G37*
G36*
X225464630Y-74346299D02*
X225624855Y-74394903D01*
X225772520Y-74473831D01*
X225901949Y-74580051D01*
X226008169Y-74709480D01*
X226087097Y-74857145D01*
X226135701Y-75017370D01*
X226152112Y-75184000D01*
X226135701Y-75350630D01*
X226087097Y-75510855D01*
X226008169Y-75658520D01*
X225901949Y-75787949D01*
X225772520Y-75894169D01*
X225624855Y-75973097D01*
X225464630Y-76021701D01*
X225339752Y-76034000D01*
X225256248Y-76034000D01*
X225131370Y-76021701D01*
X224971145Y-75973097D01*
X224823480Y-75894169D01*
X224694051Y-75787949D01*
X224587831Y-75658520D01*
X224508903Y-75510855D01*
X224460299Y-75350630D01*
X224443888Y-75184000D01*
X224460299Y-75017370D01*
X224508903Y-74857145D01*
X224587831Y-74709480D01*
X224694051Y-74580051D01*
X224823480Y-74473831D01*
X224971145Y-74394903D01*
X225131370Y-74346299D01*
X225256248Y-74334000D01*
X225339752Y-74334000D01*
X225464630Y-74346299D01*
X225464630Y-74346299D01*
G37*
G36*
X230290630Y-74219299D02*
X230450855Y-74267903D01*
X230598520Y-74346831D01*
X230727949Y-74453051D01*
X230834169Y-74582480D01*
X230913097Y-74730145D01*
X230961701Y-74890370D01*
X230978112Y-75057000D01*
X230961701Y-75223630D01*
X230913097Y-75383855D01*
X230834169Y-75531520D01*
X230727949Y-75660949D01*
X230598520Y-75767169D01*
X230450855Y-75846097D01*
X230290630Y-75894701D01*
X230165752Y-75907000D01*
X230082248Y-75907000D01*
X229957370Y-75894701D01*
X229797145Y-75846097D01*
X229649480Y-75767169D01*
X229520051Y-75660949D01*
X229413831Y-75531520D01*
X229334903Y-75383855D01*
X229286299Y-75223630D01*
X229269888Y-75057000D01*
X229286299Y-74890370D01*
X229334903Y-74730145D01*
X229413831Y-74582480D01*
X229520051Y-74453051D01*
X229649480Y-74346831D01*
X229797145Y-74267903D01*
X229957370Y-74219299D01*
X230082248Y-74207000D01*
X230165752Y-74207000D01*
X230290630Y-74219299D01*
X230290630Y-74219299D01*
G37*
G36*
X219588312Y-73135364D02*
X219750098Y-73202378D01*
X219895707Y-73299671D01*
X220019529Y-73423493D01*
X220116822Y-73569102D01*
X220183836Y-73730888D01*
X220218000Y-73902641D01*
X220218000Y-74077759D01*
X220183836Y-74249512D01*
X220116822Y-74411298D01*
X220019529Y-74556907D01*
X219895707Y-74680729D01*
X219750098Y-74778022D01*
X219588312Y-74845036D01*
X219416559Y-74879200D01*
X219241441Y-74879200D01*
X219069688Y-74845036D01*
X218907902Y-74778022D01*
X218762293Y-74680729D01*
X218638471Y-74556907D01*
X218541178Y-74411298D01*
X218474164Y-74249512D01*
X218440000Y-74077759D01*
X218440000Y-73902641D01*
X218474164Y-73730888D01*
X218541178Y-73569102D01*
X218638471Y-73423493D01*
X218762293Y-73299671D01*
X218907902Y-73202378D01*
X219069688Y-73135364D01*
X219241441Y-73101200D01*
X219416559Y-73101200D01*
X219588312Y-73135364D01*
X219588312Y-73135364D01*
G37*
G36*
X201808312Y-73135364D02*
X201970098Y-73202378D01*
X202115707Y-73299671D01*
X202239529Y-73423493D01*
X202336822Y-73569102D01*
X202403836Y-73730888D01*
X202438000Y-73902641D01*
X202438000Y-74077759D01*
X202403836Y-74249512D01*
X202336822Y-74411298D01*
X202239529Y-74556907D01*
X202115707Y-74680729D01*
X201970098Y-74778022D01*
X201808312Y-74845036D01*
X201636559Y-74879200D01*
X201461441Y-74879200D01*
X201289688Y-74845036D01*
X201127902Y-74778022D01*
X200982293Y-74680729D01*
X200858471Y-74556907D01*
X200761178Y-74411298D01*
X200694164Y-74249512D01*
X200660000Y-74077759D01*
X200660000Y-73902641D01*
X200694164Y-73730888D01*
X200761178Y-73569102D01*
X200858471Y-73423493D01*
X200982293Y-73299671D01*
X201127902Y-73202378D01*
X201289688Y-73135364D01*
X201461441Y-73101200D01*
X201636559Y-73101200D01*
X201808312Y-73135364D01*
X201808312Y-73135364D01*
G37*
G36*
X217048312Y-73135364D02*
X217210098Y-73202378D01*
X217355707Y-73299671D01*
X217479529Y-73423493D01*
X217576822Y-73569102D01*
X217643836Y-73730888D01*
X217678000Y-73902641D01*
X217678000Y-74077759D01*
X217643836Y-74249512D01*
X217576822Y-74411298D01*
X217479529Y-74556907D01*
X217355707Y-74680729D01*
X217210098Y-74778022D01*
X217048312Y-74845036D01*
X216876559Y-74879200D01*
X216701441Y-74879200D01*
X216529688Y-74845036D01*
X216367902Y-74778022D01*
X216222293Y-74680729D01*
X216098471Y-74556907D01*
X216001178Y-74411298D01*
X215934164Y-74249512D01*
X215900000Y-74077759D01*
X215900000Y-73902641D01*
X215934164Y-73730888D01*
X216001178Y-73569102D01*
X216098471Y-73423493D01*
X216222293Y-73299671D01*
X216367902Y-73202378D01*
X216529688Y-73135364D01*
X216701441Y-73101200D01*
X216876559Y-73101200D01*
X217048312Y-73135364D01*
X217048312Y-73135364D01*
G37*
G36*
X204348312Y-73135364D02*
X204510098Y-73202378D01*
X204655707Y-73299671D01*
X204779529Y-73423493D01*
X204876822Y-73569102D01*
X204943836Y-73730888D01*
X204978000Y-73902641D01*
X204978000Y-74077759D01*
X204943836Y-74249512D01*
X204876822Y-74411298D01*
X204779529Y-74556907D01*
X204655707Y-74680729D01*
X204510098Y-74778022D01*
X204348312Y-74845036D01*
X204176559Y-74879200D01*
X204001441Y-74879200D01*
X203829688Y-74845036D01*
X203667902Y-74778022D01*
X203522293Y-74680729D01*
X203398471Y-74556907D01*
X203301178Y-74411298D01*
X203234164Y-74249512D01*
X203200000Y-74077759D01*
X203200000Y-73902641D01*
X203234164Y-73730888D01*
X203301178Y-73569102D01*
X203398471Y-73423493D01*
X203522293Y-73299671D01*
X203667902Y-73202378D01*
X203829688Y-73135364D01*
X204001441Y-73101200D01*
X204176559Y-73101200D01*
X204348312Y-73135364D01*
X204348312Y-73135364D01*
G37*
G36*
X214508312Y-73135364D02*
X214670098Y-73202378D01*
X214815707Y-73299671D01*
X214939529Y-73423493D01*
X215036822Y-73569102D01*
X215103836Y-73730888D01*
X215138000Y-73902641D01*
X215138000Y-74077759D01*
X215103836Y-74249512D01*
X215036822Y-74411298D01*
X214939529Y-74556907D01*
X214815707Y-74680729D01*
X214670098Y-74778022D01*
X214508312Y-74845036D01*
X214336559Y-74879200D01*
X214161441Y-74879200D01*
X213989688Y-74845036D01*
X213827902Y-74778022D01*
X213682293Y-74680729D01*
X213558471Y-74556907D01*
X213461178Y-74411298D01*
X213394164Y-74249512D01*
X213360000Y-74077759D01*
X213360000Y-73902641D01*
X213394164Y-73730888D01*
X213461178Y-73569102D01*
X213558471Y-73423493D01*
X213682293Y-73299671D01*
X213827902Y-73202378D01*
X213989688Y-73135364D01*
X214161441Y-73101200D01*
X214336559Y-73101200D01*
X214508312Y-73135364D01*
X214508312Y-73135364D01*
G37*
G36*
X211968312Y-73135364D02*
X212130098Y-73202378D01*
X212275707Y-73299671D01*
X212399529Y-73423493D01*
X212496822Y-73569102D01*
X212563836Y-73730888D01*
X212598000Y-73902641D01*
X212598000Y-74077759D01*
X212563836Y-74249512D01*
X212496822Y-74411298D01*
X212399529Y-74556907D01*
X212275707Y-74680729D01*
X212130098Y-74778022D01*
X211968312Y-74845036D01*
X211796559Y-74879200D01*
X211621441Y-74879200D01*
X211449688Y-74845036D01*
X211287902Y-74778022D01*
X211142293Y-74680729D01*
X211018471Y-74556907D01*
X210921178Y-74411298D01*
X210854164Y-74249512D01*
X210820000Y-74077759D01*
X210820000Y-73902641D01*
X210854164Y-73730888D01*
X210921178Y-73569102D01*
X211018471Y-73423493D01*
X211142293Y-73299671D01*
X211287902Y-73202378D01*
X211449688Y-73135364D01*
X211621441Y-73101200D01*
X211796559Y-73101200D01*
X211968312Y-73135364D01*
X211968312Y-73135364D01*
G37*
G36*
X206888312Y-73135364D02*
X207050098Y-73202378D01*
X207195707Y-73299671D01*
X207319529Y-73423493D01*
X207416822Y-73569102D01*
X207483836Y-73730888D01*
X207518000Y-73902641D01*
X207518000Y-74077759D01*
X207483836Y-74249512D01*
X207416822Y-74411298D01*
X207319529Y-74556907D01*
X207195707Y-74680729D01*
X207050098Y-74778022D01*
X206888312Y-74845036D01*
X206716559Y-74879200D01*
X206541441Y-74879200D01*
X206369688Y-74845036D01*
X206207902Y-74778022D01*
X206062293Y-74680729D01*
X205938471Y-74556907D01*
X205841178Y-74411298D01*
X205774164Y-74249512D01*
X205740000Y-74077759D01*
X205740000Y-73902641D01*
X205774164Y-73730888D01*
X205841178Y-73569102D01*
X205938471Y-73423493D01*
X206062293Y-73299671D01*
X206207902Y-73202378D01*
X206369688Y-73135364D01*
X206541441Y-73101200D01*
X206716559Y-73101200D01*
X206888312Y-73135364D01*
X206888312Y-73135364D01*
G37*
G36*
X209428312Y-73135364D02*
X209590098Y-73202378D01*
X209735707Y-73299671D01*
X209859529Y-73423493D01*
X209956822Y-73569102D01*
X210023836Y-73730888D01*
X210058000Y-73902641D01*
X210058000Y-74077759D01*
X210023836Y-74249512D01*
X209956822Y-74411298D01*
X209859529Y-74556907D01*
X209735707Y-74680729D01*
X209590098Y-74778022D01*
X209428312Y-74845036D01*
X209256559Y-74879200D01*
X209081441Y-74879200D01*
X208909688Y-74845036D01*
X208747902Y-74778022D01*
X208602293Y-74680729D01*
X208478471Y-74556907D01*
X208381178Y-74411298D01*
X208314164Y-74249512D01*
X208280000Y-74077759D01*
X208280000Y-73902641D01*
X208314164Y-73730888D01*
X208381178Y-73569102D01*
X208478471Y-73423493D01*
X208602293Y-73299671D01*
X208747902Y-73202378D01*
X208909688Y-73135364D01*
X209081441Y-73101200D01*
X209256559Y-73101200D01*
X209428312Y-73135364D01*
X209428312Y-73135364D01*
G37*
G36*
X222924630Y-71806299D02*
X223084855Y-71854903D01*
X223232520Y-71933831D01*
X223361949Y-72040051D01*
X223468169Y-72169480D01*
X223547097Y-72317145D01*
X223595701Y-72477370D01*
X223612112Y-72644000D01*
X223595701Y-72810630D01*
X223547097Y-72970855D01*
X223468169Y-73118520D01*
X223361949Y-73247949D01*
X223232520Y-73354169D01*
X223084855Y-73433097D01*
X222924630Y-73481701D01*
X222799752Y-73494000D01*
X222716248Y-73494000D01*
X222591370Y-73481701D01*
X222431145Y-73433097D01*
X222283480Y-73354169D01*
X222154051Y-73247949D01*
X222047831Y-73118520D01*
X221968903Y-72970855D01*
X221920299Y-72810630D01*
X221903888Y-72644000D01*
X221920299Y-72477370D01*
X221968903Y-72317145D01*
X222047831Y-72169480D01*
X222154051Y-72040051D01*
X222283480Y-71933831D01*
X222431145Y-71854903D01*
X222591370Y-71806299D01*
X222716248Y-71794000D01*
X222799752Y-71794000D01*
X222924630Y-71806299D01*
X222924630Y-71806299D01*
G37*
G36*
X225464630Y-71806299D02*
X225624855Y-71854903D01*
X225772520Y-71933831D01*
X225901949Y-72040051D01*
X226008169Y-72169480D01*
X226087097Y-72317145D01*
X226135701Y-72477370D01*
X226152112Y-72644000D01*
X226135701Y-72810630D01*
X226087097Y-72970855D01*
X226008169Y-73118520D01*
X225901949Y-73247949D01*
X225772520Y-73354169D01*
X225624855Y-73433097D01*
X225464630Y-73481701D01*
X225339752Y-73494000D01*
X225256248Y-73494000D01*
X225131370Y-73481701D01*
X224971145Y-73433097D01*
X224823480Y-73354169D01*
X224694051Y-73247949D01*
X224587831Y-73118520D01*
X224508903Y-72970855D01*
X224460299Y-72810630D01*
X224443888Y-72644000D01*
X224460299Y-72477370D01*
X224508903Y-72317145D01*
X224587831Y-72169480D01*
X224694051Y-72040051D01*
X224823480Y-71933831D01*
X224971145Y-71854903D01*
X225131370Y-71806299D01*
X225256248Y-71794000D01*
X225339752Y-71794000D01*
X225464630Y-71806299D01*
X225464630Y-71806299D01*
G37*
G36*
X206888312Y-70595364D02*
X207050098Y-70662378D01*
X207195707Y-70759671D01*
X207319529Y-70883493D01*
X207416822Y-71029102D01*
X207483836Y-71190888D01*
X207518000Y-71362641D01*
X207518000Y-71537759D01*
X207483836Y-71709512D01*
X207416822Y-71871298D01*
X207319529Y-72016907D01*
X207195707Y-72140729D01*
X207050098Y-72238022D01*
X206888312Y-72305036D01*
X206716559Y-72339200D01*
X206541441Y-72339200D01*
X206369688Y-72305036D01*
X206207902Y-72238022D01*
X206062293Y-72140729D01*
X205938471Y-72016907D01*
X205841178Y-71871298D01*
X205774164Y-71709512D01*
X205740000Y-71537759D01*
X205740000Y-71362641D01*
X205774164Y-71190888D01*
X205841178Y-71029102D01*
X205938471Y-70883493D01*
X206062293Y-70759671D01*
X206207902Y-70662378D01*
X206369688Y-70595364D01*
X206541441Y-70561200D01*
X206716559Y-70561200D01*
X206888312Y-70595364D01*
X206888312Y-70595364D01*
G37*
G36*
X217048312Y-70595364D02*
X217210098Y-70662378D01*
X217355707Y-70759671D01*
X217479529Y-70883493D01*
X217576822Y-71029102D01*
X217643836Y-71190888D01*
X217678000Y-71362641D01*
X217678000Y-71537759D01*
X217643836Y-71709512D01*
X217576822Y-71871298D01*
X217479529Y-72016907D01*
X217355707Y-72140729D01*
X217210098Y-72238022D01*
X217048312Y-72305036D01*
X216876559Y-72339200D01*
X216701441Y-72339200D01*
X216529688Y-72305036D01*
X216367902Y-72238022D01*
X216222293Y-72140729D01*
X216098471Y-72016907D01*
X216001178Y-71871298D01*
X215934164Y-71709512D01*
X215900000Y-71537759D01*
X215900000Y-71362641D01*
X215934164Y-71190888D01*
X216001178Y-71029102D01*
X216098471Y-70883493D01*
X216222293Y-70759671D01*
X216367902Y-70662378D01*
X216529688Y-70595364D01*
X216701441Y-70561200D01*
X216876559Y-70561200D01*
X217048312Y-70595364D01*
X217048312Y-70595364D01*
G37*
G36*
X201808312Y-70595364D02*
X201970098Y-70662378D01*
X202115707Y-70759671D01*
X202239529Y-70883493D01*
X202336822Y-71029102D01*
X202403836Y-71190888D01*
X202438000Y-71362641D01*
X202438000Y-71537759D01*
X202403836Y-71709512D01*
X202336822Y-71871298D01*
X202239529Y-72016907D01*
X202115707Y-72140729D01*
X201970098Y-72238022D01*
X201808312Y-72305036D01*
X201636559Y-72339200D01*
X201461441Y-72339200D01*
X201289688Y-72305036D01*
X201127902Y-72238022D01*
X200982293Y-72140729D01*
X200858471Y-72016907D01*
X200761178Y-71871298D01*
X200694164Y-71709512D01*
X200660000Y-71537759D01*
X200660000Y-71362641D01*
X200694164Y-71190888D01*
X200761178Y-71029102D01*
X200858471Y-70883493D01*
X200982293Y-70759671D01*
X201127902Y-70662378D01*
X201289688Y-70595364D01*
X201461441Y-70561200D01*
X201636559Y-70561200D01*
X201808312Y-70595364D01*
X201808312Y-70595364D01*
G37*
G36*
X219588312Y-70595364D02*
X219750098Y-70662378D01*
X219895707Y-70759671D01*
X220019529Y-70883493D01*
X220116822Y-71029102D01*
X220183836Y-71190888D01*
X220218000Y-71362641D01*
X220218000Y-71537759D01*
X220183836Y-71709512D01*
X220116822Y-71871298D01*
X220019529Y-72016907D01*
X219895707Y-72140729D01*
X219750098Y-72238022D01*
X219588312Y-72305036D01*
X219416559Y-72339200D01*
X219241441Y-72339200D01*
X219069688Y-72305036D01*
X218907902Y-72238022D01*
X218762293Y-72140729D01*
X218638471Y-72016907D01*
X218541178Y-71871298D01*
X218474164Y-71709512D01*
X218440000Y-71537759D01*
X218440000Y-71362641D01*
X218474164Y-71190888D01*
X218541178Y-71029102D01*
X218638471Y-70883493D01*
X218762293Y-70759671D01*
X218907902Y-70662378D01*
X219069688Y-70595364D01*
X219241441Y-70561200D01*
X219416559Y-70561200D01*
X219588312Y-70595364D01*
X219588312Y-70595364D01*
G37*
G36*
X214508312Y-70595364D02*
X214670098Y-70662378D01*
X214815707Y-70759671D01*
X214939529Y-70883493D01*
X215036822Y-71029102D01*
X215103836Y-71190888D01*
X215138000Y-71362641D01*
X215138000Y-71537759D01*
X215103836Y-71709512D01*
X215036822Y-71871298D01*
X214939529Y-72016907D01*
X214815707Y-72140729D01*
X214670098Y-72238022D01*
X214508312Y-72305036D01*
X214336559Y-72339200D01*
X214161441Y-72339200D01*
X213989688Y-72305036D01*
X213827902Y-72238022D01*
X213682293Y-72140729D01*
X213558471Y-72016907D01*
X213461178Y-71871298D01*
X213394164Y-71709512D01*
X213360000Y-71537759D01*
X213360000Y-71362641D01*
X213394164Y-71190888D01*
X213461178Y-71029102D01*
X213558471Y-70883493D01*
X213682293Y-70759671D01*
X213827902Y-70662378D01*
X213989688Y-70595364D01*
X214161441Y-70561200D01*
X214336559Y-70561200D01*
X214508312Y-70595364D01*
X214508312Y-70595364D01*
G37*
G36*
X204348312Y-70595364D02*
X204510098Y-70662378D01*
X204655707Y-70759671D01*
X204779529Y-70883493D01*
X204876822Y-71029102D01*
X204943836Y-71190888D01*
X204978000Y-71362641D01*
X204978000Y-71537759D01*
X204943836Y-71709512D01*
X204876822Y-71871298D01*
X204779529Y-72016907D01*
X204655707Y-72140729D01*
X204510098Y-72238022D01*
X204348312Y-72305036D01*
X204176559Y-72339200D01*
X204001441Y-72339200D01*
X203829688Y-72305036D01*
X203667902Y-72238022D01*
X203522293Y-72140729D01*
X203398471Y-72016907D01*
X203301178Y-71871298D01*
X203234164Y-71709512D01*
X203200000Y-71537759D01*
X203200000Y-71362641D01*
X203234164Y-71190888D01*
X203301178Y-71029102D01*
X203398471Y-70883493D01*
X203522293Y-70759671D01*
X203667902Y-70662378D01*
X203829688Y-70595364D01*
X204001441Y-70561200D01*
X204176559Y-70561200D01*
X204348312Y-70595364D01*
X204348312Y-70595364D01*
G37*
G36*
X211968312Y-70595364D02*
X212130098Y-70662378D01*
X212275707Y-70759671D01*
X212399529Y-70883493D01*
X212496822Y-71029102D01*
X212563836Y-71190888D01*
X212598000Y-71362641D01*
X212598000Y-71537759D01*
X212563836Y-71709512D01*
X212496822Y-71871298D01*
X212399529Y-72016907D01*
X212275707Y-72140729D01*
X212130098Y-72238022D01*
X211968312Y-72305036D01*
X211796559Y-72339200D01*
X211621441Y-72339200D01*
X211449688Y-72305036D01*
X211287902Y-72238022D01*
X211142293Y-72140729D01*
X211018471Y-72016907D01*
X210921178Y-71871298D01*
X210854164Y-71709512D01*
X210820000Y-71537759D01*
X210820000Y-71362641D01*
X210854164Y-71190888D01*
X210921178Y-71029102D01*
X211018471Y-70883493D01*
X211142293Y-70759671D01*
X211287902Y-70662378D01*
X211449688Y-70595364D01*
X211621441Y-70561200D01*
X211796559Y-70561200D01*
X211968312Y-70595364D01*
X211968312Y-70595364D01*
G37*
G36*
X209428312Y-70595364D02*
X209590098Y-70662378D01*
X209735707Y-70759671D01*
X209859529Y-70883493D01*
X209956822Y-71029102D01*
X210023836Y-71190888D01*
X210058000Y-71362641D01*
X210058000Y-71537759D01*
X210023836Y-71709512D01*
X209956822Y-71871298D01*
X209859529Y-72016907D01*
X209735707Y-72140729D01*
X209590098Y-72238022D01*
X209428312Y-72305036D01*
X209256559Y-72339200D01*
X209081441Y-72339200D01*
X208909688Y-72305036D01*
X208747902Y-72238022D01*
X208602293Y-72140729D01*
X208478471Y-72016907D01*
X208381178Y-71871298D01*
X208314164Y-71709512D01*
X208280000Y-71537759D01*
X208280000Y-71362641D01*
X208314164Y-71190888D01*
X208381178Y-71029102D01*
X208478471Y-70883493D01*
X208602293Y-70759671D01*
X208747902Y-70662378D01*
X208909688Y-70595364D01*
X209081441Y-70561200D01*
X209256559Y-70561200D01*
X209428312Y-70595364D01*
X209428312Y-70595364D01*
G37*
G36*
X197497778Y-69059879D02*
X197743466Y-69161646D01*
X197964578Y-69309389D01*
X198152611Y-69497422D01*
X198300354Y-69718534D01*
X198402121Y-69964222D01*
X198454000Y-70225035D01*
X198454000Y-70490965D01*
X198402121Y-70751778D01*
X198300354Y-70997466D01*
X198152611Y-71218578D01*
X197964578Y-71406611D01*
X197743466Y-71554354D01*
X197497778Y-71656121D01*
X197236965Y-71708000D01*
X196971035Y-71708000D01*
X196710222Y-71656121D01*
X196464534Y-71554354D01*
X196243422Y-71406611D01*
X196055389Y-71218578D01*
X195907646Y-70997466D01*
X195805879Y-70751778D01*
X195754000Y-70490965D01*
X195754000Y-70225035D01*
X195805879Y-69964222D01*
X195907646Y-69718534D01*
X196055389Y-69497422D01*
X196243422Y-69309389D01*
X196464534Y-69161646D01*
X196710222Y-69059879D01*
X196971035Y-69008000D01*
X197236965Y-69008000D01*
X197497778Y-69059879D01*
X197497778Y-69059879D01*
G37*
G36*
X230517778Y-68932879D02*
X230763466Y-69034646D01*
X230984578Y-69182389D01*
X231172611Y-69370422D01*
X231320354Y-69591534D01*
X231422121Y-69837222D01*
X231474000Y-70098035D01*
X231474000Y-70363965D01*
X231422121Y-70624778D01*
X231320354Y-70870466D01*
X231172611Y-71091578D01*
X230984578Y-71279611D01*
X230763466Y-71427354D01*
X230517778Y-71529121D01*
X230256965Y-71581000D01*
X229991035Y-71581000D01*
X229730222Y-71529121D01*
X229484534Y-71427354D01*
X229263422Y-71279611D01*
X229075389Y-71091578D01*
X228927646Y-70870466D01*
X228825879Y-70624778D01*
X228774000Y-70363965D01*
X228774000Y-70098035D01*
X228825879Y-69837222D01*
X228927646Y-69591534D01*
X229075389Y-69370422D01*
X229263422Y-69182389D01*
X229484534Y-69034646D01*
X229730222Y-68932879D01*
X229991035Y-68881000D01*
X230256965Y-68881000D01*
X230517778Y-68932879D01*
X230517778Y-68932879D01*
G37*
G36*
X223608000Y-70954000D02*
X221908000Y-70954000D01*
X221908000Y-69254000D01*
X223608000Y-69254000D01*
X223608000Y-70954000D01*
X223608000Y-70954000D01*
G37*
G36*
X225464630Y-69266299D02*
X225624855Y-69314903D01*
X225772520Y-69393831D01*
X225901949Y-69500051D01*
X226008169Y-69629480D01*
X226087097Y-69777145D01*
X226135701Y-69937370D01*
X226152112Y-70104000D01*
X226135701Y-70270630D01*
X226087097Y-70430855D01*
X226008169Y-70578520D01*
X225901949Y-70707949D01*
X225772520Y-70814169D01*
X225624855Y-70893097D01*
X225464630Y-70941701D01*
X225339752Y-70954000D01*
X225256248Y-70954000D01*
X225131370Y-70941701D01*
X224971145Y-70893097D01*
X224823480Y-70814169D01*
X224694051Y-70707949D01*
X224587831Y-70578520D01*
X224508903Y-70430855D01*
X224460299Y-70270630D01*
X224443888Y-70104000D01*
X224460299Y-69937370D01*
X224508903Y-69777145D01*
X224587831Y-69629480D01*
X224694051Y-69500051D01*
X224823480Y-69393831D01*
X224971145Y-69314903D01*
X225131370Y-69266299D01*
X225256248Y-69254000D01*
X225339752Y-69254000D01*
X225464630Y-69266299D01*
X225464630Y-69266299D01*
G37*
G36*
X214508312Y-68055364D02*
X214670098Y-68122378D01*
X214815707Y-68219671D01*
X214939529Y-68343493D01*
X215036822Y-68489102D01*
X215103836Y-68650888D01*
X215138000Y-68822641D01*
X215138000Y-68997759D01*
X215103836Y-69169512D01*
X215036822Y-69331298D01*
X214939529Y-69476907D01*
X214815707Y-69600729D01*
X214670098Y-69698022D01*
X214508312Y-69765036D01*
X214336559Y-69799200D01*
X214161441Y-69799200D01*
X213989688Y-69765036D01*
X213827902Y-69698022D01*
X213682293Y-69600729D01*
X213558471Y-69476907D01*
X213461178Y-69331298D01*
X213394164Y-69169512D01*
X213360000Y-68997759D01*
X213360000Y-68822641D01*
X213394164Y-68650888D01*
X213461178Y-68489102D01*
X213558471Y-68343493D01*
X213682293Y-68219671D01*
X213827902Y-68122378D01*
X213989688Y-68055364D01*
X214161441Y-68021200D01*
X214336559Y-68021200D01*
X214508312Y-68055364D01*
X214508312Y-68055364D01*
G37*
G36*
X219588312Y-68055364D02*
X219750098Y-68122378D01*
X219895707Y-68219671D01*
X220019529Y-68343493D01*
X220116822Y-68489102D01*
X220183836Y-68650888D01*
X220218000Y-68822641D01*
X220218000Y-68997759D01*
X220183836Y-69169512D01*
X220116822Y-69331298D01*
X220019529Y-69476907D01*
X219895707Y-69600729D01*
X219750098Y-69698022D01*
X219588312Y-69765036D01*
X219416559Y-69799200D01*
X219241441Y-69799200D01*
X219069688Y-69765036D01*
X218907902Y-69698022D01*
X218762293Y-69600729D01*
X218638471Y-69476907D01*
X218541178Y-69331298D01*
X218474164Y-69169512D01*
X218440000Y-68997759D01*
X218440000Y-68822641D01*
X218474164Y-68650888D01*
X218541178Y-68489102D01*
X218638471Y-68343493D01*
X218762293Y-68219671D01*
X218907902Y-68122378D01*
X219069688Y-68055364D01*
X219241441Y-68021200D01*
X219416559Y-68021200D01*
X219588312Y-68055364D01*
X219588312Y-68055364D01*
G37*
G36*
X217048312Y-68055364D02*
X217210098Y-68122378D01*
X217355707Y-68219671D01*
X217479529Y-68343493D01*
X217576822Y-68489102D01*
X217643836Y-68650888D01*
X217678000Y-68822641D01*
X217678000Y-68997759D01*
X217643836Y-69169512D01*
X217576822Y-69331298D01*
X217479529Y-69476907D01*
X217355707Y-69600729D01*
X217210098Y-69698022D01*
X217048312Y-69765036D01*
X216876559Y-69799200D01*
X216701441Y-69799200D01*
X216529688Y-69765036D01*
X216367902Y-69698022D01*
X216222293Y-69600729D01*
X216098471Y-69476907D01*
X216001178Y-69331298D01*
X215934164Y-69169512D01*
X215900000Y-68997759D01*
X215900000Y-68822641D01*
X215934164Y-68650888D01*
X216001178Y-68489102D01*
X216098471Y-68343493D01*
X216222293Y-68219671D01*
X216367902Y-68122378D01*
X216529688Y-68055364D01*
X216701441Y-68021200D01*
X216876559Y-68021200D01*
X217048312Y-68055364D01*
X217048312Y-68055364D01*
G37*
G36*
X201808312Y-68055364D02*
X201970098Y-68122378D01*
X202115707Y-68219671D01*
X202239529Y-68343493D01*
X202336822Y-68489102D01*
X202403836Y-68650888D01*
X202438000Y-68822641D01*
X202438000Y-68997759D01*
X202403836Y-69169512D01*
X202336822Y-69331298D01*
X202239529Y-69476907D01*
X202115707Y-69600729D01*
X201970098Y-69698022D01*
X201808312Y-69765036D01*
X201636559Y-69799200D01*
X201461441Y-69799200D01*
X201289688Y-69765036D01*
X201127902Y-69698022D01*
X200982293Y-69600729D01*
X200858471Y-69476907D01*
X200761178Y-69331298D01*
X200694164Y-69169512D01*
X200660000Y-68997759D01*
X200660000Y-68822641D01*
X200694164Y-68650888D01*
X200761178Y-68489102D01*
X200858471Y-68343493D01*
X200982293Y-68219671D01*
X201127902Y-68122378D01*
X201289688Y-68055364D01*
X201461441Y-68021200D01*
X201636559Y-68021200D01*
X201808312Y-68055364D01*
X201808312Y-68055364D01*
G37*
G36*
X211968312Y-68055364D02*
X212130098Y-68122378D01*
X212275707Y-68219671D01*
X212399529Y-68343493D01*
X212496822Y-68489102D01*
X212563836Y-68650888D01*
X212598000Y-68822641D01*
X212598000Y-68997759D01*
X212563836Y-69169512D01*
X212496822Y-69331298D01*
X212399529Y-69476907D01*
X212275707Y-69600729D01*
X212130098Y-69698022D01*
X211968312Y-69765036D01*
X211796559Y-69799200D01*
X211621441Y-69799200D01*
X211449688Y-69765036D01*
X211287902Y-69698022D01*
X211142293Y-69600729D01*
X211018471Y-69476907D01*
X210921178Y-69331298D01*
X210854164Y-69169512D01*
X210820000Y-68997759D01*
X210820000Y-68822641D01*
X210854164Y-68650888D01*
X210921178Y-68489102D01*
X211018471Y-68343493D01*
X211142293Y-68219671D01*
X211287902Y-68122378D01*
X211449688Y-68055364D01*
X211621441Y-68021200D01*
X211796559Y-68021200D01*
X211968312Y-68055364D01*
X211968312Y-68055364D01*
G37*
G36*
X209428312Y-68055364D02*
X209590098Y-68122378D01*
X209735707Y-68219671D01*
X209859529Y-68343493D01*
X209956822Y-68489102D01*
X210023836Y-68650888D01*
X210058000Y-68822641D01*
X210058000Y-68997759D01*
X210023836Y-69169512D01*
X209956822Y-69331298D01*
X209859529Y-69476907D01*
X209735707Y-69600729D01*
X209590098Y-69698022D01*
X209428312Y-69765036D01*
X209256559Y-69799200D01*
X209081441Y-69799200D01*
X208909688Y-69765036D01*
X208747902Y-69698022D01*
X208602293Y-69600729D01*
X208478471Y-69476907D01*
X208381178Y-69331298D01*
X208314164Y-69169512D01*
X208280000Y-68997759D01*
X208280000Y-68822641D01*
X208314164Y-68650888D01*
X208381178Y-68489102D01*
X208478471Y-68343493D01*
X208602293Y-68219671D01*
X208747902Y-68122378D01*
X208909688Y-68055364D01*
X209081441Y-68021200D01*
X209256559Y-68021200D01*
X209428312Y-68055364D01*
X209428312Y-68055364D01*
G37*
G36*
X206888312Y-68055364D02*
X207050098Y-68122378D01*
X207195707Y-68219671D01*
X207319529Y-68343493D01*
X207416822Y-68489102D01*
X207483836Y-68650888D01*
X207518000Y-68822641D01*
X207518000Y-68997759D01*
X207483836Y-69169512D01*
X207416822Y-69331298D01*
X207319529Y-69476907D01*
X207195707Y-69600729D01*
X207050098Y-69698022D01*
X206888312Y-69765036D01*
X206716559Y-69799200D01*
X206541441Y-69799200D01*
X206369688Y-69765036D01*
X206207902Y-69698022D01*
X206062293Y-69600729D01*
X205938471Y-69476907D01*
X205841178Y-69331298D01*
X205774164Y-69169512D01*
X205740000Y-68997759D01*
X205740000Y-68822641D01*
X205774164Y-68650888D01*
X205841178Y-68489102D01*
X205938471Y-68343493D01*
X206062293Y-68219671D01*
X206207902Y-68122378D01*
X206369688Y-68055364D01*
X206541441Y-68021200D01*
X206716559Y-68021200D01*
X206888312Y-68055364D01*
X206888312Y-68055364D01*
G37*
G36*
X204348312Y-68055364D02*
X204510098Y-68122378D01*
X204655707Y-68219671D01*
X204779529Y-68343493D01*
X204876822Y-68489102D01*
X204943836Y-68650888D01*
X204978000Y-68822641D01*
X204978000Y-68997759D01*
X204943836Y-69169512D01*
X204876822Y-69331298D01*
X204779529Y-69476907D01*
X204655707Y-69600729D01*
X204510098Y-69698022D01*
X204348312Y-69765036D01*
X204176559Y-69799200D01*
X204001441Y-69799200D01*
X203829688Y-69765036D01*
X203667902Y-69698022D01*
X203522293Y-69600729D01*
X203398471Y-69476907D01*
X203301178Y-69331298D01*
X203234164Y-69169512D01*
X203200000Y-68997759D01*
X203200000Y-68822641D01*
X203234164Y-68650888D01*
X203301178Y-68489102D01*
X203398471Y-68343493D01*
X203522293Y-68219671D01*
X203667902Y-68122378D01*
X203829688Y-68055364D01*
X204001441Y-68021200D01*
X204176559Y-68021200D01*
X204348312Y-68055364D01*
X204348312Y-68055364D01*
G37*
M02*
