G04 #@! TF.GenerationSoftware,KiCad,Pcbnew,(5.1.6)-1*
G04 #@! TF.CreationDate,2021-09-11T05:13:55-07:00*
G04 #@! TF.ProjectId,scum3c-devboard,7363756d-3363-42d6-9465-76626f617264,rev?*
G04 #@! TF.SameCoordinates,Original*
G04 #@! TF.FileFunction,Legend,Top*
G04 #@! TF.FilePolarity,Positive*
%FSLAX46Y46*%
G04 Gerber Fmt 4.6, Leading zero omitted, Abs format (unit mm)*
G04 Created by KiCad (PCBNEW (5.1.6)-1) date 2021-09-11 05:13:55*
%MOMM*%
%LPD*%
G01*
G04 APERTURE LIST*
%ADD10C,0.100000*%
%ADD11C,0.080000*%
%ADD12C,0.150000*%
%ADD13C,0.127000*%
%ADD14C,0.200000*%
%ADD15C,0.120000*%
%ADD16C,0.101600*%
%ADD17C,0.050800*%
%ADD18C,0.125000*%
G04 APERTURE END LIST*
D10*
X93488000Y-52169190D02*
X93202285Y-52169190D01*
X93345142Y-52169190D02*
X93345142Y-51669190D01*
X93297523Y-51740619D01*
X93249904Y-51788238D01*
X93202285Y-51812047D01*
X93702285Y-52121571D02*
X93726095Y-52145380D01*
X93702285Y-52169190D01*
X93678476Y-52145380D01*
X93702285Y-52121571D01*
X93702285Y-52169190D01*
X94202285Y-52169190D02*
X93916571Y-52169190D01*
X94059428Y-52169190D02*
X94059428Y-51669190D01*
X94011809Y-51740619D01*
X93964190Y-51788238D01*
X93916571Y-51812047D01*
X94345142Y-51669190D02*
X94511809Y-52169190D01*
X94678476Y-51669190D01*
X94726095Y-52216809D02*
X95107047Y-52216809D01*
X95226095Y-52169190D02*
X95226095Y-51669190D01*
X95464190Y-52169190D02*
X95464190Y-51669190D01*
X95749904Y-52169190D01*
X95749904Y-51669190D01*
X93361047Y-58892285D02*
X93527714Y-58892285D01*
X93599142Y-59154190D02*
X93361047Y-59154190D01*
X93361047Y-58654190D01*
X93599142Y-58654190D01*
X93765809Y-58654190D02*
X94099142Y-59154190D01*
X94099142Y-58654190D02*
X93765809Y-59154190D01*
X94218190Y-58654190D02*
X94503904Y-58654190D01*
X94361047Y-59154190D02*
X94361047Y-58654190D01*
X94551523Y-59201809D02*
X94932476Y-59201809D01*
X95218190Y-58892285D02*
X95289619Y-58916095D01*
X95313428Y-58939904D01*
X95337238Y-58987523D01*
X95337238Y-59058952D01*
X95313428Y-59106571D01*
X95289619Y-59130380D01*
X95242000Y-59154190D01*
X95051523Y-59154190D01*
X95051523Y-58654190D01*
X95218190Y-58654190D01*
X95265809Y-58678000D01*
X95289619Y-58701809D01*
X95313428Y-58749428D01*
X95313428Y-58797047D01*
X95289619Y-58844666D01*
X95265809Y-58868476D01*
X95218190Y-58892285D01*
X95051523Y-58892285D01*
X95527714Y-59011333D02*
X95765809Y-59011333D01*
X95480095Y-59154190D02*
X95646761Y-58654190D01*
X95813428Y-59154190D01*
X95908666Y-58654190D02*
X96194380Y-58654190D01*
X96051523Y-59154190D02*
X96051523Y-58654190D01*
D11*
X109486761Y-59162666D02*
X109677238Y-59162666D01*
X109448666Y-59276952D02*
X109582000Y-58876952D01*
X109715333Y-59276952D01*
X109848666Y-59276952D02*
X109848666Y-58876952D01*
X109943904Y-58876952D01*
X110001047Y-58896000D01*
X110039142Y-58934095D01*
X110058190Y-58972190D01*
X110077238Y-59048380D01*
X110077238Y-59105523D01*
X110058190Y-59181714D01*
X110039142Y-59219809D01*
X110001047Y-59257904D01*
X109943904Y-59276952D01*
X109848666Y-59276952D01*
X110477238Y-59238857D02*
X110458190Y-59257904D01*
X110401047Y-59276952D01*
X110362952Y-59276952D01*
X110305809Y-59257904D01*
X110267714Y-59219809D01*
X110248666Y-59181714D01*
X110229619Y-59105523D01*
X110229619Y-59048380D01*
X110248666Y-58972190D01*
X110267714Y-58934095D01*
X110305809Y-58896000D01*
X110362952Y-58876952D01*
X110401047Y-58876952D01*
X110458190Y-58896000D01*
X110477238Y-58915047D01*
X109772476Y-59956952D02*
X109772476Y-59556952D01*
X109962952Y-59956952D02*
X109962952Y-59556952D01*
X110191523Y-59956952D01*
X110191523Y-59556952D01*
D10*
X96028047Y-51907285D02*
X96194714Y-51907285D01*
X96266142Y-52169190D02*
X96028047Y-52169190D01*
X96028047Y-51669190D01*
X96266142Y-51669190D01*
X96432809Y-51669190D02*
X96766142Y-52169190D01*
X96766142Y-51669190D02*
X96432809Y-52169190D01*
X96885190Y-51669190D02*
X97170904Y-51669190D01*
X97028047Y-52169190D02*
X97028047Y-51669190D01*
X97218523Y-52216809D02*
X97599476Y-52216809D01*
X97885190Y-51907285D02*
X97956619Y-51931095D01*
X97980428Y-51954904D01*
X98004238Y-52002523D01*
X98004238Y-52073952D01*
X97980428Y-52121571D01*
X97956619Y-52145380D01*
X97909000Y-52169190D01*
X97718523Y-52169190D01*
X97718523Y-51669190D01*
X97885190Y-51669190D01*
X97932809Y-51693000D01*
X97956619Y-51716809D01*
X97980428Y-51764428D01*
X97980428Y-51812047D01*
X97956619Y-51859666D01*
X97932809Y-51883476D01*
X97885190Y-51907285D01*
X97718523Y-51907285D01*
X98194714Y-52026333D02*
X98432809Y-52026333D01*
X98147095Y-52169190D02*
X98313761Y-51669190D01*
X98480428Y-52169190D01*
X98575666Y-51669190D02*
X98861380Y-51669190D01*
X98718523Y-52169190D02*
X98718523Y-51669190D01*
X106398333Y-58908190D02*
X106565000Y-59408190D01*
X106731666Y-58908190D01*
X106898333Y-59408190D02*
X106898333Y-58908190D01*
X107017380Y-58908190D01*
X107088809Y-58932000D01*
X107136428Y-58979619D01*
X107160238Y-59027238D01*
X107184047Y-59122476D01*
X107184047Y-59193904D01*
X107160238Y-59289142D01*
X107136428Y-59336761D01*
X107088809Y-59384380D01*
X107017380Y-59408190D01*
X106898333Y-59408190D01*
X107398333Y-59408190D02*
X107398333Y-58908190D01*
X107517380Y-58908190D01*
X107588809Y-58932000D01*
X107636428Y-58979619D01*
X107660238Y-59027238D01*
X107684047Y-59122476D01*
X107684047Y-59193904D01*
X107660238Y-59289142D01*
X107636428Y-59336761D01*
X107588809Y-59384380D01*
X107517380Y-59408190D01*
X107398333Y-59408190D01*
X107898333Y-59408190D02*
X107898333Y-58908190D01*
X108017380Y-58908190D01*
X108088809Y-58932000D01*
X108136428Y-58979619D01*
X108160238Y-59027238D01*
X108184047Y-59122476D01*
X108184047Y-59193904D01*
X108160238Y-59289142D01*
X108136428Y-59336761D01*
X108088809Y-59384380D01*
X108017380Y-59408190D01*
X107898333Y-59408190D01*
X96647047Y-58678000D02*
X96599428Y-58654190D01*
X96528000Y-58654190D01*
X96456571Y-58678000D01*
X96408952Y-58725619D01*
X96385142Y-58773238D01*
X96361333Y-58868476D01*
X96361333Y-58939904D01*
X96385142Y-59035142D01*
X96408952Y-59082761D01*
X96456571Y-59130380D01*
X96528000Y-59154190D01*
X96575619Y-59154190D01*
X96647047Y-59130380D01*
X96670857Y-59106571D01*
X96670857Y-58939904D01*
X96575619Y-58939904D01*
X96885142Y-59154190D02*
X96885142Y-58654190D01*
X97170857Y-59154190D01*
X97170857Y-58654190D01*
X97408952Y-59154190D02*
X97408952Y-58654190D01*
X97528000Y-58654190D01*
X97599428Y-58678000D01*
X97647047Y-58725619D01*
X97670857Y-58773238D01*
X97694666Y-58868476D01*
X97694666Y-58939904D01*
X97670857Y-59035142D01*
X97647047Y-59082761D01*
X97599428Y-59130380D01*
X97528000Y-59154190D01*
X97408952Y-59154190D01*
X86487047Y-58678000D02*
X86439428Y-58654190D01*
X86368000Y-58654190D01*
X86296571Y-58678000D01*
X86248952Y-58725619D01*
X86225142Y-58773238D01*
X86201333Y-58868476D01*
X86201333Y-58939904D01*
X86225142Y-59035142D01*
X86248952Y-59082761D01*
X86296571Y-59130380D01*
X86368000Y-59154190D01*
X86415619Y-59154190D01*
X86487047Y-59130380D01*
X86510857Y-59106571D01*
X86510857Y-58939904D01*
X86415619Y-58939904D01*
X86725142Y-59154190D02*
X86725142Y-58654190D01*
X87010857Y-59154190D01*
X87010857Y-58654190D01*
X87248952Y-59154190D02*
X87248952Y-58654190D01*
X87368000Y-58654190D01*
X87439428Y-58678000D01*
X87487047Y-58725619D01*
X87510857Y-58773238D01*
X87534666Y-58868476D01*
X87534666Y-58939904D01*
X87510857Y-59035142D01*
X87487047Y-59082761D01*
X87439428Y-59130380D01*
X87368000Y-59154190D01*
X87248952Y-59154190D01*
X103953571Y-58654190D02*
X104120238Y-59154190D01*
X104286904Y-58654190D01*
X104620238Y-58892285D02*
X104691666Y-58916095D01*
X104715476Y-58939904D01*
X104739285Y-58987523D01*
X104739285Y-59058952D01*
X104715476Y-59106571D01*
X104691666Y-59130380D01*
X104644047Y-59154190D01*
X104453571Y-59154190D01*
X104453571Y-58654190D01*
X104620238Y-58654190D01*
X104667857Y-58678000D01*
X104691666Y-58701809D01*
X104715476Y-58749428D01*
X104715476Y-58797047D01*
X104691666Y-58844666D01*
X104667857Y-58868476D01*
X104620238Y-58892285D01*
X104453571Y-58892285D01*
X104929761Y-59011333D02*
X105167857Y-59011333D01*
X104882142Y-59154190D02*
X105048809Y-58654190D01*
X105215476Y-59154190D01*
X105310714Y-58654190D02*
X105596428Y-58654190D01*
X105453571Y-59154190D02*
X105453571Y-58654190D01*
X89233428Y-52169190D02*
X88947714Y-52169190D01*
X89090571Y-52169190D02*
X89090571Y-51669190D01*
X89042952Y-51740619D01*
X88995333Y-51788238D01*
X88947714Y-51812047D01*
X89447714Y-52121571D02*
X89471523Y-52145380D01*
X89447714Y-52169190D01*
X89423904Y-52145380D01*
X89447714Y-52121571D01*
X89447714Y-52169190D01*
X89757238Y-51883476D02*
X89709619Y-51859666D01*
X89685809Y-51835857D01*
X89662000Y-51788238D01*
X89662000Y-51764428D01*
X89685809Y-51716809D01*
X89709619Y-51693000D01*
X89757238Y-51669190D01*
X89852476Y-51669190D01*
X89900095Y-51693000D01*
X89923904Y-51716809D01*
X89947714Y-51764428D01*
X89947714Y-51788238D01*
X89923904Y-51835857D01*
X89900095Y-51859666D01*
X89852476Y-51883476D01*
X89757238Y-51883476D01*
X89709619Y-51907285D01*
X89685809Y-51931095D01*
X89662000Y-51978714D01*
X89662000Y-52073952D01*
X89685809Y-52121571D01*
X89709619Y-52145380D01*
X89757238Y-52169190D01*
X89852476Y-52169190D01*
X89900095Y-52145380D01*
X89923904Y-52121571D01*
X89947714Y-52073952D01*
X89947714Y-51978714D01*
X89923904Y-51931095D01*
X89900095Y-51907285D01*
X89852476Y-51883476D01*
X90090571Y-51669190D02*
X90257238Y-52169190D01*
X90423904Y-51669190D01*
X86566428Y-52169190D02*
X86280714Y-52169190D01*
X86423571Y-52169190D02*
X86423571Y-51669190D01*
X86375952Y-51740619D01*
X86328333Y-51788238D01*
X86280714Y-51812047D01*
X86780714Y-52121571D02*
X86804523Y-52145380D01*
X86780714Y-52169190D01*
X86756904Y-52145380D01*
X86780714Y-52121571D01*
X86780714Y-52169190D01*
X87090238Y-51883476D02*
X87042619Y-51859666D01*
X87018809Y-51835857D01*
X86995000Y-51788238D01*
X86995000Y-51764428D01*
X87018809Y-51716809D01*
X87042619Y-51693000D01*
X87090238Y-51669190D01*
X87185476Y-51669190D01*
X87233095Y-51693000D01*
X87256904Y-51716809D01*
X87280714Y-51764428D01*
X87280714Y-51788238D01*
X87256904Y-51835857D01*
X87233095Y-51859666D01*
X87185476Y-51883476D01*
X87090238Y-51883476D01*
X87042619Y-51907285D01*
X87018809Y-51931095D01*
X86995000Y-51978714D01*
X86995000Y-52073952D01*
X87018809Y-52121571D01*
X87042619Y-52145380D01*
X87090238Y-52169190D01*
X87185476Y-52169190D01*
X87233095Y-52145380D01*
X87256904Y-52121571D01*
X87280714Y-52073952D01*
X87280714Y-51978714D01*
X87256904Y-51931095D01*
X87233095Y-51907285D01*
X87185476Y-51883476D01*
X87423571Y-51669190D02*
X87590238Y-52169190D01*
X87756904Y-51669190D01*
X91646428Y-52169190D02*
X91360714Y-52169190D01*
X91503571Y-52169190D02*
X91503571Y-51669190D01*
X91455952Y-51740619D01*
X91408333Y-51788238D01*
X91360714Y-51812047D01*
X91860714Y-52121571D02*
X91884523Y-52145380D01*
X91860714Y-52169190D01*
X91836904Y-52145380D01*
X91860714Y-52121571D01*
X91860714Y-52169190D01*
X92360714Y-52169190D02*
X92075000Y-52169190D01*
X92217857Y-52169190D02*
X92217857Y-51669190D01*
X92170238Y-51740619D01*
X92122619Y-51788238D01*
X92075000Y-51812047D01*
X92503571Y-51669190D02*
X92670238Y-52169190D01*
X92836904Y-51669190D01*
X107747714Y-75029190D02*
X107747714Y-74529190D01*
X107938190Y-74529190D01*
X107985809Y-74553000D01*
X108009619Y-74576809D01*
X108033428Y-74624428D01*
X108033428Y-74695857D01*
X108009619Y-74743476D01*
X107985809Y-74767285D01*
X107938190Y-74791095D01*
X107747714Y-74791095D01*
X108342952Y-74529190D02*
X108390571Y-74529190D01*
X108438190Y-74553000D01*
X108462000Y-74576809D01*
X108485809Y-74624428D01*
X108509619Y-74719666D01*
X108509619Y-74838714D01*
X108485809Y-74933952D01*
X108462000Y-74981571D01*
X108438190Y-75005380D01*
X108390571Y-75029190D01*
X108342952Y-75029190D01*
X108295333Y-75005380D01*
X108271523Y-74981571D01*
X108247714Y-74933952D01*
X108223904Y-74838714D01*
X108223904Y-74719666D01*
X108247714Y-74624428D01*
X108271523Y-74576809D01*
X108295333Y-74553000D01*
X108342952Y-74529190D01*
X108723904Y-74981571D02*
X108747714Y-75005380D01*
X108723904Y-75029190D01*
X108700095Y-75005380D01*
X108723904Y-74981571D01*
X108723904Y-75029190D01*
X109223904Y-75029190D02*
X108938190Y-75029190D01*
X109081047Y-75029190D02*
X109081047Y-74529190D01*
X109033428Y-74600619D01*
X108985809Y-74648238D01*
X108938190Y-74672047D01*
X109676285Y-74529190D02*
X109438190Y-74529190D01*
X109414380Y-74767285D01*
X109438190Y-74743476D01*
X109485809Y-74719666D01*
X109604857Y-74719666D01*
X109652476Y-74743476D01*
X109676285Y-74767285D01*
X109700095Y-74814904D01*
X109700095Y-74933952D01*
X109676285Y-74981571D01*
X109652476Y-75005380D01*
X109604857Y-75029190D01*
X109485809Y-75029190D01*
X109438190Y-75005380D01*
X109414380Y-74981571D01*
X115367714Y-75283190D02*
X115367714Y-74783190D01*
X115558190Y-74783190D01*
X115605809Y-74807000D01*
X115629619Y-74830809D01*
X115653428Y-74878428D01*
X115653428Y-74949857D01*
X115629619Y-74997476D01*
X115605809Y-75021285D01*
X115558190Y-75045095D01*
X115367714Y-75045095D01*
X115962952Y-74783190D02*
X116010571Y-74783190D01*
X116058190Y-74807000D01*
X116082000Y-74830809D01*
X116105809Y-74878428D01*
X116129619Y-74973666D01*
X116129619Y-75092714D01*
X116105809Y-75187952D01*
X116082000Y-75235571D01*
X116058190Y-75259380D01*
X116010571Y-75283190D01*
X115962952Y-75283190D01*
X115915333Y-75259380D01*
X115891523Y-75235571D01*
X115867714Y-75187952D01*
X115843904Y-75092714D01*
X115843904Y-74973666D01*
X115867714Y-74878428D01*
X115891523Y-74830809D01*
X115915333Y-74807000D01*
X115962952Y-74783190D01*
X116343904Y-75235571D02*
X116367714Y-75259380D01*
X116343904Y-75283190D01*
X116320095Y-75259380D01*
X116343904Y-75235571D01*
X116343904Y-75283190D01*
X116843904Y-75283190D02*
X116558190Y-75283190D01*
X116701047Y-75283190D02*
X116701047Y-74783190D01*
X116653428Y-74854619D01*
X116605809Y-74902238D01*
X116558190Y-74926047D01*
X117153428Y-74783190D02*
X117201047Y-74783190D01*
X117248666Y-74807000D01*
X117272476Y-74830809D01*
X117296285Y-74878428D01*
X117320095Y-74973666D01*
X117320095Y-75092714D01*
X117296285Y-75187952D01*
X117272476Y-75235571D01*
X117248666Y-75259380D01*
X117201047Y-75283190D01*
X117153428Y-75283190D01*
X117105809Y-75259380D01*
X117082000Y-75235571D01*
X117058190Y-75187952D01*
X117034380Y-75092714D01*
X117034380Y-74973666D01*
X117058190Y-74878428D01*
X117082000Y-74830809D01*
X117105809Y-74807000D01*
X117153428Y-74783190D01*
X115367714Y-59789190D02*
X115367714Y-59289190D01*
X115558190Y-59289190D01*
X115605809Y-59313000D01*
X115629619Y-59336809D01*
X115653428Y-59384428D01*
X115653428Y-59455857D01*
X115629619Y-59503476D01*
X115605809Y-59527285D01*
X115558190Y-59551095D01*
X115367714Y-59551095D01*
X115962952Y-59289190D02*
X116010571Y-59289190D01*
X116058190Y-59313000D01*
X116082000Y-59336809D01*
X116105809Y-59384428D01*
X116129619Y-59479666D01*
X116129619Y-59598714D01*
X116105809Y-59693952D01*
X116082000Y-59741571D01*
X116058190Y-59765380D01*
X116010571Y-59789190D01*
X115962952Y-59789190D01*
X115915333Y-59765380D01*
X115891523Y-59741571D01*
X115867714Y-59693952D01*
X115843904Y-59598714D01*
X115843904Y-59479666D01*
X115867714Y-59384428D01*
X115891523Y-59336809D01*
X115915333Y-59313000D01*
X115962952Y-59289190D01*
X116343904Y-59741571D02*
X116367714Y-59765380D01*
X116343904Y-59789190D01*
X116320095Y-59765380D01*
X116343904Y-59741571D01*
X116343904Y-59789190D01*
X116843904Y-59789190D02*
X116558190Y-59789190D01*
X116701047Y-59789190D02*
X116701047Y-59289190D01*
X116653428Y-59360619D01*
X116605809Y-59408238D01*
X116558190Y-59432047D01*
X117272476Y-59455857D02*
X117272476Y-59789190D01*
X117153428Y-59265380D02*
X117034380Y-59622523D01*
X117343904Y-59622523D01*
X107493714Y-60297190D02*
X107493714Y-59797190D01*
X107684190Y-59797190D01*
X107731809Y-59821000D01*
X107755619Y-59844809D01*
X107779428Y-59892428D01*
X107779428Y-59963857D01*
X107755619Y-60011476D01*
X107731809Y-60035285D01*
X107684190Y-60059095D01*
X107493714Y-60059095D01*
X108088952Y-59797190D02*
X108136571Y-59797190D01*
X108184190Y-59821000D01*
X108208000Y-59844809D01*
X108231809Y-59892428D01*
X108255619Y-59987666D01*
X108255619Y-60106714D01*
X108231809Y-60201952D01*
X108208000Y-60249571D01*
X108184190Y-60273380D01*
X108136571Y-60297190D01*
X108088952Y-60297190D01*
X108041333Y-60273380D01*
X108017523Y-60249571D01*
X107993714Y-60201952D01*
X107969904Y-60106714D01*
X107969904Y-59987666D01*
X107993714Y-59892428D01*
X108017523Y-59844809D01*
X108041333Y-59821000D01*
X108088952Y-59797190D01*
X108469904Y-60249571D02*
X108493714Y-60273380D01*
X108469904Y-60297190D01*
X108446095Y-60273380D01*
X108469904Y-60249571D01*
X108469904Y-60297190D01*
X108684190Y-59844809D02*
X108708000Y-59821000D01*
X108755619Y-59797190D01*
X108874666Y-59797190D01*
X108922285Y-59821000D01*
X108946095Y-59844809D01*
X108969904Y-59892428D01*
X108969904Y-59940047D01*
X108946095Y-60011476D01*
X108660380Y-60297190D01*
X108969904Y-60297190D01*
X109136571Y-59797190D02*
X109469904Y-59797190D01*
X109255619Y-60297190D01*
X108100904Y-72013000D02*
X108053285Y-71989190D01*
X107981857Y-71989190D01*
X107910428Y-72013000D01*
X107862809Y-72060619D01*
X107839000Y-72108238D01*
X107815190Y-72203476D01*
X107815190Y-72274904D01*
X107839000Y-72370142D01*
X107862809Y-72417761D01*
X107910428Y-72465380D01*
X107981857Y-72489190D01*
X108029476Y-72489190D01*
X108100904Y-72465380D01*
X108124714Y-72441571D01*
X108124714Y-72274904D01*
X108029476Y-72274904D01*
X108339000Y-72489190D02*
X108339000Y-71989190D01*
X108529476Y-71989190D01*
X108577095Y-72013000D01*
X108600904Y-72036809D01*
X108624714Y-72084428D01*
X108624714Y-72155857D01*
X108600904Y-72203476D01*
X108577095Y-72227285D01*
X108529476Y-72251095D01*
X108339000Y-72251095D01*
X108839000Y-72489190D02*
X108839000Y-71989190D01*
X109172333Y-71989190D02*
X109267571Y-71989190D01*
X109315190Y-72013000D01*
X109362809Y-72060619D01*
X109386619Y-72155857D01*
X109386619Y-72322523D01*
X109362809Y-72417761D01*
X109315190Y-72465380D01*
X109267571Y-72489190D01*
X109172333Y-72489190D01*
X109124714Y-72465380D01*
X109077095Y-72417761D01*
X109053285Y-72322523D01*
X109053285Y-72155857D01*
X109077095Y-72060619D01*
X109124714Y-72013000D01*
X109172333Y-71989190D01*
X109577095Y-72036809D02*
X109600904Y-72013000D01*
X109648523Y-71989190D01*
X109767571Y-71989190D01*
X109815190Y-72013000D01*
X109839000Y-72036809D01*
X109862809Y-72084428D01*
X109862809Y-72132047D01*
X109839000Y-72203476D01*
X109553285Y-72489190D01*
X109862809Y-72489190D01*
X83820047Y-58678000D02*
X83772428Y-58654190D01*
X83701000Y-58654190D01*
X83629571Y-58678000D01*
X83581952Y-58725619D01*
X83558142Y-58773238D01*
X83534333Y-58868476D01*
X83534333Y-58939904D01*
X83558142Y-59035142D01*
X83581952Y-59082761D01*
X83629571Y-59130380D01*
X83701000Y-59154190D01*
X83748619Y-59154190D01*
X83820047Y-59130380D01*
X83843857Y-59106571D01*
X83843857Y-58939904D01*
X83748619Y-58939904D01*
X84058142Y-59154190D02*
X84058142Y-58654190D01*
X84343857Y-59154190D01*
X84343857Y-58654190D01*
X84581952Y-59154190D02*
X84581952Y-58654190D01*
X84701000Y-58654190D01*
X84772428Y-58678000D01*
X84820047Y-58725619D01*
X84843857Y-58773238D01*
X84867666Y-58868476D01*
X84867666Y-58939904D01*
X84843857Y-59035142D01*
X84820047Y-59082761D01*
X84772428Y-59130380D01*
X84701000Y-59154190D01*
X84581952Y-59154190D01*
X77807333Y-70496714D02*
X77807333Y-70258619D01*
X77950190Y-70544333D02*
X77450190Y-70377666D01*
X77950190Y-70211000D01*
X77950190Y-70044333D02*
X77450190Y-70044333D01*
X77950190Y-69758619D01*
X77450190Y-69758619D01*
X77450190Y-69591952D02*
X77450190Y-69306238D01*
X77950190Y-69449095D02*
X77450190Y-69449095D01*
X77688285Y-69139571D02*
X77688285Y-68972904D01*
X77950190Y-68901476D02*
X77950190Y-69139571D01*
X77450190Y-69139571D01*
X77450190Y-68901476D01*
X77950190Y-68687190D02*
X77450190Y-68687190D01*
X77950190Y-68401476D01*
X77450190Y-68401476D01*
X77950190Y-68163380D02*
X77450190Y-68163380D01*
X77950190Y-67877666D01*
X77450190Y-67877666D01*
X77807333Y-67663380D02*
X77807333Y-67425285D01*
X77950190Y-67711000D02*
X77450190Y-67544333D01*
X77950190Y-67377666D01*
X84709047Y-85983000D02*
X84661428Y-85959190D01*
X84590000Y-85959190D01*
X84518571Y-85983000D01*
X84470952Y-86030619D01*
X84447142Y-86078238D01*
X84423333Y-86173476D01*
X84423333Y-86244904D01*
X84447142Y-86340142D01*
X84470952Y-86387761D01*
X84518571Y-86435380D01*
X84590000Y-86459190D01*
X84637619Y-86459190D01*
X84709047Y-86435380D01*
X84732857Y-86411571D01*
X84732857Y-86244904D01*
X84637619Y-86244904D01*
X84947142Y-86459190D02*
X84947142Y-85959190D01*
X85232857Y-86459190D01*
X85232857Y-85959190D01*
X85470952Y-86459190D02*
X85470952Y-85959190D01*
X85590000Y-85959190D01*
X85661428Y-85983000D01*
X85709047Y-86030619D01*
X85732857Y-86078238D01*
X85756666Y-86173476D01*
X85756666Y-86244904D01*
X85732857Y-86340142D01*
X85709047Y-86387761D01*
X85661428Y-86435380D01*
X85590000Y-86459190D01*
X85470952Y-86459190D01*
X85316190Y-79740142D02*
X85316190Y-80025857D01*
X85316190Y-79883000D02*
X84816190Y-79883000D01*
X84887619Y-79930619D01*
X84935238Y-79978238D01*
X84959047Y-80025857D01*
D12*
X81407000Y-54356000D02*
G75*
G03*
X81407000Y-54356000I-1651000J0D01*
G01*
X81407000Y-83312000D02*
G75*
G03*
X81407000Y-83312000I-1651000J0D01*
G01*
X115951000Y-83312000D02*
G75*
G03*
X115951000Y-83312000I-1651000J0D01*
G01*
X115951000Y-54356000D02*
G75*
G03*
X115951000Y-54356000I-1651000J0D01*
G01*
D10*
X107569047Y-85983000D02*
X107521428Y-85959190D01*
X107450000Y-85959190D01*
X107378571Y-85983000D01*
X107330952Y-86030619D01*
X107307142Y-86078238D01*
X107283333Y-86173476D01*
X107283333Y-86244904D01*
X107307142Y-86340142D01*
X107330952Y-86387761D01*
X107378571Y-86435380D01*
X107450000Y-86459190D01*
X107497619Y-86459190D01*
X107569047Y-86435380D01*
X107592857Y-86411571D01*
X107592857Y-86244904D01*
X107497619Y-86244904D01*
X107807142Y-86459190D02*
X107807142Y-85959190D01*
X108092857Y-86459190D01*
X108092857Y-85959190D01*
X108330952Y-86459190D02*
X108330952Y-85959190D01*
X108450000Y-85959190D01*
X108521428Y-85983000D01*
X108569047Y-86030619D01*
X108592857Y-86078238D01*
X108616666Y-86173476D01*
X108616666Y-86244904D01*
X108592857Y-86340142D01*
X108569047Y-86387761D01*
X108521428Y-86435380D01*
X108450000Y-86459190D01*
X108330952Y-86459190D01*
X107569047Y-79633000D02*
X107521428Y-79609190D01*
X107450000Y-79609190D01*
X107378571Y-79633000D01*
X107330952Y-79680619D01*
X107307142Y-79728238D01*
X107283333Y-79823476D01*
X107283333Y-79894904D01*
X107307142Y-79990142D01*
X107330952Y-80037761D01*
X107378571Y-80085380D01*
X107450000Y-80109190D01*
X107497619Y-80109190D01*
X107569047Y-80085380D01*
X107592857Y-80061571D01*
X107592857Y-79894904D01*
X107497619Y-79894904D01*
X107807142Y-80109190D02*
X107807142Y-79609190D01*
X108092857Y-80109190D01*
X108092857Y-79609190D01*
X108330952Y-80109190D02*
X108330952Y-79609190D01*
X108450000Y-79609190D01*
X108521428Y-79633000D01*
X108569047Y-79680619D01*
X108592857Y-79728238D01*
X108616666Y-79823476D01*
X108616666Y-79894904D01*
X108592857Y-79990142D01*
X108569047Y-80037761D01*
X108521428Y-80085380D01*
X108450000Y-80109190D01*
X108330952Y-80109190D01*
D11*
X116154285Y-64483952D02*
X116154285Y-64083952D01*
X116154285Y-64274428D02*
X116382857Y-64274428D01*
X116382857Y-64483952D02*
X116382857Y-64083952D01*
X116554285Y-64369666D02*
X116744761Y-64369666D01*
X116516190Y-64483952D02*
X116649523Y-64083952D01*
X116782857Y-64483952D01*
X117144761Y-64483952D02*
X117011428Y-64293476D01*
X116916190Y-64483952D02*
X116916190Y-64083952D01*
X117068571Y-64083952D01*
X117106666Y-64103000D01*
X117125714Y-64122047D01*
X117144761Y-64160142D01*
X117144761Y-64217285D01*
X117125714Y-64255380D01*
X117106666Y-64274428D01*
X117068571Y-64293476D01*
X116916190Y-64293476D01*
X117316190Y-64483952D02*
X117316190Y-64083952D01*
X117411428Y-64083952D01*
X117468571Y-64103000D01*
X117506666Y-64141095D01*
X117525714Y-64179190D01*
X117544761Y-64255380D01*
X117544761Y-64312523D01*
X117525714Y-64388714D01*
X117506666Y-64426809D01*
X117468571Y-64464904D01*
X117411428Y-64483952D01*
X117316190Y-64483952D01*
X116259047Y-65163952D02*
X116125714Y-64973476D01*
X116030476Y-65163952D02*
X116030476Y-64763952D01*
X116182857Y-64763952D01*
X116220952Y-64783000D01*
X116240000Y-64802047D01*
X116259047Y-64840142D01*
X116259047Y-64897285D01*
X116240000Y-64935380D01*
X116220952Y-64954428D01*
X116182857Y-64973476D01*
X116030476Y-64973476D01*
X116430476Y-64954428D02*
X116563809Y-64954428D01*
X116620952Y-65163952D02*
X116430476Y-65163952D01*
X116430476Y-64763952D01*
X116620952Y-64763952D01*
X116773333Y-65144904D02*
X116830476Y-65163952D01*
X116925714Y-65163952D01*
X116963809Y-65144904D01*
X116982857Y-65125857D01*
X117001904Y-65087761D01*
X117001904Y-65049666D01*
X116982857Y-65011571D01*
X116963809Y-64992523D01*
X116925714Y-64973476D01*
X116849523Y-64954428D01*
X116811428Y-64935380D01*
X116792380Y-64916333D01*
X116773333Y-64878238D01*
X116773333Y-64840142D01*
X116792380Y-64802047D01*
X116811428Y-64783000D01*
X116849523Y-64763952D01*
X116944761Y-64763952D01*
X117001904Y-64783000D01*
X117173333Y-64954428D02*
X117306666Y-64954428D01*
X117363809Y-65163952D02*
X117173333Y-65163952D01*
X117173333Y-64763952D01*
X117363809Y-64763952D01*
X117478095Y-64763952D02*
X117706666Y-64763952D01*
X117592380Y-65163952D02*
X117592380Y-64763952D01*
D10*
X99528380Y-51617190D02*
X99528380Y-51117190D01*
X99766476Y-51617190D02*
X99766476Y-51117190D01*
X99933142Y-51474333D01*
X100099809Y-51117190D01*
X100099809Y-51617190D01*
X100337904Y-51117190D02*
X100337904Y-51521952D01*
X100361714Y-51569571D01*
X100385523Y-51593380D01*
X100433142Y-51617190D01*
X100528380Y-51617190D01*
X100576000Y-51593380D01*
X100599809Y-51569571D01*
X100623619Y-51521952D01*
X100623619Y-51117190D01*
X99028380Y-51967190D02*
X99195047Y-52467190D01*
X99361714Y-51967190D01*
X99528380Y-52467190D02*
X99528380Y-51967190D01*
X99647428Y-51967190D01*
X99718857Y-51991000D01*
X99766476Y-52038619D01*
X99790285Y-52086238D01*
X99814095Y-52181476D01*
X99814095Y-52252904D01*
X99790285Y-52348142D01*
X99766476Y-52395761D01*
X99718857Y-52443380D01*
X99647428Y-52467190D01*
X99528380Y-52467190D01*
X100028380Y-52467190D02*
X100028380Y-51967190D01*
X100147428Y-51967190D01*
X100218857Y-51991000D01*
X100266476Y-52038619D01*
X100290285Y-52086238D01*
X100314095Y-52181476D01*
X100314095Y-52252904D01*
X100290285Y-52348142D01*
X100266476Y-52395761D01*
X100218857Y-52443380D01*
X100147428Y-52467190D01*
X100028380Y-52467190D01*
X100528380Y-52467190D02*
X100528380Y-51967190D01*
X100861714Y-51967190D02*
X100956952Y-51967190D01*
X101004571Y-51991000D01*
X101052190Y-52038619D01*
X101076000Y-52133857D01*
X101076000Y-52300523D01*
X101052190Y-52395761D01*
X101004571Y-52443380D01*
X100956952Y-52467190D01*
X100861714Y-52467190D01*
X100814095Y-52443380D01*
X100766476Y-52395761D01*
X100742666Y-52300523D01*
X100742666Y-52133857D01*
X100766476Y-52038619D01*
X100814095Y-51991000D01*
X100861714Y-51967190D01*
X101187380Y-58654190D02*
X101354047Y-59154190D01*
X101520714Y-58654190D01*
X101687380Y-59154190D02*
X101687380Y-58654190D01*
X101806428Y-58654190D01*
X101877857Y-58678000D01*
X101925476Y-58725619D01*
X101949285Y-58773238D01*
X101973095Y-58868476D01*
X101973095Y-58939904D01*
X101949285Y-59035142D01*
X101925476Y-59082761D01*
X101877857Y-59130380D01*
X101806428Y-59154190D01*
X101687380Y-59154190D01*
X102187380Y-59154190D02*
X102187380Y-58654190D01*
X102306428Y-58654190D01*
X102377857Y-58678000D01*
X102425476Y-58725619D01*
X102449285Y-58773238D01*
X102473095Y-58868476D01*
X102473095Y-58939904D01*
X102449285Y-59035142D01*
X102425476Y-59082761D01*
X102377857Y-59130380D01*
X102306428Y-59154190D01*
X102187380Y-59154190D01*
X102687380Y-59154190D02*
X102687380Y-58654190D01*
X103020714Y-58654190D02*
X103115952Y-58654190D01*
X103163571Y-58678000D01*
X103211190Y-58725619D01*
X103235000Y-58820857D01*
X103235000Y-58987523D01*
X103211190Y-59082761D01*
X103163571Y-59130380D01*
X103115952Y-59154190D01*
X103020714Y-59154190D01*
X102973095Y-59130380D01*
X102925476Y-59082761D01*
X102901666Y-58987523D01*
X102901666Y-58820857D01*
X102925476Y-58725619D01*
X102973095Y-58678000D01*
X103020714Y-58654190D01*
X103854380Y-51669190D02*
X104021047Y-52169190D01*
X104187714Y-51669190D01*
X104354380Y-52169190D02*
X104354380Y-51669190D01*
X104473428Y-51669190D01*
X104544857Y-51693000D01*
X104592476Y-51740619D01*
X104616285Y-51788238D01*
X104640095Y-51883476D01*
X104640095Y-51954904D01*
X104616285Y-52050142D01*
X104592476Y-52097761D01*
X104544857Y-52145380D01*
X104473428Y-52169190D01*
X104354380Y-52169190D01*
X104854380Y-52169190D02*
X104854380Y-51669190D01*
X104973428Y-51669190D01*
X105044857Y-51693000D01*
X105092476Y-51740619D01*
X105116285Y-51788238D01*
X105140095Y-51883476D01*
X105140095Y-51954904D01*
X105116285Y-52050142D01*
X105092476Y-52097761D01*
X105044857Y-52145380D01*
X104973428Y-52169190D01*
X104854380Y-52169190D01*
X105354380Y-52169190D02*
X105354380Y-51669190D01*
X105687714Y-51669190D02*
X105782952Y-51669190D01*
X105830571Y-51693000D01*
X105878190Y-51740619D01*
X105902000Y-51835857D01*
X105902000Y-52002523D01*
X105878190Y-52097761D01*
X105830571Y-52145380D01*
X105782952Y-52169190D01*
X105687714Y-52169190D01*
X105640095Y-52145380D01*
X105592476Y-52097761D01*
X105568666Y-52002523D01*
X105568666Y-51835857D01*
X105592476Y-51740619D01*
X105640095Y-51693000D01*
X105687714Y-51669190D01*
X108422380Y-61904190D02*
X108422380Y-61404190D01*
X108708095Y-61904190D01*
X108708095Y-61404190D01*
X109231904Y-61904190D02*
X109065238Y-61666095D01*
X108946190Y-61904190D02*
X108946190Y-61404190D01*
X109136666Y-61404190D01*
X109184285Y-61428000D01*
X109208095Y-61451809D01*
X109231904Y-61499428D01*
X109231904Y-61570857D01*
X109208095Y-61618476D01*
X109184285Y-61642285D01*
X109136666Y-61666095D01*
X108946190Y-61666095D01*
X109612857Y-61642285D02*
X109446190Y-61642285D01*
X109446190Y-61904190D02*
X109446190Y-61404190D01*
X109684285Y-61404190D01*
X109755714Y-61951809D02*
X110136666Y-61951809D01*
X108303333Y-62254190D02*
X108470000Y-62754190D01*
X108636666Y-62254190D01*
X108803333Y-62754190D02*
X108803333Y-62254190D01*
X108922380Y-62254190D01*
X108993809Y-62278000D01*
X109041428Y-62325619D01*
X109065238Y-62373238D01*
X109089047Y-62468476D01*
X109089047Y-62539904D01*
X109065238Y-62635142D01*
X109041428Y-62682761D01*
X108993809Y-62730380D01*
X108922380Y-62754190D01*
X108803333Y-62754190D01*
X109303333Y-62754190D02*
X109303333Y-62254190D01*
X109422380Y-62254190D01*
X109493809Y-62278000D01*
X109541428Y-62325619D01*
X109565238Y-62373238D01*
X109589047Y-62468476D01*
X109589047Y-62539904D01*
X109565238Y-62635142D01*
X109541428Y-62682761D01*
X109493809Y-62730380D01*
X109422380Y-62754190D01*
X109303333Y-62754190D01*
X109803333Y-62754190D02*
X109803333Y-62254190D01*
X109922380Y-62254190D01*
X109993809Y-62278000D01*
X110041428Y-62325619D01*
X110065238Y-62373238D01*
X110089047Y-62468476D01*
X110089047Y-62539904D01*
X110065238Y-62635142D01*
X110041428Y-62682761D01*
X109993809Y-62730380D01*
X109922380Y-62754190D01*
X109803333Y-62754190D01*
X95476190Y-79978238D02*
X95476190Y-80263952D01*
X95476190Y-80121095D02*
X94976190Y-80121095D01*
X95047619Y-80168714D01*
X95095238Y-80216333D01*
X95119047Y-80263952D01*
X95476190Y-79502047D02*
X95476190Y-79787761D01*
X95476190Y-79644904D02*
X94976190Y-79644904D01*
X95047619Y-79692523D01*
X95095238Y-79740142D01*
X95119047Y-79787761D01*
D11*
X106727714Y-51574428D02*
X106784857Y-51593476D01*
X106803904Y-51612523D01*
X106822952Y-51650619D01*
X106822952Y-51707761D01*
X106803904Y-51745857D01*
X106784857Y-51764904D01*
X106746761Y-51783952D01*
X106594380Y-51783952D01*
X106594380Y-51383952D01*
X106727714Y-51383952D01*
X106765809Y-51403000D01*
X106784857Y-51422047D01*
X106803904Y-51460142D01*
X106803904Y-51498238D01*
X106784857Y-51536333D01*
X106765809Y-51555380D01*
X106727714Y-51574428D01*
X106594380Y-51574428D01*
X106937238Y-51383952D02*
X107165809Y-51383952D01*
X107051523Y-51783952D02*
X107051523Y-51383952D01*
X107280095Y-51764904D02*
X107337238Y-51783952D01*
X107432476Y-51783952D01*
X107470571Y-51764904D01*
X107489619Y-51745857D01*
X107508666Y-51707761D01*
X107508666Y-51669666D01*
X107489619Y-51631571D01*
X107470571Y-51612523D01*
X107432476Y-51593476D01*
X107356285Y-51574428D01*
X107318190Y-51555380D01*
X107299142Y-51536333D01*
X107280095Y-51498238D01*
X107280095Y-51460142D01*
X107299142Y-51422047D01*
X107318190Y-51403000D01*
X107356285Y-51383952D01*
X107451523Y-51383952D01*
X107508666Y-51403000D01*
X107908666Y-51783952D02*
X107775333Y-51593476D01*
X107680095Y-51783952D02*
X107680095Y-51383952D01*
X107832476Y-51383952D01*
X107870571Y-51403000D01*
X107889619Y-51422047D01*
X107908666Y-51460142D01*
X107908666Y-51517285D01*
X107889619Y-51555380D01*
X107870571Y-51574428D01*
X107832476Y-51593476D01*
X107680095Y-51593476D01*
X108308666Y-51745857D02*
X108289619Y-51764904D01*
X108232476Y-51783952D01*
X108194380Y-51783952D01*
X108137238Y-51764904D01*
X108099142Y-51726809D01*
X108080095Y-51688714D01*
X108061047Y-51612523D01*
X108061047Y-51555380D01*
X108080095Y-51479190D01*
X108099142Y-51441095D01*
X108137238Y-51403000D01*
X108194380Y-51383952D01*
X108232476Y-51383952D01*
X108289619Y-51403000D01*
X108308666Y-51422047D01*
X106984857Y-52444904D02*
X107042000Y-52463952D01*
X107137238Y-52463952D01*
X107175333Y-52444904D01*
X107194380Y-52425857D01*
X107213428Y-52387761D01*
X107213428Y-52349666D01*
X107194380Y-52311571D01*
X107175333Y-52292523D01*
X107137238Y-52273476D01*
X107061047Y-52254428D01*
X107022952Y-52235380D01*
X107003904Y-52216333D01*
X106984857Y-52178238D01*
X106984857Y-52140142D01*
X107003904Y-52102047D01*
X107022952Y-52083000D01*
X107061047Y-52063952D01*
X107156285Y-52063952D01*
X107213428Y-52083000D01*
X107384857Y-52254428D02*
X107518190Y-52254428D01*
X107575333Y-52463952D02*
X107384857Y-52463952D01*
X107384857Y-52063952D01*
X107575333Y-52063952D01*
X107937238Y-52463952D02*
X107746761Y-52463952D01*
X107746761Y-52063952D01*
D10*
X82173000Y-83558000D02*
X82149190Y-83605619D01*
X82149190Y-83677047D01*
X82173000Y-83748476D01*
X82220619Y-83796095D01*
X82268238Y-83819904D01*
X82363476Y-83843714D01*
X82434904Y-83843714D01*
X82530142Y-83819904D01*
X82577761Y-83796095D01*
X82625380Y-83748476D01*
X82649190Y-83677047D01*
X82649190Y-83629428D01*
X82625380Y-83558000D01*
X82601571Y-83534190D01*
X82434904Y-83534190D01*
X82434904Y-83629428D01*
X82649190Y-83319904D02*
X82149190Y-83319904D01*
X82149190Y-83129428D01*
X82173000Y-83081809D01*
X82196809Y-83058000D01*
X82244428Y-83034190D01*
X82315857Y-83034190D01*
X82363476Y-83058000D01*
X82387285Y-83081809D01*
X82411095Y-83129428D01*
X82411095Y-83319904D01*
X82649190Y-82819904D02*
X82149190Y-82819904D01*
X82149190Y-82486571D02*
X82149190Y-82391333D01*
X82173000Y-82343714D01*
X82220619Y-82296095D01*
X82315857Y-82272285D01*
X82482523Y-82272285D01*
X82577761Y-82296095D01*
X82625380Y-82343714D01*
X82649190Y-82391333D01*
X82649190Y-82486571D01*
X82625380Y-82534190D01*
X82577761Y-82581809D01*
X82482523Y-82605619D01*
X82315857Y-82605619D01*
X82220619Y-82581809D01*
X82173000Y-82534190D01*
X82149190Y-82486571D01*
D13*
X111415285Y-79048428D02*
X111524142Y-79084714D01*
X111705571Y-79084714D01*
X111778142Y-79048428D01*
X111814428Y-79012142D01*
X111850714Y-78939571D01*
X111850714Y-78867000D01*
X111814428Y-78794428D01*
X111778142Y-78758142D01*
X111705571Y-78721857D01*
X111560428Y-78685571D01*
X111487857Y-78649285D01*
X111451571Y-78613000D01*
X111415285Y-78540428D01*
X111415285Y-78467857D01*
X111451571Y-78395285D01*
X111487857Y-78359000D01*
X111560428Y-78322714D01*
X111741857Y-78322714D01*
X111850714Y-78359000D01*
X112503857Y-78576714D02*
X112503857Y-79084714D01*
X112177285Y-78576714D02*
X112177285Y-78975857D01*
X112213571Y-79048428D01*
X112286142Y-79084714D01*
X112395000Y-79084714D01*
X112467571Y-79048428D01*
X112503857Y-79012142D01*
X112975571Y-79084714D02*
X112903000Y-79048428D01*
X112866714Y-78975857D01*
X112866714Y-78322714D01*
X113592428Y-78576714D02*
X113592428Y-79084714D01*
X113265857Y-78576714D02*
X113265857Y-78975857D01*
X113302142Y-79048428D01*
X113374714Y-79084714D01*
X113483571Y-79084714D01*
X113556142Y-79048428D01*
X113592428Y-79012142D01*
X114427000Y-78322714D02*
X114681000Y-79084714D01*
X114935000Y-78322714D01*
X115588142Y-79084714D02*
X115152714Y-79084714D01*
X115370428Y-79084714D02*
X115370428Y-78322714D01*
X115297857Y-78431571D01*
X115225285Y-78504142D01*
X115152714Y-78540428D01*
X115914714Y-79012142D02*
X115951000Y-79048428D01*
X115914714Y-79084714D01*
X115878428Y-79048428D01*
X115914714Y-79012142D01*
X115914714Y-79084714D01*
X116422714Y-78322714D02*
X116495285Y-78322714D01*
X116567857Y-78359000D01*
X116604142Y-78395285D01*
X116640428Y-78467857D01*
X116676714Y-78613000D01*
X116676714Y-78794428D01*
X116640428Y-78939571D01*
X116604142Y-79012142D01*
X116567857Y-79048428D01*
X116495285Y-79084714D01*
X116422714Y-79084714D01*
X116350142Y-79048428D01*
X116313857Y-79012142D01*
X116277571Y-78939571D01*
X116241285Y-78794428D01*
X116241285Y-78613000D01*
X116277571Y-78467857D01*
X116313857Y-78395285D01*
X116350142Y-78359000D01*
X116422714Y-78322714D01*
X113556142Y-80354714D02*
X113302142Y-79991857D01*
X113120714Y-80354714D02*
X113120714Y-79592714D01*
X113411000Y-79592714D01*
X113483571Y-79629000D01*
X113519857Y-79665285D01*
X113556142Y-79737857D01*
X113556142Y-79846714D01*
X113519857Y-79919285D01*
X113483571Y-79955571D01*
X113411000Y-79991857D01*
X113120714Y-79991857D01*
X113882714Y-79955571D02*
X114136714Y-79955571D01*
X114245571Y-80354714D02*
X113882714Y-80354714D01*
X113882714Y-79592714D01*
X114245571Y-79592714D01*
X114971285Y-79629000D02*
X114898714Y-79592714D01*
X114789857Y-79592714D01*
X114681000Y-79629000D01*
X114608428Y-79701571D01*
X114572142Y-79774142D01*
X114535857Y-79919285D01*
X114535857Y-80028142D01*
X114572142Y-80173285D01*
X114608428Y-80245857D01*
X114681000Y-80318428D01*
X114789857Y-80354714D01*
X114862428Y-80354714D01*
X114971285Y-80318428D01*
X115007571Y-80282142D01*
X115007571Y-80028142D01*
X114862428Y-80028142D01*
D10*
X108839047Y-69473000D02*
X108791428Y-69449190D01*
X108720000Y-69449190D01*
X108648571Y-69473000D01*
X108600952Y-69520619D01*
X108577142Y-69568238D01*
X108553333Y-69663476D01*
X108553333Y-69734904D01*
X108577142Y-69830142D01*
X108600952Y-69877761D01*
X108648571Y-69925380D01*
X108720000Y-69949190D01*
X108767619Y-69949190D01*
X108839047Y-69925380D01*
X108862857Y-69901571D01*
X108862857Y-69734904D01*
X108767619Y-69734904D01*
X109077142Y-69949190D02*
X109077142Y-69449190D01*
X109362857Y-69949190D01*
X109362857Y-69449190D01*
X109600952Y-69949190D02*
X109600952Y-69449190D01*
X109720000Y-69449190D01*
X109791428Y-69473000D01*
X109839047Y-69520619D01*
X109862857Y-69568238D01*
X109886666Y-69663476D01*
X109886666Y-69734904D01*
X109862857Y-69830142D01*
X109839047Y-69877761D01*
X109791428Y-69925380D01*
X109720000Y-69949190D01*
X109600952Y-69949190D01*
X83820047Y-51693000D02*
X83772428Y-51669190D01*
X83701000Y-51669190D01*
X83629571Y-51693000D01*
X83581952Y-51740619D01*
X83558142Y-51788238D01*
X83534333Y-51883476D01*
X83534333Y-51954904D01*
X83558142Y-52050142D01*
X83581952Y-52097761D01*
X83629571Y-52145380D01*
X83701000Y-52169190D01*
X83748619Y-52169190D01*
X83820047Y-52145380D01*
X83843857Y-52121571D01*
X83843857Y-51954904D01*
X83748619Y-51954904D01*
X84058142Y-52169190D02*
X84058142Y-51669190D01*
X84343857Y-52169190D01*
X84343857Y-51669190D01*
X84581952Y-52169190D02*
X84581952Y-51669190D01*
X84701000Y-51669190D01*
X84772428Y-51693000D01*
X84820047Y-51740619D01*
X84843857Y-51788238D01*
X84867666Y-51883476D01*
X84867666Y-51954904D01*
X84843857Y-52050142D01*
X84820047Y-52097761D01*
X84772428Y-52145380D01*
X84701000Y-52169190D01*
X84581952Y-52169190D01*
X88840571Y-58654190D02*
X89007238Y-59154190D01*
X89173904Y-58654190D01*
X89507238Y-58892285D02*
X89578666Y-58916095D01*
X89602476Y-58939904D01*
X89626285Y-58987523D01*
X89626285Y-59058952D01*
X89602476Y-59106571D01*
X89578666Y-59130380D01*
X89531047Y-59154190D01*
X89340571Y-59154190D01*
X89340571Y-58654190D01*
X89507238Y-58654190D01*
X89554857Y-58678000D01*
X89578666Y-58701809D01*
X89602476Y-58749428D01*
X89602476Y-58797047D01*
X89578666Y-58844666D01*
X89554857Y-58868476D01*
X89507238Y-58892285D01*
X89340571Y-58892285D01*
X89816761Y-59011333D02*
X90054857Y-59011333D01*
X89769142Y-59154190D02*
X89935809Y-58654190D01*
X90102476Y-59154190D01*
X90197714Y-58654190D02*
X90483428Y-58654190D01*
X90340571Y-59154190D02*
X90340571Y-58654190D01*
X98647380Y-58654190D02*
X98814047Y-59154190D01*
X98980714Y-58654190D01*
X99147380Y-59154190D02*
X99147380Y-58654190D01*
X99266428Y-58654190D01*
X99337857Y-58678000D01*
X99385476Y-58725619D01*
X99409285Y-58773238D01*
X99433095Y-58868476D01*
X99433095Y-58939904D01*
X99409285Y-59035142D01*
X99385476Y-59082761D01*
X99337857Y-59130380D01*
X99266428Y-59154190D01*
X99147380Y-59154190D01*
X99647380Y-59154190D02*
X99647380Y-58654190D01*
X99766428Y-58654190D01*
X99837857Y-58678000D01*
X99885476Y-58725619D01*
X99909285Y-58773238D01*
X99933095Y-58868476D01*
X99933095Y-58939904D01*
X99909285Y-59035142D01*
X99885476Y-59082761D01*
X99837857Y-59130380D01*
X99766428Y-59154190D01*
X99647380Y-59154190D01*
X100147380Y-59154190D02*
X100147380Y-58654190D01*
X100480714Y-58654190D02*
X100575952Y-58654190D01*
X100623571Y-58678000D01*
X100671190Y-58725619D01*
X100695000Y-58820857D01*
X100695000Y-58987523D01*
X100671190Y-59082761D01*
X100623571Y-59130380D01*
X100575952Y-59154190D01*
X100480714Y-59154190D01*
X100433095Y-59130380D01*
X100385476Y-59082761D01*
X100361666Y-58987523D01*
X100361666Y-58820857D01*
X100385476Y-58725619D01*
X100433095Y-58678000D01*
X100480714Y-58654190D01*
X101687380Y-51617190D02*
X101687380Y-51117190D01*
X101925476Y-51617190D02*
X101925476Y-51117190D01*
X102092142Y-51474333D01*
X102258809Y-51117190D01*
X102258809Y-51617190D01*
X102496904Y-51117190D02*
X102496904Y-51521952D01*
X102520714Y-51569571D01*
X102544523Y-51593380D01*
X102592142Y-51617190D01*
X102687380Y-51617190D01*
X102735000Y-51593380D01*
X102758809Y-51569571D01*
X102782619Y-51521952D01*
X102782619Y-51117190D01*
X101568333Y-51967190D02*
X101735000Y-52467190D01*
X101901666Y-51967190D01*
X102068333Y-52467190D02*
X102068333Y-51967190D01*
X102187380Y-51967190D01*
X102258809Y-51991000D01*
X102306428Y-52038619D01*
X102330238Y-52086238D01*
X102354047Y-52181476D01*
X102354047Y-52252904D01*
X102330238Y-52348142D01*
X102306428Y-52395761D01*
X102258809Y-52443380D01*
X102187380Y-52467190D01*
X102068333Y-52467190D01*
X102568333Y-52467190D02*
X102568333Y-51967190D01*
X102687380Y-51967190D01*
X102758809Y-51991000D01*
X102806428Y-52038619D01*
X102830238Y-52086238D01*
X102854047Y-52181476D01*
X102854047Y-52252904D01*
X102830238Y-52348142D01*
X102806428Y-52395761D01*
X102758809Y-52443380D01*
X102687380Y-52467190D01*
X102568333Y-52467190D01*
X105636190Y-79978238D02*
X105636190Y-80263952D01*
X105636190Y-80121095D02*
X105136190Y-80121095D01*
X105207619Y-80168714D01*
X105255238Y-80216333D01*
X105279047Y-80263952D01*
X105136190Y-79525857D02*
X105136190Y-79763952D01*
X105374285Y-79787761D01*
X105350476Y-79763952D01*
X105326666Y-79716333D01*
X105326666Y-79597285D01*
X105350476Y-79549666D01*
X105374285Y-79525857D01*
X105421904Y-79502047D01*
X105540952Y-79502047D01*
X105588571Y-79525857D01*
X105612380Y-79549666D01*
X105636190Y-79597285D01*
X105636190Y-79716333D01*
X105612380Y-79763952D01*
X105588571Y-79787761D01*
X103096190Y-79978238D02*
X103096190Y-80263952D01*
X103096190Y-80121095D02*
X102596190Y-80121095D01*
X102667619Y-80168714D01*
X102715238Y-80216333D01*
X102739047Y-80263952D01*
X102762857Y-79549666D02*
X103096190Y-79549666D01*
X102572380Y-79668714D02*
X102929523Y-79787761D01*
X102929523Y-79478238D01*
X100556190Y-79978238D02*
X100556190Y-80263952D01*
X100556190Y-80121095D02*
X100056190Y-80121095D01*
X100127619Y-80168714D01*
X100175238Y-80216333D01*
X100199047Y-80263952D01*
X100056190Y-79811571D02*
X100056190Y-79502047D01*
X100246666Y-79668714D01*
X100246666Y-79597285D01*
X100270476Y-79549666D01*
X100294285Y-79525857D01*
X100341904Y-79502047D01*
X100460952Y-79502047D01*
X100508571Y-79525857D01*
X100532380Y-79549666D01*
X100556190Y-79597285D01*
X100556190Y-79740142D01*
X100532380Y-79787761D01*
X100508571Y-79811571D01*
X98016190Y-79978238D02*
X98016190Y-80263952D01*
X98016190Y-80121095D02*
X97516190Y-80121095D01*
X97587619Y-80168714D01*
X97635238Y-80216333D01*
X97659047Y-80263952D01*
X97563809Y-79787761D02*
X97540000Y-79763952D01*
X97516190Y-79716333D01*
X97516190Y-79597285D01*
X97540000Y-79549666D01*
X97563809Y-79525857D01*
X97611428Y-79502047D01*
X97659047Y-79502047D01*
X97730476Y-79525857D01*
X98016190Y-79811571D01*
X98016190Y-79502047D01*
X108779523Y-64869190D02*
X108612857Y-64631095D01*
X108493809Y-64869190D02*
X108493809Y-64369190D01*
X108684285Y-64369190D01*
X108731904Y-64393000D01*
X108755714Y-64416809D01*
X108779523Y-64464428D01*
X108779523Y-64535857D01*
X108755714Y-64583476D01*
X108731904Y-64607285D01*
X108684285Y-64631095D01*
X108493809Y-64631095D01*
X108970000Y-64845380D02*
X109017619Y-64869190D01*
X109112857Y-64869190D01*
X109160476Y-64845380D01*
X109184285Y-64797761D01*
X109184285Y-64773952D01*
X109160476Y-64726333D01*
X109112857Y-64702523D01*
X109041428Y-64702523D01*
X108993809Y-64678714D01*
X108970000Y-64631095D01*
X108970000Y-64607285D01*
X108993809Y-64559666D01*
X109041428Y-64535857D01*
X109112857Y-64535857D01*
X109160476Y-64559666D01*
X109327142Y-64369190D02*
X109612857Y-64369190D01*
X109470000Y-64869190D02*
X109470000Y-64369190D01*
X109731904Y-64869190D02*
X109993809Y-64535857D01*
X109731904Y-64535857D02*
X109993809Y-64869190D01*
X108720000Y-68679190D02*
X108553333Y-68441095D01*
X108434285Y-68679190D02*
X108434285Y-68179190D01*
X108624761Y-68179190D01*
X108672380Y-68203000D01*
X108696190Y-68226809D01*
X108720000Y-68274428D01*
X108720000Y-68345857D01*
X108696190Y-68393476D01*
X108672380Y-68417285D01*
X108624761Y-68441095D01*
X108434285Y-68441095D01*
X108910476Y-68655380D02*
X108958095Y-68679190D01*
X109053333Y-68679190D01*
X109100952Y-68655380D01*
X109124761Y-68607761D01*
X109124761Y-68583952D01*
X109100952Y-68536333D01*
X109053333Y-68512523D01*
X108981904Y-68512523D01*
X108934285Y-68488714D01*
X108910476Y-68441095D01*
X108910476Y-68417285D01*
X108934285Y-68369666D01*
X108981904Y-68345857D01*
X109053333Y-68345857D01*
X109100952Y-68369666D01*
X109624761Y-68679190D02*
X109458095Y-68441095D01*
X109339047Y-68679190D02*
X109339047Y-68179190D01*
X109529523Y-68179190D01*
X109577142Y-68203000D01*
X109600952Y-68226809D01*
X109624761Y-68274428D01*
X109624761Y-68345857D01*
X109600952Y-68393476D01*
X109577142Y-68417285D01*
X109529523Y-68441095D01*
X109339047Y-68441095D01*
X109791428Y-68679190D02*
X110053333Y-68345857D01*
X109791428Y-68345857D02*
X110053333Y-68679190D01*
X116137619Y-66484190D02*
X116447142Y-66484190D01*
X116280476Y-66674666D01*
X116351904Y-66674666D01*
X116399523Y-66698476D01*
X116423333Y-66722285D01*
X116447142Y-66769904D01*
X116447142Y-66888952D01*
X116423333Y-66936571D01*
X116399523Y-66960380D01*
X116351904Y-66984190D01*
X116209047Y-66984190D01*
X116161428Y-66960380D01*
X116137619Y-66936571D01*
X116613809Y-66484190D02*
X116732857Y-66984190D01*
X116828095Y-66627047D01*
X116923333Y-66984190D01*
X117042380Y-66484190D01*
X117399523Y-66722285D02*
X117470952Y-66746095D01*
X117494761Y-66769904D01*
X117518571Y-66817523D01*
X117518571Y-66888952D01*
X117494761Y-66936571D01*
X117470952Y-66960380D01*
X117423333Y-66984190D01*
X117232857Y-66984190D01*
X117232857Y-66484190D01*
X117399523Y-66484190D01*
X117447142Y-66508000D01*
X117470952Y-66531809D01*
X117494761Y-66579428D01*
X117494761Y-66627047D01*
X117470952Y-66674666D01*
X117447142Y-66698476D01*
X117399523Y-66722285D01*
X117232857Y-66722285D01*
X116542380Y-67786571D02*
X116518571Y-67810380D01*
X116447142Y-67834190D01*
X116399523Y-67834190D01*
X116328095Y-67810380D01*
X116280476Y-67762761D01*
X116256666Y-67715142D01*
X116232857Y-67619904D01*
X116232857Y-67548476D01*
X116256666Y-67453238D01*
X116280476Y-67405619D01*
X116328095Y-67358000D01*
X116399523Y-67334190D01*
X116447142Y-67334190D01*
X116518571Y-67358000D01*
X116542380Y-67381809D01*
X116994761Y-67834190D02*
X116756666Y-67834190D01*
X116756666Y-67334190D01*
X117161428Y-67834190D02*
X117161428Y-67334190D01*
X117447142Y-67834190D02*
X117232857Y-67548476D01*
X117447142Y-67334190D02*
X117161428Y-67619904D01*
X116137619Y-69024190D02*
X116447142Y-69024190D01*
X116280476Y-69214666D01*
X116351904Y-69214666D01*
X116399523Y-69238476D01*
X116423333Y-69262285D01*
X116447142Y-69309904D01*
X116447142Y-69428952D01*
X116423333Y-69476571D01*
X116399523Y-69500380D01*
X116351904Y-69524190D01*
X116209047Y-69524190D01*
X116161428Y-69500380D01*
X116137619Y-69476571D01*
X116613809Y-69024190D02*
X116732857Y-69524190D01*
X116828095Y-69167047D01*
X116923333Y-69524190D01*
X117042380Y-69024190D01*
X117399523Y-69262285D02*
X117470952Y-69286095D01*
X117494761Y-69309904D01*
X117518571Y-69357523D01*
X117518571Y-69428952D01*
X117494761Y-69476571D01*
X117470952Y-69500380D01*
X117423333Y-69524190D01*
X117232857Y-69524190D01*
X117232857Y-69024190D01*
X117399523Y-69024190D01*
X117447142Y-69048000D01*
X117470952Y-69071809D01*
X117494761Y-69119428D01*
X117494761Y-69167047D01*
X117470952Y-69214666D01*
X117447142Y-69238476D01*
X117399523Y-69262285D01*
X117232857Y-69262285D01*
X116220952Y-70112285D02*
X116387619Y-70112285D01*
X116459047Y-70374190D02*
X116220952Y-70374190D01*
X116220952Y-69874190D01*
X116459047Y-69874190D01*
X116673333Y-70374190D02*
X116673333Y-69874190D01*
X116959047Y-70374190D01*
X116959047Y-69874190D01*
X117363809Y-70112285D02*
X117435238Y-70136095D01*
X117459047Y-70159904D01*
X117482857Y-70207523D01*
X117482857Y-70278952D01*
X117459047Y-70326571D01*
X117435238Y-70350380D01*
X117387619Y-70374190D01*
X117197142Y-70374190D01*
X117197142Y-69874190D01*
X117363809Y-69874190D01*
X117411428Y-69898000D01*
X117435238Y-69921809D01*
X117459047Y-69969428D01*
X117459047Y-70017047D01*
X117435238Y-70064666D01*
X117411428Y-70088476D01*
X117363809Y-70112285D01*
X117197142Y-70112285D01*
D11*
X116137619Y-71574190D02*
X116447142Y-71574190D01*
X116280476Y-71764666D01*
X116351904Y-71764666D01*
X116399523Y-71788476D01*
X116423333Y-71812285D01*
X116447142Y-71859904D01*
X116447142Y-71978952D01*
X116423333Y-72026571D01*
X116399523Y-72050380D01*
X116351904Y-72074190D01*
X116209047Y-72074190D01*
X116161428Y-72050380D01*
X116137619Y-72026571D01*
X116613809Y-71574190D02*
X116732857Y-72074190D01*
X116828095Y-71717047D01*
X116923333Y-72074190D01*
X117042380Y-71574190D01*
X117399523Y-71812285D02*
X117470952Y-71836095D01*
X117494761Y-71859904D01*
X117518571Y-71907523D01*
X117518571Y-71978952D01*
X117494761Y-72026571D01*
X117470952Y-72050380D01*
X117423333Y-72074190D01*
X117232857Y-72074190D01*
X117232857Y-71574190D01*
X117399523Y-71574190D01*
X117447142Y-71598000D01*
X117470952Y-71621809D01*
X117494761Y-71669428D01*
X117494761Y-71717047D01*
X117470952Y-71764666D01*
X117447142Y-71788476D01*
X117399523Y-71812285D01*
X117232857Y-71812285D01*
X116090000Y-72904190D02*
X116090000Y-72404190D01*
X116209047Y-72404190D01*
X116280476Y-72428000D01*
X116328095Y-72475619D01*
X116351904Y-72523238D01*
X116375714Y-72618476D01*
X116375714Y-72689904D01*
X116351904Y-72785142D01*
X116328095Y-72832761D01*
X116280476Y-72880380D01*
X116209047Y-72904190D01*
X116090000Y-72904190D01*
X116566190Y-72761333D02*
X116804285Y-72761333D01*
X116518571Y-72904190D02*
X116685238Y-72404190D01*
X116851904Y-72904190D01*
X116947142Y-72404190D02*
X117232857Y-72404190D01*
X117090000Y-72904190D02*
X117090000Y-72404190D01*
X117375714Y-72761333D02*
X117613809Y-72761333D01*
X117328095Y-72904190D02*
X117494761Y-72404190D01*
X117661428Y-72904190D01*
X109486761Y-51542666D02*
X109677238Y-51542666D01*
X109448666Y-51656952D02*
X109582000Y-51256952D01*
X109715333Y-51656952D01*
X109848666Y-51656952D02*
X109848666Y-51256952D01*
X109943904Y-51256952D01*
X110001047Y-51276000D01*
X110039142Y-51314095D01*
X110058190Y-51352190D01*
X110077238Y-51428380D01*
X110077238Y-51485523D01*
X110058190Y-51561714D01*
X110039142Y-51599809D01*
X110001047Y-51637904D01*
X109943904Y-51656952D01*
X109848666Y-51656952D01*
X110477238Y-51618857D02*
X110458190Y-51637904D01*
X110401047Y-51656952D01*
X110362952Y-51656952D01*
X110305809Y-51637904D01*
X110267714Y-51599809D01*
X110248666Y-51561714D01*
X110229619Y-51485523D01*
X110229619Y-51428380D01*
X110248666Y-51352190D01*
X110267714Y-51314095D01*
X110305809Y-51276000D01*
X110362952Y-51256952D01*
X110401047Y-51256952D01*
X110458190Y-51276000D01*
X110477238Y-51295047D01*
X109582000Y-51936952D02*
X109658190Y-51936952D01*
X109696285Y-51956000D01*
X109734380Y-51994095D01*
X109753428Y-52070285D01*
X109753428Y-52203619D01*
X109734380Y-52279809D01*
X109696285Y-52317904D01*
X109658190Y-52336952D01*
X109582000Y-52336952D01*
X109543904Y-52317904D01*
X109505809Y-52279809D01*
X109486761Y-52203619D01*
X109486761Y-52070285D01*
X109505809Y-51994095D01*
X109543904Y-51956000D01*
X109582000Y-51936952D01*
X109924857Y-51936952D02*
X109924857Y-52260761D01*
X109943904Y-52298857D01*
X109962952Y-52317904D01*
X110001047Y-52336952D01*
X110077238Y-52336952D01*
X110115333Y-52317904D01*
X110134380Y-52298857D01*
X110153428Y-52260761D01*
X110153428Y-51936952D01*
X110286761Y-51936952D02*
X110515333Y-51936952D01*
X110401047Y-52336952D02*
X110401047Y-51936952D01*
D10*
X91158333Y-58654190D02*
X91325000Y-59154190D01*
X91491666Y-58654190D01*
X91658333Y-59154190D02*
X91658333Y-58654190D01*
X91777380Y-58654190D01*
X91848809Y-58678000D01*
X91896428Y-58725619D01*
X91920238Y-58773238D01*
X91944047Y-58868476D01*
X91944047Y-58939904D01*
X91920238Y-59035142D01*
X91896428Y-59082761D01*
X91848809Y-59130380D01*
X91777380Y-59154190D01*
X91658333Y-59154190D01*
X92158333Y-59154190D02*
X92158333Y-58654190D01*
X92277380Y-58654190D01*
X92348809Y-58678000D01*
X92396428Y-58725619D01*
X92420238Y-58773238D01*
X92444047Y-58868476D01*
X92444047Y-58939904D01*
X92420238Y-59035142D01*
X92396428Y-59082761D01*
X92348809Y-59130380D01*
X92277380Y-59154190D01*
X92158333Y-59154190D01*
X92658333Y-59154190D02*
X92658333Y-58654190D01*
X92777380Y-58654190D01*
X92848809Y-58678000D01*
X92896428Y-58725619D01*
X92920238Y-58773238D01*
X92944047Y-58868476D01*
X92944047Y-58939904D01*
X92920238Y-59035142D01*
X92896428Y-59082761D01*
X92848809Y-59130380D01*
X92777380Y-59154190D01*
X92658333Y-59154190D01*
X116018571Y-61829190D02*
X116185238Y-62329190D01*
X116351904Y-61829190D01*
X116685238Y-62067285D02*
X116756666Y-62091095D01*
X116780476Y-62114904D01*
X116804285Y-62162523D01*
X116804285Y-62233952D01*
X116780476Y-62281571D01*
X116756666Y-62305380D01*
X116709047Y-62329190D01*
X116518571Y-62329190D01*
X116518571Y-61829190D01*
X116685238Y-61829190D01*
X116732857Y-61853000D01*
X116756666Y-61876809D01*
X116780476Y-61924428D01*
X116780476Y-61972047D01*
X116756666Y-62019666D01*
X116732857Y-62043476D01*
X116685238Y-62067285D01*
X116518571Y-62067285D01*
X116994761Y-62186333D02*
X117232857Y-62186333D01*
X116947142Y-62329190D02*
X117113809Y-61829190D01*
X117280476Y-62329190D01*
X117375714Y-61829190D02*
X117661428Y-61829190D01*
X117518571Y-62329190D02*
X117518571Y-61829190D01*
X92936190Y-79978238D02*
X92936190Y-80263952D01*
X92936190Y-80121095D02*
X92436190Y-80121095D01*
X92507619Y-80168714D01*
X92555238Y-80216333D01*
X92579047Y-80263952D01*
X92436190Y-79668714D02*
X92436190Y-79621095D01*
X92460000Y-79573476D01*
X92483809Y-79549666D01*
X92531428Y-79525857D01*
X92626666Y-79502047D01*
X92745714Y-79502047D01*
X92840952Y-79525857D01*
X92888571Y-79549666D01*
X92912380Y-79573476D01*
X92936190Y-79621095D01*
X92936190Y-79668714D01*
X92912380Y-79716333D01*
X92888571Y-79740142D01*
X92840952Y-79763952D01*
X92745714Y-79787761D01*
X92626666Y-79787761D01*
X92531428Y-79763952D01*
X92483809Y-79740142D01*
X92460000Y-79716333D01*
X92436190Y-79668714D01*
X90396190Y-79978238D02*
X90396190Y-79883000D01*
X90372380Y-79835380D01*
X90348571Y-79811571D01*
X90277142Y-79763952D01*
X90181904Y-79740142D01*
X89991428Y-79740142D01*
X89943809Y-79763952D01*
X89920000Y-79787761D01*
X89896190Y-79835380D01*
X89896190Y-79930619D01*
X89920000Y-79978238D01*
X89943809Y-80002047D01*
X89991428Y-80025857D01*
X90110476Y-80025857D01*
X90158095Y-80002047D01*
X90181904Y-79978238D01*
X90205714Y-79930619D01*
X90205714Y-79835380D01*
X90181904Y-79787761D01*
X90158095Y-79763952D01*
X90110476Y-79740142D01*
X87570476Y-79930619D02*
X87546666Y-79978238D01*
X87522857Y-80002047D01*
X87475238Y-80025857D01*
X87451428Y-80025857D01*
X87403809Y-80002047D01*
X87380000Y-79978238D01*
X87356190Y-79930619D01*
X87356190Y-79835380D01*
X87380000Y-79787761D01*
X87403809Y-79763952D01*
X87451428Y-79740142D01*
X87475238Y-79740142D01*
X87522857Y-79763952D01*
X87546666Y-79787761D01*
X87570476Y-79835380D01*
X87570476Y-79930619D01*
X87594285Y-79978238D01*
X87618095Y-80002047D01*
X87665714Y-80025857D01*
X87760952Y-80025857D01*
X87808571Y-80002047D01*
X87832380Y-79978238D01*
X87856190Y-79930619D01*
X87856190Y-79835380D01*
X87832380Y-79787761D01*
X87808571Y-79763952D01*
X87760952Y-79740142D01*
X87665714Y-79740142D01*
X87618095Y-79763952D01*
X87594285Y-79787761D01*
X87570476Y-79835380D01*
X105136190Y-86399666D02*
X105136190Y-86066333D01*
X105636190Y-86280619D01*
X102596190Y-86137761D02*
X102596190Y-86233000D01*
X102620000Y-86280619D01*
X102643809Y-86304428D01*
X102715238Y-86352047D01*
X102810476Y-86375857D01*
X103000952Y-86375857D01*
X103048571Y-86352047D01*
X103072380Y-86328238D01*
X103096190Y-86280619D01*
X103096190Y-86185380D01*
X103072380Y-86137761D01*
X103048571Y-86113952D01*
X103000952Y-86090142D01*
X102881904Y-86090142D01*
X102834285Y-86113952D01*
X102810476Y-86137761D01*
X102786666Y-86185380D01*
X102786666Y-86280619D01*
X102810476Y-86328238D01*
X102834285Y-86352047D01*
X102881904Y-86375857D01*
X100056190Y-86113952D02*
X100056190Y-86352047D01*
X100294285Y-86375857D01*
X100270476Y-86352047D01*
X100246666Y-86304428D01*
X100246666Y-86185380D01*
X100270476Y-86137761D01*
X100294285Y-86113952D01*
X100341904Y-86090142D01*
X100460952Y-86090142D01*
X100508571Y-86113952D01*
X100532380Y-86137761D01*
X100556190Y-86185380D01*
X100556190Y-86304428D01*
X100532380Y-86352047D01*
X100508571Y-86375857D01*
X97682857Y-86137761D02*
X98016190Y-86137761D01*
X97492380Y-86256809D02*
X97849523Y-86375857D01*
X97849523Y-86066333D01*
X94976190Y-86399666D02*
X94976190Y-86090142D01*
X95166666Y-86256809D01*
X95166666Y-86185380D01*
X95190476Y-86137761D01*
X95214285Y-86113952D01*
X95261904Y-86090142D01*
X95380952Y-86090142D01*
X95428571Y-86113952D01*
X95452380Y-86137761D01*
X95476190Y-86185380D01*
X95476190Y-86328238D01*
X95452380Y-86375857D01*
X95428571Y-86399666D01*
X92483809Y-86375857D02*
X92460000Y-86352047D01*
X92436190Y-86304428D01*
X92436190Y-86185380D01*
X92460000Y-86137761D01*
X92483809Y-86113952D01*
X92531428Y-86090142D01*
X92579047Y-86090142D01*
X92650476Y-86113952D01*
X92936190Y-86399666D01*
X92936190Y-86090142D01*
X90396190Y-86090142D02*
X90396190Y-86375857D01*
X90396190Y-86233000D02*
X89896190Y-86233000D01*
X89967619Y-86280619D01*
X90015238Y-86328238D01*
X90039047Y-86375857D01*
X87356190Y-86256809D02*
X87356190Y-86209190D01*
X87380000Y-86161571D01*
X87403809Y-86137761D01*
X87451428Y-86113952D01*
X87546666Y-86090142D01*
X87665714Y-86090142D01*
X87760952Y-86113952D01*
X87808571Y-86137761D01*
X87832380Y-86161571D01*
X87856190Y-86209190D01*
X87856190Y-86256809D01*
X87832380Y-86304428D01*
X87808571Y-86328238D01*
X87760952Y-86352047D01*
X87665714Y-86375857D01*
X87546666Y-86375857D01*
X87451428Y-86352047D01*
X87403809Y-86328238D01*
X87380000Y-86304428D01*
X87356190Y-86256809D01*
D13*
G04 #@! TO.C,U3*
X86210001Y-64442000D02*
X85550001Y-64442000D01*
X86680001Y-62657000D02*
X86680001Y-63327000D01*
X85550001Y-61542000D02*
X86210001Y-61542000D01*
D14*
X83570001Y-61942000D02*
G75*
G03*
X83570001Y-61942000I-100000J0D01*
G01*
D15*
G04 #@! TO.C,U2*
X78827999Y-62621001D02*
X81277999Y-62621001D01*
X80627999Y-59401001D02*
X78827999Y-59401001D01*
G04 #@! TO.C,B1*
X88773000Y-51308000D02*
G75*
G03*
X88773000Y-51308000I-381000J0D01*
G01*
G04 #@! TO.C,J1*
X111185000Y-58353000D02*
X111185000Y-53153000D01*
X85725000Y-58353000D02*
X111185000Y-58353000D01*
X83125000Y-53153000D02*
X111185000Y-53153000D01*
X85725000Y-58353000D02*
X85725000Y-55753000D01*
X85725000Y-55753000D02*
X83125000Y-55753000D01*
X83125000Y-55753000D02*
X83125000Y-53153000D01*
X84455000Y-58353000D02*
X83125000Y-58353000D01*
X83125000Y-58353000D02*
X83125000Y-57023000D01*
G04 #@! TO.C,C_1.8_OUT1*
X79991578Y-64591000D02*
X79474422Y-64591000D01*
X79991578Y-63171000D02*
X79474422Y-63171000D01*
G04 #@! TO.C,C_1.1_OUT1*
X85641922Y-59361000D02*
X86159078Y-59361000D01*
X85641922Y-60781000D02*
X86159078Y-60781000D01*
G04 #@! TO.C,J3*
X110430000Y-60773000D02*
X111760000Y-60773000D01*
X110430000Y-62103000D02*
X110430000Y-60773000D01*
X113030000Y-60773000D02*
X115630000Y-60773000D01*
X113030000Y-63373000D02*
X113030000Y-60773000D01*
X110430000Y-63373000D02*
X113030000Y-63373000D01*
X115630000Y-60773000D02*
X115630000Y-73593000D01*
X110430000Y-63373000D02*
X110430000Y-73593000D01*
X110430000Y-73593000D02*
X115630000Y-73593000D01*
G04 #@! TO.C,J2*
X83760000Y-85658000D02*
X83760000Y-84328000D01*
X85090000Y-85658000D02*
X83760000Y-85658000D01*
X83760000Y-83058000D02*
X83760000Y-80458000D01*
X86360000Y-83058000D02*
X83760000Y-83058000D01*
X86360000Y-85658000D02*
X86360000Y-83058000D01*
X83760000Y-80458000D02*
X109280000Y-80458000D01*
X86360000Y-85658000D02*
X109280000Y-85658000D01*
X109280000Y-85658000D02*
X109280000Y-80458000D01*
G04 #@! TO.C,U1*
X101720000Y-62488000D02*
X102670000Y-62488000D01*
X102670000Y-62488000D02*
X102670000Y-63438000D01*
X101720000Y-74788000D02*
X102670000Y-74788000D01*
X102670000Y-74788000D02*
X102670000Y-73838000D01*
X91320000Y-74788000D02*
X90370000Y-74788000D01*
X90370000Y-74788000D02*
X90370000Y-73838000D01*
X91320000Y-62488000D02*
X90120000Y-62488000D01*
D12*
G04 #@! TO.C,U9AB1*
X82245000Y-80086000D02*
X81845000Y-80086000D01*
X79045000Y-80086000D02*
X79445000Y-80086000D01*
X79045000Y-80086000D02*
X79045000Y-79686000D01*
X79045000Y-76886000D02*
X79445000Y-76886000D01*
X79045000Y-76886000D02*
X79045000Y-77286000D01*
X82245000Y-76886000D02*
X81845000Y-76886000D01*
X82245000Y-76886000D02*
X82245000Y-77286000D01*
G04 #@! TO.C,U3*
D16*
X85591952Y-64872809D02*
X85591952Y-65284047D01*
X85616142Y-65332428D01*
X85640333Y-65356619D01*
X85688714Y-65380809D01*
X85785476Y-65380809D01*
X85833857Y-65356619D01*
X85858047Y-65332428D01*
X85882238Y-65284047D01*
X85882238Y-64872809D01*
X86075761Y-64872809D02*
X86390238Y-64872809D01*
X86220904Y-65066333D01*
X86293476Y-65066333D01*
X86341857Y-65090523D01*
X86366047Y-65114714D01*
X86390238Y-65163095D01*
X86390238Y-65284047D01*
X86366047Y-65332428D01*
X86341857Y-65356619D01*
X86293476Y-65380809D01*
X86148333Y-65380809D01*
X86099952Y-65356619D01*
X86075761Y-65332428D01*
G04 #@! TO.C,U2*
D12*
X79121095Y-57999380D02*
X79121095Y-58808904D01*
X79168714Y-58904142D01*
X79216333Y-58951761D01*
X79311571Y-58999380D01*
X79502047Y-58999380D01*
X79597285Y-58951761D01*
X79644904Y-58904142D01*
X79692523Y-58808904D01*
X79692523Y-57999380D01*
X80121095Y-58094619D02*
X80168714Y-58047000D01*
X80263952Y-57999380D01*
X80502047Y-57999380D01*
X80597285Y-58047000D01*
X80644904Y-58094619D01*
X80692523Y-58189857D01*
X80692523Y-58285095D01*
X80644904Y-58427952D01*
X80073476Y-58999380D01*
X80692523Y-58999380D01*
G04 #@! TO.C,J4*
X82470559Y-66889204D02*
X82470559Y-67603720D01*
X82422924Y-67746623D01*
X82327655Y-67841892D01*
X82184752Y-67889527D01*
X82089483Y-67889527D01*
X83375613Y-67222645D02*
X83375613Y-67889527D01*
X83137441Y-66841569D02*
X82899268Y-67556086D01*
X83518516Y-67556086D01*
G04 #@! TO.C,J1*
X81577380Y-56086333D02*
X82291666Y-56086333D01*
X82434523Y-56133952D01*
X82529761Y-56229190D01*
X82577380Y-56372047D01*
X82577380Y-56467285D01*
X82577380Y-55086333D02*
X82577380Y-55657761D01*
X82577380Y-55372047D02*
X81577380Y-55372047D01*
X81720238Y-55467285D01*
X81815476Y-55562523D01*
X81863095Y-55657761D01*
G04 #@! TO.C,R4*
D16*
X97765809Y-60536666D02*
X97523904Y-60706000D01*
X97765809Y-60826952D02*
X97257809Y-60826952D01*
X97257809Y-60633428D01*
X97282000Y-60585047D01*
X97306190Y-60560857D01*
X97354571Y-60536666D01*
X97427142Y-60536666D01*
X97475523Y-60560857D01*
X97499714Y-60585047D01*
X97523904Y-60633428D01*
X97523904Y-60826952D01*
X97427142Y-60101238D02*
X97765809Y-60101238D01*
X97233619Y-60222190D02*
X97596476Y-60343142D01*
X97596476Y-60028666D01*
G04 #@! TO.C,R3*
X103607809Y-60028666D02*
X103365904Y-60198000D01*
X103607809Y-60318952D02*
X103099809Y-60318952D01*
X103099809Y-60125428D01*
X103124000Y-60077047D01*
X103148190Y-60052857D01*
X103196571Y-60028666D01*
X103269142Y-60028666D01*
X103317523Y-60052857D01*
X103341714Y-60077047D01*
X103365904Y-60125428D01*
X103365904Y-60318952D01*
X103099809Y-59859333D02*
X103099809Y-59544857D01*
X103293333Y-59714190D01*
X103293333Y-59641619D01*
X103317523Y-59593238D01*
X103341714Y-59569047D01*
X103390095Y-59544857D01*
X103511047Y-59544857D01*
X103559428Y-59569047D01*
X103583619Y-59593238D01*
X103607809Y-59641619D01*
X103607809Y-59786761D01*
X103583619Y-59835142D01*
X103559428Y-59859333D01*
G04 #@! TO.C,R2*
X105639809Y-60028666D02*
X105397904Y-60198000D01*
X105639809Y-60318952D02*
X105131809Y-60318952D01*
X105131809Y-60125428D01*
X105156000Y-60077047D01*
X105180190Y-60052857D01*
X105228571Y-60028666D01*
X105301142Y-60028666D01*
X105349523Y-60052857D01*
X105373714Y-60077047D01*
X105397904Y-60125428D01*
X105397904Y-60318952D01*
X105180190Y-59835142D02*
X105156000Y-59810952D01*
X105131809Y-59762571D01*
X105131809Y-59641619D01*
X105156000Y-59593238D01*
X105180190Y-59569047D01*
X105228571Y-59544857D01*
X105276952Y-59544857D01*
X105349523Y-59569047D01*
X105639809Y-59859333D01*
X105639809Y-59544857D01*
G04 #@! TO.C,C_1.8_OUT1*
X78080809Y-63046428D02*
X78056619Y-63070619D01*
X77984047Y-63094809D01*
X77935666Y-63094809D01*
X77863095Y-63070619D01*
X77814714Y-63022238D01*
X77790523Y-62973857D01*
X77766333Y-62877095D01*
X77766333Y-62804523D01*
X77790523Y-62707761D01*
X77814714Y-62659380D01*
X77863095Y-62611000D01*
X77935666Y-62586809D01*
X77984047Y-62586809D01*
X78056619Y-62611000D01*
X78080809Y-62635190D01*
X78177571Y-63143190D02*
X78564619Y-63143190D01*
X78951666Y-63094809D02*
X78661380Y-63094809D01*
X78806523Y-63094809D02*
X78806523Y-62586809D01*
X78758142Y-62659380D01*
X78709761Y-62707761D01*
X78661380Y-62731952D01*
X79169380Y-63046428D02*
X79193571Y-63070619D01*
X79169380Y-63094809D01*
X79145190Y-63070619D01*
X79169380Y-63046428D01*
X79169380Y-63094809D01*
X79483857Y-62804523D02*
X79435476Y-62780333D01*
X79411285Y-62756142D01*
X79387095Y-62707761D01*
X79387095Y-62683571D01*
X79411285Y-62635190D01*
X79435476Y-62611000D01*
X79483857Y-62586809D01*
X79580619Y-62586809D01*
X79629000Y-62611000D01*
X79653190Y-62635190D01*
X79677380Y-62683571D01*
X79677380Y-62707761D01*
X79653190Y-62756142D01*
X79629000Y-62780333D01*
X79580619Y-62804523D01*
X79483857Y-62804523D01*
X79435476Y-62828714D01*
X79411285Y-62852904D01*
X79387095Y-62901285D01*
X79387095Y-62998047D01*
X79411285Y-63046428D01*
X79435476Y-63070619D01*
X79483857Y-63094809D01*
X79580619Y-63094809D01*
X79629000Y-63070619D01*
X79653190Y-63046428D01*
X79677380Y-62998047D01*
X79677380Y-62901285D01*
X79653190Y-62852904D01*
X79629000Y-62828714D01*
X79580619Y-62804523D01*
X79774142Y-63143190D02*
X80161190Y-63143190D01*
X80378904Y-62586809D02*
X80475666Y-62586809D01*
X80524047Y-62611000D01*
X80572428Y-62659380D01*
X80596619Y-62756142D01*
X80596619Y-62925476D01*
X80572428Y-63022238D01*
X80524047Y-63070619D01*
X80475666Y-63094809D01*
X80378904Y-63094809D01*
X80330523Y-63070619D01*
X80282142Y-63022238D01*
X80257952Y-62925476D01*
X80257952Y-62756142D01*
X80282142Y-62659380D01*
X80330523Y-62611000D01*
X80378904Y-62586809D01*
X80814333Y-62586809D02*
X80814333Y-62998047D01*
X80838523Y-63046428D01*
X80862714Y-63070619D01*
X80911095Y-63094809D01*
X81007857Y-63094809D01*
X81056238Y-63070619D01*
X81080428Y-63046428D01*
X81104619Y-62998047D01*
X81104619Y-62586809D01*
X81273952Y-62586809D02*
X81564238Y-62586809D01*
X81419095Y-63094809D02*
X81419095Y-62586809D01*
X81999666Y-63094809D02*
X81709380Y-63094809D01*
X81854523Y-63094809D02*
X81854523Y-62586809D01*
X81806142Y-62659380D01*
X81757761Y-62707761D01*
X81709380Y-62731952D01*
G04 #@! TO.C,C_1.1_OUT1*
X83922809Y-61268428D02*
X83898619Y-61292619D01*
X83826047Y-61316809D01*
X83777666Y-61316809D01*
X83705095Y-61292619D01*
X83656714Y-61244238D01*
X83632523Y-61195857D01*
X83608333Y-61099095D01*
X83608333Y-61026523D01*
X83632523Y-60929761D01*
X83656714Y-60881380D01*
X83705095Y-60833000D01*
X83777666Y-60808809D01*
X83826047Y-60808809D01*
X83898619Y-60833000D01*
X83922809Y-60857190D01*
X84019571Y-61365190D02*
X84406619Y-61365190D01*
X84793666Y-61316809D02*
X84503380Y-61316809D01*
X84648523Y-61316809D02*
X84648523Y-60808809D01*
X84600142Y-60881380D01*
X84551761Y-60929761D01*
X84503380Y-60953952D01*
X85011380Y-61268428D02*
X85035571Y-61292619D01*
X85011380Y-61316809D01*
X84987190Y-61292619D01*
X85011380Y-61268428D01*
X85011380Y-61316809D01*
X85519380Y-61316809D02*
X85229095Y-61316809D01*
X85374238Y-61316809D02*
X85374238Y-60808809D01*
X85325857Y-60881380D01*
X85277476Y-60929761D01*
X85229095Y-60953952D01*
X85616142Y-61365190D02*
X86003190Y-61365190D01*
X86220904Y-60808809D02*
X86317666Y-60808809D01*
X86366047Y-60833000D01*
X86414428Y-60881380D01*
X86438619Y-60978142D01*
X86438619Y-61147476D01*
X86414428Y-61244238D01*
X86366047Y-61292619D01*
X86317666Y-61316809D01*
X86220904Y-61316809D01*
X86172523Y-61292619D01*
X86124142Y-61244238D01*
X86099952Y-61147476D01*
X86099952Y-60978142D01*
X86124142Y-60881380D01*
X86172523Y-60833000D01*
X86220904Y-60808809D01*
X86656333Y-60808809D02*
X86656333Y-61220047D01*
X86680523Y-61268428D01*
X86704714Y-61292619D01*
X86753095Y-61316809D01*
X86849857Y-61316809D01*
X86898238Y-61292619D01*
X86922428Y-61268428D01*
X86946619Y-61220047D01*
X86946619Y-60808809D01*
X87115952Y-60808809D02*
X87406238Y-60808809D01*
X87261095Y-61316809D02*
X87261095Y-60808809D01*
X87841666Y-61316809D02*
X87551380Y-61316809D01*
X87696523Y-61316809D02*
X87696523Y-60808809D01*
X87648142Y-60881380D01*
X87599761Y-60929761D01*
X87551380Y-60953952D01*
G04 #@! TO.C,J3*
D12*
X111426666Y-59225380D02*
X111426666Y-59939666D01*
X111379047Y-60082523D01*
X111283809Y-60177761D01*
X111140952Y-60225380D01*
X111045714Y-60225380D01*
X111807619Y-59225380D02*
X112426666Y-59225380D01*
X112093333Y-59606333D01*
X112236190Y-59606333D01*
X112331428Y-59653952D01*
X112379047Y-59701571D01*
X112426666Y-59796809D01*
X112426666Y-60034904D01*
X112379047Y-60130142D01*
X112331428Y-60177761D01*
X112236190Y-60225380D01*
X111950476Y-60225380D01*
X111855238Y-60177761D01*
X111807619Y-60130142D01*
G04 #@! TO.C,C_1.1_IN1*
D16*
X81721476Y-65332428D02*
X81697285Y-65356619D01*
X81624714Y-65380809D01*
X81576333Y-65380809D01*
X81503761Y-65356619D01*
X81455380Y-65308238D01*
X81431190Y-65259857D01*
X81407000Y-65163095D01*
X81407000Y-65090523D01*
X81431190Y-64993761D01*
X81455380Y-64945380D01*
X81503761Y-64897000D01*
X81576333Y-64872809D01*
X81624714Y-64872809D01*
X81697285Y-64897000D01*
X81721476Y-64921190D01*
X81818238Y-65429190D02*
X82205285Y-65429190D01*
X82592333Y-65380809D02*
X82302047Y-65380809D01*
X82447190Y-65380809D02*
X82447190Y-64872809D01*
X82398809Y-64945380D01*
X82350428Y-64993761D01*
X82302047Y-65017952D01*
X82810047Y-65332428D02*
X82834238Y-65356619D01*
X82810047Y-65380809D01*
X82785857Y-65356619D01*
X82810047Y-65332428D01*
X82810047Y-65380809D01*
X83318047Y-65380809D02*
X83027761Y-65380809D01*
X83172904Y-65380809D02*
X83172904Y-64872809D01*
X83124523Y-64945380D01*
X83076142Y-64993761D01*
X83027761Y-65017952D01*
X83414809Y-65429190D02*
X83801857Y-65429190D01*
X83922809Y-65380809D02*
X83922809Y-64872809D01*
X84164714Y-65380809D02*
X84164714Y-64872809D01*
X84455000Y-65380809D01*
X84455000Y-64872809D01*
X84963000Y-65380809D02*
X84672714Y-65380809D01*
X84817857Y-65380809D02*
X84817857Y-64872809D01*
X84769476Y-64945380D01*
X84721095Y-64993761D01*
X84672714Y-65017952D01*
G04 #@! TO.C,C_1.8_IN1*
X82350428Y-60010523D02*
X82374619Y-60034714D01*
X82398809Y-60107285D01*
X82398809Y-60155666D01*
X82374619Y-60228238D01*
X82326238Y-60276619D01*
X82277857Y-60300809D01*
X82181095Y-60325000D01*
X82108523Y-60325000D01*
X82011761Y-60300809D01*
X81963380Y-60276619D01*
X81915000Y-60228238D01*
X81890809Y-60155666D01*
X81890809Y-60107285D01*
X81915000Y-60034714D01*
X81939190Y-60010523D01*
X82447190Y-59913761D02*
X82447190Y-59526714D01*
X82398809Y-59139666D02*
X82398809Y-59429952D01*
X82398809Y-59284809D02*
X81890809Y-59284809D01*
X81963380Y-59333190D01*
X82011761Y-59381571D01*
X82035952Y-59429952D01*
X82350428Y-58921952D02*
X82374619Y-58897761D01*
X82398809Y-58921952D01*
X82374619Y-58946142D01*
X82350428Y-58921952D01*
X82398809Y-58921952D01*
X82108523Y-58607476D02*
X82084333Y-58655857D01*
X82060142Y-58680047D01*
X82011761Y-58704238D01*
X81987571Y-58704238D01*
X81939190Y-58680047D01*
X81915000Y-58655857D01*
X81890809Y-58607476D01*
X81890809Y-58510714D01*
X81915000Y-58462333D01*
X81939190Y-58438142D01*
X81987571Y-58413952D01*
X82011761Y-58413952D01*
X82060142Y-58438142D01*
X82084333Y-58462333D01*
X82108523Y-58510714D01*
X82108523Y-58607476D01*
X82132714Y-58655857D01*
X82156904Y-58680047D01*
X82205285Y-58704238D01*
X82302047Y-58704238D01*
X82350428Y-58680047D01*
X82374619Y-58655857D01*
X82398809Y-58607476D01*
X82398809Y-58510714D01*
X82374619Y-58462333D01*
X82350428Y-58438142D01*
X82302047Y-58413952D01*
X82205285Y-58413952D01*
X82156904Y-58438142D01*
X82132714Y-58462333D01*
X82108523Y-58510714D01*
X82447190Y-58317190D02*
X82447190Y-57930142D01*
X82398809Y-57809190D02*
X81890809Y-57809190D01*
X82398809Y-57567285D02*
X81890809Y-57567285D01*
X82398809Y-57277000D01*
X81890809Y-57277000D01*
X82398809Y-56769000D02*
X82398809Y-57059285D01*
X82398809Y-56914142D02*
X81890809Y-56914142D01*
X81963380Y-56962523D01*
X82011761Y-57010904D01*
X82035952Y-57059285D01*
G04 #@! TO.C,J21*
D17*
X107109380Y-70853904D02*
X107109380Y-71035333D01*
X107097285Y-71071619D01*
X107073095Y-71095809D01*
X107036809Y-71107904D01*
X107012619Y-71107904D01*
X107218238Y-70878095D02*
X107230333Y-70866000D01*
X107254523Y-70853904D01*
X107315000Y-70853904D01*
X107339190Y-70866000D01*
X107351285Y-70878095D01*
X107363380Y-70902285D01*
X107363380Y-70926476D01*
X107351285Y-70962761D01*
X107206142Y-71107904D01*
X107363380Y-71107904D01*
X107605285Y-71107904D02*
X107460142Y-71107904D01*
X107532714Y-71107904D02*
X107532714Y-70853904D01*
X107508523Y-70890190D01*
X107484333Y-70914380D01*
X107460142Y-70926476D01*
G04 #@! TO.C,J20*
X104086780Y-63233904D02*
X104086780Y-63415333D01*
X104074685Y-63451619D01*
X104050495Y-63475809D01*
X104014209Y-63487904D01*
X103990019Y-63487904D01*
X104195638Y-63258095D02*
X104207733Y-63246000D01*
X104231923Y-63233904D01*
X104292400Y-63233904D01*
X104316590Y-63246000D01*
X104328685Y-63258095D01*
X104340780Y-63282285D01*
X104340780Y-63306476D01*
X104328685Y-63342761D01*
X104183542Y-63487904D01*
X104340780Y-63487904D01*
X104498019Y-63233904D02*
X104522209Y-63233904D01*
X104546400Y-63246000D01*
X104558495Y-63258095D01*
X104570590Y-63282285D01*
X104582685Y-63330666D01*
X104582685Y-63391142D01*
X104570590Y-63439523D01*
X104558495Y-63463714D01*
X104546400Y-63475809D01*
X104522209Y-63487904D01*
X104498019Y-63487904D01*
X104473828Y-63475809D01*
X104461733Y-63463714D01*
X104449638Y-63439523D01*
X104437542Y-63391142D01*
X104437542Y-63330666D01*
X104449638Y-63282285D01*
X104461733Y-63258095D01*
X104473828Y-63246000D01*
X104498019Y-63233904D01*
G04 #@! TO.C,J19*
X93012380Y-61074904D02*
X93012380Y-61256333D01*
X93000285Y-61292619D01*
X92976095Y-61316809D01*
X92939809Y-61328904D01*
X92915619Y-61328904D01*
X93266380Y-61328904D02*
X93121238Y-61328904D01*
X93193809Y-61328904D02*
X93193809Y-61074904D01*
X93169619Y-61111190D01*
X93145428Y-61135380D01*
X93121238Y-61147476D01*
X93387333Y-61328904D02*
X93435714Y-61328904D01*
X93459904Y-61316809D01*
X93472000Y-61304714D01*
X93496190Y-61268428D01*
X93508285Y-61220047D01*
X93508285Y-61123285D01*
X93496190Y-61099095D01*
X93484095Y-61087000D01*
X93459904Y-61074904D01*
X93411523Y-61074904D01*
X93387333Y-61087000D01*
X93375238Y-61099095D01*
X93363142Y-61123285D01*
X93363142Y-61183761D01*
X93375238Y-61207952D01*
X93387333Y-61220047D01*
X93411523Y-61232142D01*
X93459904Y-61232142D01*
X93484095Y-61220047D01*
X93496190Y-61207952D01*
X93508285Y-61183761D01*
G04 #@! TO.C,J18*
X92021780Y-61074904D02*
X92021780Y-61256333D01*
X92009685Y-61292619D01*
X91985495Y-61316809D01*
X91949209Y-61328904D01*
X91925019Y-61328904D01*
X92275780Y-61328904D02*
X92130638Y-61328904D01*
X92203209Y-61328904D02*
X92203209Y-61074904D01*
X92179019Y-61111190D01*
X92154828Y-61135380D01*
X92130638Y-61147476D01*
X92420923Y-61183761D02*
X92396733Y-61171666D01*
X92384638Y-61159571D01*
X92372542Y-61135380D01*
X92372542Y-61123285D01*
X92384638Y-61099095D01*
X92396733Y-61087000D01*
X92420923Y-61074904D01*
X92469304Y-61074904D01*
X92493495Y-61087000D01*
X92505590Y-61099095D01*
X92517685Y-61123285D01*
X92517685Y-61135380D01*
X92505590Y-61159571D01*
X92493495Y-61171666D01*
X92469304Y-61183761D01*
X92420923Y-61183761D01*
X92396733Y-61195857D01*
X92384638Y-61207952D01*
X92372542Y-61232142D01*
X92372542Y-61280523D01*
X92384638Y-61304714D01*
X92396733Y-61316809D01*
X92420923Y-61328904D01*
X92469304Y-61328904D01*
X92493495Y-61316809D01*
X92505590Y-61304714D01*
X92517685Y-61280523D01*
X92517685Y-61232142D01*
X92505590Y-61207952D01*
X92493495Y-61195857D01*
X92469304Y-61183761D01*
G04 #@! TO.C,J14*
X90218380Y-60820904D02*
X90218380Y-61002333D01*
X90206285Y-61038619D01*
X90182095Y-61062809D01*
X90145809Y-61074904D01*
X90121619Y-61074904D01*
X90472380Y-61074904D02*
X90327238Y-61074904D01*
X90399809Y-61074904D02*
X90399809Y-60820904D01*
X90375619Y-60857190D01*
X90351428Y-60881380D01*
X90327238Y-60893476D01*
X90690095Y-60905571D02*
X90690095Y-61074904D01*
X90629619Y-60808809D02*
X90569142Y-60990238D01*
X90726380Y-60990238D01*
G04 #@! TO.C,J12*
X86535380Y-77711904D02*
X86535380Y-77893333D01*
X86523285Y-77929619D01*
X86499095Y-77953809D01*
X86462809Y-77965904D01*
X86438619Y-77965904D01*
X86789380Y-77965904D02*
X86644238Y-77965904D01*
X86716809Y-77965904D02*
X86716809Y-77711904D01*
X86692619Y-77748190D01*
X86668428Y-77772380D01*
X86644238Y-77784476D01*
X86886142Y-77736095D02*
X86898238Y-77724000D01*
X86922428Y-77711904D01*
X86982904Y-77711904D01*
X87007095Y-77724000D01*
X87019190Y-77736095D01*
X87031285Y-77760285D01*
X87031285Y-77784476D01*
X87019190Y-77820761D01*
X86874047Y-77965904D01*
X87031285Y-77965904D01*
G04 #@! TO.C,J17*
X107109380Y-73393904D02*
X107109380Y-73575333D01*
X107097285Y-73611619D01*
X107073095Y-73635809D01*
X107036809Y-73647904D01*
X107012619Y-73647904D01*
X107363380Y-73647904D02*
X107218238Y-73647904D01*
X107290809Y-73647904D02*
X107290809Y-73393904D01*
X107266619Y-73430190D01*
X107242428Y-73454380D01*
X107218238Y-73466476D01*
X107448047Y-73393904D02*
X107617380Y-73393904D01*
X107508523Y-73647904D01*
G04 #@! TO.C,J16*
X104823380Y-67170904D02*
X104823380Y-67352333D01*
X104811285Y-67388619D01*
X104787095Y-67412809D01*
X104750809Y-67424904D01*
X104726619Y-67424904D01*
X105077380Y-67424904D02*
X104932238Y-67424904D01*
X105004809Y-67424904D02*
X105004809Y-67170904D01*
X104980619Y-67207190D01*
X104956428Y-67231380D01*
X104932238Y-67243476D01*
X105295095Y-67170904D02*
X105246714Y-67170904D01*
X105222523Y-67183000D01*
X105210428Y-67195095D01*
X105186238Y-67231380D01*
X105174142Y-67279761D01*
X105174142Y-67376523D01*
X105186238Y-67400714D01*
X105198333Y-67412809D01*
X105222523Y-67424904D01*
X105270904Y-67424904D01*
X105295095Y-67412809D01*
X105307190Y-67400714D01*
X105319285Y-67376523D01*
X105319285Y-67316047D01*
X105307190Y-67291857D01*
X105295095Y-67279761D01*
X105270904Y-67267666D01*
X105222523Y-67267666D01*
X105198333Y-67279761D01*
X105186238Y-67291857D01*
X105174142Y-67316047D01*
G04 #@! TO.C,J15*
X103934380Y-65773904D02*
X103934380Y-65955333D01*
X103922285Y-65991619D01*
X103898095Y-66015809D01*
X103861809Y-66027904D01*
X103837619Y-66027904D01*
X104188380Y-66027904D02*
X104043238Y-66027904D01*
X104115809Y-66027904D02*
X104115809Y-65773904D01*
X104091619Y-65810190D01*
X104067428Y-65834380D01*
X104043238Y-65846476D01*
X104418190Y-65773904D02*
X104297238Y-65773904D01*
X104285142Y-65894857D01*
X104297238Y-65882761D01*
X104321428Y-65870666D01*
X104381904Y-65870666D01*
X104406095Y-65882761D01*
X104418190Y-65894857D01*
X104430285Y-65919047D01*
X104430285Y-65979523D01*
X104418190Y-66003714D01*
X104406095Y-66015809D01*
X104381904Y-66027904D01*
X104321428Y-66027904D01*
X104297238Y-66015809D01*
X104285142Y-66003714D01*
G04 #@! TO.C,J13*
X88440380Y-79362904D02*
X88440380Y-79544333D01*
X88428285Y-79580619D01*
X88404095Y-79604809D01*
X88367809Y-79616904D01*
X88343619Y-79616904D01*
X88694380Y-79616904D02*
X88549238Y-79616904D01*
X88621809Y-79616904D02*
X88621809Y-79362904D01*
X88597619Y-79399190D01*
X88573428Y-79423380D01*
X88549238Y-79435476D01*
X88779047Y-79362904D02*
X88936285Y-79362904D01*
X88851619Y-79459666D01*
X88887904Y-79459666D01*
X88912095Y-79471761D01*
X88924190Y-79483857D01*
X88936285Y-79508047D01*
X88936285Y-79568523D01*
X88924190Y-79592714D01*
X88912095Y-79604809D01*
X88887904Y-79616904D01*
X88815333Y-79616904D01*
X88791142Y-79604809D01*
X88779047Y-79592714D01*
G04 #@! TO.C,J11*
X86535380Y-76441904D02*
X86535380Y-76623333D01*
X86523285Y-76659619D01*
X86499095Y-76683809D01*
X86462809Y-76695904D01*
X86438619Y-76695904D01*
X86789380Y-76695904D02*
X86644238Y-76695904D01*
X86716809Y-76695904D02*
X86716809Y-76441904D01*
X86692619Y-76478190D01*
X86668428Y-76502380D01*
X86644238Y-76514476D01*
X87031285Y-76695904D02*
X86886142Y-76695904D01*
X86958714Y-76695904D02*
X86958714Y-76441904D01*
X86934523Y-76478190D01*
X86910333Y-76502380D01*
X86886142Y-76514476D01*
G04 #@! TO.C,J10*
X105077380Y-67043904D02*
X105077380Y-67225333D01*
X105065285Y-67261619D01*
X105041095Y-67285809D01*
X105004809Y-67297904D01*
X104980619Y-67297904D01*
X105331380Y-67297904D02*
X105186238Y-67297904D01*
X105258809Y-67297904D02*
X105258809Y-67043904D01*
X105234619Y-67080190D01*
X105210428Y-67104380D01*
X105186238Y-67116476D01*
X105488619Y-67043904D02*
X105512809Y-67043904D01*
X105537000Y-67056000D01*
X105549095Y-67068095D01*
X105561190Y-67092285D01*
X105573285Y-67140666D01*
X105573285Y-67201142D01*
X105561190Y-67249523D01*
X105549095Y-67273714D01*
X105537000Y-67285809D01*
X105512809Y-67297904D01*
X105488619Y-67297904D01*
X105464428Y-67285809D01*
X105452333Y-67273714D01*
X105440238Y-67249523D01*
X105428142Y-67201142D01*
X105428142Y-67140666D01*
X105440238Y-67092285D01*
X105452333Y-67068095D01*
X105464428Y-67056000D01*
X105488619Y-67043904D01*
G04 #@! TO.C,J9*
X105452333Y-68059904D02*
X105452333Y-68241333D01*
X105440238Y-68277619D01*
X105416047Y-68301809D01*
X105379761Y-68313904D01*
X105355571Y-68313904D01*
X105585380Y-68313904D02*
X105633761Y-68313904D01*
X105657952Y-68301809D01*
X105670047Y-68289714D01*
X105694238Y-68253428D01*
X105706333Y-68205047D01*
X105706333Y-68108285D01*
X105694238Y-68084095D01*
X105682142Y-68072000D01*
X105657952Y-68059904D01*
X105609571Y-68059904D01*
X105585380Y-68072000D01*
X105573285Y-68084095D01*
X105561190Y-68108285D01*
X105561190Y-68168761D01*
X105573285Y-68192952D01*
X105585380Y-68205047D01*
X105609571Y-68217142D01*
X105657952Y-68217142D01*
X105682142Y-68205047D01*
X105694238Y-68192952D01*
X105706333Y-68168761D01*
G04 #@! TO.C,J8*
X89069333Y-63106904D02*
X89069333Y-63288333D01*
X89057238Y-63324619D01*
X89033047Y-63348809D01*
X88996761Y-63360904D01*
X88972571Y-63360904D01*
X89226571Y-63215761D02*
X89202380Y-63203666D01*
X89190285Y-63191571D01*
X89178190Y-63167380D01*
X89178190Y-63155285D01*
X89190285Y-63131095D01*
X89202380Y-63119000D01*
X89226571Y-63106904D01*
X89274952Y-63106904D01*
X89299142Y-63119000D01*
X89311238Y-63131095D01*
X89323333Y-63155285D01*
X89323333Y-63167380D01*
X89311238Y-63191571D01*
X89299142Y-63203666D01*
X89274952Y-63215761D01*
X89226571Y-63215761D01*
X89202380Y-63227857D01*
X89190285Y-63239952D01*
X89178190Y-63264142D01*
X89178190Y-63312523D01*
X89190285Y-63336714D01*
X89202380Y-63348809D01*
X89226571Y-63360904D01*
X89274952Y-63360904D01*
X89299142Y-63348809D01*
X89311238Y-63336714D01*
X89323333Y-63312523D01*
X89323333Y-63264142D01*
X89311238Y-63239952D01*
X89299142Y-63227857D01*
X89274952Y-63215761D01*
G04 #@! TO.C,J7*
X88561333Y-61455904D02*
X88561333Y-61637333D01*
X88549238Y-61673619D01*
X88525047Y-61697809D01*
X88488761Y-61709904D01*
X88464571Y-61709904D01*
X88658095Y-61455904D02*
X88827428Y-61455904D01*
X88718571Y-61709904D01*
G04 #@! TO.C,J6*
X90974333Y-60693904D02*
X90974333Y-60875333D01*
X90962238Y-60911619D01*
X90938047Y-60935809D01*
X90901761Y-60947904D01*
X90877571Y-60947904D01*
X91204142Y-60693904D02*
X91155761Y-60693904D01*
X91131571Y-60706000D01*
X91119476Y-60718095D01*
X91095285Y-60754380D01*
X91083190Y-60802761D01*
X91083190Y-60899523D01*
X91095285Y-60923714D01*
X91107380Y-60935809D01*
X91131571Y-60947904D01*
X91179952Y-60947904D01*
X91204142Y-60935809D01*
X91216238Y-60923714D01*
X91228333Y-60899523D01*
X91228333Y-60839047D01*
X91216238Y-60814857D01*
X91204142Y-60802761D01*
X91179952Y-60790666D01*
X91131571Y-60790666D01*
X91107380Y-60802761D01*
X91095285Y-60814857D01*
X91083190Y-60839047D01*
G04 #@! TO.C,J5*
X104334733Y-65138904D02*
X104334733Y-65320333D01*
X104322638Y-65356619D01*
X104298447Y-65380809D01*
X104262161Y-65392904D01*
X104237971Y-65392904D01*
X104576638Y-65138904D02*
X104455685Y-65138904D01*
X104443590Y-65259857D01*
X104455685Y-65247761D01*
X104479876Y-65235666D01*
X104540352Y-65235666D01*
X104564542Y-65247761D01*
X104576638Y-65259857D01*
X104588733Y-65284047D01*
X104588733Y-65344523D01*
X104576638Y-65368714D01*
X104564542Y-65380809D01*
X104540352Y-65392904D01*
X104479876Y-65392904D01*
X104455685Y-65380809D01*
X104443590Y-65368714D01*
G04 #@! TO.C,GND6*
X106517923Y-60452000D02*
X106493733Y-60439904D01*
X106457447Y-60439904D01*
X106421161Y-60452000D01*
X106396971Y-60476190D01*
X106384876Y-60500380D01*
X106372780Y-60548761D01*
X106372780Y-60585047D01*
X106384876Y-60633428D01*
X106396971Y-60657619D01*
X106421161Y-60681809D01*
X106457447Y-60693904D01*
X106481638Y-60693904D01*
X106517923Y-60681809D01*
X106530019Y-60669714D01*
X106530019Y-60585047D01*
X106481638Y-60585047D01*
X106638876Y-60693904D02*
X106638876Y-60439904D01*
X106784019Y-60693904D01*
X106784019Y-60439904D01*
X106904971Y-60693904D02*
X106904971Y-60439904D01*
X106965447Y-60439904D01*
X107001733Y-60452000D01*
X107025923Y-60476190D01*
X107038019Y-60500380D01*
X107050114Y-60548761D01*
X107050114Y-60585047D01*
X107038019Y-60633428D01*
X107025923Y-60657619D01*
X107001733Y-60681809D01*
X106965447Y-60693904D01*
X106904971Y-60693904D01*
X107267828Y-60439904D02*
X107219447Y-60439904D01*
X107195257Y-60452000D01*
X107183161Y-60464095D01*
X107158971Y-60500380D01*
X107146876Y-60548761D01*
X107146876Y-60645523D01*
X107158971Y-60669714D01*
X107171066Y-60681809D01*
X107195257Y-60693904D01*
X107243638Y-60693904D01*
X107267828Y-60681809D01*
X107279923Y-60669714D01*
X107292019Y-60645523D01*
X107292019Y-60585047D01*
X107279923Y-60560857D01*
X107267828Y-60548761D01*
X107243638Y-60536666D01*
X107195257Y-60536666D01*
X107171066Y-60548761D01*
X107158971Y-60560857D01*
X107146876Y-60585047D01*
G04 #@! TO.C,GND5*
X105095523Y-74295000D02*
X105071333Y-74282904D01*
X105035047Y-74282904D01*
X104998761Y-74295000D01*
X104974571Y-74319190D01*
X104962476Y-74343380D01*
X104950380Y-74391761D01*
X104950380Y-74428047D01*
X104962476Y-74476428D01*
X104974571Y-74500619D01*
X104998761Y-74524809D01*
X105035047Y-74536904D01*
X105059238Y-74536904D01*
X105095523Y-74524809D01*
X105107619Y-74512714D01*
X105107619Y-74428047D01*
X105059238Y-74428047D01*
X105216476Y-74536904D02*
X105216476Y-74282904D01*
X105361619Y-74536904D01*
X105361619Y-74282904D01*
X105482571Y-74536904D02*
X105482571Y-74282904D01*
X105543047Y-74282904D01*
X105579333Y-74295000D01*
X105603523Y-74319190D01*
X105615619Y-74343380D01*
X105627714Y-74391761D01*
X105627714Y-74428047D01*
X105615619Y-74476428D01*
X105603523Y-74500619D01*
X105579333Y-74524809D01*
X105543047Y-74536904D01*
X105482571Y-74536904D01*
X105857523Y-74282904D02*
X105736571Y-74282904D01*
X105724476Y-74403857D01*
X105736571Y-74391761D01*
X105760761Y-74379666D01*
X105821238Y-74379666D01*
X105845428Y-74391761D01*
X105857523Y-74403857D01*
X105869619Y-74428047D01*
X105869619Y-74488523D01*
X105857523Y-74512714D01*
X105845428Y-74524809D01*
X105821238Y-74536904D01*
X105760761Y-74536904D01*
X105736571Y-74524809D01*
X105724476Y-74512714D01*
G04 #@! TO.C,GND4*
X107025923Y-62230000D02*
X107001733Y-62217904D01*
X106965447Y-62217904D01*
X106929161Y-62230000D01*
X106904971Y-62254190D01*
X106892876Y-62278380D01*
X106880780Y-62326761D01*
X106880780Y-62363047D01*
X106892876Y-62411428D01*
X106904971Y-62435619D01*
X106929161Y-62459809D01*
X106965447Y-62471904D01*
X106989638Y-62471904D01*
X107025923Y-62459809D01*
X107038019Y-62447714D01*
X107038019Y-62363047D01*
X106989638Y-62363047D01*
X107146876Y-62471904D02*
X107146876Y-62217904D01*
X107292019Y-62471904D01*
X107292019Y-62217904D01*
X107412971Y-62471904D02*
X107412971Y-62217904D01*
X107473447Y-62217904D01*
X107509733Y-62230000D01*
X107533923Y-62254190D01*
X107546019Y-62278380D01*
X107558114Y-62326761D01*
X107558114Y-62363047D01*
X107546019Y-62411428D01*
X107533923Y-62435619D01*
X107509733Y-62459809D01*
X107473447Y-62471904D01*
X107412971Y-62471904D01*
X107775828Y-62302571D02*
X107775828Y-62471904D01*
X107715352Y-62205809D02*
X107654876Y-62387238D01*
X107812114Y-62387238D01*
G04 #@! TO.C,GND3*
X90363523Y-76073000D02*
X90339333Y-76060904D01*
X90303047Y-76060904D01*
X90266761Y-76073000D01*
X90242571Y-76097190D01*
X90230476Y-76121380D01*
X90218380Y-76169761D01*
X90218380Y-76206047D01*
X90230476Y-76254428D01*
X90242571Y-76278619D01*
X90266761Y-76302809D01*
X90303047Y-76314904D01*
X90327238Y-76314904D01*
X90363523Y-76302809D01*
X90375619Y-76290714D01*
X90375619Y-76206047D01*
X90327238Y-76206047D01*
X90484476Y-76314904D02*
X90484476Y-76060904D01*
X90629619Y-76314904D01*
X90629619Y-76060904D01*
X90750571Y-76314904D02*
X90750571Y-76060904D01*
X90811047Y-76060904D01*
X90847333Y-76073000D01*
X90871523Y-76097190D01*
X90883619Y-76121380D01*
X90895714Y-76169761D01*
X90895714Y-76206047D01*
X90883619Y-76254428D01*
X90871523Y-76278619D01*
X90847333Y-76302809D01*
X90811047Y-76314904D01*
X90750571Y-76314904D01*
X90980380Y-76060904D02*
X91137619Y-76060904D01*
X91052952Y-76157666D01*
X91089238Y-76157666D01*
X91113428Y-76169761D01*
X91125523Y-76181857D01*
X91137619Y-76206047D01*
X91137619Y-76266523D01*
X91125523Y-76290714D01*
X91113428Y-76302809D01*
X91089238Y-76314904D01*
X91016666Y-76314904D01*
X90992476Y-76302809D01*
X90980380Y-76290714D01*
G04 #@! TO.C,GND2*
X84013523Y-75819000D02*
X83989333Y-75806904D01*
X83953047Y-75806904D01*
X83916761Y-75819000D01*
X83892571Y-75843190D01*
X83880476Y-75867380D01*
X83868380Y-75915761D01*
X83868380Y-75952047D01*
X83880476Y-76000428D01*
X83892571Y-76024619D01*
X83916761Y-76048809D01*
X83953047Y-76060904D01*
X83977238Y-76060904D01*
X84013523Y-76048809D01*
X84025619Y-76036714D01*
X84025619Y-75952047D01*
X83977238Y-75952047D01*
X84134476Y-76060904D02*
X84134476Y-75806904D01*
X84279619Y-76060904D01*
X84279619Y-75806904D01*
X84400571Y-76060904D02*
X84400571Y-75806904D01*
X84461047Y-75806904D01*
X84497333Y-75819000D01*
X84521523Y-75843190D01*
X84533619Y-75867380D01*
X84545714Y-75915761D01*
X84545714Y-75952047D01*
X84533619Y-76000428D01*
X84521523Y-76024619D01*
X84497333Y-76048809D01*
X84461047Y-76060904D01*
X84400571Y-76060904D01*
X84642476Y-75831095D02*
X84654571Y-75819000D01*
X84678761Y-75806904D01*
X84739238Y-75806904D01*
X84763428Y-75819000D01*
X84775523Y-75831095D01*
X84787619Y-75855285D01*
X84787619Y-75879476D01*
X84775523Y-75915761D01*
X84630380Y-76060904D01*
X84787619Y-76060904D01*
G04 #@! TO.C,GND1*
X99126523Y-78232000D02*
X99102333Y-78219904D01*
X99066047Y-78219904D01*
X99029761Y-78232000D01*
X99005571Y-78256190D01*
X98993476Y-78280380D01*
X98981380Y-78328761D01*
X98981380Y-78365047D01*
X98993476Y-78413428D01*
X99005571Y-78437619D01*
X99029761Y-78461809D01*
X99066047Y-78473904D01*
X99090238Y-78473904D01*
X99126523Y-78461809D01*
X99138619Y-78449714D01*
X99138619Y-78365047D01*
X99090238Y-78365047D01*
X99247476Y-78473904D02*
X99247476Y-78219904D01*
X99392619Y-78473904D01*
X99392619Y-78219904D01*
X99513571Y-78473904D02*
X99513571Y-78219904D01*
X99574047Y-78219904D01*
X99610333Y-78232000D01*
X99634523Y-78256190D01*
X99646619Y-78280380D01*
X99658714Y-78328761D01*
X99658714Y-78365047D01*
X99646619Y-78413428D01*
X99634523Y-78437619D01*
X99610333Y-78461809D01*
X99574047Y-78473904D01*
X99513571Y-78473904D01*
X99900619Y-78473904D02*
X99755476Y-78473904D01*
X99828047Y-78473904D02*
X99828047Y-78219904D01*
X99803857Y-78256190D01*
X99779666Y-78280380D01*
X99755476Y-78292476D01*
G04 #@! TO.C,R1*
D16*
X106849333Y-64491809D02*
X106680000Y-64249904D01*
X106559047Y-64491809D02*
X106559047Y-63983809D01*
X106752571Y-63983809D01*
X106800952Y-64008000D01*
X106825142Y-64032190D01*
X106849333Y-64080571D01*
X106849333Y-64153142D01*
X106825142Y-64201523D01*
X106800952Y-64225714D01*
X106752571Y-64249904D01*
X106559047Y-64249904D01*
X107333142Y-64491809D02*
X107042857Y-64491809D01*
X107188000Y-64491809D02*
X107188000Y-63983809D01*
X107139619Y-64056380D01*
X107091238Y-64104761D01*
X107042857Y-64128952D01*
G04 #@! TO.C,C13*
X101527428Y-60524571D02*
X101551619Y-60548761D01*
X101575809Y-60621333D01*
X101575809Y-60669714D01*
X101551619Y-60742285D01*
X101503238Y-60790666D01*
X101454857Y-60814857D01*
X101358095Y-60839047D01*
X101285523Y-60839047D01*
X101188761Y-60814857D01*
X101140380Y-60790666D01*
X101092000Y-60742285D01*
X101067809Y-60669714D01*
X101067809Y-60621333D01*
X101092000Y-60548761D01*
X101116190Y-60524571D01*
X101575809Y-60040761D02*
X101575809Y-60331047D01*
X101575809Y-60185904D02*
X101067809Y-60185904D01*
X101140380Y-60234285D01*
X101188761Y-60282666D01*
X101212952Y-60331047D01*
X101067809Y-59871428D02*
X101067809Y-59556952D01*
X101261333Y-59726285D01*
X101261333Y-59653714D01*
X101285523Y-59605333D01*
X101309714Y-59581142D01*
X101358095Y-59556952D01*
X101479047Y-59556952D01*
X101527428Y-59581142D01*
X101551619Y-59605333D01*
X101575809Y-59653714D01*
X101575809Y-59798857D01*
X101551619Y-59847238D01*
X101527428Y-59871428D01*
G04 #@! TO.C,C12*
X99749428Y-60524571D02*
X99773619Y-60548761D01*
X99797809Y-60621333D01*
X99797809Y-60669714D01*
X99773619Y-60742285D01*
X99725238Y-60790666D01*
X99676857Y-60814857D01*
X99580095Y-60839047D01*
X99507523Y-60839047D01*
X99410761Y-60814857D01*
X99362380Y-60790666D01*
X99314000Y-60742285D01*
X99289809Y-60669714D01*
X99289809Y-60621333D01*
X99314000Y-60548761D01*
X99338190Y-60524571D01*
X99797809Y-60040761D02*
X99797809Y-60331047D01*
X99797809Y-60185904D02*
X99289809Y-60185904D01*
X99362380Y-60234285D01*
X99410761Y-60282666D01*
X99434952Y-60331047D01*
X99338190Y-59847238D02*
X99314000Y-59823047D01*
X99289809Y-59774666D01*
X99289809Y-59653714D01*
X99314000Y-59605333D01*
X99338190Y-59581142D01*
X99386571Y-59556952D01*
X99434952Y-59556952D01*
X99507523Y-59581142D01*
X99797809Y-59871428D01*
X99797809Y-59556952D01*
G04 #@! TO.C,C11*
X106607428Y-67745428D02*
X106583238Y-67769619D01*
X106510666Y-67793809D01*
X106462285Y-67793809D01*
X106389714Y-67769619D01*
X106341333Y-67721238D01*
X106317142Y-67672857D01*
X106292952Y-67576095D01*
X106292952Y-67503523D01*
X106317142Y-67406761D01*
X106341333Y-67358380D01*
X106389714Y-67310000D01*
X106462285Y-67285809D01*
X106510666Y-67285809D01*
X106583238Y-67310000D01*
X106607428Y-67334190D01*
X107091238Y-67793809D02*
X106800952Y-67793809D01*
X106946095Y-67793809D02*
X106946095Y-67285809D01*
X106897714Y-67358380D01*
X106849333Y-67406761D01*
X106800952Y-67430952D01*
X107575047Y-67793809D02*
X107284761Y-67793809D01*
X107429904Y-67793809D02*
X107429904Y-67285809D01*
X107381523Y-67358380D01*
X107333142Y-67406761D01*
X107284761Y-67430952D01*
G04 #@! TO.C,C10*
X95939428Y-60524571D02*
X95963619Y-60548761D01*
X95987809Y-60621333D01*
X95987809Y-60669714D01*
X95963619Y-60742285D01*
X95915238Y-60790666D01*
X95866857Y-60814857D01*
X95770095Y-60839047D01*
X95697523Y-60839047D01*
X95600761Y-60814857D01*
X95552380Y-60790666D01*
X95504000Y-60742285D01*
X95479809Y-60669714D01*
X95479809Y-60621333D01*
X95504000Y-60548761D01*
X95528190Y-60524571D01*
X95987809Y-60040761D02*
X95987809Y-60331047D01*
X95987809Y-60185904D02*
X95479809Y-60185904D01*
X95552380Y-60234285D01*
X95600761Y-60282666D01*
X95624952Y-60331047D01*
X95479809Y-59726285D02*
X95479809Y-59677904D01*
X95504000Y-59629523D01*
X95528190Y-59605333D01*
X95576571Y-59581142D01*
X95673333Y-59556952D01*
X95794285Y-59556952D01*
X95891047Y-59581142D01*
X95939428Y-59605333D01*
X95963619Y-59629523D01*
X95987809Y-59677904D01*
X95987809Y-59726285D01*
X95963619Y-59774666D01*
X95939428Y-59798857D01*
X95891047Y-59823047D01*
X95794285Y-59847238D01*
X95673333Y-59847238D01*
X95576571Y-59823047D01*
X95528190Y-59798857D01*
X95504000Y-59774666D01*
X95479809Y-59726285D01*
G04 #@! TO.C,C9*
X108119333Y-76808428D02*
X108095142Y-76832619D01*
X108022571Y-76856809D01*
X107974190Y-76856809D01*
X107901619Y-76832619D01*
X107853238Y-76784238D01*
X107829047Y-76735857D01*
X107804857Y-76639095D01*
X107804857Y-76566523D01*
X107829047Y-76469761D01*
X107853238Y-76421380D01*
X107901619Y-76373000D01*
X107974190Y-76348809D01*
X108022571Y-76348809D01*
X108095142Y-76373000D01*
X108119333Y-76397190D01*
X108361238Y-76856809D02*
X108458000Y-76856809D01*
X108506380Y-76832619D01*
X108530571Y-76808428D01*
X108578952Y-76735857D01*
X108603142Y-76639095D01*
X108603142Y-76445571D01*
X108578952Y-76397190D01*
X108554761Y-76373000D01*
X108506380Y-76348809D01*
X108409619Y-76348809D01*
X108361238Y-76373000D01*
X108337047Y-76397190D01*
X108312857Y-76445571D01*
X108312857Y-76566523D01*
X108337047Y-76614904D01*
X108361238Y-76639095D01*
X108409619Y-76663285D01*
X108506380Y-76663285D01*
X108554761Y-76639095D01*
X108578952Y-76614904D01*
X108603142Y-76566523D01*
G04 #@! TO.C,C8*
X106722333Y-76762428D02*
X106698142Y-76786619D01*
X106625571Y-76810809D01*
X106577190Y-76810809D01*
X106504619Y-76786619D01*
X106456238Y-76738238D01*
X106432047Y-76689857D01*
X106407857Y-76593095D01*
X106407857Y-76520523D01*
X106432047Y-76423761D01*
X106456238Y-76375380D01*
X106504619Y-76327000D01*
X106577190Y-76302809D01*
X106625571Y-76302809D01*
X106698142Y-76327000D01*
X106722333Y-76351190D01*
X107012619Y-76520523D02*
X106964238Y-76496333D01*
X106940047Y-76472142D01*
X106915857Y-76423761D01*
X106915857Y-76399571D01*
X106940047Y-76351190D01*
X106964238Y-76327000D01*
X107012619Y-76302809D01*
X107109380Y-76302809D01*
X107157761Y-76327000D01*
X107181952Y-76351190D01*
X107206142Y-76399571D01*
X107206142Y-76423761D01*
X107181952Y-76472142D01*
X107157761Y-76496333D01*
X107109380Y-76520523D01*
X107012619Y-76520523D01*
X106964238Y-76544714D01*
X106940047Y-76568904D01*
X106915857Y-76617285D01*
X106915857Y-76714047D01*
X106940047Y-76762428D01*
X106964238Y-76786619D01*
X107012619Y-76810809D01*
X107109380Y-76810809D01*
X107157761Y-76786619D01*
X107181952Y-76762428D01*
X107206142Y-76714047D01*
X107206142Y-76617285D01*
X107181952Y-76568904D01*
X107157761Y-76544714D01*
X107109380Y-76520523D01*
G04 #@! TO.C,C7*
X112437333Y-58855428D02*
X112413142Y-58879619D01*
X112340571Y-58903809D01*
X112292190Y-58903809D01*
X112219619Y-58879619D01*
X112171238Y-58831238D01*
X112147047Y-58782857D01*
X112122857Y-58686095D01*
X112122857Y-58613523D01*
X112147047Y-58516761D01*
X112171238Y-58468380D01*
X112219619Y-58420000D01*
X112292190Y-58395809D01*
X112340571Y-58395809D01*
X112413142Y-58420000D01*
X112437333Y-58444190D01*
X112606666Y-58395809D02*
X112945333Y-58395809D01*
X112727619Y-58903809D01*
G04 #@! TO.C,C6*
X112437333Y-57585428D02*
X112413142Y-57609619D01*
X112340571Y-57633809D01*
X112292190Y-57633809D01*
X112219619Y-57609619D01*
X112171238Y-57561238D01*
X112147047Y-57512857D01*
X112122857Y-57416095D01*
X112122857Y-57343523D01*
X112147047Y-57246761D01*
X112171238Y-57198380D01*
X112219619Y-57150000D01*
X112292190Y-57125809D01*
X112340571Y-57125809D01*
X112413142Y-57150000D01*
X112437333Y-57174190D01*
X112872761Y-57125809D02*
X112776000Y-57125809D01*
X112727619Y-57150000D01*
X112703428Y-57174190D01*
X112655047Y-57246761D01*
X112630857Y-57343523D01*
X112630857Y-57537047D01*
X112655047Y-57585428D01*
X112679238Y-57609619D01*
X112727619Y-57633809D01*
X112824380Y-57633809D01*
X112872761Y-57609619D01*
X112896952Y-57585428D01*
X112921142Y-57537047D01*
X112921142Y-57416095D01*
X112896952Y-57367714D01*
X112872761Y-57343523D01*
X112824380Y-57319333D01*
X112727619Y-57319333D01*
X112679238Y-57343523D01*
X112655047Y-57367714D01*
X112630857Y-57416095D01*
G04 #@! TO.C,C5*
X84763428Y-74760666D02*
X84787619Y-74784857D01*
X84811809Y-74857428D01*
X84811809Y-74905809D01*
X84787619Y-74978380D01*
X84739238Y-75026761D01*
X84690857Y-75050952D01*
X84594095Y-75075142D01*
X84521523Y-75075142D01*
X84424761Y-75050952D01*
X84376380Y-75026761D01*
X84328000Y-74978380D01*
X84303809Y-74905809D01*
X84303809Y-74857428D01*
X84328000Y-74784857D01*
X84352190Y-74760666D01*
X84303809Y-74301047D02*
X84303809Y-74542952D01*
X84545714Y-74567142D01*
X84521523Y-74542952D01*
X84497333Y-74494571D01*
X84497333Y-74373619D01*
X84521523Y-74325238D01*
X84545714Y-74301047D01*
X84594095Y-74276857D01*
X84715047Y-74276857D01*
X84763428Y-74301047D01*
X84787619Y-74325238D01*
X84811809Y-74373619D01*
X84811809Y-74494571D01*
X84787619Y-74542952D01*
X84763428Y-74567142D01*
G04 #@! TO.C,C4*
X84740428Y-78951666D02*
X84764619Y-78975857D01*
X84788809Y-79048428D01*
X84788809Y-79096809D01*
X84764619Y-79169380D01*
X84716238Y-79217761D01*
X84667857Y-79241952D01*
X84571095Y-79266142D01*
X84498523Y-79266142D01*
X84401761Y-79241952D01*
X84353380Y-79217761D01*
X84305000Y-79169380D01*
X84280809Y-79096809D01*
X84280809Y-79048428D01*
X84305000Y-78975857D01*
X84329190Y-78951666D01*
X84450142Y-78516238D02*
X84788809Y-78516238D01*
X84256619Y-78637190D02*
X84619476Y-78758142D01*
X84619476Y-78443666D01*
G04 #@! TO.C,J2*
D12*
X80732380Y-81486333D02*
X81446666Y-81486333D01*
X81589523Y-81533952D01*
X81684761Y-81629190D01*
X81732380Y-81772047D01*
X81732380Y-81867285D01*
X80827619Y-81057761D02*
X80780000Y-81010142D01*
X80732380Y-80914904D01*
X80732380Y-80676809D01*
X80780000Y-80581571D01*
X80827619Y-80533952D01*
X80922857Y-80486333D01*
X81018095Y-80486333D01*
X81160952Y-80533952D01*
X81732380Y-81105380D01*
X81732380Y-80486333D01*
G04 #@! TO.C,U1*
X104521095Y-74255380D02*
X104521095Y-75064904D01*
X104568714Y-75160142D01*
X104616333Y-75207761D01*
X104711571Y-75255380D01*
X104902047Y-75255380D01*
X104997285Y-75207761D01*
X105044904Y-75160142D01*
X105092523Y-75064904D01*
X105092523Y-74255380D01*
X106092523Y-75255380D02*
X105521095Y-75255380D01*
X105806809Y-75255380D02*
X105806809Y-74255380D01*
X105711571Y-74398238D01*
X105616333Y-74493476D01*
X105521095Y-74541095D01*
G04 #@! TO.C,C3*
D18*
X79164666Y-74600571D02*
X79140857Y-74624380D01*
X79069428Y-74648190D01*
X79021809Y-74648190D01*
X78950380Y-74624380D01*
X78902761Y-74576761D01*
X78878952Y-74529142D01*
X78855142Y-74433904D01*
X78855142Y-74362476D01*
X78878952Y-74267238D01*
X78902761Y-74219619D01*
X78950380Y-74172000D01*
X79021809Y-74148190D01*
X79069428Y-74148190D01*
X79140857Y-74172000D01*
X79164666Y-74195809D01*
X79331333Y-74148190D02*
X79640857Y-74148190D01*
X79474190Y-74338666D01*
X79545619Y-74338666D01*
X79593238Y-74362476D01*
X79617047Y-74386285D01*
X79640857Y-74433904D01*
X79640857Y-74552952D01*
X79617047Y-74600571D01*
X79593238Y-74624380D01*
X79545619Y-74648190D01*
X79402761Y-74648190D01*
X79355142Y-74624380D01*
X79331333Y-74600571D01*
G04 #@! TO.C,C2*
X77386666Y-76886571D02*
X77362857Y-76910380D01*
X77291428Y-76934190D01*
X77243809Y-76934190D01*
X77172380Y-76910380D01*
X77124761Y-76862761D01*
X77100952Y-76815142D01*
X77077142Y-76719904D01*
X77077142Y-76648476D01*
X77100952Y-76553238D01*
X77124761Y-76505619D01*
X77172380Y-76458000D01*
X77243809Y-76434190D01*
X77291428Y-76434190D01*
X77362857Y-76458000D01*
X77386666Y-76481809D01*
X77577142Y-76481809D02*
X77600952Y-76458000D01*
X77648571Y-76434190D01*
X77767619Y-76434190D01*
X77815238Y-76458000D01*
X77839047Y-76481809D01*
X77862857Y-76529428D01*
X77862857Y-76577047D01*
X77839047Y-76648476D01*
X77553333Y-76934190D01*
X77862857Y-76934190D01*
G04 #@! TO.C,C1*
X81958666Y-74600571D02*
X81934857Y-74624380D01*
X81863428Y-74648190D01*
X81815809Y-74648190D01*
X81744380Y-74624380D01*
X81696761Y-74576761D01*
X81672952Y-74529142D01*
X81649142Y-74433904D01*
X81649142Y-74362476D01*
X81672952Y-74267238D01*
X81696761Y-74219619D01*
X81744380Y-74172000D01*
X81815809Y-74148190D01*
X81863428Y-74148190D01*
X81934857Y-74172000D01*
X81958666Y-74195809D01*
X82434857Y-74648190D02*
X82149142Y-74648190D01*
X82292000Y-74648190D02*
X82292000Y-74148190D01*
X82244380Y-74219619D01*
X82196761Y-74267238D01*
X82149142Y-74291047D01*
G04 #@! TO.C,U9AB1*
D16*
X77445809Y-81618666D02*
X77857047Y-81618666D01*
X77905428Y-81594476D01*
X77929619Y-81570285D01*
X77953809Y-81521904D01*
X77953809Y-81425142D01*
X77929619Y-81376761D01*
X77905428Y-81352571D01*
X77857047Y-81328380D01*
X77445809Y-81328380D01*
X77953809Y-81062285D02*
X77953809Y-80965523D01*
X77929619Y-80917142D01*
X77905428Y-80892952D01*
X77832857Y-80844571D01*
X77736095Y-80820380D01*
X77542571Y-80820380D01*
X77494190Y-80844571D01*
X77470000Y-80868761D01*
X77445809Y-80917142D01*
X77445809Y-81013904D01*
X77470000Y-81062285D01*
X77494190Y-81086476D01*
X77542571Y-81110666D01*
X77663523Y-81110666D01*
X77711904Y-81086476D01*
X77736095Y-81062285D01*
X77760285Y-81013904D01*
X77760285Y-80917142D01*
X77736095Y-80868761D01*
X77711904Y-80844571D01*
X77663523Y-80820380D01*
X77808666Y-80626857D02*
X77808666Y-80384952D01*
X77953809Y-80675238D02*
X77445809Y-80505904D01*
X77953809Y-80336571D01*
X77687714Y-79997904D02*
X77711904Y-79925333D01*
X77736095Y-79901142D01*
X77784476Y-79876952D01*
X77857047Y-79876952D01*
X77905428Y-79901142D01*
X77929619Y-79925333D01*
X77953809Y-79973714D01*
X77953809Y-80167238D01*
X77445809Y-80167238D01*
X77445809Y-79997904D01*
X77470000Y-79949523D01*
X77494190Y-79925333D01*
X77542571Y-79901142D01*
X77590952Y-79901142D01*
X77639333Y-79925333D01*
X77663523Y-79949523D01*
X77687714Y-79997904D01*
X77687714Y-80167238D01*
X77953809Y-79393142D02*
X77953809Y-79683428D01*
X77953809Y-79538285D02*
X77445809Y-79538285D01*
X77518380Y-79586666D01*
X77566761Y-79635047D01*
X77590952Y-79683428D01*
G04 #@! TD*
M02*
