%TF.GenerationSoftware,KiCad,Pcbnew,(5.1.6)-1*%
%TF.CreationDate,2020-06-23T22:38:07-07:00*%
%TF.ProjectId,tutorial1,7475746f-7269-4616-9c31-2e6b69636164,rev?*%
%TF.SameCoordinates,Original*%
%TF.FileFunction,Copper,L2,Bot*%
%TF.FilePolarity,Positive*%
%FSLAX46Y46*%
G04 Gerber Fmt 4.6, Leading zero omitted, Abs format (unit mm)*
G04 Created by KiCad (PCBNEW (5.1.6)-1) date 2020-06-23 22:38:07*
%MOMM*%
%LPD*%
G01*
G04 APERTURE LIST*
%TA.AperFunction,ComponentPad*%
%ADD10O,1.600000X1.600000*%
%TD*%
%TA.AperFunction,ComponentPad*%
%ADD11R,1.600000X1.600000*%
%TD*%
%TA.AperFunction,ComponentPad*%
%ADD12C,1.600000*%
%TD*%
%TA.AperFunction,ComponentPad*%
%ADD13C,10.160000*%
%TD*%
%TA.AperFunction,ComponentPad*%
%ADD14C,1.800000*%
%TD*%
%TA.AperFunction,ComponentPad*%
%ADD15R,1.800000X1.800000*%
%TD*%
%TA.AperFunction,ViaPad*%
%ADD16C,0.800000*%
%TD*%
%TA.AperFunction,Conductor*%
%ADD17C,0.609600*%
%TD*%
%TA.AperFunction,Conductor*%
%ADD18C,0.254000*%
%TD*%
G04 APERTURE END LIST*
D10*
%TO.P,U1,8*%
%TO.N,GND*%
X146050000Y-90170000D03*
%TO.P,U1,4*%
%TO.N,Net-(U1-Pad4)*%
X153670000Y-97790000D03*
%TO.P,U1,7*%
%TO.N,/uCtoLED*%
X148590000Y-90170000D03*
%TO.P,U1,3*%
%TO.N,Net-(U1-Pad3)*%
X151130000Y-97790000D03*
%TO.P,U1,6*%
%TO.N,/INPUT*%
X151130000Y-90170000D03*
%TO.P,U1,2*%
%TO.N,Net-(U1-Pad2)*%
X148590000Y-97790000D03*
%TO.P,U1,5*%
%TO.N,Net-(U1-Pad5)*%
X153670000Y-90170000D03*
D11*
%TO.P,U1,1*%
%TO.N,VCC*%
X146050000Y-97790000D03*
%TD*%
D10*
%TO.P,R2,2*%
%TO.N,/LEDtoR*%
X127000000Y-113030000D03*
D12*
%TO.P,R2,1*%
%TO.N,VCC*%
X129540000Y-113030000D03*
%TD*%
D10*
%TO.P,R1,2*%
%TO.N,/INPUT*%
X166370000Y-96520000D03*
D12*
%TO.P,R1,1*%
%TO.N,/INPUTtoR*%
X166370000Y-99060000D03*
%TD*%
D13*
%TO.P,J1,2*%
%TO.N,/INPUTtoR*%
X148590000Y-124460000D03*
%TO.P,J1,3*%
%TO.N,GND*%
X163570000Y-124460000D03*
%TO.P,J1,1*%
%TO.N,VCC*%
X133600000Y-124460000D03*
%TD*%
D14*
%TO.P,D1,2*%
%TO.N,/LEDtoR*%
X121920000Y-95250000D03*
D15*
%TO.P,D1,1*%
%TO.N,/uCtoLED*%
X124460000Y-95250000D03*
%TD*%
D16*
%TO.N,GND*%
X137500000Y-92500000D03*
X140000000Y-90000000D03*
%TD*%
D17*
%TO.N,GND*%
X163570000Y-124460000D02*
X151610000Y-112500000D01*
X151610000Y-112500000D02*
X142500000Y-112500000D01*
X142500000Y-112500000D02*
X135000000Y-105000000D01*
X135000000Y-105000000D02*
X135000000Y-95000000D01*
X135000000Y-95000000D02*
X137500000Y-92500000D01*
X145880000Y-90000000D02*
X146050000Y-90170000D01*
X140000000Y-90000000D02*
X145880000Y-90000000D01*
%TD*%
D18*
%TO.N,GND*%
G36*
X173456600Y-135813800D02*
G01*
X108077000Y-135813800D01*
X108077000Y-123897122D01*
X127885000Y-123897122D01*
X127885000Y-125022878D01*
X128104625Y-126127004D01*
X128535433Y-127167067D01*
X129160870Y-128103100D01*
X129956900Y-128899130D01*
X130892933Y-129524567D01*
X131932996Y-129955375D01*
X133037122Y-130175000D01*
X134162878Y-130175000D01*
X135267004Y-129955375D01*
X136307067Y-129524567D01*
X137243100Y-128899130D01*
X138039130Y-128103100D01*
X138664567Y-127167067D01*
X139095375Y-126127004D01*
X139315000Y-125022878D01*
X139315000Y-123897122D01*
X142875000Y-123897122D01*
X142875000Y-125022878D01*
X143094625Y-126127004D01*
X143525433Y-127167067D01*
X144150870Y-128103100D01*
X144946900Y-128899130D01*
X145882933Y-129524567D01*
X146922996Y-129955375D01*
X148027122Y-130175000D01*
X149152878Y-130175000D01*
X150257004Y-129955375D01*
X151297067Y-129524567D01*
X152233100Y-128899130D01*
X152635034Y-128497196D01*
X159712409Y-128497196D01*
X160298124Y-129179416D01*
X161281704Y-129727045D01*
X162353223Y-130072265D01*
X163471501Y-130201808D01*
X164593565Y-130110697D01*
X165676294Y-129802433D01*
X166678079Y-129288863D01*
X166841876Y-129179416D01*
X167427591Y-128497196D01*
X163570000Y-124639605D01*
X159712409Y-128497196D01*
X152635034Y-128497196D01*
X153029130Y-128103100D01*
X153654567Y-127167067D01*
X154085375Y-126127004D01*
X154305000Y-125022878D01*
X154305000Y-124361501D01*
X157828192Y-124361501D01*
X157919303Y-125483565D01*
X158227567Y-126566294D01*
X158741137Y-127568079D01*
X158850584Y-127731876D01*
X159532804Y-128317591D01*
X163390395Y-124460000D01*
X163749605Y-124460000D01*
X167607196Y-128317591D01*
X168289416Y-127731876D01*
X168837045Y-126748296D01*
X169182265Y-125676777D01*
X169311808Y-124558499D01*
X169220697Y-123436435D01*
X168912433Y-122353706D01*
X168398863Y-121351921D01*
X168289416Y-121188124D01*
X167607196Y-120602409D01*
X163749605Y-124460000D01*
X163390395Y-124460000D01*
X159532804Y-120602409D01*
X158850584Y-121188124D01*
X158302955Y-122171704D01*
X157957735Y-123243223D01*
X157828192Y-124361501D01*
X154305000Y-124361501D01*
X154305000Y-123897122D01*
X154085375Y-122792996D01*
X153654567Y-121752933D01*
X153029130Y-120816900D01*
X152635034Y-120422804D01*
X159712409Y-120422804D01*
X163570000Y-124280395D01*
X167427591Y-120422804D01*
X166841876Y-119740584D01*
X165858296Y-119192955D01*
X164786777Y-118847735D01*
X163668499Y-118718192D01*
X162546435Y-118809303D01*
X161463706Y-119117567D01*
X160461921Y-119631137D01*
X160298124Y-119740584D01*
X159712409Y-120422804D01*
X152635034Y-120422804D01*
X152233100Y-120020870D01*
X151297067Y-119395433D01*
X150257004Y-118964625D01*
X149152878Y-118745000D01*
X148027122Y-118745000D01*
X146922996Y-118964625D01*
X145882933Y-119395433D01*
X144946900Y-120020870D01*
X144150870Y-120816900D01*
X143525433Y-121752933D01*
X143094625Y-122792996D01*
X142875000Y-123897122D01*
X139315000Y-123897122D01*
X139095375Y-122792996D01*
X138664567Y-121752933D01*
X138039130Y-120816900D01*
X137243100Y-120020870D01*
X136307067Y-119395433D01*
X135267004Y-118964625D01*
X134162878Y-118745000D01*
X133037122Y-118745000D01*
X131932996Y-118964625D01*
X130892933Y-119395433D01*
X129956900Y-120020870D01*
X129160870Y-120816900D01*
X128535433Y-121752933D01*
X128104625Y-122792996D01*
X127885000Y-123897122D01*
X108077000Y-123897122D01*
X108077000Y-112888665D01*
X125565000Y-112888665D01*
X125565000Y-113171335D01*
X125620147Y-113448574D01*
X125728320Y-113709727D01*
X125885363Y-113944759D01*
X126085241Y-114144637D01*
X126320273Y-114301680D01*
X126581426Y-114409853D01*
X126858665Y-114465000D01*
X127141335Y-114465000D01*
X127418574Y-114409853D01*
X127679727Y-114301680D01*
X127914759Y-114144637D01*
X128114637Y-113944759D01*
X128270000Y-113712241D01*
X128425363Y-113944759D01*
X128625241Y-114144637D01*
X128860273Y-114301680D01*
X129121426Y-114409853D01*
X129398665Y-114465000D01*
X129681335Y-114465000D01*
X129958574Y-114409853D01*
X130219727Y-114301680D01*
X130454759Y-114144637D01*
X130654637Y-113944759D01*
X130811680Y-113709727D01*
X130919853Y-113448574D01*
X130975000Y-113171335D01*
X130975000Y-112888665D01*
X130919853Y-112611426D01*
X130811680Y-112350273D01*
X130654637Y-112115241D01*
X130454759Y-111915363D01*
X130219727Y-111758320D01*
X129958574Y-111650147D01*
X129681335Y-111595000D01*
X129398665Y-111595000D01*
X129121426Y-111650147D01*
X128860273Y-111758320D01*
X128625241Y-111915363D01*
X128425363Y-112115241D01*
X128270000Y-112347759D01*
X128114637Y-112115241D01*
X127914759Y-111915363D01*
X127679727Y-111758320D01*
X127418574Y-111650147D01*
X127141335Y-111595000D01*
X126858665Y-111595000D01*
X126581426Y-111650147D01*
X126320273Y-111758320D01*
X126085241Y-111915363D01*
X125885363Y-112115241D01*
X125728320Y-112350273D01*
X125620147Y-112611426D01*
X125565000Y-112888665D01*
X108077000Y-112888665D01*
X108077000Y-96990000D01*
X144611928Y-96990000D01*
X144611928Y-98590000D01*
X144624188Y-98714482D01*
X144660498Y-98834180D01*
X144719463Y-98944494D01*
X144798815Y-99041185D01*
X144895506Y-99120537D01*
X145005820Y-99179502D01*
X145125518Y-99215812D01*
X145250000Y-99228072D01*
X146850000Y-99228072D01*
X146974482Y-99215812D01*
X147094180Y-99179502D01*
X147204494Y-99120537D01*
X147301185Y-99041185D01*
X147380537Y-98944494D01*
X147439502Y-98834180D01*
X147475812Y-98714482D01*
X147476643Y-98706039D01*
X147675241Y-98904637D01*
X147910273Y-99061680D01*
X148171426Y-99169853D01*
X148448665Y-99225000D01*
X148731335Y-99225000D01*
X149008574Y-99169853D01*
X149269727Y-99061680D01*
X149504759Y-98904637D01*
X149704637Y-98704759D01*
X149860000Y-98472241D01*
X150015363Y-98704759D01*
X150215241Y-98904637D01*
X150450273Y-99061680D01*
X150711426Y-99169853D01*
X150988665Y-99225000D01*
X151271335Y-99225000D01*
X151548574Y-99169853D01*
X151809727Y-99061680D01*
X152044759Y-98904637D01*
X152244637Y-98704759D01*
X152400000Y-98472241D01*
X152555363Y-98704759D01*
X152755241Y-98904637D01*
X152990273Y-99061680D01*
X153251426Y-99169853D01*
X153528665Y-99225000D01*
X153811335Y-99225000D01*
X154088574Y-99169853D01*
X154349727Y-99061680D01*
X154584759Y-98904637D01*
X154784637Y-98704759D01*
X154941680Y-98469727D01*
X155049853Y-98208574D01*
X155105000Y-97931335D01*
X155105000Y-97648665D01*
X155049853Y-97371426D01*
X154941680Y-97110273D01*
X154784637Y-96875241D01*
X154584759Y-96675363D01*
X154349727Y-96518320D01*
X154088574Y-96410147D01*
X153930306Y-96378665D01*
X164935000Y-96378665D01*
X164935000Y-96661335D01*
X164990147Y-96938574D01*
X165098320Y-97199727D01*
X165255363Y-97434759D01*
X165455241Y-97634637D01*
X165687759Y-97790000D01*
X165455241Y-97945363D01*
X165255363Y-98145241D01*
X165098320Y-98380273D01*
X164990147Y-98641426D01*
X164935000Y-98918665D01*
X164935000Y-99201335D01*
X164990147Y-99478574D01*
X165098320Y-99739727D01*
X165255363Y-99974759D01*
X165455241Y-100174637D01*
X165690273Y-100331680D01*
X165951426Y-100439853D01*
X166228665Y-100495000D01*
X166511335Y-100495000D01*
X166788574Y-100439853D01*
X167049727Y-100331680D01*
X167284759Y-100174637D01*
X167484637Y-99974759D01*
X167641680Y-99739727D01*
X167749853Y-99478574D01*
X167805000Y-99201335D01*
X167805000Y-98918665D01*
X167749853Y-98641426D01*
X167641680Y-98380273D01*
X167484637Y-98145241D01*
X167284759Y-97945363D01*
X167052241Y-97790000D01*
X167284759Y-97634637D01*
X167484637Y-97434759D01*
X167641680Y-97199727D01*
X167749853Y-96938574D01*
X167805000Y-96661335D01*
X167805000Y-96378665D01*
X167749853Y-96101426D01*
X167641680Y-95840273D01*
X167484637Y-95605241D01*
X167284759Y-95405363D01*
X167049727Y-95248320D01*
X166788574Y-95140147D01*
X166511335Y-95085000D01*
X166228665Y-95085000D01*
X165951426Y-95140147D01*
X165690273Y-95248320D01*
X165455241Y-95405363D01*
X165255363Y-95605241D01*
X165098320Y-95840273D01*
X164990147Y-96101426D01*
X164935000Y-96378665D01*
X153930306Y-96378665D01*
X153811335Y-96355000D01*
X153528665Y-96355000D01*
X153251426Y-96410147D01*
X152990273Y-96518320D01*
X152755241Y-96675363D01*
X152555363Y-96875241D01*
X152400000Y-97107759D01*
X152244637Y-96875241D01*
X152044759Y-96675363D01*
X151809727Y-96518320D01*
X151548574Y-96410147D01*
X151271335Y-96355000D01*
X150988665Y-96355000D01*
X150711426Y-96410147D01*
X150450273Y-96518320D01*
X150215241Y-96675363D01*
X150015363Y-96875241D01*
X149860000Y-97107759D01*
X149704637Y-96875241D01*
X149504759Y-96675363D01*
X149269727Y-96518320D01*
X149008574Y-96410147D01*
X148731335Y-96355000D01*
X148448665Y-96355000D01*
X148171426Y-96410147D01*
X147910273Y-96518320D01*
X147675241Y-96675363D01*
X147476643Y-96873961D01*
X147475812Y-96865518D01*
X147439502Y-96745820D01*
X147380537Y-96635506D01*
X147301185Y-96538815D01*
X147204494Y-96459463D01*
X147094180Y-96400498D01*
X146974482Y-96364188D01*
X146850000Y-96351928D01*
X145250000Y-96351928D01*
X145125518Y-96364188D01*
X145005820Y-96400498D01*
X144895506Y-96459463D01*
X144798815Y-96538815D01*
X144719463Y-96635506D01*
X144660498Y-96745820D01*
X144624188Y-96865518D01*
X144611928Y-96990000D01*
X108077000Y-96990000D01*
X108077000Y-95098816D01*
X120385000Y-95098816D01*
X120385000Y-95401184D01*
X120443989Y-95697743D01*
X120559701Y-95977095D01*
X120727688Y-96228505D01*
X120941495Y-96442312D01*
X121192905Y-96610299D01*
X121472257Y-96726011D01*
X121768816Y-96785000D01*
X122071184Y-96785000D01*
X122367743Y-96726011D01*
X122647095Y-96610299D01*
X122898505Y-96442312D01*
X122964944Y-96375873D01*
X122970498Y-96394180D01*
X123029463Y-96504494D01*
X123108815Y-96601185D01*
X123205506Y-96680537D01*
X123315820Y-96739502D01*
X123435518Y-96775812D01*
X123560000Y-96788072D01*
X125360000Y-96788072D01*
X125484482Y-96775812D01*
X125604180Y-96739502D01*
X125714494Y-96680537D01*
X125811185Y-96601185D01*
X125890537Y-96504494D01*
X125949502Y-96394180D01*
X125985812Y-96274482D01*
X125998072Y-96150000D01*
X125998072Y-94350000D01*
X125985812Y-94225518D01*
X125949502Y-94105820D01*
X125890537Y-93995506D01*
X125811185Y-93898815D01*
X125714494Y-93819463D01*
X125604180Y-93760498D01*
X125484482Y-93724188D01*
X125360000Y-93711928D01*
X123560000Y-93711928D01*
X123435518Y-93724188D01*
X123315820Y-93760498D01*
X123205506Y-93819463D01*
X123108815Y-93898815D01*
X123029463Y-93995506D01*
X122970498Y-94105820D01*
X122964944Y-94124127D01*
X122898505Y-94057688D01*
X122647095Y-93889701D01*
X122367743Y-93773989D01*
X122071184Y-93715000D01*
X121768816Y-93715000D01*
X121472257Y-93773989D01*
X121192905Y-93889701D01*
X120941495Y-94057688D01*
X120727688Y-94271495D01*
X120559701Y-94522905D01*
X120443989Y-94802257D01*
X120385000Y-95098816D01*
X108077000Y-95098816D01*
X108077000Y-90519040D01*
X144658091Y-90519040D01*
X144752930Y-90783881D01*
X144897615Y-91025131D01*
X145086586Y-91233519D01*
X145312580Y-91401037D01*
X145566913Y-91521246D01*
X145700961Y-91561904D01*
X145923000Y-91439915D01*
X145923000Y-90297000D01*
X144779376Y-90297000D01*
X144658091Y-90519040D01*
X108077000Y-90519040D01*
X108077000Y-89820960D01*
X144658091Y-89820960D01*
X144779376Y-90043000D01*
X145923000Y-90043000D01*
X145923000Y-88900085D01*
X146177000Y-88900085D01*
X146177000Y-90043000D01*
X146197000Y-90043000D01*
X146197000Y-90297000D01*
X146177000Y-90297000D01*
X146177000Y-91439915D01*
X146399039Y-91561904D01*
X146533087Y-91521246D01*
X146787420Y-91401037D01*
X147013414Y-91233519D01*
X147202385Y-91025131D01*
X147313933Y-90839135D01*
X147318320Y-90849727D01*
X147475363Y-91084759D01*
X147675241Y-91284637D01*
X147910273Y-91441680D01*
X148171426Y-91549853D01*
X148448665Y-91605000D01*
X148731335Y-91605000D01*
X149008574Y-91549853D01*
X149269727Y-91441680D01*
X149504759Y-91284637D01*
X149704637Y-91084759D01*
X149860000Y-90852241D01*
X150015363Y-91084759D01*
X150215241Y-91284637D01*
X150450273Y-91441680D01*
X150711426Y-91549853D01*
X150988665Y-91605000D01*
X151271335Y-91605000D01*
X151548574Y-91549853D01*
X151809727Y-91441680D01*
X152044759Y-91284637D01*
X152244637Y-91084759D01*
X152400000Y-90852241D01*
X152555363Y-91084759D01*
X152755241Y-91284637D01*
X152990273Y-91441680D01*
X153251426Y-91549853D01*
X153528665Y-91605000D01*
X153811335Y-91605000D01*
X154088574Y-91549853D01*
X154349727Y-91441680D01*
X154584759Y-91284637D01*
X154784637Y-91084759D01*
X154941680Y-90849727D01*
X155049853Y-90588574D01*
X155105000Y-90311335D01*
X155105000Y-90028665D01*
X155049853Y-89751426D01*
X154941680Y-89490273D01*
X154784637Y-89255241D01*
X154584759Y-89055363D01*
X154349727Y-88898320D01*
X154088574Y-88790147D01*
X153811335Y-88735000D01*
X153528665Y-88735000D01*
X153251426Y-88790147D01*
X152990273Y-88898320D01*
X152755241Y-89055363D01*
X152555363Y-89255241D01*
X152400000Y-89487759D01*
X152244637Y-89255241D01*
X152044759Y-89055363D01*
X151809727Y-88898320D01*
X151548574Y-88790147D01*
X151271335Y-88735000D01*
X150988665Y-88735000D01*
X150711426Y-88790147D01*
X150450273Y-88898320D01*
X150215241Y-89055363D01*
X150015363Y-89255241D01*
X149860000Y-89487759D01*
X149704637Y-89255241D01*
X149504759Y-89055363D01*
X149269727Y-88898320D01*
X149008574Y-88790147D01*
X148731335Y-88735000D01*
X148448665Y-88735000D01*
X148171426Y-88790147D01*
X147910273Y-88898320D01*
X147675241Y-89055363D01*
X147475363Y-89255241D01*
X147318320Y-89490273D01*
X147313933Y-89500865D01*
X147202385Y-89314869D01*
X147013414Y-89106481D01*
X146787420Y-88938963D01*
X146533087Y-88818754D01*
X146399039Y-88778096D01*
X146177000Y-88900085D01*
X145923000Y-88900085D01*
X145700961Y-88778096D01*
X145566913Y-88818754D01*
X145312580Y-88938963D01*
X145086586Y-89106481D01*
X144897615Y-89314869D01*
X144752930Y-89556119D01*
X144658091Y-89820960D01*
X108077000Y-89820960D01*
X108077000Y-84302600D01*
X173456600Y-84302600D01*
X173456600Y-135813800D01*
G37*
X173456600Y-135813800D02*
X108077000Y-135813800D01*
X108077000Y-123897122D01*
X127885000Y-123897122D01*
X127885000Y-125022878D01*
X128104625Y-126127004D01*
X128535433Y-127167067D01*
X129160870Y-128103100D01*
X129956900Y-128899130D01*
X130892933Y-129524567D01*
X131932996Y-129955375D01*
X133037122Y-130175000D01*
X134162878Y-130175000D01*
X135267004Y-129955375D01*
X136307067Y-129524567D01*
X137243100Y-128899130D01*
X138039130Y-128103100D01*
X138664567Y-127167067D01*
X139095375Y-126127004D01*
X139315000Y-125022878D01*
X139315000Y-123897122D01*
X142875000Y-123897122D01*
X142875000Y-125022878D01*
X143094625Y-126127004D01*
X143525433Y-127167067D01*
X144150870Y-128103100D01*
X144946900Y-128899130D01*
X145882933Y-129524567D01*
X146922996Y-129955375D01*
X148027122Y-130175000D01*
X149152878Y-130175000D01*
X150257004Y-129955375D01*
X151297067Y-129524567D01*
X152233100Y-128899130D01*
X152635034Y-128497196D01*
X159712409Y-128497196D01*
X160298124Y-129179416D01*
X161281704Y-129727045D01*
X162353223Y-130072265D01*
X163471501Y-130201808D01*
X164593565Y-130110697D01*
X165676294Y-129802433D01*
X166678079Y-129288863D01*
X166841876Y-129179416D01*
X167427591Y-128497196D01*
X163570000Y-124639605D01*
X159712409Y-128497196D01*
X152635034Y-128497196D01*
X153029130Y-128103100D01*
X153654567Y-127167067D01*
X154085375Y-126127004D01*
X154305000Y-125022878D01*
X154305000Y-124361501D01*
X157828192Y-124361501D01*
X157919303Y-125483565D01*
X158227567Y-126566294D01*
X158741137Y-127568079D01*
X158850584Y-127731876D01*
X159532804Y-128317591D01*
X163390395Y-124460000D01*
X163749605Y-124460000D01*
X167607196Y-128317591D01*
X168289416Y-127731876D01*
X168837045Y-126748296D01*
X169182265Y-125676777D01*
X169311808Y-124558499D01*
X169220697Y-123436435D01*
X168912433Y-122353706D01*
X168398863Y-121351921D01*
X168289416Y-121188124D01*
X167607196Y-120602409D01*
X163749605Y-124460000D01*
X163390395Y-124460000D01*
X159532804Y-120602409D01*
X158850584Y-121188124D01*
X158302955Y-122171704D01*
X157957735Y-123243223D01*
X157828192Y-124361501D01*
X154305000Y-124361501D01*
X154305000Y-123897122D01*
X154085375Y-122792996D01*
X153654567Y-121752933D01*
X153029130Y-120816900D01*
X152635034Y-120422804D01*
X159712409Y-120422804D01*
X163570000Y-124280395D01*
X167427591Y-120422804D01*
X166841876Y-119740584D01*
X165858296Y-119192955D01*
X164786777Y-118847735D01*
X163668499Y-118718192D01*
X162546435Y-118809303D01*
X161463706Y-119117567D01*
X160461921Y-119631137D01*
X160298124Y-119740584D01*
X159712409Y-120422804D01*
X152635034Y-120422804D01*
X152233100Y-120020870D01*
X151297067Y-119395433D01*
X150257004Y-118964625D01*
X149152878Y-118745000D01*
X148027122Y-118745000D01*
X146922996Y-118964625D01*
X145882933Y-119395433D01*
X144946900Y-120020870D01*
X144150870Y-120816900D01*
X143525433Y-121752933D01*
X143094625Y-122792996D01*
X142875000Y-123897122D01*
X139315000Y-123897122D01*
X139095375Y-122792996D01*
X138664567Y-121752933D01*
X138039130Y-120816900D01*
X137243100Y-120020870D01*
X136307067Y-119395433D01*
X135267004Y-118964625D01*
X134162878Y-118745000D01*
X133037122Y-118745000D01*
X131932996Y-118964625D01*
X130892933Y-119395433D01*
X129956900Y-120020870D01*
X129160870Y-120816900D01*
X128535433Y-121752933D01*
X128104625Y-122792996D01*
X127885000Y-123897122D01*
X108077000Y-123897122D01*
X108077000Y-112888665D01*
X125565000Y-112888665D01*
X125565000Y-113171335D01*
X125620147Y-113448574D01*
X125728320Y-113709727D01*
X125885363Y-113944759D01*
X126085241Y-114144637D01*
X126320273Y-114301680D01*
X126581426Y-114409853D01*
X126858665Y-114465000D01*
X127141335Y-114465000D01*
X127418574Y-114409853D01*
X127679727Y-114301680D01*
X127914759Y-114144637D01*
X128114637Y-113944759D01*
X128270000Y-113712241D01*
X128425363Y-113944759D01*
X128625241Y-114144637D01*
X128860273Y-114301680D01*
X129121426Y-114409853D01*
X129398665Y-114465000D01*
X129681335Y-114465000D01*
X129958574Y-114409853D01*
X130219727Y-114301680D01*
X130454759Y-114144637D01*
X130654637Y-113944759D01*
X130811680Y-113709727D01*
X130919853Y-113448574D01*
X130975000Y-113171335D01*
X130975000Y-112888665D01*
X130919853Y-112611426D01*
X130811680Y-112350273D01*
X130654637Y-112115241D01*
X130454759Y-111915363D01*
X130219727Y-111758320D01*
X129958574Y-111650147D01*
X129681335Y-111595000D01*
X129398665Y-111595000D01*
X129121426Y-111650147D01*
X128860273Y-111758320D01*
X128625241Y-111915363D01*
X128425363Y-112115241D01*
X128270000Y-112347759D01*
X128114637Y-112115241D01*
X127914759Y-111915363D01*
X127679727Y-111758320D01*
X127418574Y-111650147D01*
X127141335Y-111595000D01*
X126858665Y-111595000D01*
X126581426Y-111650147D01*
X126320273Y-111758320D01*
X126085241Y-111915363D01*
X125885363Y-112115241D01*
X125728320Y-112350273D01*
X125620147Y-112611426D01*
X125565000Y-112888665D01*
X108077000Y-112888665D01*
X108077000Y-96990000D01*
X144611928Y-96990000D01*
X144611928Y-98590000D01*
X144624188Y-98714482D01*
X144660498Y-98834180D01*
X144719463Y-98944494D01*
X144798815Y-99041185D01*
X144895506Y-99120537D01*
X145005820Y-99179502D01*
X145125518Y-99215812D01*
X145250000Y-99228072D01*
X146850000Y-99228072D01*
X146974482Y-99215812D01*
X147094180Y-99179502D01*
X147204494Y-99120537D01*
X147301185Y-99041185D01*
X147380537Y-98944494D01*
X147439502Y-98834180D01*
X147475812Y-98714482D01*
X147476643Y-98706039D01*
X147675241Y-98904637D01*
X147910273Y-99061680D01*
X148171426Y-99169853D01*
X148448665Y-99225000D01*
X148731335Y-99225000D01*
X149008574Y-99169853D01*
X149269727Y-99061680D01*
X149504759Y-98904637D01*
X149704637Y-98704759D01*
X149860000Y-98472241D01*
X150015363Y-98704759D01*
X150215241Y-98904637D01*
X150450273Y-99061680D01*
X150711426Y-99169853D01*
X150988665Y-99225000D01*
X151271335Y-99225000D01*
X151548574Y-99169853D01*
X151809727Y-99061680D01*
X152044759Y-98904637D01*
X152244637Y-98704759D01*
X152400000Y-98472241D01*
X152555363Y-98704759D01*
X152755241Y-98904637D01*
X152990273Y-99061680D01*
X153251426Y-99169853D01*
X153528665Y-99225000D01*
X153811335Y-99225000D01*
X154088574Y-99169853D01*
X154349727Y-99061680D01*
X154584759Y-98904637D01*
X154784637Y-98704759D01*
X154941680Y-98469727D01*
X155049853Y-98208574D01*
X155105000Y-97931335D01*
X155105000Y-97648665D01*
X155049853Y-97371426D01*
X154941680Y-97110273D01*
X154784637Y-96875241D01*
X154584759Y-96675363D01*
X154349727Y-96518320D01*
X154088574Y-96410147D01*
X153930306Y-96378665D01*
X164935000Y-96378665D01*
X164935000Y-96661335D01*
X164990147Y-96938574D01*
X165098320Y-97199727D01*
X165255363Y-97434759D01*
X165455241Y-97634637D01*
X165687759Y-97790000D01*
X165455241Y-97945363D01*
X165255363Y-98145241D01*
X165098320Y-98380273D01*
X164990147Y-98641426D01*
X164935000Y-98918665D01*
X164935000Y-99201335D01*
X164990147Y-99478574D01*
X165098320Y-99739727D01*
X165255363Y-99974759D01*
X165455241Y-100174637D01*
X165690273Y-100331680D01*
X165951426Y-100439853D01*
X166228665Y-100495000D01*
X166511335Y-100495000D01*
X166788574Y-100439853D01*
X167049727Y-100331680D01*
X167284759Y-100174637D01*
X167484637Y-99974759D01*
X167641680Y-99739727D01*
X167749853Y-99478574D01*
X167805000Y-99201335D01*
X167805000Y-98918665D01*
X167749853Y-98641426D01*
X167641680Y-98380273D01*
X167484637Y-98145241D01*
X167284759Y-97945363D01*
X167052241Y-97790000D01*
X167284759Y-97634637D01*
X167484637Y-97434759D01*
X167641680Y-97199727D01*
X167749853Y-96938574D01*
X167805000Y-96661335D01*
X167805000Y-96378665D01*
X167749853Y-96101426D01*
X167641680Y-95840273D01*
X167484637Y-95605241D01*
X167284759Y-95405363D01*
X167049727Y-95248320D01*
X166788574Y-95140147D01*
X166511335Y-95085000D01*
X166228665Y-95085000D01*
X165951426Y-95140147D01*
X165690273Y-95248320D01*
X165455241Y-95405363D01*
X165255363Y-95605241D01*
X165098320Y-95840273D01*
X164990147Y-96101426D01*
X164935000Y-96378665D01*
X153930306Y-96378665D01*
X153811335Y-96355000D01*
X153528665Y-96355000D01*
X153251426Y-96410147D01*
X152990273Y-96518320D01*
X152755241Y-96675363D01*
X152555363Y-96875241D01*
X152400000Y-97107759D01*
X152244637Y-96875241D01*
X152044759Y-96675363D01*
X151809727Y-96518320D01*
X151548574Y-96410147D01*
X151271335Y-96355000D01*
X150988665Y-96355000D01*
X150711426Y-96410147D01*
X150450273Y-96518320D01*
X150215241Y-96675363D01*
X150015363Y-96875241D01*
X149860000Y-97107759D01*
X149704637Y-96875241D01*
X149504759Y-96675363D01*
X149269727Y-96518320D01*
X149008574Y-96410147D01*
X148731335Y-96355000D01*
X148448665Y-96355000D01*
X148171426Y-96410147D01*
X147910273Y-96518320D01*
X147675241Y-96675363D01*
X147476643Y-96873961D01*
X147475812Y-96865518D01*
X147439502Y-96745820D01*
X147380537Y-96635506D01*
X147301185Y-96538815D01*
X147204494Y-96459463D01*
X147094180Y-96400498D01*
X146974482Y-96364188D01*
X146850000Y-96351928D01*
X145250000Y-96351928D01*
X145125518Y-96364188D01*
X145005820Y-96400498D01*
X144895506Y-96459463D01*
X144798815Y-96538815D01*
X144719463Y-96635506D01*
X144660498Y-96745820D01*
X144624188Y-96865518D01*
X144611928Y-96990000D01*
X108077000Y-96990000D01*
X108077000Y-95098816D01*
X120385000Y-95098816D01*
X120385000Y-95401184D01*
X120443989Y-95697743D01*
X120559701Y-95977095D01*
X120727688Y-96228505D01*
X120941495Y-96442312D01*
X121192905Y-96610299D01*
X121472257Y-96726011D01*
X121768816Y-96785000D01*
X122071184Y-96785000D01*
X122367743Y-96726011D01*
X122647095Y-96610299D01*
X122898505Y-96442312D01*
X122964944Y-96375873D01*
X122970498Y-96394180D01*
X123029463Y-96504494D01*
X123108815Y-96601185D01*
X123205506Y-96680537D01*
X123315820Y-96739502D01*
X123435518Y-96775812D01*
X123560000Y-96788072D01*
X125360000Y-96788072D01*
X125484482Y-96775812D01*
X125604180Y-96739502D01*
X125714494Y-96680537D01*
X125811185Y-96601185D01*
X125890537Y-96504494D01*
X125949502Y-96394180D01*
X125985812Y-96274482D01*
X125998072Y-96150000D01*
X125998072Y-94350000D01*
X125985812Y-94225518D01*
X125949502Y-94105820D01*
X125890537Y-93995506D01*
X125811185Y-93898815D01*
X125714494Y-93819463D01*
X125604180Y-93760498D01*
X125484482Y-93724188D01*
X125360000Y-93711928D01*
X123560000Y-93711928D01*
X123435518Y-93724188D01*
X123315820Y-93760498D01*
X123205506Y-93819463D01*
X123108815Y-93898815D01*
X123029463Y-93995506D01*
X122970498Y-94105820D01*
X122964944Y-94124127D01*
X122898505Y-94057688D01*
X122647095Y-93889701D01*
X122367743Y-93773989D01*
X122071184Y-93715000D01*
X121768816Y-93715000D01*
X121472257Y-93773989D01*
X121192905Y-93889701D01*
X120941495Y-94057688D01*
X120727688Y-94271495D01*
X120559701Y-94522905D01*
X120443989Y-94802257D01*
X120385000Y-95098816D01*
X108077000Y-95098816D01*
X108077000Y-90519040D01*
X144658091Y-90519040D01*
X144752930Y-90783881D01*
X144897615Y-91025131D01*
X145086586Y-91233519D01*
X145312580Y-91401037D01*
X145566913Y-91521246D01*
X145700961Y-91561904D01*
X145923000Y-91439915D01*
X145923000Y-90297000D01*
X144779376Y-90297000D01*
X144658091Y-90519040D01*
X108077000Y-90519040D01*
X108077000Y-89820960D01*
X144658091Y-89820960D01*
X144779376Y-90043000D01*
X145923000Y-90043000D01*
X145923000Y-88900085D01*
X146177000Y-88900085D01*
X146177000Y-90043000D01*
X146197000Y-90043000D01*
X146197000Y-90297000D01*
X146177000Y-90297000D01*
X146177000Y-91439915D01*
X146399039Y-91561904D01*
X146533087Y-91521246D01*
X146787420Y-91401037D01*
X147013414Y-91233519D01*
X147202385Y-91025131D01*
X147313933Y-90839135D01*
X147318320Y-90849727D01*
X147475363Y-91084759D01*
X147675241Y-91284637D01*
X147910273Y-91441680D01*
X148171426Y-91549853D01*
X148448665Y-91605000D01*
X148731335Y-91605000D01*
X149008574Y-91549853D01*
X149269727Y-91441680D01*
X149504759Y-91284637D01*
X149704637Y-91084759D01*
X149860000Y-90852241D01*
X150015363Y-91084759D01*
X150215241Y-91284637D01*
X150450273Y-91441680D01*
X150711426Y-91549853D01*
X150988665Y-91605000D01*
X151271335Y-91605000D01*
X151548574Y-91549853D01*
X151809727Y-91441680D01*
X152044759Y-91284637D01*
X152244637Y-91084759D01*
X152400000Y-90852241D01*
X152555363Y-91084759D01*
X152755241Y-91284637D01*
X152990273Y-91441680D01*
X153251426Y-91549853D01*
X153528665Y-91605000D01*
X153811335Y-91605000D01*
X154088574Y-91549853D01*
X154349727Y-91441680D01*
X154584759Y-91284637D01*
X154784637Y-91084759D01*
X154941680Y-90849727D01*
X155049853Y-90588574D01*
X155105000Y-90311335D01*
X155105000Y-90028665D01*
X155049853Y-89751426D01*
X154941680Y-89490273D01*
X154784637Y-89255241D01*
X154584759Y-89055363D01*
X154349727Y-88898320D01*
X154088574Y-88790147D01*
X153811335Y-88735000D01*
X153528665Y-88735000D01*
X153251426Y-88790147D01*
X152990273Y-88898320D01*
X152755241Y-89055363D01*
X152555363Y-89255241D01*
X152400000Y-89487759D01*
X152244637Y-89255241D01*
X152044759Y-89055363D01*
X151809727Y-88898320D01*
X151548574Y-88790147D01*
X151271335Y-88735000D01*
X150988665Y-88735000D01*
X150711426Y-88790147D01*
X150450273Y-88898320D01*
X150215241Y-89055363D01*
X150015363Y-89255241D01*
X149860000Y-89487759D01*
X149704637Y-89255241D01*
X149504759Y-89055363D01*
X149269727Y-88898320D01*
X149008574Y-88790147D01*
X148731335Y-88735000D01*
X148448665Y-88735000D01*
X148171426Y-88790147D01*
X147910273Y-88898320D01*
X147675241Y-89055363D01*
X147475363Y-89255241D01*
X147318320Y-89490273D01*
X147313933Y-89500865D01*
X147202385Y-89314869D01*
X147013414Y-89106481D01*
X146787420Y-88938963D01*
X146533087Y-88818754D01*
X146399039Y-88778096D01*
X146177000Y-88900085D01*
X145923000Y-88900085D01*
X145700961Y-88778096D01*
X145566913Y-88818754D01*
X145312580Y-88938963D01*
X145086586Y-89106481D01*
X144897615Y-89314869D01*
X144752930Y-89556119D01*
X144658091Y-89820960D01*
X108077000Y-89820960D01*
X108077000Y-84302600D01*
X173456600Y-84302600D01*
X173456600Y-135813800D01*
%TD*%
M02*
