M48
; DRILL file {KiCad (5.1.6)-1} date 09/11/21 05:23:26
; FORMAT={-:-/ absolute / inch / decimal}
; #@! TF.CreationDate,2021-09-11T05:23:26-07:00
; #@! TF.GenerationSoftware,Kicad,Pcbnew,(5.1.6)-1
FMAT,2
INCH
T1C0.0080
T2C0.0112
T3C0.0150
T4C0.0160
T5C0.0394
T6C0.0420
T7C0.0630
%
G90
G05
T1
X3.172Y-2.968
X3.26Y-3.22
X3.52Y-2.56
X3.52Y-2.78
X3.525Y-3.12
X3.55Y-3.12
X3.575Y-3.12
X3.6Y-2.98
X3.6Y-3.12
X3.6484Y-3.1172
X3.675Y-3.115
X3.7Y-3.115
X3.725Y-3.115
X3.75Y-3.115
X3.7673Y-3.095
X4.075Y-2.7168
X4.075Y-2.77
T2
X3.6433Y-2.5455
X3.6433Y-2.5903
X3.6433Y-2.6351
X3.6433Y-2.6799
X3.6433Y-2.7247
X3.6433Y-2.7695
X3.6433Y-2.8142
X3.6433Y-2.859
X3.688Y-2.5455
X3.688Y-2.5903
X3.688Y-2.6351
X3.688Y-2.6799
X3.688Y-2.7247
X3.688Y-2.7695
X3.688Y-2.8142
X3.688Y-2.859
X3.7328Y-2.5455
X3.7328Y-2.5903
X3.7328Y-2.6351
X3.7328Y-2.6799
X3.7328Y-2.7247
X3.7328Y-2.7695
X3.7328Y-2.8142
X3.7328Y-2.859
X3.7776Y-2.5455
X3.7776Y-2.5903
X3.7776Y-2.6351
X3.7776Y-2.6799
X3.7776Y-2.7247
X3.7776Y-2.7695
X3.7776Y-2.8142
X3.7776Y-2.859
X3.8224Y-2.5455
X3.8224Y-2.5903
X3.8224Y-2.6351
X3.8224Y-2.6799
X3.8224Y-2.7247
X3.8224Y-2.7695
X3.8224Y-2.8142
X3.8224Y-2.859
X3.8672Y-2.5455
X3.8672Y-2.5903
X3.8672Y-2.6351
X3.8672Y-2.6799
X3.8672Y-2.7247
X3.8672Y-2.7695
X3.8672Y-2.8142
X3.8672Y-2.859
X3.912Y-2.5455
X3.912Y-2.5903
X3.912Y-2.6351
X3.912Y-2.6799
X3.912Y-2.7247
X3.912Y-2.7695
X3.912Y-2.8142
X3.912Y-2.859
X3.9567Y-2.5455
X3.9567Y-2.5903
X3.9567Y-2.6351
X3.9567Y-2.6799
X3.9567Y-2.7247
X3.9567Y-2.7695
X3.9567Y-2.8142
X3.9567Y-2.859
T3
X3.57Y-3.03
X3.49Y-2.45
X4.14Y-2.62
X4.2Y-2.93
X3.485Y-2.505
X3.56Y-2.36
X3.625Y-2.37
X3.56Y-2.41
X4.105Y-2.525
X4.085Y-2.625
X3.69Y-2.37
X4.275Y-2.795
X4.1Y-2.47
X4.22Y-2.48
X3.39Y-3.04
X4.275Y-2.895
X4.2Y-2.36
X4.12Y-2.66
X3.49Y-3.08
X3.32Y-3.02
X3.88Y-3.06
X3.39Y-2.99
X4.13Y-2.7
T4
X3.27Y-2.4
X3.29Y-2.46
X4.16Y-3.05
X4.1873Y-2.8427
X4.19Y-2.7245
X4.21Y-2.88
T5
X3.35Y-3.22
X3.35Y-3.32
X3.45Y-3.22
X3.45Y-3.32
X3.55Y-3.22
X3.55Y-3.32
X3.65Y-3.22
X3.65Y-3.32
X3.75Y-3.22
X3.75Y-3.32
X3.85Y-3.22
X3.85Y-3.32
X3.95Y-3.22
X3.95Y-3.32
X4.05Y-3.22
X4.05Y-3.32
X4.15Y-3.22
X4.15Y-3.32
X4.25Y-3.22
X4.25Y-3.32
X4.4Y-2.445
X4.4Y-2.545
X4.4Y-2.645
X4.4Y-2.745
X4.4Y-2.845
X4.5Y-2.445
X4.5Y-2.545
X4.5Y-2.645
X4.5Y-2.745
X4.5Y-2.845
X3.325Y-2.145
X3.325Y-2.245
X3.425Y-2.145
X3.425Y-2.245
X3.525Y-2.145
X3.525Y-2.245
X3.625Y-2.145
X3.625Y-2.245
X3.725Y-2.145
X3.725Y-2.245
X3.825Y-2.145
X3.825Y-2.245
X3.925Y-2.145
X3.925Y-2.245
X4.025Y-2.145
X4.025Y-2.245
X4.125Y-2.145
X4.125Y-2.245
X4.225Y-2.145
X4.225Y-2.245
X4.325Y-2.145
X4.325Y-2.245
T6
X3.48Y-2.65
X4.287Y-2.65
T7
X3.16Y-2.635
X3.16Y-2.835
X3.26Y-2.735
X3.36Y-2.635
X3.36Y-2.835
T0
M30
