M48
; DRILL file {KiCad (6.0.7)} date Thu Sep  8 17:12:52 2022
; FORMAT={-:-/ absolute / inch / decimal}
; #@! TF.CreationDate,2022-09-08T17:12:52-07:00
; #@! TF.GenerationSoftware,Kicad,Pcbnew,(6.0.7)
; #@! TF.FileFunction,Plated,1,2,PTH
FMAT,2
INCH
; #@! TA.AperFunction,Plated,PTH,ViaDrill
T1C0.0080
; #@! TA.AperFunction,Plated,PTH,ComponentDrill
T2C0.0112
; #@! TA.AperFunction,Plated,PTH,ViaDrill
T3C0.0120
; #@! TA.AperFunction,Plated,PTH,ComponentDrill
T4C0.0150
; #@! TA.AperFunction,Plated,PTH,ViaDrill
T5C0.0160
; #@! TA.AperFunction,Plated,PTH,ComponentDrill
T6C0.0394
; #@! TA.AperFunction,Plated,PTH,ComponentDrill
T7C0.0420
; #@! TA.AperFunction,Plated,PTH,ComponentDrill
T8C0.0630
%
G90
G05
T1
X3.172Y-2.968
X3.26Y-3.22
X3.52Y-2.56
X3.52Y-2.78
X3.525Y-3.12
X3.55Y-3.12
X3.575Y-3.12
X3.6Y-2.98
X3.6Y-3.12
X3.6484Y-3.1172
X3.675Y-3.115
X3.7Y-3.115
X3.725Y-3.115
X3.75Y-3.115
X3.7673Y-3.095
X4.075Y-2.7168
X4.075Y-2.77
T2
X3.6433Y-2.5455
X3.6433Y-2.5903
X3.6433Y-2.6351
X3.6433Y-2.6799
X3.6433Y-2.7247
X3.6433Y-2.7695
X3.6433Y-2.8142
X3.6433Y-2.859
X3.688Y-2.5455
X3.688Y-2.5903
X3.688Y-2.6351
X3.688Y-2.6799
X3.688Y-2.7247
X3.688Y-2.7695
X3.688Y-2.8142
X3.688Y-2.859
X3.7328Y-2.5455
X3.7328Y-2.5903
X3.7328Y-2.6351
X3.7328Y-2.6799
X3.7328Y-2.7247
X3.7328Y-2.7695
X3.7328Y-2.8142
X3.7328Y-2.859
X3.7776Y-2.5455
X3.7776Y-2.5903
X3.7776Y-2.6351
X3.7776Y-2.6799
X3.7776Y-2.7247
X3.7776Y-2.7695
X3.7776Y-2.8142
X3.7776Y-2.859
X3.8224Y-2.5455
X3.8224Y-2.5903
X3.8224Y-2.6351
X3.8224Y-2.6799
X3.8224Y-2.7247
X3.8224Y-2.7695
X3.8224Y-2.8142
X3.8224Y-2.859
X3.8672Y-2.5455
X3.8672Y-2.5903
X3.8672Y-2.6351
X3.8672Y-2.6799
X3.8672Y-2.7247
X3.8672Y-2.7695
X3.8672Y-2.8142
X3.8672Y-2.859
X3.912Y-2.5455
X3.912Y-2.5903
X3.912Y-2.6351
X3.912Y-2.6799
X3.912Y-2.7247
X3.912Y-2.7695
X3.912Y-2.8142
X3.912Y-2.859
X3.9567Y-2.5455
X3.9567Y-2.5903
X3.9567Y-2.6351
X3.9567Y-2.6799
X3.9567Y-2.7247
X3.9567Y-2.7695
X3.9567Y-2.8142
X3.9567Y-2.859
T3
X3.31Y-2.45
T4
X3.32Y-3.02
X3.35Y-2.51
X3.39Y-2.99
X3.39Y-3.04
X3.41Y-2.51
X3.49Y-2.5
X3.49Y-3.08
X3.57Y-3.03
X3.59Y-2.37
X3.64Y-2.37
X3.69Y-2.37
X3.88Y-3.06
X4.085Y-2.625
X4.1Y-2.47
X4.105Y-2.525
X4.12Y-2.66
X4.13Y-2.7
X4.14Y-2.62
X4.2Y-2.36
X4.2Y-2.93
X4.22Y-2.48
X4.275Y-2.795
X4.275Y-2.895
T5
X3.56Y-2.41
X3.97Y-3.06
X4.1873Y-2.8427
X4.19Y-2.7245
X4.21Y-2.88
T6
X3.325Y-2.145
X3.325Y-2.245
X3.35Y-3.22
X3.35Y-3.32
X3.425Y-2.145
X3.425Y-2.245
X3.45Y-3.22
X3.45Y-3.32
X3.525Y-2.145
X3.525Y-2.245
X3.55Y-3.22
X3.55Y-3.32
X3.625Y-2.145
X3.625Y-2.245
X3.65Y-3.22
X3.65Y-3.32
X3.725Y-2.145
X3.725Y-2.245
X3.75Y-3.22
X3.75Y-3.32
X3.825Y-2.145
X3.825Y-2.245
X3.85Y-3.22
X3.85Y-3.32
X3.925Y-2.145
X3.925Y-2.245
X3.95Y-3.22
X3.95Y-3.32
X4.025Y-2.145
X4.025Y-2.245
X4.05Y-3.22
X4.05Y-3.32
X4.125Y-2.145
X4.125Y-2.245
X4.15Y-3.22
X4.15Y-3.32
X4.225Y-2.145
X4.225Y-2.245
X4.25Y-3.22
X4.25Y-3.32
X4.325Y-2.145
X4.325Y-2.245
X4.5Y-2.26
X4.5Y-2.36
X4.5Y-2.46
X4.5Y-2.56
X4.5Y-2.66
X4.5Y-2.76
X4.5Y-2.86
X4.5Y-2.96
X4.5Y-3.06
X4.5Y-3.16
T7
X3.48Y-2.65
X4.287Y-2.65
T8
X3.16Y-2.635
X3.16Y-2.835
X3.26Y-2.735
X3.36Y-2.635
X3.36Y-2.835
T0
M30
