G04 #@! TF.GenerationSoftware,KiCad,Pcbnew,(6.0.7)*
G04 #@! TF.CreationDate,2022-09-08T16:43:51-07:00*
G04 #@! TF.ProjectId,scum3c-devboard,7363756d-3363-42d6-9465-76626f617264,rev?*
G04 #@! TF.SameCoordinates,Original*
G04 #@! TF.FileFunction,Paste,Top*
G04 #@! TF.FilePolarity,Positive*
%FSLAX46Y46*%
G04 Gerber Fmt 4.6, Leading zero omitted, Abs format (unit mm)*
G04 Created by KiCad (PCBNEW (6.0.7)) date 2022-09-08 16:43:51*
%MOMM*%
%LPD*%
G01*
G04 APERTURE LIST*
G04 Aperture macros list*
%AMRoundRect*
0 Rectangle with rounded corners*
0 $1 Rounding radius*
0 $2 $3 $4 $5 $6 $7 $8 $9 X,Y pos of 4 corners*
0 Add a 4 corners polygon primitive as box body*
4,1,4,$2,$3,$4,$5,$6,$7,$8,$9,$2,$3,0*
0 Add four circle primitives for the rounded corners*
1,1,$1+$1,$2,$3*
1,1,$1+$1,$4,$5*
1,1,$1+$1,$6,$7*
1,1,$1+$1,$8,$9*
0 Add four rect primitives between the rounded corners*
20,1,$1+$1,$2,$3,$4,$5,0*
20,1,$1+$1,$4,$5,$6,$7,0*
20,1,$1+$1,$6,$7,$8,$9,0*
20,1,$1+$1,$8,$9,$2,$3,0*%
G04 Aperture macros list end*
%ADD10O,0.800000X0.200000*%
%ADD11O,0.200000X0.800000*%
%ADD12RoundRect,0.147500X0.147500X0.172500X-0.147500X0.172500X-0.147500X-0.172500X0.147500X-0.172500X0*%
%ADD13RoundRect,0.147500X-0.172500X0.147500X-0.172500X-0.147500X0.172500X-0.147500X0.172500X0.147500X0*%
%ADD14RoundRect,0.147500X0.172500X-0.147500X0.172500X0.147500X-0.172500X0.147500X-0.172500X-0.147500X0*%
%ADD15RoundRect,0.147500X-0.147500X-0.172500X0.147500X-0.172500X0.147500X0.172500X-0.147500X0.172500X0*%
%ADD16RoundRect,0.050000X0.225000X0.050000X-0.225000X0.050000X-0.225000X-0.050000X0.225000X-0.050000X0*%
%ADD17RoundRect,0.050000X-0.050000X0.225000X-0.050000X-0.225000X0.050000X-0.225000X0.050000X0.225000X0*%
%ADD18R,1.900000X0.850000*%
%ADD19R,0.500000X0.300000*%
G04 APERTURE END LIST*
D10*
G04 #@! TO.C,U1*
X90620000Y-63838000D03*
X90620000Y-64238000D03*
X90620000Y-64638000D03*
X90620000Y-65038000D03*
X90620000Y-65438000D03*
X90620000Y-65838000D03*
X90620000Y-66238000D03*
X90620000Y-66638000D03*
X90620000Y-67038000D03*
X90620000Y-67438000D03*
X90620000Y-67838000D03*
X90620000Y-68238000D03*
X90620000Y-68638000D03*
X90620000Y-69038000D03*
X90620000Y-69438000D03*
X90620000Y-69838000D03*
X90620000Y-70238000D03*
X90620000Y-70638000D03*
X90620000Y-71038000D03*
X90620000Y-71438000D03*
X90620000Y-71838000D03*
X90620000Y-72238000D03*
X90620000Y-72638000D03*
X90620000Y-73038000D03*
X90620000Y-73438000D03*
D11*
X91720000Y-74538000D03*
X92120000Y-74538000D03*
X92520000Y-74538000D03*
X92920000Y-74538000D03*
X93320000Y-74538000D03*
X93720000Y-74538000D03*
X94120000Y-74538000D03*
X94520000Y-74538000D03*
X94920000Y-74538000D03*
X95320000Y-74538000D03*
X95720000Y-74538000D03*
X96120000Y-74538000D03*
X96520000Y-74538000D03*
X96920000Y-74538000D03*
X97320000Y-74538000D03*
X97720000Y-74538000D03*
X98120000Y-74538000D03*
X98520000Y-74538000D03*
X98920000Y-74538000D03*
X99320000Y-74538000D03*
X99720000Y-74538000D03*
X100120000Y-74538000D03*
X100520000Y-74538000D03*
X100920000Y-74538000D03*
X101320000Y-74538000D03*
D10*
X102420000Y-73438000D03*
X102420000Y-73038000D03*
X102420000Y-72638000D03*
X102420000Y-72238000D03*
X102420000Y-71838000D03*
X102420000Y-71438000D03*
X102420000Y-71038000D03*
X102420000Y-70638000D03*
X102420000Y-70238000D03*
X102420000Y-69838000D03*
X102420000Y-69438000D03*
X102420000Y-69038000D03*
X102420000Y-68638000D03*
X102420000Y-68238000D03*
X102420000Y-67838000D03*
X102420000Y-67438000D03*
X102420000Y-67038000D03*
X102420000Y-66638000D03*
X102420000Y-66238000D03*
X102420000Y-65838000D03*
X102420000Y-65438000D03*
X102420000Y-65038000D03*
X102420000Y-64638000D03*
X102420000Y-64238000D03*
X102420000Y-63838000D03*
D11*
X101320000Y-62738000D03*
X100920000Y-62738000D03*
X100520000Y-62738000D03*
X100120000Y-62738000D03*
X99720000Y-62738000D03*
X99320000Y-62738000D03*
X98920000Y-62738000D03*
X98520000Y-62738000D03*
X98120000Y-62738000D03*
X97720000Y-62738000D03*
X97320000Y-62738000D03*
X96920000Y-62738000D03*
X96520000Y-62738000D03*
X96120000Y-62738000D03*
X95720000Y-62738000D03*
X95320000Y-62738000D03*
X94920000Y-62738000D03*
X94520000Y-62738000D03*
X94120000Y-62738000D03*
X93720000Y-62738000D03*
X93320000Y-62738000D03*
X92920000Y-62738000D03*
X92520000Y-62738000D03*
X92120000Y-62738000D03*
X91720000Y-62738000D03*
G04 #@! TD*
D12*
G04 #@! TO.C,C5*
X86360000Y-74676000D03*
X85390000Y-74676000D03*
G04 #@! TD*
D13*
G04 #@! TO.C,C8*
X102235000Y-77724000D03*
X102235000Y-78694000D03*
G04 #@! TD*
D12*
G04 #@! TO.C,C11*
X107442000Y-66548000D03*
X106472000Y-66548000D03*
G04 #@! TD*
D14*
G04 #@! TO.C,C12*
X98552000Y-60833000D03*
X98552000Y-59863000D03*
G04 #@! TD*
G04 #@! TO.C,C13*
X100457000Y-60833000D03*
X100457000Y-59863000D03*
G04 #@! TD*
D15*
G04 #@! TO.C,R1*
X106472000Y-65024000D03*
X107442000Y-65024000D03*
G04 #@! TD*
G04 #@! TO.C,C1*
X81580000Y-75438000D03*
X82550000Y-75438000D03*
G04 #@! TD*
D16*
G04 #@! TO.C,U9AB1*
X82145000Y-79486000D03*
X82145000Y-79086000D03*
X82145000Y-78686000D03*
X82145000Y-78286000D03*
X82145000Y-77886000D03*
X82145000Y-77486000D03*
D17*
X81645000Y-76986000D03*
X81245000Y-76986000D03*
X80845000Y-76986000D03*
X80445000Y-76986000D03*
X80045000Y-76986000D03*
X79645000Y-76986000D03*
D16*
X79145000Y-77486000D03*
X79145000Y-77886000D03*
X79145000Y-78286000D03*
X79145000Y-78686000D03*
X79145000Y-79086000D03*
X79145000Y-79486000D03*
D17*
X79645000Y-79986000D03*
X80045000Y-79986000D03*
X80445000Y-79986000D03*
X80845000Y-79986000D03*
X81245000Y-79986000D03*
X81645000Y-79986000D03*
G04 #@! TD*
D12*
G04 #@! TO.C,C3*
X79756000Y-75438000D03*
X78786000Y-75438000D03*
G04 #@! TD*
D13*
G04 #@! TO.C,C2*
X77470000Y-77851000D03*
X77470000Y-78821000D03*
G04 #@! TD*
D12*
G04 #@! TO.C,R2*
X110190000Y-63246000D03*
X109220000Y-63246000D03*
G04 #@! TD*
D15*
G04 #@! TO.C,R3*
X109220000Y-65278000D03*
X110190000Y-65278000D03*
G04 #@! TD*
D13*
G04 #@! TO.C,C7*
X108204000Y-60706000D03*
X108204000Y-61676000D03*
G04 #@! TD*
G04 #@! TO.C,C6*
X110236000Y-60706000D03*
X110236000Y-61676000D03*
G04 #@! TD*
D12*
G04 #@! TO.C,C4*
X86337000Y-78740000D03*
X85367000Y-78740000D03*
G04 #@! TD*
D13*
G04 #@! TO.C,C9*
X103632000Y-77770000D03*
X103632000Y-78740000D03*
G04 #@! TD*
G04 #@! TO.C,R4*
X96774000Y-59990000D03*
X96774000Y-60960000D03*
G04 #@! TD*
D14*
G04 #@! TO.C,C10*
X94996000Y-60914000D03*
X94996000Y-59944000D03*
G04 #@! TD*
D12*
G04 #@! TO.C,C_1.8_OUT1*
X81996000Y-61976000D03*
X81026000Y-61976000D03*
G04 #@! TD*
D18*
G04 #@! TO.C,L1*
X79248000Y-62558000D03*
X79248000Y-64008000D03*
G04 #@! TD*
D13*
G04 #@! TO.C,C_1.8_IN1*
X83820000Y-63292000D03*
X83820000Y-64262000D03*
G04 #@! TD*
D19*
G04 #@! TO.C,U3*
X86106000Y-60960000D03*
X86106000Y-60460000D03*
X86106000Y-59960000D03*
X84306000Y-59960000D03*
X84306000Y-60460000D03*
X84306000Y-60960000D03*
G04 #@! TD*
D14*
G04 #@! TO.C,C_1.1_IN1*
X83312000Y-60706000D03*
X83312000Y-59736000D03*
G04 #@! TD*
D18*
G04 #@! TO.C,L2*
X87884000Y-61468000D03*
X87884000Y-60018000D03*
G04 #@! TD*
D15*
G04 #@! TO.C,C_1.1_OUT1*
X85136000Y-61976000D03*
X86106000Y-61976000D03*
G04 #@! TD*
D19*
G04 #@! TO.C,U2*
X81004000Y-63008000D03*
X81004000Y-63508000D03*
X81004000Y-64008000D03*
X82804000Y-64008000D03*
X82804000Y-63508000D03*
X82804000Y-63008000D03*
G04 #@! TD*
M02*
