G04 #@! TF.GenerationSoftware,KiCad,Pcbnew,(6.0.7)*
G04 #@! TF.CreationDate,2022-09-08T16:43:51-07:00*
G04 #@! TF.ProjectId,scum3c-devboard,7363756d-3363-42d6-9465-76626f617264,rev?*
G04 #@! TF.SameCoordinates,Original*
G04 #@! TF.FileFunction,Soldermask,Top*
G04 #@! TF.FilePolarity,Negative*
%FSLAX46Y46*%
G04 Gerber Fmt 4.6, Leading zero omitted, Abs format (unit mm)*
G04 Created by KiCad (PCBNEW (6.0.7)) date 2022-09-08 16:43:51*
%MOMM*%
%LPD*%
G01*
G04 APERTURE LIST*
G04 Aperture macros list*
%AMRoundRect*
0 Rectangle with rounded corners*
0 $1 Rounding radius*
0 $2 $3 $4 $5 $6 $7 $8 $9 X,Y pos of 4 corners*
0 Add a 4 corners polygon primitive as box body*
4,1,4,$2,$3,$4,$5,$6,$7,$8,$9,$2,$3,0*
0 Add four circle primitives for the rounded corners*
1,1,$1+$1,$2,$3*
1,1,$1+$1,$4,$5*
1,1,$1+$1,$6,$7*
1,1,$1+$1,$8,$9*
0 Add four rect primitives between the rounded corners*
20,1,$1+$1,$2,$3,$4,$5,0*
20,1,$1+$1,$4,$5,$6,$7,0*
20,1,$1+$1,$6,$7,$8,$9,0*
20,1,$1+$1,$8,$9,$2,$3,0*%
G04 Aperture macros list end*
%ADD10O,0.800000X0.200000*%
%ADD11O,0.200000X0.800000*%
%ADD12C,0.568750*%
%ADD13R,1.137500X1.137500*%
%ADD14R,1.700000X1.700000*%
%ADD15O,1.700000X1.700000*%
%ADD16RoundRect,0.147500X0.147500X0.172500X-0.147500X0.172500X-0.147500X-0.172500X0.147500X-0.172500X0*%
%ADD17RoundRect,0.147500X-0.172500X0.147500X-0.172500X-0.147500X0.172500X-0.147500X0.172500X0.147500X0*%
%ADD18RoundRect,0.147500X0.172500X-0.147500X0.172500X0.147500X-0.172500X0.147500X-0.172500X-0.147500X0*%
%ADD19RoundRect,0.147500X-0.147500X-0.172500X0.147500X-0.172500X0.147500X0.172500X-0.147500X0.172500X0*%
%ADD20C,0.762000*%
%ADD21RoundRect,0.050000X0.225000X0.050000X-0.225000X0.050000X-0.225000X-0.050000X0.225000X-0.050000X0*%
%ADD22RoundRect,0.050000X-0.050000X0.225000X-0.050000X-0.225000X0.050000X-0.225000X0.050000X0.225000X0*%
%ADD23C,2.400000*%
%ADD24R,1.900000X0.850000*%
%ADD25R,0.500000X0.300000*%
%ADD26C,1.574800*%
G04 APERTURE END LIST*
D10*
G04 #@! TO.C,U1*
X90620000Y-63838000D03*
X90620000Y-64238000D03*
X90620000Y-64638000D03*
X90620000Y-65038000D03*
X90620000Y-65438000D03*
X90620000Y-65838000D03*
X90620000Y-66238000D03*
X90620000Y-66638000D03*
X90620000Y-67038000D03*
X90620000Y-67438000D03*
X90620000Y-67838000D03*
X90620000Y-68238000D03*
X90620000Y-68638000D03*
X90620000Y-69038000D03*
X90620000Y-69438000D03*
X90620000Y-69838000D03*
X90620000Y-70238000D03*
X90620000Y-70638000D03*
X90620000Y-71038000D03*
X90620000Y-71438000D03*
X90620000Y-71838000D03*
X90620000Y-72238000D03*
X90620000Y-72638000D03*
X90620000Y-73038000D03*
X90620000Y-73438000D03*
D11*
X91720000Y-74538000D03*
X92120000Y-74538000D03*
X92520000Y-74538000D03*
X92920000Y-74538000D03*
X93320000Y-74538000D03*
X93720000Y-74538000D03*
X94120000Y-74538000D03*
X94520000Y-74538000D03*
X94920000Y-74538000D03*
X95320000Y-74538000D03*
X95720000Y-74538000D03*
X96120000Y-74538000D03*
X96520000Y-74538000D03*
X96920000Y-74538000D03*
X97320000Y-74538000D03*
X97720000Y-74538000D03*
X98120000Y-74538000D03*
X98520000Y-74538000D03*
X98920000Y-74538000D03*
X99320000Y-74538000D03*
X99720000Y-74538000D03*
X100120000Y-74538000D03*
X100520000Y-74538000D03*
X100920000Y-74538000D03*
X101320000Y-74538000D03*
D10*
X102420000Y-73438000D03*
X102420000Y-73038000D03*
X102420000Y-72638000D03*
X102420000Y-72238000D03*
X102420000Y-71838000D03*
X102420000Y-71438000D03*
X102420000Y-71038000D03*
X102420000Y-70638000D03*
X102420000Y-70238000D03*
X102420000Y-69838000D03*
X102420000Y-69438000D03*
X102420000Y-69038000D03*
X102420000Y-68638000D03*
X102420000Y-68238000D03*
X102420000Y-67838000D03*
X102420000Y-67438000D03*
X102420000Y-67038000D03*
X102420000Y-66638000D03*
X102420000Y-66238000D03*
X102420000Y-65838000D03*
X102420000Y-65438000D03*
X102420000Y-65038000D03*
X102420000Y-64638000D03*
X102420000Y-64238000D03*
X102420000Y-63838000D03*
D11*
X101320000Y-62738000D03*
X100920000Y-62738000D03*
X100520000Y-62738000D03*
X100120000Y-62738000D03*
X99720000Y-62738000D03*
X99320000Y-62738000D03*
X98920000Y-62738000D03*
X98520000Y-62738000D03*
X98120000Y-62738000D03*
X97720000Y-62738000D03*
X97320000Y-62738000D03*
X96920000Y-62738000D03*
X96520000Y-62738000D03*
X96120000Y-62738000D03*
X95720000Y-62738000D03*
X95320000Y-62738000D03*
X94920000Y-62738000D03*
X94520000Y-62738000D03*
X94120000Y-62738000D03*
X93720000Y-62738000D03*
X93320000Y-62738000D03*
X92920000Y-62738000D03*
X92520000Y-62738000D03*
X92120000Y-62738000D03*
X91720000Y-62738000D03*
D12*
X94813750Y-65794250D03*
D13*
X94813750Y-66931750D03*
X98226250Y-72619250D03*
X97088750Y-71481750D03*
D12*
X95951250Y-65794250D03*
D13*
X100501250Y-64656750D03*
D12*
X100501250Y-69206750D03*
D13*
X93676250Y-65794250D03*
D12*
X95951250Y-69206750D03*
X93676250Y-70344250D03*
D13*
X93676250Y-66931750D03*
D12*
X94813750Y-66931750D03*
D13*
X99363750Y-66931750D03*
D12*
X97088750Y-72619250D03*
X99363750Y-70344250D03*
X95951250Y-70344250D03*
X92538750Y-69206750D03*
X93676250Y-71481750D03*
D13*
X97088750Y-72619250D03*
D12*
X100501250Y-71481750D03*
D13*
X95951250Y-69206750D03*
X94813750Y-72619250D03*
X99363750Y-69206750D03*
X94813750Y-64656750D03*
D12*
X98226250Y-69206750D03*
D13*
X95951250Y-65794250D03*
X93676250Y-70344250D03*
X100501250Y-66931750D03*
D12*
X93676250Y-72619250D03*
X100501250Y-68069250D03*
X94813750Y-72619250D03*
X95951250Y-64656750D03*
X98226250Y-70344250D03*
D13*
X97088750Y-70344250D03*
X92538750Y-70344250D03*
D12*
X98226250Y-72619250D03*
X93676250Y-69206750D03*
D13*
X99363750Y-68069250D03*
X95951250Y-70344250D03*
D12*
X94813750Y-71481750D03*
X93676250Y-68069250D03*
X92538750Y-70344250D03*
D13*
X92538750Y-71481750D03*
D12*
X93676250Y-64656750D03*
D13*
X98226250Y-64656750D03*
X98226250Y-66931750D03*
X100501250Y-65794250D03*
D12*
X98226250Y-66931750D03*
X97088750Y-71481750D03*
X97088750Y-64656750D03*
X92538750Y-71481750D03*
X99363750Y-71481750D03*
D13*
X97088750Y-69206750D03*
X93676250Y-72619250D03*
X93676250Y-68069250D03*
D12*
X93676250Y-65794250D03*
X100501250Y-72619250D03*
X92538750Y-64656750D03*
D13*
X94813750Y-65794250D03*
X99363750Y-72619250D03*
X93676250Y-64656750D03*
X95951250Y-68069250D03*
X93676250Y-69206750D03*
D12*
X97088750Y-70344250D03*
D13*
X97088750Y-65794250D03*
D12*
X99363750Y-64656750D03*
D13*
X95951250Y-66931750D03*
D12*
X99363750Y-69206750D03*
D13*
X94813750Y-68069250D03*
X97088750Y-66931750D03*
X94813750Y-70344250D03*
D12*
X99363750Y-68069250D03*
D13*
X97088750Y-68069250D03*
X98226250Y-68069250D03*
D12*
X94813750Y-64656750D03*
D13*
X97088750Y-64656750D03*
D12*
X100501250Y-64656750D03*
D13*
X98226250Y-65794250D03*
D12*
X95951250Y-72619250D03*
D13*
X95951250Y-72619250D03*
D12*
X92538750Y-72619250D03*
X98226250Y-68069250D03*
D13*
X100501250Y-72619250D03*
X92538750Y-64656750D03*
D12*
X98226250Y-64656750D03*
D13*
X95951250Y-64656750D03*
D12*
X100501250Y-70344250D03*
X95951250Y-68069250D03*
D13*
X99363750Y-65794250D03*
D12*
X93676250Y-66931750D03*
X98226250Y-71481750D03*
X97088750Y-68069250D03*
D13*
X94813750Y-71481750D03*
X92538750Y-68069250D03*
X100501250Y-68069250D03*
X93676250Y-71481750D03*
X99363750Y-70344250D03*
X92538750Y-65794250D03*
D12*
X97088750Y-69206750D03*
D13*
X95951250Y-71481750D03*
D12*
X98226250Y-65794250D03*
D13*
X92538750Y-72619250D03*
X100501250Y-69206750D03*
X99363750Y-71481750D03*
X100501250Y-71481750D03*
D12*
X94813750Y-68069250D03*
D13*
X98226250Y-69206750D03*
X100501250Y-70344250D03*
D12*
X100501250Y-66931750D03*
X97088750Y-65794250D03*
X99363750Y-66931750D03*
X95951250Y-66931750D03*
D13*
X92538750Y-66931750D03*
D12*
X92538750Y-66931750D03*
D13*
X98226250Y-70344250D03*
X98226250Y-71481750D03*
X99363750Y-64656750D03*
D12*
X99363750Y-65794250D03*
X92538750Y-65794250D03*
D13*
X92538750Y-69206750D03*
X94813750Y-69206750D03*
D12*
X99363750Y-72619250D03*
X94813750Y-69206750D03*
X100501250Y-65794250D03*
X97088750Y-66931750D03*
X95951250Y-71481750D03*
X92538750Y-68069250D03*
X94813750Y-70344250D03*
G04 #@! TD*
D14*
G04 #@! TO.C,J2*
X85090000Y-84328000D03*
D15*
X85090000Y-81788000D03*
X87630000Y-84328000D03*
X87630000Y-81788000D03*
X90170000Y-84328000D03*
X90170000Y-81788000D03*
X92710000Y-84328000D03*
X92710000Y-81788000D03*
X95250000Y-84328000D03*
X95250000Y-81788000D03*
X97790000Y-84328000D03*
X97790000Y-81788000D03*
X100330000Y-84328000D03*
X100330000Y-81788000D03*
X102870000Y-84328000D03*
X102870000Y-81788000D03*
X105410000Y-84328000D03*
X105410000Y-81788000D03*
X107950000Y-84328000D03*
X107950000Y-81788000D03*
G04 #@! TD*
D16*
G04 #@! TO.C,C5*
X86360000Y-74676000D03*
X85390000Y-74676000D03*
G04 #@! TD*
D17*
G04 #@! TO.C,C8*
X102235000Y-77724000D03*
X102235000Y-78694000D03*
G04 #@! TD*
D16*
G04 #@! TO.C,C11*
X107442000Y-66548000D03*
X106472000Y-66548000D03*
G04 #@! TD*
D18*
G04 #@! TO.C,C12*
X98552000Y-60833000D03*
X98552000Y-59863000D03*
G04 #@! TD*
G04 #@! TO.C,C13*
X100457000Y-60833000D03*
X100457000Y-59863000D03*
G04 #@! TD*
D19*
G04 #@! TO.C,R1*
X106472000Y-65024000D03*
X107442000Y-65024000D03*
G04 #@! TD*
D20*
G04 #@! TO.C,GND1*
X98552000Y-77724000D03*
G04 #@! TD*
G04 #@! TO.C,GND6*
X106680000Y-59944000D03*
G04 #@! TD*
G04 #@! TO.C,J5*
X104267000Y-64135000D03*
G04 #@! TD*
G04 #@! TO.C,J6*
X88646000Y-63500000D03*
G04 #@! TD*
G04 #@! TO.C,J7*
X86614000Y-63754000D03*
G04 #@! TD*
G04 #@! TO.C,J9*
X104902000Y-68580000D03*
G04 #@! TD*
G04 #@! TO.C,J10*
X104648000Y-67564000D03*
G04 #@! TD*
G04 #@! TO.C,J11*
X86106000Y-75946000D03*
G04 #@! TD*
G04 #@! TO.C,J12*
X86106000Y-77216000D03*
G04 #@! TD*
G04 #@! TO.C,J15*
X103759000Y-66675000D03*
G04 #@! TD*
G04 #@! TO.C,J16*
X105156000Y-66548000D03*
G04 #@! TD*
G04 #@! TO.C,J17*
X108585000Y-73533000D03*
G04 #@! TD*
G04 #@! TO.C,J13*
X88646000Y-78232000D03*
G04 #@! TD*
G04 #@! TO.C,J18*
X92456000Y-60198000D03*
G04 #@! TD*
G04 #@! TO.C,J20*
X104140000Y-62738000D03*
G04 #@! TD*
G04 #@! TO.C,J21*
X108585000Y-70993000D03*
G04 #@! TD*
G04 #@! TO.C,GND5*
X106680000Y-74422000D03*
G04 #@! TD*
D19*
G04 #@! TO.C,C1*
X81580000Y-75438000D03*
X82550000Y-75438000D03*
G04 #@! TD*
D21*
G04 #@! TO.C,U9AB1*
X82145000Y-79486000D03*
X82145000Y-79086000D03*
X82145000Y-78686000D03*
X82145000Y-78286000D03*
X82145000Y-77886000D03*
X82145000Y-77486000D03*
D22*
X81645000Y-76986000D03*
X81245000Y-76986000D03*
X80845000Y-76986000D03*
X80445000Y-76986000D03*
X80045000Y-76986000D03*
X79645000Y-76986000D03*
D21*
X79145000Y-77486000D03*
X79145000Y-77886000D03*
X79145000Y-78286000D03*
X79145000Y-78686000D03*
X79145000Y-79086000D03*
X79145000Y-79486000D03*
D22*
X79645000Y-79986000D03*
X80045000Y-79986000D03*
X80445000Y-79986000D03*
X80845000Y-79986000D03*
X81245000Y-79986000D03*
X81645000Y-79986000D03*
G04 #@! TD*
D16*
G04 #@! TO.C,C3*
X79756000Y-75438000D03*
X78786000Y-75438000D03*
G04 #@! TD*
D17*
G04 #@! TO.C,C2*
X77470000Y-77851000D03*
X77470000Y-78821000D03*
G04 #@! TD*
D16*
G04 #@! TO.C,R2*
X110190000Y-63246000D03*
X109220000Y-63246000D03*
G04 #@! TD*
D19*
G04 #@! TO.C,R3*
X109220000Y-65278000D03*
X110190000Y-65278000D03*
G04 #@! TD*
D20*
G04 #@! TO.C,GND4*
X107188000Y-62992000D03*
G04 #@! TD*
D17*
G04 #@! TO.C,C7*
X108204000Y-60706000D03*
X108204000Y-61676000D03*
G04 #@! TD*
D20*
G04 #@! TO.C,J19*
X93726000Y-60198000D03*
G04 #@! TD*
D17*
G04 #@! TO.C,C6*
X110236000Y-60706000D03*
X110236000Y-61676000D03*
G04 #@! TD*
D20*
G04 #@! TO.C,J14*
X91186000Y-60198000D03*
G04 #@! TD*
G04 #@! TO.C,GND3*
X90678000Y-76962000D03*
G04 #@! TD*
D16*
G04 #@! TO.C,C4*
X86337000Y-78740000D03*
X85367000Y-78740000D03*
G04 #@! TD*
D14*
G04 #@! TO.C,J1*
X84455000Y-57023000D03*
D15*
X84455000Y-54483000D03*
X86995000Y-57023000D03*
X86995000Y-54483000D03*
X89535000Y-57023000D03*
X89535000Y-54483000D03*
X92075000Y-57023000D03*
X92075000Y-54483000D03*
X94615000Y-57023000D03*
X94615000Y-54483000D03*
X97155000Y-57023000D03*
X97155000Y-54483000D03*
X99695000Y-57023000D03*
X99695000Y-54483000D03*
X102235000Y-57023000D03*
X102235000Y-54483000D03*
X104775000Y-57023000D03*
X104775000Y-54483000D03*
X107315000Y-57023000D03*
X107315000Y-54483000D03*
X109855000Y-57023000D03*
X109855000Y-54483000D03*
G04 #@! TD*
D17*
G04 #@! TO.C,C9*
X103632000Y-77770000D03*
X103632000Y-78740000D03*
G04 #@! TD*
D23*
G04 #@! TO.C,J4*
X82804000Y-69469000D03*
X80264000Y-66929000D03*
X85344000Y-66929000D03*
X80264000Y-72009000D03*
X85344000Y-72009000D03*
G04 #@! TD*
D20*
G04 #@! TO.C,GND2*
X84328000Y-76708000D03*
G04 #@! TD*
D17*
G04 #@! TO.C,R4*
X96774000Y-59990000D03*
X96774000Y-60960000D03*
G04 #@! TD*
D18*
G04 #@! TO.C,C10*
X94996000Y-60914000D03*
X94996000Y-59944000D03*
G04 #@! TD*
D16*
G04 #@! TO.C,C_1.8_OUT1*
X81996000Y-61976000D03*
X81026000Y-61976000D03*
G04 #@! TD*
D24*
G04 #@! TO.C,L1*
X79248000Y-62558000D03*
X79248000Y-64008000D03*
G04 #@! TD*
D17*
G04 #@! TO.C,C_1.8_IN1*
X83820000Y-63292000D03*
X83820000Y-64262000D03*
G04 #@! TD*
D25*
G04 #@! TO.C,U3*
X86106000Y-60960000D03*
X86106000Y-60460000D03*
X86106000Y-59960000D03*
X84306000Y-59960000D03*
X84306000Y-60460000D03*
X84306000Y-60960000D03*
G04 #@! TD*
D18*
G04 #@! TO.C,C_1.1_IN1*
X83312000Y-60706000D03*
X83312000Y-59736000D03*
G04 #@! TD*
D24*
G04 #@! TO.C,L2*
X87884000Y-61468000D03*
X87884000Y-60018000D03*
G04 #@! TD*
D19*
G04 #@! TO.C,C_1.1_OUT1*
X85136000Y-61976000D03*
X86106000Y-61976000D03*
G04 #@! TD*
D25*
G04 #@! TO.C,U2*
X81004000Y-63008000D03*
X81004000Y-63508000D03*
X81004000Y-64008000D03*
X82804000Y-64008000D03*
X82804000Y-63508000D03*
X82804000Y-63008000D03*
G04 #@! TD*
D20*
G04 #@! TO.C,J8*
X85090000Y-63754000D03*
G04 #@! TD*
D14*
G04 #@! TO.C,J3*
X114300000Y-57404000D03*
D15*
X114300000Y-59944000D03*
X114300000Y-62484000D03*
X114300000Y-65024000D03*
X114300000Y-67564000D03*
X114300000Y-70104000D03*
X114300000Y-72644000D03*
X114300000Y-75184000D03*
X114300000Y-77724000D03*
X114300000Y-80264000D03*
G04 #@! TD*
D26*
G04 #@! TO.C,B1*
X88392000Y-67310000D03*
X108889800Y-67310000D03*
G04 #@! TD*
M02*
