%TF.GenerationSoftware,KiCad,Pcbnew,(5.1.6)-1*%
%TF.CreationDate,2021-01-23T06:31:54-08:00*%
%TF.ProjectId,scum3c-devboard,7363756d-3363-42d6-9465-76626f617264,rev?*%
%TF.SameCoordinates,Original*%
%TF.FileFunction,Soldermask,Top*%
%TF.FilePolarity,Negative*%
%FSLAX46Y46*%
G04 Gerber Fmt 4.6, Leading zero omitted, Abs format (unit mm)*
G04 Created by KiCad (PCBNEW (5.1.6)-1) date 2021-01-23 06:31:54*
%MOMM*%
%LPD*%
G01*
G04 APERTURE LIST*
%ADD10O,1.000000X1.000000*%
%ADD11R,1.000000X1.000000*%
%ADD12C,0.568750*%
%ADD13R,1.137500X1.137500*%
%ADD14O,0.200000X0.800000*%
%ADD15O,0.800000X0.200000*%
%ADD16R,0.900000X1.200000*%
%ADD17R,1.350000X3.500000*%
%ADD18R,3.170000X3.170000*%
G04 APERTURE END LIST*
%TO.C,C25*%
G36*
G01*
X90235000Y-92672500D02*
X90235000Y-92327500D01*
G75*
G02*
X90382500Y-92180000I147500J0D01*
G01*
X90677500Y-92180000D01*
G75*
G02*
X90825000Y-92327500I0J-147500D01*
G01*
X90825000Y-92672500D01*
G75*
G02*
X90677500Y-92820000I-147500J0D01*
G01*
X90382500Y-92820000D01*
G75*
G02*
X90235000Y-92672500I0J147500D01*
G01*
G37*
G36*
G01*
X91205000Y-92672500D02*
X91205000Y-92327500D01*
G75*
G02*
X91352500Y-92180000I147500J0D01*
G01*
X91647500Y-92180000D01*
G75*
G02*
X91795000Y-92327500I0J-147500D01*
G01*
X91795000Y-92672500D01*
G75*
G02*
X91647500Y-92820000I-147500J0D01*
G01*
X91352500Y-92820000D01*
G75*
G02*
X91205000Y-92672500I0J147500D01*
G01*
G37*
%TD*%
%TO.C,C26*%
G36*
G01*
X91795000Y-90327500D02*
X91795000Y-90672500D01*
G75*
G02*
X91647500Y-90820000I-147500J0D01*
G01*
X91352500Y-90820000D01*
G75*
G02*
X91205000Y-90672500I0J147500D01*
G01*
X91205000Y-90327500D01*
G75*
G02*
X91352500Y-90180000I147500J0D01*
G01*
X91647500Y-90180000D01*
G75*
G02*
X91795000Y-90327500I0J-147500D01*
G01*
G37*
G36*
G01*
X90825000Y-90327500D02*
X90825000Y-90672500D01*
G75*
G02*
X90677500Y-90820000I-147500J0D01*
G01*
X90382500Y-90820000D01*
G75*
G02*
X90235000Y-90672500I0J147500D01*
G01*
X90235000Y-90327500D01*
G75*
G02*
X90382500Y-90180000I147500J0D01*
G01*
X90677500Y-90180000D01*
G75*
G02*
X90825000Y-90327500I0J-147500D01*
G01*
G37*
%TD*%
%TO.C,U9AB1*%
G36*
G01*
X89650000Y-84275000D02*
X89550000Y-84275000D01*
G75*
G02*
X89500000Y-84225000I0J50000D01*
G01*
X89500000Y-83775000D01*
G75*
G02*
X89550000Y-83725000I50000J0D01*
G01*
X89650000Y-83725000D01*
G75*
G02*
X89700000Y-83775000I0J-50000D01*
G01*
X89700000Y-84225000D01*
G75*
G02*
X89650000Y-84275000I-50000J0D01*
G01*
G37*
G36*
G01*
X90050000Y-84275000D02*
X89950000Y-84275000D01*
G75*
G02*
X89900000Y-84225000I0J50000D01*
G01*
X89900000Y-83775000D01*
G75*
G02*
X89950000Y-83725000I50000J0D01*
G01*
X90050000Y-83725000D01*
G75*
G02*
X90100000Y-83775000I0J-50000D01*
G01*
X90100000Y-84225000D01*
G75*
G02*
X90050000Y-84275000I-50000J0D01*
G01*
G37*
G36*
G01*
X90450000Y-84275000D02*
X90350000Y-84275000D01*
G75*
G02*
X90300000Y-84225000I0J50000D01*
G01*
X90300000Y-83775000D01*
G75*
G02*
X90350000Y-83725000I50000J0D01*
G01*
X90450000Y-83725000D01*
G75*
G02*
X90500000Y-83775000I0J-50000D01*
G01*
X90500000Y-84225000D01*
G75*
G02*
X90450000Y-84275000I-50000J0D01*
G01*
G37*
G36*
G01*
X90850000Y-84275000D02*
X90750000Y-84275000D01*
G75*
G02*
X90700000Y-84225000I0J50000D01*
G01*
X90700000Y-83775000D01*
G75*
G02*
X90750000Y-83725000I50000J0D01*
G01*
X90850000Y-83725000D01*
G75*
G02*
X90900000Y-83775000I0J-50000D01*
G01*
X90900000Y-84225000D01*
G75*
G02*
X90850000Y-84275000I-50000J0D01*
G01*
G37*
G36*
G01*
X91250000Y-84275000D02*
X91150000Y-84275000D01*
G75*
G02*
X91100000Y-84225000I0J50000D01*
G01*
X91100000Y-83775000D01*
G75*
G02*
X91150000Y-83725000I50000J0D01*
G01*
X91250000Y-83725000D01*
G75*
G02*
X91300000Y-83775000I0J-50000D01*
G01*
X91300000Y-84225000D01*
G75*
G02*
X91250000Y-84275000I-50000J0D01*
G01*
G37*
G36*
G01*
X91650000Y-84275000D02*
X91550000Y-84275000D01*
G75*
G02*
X91500000Y-84225000I0J50000D01*
G01*
X91500000Y-83775000D01*
G75*
G02*
X91550000Y-83725000I50000J0D01*
G01*
X91650000Y-83725000D01*
G75*
G02*
X91700000Y-83775000I0J-50000D01*
G01*
X91700000Y-84225000D01*
G75*
G02*
X91650000Y-84275000I-50000J0D01*
G01*
G37*
G36*
G01*
X91825000Y-84550000D02*
X91825000Y-84450000D01*
G75*
G02*
X91875000Y-84400000I50000J0D01*
G01*
X92325000Y-84400000D01*
G75*
G02*
X92375000Y-84450000I0J-50000D01*
G01*
X92375000Y-84550000D01*
G75*
G02*
X92325000Y-84600000I-50000J0D01*
G01*
X91875000Y-84600000D01*
G75*
G02*
X91825000Y-84550000I0J50000D01*
G01*
G37*
G36*
G01*
X91825000Y-84950000D02*
X91825000Y-84850000D01*
G75*
G02*
X91875000Y-84800000I50000J0D01*
G01*
X92325000Y-84800000D01*
G75*
G02*
X92375000Y-84850000I0J-50000D01*
G01*
X92375000Y-84950000D01*
G75*
G02*
X92325000Y-85000000I-50000J0D01*
G01*
X91875000Y-85000000D01*
G75*
G02*
X91825000Y-84950000I0J50000D01*
G01*
G37*
G36*
G01*
X91825000Y-85350000D02*
X91825000Y-85250000D01*
G75*
G02*
X91875000Y-85200000I50000J0D01*
G01*
X92325000Y-85200000D01*
G75*
G02*
X92375000Y-85250000I0J-50000D01*
G01*
X92375000Y-85350000D01*
G75*
G02*
X92325000Y-85400000I-50000J0D01*
G01*
X91875000Y-85400000D01*
G75*
G02*
X91825000Y-85350000I0J50000D01*
G01*
G37*
G36*
G01*
X91825000Y-85750000D02*
X91825000Y-85650000D01*
G75*
G02*
X91875000Y-85600000I50000J0D01*
G01*
X92325000Y-85600000D01*
G75*
G02*
X92375000Y-85650000I0J-50000D01*
G01*
X92375000Y-85750000D01*
G75*
G02*
X92325000Y-85800000I-50000J0D01*
G01*
X91875000Y-85800000D01*
G75*
G02*
X91825000Y-85750000I0J50000D01*
G01*
G37*
G36*
G01*
X91825000Y-86150000D02*
X91825000Y-86050000D01*
G75*
G02*
X91875000Y-86000000I50000J0D01*
G01*
X92325000Y-86000000D01*
G75*
G02*
X92375000Y-86050000I0J-50000D01*
G01*
X92375000Y-86150000D01*
G75*
G02*
X92325000Y-86200000I-50000J0D01*
G01*
X91875000Y-86200000D01*
G75*
G02*
X91825000Y-86150000I0J50000D01*
G01*
G37*
G36*
G01*
X91825000Y-86550000D02*
X91825000Y-86450000D01*
G75*
G02*
X91875000Y-86400000I50000J0D01*
G01*
X92325000Y-86400000D01*
G75*
G02*
X92375000Y-86450000I0J-50000D01*
G01*
X92375000Y-86550000D01*
G75*
G02*
X92325000Y-86600000I-50000J0D01*
G01*
X91875000Y-86600000D01*
G75*
G02*
X91825000Y-86550000I0J50000D01*
G01*
G37*
G36*
G01*
X91650000Y-87275000D02*
X91550000Y-87275000D01*
G75*
G02*
X91500000Y-87225000I0J50000D01*
G01*
X91500000Y-86775000D01*
G75*
G02*
X91550000Y-86725000I50000J0D01*
G01*
X91650000Y-86725000D01*
G75*
G02*
X91700000Y-86775000I0J-50000D01*
G01*
X91700000Y-87225000D01*
G75*
G02*
X91650000Y-87275000I-50000J0D01*
G01*
G37*
G36*
G01*
X91250000Y-87275000D02*
X91150000Y-87275000D01*
G75*
G02*
X91100000Y-87225000I0J50000D01*
G01*
X91100000Y-86775000D01*
G75*
G02*
X91150000Y-86725000I50000J0D01*
G01*
X91250000Y-86725000D01*
G75*
G02*
X91300000Y-86775000I0J-50000D01*
G01*
X91300000Y-87225000D01*
G75*
G02*
X91250000Y-87275000I-50000J0D01*
G01*
G37*
G36*
G01*
X90850000Y-87275000D02*
X90750000Y-87275000D01*
G75*
G02*
X90700000Y-87225000I0J50000D01*
G01*
X90700000Y-86775000D01*
G75*
G02*
X90750000Y-86725000I50000J0D01*
G01*
X90850000Y-86725000D01*
G75*
G02*
X90900000Y-86775000I0J-50000D01*
G01*
X90900000Y-87225000D01*
G75*
G02*
X90850000Y-87275000I-50000J0D01*
G01*
G37*
G36*
G01*
X90450000Y-87275000D02*
X90350000Y-87275000D01*
G75*
G02*
X90300000Y-87225000I0J50000D01*
G01*
X90300000Y-86775000D01*
G75*
G02*
X90350000Y-86725000I50000J0D01*
G01*
X90450000Y-86725000D01*
G75*
G02*
X90500000Y-86775000I0J-50000D01*
G01*
X90500000Y-87225000D01*
G75*
G02*
X90450000Y-87275000I-50000J0D01*
G01*
G37*
G36*
G01*
X90050000Y-87275000D02*
X89950000Y-87275000D01*
G75*
G02*
X89900000Y-87225000I0J50000D01*
G01*
X89900000Y-86775000D01*
G75*
G02*
X89950000Y-86725000I50000J0D01*
G01*
X90050000Y-86725000D01*
G75*
G02*
X90100000Y-86775000I0J-50000D01*
G01*
X90100000Y-87225000D01*
G75*
G02*
X90050000Y-87275000I-50000J0D01*
G01*
G37*
G36*
G01*
X89650000Y-87275000D02*
X89550000Y-87275000D01*
G75*
G02*
X89500000Y-87225000I0J50000D01*
G01*
X89500000Y-86775000D01*
G75*
G02*
X89550000Y-86725000I50000J0D01*
G01*
X89650000Y-86725000D01*
G75*
G02*
X89700000Y-86775000I0J-50000D01*
G01*
X89700000Y-87225000D01*
G75*
G02*
X89650000Y-87275000I-50000J0D01*
G01*
G37*
G36*
G01*
X88825000Y-86550000D02*
X88825000Y-86450000D01*
G75*
G02*
X88875000Y-86400000I50000J0D01*
G01*
X89325000Y-86400000D01*
G75*
G02*
X89375000Y-86450000I0J-50000D01*
G01*
X89375000Y-86550000D01*
G75*
G02*
X89325000Y-86600000I-50000J0D01*
G01*
X88875000Y-86600000D01*
G75*
G02*
X88825000Y-86550000I0J50000D01*
G01*
G37*
G36*
G01*
X88825000Y-86150000D02*
X88825000Y-86050000D01*
G75*
G02*
X88875000Y-86000000I50000J0D01*
G01*
X89325000Y-86000000D01*
G75*
G02*
X89375000Y-86050000I0J-50000D01*
G01*
X89375000Y-86150000D01*
G75*
G02*
X89325000Y-86200000I-50000J0D01*
G01*
X88875000Y-86200000D01*
G75*
G02*
X88825000Y-86150000I0J50000D01*
G01*
G37*
G36*
G01*
X88825000Y-85750000D02*
X88825000Y-85650000D01*
G75*
G02*
X88875000Y-85600000I50000J0D01*
G01*
X89325000Y-85600000D01*
G75*
G02*
X89375000Y-85650000I0J-50000D01*
G01*
X89375000Y-85750000D01*
G75*
G02*
X89325000Y-85800000I-50000J0D01*
G01*
X88875000Y-85800000D01*
G75*
G02*
X88825000Y-85750000I0J50000D01*
G01*
G37*
G36*
G01*
X88825000Y-85350000D02*
X88825000Y-85250000D01*
G75*
G02*
X88875000Y-85200000I50000J0D01*
G01*
X89325000Y-85200000D01*
G75*
G02*
X89375000Y-85250000I0J-50000D01*
G01*
X89375000Y-85350000D01*
G75*
G02*
X89325000Y-85400000I-50000J0D01*
G01*
X88875000Y-85400000D01*
G75*
G02*
X88825000Y-85350000I0J50000D01*
G01*
G37*
G36*
G01*
X88825000Y-84950000D02*
X88825000Y-84850000D01*
G75*
G02*
X88875000Y-84800000I50000J0D01*
G01*
X89325000Y-84800000D01*
G75*
G02*
X89375000Y-84850000I0J-50000D01*
G01*
X89375000Y-84950000D01*
G75*
G02*
X89325000Y-85000000I-50000J0D01*
G01*
X88875000Y-85000000D01*
G75*
G02*
X88825000Y-84950000I0J50000D01*
G01*
G37*
G36*
G01*
X88825000Y-84550000D02*
X88825000Y-84450000D01*
G75*
G02*
X88875000Y-84400000I50000J0D01*
G01*
X89325000Y-84400000D01*
G75*
G02*
X89375000Y-84450000I0J-50000D01*
G01*
X89375000Y-84550000D01*
G75*
G02*
X89325000Y-84600000I-50000J0D01*
G01*
X88875000Y-84600000D01*
G75*
G02*
X88825000Y-84550000I0J50000D01*
G01*
G37*
%TD*%
D10*
%TO.C,J2*%
X90770000Y-101310000D03*
X89500000Y-101310000D03*
X90770000Y-100040000D03*
X89500000Y-100040000D03*
X90770000Y-98770000D03*
X89500000Y-98770000D03*
X90770000Y-97500000D03*
D11*
X89500000Y-97500000D03*
%TD*%
D10*
%TO.C,JA1*%
X111510000Y-105500000D03*
X110240000Y-105500000D03*
X108970000Y-105500000D03*
X107700000Y-105500000D03*
X106430000Y-105500000D03*
X105160000Y-105500000D03*
X103890000Y-105500000D03*
X102620000Y-105500000D03*
X101350000Y-105500000D03*
X100080000Y-105500000D03*
X98810000Y-105500000D03*
X97540000Y-105500000D03*
X96270000Y-105500000D03*
X95000000Y-105500000D03*
D11*
X93730000Y-105500000D03*
%TD*%
%TO.C,C27*%
G36*
G01*
X90235000Y-95172500D02*
X90235000Y-94827500D01*
G75*
G02*
X90382500Y-94680000I147500J0D01*
G01*
X90677500Y-94680000D01*
G75*
G02*
X90825000Y-94827500I0J-147500D01*
G01*
X90825000Y-95172500D01*
G75*
G02*
X90677500Y-95320000I-147500J0D01*
G01*
X90382500Y-95320000D01*
G75*
G02*
X90235000Y-95172500I0J147500D01*
G01*
G37*
G36*
G01*
X91205000Y-95172500D02*
X91205000Y-94827500D01*
G75*
G02*
X91352500Y-94680000I147500J0D01*
G01*
X91647500Y-94680000D01*
G75*
G02*
X91795000Y-94827500I0J-147500D01*
G01*
X91795000Y-95172500D01*
G75*
G02*
X91647500Y-95320000I-147500J0D01*
G01*
X91352500Y-95320000D01*
G75*
G02*
X91205000Y-95172500I0J147500D01*
G01*
G37*
%TD*%
%TO.C,R2*%
G36*
G01*
X94827500Y-80190000D02*
X95172500Y-80190000D01*
G75*
G02*
X95320000Y-80337500I0J-147500D01*
G01*
X95320000Y-80632500D01*
G75*
G02*
X95172500Y-80780000I-147500J0D01*
G01*
X94827500Y-80780000D01*
G75*
G02*
X94680000Y-80632500I0J147500D01*
G01*
X94680000Y-80337500D01*
G75*
G02*
X94827500Y-80190000I147500J0D01*
G01*
G37*
G36*
G01*
X94827500Y-79220000D02*
X95172500Y-79220000D01*
G75*
G02*
X95320000Y-79367500I0J-147500D01*
G01*
X95320000Y-79662500D01*
G75*
G02*
X95172500Y-79810000I-147500J0D01*
G01*
X94827500Y-79810000D01*
G75*
G02*
X94680000Y-79662500I0J147500D01*
G01*
X94680000Y-79367500D01*
G75*
G02*
X94827500Y-79220000I147500J0D01*
G01*
G37*
%TD*%
%TO.C,R1*%
G36*
G01*
X93172500Y-79810000D02*
X92827500Y-79810000D01*
G75*
G02*
X92680000Y-79662500I0J147500D01*
G01*
X92680000Y-79367500D01*
G75*
G02*
X92827500Y-79220000I147500J0D01*
G01*
X93172500Y-79220000D01*
G75*
G02*
X93320000Y-79367500I0J-147500D01*
G01*
X93320000Y-79662500D01*
G75*
G02*
X93172500Y-79810000I-147500J0D01*
G01*
G37*
G36*
G01*
X93172500Y-80780000D02*
X92827500Y-80780000D01*
G75*
G02*
X92680000Y-80632500I0J147500D01*
G01*
X92680000Y-80337500D01*
G75*
G02*
X92827500Y-80190000I147500J0D01*
G01*
X93172500Y-80190000D01*
G75*
G02*
X93320000Y-80337500I0J-147500D01*
G01*
X93320000Y-80632500D01*
G75*
G02*
X93172500Y-80780000I-147500J0D01*
G01*
G37*
%TD*%
D10*
%TO.C,JB1*%
X115500000Y-101470000D03*
X115500000Y-100200000D03*
X115500000Y-98930000D03*
X115500000Y-97660000D03*
X115500000Y-96390000D03*
X115500000Y-95120000D03*
X115500000Y-93850000D03*
X115500000Y-92580000D03*
X115500000Y-91310000D03*
X115500000Y-90040000D03*
X115500000Y-88770000D03*
D11*
X115500000Y-87500000D03*
%TD*%
%TO.C,R13*%
G36*
G01*
X111190000Y-88172500D02*
X111190000Y-87827500D01*
G75*
G02*
X111337500Y-87680000I147500J0D01*
G01*
X111632500Y-87680000D01*
G75*
G02*
X111780000Y-87827500I0J-147500D01*
G01*
X111780000Y-88172500D01*
G75*
G02*
X111632500Y-88320000I-147500J0D01*
G01*
X111337500Y-88320000D01*
G75*
G02*
X111190000Y-88172500I0J147500D01*
G01*
G37*
G36*
G01*
X110220000Y-88172500D02*
X110220000Y-87827500D01*
G75*
G02*
X110367500Y-87680000I147500J0D01*
G01*
X110662500Y-87680000D01*
G75*
G02*
X110810000Y-87827500I0J-147500D01*
G01*
X110810000Y-88172500D01*
G75*
G02*
X110662500Y-88320000I-147500J0D01*
G01*
X110367500Y-88320000D01*
G75*
G02*
X110220000Y-88172500I0J147500D01*
G01*
G37*
%TD*%
%TO.C,C24*%
G36*
G01*
X98295000Y-84827500D02*
X98295000Y-85172500D01*
G75*
G02*
X98147500Y-85320000I-147500J0D01*
G01*
X97852500Y-85320000D01*
G75*
G02*
X97705000Y-85172500I0J147500D01*
G01*
X97705000Y-84827500D01*
G75*
G02*
X97852500Y-84680000I147500J0D01*
G01*
X98147500Y-84680000D01*
G75*
G02*
X98295000Y-84827500I0J-147500D01*
G01*
G37*
G36*
G01*
X97325000Y-84827500D02*
X97325000Y-85172500D01*
G75*
G02*
X97177500Y-85320000I-147500J0D01*
G01*
X96882500Y-85320000D01*
G75*
G02*
X96735000Y-85172500I0J147500D01*
G01*
X96735000Y-84827500D01*
G75*
G02*
X96882500Y-84680000I147500J0D01*
G01*
X97177500Y-84680000D01*
G75*
G02*
X97325000Y-84827500I0J-147500D01*
G01*
G37*
%TD*%
D12*
%TO.C,U8*%
X106412500Y-97187500D03*
X106412500Y-96050000D03*
X106412500Y-94912500D03*
X106412500Y-93775000D03*
X106412500Y-92637500D03*
X106412500Y-91500000D03*
X106412500Y-90362500D03*
X106412500Y-89225000D03*
X105275000Y-97187500D03*
X105275000Y-96050000D03*
X105275000Y-94912500D03*
X105275000Y-93775000D03*
X105275000Y-92637500D03*
X105275000Y-91500000D03*
X105275000Y-90362500D03*
X105275000Y-89225000D03*
X104137500Y-97187500D03*
X104137500Y-96050000D03*
X104137500Y-94912500D03*
X104137500Y-93775000D03*
X104137500Y-92637500D03*
X104137500Y-91500000D03*
X104137500Y-90362500D03*
X104137500Y-89225000D03*
X103000000Y-97187500D03*
X103000000Y-96050000D03*
X103000000Y-94912500D03*
X103000000Y-93775000D03*
X103000000Y-92637500D03*
X103000000Y-91500000D03*
X103000000Y-90362500D03*
X103000000Y-89225000D03*
X101862500Y-97187500D03*
X101862500Y-96050000D03*
X101862500Y-94912500D03*
X101862500Y-93775000D03*
X101862500Y-92637500D03*
X101862500Y-91500000D03*
X101862500Y-90362500D03*
X101862500Y-89225000D03*
X100725000Y-97187500D03*
X100725000Y-96050000D03*
X100725000Y-94912500D03*
X100725000Y-93775000D03*
X100725000Y-92637500D03*
X100725000Y-91500000D03*
X100725000Y-90362500D03*
X100725000Y-89225000D03*
X99587500Y-97187500D03*
X99587500Y-96050000D03*
X99587500Y-94912500D03*
X99587500Y-93775000D03*
X99587500Y-92637500D03*
X99587500Y-91500000D03*
X99587500Y-90362500D03*
X99587500Y-89225000D03*
X98450000Y-97187500D03*
X98450000Y-96050000D03*
X98450000Y-94912500D03*
X98450000Y-93775000D03*
X98450000Y-92637500D03*
X98450000Y-91500000D03*
X98450000Y-90362500D03*
X98450000Y-89225000D03*
D13*
X106412500Y-97187500D03*
X106412500Y-96050000D03*
X106412500Y-94912500D03*
X106412500Y-93775000D03*
X106412500Y-92637500D03*
X106412500Y-91500000D03*
X106412500Y-90362500D03*
X106412500Y-89225000D03*
X105275000Y-97187500D03*
X105275000Y-96050000D03*
X105275000Y-94912500D03*
X105275000Y-93775000D03*
X105275000Y-92637500D03*
X105275000Y-91500000D03*
X105275000Y-90362500D03*
X105275000Y-89225000D03*
X104137500Y-97187500D03*
X104137500Y-96050000D03*
X104137500Y-94912500D03*
X104137500Y-93775000D03*
X104137500Y-92637500D03*
X104137500Y-91500000D03*
X104137500Y-90362500D03*
X104137500Y-89225000D03*
X103000000Y-97187500D03*
X103000000Y-96050000D03*
X103000000Y-94912500D03*
X103000000Y-93775000D03*
X103000000Y-92637500D03*
X103000000Y-91500000D03*
X103000000Y-90362500D03*
X103000000Y-89225000D03*
X101862500Y-97187500D03*
X101862500Y-96050000D03*
X101862500Y-94912500D03*
X101862500Y-93775000D03*
X101862500Y-92637500D03*
X101862500Y-91500000D03*
X101862500Y-90362500D03*
X101862500Y-89225000D03*
X100725000Y-97187500D03*
X100725000Y-96050000D03*
X100725000Y-94912500D03*
X100725000Y-93775000D03*
X100725000Y-92637500D03*
X100725000Y-91500000D03*
X100725000Y-90362500D03*
X100725000Y-89225000D03*
X99587500Y-97187500D03*
X99587500Y-96050000D03*
X99587500Y-94912500D03*
X99587500Y-93775000D03*
X99587500Y-92637500D03*
X99587500Y-91500000D03*
X99587500Y-90362500D03*
X99587500Y-89225000D03*
X98450000Y-97187500D03*
X98450000Y-96050000D03*
X98450000Y-94912500D03*
X98450000Y-93775000D03*
X98450000Y-92637500D03*
X98450000Y-91500000D03*
X98450000Y-90362500D03*
X98450000Y-89225000D03*
D14*
X97631250Y-87306250D03*
X98031250Y-87306250D03*
X98431250Y-87306250D03*
X98831250Y-87306250D03*
X99231250Y-87306250D03*
X99631250Y-87306250D03*
X100031250Y-87306250D03*
X100431250Y-87306250D03*
X100831250Y-87306250D03*
X101231250Y-87306250D03*
X101631250Y-87306250D03*
X102031250Y-87306250D03*
X102431250Y-87306250D03*
X102831250Y-87306250D03*
X103231250Y-87306250D03*
X103631250Y-87306250D03*
X104031250Y-87306250D03*
X104431250Y-87306250D03*
X104831250Y-87306250D03*
X105231250Y-87306250D03*
X105631250Y-87306250D03*
X106031250Y-87306250D03*
X106431250Y-87306250D03*
X106831250Y-87306250D03*
X107231250Y-87306250D03*
D15*
X108331250Y-88406250D03*
X108331250Y-88806250D03*
X108331250Y-89206250D03*
X108331250Y-89606250D03*
X108331250Y-90006250D03*
X108331250Y-90406250D03*
X108331250Y-90806250D03*
X108331250Y-91206250D03*
X108331250Y-91606250D03*
X108331250Y-92006250D03*
X108331250Y-92406250D03*
X108331250Y-92806250D03*
X108331250Y-93206250D03*
X108331250Y-93606250D03*
X108331250Y-94006250D03*
X108331250Y-94406250D03*
X108331250Y-94806250D03*
X108331250Y-95206250D03*
X108331250Y-95606250D03*
X108331250Y-96006250D03*
X108331250Y-96406250D03*
X108331250Y-96806250D03*
X108331250Y-97206250D03*
X108331250Y-97606250D03*
X108331250Y-98006250D03*
D14*
X107231250Y-99106250D03*
X106831250Y-99106250D03*
X106431250Y-99106250D03*
X106031250Y-99106250D03*
X105631250Y-99106250D03*
X105231250Y-99106250D03*
X104831250Y-99106250D03*
X104431250Y-99106250D03*
X104031250Y-99106250D03*
X103631250Y-99106250D03*
X103231250Y-99106250D03*
X102831250Y-99106250D03*
X102431250Y-99106250D03*
X102031250Y-99106250D03*
X101631250Y-99106250D03*
X101231250Y-99106250D03*
X100831250Y-99106250D03*
X100431250Y-99106250D03*
X100031250Y-99106250D03*
X99631250Y-99106250D03*
X99231250Y-99106250D03*
X98831250Y-99106250D03*
X98431250Y-99106250D03*
X98031250Y-99106250D03*
X97631250Y-99106250D03*
D15*
X96531250Y-98006250D03*
X96531250Y-97606250D03*
X96531250Y-97206250D03*
X96531250Y-96806250D03*
X96531250Y-96406250D03*
X96531250Y-96006250D03*
X96531250Y-95606250D03*
X96531250Y-95206250D03*
X96531250Y-94806250D03*
X96531250Y-94406250D03*
X96531250Y-94006250D03*
X96531250Y-93606250D03*
X96531250Y-93206250D03*
X96531250Y-92806250D03*
X96531250Y-92406250D03*
X96531250Y-92006250D03*
X96531250Y-91606250D03*
X96531250Y-91206250D03*
X96531250Y-90806250D03*
X96531250Y-90406250D03*
X96531250Y-90006250D03*
X96531250Y-89606250D03*
X96531250Y-89206250D03*
X96531250Y-88806250D03*
X96531250Y-88406250D03*
%TD*%
D16*
%TO.C,LED1*%
X112000000Y-93000000D03*
X112000000Y-95100000D03*
%TD*%
D17*
%TO.C,BT1*%
X110850000Y-82000000D03*
D18*
X107000000Y-82000000D03*
D17*
X103150000Y-82000000D03*
%TD*%
%TO.C,R14*%
G36*
G01*
X93825000Y-92327500D02*
X93825000Y-92672500D01*
G75*
G02*
X93677500Y-92820000I-147500J0D01*
G01*
X93382500Y-92820000D01*
G75*
G02*
X93235000Y-92672500I0J147500D01*
G01*
X93235000Y-92327500D01*
G75*
G02*
X93382500Y-92180000I147500J0D01*
G01*
X93677500Y-92180000D01*
G75*
G02*
X93825000Y-92327500I0J-147500D01*
G01*
G37*
G36*
G01*
X94795000Y-92327500D02*
X94795000Y-92672500D01*
G75*
G02*
X94647500Y-92820000I-147500J0D01*
G01*
X94352500Y-92820000D01*
G75*
G02*
X94205000Y-92672500I0J147500D01*
G01*
X94205000Y-92327500D01*
G75*
G02*
X94352500Y-92180000I147500J0D01*
G01*
X94647500Y-92180000D01*
G75*
G02*
X94795000Y-92327500I0J-147500D01*
G01*
G37*
%TD*%
%TO.C,R12*%
G36*
G01*
X100175000Y-83672500D02*
X100175000Y-83327500D01*
G75*
G02*
X100322500Y-83180000I147500J0D01*
G01*
X100617500Y-83180000D01*
G75*
G02*
X100765000Y-83327500I0J-147500D01*
G01*
X100765000Y-83672500D01*
G75*
G02*
X100617500Y-83820000I-147500J0D01*
G01*
X100322500Y-83820000D01*
G75*
G02*
X100175000Y-83672500I0J147500D01*
G01*
G37*
G36*
G01*
X99205000Y-83672500D02*
X99205000Y-83327500D01*
G75*
G02*
X99352500Y-83180000I147500J0D01*
G01*
X99647500Y-83180000D01*
G75*
G02*
X99795000Y-83327500I0J-147500D01*
G01*
X99795000Y-83672500D01*
G75*
G02*
X99647500Y-83820000I-147500J0D01*
G01*
X99352500Y-83820000D01*
G75*
G02*
X99205000Y-83672500I0J147500D01*
G01*
G37*
%TD*%
%TO.C,C13*%
G36*
G01*
X98095000Y-82627500D02*
X98095000Y-82972500D01*
G75*
G02*
X97947500Y-83120000I-147500J0D01*
G01*
X97652500Y-83120000D01*
G75*
G02*
X97505000Y-82972500I0J147500D01*
G01*
X97505000Y-82627500D01*
G75*
G02*
X97652500Y-82480000I147500J0D01*
G01*
X97947500Y-82480000D01*
G75*
G02*
X98095000Y-82627500I0J-147500D01*
G01*
G37*
G36*
G01*
X97125000Y-82627500D02*
X97125000Y-82972500D01*
G75*
G02*
X96977500Y-83120000I-147500J0D01*
G01*
X96682500Y-83120000D01*
G75*
G02*
X96535000Y-82972500I0J147500D01*
G01*
X96535000Y-82627500D01*
G75*
G02*
X96682500Y-82480000I147500J0D01*
G01*
X96977500Y-82480000D01*
G75*
G02*
X97125000Y-82627500I0J-147500D01*
G01*
G37*
%TD*%
%TO.C,C14*%
G36*
G01*
X113705000Y-85672500D02*
X113705000Y-85327500D01*
G75*
G02*
X113852500Y-85180000I147500J0D01*
G01*
X114147500Y-85180000D01*
G75*
G02*
X114295000Y-85327500I0J-147500D01*
G01*
X114295000Y-85672500D01*
G75*
G02*
X114147500Y-85820000I-147500J0D01*
G01*
X113852500Y-85820000D01*
G75*
G02*
X113705000Y-85672500I0J147500D01*
G01*
G37*
G36*
G01*
X114675000Y-85672500D02*
X114675000Y-85327500D01*
G75*
G02*
X114822500Y-85180000I147500J0D01*
G01*
X115117500Y-85180000D01*
G75*
G02*
X115265000Y-85327500I0J-147500D01*
G01*
X115265000Y-85672500D01*
G75*
G02*
X115117500Y-85820000I-147500J0D01*
G01*
X114822500Y-85820000D01*
G75*
G02*
X114675000Y-85672500I0J147500D01*
G01*
G37*
%TD*%
%TO.C,C15*%
G36*
G01*
X113705000Y-83672500D02*
X113705000Y-83327500D01*
G75*
G02*
X113852500Y-83180000I147500J0D01*
G01*
X114147500Y-83180000D01*
G75*
G02*
X114295000Y-83327500I0J-147500D01*
G01*
X114295000Y-83672500D01*
G75*
G02*
X114147500Y-83820000I-147500J0D01*
G01*
X113852500Y-83820000D01*
G75*
G02*
X113705000Y-83672500I0J147500D01*
G01*
G37*
G36*
G01*
X114675000Y-83672500D02*
X114675000Y-83327500D01*
G75*
G02*
X114822500Y-83180000I147500J0D01*
G01*
X115117500Y-83180000D01*
G75*
G02*
X115265000Y-83327500I0J-147500D01*
G01*
X115265000Y-83672500D01*
G75*
G02*
X115117500Y-83820000I-147500J0D01*
G01*
X114822500Y-83820000D01*
G75*
G02*
X114675000Y-83672500I0J147500D01*
G01*
G37*
%TD*%
%TO.C,C16*%
G36*
G01*
X88672500Y-90795000D02*
X88327500Y-90795000D01*
G75*
G02*
X88180000Y-90647500I0J147500D01*
G01*
X88180000Y-90352500D01*
G75*
G02*
X88327500Y-90205000I147500J0D01*
G01*
X88672500Y-90205000D01*
G75*
G02*
X88820000Y-90352500I0J-147500D01*
G01*
X88820000Y-90647500D01*
G75*
G02*
X88672500Y-90795000I-147500J0D01*
G01*
G37*
G36*
G01*
X88672500Y-91765000D02*
X88327500Y-91765000D01*
G75*
G02*
X88180000Y-91617500I0J147500D01*
G01*
X88180000Y-91322500D01*
G75*
G02*
X88327500Y-91175000I147500J0D01*
G01*
X88672500Y-91175000D01*
G75*
G02*
X88820000Y-91322500I0J-147500D01*
G01*
X88820000Y-91617500D01*
G75*
G02*
X88672500Y-91765000I-147500J0D01*
G01*
G37*
%TD*%
%TO.C,C17*%
G36*
G01*
X88672500Y-94765000D02*
X88327500Y-94765000D01*
G75*
G02*
X88180000Y-94617500I0J147500D01*
G01*
X88180000Y-94322500D01*
G75*
G02*
X88327500Y-94175000I147500J0D01*
G01*
X88672500Y-94175000D01*
G75*
G02*
X88820000Y-94322500I0J-147500D01*
G01*
X88820000Y-94617500D01*
G75*
G02*
X88672500Y-94765000I-147500J0D01*
G01*
G37*
G36*
G01*
X88672500Y-93795000D02*
X88327500Y-93795000D01*
G75*
G02*
X88180000Y-93647500I0J147500D01*
G01*
X88180000Y-93352500D01*
G75*
G02*
X88327500Y-93205000I147500J0D01*
G01*
X88672500Y-93205000D01*
G75*
G02*
X88820000Y-93352500I0J-147500D01*
G01*
X88820000Y-93647500D01*
G75*
G02*
X88672500Y-93795000I-147500J0D01*
G01*
G37*
%TD*%
%TO.C,C18*%
G36*
G01*
X99810000Y-78827500D02*
X99810000Y-79172500D01*
G75*
G02*
X99662500Y-79320000I-147500J0D01*
G01*
X99367500Y-79320000D01*
G75*
G02*
X99220000Y-79172500I0J147500D01*
G01*
X99220000Y-78827500D01*
G75*
G02*
X99367500Y-78680000I147500J0D01*
G01*
X99662500Y-78680000D01*
G75*
G02*
X99810000Y-78827500I0J-147500D01*
G01*
G37*
G36*
G01*
X100780000Y-78827500D02*
X100780000Y-79172500D01*
G75*
G02*
X100632500Y-79320000I-147500J0D01*
G01*
X100337500Y-79320000D01*
G75*
G02*
X100190000Y-79172500I0J147500D01*
G01*
X100190000Y-78827500D01*
G75*
G02*
X100337500Y-78680000I147500J0D01*
G01*
X100632500Y-78680000D01*
G75*
G02*
X100780000Y-78827500I0J-147500D01*
G01*
G37*
%TD*%
%TO.C,C19*%
G36*
G01*
X100765000Y-80827500D02*
X100765000Y-81172500D01*
G75*
G02*
X100617500Y-81320000I-147500J0D01*
G01*
X100322500Y-81320000D01*
G75*
G02*
X100175000Y-81172500I0J147500D01*
G01*
X100175000Y-80827500D01*
G75*
G02*
X100322500Y-80680000I147500J0D01*
G01*
X100617500Y-80680000D01*
G75*
G02*
X100765000Y-80827500I0J-147500D01*
G01*
G37*
G36*
G01*
X99795000Y-80827500D02*
X99795000Y-81172500D01*
G75*
G02*
X99647500Y-81320000I-147500J0D01*
G01*
X99352500Y-81320000D01*
G75*
G02*
X99205000Y-81172500I0J147500D01*
G01*
X99205000Y-80827500D01*
G75*
G02*
X99352500Y-80680000I147500J0D01*
G01*
X99647500Y-80680000D01*
G75*
G02*
X99795000Y-80827500I0J-147500D01*
G01*
G37*
%TD*%
%TO.C,C20*%
G36*
G01*
X110825000Y-89827500D02*
X110825000Y-90172500D01*
G75*
G02*
X110677500Y-90320000I-147500J0D01*
G01*
X110382500Y-90320000D01*
G75*
G02*
X110235000Y-90172500I0J147500D01*
G01*
X110235000Y-89827500D01*
G75*
G02*
X110382500Y-89680000I147500J0D01*
G01*
X110677500Y-89680000D01*
G75*
G02*
X110825000Y-89827500I0J-147500D01*
G01*
G37*
G36*
G01*
X111795000Y-89827500D02*
X111795000Y-90172500D01*
G75*
G02*
X111647500Y-90320000I-147500J0D01*
G01*
X111352500Y-90320000D01*
G75*
G02*
X111205000Y-90172500I0J147500D01*
G01*
X111205000Y-89827500D01*
G75*
G02*
X111352500Y-89680000I147500J0D01*
G01*
X111647500Y-89680000D01*
G75*
G02*
X111795000Y-89827500I0J-147500D01*
G01*
G37*
%TD*%
%TO.C,C21*%
G36*
G01*
X94795000Y-90327500D02*
X94795000Y-90672500D01*
G75*
G02*
X94647500Y-90820000I-147500J0D01*
G01*
X94352500Y-90820000D01*
G75*
G02*
X94205000Y-90672500I0J147500D01*
G01*
X94205000Y-90327500D01*
G75*
G02*
X94352500Y-90180000I147500J0D01*
G01*
X94647500Y-90180000D01*
G75*
G02*
X94795000Y-90327500I0J-147500D01*
G01*
G37*
G36*
G01*
X93825000Y-90327500D02*
X93825000Y-90672500D01*
G75*
G02*
X93677500Y-90820000I-147500J0D01*
G01*
X93382500Y-90820000D01*
G75*
G02*
X93235000Y-90672500I0J147500D01*
G01*
X93235000Y-90327500D01*
G75*
G02*
X93382500Y-90180000I147500J0D01*
G01*
X93677500Y-90180000D01*
G75*
G02*
X93825000Y-90327500I0J-147500D01*
G01*
G37*
%TD*%
%TO.C,C22*%
G36*
G01*
X94327500Y-96735000D02*
X94672500Y-96735000D01*
G75*
G02*
X94820000Y-96882500I0J-147500D01*
G01*
X94820000Y-97177500D01*
G75*
G02*
X94672500Y-97325000I-147500J0D01*
G01*
X94327500Y-97325000D01*
G75*
G02*
X94180000Y-97177500I0J147500D01*
G01*
X94180000Y-96882500D01*
G75*
G02*
X94327500Y-96735000I147500J0D01*
G01*
G37*
G36*
G01*
X94327500Y-97705000D02*
X94672500Y-97705000D01*
G75*
G02*
X94820000Y-97852500I0J-147500D01*
G01*
X94820000Y-98147500D01*
G75*
G02*
X94672500Y-98295000I-147500J0D01*
G01*
X94327500Y-98295000D01*
G75*
G02*
X94180000Y-98147500I0J147500D01*
G01*
X94180000Y-97852500D01*
G75*
G02*
X94327500Y-97705000I147500J0D01*
G01*
G37*
%TD*%
M02*
