%TF.GenerationSoftware,KiCad,Pcbnew,7.0.6*%
%TF.CreationDate,2023-07-26T19:14:02-07:00*%
%TF.ProjectId,connector_board,636f6e6e-6563-4746-9f72-5f626f617264,rev?*%
%TF.SameCoordinates,Original*%
%TF.FileFunction,Copper,L2,Bot*%
%TF.FilePolarity,Positive*%
%FSLAX46Y46*%
G04 Gerber Fmt 4.6, Leading zero omitted, Abs format (unit mm)*
G04 Created by KiCad (PCBNEW 7.0.6) date 2023-07-26 19:14:02*
%MOMM*%
%LPD*%
G01*
G04 APERTURE LIST*
G04 Aperture macros list*
%AMRoundRect*
0 Rectangle with rounded corners*
0 $1 Rounding radius*
0 $2 $3 $4 $5 $6 $7 $8 $9 X,Y pos of 4 corners*
0 Add a 4 corners polygon primitive as box body*
4,1,4,$2,$3,$4,$5,$6,$7,$8,$9,$2,$3,0*
0 Add four circle primitives for the rounded corners*
1,1,$1+$1,$2,$3*
1,1,$1+$1,$4,$5*
1,1,$1+$1,$6,$7*
1,1,$1+$1,$8,$9*
0 Add four rect primitives between the rounded corners*
20,1,$1+$1,$2,$3,$4,$5,0*
20,1,$1+$1,$4,$5,$6,$7,0*
20,1,$1+$1,$6,$7,$8,$9,0*
20,1,$1+$1,$8,$9,$2,$3,0*%
G04 Aperture macros list end*
%TA.AperFunction,ComponentPad*%
%ADD10C,2.800000*%
%TD*%
%TA.AperFunction,ComponentPad*%
%ADD11R,1.700000X1.700000*%
%TD*%
%TA.AperFunction,ComponentPad*%
%ADD12O,1.700000X1.700000*%
%TD*%
%TA.AperFunction,ComponentPad*%
%ADD13R,1.000000X1.000000*%
%TD*%
%TA.AperFunction,ComponentPad*%
%ADD14RoundRect,0.200000X-0.200000X-0.450000X0.200000X-0.450000X0.200000X0.450000X-0.200000X0.450000X0*%
%TD*%
%TA.AperFunction,ComponentPad*%
%ADD15O,0.800000X1.300000*%
%TD*%
%TA.AperFunction,ComponentPad*%
%ADD16RoundRect,0.200000X0.450000X-0.200000X0.450000X0.200000X-0.450000X0.200000X-0.450000X-0.200000X0*%
%TD*%
%TA.AperFunction,ComponentPad*%
%ADD17O,1.300000X0.800000*%
%TD*%
%TA.AperFunction,ViaPad*%
%ADD18C,0.800000*%
%TD*%
%TA.AperFunction,Conductor*%
%ADD19C,0.406400*%
%TD*%
G04 APERTURE END LIST*
D10*
%TO.P,TP12,1,1*%
%TO.N,GND*%
X109220000Y-83058000D03*
%TD*%
D11*
%TO.P,J5,1,Pin_1*%
%TO.N,/+EXT_BAT*%
X87620000Y-81534000D03*
D12*
%TO.P,J5,2,Pin_2*%
X87620000Y-78994000D03*
%TD*%
D13*
%TO.P,TP5,1,1*%
%TO.N,/3WB_CLK*%
X96266000Y-66294000D03*
%TD*%
D11*
%TO.P,J2,1,Pin_1*%
%TO.N,/+EXT_BAT*%
X108077000Y-76708000D03*
D12*
%TO.P,J2,2,Pin_2*%
%TO.N,/HARD_RESET*%
X108077000Y-74168000D03*
%TO.P,J2,3,Pin_3*%
%TO.N,/3WB_DATA*%
X108077000Y-71628000D03*
%TO.P,J2,4,Pin_4*%
%TO.N,/3WB_ENB*%
X108077000Y-69088000D03*
%TO.P,J2,5,Pin_5*%
%TO.N,/3WB_CLK*%
X108077000Y-66548000D03*
%TO.P,J2,6,Pin_6*%
%TO.N,/RsRx*%
X108077000Y-64008000D03*
%TO.P,J2,7,Pin_7*%
%TO.N,/RsTx*%
X108077000Y-61468000D03*
%TO.P,J2,8,Pin_8*%
%TO.N,GND*%
X108077000Y-58928000D03*
%TD*%
D13*
%TO.P,TP6,1,1*%
%TO.N,/RsRx*%
X100330000Y-60706000D03*
%TD*%
D11*
%TO.P,J7,1,Pin_1*%
%TO.N,/SCUM_GPIO0*%
X80264000Y-76708000D03*
D12*
%TO.P,J7,2,Pin_2*%
%TO.N,/SCUM_GPIO3*%
X80264000Y-74168000D03*
%TO.P,J7,3,Pin_3*%
%TO.N,/SCUM_GPIO4*%
X80264000Y-71628000D03*
%TO.P,J7,4,Pin_4*%
%TO.N,/SCUM_GPIO7*%
X80264000Y-69088000D03*
%TO.P,J7,5,Pin_5*%
%TO.N,/SCUM_GPIO13*%
X80264000Y-66548000D03*
%TO.P,J7,6,Pin_6*%
%TO.N,/SCUM_GPIO14*%
X80264000Y-64008000D03*
%TO.P,J7,7,Pin_7*%
%TO.N,/+1.8V_SCUM*%
X80264000Y-61468000D03*
%TO.P,J7,8,Pin_8*%
%TO.N,/+1.8V_ADS*%
X80264000Y-58928000D03*
%TD*%
D13*
%TO.P,TP8,1,1*%
%TO.N,GND*%
X89408000Y-60706000D03*
%TD*%
D14*
%TO.P,J1,1,Pin_1*%
%TO.N,/+EXT_BAT*%
X94762000Y-54864000D03*
D15*
%TO.P,J1,2,Pin_2*%
%TO.N,/HARD_RESET*%
X96012000Y-54864000D03*
%TO.P,J1,3,Pin_3*%
%TO.N,/3WB_DATA*%
X97262000Y-54864000D03*
%TO.P,J1,4,Pin_4*%
%TO.N,/3WB_ENB*%
X98512000Y-54864000D03*
%TO.P,J1,5,Pin_5*%
%TO.N,/3WB_CLK*%
X99762000Y-54864000D03*
%TO.P,J1,6,Pin_6*%
%TO.N,/RsRx*%
X101012000Y-54864000D03*
%TO.P,J1,7,Pin_7*%
%TO.N,/RsTx*%
X102262000Y-54864000D03*
%TO.P,J1,8,Pin_8*%
%TO.N,GND*%
X103512000Y-54864000D03*
%TD*%
D10*
%TO.P,TP9,1,1*%
%TO.N,GND*%
X73152000Y-53340000D03*
%TD*%
%TO.P,TP11,1,1*%
%TO.N,GND*%
X109220000Y-53340000D03*
%TD*%
D13*
%TO.P,TP3,1,1*%
%TO.N,/3WB_DATA*%
X96266000Y-70866000D03*
%TD*%
D10*
%TO.P,TP10,1,1*%
%TO.N,GND*%
X73152000Y-83058000D03*
%TD*%
D16*
%TO.P,J6,1,Pin_1*%
%TO.N,/SCUM_GPIO0*%
X74422000Y-72405000D03*
D17*
%TO.P,J6,2,Pin_2*%
%TO.N,/SCUM_GPIO3*%
X74422000Y-71155000D03*
%TO.P,J6,3,Pin_3*%
%TO.N,/SCUM_GPIO4*%
X74422000Y-69905000D03*
%TO.P,J6,4,Pin_4*%
%TO.N,/SCUM_GPIO7*%
X74422000Y-68655000D03*
%TO.P,J6,5,Pin_5*%
%TO.N,/SCUM_GPIO13*%
X74422000Y-67405000D03*
%TO.P,J6,6,Pin_6*%
%TO.N,/SCUM_GPIO14*%
X74422000Y-66155000D03*
%TO.P,J6,7,Pin_7*%
%TO.N,/+1.8V_SCUM*%
X74422000Y-64905000D03*
%TO.P,J6,8,Pin_8*%
%TO.N,/+1.8V_ADS*%
X74422000Y-63655000D03*
%TD*%
D13*
%TO.P,TP1,1,1*%
%TO.N,/+EXT_BAT*%
X92964000Y-60706000D03*
%TD*%
D11*
%TO.P,J4,1,Pin_1*%
%TO.N,GND*%
X83820000Y-54610000D03*
D12*
%TO.P,J4,2,Pin_2*%
X86360000Y-54610000D03*
%TO.P,J4,3,Pin_3*%
X88900000Y-54610000D03*
%TD*%
D11*
%TO.P,J3,1,Pin_1*%
%TO.N,/+EXT_BAT*%
X92964000Y-81534000D03*
D12*
%TO.P,J3,2,Pin_2*%
%TO.N,/HARD_RESET*%
X92964000Y-78994000D03*
%TO.P,J3,3,Pin_3*%
%TO.N,/3WB_DATA*%
X95504000Y-81534000D03*
%TO.P,J3,4,Pin_4*%
%TO.N,/3WB_ENB*%
X95504000Y-78994000D03*
%TO.P,J3,5,Pin_5*%
%TO.N,/3WB_CLK*%
X98044000Y-81534000D03*
%TO.P,J3,6,Pin_6*%
%TO.N,/RsRx*%
X98044000Y-78994000D03*
%TO.P,J3,7,Pin_7*%
%TO.N,/RsTx*%
X100584000Y-81534000D03*
%TO.P,J3,8,Pin_8*%
%TO.N,GND*%
X100584000Y-78994000D03*
%TD*%
D13*
%TO.P,TP7,1,1*%
%TO.N,/RsTx*%
X97028000Y-60706000D03*
%TD*%
%TO.P,TP4,1,1*%
%TO.N,/3WB_ENB*%
X96266000Y-68580000D03*
%TD*%
%TO.P,TP2,1,1*%
%TO.N,/HARD_RESET*%
X96266000Y-73152000D03*
%TD*%
D18*
%TO.N,GND*%
X100076000Y-58928000D03*
X97028000Y-58928000D03*
X100838000Y-67818000D03*
X90932000Y-74676000D03*
X88900000Y-57404000D03*
X100838000Y-65024000D03*
X103886000Y-75438000D03*
X103886000Y-70358000D03*
X83820000Y-57404000D03*
X103632000Y-58928000D03*
X103886000Y-72898000D03*
X101346000Y-75438000D03*
%TO.N,/RsTx*%
X105410000Y-72898000D03*
%TO.N,/RsRx*%
X104394000Y-65532000D03*
X100330000Y-72390000D03*
%TO.N,/3WB_CLK*%
X99314000Y-73152000D03*
%TO.N,/3WB_DATA*%
X93980000Y-68326000D03*
%TO.N,/HARD_RESET*%
X95631000Y-76327000D03*
X92964000Y-68326000D03*
%TD*%
D19*
%TO.N,/RsTx*%
X97028000Y-60960000D02*
X98386000Y-62318000D01*
X97028000Y-60706000D02*
X97028000Y-60960000D01*
X102262000Y-54864000D02*
X102262000Y-55472000D01*
X102262000Y-55472000D02*
X97028000Y-60706000D01*
X98386000Y-62318000D02*
X107227000Y-62318000D01*
X107227000Y-62318000D02*
X108077000Y-61468000D01*
X105410000Y-72898000D02*
X105410000Y-64135000D01*
X105410000Y-64135000D02*
X108077000Y-61468000D01*
%TO.N,/RsRx*%
X104394000Y-68326000D02*
X100330000Y-72390000D01*
X104394000Y-65532000D02*
X104394000Y-68326000D01*
%TO.N,/3WB_CLK*%
X99314000Y-73152000D02*
X99314000Y-69342000D01*
X99314000Y-69342000D02*
X96266000Y-66294000D01*
%TO.N,/3WB_DATA*%
X93980000Y-68326000D02*
X93980000Y-70104000D01*
X94742000Y-70866000D02*
X96266000Y-70866000D01*
X93980000Y-70104000D02*
X94742000Y-70866000D01*
%TO.N,/HARD_RESET*%
X92964000Y-70866000D02*
X95250000Y-73152000D01*
X97282000Y-74168000D02*
X97790000Y-74168000D01*
X92964000Y-68326000D02*
X92964000Y-70866000D01*
X95631000Y-76327000D02*
X92964000Y-78994000D01*
X108077000Y-74168000D02*
X97790000Y-74168000D01*
X96266000Y-73152000D02*
X97282000Y-74168000D01*
X95250000Y-73152000D02*
X96266000Y-73152000D01*
%TO.N,/+EXT_BAT*%
X94144200Y-80353800D02*
X104431200Y-80353800D01*
X92964000Y-81534000D02*
X94144200Y-80353800D01*
X104431200Y-80353800D02*
X108077000Y-76708000D01*
%TD*%
%TA.AperFunction,Conductor*%
%TO.N,GND*%
G36*
X104616333Y-69214329D02*
G01*
X104673168Y-69256876D01*
X104697979Y-69323396D01*
X104698300Y-69332385D01*
X104698300Y-72282485D01*
X104678298Y-72350606D01*
X104674239Y-72356542D01*
X104670959Y-72361055D01*
X104575476Y-72526438D01*
X104575473Y-72526444D01*
X104571625Y-72538288D01*
X104516457Y-72708072D01*
X104496496Y-72897999D01*
X104516457Y-73087927D01*
X104541530Y-73165091D01*
X104575473Y-73269556D01*
X104575476Y-73269562D01*
X104578160Y-73275590D01*
X104576375Y-73276384D01*
X104590908Y-73336305D01*
X104567682Y-73403395D01*
X104511871Y-73447278D01*
X104465051Y-73456300D01*
X100761466Y-73456300D01*
X100693345Y-73436298D01*
X100646852Y-73382642D01*
X100636748Y-73312368D01*
X100666242Y-73247788D01*
X100710215Y-73215194D01*
X100786752Y-73181118D01*
X100941253Y-73068866D01*
X100941256Y-73068863D01*
X100941257Y-73068863D01*
X101069034Y-72926951D01*
X101069035Y-72926949D01*
X101069040Y-72926944D01*
X101164527Y-72761556D01*
X101223542Y-72579928D01*
X101227918Y-72538287D01*
X101254930Y-72472631D01*
X101264124Y-72462370D01*
X104483207Y-69243288D01*
X104545517Y-69209264D01*
X104616333Y-69214329D01*
G37*
%TD.AperFunction*%
%TA.AperFunction,Conductor*%
G36*
X85900507Y-54400156D02*
G01*
X85860000Y-54538111D01*
X85860000Y-54681889D01*
X85900507Y-54819844D01*
X85928884Y-54864000D01*
X84251116Y-54864000D01*
X84279493Y-54819844D01*
X84320000Y-54681889D01*
X84320000Y-54538111D01*
X84279493Y-54400156D01*
X84251116Y-54356000D01*
X85928884Y-54356000D01*
X85900507Y-54400156D01*
G37*
%TD.AperFunction*%
%TA.AperFunction,Conductor*%
G36*
X88440507Y-54400156D02*
G01*
X88400000Y-54538111D01*
X88400000Y-54681889D01*
X88440507Y-54819844D01*
X88468884Y-54864000D01*
X86791116Y-54864000D01*
X86819493Y-54819844D01*
X86860000Y-54681889D01*
X86860000Y-54538111D01*
X86819493Y-54400156D01*
X86791116Y-54356000D01*
X88468884Y-54356000D01*
X88440507Y-54400156D01*
G37*
%TD.AperFunction*%
%TA.AperFunction,Conductor*%
G36*
X109221957Y-50973622D02*
G01*
X109509937Y-50991570D01*
X109517692Y-50992540D01*
X109799288Y-51045745D01*
X109806881Y-51047675D01*
X110079697Y-51135434D01*
X110086968Y-51138284D01*
X110346771Y-51259238D01*
X110353650Y-51262978D01*
X110596422Y-51415254D01*
X110602774Y-51419812D01*
X110824755Y-51601051D01*
X110830509Y-51606378D01*
X111028259Y-51813770D01*
X111033309Y-51819774D01*
X111203777Y-52050114D01*
X111208043Y-52056699D01*
X111348589Y-52306420D01*
X111352004Y-52313483D01*
X111460456Y-52578727D01*
X111462967Y-52586157D01*
X111537645Y-52862819D01*
X111539212Y-52870493D01*
X111559086Y-53012391D01*
X111578960Y-53154287D01*
X111579562Y-53162104D01*
X111582143Y-53338096D01*
X111583792Y-53450599D01*
X111583728Y-53454520D01*
X111581556Y-53500099D01*
X111581558Y-53500110D01*
X111582050Y-53501912D01*
X111586499Y-53535098D01*
X111586499Y-82878552D01*
X111585941Y-82886925D01*
X111585452Y-82890569D01*
X111586330Y-82927425D01*
X111586500Y-82934575D01*
X111586500Y-82940467D01*
X111580345Y-83108443D01*
X111575969Y-83227851D01*
X111575231Y-83235430D01*
X111530369Y-83517980D01*
X111528723Y-83525415D01*
X111450135Y-83800487D01*
X111447604Y-83807669D01*
X111336427Y-84071276D01*
X111333050Y-84078101D01*
X111190914Y-84326376D01*
X111186738Y-84332743D01*
X111015712Y-84562076D01*
X111010800Y-84567895D01*
X110813378Y-84774940D01*
X110807800Y-84780123D01*
X110586855Y-84961867D01*
X110580693Y-84966340D01*
X110339453Y-85120125D01*
X110332797Y-85123823D01*
X110074780Y-85247410D01*
X110067726Y-85250279D01*
X109796704Y-85341860D01*
X109789356Y-85343858D01*
X109509260Y-85402105D01*
X109501725Y-85403202D01*
X109216244Y-85427297D01*
X109210938Y-85427520D01*
X73336189Y-85424504D01*
X73322213Y-85422633D01*
X73322101Y-85423659D01*
X73312248Y-85422576D01*
X73312247Y-85422576D01*
X73311050Y-85422633D01*
X73273359Y-85424427D01*
X73270363Y-85424498D01*
X73248396Y-85424498D01*
X73246474Y-85424572D01*
X72973871Y-85420575D01*
X72966055Y-85419973D01*
X72823973Y-85400073D01*
X72681889Y-85380173D01*
X72674215Y-85378606D01*
X72397190Y-85303830D01*
X72389760Y-85301319D01*
X72124167Y-85192725D01*
X72117103Y-85189310D01*
X71867055Y-85048579D01*
X71860471Y-85044313D01*
X71629829Y-84873622D01*
X71623825Y-84868572D01*
X71416161Y-84670562D01*
X71410831Y-84664805D01*
X71349141Y-84589247D01*
X71229357Y-84442536D01*
X71224799Y-84436184D01*
X71072319Y-84193088D01*
X71068583Y-84186215D01*
X70947470Y-83926070D01*
X70944620Y-83918799D01*
X70856747Y-83645628D01*
X70854816Y-83638031D01*
X70801545Y-83356081D01*
X70800571Y-83348296D01*
X70792475Y-83218405D01*
X70785622Y-83108443D01*
X70785500Y-83104523D01*
X70785500Y-78994000D01*
X86256844Y-78994000D01*
X86274232Y-79203844D01*
X86275437Y-79218375D01*
X86330702Y-79436612D01*
X86330703Y-79436613D01*
X86421141Y-79642793D01*
X86544275Y-79831265D01*
X86544280Y-79831270D01*
X86687475Y-79986820D01*
X86718896Y-80050485D01*
X86710909Y-80121031D01*
X86666051Y-80176060D01*
X86638807Y-80190213D01*
X86523797Y-80233110D01*
X86523792Y-80233112D01*
X86406738Y-80320738D01*
X86319112Y-80437792D01*
X86319110Y-80437797D01*
X86268011Y-80574795D01*
X86268009Y-80574803D01*
X86261500Y-80635350D01*
X86261500Y-82432649D01*
X86268009Y-82493196D01*
X86268011Y-82493204D01*
X86319110Y-82630202D01*
X86319112Y-82630207D01*
X86406738Y-82747261D01*
X86523792Y-82834887D01*
X86523794Y-82834888D01*
X86523796Y-82834889D01*
X86578900Y-82855442D01*
X86660795Y-82885988D01*
X86660803Y-82885990D01*
X86721350Y-82892499D01*
X86721355Y-82892499D01*
X86721362Y-82892500D01*
X86721368Y-82892500D01*
X88518632Y-82892500D01*
X88518638Y-82892500D01*
X88518645Y-82892499D01*
X88518649Y-82892499D01*
X88579196Y-82885990D01*
X88579199Y-82885989D01*
X88579201Y-82885989D01*
X88716204Y-82834889D01*
X88786399Y-82782342D01*
X88833261Y-82747261D01*
X88920887Y-82630207D01*
X88920887Y-82630206D01*
X88920889Y-82630204D01*
X88971989Y-82493201D01*
X88976085Y-82455107D01*
X88978499Y-82432649D01*
X88978500Y-82432632D01*
X88978500Y-80635367D01*
X88978499Y-80635350D01*
X88971990Y-80574803D01*
X88971988Y-80574795D01*
X88920889Y-80437797D01*
X88920887Y-80437792D01*
X88833261Y-80320738D01*
X88716207Y-80233112D01*
X88716203Y-80233110D01*
X88601192Y-80190213D01*
X88544356Y-80147667D01*
X88519546Y-80081146D01*
X88534638Y-80011772D01*
X88552525Y-79986820D01*
X88695714Y-79831277D01*
X88695724Y-79831265D01*
X88702441Y-79820983D01*
X88818860Y-79642791D01*
X88909296Y-79436616D01*
X88964564Y-79218368D01*
X88983156Y-78994000D01*
X91600844Y-78994000D01*
X91618232Y-79203844D01*
X91619437Y-79218375D01*
X91674702Y-79436612D01*
X91674703Y-79436613D01*
X91765141Y-79642793D01*
X91888275Y-79831265D01*
X91888280Y-79831270D01*
X92031475Y-79986820D01*
X92062896Y-80050485D01*
X92054909Y-80121031D01*
X92010051Y-80176060D01*
X91982807Y-80190213D01*
X91867797Y-80233110D01*
X91867792Y-80233112D01*
X91750738Y-80320738D01*
X91663112Y-80437792D01*
X91663110Y-80437797D01*
X91612011Y-80574795D01*
X91612009Y-80574803D01*
X91605500Y-80635350D01*
X91605500Y-82432649D01*
X91612009Y-82493196D01*
X91612011Y-82493204D01*
X91663110Y-82630202D01*
X91663112Y-82630207D01*
X91750738Y-82747261D01*
X91867792Y-82834887D01*
X91867794Y-82834888D01*
X91867796Y-82834889D01*
X91922900Y-82855442D01*
X92004795Y-82885988D01*
X92004803Y-82885990D01*
X92065350Y-82892499D01*
X92065355Y-82892499D01*
X92065362Y-82892500D01*
X92065368Y-82892500D01*
X93862632Y-82892500D01*
X93862638Y-82892500D01*
X93862645Y-82892499D01*
X93862649Y-82892499D01*
X93923196Y-82885990D01*
X93923199Y-82885989D01*
X93923201Y-82885989D01*
X94060204Y-82834889D01*
X94130399Y-82782342D01*
X94177261Y-82747261D01*
X94264886Y-82630208D01*
X94264885Y-82630208D01*
X94264889Y-82630204D01*
X94308999Y-82511939D01*
X94351545Y-82455107D01*
X94418066Y-82430296D01*
X94487440Y-82445388D01*
X94519753Y-82470635D01*
X94540529Y-82493204D01*
X94580762Y-82536908D01*
X94635331Y-82579381D01*
X94758424Y-82675189D01*
X94956426Y-82782342D01*
X94956427Y-82782342D01*
X94956428Y-82782343D01*
X95068227Y-82820723D01*
X95169365Y-82855444D01*
X95391431Y-82892500D01*
X95391435Y-82892500D01*
X95616565Y-82892500D01*
X95616569Y-82892500D01*
X95838635Y-82855444D01*
X96051574Y-82782342D01*
X96249576Y-82675189D01*
X96427240Y-82536906D01*
X96579722Y-82371268D01*
X96668518Y-82235354D01*
X96722520Y-82189268D01*
X96792868Y-82179692D01*
X96857225Y-82209669D01*
X96879480Y-82235353D01*
X96912607Y-82286058D01*
X96968275Y-82371265D01*
X96968279Y-82371270D01*
X97120762Y-82536908D01*
X97175331Y-82579381D01*
X97298424Y-82675189D01*
X97496426Y-82782342D01*
X97496427Y-82782342D01*
X97496428Y-82782343D01*
X97608227Y-82820723D01*
X97709365Y-82855444D01*
X97931431Y-82892500D01*
X97931435Y-82892500D01*
X98156565Y-82892500D01*
X98156569Y-82892500D01*
X98378635Y-82855444D01*
X98591574Y-82782342D01*
X98789576Y-82675189D01*
X98967240Y-82536906D01*
X99119722Y-82371268D01*
X99208519Y-82235353D01*
X99262518Y-82189268D01*
X99332866Y-82179692D01*
X99397224Y-82209668D01*
X99419482Y-82235356D01*
X99508275Y-82371265D01*
X99508279Y-82371270D01*
X99660762Y-82536908D01*
X99715331Y-82579381D01*
X99838424Y-82675189D01*
X100036426Y-82782342D01*
X100036427Y-82782342D01*
X100036428Y-82782343D01*
X100148227Y-82820723D01*
X100249365Y-82855444D01*
X100471431Y-82892500D01*
X100471435Y-82892500D01*
X100696565Y-82892500D01*
X100696569Y-82892500D01*
X100918635Y-82855444D01*
X101131574Y-82782342D01*
X101329576Y-82675189D01*
X101507240Y-82536906D01*
X101659722Y-82371268D01*
X101782860Y-82182791D01*
X101873296Y-81976616D01*
X101928564Y-81758368D01*
X101947156Y-81534000D01*
X101928564Y-81309632D01*
X101906481Y-81222432D01*
X101909149Y-81151485D01*
X101949749Y-81093243D01*
X102015392Y-81066197D01*
X102028626Y-81065500D01*
X104407788Y-81065500D01*
X104411592Y-81065614D01*
X104474487Y-81069420D01*
X104522745Y-81060575D01*
X104536487Y-81058057D01*
X104540237Y-81057486D01*
X104602772Y-81049894D01*
X104612390Y-81046245D01*
X104634370Y-81040119D01*
X104644483Y-81038266D01*
X104644484Y-81038265D01*
X104644487Y-81038265D01*
X104701962Y-81012397D01*
X104705425Y-81010962D01*
X104764373Y-80988607D01*
X104772849Y-80982756D01*
X104792706Y-80971557D01*
X104802093Y-80967333D01*
X104851711Y-80928458D01*
X104854735Y-80926233D01*
X104906611Y-80890428D01*
X104948407Y-80843247D01*
X104950977Y-80840517D01*
X107688090Y-78103405D01*
X107750403Y-78069379D01*
X107777186Y-78066500D01*
X108975632Y-78066500D01*
X108975638Y-78066500D01*
X108975645Y-78066499D01*
X108975649Y-78066499D01*
X109036196Y-78059990D01*
X109036199Y-78059989D01*
X109036201Y-78059989D01*
X109173204Y-78008889D01*
X109196976Y-77991094D01*
X109290261Y-77921261D01*
X109377887Y-77804207D01*
X109377887Y-77804206D01*
X109377889Y-77804204D01*
X109428989Y-77667201D01*
X109429806Y-77659607D01*
X109435499Y-77606649D01*
X109435500Y-77606632D01*
X109435500Y-75809367D01*
X109435499Y-75809350D01*
X109428990Y-75748803D01*
X109428988Y-75748795D01*
X109391443Y-75648135D01*
X109377889Y-75611796D01*
X109377888Y-75611794D01*
X109377887Y-75611792D01*
X109290261Y-75494738D01*
X109173207Y-75407112D01*
X109173203Y-75407110D01*
X109058192Y-75364213D01*
X109001356Y-75321667D01*
X108976546Y-75255146D01*
X108991638Y-75185772D01*
X109009525Y-75160820D01*
X109152714Y-75005277D01*
X109152724Y-75005265D01*
X109197465Y-74936784D01*
X109275860Y-74816791D01*
X109366296Y-74610616D01*
X109421564Y-74392368D01*
X109440156Y-74168000D01*
X109421564Y-73943632D01*
X109402100Y-73866770D01*
X109366297Y-73725387D01*
X109366296Y-73725386D01*
X109366296Y-73725384D01*
X109275860Y-73519209D01*
X109220807Y-73434944D01*
X109152724Y-73330734D01*
X109152720Y-73330729D01*
X109001824Y-73166815D01*
X109000240Y-73165094D01*
X109000239Y-73165093D01*
X109000237Y-73165091D01*
X108901097Y-73087927D01*
X108822576Y-73026811D01*
X108789319Y-73008813D01*
X108738929Y-72958802D01*
X108723576Y-72889485D01*
X108748136Y-72822872D01*
X108789320Y-72787186D01*
X108822576Y-72769189D01*
X109000240Y-72630906D01*
X109152722Y-72465268D01*
X109275860Y-72276791D01*
X109366296Y-72070616D01*
X109421564Y-71852368D01*
X109440156Y-71628000D01*
X109421564Y-71403632D01*
X109417051Y-71385810D01*
X109366297Y-71185387D01*
X109366296Y-71185386D01*
X109366296Y-71185384D01*
X109275860Y-70979209D01*
X109230177Y-70909286D01*
X109152724Y-70790734D01*
X109152720Y-70790729D01*
X109000237Y-70625091D01*
X108918382Y-70561381D01*
X108822576Y-70486811D01*
X108789319Y-70468813D01*
X108738929Y-70418802D01*
X108723576Y-70349485D01*
X108748136Y-70282872D01*
X108789320Y-70247186D01*
X108822576Y-70229189D01*
X109000240Y-70090906D01*
X109152722Y-69925268D01*
X109275860Y-69736791D01*
X109366296Y-69530616D01*
X109421564Y-69312368D01*
X109440156Y-69088000D01*
X109421564Y-68863632D01*
X109366296Y-68645384D01*
X109275860Y-68439209D01*
X109269140Y-68428924D01*
X109152724Y-68250734D01*
X109152720Y-68250729D01*
X109017701Y-68104062D01*
X109000240Y-68085094D01*
X109000239Y-68085093D01*
X109000237Y-68085091D01*
X108911794Y-68016253D01*
X108822576Y-67946811D01*
X108789319Y-67928813D01*
X108738929Y-67878802D01*
X108723576Y-67809485D01*
X108748136Y-67742872D01*
X108789320Y-67707186D01*
X108822576Y-67689189D01*
X109000240Y-67550906D01*
X109152722Y-67385268D01*
X109275860Y-67196791D01*
X109366296Y-66990616D01*
X109421564Y-66772368D01*
X109440156Y-66548000D01*
X109421564Y-66323632D01*
X109366296Y-66105384D01*
X109275860Y-65899209D01*
X109258548Y-65872711D01*
X109152724Y-65710734D01*
X109152720Y-65710729D01*
X109002727Y-65547796D01*
X109000240Y-65545094D01*
X109000239Y-65545093D01*
X109000237Y-65545091D01*
X108901243Y-65468041D01*
X108822576Y-65406811D01*
X108822569Y-65406807D01*
X108789318Y-65388812D01*
X108738928Y-65338798D01*
X108723576Y-65269481D01*
X108748137Y-65202869D01*
X108789315Y-65167188D01*
X108822576Y-65149189D01*
X109000240Y-65010906D01*
X109152722Y-64845268D01*
X109275860Y-64656791D01*
X109366296Y-64450616D01*
X109421564Y-64232368D01*
X109440156Y-64008000D01*
X109421564Y-63783632D01*
X109390152Y-63659589D01*
X109366297Y-63565387D01*
X109366296Y-63565386D01*
X109366296Y-63565384D01*
X109275860Y-63359209D01*
X109269140Y-63348924D01*
X109152724Y-63170734D01*
X109152720Y-63170729D01*
X109026499Y-63033619D01*
X109000240Y-63005094D01*
X109000239Y-63005093D01*
X109000237Y-63005091D01*
X108911152Y-62935753D01*
X108822576Y-62866811D01*
X108822569Y-62866807D01*
X108789318Y-62848812D01*
X108738928Y-62798798D01*
X108723576Y-62729481D01*
X108748137Y-62662869D01*
X108789315Y-62627188D01*
X108822576Y-62609189D01*
X109000240Y-62470906D01*
X109152722Y-62305268D01*
X109275860Y-62116791D01*
X109366296Y-61910616D01*
X109421564Y-61692368D01*
X109440156Y-61468000D01*
X109421564Y-61243632D01*
X109366296Y-61025384D01*
X109275860Y-60819209D01*
X109265626Y-60803545D01*
X109152724Y-60630734D01*
X109152720Y-60630729D01*
X109000237Y-60465091D01*
X108918382Y-60401381D01*
X108822576Y-60326811D01*
X108788792Y-60308528D01*
X108738402Y-60258516D01*
X108723050Y-60189199D01*
X108747610Y-60122586D01*
X108788793Y-60086901D01*
X108822300Y-60068767D01*
X108822301Y-60068767D01*
X108999902Y-59930534D01*
X109152325Y-59764958D01*
X109275419Y-59576548D01*
X109365820Y-59370456D01*
X109365823Y-59370449D01*
X109413544Y-59182000D01*
X108508116Y-59182000D01*
X108536493Y-59137844D01*
X108577000Y-58999889D01*
X108577000Y-58856111D01*
X108536493Y-58718156D01*
X108508116Y-58674000D01*
X109413544Y-58674000D01*
X109413544Y-58673999D01*
X109365823Y-58485550D01*
X109365820Y-58485543D01*
X109275419Y-58279451D01*
X109152325Y-58091041D01*
X108999902Y-57925465D01*
X108822301Y-57787232D01*
X108822300Y-57787231D01*
X108624371Y-57680117D01*
X108624369Y-57680116D01*
X108411512Y-57607043D01*
X108411501Y-57607040D01*
X108331000Y-57593606D01*
X108331000Y-58494325D01*
X108219315Y-58443320D01*
X108112763Y-58428000D01*
X108041237Y-58428000D01*
X107934685Y-58443320D01*
X107822999Y-58494325D01*
X107822999Y-57593607D01*
X107822998Y-57593606D01*
X107742484Y-57607043D01*
X107529631Y-57680116D01*
X107529628Y-57680117D01*
X107331699Y-57787231D01*
X107331698Y-57787232D01*
X107154097Y-57925465D01*
X107001674Y-58091041D01*
X106878580Y-58279451D01*
X106788179Y-58485543D01*
X106788176Y-58485550D01*
X106740455Y-58673999D01*
X106740456Y-58674000D01*
X107645884Y-58674000D01*
X107617507Y-58718156D01*
X107577000Y-58856111D01*
X107577000Y-58999889D01*
X107617507Y-59137844D01*
X107645884Y-59182000D01*
X106740455Y-59182000D01*
X106788176Y-59370449D01*
X106788179Y-59370456D01*
X106878580Y-59576548D01*
X107001674Y-59764958D01*
X107154097Y-59930534D01*
X107331698Y-60068767D01*
X107331704Y-60068771D01*
X107365207Y-60086902D01*
X107415597Y-60136915D01*
X107430949Y-60206232D01*
X107406388Y-60272845D01*
X107365207Y-60308528D01*
X107331430Y-60326807D01*
X107331424Y-60326811D01*
X107153762Y-60465091D01*
X107001279Y-60630729D01*
X107001275Y-60630734D01*
X106878141Y-60819206D01*
X106787703Y-61025386D01*
X106787702Y-61025387D01*
X106732437Y-61243624D01*
X106732436Y-61243630D01*
X106732436Y-61243632D01*
X106716474Y-61436267D01*
X106713844Y-61468004D01*
X106713844Y-61468005D01*
X106714001Y-61469902D01*
X106713844Y-61470664D01*
X106713844Y-61473211D01*
X106713320Y-61473211D01*
X106699689Y-61539441D01*
X106650053Y-61590203D01*
X106588431Y-61606300D01*
X101404888Y-61606300D01*
X101336767Y-61586298D01*
X101290274Y-61532642D01*
X101280170Y-61462368D01*
X101286833Y-61436267D01*
X101331988Y-61315204D01*
X101331990Y-61315196D01*
X101338499Y-61254649D01*
X101338500Y-61254632D01*
X101338500Y-60157367D01*
X101338499Y-60157350D01*
X101331990Y-60096803D01*
X101331988Y-60096795D01*
X101280978Y-59960035D01*
X101280889Y-59959796D01*
X101280888Y-59959794D01*
X101280887Y-59959792D01*
X101193261Y-59842738D01*
X101076207Y-59755112D01*
X101076202Y-59755110D01*
X100939204Y-59704011D01*
X100939196Y-59704009D01*
X100878649Y-59697500D01*
X100878638Y-59697500D01*
X99781362Y-59697500D01*
X99781350Y-59697500D01*
X99720803Y-59704009D01*
X99720795Y-59704011D01*
X99583797Y-59755110D01*
X99583792Y-59755112D01*
X99466738Y-59842738D01*
X99379112Y-59959792D01*
X99379110Y-59959797D01*
X99328011Y-60096795D01*
X99328009Y-60096803D01*
X99321500Y-60157350D01*
X99321500Y-61254649D01*
X99328009Y-61315196D01*
X99328011Y-61315204D01*
X99373167Y-61436267D01*
X99378233Y-61507082D01*
X99344208Y-61569395D01*
X99281896Y-61603420D01*
X99255112Y-61606300D01*
X98732986Y-61606300D01*
X98664865Y-61586298D01*
X98643895Y-61569399D01*
X98073404Y-60998908D01*
X98039379Y-60936596D01*
X98036500Y-60909813D01*
X98036500Y-60756185D01*
X98056502Y-60688064D01*
X98073400Y-60667095D01*
X102748717Y-55991777D01*
X102751447Y-55989207D01*
X102798628Y-55947411D01*
X102830736Y-55900891D01*
X102885890Y-55856193D01*
X102956459Y-55848407D01*
X103008493Y-55870531D01*
X103055497Y-55904681D01*
X103055497Y-55904682D01*
X103229864Y-55982315D01*
X103229868Y-55982317D01*
X103258000Y-55988295D01*
X103258000Y-55118000D01*
X103766000Y-55118000D01*
X103766000Y-55988295D01*
X103794131Y-55982317D01*
X103794135Y-55982315D01*
X103968505Y-55904680D01*
X104122917Y-55792493D01*
X104250636Y-55650645D01*
X104346067Y-55485353D01*
X104346071Y-55485345D01*
X104405051Y-55303824D01*
X104419999Y-55161597D01*
X104420000Y-55161589D01*
X104420000Y-55118000D01*
X103766000Y-55118000D01*
X103258000Y-55118000D01*
X103258000Y-54868514D01*
X103276505Y-54961545D01*
X103331760Y-55044240D01*
X103414455Y-55099495D01*
X103487376Y-55114000D01*
X103536624Y-55114000D01*
X103609545Y-55099495D01*
X103692240Y-55044240D01*
X103747495Y-54961545D01*
X103766898Y-54864000D01*
X103747495Y-54766455D01*
X103692240Y-54683760D01*
X103609545Y-54628505D01*
X103536624Y-54614000D01*
X103487376Y-54614000D01*
X103414455Y-54628505D01*
X103331760Y-54683760D01*
X103276505Y-54766455D01*
X103258000Y-54859485D01*
X103258000Y-53739703D01*
X103766000Y-53739703D01*
X103766000Y-54610000D01*
X104420000Y-54610000D01*
X104420000Y-54566410D01*
X104419999Y-54566402D01*
X104405051Y-54424175D01*
X104346071Y-54242654D01*
X104346067Y-54242646D01*
X104250636Y-54077354D01*
X104122917Y-53935506D01*
X103968505Y-53823319D01*
X103794130Y-53745682D01*
X103766000Y-53739703D01*
X103258000Y-53739703D01*
X103257999Y-53739703D01*
X103229869Y-53745682D01*
X103055494Y-53823319D01*
X102961485Y-53891621D01*
X102894617Y-53915480D01*
X102825465Y-53899399D01*
X102813363Y-53891621D01*
X102718752Y-53822882D01*
X102544288Y-53745206D01*
X102357487Y-53705500D01*
X102166513Y-53705500D01*
X101979711Y-53745206D01*
X101805247Y-53822882D01*
X101711061Y-53891313D01*
X101644193Y-53915172D01*
X101575042Y-53899091D01*
X101562939Y-53891313D01*
X101468752Y-53822882D01*
X101294288Y-53745206D01*
X101107487Y-53705500D01*
X100916513Y-53705500D01*
X100729711Y-53745206D01*
X100555247Y-53822882D01*
X100461061Y-53891313D01*
X100394193Y-53915172D01*
X100325042Y-53899091D01*
X100312939Y-53891313D01*
X100218752Y-53822882D01*
X100044288Y-53745206D01*
X99857487Y-53705500D01*
X99666513Y-53705500D01*
X99479711Y-53745206D01*
X99305248Y-53822882D01*
X99211059Y-53891314D01*
X99144192Y-53915172D01*
X99075040Y-53899091D01*
X99062940Y-53891314D01*
X98968752Y-53822882D01*
X98794288Y-53745206D01*
X98607487Y-53705500D01*
X98416513Y-53705500D01*
X98229711Y-53745206D01*
X98055247Y-53822882D01*
X97961061Y-53891313D01*
X97894193Y-53915172D01*
X97825042Y-53899091D01*
X97812939Y-53891313D01*
X97718752Y-53822882D01*
X97544288Y-53745206D01*
X97357487Y-53705500D01*
X97166513Y-53705500D01*
X96979711Y-53745206D01*
X96805247Y-53822882D01*
X96711061Y-53891313D01*
X96644193Y-53915172D01*
X96575042Y-53899091D01*
X96562939Y-53891313D01*
X96468752Y-53822882D01*
X96294288Y-53745206D01*
X96107487Y-53705500D01*
X95916513Y-53705500D01*
X95729711Y-53745206D01*
X95555246Y-53822882D01*
X95531370Y-53840230D01*
X95464502Y-53864088D01*
X95395350Y-53848006D01*
X95392142Y-53846131D01*
X95254913Y-53763173D01*
X95254912Y-53763172D01*
X95254911Y-53763172D01*
X95254906Y-53763170D01*
X95090646Y-53711986D01*
X95038722Y-53707268D01*
X95019265Y-53705500D01*
X95019262Y-53705500D01*
X94504738Y-53705500D01*
X94433353Y-53711986D01*
X94433352Y-53711986D01*
X94269093Y-53763170D01*
X94269088Y-53763172D01*
X94121844Y-53852184D01*
X94121839Y-53852188D01*
X94000188Y-53973839D01*
X94000184Y-53973844D01*
X93911172Y-54121088D01*
X93911170Y-54121093D01*
X93859986Y-54285353D01*
X93853500Y-54356737D01*
X93853500Y-55371261D01*
X93859986Y-55442646D01*
X93859986Y-55442647D01*
X93911170Y-55606906D01*
X93911172Y-55606911D01*
X93911173Y-55606913D01*
X93971052Y-55705965D01*
X94000184Y-55754155D01*
X94000188Y-55754160D01*
X94121839Y-55875811D01*
X94121844Y-55875815D01*
X94121845Y-55875816D01*
X94269087Y-55964827D01*
X94269091Y-55964828D01*
X94269093Y-55964829D01*
X94297506Y-55973682D01*
X94433351Y-56016013D01*
X94504735Y-56022500D01*
X95019264Y-56022499D01*
X95090649Y-56016013D01*
X95254913Y-55964827D01*
X95392128Y-55881876D01*
X95460769Y-55863753D01*
X95528315Y-55885618D01*
X95531361Y-55887763D01*
X95555248Y-55905118D01*
X95729712Y-55982794D01*
X95916513Y-56022500D01*
X96107487Y-56022500D01*
X96294288Y-55982794D01*
X96468752Y-55905118D01*
X96562942Y-55836684D01*
X96629806Y-55812828D01*
X96698958Y-55828908D01*
X96711043Y-55836673D01*
X96805248Y-55905118D01*
X96979712Y-55982794D01*
X97166513Y-56022500D01*
X97357487Y-56022500D01*
X97544288Y-55982794D01*
X97718752Y-55905118D01*
X97812938Y-55836687D01*
X97879807Y-55812828D01*
X97948958Y-55828909D01*
X97961061Y-55836687D01*
X98055248Y-55905118D01*
X98229712Y-55982794D01*
X98416513Y-56022500D01*
X98607487Y-56022500D01*
X98794288Y-55982794D01*
X98968752Y-55905118D01*
X99062938Y-55836687D01*
X99129807Y-55812828D01*
X99198958Y-55828909D01*
X99211061Y-55836687D01*
X99305248Y-55905118D01*
X99479712Y-55982794D01*
X99666513Y-56022500D01*
X99857487Y-56022500D01*
X100044288Y-55982794D01*
X100218752Y-55905118D01*
X100312938Y-55836687D01*
X100379807Y-55812828D01*
X100448958Y-55828909D01*
X100461061Y-55836687D01*
X100555248Y-55905118D01*
X100572606Y-55912846D01*
X100626702Y-55958823D01*
X100647353Y-56026750D01*
X100628003Y-56095059D01*
X100610454Y-56117048D01*
X97066909Y-59660595D01*
X97004597Y-59694620D01*
X96977814Y-59697500D01*
X96479350Y-59697500D01*
X96418803Y-59704009D01*
X96418795Y-59704011D01*
X96281797Y-59755110D01*
X96281792Y-59755112D01*
X96164738Y-59842738D01*
X96077112Y-59959792D01*
X96077110Y-59959797D01*
X96026011Y-60096795D01*
X96026009Y-60096803D01*
X96019500Y-60157350D01*
X96019500Y-61254649D01*
X96026009Y-61315196D01*
X96026011Y-61315204D01*
X96077110Y-61452202D01*
X96077112Y-61452207D01*
X96164738Y-61569261D01*
X96281792Y-61656887D01*
X96281794Y-61656888D01*
X96281796Y-61656889D01*
X96340875Y-61678924D01*
X96418795Y-61707988D01*
X96418803Y-61707990D01*
X96479350Y-61714499D01*
X96479355Y-61714499D01*
X96479362Y-61714500D01*
X96723814Y-61714500D01*
X96791935Y-61734502D01*
X96812909Y-61751405D01*
X97866205Y-62804701D01*
X97868798Y-62807456D01*
X97880333Y-62820476D01*
X97910589Y-62854628D01*
X97910590Y-62854629D01*
X97962460Y-62890432D01*
X97965513Y-62892677D01*
X98015107Y-62931532D01*
X98024486Y-62935753D01*
X98044354Y-62946958D01*
X98052827Y-62952807D01*
X98111749Y-62975153D01*
X98115262Y-62976608D01*
X98172713Y-63002465D01*
X98182835Y-63004319D01*
X98204803Y-63010444D01*
X98214425Y-63014093D01*
X98214428Y-63014094D01*
X98276971Y-63021687D01*
X98280711Y-63022256D01*
X98342713Y-63033620D01*
X98405607Y-63029814D01*
X98409412Y-63029700D01*
X105204613Y-63029700D01*
X105272734Y-63049702D01*
X105319227Y-63103358D01*
X105329331Y-63173632D01*
X105299837Y-63238212D01*
X105293708Y-63244796D01*
X104923304Y-63615198D01*
X104920533Y-63617806D01*
X104873372Y-63659587D01*
X104837573Y-63711450D01*
X104835319Y-63714513D01*
X104796465Y-63764108D01*
X104796465Y-63764109D01*
X104792238Y-63773500D01*
X104781047Y-63793342D01*
X104775198Y-63801816D01*
X104775192Y-63801829D01*
X104752842Y-63860755D01*
X104751387Y-63864268D01*
X104725536Y-63921710D01*
X104725535Y-63921714D01*
X104723679Y-63931840D01*
X104717559Y-63953794D01*
X104713905Y-63963429D01*
X104706313Y-64025957D01*
X104705740Y-64029720D01*
X104694380Y-64091710D01*
X104698184Y-64154604D01*
X104698299Y-64158408D01*
X104698299Y-64512287D01*
X104678297Y-64580408D01*
X104624641Y-64626901D01*
X104554367Y-64637005D01*
X104546102Y-64635534D01*
X104489487Y-64623500D01*
X104298513Y-64623500D01*
X104111711Y-64663206D01*
X103937247Y-64740882D01*
X103782744Y-64853135D01*
X103654965Y-64995048D01*
X103654958Y-64995058D01*
X103565971Y-65149189D01*
X103559473Y-65160444D01*
X103557283Y-65167184D01*
X103500457Y-65342072D01*
X103480496Y-65531999D01*
X103500457Y-65721927D01*
X103530526Y-65814470D01*
X103559473Y-65903556D01*
X103559476Y-65903561D01*
X103654958Y-66068941D01*
X103658236Y-66073453D01*
X103682094Y-66140321D01*
X103682299Y-66147513D01*
X103682299Y-67979014D01*
X103662297Y-68047135D01*
X103645394Y-68068109D01*
X100257718Y-71455784D01*
X100195406Y-71489810D01*
X100194819Y-71489936D01*
X100177896Y-71493533D01*
X100107105Y-71488130D01*
X100050473Y-71445313D01*
X100025980Y-71378676D01*
X100025700Y-71370286D01*
X100025700Y-69365411D01*
X100025815Y-69361606D01*
X100026271Y-69354061D01*
X100029620Y-69298713D01*
X100018256Y-69236711D01*
X100017687Y-69232971D01*
X100010094Y-69170428D01*
X100006444Y-69160803D01*
X100000319Y-69138832D01*
X99998465Y-69128713D01*
X99998463Y-69128710D01*
X99998463Y-69128707D01*
X99972608Y-69071261D01*
X99971151Y-69067743D01*
X99948810Y-69008834D01*
X99948808Y-69008831D01*
X99948807Y-69008827D01*
X99942956Y-69000351D01*
X99931760Y-68980500D01*
X99927533Y-68971107D01*
X99888671Y-68921504D01*
X99886432Y-68918461D01*
X99850628Y-68866589D01*
X99820603Y-68839989D01*
X99803456Y-68824798D01*
X99800701Y-68822205D01*
X97311405Y-66332908D01*
X97277379Y-66270597D01*
X97274500Y-66243814D01*
X97274500Y-65745367D01*
X97274499Y-65745350D01*
X97267990Y-65684803D01*
X97267988Y-65684795D01*
X97216889Y-65547797D01*
X97216887Y-65547792D01*
X97129261Y-65430738D01*
X97012207Y-65343112D01*
X97012202Y-65343110D01*
X96875204Y-65292011D01*
X96875196Y-65292009D01*
X96814649Y-65285500D01*
X96814638Y-65285500D01*
X95717362Y-65285500D01*
X95717350Y-65285500D01*
X95656803Y-65292009D01*
X95656795Y-65292011D01*
X95519797Y-65343110D01*
X95519792Y-65343112D01*
X95402738Y-65430738D01*
X95315112Y-65547792D01*
X95315110Y-65547797D01*
X95264011Y-65684795D01*
X95264009Y-65684803D01*
X95257500Y-65745350D01*
X95257500Y-66842649D01*
X95264009Y-66903196D01*
X95264011Y-66903204D01*
X95315110Y-67040202D01*
X95315112Y-67040207D01*
X95402738Y-67157261D01*
X95519792Y-67244887D01*
X95519794Y-67244888D01*
X95519796Y-67244889D01*
X95578875Y-67266924D01*
X95656795Y-67295988D01*
X95656803Y-67295990D01*
X95717350Y-67302499D01*
X95717355Y-67302499D01*
X95717362Y-67302500D01*
X96215814Y-67302500D01*
X96283935Y-67322502D01*
X96304909Y-67339405D01*
X96321909Y-67356405D01*
X96355935Y-67418717D01*
X96350870Y-67489532D01*
X96308323Y-67546368D01*
X96241803Y-67571179D01*
X96232814Y-67571500D01*
X95717350Y-67571500D01*
X95656803Y-67578009D01*
X95656795Y-67578011D01*
X95519797Y-67629110D01*
X95519792Y-67629112D01*
X95402738Y-67716738D01*
X95315112Y-67833792D01*
X95315110Y-67833797D01*
X95264011Y-67970795D01*
X95264009Y-67970803D01*
X95257500Y-68031350D01*
X95257500Y-69128649D01*
X95264009Y-69189196D01*
X95264011Y-69189204D01*
X95315110Y-69326202D01*
X95315112Y-69326207D01*
X95402738Y-69443261D01*
X95519792Y-69530887D01*
X95519794Y-69530888D01*
X95519796Y-69530889D01*
X95578875Y-69552924D01*
X95656795Y-69581988D01*
X95656803Y-69581990D01*
X95717350Y-69588499D01*
X95717355Y-69588499D01*
X95717362Y-69588500D01*
X95717368Y-69588500D01*
X96814632Y-69588500D01*
X96814638Y-69588500D01*
X96814645Y-69588499D01*
X96814649Y-69588499D01*
X96875196Y-69581990D01*
X96875199Y-69581989D01*
X96875201Y-69581989D01*
X97012204Y-69530889D01*
X97122597Y-69448250D01*
X97129261Y-69443261D01*
X97216887Y-69326207D01*
X97216887Y-69326206D01*
X97216889Y-69326204D01*
X97267989Y-69189201D01*
X97270008Y-69170428D01*
X97274499Y-69128649D01*
X97274500Y-69128632D01*
X97274500Y-68613186D01*
X97294502Y-68545065D01*
X97348158Y-68498572D01*
X97418432Y-68488468D01*
X97483012Y-68517962D01*
X97489595Y-68524091D01*
X98565396Y-69599892D01*
X98599420Y-69662202D01*
X98602300Y-69688985D01*
X98602300Y-72536485D01*
X98582298Y-72604606D01*
X98578239Y-72610542D01*
X98574959Y-72615055D01*
X98485971Y-72769189D01*
X98479473Y-72780444D01*
X98465687Y-72822872D01*
X98420457Y-72962072D01*
X98400496Y-73152000D01*
X98417851Y-73317130D01*
X98405078Y-73386968D01*
X98356576Y-73438815D01*
X98292541Y-73456300D01*
X97628986Y-73456300D01*
X97560865Y-73436298D01*
X97539891Y-73419395D01*
X97311405Y-73190909D01*
X97277379Y-73128597D01*
X97274500Y-73101814D01*
X97274500Y-72603367D01*
X97274499Y-72603350D01*
X97267990Y-72542803D01*
X97267988Y-72542795D01*
X97216889Y-72405797D01*
X97216887Y-72405792D01*
X97129261Y-72288738D01*
X97012207Y-72201112D01*
X97012202Y-72201110D01*
X96875204Y-72150011D01*
X96875196Y-72150009D01*
X96814649Y-72143500D01*
X96814638Y-72143500D01*
X95717362Y-72143500D01*
X95717350Y-72143500D01*
X95656803Y-72150009D01*
X95656795Y-72150011D01*
X95519797Y-72201110D01*
X95519789Y-72201114D01*
X95484703Y-72227379D01*
X95418183Y-72252189D01*
X95348809Y-72237097D01*
X95320101Y-72215605D01*
X94897291Y-71792795D01*
X94863265Y-71730483D01*
X94868330Y-71659668D01*
X94910877Y-71602832D01*
X94977397Y-71578021D01*
X94986386Y-71577700D01*
X95226210Y-71577700D01*
X95294331Y-71597702D01*
X95327078Y-71628191D01*
X95402738Y-71729261D01*
X95519792Y-71816887D01*
X95519794Y-71816888D01*
X95519796Y-71816889D01*
X95578875Y-71838924D01*
X95656795Y-71867988D01*
X95656803Y-71867990D01*
X95717350Y-71874499D01*
X95717355Y-71874499D01*
X95717362Y-71874500D01*
X95717368Y-71874500D01*
X96814632Y-71874500D01*
X96814638Y-71874500D01*
X96814645Y-71874499D01*
X96814649Y-71874499D01*
X96875196Y-71867990D01*
X96875199Y-71867989D01*
X96875201Y-71867989D01*
X97012204Y-71816889D01*
X97068334Y-71774871D01*
X97129261Y-71729261D01*
X97216887Y-71612207D01*
X97216887Y-71612206D01*
X97216889Y-71612204D01*
X97267989Y-71475201D01*
X97270077Y-71455784D01*
X97274499Y-71414649D01*
X97274500Y-71414632D01*
X97274500Y-70317367D01*
X97274499Y-70317350D01*
X97267990Y-70256803D01*
X97267988Y-70256795D01*
X97216889Y-70119797D01*
X97216887Y-70119792D01*
X97129261Y-70002738D01*
X97012207Y-69915112D01*
X97012202Y-69915110D01*
X96875204Y-69864011D01*
X96875196Y-69864009D01*
X96814649Y-69857500D01*
X96814638Y-69857500D01*
X95717362Y-69857500D01*
X95717350Y-69857500D01*
X95656803Y-69864009D01*
X95656795Y-69864011D01*
X95519797Y-69915110D01*
X95519792Y-69915112D01*
X95402738Y-70002738D01*
X95327078Y-70103809D01*
X95270242Y-70146356D01*
X95226210Y-70154300D01*
X95088986Y-70154300D01*
X95020865Y-70134298D01*
X94999891Y-70117395D01*
X94728605Y-69846109D01*
X94694579Y-69783797D01*
X94691700Y-69757014D01*
X94691700Y-68941514D01*
X94711702Y-68873393D01*
X94715763Y-68867454D01*
X94719032Y-68862952D01*
X94719040Y-68862944D01*
X94814527Y-68697556D01*
X94873542Y-68515928D01*
X94893504Y-68326000D01*
X94873542Y-68136072D01*
X94814527Y-67954444D01*
X94719040Y-67789056D01*
X94719038Y-67789054D01*
X94719034Y-67789048D01*
X94591255Y-67647135D01*
X94436752Y-67534882D01*
X94262288Y-67457206D01*
X94075487Y-67417500D01*
X93884513Y-67417500D01*
X93697709Y-67457206D01*
X93523248Y-67534881D01*
X93452881Y-67544315D01*
X93420752Y-67534881D01*
X93246290Y-67457206D01*
X93059487Y-67417500D01*
X92868513Y-67417500D01*
X92681711Y-67457206D01*
X92507247Y-67534882D01*
X92352744Y-67647135D01*
X92224965Y-67789048D01*
X92224958Y-67789058D01*
X92129476Y-67954438D01*
X92129473Y-67954444D01*
X92125055Y-67968042D01*
X92070457Y-68136072D01*
X92050496Y-68326000D01*
X92070457Y-68515927D01*
X92100526Y-68608470D01*
X92129473Y-68697556D01*
X92129476Y-68697561D01*
X92224959Y-68862942D01*
X92228237Y-68867454D01*
X92252095Y-68934322D01*
X92252300Y-68941514D01*
X92252300Y-70842587D01*
X92252185Y-70846392D01*
X92248380Y-70909286D01*
X92259740Y-70971278D01*
X92260313Y-70975041D01*
X92267904Y-71037566D01*
X92267906Y-71037572D01*
X92271557Y-71047200D01*
X92277679Y-71069160D01*
X92279535Y-71079287D01*
X92305392Y-71136740D01*
X92306848Y-71140255D01*
X92329192Y-71199171D01*
X92329197Y-71199180D01*
X92335041Y-71207647D01*
X92346241Y-71227505D01*
X92350465Y-71236890D01*
X92350467Y-71236893D01*
X92389322Y-71286489D01*
X92391578Y-71289555D01*
X92427371Y-71341410D01*
X92427372Y-71341411D01*
X92459965Y-71370286D01*
X92474543Y-71383200D01*
X92477297Y-71385793D01*
X94730205Y-73638701D01*
X94732798Y-73641456D01*
X94747989Y-73658603D01*
X94774589Y-73688628D01*
X94821198Y-73720799D01*
X94826461Y-73724432D01*
X94829513Y-73726677D01*
X94879107Y-73765532D01*
X94879108Y-73765532D01*
X94879109Y-73765533D01*
X94888488Y-73769754D01*
X94908358Y-73780961D01*
X94916827Y-73786807D01*
X94975732Y-73809146D01*
X94979250Y-73810603D01*
X95000727Y-73820269D01*
X95036712Y-73836465D01*
X95046830Y-73838319D01*
X95068805Y-73844444D01*
X95078428Y-73848094D01*
X95140985Y-73855689D01*
X95144715Y-73856256D01*
X95206713Y-73867619D01*
X95220727Y-73866771D01*
X95289927Y-73882619D01*
X95329204Y-73917031D01*
X95402738Y-74015261D01*
X95519792Y-74102887D01*
X95519794Y-74102888D01*
X95519796Y-74102889D01*
X95578875Y-74124924D01*
X95656795Y-74153988D01*
X95656803Y-74153990D01*
X95717350Y-74160499D01*
X95717355Y-74160499D01*
X95717362Y-74160500D01*
X96215814Y-74160500D01*
X96283935Y-74180502D01*
X96304909Y-74197405D01*
X96762205Y-74654701D01*
X96764798Y-74657456D01*
X96779989Y-74674603D01*
X96806589Y-74704628D01*
X96858461Y-74740432D01*
X96861504Y-74742671D01*
X96911107Y-74781533D01*
X96920500Y-74785760D01*
X96940351Y-74796956D01*
X96948827Y-74802807D01*
X96948831Y-74802808D01*
X96948834Y-74802810D01*
X97007743Y-74825151D01*
X97011261Y-74826608D01*
X97068707Y-74852463D01*
X97068710Y-74852463D01*
X97068713Y-74852465D01*
X97078835Y-74854319D01*
X97100803Y-74860444D01*
X97110425Y-74864093D01*
X97110428Y-74864094D01*
X97172971Y-74871687D01*
X97176711Y-74872256D01*
X97238713Y-74883620D01*
X97301607Y-74879814D01*
X97305412Y-74879700D01*
X97746953Y-74879700D01*
X106851052Y-74879700D01*
X106919173Y-74899702D01*
X106956535Y-74936784D01*
X107001278Y-75005268D01*
X107144475Y-75160820D01*
X107175896Y-75224485D01*
X107167909Y-75295031D01*
X107123050Y-75350060D01*
X107095807Y-75364213D01*
X106980797Y-75407110D01*
X106980792Y-75407112D01*
X106863738Y-75494738D01*
X106776112Y-75611792D01*
X106776110Y-75611797D01*
X106725011Y-75748795D01*
X106725009Y-75748803D01*
X106718500Y-75809350D01*
X106718499Y-75809367D01*
X106718500Y-77007813D01*
X106698498Y-77075934D01*
X106681595Y-77096908D01*
X104173309Y-79605195D01*
X104110997Y-79639220D01*
X104084214Y-79642100D01*
X101975474Y-79642100D01*
X101907353Y-79622098D01*
X101860860Y-79568442D01*
X101850756Y-79498168D01*
X101860087Y-79465485D01*
X101872822Y-79436451D01*
X101872823Y-79436449D01*
X101920544Y-79248000D01*
X101015116Y-79248000D01*
X101043493Y-79203844D01*
X101084000Y-79065889D01*
X101084000Y-78922111D01*
X101043493Y-78784156D01*
X101015116Y-78740000D01*
X101920544Y-78740000D01*
X101920544Y-78739999D01*
X101872823Y-78551550D01*
X101872820Y-78551543D01*
X101782419Y-78345451D01*
X101659325Y-78157041D01*
X101506902Y-77991465D01*
X101329301Y-77853232D01*
X101329300Y-77853231D01*
X101131371Y-77746117D01*
X101131369Y-77746116D01*
X100918512Y-77673043D01*
X100918501Y-77673040D01*
X100838000Y-77659606D01*
X100838000Y-78560325D01*
X100726315Y-78509320D01*
X100619763Y-78494000D01*
X100548237Y-78494000D01*
X100441685Y-78509320D01*
X100330000Y-78560325D01*
X100330000Y-77659607D01*
X100329999Y-77659606D01*
X100249498Y-77673040D01*
X100249487Y-77673043D01*
X100036630Y-77746116D01*
X100036628Y-77746117D01*
X99838699Y-77853231D01*
X99838698Y-77853232D01*
X99661097Y-77991465D01*
X99508670Y-78157045D01*
X99419780Y-78293101D01*
X99365776Y-78339189D01*
X99295428Y-78348764D01*
X99231071Y-78318786D01*
X99208816Y-78293101D01*
X99169884Y-78233511D01*
X99119724Y-78156734D01*
X99119720Y-78156729D01*
X99003570Y-78030558D01*
X98967240Y-77991094D01*
X98967239Y-77991093D01*
X98967237Y-77991091D01*
X98885382Y-77927381D01*
X98789576Y-77852811D01*
X98591574Y-77745658D01*
X98591572Y-77745657D01*
X98591571Y-77745656D01*
X98378639Y-77672557D01*
X98378630Y-77672555D01*
X98301029Y-77659606D01*
X98156569Y-77635500D01*
X97931431Y-77635500D01*
X97790213Y-77659065D01*
X97709369Y-77672555D01*
X97709360Y-77672557D01*
X97496428Y-77745656D01*
X97496426Y-77745658D01*
X97298426Y-77852810D01*
X97298424Y-77852811D01*
X97120762Y-77991091D01*
X96968279Y-78156729D01*
X96879483Y-78292643D01*
X96825479Y-78338731D01*
X96755131Y-78348306D01*
X96690774Y-78318329D01*
X96668517Y-78292643D01*
X96579720Y-78156729D01*
X96463570Y-78030558D01*
X96427240Y-77991094D01*
X96427239Y-77991093D01*
X96427237Y-77991091D01*
X96345382Y-77927381D01*
X96249576Y-77852811D01*
X96051574Y-77745658D01*
X96051572Y-77745657D01*
X96051571Y-77745656D01*
X95838639Y-77672557D01*
X95838632Y-77672555D01*
X95726803Y-77653894D01*
X95616569Y-77635500D01*
X95616566Y-77635500D01*
X95611562Y-77634665D01*
X95547663Y-77603723D01*
X95510635Y-77543147D01*
X95512236Y-77472168D01*
X95543204Y-77421290D01*
X95703282Y-77261212D01*
X95765592Y-77227188D01*
X95765929Y-77227115D01*
X95913288Y-77195794D01*
X96087752Y-77118118D01*
X96242253Y-77005866D01*
X96370040Y-76863944D01*
X96465527Y-76698556D01*
X96524542Y-76516928D01*
X96544504Y-76327000D01*
X96524542Y-76137072D01*
X96465527Y-75955444D01*
X96370040Y-75790056D01*
X96370038Y-75790054D01*
X96370034Y-75790048D01*
X96242255Y-75648135D01*
X96087752Y-75535882D01*
X95913288Y-75458206D01*
X95726487Y-75418500D01*
X95535513Y-75418500D01*
X95348711Y-75458206D01*
X95174247Y-75535882D01*
X95019744Y-75648135D01*
X94891965Y-75790048D01*
X94891958Y-75790058D01*
X94796476Y-75955438D01*
X94796473Y-75955445D01*
X94737458Y-76137070D01*
X94737457Y-76137072D01*
X94733080Y-76178715D01*
X94706066Y-76244371D01*
X94696866Y-76254636D01*
X93327624Y-77623878D01*
X93265312Y-77657904D01*
X93217791Y-77659065D01*
X93183057Y-77653269D01*
X93076569Y-77635500D01*
X92851431Y-77635500D01*
X92710213Y-77659065D01*
X92629369Y-77672555D01*
X92629360Y-77672557D01*
X92416428Y-77745656D01*
X92416426Y-77745658D01*
X92218426Y-77852810D01*
X92218424Y-77852811D01*
X92040762Y-77991091D01*
X91888279Y-78156729D01*
X91888275Y-78156734D01*
X91765141Y-78345206D01*
X91674703Y-78551386D01*
X91674702Y-78551387D01*
X91619437Y-78769624D01*
X91619436Y-78769630D01*
X91619436Y-78769632D01*
X91600844Y-78994000D01*
X88983156Y-78994000D01*
X88964564Y-78769632D01*
X88909338Y-78551550D01*
X88909297Y-78551387D01*
X88909296Y-78551386D01*
X88909296Y-78551384D01*
X88818860Y-78345209D01*
X88801597Y-78318786D01*
X88695724Y-78156734D01*
X88695720Y-78156729D01*
X88579570Y-78030559D01*
X88543240Y-77991094D01*
X88543239Y-77991093D01*
X88543237Y-77991091D01*
X88461382Y-77927381D01*
X88365576Y-77852811D01*
X88167574Y-77745658D01*
X88167572Y-77745657D01*
X88167571Y-77745656D01*
X87954639Y-77672557D01*
X87954630Y-77672555D01*
X87877029Y-77659606D01*
X87732569Y-77635500D01*
X87507431Y-77635500D01*
X87366213Y-77659065D01*
X87285369Y-77672555D01*
X87285360Y-77672557D01*
X87072428Y-77745656D01*
X87072426Y-77745658D01*
X86874426Y-77852810D01*
X86874424Y-77852811D01*
X86696762Y-77991091D01*
X86544279Y-78156729D01*
X86544275Y-78156734D01*
X86421141Y-78345206D01*
X86330703Y-78551386D01*
X86330702Y-78551387D01*
X86275437Y-78769624D01*
X86275436Y-78769630D01*
X86275436Y-78769632D01*
X86256844Y-78994000D01*
X70785500Y-78994000D01*
X70785500Y-74167999D01*
X78900844Y-74167999D01*
X78919437Y-74392375D01*
X78974702Y-74610612D01*
X78974703Y-74610613D01*
X78974704Y-74610616D01*
X79065140Y-74816791D01*
X79065141Y-74816793D01*
X79188275Y-75005265D01*
X79188280Y-75005270D01*
X79331475Y-75160820D01*
X79362896Y-75224485D01*
X79354909Y-75295031D01*
X79310051Y-75350060D01*
X79282807Y-75364213D01*
X79167797Y-75407110D01*
X79167792Y-75407112D01*
X79050738Y-75494738D01*
X78963112Y-75611792D01*
X78963110Y-75611797D01*
X78912011Y-75748795D01*
X78912009Y-75748803D01*
X78905500Y-75809350D01*
X78905500Y-77606649D01*
X78912009Y-77667196D01*
X78912011Y-77667204D01*
X78963110Y-77804202D01*
X78963112Y-77804207D01*
X79050738Y-77921261D01*
X79167792Y-78008887D01*
X79167794Y-78008888D01*
X79167796Y-78008889D01*
X79226875Y-78030924D01*
X79304795Y-78059988D01*
X79304803Y-78059990D01*
X79365350Y-78066499D01*
X79365355Y-78066499D01*
X79365362Y-78066500D01*
X79365368Y-78066500D01*
X81162632Y-78066500D01*
X81162638Y-78066500D01*
X81162645Y-78066499D01*
X81162649Y-78066499D01*
X81223196Y-78059990D01*
X81223199Y-78059989D01*
X81223201Y-78059989D01*
X81360204Y-78008889D01*
X81383976Y-77991094D01*
X81477261Y-77921261D01*
X81564887Y-77804207D01*
X81564887Y-77804206D01*
X81564889Y-77804204D01*
X81615989Y-77667201D01*
X81616806Y-77659607D01*
X81622499Y-77606649D01*
X81622500Y-77606632D01*
X81622500Y-75809367D01*
X81622499Y-75809350D01*
X81615990Y-75748803D01*
X81615988Y-75748795D01*
X81578443Y-75648135D01*
X81564889Y-75611796D01*
X81564888Y-75611794D01*
X81564887Y-75611792D01*
X81477261Y-75494738D01*
X81360207Y-75407112D01*
X81360203Y-75407110D01*
X81245192Y-75364213D01*
X81188356Y-75321667D01*
X81163546Y-75255146D01*
X81178638Y-75185772D01*
X81196525Y-75160820D01*
X81339714Y-75005277D01*
X81339724Y-75005265D01*
X81384465Y-74936784D01*
X81462860Y-74816791D01*
X81553296Y-74610616D01*
X81608564Y-74392368D01*
X81627156Y-74168000D01*
X81608564Y-73943632D01*
X81589100Y-73866770D01*
X81553297Y-73725387D01*
X81553296Y-73725386D01*
X81553296Y-73725384D01*
X81462860Y-73519209D01*
X81407807Y-73434944D01*
X81339724Y-73330734D01*
X81339720Y-73330729D01*
X81188824Y-73166815D01*
X81187240Y-73165094D01*
X81187239Y-73165093D01*
X81187237Y-73165091D01*
X81088097Y-73087927D01*
X81009576Y-73026811D01*
X80976319Y-73008813D01*
X80925929Y-72958802D01*
X80910576Y-72889485D01*
X80935136Y-72822872D01*
X80976320Y-72787186D01*
X81009576Y-72769189D01*
X81187240Y-72630906D01*
X81339722Y-72465268D01*
X81462860Y-72276791D01*
X81553296Y-72070616D01*
X81608564Y-71852368D01*
X81627156Y-71628000D01*
X81608564Y-71403632D01*
X81604051Y-71385810D01*
X81553297Y-71185387D01*
X81553296Y-71185386D01*
X81553296Y-71185384D01*
X81462860Y-70979209D01*
X81417177Y-70909286D01*
X81339724Y-70790734D01*
X81339720Y-70790729D01*
X81187237Y-70625091D01*
X81105382Y-70561381D01*
X81009576Y-70486811D01*
X80976319Y-70468813D01*
X80925929Y-70418802D01*
X80910576Y-70349485D01*
X80935136Y-70282872D01*
X80976320Y-70247186D01*
X81009576Y-70229189D01*
X81187240Y-70090906D01*
X81339722Y-69925268D01*
X81462860Y-69736791D01*
X81553296Y-69530616D01*
X81608564Y-69312368D01*
X81627156Y-69088000D01*
X81608564Y-68863632D01*
X81553296Y-68645384D01*
X81462860Y-68439209D01*
X81456140Y-68428924D01*
X81339724Y-68250734D01*
X81339720Y-68250729D01*
X81204701Y-68104062D01*
X81187240Y-68085094D01*
X81187239Y-68085093D01*
X81187237Y-68085091D01*
X81098794Y-68016253D01*
X81009576Y-67946811D01*
X80976319Y-67928813D01*
X80925929Y-67878802D01*
X80910576Y-67809485D01*
X80935136Y-67742872D01*
X80976320Y-67707186D01*
X81009576Y-67689189D01*
X81187240Y-67550906D01*
X81339722Y-67385268D01*
X81462860Y-67196791D01*
X81553296Y-66990616D01*
X81608564Y-66772368D01*
X81627156Y-66548000D01*
X81608564Y-66323632D01*
X81553296Y-66105384D01*
X81462860Y-65899209D01*
X81445548Y-65872711D01*
X81339724Y-65710734D01*
X81339720Y-65710729D01*
X81189727Y-65547796D01*
X81187240Y-65545094D01*
X81187239Y-65545093D01*
X81187237Y-65545091D01*
X81088243Y-65468041D01*
X81009576Y-65406811D01*
X81009569Y-65406807D01*
X80976318Y-65388812D01*
X80925928Y-65338798D01*
X80910576Y-65269481D01*
X80935137Y-65202869D01*
X80976315Y-65167188D01*
X81009576Y-65149189D01*
X81187240Y-65010906D01*
X81339722Y-64845268D01*
X81462860Y-64656791D01*
X81553296Y-64450616D01*
X81608564Y-64232368D01*
X81627156Y-64008000D01*
X81608564Y-63783632D01*
X81577152Y-63659589D01*
X81553297Y-63565387D01*
X81553296Y-63565386D01*
X81553296Y-63565384D01*
X81462860Y-63359209D01*
X81456140Y-63348924D01*
X81339724Y-63170734D01*
X81339720Y-63170729D01*
X81213499Y-63033619D01*
X81187240Y-63005094D01*
X81187239Y-63005093D01*
X81187237Y-63005091D01*
X81098152Y-62935753D01*
X81009576Y-62866811D01*
X81009569Y-62866807D01*
X80976318Y-62848812D01*
X80925928Y-62798798D01*
X80910576Y-62729481D01*
X80935137Y-62662869D01*
X80976315Y-62627188D01*
X81009576Y-62609189D01*
X81187240Y-62470906D01*
X81339722Y-62305268D01*
X81462860Y-62116791D01*
X81553296Y-61910616D01*
X81608564Y-61692368D01*
X81627156Y-61468000D01*
X81608564Y-61243632D01*
X81553296Y-61025384D01*
X81524616Y-60960000D01*
X88400000Y-60960000D01*
X88400000Y-61254597D01*
X88406505Y-61315093D01*
X88457555Y-61451964D01*
X88457555Y-61451965D01*
X88545095Y-61568904D01*
X88662034Y-61656444D01*
X88798906Y-61707494D01*
X88859402Y-61713999D01*
X88859415Y-61714000D01*
X89154000Y-61714000D01*
X89154000Y-60960000D01*
X89662000Y-60960000D01*
X89662000Y-61714000D01*
X89956585Y-61714000D01*
X89956597Y-61713999D01*
X90017093Y-61707494D01*
X90153964Y-61656444D01*
X90153965Y-61656444D01*
X90270904Y-61568904D01*
X90358444Y-61451965D01*
X90358444Y-61451964D01*
X90409494Y-61315093D01*
X90415993Y-61254649D01*
X91955500Y-61254649D01*
X91962009Y-61315196D01*
X91962011Y-61315204D01*
X92013110Y-61452202D01*
X92013112Y-61452207D01*
X92100738Y-61569261D01*
X92217792Y-61656887D01*
X92217794Y-61656888D01*
X92217796Y-61656889D01*
X92276875Y-61678924D01*
X92354795Y-61707988D01*
X92354803Y-61707990D01*
X92415350Y-61714499D01*
X92415355Y-61714499D01*
X92415362Y-61714500D01*
X92415368Y-61714500D01*
X93512632Y-61714500D01*
X93512638Y-61714500D01*
X93512645Y-61714499D01*
X93512649Y-61714499D01*
X93573196Y-61707990D01*
X93573199Y-61707989D01*
X93573201Y-61707989D01*
X93710204Y-61656889D01*
X93710799Y-61656444D01*
X93827261Y-61569261D01*
X93914887Y-61452207D01*
X93914887Y-61452206D01*
X93914889Y-61452204D01*
X93965989Y-61315201D01*
X93972500Y-61254638D01*
X93972500Y-60157362D01*
X93972499Y-60157350D01*
X93965990Y-60096803D01*
X93965988Y-60096795D01*
X93914978Y-59960035D01*
X93914889Y-59959796D01*
X93914888Y-59959794D01*
X93914887Y-59959792D01*
X93827261Y-59842738D01*
X93710207Y-59755112D01*
X93710202Y-59755110D01*
X93573204Y-59704011D01*
X93573196Y-59704009D01*
X93512649Y-59697500D01*
X93512638Y-59697500D01*
X92415362Y-59697500D01*
X92415350Y-59697500D01*
X92354803Y-59704009D01*
X92354795Y-59704011D01*
X92217797Y-59755110D01*
X92217792Y-59755112D01*
X92100738Y-59842738D01*
X92013112Y-59959792D01*
X92013110Y-59959797D01*
X91962011Y-60096795D01*
X91962009Y-60096803D01*
X91955500Y-60157350D01*
X91955500Y-61254649D01*
X90415993Y-61254649D01*
X90415999Y-61254597D01*
X90416000Y-61254585D01*
X90416000Y-60960000D01*
X89662000Y-60960000D01*
X89154000Y-60960000D01*
X88400000Y-60960000D01*
X81524616Y-60960000D01*
X81462860Y-60819209D01*
X81452626Y-60803545D01*
X81388897Y-60706000D01*
X89153102Y-60706000D01*
X89172505Y-60803545D01*
X89227760Y-60886240D01*
X89310455Y-60941495D01*
X89383376Y-60956000D01*
X89432624Y-60956000D01*
X89505545Y-60941495D01*
X89588240Y-60886240D01*
X89643495Y-60803545D01*
X89662898Y-60706000D01*
X89643495Y-60608455D01*
X89588240Y-60525760D01*
X89505545Y-60470505D01*
X89432624Y-60456000D01*
X89383376Y-60456000D01*
X89310455Y-60470505D01*
X89227760Y-60525760D01*
X89172505Y-60608455D01*
X89153102Y-60706000D01*
X81388897Y-60706000D01*
X81339724Y-60630734D01*
X81339720Y-60630729D01*
X81187237Y-60465091D01*
X81170418Y-60452000D01*
X88400000Y-60452000D01*
X89154000Y-60452000D01*
X89154000Y-59698000D01*
X89662000Y-59698000D01*
X89662000Y-60452000D01*
X90416000Y-60452000D01*
X90416000Y-60157414D01*
X90415999Y-60157402D01*
X90409494Y-60096906D01*
X90358444Y-59960035D01*
X90358444Y-59960034D01*
X90270904Y-59843095D01*
X90153965Y-59755555D01*
X90017093Y-59704505D01*
X89956597Y-59698000D01*
X89662000Y-59698000D01*
X89154000Y-59698000D01*
X88859402Y-59698000D01*
X88798906Y-59704505D01*
X88662035Y-59755555D01*
X88662034Y-59755555D01*
X88545095Y-59843095D01*
X88457555Y-59960034D01*
X88457555Y-59960035D01*
X88406505Y-60096906D01*
X88400000Y-60157402D01*
X88400000Y-60452000D01*
X81170418Y-60452000D01*
X81105382Y-60401381D01*
X81009576Y-60326811D01*
X80976319Y-60308813D01*
X80925929Y-60258802D01*
X80910576Y-60189485D01*
X80935136Y-60122872D01*
X80976320Y-60087186D01*
X80976847Y-60086901D01*
X81009576Y-60069189D01*
X81187240Y-59930906D01*
X81339722Y-59765268D01*
X81462860Y-59576791D01*
X81553296Y-59370616D01*
X81608564Y-59152368D01*
X81627156Y-58928000D01*
X81608564Y-58703632D01*
X81553338Y-58485550D01*
X81553297Y-58485387D01*
X81553296Y-58485386D01*
X81553296Y-58485384D01*
X81462860Y-58279209D01*
X81456140Y-58268924D01*
X81339724Y-58090734D01*
X81339720Y-58090729D01*
X81223570Y-57964559D01*
X81187240Y-57925094D01*
X81187239Y-57925093D01*
X81187237Y-57925091D01*
X81105382Y-57861381D01*
X81009576Y-57786811D01*
X80811574Y-57679658D01*
X80811572Y-57679657D01*
X80811571Y-57679656D01*
X80598639Y-57606557D01*
X80598630Y-57606555D01*
X80521029Y-57593606D01*
X80376569Y-57569500D01*
X80151431Y-57569500D01*
X80006971Y-57593606D01*
X79929369Y-57606555D01*
X79929360Y-57606557D01*
X79716428Y-57679656D01*
X79716426Y-57679658D01*
X79518426Y-57786810D01*
X79518424Y-57786811D01*
X79340762Y-57925091D01*
X79188279Y-58090729D01*
X79188275Y-58090734D01*
X79065141Y-58279206D01*
X78974703Y-58485386D01*
X78974702Y-58485387D01*
X78919437Y-58703624D01*
X78919436Y-58703630D01*
X78919436Y-58703632D01*
X78900844Y-58928000D01*
X78918232Y-59137844D01*
X78919437Y-59152375D01*
X78974702Y-59370612D01*
X78974703Y-59370613D01*
X78974704Y-59370616D01*
X79065140Y-59576791D01*
X79065141Y-59576793D01*
X79188275Y-59765265D01*
X79188279Y-59765270D01*
X79340762Y-59930908D01*
X79395331Y-59973381D01*
X79518424Y-60069189D01*
X79551680Y-60087186D01*
X79602070Y-60137196D01*
X79617423Y-60206513D01*
X79592864Y-60273126D01*
X79551683Y-60308811D01*
X79518430Y-60326807D01*
X79518424Y-60326811D01*
X79340762Y-60465091D01*
X79188279Y-60630729D01*
X79188275Y-60630734D01*
X79065141Y-60819206D01*
X78974703Y-61025386D01*
X78974702Y-61025387D01*
X78919437Y-61243624D01*
X78919436Y-61243630D01*
X78919436Y-61243632D01*
X78913506Y-61315196D01*
X78903474Y-61436267D01*
X78900844Y-61468000D01*
X78916459Y-61656444D01*
X78919437Y-61692375D01*
X78974702Y-61910612D01*
X78974703Y-61910613D01*
X79065141Y-62116793D01*
X79188275Y-62305265D01*
X79188279Y-62305270D01*
X79340762Y-62470908D01*
X79395331Y-62513381D01*
X79518424Y-62609189D01*
X79551680Y-62627186D01*
X79602070Y-62677196D01*
X79617423Y-62746513D01*
X79592864Y-62813126D01*
X79551683Y-62848811D01*
X79518430Y-62866807D01*
X79518424Y-62866811D01*
X79340762Y-63005091D01*
X79188279Y-63170729D01*
X79188275Y-63170734D01*
X79065141Y-63359206D01*
X78974703Y-63565386D01*
X78974702Y-63565387D01*
X78919437Y-63783624D01*
X78919436Y-63783630D01*
X78919436Y-63783632D01*
X78900844Y-64008000D01*
X78913307Y-64158408D01*
X78919437Y-64232375D01*
X78974702Y-64450612D01*
X78974703Y-64450613D01*
X79065141Y-64656793D01*
X79188275Y-64845265D01*
X79188279Y-64845270D01*
X79340762Y-65010908D01*
X79395331Y-65053381D01*
X79518424Y-65149189D01*
X79551680Y-65167186D01*
X79602070Y-65217196D01*
X79617423Y-65286513D01*
X79592864Y-65353126D01*
X79551683Y-65388811D01*
X79518430Y-65406807D01*
X79518424Y-65406811D01*
X79340762Y-65545091D01*
X79188279Y-65710729D01*
X79188275Y-65710734D01*
X79065141Y-65899206D01*
X78974703Y-66105386D01*
X78974702Y-66105387D01*
X78919437Y-66323624D01*
X78919436Y-66323630D01*
X78919436Y-66323632D01*
X78900844Y-66548000D01*
X78918929Y-66766253D01*
X78919437Y-66772375D01*
X78974702Y-66990612D01*
X78974703Y-66990613D01*
X78974704Y-66990616D01*
X79032646Y-67122711D01*
X79065141Y-67196793D01*
X79188275Y-67385265D01*
X79188279Y-67385270D01*
X79316539Y-67524596D01*
X79336582Y-67546368D01*
X79340762Y-67550908D01*
X79375584Y-67578011D01*
X79518424Y-67689189D01*
X79551680Y-67707186D01*
X79602071Y-67757200D01*
X79617423Y-67826516D01*
X79592862Y-67893129D01*
X79551680Y-67928813D01*
X79518426Y-67946810D01*
X79518424Y-67946811D01*
X79340762Y-68085091D01*
X79188279Y-68250729D01*
X79188275Y-68250734D01*
X79065141Y-68439206D01*
X78974703Y-68645386D01*
X78974702Y-68645387D01*
X78919437Y-68863624D01*
X78919436Y-68863630D01*
X78919436Y-68863632D01*
X78900844Y-69088000D01*
X78918304Y-69298713D01*
X78919437Y-69312375D01*
X78974702Y-69530612D01*
X78974703Y-69530613D01*
X78974704Y-69530616D01*
X79044171Y-69688985D01*
X79065141Y-69736793D01*
X79188275Y-69925265D01*
X79188279Y-69925270D01*
X79340762Y-70090908D01*
X79377872Y-70119792D01*
X79518424Y-70229189D01*
X79551680Y-70247186D01*
X79602071Y-70297200D01*
X79617423Y-70366516D01*
X79592862Y-70433129D01*
X79551680Y-70468813D01*
X79518426Y-70486810D01*
X79518424Y-70486811D01*
X79340762Y-70625091D01*
X79188279Y-70790729D01*
X79188275Y-70790734D01*
X79065141Y-70979206D01*
X78974703Y-71185386D01*
X78974702Y-71185387D01*
X78919437Y-71403624D01*
X78919436Y-71403630D01*
X78919436Y-71403632D01*
X78900844Y-71628000D01*
X78913014Y-71774871D01*
X78919437Y-71852375D01*
X78974702Y-72070612D01*
X78974703Y-72070613D01*
X78974704Y-72070616D01*
X79031945Y-72201114D01*
X79065141Y-72276793D01*
X79188275Y-72465265D01*
X79188279Y-72465270D01*
X79340762Y-72630908D01*
X79395331Y-72673381D01*
X79518424Y-72769189D01*
X79551680Y-72787186D01*
X79602071Y-72837200D01*
X79617423Y-72906516D01*
X79592862Y-72973129D01*
X79551680Y-73008813D01*
X79518426Y-73026810D01*
X79518424Y-73026811D01*
X79340762Y-73165091D01*
X79188279Y-73330729D01*
X79188275Y-73330734D01*
X79065141Y-73519206D01*
X78974703Y-73725386D01*
X78974702Y-73725387D01*
X78919437Y-73943624D01*
X78900844Y-74167999D01*
X70785500Y-74167999D01*
X70785500Y-72662261D01*
X73263500Y-72662261D01*
X73269986Y-72733646D01*
X73269986Y-72733647D01*
X73321170Y-72897906D01*
X73321172Y-72897911D01*
X73321173Y-72897913D01*
X73338721Y-72926941D01*
X73410184Y-73045155D01*
X73410188Y-73045160D01*
X73531839Y-73166811D01*
X73531844Y-73166815D01*
X73531845Y-73166816D01*
X73679087Y-73255827D01*
X73679091Y-73255828D01*
X73679093Y-73255829D01*
X73707506Y-73264682D01*
X73843351Y-73307013D01*
X73914735Y-73313500D01*
X74929264Y-73313499D01*
X75000649Y-73307013D01*
X75164913Y-73255827D01*
X75312155Y-73166816D01*
X75433816Y-73045155D01*
X75522827Y-72897913D01*
X75574013Y-72733649D01*
X75580500Y-72662265D01*
X75580499Y-72147736D01*
X75574013Y-72076351D01*
X75522827Y-71912087D01*
X75439877Y-71774871D01*
X75421753Y-71706230D01*
X75443618Y-71638684D01*
X75445732Y-71635680D01*
X75463118Y-71611752D01*
X75540794Y-71437288D01*
X75580500Y-71250487D01*
X75580500Y-71059513D01*
X75540794Y-70872712D01*
X75463118Y-70698248D01*
X75394684Y-70604057D01*
X75370828Y-70537194D01*
X75386908Y-70468042D01*
X75394673Y-70455956D01*
X75463118Y-70361752D01*
X75540794Y-70187288D01*
X75580500Y-70000487D01*
X75580500Y-69809513D01*
X75580434Y-69809204D01*
X75565042Y-69736791D01*
X75540794Y-69622712D01*
X75463118Y-69448248D01*
X75394684Y-69354057D01*
X75370828Y-69287194D01*
X75386908Y-69218042D01*
X75394673Y-69205956D01*
X75463118Y-69111752D01*
X75540794Y-68937288D01*
X75580500Y-68750487D01*
X75580500Y-68559513D01*
X75540794Y-68372712D01*
X75463118Y-68198248D01*
X75394684Y-68104057D01*
X75370828Y-68037194D01*
X75386908Y-67968042D01*
X75394673Y-67955956D01*
X75463118Y-67861752D01*
X75540794Y-67687288D01*
X75580500Y-67500487D01*
X75580500Y-67309513D01*
X75579009Y-67302500D01*
X75556540Y-67196791D01*
X75540794Y-67122712D01*
X75463118Y-66948248D01*
X75394684Y-66854057D01*
X75370828Y-66787194D01*
X75386908Y-66718042D01*
X75394673Y-66705956D01*
X75463118Y-66611752D01*
X75540794Y-66437288D01*
X75580500Y-66250487D01*
X75580500Y-66059513D01*
X75540794Y-65872712D01*
X75463118Y-65698248D01*
X75394685Y-65604059D01*
X75370828Y-65537192D01*
X75386908Y-65468041D01*
X75394676Y-65455952D01*
X75463118Y-65361752D01*
X75540794Y-65187288D01*
X75580500Y-65000487D01*
X75580500Y-64809513D01*
X75540794Y-64622712D01*
X75463118Y-64448248D01*
X75394685Y-64354059D01*
X75370828Y-64287192D01*
X75386908Y-64218041D01*
X75394676Y-64205952D01*
X75463118Y-64111752D01*
X75540794Y-63937288D01*
X75580500Y-63750487D01*
X75580500Y-63559513D01*
X75540794Y-63372712D01*
X75463118Y-63198248D01*
X75350866Y-63043747D01*
X75350864Y-63043744D01*
X75208951Y-62915965D01*
X75208941Y-62915958D01*
X75043561Y-62820476D01*
X75043556Y-62820473D01*
X74954470Y-62791526D01*
X74861927Y-62761457D01*
X74719615Y-62746500D01*
X74719610Y-62746500D01*
X74124390Y-62746500D01*
X74124384Y-62746500D01*
X73982072Y-62761457D01*
X73867152Y-62798798D01*
X73800444Y-62820473D01*
X73800441Y-62820474D01*
X73800438Y-62820476D01*
X73635058Y-62915958D01*
X73635048Y-62915965D01*
X73493135Y-63043744D01*
X73380882Y-63198247D01*
X73309218Y-63359209D01*
X73303206Y-63372712D01*
X73263500Y-63559513D01*
X73263500Y-63750487D01*
X73303206Y-63937288D01*
X73380882Y-64111752D01*
X73449313Y-64205939D01*
X73473171Y-64272805D01*
X73457091Y-64341957D01*
X73449314Y-64354059D01*
X73380882Y-64448248D01*
X73303206Y-64622711D01*
X73292516Y-64673006D01*
X73263500Y-64809513D01*
X73263500Y-65000487D01*
X73303206Y-65187288D01*
X73380882Y-65361752D01*
X73449313Y-65455939D01*
X73473171Y-65522805D01*
X73457091Y-65591957D01*
X73449314Y-65604059D01*
X73380882Y-65698248D01*
X73303206Y-65872711D01*
X73263500Y-66059512D01*
X73263500Y-66250487D01*
X73303206Y-66437288D01*
X73380882Y-66611752D01*
X73449313Y-66705939D01*
X73473172Y-66772807D01*
X73457091Y-66841958D01*
X73449313Y-66854061D01*
X73380882Y-66948247D01*
X73303206Y-67122711D01*
X73263500Y-67309512D01*
X73263500Y-67500487D01*
X73303206Y-67687288D01*
X73380882Y-67861752D01*
X73449313Y-67955939D01*
X73473172Y-68022807D01*
X73457091Y-68091958D01*
X73449313Y-68104061D01*
X73380882Y-68198247D01*
X73303206Y-68372711D01*
X73263500Y-68559512D01*
X73263500Y-68750487D01*
X73303206Y-68937288D01*
X73380882Y-69111752D01*
X73449313Y-69205939D01*
X73473172Y-69272807D01*
X73457091Y-69341958D01*
X73449313Y-69354061D01*
X73380882Y-69448247D01*
X73303206Y-69622711D01*
X73263500Y-69809512D01*
X73263500Y-70000487D01*
X73303206Y-70187288D01*
X73380882Y-70361752D01*
X73449313Y-70455939D01*
X73473172Y-70522807D01*
X73457091Y-70591958D01*
X73449313Y-70604061D01*
X73380882Y-70698247D01*
X73303206Y-70872711D01*
X73295432Y-70909287D01*
X73263500Y-71059513D01*
X73263500Y-71250487D01*
X73303206Y-71437288D01*
X73380882Y-71611752D01*
X73381213Y-71612207D01*
X73398229Y-71635628D01*
X73422087Y-71702496D01*
X73406005Y-71771647D01*
X73404121Y-71774871D01*
X73321173Y-71912086D01*
X73321170Y-71912093D01*
X73269986Y-72076353D01*
X73263500Y-72147737D01*
X73263500Y-72662261D01*
X70785500Y-72662261D01*
X70785500Y-55508597D01*
X82462000Y-55508597D01*
X82468505Y-55569093D01*
X82519555Y-55705964D01*
X82519555Y-55705965D01*
X82607095Y-55822904D01*
X82724034Y-55910444D01*
X82860906Y-55961494D01*
X82921402Y-55967999D01*
X82921415Y-55968000D01*
X83566000Y-55968000D01*
X83566000Y-55043674D01*
X83677685Y-55094680D01*
X83784237Y-55110000D01*
X83855763Y-55110000D01*
X83962315Y-55094680D01*
X84074000Y-55043674D01*
X84074000Y-55968000D01*
X84718585Y-55968000D01*
X84718597Y-55967999D01*
X84779093Y-55961494D01*
X84915964Y-55910444D01*
X84915965Y-55910444D01*
X85032904Y-55822904D01*
X85120444Y-55705965D01*
X85164814Y-55587004D01*
X85207361Y-55530168D01*
X85273881Y-55505357D01*
X85343255Y-55520448D01*
X85375572Y-55545699D01*
X85437097Y-55612534D01*
X85614698Y-55750767D01*
X85614699Y-55750768D01*
X85812628Y-55857882D01*
X85812630Y-55857883D01*
X86025483Y-55930955D01*
X86025492Y-55930957D01*
X86106000Y-55944391D01*
X86106000Y-55043674D01*
X86217685Y-55094680D01*
X86324237Y-55110000D01*
X86395763Y-55110000D01*
X86502315Y-55094680D01*
X86614000Y-55043674D01*
X86614000Y-55944390D01*
X86694507Y-55930957D01*
X86694516Y-55930955D01*
X86907369Y-55857883D01*
X86907371Y-55857882D01*
X87105300Y-55750768D01*
X87105301Y-55750767D01*
X87282902Y-55612534D01*
X87435327Y-55446955D01*
X87524517Y-55310441D01*
X87578521Y-55264352D01*
X87648868Y-55254777D01*
X87713226Y-55284754D01*
X87735483Y-55310441D01*
X87824672Y-55446955D01*
X87977097Y-55612534D01*
X88154698Y-55750767D01*
X88154699Y-55750768D01*
X88352628Y-55857882D01*
X88352630Y-55857883D01*
X88565483Y-55930955D01*
X88565492Y-55930957D01*
X88646000Y-55944391D01*
X88646000Y-55043674D01*
X88757685Y-55094680D01*
X88864237Y-55110000D01*
X88935763Y-55110000D01*
X89042315Y-55094680D01*
X89154000Y-55043674D01*
X89154000Y-55944391D01*
X89234507Y-55930957D01*
X89234516Y-55930955D01*
X89447369Y-55857883D01*
X89447371Y-55857882D01*
X89645300Y-55750768D01*
X89645301Y-55750767D01*
X89822902Y-55612534D01*
X89975325Y-55446958D01*
X90098419Y-55258548D01*
X90188820Y-55052456D01*
X90188823Y-55052449D01*
X90236544Y-54864000D01*
X89331116Y-54864000D01*
X89359493Y-54819844D01*
X89400000Y-54681889D01*
X89400000Y-54538111D01*
X89359493Y-54400156D01*
X89331116Y-54356000D01*
X90236544Y-54356000D01*
X90236544Y-54355999D01*
X90188823Y-54167550D01*
X90188820Y-54167543D01*
X90098419Y-53961451D01*
X89975325Y-53773041D01*
X89822902Y-53607465D01*
X89645301Y-53469232D01*
X89645300Y-53469231D01*
X89447371Y-53362117D01*
X89447369Y-53362116D01*
X89234512Y-53289043D01*
X89234501Y-53289040D01*
X89154000Y-53275606D01*
X89154000Y-54176325D01*
X89042315Y-54125320D01*
X88935763Y-54110000D01*
X88864237Y-54110000D01*
X88757685Y-54125320D01*
X88646000Y-54176325D01*
X88646000Y-53275606D01*
X88645999Y-53275606D01*
X88565498Y-53289040D01*
X88565487Y-53289043D01*
X88352630Y-53362116D01*
X88352628Y-53362117D01*
X88154699Y-53469231D01*
X88154698Y-53469232D01*
X87977097Y-53607465D01*
X87824674Y-53773042D01*
X87735483Y-53909559D01*
X87681479Y-53955647D01*
X87611131Y-53965222D01*
X87546774Y-53935244D01*
X87524517Y-53909559D01*
X87435325Y-53773042D01*
X87282902Y-53607465D01*
X87105301Y-53469232D01*
X87105300Y-53469231D01*
X86907371Y-53362117D01*
X86907369Y-53362116D01*
X86694512Y-53289043D01*
X86694501Y-53289040D01*
X86614000Y-53275606D01*
X86614000Y-54176325D01*
X86502315Y-54125320D01*
X86395763Y-54110000D01*
X86324237Y-54110000D01*
X86217685Y-54125320D01*
X86106000Y-54176325D01*
X86106000Y-53275607D01*
X86105999Y-53275606D01*
X86025498Y-53289040D01*
X86025487Y-53289043D01*
X85812630Y-53362116D01*
X85812628Y-53362117D01*
X85614699Y-53469231D01*
X85614698Y-53469232D01*
X85437093Y-53607468D01*
X85375571Y-53674300D01*
X85314718Y-53710871D01*
X85243754Y-53708738D01*
X85185208Y-53668576D01*
X85164814Y-53632995D01*
X85120444Y-53514035D01*
X85120444Y-53514034D01*
X85032904Y-53397095D01*
X84915965Y-53309555D01*
X84779093Y-53258505D01*
X84718597Y-53252000D01*
X84074000Y-53252000D01*
X84074000Y-54176325D01*
X83962315Y-54125320D01*
X83855763Y-54110000D01*
X83784237Y-54110000D01*
X83677685Y-54125320D01*
X83566000Y-54176325D01*
X83566000Y-53252000D01*
X82921402Y-53252000D01*
X82860906Y-53258505D01*
X82724035Y-53309555D01*
X82724034Y-53309555D01*
X82607095Y-53397095D01*
X82519555Y-53514034D01*
X82519555Y-53514035D01*
X82468505Y-53650906D01*
X82462000Y-53711402D01*
X82462000Y-54356000D01*
X83388884Y-54356000D01*
X83360507Y-54400156D01*
X83320000Y-54538111D01*
X83320000Y-54681889D01*
X83360507Y-54819844D01*
X83388884Y-54864000D01*
X82462000Y-54864000D01*
X82462000Y-55508597D01*
X70785500Y-55508597D01*
X70785500Y-53341901D01*
X70785615Y-53338096D01*
X70786644Y-53321090D01*
X70802524Y-53058545D01*
X70803439Y-53051007D01*
X70853580Y-52777400D01*
X70855400Y-52770020D01*
X70938151Y-52504464D01*
X70940845Y-52497358D01*
X71055009Y-52243695D01*
X71058536Y-52236977D01*
X71202449Y-51998916D01*
X71206752Y-51992683D01*
X71378311Y-51773703D01*
X71383330Y-51768038D01*
X71580038Y-51571330D01*
X71585703Y-51566311D01*
X71804683Y-51394752D01*
X71810916Y-51390449D01*
X72048977Y-51246536D01*
X72055695Y-51243009D01*
X72309358Y-51128845D01*
X72316464Y-51126151D01*
X72582020Y-51043400D01*
X72589400Y-51041580D01*
X72863007Y-50991439D01*
X72870545Y-50990524D01*
X73150100Y-50973614D01*
X73153902Y-50973500D01*
X73199595Y-50973500D01*
X109172405Y-50973500D01*
X109218038Y-50973500D01*
X109221957Y-50973622D01*
G37*
%TD.AperFunction*%
%TD*%
%TA.AperFunction,Conductor*%
%TO.N,GND*%
G36*
X104616333Y-69214329D02*
G01*
X104673168Y-69256876D01*
X104697979Y-69323396D01*
X104698300Y-69332385D01*
X104698300Y-72282485D01*
X104678298Y-72350606D01*
X104674239Y-72356542D01*
X104670959Y-72361055D01*
X104575476Y-72526438D01*
X104575473Y-72526444D01*
X104571625Y-72538288D01*
X104516457Y-72708072D01*
X104496496Y-72897999D01*
X104516457Y-73087927D01*
X104541530Y-73165091D01*
X104575473Y-73269556D01*
X104575476Y-73269562D01*
X104578160Y-73275590D01*
X104576375Y-73276384D01*
X104590908Y-73336305D01*
X104567682Y-73403395D01*
X104511871Y-73447278D01*
X104465051Y-73456300D01*
X100761466Y-73456300D01*
X100693345Y-73436298D01*
X100646852Y-73382642D01*
X100636748Y-73312368D01*
X100666242Y-73247788D01*
X100710215Y-73215194D01*
X100786752Y-73181118D01*
X100941253Y-73068866D01*
X100941256Y-73068863D01*
X100941257Y-73068863D01*
X101069034Y-72926951D01*
X101069035Y-72926949D01*
X101069040Y-72926944D01*
X101164527Y-72761556D01*
X101223542Y-72579928D01*
X101227918Y-72538287D01*
X101254930Y-72472631D01*
X101264124Y-72462370D01*
X104483207Y-69243288D01*
X104545517Y-69209264D01*
X104616333Y-69214329D01*
G37*
%TD.AperFunction*%
%TA.AperFunction,Conductor*%
G36*
X85900507Y-54400156D02*
G01*
X85860000Y-54538111D01*
X85860000Y-54681889D01*
X85900507Y-54819844D01*
X85928884Y-54864000D01*
X84251116Y-54864000D01*
X84279493Y-54819844D01*
X84320000Y-54681889D01*
X84320000Y-54538111D01*
X84279493Y-54400156D01*
X84251116Y-54356000D01*
X85928884Y-54356000D01*
X85900507Y-54400156D01*
G37*
%TD.AperFunction*%
%TA.AperFunction,Conductor*%
G36*
X88440507Y-54400156D02*
G01*
X88400000Y-54538111D01*
X88400000Y-54681889D01*
X88440507Y-54819844D01*
X88468884Y-54864000D01*
X86791116Y-54864000D01*
X86819493Y-54819844D01*
X86860000Y-54681889D01*
X86860000Y-54538111D01*
X86819493Y-54400156D01*
X86791116Y-54356000D01*
X88468884Y-54356000D01*
X88440507Y-54400156D01*
G37*
%TD.AperFunction*%
%TA.AperFunction,Conductor*%
G36*
X109221957Y-50973622D02*
G01*
X109509937Y-50991570D01*
X109517692Y-50992540D01*
X109799288Y-51045745D01*
X109806881Y-51047675D01*
X110079697Y-51135434D01*
X110086968Y-51138284D01*
X110346771Y-51259238D01*
X110353650Y-51262978D01*
X110596422Y-51415254D01*
X110602774Y-51419812D01*
X110824755Y-51601051D01*
X110830509Y-51606378D01*
X111028259Y-51813770D01*
X111033309Y-51819774D01*
X111203777Y-52050114D01*
X111208043Y-52056699D01*
X111348589Y-52306420D01*
X111352004Y-52313483D01*
X111460456Y-52578727D01*
X111462967Y-52586157D01*
X111537645Y-52862819D01*
X111539212Y-52870493D01*
X111559086Y-53012391D01*
X111578960Y-53154287D01*
X111579562Y-53162104D01*
X111582143Y-53338096D01*
X111583792Y-53450599D01*
X111583728Y-53454520D01*
X111581556Y-53500099D01*
X111581558Y-53500110D01*
X111582050Y-53501912D01*
X111586499Y-53535098D01*
X111586499Y-82878552D01*
X111585941Y-82886925D01*
X111585452Y-82890569D01*
X111586330Y-82927425D01*
X111586500Y-82934575D01*
X111586500Y-82940467D01*
X111580345Y-83108443D01*
X111575969Y-83227851D01*
X111575231Y-83235430D01*
X111530369Y-83517980D01*
X111528723Y-83525415D01*
X111450135Y-83800487D01*
X111447604Y-83807669D01*
X111336427Y-84071276D01*
X111333050Y-84078101D01*
X111190914Y-84326376D01*
X111186738Y-84332743D01*
X111015712Y-84562076D01*
X111010800Y-84567895D01*
X110813378Y-84774940D01*
X110807800Y-84780123D01*
X110586855Y-84961867D01*
X110580693Y-84966340D01*
X110339453Y-85120125D01*
X110332797Y-85123823D01*
X110074780Y-85247410D01*
X110067726Y-85250279D01*
X109796704Y-85341860D01*
X109789356Y-85343858D01*
X109509260Y-85402105D01*
X109501725Y-85403202D01*
X109216244Y-85427297D01*
X109210938Y-85427520D01*
X73336189Y-85424504D01*
X73322213Y-85422633D01*
X73322101Y-85423659D01*
X73312248Y-85422576D01*
X73312247Y-85422576D01*
X73311050Y-85422633D01*
X73273359Y-85424427D01*
X73270363Y-85424498D01*
X73248396Y-85424498D01*
X73246474Y-85424572D01*
X72973871Y-85420575D01*
X72966055Y-85419973D01*
X72823973Y-85400073D01*
X72681889Y-85380173D01*
X72674215Y-85378606D01*
X72397190Y-85303830D01*
X72389760Y-85301319D01*
X72124167Y-85192725D01*
X72117103Y-85189310D01*
X71867055Y-85048579D01*
X71860471Y-85044313D01*
X71629829Y-84873622D01*
X71623825Y-84868572D01*
X71416161Y-84670562D01*
X71410831Y-84664805D01*
X71349141Y-84589247D01*
X71229357Y-84442536D01*
X71224799Y-84436184D01*
X71072319Y-84193088D01*
X71068583Y-84186215D01*
X70947470Y-83926070D01*
X70944620Y-83918799D01*
X70856747Y-83645628D01*
X70854816Y-83638031D01*
X70801545Y-83356081D01*
X70800571Y-83348296D01*
X70792475Y-83218405D01*
X70785622Y-83108443D01*
X70785500Y-83104523D01*
X70785500Y-78994000D01*
X86256844Y-78994000D01*
X86274232Y-79203844D01*
X86275437Y-79218375D01*
X86330702Y-79436612D01*
X86330703Y-79436613D01*
X86421141Y-79642793D01*
X86544275Y-79831265D01*
X86544280Y-79831270D01*
X86687475Y-79986820D01*
X86718896Y-80050485D01*
X86710909Y-80121031D01*
X86666051Y-80176060D01*
X86638807Y-80190213D01*
X86523797Y-80233110D01*
X86523792Y-80233112D01*
X86406738Y-80320738D01*
X86319112Y-80437792D01*
X86319110Y-80437797D01*
X86268011Y-80574795D01*
X86268009Y-80574803D01*
X86261500Y-80635350D01*
X86261500Y-82432649D01*
X86268009Y-82493196D01*
X86268011Y-82493204D01*
X86319110Y-82630202D01*
X86319112Y-82630207D01*
X86406738Y-82747261D01*
X86523792Y-82834887D01*
X86523794Y-82834888D01*
X86523796Y-82834889D01*
X86578900Y-82855442D01*
X86660795Y-82885988D01*
X86660803Y-82885990D01*
X86721350Y-82892499D01*
X86721355Y-82892499D01*
X86721362Y-82892500D01*
X86721368Y-82892500D01*
X88518632Y-82892500D01*
X88518638Y-82892500D01*
X88518645Y-82892499D01*
X88518649Y-82892499D01*
X88579196Y-82885990D01*
X88579199Y-82885989D01*
X88579201Y-82885989D01*
X88716204Y-82834889D01*
X88786399Y-82782342D01*
X88833261Y-82747261D01*
X88920887Y-82630207D01*
X88920887Y-82630206D01*
X88920889Y-82630204D01*
X88971989Y-82493201D01*
X88976085Y-82455107D01*
X88978499Y-82432649D01*
X88978500Y-82432632D01*
X88978500Y-80635367D01*
X88978499Y-80635350D01*
X88971990Y-80574803D01*
X88971988Y-80574795D01*
X88920889Y-80437797D01*
X88920887Y-80437792D01*
X88833261Y-80320738D01*
X88716207Y-80233112D01*
X88716203Y-80233110D01*
X88601192Y-80190213D01*
X88544356Y-80147667D01*
X88519546Y-80081146D01*
X88534638Y-80011772D01*
X88552525Y-79986820D01*
X88695714Y-79831277D01*
X88695724Y-79831265D01*
X88702441Y-79820983D01*
X88818860Y-79642791D01*
X88909296Y-79436616D01*
X88964564Y-79218368D01*
X88983156Y-78994000D01*
X91600844Y-78994000D01*
X91618232Y-79203844D01*
X91619437Y-79218375D01*
X91674702Y-79436612D01*
X91674703Y-79436613D01*
X91765141Y-79642793D01*
X91888275Y-79831265D01*
X91888280Y-79831270D01*
X92031475Y-79986820D01*
X92062896Y-80050485D01*
X92054909Y-80121031D01*
X92010051Y-80176060D01*
X91982807Y-80190213D01*
X91867797Y-80233110D01*
X91867792Y-80233112D01*
X91750738Y-80320738D01*
X91663112Y-80437792D01*
X91663110Y-80437797D01*
X91612011Y-80574795D01*
X91612009Y-80574803D01*
X91605500Y-80635350D01*
X91605500Y-82432649D01*
X91612009Y-82493196D01*
X91612011Y-82493204D01*
X91663110Y-82630202D01*
X91663112Y-82630207D01*
X91750738Y-82747261D01*
X91867792Y-82834887D01*
X91867794Y-82834888D01*
X91867796Y-82834889D01*
X91922900Y-82855442D01*
X92004795Y-82885988D01*
X92004803Y-82885990D01*
X92065350Y-82892499D01*
X92065355Y-82892499D01*
X92065362Y-82892500D01*
X92065368Y-82892500D01*
X93862632Y-82892500D01*
X93862638Y-82892500D01*
X93862645Y-82892499D01*
X93862649Y-82892499D01*
X93923196Y-82885990D01*
X93923199Y-82885989D01*
X93923201Y-82885989D01*
X94060204Y-82834889D01*
X94130399Y-82782342D01*
X94177261Y-82747261D01*
X94264886Y-82630208D01*
X94264885Y-82630208D01*
X94264889Y-82630204D01*
X94308999Y-82511939D01*
X94351545Y-82455107D01*
X94418066Y-82430296D01*
X94487440Y-82445388D01*
X94519753Y-82470635D01*
X94540529Y-82493204D01*
X94580762Y-82536908D01*
X94635331Y-82579381D01*
X94758424Y-82675189D01*
X94956426Y-82782342D01*
X94956427Y-82782342D01*
X94956428Y-82782343D01*
X95068227Y-82820723D01*
X95169365Y-82855444D01*
X95391431Y-82892500D01*
X95391435Y-82892500D01*
X95616565Y-82892500D01*
X95616569Y-82892500D01*
X95838635Y-82855444D01*
X96051574Y-82782342D01*
X96249576Y-82675189D01*
X96427240Y-82536906D01*
X96579722Y-82371268D01*
X96668518Y-82235354D01*
X96722520Y-82189268D01*
X96792868Y-82179692D01*
X96857225Y-82209669D01*
X96879480Y-82235353D01*
X96912607Y-82286058D01*
X96968275Y-82371265D01*
X96968279Y-82371270D01*
X97120762Y-82536908D01*
X97175331Y-82579381D01*
X97298424Y-82675189D01*
X97496426Y-82782342D01*
X97496427Y-82782342D01*
X97496428Y-82782343D01*
X97608227Y-82820723D01*
X97709365Y-82855444D01*
X97931431Y-82892500D01*
X97931435Y-82892500D01*
X98156565Y-82892500D01*
X98156569Y-82892500D01*
X98378635Y-82855444D01*
X98591574Y-82782342D01*
X98789576Y-82675189D01*
X98967240Y-82536906D01*
X99119722Y-82371268D01*
X99208519Y-82235353D01*
X99262518Y-82189268D01*
X99332866Y-82179692D01*
X99397224Y-82209668D01*
X99419482Y-82235356D01*
X99508275Y-82371265D01*
X99508279Y-82371270D01*
X99660762Y-82536908D01*
X99715331Y-82579381D01*
X99838424Y-82675189D01*
X100036426Y-82782342D01*
X100036427Y-82782342D01*
X100036428Y-82782343D01*
X100148227Y-82820723D01*
X100249365Y-82855444D01*
X100471431Y-82892500D01*
X100471435Y-82892500D01*
X100696565Y-82892500D01*
X100696569Y-82892500D01*
X100918635Y-82855444D01*
X101131574Y-82782342D01*
X101329576Y-82675189D01*
X101507240Y-82536906D01*
X101659722Y-82371268D01*
X101782860Y-82182791D01*
X101873296Y-81976616D01*
X101928564Y-81758368D01*
X101947156Y-81534000D01*
X101928564Y-81309632D01*
X101906481Y-81222432D01*
X101909149Y-81151485D01*
X101949749Y-81093243D01*
X102015392Y-81066197D01*
X102028626Y-81065500D01*
X104407788Y-81065500D01*
X104411592Y-81065614D01*
X104474487Y-81069420D01*
X104522745Y-81060575D01*
X104536487Y-81058057D01*
X104540237Y-81057486D01*
X104602772Y-81049894D01*
X104612390Y-81046245D01*
X104634370Y-81040119D01*
X104644483Y-81038266D01*
X104644484Y-81038265D01*
X104644487Y-81038265D01*
X104701962Y-81012397D01*
X104705425Y-81010962D01*
X104764373Y-80988607D01*
X104772849Y-80982756D01*
X104792706Y-80971557D01*
X104802093Y-80967333D01*
X104851711Y-80928458D01*
X104854735Y-80926233D01*
X104906611Y-80890428D01*
X104948407Y-80843247D01*
X104950977Y-80840517D01*
X107688090Y-78103405D01*
X107750403Y-78069379D01*
X107777186Y-78066500D01*
X108975632Y-78066500D01*
X108975638Y-78066500D01*
X108975645Y-78066499D01*
X108975649Y-78066499D01*
X109036196Y-78059990D01*
X109036199Y-78059989D01*
X109036201Y-78059989D01*
X109173204Y-78008889D01*
X109196976Y-77991094D01*
X109290261Y-77921261D01*
X109377887Y-77804207D01*
X109377887Y-77804206D01*
X109377889Y-77804204D01*
X109428989Y-77667201D01*
X109429806Y-77659607D01*
X109435499Y-77606649D01*
X109435500Y-77606632D01*
X109435500Y-75809367D01*
X109435499Y-75809350D01*
X109428990Y-75748803D01*
X109428988Y-75748795D01*
X109391443Y-75648135D01*
X109377889Y-75611796D01*
X109377888Y-75611794D01*
X109377887Y-75611792D01*
X109290261Y-75494738D01*
X109173207Y-75407112D01*
X109173203Y-75407110D01*
X109058192Y-75364213D01*
X109001356Y-75321667D01*
X108976546Y-75255146D01*
X108991638Y-75185772D01*
X109009525Y-75160820D01*
X109152714Y-75005277D01*
X109152724Y-75005265D01*
X109197465Y-74936784D01*
X109275860Y-74816791D01*
X109366296Y-74610616D01*
X109421564Y-74392368D01*
X109440156Y-74168000D01*
X109421564Y-73943632D01*
X109402100Y-73866770D01*
X109366297Y-73725387D01*
X109366296Y-73725386D01*
X109366296Y-73725384D01*
X109275860Y-73519209D01*
X109220807Y-73434944D01*
X109152724Y-73330734D01*
X109152720Y-73330729D01*
X109001824Y-73166815D01*
X109000240Y-73165094D01*
X109000239Y-73165093D01*
X109000237Y-73165091D01*
X108901097Y-73087927D01*
X108822576Y-73026811D01*
X108789319Y-73008813D01*
X108738929Y-72958802D01*
X108723576Y-72889485D01*
X108748136Y-72822872D01*
X108789320Y-72787186D01*
X108822576Y-72769189D01*
X109000240Y-72630906D01*
X109152722Y-72465268D01*
X109275860Y-72276791D01*
X109366296Y-72070616D01*
X109421564Y-71852368D01*
X109440156Y-71628000D01*
X109421564Y-71403632D01*
X109417051Y-71385810D01*
X109366297Y-71185387D01*
X109366296Y-71185386D01*
X109366296Y-71185384D01*
X109275860Y-70979209D01*
X109230177Y-70909286D01*
X109152724Y-70790734D01*
X109152720Y-70790729D01*
X109000237Y-70625091D01*
X108918382Y-70561381D01*
X108822576Y-70486811D01*
X108789319Y-70468813D01*
X108738929Y-70418802D01*
X108723576Y-70349485D01*
X108748136Y-70282872D01*
X108789320Y-70247186D01*
X108822576Y-70229189D01*
X109000240Y-70090906D01*
X109152722Y-69925268D01*
X109275860Y-69736791D01*
X109366296Y-69530616D01*
X109421564Y-69312368D01*
X109440156Y-69088000D01*
X109421564Y-68863632D01*
X109366296Y-68645384D01*
X109275860Y-68439209D01*
X109269140Y-68428924D01*
X109152724Y-68250734D01*
X109152720Y-68250729D01*
X109017701Y-68104062D01*
X109000240Y-68085094D01*
X109000239Y-68085093D01*
X109000237Y-68085091D01*
X108911794Y-68016253D01*
X108822576Y-67946811D01*
X108789319Y-67928813D01*
X108738929Y-67878802D01*
X108723576Y-67809485D01*
X108748136Y-67742872D01*
X108789320Y-67707186D01*
X108822576Y-67689189D01*
X109000240Y-67550906D01*
X109152722Y-67385268D01*
X109275860Y-67196791D01*
X109366296Y-66990616D01*
X109421564Y-66772368D01*
X109440156Y-66548000D01*
X109421564Y-66323632D01*
X109366296Y-66105384D01*
X109275860Y-65899209D01*
X109258548Y-65872711D01*
X109152724Y-65710734D01*
X109152720Y-65710729D01*
X109002727Y-65547796D01*
X109000240Y-65545094D01*
X109000239Y-65545093D01*
X109000237Y-65545091D01*
X108901243Y-65468041D01*
X108822576Y-65406811D01*
X108822569Y-65406807D01*
X108789318Y-65388812D01*
X108738928Y-65338798D01*
X108723576Y-65269481D01*
X108748137Y-65202869D01*
X108789315Y-65167188D01*
X108822576Y-65149189D01*
X109000240Y-65010906D01*
X109152722Y-64845268D01*
X109275860Y-64656791D01*
X109366296Y-64450616D01*
X109421564Y-64232368D01*
X109440156Y-64008000D01*
X109421564Y-63783632D01*
X109390152Y-63659589D01*
X109366297Y-63565387D01*
X109366296Y-63565386D01*
X109366296Y-63565384D01*
X109275860Y-63359209D01*
X109269140Y-63348924D01*
X109152724Y-63170734D01*
X109152720Y-63170729D01*
X109026499Y-63033619D01*
X109000240Y-63005094D01*
X109000239Y-63005093D01*
X109000237Y-63005091D01*
X108911152Y-62935753D01*
X108822576Y-62866811D01*
X108822569Y-62866807D01*
X108789318Y-62848812D01*
X108738928Y-62798798D01*
X108723576Y-62729481D01*
X108748137Y-62662869D01*
X108789315Y-62627188D01*
X108822576Y-62609189D01*
X109000240Y-62470906D01*
X109152722Y-62305268D01*
X109275860Y-62116791D01*
X109366296Y-61910616D01*
X109421564Y-61692368D01*
X109440156Y-61468000D01*
X109421564Y-61243632D01*
X109366296Y-61025384D01*
X109275860Y-60819209D01*
X109265626Y-60803545D01*
X109152724Y-60630734D01*
X109152720Y-60630729D01*
X109000237Y-60465091D01*
X108918382Y-60401381D01*
X108822576Y-60326811D01*
X108788792Y-60308528D01*
X108738402Y-60258516D01*
X108723050Y-60189199D01*
X108747610Y-60122586D01*
X108788793Y-60086901D01*
X108822300Y-60068767D01*
X108822301Y-60068767D01*
X108999902Y-59930534D01*
X109152325Y-59764958D01*
X109275419Y-59576548D01*
X109365820Y-59370456D01*
X109365823Y-59370449D01*
X109413544Y-59182000D01*
X108508116Y-59182000D01*
X108536493Y-59137844D01*
X108577000Y-58999889D01*
X108577000Y-58856111D01*
X108536493Y-58718156D01*
X108508116Y-58674000D01*
X109413544Y-58674000D01*
X109413544Y-58673999D01*
X109365823Y-58485550D01*
X109365820Y-58485543D01*
X109275419Y-58279451D01*
X109152325Y-58091041D01*
X108999902Y-57925465D01*
X108822301Y-57787232D01*
X108822300Y-57787231D01*
X108624371Y-57680117D01*
X108624369Y-57680116D01*
X108411512Y-57607043D01*
X108411501Y-57607040D01*
X108331000Y-57593606D01*
X108331000Y-58494325D01*
X108219315Y-58443320D01*
X108112763Y-58428000D01*
X108041237Y-58428000D01*
X107934685Y-58443320D01*
X107822999Y-58494325D01*
X107822999Y-57593607D01*
X107822998Y-57593606D01*
X107742484Y-57607043D01*
X107529631Y-57680116D01*
X107529628Y-57680117D01*
X107331699Y-57787231D01*
X107331698Y-57787232D01*
X107154097Y-57925465D01*
X107001674Y-58091041D01*
X106878580Y-58279451D01*
X106788179Y-58485543D01*
X106788176Y-58485550D01*
X106740455Y-58673999D01*
X106740456Y-58674000D01*
X107645884Y-58674000D01*
X107617507Y-58718156D01*
X107577000Y-58856111D01*
X107577000Y-58999889D01*
X107617507Y-59137844D01*
X107645884Y-59182000D01*
X106740455Y-59182000D01*
X106788176Y-59370449D01*
X106788179Y-59370456D01*
X106878580Y-59576548D01*
X107001674Y-59764958D01*
X107154097Y-59930534D01*
X107331698Y-60068767D01*
X107331704Y-60068771D01*
X107365207Y-60086902D01*
X107415597Y-60136915D01*
X107430949Y-60206232D01*
X107406388Y-60272845D01*
X107365207Y-60308528D01*
X107331430Y-60326807D01*
X107331424Y-60326811D01*
X107153762Y-60465091D01*
X107001279Y-60630729D01*
X107001275Y-60630734D01*
X106878141Y-60819206D01*
X106787703Y-61025386D01*
X106787702Y-61025387D01*
X106732437Y-61243624D01*
X106732436Y-61243630D01*
X106732436Y-61243632D01*
X106716474Y-61436267D01*
X106713844Y-61468004D01*
X106713844Y-61468005D01*
X106714001Y-61469902D01*
X106713844Y-61470664D01*
X106713844Y-61473211D01*
X106713320Y-61473211D01*
X106699689Y-61539441D01*
X106650053Y-61590203D01*
X106588431Y-61606300D01*
X101404888Y-61606300D01*
X101336767Y-61586298D01*
X101290274Y-61532642D01*
X101280170Y-61462368D01*
X101286833Y-61436267D01*
X101331988Y-61315204D01*
X101331990Y-61315196D01*
X101338499Y-61254649D01*
X101338500Y-61254632D01*
X101338500Y-60157367D01*
X101338499Y-60157350D01*
X101331990Y-60096803D01*
X101331988Y-60096795D01*
X101280978Y-59960035D01*
X101280889Y-59959796D01*
X101280888Y-59959794D01*
X101280887Y-59959792D01*
X101193261Y-59842738D01*
X101076207Y-59755112D01*
X101076202Y-59755110D01*
X100939204Y-59704011D01*
X100939196Y-59704009D01*
X100878649Y-59697500D01*
X100878638Y-59697500D01*
X99781362Y-59697500D01*
X99781350Y-59697500D01*
X99720803Y-59704009D01*
X99720795Y-59704011D01*
X99583797Y-59755110D01*
X99583792Y-59755112D01*
X99466738Y-59842738D01*
X99379112Y-59959792D01*
X99379110Y-59959797D01*
X99328011Y-60096795D01*
X99328009Y-60096803D01*
X99321500Y-60157350D01*
X99321500Y-61254649D01*
X99328009Y-61315196D01*
X99328011Y-61315204D01*
X99373167Y-61436267D01*
X99378233Y-61507082D01*
X99344208Y-61569395D01*
X99281896Y-61603420D01*
X99255112Y-61606300D01*
X98732986Y-61606300D01*
X98664865Y-61586298D01*
X98643895Y-61569399D01*
X98073404Y-60998908D01*
X98039379Y-60936596D01*
X98036500Y-60909813D01*
X98036500Y-60756185D01*
X98056502Y-60688064D01*
X98073400Y-60667095D01*
X102748717Y-55991777D01*
X102751447Y-55989207D01*
X102798628Y-55947411D01*
X102830736Y-55900891D01*
X102885890Y-55856193D01*
X102956459Y-55848407D01*
X103008493Y-55870531D01*
X103055497Y-55904681D01*
X103055497Y-55904682D01*
X103229864Y-55982315D01*
X103229868Y-55982317D01*
X103258000Y-55988295D01*
X103258000Y-55118000D01*
X103766000Y-55118000D01*
X103766000Y-55988295D01*
X103794131Y-55982317D01*
X103794135Y-55982315D01*
X103968505Y-55904680D01*
X104122917Y-55792493D01*
X104250636Y-55650645D01*
X104346067Y-55485353D01*
X104346071Y-55485345D01*
X104405051Y-55303824D01*
X104419999Y-55161597D01*
X104420000Y-55161589D01*
X104420000Y-55118000D01*
X103766000Y-55118000D01*
X103258000Y-55118000D01*
X103258000Y-54868514D01*
X103276505Y-54961545D01*
X103331760Y-55044240D01*
X103414455Y-55099495D01*
X103487376Y-55114000D01*
X103536624Y-55114000D01*
X103609545Y-55099495D01*
X103692240Y-55044240D01*
X103747495Y-54961545D01*
X103766898Y-54864000D01*
X103747495Y-54766455D01*
X103692240Y-54683760D01*
X103609545Y-54628505D01*
X103536624Y-54614000D01*
X103487376Y-54614000D01*
X103414455Y-54628505D01*
X103331760Y-54683760D01*
X103276505Y-54766455D01*
X103258000Y-54859485D01*
X103258000Y-53739703D01*
X103766000Y-53739703D01*
X103766000Y-54610000D01*
X104420000Y-54610000D01*
X104420000Y-54566410D01*
X104419999Y-54566402D01*
X104405051Y-54424175D01*
X104346071Y-54242654D01*
X104346067Y-54242646D01*
X104250636Y-54077354D01*
X104122917Y-53935506D01*
X103968505Y-53823319D01*
X103794130Y-53745682D01*
X103766000Y-53739703D01*
X103258000Y-53739703D01*
X103257999Y-53739703D01*
X103229869Y-53745682D01*
X103055494Y-53823319D01*
X102961485Y-53891621D01*
X102894617Y-53915480D01*
X102825465Y-53899399D01*
X102813363Y-53891621D01*
X102718752Y-53822882D01*
X102544288Y-53745206D01*
X102357487Y-53705500D01*
X102166513Y-53705500D01*
X101979711Y-53745206D01*
X101805247Y-53822882D01*
X101711061Y-53891313D01*
X101644193Y-53915172D01*
X101575042Y-53899091D01*
X101562939Y-53891313D01*
X101468752Y-53822882D01*
X101294288Y-53745206D01*
X101107487Y-53705500D01*
X100916513Y-53705500D01*
X100729711Y-53745206D01*
X100555247Y-53822882D01*
X100461061Y-53891313D01*
X100394193Y-53915172D01*
X100325042Y-53899091D01*
X100312939Y-53891313D01*
X100218752Y-53822882D01*
X100044288Y-53745206D01*
X99857487Y-53705500D01*
X99666513Y-53705500D01*
X99479711Y-53745206D01*
X99305248Y-53822882D01*
X99211059Y-53891314D01*
X99144192Y-53915172D01*
X99075040Y-53899091D01*
X99062940Y-53891314D01*
X98968752Y-53822882D01*
X98794288Y-53745206D01*
X98607487Y-53705500D01*
X98416513Y-53705500D01*
X98229711Y-53745206D01*
X98055247Y-53822882D01*
X97961061Y-53891313D01*
X97894193Y-53915172D01*
X97825042Y-53899091D01*
X97812939Y-53891313D01*
X97718752Y-53822882D01*
X97544288Y-53745206D01*
X97357487Y-53705500D01*
X97166513Y-53705500D01*
X96979711Y-53745206D01*
X96805247Y-53822882D01*
X96711061Y-53891313D01*
X96644193Y-53915172D01*
X96575042Y-53899091D01*
X96562939Y-53891313D01*
X96468752Y-53822882D01*
X96294288Y-53745206D01*
X96107487Y-53705500D01*
X95916513Y-53705500D01*
X95729711Y-53745206D01*
X95555246Y-53822882D01*
X95531370Y-53840230D01*
X95464502Y-53864088D01*
X95395350Y-53848006D01*
X95392142Y-53846131D01*
X95254913Y-53763173D01*
X95254912Y-53763172D01*
X95254911Y-53763172D01*
X95254906Y-53763170D01*
X95090646Y-53711986D01*
X95038722Y-53707268D01*
X95019265Y-53705500D01*
X95019262Y-53705500D01*
X94504738Y-53705500D01*
X94433353Y-53711986D01*
X94433352Y-53711986D01*
X94269093Y-53763170D01*
X94269088Y-53763172D01*
X94121844Y-53852184D01*
X94121839Y-53852188D01*
X94000188Y-53973839D01*
X94000184Y-53973844D01*
X93911172Y-54121088D01*
X93911170Y-54121093D01*
X93859986Y-54285353D01*
X93853500Y-54356737D01*
X93853500Y-55371261D01*
X93859986Y-55442646D01*
X93859986Y-55442647D01*
X93911170Y-55606906D01*
X93911172Y-55606911D01*
X93911173Y-55606913D01*
X93971052Y-55705965D01*
X94000184Y-55754155D01*
X94000188Y-55754160D01*
X94121839Y-55875811D01*
X94121844Y-55875815D01*
X94121845Y-55875816D01*
X94269087Y-55964827D01*
X94269091Y-55964828D01*
X94269093Y-55964829D01*
X94297506Y-55973682D01*
X94433351Y-56016013D01*
X94504735Y-56022500D01*
X95019264Y-56022499D01*
X95090649Y-56016013D01*
X95254913Y-55964827D01*
X95392128Y-55881876D01*
X95460769Y-55863753D01*
X95528315Y-55885618D01*
X95531361Y-55887763D01*
X95555248Y-55905118D01*
X95729712Y-55982794D01*
X95916513Y-56022500D01*
X96107487Y-56022500D01*
X96294288Y-55982794D01*
X96468752Y-55905118D01*
X96562942Y-55836684D01*
X96629806Y-55812828D01*
X96698958Y-55828908D01*
X96711043Y-55836673D01*
X96805248Y-55905118D01*
X96979712Y-55982794D01*
X97166513Y-56022500D01*
X97357487Y-56022500D01*
X97544288Y-55982794D01*
X97718752Y-55905118D01*
X97812938Y-55836687D01*
X97879807Y-55812828D01*
X97948958Y-55828909D01*
X97961061Y-55836687D01*
X98055248Y-55905118D01*
X98229712Y-55982794D01*
X98416513Y-56022500D01*
X98607487Y-56022500D01*
X98794288Y-55982794D01*
X98968752Y-55905118D01*
X99062938Y-55836687D01*
X99129807Y-55812828D01*
X99198958Y-55828909D01*
X99211061Y-55836687D01*
X99305248Y-55905118D01*
X99479712Y-55982794D01*
X99666513Y-56022500D01*
X99857487Y-56022500D01*
X100044288Y-55982794D01*
X100218752Y-55905118D01*
X100312938Y-55836687D01*
X100379807Y-55812828D01*
X100448958Y-55828909D01*
X100461061Y-55836687D01*
X100555248Y-55905118D01*
X100572606Y-55912846D01*
X100626702Y-55958823D01*
X100647353Y-56026750D01*
X100628003Y-56095059D01*
X100610454Y-56117048D01*
X97066909Y-59660595D01*
X97004597Y-59694620D01*
X96977814Y-59697500D01*
X96479350Y-59697500D01*
X96418803Y-59704009D01*
X96418795Y-59704011D01*
X96281797Y-59755110D01*
X96281792Y-59755112D01*
X96164738Y-59842738D01*
X96077112Y-59959792D01*
X96077110Y-59959797D01*
X96026011Y-60096795D01*
X96026009Y-60096803D01*
X96019500Y-60157350D01*
X96019500Y-61254649D01*
X96026009Y-61315196D01*
X96026011Y-61315204D01*
X96077110Y-61452202D01*
X96077112Y-61452207D01*
X96164738Y-61569261D01*
X96281792Y-61656887D01*
X96281794Y-61656888D01*
X96281796Y-61656889D01*
X96340875Y-61678924D01*
X96418795Y-61707988D01*
X96418803Y-61707990D01*
X96479350Y-61714499D01*
X96479355Y-61714499D01*
X96479362Y-61714500D01*
X96723814Y-61714500D01*
X96791935Y-61734502D01*
X96812909Y-61751405D01*
X97866205Y-62804701D01*
X97868798Y-62807456D01*
X97880333Y-62820476D01*
X97910589Y-62854628D01*
X97910590Y-62854629D01*
X97962460Y-62890432D01*
X97965513Y-62892677D01*
X98015107Y-62931532D01*
X98024486Y-62935753D01*
X98044354Y-62946958D01*
X98052827Y-62952807D01*
X98111749Y-62975153D01*
X98115262Y-62976608D01*
X98172713Y-63002465D01*
X98182835Y-63004319D01*
X98204803Y-63010444D01*
X98214425Y-63014093D01*
X98214428Y-63014094D01*
X98276971Y-63021687D01*
X98280711Y-63022256D01*
X98342713Y-63033620D01*
X98405607Y-63029814D01*
X98409412Y-63029700D01*
X105204613Y-63029700D01*
X105272734Y-63049702D01*
X105319227Y-63103358D01*
X105329331Y-63173632D01*
X105299837Y-63238212D01*
X105293708Y-63244796D01*
X104923304Y-63615198D01*
X104920533Y-63617806D01*
X104873372Y-63659587D01*
X104837573Y-63711450D01*
X104835319Y-63714513D01*
X104796465Y-63764108D01*
X104796465Y-63764109D01*
X104792238Y-63773500D01*
X104781047Y-63793342D01*
X104775198Y-63801816D01*
X104775192Y-63801829D01*
X104752842Y-63860755D01*
X104751387Y-63864268D01*
X104725536Y-63921710D01*
X104725535Y-63921714D01*
X104723679Y-63931840D01*
X104717559Y-63953794D01*
X104713905Y-63963429D01*
X104706313Y-64025957D01*
X104705740Y-64029720D01*
X104694380Y-64091710D01*
X104698184Y-64154604D01*
X104698299Y-64158408D01*
X104698299Y-64512287D01*
X104678297Y-64580408D01*
X104624641Y-64626901D01*
X104554367Y-64637005D01*
X104546102Y-64635534D01*
X104489487Y-64623500D01*
X104298513Y-64623500D01*
X104111711Y-64663206D01*
X103937247Y-64740882D01*
X103782744Y-64853135D01*
X103654965Y-64995048D01*
X103654958Y-64995058D01*
X103565971Y-65149189D01*
X103559473Y-65160444D01*
X103557283Y-65167184D01*
X103500457Y-65342072D01*
X103480496Y-65531999D01*
X103500457Y-65721927D01*
X103530526Y-65814470D01*
X103559473Y-65903556D01*
X103559476Y-65903561D01*
X103654958Y-66068941D01*
X103658236Y-66073453D01*
X103682094Y-66140321D01*
X103682299Y-66147513D01*
X103682299Y-67979014D01*
X103662297Y-68047135D01*
X103645394Y-68068109D01*
X100257718Y-71455784D01*
X100195406Y-71489810D01*
X100194819Y-71489936D01*
X100177896Y-71493533D01*
X100107105Y-71488130D01*
X100050473Y-71445313D01*
X100025980Y-71378676D01*
X100025700Y-71370286D01*
X100025700Y-69365411D01*
X100025815Y-69361606D01*
X100026271Y-69354061D01*
X100029620Y-69298713D01*
X100018256Y-69236711D01*
X100017687Y-69232971D01*
X100010094Y-69170428D01*
X100006444Y-69160803D01*
X100000319Y-69138832D01*
X99998465Y-69128713D01*
X99998463Y-69128710D01*
X99998463Y-69128707D01*
X99972608Y-69071261D01*
X99971151Y-69067743D01*
X99948810Y-69008834D01*
X99948808Y-69008831D01*
X99948807Y-69008827D01*
X99942956Y-69000351D01*
X99931760Y-68980500D01*
X99927533Y-68971107D01*
X99888671Y-68921504D01*
X99886432Y-68918461D01*
X99850628Y-68866589D01*
X99820603Y-68839989D01*
X99803456Y-68824798D01*
X99800701Y-68822205D01*
X97311405Y-66332908D01*
X97277379Y-66270597D01*
X97274500Y-66243814D01*
X97274500Y-65745367D01*
X97274499Y-65745350D01*
X97267990Y-65684803D01*
X97267988Y-65684795D01*
X97216889Y-65547797D01*
X97216887Y-65547792D01*
X97129261Y-65430738D01*
X97012207Y-65343112D01*
X97012202Y-65343110D01*
X96875204Y-65292011D01*
X96875196Y-65292009D01*
X96814649Y-65285500D01*
X96814638Y-65285500D01*
X95717362Y-65285500D01*
X95717350Y-65285500D01*
X95656803Y-65292009D01*
X95656795Y-65292011D01*
X95519797Y-65343110D01*
X95519792Y-65343112D01*
X95402738Y-65430738D01*
X95315112Y-65547792D01*
X95315110Y-65547797D01*
X95264011Y-65684795D01*
X95264009Y-65684803D01*
X95257500Y-65745350D01*
X95257500Y-66842649D01*
X95264009Y-66903196D01*
X95264011Y-66903204D01*
X95315110Y-67040202D01*
X95315112Y-67040207D01*
X95402738Y-67157261D01*
X95519792Y-67244887D01*
X95519794Y-67244888D01*
X95519796Y-67244889D01*
X95578875Y-67266924D01*
X95656795Y-67295988D01*
X95656803Y-67295990D01*
X95717350Y-67302499D01*
X95717355Y-67302499D01*
X95717362Y-67302500D01*
X96215814Y-67302500D01*
X96283935Y-67322502D01*
X96304909Y-67339405D01*
X96321909Y-67356405D01*
X96355935Y-67418717D01*
X96350870Y-67489532D01*
X96308323Y-67546368D01*
X96241803Y-67571179D01*
X96232814Y-67571500D01*
X95717350Y-67571500D01*
X95656803Y-67578009D01*
X95656795Y-67578011D01*
X95519797Y-67629110D01*
X95519792Y-67629112D01*
X95402738Y-67716738D01*
X95315112Y-67833792D01*
X95315110Y-67833797D01*
X95264011Y-67970795D01*
X95264009Y-67970803D01*
X95257500Y-68031350D01*
X95257500Y-69128649D01*
X95264009Y-69189196D01*
X95264011Y-69189204D01*
X95315110Y-69326202D01*
X95315112Y-69326207D01*
X95402738Y-69443261D01*
X95519792Y-69530887D01*
X95519794Y-69530888D01*
X95519796Y-69530889D01*
X95578875Y-69552924D01*
X95656795Y-69581988D01*
X95656803Y-69581990D01*
X95717350Y-69588499D01*
X95717355Y-69588499D01*
X95717362Y-69588500D01*
X95717368Y-69588500D01*
X96814632Y-69588500D01*
X96814638Y-69588500D01*
X96814645Y-69588499D01*
X96814649Y-69588499D01*
X96875196Y-69581990D01*
X96875199Y-69581989D01*
X96875201Y-69581989D01*
X97012204Y-69530889D01*
X97122597Y-69448250D01*
X97129261Y-69443261D01*
X97216887Y-69326207D01*
X97216887Y-69326206D01*
X97216889Y-69326204D01*
X97267989Y-69189201D01*
X97270008Y-69170428D01*
X97274499Y-69128649D01*
X97274500Y-69128632D01*
X97274500Y-68613186D01*
X97294502Y-68545065D01*
X97348158Y-68498572D01*
X97418432Y-68488468D01*
X97483012Y-68517962D01*
X97489595Y-68524091D01*
X98565396Y-69599892D01*
X98599420Y-69662202D01*
X98602300Y-69688985D01*
X98602300Y-72536485D01*
X98582298Y-72604606D01*
X98578239Y-72610542D01*
X98574959Y-72615055D01*
X98485971Y-72769189D01*
X98479473Y-72780444D01*
X98465687Y-72822872D01*
X98420457Y-72962072D01*
X98400496Y-73152000D01*
X98417851Y-73317130D01*
X98405078Y-73386968D01*
X98356576Y-73438815D01*
X98292541Y-73456300D01*
X97628986Y-73456300D01*
X97560865Y-73436298D01*
X97539891Y-73419395D01*
X97311405Y-73190909D01*
X97277379Y-73128597D01*
X97274500Y-73101814D01*
X97274500Y-72603367D01*
X97274499Y-72603350D01*
X97267990Y-72542803D01*
X97267988Y-72542795D01*
X97216889Y-72405797D01*
X97216887Y-72405792D01*
X97129261Y-72288738D01*
X97012207Y-72201112D01*
X97012202Y-72201110D01*
X96875204Y-72150011D01*
X96875196Y-72150009D01*
X96814649Y-72143500D01*
X96814638Y-72143500D01*
X95717362Y-72143500D01*
X95717350Y-72143500D01*
X95656803Y-72150009D01*
X95656795Y-72150011D01*
X95519797Y-72201110D01*
X95519789Y-72201114D01*
X95484703Y-72227379D01*
X95418183Y-72252189D01*
X95348809Y-72237097D01*
X95320101Y-72215605D01*
X94897291Y-71792795D01*
X94863265Y-71730483D01*
X94868330Y-71659668D01*
X94910877Y-71602832D01*
X94977397Y-71578021D01*
X94986386Y-71577700D01*
X95226210Y-71577700D01*
X95294331Y-71597702D01*
X95327078Y-71628191D01*
X95402738Y-71729261D01*
X95519792Y-71816887D01*
X95519794Y-71816888D01*
X95519796Y-71816889D01*
X95578875Y-71838924D01*
X95656795Y-71867988D01*
X95656803Y-71867990D01*
X95717350Y-71874499D01*
X95717355Y-71874499D01*
X95717362Y-71874500D01*
X95717368Y-71874500D01*
X96814632Y-71874500D01*
X96814638Y-71874500D01*
X96814645Y-71874499D01*
X96814649Y-71874499D01*
X96875196Y-71867990D01*
X96875199Y-71867989D01*
X96875201Y-71867989D01*
X97012204Y-71816889D01*
X97068334Y-71774871D01*
X97129261Y-71729261D01*
X97216887Y-71612207D01*
X97216887Y-71612206D01*
X97216889Y-71612204D01*
X97267989Y-71475201D01*
X97270077Y-71455784D01*
X97274499Y-71414649D01*
X97274500Y-71414632D01*
X97274500Y-70317367D01*
X97274499Y-70317350D01*
X97267990Y-70256803D01*
X97267988Y-70256795D01*
X97216889Y-70119797D01*
X97216887Y-70119792D01*
X97129261Y-70002738D01*
X97012207Y-69915112D01*
X97012202Y-69915110D01*
X96875204Y-69864011D01*
X96875196Y-69864009D01*
X96814649Y-69857500D01*
X96814638Y-69857500D01*
X95717362Y-69857500D01*
X95717350Y-69857500D01*
X95656803Y-69864009D01*
X95656795Y-69864011D01*
X95519797Y-69915110D01*
X95519792Y-69915112D01*
X95402738Y-70002738D01*
X95327078Y-70103809D01*
X95270242Y-70146356D01*
X95226210Y-70154300D01*
X95088986Y-70154300D01*
X95020865Y-70134298D01*
X94999891Y-70117395D01*
X94728605Y-69846109D01*
X94694579Y-69783797D01*
X94691700Y-69757014D01*
X94691700Y-68941514D01*
X94711702Y-68873393D01*
X94715763Y-68867454D01*
X94719032Y-68862952D01*
X94719040Y-68862944D01*
X94814527Y-68697556D01*
X94873542Y-68515928D01*
X94893504Y-68326000D01*
X94873542Y-68136072D01*
X94814527Y-67954444D01*
X94719040Y-67789056D01*
X94719038Y-67789054D01*
X94719034Y-67789048D01*
X94591255Y-67647135D01*
X94436752Y-67534882D01*
X94262288Y-67457206D01*
X94075487Y-67417500D01*
X93884513Y-67417500D01*
X93697709Y-67457206D01*
X93523248Y-67534881D01*
X93452881Y-67544315D01*
X93420752Y-67534881D01*
X93246290Y-67457206D01*
X93059487Y-67417500D01*
X92868513Y-67417500D01*
X92681711Y-67457206D01*
X92507247Y-67534882D01*
X92352744Y-67647135D01*
X92224965Y-67789048D01*
X92224958Y-67789058D01*
X92129476Y-67954438D01*
X92129473Y-67954444D01*
X92125055Y-67968042D01*
X92070457Y-68136072D01*
X92050496Y-68326000D01*
X92070457Y-68515927D01*
X92100526Y-68608470D01*
X92129473Y-68697556D01*
X92129476Y-68697561D01*
X92224959Y-68862942D01*
X92228237Y-68867454D01*
X92252095Y-68934322D01*
X92252300Y-68941514D01*
X92252300Y-70842587D01*
X92252185Y-70846392D01*
X92248380Y-70909286D01*
X92259740Y-70971278D01*
X92260313Y-70975041D01*
X92267904Y-71037566D01*
X92267906Y-71037572D01*
X92271557Y-71047200D01*
X92277679Y-71069160D01*
X92279535Y-71079287D01*
X92305392Y-71136740D01*
X92306848Y-71140255D01*
X92329192Y-71199171D01*
X92329197Y-71199180D01*
X92335041Y-71207647D01*
X92346241Y-71227505D01*
X92350465Y-71236890D01*
X92350467Y-71236893D01*
X92389322Y-71286489D01*
X92391578Y-71289555D01*
X92427371Y-71341410D01*
X92427372Y-71341411D01*
X92459965Y-71370286D01*
X92474543Y-71383200D01*
X92477297Y-71385793D01*
X94730205Y-73638701D01*
X94732798Y-73641456D01*
X94747989Y-73658603D01*
X94774589Y-73688628D01*
X94821198Y-73720799D01*
X94826461Y-73724432D01*
X94829513Y-73726677D01*
X94879107Y-73765532D01*
X94879108Y-73765532D01*
X94879109Y-73765533D01*
X94888488Y-73769754D01*
X94908358Y-73780961D01*
X94916827Y-73786807D01*
X94975732Y-73809146D01*
X94979250Y-73810603D01*
X95000727Y-73820269D01*
X95036712Y-73836465D01*
X95046830Y-73838319D01*
X95068805Y-73844444D01*
X95078428Y-73848094D01*
X95140985Y-73855689D01*
X95144715Y-73856256D01*
X95206713Y-73867619D01*
X95220727Y-73866771D01*
X95289927Y-73882619D01*
X95329204Y-73917031D01*
X95402738Y-74015261D01*
X95519792Y-74102887D01*
X95519794Y-74102888D01*
X95519796Y-74102889D01*
X95578875Y-74124924D01*
X95656795Y-74153988D01*
X95656803Y-74153990D01*
X95717350Y-74160499D01*
X95717355Y-74160499D01*
X95717362Y-74160500D01*
X96215814Y-74160500D01*
X96283935Y-74180502D01*
X96304909Y-74197405D01*
X96762205Y-74654701D01*
X96764798Y-74657456D01*
X96779989Y-74674603D01*
X96806589Y-74704628D01*
X96858461Y-74740432D01*
X96861504Y-74742671D01*
X96911107Y-74781533D01*
X96920500Y-74785760D01*
X96940351Y-74796956D01*
X96948827Y-74802807D01*
X96948831Y-74802808D01*
X96948834Y-74802810D01*
X97007743Y-74825151D01*
X97011261Y-74826608D01*
X97068707Y-74852463D01*
X97068710Y-74852463D01*
X97068713Y-74852465D01*
X97078835Y-74854319D01*
X97100803Y-74860444D01*
X97110425Y-74864093D01*
X97110428Y-74864094D01*
X97172971Y-74871687D01*
X97176711Y-74872256D01*
X97238713Y-74883620D01*
X97301607Y-74879814D01*
X97305412Y-74879700D01*
X97746953Y-74879700D01*
X106851052Y-74879700D01*
X106919173Y-74899702D01*
X106956535Y-74936784D01*
X107001278Y-75005268D01*
X107144475Y-75160820D01*
X107175896Y-75224485D01*
X107167909Y-75295031D01*
X107123050Y-75350060D01*
X107095807Y-75364213D01*
X106980797Y-75407110D01*
X106980792Y-75407112D01*
X106863738Y-75494738D01*
X106776112Y-75611792D01*
X106776110Y-75611797D01*
X106725011Y-75748795D01*
X106725009Y-75748803D01*
X106718500Y-75809350D01*
X106718499Y-75809367D01*
X106718500Y-77007813D01*
X106698498Y-77075934D01*
X106681595Y-77096908D01*
X104173309Y-79605195D01*
X104110997Y-79639220D01*
X104084214Y-79642100D01*
X101975474Y-79642100D01*
X101907353Y-79622098D01*
X101860860Y-79568442D01*
X101850756Y-79498168D01*
X101860087Y-79465485D01*
X101872822Y-79436451D01*
X101872823Y-79436449D01*
X101920544Y-79248000D01*
X101015116Y-79248000D01*
X101043493Y-79203844D01*
X101084000Y-79065889D01*
X101084000Y-78922111D01*
X101043493Y-78784156D01*
X101015116Y-78740000D01*
X101920544Y-78740000D01*
X101920544Y-78739999D01*
X101872823Y-78551550D01*
X101872820Y-78551543D01*
X101782419Y-78345451D01*
X101659325Y-78157041D01*
X101506902Y-77991465D01*
X101329301Y-77853232D01*
X101329300Y-77853231D01*
X101131371Y-77746117D01*
X101131369Y-77746116D01*
X100918512Y-77673043D01*
X100918501Y-77673040D01*
X100838000Y-77659606D01*
X100838000Y-78560325D01*
X100726315Y-78509320D01*
X100619763Y-78494000D01*
X100548237Y-78494000D01*
X100441685Y-78509320D01*
X100330000Y-78560325D01*
X100330000Y-77659607D01*
X100329999Y-77659606D01*
X100249498Y-77673040D01*
X100249487Y-77673043D01*
X100036630Y-77746116D01*
X100036628Y-77746117D01*
X99838699Y-77853231D01*
X99838698Y-77853232D01*
X99661097Y-77991465D01*
X99508670Y-78157045D01*
X99419780Y-78293101D01*
X99365776Y-78339189D01*
X99295428Y-78348764D01*
X99231071Y-78318786D01*
X99208816Y-78293101D01*
X99169884Y-78233511D01*
X99119724Y-78156734D01*
X99119720Y-78156729D01*
X99003570Y-78030558D01*
X98967240Y-77991094D01*
X98967239Y-77991093D01*
X98967237Y-77991091D01*
X98885382Y-77927381D01*
X98789576Y-77852811D01*
X98591574Y-77745658D01*
X98591572Y-77745657D01*
X98591571Y-77745656D01*
X98378639Y-77672557D01*
X98378630Y-77672555D01*
X98301029Y-77659606D01*
X98156569Y-77635500D01*
X97931431Y-77635500D01*
X97790213Y-77659065D01*
X97709369Y-77672555D01*
X97709360Y-77672557D01*
X97496428Y-77745656D01*
X97496426Y-77745658D01*
X97298426Y-77852810D01*
X97298424Y-77852811D01*
X97120762Y-77991091D01*
X96968279Y-78156729D01*
X96879483Y-78292643D01*
X96825479Y-78338731D01*
X96755131Y-78348306D01*
X96690774Y-78318329D01*
X96668517Y-78292643D01*
X96579720Y-78156729D01*
X96463570Y-78030558D01*
X96427240Y-77991094D01*
X96427239Y-77991093D01*
X96427237Y-77991091D01*
X96345382Y-77927381D01*
X96249576Y-77852811D01*
X96051574Y-77745658D01*
X96051572Y-77745657D01*
X96051571Y-77745656D01*
X95838639Y-77672557D01*
X95838632Y-77672555D01*
X95726803Y-77653894D01*
X95616569Y-77635500D01*
X95616566Y-77635500D01*
X95611562Y-77634665D01*
X95547663Y-77603723D01*
X95510635Y-77543147D01*
X95512236Y-77472168D01*
X95543204Y-77421290D01*
X95703282Y-77261212D01*
X95765592Y-77227188D01*
X95765929Y-77227115D01*
X95913288Y-77195794D01*
X96087752Y-77118118D01*
X96242253Y-77005866D01*
X96370040Y-76863944D01*
X96465527Y-76698556D01*
X96524542Y-76516928D01*
X96544504Y-76327000D01*
X96524542Y-76137072D01*
X96465527Y-75955444D01*
X96370040Y-75790056D01*
X96370038Y-75790054D01*
X96370034Y-75790048D01*
X96242255Y-75648135D01*
X96087752Y-75535882D01*
X95913288Y-75458206D01*
X95726487Y-75418500D01*
X95535513Y-75418500D01*
X95348711Y-75458206D01*
X95174247Y-75535882D01*
X95019744Y-75648135D01*
X94891965Y-75790048D01*
X94891958Y-75790058D01*
X94796476Y-75955438D01*
X94796473Y-75955445D01*
X94737458Y-76137070D01*
X94737457Y-76137072D01*
X94733080Y-76178715D01*
X94706066Y-76244371D01*
X94696866Y-76254636D01*
X93327624Y-77623878D01*
X93265312Y-77657904D01*
X93217791Y-77659065D01*
X93183057Y-77653269D01*
X93076569Y-77635500D01*
X92851431Y-77635500D01*
X92710213Y-77659065D01*
X92629369Y-77672555D01*
X92629360Y-77672557D01*
X92416428Y-77745656D01*
X92416426Y-77745658D01*
X92218426Y-77852810D01*
X92218424Y-77852811D01*
X92040762Y-77991091D01*
X91888279Y-78156729D01*
X91888275Y-78156734D01*
X91765141Y-78345206D01*
X91674703Y-78551386D01*
X91674702Y-78551387D01*
X91619437Y-78769624D01*
X91619436Y-78769630D01*
X91619436Y-78769632D01*
X91600844Y-78994000D01*
X88983156Y-78994000D01*
X88964564Y-78769632D01*
X88909338Y-78551550D01*
X88909297Y-78551387D01*
X88909296Y-78551386D01*
X88909296Y-78551384D01*
X88818860Y-78345209D01*
X88801597Y-78318786D01*
X88695724Y-78156734D01*
X88695720Y-78156729D01*
X88579570Y-78030559D01*
X88543240Y-77991094D01*
X88543239Y-77991093D01*
X88543237Y-77991091D01*
X88461382Y-77927381D01*
X88365576Y-77852811D01*
X88167574Y-77745658D01*
X88167572Y-77745657D01*
X88167571Y-77745656D01*
X87954639Y-77672557D01*
X87954630Y-77672555D01*
X87877029Y-77659606D01*
X87732569Y-77635500D01*
X87507431Y-77635500D01*
X87366213Y-77659065D01*
X87285369Y-77672555D01*
X87285360Y-77672557D01*
X87072428Y-77745656D01*
X87072426Y-77745658D01*
X86874426Y-77852810D01*
X86874424Y-77852811D01*
X86696762Y-77991091D01*
X86544279Y-78156729D01*
X86544275Y-78156734D01*
X86421141Y-78345206D01*
X86330703Y-78551386D01*
X86330702Y-78551387D01*
X86275437Y-78769624D01*
X86275436Y-78769630D01*
X86275436Y-78769632D01*
X86256844Y-78994000D01*
X70785500Y-78994000D01*
X70785500Y-74167999D01*
X78900844Y-74167999D01*
X78919437Y-74392375D01*
X78974702Y-74610612D01*
X78974703Y-74610613D01*
X78974704Y-74610616D01*
X79065140Y-74816791D01*
X79065141Y-74816793D01*
X79188275Y-75005265D01*
X79188280Y-75005270D01*
X79331475Y-75160820D01*
X79362896Y-75224485D01*
X79354909Y-75295031D01*
X79310051Y-75350060D01*
X79282807Y-75364213D01*
X79167797Y-75407110D01*
X79167792Y-75407112D01*
X79050738Y-75494738D01*
X78963112Y-75611792D01*
X78963110Y-75611797D01*
X78912011Y-75748795D01*
X78912009Y-75748803D01*
X78905500Y-75809350D01*
X78905500Y-77606649D01*
X78912009Y-77667196D01*
X78912011Y-77667204D01*
X78963110Y-77804202D01*
X78963112Y-77804207D01*
X79050738Y-77921261D01*
X79167792Y-78008887D01*
X79167794Y-78008888D01*
X79167796Y-78008889D01*
X79226875Y-78030924D01*
X79304795Y-78059988D01*
X79304803Y-78059990D01*
X79365350Y-78066499D01*
X79365355Y-78066499D01*
X79365362Y-78066500D01*
X79365368Y-78066500D01*
X81162632Y-78066500D01*
X81162638Y-78066500D01*
X81162645Y-78066499D01*
X81162649Y-78066499D01*
X81223196Y-78059990D01*
X81223199Y-78059989D01*
X81223201Y-78059989D01*
X81360204Y-78008889D01*
X81383976Y-77991094D01*
X81477261Y-77921261D01*
X81564887Y-77804207D01*
X81564887Y-77804206D01*
X81564889Y-77804204D01*
X81615989Y-77667201D01*
X81616806Y-77659607D01*
X81622499Y-77606649D01*
X81622500Y-77606632D01*
X81622500Y-75809367D01*
X81622499Y-75809350D01*
X81615990Y-75748803D01*
X81615988Y-75748795D01*
X81578443Y-75648135D01*
X81564889Y-75611796D01*
X81564888Y-75611794D01*
X81564887Y-75611792D01*
X81477261Y-75494738D01*
X81360207Y-75407112D01*
X81360203Y-75407110D01*
X81245192Y-75364213D01*
X81188356Y-75321667D01*
X81163546Y-75255146D01*
X81178638Y-75185772D01*
X81196525Y-75160820D01*
X81339714Y-75005277D01*
X81339724Y-75005265D01*
X81384465Y-74936784D01*
X81462860Y-74816791D01*
X81553296Y-74610616D01*
X81608564Y-74392368D01*
X81627156Y-74168000D01*
X81608564Y-73943632D01*
X81589100Y-73866770D01*
X81553297Y-73725387D01*
X81553296Y-73725386D01*
X81553296Y-73725384D01*
X81462860Y-73519209D01*
X81407807Y-73434944D01*
X81339724Y-73330734D01*
X81339720Y-73330729D01*
X81188824Y-73166815D01*
X81187240Y-73165094D01*
X81187239Y-73165093D01*
X81187237Y-73165091D01*
X81088097Y-73087927D01*
X81009576Y-73026811D01*
X80976319Y-73008813D01*
X80925929Y-72958802D01*
X80910576Y-72889485D01*
X80935136Y-72822872D01*
X80976320Y-72787186D01*
X81009576Y-72769189D01*
X81187240Y-72630906D01*
X81339722Y-72465268D01*
X81462860Y-72276791D01*
X81553296Y-72070616D01*
X81608564Y-71852368D01*
X81627156Y-71628000D01*
X81608564Y-71403632D01*
X81604051Y-71385810D01*
X81553297Y-71185387D01*
X81553296Y-71185386D01*
X81553296Y-71185384D01*
X81462860Y-70979209D01*
X81417177Y-70909286D01*
X81339724Y-70790734D01*
X81339720Y-70790729D01*
X81187237Y-70625091D01*
X81105382Y-70561381D01*
X81009576Y-70486811D01*
X80976319Y-70468813D01*
X80925929Y-70418802D01*
X80910576Y-70349485D01*
X80935136Y-70282872D01*
X80976320Y-70247186D01*
X81009576Y-70229189D01*
X81187240Y-70090906D01*
X81339722Y-69925268D01*
X81462860Y-69736791D01*
X81553296Y-69530616D01*
X81608564Y-69312368D01*
X81627156Y-69088000D01*
X81608564Y-68863632D01*
X81553296Y-68645384D01*
X81462860Y-68439209D01*
X81456140Y-68428924D01*
X81339724Y-68250734D01*
X81339720Y-68250729D01*
X81204701Y-68104062D01*
X81187240Y-68085094D01*
X81187239Y-68085093D01*
X81187237Y-68085091D01*
X81098794Y-68016253D01*
X81009576Y-67946811D01*
X80976319Y-67928813D01*
X80925929Y-67878802D01*
X80910576Y-67809485D01*
X80935136Y-67742872D01*
X80976320Y-67707186D01*
X81009576Y-67689189D01*
X81187240Y-67550906D01*
X81339722Y-67385268D01*
X81462860Y-67196791D01*
X81553296Y-66990616D01*
X81608564Y-66772368D01*
X81627156Y-66548000D01*
X81608564Y-66323632D01*
X81553296Y-66105384D01*
X81462860Y-65899209D01*
X81445548Y-65872711D01*
X81339724Y-65710734D01*
X81339720Y-65710729D01*
X81189727Y-65547796D01*
X81187240Y-65545094D01*
X81187239Y-65545093D01*
X81187237Y-65545091D01*
X81088243Y-65468041D01*
X81009576Y-65406811D01*
X81009569Y-65406807D01*
X80976318Y-65388812D01*
X80925928Y-65338798D01*
X80910576Y-65269481D01*
X80935137Y-65202869D01*
X80976315Y-65167188D01*
X81009576Y-65149189D01*
X81187240Y-65010906D01*
X81339722Y-64845268D01*
X81462860Y-64656791D01*
X81553296Y-64450616D01*
X81608564Y-64232368D01*
X81627156Y-64008000D01*
X81608564Y-63783632D01*
X81577152Y-63659589D01*
X81553297Y-63565387D01*
X81553296Y-63565386D01*
X81553296Y-63565384D01*
X81462860Y-63359209D01*
X81456140Y-63348924D01*
X81339724Y-63170734D01*
X81339720Y-63170729D01*
X81213499Y-63033619D01*
X81187240Y-63005094D01*
X81187239Y-63005093D01*
X81187237Y-63005091D01*
X81098152Y-62935753D01*
X81009576Y-62866811D01*
X81009569Y-62866807D01*
X80976318Y-62848812D01*
X80925928Y-62798798D01*
X80910576Y-62729481D01*
X80935137Y-62662869D01*
X80976315Y-62627188D01*
X81009576Y-62609189D01*
X81187240Y-62470906D01*
X81339722Y-62305268D01*
X81462860Y-62116791D01*
X81553296Y-61910616D01*
X81608564Y-61692368D01*
X81627156Y-61468000D01*
X81608564Y-61243632D01*
X81553296Y-61025384D01*
X81524616Y-60960000D01*
X88400000Y-60960000D01*
X88400000Y-61254597D01*
X88406505Y-61315093D01*
X88457555Y-61451964D01*
X88457555Y-61451965D01*
X88545095Y-61568904D01*
X88662034Y-61656444D01*
X88798906Y-61707494D01*
X88859402Y-61713999D01*
X88859415Y-61714000D01*
X89154000Y-61714000D01*
X89154000Y-60960000D01*
X89662000Y-60960000D01*
X89662000Y-61714000D01*
X89956585Y-61714000D01*
X89956597Y-61713999D01*
X90017093Y-61707494D01*
X90153964Y-61656444D01*
X90153965Y-61656444D01*
X90270904Y-61568904D01*
X90358444Y-61451965D01*
X90358444Y-61451964D01*
X90409494Y-61315093D01*
X90415993Y-61254649D01*
X91955500Y-61254649D01*
X91962009Y-61315196D01*
X91962011Y-61315204D01*
X92013110Y-61452202D01*
X92013112Y-61452207D01*
X92100738Y-61569261D01*
X92217792Y-61656887D01*
X92217794Y-61656888D01*
X92217796Y-61656889D01*
X92276875Y-61678924D01*
X92354795Y-61707988D01*
X92354803Y-61707990D01*
X92415350Y-61714499D01*
X92415355Y-61714499D01*
X92415362Y-61714500D01*
X92415368Y-61714500D01*
X93512632Y-61714500D01*
X93512638Y-61714500D01*
X93512645Y-61714499D01*
X93512649Y-61714499D01*
X93573196Y-61707990D01*
X93573199Y-61707989D01*
X93573201Y-61707989D01*
X93710204Y-61656889D01*
X93710799Y-61656444D01*
X93827261Y-61569261D01*
X93914887Y-61452207D01*
X93914887Y-61452206D01*
X93914889Y-61452204D01*
X93965989Y-61315201D01*
X93972500Y-61254638D01*
X93972500Y-60157362D01*
X93972499Y-60157350D01*
X93965990Y-60096803D01*
X93965988Y-60096795D01*
X93914978Y-59960035D01*
X93914889Y-59959796D01*
X93914888Y-59959794D01*
X93914887Y-59959792D01*
X93827261Y-59842738D01*
X93710207Y-59755112D01*
X93710202Y-59755110D01*
X93573204Y-59704011D01*
X93573196Y-59704009D01*
X93512649Y-59697500D01*
X93512638Y-59697500D01*
X92415362Y-59697500D01*
X92415350Y-59697500D01*
X92354803Y-59704009D01*
X92354795Y-59704011D01*
X92217797Y-59755110D01*
X92217792Y-59755112D01*
X92100738Y-59842738D01*
X92013112Y-59959792D01*
X92013110Y-59959797D01*
X91962011Y-60096795D01*
X91962009Y-60096803D01*
X91955500Y-60157350D01*
X91955500Y-61254649D01*
X90415993Y-61254649D01*
X90415999Y-61254597D01*
X90416000Y-61254585D01*
X90416000Y-60960000D01*
X89662000Y-60960000D01*
X89154000Y-60960000D01*
X88400000Y-60960000D01*
X81524616Y-60960000D01*
X81462860Y-60819209D01*
X81452626Y-60803545D01*
X81388897Y-60706000D01*
X89153102Y-60706000D01*
X89172505Y-60803545D01*
X89227760Y-60886240D01*
X89310455Y-60941495D01*
X89383376Y-60956000D01*
X89432624Y-60956000D01*
X89505545Y-60941495D01*
X89588240Y-60886240D01*
X89643495Y-60803545D01*
X89662898Y-60706000D01*
X89643495Y-60608455D01*
X89588240Y-60525760D01*
X89505545Y-60470505D01*
X89432624Y-60456000D01*
X89383376Y-60456000D01*
X89310455Y-60470505D01*
X89227760Y-60525760D01*
X89172505Y-60608455D01*
X89153102Y-60706000D01*
X81388897Y-60706000D01*
X81339724Y-60630734D01*
X81339720Y-60630729D01*
X81187237Y-60465091D01*
X81170418Y-60452000D01*
X88400000Y-60452000D01*
X89154000Y-60452000D01*
X89154000Y-59698000D01*
X89662000Y-59698000D01*
X89662000Y-60452000D01*
X90416000Y-60452000D01*
X90416000Y-60157414D01*
X90415999Y-60157402D01*
X90409494Y-60096906D01*
X90358444Y-59960035D01*
X90358444Y-59960034D01*
X90270904Y-59843095D01*
X90153965Y-59755555D01*
X90017093Y-59704505D01*
X89956597Y-59698000D01*
X89662000Y-59698000D01*
X89154000Y-59698000D01*
X88859402Y-59698000D01*
X88798906Y-59704505D01*
X88662035Y-59755555D01*
X88662034Y-59755555D01*
X88545095Y-59843095D01*
X88457555Y-59960034D01*
X88457555Y-59960035D01*
X88406505Y-60096906D01*
X88400000Y-60157402D01*
X88400000Y-60452000D01*
X81170418Y-60452000D01*
X81105382Y-60401381D01*
X81009576Y-60326811D01*
X80976319Y-60308813D01*
X80925929Y-60258802D01*
X80910576Y-60189485D01*
X80935136Y-60122872D01*
X80976320Y-60087186D01*
X80976847Y-60086901D01*
X81009576Y-60069189D01*
X81187240Y-59930906D01*
X81339722Y-59765268D01*
X81462860Y-59576791D01*
X81553296Y-59370616D01*
X81608564Y-59152368D01*
X81627156Y-58928000D01*
X81608564Y-58703632D01*
X81553338Y-58485550D01*
X81553297Y-58485387D01*
X81553296Y-58485386D01*
X81553296Y-58485384D01*
X81462860Y-58279209D01*
X81456140Y-58268924D01*
X81339724Y-58090734D01*
X81339720Y-58090729D01*
X81223570Y-57964559D01*
X81187240Y-57925094D01*
X81187239Y-57925093D01*
X81187237Y-57925091D01*
X81105382Y-57861381D01*
X81009576Y-57786811D01*
X80811574Y-57679658D01*
X80811572Y-57679657D01*
X80811571Y-57679656D01*
X80598639Y-57606557D01*
X80598630Y-57606555D01*
X80521029Y-57593606D01*
X80376569Y-57569500D01*
X80151431Y-57569500D01*
X80006971Y-57593606D01*
X79929369Y-57606555D01*
X79929360Y-57606557D01*
X79716428Y-57679656D01*
X79716426Y-57679658D01*
X79518426Y-57786810D01*
X79518424Y-57786811D01*
X79340762Y-57925091D01*
X79188279Y-58090729D01*
X79188275Y-58090734D01*
X79065141Y-58279206D01*
X78974703Y-58485386D01*
X78974702Y-58485387D01*
X78919437Y-58703624D01*
X78919436Y-58703630D01*
X78919436Y-58703632D01*
X78900844Y-58928000D01*
X78918232Y-59137844D01*
X78919437Y-59152375D01*
X78974702Y-59370612D01*
X78974703Y-59370613D01*
X78974704Y-59370616D01*
X79065140Y-59576791D01*
X79065141Y-59576793D01*
X79188275Y-59765265D01*
X79188279Y-59765270D01*
X79340762Y-59930908D01*
X79395331Y-59973381D01*
X79518424Y-60069189D01*
X79551680Y-60087186D01*
X79602070Y-60137196D01*
X79617423Y-60206513D01*
X79592864Y-60273126D01*
X79551683Y-60308811D01*
X79518430Y-60326807D01*
X79518424Y-60326811D01*
X79340762Y-60465091D01*
X79188279Y-60630729D01*
X79188275Y-60630734D01*
X79065141Y-60819206D01*
X78974703Y-61025386D01*
X78974702Y-61025387D01*
X78919437Y-61243624D01*
X78919436Y-61243630D01*
X78919436Y-61243632D01*
X78913506Y-61315196D01*
X78903474Y-61436267D01*
X78900844Y-61468000D01*
X78916459Y-61656444D01*
X78919437Y-61692375D01*
X78974702Y-61910612D01*
X78974703Y-61910613D01*
X79065141Y-62116793D01*
X79188275Y-62305265D01*
X79188279Y-62305270D01*
X79340762Y-62470908D01*
X79395331Y-62513381D01*
X79518424Y-62609189D01*
X79551680Y-62627186D01*
X79602070Y-62677196D01*
X79617423Y-62746513D01*
X79592864Y-62813126D01*
X79551683Y-62848811D01*
X79518430Y-62866807D01*
X79518424Y-62866811D01*
X79340762Y-63005091D01*
X79188279Y-63170729D01*
X79188275Y-63170734D01*
X79065141Y-63359206D01*
X78974703Y-63565386D01*
X78974702Y-63565387D01*
X78919437Y-63783624D01*
X78919436Y-63783630D01*
X78919436Y-63783632D01*
X78900844Y-64008000D01*
X78913307Y-64158408D01*
X78919437Y-64232375D01*
X78974702Y-64450612D01*
X78974703Y-64450613D01*
X79065141Y-64656793D01*
X79188275Y-64845265D01*
X79188279Y-64845270D01*
X79340762Y-65010908D01*
X79395331Y-65053381D01*
X79518424Y-65149189D01*
X79551680Y-65167186D01*
X79602070Y-65217196D01*
X79617423Y-65286513D01*
X79592864Y-65353126D01*
X79551683Y-65388811D01*
X79518430Y-65406807D01*
X79518424Y-65406811D01*
X79340762Y-65545091D01*
X79188279Y-65710729D01*
X79188275Y-65710734D01*
X79065141Y-65899206D01*
X78974703Y-66105386D01*
X78974702Y-66105387D01*
X78919437Y-66323624D01*
X78919436Y-66323630D01*
X78919436Y-66323632D01*
X78900844Y-66548000D01*
X78918929Y-66766253D01*
X78919437Y-66772375D01*
X78974702Y-66990612D01*
X78974703Y-66990613D01*
X78974704Y-66990616D01*
X79032646Y-67122711D01*
X79065141Y-67196793D01*
X79188275Y-67385265D01*
X79188279Y-67385270D01*
X79316539Y-67524596D01*
X79336582Y-67546368D01*
X79340762Y-67550908D01*
X79375584Y-67578011D01*
X79518424Y-67689189D01*
X79551680Y-67707186D01*
X79602071Y-67757200D01*
X79617423Y-67826516D01*
X79592862Y-67893129D01*
X79551680Y-67928813D01*
X79518426Y-67946810D01*
X79518424Y-67946811D01*
X79340762Y-68085091D01*
X79188279Y-68250729D01*
X79188275Y-68250734D01*
X79065141Y-68439206D01*
X78974703Y-68645386D01*
X78974702Y-68645387D01*
X78919437Y-68863624D01*
X78919436Y-68863630D01*
X78919436Y-68863632D01*
X78900844Y-69088000D01*
X78918304Y-69298713D01*
X78919437Y-69312375D01*
X78974702Y-69530612D01*
X78974703Y-69530613D01*
X78974704Y-69530616D01*
X79044171Y-69688985D01*
X79065141Y-69736793D01*
X79188275Y-69925265D01*
X79188279Y-69925270D01*
X79340762Y-70090908D01*
X79377872Y-70119792D01*
X79518424Y-70229189D01*
X79551680Y-70247186D01*
X79602071Y-70297200D01*
X79617423Y-70366516D01*
X79592862Y-70433129D01*
X79551680Y-70468813D01*
X79518426Y-70486810D01*
X79518424Y-70486811D01*
X79340762Y-70625091D01*
X79188279Y-70790729D01*
X79188275Y-70790734D01*
X79065141Y-70979206D01*
X78974703Y-71185386D01*
X78974702Y-71185387D01*
X78919437Y-71403624D01*
X78919436Y-71403630D01*
X78919436Y-71403632D01*
X78900844Y-71628000D01*
X78913014Y-71774871D01*
X78919437Y-71852375D01*
X78974702Y-72070612D01*
X78974703Y-72070613D01*
X78974704Y-72070616D01*
X79031945Y-72201114D01*
X79065141Y-72276793D01*
X79188275Y-72465265D01*
X79188279Y-72465270D01*
X79340762Y-72630908D01*
X79395331Y-72673381D01*
X79518424Y-72769189D01*
X79551680Y-72787186D01*
X79602071Y-72837200D01*
X79617423Y-72906516D01*
X79592862Y-72973129D01*
X79551680Y-73008813D01*
X79518426Y-73026810D01*
X79518424Y-73026811D01*
X79340762Y-73165091D01*
X79188279Y-73330729D01*
X79188275Y-73330734D01*
X79065141Y-73519206D01*
X78974703Y-73725386D01*
X78974702Y-73725387D01*
X78919437Y-73943624D01*
X78900844Y-74167999D01*
X70785500Y-74167999D01*
X70785500Y-72662261D01*
X73263500Y-72662261D01*
X73269986Y-72733646D01*
X73269986Y-72733647D01*
X73321170Y-72897906D01*
X73321172Y-72897911D01*
X73321173Y-72897913D01*
X73338721Y-72926941D01*
X73410184Y-73045155D01*
X73410188Y-73045160D01*
X73531839Y-73166811D01*
X73531844Y-73166815D01*
X73531845Y-73166816D01*
X73679087Y-73255827D01*
X73679091Y-73255828D01*
X73679093Y-73255829D01*
X73707506Y-73264682D01*
X73843351Y-73307013D01*
X73914735Y-73313500D01*
X74929264Y-73313499D01*
X75000649Y-73307013D01*
X75164913Y-73255827D01*
X75312155Y-73166816D01*
X75433816Y-73045155D01*
X75522827Y-72897913D01*
X75574013Y-72733649D01*
X75580500Y-72662265D01*
X75580499Y-72147736D01*
X75574013Y-72076351D01*
X75522827Y-71912087D01*
X75439877Y-71774871D01*
X75421753Y-71706230D01*
X75443618Y-71638684D01*
X75445732Y-71635680D01*
X75463118Y-71611752D01*
X75540794Y-71437288D01*
X75580500Y-71250487D01*
X75580500Y-71059513D01*
X75540794Y-70872712D01*
X75463118Y-70698248D01*
X75394684Y-70604057D01*
X75370828Y-70537194D01*
X75386908Y-70468042D01*
X75394673Y-70455956D01*
X75463118Y-70361752D01*
X75540794Y-70187288D01*
X75580500Y-70000487D01*
X75580500Y-69809513D01*
X75580434Y-69809204D01*
X75565042Y-69736791D01*
X75540794Y-69622712D01*
X75463118Y-69448248D01*
X75394684Y-69354057D01*
X75370828Y-69287194D01*
X75386908Y-69218042D01*
X75394673Y-69205956D01*
X75463118Y-69111752D01*
X75540794Y-68937288D01*
X75580500Y-68750487D01*
X75580500Y-68559513D01*
X75540794Y-68372712D01*
X75463118Y-68198248D01*
X75394684Y-68104057D01*
X75370828Y-68037194D01*
X75386908Y-67968042D01*
X75394673Y-67955956D01*
X75463118Y-67861752D01*
X75540794Y-67687288D01*
X75580500Y-67500487D01*
X75580500Y-67309513D01*
X75579009Y-67302500D01*
X75556540Y-67196791D01*
X75540794Y-67122712D01*
X75463118Y-66948248D01*
X75394684Y-66854057D01*
X75370828Y-66787194D01*
X75386908Y-66718042D01*
X75394673Y-66705956D01*
X75463118Y-66611752D01*
X75540794Y-66437288D01*
X75580500Y-66250487D01*
X75580500Y-66059513D01*
X75540794Y-65872712D01*
X75463118Y-65698248D01*
X75394685Y-65604059D01*
X75370828Y-65537192D01*
X75386908Y-65468041D01*
X75394676Y-65455952D01*
X75463118Y-65361752D01*
X75540794Y-65187288D01*
X75580500Y-65000487D01*
X75580500Y-64809513D01*
X75540794Y-64622712D01*
X75463118Y-64448248D01*
X75394685Y-64354059D01*
X75370828Y-64287192D01*
X75386908Y-64218041D01*
X75394676Y-64205952D01*
X75463118Y-64111752D01*
X75540794Y-63937288D01*
X75580500Y-63750487D01*
X75580500Y-63559513D01*
X75540794Y-63372712D01*
X75463118Y-63198248D01*
X75350866Y-63043747D01*
X75350864Y-63043744D01*
X75208951Y-62915965D01*
X75208941Y-62915958D01*
X75043561Y-62820476D01*
X75043556Y-62820473D01*
X74954470Y-62791526D01*
X74861927Y-62761457D01*
X74719615Y-62746500D01*
X74719610Y-62746500D01*
X74124390Y-62746500D01*
X74124384Y-62746500D01*
X73982072Y-62761457D01*
X73867152Y-62798798D01*
X73800444Y-62820473D01*
X73800441Y-62820474D01*
X73800438Y-62820476D01*
X73635058Y-62915958D01*
X73635048Y-62915965D01*
X73493135Y-63043744D01*
X73380882Y-63198247D01*
X73309218Y-63359209D01*
X73303206Y-63372712D01*
X73263500Y-63559513D01*
X73263500Y-63750487D01*
X73303206Y-63937288D01*
X73380882Y-64111752D01*
X73449313Y-64205939D01*
X73473171Y-64272805D01*
X73457091Y-64341957D01*
X73449314Y-64354059D01*
X73380882Y-64448248D01*
X73303206Y-64622711D01*
X73292516Y-64673006D01*
X73263500Y-64809513D01*
X73263500Y-65000487D01*
X73303206Y-65187288D01*
X73380882Y-65361752D01*
X73449313Y-65455939D01*
X73473171Y-65522805D01*
X73457091Y-65591957D01*
X73449314Y-65604059D01*
X73380882Y-65698248D01*
X73303206Y-65872711D01*
X73263500Y-66059512D01*
X73263500Y-66250487D01*
X73303206Y-66437288D01*
X73380882Y-66611752D01*
X73449313Y-66705939D01*
X73473172Y-66772807D01*
X73457091Y-66841958D01*
X73449313Y-66854061D01*
X73380882Y-66948247D01*
X73303206Y-67122711D01*
X73263500Y-67309512D01*
X73263500Y-67500487D01*
X73303206Y-67687288D01*
X73380882Y-67861752D01*
X73449313Y-67955939D01*
X73473172Y-68022807D01*
X73457091Y-68091958D01*
X73449313Y-68104061D01*
X73380882Y-68198247D01*
X73303206Y-68372711D01*
X73263500Y-68559512D01*
X73263500Y-68750487D01*
X73303206Y-68937288D01*
X73380882Y-69111752D01*
X73449313Y-69205939D01*
X73473172Y-69272807D01*
X73457091Y-69341958D01*
X73449313Y-69354061D01*
X73380882Y-69448247D01*
X73303206Y-69622711D01*
X73263500Y-69809512D01*
X73263500Y-70000487D01*
X73303206Y-70187288D01*
X73380882Y-70361752D01*
X73449313Y-70455939D01*
X73473172Y-70522807D01*
X73457091Y-70591958D01*
X73449313Y-70604061D01*
X73380882Y-70698247D01*
X73303206Y-70872711D01*
X73295432Y-70909287D01*
X73263500Y-71059513D01*
X73263500Y-71250487D01*
X73303206Y-71437288D01*
X73380882Y-71611752D01*
X73381213Y-71612207D01*
X73398229Y-71635628D01*
X73422087Y-71702496D01*
X73406005Y-71771647D01*
X73404121Y-71774871D01*
X73321173Y-71912086D01*
X73321170Y-71912093D01*
X73269986Y-72076353D01*
X73263500Y-72147737D01*
X73263500Y-72662261D01*
X70785500Y-72662261D01*
X70785500Y-55508597D01*
X82462000Y-55508597D01*
X82468505Y-55569093D01*
X82519555Y-55705964D01*
X82519555Y-55705965D01*
X82607095Y-55822904D01*
X82724034Y-55910444D01*
X82860906Y-55961494D01*
X82921402Y-55967999D01*
X82921415Y-55968000D01*
X83566000Y-55968000D01*
X83566000Y-55043674D01*
X83677685Y-55094680D01*
X83784237Y-55110000D01*
X83855763Y-55110000D01*
X83962315Y-55094680D01*
X84074000Y-55043674D01*
X84074000Y-55968000D01*
X84718585Y-55968000D01*
X84718597Y-55967999D01*
X84779093Y-55961494D01*
X84915964Y-55910444D01*
X84915965Y-55910444D01*
X85032904Y-55822904D01*
X85120444Y-55705965D01*
X85164814Y-55587004D01*
X85207361Y-55530168D01*
X85273881Y-55505357D01*
X85343255Y-55520448D01*
X85375572Y-55545699D01*
X85437097Y-55612534D01*
X85614698Y-55750767D01*
X85614699Y-55750768D01*
X85812628Y-55857882D01*
X85812630Y-55857883D01*
X86025483Y-55930955D01*
X86025492Y-55930957D01*
X86106000Y-55944391D01*
X86106000Y-55043674D01*
X86217685Y-55094680D01*
X86324237Y-55110000D01*
X86395763Y-55110000D01*
X86502315Y-55094680D01*
X86614000Y-55043674D01*
X86614000Y-55944390D01*
X86694507Y-55930957D01*
X86694516Y-55930955D01*
X86907369Y-55857883D01*
X86907371Y-55857882D01*
X87105300Y-55750768D01*
X87105301Y-55750767D01*
X87282902Y-55612534D01*
X87435327Y-55446955D01*
X87524517Y-55310441D01*
X87578521Y-55264352D01*
X87648868Y-55254777D01*
X87713226Y-55284754D01*
X87735483Y-55310441D01*
X87824672Y-55446955D01*
X87977097Y-55612534D01*
X88154698Y-55750767D01*
X88154699Y-55750768D01*
X88352628Y-55857882D01*
X88352630Y-55857883D01*
X88565483Y-55930955D01*
X88565492Y-55930957D01*
X88646000Y-55944391D01*
X88646000Y-55043674D01*
X88757685Y-55094680D01*
X88864237Y-55110000D01*
X88935763Y-55110000D01*
X89042315Y-55094680D01*
X89154000Y-55043674D01*
X89154000Y-55944391D01*
X89234507Y-55930957D01*
X89234516Y-55930955D01*
X89447369Y-55857883D01*
X89447371Y-55857882D01*
X89645300Y-55750768D01*
X89645301Y-55750767D01*
X89822902Y-55612534D01*
X89975325Y-55446958D01*
X90098419Y-55258548D01*
X90188820Y-55052456D01*
X90188823Y-55052449D01*
X90236544Y-54864000D01*
X89331116Y-54864000D01*
X89359493Y-54819844D01*
X89400000Y-54681889D01*
X89400000Y-54538111D01*
X89359493Y-54400156D01*
X89331116Y-54356000D01*
X90236544Y-54356000D01*
X90236544Y-54355999D01*
X90188823Y-54167550D01*
X90188820Y-54167543D01*
X90098419Y-53961451D01*
X89975325Y-53773041D01*
X89822902Y-53607465D01*
X89645301Y-53469232D01*
X89645300Y-53469231D01*
X89447371Y-53362117D01*
X89447369Y-53362116D01*
X89234512Y-53289043D01*
X89234501Y-53289040D01*
X89154000Y-53275606D01*
X89154000Y-54176325D01*
X89042315Y-54125320D01*
X88935763Y-54110000D01*
X88864237Y-54110000D01*
X88757685Y-54125320D01*
X88646000Y-54176325D01*
X88646000Y-53275606D01*
X88645999Y-53275606D01*
X88565498Y-53289040D01*
X88565487Y-53289043D01*
X88352630Y-53362116D01*
X88352628Y-53362117D01*
X88154699Y-53469231D01*
X88154698Y-53469232D01*
X87977097Y-53607465D01*
X87824674Y-53773042D01*
X87735483Y-53909559D01*
X87681479Y-53955647D01*
X87611131Y-53965222D01*
X87546774Y-53935244D01*
X87524517Y-53909559D01*
X87435325Y-53773042D01*
X87282902Y-53607465D01*
X87105301Y-53469232D01*
X87105300Y-53469231D01*
X86907371Y-53362117D01*
X86907369Y-53362116D01*
X86694512Y-53289043D01*
X86694501Y-53289040D01*
X86614000Y-53275606D01*
X86614000Y-54176325D01*
X86502315Y-54125320D01*
X86395763Y-54110000D01*
X86324237Y-54110000D01*
X86217685Y-54125320D01*
X86106000Y-54176325D01*
X86106000Y-53275607D01*
X86105999Y-53275606D01*
X86025498Y-53289040D01*
X86025487Y-53289043D01*
X85812630Y-53362116D01*
X85812628Y-53362117D01*
X85614699Y-53469231D01*
X85614698Y-53469232D01*
X85437093Y-53607468D01*
X85375571Y-53674300D01*
X85314718Y-53710871D01*
X85243754Y-53708738D01*
X85185208Y-53668576D01*
X85164814Y-53632995D01*
X85120444Y-53514035D01*
X85120444Y-53514034D01*
X85032904Y-53397095D01*
X84915965Y-53309555D01*
X84779093Y-53258505D01*
X84718597Y-53252000D01*
X84074000Y-53252000D01*
X84074000Y-54176325D01*
X83962315Y-54125320D01*
X83855763Y-54110000D01*
X83784237Y-54110000D01*
X83677685Y-54125320D01*
X83566000Y-54176325D01*
X83566000Y-53252000D01*
X82921402Y-53252000D01*
X82860906Y-53258505D01*
X82724035Y-53309555D01*
X82724034Y-53309555D01*
X82607095Y-53397095D01*
X82519555Y-53514034D01*
X82519555Y-53514035D01*
X82468505Y-53650906D01*
X82462000Y-53711402D01*
X82462000Y-54356000D01*
X83388884Y-54356000D01*
X83360507Y-54400156D01*
X83320000Y-54538111D01*
X83320000Y-54681889D01*
X83360507Y-54819844D01*
X83388884Y-54864000D01*
X82462000Y-54864000D01*
X82462000Y-55508597D01*
X70785500Y-55508597D01*
X70785500Y-53341901D01*
X70785615Y-53338096D01*
X70786644Y-53321090D01*
X70802524Y-53058545D01*
X70803439Y-53051007D01*
X70853580Y-52777400D01*
X70855400Y-52770020D01*
X70938151Y-52504464D01*
X70940845Y-52497358D01*
X71055009Y-52243695D01*
X71058536Y-52236977D01*
X71202449Y-51998916D01*
X71206752Y-51992683D01*
X71378311Y-51773703D01*
X71383330Y-51768038D01*
X71580038Y-51571330D01*
X71585703Y-51566311D01*
X71804683Y-51394752D01*
X71810916Y-51390449D01*
X72048977Y-51246536D01*
X72055695Y-51243009D01*
X72309358Y-51128845D01*
X72316464Y-51126151D01*
X72582020Y-51043400D01*
X72589400Y-51041580D01*
X72863007Y-50991439D01*
X72870545Y-50990524D01*
X73150100Y-50973614D01*
X73153902Y-50973500D01*
X73199595Y-50973500D01*
X109172405Y-50973500D01*
X109218038Y-50973500D01*
X109221957Y-50973622D01*
G37*
%TD.AperFunction*%
%TD*%
M02*
