M48
; DRILL file {KiCad 7.0.6} date Wed Jul 26 19:14:02 2023
; FORMAT={-:-/ absolute / inch / decimal}
; #@! TF.CreationDate,2023-07-26T19:14:02-07:00
; #@! TF.GenerationSoftware,Kicad,Pcbnew,7.0.6
; #@! TF.FileFunction,Plated,1,2,PTH
FMAT,2
INCH
; #@! TA.AperFunction,Plated,PTH,ViaDrill
T1C0.0138
; #@! TA.AperFunction,Plated,PTH,ComponentDrill
T2C0.0197
; #@! TA.AperFunction,Plated,PTH,ComponentDrill
T3C0.0394
; #@! TA.AperFunction,Plated,PTH,ComponentDrill
T4C0.0630
%
G90
G05
T1
X3.3Y-2.26
X3.5Y-2.26
X3.58Y-2.94
X3.66Y-2.69
X3.7Y-2.69
X3.765Y-3.005
X3.82Y-2.32
X3.91Y-2.88
X3.94Y-2.32
X3.95Y-2.85
X3.97Y-2.56
X3.97Y-2.67
X3.99Y-2.97
X4.08Y-2.32
X4.09Y-2.77
X4.09Y-2.87
X4.09Y-2.97
X4.11Y-2.58
X4.15Y-2.87
T2
X2.93Y-2.5061
X2.93Y-2.5553
X2.93Y-2.6045
X2.93Y-2.6537
X2.93Y-2.703
X2.93Y-2.7522
X2.93Y-2.8014
X2.93Y-2.8506
X3.52Y-2.39
X3.66Y-2.39
X3.7308Y-2.16
X3.78Y-2.16
X3.79Y-2.61
X3.79Y-2.7
X3.79Y-2.79
X3.79Y-2.88
X3.82Y-2.39
X3.8292Y-2.16
X3.8784Y-2.16
X3.9276Y-2.16
X3.95Y-2.39
X3.9769Y-2.16
X4.0261Y-2.16
X4.0753Y-2.16
T3
X3.16Y-2.32
X3.16Y-2.42
X3.16Y-2.52
X3.16Y-2.62
X3.16Y-2.72
X3.16Y-2.82
X3.16Y-2.92
X3.16Y-3.02
X3.3Y-2.15
X3.4Y-2.15
X3.4496Y-3.11
X3.4496Y-3.21
X3.5Y-2.15
X3.66Y-3.11
X3.66Y-3.21
X3.76Y-3.11
X3.76Y-3.21
X3.86Y-3.11
X3.86Y-3.21
X3.96Y-3.11
X3.96Y-3.21
X4.255Y-2.32
X4.255Y-2.42
X4.255Y-2.52
X4.255Y-2.62
X4.255Y-2.72
X4.255Y-2.82
X4.255Y-2.92
X4.255Y-3.02
T4
X2.88Y-2.1
X2.88Y-3.27
X4.3Y-2.1
X4.3Y-3.27
T0
M30
