%TF.GenerationSoftware,KiCad,Pcbnew,7.0.6*%
%TF.CreationDate,2023-07-26T19:14:02-07:00*%
%TF.ProjectId,connector_board,636f6e6e-6563-4746-9f72-5f626f617264,rev?*%
%TF.SameCoordinates,Original*%
%TF.FileFunction,Soldermask,Bot*%
%TF.FilePolarity,Negative*%
%FSLAX46Y46*%
G04 Gerber Fmt 4.6, Leading zero omitted, Abs format (unit mm)*
G04 Created by KiCad (PCBNEW 7.0.6) date 2023-07-26 19:14:02*
%MOMM*%
%LPD*%
G01*
G04 APERTURE LIST*
G04 Aperture macros list*
%AMRoundRect*
0 Rectangle with rounded corners*
0 $1 Rounding radius*
0 $2 $3 $4 $5 $6 $7 $8 $9 X,Y pos of 4 corners*
0 Add a 4 corners polygon primitive as box body*
4,1,4,$2,$3,$4,$5,$6,$7,$8,$9,$2,$3,0*
0 Add four circle primitives for the rounded corners*
1,1,$1+$1,$2,$3*
1,1,$1+$1,$4,$5*
1,1,$1+$1,$6,$7*
1,1,$1+$1,$8,$9*
0 Add four rect primitives between the rounded corners*
20,1,$1+$1,$2,$3,$4,$5,0*
20,1,$1+$1,$4,$5,$6,$7,0*
20,1,$1+$1,$6,$7,$8,$9,0*
20,1,$1+$1,$8,$9,$2,$3,0*%
G04 Aperture macros list end*
%ADD10C,2.800000*%
%ADD11R,1.700000X1.700000*%
%ADD12O,1.700000X1.700000*%
%ADD13R,1.000000X1.000000*%
%ADD14RoundRect,0.200000X-0.200000X-0.450000X0.200000X-0.450000X0.200000X0.450000X-0.200000X0.450000X0*%
%ADD15O,0.800000X1.300000*%
%ADD16RoundRect,0.200000X0.450000X-0.200000X0.450000X0.200000X-0.450000X0.200000X-0.450000X-0.200000X0*%
%ADD17O,1.300000X0.800000*%
G04 APERTURE END LIST*
D10*
%TO.C,TP12*%
X109220000Y-83058000D03*
%TD*%
D11*
%TO.C,J5*%
X87620000Y-81534000D03*
D12*
X87620000Y-78994000D03*
%TD*%
D13*
%TO.C,TP5*%
X96266000Y-66294000D03*
%TD*%
D11*
%TO.C,J2*%
X108077000Y-76708000D03*
D12*
X108077000Y-74168000D03*
X108077000Y-71628000D03*
X108077000Y-69088000D03*
X108077000Y-66548000D03*
X108077000Y-64008000D03*
X108077000Y-61468000D03*
X108077000Y-58928000D03*
%TD*%
D13*
%TO.C,TP6*%
X100330000Y-60706000D03*
%TD*%
D11*
%TO.C,J7*%
X80264000Y-76708000D03*
D12*
X80264000Y-74168000D03*
X80264000Y-71628000D03*
X80264000Y-69088000D03*
X80264000Y-66548000D03*
X80264000Y-64008000D03*
X80264000Y-61468000D03*
X80264000Y-58928000D03*
%TD*%
D13*
%TO.C,TP8*%
X89408000Y-60706000D03*
%TD*%
D14*
%TO.C,J1*%
X94762000Y-54864000D03*
D15*
X96012000Y-54864000D03*
X97262000Y-54864000D03*
X98512000Y-54864000D03*
X99762000Y-54864000D03*
X101012000Y-54864000D03*
X102262000Y-54864000D03*
X103512000Y-54864000D03*
%TD*%
D10*
%TO.C,TP9*%
X73152000Y-53340000D03*
%TD*%
%TO.C,TP11*%
X109220000Y-53340000D03*
%TD*%
D13*
%TO.C,TP3*%
X96266000Y-70866000D03*
%TD*%
D10*
%TO.C,TP10*%
X73152000Y-83058000D03*
%TD*%
D16*
%TO.C,J6*%
X74422000Y-72405000D03*
D17*
X74422000Y-71155000D03*
X74422000Y-69905000D03*
X74422000Y-68655000D03*
X74422000Y-67405000D03*
X74422000Y-66155000D03*
X74422000Y-64905000D03*
X74422000Y-63655000D03*
%TD*%
D13*
%TO.C,TP1*%
X92964000Y-60706000D03*
%TD*%
D11*
%TO.C,J4*%
X83820000Y-54610000D03*
D12*
X86360000Y-54610000D03*
X88900000Y-54610000D03*
%TD*%
D11*
%TO.C,J3*%
X92964000Y-81534000D03*
D12*
X92964000Y-78994000D03*
X95504000Y-81534000D03*
X95504000Y-78994000D03*
X98044000Y-81534000D03*
X98044000Y-78994000D03*
X100584000Y-81534000D03*
X100584000Y-78994000D03*
%TD*%
D13*
%TO.C,TP7*%
X97028000Y-60706000D03*
%TD*%
%TO.C,TP4*%
X96266000Y-68580000D03*
%TD*%
%TO.C,TP2*%
X96266000Y-73152000D03*
%TD*%
M02*
