%TF.GenerationSoftware,KiCad,Pcbnew,8.0.4*%
%TF.CreationDate,2025-04-11T23:04:32-07:00*%
%TF.ProjectId,pico-breakout,7069636f-2d62-4726-9561-6b6f75742e6b,rev?*%
%TF.SameCoordinates,Original*%
%TF.FileFunction,Legend,Top*%
%TF.FilePolarity,Positive*%
%FSLAX46Y46*%
G04 Gerber Fmt 4.6, Leading zero omitted, Abs format (unit mm)*
G04 Created by KiCad (PCBNEW 8.0.4) date 2025-04-11 23:04:32*
%MOMM*%
%LPD*%
G01*
G04 APERTURE LIST*
G04 Aperture macros list*
%AMRoundRect*
0 Rectangle with rounded corners*
0 $1 Rounding radius*
0 $2 $3 $4 $5 $6 $7 $8 $9 X,Y pos of 4 corners*
0 Add a 4 corners polygon primitive as box body*
4,1,4,$2,$3,$4,$5,$6,$7,$8,$9,$2,$3,0*
0 Add four circle primitives for the rounded corners*
1,1,$1+$1,$2,$3*
1,1,$1+$1,$4,$5*
1,1,$1+$1,$6,$7*
1,1,$1+$1,$8,$9*
0 Add four rect primitives between the rounded corners*
20,1,$1+$1,$2,$3,$4,$5,0*
20,1,$1+$1,$4,$5,$6,$7,0*
20,1,$1+$1,$6,$7,$8,$9,0*
20,1,$1+$1,$8,$9,$2,$3,0*%
G04 Aperture macros list end*
%ADD10C,0.150000*%
%ADD11C,0.127000*%
%ADD12C,0.400000*%
%ADD13C,0.120000*%
%ADD14C,0.000000*%
%ADD15C,0.250000*%
%ADD16R,1.700000X1.700000*%
%ADD17O,1.700000X1.700000*%
%ADD18RoundRect,0.200000X-0.200000X-0.275000X0.200000X-0.275000X0.200000X0.275000X-0.200000X0.275000X0*%
G04 APERTURE END LIST*
D10*
X81951000Y-40421000D02*
G75*
G02*
X78649000Y-40421000I-1651000J0D01*
G01*
X78649000Y-40421000D02*
G75*
G02*
X81951000Y-40421000I1651000J0D01*
G01*
X55751000Y-40730000D02*
G75*
G02*
X52449000Y-40730000I-1651000J0D01*
G01*
X52449000Y-40730000D02*
G75*
G02*
X55751000Y-40730000I1651000J0D01*
G01*
X40951000Y-94421000D02*
G75*
G02*
X37649000Y-94421000I-1651000J0D01*
G01*
X37649000Y-94421000D02*
G75*
G02*
X40951000Y-94421000I1651000J0D01*
G01*
X67151000Y-87730000D02*
G75*
G02*
X63849000Y-87730000I-1651000J0D01*
G01*
X63849000Y-87730000D02*
G75*
G02*
X67151000Y-87730000I1651000J0D01*
G01*
X40951000Y-40421000D02*
G75*
G02*
X37649000Y-40421000I-1651000J0D01*
G01*
X37649000Y-40421000D02*
G75*
G02*
X40951000Y-40421000I1651000J0D01*
G01*
X67151000Y-40730000D02*
G75*
G02*
X63849000Y-40730000I-1651000J0D01*
G01*
X63849000Y-40730000D02*
G75*
G02*
X67151000Y-40730000I1651000J0D01*
G01*
X55751000Y-87730000D02*
G75*
G02*
X52449000Y-87730000I-1651000J0D01*
G01*
X52449000Y-87730000D02*
G75*
G02*
X55751000Y-87730000I1651000J0D01*
G01*
X81951000Y-94421000D02*
G75*
G02*
X78649000Y-94421000I-1651000J0D01*
G01*
X78649000Y-94421000D02*
G75*
G02*
X81951000Y-94421000I1651000J0D01*
G01*
D11*
X78540694Y-75348538D02*
X78483552Y-75319967D01*
X78483552Y-75319967D02*
X78397837Y-75319967D01*
X78397837Y-75319967D02*
X78312123Y-75348538D01*
X78312123Y-75348538D02*
X78254980Y-75405681D01*
X78254980Y-75405681D02*
X78226409Y-75462824D01*
X78226409Y-75462824D02*
X78197837Y-75577110D01*
X78197837Y-75577110D02*
X78197837Y-75662824D01*
X78197837Y-75662824D02*
X78226409Y-75777110D01*
X78226409Y-75777110D02*
X78254980Y-75834253D01*
X78254980Y-75834253D02*
X78312123Y-75891396D01*
X78312123Y-75891396D02*
X78397837Y-75919967D01*
X78397837Y-75919967D02*
X78454980Y-75919967D01*
X78454980Y-75919967D02*
X78540694Y-75891396D01*
X78540694Y-75891396D02*
X78569266Y-75862824D01*
X78569266Y-75862824D02*
X78569266Y-75662824D01*
X78569266Y-75662824D02*
X78454980Y-75662824D01*
X78826409Y-75919967D02*
X78826409Y-75319967D01*
X78826409Y-75319967D02*
X79054980Y-75319967D01*
X79054980Y-75319967D02*
X79112123Y-75348538D01*
X79112123Y-75348538D02*
X79140694Y-75377110D01*
X79140694Y-75377110D02*
X79169266Y-75434253D01*
X79169266Y-75434253D02*
X79169266Y-75519967D01*
X79169266Y-75519967D02*
X79140694Y-75577110D01*
X79140694Y-75577110D02*
X79112123Y-75605681D01*
X79112123Y-75605681D02*
X79054980Y-75634253D01*
X79054980Y-75634253D02*
X78826409Y-75634253D01*
X79397837Y-75377110D02*
X79426409Y-75348538D01*
X79426409Y-75348538D02*
X79483552Y-75319967D01*
X79483552Y-75319967D02*
X79626409Y-75319967D01*
X79626409Y-75319967D02*
X79683552Y-75348538D01*
X79683552Y-75348538D02*
X79712123Y-75377110D01*
X79712123Y-75377110D02*
X79740694Y-75434253D01*
X79740694Y-75434253D02*
X79740694Y-75491396D01*
X79740694Y-75491396D02*
X79712123Y-75577110D01*
X79712123Y-75577110D02*
X79369266Y-75919967D01*
X79369266Y-75919967D02*
X79740694Y-75919967D01*
X80112123Y-75319967D02*
X80169266Y-75319967D01*
X80169266Y-75319967D02*
X80226409Y-75348538D01*
X80226409Y-75348538D02*
X80254981Y-75377110D01*
X80254981Y-75377110D02*
X80283552Y-75434253D01*
X80283552Y-75434253D02*
X80312123Y-75548538D01*
X80312123Y-75548538D02*
X80312123Y-75691396D01*
X80312123Y-75691396D02*
X80283552Y-75805681D01*
X80283552Y-75805681D02*
X80254981Y-75862824D01*
X80254981Y-75862824D02*
X80226409Y-75891396D01*
X80226409Y-75891396D02*
X80169266Y-75919967D01*
X80169266Y-75919967D02*
X80112123Y-75919967D01*
X80112123Y-75919967D02*
X80054981Y-75891396D01*
X80054981Y-75891396D02*
X80026409Y-75862824D01*
X80026409Y-75862824D02*
X79997838Y-75805681D01*
X79997838Y-75805681D02*
X79969266Y-75691396D01*
X79969266Y-75691396D02*
X79969266Y-75548538D01*
X79969266Y-75548538D02*
X79997838Y-75434253D01*
X79997838Y-75434253D02*
X80026409Y-75377110D01*
X80026409Y-75377110D02*
X80054981Y-75348538D01*
X80054981Y-75348538D02*
X80112123Y-75319967D01*
X59548538Y-92559305D02*
X59519967Y-92616448D01*
X59519967Y-92616448D02*
X59519967Y-92702162D01*
X59519967Y-92702162D02*
X59548538Y-92787876D01*
X59548538Y-92787876D02*
X59605681Y-92845019D01*
X59605681Y-92845019D02*
X59662824Y-92873590D01*
X59662824Y-92873590D02*
X59777110Y-92902162D01*
X59777110Y-92902162D02*
X59862824Y-92902162D01*
X59862824Y-92902162D02*
X59977110Y-92873590D01*
X59977110Y-92873590D02*
X60034253Y-92845019D01*
X60034253Y-92845019D02*
X60091396Y-92787876D01*
X60091396Y-92787876D02*
X60119967Y-92702162D01*
X60119967Y-92702162D02*
X60119967Y-92645019D01*
X60119967Y-92645019D02*
X60091396Y-92559305D01*
X60091396Y-92559305D02*
X60062824Y-92530733D01*
X60062824Y-92530733D02*
X59862824Y-92530733D01*
X59862824Y-92530733D02*
X59862824Y-92645019D01*
X60119967Y-92273590D02*
X59519967Y-92273590D01*
X59519967Y-92273590D02*
X60119967Y-91930733D01*
X60119967Y-91930733D02*
X59519967Y-91930733D01*
X60119967Y-91645019D02*
X59519967Y-91645019D01*
X59519967Y-91645019D02*
X59519967Y-91502162D01*
X59519967Y-91502162D02*
X59548538Y-91416448D01*
X59548538Y-91416448D02*
X59605681Y-91359305D01*
X59605681Y-91359305D02*
X59662824Y-91330734D01*
X59662824Y-91330734D02*
X59777110Y-91302162D01*
X59777110Y-91302162D02*
X59862824Y-91302162D01*
X59862824Y-91302162D02*
X59977110Y-91330734D01*
X59977110Y-91330734D02*
X60034253Y-91359305D01*
X60034253Y-91359305D02*
X60091396Y-91416448D01*
X60091396Y-91416448D02*
X60119967Y-91502162D01*
X60119967Y-91502162D02*
X60119967Y-91645019D01*
X40240694Y-52548538D02*
X40183552Y-52519967D01*
X40183552Y-52519967D02*
X40097837Y-52519967D01*
X40097837Y-52519967D02*
X40012123Y-52548538D01*
X40012123Y-52548538D02*
X39954980Y-52605681D01*
X39954980Y-52605681D02*
X39926409Y-52662824D01*
X39926409Y-52662824D02*
X39897837Y-52777110D01*
X39897837Y-52777110D02*
X39897837Y-52862824D01*
X39897837Y-52862824D02*
X39926409Y-52977110D01*
X39926409Y-52977110D02*
X39954980Y-53034253D01*
X39954980Y-53034253D02*
X40012123Y-53091396D01*
X40012123Y-53091396D02*
X40097837Y-53119967D01*
X40097837Y-53119967D02*
X40154980Y-53119967D01*
X40154980Y-53119967D02*
X40240694Y-53091396D01*
X40240694Y-53091396D02*
X40269266Y-53062824D01*
X40269266Y-53062824D02*
X40269266Y-52862824D01*
X40269266Y-52862824D02*
X40154980Y-52862824D01*
X40526409Y-53119967D02*
X40526409Y-52519967D01*
X40526409Y-52519967D02*
X40754980Y-52519967D01*
X40754980Y-52519967D02*
X40812123Y-52548538D01*
X40812123Y-52548538D02*
X40840694Y-52577110D01*
X40840694Y-52577110D02*
X40869266Y-52634253D01*
X40869266Y-52634253D02*
X40869266Y-52719967D01*
X40869266Y-52719967D02*
X40840694Y-52777110D01*
X40840694Y-52777110D02*
X40812123Y-52805681D01*
X40812123Y-52805681D02*
X40754980Y-52834253D01*
X40754980Y-52834253D02*
X40526409Y-52834253D01*
X41383552Y-52719967D02*
X41383552Y-53119967D01*
X41240694Y-52491396D02*
X41097837Y-52919967D01*
X41097837Y-52919967D02*
X41469266Y-52919967D01*
X40240694Y-60148538D02*
X40183552Y-60119967D01*
X40183552Y-60119967D02*
X40097837Y-60119967D01*
X40097837Y-60119967D02*
X40012123Y-60148538D01*
X40012123Y-60148538D02*
X39954980Y-60205681D01*
X39954980Y-60205681D02*
X39926409Y-60262824D01*
X39926409Y-60262824D02*
X39897837Y-60377110D01*
X39897837Y-60377110D02*
X39897837Y-60462824D01*
X39897837Y-60462824D02*
X39926409Y-60577110D01*
X39926409Y-60577110D02*
X39954980Y-60634253D01*
X39954980Y-60634253D02*
X40012123Y-60691396D01*
X40012123Y-60691396D02*
X40097837Y-60719967D01*
X40097837Y-60719967D02*
X40154980Y-60719967D01*
X40154980Y-60719967D02*
X40240694Y-60691396D01*
X40240694Y-60691396D02*
X40269266Y-60662824D01*
X40269266Y-60662824D02*
X40269266Y-60462824D01*
X40269266Y-60462824D02*
X40154980Y-60462824D01*
X40526409Y-60719967D02*
X40526409Y-60119967D01*
X40526409Y-60119967D02*
X40754980Y-60119967D01*
X40754980Y-60119967D02*
X40812123Y-60148538D01*
X40812123Y-60148538D02*
X40840694Y-60177110D01*
X40840694Y-60177110D02*
X40869266Y-60234253D01*
X40869266Y-60234253D02*
X40869266Y-60319967D01*
X40869266Y-60319967D02*
X40840694Y-60377110D01*
X40840694Y-60377110D02*
X40812123Y-60405681D01*
X40812123Y-60405681D02*
X40754980Y-60434253D01*
X40754980Y-60434253D02*
X40526409Y-60434253D01*
X41383552Y-60119967D02*
X41269266Y-60119967D01*
X41269266Y-60119967D02*
X41212123Y-60148538D01*
X41212123Y-60148538D02*
X41183552Y-60177110D01*
X41183552Y-60177110D02*
X41126409Y-60262824D01*
X41126409Y-60262824D02*
X41097837Y-60377110D01*
X41097837Y-60377110D02*
X41097837Y-60605681D01*
X41097837Y-60605681D02*
X41126409Y-60662824D01*
X41126409Y-60662824D02*
X41154980Y-60691396D01*
X41154980Y-60691396D02*
X41212123Y-60719967D01*
X41212123Y-60719967D02*
X41326409Y-60719967D01*
X41326409Y-60719967D02*
X41383552Y-60691396D01*
X41383552Y-60691396D02*
X41412123Y-60662824D01*
X41412123Y-60662824D02*
X41440694Y-60605681D01*
X41440694Y-60605681D02*
X41440694Y-60462824D01*
X41440694Y-60462824D02*
X41412123Y-60405681D01*
X41412123Y-60405681D02*
X41383552Y-60377110D01*
X41383552Y-60377110D02*
X41326409Y-60348538D01*
X41326409Y-60348538D02*
X41212123Y-60348538D01*
X41212123Y-60348538D02*
X41154980Y-60377110D01*
X41154980Y-60377110D02*
X41126409Y-60405681D01*
X41126409Y-60405681D02*
X41097837Y-60462824D01*
X78540694Y-60048538D02*
X78483552Y-60019967D01*
X78483552Y-60019967D02*
X78397837Y-60019967D01*
X78397837Y-60019967D02*
X78312123Y-60048538D01*
X78312123Y-60048538D02*
X78254980Y-60105681D01*
X78254980Y-60105681D02*
X78226409Y-60162824D01*
X78226409Y-60162824D02*
X78197837Y-60277110D01*
X78197837Y-60277110D02*
X78197837Y-60362824D01*
X78197837Y-60362824D02*
X78226409Y-60477110D01*
X78226409Y-60477110D02*
X78254980Y-60534253D01*
X78254980Y-60534253D02*
X78312123Y-60591396D01*
X78312123Y-60591396D02*
X78397837Y-60619967D01*
X78397837Y-60619967D02*
X78454980Y-60619967D01*
X78454980Y-60619967D02*
X78540694Y-60591396D01*
X78540694Y-60591396D02*
X78569266Y-60562824D01*
X78569266Y-60562824D02*
X78569266Y-60362824D01*
X78569266Y-60362824D02*
X78454980Y-60362824D01*
X78826409Y-60619967D02*
X78826409Y-60019967D01*
X78826409Y-60019967D02*
X79054980Y-60019967D01*
X79054980Y-60019967D02*
X79112123Y-60048538D01*
X79112123Y-60048538D02*
X79140694Y-60077110D01*
X79140694Y-60077110D02*
X79169266Y-60134253D01*
X79169266Y-60134253D02*
X79169266Y-60219967D01*
X79169266Y-60219967D02*
X79140694Y-60277110D01*
X79140694Y-60277110D02*
X79112123Y-60305681D01*
X79112123Y-60305681D02*
X79054980Y-60334253D01*
X79054980Y-60334253D02*
X78826409Y-60334253D01*
X79397837Y-60077110D02*
X79426409Y-60048538D01*
X79426409Y-60048538D02*
X79483552Y-60019967D01*
X79483552Y-60019967D02*
X79626409Y-60019967D01*
X79626409Y-60019967D02*
X79683552Y-60048538D01*
X79683552Y-60048538D02*
X79712123Y-60077110D01*
X79712123Y-60077110D02*
X79740694Y-60134253D01*
X79740694Y-60134253D02*
X79740694Y-60191396D01*
X79740694Y-60191396D02*
X79712123Y-60277110D01*
X79712123Y-60277110D02*
X79369266Y-60619967D01*
X79369266Y-60619967D02*
X79740694Y-60619967D01*
X79940695Y-60019967D02*
X80340695Y-60019967D01*
X80340695Y-60019967D02*
X80083552Y-60619967D01*
X80426410Y-60677110D02*
X80883552Y-60677110D01*
X80997838Y-60448538D02*
X81283553Y-60448538D01*
X80940695Y-60619967D02*
X81140695Y-60019967D01*
X81140695Y-60019967D02*
X81340695Y-60619967D01*
X81854981Y-60619967D02*
X81512124Y-60619967D01*
X81683553Y-60619967D02*
X81683553Y-60019967D01*
X81683553Y-60019967D02*
X81626410Y-60105681D01*
X81626410Y-60105681D02*
X81569267Y-60162824D01*
X81569267Y-60162824D02*
X81512124Y-60191396D01*
X78540694Y-44848538D02*
X78483552Y-44819967D01*
X78483552Y-44819967D02*
X78397837Y-44819967D01*
X78397837Y-44819967D02*
X78312123Y-44848538D01*
X78312123Y-44848538D02*
X78254980Y-44905681D01*
X78254980Y-44905681D02*
X78226409Y-44962824D01*
X78226409Y-44962824D02*
X78197837Y-45077110D01*
X78197837Y-45077110D02*
X78197837Y-45162824D01*
X78197837Y-45162824D02*
X78226409Y-45277110D01*
X78226409Y-45277110D02*
X78254980Y-45334253D01*
X78254980Y-45334253D02*
X78312123Y-45391396D01*
X78312123Y-45391396D02*
X78397837Y-45419967D01*
X78397837Y-45419967D02*
X78454980Y-45419967D01*
X78454980Y-45419967D02*
X78540694Y-45391396D01*
X78540694Y-45391396D02*
X78569266Y-45362824D01*
X78569266Y-45362824D02*
X78569266Y-45162824D01*
X78569266Y-45162824D02*
X78454980Y-45162824D01*
X78826409Y-45419967D02*
X78826409Y-44819967D01*
X78826409Y-44819967D02*
X79169266Y-45419967D01*
X79169266Y-45419967D02*
X79169266Y-44819967D01*
X79454980Y-45419967D02*
X79454980Y-44819967D01*
X79454980Y-44819967D02*
X79597837Y-44819967D01*
X79597837Y-44819967D02*
X79683551Y-44848538D01*
X79683551Y-44848538D02*
X79740694Y-44905681D01*
X79740694Y-44905681D02*
X79769265Y-44962824D01*
X79769265Y-44962824D02*
X79797837Y-45077110D01*
X79797837Y-45077110D02*
X79797837Y-45162824D01*
X79797837Y-45162824D02*
X79769265Y-45277110D01*
X79769265Y-45277110D02*
X79740694Y-45334253D01*
X79740694Y-45334253D02*
X79683551Y-45391396D01*
X79683551Y-45391396D02*
X79597837Y-45419967D01*
X79597837Y-45419967D02*
X79454980Y-45419967D01*
X78540694Y-62648538D02*
X78483552Y-62619967D01*
X78483552Y-62619967D02*
X78397837Y-62619967D01*
X78397837Y-62619967D02*
X78312123Y-62648538D01*
X78312123Y-62648538D02*
X78254980Y-62705681D01*
X78254980Y-62705681D02*
X78226409Y-62762824D01*
X78226409Y-62762824D02*
X78197837Y-62877110D01*
X78197837Y-62877110D02*
X78197837Y-62962824D01*
X78197837Y-62962824D02*
X78226409Y-63077110D01*
X78226409Y-63077110D02*
X78254980Y-63134253D01*
X78254980Y-63134253D02*
X78312123Y-63191396D01*
X78312123Y-63191396D02*
X78397837Y-63219967D01*
X78397837Y-63219967D02*
X78454980Y-63219967D01*
X78454980Y-63219967D02*
X78540694Y-63191396D01*
X78540694Y-63191396D02*
X78569266Y-63162824D01*
X78569266Y-63162824D02*
X78569266Y-62962824D01*
X78569266Y-62962824D02*
X78454980Y-62962824D01*
X78826409Y-63219967D02*
X78826409Y-62619967D01*
X78826409Y-62619967D02*
X79054980Y-62619967D01*
X79054980Y-62619967D02*
X79112123Y-62648538D01*
X79112123Y-62648538D02*
X79140694Y-62677110D01*
X79140694Y-62677110D02*
X79169266Y-62734253D01*
X79169266Y-62734253D02*
X79169266Y-62819967D01*
X79169266Y-62819967D02*
X79140694Y-62877110D01*
X79140694Y-62877110D02*
X79112123Y-62905681D01*
X79112123Y-62905681D02*
X79054980Y-62934253D01*
X79054980Y-62934253D02*
X78826409Y-62934253D01*
X79397837Y-62677110D02*
X79426409Y-62648538D01*
X79426409Y-62648538D02*
X79483552Y-62619967D01*
X79483552Y-62619967D02*
X79626409Y-62619967D01*
X79626409Y-62619967D02*
X79683552Y-62648538D01*
X79683552Y-62648538D02*
X79712123Y-62677110D01*
X79712123Y-62677110D02*
X79740694Y-62734253D01*
X79740694Y-62734253D02*
X79740694Y-62791396D01*
X79740694Y-62791396D02*
X79712123Y-62877110D01*
X79712123Y-62877110D02*
X79369266Y-63219967D01*
X79369266Y-63219967D02*
X79740694Y-63219967D01*
X80254981Y-62619967D02*
X80140695Y-62619967D01*
X80140695Y-62619967D02*
X80083552Y-62648538D01*
X80083552Y-62648538D02*
X80054981Y-62677110D01*
X80054981Y-62677110D02*
X79997838Y-62762824D01*
X79997838Y-62762824D02*
X79969266Y-62877110D01*
X79969266Y-62877110D02*
X79969266Y-63105681D01*
X79969266Y-63105681D02*
X79997838Y-63162824D01*
X79997838Y-63162824D02*
X80026409Y-63191396D01*
X80026409Y-63191396D02*
X80083552Y-63219967D01*
X80083552Y-63219967D02*
X80197838Y-63219967D01*
X80197838Y-63219967D02*
X80254981Y-63191396D01*
X80254981Y-63191396D02*
X80283552Y-63162824D01*
X80283552Y-63162824D02*
X80312123Y-63105681D01*
X80312123Y-63105681D02*
X80312123Y-62962824D01*
X80312123Y-62962824D02*
X80283552Y-62905681D01*
X80283552Y-62905681D02*
X80254981Y-62877110D01*
X80254981Y-62877110D02*
X80197838Y-62848538D01*
X80197838Y-62848538D02*
X80083552Y-62848538D01*
X80083552Y-62848538D02*
X80026409Y-62877110D01*
X80026409Y-62877110D02*
X79997838Y-62905681D01*
X79997838Y-62905681D02*
X79969266Y-62962824D01*
X80426410Y-63277110D02*
X80883552Y-63277110D01*
X80997838Y-63048538D02*
X81283553Y-63048538D01*
X80940695Y-63219967D02*
X81140695Y-62619967D01*
X81140695Y-62619967D02*
X81340695Y-63219967D01*
X81654981Y-62619967D02*
X81712124Y-62619967D01*
X81712124Y-62619967D02*
X81769267Y-62648538D01*
X81769267Y-62648538D02*
X81797839Y-62677110D01*
X81797839Y-62677110D02*
X81826410Y-62734253D01*
X81826410Y-62734253D02*
X81854981Y-62848538D01*
X81854981Y-62848538D02*
X81854981Y-62991396D01*
X81854981Y-62991396D02*
X81826410Y-63105681D01*
X81826410Y-63105681D02*
X81797839Y-63162824D01*
X81797839Y-63162824D02*
X81769267Y-63191396D01*
X81769267Y-63191396D02*
X81712124Y-63219967D01*
X81712124Y-63219967D02*
X81654981Y-63219967D01*
X81654981Y-63219967D02*
X81597839Y-63191396D01*
X81597839Y-63191396D02*
X81569267Y-63162824D01*
X81569267Y-63162824D02*
X81540696Y-63105681D01*
X81540696Y-63105681D02*
X81512124Y-62991396D01*
X81512124Y-62991396D02*
X81512124Y-62848538D01*
X81512124Y-62848538D02*
X81540696Y-62734253D01*
X81540696Y-62734253D02*
X81569267Y-62677110D01*
X81569267Y-62677110D02*
X81597839Y-62648538D01*
X81597839Y-62648538D02*
X81654981Y-62619967D01*
X78197837Y-52948538D02*
X78483552Y-52948538D01*
X78140694Y-53119967D02*
X78340694Y-52519967D01*
X78340694Y-52519967D02*
X78540694Y-53119967D01*
X78740695Y-53119967D02*
X78740695Y-52519967D01*
X78740695Y-52519967D02*
X78883552Y-52519967D01*
X78883552Y-52519967D02*
X78969266Y-52548538D01*
X78969266Y-52548538D02*
X79026409Y-52605681D01*
X79026409Y-52605681D02*
X79054980Y-52662824D01*
X79054980Y-52662824D02*
X79083552Y-52777110D01*
X79083552Y-52777110D02*
X79083552Y-52862824D01*
X79083552Y-52862824D02*
X79054980Y-52977110D01*
X79054980Y-52977110D02*
X79026409Y-53034253D01*
X79026409Y-53034253D02*
X78969266Y-53091396D01*
X78969266Y-53091396D02*
X78883552Y-53119967D01*
X78883552Y-53119967D02*
X78740695Y-53119967D01*
X79683552Y-53062824D02*
X79654980Y-53091396D01*
X79654980Y-53091396D02*
X79569266Y-53119967D01*
X79569266Y-53119967D02*
X79512123Y-53119967D01*
X79512123Y-53119967D02*
X79426409Y-53091396D01*
X79426409Y-53091396D02*
X79369266Y-53034253D01*
X79369266Y-53034253D02*
X79340695Y-52977110D01*
X79340695Y-52977110D02*
X79312123Y-52862824D01*
X79312123Y-52862824D02*
X79312123Y-52777110D01*
X79312123Y-52777110D02*
X79340695Y-52662824D01*
X79340695Y-52662824D02*
X79369266Y-52605681D01*
X79369266Y-52605681D02*
X79426409Y-52548538D01*
X79426409Y-52548538D02*
X79512123Y-52519967D01*
X79512123Y-52519967D02*
X79569266Y-52519967D01*
X79569266Y-52519967D02*
X79654980Y-52548538D01*
X79654980Y-52548538D02*
X79683552Y-52577110D01*
X79797838Y-53177110D02*
X80254980Y-53177110D01*
X80312123Y-52519967D02*
X80512123Y-53119967D01*
X80512123Y-53119967D02*
X80712123Y-52519967D01*
X81254981Y-53119967D02*
X81054981Y-52834253D01*
X80912124Y-53119967D02*
X80912124Y-52519967D01*
X80912124Y-52519967D02*
X81140695Y-52519967D01*
X81140695Y-52519967D02*
X81197838Y-52548538D01*
X81197838Y-52548538D02*
X81226409Y-52577110D01*
X81226409Y-52577110D02*
X81254981Y-52634253D01*
X81254981Y-52634253D02*
X81254981Y-52719967D01*
X81254981Y-52719967D02*
X81226409Y-52777110D01*
X81226409Y-52777110D02*
X81197838Y-52805681D01*
X81197838Y-52805681D02*
X81140695Y-52834253D01*
X81140695Y-52834253D02*
X80912124Y-52834253D01*
X81512124Y-52805681D02*
X81712124Y-52805681D01*
X81797838Y-53119967D02*
X81512124Y-53119967D01*
X81512124Y-53119967D02*
X81512124Y-52519967D01*
X81512124Y-52519967D02*
X81797838Y-52519967D01*
X82254981Y-52805681D02*
X82054981Y-52805681D01*
X82054981Y-53119967D02*
X82054981Y-52519967D01*
X82054981Y-52519967D02*
X82340695Y-52519967D01*
X78540694Y-80448538D02*
X78483552Y-80419967D01*
X78483552Y-80419967D02*
X78397837Y-80419967D01*
X78397837Y-80419967D02*
X78312123Y-80448538D01*
X78312123Y-80448538D02*
X78254980Y-80505681D01*
X78254980Y-80505681D02*
X78226409Y-80562824D01*
X78226409Y-80562824D02*
X78197837Y-80677110D01*
X78197837Y-80677110D02*
X78197837Y-80762824D01*
X78197837Y-80762824D02*
X78226409Y-80877110D01*
X78226409Y-80877110D02*
X78254980Y-80934253D01*
X78254980Y-80934253D02*
X78312123Y-80991396D01*
X78312123Y-80991396D02*
X78397837Y-81019967D01*
X78397837Y-81019967D02*
X78454980Y-81019967D01*
X78454980Y-81019967D02*
X78540694Y-80991396D01*
X78540694Y-80991396D02*
X78569266Y-80962824D01*
X78569266Y-80962824D02*
X78569266Y-80762824D01*
X78569266Y-80762824D02*
X78454980Y-80762824D01*
X78826409Y-81019967D02*
X78826409Y-80419967D01*
X78826409Y-80419967D02*
X79054980Y-80419967D01*
X79054980Y-80419967D02*
X79112123Y-80448538D01*
X79112123Y-80448538D02*
X79140694Y-80477110D01*
X79140694Y-80477110D02*
X79169266Y-80534253D01*
X79169266Y-80534253D02*
X79169266Y-80619967D01*
X79169266Y-80619967D02*
X79140694Y-80677110D01*
X79140694Y-80677110D02*
X79112123Y-80705681D01*
X79112123Y-80705681D02*
X79054980Y-80734253D01*
X79054980Y-80734253D02*
X78826409Y-80734253D01*
X79740694Y-81019967D02*
X79397837Y-81019967D01*
X79569266Y-81019967D02*
X79569266Y-80419967D01*
X79569266Y-80419967D02*
X79512123Y-80505681D01*
X79512123Y-80505681D02*
X79454980Y-80562824D01*
X79454980Y-80562824D02*
X79397837Y-80591396D01*
X80083552Y-80677110D02*
X80026409Y-80648538D01*
X80026409Y-80648538D02*
X79997838Y-80619967D01*
X79997838Y-80619967D02*
X79969266Y-80562824D01*
X79969266Y-80562824D02*
X79969266Y-80534253D01*
X79969266Y-80534253D02*
X79997838Y-80477110D01*
X79997838Y-80477110D02*
X80026409Y-80448538D01*
X80026409Y-80448538D02*
X80083552Y-80419967D01*
X80083552Y-80419967D02*
X80197838Y-80419967D01*
X80197838Y-80419967D02*
X80254981Y-80448538D01*
X80254981Y-80448538D02*
X80283552Y-80477110D01*
X80283552Y-80477110D02*
X80312123Y-80534253D01*
X80312123Y-80534253D02*
X80312123Y-80562824D01*
X80312123Y-80562824D02*
X80283552Y-80619967D01*
X80283552Y-80619967D02*
X80254981Y-80648538D01*
X80254981Y-80648538D02*
X80197838Y-80677110D01*
X80197838Y-80677110D02*
X80083552Y-80677110D01*
X80083552Y-80677110D02*
X80026409Y-80705681D01*
X80026409Y-80705681D02*
X79997838Y-80734253D01*
X79997838Y-80734253D02*
X79969266Y-80791396D01*
X79969266Y-80791396D02*
X79969266Y-80905681D01*
X79969266Y-80905681D02*
X79997838Y-80962824D01*
X79997838Y-80962824D02*
X80026409Y-80991396D01*
X80026409Y-80991396D02*
X80083552Y-81019967D01*
X80083552Y-81019967D02*
X80197838Y-81019967D01*
X80197838Y-81019967D02*
X80254981Y-80991396D01*
X80254981Y-80991396D02*
X80283552Y-80962824D01*
X80283552Y-80962824D02*
X80312123Y-80905681D01*
X80312123Y-80905681D02*
X80312123Y-80791396D01*
X80312123Y-80791396D02*
X80283552Y-80734253D01*
X80283552Y-80734253D02*
X80254981Y-80705681D01*
X80254981Y-80705681D02*
X80197838Y-80677110D01*
X78540694Y-70348538D02*
X78483552Y-70319967D01*
X78483552Y-70319967D02*
X78397837Y-70319967D01*
X78397837Y-70319967D02*
X78312123Y-70348538D01*
X78312123Y-70348538D02*
X78254980Y-70405681D01*
X78254980Y-70405681D02*
X78226409Y-70462824D01*
X78226409Y-70462824D02*
X78197837Y-70577110D01*
X78197837Y-70577110D02*
X78197837Y-70662824D01*
X78197837Y-70662824D02*
X78226409Y-70777110D01*
X78226409Y-70777110D02*
X78254980Y-70834253D01*
X78254980Y-70834253D02*
X78312123Y-70891396D01*
X78312123Y-70891396D02*
X78397837Y-70919967D01*
X78397837Y-70919967D02*
X78454980Y-70919967D01*
X78454980Y-70919967D02*
X78540694Y-70891396D01*
X78540694Y-70891396D02*
X78569266Y-70862824D01*
X78569266Y-70862824D02*
X78569266Y-70662824D01*
X78569266Y-70662824D02*
X78454980Y-70662824D01*
X78826409Y-70919967D02*
X78826409Y-70319967D01*
X78826409Y-70319967D02*
X79169266Y-70919967D01*
X79169266Y-70919967D02*
X79169266Y-70319967D01*
X79454980Y-70919967D02*
X79454980Y-70319967D01*
X79454980Y-70319967D02*
X79597837Y-70319967D01*
X79597837Y-70319967D02*
X79683551Y-70348538D01*
X79683551Y-70348538D02*
X79740694Y-70405681D01*
X79740694Y-70405681D02*
X79769265Y-70462824D01*
X79769265Y-70462824D02*
X79797837Y-70577110D01*
X79797837Y-70577110D02*
X79797837Y-70662824D01*
X79797837Y-70662824D02*
X79769265Y-70777110D01*
X79769265Y-70777110D02*
X79740694Y-70834253D01*
X79740694Y-70834253D02*
X79683551Y-70891396D01*
X79683551Y-70891396D02*
X79597837Y-70919967D01*
X79597837Y-70919967D02*
X79454980Y-70919967D01*
X78540694Y-55048538D02*
X78483552Y-55019967D01*
X78483552Y-55019967D02*
X78397837Y-55019967D01*
X78397837Y-55019967D02*
X78312123Y-55048538D01*
X78312123Y-55048538D02*
X78254980Y-55105681D01*
X78254980Y-55105681D02*
X78226409Y-55162824D01*
X78226409Y-55162824D02*
X78197837Y-55277110D01*
X78197837Y-55277110D02*
X78197837Y-55362824D01*
X78197837Y-55362824D02*
X78226409Y-55477110D01*
X78226409Y-55477110D02*
X78254980Y-55534253D01*
X78254980Y-55534253D02*
X78312123Y-55591396D01*
X78312123Y-55591396D02*
X78397837Y-55619967D01*
X78397837Y-55619967D02*
X78454980Y-55619967D01*
X78454980Y-55619967D02*
X78540694Y-55591396D01*
X78540694Y-55591396D02*
X78569266Y-55562824D01*
X78569266Y-55562824D02*
X78569266Y-55362824D01*
X78569266Y-55362824D02*
X78454980Y-55362824D01*
X78826409Y-55619967D02*
X78826409Y-55019967D01*
X78826409Y-55019967D02*
X79054980Y-55019967D01*
X79054980Y-55019967D02*
X79112123Y-55048538D01*
X79112123Y-55048538D02*
X79140694Y-55077110D01*
X79140694Y-55077110D02*
X79169266Y-55134253D01*
X79169266Y-55134253D02*
X79169266Y-55219967D01*
X79169266Y-55219967D02*
X79140694Y-55277110D01*
X79140694Y-55277110D02*
X79112123Y-55305681D01*
X79112123Y-55305681D02*
X79054980Y-55334253D01*
X79054980Y-55334253D02*
X78826409Y-55334253D01*
X79397837Y-55077110D02*
X79426409Y-55048538D01*
X79426409Y-55048538D02*
X79483552Y-55019967D01*
X79483552Y-55019967D02*
X79626409Y-55019967D01*
X79626409Y-55019967D02*
X79683552Y-55048538D01*
X79683552Y-55048538D02*
X79712123Y-55077110D01*
X79712123Y-55077110D02*
X79740694Y-55134253D01*
X79740694Y-55134253D02*
X79740694Y-55191396D01*
X79740694Y-55191396D02*
X79712123Y-55277110D01*
X79712123Y-55277110D02*
X79369266Y-55619967D01*
X79369266Y-55619967D02*
X79740694Y-55619967D01*
X80083552Y-55277110D02*
X80026409Y-55248538D01*
X80026409Y-55248538D02*
X79997838Y-55219967D01*
X79997838Y-55219967D02*
X79969266Y-55162824D01*
X79969266Y-55162824D02*
X79969266Y-55134253D01*
X79969266Y-55134253D02*
X79997838Y-55077110D01*
X79997838Y-55077110D02*
X80026409Y-55048538D01*
X80026409Y-55048538D02*
X80083552Y-55019967D01*
X80083552Y-55019967D02*
X80197838Y-55019967D01*
X80197838Y-55019967D02*
X80254981Y-55048538D01*
X80254981Y-55048538D02*
X80283552Y-55077110D01*
X80283552Y-55077110D02*
X80312123Y-55134253D01*
X80312123Y-55134253D02*
X80312123Y-55162824D01*
X80312123Y-55162824D02*
X80283552Y-55219967D01*
X80283552Y-55219967D02*
X80254981Y-55248538D01*
X80254981Y-55248538D02*
X80197838Y-55277110D01*
X80197838Y-55277110D02*
X80083552Y-55277110D01*
X80083552Y-55277110D02*
X80026409Y-55305681D01*
X80026409Y-55305681D02*
X79997838Y-55334253D01*
X79997838Y-55334253D02*
X79969266Y-55391396D01*
X79969266Y-55391396D02*
X79969266Y-55505681D01*
X79969266Y-55505681D02*
X79997838Y-55562824D01*
X79997838Y-55562824D02*
X80026409Y-55591396D01*
X80026409Y-55591396D02*
X80083552Y-55619967D01*
X80083552Y-55619967D02*
X80197838Y-55619967D01*
X80197838Y-55619967D02*
X80254981Y-55591396D01*
X80254981Y-55591396D02*
X80283552Y-55562824D01*
X80283552Y-55562824D02*
X80312123Y-55505681D01*
X80312123Y-55505681D02*
X80312123Y-55391396D01*
X80312123Y-55391396D02*
X80283552Y-55334253D01*
X80283552Y-55334253D02*
X80254981Y-55305681D01*
X80254981Y-55305681D02*
X80197838Y-55277110D01*
X80426410Y-55677110D02*
X80883552Y-55677110D01*
X80997838Y-55448538D02*
X81283553Y-55448538D01*
X80940695Y-55619967D02*
X81140695Y-55019967D01*
X81140695Y-55019967D02*
X81340695Y-55619967D01*
X81512124Y-55077110D02*
X81540696Y-55048538D01*
X81540696Y-55048538D02*
X81597839Y-55019967D01*
X81597839Y-55019967D02*
X81740696Y-55019967D01*
X81740696Y-55019967D02*
X81797839Y-55048538D01*
X81797839Y-55048538D02*
X81826410Y-55077110D01*
X81826410Y-55077110D02*
X81854981Y-55134253D01*
X81854981Y-55134253D02*
X81854981Y-55191396D01*
X81854981Y-55191396D02*
X81826410Y-55277110D01*
X81826410Y-55277110D02*
X81483553Y-55619967D01*
X81483553Y-55619967D02*
X81854981Y-55619967D01*
X39740694Y-80448538D02*
X39683552Y-80419967D01*
X39683552Y-80419967D02*
X39597837Y-80419967D01*
X39597837Y-80419967D02*
X39512123Y-80448538D01*
X39512123Y-80448538D02*
X39454980Y-80505681D01*
X39454980Y-80505681D02*
X39426409Y-80562824D01*
X39426409Y-80562824D02*
X39397837Y-80677110D01*
X39397837Y-80677110D02*
X39397837Y-80762824D01*
X39397837Y-80762824D02*
X39426409Y-80877110D01*
X39426409Y-80877110D02*
X39454980Y-80934253D01*
X39454980Y-80934253D02*
X39512123Y-80991396D01*
X39512123Y-80991396D02*
X39597837Y-81019967D01*
X39597837Y-81019967D02*
X39654980Y-81019967D01*
X39654980Y-81019967D02*
X39740694Y-80991396D01*
X39740694Y-80991396D02*
X39769266Y-80962824D01*
X39769266Y-80962824D02*
X39769266Y-80762824D01*
X39769266Y-80762824D02*
X39654980Y-80762824D01*
X40026409Y-81019967D02*
X40026409Y-80419967D01*
X40026409Y-80419967D02*
X40254980Y-80419967D01*
X40254980Y-80419967D02*
X40312123Y-80448538D01*
X40312123Y-80448538D02*
X40340694Y-80477110D01*
X40340694Y-80477110D02*
X40369266Y-80534253D01*
X40369266Y-80534253D02*
X40369266Y-80619967D01*
X40369266Y-80619967D02*
X40340694Y-80677110D01*
X40340694Y-80677110D02*
X40312123Y-80705681D01*
X40312123Y-80705681D02*
X40254980Y-80734253D01*
X40254980Y-80734253D02*
X40026409Y-80734253D01*
X40940694Y-81019967D02*
X40597837Y-81019967D01*
X40769266Y-81019967D02*
X40769266Y-80419967D01*
X40769266Y-80419967D02*
X40712123Y-80505681D01*
X40712123Y-80505681D02*
X40654980Y-80562824D01*
X40654980Y-80562824D02*
X40597837Y-80591396D01*
X41140695Y-80419967D02*
X41512123Y-80419967D01*
X41512123Y-80419967D02*
X41312123Y-80648538D01*
X41312123Y-80648538D02*
X41397838Y-80648538D01*
X41397838Y-80648538D02*
X41454981Y-80677110D01*
X41454981Y-80677110D02*
X41483552Y-80705681D01*
X41483552Y-80705681D02*
X41512123Y-80762824D01*
X41512123Y-80762824D02*
X41512123Y-80905681D01*
X41512123Y-80905681D02*
X41483552Y-80962824D01*
X41483552Y-80962824D02*
X41454981Y-80991396D01*
X41454981Y-80991396D02*
X41397838Y-81019967D01*
X41397838Y-81019967D02*
X41226409Y-81019967D01*
X41226409Y-81019967D02*
X41169266Y-80991396D01*
X41169266Y-80991396D02*
X41140695Y-80962824D01*
X78540694Y-85548538D02*
X78483552Y-85519967D01*
X78483552Y-85519967D02*
X78397837Y-85519967D01*
X78397837Y-85519967D02*
X78312123Y-85548538D01*
X78312123Y-85548538D02*
X78254980Y-85605681D01*
X78254980Y-85605681D02*
X78226409Y-85662824D01*
X78226409Y-85662824D02*
X78197837Y-85777110D01*
X78197837Y-85777110D02*
X78197837Y-85862824D01*
X78197837Y-85862824D02*
X78226409Y-85977110D01*
X78226409Y-85977110D02*
X78254980Y-86034253D01*
X78254980Y-86034253D02*
X78312123Y-86091396D01*
X78312123Y-86091396D02*
X78397837Y-86119967D01*
X78397837Y-86119967D02*
X78454980Y-86119967D01*
X78454980Y-86119967D02*
X78540694Y-86091396D01*
X78540694Y-86091396D02*
X78569266Y-86062824D01*
X78569266Y-86062824D02*
X78569266Y-85862824D01*
X78569266Y-85862824D02*
X78454980Y-85862824D01*
X78826409Y-86119967D02*
X78826409Y-85519967D01*
X78826409Y-85519967D02*
X79054980Y-85519967D01*
X79054980Y-85519967D02*
X79112123Y-85548538D01*
X79112123Y-85548538D02*
X79140694Y-85577110D01*
X79140694Y-85577110D02*
X79169266Y-85634253D01*
X79169266Y-85634253D02*
X79169266Y-85719967D01*
X79169266Y-85719967D02*
X79140694Y-85777110D01*
X79140694Y-85777110D02*
X79112123Y-85805681D01*
X79112123Y-85805681D02*
X79054980Y-85834253D01*
X79054980Y-85834253D02*
X78826409Y-85834253D01*
X79740694Y-86119967D02*
X79397837Y-86119967D01*
X79569266Y-86119967D02*
X79569266Y-85519967D01*
X79569266Y-85519967D02*
X79512123Y-85605681D01*
X79512123Y-85605681D02*
X79454980Y-85662824D01*
X79454980Y-85662824D02*
X79397837Y-85691396D01*
X79940695Y-85519967D02*
X80340695Y-85519967D01*
X80340695Y-85519967D02*
X80083552Y-86119967D01*
X40240694Y-55048538D02*
X40183552Y-55019967D01*
X40183552Y-55019967D02*
X40097837Y-55019967D01*
X40097837Y-55019967D02*
X40012123Y-55048538D01*
X40012123Y-55048538D02*
X39954980Y-55105681D01*
X39954980Y-55105681D02*
X39926409Y-55162824D01*
X39926409Y-55162824D02*
X39897837Y-55277110D01*
X39897837Y-55277110D02*
X39897837Y-55362824D01*
X39897837Y-55362824D02*
X39926409Y-55477110D01*
X39926409Y-55477110D02*
X39954980Y-55534253D01*
X39954980Y-55534253D02*
X40012123Y-55591396D01*
X40012123Y-55591396D02*
X40097837Y-55619967D01*
X40097837Y-55619967D02*
X40154980Y-55619967D01*
X40154980Y-55619967D02*
X40240694Y-55591396D01*
X40240694Y-55591396D02*
X40269266Y-55562824D01*
X40269266Y-55562824D02*
X40269266Y-55362824D01*
X40269266Y-55362824D02*
X40154980Y-55362824D01*
X40526409Y-55619967D02*
X40526409Y-55019967D01*
X40526409Y-55019967D02*
X40754980Y-55019967D01*
X40754980Y-55019967D02*
X40812123Y-55048538D01*
X40812123Y-55048538D02*
X40840694Y-55077110D01*
X40840694Y-55077110D02*
X40869266Y-55134253D01*
X40869266Y-55134253D02*
X40869266Y-55219967D01*
X40869266Y-55219967D02*
X40840694Y-55277110D01*
X40840694Y-55277110D02*
X40812123Y-55305681D01*
X40812123Y-55305681D02*
X40754980Y-55334253D01*
X40754980Y-55334253D02*
X40526409Y-55334253D01*
X41412123Y-55019967D02*
X41126409Y-55019967D01*
X41126409Y-55019967D02*
X41097837Y-55305681D01*
X41097837Y-55305681D02*
X41126409Y-55277110D01*
X41126409Y-55277110D02*
X41183552Y-55248538D01*
X41183552Y-55248538D02*
X41326409Y-55248538D01*
X41326409Y-55248538D02*
X41383552Y-55277110D01*
X41383552Y-55277110D02*
X41412123Y-55305681D01*
X41412123Y-55305681D02*
X41440694Y-55362824D01*
X41440694Y-55362824D02*
X41440694Y-55505681D01*
X41440694Y-55505681D02*
X41412123Y-55562824D01*
X41412123Y-55562824D02*
X41383552Y-55591396D01*
X41383552Y-55591396D02*
X41326409Y-55619967D01*
X41326409Y-55619967D02*
X41183552Y-55619967D01*
X41183552Y-55619967D02*
X41126409Y-55591396D01*
X41126409Y-55591396D02*
X41097837Y-55562824D01*
X78540694Y-67748538D02*
X78483552Y-67719967D01*
X78483552Y-67719967D02*
X78397837Y-67719967D01*
X78397837Y-67719967D02*
X78312123Y-67748538D01*
X78312123Y-67748538D02*
X78254980Y-67805681D01*
X78254980Y-67805681D02*
X78226409Y-67862824D01*
X78226409Y-67862824D02*
X78197837Y-67977110D01*
X78197837Y-67977110D02*
X78197837Y-68062824D01*
X78197837Y-68062824D02*
X78226409Y-68177110D01*
X78226409Y-68177110D02*
X78254980Y-68234253D01*
X78254980Y-68234253D02*
X78312123Y-68291396D01*
X78312123Y-68291396D02*
X78397837Y-68319967D01*
X78397837Y-68319967D02*
X78454980Y-68319967D01*
X78454980Y-68319967D02*
X78540694Y-68291396D01*
X78540694Y-68291396D02*
X78569266Y-68262824D01*
X78569266Y-68262824D02*
X78569266Y-68062824D01*
X78569266Y-68062824D02*
X78454980Y-68062824D01*
X78826409Y-68319967D02*
X78826409Y-67719967D01*
X78826409Y-67719967D02*
X79054980Y-67719967D01*
X79054980Y-67719967D02*
X79112123Y-67748538D01*
X79112123Y-67748538D02*
X79140694Y-67777110D01*
X79140694Y-67777110D02*
X79169266Y-67834253D01*
X79169266Y-67834253D02*
X79169266Y-67919967D01*
X79169266Y-67919967D02*
X79140694Y-67977110D01*
X79140694Y-67977110D02*
X79112123Y-68005681D01*
X79112123Y-68005681D02*
X79054980Y-68034253D01*
X79054980Y-68034253D02*
X78826409Y-68034253D01*
X79397837Y-67777110D02*
X79426409Y-67748538D01*
X79426409Y-67748538D02*
X79483552Y-67719967D01*
X79483552Y-67719967D02*
X79626409Y-67719967D01*
X79626409Y-67719967D02*
X79683552Y-67748538D01*
X79683552Y-67748538D02*
X79712123Y-67777110D01*
X79712123Y-67777110D02*
X79740694Y-67834253D01*
X79740694Y-67834253D02*
X79740694Y-67891396D01*
X79740694Y-67891396D02*
X79712123Y-67977110D01*
X79712123Y-67977110D02*
X79369266Y-68319967D01*
X79369266Y-68319967D02*
X79740694Y-68319967D01*
X79969266Y-67777110D02*
X79997838Y-67748538D01*
X79997838Y-67748538D02*
X80054981Y-67719967D01*
X80054981Y-67719967D02*
X80197838Y-67719967D01*
X80197838Y-67719967D02*
X80254981Y-67748538D01*
X80254981Y-67748538D02*
X80283552Y-67777110D01*
X80283552Y-67777110D02*
X80312123Y-67834253D01*
X80312123Y-67834253D02*
X80312123Y-67891396D01*
X80312123Y-67891396D02*
X80283552Y-67977110D01*
X80283552Y-67977110D02*
X79940695Y-68319967D01*
X79940695Y-68319967D02*
X80312123Y-68319967D01*
X39740694Y-77948538D02*
X39683552Y-77919967D01*
X39683552Y-77919967D02*
X39597837Y-77919967D01*
X39597837Y-77919967D02*
X39512123Y-77948538D01*
X39512123Y-77948538D02*
X39454980Y-78005681D01*
X39454980Y-78005681D02*
X39426409Y-78062824D01*
X39426409Y-78062824D02*
X39397837Y-78177110D01*
X39397837Y-78177110D02*
X39397837Y-78262824D01*
X39397837Y-78262824D02*
X39426409Y-78377110D01*
X39426409Y-78377110D02*
X39454980Y-78434253D01*
X39454980Y-78434253D02*
X39512123Y-78491396D01*
X39512123Y-78491396D02*
X39597837Y-78519967D01*
X39597837Y-78519967D02*
X39654980Y-78519967D01*
X39654980Y-78519967D02*
X39740694Y-78491396D01*
X39740694Y-78491396D02*
X39769266Y-78462824D01*
X39769266Y-78462824D02*
X39769266Y-78262824D01*
X39769266Y-78262824D02*
X39654980Y-78262824D01*
X40026409Y-78519967D02*
X40026409Y-77919967D01*
X40026409Y-77919967D02*
X40254980Y-77919967D01*
X40254980Y-77919967D02*
X40312123Y-77948538D01*
X40312123Y-77948538D02*
X40340694Y-77977110D01*
X40340694Y-77977110D02*
X40369266Y-78034253D01*
X40369266Y-78034253D02*
X40369266Y-78119967D01*
X40369266Y-78119967D02*
X40340694Y-78177110D01*
X40340694Y-78177110D02*
X40312123Y-78205681D01*
X40312123Y-78205681D02*
X40254980Y-78234253D01*
X40254980Y-78234253D02*
X40026409Y-78234253D01*
X40940694Y-78519967D02*
X40597837Y-78519967D01*
X40769266Y-78519967D02*
X40769266Y-77919967D01*
X40769266Y-77919967D02*
X40712123Y-78005681D01*
X40712123Y-78005681D02*
X40654980Y-78062824D01*
X40654980Y-78062824D02*
X40597837Y-78091396D01*
X41169266Y-77977110D02*
X41197838Y-77948538D01*
X41197838Y-77948538D02*
X41254981Y-77919967D01*
X41254981Y-77919967D02*
X41397838Y-77919967D01*
X41397838Y-77919967D02*
X41454981Y-77948538D01*
X41454981Y-77948538D02*
X41483552Y-77977110D01*
X41483552Y-77977110D02*
X41512123Y-78034253D01*
X41512123Y-78034253D02*
X41512123Y-78091396D01*
X41512123Y-78091396D02*
X41483552Y-78177110D01*
X41483552Y-78177110D02*
X41140695Y-78519967D01*
X41140695Y-78519967D02*
X41512123Y-78519967D01*
X57491396Y-92902162D02*
X57519967Y-92816448D01*
X57519967Y-92816448D02*
X57519967Y-92673590D01*
X57519967Y-92673590D02*
X57491396Y-92616448D01*
X57491396Y-92616448D02*
X57462824Y-92587876D01*
X57462824Y-92587876D02*
X57405681Y-92559305D01*
X57405681Y-92559305D02*
X57348538Y-92559305D01*
X57348538Y-92559305D02*
X57291396Y-92587876D01*
X57291396Y-92587876D02*
X57262824Y-92616448D01*
X57262824Y-92616448D02*
X57234253Y-92673590D01*
X57234253Y-92673590D02*
X57205681Y-92787876D01*
X57205681Y-92787876D02*
X57177110Y-92845019D01*
X57177110Y-92845019D02*
X57148538Y-92873590D01*
X57148538Y-92873590D02*
X57091396Y-92902162D01*
X57091396Y-92902162D02*
X57034253Y-92902162D01*
X57034253Y-92902162D02*
X56977110Y-92873590D01*
X56977110Y-92873590D02*
X56948538Y-92845019D01*
X56948538Y-92845019D02*
X56919967Y-92787876D01*
X56919967Y-92787876D02*
X56919967Y-92645019D01*
X56919967Y-92645019D02*
X56948538Y-92559305D01*
X56919967Y-92359304D02*
X57519967Y-92216447D01*
X57519967Y-92216447D02*
X57091396Y-92102161D01*
X57091396Y-92102161D02*
X57519967Y-91987876D01*
X57519967Y-91987876D02*
X56919967Y-91845019D01*
X57462824Y-91273590D02*
X57491396Y-91302162D01*
X57491396Y-91302162D02*
X57519967Y-91387876D01*
X57519967Y-91387876D02*
X57519967Y-91445019D01*
X57519967Y-91445019D02*
X57491396Y-91530733D01*
X57491396Y-91530733D02*
X57434253Y-91587876D01*
X57434253Y-91587876D02*
X57377110Y-91616447D01*
X57377110Y-91616447D02*
X57262824Y-91645019D01*
X57262824Y-91645019D02*
X57177110Y-91645019D01*
X57177110Y-91645019D02*
X57062824Y-91616447D01*
X57062824Y-91616447D02*
X57005681Y-91587876D01*
X57005681Y-91587876D02*
X56948538Y-91530733D01*
X56948538Y-91530733D02*
X56919967Y-91445019D01*
X56919967Y-91445019D02*
X56919967Y-91387876D01*
X56919967Y-91387876D02*
X56948538Y-91302162D01*
X56948538Y-91302162D02*
X56977110Y-91273590D01*
X57519967Y-90730733D02*
X57519967Y-91016447D01*
X57519967Y-91016447D02*
X56919967Y-91016447D01*
X57519967Y-90530733D02*
X56919967Y-90530733D01*
X57519967Y-90187876D02*
X57177110Y-90445019D01*
X56919967Y-90187876D02*
X57262824Y-90530733D01*
X78540694Y-57548538D02*
X78483552Y-57519967D01*
X78483552Y-57519967D02*
X78397837Y-57519967D01*
X78397837Y-57519967D02*
X78312123Y-57548538D01*
X78312123Y-57548538D02*
X78254980Y-57605681D01*
X78254980Y-57605681D02*
X78226409Y-57662824D01*
X78226409Y-57662824D02*
X78197837Y-57777110D01*
X78197837Y-57777110D02*
X78197837Y-57862824D01*
X78197837Y-57862824D02*
X78226409Y-57977110D01*
X78226409Y-57977110D02*
X78254980Y-58034253D01*
X78254980Y-58034253D02*
X78312123Y-58091396D01*
X78312123Y-58091396D02*
X78397837Y-58119967D01*
X78397837Y-58119967D02*
X78454980Y-58119967D01*
X78454980Y-58119967D02*
X78540694Y-58091396D01*
X78540694Y-58091396D02*
X78569266Y-58062824D01*
X78569266Y-58062824D02*
X78569266Y-57862824D01*
X78569266Y-57862824D02*
X78454980Y-57862824D01*
X78826409Y-58119967D02*
X78826409Y-57519967D01*
X78826409Y-57519967D02*
X79169266Y-58119967D01*
X79169266Y-58119967D02*
X79169266Y-57519967D01*
X79454980Y-58119967D02*
X79454980Y-57519967D01*
X79454980Y-57519967D02*
X79597837Y-57519967D01*
X79597837Y-57519967D02*
X79683551Y-57548538D01*
X79683551Y-57548538D02*
X79740694Y-57605681D01*
X79740694Y-57605681D02*
X79769265Y-57662824D01*
X79769265Y-57662824D02*
X79797837Y-57777110D01*
X79797837Y-57777110D02*
X79797837Y-57862824D01*
X79797837Y-57862824D02*
X79769265Y-57977110D01*
X79769265Y-57977110D02*
X79740694Y-58034253D01*
X79740694Y-58034253D02*
X79683551Y-58091396D01*
X79683551Y-58091396D02*
X79597837Y-58119967D01*
X79597837Y-58119967D02*
X79454980Y-58119967D01*
X78140694Y-43119967D02*
X78340694Y-43719967D01*
X78340694Y-43719967D02*
X78540694Y-43119967D01*
X78712123Y-43691396D02*
X78797838Y-43719967D01*
X78797838Y-43719967D02*
X78940695Y-43719967D01*
X78940695Y-43719967D02*
X78997838Y-43691396D01*
X78997838Y-43691396D02*
X79026409Y-43662824D01*
X79026409Y-43662824D02*
X79054980Y-43605681D01*
X79054980Y-43605681D02*
X79054980Y-43548538D01*
X79054980Y-43548538D02*
X79026409Y-43491396D01*
X79026409Y-43491396D02*
X78997838Y-43462824D01*
X78997838Y-43462824D02*
X78940695Y-43434253D01*
X78940695Y-43434253D02*
X78826409Y-43405681D01*
X78826409Y-43405681D02*
X78769266Y-43377110D01*
X78769266Y-43377110D02*
X78740695Y-43348538D01*
X78740695Y-43348538D02*
X78712123Y-43291396D01*
X78712123Y-43291396D02*
X78712123Y-43234253D01*
X78712123Y-43234253D02*
X78740695Y-43177110D01*
X78740695Y-43177110D02*
X78769266Y-43148538D01*
X78769266Y-43148538D02*
X78826409Y-43119967D01*
X78826409Y-43119967D02*
X78969266Y-43119967D01*
X78969266Y-43119967D02*
X79054980Y-43148538D01*
X79426409Y-43434253D02*
X79426409Y-43719967D01*
X79226409Y-43119967D02*
X79426409Y-43434253D01*
X79426409Y-43434253D02*
X79626409Y-43119967D01*
X79797838Y-43691396D02*
X79883553Y-43719967D01*
X79883553Y-43719967D02*
X80026410Y-43719967D01*
X80026410Y-43719967D02*
X80083553Y-43691396D01*
X80083553Y-43691396D02*
X80112124Y-43662824D01*
X80112124Y-43662824D02*
X80140695Y-43605681D01*
X80140695Y-43605681D02*
X80140695Y-43548538D01*
X80140695Y-43548538D02*
X80112124Y-43491396D01*
X80112124Y-43491396D02*
X80083553Y-43462824D01*
X80083553Y-43462824D02*
X80026410Y-43434253D01*
X80026410Y-43434253D02*
X79912124Y-43405681D01*
X79912124Y-43405681D02*
X79854981Y-43377110D01*
X79854981Y-43377110D02*
X79826410Y-43348538D01*
X79826410Y-43348538D02*
X79797838Y-43291396D01*
X79797838Y-43291396D02*
X79797838Y-43234253D01*
X79797838Y-43234253D02*
X79826410Y-43177110D01*
X79826410Y-43177110D02*
X79854981Y-43148538D01*
X79854981Y-43148538D02*
X79912124Y-43119967D01*
X79912124Y-43119967D02*
X80054981Y-43119967D01*
X80054981Y-43119967D02*
X80140695Y-43148538D01*
X78540694Y-82948538D02*
X78483552Y-82919967D01*
X78483552Y-82919967D02*
X78397837Y-82919967D01*
X78397837Y-82919967D02*
X78312123Y-82948538D01*
X78312123Y-82948538D02*
X78254980Y-83005681D01*
X78254980Y-83005681D02*
X78226409Y-83062824D01*
X78226409Y-83062824D02*
X78197837Y-83177110D01*
X78197837Y-83177110D02*
X78197837Y-83262824D01*
X78197837Y-83262824D02*
X78226409Y-83377110D01*
X78226409Y-83377110D02*
X78254980Y-83434253D01*
X78254980Y-83434253D02*
X78312123Y-83491396D01*
X78312123Y-83491396D02*
X78397837Y-83519967D01*
X78397837Y-83519967D02*
X78454980Y-83519967D01*
X78454980Y-83519967D02*
X78540694Y-83491396D01*
X78540694Y-83491396D02*
X78569266Y-83462824D01*
X78569266Y-83462824D02*
X78569266Y-83262824D01*
X78569266Y-83262824D02*
X78454980Y-83262824D01*
X78826409Y-83519967D02*
X78826409Y-82919967D01*
X78826409Y-82919967D02*
X79169266Y-83519967D01*
X79169266Y-83519967D02*
X79169266Y-82919967D01*
X79454980Y-83519967D02*
X79454980Y-82919967D01*
X79454980Y-82919967D02*
X79597837Y-82919967D01*
X79597837Y-82919967D02*
X79683551Y-82948538D01*
X79683551Y-82948538D02*
X79740694Y-83005681D01*
X79740694Y-83005681D02*
X79769265Y-83062824D01*
X79769265Y-83062824D02*
X79797837Y-83177110D01*
X79797837Y-83177110D02*
X79797837Y-83262824D01*
X79797837Y-83262824D02*
X79769265Y-83377110D01*
X79769265Y-83377110D02*
X79740694Y-83434253D01*
X79740694Y-83434253D02*
X79683551Y-83491396D01*
X79683551Y-83491396D02*
X79597837Y-83519967D01*
X79597837Y-83519967D02*
X79454980Y-83519967D01*
X40240694Y-57648538D02*
X40183552Y-57619967D01*
X40183552Y-57619967D02*
X40097837Y-57619967D01*
X40097837Y-57619967D02*
X40012123Y-57648538D01*
X40012123Y-57648538D02*
X39954980Y-57705681D01*
X39954980Y-57705681D02*
X39926409Y-57762824D01*
X39926409Y-57762824D02*
X39897837Y-57877110D01*
X39897837Y-57877110D02*
X39897837Y-57962824D01*
X39897837Y-57962824D02*
X39926409Y-58077110D01*
X39926409Y-58077110D02*
X39954980Y-58134253D01*
X39954980Y-58134253D02*
X40012123Y-58191396D01*
X40012123Y-58191396D02*
X40097837Y-58219967D01*
X40097837Y-58219967D02*
X40154980Y-58219967D01*
X40154980Y-58219967D02*
X40240694Y-58191396D01*
X40240694Y-58191396D02*
X40269266Y-58162824D01*
X40269266Y-58162824D02*
X40269266Y-57962824D01*
X40269266Y-57962824D02*
X40154980Y-57962824D01*
X40526409Y-58219967D02*
X40526409Y-57619967D01*
X40526409Y-57619967D02*
X40869266Y-58219967D01*
X40869266Y-58219967D02*
X40869266Y-57619967D01*
X41154980Y-58219967D02*
X41154980Y-57619967D01*
X41154980Y-57619967D02*
X41297837Y-57619967D01*
X41297837Y-57619967D02*
X41383551Y-57648538D01*
X41383551Y-57648538D02*
X41440694Y-57705681D01*
X41440694Y-57705681D02*
X41469265Y-57762824D01*
X41469265Y-57762824D02*
X41497837Y-57877110D01*
X41497837Y-57877110D02*
X41497837Y-57962824D01*
X41497837Y-57962824D02*
X41469265Y-58077110D01*
X41469265Y-58077110D02*
X41440694Y-58134253D01*
X41440694Y-58134253D02*
X41383551Y-58191396D01*
X41383551Y-58191396D02*
X41297837Y-58219967D01*
X41297837Y-58219967D02*
X41154980Y-58219967D01*
X40240694Y-82948538D02*
X40183552Y-82919967D01*
X40183552Y-82919967D02*
X40097837Y-82919967D01*
X40097837Y-82919967D02*
X40012123Y-82948538D01*
X40012123Y-82948538D02*
X39954980Y-83005681D01*
X39954980Y-83005681D02*
X39926409Y-83062824D01*
X39926409Y-83062824D02*
X39897837Y-83177110D01*
X39897837Y-83177110D02*
X39897837Y-83262824D01*
X39897837Y-83262824D02*
X39926409Y-83377110D01*
X39926409Y-83377110D02*
X39954980Y-83434253D01*
X39954980Y-83434253D02*
X40012123Y-83491396D01*
X40012123Y-83491396D02*
X40097837Y-83519967D01*
X40097837Y-83519967D02*
X40154980Y-83519967D01*
X40154980Y-83519967D02*
X40240694Y-83491396D01*
X40240694Y-83491396D02*
X40269266Y-83462824D01*
X40269266Y-83462824D02*
X40269266Y-83262824D01*
X40269266Y-83262824D02*
X40154980Y-83262824D01*
X40526409Y-83519967D02*
X40526409Y-82919967D01*
X40526409Y-82919967D02*
X40869266Y-83519967D01*
X40869266Y-83519967D02*
X40869266Y-82919967D01*
X41154980Y-83519967D02*
X41154980Y-82919967D01*
X41154980Y-82919967D02*
X41297837Y-82919967D01*
X41297837Y-82919967D02*
X41383551Y-82948538D01*
X41383551Y-82948538D02*
X41440694Y-83005681D01*
X41440694Y-83005681D02*
X41469265Y-83062824D01*
X41469265Y-83062824D02*
X41497837Y-83177110D01*
X41497837Y-83177110D02*
X41497837Y-83262824D01*
X41497837Y-83262824D02*
X41469265Y-83377110D01*
X41469265Y-83377110D02*
X41440694Y-83434253D01*
X41440694Y-83434253D02*
X41383551Y-83491396D01*
X41383551Y-83491396D02*
X41297837Y-83519967D01*
X41297837Y-83519967D02*
X41154980Y-83519967D01*
X39740694Y-88048538D02*
X39683552Y-88019967D01*
X39683552Y-88019967D02*
X39597837Y-88019967D01*
X39597837Y-88019967D02*
X39512123Y-88048538D01*
X39512123Y-88048538D02*
X39454980Y-88105681D01*
X39454980Y-88105681D02*
X39426409Y-88162824D01*
X39426409Y-88162824D02*
X39397837Y-88277110D01*
X39397837Y-88277110D02*
X39397837Y-88362824D01*
X39397837Y-88362824D02*
X39426409Y-88477110D01*
X39426409Y-88477110D02*
X39454980Y-88534253D01*
X39454980Y-88534253D02*
X39512123Y-88591396D01*
X39512123Y-88591396D02*
X39597837Y-88619967D01*
X39597837Y-88619967D02*
X39654980Y-88619967D01*
X39654980Y-88619967D02*
X39740694Y-88591396D01*
X39740694Y-88591396D02*
X39769266Y-88562824D01*
X39769266Y-88562824D02*
X39769266Y-88362824D01*
X39769266Y-88362824D02*
X39654980Y-88362824D01*
X40026409Y-88619967D02*
X40026409Y-88019967D01*
X40026409Y-88019967D02*
X40254980Y-88019967D01*
X40254980Y-88019967D02*
X40312123Y-88048538D01*
X40312123Y-88048538D02*
X40340694Y-88077110D01*
X40340694Y-88077110D02*
X40369266Y-88134253D01*
X40369266Y-88134253D02*
X40369266Y-88219967D01*
X40369266Y-88219967D02*
X40340694Y-88277110D01*
X40340694Y-88277110D02*
X40312123Y-88305681D01*
X40312123Y-88305681D02*
X40254980Y-88334253D01*
X40254980Y-88334253D02*
X40026409Y-88334253D01*
X40940694Y-88619967D02*
X40597837Y-88619967D01*
X40769266Y-88619967D02*
X40769266Y-88019967D01*
X40769266Y-88019967D02*
X40712123Y-88105681D01*
X40712123Y-88105681D02*
X40654980Y-88162824D01*
X40654980Y-88162824D02*
X40597837Y-88191396D01*
X41483552Y-88019967D02*
X41197838Y-88019967D01*
X41197838Y-88019967D02*
X41169266Y-88305681D01*
X41169266Y-88305681D02*
X41197838Y-88277110D01*
X41197838Y-88277110D02*
X41254981Y-88248538D01*
X41254981Y-88248538D02*
X41397838Y-88248538D01*
X41397838Y-88248538D02*
X41454981Y-88277110D01*
X41454981Y-88277110D02*
X41483552Y-88305681D01*
X41483552Y-88305681D02*
X41512123Y-88362824D01*
X41512123Y-88362824D02*
X41512123Y-88505681D01*
X41512123Y-88505681D02*
X41483552Y-88562824D01*
X41483552Y-88562824D02*
X41454981Y-88591396D01*
X41454981Y-88591396D02*
X41397838Y-88619967D01*
X41397838Y-88619967D02*
X41254981Y-88619967D01*
X41254981Y-88619967D02*
X41197838Y-88591396D01*
X41197838Y-88591396D02*
X41169266Y-88562824D01*
X40240694Y-44948538D02*
X40183552Y-44919967D01*
X40183552Y-44919967D02*
X40097837Y-44919967D01*
X40097837Y-44919967D02*
X40012123Y-44948538D01*
X40012123Y-44948538D02*
X39954980Y-45005681D01*
X39954980Y-45005681D02*
X39926409Y-45062824D01*
X39926409Y-45062824D02*
X39897837Y-45177110D01*
X39897837Y-45177110D02*
X39897837Y-45262824D01*
X39897837Y-45262824D02*
X39926409Y-45377110D01*
X39926409Y-45377110D02*
X39954980Y-45434253D01*
X39954980Y-45434253D02*
X40012123Y-45491396D01*
X40012123Y-45491396D02*
X40097837Y-45519967D01*
X40097837Y-45519967D02*
X40154980Y-45519967D01*
X40154980Y-45519967D02*
X40240694Y-45491396D01*
X40240694Y-45491396D02*
X40269266Y-45462824D01*
X40269266Y-45462824D02*
X40269266Y-45262824D01*
X40269266Y-45262824D02*
X40154980Y-45262824D01*
X40526409Y-45519967D02*
X40526409Y-44919967D01*
X40526409Y-44919967D02*
X40869266Y-45519967D01*
X40869266Y-45519967D02*
X40869266Y-44919967D01*
X41154980Y-45519967D02*
X41154980Y-44919967D01*
X41154980Y-44919967D02*
X41297837Y-44919967D01*
X41297837Y-44919967D02*
X41383551Y-44948538D01*
X41383551Y-44948538D02*
X41440694Y-45005681D01*
X41440694Y-45005681D02*
X41469265Y-45062824D01*
X41469265Y-45062824D02*
X41497837Y-45177110D01*
X41497837Y-45177110D02*
X41497837Y-45262824D01*
X41497837Y-45262824D02*
X41469265Y-45377110D01*
X41469265Y-45377110D02*
X41440694Y-45434253D01*
X41440694Y-45434253D02*
X41383551Y-45491396D01*
X41383551Y-45491396D02*
X41297837Y-45519967D01*
X41297837Y-45519967D02*
X41154980Y-45519967D01*
X78169266Y-47419967D02*
X78540694Y-47419967D01*
X78540694Y-47419967D02*
X78340694Y-47648538D01*
X78340694Y-47648538D02*
X78426409Y-47648538D01*
X78426409Y-47648538D02*
X78483552Y-47677110D01*
X78483552Y-47677110D02*
X78512123Y-47705681D01*
X78512123Y-47705681D02*
X78540694Y-47762824D01*
X78540694Y-47762824D02*
X78540694Y-47905681D01*
X78540694Y-47905681D02*
X78512123Y-47962824D01*
X78512123Y-47962824D02*
X78483552Y-47991396D01*
X78483552Y-47991396D02*
X78426409Y-48019967D01*
X78426409Y-48019967D02*
X78254980Y-48019967D01*
X78254980Y-48019967D02*
X78197837Y-47991396D01*
X78197837Y-47991396D02*
X78169266Y-47962824D01*
X78712123Y-47419967D02*
X78912123Y-48019967D01*
X78912123Y-48019967D02*
X79112123Y-47419967D01*
X79254981Y-47419967D02*
X79626409Y-47419967D01*
X79626409Y-47419967D02*
X79426409Y-47648538D01*
X79426409Y-47648538D02*
X79512124Y-47648538D01*
X79512124Y-47648538D02*
X79569267Y-47677110D01*
X79569267Y-47677110D02*
X79597838Y-47705681D01*
X79597838Y-47705681D02*
X79626409Y-47762824D01*
X79626409Y-47762824D02*
X79626409Y-47905681D01*
X79626409Y-47905681D02*
X79597838Y-47962824D01*
X79597838Y-47962824D02*
X79569267Y-47991396D01*
X79569267Y-47991396D02*
X79512124Y-48019967D01*
X79512124Y-48019967D02*
X79340695Y-48019967D01*
X79340695Y-48019967D02*
X79283552Y-47991396D01*
X79283552Y-47991396D02*
X79254981Y-47962824D01*
X79740696Y-48077110D02*
X80197838Y-48077110D01*
X80340696Y-47705681D02*
X80540696Y-47705681D01*
X80626410Y-48019967D02*
X80340696Y-48019967D01*
X80340696Y-48019967D02*
X80340696Y-47419967D01*
X80340696Y-47419967D02*
X80626410Y-47419967D01*
X80883553Y-48019967D02*
X80883553Y-47419967D01*
X80883553Y-47419967D02*
X81226410Y-48019967D01*
X81226410Y-48019967D02*
X81226410Y-47419967D01*
X78569266Y-65819967D02*
X78369266Y-65534253D01*
X78226409Y-65819967D02*
X78226409Y-65219967D01*
X78226409Y-65219967D02*
X78454980Y-65219967D01*
X78454980Y-65219967D02*
X78512123Y-65248538D01*
X78512123Y-65248538D02*
X78540694Y-65277110D01*
X78540694Y-65277110D02*
X78569266Y-65334253D01*
X78569266Y-65334253D02*
X78569266Y-65419967D01*
X78569266Y-65419967D02*
X78540694Y-65477110D01*
X78540694Y-65477110D02*
X78512123Y-65505681D01*
X78512123Y-65505681D02*
X78454980Y-65534253D01*
X78454980Y-65534253D02*
X78226409Y-65534253D01*
X78826409Y-65219967D02*
X78826409Y-65705681D01*
X78826409Y-65705681D02*
X78854980Y-65762824D01*
X78854980Y-65762824D02*
X78883552Y-65791396D01*
X78883552Y-65791396D02*
X78940694Y-65819967D01*
X78940694Y-65819967D02*
X79054980Y-65819967D01*
X79054980Y-65819967D02*
X79112123Y-65791396D01*
X79112123Y-65791396D02*
X79140694Y-65762824D01*
X79140694Y-65762824D02*
X79169266Y-65705681D01*
X79169266Y-65705681D02*
X79169266Y-65219967D01*
X79454980Y-65819967D02*
X79454980Y-65219967D01*
X79454980Y-65219967D02*
X79797837Y-65819967D01*
X79797837Y-65819967D02*
X79797837Y-65219967D01*
X78540694Y-88048538D02*
X78483552Y-88019967D01*
X78483552Y-88019967D02*
X78397837Y-88019967D01*
X78397837Y-88019967D02*
X78312123Y-88048538D01*
X78312123Y-88048538D02*
X78254980Y-88105681D01*
X78254980Y-88105681D02*
X78226409Y-88162824D01*
X78226409Y-88162824D02*
X78197837Y-88277110D01*
X78197837Y-88277110D02*
X78197837Y-88362824D01*
X78197837Y-88362824D02*
X78226409Y-88477110D01*
X78226409Y-88477110D02*
X78254980Y-88534253D01*
X78254980Y-88534253D02*
X78312123Y-88591396D01*
X78312123Y-88591396D02*
X78397837Y-88619967D01*
X78397837Y-88619967D02*
X78454980Y-88619967D01*
X78454980Y-88619967D02*
X78540694Y-88591396D01*
X78540694Y-88591396D02*
X78569266Y-88562824D01*
X78569266Y-88562824D02*
X78569266Y-88362824D01*
X78569266Y-88362824D02*
X78454980Y-88362824D01*
X78826409Y-88619967D02*
X78826409Y-88019967D01*
X78826409Y-88019967D02*
X79054980Y-88019967D01*
X79054980Y-88019967D02*
X79112123Y-88048538D01*
X79112123Y-88048538D02*
X79140694Y-88077110D01*
X79140694Y-88077110D02*
X79169266Y-88134253D01*
X79169266Y-88134253D02*
X79169266Y-88219967D01*
X79169266Y-88219967D02*
X79140694Y-88277110D01*
X79140694Y-88277110D02*
X79112123Y-88305681D01*
X79112123Y-88305681D02*
X79054980Y-88334253D01*
X79054980Y-88334253D02*
X78826409Y-88334253D01*
X79740694Y-88619967D02*
X79397837Y-88619967D01*
X79569266Y-88619967D02*
X79569266Y-88019967D01*
X79569266Y-88019967D02*
X79512123Y-88105681D01*
X79512123Y-88105681D02*
X79454980Y-88162824D01*
X79454980Y-88162824D02*
X79397837Y-88191396D01*
X80254981Y-88019967D02*
X80140695Y-88019967D01*
X80140695Y-88019967D02*
X80083552Y-88048538D01*
X80083552Y-88048538D02*
X80054981Y-88077110D01*
X80054981Y-88077110D02*
X79997838Y-88162824D01*
X79997838Y-88162824D02*
X79969266Y-88277110D01*
X79969266Y-88277110D02*
X79969266Y-88505681D01*
X79969266Y-88505681D02*
X79997838Y-88562824D01*
X79997838Y-88562824D02*
X80026409Y-88591396D01*
X80026409Y-88591396D02*
X80083552Y-88619967D01*
X80083552Y-88619967D02*
X80197838Y-88619967D01*
X80197838Y-88619967D02*
X80254981Y-88591396D01*
X80254981Y-88591396D02*
X80283552Y-88562824D01*
X80283552Y-88562824D02*
X80312123Y-88505681D01*
X80312123Y-88505681D02*
X80312123Y-88362824D01*
X80312123Y-88362824D02*
X80283552Y-88305681D01*
X80283552Y-88305681D02*
X80254981Y-88277110D01*
X80254981Y-88277110D02*
X80197838Y-88248538D01*
X80197838Y-88248538D02*
X80083552Y-88248538D01*
X80083552Y-88248538D02*
X80026409Y-88277110D01*
X80026409Y-88277110D02*
X79997838Y-88305681D01*
X79997838Y-88305681D02*
X79969266Y-88362824D01*
X55395491Y-96425971D02*
X54595491Y-96425971D01*
X54595491Y-96425971D02*
X54595491Y-96235495D01*
X54595491Y-96235495D02*
X54633586Y-96121209D01*
X54633586Y-96121209D02*
X54709776Y-96045019D01*
X54709776Y-96045019D02*
X54785967Y-96006924D01*
X54785967Y-96006924D02*
X54938348Y-95968828D01*
X54938348Y-95968828D02*
X55052634Y-95968828D01*
X55052634Y-95968828D02*
X55205015Y-96006924D01*
X55205015Y-96006924D02*
X55281205Y-96045019D01*
X55281205Y-96045019D02*
X55357396Y-96121209D01*
X55357396Y-96121209D02*
X55395491Y-96235495D01*
X55395491Y-96235495D02*
X55395491Y-96425971D01*
X54976443Y-95625971D02*
X54976443Y-95359305D01*
X55395491Y-95245019D02*
X55395491Y-95625971D01*
X55395491Y-95625971D02*
X54595491Y-95625971D01*
X54595491Y-95625971D02*
X54595491Y-95245019D01*
X54976443Y-94635495D02*
X55014538Y-94521209D01*
X55014538Y-94521209D02*
X55052634Y-94483114D01*
X55052634Y-94483114D02*
X55128824Y-94445018D01*
X55128824Y-94445018D02*
X55243110Y-94445018D01*
X55243110Y-94445018D02*
X55319300Y-94483114D01*
X55319300Y-94483114D02*
X55357396Y-94521209D01*
X55357396Y-94521209D02*
X55395491Y-94597399D01*
X55395491Y-94597399D02*
X55395491Y-94902161D01*
X55395491Y-94902161D02*
X54595491Y-94902161D01*
X54595491Y-94902161D02*
X54595491Y-94635495D01*
X54595491Y-94635495D02*
X54633586Y-94559304D01*
X54633586Y-94559304D02*
X54671681Y-94521209D01*
X54671681Y-94521209D02*
X54747872Y-94483114D01*
X54747872Y-94483114D02*
X54824062Y-94483114D01*
X54824062Y-94483114D02*
X54900253Y-94521209D01*
X54900253Y-94521209D02*
X54938348Y-94559304D01*
X54938348Y-94559304D02*
X54976443Y-94635495D01*
X54976443Y-94635495D02*
X54976443Y-94902161D01*
X54595491Y-94102161D02*
X55243110Y-94102161D01*
X55243110Y-94102161D02*
X55319300Y-94064066D01*
X55319300Y-94064066D02*
X55357396Y-94025971D01*
X55357396Y-94025971D02*
X55395491Y-93949780D01*
X55395491Y-93949780D02*
X55395491Y-93797399D01*
X55395491Y-93797399D02*
X55357396Y-93721209D01*
X55357396Y-93721209D02*
X55319300Y-93683114D01*
X55319300Y-93683114D02*
X55243110Y-93645018D01*
X55243110Y-93645018D02*
X54595491Y-93645018D01*
X54633586Y-92845019D02*
X54595491Y-92921209D01*
X54595491Y-92921209D02*
X54595491Y-93035495D01*
X54595491Y-93035495D02*
X54633586Y-93149781D01*
X54633586Y-93149781D02*
X54709776Y-93225971D01*
X54709776Y-93225971D02*
X54785967Y-93264066D01*
X54785967Y-93264066D02*
X54938348Y-93302162D01*
X54938348Y-93302162D02*
X55052634Y-93302162D01*
X55052634Y-93302162D02*
X55205015Y-93264066D01*
X55205015Y-93264066D02*
X55281205Y-93225971D01*
X55281205Y-93225971D02*
X55357396Y-93149781D01*
X55357396Y-93149781D02*
X55395491Y-93035495D01*
X55395491Y-93035495D02*
X55395491Y-92959304D01*
X55395491Y-92959304D02*
X55357396Y-92845019D01*
X55357396Y-92845019D02*
X55319300Y-92806923D01*
X55319300Y-92806923D02*
X55052634Y-92806923D01*
X55052634Y-92806923D02*
X55052634Y-92959304D01*
X78169266Y-49919967D02*
X78540694Y-49919967D01*
X78540694Y-49919967D02*
X78340694Y-50148538D01*
X78340694Y-50148538D02*
X78426409Y-50148538D01*
X78426409Y-50148538D02*
X78483552Y-50177110D01*
X78483552Y-50177110D02*
X78512123Y-50205681D01*
X78512123Y-50205681D02*
X78540694Y-50262824D01*
X78540694Y-50262824D02*
X78540694Y-50405681D01*
X78540694Y-50405681D02*
X78512123Y-50462824D01*
X78512123Y-50462824D02*
X78483552Y-50491396D01*
X78483552Y-50491396D02*
X78426409Y-50519967D01*
X78426409Y-50519967D02*
X78254980Y-50519967D01*
X78254980Y-50519967D02*
X78197837Y-50491396D01*
X78197837Y-50491396D02*
X78169266Y-50462824D01*
X78712123Y-49919967D02*
X78912123Y-50519967D01*
X78912123Y-50519967D02*
X79112123Y-49919967D01*
X79254981Y-49919967D02*
X79626409Y-49919967D01*
X79626409Y-49919967D02*
X79426409Y-50148538D01*
X79426409Y-50148538D02*
X79512124Y-50148538D01*
X79512124Y-50148538D02*
X79569267Y-50177110D01*
X79569267Y-50177110D02*
X79597838Y-50205681D01*
X79597838Y-50205681D02*
X79626409Y-50262824D01*
X79626409Y-50262824D02*
X79626409Y-50405681D01*
X79626409Y-50405681D02*
X79597838Y-50462824D01*
X79597838Y-50462824D02*
X79569267Y-50491396D01*
X79569267Y-50491396D02*
X79512124Y-50519967D01*
X79512124Y-50519967D02*
X79340695Y-50519967D01*
X79340695Y-50519967D02*
X79283552Y-50491396D01*
X79283552Y-50491396D02*
X79254981Y-50462824D01*
X78540694Y-77948538D02*
X78483552Y-77919967D01*
X78483552Y-77919967D02*
X78397837Y-77919967D01*
X78397837Y-77919967D02*
X78312123Y-77948538D01*
X78312123Y-77948538D02*
X78254980Y-78005681D01*
X78254980Y-78005681D02*
X78226409Y-78062824D01*
X78226409Y-78062824D02*
X78197837Y-78177110D01*
X78197837Y-78177110D02*
X78197837Y-78262824D01*
X78197837Y-78262824D02*
X78226409Y-78377110D01*
X78226409Y-78377110D02*
X78254980Y-78434253D01*
X78254980Y-78434253D02*
X78312123Y-78491396D01*
X78312123Y-78491396D02*
X78397837Y-78519967D01*
X78397837Y-78519967D02*
X78454980Y-78519967D01*
X78454980Y-78519967D02*
X78540694Y-78491396D01*
X78540694Y-78491396D02*
X78569266Y-78462824D01*
X78569266Y-78462824D02*
X78569266Y-78262824D01*
X78569266Y-78262824D02*
X78454980Y-78262824D01*
X78826409Y-78519967D02*
X78826409Y-77919967D01*
X78826409Y-77919967D02*
X79054980Y-77919967D01*
X79054980Y-77919967D02*
X79112123Y-77948538D01*
X79112123Y-77948538D02*
X79140694Y-77977110D01*
X79140694Y-77977110D02*
X79169266Y-78034253D01*
X79169266Y-78034253D02*
X79169266Y-78119967D01*
X79169266Y-78119967D02*
X79140694Y-78177110D01*
X79140694Y-78177110D02*
X79112123Y-78205681D01*
X79112123Y-78205681D02*
X79054980Y-78234253D01*
X79054980Y-78234253D02*
X78826409Y-78234253D01*
X79740694Y-78519967D02*
X79397837Y-78519967D01*
X79569266Y-78519967D02*
X79569266Y-77919967D01*
X79569266Y-77919967D02*
X79512123Y-78005681D01*
X79512123Y-78005681D02*
X79454980Y-78062824D01*
X79454980Y-78062824D02*
X79397837Y-78091396D01*
X80026409Y-78519967D02*
X80140695Y-78519967D01*
X80140695Y-78519967D02*
X80197838Y-78491396D01*
X80197838Y-78491396D02*
X80226409Y-78462824D01*
X80226409Y-78462824D02*
X80283552Y-78377110D01*
X80283552Y-78377110D02*
X80312123Y-78262824D01*
X80312123Y-78262824D02*
X80312123Y-78034253D01*
X80312123Y-78034253D02*
X80283552Y-77977110D01*
X80283552Y-77977110D02*
X80254981Y-77948538D01*
X80254981Y-77948538D02*
X80197838Y-77919967D01*
X80197838Y-77919967D02*
X80083552Y-77919967D01*
X80083552Y-77919967D02*
X80026409Y-77948538D01*
X80026409Y-77948538D02*
X79997838Y-77977110D01*
X79997838Y-77977110D02*
X79969266Y-78034253D01*
X79969266Y-78034253D02*
X79969266Y-78177110D01*
X79969266Y-78177110D02*
X79997838Y-78234253D01*
X79997838Y-78234253D02*
X80026409Y-78262824D01*
X80026409Y-78262824D02*
X80083552Y-78291396D01*
X80083552Y-78291396D02*
X80197838Y-78291396D01*
X80197838Y-78291396D02*
X80254981Y-78262824D01*
X80254981Y-78262824D02*
X80283552Y-78234253D01*
X80283552Y-78234253D02*
X80312123Y-78177110D01*
X40240694Y-49948538D02*
X40183552Y-49919967D01*
X40183552Y-49919967D02*
X40097837Y-49919967D01*
X40097837Y-49919967D02*
X40012123Y-49948538D01*
X40012123Y-49948538D02*
X39954980Y-50005681D01*
X39954980Y-50005681D02*
X39926409Y-50062824D01*
X39926409Y-50062824D02*
X39897837Y-50177110D01*
X39897837Y-50177110D02*
X39897837Y-50262824D01*
X39897837Y-50262824D02*
X39926409Y-50377110D01*
X39926409Y-50377110D02*
X39954980Y-50434253D01*
X39954980Y-50434253D02*
X40012123Y-50491396D01*
X40012123Y-50491396D02*
X40097837Y-50519967D01*
X40097837Y-50519967D02*
X40154980Y-50519967D01*
X40154980Y-50519967D02*
X40240694Y-50491396D01*
X40240694Y-50491396D02*
X40269266Y-50462824D01*
X40269266Y-50462824D02*
X40269266Y-50262824D01*
X40269266Y-50262824D02*
X40154980Y-50262824D01*
X40526409Y-50519967D02*
X40526409Y-49919967D01*
X40526409Y-49919967D02*
X40754980Y-49919967D01*
X40754980Y-49919967D02*
X40812123Y-49948538D01*
X40812123Y-49948538D02*
X40840694Y-49977110D01*
X40840694Y-49977110D02*
X40869266Y-50034253D01*
X40869266Y-50034253D02*
X40869266Y-50119967D01*
X40869266Y-50119967D02*
X40840694Y-50177110D01*
X40840694Y-50177110D02*
X40812123Y-50205681D01*
X40812123Y-50205681D02*
X40754980Y-50234253D01*
X40754980Y-50234253D02*
X40526409Y-50234253D01*
X41069266Y-49919967D02*
X41440694Y-49919967D01*
X41440694Y-49919967D02*
X41240694Y-50148538D01*
X41240694Y-50148538D02*
X41326409Y-50148538D01*
X41326409Y-50148538D02*
X41383552Y-50177110D01*
X41383552Y-50177110D02*
X41412123Y-50205681D01*
X41412123Y-50205681D02*
X41440694Y-50262824D01*
X41440694Y-50262824D02*
X41440694Y-50405681D01*
X41440694Y-50405681D02*
X41412123Y-50462824D01*
X41412123Y-50462824D02*
X41383552Y-50491396D01*
X41383552Y-50491396D02*
X41326409Y-50519967D01*
X41326409Y-50519967D02*
X41154980Y-50519967D01*
X41154980Y-50519967D02*
X41097837Y-50491396D01*
X41097837Y-50491396D02*
X41069266Y-50462824D01*
X39740694Y-75348538D02*
X39683552Y-75319967D01*
X39683552Y-75319967D02*
X39597837Y-75319967D01*
X39597837Y-75319967D02*
X39512123Y-75348538D01*
X39512123Y-75348538D02*
X39454980Y-75405681D01*
X39454980Y-75405681D02*
X39426409Y-75462824D01*
X39426409Y-75462824D02*
X39397837Y-75577110D01*
X39397837Y-75577110D02*
X39397837Y-75662824D01*
X39397837Y-75662824D02*
X39426409Y-75777110D01*
X39426409Y-75777110D02*
X39454980Y-75834253D01*
X39454980Y-75834253D02*
X39512123Y-75891396D01*
X39512123Y-75891396D02*
X39597837Y-75919967D01*
X39597837Y-75919967D02*
X39654980Y-75919967D01*
X39654980Y-75919967D02*
X39740694Y-75891396D01*
X39740694Y-75891396D02*
X39769266Y-75862824D01*
X39769266Y-75862824D02*
X39769266Y-75662824D01*
X39769266Y-75662824D02*
X39654980Y-75662824D01*
X40026409Y-75919967D02*
X40026409Y-75319967D01*
X40026409Y-75319967D02*
X40254980Y-75319967D01*
X40254980Y-75319967D02*
X40312123Y-75348538D01*
X40312123Y-75348538D02*
X40340694Y-75377110D01*
X40340694Y-75377110D02*
X40369266Y-75434253D01*
X40369266Y-75434253D02*
X40369266Y-75519967D01*
X40369266Y-75519967D02*
X40340694Y-75577110D01*
X40340694Y-75577110D02*
X40312123Y-75605681D01*
X40312123Y-75605681D02*
X40254980Y-75634253D01*
X40254980Y-75634253D02*
X40026409Y-75634253D01*
X40940694Y-75919967D02*
X40597837Y-75919967D01*
X40769266Y-75919967D02*
X40769266Y-75319967D01*
X40769266Y-75319967D02*
X40712123Y-75405681D01*
X40712123Y-75405681D02*
X40654980Y-75462824D01*
X40654980Y-75462824D02*
X40597837Y-75491396D01*
X41512123Y-75919967D02*
X41169266Y-75919967D01*
X41340695Y-75919967D02*
X41340695Y-75319967D01*
X41340695Y-75319967D02*
X41283552Y-75405681D01*
X41283552Y-75405681D02*
X41226409Y-75462824D01*
X41226409Y-75462824D02*
X41169266Y-75491396D01*
X39740694Y-72848538D02*
X39683552Y-72819967D01*
X39683552Y-72819967D02*
X39597837Y-72819967D01*
X39597837Y-72819967D02*
X39512123Y-72848538D01*
X39512123Y-72848538D02*
X39454980Y-72905681D01*
X39454980Y-72905681D02*
X39426409Y-72962824D01*
X39426409Y-72962824D02*
X39397837Y-73077110D01*
X39397837Y-73077110D02*
X39397837Y-73162824D01*
X39397837Y-73162824D02*
X39426409Y-73277110D01*
X39426409Y-73277110D02*
X39454980Y-73334253D01*
X39454980Y-73334253D02*
X39512123Y-73391396D01*
X39512123Y-73391396D02*
X39597837Y-73419967D01*
X39597837Y-73419967D02*
X39654980Y-73419967D01*
X39654980Y-73419967D02*
X39740694Y-73391396D01*
X39740694Y-73391396D02*
X39769266Y-73362824D01*
X39769266Y-73362824D02*
X39769266Y-73162824D01*
X39769266Y-73162824D02*
X39654980Y-73162824D01*
X40026409Y-73419967D02*
X40026409Y-72819967D01*
X40026409Y-72819967D02*
X40254980Y-72819967D01*
X40254980Y-72819967D02*
X40312123Y-72848538D01*
X40312123Y-72848538D02*
X40340694Y-72877110D01*
X40340694Y-72877110D02*
X40369266Y-72934253D01*
X40369266Y-72934253D02*
X40369266Y-73019967D01*
X40369266Y-73019967D02*
X40340694Y-73077110D01*
X40340694Y-73077110D02*
X40312123Y-73105681D01*
X40312123Y-73105681D02*
X40254980Y-73134253D01*
X40254980Y-73134253D02*
X40026409Y-73134253D01*
X40940694Y-73419967D02*
X40597837Y-73419967D01*
X40769266Y-73419967D02*
X40769266Y-72819967D01*
X40769266Y-72819967D02*
X40712123Y-72905681D01*
X40712123Y-72905681D02*
X40654980Y-72962824D01*
X40654980Y-72962824D02*
X40597837Y-72991396D01*
X41312123Y-72819967D02*
X41369266Y-72819967D01*
X41369266Y-72819967D02*
X41426409Y-72848538D01*
X41426409Y-72848538D02*
X41454981Y-72877110D01*
X41454981Y-72877110D02*
X41483552Y-72934253D01*
X41483552Y-72934253D02*
X41512123Y-73048538D01*
X41512123Y-73048538D02*
X41512123Y-73191396D01*
X41512123Y-73191396D02*
X41483552Y-73305681D01*
X41483552Y-73305681D02*
X41454981Y-73362824D01*
X41454981Y-73362824D02*
X41426409Y-73391396D01*
X41426409Y-73391396D02*
X41369266Y-73419967D01*
X41369266Y-73419967D02*
X41312123Y-73419967D01*
X41312123Y-73419967D02*
X41254981Y-73391396D01*
X41254981Y-73391396D02*
X41226409Y-73362824D01*
X41226409Y-73362824D02*
X41197838Y-73305681D01*
X41197838Y-73305681D02*
X41169266Y-73191396D01*
X41169266Y-73191396D02*
X41169266Y-73048538D01*
X41169266Y-73048538D02*
X41197838Y-72934253D01*
X41197838Y-72934253D02*
X41226409Y-72877110D01*
X41226409Y-72877110D02*
X41254981Y-72848538D01*
X41254981Y-72848538D02*
X41312123Y-72819967D01*
X40240694Y-42248538D02*
X40183552Y-42219967D01*
X40183552Y-42219967D02*
X40097837Y-42219967D01*
X40097837Y-42219967D02*
X40012123Y-42248538D01*
X40012123Y-42248538D02*
X39954980Y-42305681D01*
X39954980Y-42305681D02*
X39926409Y-42362824D01*
X39926409Y-42362824D02*
X39897837Y-42477110D01*
X39897837Y-42477110D02*
X39897837Y-42562824D01*
X39897837Y-42562824D02*
X39926409Y-42677110D01*
X39926409Y-42677110D02*
X39954980Y-42734253D01*
X39954980Y-42734253D02*
X40012123Y-42791396D01*
X40012123Y-42791396D02*
X40097837Y-42819967D01*
X40097837Y-42819967D02*
X40154980Y-42819967D01*
X40154980Y-42819967D02*
X40240694Y-42791396D01*
X40240694Y-42791396D02*
X40269266Y-42762824D01*
X40269266Y-42762824D02*
X40269266Y-42562824D01*
X40269266Y-42562824D02*
X40154980Y-42562824D01*
X40526409Y-42819967D02*
X40526409Y-42219967D01*
X40526409Y-42219967D02*
X40754980Y-42219967D01*
X40754980Y-42219967D02*
X40812123Y-42248538D01*
X40812123Y-42248538D02*
X40840694Y-42277110D01*
X40840694Y-42277110D02*
X40869266Y-42334253D01*
X40869266Y-42334253D02*
X40869266Y-42419967D01*
X40869266Y-42419967D02*
X40840694Y-42477110D01*
X40840694Y-42477110D02*
X40812123Y-42505681D01*
X40812123Y-42505681D02*
X40754980Y-42534253D01*
X40754980Y-42534253D02*
X40526409Y-42534253D01*
X41240694Y-42219967D02*
X41297837Y-42219967D01*
X41297837Y-42219967D02*
X41354980Y-42248538D01*
X41354980Y-42248538D02*
X41383552Y-42277110D01*
X41383552Y-42277110D02*
X41412123Y-42334253D01*
X41412123Y-42334253D02*
X41440694Y-42448538D01*
X41440694Y-42448538D02*
X41440694Y-42591396D01*
X41440694Y-42591396D02*
X41412123Y-42705681D01*
X41412123Y-42705681D02*
X41383552Y-42762824D01*
X41383552Y-42762824D02*
X41354980Y-42791396D01*
X41354980Y-42791396D02*
X41297837Y-42819967D01*
X41297837Y-42819967D02*
X41240694Y-42819967D01*
X41240694Y-42819967D02*
X41183552Y-42791396D01*
X41183552Y-42791396D02*
X41154980Y-42762824D01*
X41154980Y-42762824D02*
X41126409Y-42705681D01*
X41126409Y-42705681D02*
X41097837Y-42591396D01*
X41097837Y-42591396D02*
X41097837Y-42448538D01*
X41097837Y-42448538D02*
X41126409Y-42334253D01*
X41126409Y-42334253D02*
X41154980Y-42277110D01*
X41154980Y-42277110D02*
X41183552Y-42248538D01*
X41183552Y-42248538D02*
X41240694Y-42219967D01*
X40240694Y-62648538D02*
X40183552Y-62619967D01*
X40183552Y-62619967D02*
X40097837Y-62619967D01*
X40097837Y-62619967D02*
X40012123Y-62648538D01*
X40012123Y-62648538D02*
X39954980Y-62705681D01*
X39954980Y-62705681D02*
X39926409Y-62762824D01*
X39926409Y-62762824D02*
X39897837Y-62877110D01*
X39897837Y-62877110D02*
X39897837Y-62962824D01*
X39897837Y-62962824D02*
X39926409Y-63077110D01*
X39926409Y-63077110D02*
X39954980Y-63134253D01*
X39954980Y-63134253D02*
X40012123Y-63191396D01*
X40012123Y-63191396D02*
X40097837Y-63219967D01*
X40097837Y-63219967D02*
X40154980Y-63219967D01*
X40154980Y-63219967D02*
X40240694Y-63191396D01*
X40240694Y-63191396D02*
X40269266Y-63162824D01*
X40269266Y-63162824D02*
X40269266Y-62962824D01*
X40269266Y-62962824D02*
X40154980Y-62962824D01*
X40526409Y-63219967D02*
X40526409Y-62619967D01*
X40526409Y-62619967D02*
X40754980Y-62619967D01*
X40754980Y-62619967D02*
X40812123Y-62648538D01*
X40812123Y-62648538D02*
X40840694Y-62677110D01*
X40840694Y-62677110D02*
X40869266Y-62734253D01*
X40869266Y-62734253D02*
X40869266Y-62819967D01*
X40869266Y-62819967D02*
X40840694Y-62877110D01*
X40840694Y-62877110D02*
X40812123Y-62905681D01*
X40812123Y-62905681D02*
X40754980Y-62934253D01*
X40754980Y-62934253D02*
X40526409Y-62934253D01*
X41069266Y-62619967D02*
X41469266Y-62619967D01*
X41469266Y-62619967D02*
X41212123Y-63219967D01*
X40240694Y-65248538D02*
X40183552Y-65219967D01*
X40183552Y-65219967D02*
X40097837Y-65219967D01*
X40097837Y-65219967D02*
X40012123Y-65248538D01*
X40012123Y-65248538D02*
X39954980Y-65305681D01*
X39954980Y-65305681D02*
X39926409Y-65362824D01*
X39926409Y-65362824D02*
X39897837Y-65477110D01*
X39897837Y-65477110D02*
X39897837Y-65562824D01*
X39897837Y-65562824D02*
X39926409Y-65677110D01*
X39926409Y-65677110D02*
X39954980Y-65734253D01*
X39954980Y-65734253D02*
X40012123Y-65791396D01*
X40012123Y-65791396D02*
X40097837Y-65819967D01*
X40097837Y-65819967D02*
X40154980Y-65819967D01*
X40154980Y-65819967D02*
X40240694Y-65791396D01*
X40240694Y-65791396D02*
X40269266Y-65762824D01*
X40269266Y-65762824D02*
X40269266Y-65562824D01*
X40269266Y-65562824D02*
X40154980Y-65562824D01*
X40526409Y-65819967D02*
X40526409Y-65219967D01*
X40526409Y-65219967D02*
X40754980Y-65219967D01*
X40754980Y-65219967D02*
X40812123Y-65248538D01*
X40812123Y-65248538D02*
X40840694Y-65277110D01*
X40840694Y-65277110D02*
X40869266Y-65334253D01*
X40869266Y-65334253D02*
X40869266Y-65419967D01*
X40869266Y-65419967D02*
X40840694Y-65477110D01*
X40840694Y-65477110D02*
X40812123Y-65505681D01*
X40812123Y-65505681D02*
X40754980Y-65534253D01*
X40754980Y-65534253D02*
X40526409Y-65534253D01*
X41212123Y-65477110D02*
X41154980Y-65448538D01*
X41154980Y-65448538D02*
X41126409Y-65419967D01*
X41126409Y-65419967D02*
X41097837Y-65362824D01*
X41097837Y-65362824D02*
X41097837Y-65334253D01*
X41097837Y-65334253D02*
X41126409Y-65277110D01*
X41126409Y-65277110D02*
X41154980Y-65248538D01*
X41154980Y-65248538D02*
X41212123Y-65219967D01*
X41212123Y-65219967D02*
X41326409Y-65219967D01*
X41326409Y-65219967D02*
X41383552Y-65248538D01*
X41383552Y-65248538D02*
X41412123Y-65277110D01*
X41412123Y-65277110D02*
X41440694Y-65334253D01*
X41440694Y-65334253D02*
X41440694Y-65362824D01*
X41440694Y-65362824D02*
X41412123Y-65419967D01*
X41412123Y-65419967D02*
X41383552Y-65448538D01*
X41383552Y-65448538D02*
X41326409Y-65477110D01*
X41326409Y-65477110D02*
X41212123Y-65477110D01*
X41212123Y-65477110D02*
X41154980Y-65505681D01*
X41154980Y-65505681D02*
X41126409Y-65534253D01*
X41126409Y-65534253D02*
X41097837Y-65591396D01*
X41097837Y-65591396D02*
X41097837Y-65705681D01*
X41097837Y-65705681D02*
X41126409Y-65762824D01*
X41126409Y-65762824D02*
X41154980Y-65791396D01*
X41154980Y-65791396D02*
X41212123Y-65819967D01*
X41212123Y-65819967D02*
X41326409Y-65819967D01*
X41326409Y-65819967D02*
X41383552Y-65791396D01*
X41383552Y-65791396D02*
X41412123Y-65762824D01*
X41412123Y-65762824D02*
X41440694Y-65705681D01*
X41440694Y-65705681D02*
X41440694Y-65591396D01*
X41440694Y-65591396D02*
X41412123Y-65534253D01*
X41412123Y-65534253D02*
X41383552Y-65505681D01*
X41383552Y-65505681D02*
X41326409Y-65477110D01*
X40240694Y-67748538D02*
X40183552Y-67719967D01*
X40183552Y-67719967D02*
X40097837Y-67719967D01*
X40097837Y-67719967D02*
X40012123Y-67748538D01*
X40012123Y-67748538D02*
X39954980Y-67805681D01*
X39954980Y-67805681D02*
X39926409Y-67862824D01*
X39926409Y-67862824D02*
X39897837Y-67977110D01*
X39897837Y-67977110D02*
X39897837Y-68062824D01*
X39897837Y-68062824D02*
X39926409Y-68177110D01*
X39926409Y-68177110D02*
X39954980Y-68234253D01*
X39954980Y-68234253D02*
X40012123Y-68291396D01*
X40012123Y-68291396D02*
X40097837Y-68319967D01*
X40097837Y-68319967D02*
X40154980Y-68319967D01*
X40154980Y-68319967D02*
X40240694Y-68291396D01*
X40240694Y-68291396D02*
X40269266Y-68262824D01*
X40269266Y-68262824D02*
X40269266Y-68062824D01*
X40269266Y-68062824D02*
X40154980Y-68062824D01*
X40526409Y-68319967D02*
X40526409Y-67719967D01*
X40526409Y-67719967D02*
X40754980Y-67719967D01*
X40754980Y-67719967D02*
X40812123Y-67748538D01*
X40812123Y-67748538D02*
X40840694Y-67777110D01*
X40840694Y-67777110D02*
X40869266Y-67834253D01*
X40869266Y-67834253D02*
X40869266Y-67919967D01*
X40869266Y-67919967D02*
X40840694Y-67977110D01*
X40840694Y-67977110D02*
X40812123Y-68005681D01*
X40812123Y-68005681D02*
X40754980Y-68034253D01*
X40754980Y-68034253D02*
X40526409Y-68034253D01*
X41154980Y-68319967D02*
X41269266Y-68319967D01*
X41269266Y-68319967D02*
X41326409Y-68291396D01*
X41326409Y-68291396D02*
X41354980Y-68262824D01*
X41354980Y-68262824D02*
X41412123Y-68177110D01*
X41412123Y-68177110D02*
X41440694Y-68062824D01*
X41440694Y-68062824D02*
X41440694Y-67834253D01*
X41440694Y-67834253D02*
X41412123Y-67777110D01*
X41412123Y-67777110D02*
X41383552Y-67748538D01*
X41383552Y-67748538D02*
X41326409Y-67719967D01*
X41326409Y-67719967D02*
X41212123Y-67719967D01*
X41212123Y-67719967D02*
X41154980Y-67748538D01*
X41154980Y-67748538D02*
X41126409Y-67777110D01*
X41126409Y-67777110D02*
X41097837Y-67834253D01*
X41097837Y-67834253D02*
X41097837Y-67977110D01*
X41097837Y-67977110D02*
X41126409Y-68034253D01*
X41126409Y-68034253D02*
X41154980Y-68062824D01*
X41154980Y-68062824D02*
X41212123Y-68091396D01*
X41212123Y-68091396D02*
X41326409Y-68091396D01*
X41326409Y-68091396D02*
X41383552Y-68062824D01*
X41383552Y-68062824D02*
X41412123Y-68034253D01*
X41412123Y-68034253D02*
X41440694Y-67977110D01*
D12*
X59026023Y-66899998D02*
X57978404Y-67633331D01*
X59026023Y-68157141D02*
X56826023Y-68157141D01*
X56826023Y-68157141D02*
X56826023Y-67319046D01*
X56826023Y-67319046D02*
X56930785Y-67109522D01*
X56930785Y-67109522D02*
X57035547Y-67004760D01*
X57035547Y-67004760D02*
X57245071Y-66899998D01*
X57245071Y-66899998D02*
X57559357Y-66899998D01*
X57559357Y-66899998D02*
X57768881Y-67004760D01*
X57768881Y-67004760D02*
X57873642Y-67109522D01*
X57873642Y-67109522D02*
X57978404Y-67319046D01*
X57978404Y-67319046D02*
X57978404Y-68157141D01*
X59026023Y-65014284D02*
X57873642Y-65014284D01*
X57873642Y-65014284D02*
X57664119Y-65119046D01*
X57664119Y-65119046D02*
X57559357Y-65328570D01*
X57559357Y-65328570D02*
X57559357Y-65747617D01*
X57559357Y-65747617D02*
X57664119Y-65957141D01*
X58921262Y-65014284D02*
X59026023Y-65223808D01*
X59026023Y-65223808D02*
X59026023Y-65747617D01*
X59026023Y-65747617D02*
X58921262Y-65957141D01*
X58921262Y-65957141D02*
X58711738Y-66061903D01*
X58711738Y-66061903D02*
X58502214Y-66061903D01*
X58502214Y-66061903D02*
X58292690Y-65957141D01*
X58292690Y-65957141D02*
X58187928Y-65747617D01*
X58187928Y-65747617D02*
X58187928Y-65223808D01*
X58187928Y-65223808D02*
X58083166Y-65014284D01*
X58921262Y-64071427D02*
X59026023Y-63861903D01*
X59026023Y-63861903D02*
X59026023Y-63442855D01*
X59026023Y-63442855D02*
X58921262Y-63233332D01*
X58921262Y-63233332D02*
X58711738Y-63128570D01*
X58711738Y-63128570D02*
X58606976Y-63128570D01*
X58606976Y-63128570D02*
X58397452Y-63233332D01*
X58397452Y-63233332D02*
X58292690Y-63442855D01*
X58292690Y-63442855D02*
X58292690Y-63757141D01*
X58292690Y-63757141D02*
X58187928Y-63966665D01*
X58187928Y-63966665D02*
X57978404Y-64071427D01*
X57978404Y-64071427D02*
X57873642Y-64071427D01*
X57873642Y-64071427D02*
X57664119Y-63966665D01*
X57664119Y-63966665D02*
X57559357Y-63757141D01*
X57559357Y-63757141D02*
X57559357Y-63442855D01*
X57559357Y-63442855D02*
X57664119Y-63233332D01*
X57559357Y-62185713D02*
X59759357Y-62185713D01*
X57664119Y-62185713D02*
X57559357Y-61976189D01*
X57559357Y-61976189D02*
X57559357Y-61557142D01*
X57559357Y-61557142D02*
X57664119Y-61347618D01*
X57664119Y-61347618D02*
X57768881Y-61242856D01*
X57768881Y-61242856D02*
X57978404Y-61138094D01*
X57978404Y-61138094D02*
X58606976Y-61138094D01*
X58606976Y-61138094D02*
X58816500Y-61242856D01*
X58816500Y-61242856D02*
X58921262Y-61347618D01*
X58921262Y-61347618D02*
X59026023Y-61557142D01*
X59026023Y-61557142D02*
X59026023Y-61976189D01*
X59026023Y-61976189D02*
X58921262Y-62185713D01*
X59026023Y-60195237D02*
X56826023Y-60195237D01*
X57664119Y-60195237D02*
X57559357Y-59985713D01*
X57559357Y-59985713D02*
X57559357Y-59566666D01*
X57559357Y-59566666D02*
X57664119Y-59357142D01*
X57664119Y-59357142D02*
X57768881Y-59252380D01*
X57768881Y-59252380D02*
X57978404Y-59147618D01*
X57978404Y-59147618D02*
X58606976Y-59147618D01*
X58606976Y-59147618D02*
X58816500Y-59252380D01*
X58816500Y-59252380D02*
X58921262Y-59357142D01*
X58921262Y-59357142D02*
X59026023Y-59566666D01*
X59026023Y-59566666D02*
X59026023Y-59985713D01*
X59026023Y-59985713D02*
X58921262Y-60195237D01*
X58921262Y-57366666D02*
X59026023Y-57576190D01*
X59026023Y-57576190D02*
X59026023Y-57995237D01*
X59026023Y-57995237D02*
X58921262Y-58204761D01*
X58921262Y-58204761D02*
X58711738Y-58309523D01*
X58711738Y-58309523D02*
X57873642Y-58309523D01*
X57873642Y-58309523D02*
X57664119Y-58204761D01*
X57664119Y-58204761D02*
X57559357Y-57995237D01*
X57559357Y-57995237D02*
X57559357Y-57576190D01*
X57559357Y-57576190D02*
X57664119Y-57366666D01*
X57664119Y-57366666D02*
X57873642Y-57261904D01*
X57873642Y-57261904D02*
X58083166Y-57261904D01*
X58083166Y-57261904D02*
X58292690Y-58309523D01*
X59026023Y-56319047D02*
X57559357Y-56319047D01*
X57978404Y-56319047D02*
X57768881Y-56214285D01*
X57768881Y-56214285D02*
X57664119Y-56109523D01*
X57664119Y-56109523D02*
X57559357Y-55899999D01*
X57559357Y-55899999D02*
X57559357Y-55690476D01*
X59026023Y-54957142D02*
X57559357Y-54957142D01*
X57978404Y-54957142D02*
X57768881Y-54852380D01*
X57768881Y-54852380D02*
X57664119Y-54747618D01*
X57664119Y-54747618D02*
X57559357Y-54538094D01*
X57559357Y-54538094D02*
X57559357Y-54328571D01*
X57559357Y-53804761D02*
X59026023Y-53280951D01*
X57559357Y-52757142D02*
X59026023Y-53280951D01*
X59026023Y-53280951D02*
X59549833Y-53490475D01*
X59549833Y-53490475D02*
X59654595Y-53595237D01*
X59654595Y-53595237D02*
X59759357Y-53804761D01*
X59026023Y-50242857D02*
X56826023Y-50242857D01*
X56826023Y-50242857D02*
X56826023Y-49404762D01*
X56826023Y-49404762D02*
X56930785Y-49195238D01*
X56930785Y-49195238D02*
X57035547Y-49090476D01*
X57035547Y-49090476D02*
X57245071Y-48985714D01*
X57245071Y-48985714D02*
X57559357Y-48985714D01*
X57559357Y-48985714D02*
X57768881Y-49090476D01*
X57768881Y-49090476D02*
X57873642Y-49195238D01*
X57873642Y-49195238D02*
X57978404Y-49404762D01*
X57978404Y-49404762D02*
X57978404Y-50242857D01*
X59026023Y-48042857D02*
X57559357Y-48042857D01*
X56826023Y-48042857D02*
X56930785Y-48147619D01*
X56930785Y-48147619D02*
X57035547Y-48042857D01*
X57035547Y-48042857D02*
X56930785Y-47938095D01*
X56930785Y-47938095D02*
X56826023Y-48042857D01*
X56826023Y-48042857D02*
X57035547Y-48042857D01*
X62567900Y-61138094D02*
X60367900Y-61138094D01*
X60367900Y-61138094D02*
X60367900Y-60299999D01*
X60367900Y-60299999D02*
X60472662Y-60090475D01*
X60472662Y-60090475D02*
X60577424Y-59985713D01*
X60577424Y-59985713D02*
X60786948Y-59880951D01*
X60786948Y-59880951D02*
X61101234Y-59880951D01*
X61101234Y-59880951D02*
X61310758Y-59985713D01*
X61310758Y-59985713D02*
X61415519Y-60090475D01*
X61415519Y-60090475D02*
X61520281Y-60299999D01*
X61520281Y-60299999D02*
X61520281Y-61138094D01*
X62567900Y-58938094D02*
X61101234Y-58938094D01*
X60367900Y-58938094D02*
X60472662Y-59042856D01*
X60472662Y-59042856D02*
X60577424Y-58938094D01*
X60577424Y-58938094D02*
X60472662Y-58833332D01*
X60472662Y-58833332D02*
X60367900Y-58938094D01*
X60367900Y-58938094D02*
X60577424Y-58938094D01*
X62463139Y-56947618D02*
X62567900Y-57157142D01*
X62567900Y-57157142D02*
X62567900Y-57576189D01*
X62567900Y-57576189D02*
X62463139Y-57785713D01*
X62463139Y-57785713D02*
X62358377Y-57890475D01*
X62358377Y-57890475D02*
X62148853Y-57995237D01*
X62148853Y-57995237D02*
X61520281Y-57995237D01*
X61520281Y-57995237D02*
X61310758Y-57890475D01*
X61310758Y-57890475D02*
X61205996Y-57785713D01*
X61205996Y-57785713D02*
X61101234Y-57576189D01*
X61101234Y-57576189D02*
X61101234Y-57157142D01*
X61101234Y-57157142D02*
X61205996Y-56947618D01*
X62567900Y-55690475D02*
X62463139Y-55899999D01*
X62463139Y-55899999D02*
X62358377Y-56004761D01*
X62358377Y-56004761D02*
X62148853Y-56109523D01*
X62148853Y-56109523D02*
X61520281Y-56109523D01*
X61520281Y-56109523D02*
X61310758Y-56004761D01*
X61310758Y-56004761D02*
X61205996Y-55899999D01*
X61205996Y-55899999D02*
X61101234Y-55690475D01*
X61101234Y-55690475D02*
X61101234Y-55376190D01*
X61101234Y-55376190D02*
X61205996Y-55166666D01*
X61205996Y-55166666D02*
X61310758Y-55061904D01*
X61310758Y-55061904D02*
X61520281Y-54957142D01*
X61520281Y-54957142D02*
X62148853Y-54957142D01*
X62148853Y-54957142D02*
X62358377Y-55061904D01*
X62358377Y-55061904D02*
X62463139Y-55166666D01*
X62463139Y-55166666D02*
X62567900Y-55376190D01*
X62567900Y-55376190D02*
X62567900Y-55690475D01*
D11*
X78540694Y-72848538D02*
X78483552Y-72819967D01*
X78483552Y-72819967D02*
X78397837Y-72819967D01*
X78397837Y-72819967D02*
X78312123Y-72848538D01*
X78312123Y-72848538D02*
X78254980Y-72905681D01*
X78254980Y-72905681D02*
X78226409Y-72962824D01*
X78226409Y-72962824D02*
X78197837Y-73077110D01*
X78197837Y-73077110D02*
X78197837Y-73162824D01*
X78197837Y-73162824D02*
X78226409Y-73277110D01*
X78226409Y-73277110D02*
X78254980Y-73334253D01*
X78254980Y-73334253D02*
X78312123Y-73391396D01*
X78312123Y-73391396D02*
X78397837Y-73419967D01*
X78397837Y-73419967D02*
X78454980Y-73419967D01*
X78454980Y-73419967D02*
X78540694Y-73391396D01*
X78540694Y-73391396D02*
X78569266Y-73362824D01*
X78569266Y-73362824D02*
X78569266Y-73162824D01*
X78569266Y-73162824D02*
X78454980Y-73162824D01*
X78826409Y-73419967D02*
X78826409Y-72819967D01*
X78826409Y-72819967D02*
X79054980Y-72819967D01*
X79054980Y-72819967D02*
X79112123Y-72848538D01*
X79112123Y-72848538D02*
X79140694Y-72877110D01*
X79140694Y-72877110D02*
X79169266Y-72934253D01*
X79169266Y-72934253D02*
X79169266Y-73019967D01*
X79169266Y-73019967D02*
X79140694Y-73077110D01*
X79140694Y-73077110D02*
X79112123Y-73105681D01*
X79112123Y-73105681D02*
X79054980Y-73134253D01*
X79054980Y-73134253D02*
X78826409Y-73134253D01*
X79397837Y-72877110D02*
X79426409Y-72848538D01*
X79426409Y-72848538D02*
X79483552Y-72819967D01*
X79483552Y-72819967D02*
X79626409Y-72819967D01*
X79626409Y-72819967D02*
X79683552Y-72848538D01*
X79683552Y-72848538D02*
X79712123Y-72877110D01*
X79712123Y-72877110D02*
X79740694Y-72934253D01*
X79740694Y-72934253D02*
X79740694Y-72991396D01*
X79740694Y-72991396D02*
X79712123Y-73077110D01*
X79712123Y-73077110D02*
X79369266Y-73419967D01*
X79369266Y-73419967D02*
X79740694Y-73419967D01*
X80312123Y-73419967D02*
X79969266Y-73419967D01*
X80140695Y-73419967D02*
X80140695Y-72819967D01*
X80140695Y-72819967D02*
X80083552Y-72905681D01*
X80083552Y-72905681D02*
X80026409Y-72962824D01*
X80026409Y-72962824D02*
X79969266Y-72991396D01*
X40240694Y-70348538D02*
X40183552Y-70319967D01*
X40183552Y-70319967D02*
X40097837Y-70319967D01*
X40097837Y-70319967D02*
X40012123Y-70348538D01*
X40012123Y-70348538D02*
X39954980Y-70405681D01*
X39954980Y-70405681D02*
X39926409Y-70462824D01*
X39926409Y-70462824D02*
X39897837Y-70577110D01*
X39897837Y-70577110D02*
X39897837Y-70662824D01*
X39897837Y-70662824D02*
X39926409Y-70777110D01*
X39926409Y-70777110D02*
X39954980Y-70834253D01*
X39954980Y-70834253D02*
X40012123Y-70891396D01*
X40012123Y-70891396D02*
X40097837Y-70919967D01*
X40097837Y-70919967D02*
X40154980Y-70919967D01*
X40154980Y-70919967D02*
X40240694Y-70891396D01*
X40240694Y-70891396D02*
X40269266Y-70862824D01*
X40269266Y-70862824D02*
X40269266Y-70662824D01*
X40269266Y-70662824D02*
X40154980Y-70662824D01*
X40526409Y-70919967D02*
X40526409Y-70319967D01*
X40526409Y-70319967D02*
X40869266Y-70919967D01*
X40869266Y-70919967D02*
X40869266Y-70319967D01*
X41154980Y-70919967D02*
X41154980Y-70319967D01*
X41154980Y-70319967D02*
X41297837Y-70319967D01*
X41297837Y-70319967D02*
X41383551Y-70348538D01*
X41383551Y-70348538D02*
X41440694Y-70405681D01*
X41440694Y-70405681D02*
X41469265Y-70462824D01*
X41469265Y-70462824D02*
X41497837Y-70577110D01*
X41497837Y-70577110D02*
X41497837Y-70662824D01*
X41497837Y-70662824D02*
X41469265Y-70777110D01*
X41469265Y-70777110D02*
X41440694Y-70834253D01*
X41440694Y-70834253D02*
X41383551Y-70891396D01*
X41383551Y-70891396D02*
X41297837Y-70919967D01*
X41297837Y-70919967D02*
X41154980Y-70919967D01*
X39740694Y-85548538D02*
X39683552Y-85519967D01*
X39683552Y-85519967D02*
X39597837Y-85519967D01*
X39597837Y-85519967D02*
X39512123Y-85548538D01*
X39512123Y-85548538D02*
X39454980Y-85605681D01*
X39454980Y-85605681D02*
X39426409Y-85662824D01*
X39426409Y-85662824D02*
X39397837Y-85777110D01*
X39397837Y-85777110D02*
X39397837Y-85862824D01*
X39397837Y-85862824D02*
X39426409Y-85977110D01*
X39426409Y-85977110D02*
X39454980Y-86034253D01*
X39454980Y-86034253D02*
X39512123Y-86091396D01*
X39512123Y-86091396D02*
X39597837Y-86119967D01*
X39597837Y-86119967D02*
X39654980Y-86119967D01*
X39654980Y-86119967D02*
X39740694Y-86091396D01*
X39740694Y-86091396D02*
X39769266Y-86062824D01*
X39769266Y-86062824D02*
X39769266Y-85862824D01*
X39769266Y-85862824D02*
X39654980Y-85862824D01*
X40026409Y-86119967D02*
X40026409Y-85519967D01*
X40026409Y-85519967D02*
X40254980Y-85519967D01*
X40254980Y-85519967D02*
X40312123Y-85548538D01*
X40312123Y-85548538D02*
X40340694Y-85577110D01*
X40340694Y-85577110D02*
X40369266Y-85634253D01*
X40369266Y-85634253D02*
X40369266Y-85719967D01*
X40369266Y-85719967D02*
X40340694Y-85777110D01*
X40340694Y-85777110D02*
X40312123Y-85805681D01*
X40312123Y-85805681D02*
X40254980Y-85834253D01*
X40254980Y-85834253D02*
X40026409Y-85834253D01*
X40940694Y-86119967D02*
X40597837Y-86119967D01*
X40769266Y-86119967D02*
X40769266Y-85519967D01*
X40769266Y-85519967D02*
X40712123Y-85605681D01*
X40712123Y-85605681D02*
X40654980Y-85662824D01*
X40654980Y-85662824D02*
X40597837Y-85691396D01*
X41454981Y-85719967D02*
X41454981Y-86119967D01*
X41312123Y-85491396D02*
X41169266Y-85919967D01*
X41169266Y-85919967D02*
X41540695Y-85919967D01*
X40240694Y-47448538D02*
X40183552Y-47419967D01*
X40183552Y-47419967D02*
X40097837Y-47419967D01*
X40097837Y-47419967D02*
X40012123Y-47448538D01*
X40012123Y-47448538D02*
X39954980Y-47505681D01*
X39954980Y-47505681D02*
X39926409Y-47562824D01*
X39926409Y-47562824D02*
X39897837Y-47677110D01*
X39897837Y-47677110D02*
X39897837Y-47762824D01*
X39897837Y-47762824D02*
X39926409Y-47877110D01*
X39926409Y-47877110D02*
X39954980Y-47934253D01*
X39954980Y-47934253D02*
X40012123Y-47991396D01*
X40012123Y-47991396D02*
X40097837Y-48019967D01*
X40097837Y-48019967D02*
X40154980Y-48019967D01*
X40154980Y-48019967D02*
X40240694Y-47991396D01*
X40240694Y-47991396D02*
X40269266Y-47962824D01*
X40269266Y-47962824D02*
X40269266Y-47762824D01*
X40269266Y-47762824D02*
X40154980Y-47762824D01*
X40526409Y-48019967D02*
X40526409Y-47419967D01*
X40526409Y-47419967D02*
X40754980Y-47419967D01*
X40754980Y-47419967D02*
X40812123Y-47448538D01*
X40812123Y-47448538D02*
X40840694Y-47477110D01*
X40840694Y-47477110D02*
X40869266Y-47534253D01*
X40869266Y-47534253D02*
X40869266Y-47619967D01*
X40869266Y-47619967D02*
X40840694Y-47677110D01*
X40840694Y-47677110D02*
X40812123Y-47705681D01*
X40812123Y-47705681D02*
X40754980Y-47734253D01*
X40754980Y-47734253D02*
X40526409Y-47734253D01*
X41097837Y-47477110D02*
X41126409Y-47448538D01*
X41126409Y-47448538D02*
X41183552Y-47419967D01*
X41183552Y-47419967D02*
X41326409Y-47419967D01*
X41326409Y-47419967D02*
X41383552Y-47448538D01*
X41383552Y-47448538D02*
X41412123Y-47477110D01*
X41412123Y-47477110D02*
X41440694Y-47534253D01*
X41440694Y-47534253D02*
X41440694Y-47591396D01*
X41440694Y-47591396D02*
X41412123Y-47677110D01*
X41412123Y-47677110D02*
X41069266Y-48019967D01*
X41069266Y-48019967D02*
X41440694Y-48019967D01*
X40240694Y-43148538D02*
X40183552Y-43119967D01*
X40183552Y-43119967D02*
X40097837Y-43119967D01*
X40097837Y-43119967D02*
X40012123Y-43148538D01*
X40012123Y-43148538D02*
X39954980Y-43205681D01*
X39954980Y-43205681D02*
X39926409Y-43262824D01*
X39926409Y-43262824D02*
X39897837Y-43377110D01*
X39897837Y-43377110D02*
X39897837Y-43462824D01*
X39897837Y-43462824D02*
X39926409Y-43577110D01*
X39926409Y-43577110D02*
X39954980Y-43634253D01*
X39954980Y-43634253D02*
X40012123Y-43691396D01*
X40012123Y-43691396D02*
X40097837Y-43719967D01*
X40097837Y-43719967D02*
X40154980Y-43719967D01*
X40154980Y-43719967D02*
X40240694Y-43691396D01*
X40240694Y-43691396D02*
X40269266Y-43662824D01*
X40269266Y-43662824D02*
X40269266Y-43462824D01*
X40269266Y-43462824D02*
X40154980Y-43462824D01*
X40526409Y-43719967D02*
X40526409Y-43119967D01*
X40526409Y-43119967D02*
X40754980Y-43119967D01*
X40754980Y-43119967D02*
X40812123Y-43148538D01*
X40812123Y-43148538D02*
X40840694Y-43177110D01*
X40840694Y-43177110D02*
X40869266Y-43234253D01*
X40869266Y-43234253D02*
X40869266Y-43319967D01*
X40869266Y-43319967D02*
X40840694Y-43377110D01*
X40840694Y-43377110D02*
X40812123Y-43405681D01*
X40812123Y-43405681D02*
X40754980Y-43434253D01*
X40754980Y-43434253D02*
X40526409Y-43434253D01*
X41440694Y-43719967D02*
X41097837Y-43719967D01*
X41269266Y-43719967D02*
X41269266Y-43119967D01*
X41269266Y-43119967D02*
X41212123Y-43205681D01*
X41212123Y-43205681D02*
X41154980Y-43262824D01*
X41154980Y-43262824D02*
X41097837Y-43291396D01*
X78140694Y-42219967D02*
X78340694Y-42819967D01*
X78340694Y-42819967D02*
X78540694Y-42219967D01*
X78940695Y-42505681D02*
X79026409Y-42534253D01*
X79026409Y-42534253D02*
X79054980Y-42562824D01*
X79054980Y-42562824D02*
X79083552Y-42619967D01*
X79083552Y-42619967D02*
X79083552Y-42705681D01*
X79083552Y-42705681D02*
X79054980Y-42762824D01*
X79054980Y-42762824D02*
X79026409Y-42791396D01*
X79026409Y-42791396D02*
X78969266Y-42819967D01*
X78969266Y-42819967D02*
X78740695Y-42819967D01*
X78740695Y-42819967D02*
X78740695Y-42219967D01*
X78740695Y-42219967D02*
X78940695Y-42219967D01*
X78940695Y-42219967D02*
X78997838Y-42248538D01*
X78997838Y-42248538D02*
X79026409Y-42277110D01*
X79026409Y-42277110D02*
X79054980Y-42334253D01*
X79054980Y-42334253D02*
X79054980Y-42391396D01*
X79054980Y-42391396D02*
X79026409Y-42448538D01*
X79026409Y-42448538D02*
X78997838Y-42477110D01*
X78997838Y-42477110D02*
X78940695Y-42505681D01*
X78940695Y-42505681D02*
X78740695Y-42505681D01*
X79340695Y-42219967D02*
X79340695Y-42705681D01*
X79340695Y-42705681D02*
X79369266Y-42762824D01*
X79369266Y-42762824D02*
X79397838Y-42791396D01*
X79397838Y-42791396D02*
X79454980Y-42819967D01*
X79454980Y-42819967D02*
X79569266Y-42819967D01*
X79569266Y-42819967D02*
X79626409Y-42791396D01*
X79626409Y-42791396D02*
X79654980Y-42762824D01*
X79654980Y-42762824D02*
X79683552Y-42705681D01*
X79683552Y-42705681D02*
X79683552Y-42219967D01*
X79940694Y-42791396D02*
X80026409Y-42819967D01*
X80026409Y-42819967D02*
X80169266Y-42819967D01*
X80169266Y-42819967D02*
X80226409Y-42791396D01*
X80226409Y-42791396D02*
X80254980Y-42762824D01*
X80254980Y-42762824D02*
X80283551Y-42705681D01*
X80283551Y-42705681D02*
X80283551Y-42648538D01*
X80283551Y-42648538D02*
X80254980Y-42591396D01*
X80254980Y-42591396D02*
X80226409Y-42562824D01*
X80226409Y-42562824D02*
X80169266Y-42534253D01*
X80169266Y-42534253D02*
X80054980Y-42505681D01*
X80054980Y-42505681D02*
X79997837Y-42477110D01*
X79997837Y-42477110D02*
X79969266Y-42448538D01*
X79969266Y-42448538D02*
X79940694Y-42391396D01*
X79940694Y-42391396D02*
X79940694Y-42334253D01*
X79940694Y-42334253D02*
X79969266Y-42277110D01*
X79969266Y-42277110D02*
X79997837Y-42248538D01*
X79997837Y-42248538D02*
X80054980Y-42219967D01*
X80054980Y-42219967D02*
X80197837Y-42219967D01*
X80197837Y-42219967D02*
X80283551Y-42248538D01*
X62591396Y-92902162D02*
X62619967Y-92816448D01*
X62619967Y-92816448D02*
X62619967Y-92673590D01*
X62619967Y-92673590D02*
X62591396Y-92616448D01*
X62591396Y-92616448D02*
X62562824Y-92587876D01*
X62562824Y-92587876D02*
X62505681Y-92559305D01*
X62505681Y-92559305D02*
X62448538Y-92559305D01*
X62448538Y-92559305D02*
X62391396Y-92587876D01*
X62391396Y-92587876D02*
X62362824Y-92616448D01*
X62362824Y-92616448D02*
X62334253Y-92673590D01*
X62334253Y-92673590D02*
X62305681Y-92787876D01*
X62305681Y-92787876D02*
X62277110Y-92845019D01*
X62277110Y-92845019D02*
X62248538Y-92873590D01*
X62248538Y-92873590D02*
X62191396Y-92902162D01*
X62191396Y-92902162D02*
X62134253Y-92902162D01*
X62134253Y-92902162D02*
X62077110Y-92873590D01*
X62077110Y-92873590D02*
X62048538Y-92845019D01*
X62048538Y-92845019D02*
X62019967Y-92787876D01*
X62019967Y-92787876D02*
X62019967Y-92645019D01*
X62019967Y-92645019D02*
X62048538Y-92559305D01*
X62019967Y-92359304D02*
X62619967Y-92216447D01*
X62619967Y-92216447D02*
X62191396Y-92102161D01*
X62191396Y-92102161D02*
X62619967Y-91987876D01*
X62619967Y-91987876D02*
X62019967Y-91845019D01*
X62619967Y-91616447D02*
X62019967Y-91616447D01*
X62019967Y-91616447D02*
X62019967Y-91473590D01*
X62019967Y-91473590D02*
X62048538Y-91387876D01*
X62048538Y-91387876D02*
X62105681Y-91330733D01*
X62105681Y-91330733D02*
X62162824Y-91302162D01*
X62162824Y-91302162D02*
X62277110Y-91273590D01*
X62277110Y-91273590D02*
X62362824Y-91273590D01*
X62362824Y-91273590D02*
X62477110Y-91302162D01*
X62477110Y-91302162D02*
X62534253Y-91330733D01*
X62534253Y-91330733D02*
X62591396Y-91387876D01*
X62591396Y-91387876D02*
X62619967Y-91473590D01*
X62619967Y-91473590D02*
X62619967Y-91616447D01*
X62619967Y-91016447D02*
X62019967Y-91016447D01*
X62019967Y-90616448D02*
X62019967Y-90502162D01*
X62019967Y-90502162D02*
X62048538Y-90445019D01*
X62048538Y-90445019D02*
X62105681Y-90387876D01*
X62105681Y-90387876D02*
X62219967Y-90359305D01*
X62219967Y-90359305D02*
X62419967Y-90359305D01*
X62419967Y-90359305D02*
X62534253Y-90387876D01*
X62534253Y-90387876D02*
X62591396Y-90445019D01*
X62591396Y-90445019D02*
X62619967Y-90502162D01*
X62619967Y-90502162D02*
X62619967Y-90616448D01*
X62619967Y-90616448D02*
X62591396Y-90673591D01*
X62591396Y-90673591D02*
X62534253Y-90730733D01*
X62534253Y-90730733D02*
X62419967Y-90759305D01*
X62419967Y-90759305D02*
X62219967Y-90759305D01*
X62219967Y-90759305D02*
X62105681Y-90730733D01*
X62105681Y-90730733D02*
X62048538Y-90673591D01*
X62048538Y-90673591D02*
X62019967Y-90616448D01*
X47060000Y-46790967D02*
X46860000Y-46505253D01*
X46717143Y-46790967D02*
X46717143Y-46190967D01*
X46717143Y-46190967D02*
X46945714Y-46190967D01*
X46945714Y-46190967D02*
X47002857Y-46219538D01*
X47002857Y-46219538D02*
X47031428Y-46248110D01*
X47031428Y-46248110D02*
X47060000Y-46305253D01*
X47060000Y-46305253D02*
X47060000Y-46390967D01*
X47060000Y-46390967D02*
X47031428Y-46448110D01*
X47031428Y-46448110D02*
X47002857Y-46476681D01*
X47002857Y-46476681D02*
X46945714Y-46505253D01*
X46945714Y-46505253D02*
X46717143Y-46505253D01*
X47631428Y-46790967D02*
X47288571Y-46790967D01*
X47460000Y-46790967D02*
X47460000Y-46190967D01*
X47460000Y-46190967D02*
X47402857Y-46276681D01*
X47402857Y-46276681D02*
X47345714Y-46333824D01*
X47345714Y-46333824D02*
X47288571Y-46362396D01*
D13*
%TO.C,J3*%
X67360000Y-41370000D02*
X67360000Y-89690000D01*
X67360000Y-41370000D02*
X70020000Y-41370000D01*
X67360000Y-89690000D02*
X70020000Y-89690000D01*
X68690000Y-38770000D02*
X70020000Y-38770000D01*
X70020000Y-38770000D02*
X70020000Y-40100000D01*
X70020000Y-41370000D02*
X70020000Y-89690000D01*
%TO.C,J5*%
X55945000Y-95960000D02*
X55945000Y-94630000D01*
X57275000Y-95960000D02*
X55945000Y-95960000D01*
X58545000Y-93300000D02*
X63685000Y-93300000D01*
X58545000Y-95960000D02*
X58545000Y-93300000D01*
X58545000Y-95960000D02*
X63685000Y-95960000D01*
X63685000Y-95960000D02*
X63685000Y-93300000D01*
D14*
%TO.C,G\u002A\u002A\u002A*%
G36*
X61050663Y-72903297D02*
G01*
X61135732Y-72907904D01*
X61243258Y-72911343D01*
X61356079Y-72913142D01*
X61413142Y-72913265D01*
X61510554Y-72913574D01*
X61580252Y-72916893D01*
X61634143Y-72925478D01*
X61684132Y-72941585D01*
X61742123Y-72967470D01*
X61769772Y-72980844D01*
X61897591Y-73032150D01*
X62031579Y-73067707D01*
X62058557Y-73072433D01*
X62225708Y-73111857D01*
X62368298Y-73172369D01*
X62484140Y-73251001D01*
X62571051Y-73344784D01*
X62626844Y-73450750D01*
X62649335Y-73565931D01*
X62636338Y-73687360D01*
X62593067Y-73798445D01*
X62560718Y-73863652D01*
X62545977Y-73908200D01*
X62546087Y-73945421D01*
X62555468Y-73980257D01*
X62568607Y-74073466D01*
X62556563Y-74184534D01*
X62522272Y-74303397D01*
X62468666Y-74419993D01*
X62398682Y-74524257D01*
X62395853Y-74527703D01*
X62354035Y-74582541D01*
X62325198Y-74628543D01*
X62316224Y-74652517D01*
X62301128Y-74715032D01*
X62259802Y-74793139D01*
X62198188Y-74879296D01*
X62122227Y-74965963D01*
X62037863Y-75045598D01*
X61959655Y-75105029D01*
X61890478Y-75154143D01*
X61831583Y-75201596D01*
X61793258Y-75238937D01*
X61787706Y-75246289D01*
X61773033Y-75272310D01*
X61771784Y-75295123D01*
X61787958Y-75323673D01*
X61825551Y-75366902D01*
X61856197Y-75399533D01*
X61954085Y-75524446D01*
X62039332Y-75674553D01*
X62104682Y-75835791D01*
X62131615Y-75933333D01*
X62153003Y-76012844D01*
X62178555Y-76084253D01*
X62202741Y-76132101D01*
X62202742Y-76132103D01*
X62231530Y-76180527D01*
X62266405Y-76249358D01*
X62294033Y-76310418D01*
X62348383Y-76411374D01*
X62416103Y-76498270D01*
X62429660Y-76511778D01*
X62526888Y-76624892D01*
X62614898Y-76768878D01*
X62688714Y-76935209D01*
X62707047Y-76987285D01*
X62729264Y-77058787D01*
X62744292Y-77122348D01*
X62753515Y-77189055D01*
X62758316Y-77269992D01*
X62760080Y-77376245D01*
X62760221Y-77413260D01*
X62759678Y-77527134D01*
X62756631Y-77611762D01*
X62749806Y-77677503D01*
X62737924Y-77734718D01*
X62719709Y-77793767D01*
X62709923Y-77821444D01*
X62673085Y-77910580D01*
X62627798Y-78002608D01*
X62589137Y-78069104D01*
X62544195Y-78148484D01*
X62500891Y-78242190D01*
X62476369Y-78307319D01*
X62442417Y-78396399D01*
X62399381Y-78489695D01*
X62367888Y-78547568D01*
X62329810Y-78621363D01*
X62300315Y-78697590D01*
X62288881Y-78743213D01*
X62237848Y-78947591D01*
X62151665Y-79142028D01*
X62034460Y-79321834D01*
X61890359Y-79482317D01*
X61723489Y-79618787D01*
X61537977Y-79726552D01*
X61365210Y-79793134D01*
X61304824Y-79818721D01*
X61229646Y-79861026D01*
X61155197Y-79911251D01*
X61149967Y-79915173D01*
X61068058Y-79972019D01*
X60969944Y-80032754D01*
X60875587Y-80085080D01*
X60867289Y-80089295D01*
X60781230Y-80135586D01*
X60695711Y-80186582D01*
X60626892Y-80232553D01*
X60616931Y-80239999D01*
X60509786Y-80310646D01*
X60379776Y-80378824D01*
X60243300Y-80436700D01*
X60127701Y-80473711D01*
X60011186Y-80493739D01*
X59871592Y-80502580D01*
X59723782Y-80500479D01*
X59582617Y-80487678D01*
X59462961Y-80464421D01*
X59456822Y-80462708D01*
X59332583Y-80422013D01*
X59222263Y-80372581D01*
X59109953Y-80306631D01*
X59037207Y-80257447D01*
X58963619Y-80209237D01*
X58870904Y-80153191D01*
X58775429Y-80099091D01*
X58744476Y-80082473D01*
X58652705Y-80031073D01*
X58558963Y-79973642D01*
X58479205Y-79920101D01*
X58457191Y-79903844D01*
X58385488Y-79855205D01*
X58310670Y-79814337D01*
X58254602Y-79791992D01*
X58192090Y-79768401D01*
X59136538Y-79768401D01*
X59155096Y-79815625D01*
X59156624Y-79818854D01*
X59204013Y-79884340D01*
X59285295Y-79950103D01*
X59398397Y-80015912D01*
X59536242Y-80068700D01*
X59693977Y-80098669D01*
X59858222Y-80104529D01*
X60015600Y-80084990D01*
X60044101Y-80078175D01*
X60199118Y-80024905D01*
X60328590Y-79950619D01*
X60395276Y-79896602D01*
X60453567Y-79826706D01*
X60475430Y-79758259D01*
X60464062Y-79692882D01*
X60422660Y-79632194D01*
X60354422Y-79577815D01*
X60262546Y-79531365D01*
X60150227Y-79494466D01*
X60020664Y-79468736D01*
X59877054Y-79455795D01*
X59722593Y-79457265D01*
X59562246Y-79474487D01*
X59442325Y-79501993D01*
X59332836Y-79543286D01*
X59242000Y-79594154D01*
X59178040Y-79650383D01*
X59157331Y-79681995D01*
X59137245Y-79731294D01*
X59136538Y-79768401D01*
X58192090Y-79768401D01*
X58103833Y-79735094D01*
X57949327Y-79650504D01*
X57804450Y-79546273D01*
X57719809Y-79469844D01*
X57571374Y-79300245D01*
X57459279Y-79122872D01*
X57380280Y-78931806D01*
X57341390Y-78778975D01*
X57318412Y-78694914D01*
X57282540Y-78598402D01*
X57276680Y-78585789D01*
X57725470Y-78585789D01*
X57741578Y-78713447D01*
X57779521Y-78845583D01*
X57833905Y-78965671D01*
X57916148Y-79085637D01*
X58025450Y-79198015D01*
X58152009Y-79295275D01*
X58286022Y-79369882D01*
X58417690Y-79414305D01*
X58417702Y-79414308D01*
X58507528Y-79425466D01*
X58603679Y-79425047D01*
X58692521Y-79414139D01*
X58760420Y-79393831D01*
X58775118Y-79385774D01*
X58832697Y-79325529D01*
X58861601Y-79241265D01*
X58861750Y-79159148D01*
X60754470Y-79159148D01*
X60758930Y-79255488D01*
X60788672Y-79333748D01*
X60844798Y-79390246D01*
X60895903Y-79413540D01*
X60998514Y-79429099D01*
X61120376Y-79422004D01*
X61249511Y-79393990D01*
X61373938Y-79346794D01*
X61381358Y-79343211D01*
X61528880Y-79252587D01*
X61654624Y-79138680D01*
X61756209Y-79006834D01*
X61831256Y-78862395D01*
X61877385Y-78710710D01*
X61892216Y-78557122D01*
X61873370Y-78406978D01*
X61840816Y-78311196D01*
X61788038Y-78229835D01*
X61717174Y-78182370D01*
X61630174Y-78168507D01*
X61528990Y-78187955D01*
X61415570Y-78240422D01*
X61291866Y-78325615D01*
X61196923Y-78407618D01*
X61072831Y-78535115D01*
X60967410Y-78666625D01*
X60881762Y-78798465D01*
X60816987Y-78926954D01*
X60774189Y-79048409D01*
X60754470Y-79159148D01*
X58861750Y-79159148D01*
X58861791Y-79136359D01*
X58833224Y-79014184D01*
X58781174Y-78888753D01*
X58694244Y-78735636D01*
X58590712Y-78591292D01*
X58475765Y-78460615D01*
X58471837Y-78456981D01*
X59055091Y-78456981D01*
X59065140Y-78586607D01*
X59098912Y-78701633D01*
X59100424Y-78704982D01*
X59180302Y-78833719D01*
X59289214Y-78941075D01*
X59421439Y-79024697D01*
X59571257Y-79082234D01*
X59732945Y-79111336D01*
X59900782Y-79109652D01*
X60028637Y-79086411D01*
X60191956Y-79025997D01*
X60331278Y-78937250D01*
X60443158Y-78822852D01*
X60513396Y-78708930D01*
X60552814Y-78586240D01*
X60563515Y-78450601D01*
X60545695Y-78316165D01*
X60506548Y-78210044D01*
X60418410Y-78079177D01*
X60306366Y-77974605D01*
X60175780Y-77896305D01*
X60032015Y-77844252D01*
X59880435Y-77818424D01*
X59726402Y-77818798D01*
X59575280Y-77845349D01*
X59432433Y-77898053D01*
X59303223Y-77976888D01*
X59193013Y-78081830D01*
X59107168Y-78212856D01*
X59105514Y-78216195D01*
X59068603Y-78328322D01*
X59055091Y-78456981D01*
X58471837Y-78456981D01*
X58354586Y-78348497D01*
X58232360Y-78259831D01*
X58114273Y-78199510D01*
X58024503Y-78174679D01*
X57933170Y-78177670D01*
X57856938Y-78213081D01*
X57796930Y-78276255D01*
X57754268Y-78362536D01*
X57730074Y-78467267D01*
X57725470Y-78585789D01*
X57276680Y-78585789D01*
X57242804Y-78512870D01*
X57201274Y-78428954D01*
X57162822Y-78341749D01*
X57135708Y-78270002D01*
X57135521Y-78269423D01*
X57103546Y-78190165D01*
X57059890Y-78105589D01*
X57035805Y-78066622D01*
X56939912Y-77889629D01*
X56878918Y-77695140D01*
X56852610Y-77482291D01*
X56853528Y-77383541D01*
X57254328Y-77383541D01*
X57255420Y-77490510D01*
X57259350Y-77568131D01*
X57267530Y-77626653D01*
X57281372Y-77676327D01*
X57301408Y-77725456D01*
X57339934Y-77794106D01*
X57389391Y-77859246D01*
X57441505Y-77911953D01*
X57488005Y-77943301D01*
X57507903Y-77948206D01*
X57542188Y-77937581D01*
X57573347Y-77919612D01*
X57618317Y-77869691D01*
X57661930Y-77788046D01*
X57701857Y-77682566D01*
X57735771Y-77561139D01*
X57761340Y-77431657D01*
X57776237Y-77302006D01*
X57779095Y-77222701D01*
X57773943Y-77114783D01*
X57772060Y-77100146D01*
X58145946Y-77100146D01*
X58148501Y-77231308D01*
X58167155Y-77350036D01*
X58191395Y-77422076D01*
X58274390Y-77567402D01*
X58375548Y-77677626D01*
X58495729Y-77753290D01*
X58635792Y-77794940D01*
X58793219Y-77803280D01*
X58892414Y-77794691D01*
X58973137Y-77775908D01*
X59056222Y-77741781D01*
X59071103Y-77734564D01*
X59216403Y-77641992D01*
X59345067Y-77517893D01*
X59450452Y-77369083D01*
X59478639Y-77316419D01*
X59513842Y-77241580D01*
X59536103Y-77180143D01*
X59548942Y-77117271D01*
X59555879Y-77038128D01*
X59558560Y-76979601D01*
X59557600Y-76932797D01*
X60043499Y-76932797D01*
X60058859Y-77101478D01*
X60107976Y-77266453D01*
X60189702Y-77421940D01*
X60302888Y-77562155D01*
X60309617Y-77568924D01*
X60449086Y-77684045D01*
X60598043Y-77762323D01*
X60753936Y-77803022D01*
X60914213Y-77805411D01*
X61042684Y-77779601D01*
X61148332Y-77730751D01*
X61250854Y-77651940D01*
X61340246Y-77552231D01*
X61398885Y-77456900D01*
X61424361Y-77401217D01*
X61440623Y-77351605D01*
X61449694Y-77296320D01*
X61453599Y-77223618D01*
X61453706Y-77211223D01*
X61825753Y-77211223D01*
X61836466Y-77399591D01*
X61868115Y-77580694D01*
X61919866Y-77741755D01*
X61929094Y-77762916D01*
X61981900Y-77861568D01*
X62034422Y-77921841D01*
X62088723Y-77944913D01*
X62146867Y-77931960D01*
X62183544Y-77908106D01*
X62236675Y-77847891D01*
X62286137Y-77758017D01*
X62327460Y-77648443D01*
X62356179Y-77529125D01*
X62357736Y-77519841D01*
X62367446Y-77337867D01*
X62338298Y-77156295D01*
X62272786Y-76982816D01*
X62206658Y-76867856D01*
X62138503Y-76784809D01*
X62071157Y-76734513D01*
X62007454Y-76717808D01*
X61950228Y-76735531D01*
X61902316Y-76788522D01*
X61870464Y-76863796D01*
X61836807Y-77028365D01*
X61825753Y-77211223D01*
X61453706Y-77211223D01*
X61454368Y-77134853D01*
X61453649Y-77039393D01*
X61449772Y-76970988D01*
X61440151Y-76917074D01*
X61422203Y-76865086D01*
X61393345Y-76802459D01*
X61380745Y-76776827D01*
X61281059Y-76609644D01*
X61163488Y-76476992D01*
X61025877Y-76377032D01*
X60866071Y-76307927D01*
X60813593Y-76292966D01*
X60660635Y-76272650D01*
X60513670Y-76288789D01*
X60378038Y-76338967D01*
X60259079Y-76420767D01*
X60162135Y-76531773D01*
X60118647Y-76607448D01*
X60063046Y-76766193D01*
X60043499Y-76932797D01*
X59557600Y-76932797D01*
X59555377Y-76824463D01*
X59530768Y-76695313D01*
X59482090Y-76583248D01*
X59411828Y-76485300D01*
X59301447Y-76383603D01*
X59176940Y-76315596D01*
X59042715Y-76279947D01*
X58903178Y-76275321D01*
X58762738Y-76300386D01*
X58625801Y-76353807D01*
X58496775Y-76434252D01*
X58380068Y-76540386D01*
X58280086Y-76670877D01*
X58201238Y-76824391D01*
X58189331Y-76855176D01*
X58159539Y-76970214D01*
X58145946Y-77100146D01*
X57772060Y-77100146D01*
X57759886Y-77005499D01*
X57739017Y-76904490D01*
X57713433Y-76821399D01*
X57685229Y-76765868D01*
X57677975Y-76757382D01*
X57619510Y-76721404D01*
X57555903Y-76723136D01*
X57489045Y-76761294D01*
X57420829Y-76834594D01*
X57353147Y-76941750D01*
X57325116Y-76997000D01*
X57294980Y-77061722D01*
X57274861Y-77113226D01*
X57262751Y-77162489D01*
X57256637Y-77220492D01*
X57254509Y-77298212D01*
X57254328Y-77383541D01*
X56853528Y-77383541D01*
X56853989Y-77334009D01*
X56883911Y-77106753D01*
X56946238Y-76896758D01*
X57039599Y-76707438D01*
X57162623Y-76542210D01*
X57178928Y-76524571D01*
X57228965Y-76469208D01*
X57266074Y-76423483D01*
X57283457Y-76395884D01*
X57283968Y-76393393D01*
X57293008Y-76360560D01*
X57315767Y-76305815D01*
X57346211Y-76241599D01*
X57378307Y-76180352D01*
X57405006Y-76136192D01*
X57861198Y-76136192D01*
X57869559Y-76204422D01*
X57876419Y-76221243D01*
X57917223Y-76258450D01*
X57982995Y-76266814D01*
X58071801Y-76246588D01*
X58181708Y-76198024D01*
X58221701Y-76176152D01*
X58353502Y-76093685D01*
X58480333Y-76000671D01*
X58597704Y-75901666D01*
X58701122Y-75801231D01*
X58729568Y-75768656D01*
X59061523Y-75768656D01*
X59079522Y-75853580D01*
X59133933Y-75927591D01*
X59225373Y-75991196D01*
X59354462Y-76044897D01*
X59426529Y-76066380D01*
X59541778Y-76087987D01*
X59681187Y-76099631D01*
X59832247Y-76101553D01*
X59982449Y-76093995D01*
X60119284Y-76077201D01*
X60230242Y-76051411D01*
X60232201Y-76050776D01*
X60363815Y-75997684D01*
X60458456Y-75935995D01*
X60518107Y-75864359D01*
X60524446Y-75852074D01*
X60545460Y-75780770D01*
X60536181Y-75711399D01*
X60494546Y-75637839D01*
X60426675Y-75561974D01*
X60325832Y-75481967D01*
X60716138Y-75481967D01*
X60732917Y-75553345D01*
X60784549Y-75643230D01*
X60870987Y-75751853D01*
X60912838Y-75797972D01*
X61027309Y-75910601D01*
X61153882Y-76018254D01*
X61283953Y-76114651D01*
X61408919Y-76193512D01*
X61520175Y-76248560D01*
X61541193Y-76256578D01*
X61607202Y-76277181D01*
X61652324Y-76281268D01*
X61691376Y-76269509D01*
X61702478Y-76263877D01*
X61738186Y-76223322D01*
X61754535Y-76154344D01*
X61750805Y-76063489D01*
X61733466Y-75981537D01*
X61670065Y-75823498D01*
X61575259Y-75682264D01*
X61454589Y-75562391D01*
X61313591Y-75468437D01*
X61157804Y-75404958D01*
X60998498Y-75376856D01*
X60875391Y-75376540D01*
X60787327Y-75393798D01*
X60734259Y-75428862D01*
X60716138Y-75481967D01*
X60325832Y-75481967D01*
X60289036Y-75452774D01*
X60132719Y-75375108D01*
X59963591Y-75329403D01*
X59787523Y-75316086D01*
X59610383Y-75335584D01*
X59438038Y-75388326D01*
X59276359Y-75474737D01*
X59271680Y-75477891D01*
X59163772Y-75565008D01*
X59094048Y-75653704D01*
X59063137Y-75743107D01*
X59061523Y-75768656D01*
X58729568Y-75768656D01*
X58786096Y-75703923D01*
X58848134Y-75614301D01*
X58882744Y-75536923D01*
X58888481Y-75499443D01*
X58871668Y-75433561D01*
X58822928Y-75387551D01*
X58745290Y-75362623D01*
X58641783Y-75359988D01*
X58565127Y-75370232D01*
X58415494Y-75415116D01*
X58269178Y-75490502D01*
X58134853Y-75589796D01*
X58021187Y-75706402D01*
X57936852Y-75833724D01*
X57925793Y-75856535D01*
X57890849Y-75950917D01*
X57868807Y-76047913D01*
X57861198Y-76136192D01*
X57405006Y-76136192D01*
X57406021Y-76134513D01*
X57415522Y-76122153D01*
X57434503Y-76087792D01*
X57457709Y-76026685D01*
X57480729Y-75950763D01*
X57485174Y-75933867D01*
X57534165Y-75783351D01*
X57601425Y-75635024D01*
X57680568Y-75501093D01*
X57765208Y-75393765D01*
X57770750Y-75387997D01*
X57861891Y-75294481D01*
X57818824Y-75233999D01*
X57772924Y-75186129D01*
X57711915Y-75141737D01*
X57694715Y-75132173D01*
X57596310Y-75066426D01*
X57497980Y-74973614D01*
X57410004Y-74864957D01*
X57342666Y-74751679D01*
X57339033Y-74743958D01*
X57299418Y-74665168D01*
X57256260Y-74589997D01*
X57220659Y-74537154D01*
X57152339Y-74431293D01*
X57099124Y-74313269D01*
X57063734Y-74192908D01*
X57048887Y-74080037D01*
X57057300Y-73984484D01*
X57062727Y-73966230D01*
X57073362Y-73922961D01*
X57066919Y-73885224D01*
X57039808Y-73836413D01*
X57032115Y-73824654D01*
X56985818Y-73721569D01*
X56968501Y-73603876D01*
X56971154Y-73579646D01*
X57389942Y-73579646D01*
X57395820Y-73610196D01*
X57423490Y-73657393D01*
X57449121Y-73690247D01*
X57511200Y-73773938D01*
X57559817Y-73861101D01*
X57590003Y-73941235D01*
X57596935Y-74002650D01*
X57584996Y-74041017D01*
X57552880Y-74054719D01*
X57533107Y-74055764D01*
X57475886Y-74067945D01*
X57450307Y-74103050D01*
X57456051Y-74161855D01*
X57472055Y-74203719D01*
X57499539Y-74248011D01*
X57544394Y-74303870D01*
X57598645Y-74363148D01*
X57654320Y-74417701D01*
X57703444Y-74459380D01*
X57738045Y-74480040D01*
X57743424Y-74480967D01*
X57760093Y-74490639D01*
X57751115Y-74511093D01*
X57722655Y-74529481D01*
X57719656Y-74530499D01*
X57688393Y-74548646D01*
X57684698Y-74578069D01*
X57709630Y-74623798D01*
X57749900Y-74674338D01*
X57798440Y-74719911D01*
X57864431Y-74767981D01*
X57936271Y-74811563D01*
X58002363Y-74843672D01*
X58051105Y-74857324D01*
X58053957Y-74857410D01*
X58085722Y-74863958D01*
X58126682Y-74877551D01*
X58161851Y-74896166D01*
X58163180Y-74916448D01*
X58157349Y-74924572D01*
X58143884Y-74965284D01*
X58167457Y-75007013D01*
X58225596Y-75047737D01*
X58315831Y-75085436D01*
X58376299Y-75103626D01*
X58550186Y-75131033D01*
X58730894Y-75123606D01*
X58793525Y-75112706D01*
X58917204Y-75075616D01*
X59033670Y-75020348D01*
X59135600Y-74952128D01*
X59215667Y-74876182D01*
X59266546Y-74797736D01*
X59276820Y-74767897D01*
X59281206Y-74732099D01*
X59273854Y-74694786D01*
X59251554Y-74651297D01*
X59211097Y-74596970D01*
X59149273Y-74527145D01*
X59062872Y-74437160D01*
X59017394Y-74391137D01*
X58786134Y-74180887D01*
X58540874Y-74000357D01*
X58287660Y-73853846D01*
X58210205Y-73816786D01*
X58135859Y-73781349D01*
X58077449Y-73750447D01*
X58042870Y-73728425D01*
X58036843Y-73721386D01*
X58053838Y-73710858D01*
X58101014Y-73713836D01*
X58172065Y-73728366D01*
X58260689Y-73752492D01*
X58360579Y-73784261D01*
X58465431Y-73821719D01*
X58568941Y-73862912D01*
X58664805Y-73905884D01*
X58716953Y-73932201D01*
X58867053Y-74022935D01*
X59018259Y-74133566D01*
X59158204Y-74254145D01*
X59274519Y-74374725D01*
X59289678Y-74392825D01*
X59356983Y-74468076D01*
X59408650Y-74510661D01*
X59435893Y-74520328D01*
X59478529Y-74504405D01*
X59529959Y-74462772D01*
X59581538Y-74405301D01*
X59624620Y-74341861D01*
X59650558Y-74282325D01*
X59652743Y-74272762D01*
X59659319Y-74136794D01*
X59656758Y-74122978D01*
X59965510Y-74122978D01*
X59968908Y-74244550D01*
X59986752Y-74311470D01*
X60020189Y-74374750D01*
X60067843Y-74436473D01*
X60120428Y-74486982D01*
X60168663Y-74516617D01*
X60187755Y-74520592D01*
X60211901Y-74506922D01*
X60256861Y-74469522D01*
X60316604Y-74413810D01*
X60385098Y-74345202D01*
X60398233Y-74331544D01*
X60610730Y-74134775D01*
X60837916Y-73974304D01*
X61081967Y-73848836D01*
X61345058Y-73757070D01*
X61373895Y-73749332D01*
X61484345Y-73722665D01*
X61557789Y-73709859D01*
X61594139Y-73710724D01*
X61593306Y-73725068D01*
X61555202Y-73752701D01*
X61479737Y-73793433D01*
X61410079Y-73827092D01*
X61168543Y-73956135D01*
X60939095Y-74112355D01*
X60715022Y-74300591D01*
X60600048Y-74411083D01*
X60519765Y-74493140D01*
X60449190Y-74568496D01*
X60393315Y-74631565D01*
X60357128Y-74676761D01*
X60345928Y-74695514D01*
X60345534Y-74757003D01*
X60374513Y-74829062D01*
X60426977Y-74904183D01*
X60497037Y-74974859D01*
X60578806Y-75033582D01*
X60632137Y-75060419D01*
X60776571Y-75106006D01*
X60934299Y-75130486D01*
X61092332Y-75133171D01*
X61237685Y-75113376D01*
X61299199Y-75095665D01*
X61392265Y-75057394D01*
X61449220Y-75019538D01*
X61473436Y-74979175D01*
X61472233Y-74945860D01*
X61470644Y-74914932D01*
X61491344Y-74894296D01*
X61536945Y-74876591D01*
X61671292Y-74822302D01*
X61782337Y-74755514D01*
X61858525Y-74685169D01*
X61901740Y-74627173D01*
X61916788Y-74587099D01*
X61904677Y-74556055D01*
X61875934Y-74531622D01*
X61831900Y-74500780D01*
X61880887Y-74467522D01*
X61961997Y-74403011D01*
X62037529Y-74326266D01*
X62098490Y-74247703D01*
X62135887Y-74177736D01*
X62138859Y-74168788D01*
X62153720Y-74107696D01*
X62148315Y-74074459D01*
X62117556Y-74060326D01*
X62073848Y-74056973D01*
X62031578Y-74052797D01*
X62014414Y-74035776D01*
X62012740Y-73993844D01*
X62013431Y-73981175D01*
X62037509Y-73876999D01*
X62095958Y-73767217D01*
X62165669Y-73679306D01*
X62205722Y-73632613D01*
X62231591Y-73596765D01*
X62236973Y-73584405D01*
X62219154Y-73564060D01*
X62171847Y-73538795D01*
X62104272Y-73512155D01*
X62025654Y-73487681D01*
X61945215Y-73468915D01*
X61928688Y-73465987D01*
X61812767Y-73454971D01*
X61705157Y-73464663D01*
X61689347Y-73467673D01*
X61627022Y-73478298D01*
X61581994Y-73482447D01*
X61566610Y-73480391D01*
X61567679Y-73457865D01*
X61583381Y-73420552D01*
X61598111Y-73375332D01*
X61583224Y-73345226D01*
X61535866Y-73328306D01*
X61453188Y-73322646D01*
X61438469Y-73322643D01*
X61331282Y-73332211D01*
X61230523Y-73363434D01*
X61199360Y-73377128D01*
X61136719Y-73404909D01*
X61088090Y-73424329D01*
X61065549Y-73430889D01*
X61055019Y-73413681D01*
X61052732Y-73371727D01*
X61053083Y-73366497D01*
X61054356Y-73326620D01*
X61042974Y-73308808D01*
X61008646Y-73305604D01*
X60971859Y-73307649D01*
X60855623Y-73328851D01*
X60751686Y-73379724D01*
X60676502Y-73438870D01*
X60622408Y-73485605D01*
X60590634Y-73506200D01*
X60575861Y-73502910D01*
X60572698Y-73482847D01*
X60558725Y-73447993D01*
X60543480Y-73431305D01*
X60504045Y-73422838D01*
X60444777Y-73440549D01*
X60372117Y-73480950D01*
X60292507Y-73540557D01*
X60223461Y-73604457D01*
X60122921Y-73724947D01*
X60044856Y-73856189D01*
X59991606Y-73991195D01*
X59965510Y-74122978D01*
X59656758Y-74122978D01*
X59632752Y-73993491D01*
X59576658Y-73850312D01*
X59494653Y-73714719D01*
X59390355Y-73594170D01*
X59280435Y-73504721D01*
X59198383Y-73452499D01*
X59141042Y-73424691D01*
X59102873Y-73420115D01*
X59078339Y-73437590D01*
X59067432Y-73459278D01*
X59048251Y-73497405D01*
X59025721Y-73505947D01*
X58992269Y-73484193D01*
X58956709Y-73448887D01*
X58853597Y-73366908D01*
X58734764Y-73318517D01*
X58656429Y-73306972D01*
X58561700Y-73302106D01*
X58566729Y-73366497D01*
X58565467Y-73410201D01*
X58555668Y-73430677D01*
X58554263Y-73430889D01*
X58528376Y-73423102D01*
X58478096Y-73402784D01*
X58420451Y-73377128D01*
X58327407Y-73343638D01*
X58230612Y-73324649D01*
X58140300Y-73320708D01*
X58066709Y-73332361D01*
X58023882Y-73355974D01*
X58001501Y-73383253D01*
X58006197Y-73406295D01*
X58026306Y-73430394D01*
X58049391Y-73463222D01*
X58051805Y-73481787D01*
X58027989Y-73484326D01*
X57977159Y-73479829D01*
X57921283Y-73471149D01*
X57829042Y-73462287D01*
X57727570Y-73465234D01*
X57625614Y-73478203D01*
X57531916Y-73499409D01*
X57455222Y-73527067D01*
X57404275Y-73559390D01*
X57389942Y-73579646D01*
X56971154Y-73579646D01*
X56981480Y-73485334D01*
X56995421Y-73440835D01*
X57055422Y-73336990D01*
X57149159Y-73244749D01*
X57271653Y-73167270D01*
X57417928Y-73107709D01*
X57580967Y-73069542D01*
X57666617Y-73049543D01*
X57764645Y-73017079D01*
X57848891Y-72981433D01*
X57908781Y-72953076D01*
X57957622Y-72933922D01*
X58005799Y-72922109D01*
X58063695Y-72915776D01*
X58141692Y-72913064D01*
X58235240Y-72912194D01*
X58351151Y-72911457D01*
X58472346Y-72910557D01*
X58582675Y-72909620D01*
X58650858Y-72908944D01*
X58745394Y-72910209D01*
X58815078Y-72918080D01*
X58874463Y-72934999D01*
X58918330Y-72953832D01*
X58998036Y-72983947D01*
X59089498Y-73008056D01*
X59133382Y-73015682D01*
X59289614Y-73055805D01*
X59444838Y-73135065D01*
X59598184Y-73252974D01*
X59659841Y-73311897D01*
X59806968Y-73460608D01*
X59957033Y-73310577D01*
X60093205Y-73190783D01*
X60231289Y-73100275D01*
X60366079Y-73042005D01*
X60467928Y-73020598D01*
X60547132Y-73006148D01*
X60626839Y-72981750D01*
X60645224Y-72974146D01*
X60788174Y-72922769D01*
X60929800Y-72901335D01*
X61050663Y-72903297D01*
G37*
D13*
%TO.C,J2*%
X49580000Y-41370000D02*
X49580000Y-89690000D01*
X49580000Y-41370000D02*
X52240000Y-41370000D01*
X49580000Y-89690000D02*
X52240000Y-89690000D01*
X50910000Y-38770000D02*
X52240000Y-38770000D01*
X52240000Y-38770000D02*
X52240000Y-40100000D01*
X52240000Y-41370000D02*
X52240000Y-89690000D01*
%TO.C,J1*%
X42080000Y-38770000D02*
X43410000Y-38770000D01*
X42080000Y-40100000D02*
X42080000Y-38770000D01*
X42080000Y-41370000D02*
X42080000Y-89690000D01*
X42080000Y-41370000D02*
X44740000Y-41370000D01*
X42080000Y-89690000D02*
X44740000Y-89690000D01*
X44740000Y-41370000D02*
X44740000Y-89690000D01*
%TO.C,J6*%
X55945000Y-86800000D02*
X57275000Y-86800000D01*
X55945000Y-88130000D02*
X55945000Y-86800000D01*
X58545000Y-86800000D02*
X63685000Y-86800000D01*
X58545000Y-89460000D02*
X58545000Y-86800000D01*
X58545000Y-89460000D02*
X63685000Y-89460000D01*
X63685000Y-89460000D02*
X63685000Y-86800000D01*
%TO.C,J4*%
X74860000Y-38770000D02*
X76190000Y-38770000D01*
X74860000Y-40100000D02*
X74860000Y-38770000D01*
X74860000Y-41370000D02*
X74860000Y-89690000D01*
X74860000Y-41370000D02*
X77520000Y-41370000D01*
X74860000Y-89690000D02*
X77520000Y-89690000D01*
X77520000Y-41370000D02*
X77520000Y-89690000D01*
D15*
%TO.C,REF\u002A\u002A*%
X49310000Y-38740000D02*
X49310000Y-39080000D01*
X49310000Y-39150000D02*
X49310000Y-89400000D01*
X49310000Y-89400000D02*
X49310000Y-89740000D01*
X49310000Y-89740000D02*
X56240000Y-89740000D01*
X55810000Y-37840000D02*
X55810000Y-37440000D01*
X56010000Y-37840000D02*
X56010000Y-38710000D01*
X56010000Y-38710000D02*
X55980000Y-38740000D01*
X56240000Y-89740000D02*
X63390000Y-89740000D01*
X63390000Y-89740000D02*
X70310000Y-89740000D01*
X63620000Y-37840000D02*
X63620000Y-38740000D01*
X63810000Y-37440000D02*
X55810000Y-37440000D01*
X63810000Y-37440000D02*
X63810000Y-37840000D01*
X63810000Y-37840000D02*
X55810000Y-37840000D01*
X70310000Y-38740000D02*
X49310000Y-38740000D01*
X70310000Y-39080000D02*
X70310000Y-38740000D01*
X70310000Y-89400000D02*
X70310000Y-39150000D01*
X70310000Y-89740000D02*
X70310000Y-89400000D01*
D13*
%TO.C,R1*%
X46922742Y-47197500D02*
X47397258Y-47197500D01*
X46922742Y-48242500D02*
X47397258Y-48242500D01*
%TD*%
%LPC*%
D16*
%TO.C,J3*%
X68690000Y-40100000D03*
D17*
X68690000Y-42640000D03*
X68690000Y-45180000D03*
X68690000Y-47720000D03*
X68690000Y-50260000D03*
X68690000Y-52800000D03*
X68690000Y-55340000D03*
X68690000Y-57880000D03*
X68690000Y-60420000D03*
X68690000Y-62960000D03*
X68690000Y-65500000D03*
X68690000Y-68040000D03*
X68690000Y-70580000D03*
X68690000Y-73120000D03*
X68690000Y-75660000D03*
X68690000Y-78200000D03*
X68690000Y-80740000D03*
X68690000Y-83280000D03*
X68690000Y-85820000D03*
X68690000Y-88360000D03*
%TD*%
D16*
%TO.C,J5*%
X57275000Y-94630000D03*
D17*
X59815000Y-94630000D03*
X62355000Y-94630000D03*
%TD*%
D16*
%TO.C,J2*%
X50910000Y-40100000D03*
D17*
X50910000Y-42640000D03*
X50910000Y-45180000D03*
X50910000Y-47720000D03*
X50910000Y-50260000D03*
X50910000Y-52800000D03*
X50910000Y-55340000D03*
X50910000Y-57880000D03*
X50910000Y-60420000D03*
X50910000Y-62960000D03*
X50910000Y-65500000D03*
X50910000Y-68040000D03*
X50910000Y-70580000D03*
X50910000Y-73120000D03*
X50910000Y-75660000D03*
X50910000Y-78200000D03*
X50910000Y-80740000D03*
X50910000Y-83280000D03*
X50910000Y-85820000D03*
X50910000Y-88360000D03*
%TD*%
D16*
%TO.C,J1*%
X43410000Y-40100000D03*
D17*
X43410000Y-42640000D03*
X43410000Y-45180000D03*
X43410000Y-47720000D03*
X43410000Y-50260000D03*
X43410000Y-52800000D03*
X43410000Y-55340000D03*
X43410000Y-57880000D03*
X43410000Y-60420000D03*
X43410000Y-62960000D03*
X43410000Y-65500000D03*
X43410000Y-68040000D03*
X43410000Y-70580000D03*
X43410000Y-73120000D03*
X43410000Y-75660000D03*
X43410000Y-78200000D03*
X43410000Y-80740000D03*
X43410000Y-83280000D03*
X43410000Y-85820000D03*
X43410000Y-88360000D03*
%TD*%
D16*
%TO.C,J6*%
X57275000Y-88130000D03*
D17*
X59815000Y-88130000D03*
X62355000Y-88130000D03*
%TD*%
D16*
%TO.C,J4*%
X76190000Y-40100000D03*
D17*
X76190000Y-42640000D03*
X76190000Y-45180000D03*
X76190000Y-47720000D03*
X76190000Y-50260000D03*
X76190000Y-52800000D03*
X76190000Y-55340000D03*
X76190000Y-57880000D03*
X76190000Y-60420000D03*
X76190000Y-62960000D03*
X76190000Y-65500000D03*
X76190000Y-68040000D03*
X76190000Y-70580000D03*
X76190000Y-73120000D03*
X76190000Y-75660000D03*
X76190000Y-78200000D03*
X76190000Y-80740000D03*
X76190000Y-83280000D03*
X76190000Y-85820000D03*
X76190000Y-88360000D03*
%TD*%
D18*
%TO.C,R1*%
X46335000Y-47720000D03*
X47985000Y-47720000D03*
%TD*%
%LPD*%
M02*
