%TF.GenerationSoftware,KiCad,Pcbnew,8.0.4*%
%TF.CreationDate,2025-04-08T19:57:02-07:00*%
%TF.ProjectId,pico-breakout,7069636f-2d62-4726-9561-6b6f75742e6b,rev?*%
%TF.SameCoordinates,Original*%
%TF.FileFunction,Soldermask,Bot*%
%TF.FilePolarity,Negative*%
%FSLAX46Y46*%
G04 Gerber Fmt 4.6, Leading zero omitted, Abs format (unit mm)*
G04 Created by KiCad (PCBNEW 8.0.4) date 2025-04-08 19:57:02*
%MOMM*%
%LPD*%
G01*
G04 APERTURE LIST*
%ADD10R,1.700000X1.700000*%
%ADD11O,1.700000X1.700000*%
G04 APERTURE END LIST*
D10*
%TO.C,J3*%
X68690000Y-40100000D03*
D11*
X68690000Y-42640000D03*
X68690000Y-45180000D03*
X68690000Y-47720000D03*
X68690000Y-50260000D03*
X68690000Y-52800000D03*
X68690000Y-55340000D03*
X68690000Y-57880000D03*
X68690000Y-60420000D03*
X68690000Y-62960000D03*
X68690000Y-65500000D03*
X68690000Y-68040000D03*
X68690000Y-70580000D03*
X68690000Y-73120000D03*
X68690000Y-75660000D03*
X68690000Y-78200000D03*
X68690000Y-80740000D03*
X68690000Y-83280000D03*
X68690000Y-85820000D03*
X68690000Y-88360000D03*
%TD*%
D10*
%TO.C,J5*%
X57275000Y-94630000D03*
D11*
X59815000Y-94630000D03*
X62355000Y-94630000D03*
%TD*%
D10*
%TO.C,J2*%
X50910000Y-40100000D03*
D11*
X50910000Y-42640000D03*
X50910000Y-45180000D03*
X50910000Y-47720000D03*
X50910000Y-50260000D03*
X50910000Y-52800000D03*
X50910000Y-55340000D03*
X50910000Y-57880000D03*
X50910000Y-60420000D03*
X50910000Y-62960000D03*
X50910000Y-65500000D03*
X50910000Y-68040000D03*
X50910000Y-70580000D03*
X50910000Y-73120000D03*
X50910000Y-75660000D03*
X50910000Y-78200000D03*
X50910000Y-80740000D03*
X50910000Y-83280000D03*
X50910000Y-85820000D03*
X50910000Y-88360000D03*
%TD*%
D10*
%TO.C,J1*%
X44410000Y-40100000D03*
D11*
X44410000Y-42640000D03*
X44410000Y-45180000D03*
X44410000Y-47720000D03*
X44410000Y-50260000D03*
X44410000Y-52800000D03*
X44410000Y-55340000D03*
X44410000Y-57880000D03*
X44410000Y-60420000D03*
X44410000Y-62960000D03*
X44410000Y-65500000D03*
X44410000Y-68040000D03*
X44410000Y-70580000D03*
X44410000Y-73120000D03*
X44410000Y-75660000D03*
X44410000Y-78200000D03*
X44410000Y-80740000D03*
X44410000Y-83280000D03*
X44410000Y-85820000D03*
X44410000Y-88360000D03*
%TD*%
D10*
%TO.C,J6*%
X57275000Y-88130000D03*
D11*
X59815000Y-88130000D03*
X62355000Y-88130000D03*
%TD*%
D10*
%TO.C,J4*%
X75190000Y-40100000D03*
D11*
X75190000Y-42640000D03*
X75190000Y-45180000D03*
X75190000Y-47720000D03*
X75190000Y-50260000D03*
X75190000Y-52800000D03*
X75190000Y-55340000D03*
X75190000Y-57880000D03*
X75190000Y-60420000D03*
X75190000Y-62960000D03*
X75190000Y-65500000D03*
X75190000Y-68040000D03*
X75190000Y-70580000D03*
X75190000Y-73120000D03*
X75190000Y-75660000D03*
X75190000Y-78200000D03*
X75190000Y-80740000D03*
X75190000Y-83280000D03*
X75190000Y-85820000D03*
X75190000Y-88360000D03*
%TD*%
M02*
