%TF.GenerationSoftware,KiCad,Pcbnew,8.0.4*%
%TF.CreationDate,2025-04-17T12:18:48-07:00*%
%TF.ProjectId,pico-breakout,7069636f-2d62-4726-9561-6b6f75742e6b,rev?*%
%TF.SameCoordinates,Original*%
%TF.FileFunction,Copper,L1,Top*%
%TF.FilePolarity,Positive*%
%FSLAX46Y46*%
G04 Gerber Fmt 4.6, Leading zero omitted, Abs format (unit mm)*
G04 Created by KiCad (PCBNEW 8.0.4) date 2025-04-17 12:18:48*
%MOMM*%
%LPD*%
G01*
G04 APERTURE LIST*
G04 Aperture macros list*
%AMRoundRect*
0 Rectangle with rounded corners*
0 $1 Rounding radius*
0 $2 $3 $4 $5 $6 $7 $8 $9 X,Y pos of 4 corners*
0 Add a 4 corners polygon primitive as box body*
4,1,4,$2,$3,$4,$5,$6,$7,$8,$9,$2,$3,0*
0 Add four circle primitives for the rounded corners*
1,1,$1+$1,$2,$3*
1,1,$1+$1,$4,$5*
1,1,$1+$1,$6,$7*
1,1,$1+$1,$8,$9*
0 Add four rect primitives between the rounded corners*
20,1,$1+$1,$2,$3,$4,$5,0*
20,1,$1+$1,$4,$5,$6,$7,0*
20,1,$1+$1,$6,$7,$8,$9,0*
20,1,$1+$1,$8,$9,$2,$3,0*%
G04 Aperture macros list end*
%TA.AperFunction,ComponentPad*%
%ADD10R,1.700000X1.700000*%
%TD*%
%TA.AperFunction,ComponentPad*%
%ADD11O,1.700000X1.700000*%
%TD*%
%TA.AperFunction,SMDPad,CuDef*%
%ADD12RoundRect,0.200000X-0.200000X-0.275000X0.200000X-0.275000X0.200000X0.275000X-0.200000X0.275000X0*%
%TD*%
%TA.AperFunction,ViaPad*%
%ADD13C,0.800000*%
%TD*%
%TA.AperFunction,Conductor*%
%ADD14C,0.406400*%
%TD*%
G04 APERTURE END LIST*
D10*
%TO.P,J3,1,Pin_1*%
%TO.N,Net-(J3-Pin_1)*%
X68690000Y-40100000D03*
D11*
%TO.P,J3,2,Pin_2*%
%TO.N,Net-(J3-Pin_2)*%
X68690000Y-42640000D03*
%TO.P,J3,3,Pin_3*%
%TO.N,GND*%
X68690000Y-45180000D03*
%TO.P,J3,4,Pin_4*%
%TO.N,Net-(J3-Pin_4)*%
X68690000Y-47720000D03*
%TO.P,J3,5,Pin_5*%
%TO.N,Net-(J3-Pin_5)*%
X68690000Y-50260000D03*
%TO.P,J3,6,Pin_6*%
%TO.N,Net-(J3-Pin_6)*%
X68690000Y-52800000D03*
%TO.P,J3,7,Pin_7*%
%TO.N,Net-(J3-Pin_7)*%
X68690000Y-55340000D03*
%TO.P,J3,8,Pin_8*%
%TO.N,Net-(J3-Pin_8)*%
X68690000Y-57880000D03*
%TO.P,J3,9,Pin_9*%
%TO.N,Net-(J3-Pin_9)*%
X68690000Y-60420000D03*
%TO.P,J3,10,Pin_10*%
%TO.N,Net-(J3-Pin_10)*%
X68690000Y-62960000D03*
%TO.P,J3,11,Pin_11*%
%TO.N,Net-(J3-Pin_11)*%
X68690000Y-65500000D03*
%TO.P,J3,12,Pin_12*%
%TO.N,Net-(J3-Pin_12)*%
X68690000Y-68040000D03*
%TO.P,J3,13,Pin_13*%
%TO.N,GND*%
X68690000Y-70580000D03*
%TO.P,J3,14,Pin_14*%
%TO.N,Net-(J3-Pin_14)*%
X68690000Y-73120000D03*
%TO.P,J3,15,Pin_15*%
%TO.N,Net-(J3-Pin_15)*%
X68690000Y-75660000D03*
%TO.P,J3,16,Pin_16*%
%TO.N,Net-(J3-Pin_16)*%
X68690000Y-78200000D03*
%TO.P,J3,17,Pin_17*%
%TO.N,Net-(J3-Pin_17)*%
X68690000Y-80740000D03*
%TO.P,J3,18,Pin_18*%
%TO.N,GND*%
X68690000Y-83280000D03*
%TO.P,J3,19,Pin_19*%
%TO.N,Net-(J3-Pin_19)*%
X68690000Y-85820000D03*
%TO.P,J3,20,Pin_20*%
%TO.N,Net-(J3-Pin_20)*%
X68690000Y-88360000D03*
%TD*%
D10*
%TO.P,J5,1,Pin_1*%
%TO.N,Net-(J5-Pin_1)*%
X57275000Y-94630000D03*
D11*
%TO.P,J5,2,Pin_2*%
%TO.N,GND*%
X59815000Y-94630000D03*
%TO.P,J5,3,Pin_3*%
%TO.N,Net-(J5-Pin_3)*%
X62355000Y-94630000D03*
%TD*%
D10*
%TO.P,J2,1,Pin_1*%
%TO.N,Net-(J1-Pin_1)*%
X50910000Y-40100000D03*
D11*
%TO.P,J2,2,Pin_2*%
%TO.N,Net-(J1-Pin_2)*%
X50910000Y-42640000D03*
%TO.P,J2,3,Pin_3*%
%TO.N,GND*%
X50910000Y-45180000D03*
%TO.P,J2,4,Pin_4*%
%TO.N,Net-(J2-Pin_4)*%
X50910000Y-47720000D03*
%TO.P,J2,5,Pin_5*%
%TO.N,Net-(J1-Pin_5)*%
X50910000Y-50260000D03*
%TO.P,J2,6,Pin_6*%
%TO.N,Net-(J1-Pin_6)*%
X50910000Y-52800000D03*
%TO.P,J2,7,Pin_7*%
%TO.N,Net-(J1-Pin_7)*%
X50910000Y-55340000D03*
%TO.P,J2,8,Pin_8*%
%TO.N,GND*%
X50910000Y-57880000D03*
%TO.P,J2,9,Pin_9*%
%TO.N,Net-(J1-Pin_9)*%
X50910000Y-60420000D03*
%TO.P,J2,10,Pin_10*%
%TO.N,Net-(J1-Pin_10)*%
X50910000Y-62960000D03*
%TO.P,J2,11,Pin_11*%
%TO.N,Net-(J1-Pin_11)*%
X50910000Y-65500000D03*
%TO.P,J2,12,Pin_12*%
%TO.N,Net-(J1-Pin_12)*%
X50910000Y-68040000D03*
%TO.P,J2,13,Pin_13*%
%TO.N,GND*%
X50910000Y-70580000D03*
%TO.P,J2,14,Pin_14*%
%TO.N,Net-(J1-Pin_14)*%
X50910000Y-73120000D03*
%TO.P,J2,15,Pin_15*%
%TO.N,Net-(J1-Pin_15)*%
X50910000Y-75660000D03*
%TO.P,J2,16,Pin_16*%
%TO.N,Net-(J1-Pin_16)*%
X50910000Y-78200000D03*
%TO.P,J2,17,Pin_17*%
%TO.N,Net-(J1-Pin_17)*%
X50910000Y-80740000D03*
%TO.P,J2,18,Pin_18*%
%TO.N,GND*%
X50910000Y-83280000D03*
%TO.P,J2,19,Pin_19*%
%TO.N,Net-(J1-Pin_19)*%
X50910000Y-85820000D03*
%TO.P,J2,20,Pin_20*%
%TO.N,Net-(J1-Pin_20)*%
X50910000Y-88360000D03*
%TD*%
D10*
%TO.P,J1,1,Pin_1*%
%TO.N,Net-(J1-Pin_1)*%
X43410000Y-40100000D03*
D11*
%TO.P,J1,2,Pin_2*%
%TO.N,Net-(J1-Pin_2)*%
X43410000Y-42640000D03*
%TO.P,J1,3,Pin_3*%
%TO.N,GND*%
X43410000Y-45180000D03*
%TO.P,J1,4,Pin_4*%
%TO.N,Net-(J1-Pin_4)*%
X43410000Y-47720000D03*
%TO.P,J1,5,Pin_5*%
%TO.N,Net-(J1-Pin_5)*%
X43410000Y-50260000D03*
%TO.P,J1,6,Pin_6*%
%TO.N,Net-(J1-Pin_6)*%
X43410000Y-52800000D03*
%TO.P,J1,7,Pin_7*%
%TO.N,Net-(J1-Pin_7)*%
X43410000Y-55340000D03*
%TO.P,J1,8,Pin_8*%
%TO.N,GND*%
X43410000Y-57880000D03*
%TO.P,J1,9,Pin_9*%
%TO.N,Net-(J1-Pin_9)*%
X43410000Y-60420000D03*
%TO.P,J1,10,Pin_10*%
%TO.N,Net-(J1-Pin_10)*%
X43410000Y-62960000D03*
%TO.P,J1,11,Pin_11*%
%TO.N,Net-(J1-Pin_11)*%
X43410000Y-65500000D03*
%TO.P,J1,12,Pin_12*%
%TO.N,Net-(J1-Pin_12)*%
X43410000Y-68040000D03*
%TO.P,J1,13,Pin_13*%
%TO.N,GND*%
X43410000Y-70580000D03*
%TO.P,J1,14,Pin_14*%
%TO.N,Net-(J1-Pin_14)*%
X43410000Y-73120000D03*
%TO.P,J1,15,Pin_15*%
%TO.N,Net-(J1-Pin_15)*%
X43410000Y-75660000D03*
%TO.P,J1,16,Pin_16*%
%TO.N,Net-(J1-Pin_16)*%
X43410000Y-78200000D03*
%TO.P,J1,17,Pin_17*%
%TO.N,Net-(J1-Pin_17)*%
X43410000Y-80740000D03*
%TO.P,J1,18,Pin_18*%
%TO.N,GND*%
X43410000Y-83280000D03*
%TO.P,J1,19,Pin_19*%
%TO.N,Net-(J1-Pin_19)*%
X43410000Y-85820000D03*
%TO.P,J1,20,Pin_20*%
%TO.N,Net-(J1-Pin_20)*%
X43410000Y-88360000D03*
%TD*%
D10*
%TO.P,J6,1,Pin_1*%
%TO.N,Net-(J5-Pin_1)*%
X57275000Y-88130000D03*
D11*
%TO.P,J6,2,Pin_2*%
%TO.N,GND*%
X59815000Y-88130000D03*
%TO.P,J6,3,Pin_3*%
%TO.N,Net-(J5-Pin_3)*%
X62355000Y-88130000D03*
%TD*%
D10*
%TO.P,J4,1,Pin_1*%
%TO.N,Net-(J3-Pin_1)*%
X76190000Y-40100000D03*
D11*
%TO.P,J4,2,Pin_2*%
%TO.N,Net-(J3-Pin_2)*%
X76190000Y-42640000D03*
%TO.P,J4,3,Pin_3*%
%TO.N,GND*%
X76190000Y-45180000D03*
%TO.P,J4,4,Pin_4*%
%TO.N,Net-(J3-Pin_4)*%
X76190000Y-47720000D03*
%TO.P,J4,5,Pin_5*%
%TO.N,Net-(J3-Pin_5)*%
X76190000Y-50260000D03*
%TO.P,J4,6,Pin_6*%
%TO.N,Net-(J3-Pin_6)*%
X76190000Y-52800000D03*
%TO.P,J4,7,Pin_7*%
%TO.N,Net-(J3-Pin_7)*%
X76190000Y-55340000D03*
%TO.P,J4,8,Pin_8*%
%TO.N,Net-(J3-Pin_8)*%
X76190000Y-57880000D03*
%TO.P,J4,9,Pin_9*%
%TO.N,Net-(J3-Pin_9)*%
X76190000Y-60420000D03*
%TO.P,J4,10,Pin_10*%
%TO.N,Net-(J3-Pin_10)*%
X76190000Y-62960000D03*
%TO.P,J4,11,Pin_11*%
%TO.N,Net-(J3-Pin_11)*%
X76190000Y-65500000D03*
%TO.P,J4,12,Pin_12*%
%TO.N,Net-(J3-Pin_12)*%
X76190000Y-68040000D03*
%TO.P,J4,13,Pin_13*%
%TO.N,GND*%
X76190000Y-70580000D03*
%TO.P,J4,14,Pin_14*%
%TO.N,Net-(J3-Pin_14)*%
X76190000Y-73120000D03*
%TO.P,J4,15,Pin_15*%
%TO.N,Net-(J3-Pin_15)*%
X76190000Y-75660000D03*
%TO.P,J4,16,Pin_16*%
%TO.N,Net-(J3-Pin_16)*%
X76190000Y-78200000D03*
%TO.P,J4,17,Pin_17*%
%TO.N,Net-(J3-Pin_17)*%
X76190000Y-80740000D03*
%TO.P,J4,18,Pin_18*%
%TO.N,GND*%
X76190000Y-83280000D03*
%TO.P,J4,19,Pin_19*%
%TO.N,Net-(J3-Pin_19)*%
X76190000Y-85820000D03*
%TO.P,J4,20,Pin_20*%
%TO.N,Net-(J3-Pin_20)*%
X76190000Y-88360000D03*
%TD*%
D12*
%TO.P,R1,1*%
%TO.N,Net-(J1-Pin_4)*%
X46335000Y-47720000D03*
%TO.P,R1,2*%
%TO.N,Net-(J2-Pin_4)*%
X47985000Y-47720000D03*
%TD*%
D13*
%TO.N,GND*%
X39300000Y-70600000D03*
X39300000Y-57800000D03*
X55500000Y-83200000D03*
X55500000Y-70600000D03*
X55500000Y-57800000D03*
X80300000Y-45100000D03*
X39300000Y-83200000D03*
X55500000Y-45100000D03*
X66100000Y-94300000D03*
X64100000Y-45100000D03*
X64100000Y-83200000D03*
X80300000Y-70600000D03*
X53600000Y-94300000D03*
X45100000Y-94300000D03*
X74600000Y-94300000D03*
X64100000Y-57800000D03*
X80300000Y-57800000D03*
X64100000Y-70600000D03*
X80300000Y-83200000D03*
X39300000Y-45200000D03*
%TD*%
D14*
%TO.N,Net-(J1-Pin_6)*%
X50910000Y-52800000D02*
X43410000Y-52800000D01*
%TO.N,Net-(J1-Pin_5)*%
X43410000Y-50260000D02*
X50910000Y-50260000D01*
%TO.N,Net-(J1-Pin_1)*%
X43410000Y-40100000D02*
X50910000Y-40100000D01*
%TO.N,Net-(J1-Pin_4)*%
X43410000Y-47720000D02*
X46335000Y-47720000D01*
%TO.N,Net-(J1-Pin_12)*%
X50910000Y-68040000D02*
X43410000Y-68040000D01*
%TO.N,Net-(J1-Pin_10)*%
X50910000Y-62960000D02*
X43410000Y-62960000D01*
%TO.N,Net-(J1-Pin_16)*%
X50910000Y-78200000D02*
X43410000Y-78200000D01*
%TO.N,Net-(J1-Pin_17)*%
X43410000Y-80740000D02*
X50910000Y-80740000D01*
%TO.N,Net-(J1-Pin_2)*%
X43410000Y-42640000D02*
X50910000Y-42640000D01*
%TO.N,Net-(J1-Pin_20)*%
X50910000Y-88360000D02*
X43410000Y-88360000D01*
%TO.N,Net-(J1-Pin_7)*%
X43410000Y-55340000D02*
X50910000Y-55340000D01*
%TO.N,Net-(J1-Pin_11)*%
X43410000Y-65500000D02*
X50910000Y-65500000D01*
%TO.N,Net-(J1-Pin_9)*%
X43410000Y-60420000D02*
X50910000Y-60420000D01*
%TO.N,Net-(J1-Pin_14)*%
X49910000Y-73120000D02*
X43410000Y-73120000D01*
%TO.N,Net-(J1-Pin_19)*%
X43410000Y-85820000D02*
X50910000Y-85820000D01*
%TO.N,Net-(J1-Pin_15)*%
X43410000Y-75660000D02*
X50910000Y-75660000D01*
%TO.N,Net-(J3-Pin_5)*%
X68690000Y-50260000D02*
X76190000Y-50260000D01*
%TO.N,Net-(J3-Pin_10)*%
X68690000Y-62960000D02*
X76190000Y-62960000D01*
%TO.N,Net-(J3-Pin_14)*%
X76190000Y-73120000D02*
X68690000Y-73120000D01*
%TO.N,Net-(J3-Pin_7)*%
X68690000Y-55340000D02*
X76190000Y-55340000D01*
%TO.N,Net-(J3-Pin_9)*%
X76190000Y-60420000D02*
X68690000Y-60420000D01*
%TO.N,Net-(J3-Pin_19)*%
X76190000Y-85820000D02*
X68690000Y-85820000D01*
%TO.N,Net-(J3-Pin_16)*%
X76190000Y-78200000D02*
X68690000Y-78200000D01*
%TO.N,Net-(J3-Pin_6)*%
X76190000Y-52800000D02*
X68690000Y-52800000D01*
%TO.N,Net-(J3-Pin_2)*%
X76190000Y-42640000D02*
X68690000Y-42640000D01*
%TO.N,Net-(J3-Pin_20)*%
X68690000Y-88360000D02*
X76190000Y-88360000D01*
%TO.N,Net-(J3-Pin_17)*%
X68690000Y-80740000D02*
X76190000Y-80740000D01*
%TO.N,Net-(J3-Pin_8)*%
X68690000Y-57880000D02*
X76190000Y-57880000D01*
%TO.N,Net-(J3-Pin_15)*%
X68690000Y-75660000D02*
X76190000Y-75660000D01*
%TO.N,Net-(J3-Pin_1)*%
X68690000Y-40100000D02*
X76190000Y-40100000D01*
%TO.N,Net-(J3-Pin_4)*%
X76190000Y-47720000D02*
X68690000Y-47720000D01*
%TO.N,Net-(J3-Pin_12)*%
X68690000Y-68040000D02*
X76190000Y-68040000D01*
%TO.N,Net-(J3-Pin_11)*%
X76190000Y-65500000D02*
X68690000Y-65500000D01*
%TO.N,Net-(J5-Pin_3)*%
X62355000Y-88130000D02*
X62355000Y-94630000D01*
%TO.N,Net-(J5-Pin_1)*%
X57275000Y-88130000D02*
X57275000Y-94630000D01*
%TO.N,Net-(J2-Pin_4)*%
X47985000Y-47720000D02*
X50910000Y-47720000D01*
%TD*%
%TA.AperFunction,Conductor*%
%TO.N,GND*%
G36*
X61289745Y-88389454D02*
G01*
X61343623Y-88433939D01*
X61359593Y-88467447D01*
X61379768Y-88533954D01*
X61477315Y-88716450D01*
X61477317Y-88716452D01*
X61608589Y-88876410D01*
X61768548Y-89007684D01*
X61768550Y-89007685D01*
X61885754Y-89070332D01*
X61935597Y-89119293D01*
X61951300Y-89179689D01*
X61951300Y-93580309D01*
X61931615Y-93647348D01*
X61885754Y-93689667D01*
X61814842Y-93727570D01*
X61768550Y-93752315D01*
X61768548Y-93752316D01*
X61768547Y-93752317D01*
X61608589Y-93883589D01*
X61477317Y-94043547D01*
X61379767Y-94226046D01*
X61359593Y-94292552D01*
X61321296Y-94350990D01*
X61257483Y-94379447D01*
X61188416Y-94368886D01*
X61136023Y-94322661D01*
X61121158Y-94288649D01*
X61088433Y-94166516D01*
X61088429Y-94166507D01*
X60988600Y-93952422D01*
X60988599Y-93952420D01*
X60853113Y-93758926D01*
X60853108Y-93758920D01*
X60686082Y-93591894D01*
X60492578Y-93456399D01*
X60278492Y-93356570D01*
X60278486Y-93356567D01*
X60065000Y-93299364D01*
X60065000Y-94196988D01*
X60007993Y-94164075D01*
X59880826Y-94130000D01*
X59749174Y-94130000D01*
X59622007Y-94164075D01*
X59565000Y-94196988D01*
X59565000Y-93299364D01*
X59564999Y-93299364D01*
X59351513Y-93356567D01*
X59351507Y-93356570D01*
X59137422Y-93456399D01*
X59137420Y-93456400D01*
X58943926Y-93591886D01*
X58943920Y-93591891D01*
X58776891Y-93758920D01*
X58776886Y-93758926D01*
X58641400Y-93952420D01*
X58641399Y-93952422D01*
X58561882Y-94122948D01*
X58515710Y-94175387D01*
X58448516Y-94194539D01*
X58381635Y-94174323D01*
X58336300Y-94121158D01*
X58325500Y-94070543D01*
X58325500Y-93760249D01*
X58325499Y-93760247D01*
X58313868Y-93701770D01*
X58313867Y-93701769D01*
X58269552Y-93635447D01*
X58203230Y-93591132D01*
X58203229Y-93591131D01*
X58144752Y-93579500D01*
X58144748Y-93579500D01*
X57802700Y-93579500D01*
X57735661Y-93559815D01*
X57689906Y-93507011D01*
X57678700Y-93455500D01*
X57678700Y-89304500D01*
X57698385Y-89237461D01*
X57751189Y-89191706D01*
X57802700Y-89180500D01*
X58144750Y-89180500D01*
X58144751Y-89180499D01*
X58159568Y-89177552D01*
X58203229Y-89168868D01*
X58203229Y-89168867D01*
X58203231Y-89168867D01*
X58269552Y-89124552D01*
X58313867Y-89058231D01*
X58313867Y-89058229D01*
X58313868Y-89058229D01*
X58323921Y-89007684D01*
X58325500Y-88999748D01*
X58325500Y-88689456D01*
X58345185Y-88622417D01*
X58397989Y-88576662D01*
X58467147Y-88566718D01*
X58530703Y-88595743D01*
X58561882Y-88637051D01*
X58641400Y-88807578D01*
X58776894Y-89001082D01*
X58943917Y-89168105D01*
X59137421Y-89303600D01*
X59351507Y-89403429D01*
X59351516Y-89403433D01*
X59565000Y-89460634D01*
X59565000Y-88563012D01*
X59622007Y-88595925D01*
X59749174Y-88630000D01*
X59880826Y-88630000D01*
X60007993Y-88595925D01*
X60065000Y-88563012D01*
X60065000Y-89460633D01*
X60278483Y-89403433D01*
X60278492Y-89403429D01*
X60492578Y-89303600D01*
X60686082Y-89168105D01*
X60853105Y-89001082D01*
X60988600Y-88807578D01*
X61088429Y-88593492D01*
X61088433Y-88593483D01*
X61121158Y-88471350D01*
X61157522Y-88411690D01*
X61220369Y-88381160D01*
X61289745Y-88389454D01*
G37*
%TD.AperFunction*%
%TA.AperFunction,Conductor*%
G36*
X49927349Y-81163385D02*
G01*
X49969667Y-81209244D01*
X50032315Y-81326450D01*
X50032317Y-81326452D01*
X50163589Y-81486410D01*
X50260209Y-81565702D01*
X50323550Y-81617685D01*
X50506046Y-81715232D01*
X50572551Y-81735405D01*
X50630989Y-81773702D01*
X50659446Y-81837514D01*
X50648887Y-81906581D01*
X50602663Y-81958975D01*
X50568650Y-81973841D01*
X50446514Y-82006567D01*
X50446507Y-82006570D01*
X50232422Y-82106399D01*
X50232420Y-82106400D01*
X50038926Y-82241886D01*
X50038920Y-82241891D01*
X49871891Y-82408920D01*
X49871886Y-82408926D01*
X49736400Y-82602420D01*
X49736399Y-82602422D01*
X49636570Y-82816507D01*
X49636567Y-82816513D01*
X49579364Y-83029999D01*
X49579364Y-83030000D01*
X50476988Y-83030000D01*
X50444075Y-83087007D01*
X50410000Y-83214174D01*
X50410000Y-83345826D01*
X50444075Y-83472993D01*
X50476988Y-83530000D01*
X49579364Y-83530000D01*
X49636567Y-83743486D01*
X49636570Y-83743492D01*
X49736399Y-83957578D01*
X49871894Y-84151082D01*
X50038917Y-84318105D01*
X50232421Y-84453600D01*
X50446507Y-84553429D01*
X50446516Y-84553433D01*
X50568649Y-84586158D01*
X50628310Y-84622523D01*
X50658839Y-84685369D01*
X50650545Y-84754745D01*
X50606059Y-84808623D01*
X50572552Y-84824593D01*
X50506046Y-84844767D01*
X50375358Y-84914622D01*
X50323550Y-84942315D01*
X50323548Y-84942316D01*
X50323547Y-84942317D01*
X50163589Y-85073589D01*
X50032317Y-85233547D01*
X49969668Y-85350754D01*
X49920705Y-85400598D01*
X49860310Y-85416300D01*
X44459690Y-85416300D01*
X44392651Y-85396615D01*
X44350332Y-85350754D01*
X44287685Y-85233550D01*
X44235702Y-85170209D01*
X44156410Y-85073589D01*
X43996452Y-84942317D01*
X43996453Y-84942317D01*
X43996450Y-84942315D01*
X43813954Y-84844768D01*
X43747447Y-84824593D01*
X43689009Y-84786296D01*
X43660553Y-84722484D01*
X43671113Y-84653417D01*
X43717337Y-84601023D01*
X43751350Y-84586158D01*
X43873483Y-84553433D01*
X43873492Y-84553429D01*
X44087578Y-84453600D01*
X44281082Y-84318105D01*
X44448105Y-84151082D01*
X44583600Y-83957578D01*
X44683429Y-83743492D01*
X44683432Y-83743486D01*
X44740636Y-83530000D01*
X43843012Y-83530000D01*
X43875925Y-83472993D01*
X43910000Y-83345826D01*
X43910000Y-83214174D01*
X43875925Y-83087007D01*
X43843012Y-83030000D01*
X44740636Y-83030000D01*
X44740635Y-83029999D01*
X44683432Y-82816513D01*
X44683429Y-82816507D01*
X44583600Y-82602422D01*
X44583599Y-82602420D01*
X44448113Y-82408926D01*
X44448108Y-82408920D01*
X44281082Y-82241894D01*
X44087578Y-82106399D01*
X43873492Y-82006570D01*
X43873486Y-82006567D01*
X43751349Y-81973841D01*
X43691689Y-81937476D01*
X43661160Y-81874629D01*
X43669455Y-81805253D01*
X43713940Y-81751375D01*
X43747444Y-81735407D01*
X43813954Y-81715232D01*
X43996450Y-81617685D01*
X44156410Y-81486410D01*
X44287685Y-81326450D01*
X44350332Y-81209245D01*
X44399295Y-81159402D01*
X44459690Y-81143700D01*
X49860310Y-81143700D01*
X49927349Y-81163385D01*
G37*
%TD.AperFunction*%
%TA.AperFunction,Conductor*%
G36*
X75207349Y-81163385D02*
G01*
X75249667Y-81209244D01*
X75312315Y-81326450D01*
X75312317Y-81326452D01*
X75443589Y-81486410D01*
X75540209Y-81565702D01*
X75603550Y-81617685D01*
X75786046Y-81715232D01*
X75852551Y-81735405D01*
X75910989Y-81773702D01*
X75939446Y-81837514D01*
X75928887Y-81906581D01*
X75882663Y-81958975D01*
X75848650Y-81973841D01*
X75726514Y-82006567D01*
X75726507Y-82006570D01*
X75512422Y-82106399D01*
X75512420Y-82106400D01*
X75318926Y-82241886D01*
X75318920Y-82241891D01*
X75151891Y-82408920D01*
X75151886Y-82408926D01*
X75016400Y-82602420D01*
X75016399Y-82602422D01*
X74916570Y-82816507D01*
X74916567Y-82816513D01*
X74859364Y-83029999D01*
X74859364Y-83030000D01*
X75756988Y-83030000D01*
X75724075Y-83087007D01*
X75690000Y-83214174D01*
X75690000Y-83345826D01*
X75724075Y-83472993D01*
X75756988Y-83530000D01*
X74859364Y-83530000D01*
X74916567Y-83743486D01*
X74916570Y-83743492D01*
X75016399Y-83957578D01*
X75151894Y-84151082D01*
X75318917Y-84318105D01*
X75512421Y-84453600D01*
X75726507Y-84553429D01*
X75726516Y-84553433D01*
X75848649Y-84586158D01*
X75908310Y-84622523D01*
X75938839Y-84685369D01*
X75930545Y-84754745D01*
X75886059Y-84808623D01*
X75852552Y-84824593D01*
X75786046Y-84844767D01*
X75655358Y-84914622D01*
X75603550Y-84942315D01*
X75603548Y-84942316D01*
X75603547Y-84942317D01*
X75443589Y-85073589D01*
X75312317Y-85233547D01*
X75249668Y-85350754D01*
X75200705Y-85400598D01*
X75140310Y-85416300D01*
X69739690Y-85416300D01*
X69672651Y-85396615D01*
X69630332Y-85350754D01*
X69567685Y-85233550D01*
X69515702Y-85170209D01*
X69436410Y-85073589D01*
X69276452Y-84942317D01*
X69276453Y-84942317D01*
X69276450Y-84942315D01*
X69093954Y-84844768D01*
X69027447Y-84824593D01*
X68969009Y-84786296D01*
X68940553Y-84722484D01*
X68951113Y-84653417D01*
X68997337Y-84601023D01*
X69031350Y-84586158D01*
X69153483Y-84553433D01*
X69153492Y-84553429D01*
X69367578Y-84453600D01*
X69561082Y-84318105D01*
X69728105Y-84151082D01*
X69863600Y-83957578D01*
X69963429Y-83743492D01*
X69963432Y-83743486D01*
X70020636Y-83530000D01*
X69123012Y-83530000D01*
X69155925Y-83472993D01*
X69190000Y-83345826D01*
X69190000Y-83214174D01*
X69155925Y-83087007D01*
X69123012Y-83030000D01*
X70020636Y-83030000D01*
X70020635Y-83029999D01*
X69963432Y-82816513D01*
X69963429Y-82816507D01*
X69863600Y-82602422D01*
X69863599Y-82602420D01*
X69728113Y-82408926D01*
X69728108Y-82408920D01*
X69561082Y-82241894D01*
X69367578Y-82106399D01*
X69153492Y-82006570D01*
X69153486Y-82006567D01*
X69031349Y-81973841D01*
X68971689Y-81937476D01*
X68941160Y-81874629D01*
X68949455Y-81805253D01*
X68993940Y-81751375D01*
X69027444Y-81735407D01*
X69093954Y-81715232D01*
X69276450Y-81617685D01*
X69436410Y-81486410D01*
X69567685Y-81326450D01*
X69630332Y-81209245D01*
X69679295Y-81159402D01*
X69739690Y-81143700D01*
X75140310Y-81143700D01*
X75207349Y-81163385D01*
G37*
%TD.AperFunction*%
%TA.AperFunction,Conductor*%
G36*
X49927349Y-68463385D02*
G01*
X49969667Y-68509244D01*
X50032315Y-68626450D01*
X50032317Y-68626452D01*
X50163589Y-68786410D01*
X50260209Y-68865702D01*
X50323550Y-68917685D01*
X50506046Y-69015232D01*
X50572551Y-69035405D01*
X50630989Y-69073702D01*
X50659446Y-69137514D01*
X50648887Y-69206581D01*
X50602663Y-69258975D01*
X50568650Y-69273841D01*
X50446514Y-69306567D01*
X50446507Y-69306570D01*
X50232422Y-69406399D01*
X50232420Y-69406400D01*
X50038926Y-69541886D01*
X50038920Y-69541891D01*
X49871891Y-69708920D01*
X49871886Y-69708926D01*
X49736400Y-69902420D01*
X49736399Y-69902422D01*
X49636570Y-70116507D01*
X49636567Y-70116513D01*
X49579364Y-70329999D01*
X49579364Y-70330000D01*
X50476988Y-70330000D01*
X50444075Y-70387007D01*
X50410000Y-70514174D01*
X50410000Y-70645826D01*
X50444075Y-70772993D01*
X50476988Y-70830000D01*
X49579364Y-70830000D01*
X49636567Y-71043486D01*
X49636570Y-71043492D01*
X49736399Y-71257578D01*
X49871894Y-71451082D01*
X50038917Y-71618105D01*
X50232421Y-71753600D01*
X50446507Y-71853429D01*
X50446516Y-71853433D01*
X50568649Y-71886158D01*
X50628310Y-71922523D01*
X50658839Y-71985369D01*
X50650545Y-72054745D01*
X50606059Y-72108623D01*
X50572552Y-72124593D01*
X50506046Y-72144767D01*
X50375358Y-72214622D01*
X50323550Y-72242315D01*
X50323548Y-72242316D01*
X50323547Y-72242317D01*
X50163589Y-72373589D01*
X50032317Y-72533547D01*
X49969668Y-72650754D01*
X49920705Y-72700598D01*
X49860310Y-72716300D01*
X44459690Y-72716300D01*
X44392651Y-72696615D01*
X44350332Y-72650754D01*
X44287685Y-72533550D01*
X44235702Y-72470209D01*
X44156410Y-72373589D01*
X43996452Y-72242317D01*
X43996453Y-72242317D01*
X43996450Y-72242315D01*
X43813954Y-72144768D01*
X43747447Y-72124593D01*
X43689009Y-72086296D01*
X43660553Y-72022484D01*
X43671113Y-71953417D01*
X43717337Y-71901023D01*
X43751350Y-71886158D01*
X43873483Y-71853433D01*
X43873492Y-71853429D01*
X44087578Y-71753600D01*
X44281082Y-71618105D01*
X44448105Y-71451082D01*
X44583600Y-71257578D01*
X44683429Y-71043492D01*
X44683432Y-71043486D01*
X44740636Y-70830000D01*
X43843012Y-70830000D01*
X43875925Y-70772993D01*
X43910000Y-70645826D01*
X43910000Y-70514174D01*
X43875925Y-70387007D01*
X43843012Y-70330000D01*
X44740636Y-70330000D01*
X44740635Y-70329999D01*
X44683432Y-70116513D01*
X44683429Y-70116507D01*
X44583600Y-69902422D01*
X44583599Y-69902420D01*
X44448113Y-69708926D01*
X44448108Y-69708920D01*
X44281082Y-69541894D01*
X44087578Y-69406399D01*
X43873492Y-69306570D01*
X43873486Y-69306567D01*
X43751349Y-69273841D01*
X43691689Y-69237476D01*
X43661160Y-69174629D01*
X43669455Y-69105253D01*
X43713940Y-69051375D01*
X43747444Y-69035407D01*
X43813954Y-69015232D01*
X43996450Y-68917685D01*
X44156410Y-68786410D01*
X44287685Y-68626450D01*
X44350332Y-68509245D01*
X44399295Y-68459402D01*
X44459690Y-68443700D01*
X49860310Y-68443700D01*
X49927349Y-68463385D01*
G37*
%TD.AperFunction*%
%TA.AperFunction,Conductor*%
G36*
X75207349Y-68463385D02*
G01*
X75249667Y-68509244D01*
X75312315Y-68626450D01*
X75312317Y-68626452D01*
X75443589Y-68786410D01*
X75540209Y-68865702D01*
X75603550Y-68917685D01*
X75786046Y-69015232D01*
X75852551Y-69035405D01*
X75910989Y-69073702D01*
X75939446Y-69137514D01*
X75928887Y-69206581D01*
X75882663Y-69258975D01*
X75848650Y-69273841D01*
X75726514Y-69306567D01*
X75726507Y-69306570D01*
X75512422Y-69406399D01*
X75512420Y-69406400D01*
X75318926Y-69541886D01*
X75318920Y-69541891D01*
X75151891Y-69708920D01*
X75151886Y-69708926D01*
X75016400Y-69902420D01*
X75016399Y-69902422D01*
X74916570Y-70116507D01*
X74916567Y-70116513D01*
X74859364Y-70329999D01*
X74859364Y-70330000D01*
X75756988Y-70330000D01*
X75724075Y-70387007D01*
X75690000Y-70514174D01*
X75690000Y-70645826D01*
X75724075Y-70772993D01*
X75756988Y-70830000D01*
X74859364Y-70830000D01*
X74916567Y-71043486D01*
X74916570Y-71043492D01*
X75016399Y-71257578D01*
X75151894Y-71451082D01*
X75318917Y-71618105D01*
X75512421Y-71753600D01*
X75726507Y-71853429D01*
X75726516Y-71853433D01*
X75848649Y-71886158D01*
X75908310Y-71922523D01*
X75938839Y-71985369D01*
X75930545Y-72054745D01*
X75886059Y-72108623D01*
X75852552Y-72124593D01*
X75786046Y-72144767D01*
X75655358Y-72214622D01*
X75603550Y-72242315D01*
X75603548Y-72242316D01*
X75603547Y-72242317D01*
X75443589Y-72373589D01*
X75312317Y-72533547D01*
X75249668Y-72650754D01*
X75200705Y-72700598D01*
X75140310Y-72716300D01*
X69739690Y-72716300D01*
X69672651Y-72696615D01*
X69630332Y-72650754D01*
X69567685Y-72533550D01*
X69515702Y-72470209D01*
X69436410Y-72373589D01*
X69276452Y-72242317D01*
X69276453Y-72242317D01*
X69276450Y-72242315D01*
X69093954Y-72144768D01*
X69027447Y-72124593D01*
X68969009Y-72086296D01*
X68940553Y-72022484D01*
X68951113Y-71953417D01*
X68997337Y-71901023D01*
X69031350Y-71886158D01*
X69153483Y-71853433D01*
X69153492Y-71853429D01*
X69367578Y-71753600D01*
X69561082Y-71618105D01*
X69728105Y-71451082D01*
X69863600Y-71257578D01*
X69963429Y-71043492D01*
X69963432Y-71043486D01*
X70020636Y-70830000D01*
X69123012Y-70830000D01*
X69155925Y-70772993D01*
X69190000Y-70645826D01*
X69190000Y-70514174D01*
X69155925Y-70387007D01*
X69123012Y-70330000D01*
X70020636Y-70330000D01*
X70020635Y-70329999D01*
X69963432Y-70116513D01*
X69963429Y-70116507D01*
X69863600Y-69902422D01*
X69863599Y-69902420D01*
X69728113Y-69708926D01*
X69728108Y-69708920D01*
X69561082Y-69541894D01*
X69367578Y-69406399D01*
X69153492Y-69306570D01*
X69153486Y-69306567D01*
X69031349Y-69273841D01*
X68971689Y-69237476D01*
X68941160Y-69174629D01*
X68949455Y-69105253D01*
X68993940Y-69051375D01*
X69027444Y-69035407D01*
X69093954Y-69015232D01*
X69276450Y-68917685D01*
X69436410Y-68786410D01*
X69567685Y-68626450D01*
X69630332Y-68509245D01*
X69679295Y-68459402D01*
X69739690Y-68443700D01*
X75140310Y-68443700D01*
X75207349Y-68463385D01*
G37*
%TD.AperFunction*%
%TA.AperFunction,Conductor*%
G36*
X49927349Y-55763385D02*
G01*
X49969667Y-55809244D01*
X50032315Y-55926450D01*
X50032317Y-55926452D01*
X50163589Y-56086410D01*
X50260209Y-56165702D01*
X50323550Y-56217685D01*
X50506046Y-56315232D01*
X50572551Y-56335405D01*
X50630989Y-56373702D01*
X50659446Y-56437514D01*
X50648887Y-56506581D01*
X50602663Y-56558975D01*
X50568650Y-56573841D01*
X50446514Y-56606567D01*
X50446507Y-56606570D01*
X50232422Y-56706399D01*
X50232420Y-56706400D01*
X50038926Y-56841886D01*
X50038920Y-56841891D01*
X49871891Y-57008920D01*
X49871886Y-57008926D01*
X49736400Y-57202420D01*
X49736399Y-57202422D01*
X49636570Y-57416507D01*
X49636567Y-57416513D01*
X49579364Y-57629999D01*
X49579364Y-57630000D01*
X50476988Y-57630000D01*
X50444075Y-57687007D01*
X50410000Y-57814174D01*
X50410000Y-57945826D01*
X50444075Y-58072993D01*
X50476988Y-58130000D01*
X49579364Y-58130000D01*
X49636567Y-58343486D01*
X49636570Y-58343492D01*
X49736399Y-58557578D01*
X49871894Y-58751082D01*
X50038917Y-58918105D01*
X50232421Y-59053600D01*
X50446507Y-59153429D01*
X50446516Y-59153433D01*
X50568649Y-59186158D01*
X50628310Y-59222523D01*
X50658839Y-59285369D01*
X50650545Y-59354745D01*
X50606059Y-59408623D01*
X50572552Y-59424593D01*
X50506046Y-59444767D01*
X50375358Y-59514622D01*
X50323550Y-59542315D01*
X50323548Y-59542316D01*
X50323547Y-59542317D01*
X50163589Y-59673589D01*
X50032317Y-59833547D01*
X49969668Y-59950754D01*
X49920705Y-60000598D01*
X49860310Y-60016300D01*
X44459690Y-60016300D01*
X44392651Y-59996615D01*
X44350332Y-59950754D01*
X44287685Y-59833550D01*
X44235702Y-59770209D01*
X44156410Y-59673589D01*
X43996452Y-59542317D01*
X43996453Y-59542317D01*
X43996450Y-59542315D01*
X43813954Y-59444768D01*
X43747447Y-59424593D01*
X43689009Y-59386296D01*
X43660553Y-59322484D01*
X43671113Y-59253417D01*
X43717337Y-59201023D01*
X43751350Y-59186158D01*
X43873483Y-59153433D01*
X43873492Y-59153429D01*
X44087578Y-59053600D01*
X44281082Y-58918105D01*
X44448105Y-58751082D01*
X44583600Y-58557578D01*
X44683429Y-58343492D01*
X44683432Y-58343486D01*
X44740636Y-58130000D01*
X43843012Y-58130000D01*
X43875925Y-58072993D01*
X43910000Y-57945826D01*
X43910000Y-57814174D01*
X43875925Y-57687007D01*
X43843012Y-57630000D01*
X44740636Y-57630000D01*
X44740635Y-57629999D01*
X44683432Y-57416513D01*
X44683429Y-57416507D01*
X44583600Y-57202422D01*
X44583599Y-57202420D01*
X44448113Y-57008926D01*
X44448108Y-57008920D01*
X44281082Y-56841894D01*
X44087578Y-56706399D01*
X43873492Y-56606570D01*
X43873486Y-56606567D01*
X43751349Y-56573841D01*
X43691689Y-56537476D01*
X43661160Y-56474629D01*
X43669455Y-56405253D01*
X43713940Y-56351375D01*
X43747444Y-56335407D01*
X43813954Y-56315232D01*
X43996450Y-56217685D01*
X44156410Y-56086410D01*
X44287685Y-55926450D01*
X44350332Y-55809245D01*
X44399295Y-55759402D01*
X44459690Y-55743700D01*
X49860310Y-55743700D01*
X49927349Y-55763385D01*
G37*
%TD.AperFunction*%
%TA.AperFunction,Conductor*%
G36*
X75207349Y-43063385D02*
G01*
X75249667Y-43109244D01*
X75312315Y-43226450D01*
X75312317Y-43226452D01*
X75443589Y-43386410D01*
X75540209Y-43465702D01*
X75603550Y-43517685D01*
X75786046Y-43615232D01*
X75852551Y-43635405D01*
X75910989Y-43673702D01*
X75939446Y-43737514D01*
X75928887Y-43806581D01*
X75882663Y-43858975D01*
X75848650Y-43873841D01*
X75726514Y-43906567D01*
X75726507Y-43906570D01*
X75512422Y-44006399D01*
X75512420Y-44006400D01*
X75318926Y-44141886D01*
X75318920Y-44141891D01*
X75151891Y-44308920D01*
X75151886Y-44308926D01*
X75016400Y-44502420D01*
X75016399Y-44502422D01*
X74916570Y-44716507D01*
X74916567Y-44716513D01*
X74859364Y-44929999D01*
X74859364Y-44930000D01*
X75756988Y-44930000D01*
X75724075Y-44987007D01*
X75690000Y-45114174D01*
X75690000Y-45245826D01*
X75724075Y-45372993D01*
X75756988Y-45430000D01*
X74859364Y-45430000D01*
X74916567Y-45643486D01*
X74916570Y-45643492D01*
X75016399Y-45857578D01*
X75151894Y-46051082D01*
X75318917Y-46218105D01*
X75512421Y-46353600D01*
X75726507Y-46453429D01*
X75726516Y-46453433D01*
X75848649Y-46486158D01*
X75908310Y-46522523D01*
X75938839Y-46585369D01*
X75930545Y-46654745D01*
X75886059Y-46708623D01*
X75852552Y-46724593D01*
X75786046Y-46744767D01*
X75655358Y-46814622D01*
X75603550Y-46842315D01*
X75603548Y-46842316D01*
X75603547Y-46842317D01*
X75443589Y-46973589D01*
X75312317Y-47133547D01*
X75312315Y-47133550D01*
X75273238Y-47206658D01*
X75249668Y-47250754D01*
X75200705Y-47300598D01*
X75140310Y-47316300D01*
X69739690Y-47316300D01*
X69672651Y-47296615D01*
X69630332Y-47250754D01*
X69606762Y-47206658D01*
X69567685Y-47133550D01*
X69494604Y-47044500D01*
X69436410Y-46973589D01*
X69276452Y-46842317D01*
X69276453Y-46842317D01*
X69276450Y-46842315D01*
X69093954Y-46744768D01*
X69027447Y-46724593D01*
X68969009Y-46686296D01*
X68940553Y-46622484D01*
X68951113Y-46553417D01*
X68997337Y-46501023D01*
X69031350Y-46486158D01*
X69153483Y-46453433D01*
X69153492Y-46453429D01*
X69367578Y-46353600D01*
X69561082Y-46218105D01*
X69728105Y-46051082D01*
X69863600Y-45857578D01*
X69963429Y-45643492D01*
X69963432Y-45643486D01*
X70020636Y-45430000D01*
X69123012Y-45430000D01*
X69155925Y-45372993D01*
X69190000Y-45245826D01*
X69190000Y-45114174D01*
X69155925Y-44987007D01*
X69123012Y-44930000D01*
X70020636Y-44930000D01*
X70020635Y-44929999D01*
X69963432Y-44716513D01*
X69963429Y-44716507D01*
X69863600Y-44502422D01*
X69863599Y-44502420D01*
X69728113Y-44308926D01*
X69728108Y-44308920D01*
X69561082Y-44141894D01*
X69367578Y-44006399D01*
X69153492Y-43906570D01*
X69153486Y-43906567D01*
X69031349Y-43873841D01*
X68971689Y-43837476D01*
X68941160Y-43774629D01*
X68949455Y-43705253D01*
X68993940Y-43651375D01*
X69027444Y-43635407D01*
X69093954Y-43615232D01*
X69276450Y-43517685D01*
X69436410Y-43386410D01*
X69567685Y-43226450D01*
X69630332Y-43109245D01*
X69679295Y-43059402D01*
X69739690Y-43043700D01*
X75140310Y-43043700D01*
X75207349Y-43063385D01*
G37*
%TD.AperFunction*%
%TA.AperFunction,Conductor*%
G36*
X80303736Y-37972526D02*
G01*
X80587672Y-37989701D01*
X80602536Y-37991506D01*
X80878640Y-38042104D01*
X80893177Y-38045687D01*
X81161158Y-38129194D01*
X81175150Y-38134499D01*
X81431129Y-38249706D01*
X81444387Y-38256664D01*
X81684607Y-38401882D01*
X81696917Y-38410379D01*
X81710973Y-38421391D01*
X81751604Y-38478233D01*
X81755054Y-38548017D01*
X81720228Y-38608589D01*
X81658183Y-38640717D01*
X81634497Y-38643000D01*
X78522000Y-38643000D01*
X78522000Y-42199000D01*
X82078000Y-42199000D01*
X82078000Y-39086502D01*
X82097685Y-39019463D01*
X82150489Y-38973708D01*
X82219647Y-38963764D01*
X82283203Y-38992789D01*
X82299606Y-39010024D01*
X82310619Y-39024081D01*
X82319119Y-39036395D01*
X82334073Y-39061132D01*
X82464334Y-39276611D01*
X82471293Y-39289870D01*
X82586498Y-39545845D01*
X82591807Y-39559846D01*
X82675311Y-39827821D01*
X82678895Y-39842359D01*
X82729493Y-40118463D01*
X82731298Y-40133328D01*
X82748474Y-40417263D01*
X82748700Y-40424750D01*
X82748700Y-94417249D01*
X82748474Y-94424736D01*
X82731298Y-94708671D01*
X82729493Y-94723536D01*
X82678895Y-94999640D01*
X82675311Y-95014178D01*
X82591807Y-95282153D01*
X82586498Y-95296154D01*
X82471293Y-95552129D01*
X82464334Y-95565388D01*
X82319121Y-95805601D01*
X82310616Y-95817923D01*
X82299612Y-95831969D01*
X82242773Y-95872602D01*
X82172988Y-95876055D01*
X82112415Y-95841232D01*
X82080284Y-95779189D01*
X82078000Y-95755497D01*
X82078000Y-92643000D01*
X78522000Y-92643000D01*
X78522000Y-96199000D01*
X81634497Y-96199000D01*
X81701536Y-96218685D01*
X81747291Y-96271489D01*
X81757235Y-96340647D01*
X81728210Y-96404203D01*
X81710969Y-96420612D01*
X81696923Y-96431616D01*
X81684601Y-96440121D01*
X81444388Y-96585334D01*
X81431129Y-96592293D01*
X81175154Y-96707498D01*
X81161153Y-96712807D01*
X80893178Y-96796311D01*
X80878640Y-96799895D01*
X80602536Y-96850493D01*
X80587671Y-96852298D01*
X80303736Y-96869474D01*
X80296249Y-96869700D01*
X39303751Y-96869700D01*
X39296264Y-96869474D01*
X39012328Y-96852298D01*
X38997463Y-96850493D01*
X38721359Y-96799895D01*
X38706821Y-96796311D01*
X38438846Y-96712807D01*
X38424845Y-96707498D01*
X38168870Y-96592293D01*
X38155611Y-96585334D01*
X37915398Y-96440121D01*
X37903073Y-96431613D01*
X37889028Y-96420609D01*
X37848397Y-96363769D01*
X37844946Y-96293984D01*
X37879771Y-96233412D01*
X37941815Y-96201284D01*
X37965503Y-96199000D01*
X41078000Y-96199000D01*
X41078000Y-92643000D01*
X37522000Y-92643000D01*
X37522000Y-95755497D01*
X37502315Y-95822536D01*
X37449511Y-95868291D01*
X37380353Y-95878235D01*
X37316797Y-95849210D01*
X37300391Y-95831973D01*
X37300388Y-95831969D01*
X37289379Y-95817917D01*
X37280882Y-95805607D01*
X37135664Y-95565387D01*
X37128706Y-95552129D01*
X37013501Y-95296154D01*
X37008192Y-95282153D01*
X36960779Y-95130000D01*
X36924687Y-95014177D01*
X36921104Y-94999640D01*
X36870506Y-94723536D01*
X36868701Y-94708671D01*
X36859960Y-94564174D01*
X36851526Y-94424736D01*
X36851300Y-94417249D01*
X36851300Y-89508000D01*
X52322000Y-89508000D01*
X55878000Y-89508000D01*
X55878000Y-87260247D01*
X56224500Y-87260247D01*
X56224500Y-88999752D01*
X56236131Y-89058229D01*
X56236132Y-89058230D01*
X56280447Y-89124552D01*
X56346769Y-89168867D01*
X56346770Y-89168868D01*
X56405247Y-89180499D01*
X56405250Y-89180500D01*
X56405252Y-89180500D01*
X56747300Y-89180500D01*
X56814339Y-89200185D01*
X56860094Y-89252989D01*
X56871300Y-89304500D01*
X56871300Y-93455500D01*
X56851615Y-93522539D01*
X56798811Y-93568294D01*
X56747300Y-93579500D01*
X56405247Y-93579500D01*
X56346770Y-93591131D01*
X56346769Y-93591132D01*
X56280447Y-93635447D01*
X56236132Y-93701769D01*
X56236131Y-93701770D01*
X56224500Y-93760247D01*
X56224500Y-95499752D01*
X56236131Y-95558229D01*
X56236132Y-95558230D01*
X56280447Y-95624552D01*
X56346769Y-95668867D01*
X56346770Y-95668868D01*
X56405247Y-95680499D01*
X56405250Y-95680500D01*
X56405252Y-95680500D01*
X58144750Y-95680500D01*
X58144751Y-95680499D01*
X58159568Y-95677552D01*
X58203229Y-95668868D01*
X58203229Y-95668867D01*
X58203231Y-95668867D01*
X58269552Y-95624552D01*
X58313867Y-95558231D01*
X58313867Y-95558229D01*
X58313868Y-95558229D01*
X58323922Y-95507682D01*
X58325500Y-95499748D01*
X58325500Y-95189456D01*
X58345185Y-95122417D01*
X58397989Y-95076662D01*
X58467147Y-95066718D01*
X58530703Y-95095743D01*
X58561882Y-95137051D01*
X58641400Y-95307578D01*
X58776894Y-95501082D01*
X58943917Y-95668105D01*
X59137421Y-95803600D01*
X59351507Y-95903429D01*
X59351516Y-95903433D01*
X59565000Y-95960634D01*
X59565000Y-95063012D01*
X59622007Y-95095925D01*
X59749174Y-95130000D01*
X59880826Y-95130000D01*
X60007993Y-95095925D01*
X60065000Y-95063012D01*
X60065000Y-95960633D01*
X60278483Y-95903433D01*
X60278492Y-95903429D01*
X60492578Y-95803600D01*
X60686082Y-95668105D01*
X60853105Y-95501082D01*
X60988600Y-95307578D01*
X61088429Y-95093492D01*
X61088433Y-95093483D01*
X61121158Y-94971350D01*
X61157522Y-94911690D01*
X61220369Y-94881160D01*
X61289745Y-94889454D01*
X61343623Y-94933939D01*
X61359593Y-94967447D01*
X61379768Y-95033954D01*
X61477315Y-95216450D01*
X61477317Y-95216452D01*
X61608589Y-95376410D01*
X61705209Y-95455702D01*
X61768550Y-95507685D01*
X61951046Y-95605232D01*
X62149066Y-95665300D01*
X62149065Y-95665300D01*
X62167529Y-95667118D01*
X62355000Y-95685583D01*
X62560934Y-95665300D01*
X62758954Y-95605232D01*
X62941450Y-95507685D01*
X63101410Y-95376410D01*
X63232685Y-95216450D01*
X63330232Y-95033954D01*
X63390300Y-94835934D01*
X63410583Y-94630000D01*
X63390300Y-94424066D01*
X63330232Y-94226046D01*
X63232685Y-94043550D01*
X63157897Y-93952420D01*
X63101410Y-93883589D01*
X62951121Y-93760252D01*
X62941450Y-93752315D01*
X62846886Y-93701769D01*
X62824246Y-93689667D01*
X62774402Y-93640704D01*
X62758700Y-93580309D01*
X62758700Y-89508000D01*
X63722000Y-89508000D01*
X67278000Y-89508000D01*
X67278000Y-88360000D01*
X67634417Y-88360000D01*
X67654699Y-88565932D01*
X67671834Y-88622417D01*
X67714768Y-88763954D01*
X67812315Y-88946450D01*
X67812317Y-88946452D01*
X67943589Y-89106410D01*
X68019696Y-89168868D01*
X68103550Y-89237685D01*
X68286046Y-89335232D01*
X68484066Y-89395300D01*
X68484065Y-89395300D01*
X68502529Y-89397118D01*
X68690000Y-89415583D01*
X68895934Y-89395300D01*
X69093954Y-89335232D01*
X69276450Y-89237685D01*
X69436410Y-89106410D01*
X69567685Y-88946450D01*
X69630332Y-88829245D01*
X69679295Y-88779402D01*
X69739690Y-88763700D01*
X75140310Y-88763700D01*
X75207349Y-88783385D01*
X75249667Y-88829244D01*
X75312315Y-88946450D01*
X75312317Y-88946452D01*
X75443589Y-89106410D01*
X75519696Y-89168868D01*
X75603550Y-89237685D01*
X75786046Y-89335232D01*
X75984066Y-89395300D01*
X75984065Y-89395300D01*
X76002529Y-89397118D01*
X76190000Y-89415583D01*
X76395934Y-89395300D01*
X76593954Y-89335232D01*
X76776450Y-89237685D01*
X76936410Y-89106410D01*
X77067685Y-88946450D01*
X77165232Y-88763954D01*
X77225300Y-88565934D01*
X77245583Y-88360000D01*
X77225300Y-88154066D01*
X77165232Y-87956046D01*
X77067685Y-87773550D01*
X76977842Y-87664075D01*
X76936410Y-87613589D01*
X76776452Y-87482317D01*
X76776453Y-87482317D01*
X76776450Y-87482315D01*
X76593954Y-87384768D01*
X76395934Y-87324700D01*
X76395932Y-87324699D01*
X76395934Y-87324699D01*
X76190000Y-87304417D01*
X75984067Y-87324699D01*
X75808692Y-87377898D01*
X75789930Y-87383590D01*
X75786043Y-87384769D01*
X75675898Y-87443643D01*
X75603550Y-87482315D01*
X75603548Y-87482316D01*
X75603547Y-87482317D01*
X75443589Y-87613589D01*
X75312317Y-87773547D01*
X75312315Y-87773550D01*
X75249668Y-87890754D01*
X75200705Y-87940598D01*
X75140310Y-87956300D01*
X69739690Y-87956300D01*
X69672651Y-87936615D01*
X69630332Y-87890754D01*
X69567685Y-87773550D01*
X69477842Y-87664075D01*
X69436410Y-87613589D01*
X69276452Y-87482317D01*
X69276453Y-87482317D01*
X69276450Y-87482315D01*
X69093954Y-87384768D01*
X68895934Y-87324700D01*
X68895932Y-87324699D01*
X68895934Y-87324699D01*
X68690000Y-87304417D01*
X68484067Y-87324699D01*
X68308692Y-87377898D01*
X68289930Y-87383590D01*
X68286043Y-87384769D01*
X68175898Y-87443643D01*
X68103550Y-87482315D01*
X68103548Y-87482316D01*
X68103547Y-87482317D01*
X67943589Y-87613589D01*
X67812317Y-87773547D01*
X67812315Y-87773550D01*
X67785887Y-87822993D01*
X67714769Y-87956043D01*
X67654699Y-88154067D01*
X67634417Y-88360000D01*
X67278000Y-88360000D01*
X67278000Y-85952000D01*
X63722000Y-85952000D01*
X63722000Y-89508000D01*
X62758700Y-89508000D01*
X62758700Y-89179689D01*
X62778385Y-89112650D01*
X62824244Y-89070333D01*
X62941450Y-89007685D01*
X63101410Y-88876410D01*
X63232685Y-88716450D01*
X63330232Y-88533954D01*
X63390300Y-88335934D01*
X63410583Y-88130000D01*
X63390300Y-87924066D01*
X63330232Y-87726046D01*
X63232685Y-87543550D01*
X63102378Y-87384769D01*
X63101410Y-87383589D01*
X62951121Y-87260252D01*
X62941450Y-87252315D01*
X62758954Y-87154768D01*
X62560934Y-87094700D01*
X62560932Y-87094699D01*
X62560934Y-87094699D01*
X62355000Y-87074417D01*
X62149067Y-87094699D01*
X61951043Y-87154769D01*
X61863114Y-87201769D01*
X61768550Y-87252315D01*
X61768548Y-87252316D01*
X61768547Y-87252317D01*
X61608589Y-87383589D01*
X61477317Y-87543547D01*
X61379767Y-87726046D01*
X61359593Y-87792552D01*
X61321296Y-87850990D01*
X61257483Y-87879447D01*
X61188416Y-87868886D01*
X61136023Y-87822661D01*
X61121158Y-87788649D01*
X61088433Y-87666516D01*
X61088429Y-87666507D01*
X60988600Y-87452422D01*
X60988599Y-87452420D01*
X60853113Y-87258926D01*
X60853108Y-87258920D01*
X60686082Y-87091894D01*
X60492578Y-86956399D01*
X60278492Y-86856570D01*
X60278486Y-86856567D01*
X60065000Y-86799364D01*
X60065000Y-87696988D01*
X60007993Y-87664075D01*
X59880826Y-87630000D01*
X59749174Y-87630000D01*
X59622007Y-87664075D01*
X59565000Y-87696988D01*
X59565000Y-86799364D01*
X59564999Y-86799364D01*
X59351513Y-86856567D01*
X59351507Y-86856570D01*
X59137422Y-86956399D01*
X59137420Y-86956400D01*
X58943926Y-87091886D01*
X58943920Y-87091891D01*
X58776891Y-87258920D01*
X58776886Y-87258926D01*
X58641400Y-87452420D01*
X58641399Y-87452422D01*
X58561882Y-87622948D01*
X58515710Y-87675387D01*
X58448516Y-87694539D01*
X58381635Y-87674323D01*
X58336300Y-87621158D01*
X58325500Y-87570543D01*
X58325500Y-87260249D01*
X58325499Y-87260247D01*
X58313868Y-87201770D01*
X58313867Y-87201769D01*
X58269552Y-87135447D01*
X58203230Y-87091132D01*
X58203229Y-87091131D01*
X58144752Y-87079500D01*
X58144748Y-87079500D01*
X56405252Y-87079500D01*
X56405247Y-87079500D01*
X56346770Y-87091131D01*
X56346769Y-87091132D01*
X56280447Y-87135447D01*
X56236132Y-87201769D01*
X56236131Y-87201770D01*
X56224500Y-87260247D01*
X55878000Y-87260247D01*
X55878000Y-85952000D01*
X52322000Y-85952000D01*
X52322000Y-89508000D01*
X36851300Y-89508000D01*
X36851300Y-88360000D01*
X42354417Y-88360000D01*
X42374699Y-88565932D01*
X42391834Y-88622417D01*
X42434768Y-88763954D01*
X42532315Y-88946450D01*
X42532317Y-88946452D01*
X42663589Y-89106410D01*
X42739696Y-89168868D01*
X42823550Y-89237685D01*
X43006046Y-89335232D01*
X43204066Y-89395300D01*
X43204065Y-89395300D01*
X43222529Y-89397118D01*
X43410000Y-89415583D01*
X43615934Y-89395300D01*
X43813954Y-89335232D01*
X43996450Y-89237685D01*
X44156410Y-89106410D01*
X44287685Y-88946450D01*
X44350332Y-88829245D01*
X44399295Y-88779402D01*
X44459690Y-88763700D01*
X49860310Y-88763700D01*
X49927349Y-88783385D01*
X49969667Y-88829244D01*
X50032315Y-88946450D01*
X50032317Y-88946452D01*
X50163589Y-89106410D01*
X50239696Y-89168868D01*
X50323550Y-89237685D01*
X50506046Y-89335232D01*
X50704066Y-89395300D01*
X50704065Y-89395300D01*
X50722529Y-89397118D01*
X50910000Y-89415583D01*
X51115934Y-89395300D01*
X51313954Y-89335232D01*
X51496450Y-89237685D01*
X51656410Y-89106410D01*
X51787685Y-88946450D01*
X51885232Y-88763954D01*
X51945300Y-88565934D01*
X51965583Y-88360000D01*
X51945300Y-88154066D01*
X51885232Y-87956046D01*
X51787685Y-87773550D01*
X51697842Y-87664075D01*
X51656410Y-87613589D01*
X51496452Y-87482317D01*
X51496453Y-87482317D01*
X51496450Y-87482315D01*
X51313954Y-87384768D01*
X51115934Y-87324700D01*
X51115932Y-87324699D01*
X51115934Y-87324699D01*
X50910000Y-87304417D01*
X50704067Y-87324699D01*
X50528692Y-87377898D01*
X50509930Y-87383590D01*
X50506043Y-87384769D01*
X50395898Y-87443643D01*
X50323550Y-87482315D01*
X50323548Y-87482316D01*
X50323547Y-87482317D01*
X50163589Y-87613589D01*
X50032317Y-87773547D01*
X50032315Y-87773550D01*
X49969668Y-87890754D01*
X49920705Y-87940598D01*
X49860310Y-87956300D01*
X44459690Y-87956300D01*
X44392651Y-87936615D01*
X44350332Y-87890754D01*
X44287685Y-87773550D01*
X44197842Y-87664075D01*
X44156410Y-87613589D01*
X43996452Y-87482317D01*
X43996453Y-87482317D01*
X43996450Y-87482315D01*
X43813954Y-87384768D01*
X43615934Y-87324700D01*
X43615932Y-87324699D01*
X43615934Y-87324699D01*
X43410000Y-87304417D01*
X43204067Y-87324699D01*
X43028692Y-87377898D01*
X43009930Y-87383590D01*
X43006043Y-87384769D01*
X42895898Y-87443643D01*
X42823550Y-87482315D01*
X42823548Y-87482316D01*
X42823547Y-87482317D01*
X42663589Y-87613589D01*
X42532317Y-87773547D01*
X42532315Y-87773550D01*
X42505887Y-87822993D01*
X42434769Y-87956043D01*
X42374699Y-88154067D01*
X42354417Y-88360000D01*
X36851300Y-88360000D01*
X36851300Y-83029999D01*
X42079364Y-83029999D01*
X42079364Y-83030000D01*
X42976988Y-83030000D01*
X42944075Y-83087007D01*
X42910000Y-83214174D01*
X42910000Y-83345826D01*
X42944075Y-83472993D01*
X42976988Y-83530000D01*
X42079364Y-83530000D01*
X42136567Y-83743486D01*
X42136570Y-83743492D01*
X42236399Y-83957578D01*
X42371894Y-84151082D01*
X42538917Y-84318105D01*
X42732421Y-84453600D01*
X42946507Y-84553429D01*
X42946516Y-84553433D01*
X43068649Y-84586158D01*
X43128310Y-84622523D01*
X43158839Y-84685369D01*
X43150545Y-84754745D01*
X43106059Y-84808623D01*
X43072552Y-84824593D01*
X43006046Y-84844767D01*
X42875358Y-84914622D01*
X42823550Y-84942315D01*
X42823548Y-84942316D01*
X42823547Y-84942317D01*
X42663589Y-85073589D01*
X42532317Y-85233547D01*
X42434769Y-85416043D01*
X42374699Y-85614067D01*
X42354417Y-85820000D01*
X42374699Y-86025932D01*
X42374700Y-86025934D01*
X42434768Y-86223954D01*
X42532315Y-86406450D01*
X42532317Y-86406452D01*
X42663589Y-86566410D01*
X42760209Y-86645702D01*
X42823550Y-86697685D01*
X43006046Y-86795232D01*
X43204066Y-86855300D01*
X43204065Y-86855300D01*
X43216930Y-86856567D01*
X43410000Y-86875583D01*
X43615934Y-86855300D01*
X43813954Y-86795232D01*
X43996450Y-86697685D01*
X44156410Y-86566410D01*
X44287685Y-86406450D01*
X44350332Y-86289245D01*
X44399295Y-86239402D01*
X44459690Y-86223700D01*
X49860310Y-86223700D01*
X49927349Y-86243385D01*
X49969667Y-86289244D01*
X50032315Y-86406450D01*
X50032317Y-86406452D01*
X50163589Y-86566410D01*
X50260209Y-86645702D01*
X50323550Y-86697685D01*
X50506046Y-86795232D01*
X50704066Y-86855300D01*
X50704065Y-86855300D01*
X50716930Y-86856567D01*
X50910000Y-86875583D01*
X51115934Y-86855300D01*
X51313954Y-86795232D01*
X51496450Y-86697685D01*
X51656410Y-86566410D01*
X51787685Y-86406450D01*
X51885232Y-86223954D01*
X51945300Y-86025934D01*
X51965583Y-85820000D01*
X51945300Y-85614066D01*
X51885232Y-85416046D01*
X51787685Y-85233550D01*
X51735702Y-85170209D01*
X51656410Y-85073589D01*
X51496452Y-84942317D01*
X51496453Y-84942317D01*
X51496450Y-84942315D01*
X51313954Y-84844768D01*
X51247447Y-84824593D01*
X51189009Y-84786296D01*
X51160553Y-84722484D01*
X51171113Y-84653417D01*
X51217337Y-84601023D01*
X51251350Y-84586158D01*
X51373483Y-84553433D01*
X51373492Y-84553429D01*
X51587578Y-84453600D01*
X51781082Y-84318105D01*
X51948105Y-84151082D01*
X52083600Y-83957578D01*
X52183429Y-83743492D01*
X52183432Y-83743486D01*
X52240636Y-83530000D01*
X51343012Y-83530000D01*
X51375925Y-83472993D01*
X51410000Y-83345826D01*
X51410000Y-83214174D01*
X51375925Y-83087007D01*
X51343012Y-83030000D01*
X52240636Y-83030000D01*
X52240635Y-83029999D01*
X67359364Y-83029999D01*
X67359364Y-83030000D01*
X68256988Y-83030000D01*
X68224075Y-83087007D01*
X68190000Y-83214174D01*
X68190000Y-83345826D01*
X68224075Y-83472993D01*
X68256988Y-83530000D01*
X67359364Y-83530000D01*
X67416567Y-83743486D01*
X67416570Y-83743492D01*
X67516399Y-83957578D01*
X67651894Y-84151082D01*
X67818917Y-84318105D01*
X68012421Y-84453600D01*
X68226507Y-84553429D01*
X68226516Y-84553433D01*
X68348649Y-84586158D01*
X68408310Y-84622523D01*
X68438839Y-84685369D01*
X68430545Y-84754745D01*
X68386059Y-84808623D01*
X68352552Y-84824593D01*
X68286046Y-84844767D01*
X68155358Y-84914622D01*
X68103550Y-84942315D01*
X68103548Y-84942316D01*
X68103547Y-84942317D01*
X67943589Y-85073589D01*
X67812317Y-85233547D01*
X67714769Y-85416043D01*
X67654699Y-85614067D01*
X67634417Y-85820000D01*
X67654699Y-86025932D01*
X67654700Y-86025934D01*
X67714768Y-86223954D01*
X67812315Y-86406450D01*
X67812317Y-86406452D01*
X67943589Y-86566410D01*
X68040209Y-86645702D01*
X68103550Y-86697685D01*
X68286046Y-86795232D01*
X68484066Y-86855300D01*
X68484065Y-86855300D01*
X68496930Y-86856567D01*
X68690000Y-86875583D01*
X68895934Y-86855300D01*
X69093954Y-86795232D01*
X69276450Y-86697685D01*
X69436410Y-86566410D01*
X69567685Y-86406450D01*
X69630332Y-86289245D01*
X69679295Y-86239402D01*
X69739690Y-86223700D01*
X75140310Y-86223700D01*
X75207349Y-86243385D01*
X75249667Y-86289244D01*
X75312315Y-86406450D01*
X75312317Y-86406452D01*
X75443589Y-86566410D01*
X75540209Y-86645702D01*
X75603550Y-86697685D01*
X75786046Y-86795232D01*
X75984066Y-86855300D01*
X75984065Y-86855300D01*
X75996930Y-86856567D01*
X76190000Y-86875583D01*
X76395934Y-86855300D01*
X76593954Y-86795232D01*
X76776450Y-86697685D01*
X76936410Y-86566410D01*
X77067685Y-86406450D01*
X77165232Y-86223954D01*
X77225300Y-86025934D01*
X77245583Y-85820000D01*
X77225300Y-85614066D01*
X77165232Y-85416046D01*
X77067685Y-85233550D01*
X77015702Y-85170209D01*
X76936410Y-85073589D01*
X76776452Y-84942317D01*
X76776453Y-84942317D01*
X76776450Y-84942315D01*
X76593954Y-84844768D01*
X76527447Y-84824593D01*
X76469009Y-84786296D01*
X76440553Y-84722484D01*
X76451113Y-84653417D01*
X76497337Y-84601023D01*
X76531350Y-84586158D01*
X76653483Y-84553433D01*
X76653492Y-84553429D01*
X76867578Y-84453600D01*
X77061082Y-84318105D01*
X77228105Y-84151082D01*
X77363600Y-83957578D01*
X77463429Y-83743492D01*
X77463432Y-83743486D01*
X77520636Y-83530000D01*
X76623012Y-83530000D01*
X76655925Y-83472993D01*
X76690000Y-83345826D01*
X76690000Y-83214174D01*
X76655925Y-83087007D01*
X76623012Y-83030000D01*
X77520636Y-83030000D01*
X77520635Y-83029999D01*
X77463432Y-82816513D01*
X77463429Y-82816507D01*
X77363600Y-82602422D01*
X77363599Y-82602420D01*
X77228113Y-82408926D01*
X77228108Y-82408920D01*
X77061082Y-82241894D01*
X76867578Y-82106399D01*
X76653492Y-82006570D01*
X76653486Y-82006567D01*
X76531349Y-81973841D01*
X76471689Y-81937476D01*
X76441160Y-81874629D01*
X76449455Y-81805253D01*
X76493940Y-81751375D01*
X76527444Y-81735407D01*
X76593954Y-81715232D01*
X76776450Y-81617685D01*
X76936410Y-81486410D01*
X77067685Y-81326450D01*
X77165232Y-81143954D01*
X77225300Y-80945934D01*
X77245583Y-80740000D01*
X77225300Y-80534066D01*
X77165232Y-80336046D01*
X77067685Y-80153550D01*
X77015702Y-80090209D01*
X76936410Y-79993589D01*
X76776452Y-79862317D01*
X76776453Y-79862317D01*
X76776450Y-79862315D01*
X76593954Y-79764768D01*
X76395934Y-79704700D01*
X76395932Y-79704699D01*
X76395934Y-79704699D01*
X76190000Y-79684417D01*
X75984067Y-79704699D01*
X75786043Y-79764769D01*
X75675898Y-79823643D01*
X75603550Y-79862315D01*
X75603548Y-79862316D01*
X75603547Y-79862317D01*
X75443589Y-79993589D01*
X75312317Y-80153547D01*
X75249668Y-80270754D01*
X75200705Y-80320598D01*
X75140310Y-80336300D01*
X69739690Y-80336300D01*
X69672651Y-80316615D01*
X69630332Y-80270754D01*
X69567685Y-80153550D01*
X69515702Y-80090209D01*
X69436410Y-79993589D01*
X69276452Y-79862317D01*
X69276453Y-79862317D01*
X69276450Y-79862315D01*
X69093954Y-79764768D01*
X68895934Y-79704700D01*
X68895932Y-79704699D01*
X68895934Y-79704699D01*
X68690000Y-79684417D01*
X68484067Y-79704699D01*
X68286043Y-79764769D01*
X68175898Y-79823643D01*
X68103550Y-79862315D01*
X68103548Y-79862316D01*
X68103547Y-79862317D01*
X67943589Y-79993589D01*
X67812317Y-80153547D01*
X67714769Y-80336043D01*
X67654699Y-80534067D01*
X67634417Y-80740000D01*
X67654699Y-80945932D01*
X67654700Y-80945934D01*
X67714768Y-81143954D01*
X67812315Y-81326450D01*
X67812317Y-81326452D01*
X67943589Y-81486410D01*
X68040209Y-81565702D01*
X68103550Y-81617685D01*
X68286046Y-81715232D01*
X68352551Y-81735405D01*
X68410989Y-81773702D01*
X68439446Y-81837514D01*
X68428887Y-81906581D01*
X68382663Y-81958975D01*
X68348650Y-81973841D01*
X68226514Y-82006567D01*
X68226507Y-82006570D01*
X68012422Y-82106399D01*
X68012420Y-82106400D01*
X67818926Y-82241886D01*
X67818920Y-82241891D01*
X67651891Y-82408920D01*
X67651886Y-82408926D01*
X67516400Y-82602420D01*
X67516399Y-82602422D01*
X67416570Y-82816507D01*
X67416567Y-82816513D01*
X67359364Y-83029999D01*
X52240635Y-83029999D01*
X52183432Y-82816513D01*
X52183429Y-82816507D01*
X52083600Y-82602422D01*
X52083599Y-82602420D01*
X51948113Y-82408926D01*
X51948108Y-82408920D01*
X51781082Y-82241894D01*
X51587578Y-82106399D01*
X51373492Y-82006570D01*
X51373486Y-82006567D01*
X51251349Y-81973841D01*
X51191689Y-81937476D01*
X51161160Y-81874629D01*
X51169455Y-81805253D01*
X51213940Y-81751375D01*
X51247444Y-81735407D01*
X51313954Y-81715232D01*
X51496450Y-81617685D01*
X51656410Y-81486410D01*
X51787685Y-81326450D01*
X51885232Y-81143954D01*
X51945300Y-80945934D01*
X51965583Y-80740000D01*
X51945300Y-80534066D01*
X51885232Y-80336046D01*
X51787685Y-80153550D01*
X51735702Y-80090209D01*
X51656410Y-79993589D01*
X51496452Y-79862317D01*
X51496453Y-79862317D01*
X51496450Y-79862315D01*
X51313954Y-79764768D01*
X51115934Y-79704700D01*
X51115932Y-79704699D01*
X51115934Y-79704699D01*
X50910000Y-79684417D01*
X50704067Y-79704699D01*
X50506043Y-79764769D01*
X50395898Y-79823643D01*
X50323550Y-79862315D01*
X50323548Y-79862316D01*
X50323547Y-79862317D01*
X50163589Y-79993589D01*
X50032317Y-80153547D01*
X49969668Y-80270754D01*
X49920705Y-80320598D01*
X49860310Y-80336300D01*
X44459690Y-80336300D01*
X44392651Y-80316615D01*
X44350332Y-80270754D01*
X44287685Y-80153550D01*
X44235702Y-80090209D01*
X44156410Y-79993589D01*
X43996452Y-79862317D01*
X43996453Y-79862317D01*
X43996450Y-79862315D01*
X43813954Y-79764768D01*
X43615934Y-79704700D01*
X43615932Y-79704699D01*
X43615934Y-79704699D01*
X43410000Y-79684417D01*
X43204067Y-79704699D01*
X43006043Y-79764769D01*
X42895898Y-79823643D01*
X42823550Y-79862315D01*
X42823548Y-79862316D01*
X42823547Y-79862317D01*
X42663589Y-79993589D01*
X42532317Y-80153547D01*
X42434769Y-80336043D01*
X42374699Y-80534067D01*
X42354417Y-80740000D01*
X42374699Y-80945932D01*
X42374700Y-80945934D01*
X42434768Y-81143954D01*
X42532315Y-81326450D01*
X42532317Y-81326452D01*
X42663589Y-81486410D01*
X42760209Y-81565702D01*
X42823550Y-81617685D01*
X43006046Y-81715232D01*
X43072551Y-81735405D01*
X43130989Y-81773702D01*
X43159446Y-81837514D01*
X43148887Y-81906581D01*
X43102663Y-81958975D01*
X43068650Y-81973841D01*
X42946514Y-82006567D01*
X42946507Y-82006570D01*
X42732422Y-82106399D01*
X42732420Y-82106400D01*
X42538926Y-82241886D01*
X42538920Y-82241891D01*
X42371891Y-82408920D01*
X42371886Y-82408926D01*
X42236400Y-82602420D01*
X42236399Y-82602422D01*
X42136570Y-82816507D01*
X42136567Y-82816513D01*
X42079364Y-83029999D01*
X36851300Y-83029999D01*
X36851300Y-78200000D01*
X42354417Y-78200000D01*
X42374699Y-78405932D01*
X42374700Y-78405934D01*
X42434768Y-78603954D01*
X42532315Y-78786450D01*
X42532317Y-78786452D01*
X42663589Y-78946410D01*
X42760209Y-79025702D01*
X42823550Y-79077685D01*
X43006046Y-79175232D01*
X43204066Y-79235300D01*
X43204065Y-79235300D01*
X43222529Y-79237118D01*
X43410000Y-79255583D01*
X43615934Y-79235300D01*
X43813954Y-79175232D01*
X43996450Y-79077685D01*
X44156410Y-78946410D01*
X44287685Y-78786450D01*
X44350332Y-78669245D01*
X44399295Y-78619402D01*
X44459690Y-78603700D01*
X49860310Y-78603700D01*
X49927349Y-78623385D01*
X49969667Y-78669244D01*
X50032315Y-78786450D01*
X50032317Y-78786452D01*
X50163589Y-78946410D01*
X50260209Y-79025702D01*
X50323550Y-79077685D01*
X50506046Y-79175232D01*
X50704066Y-79235300D01*
X50704065Y-79235300D01*
X50722529Y-79237118D01*
X50910000Y-79255583D01*
X51115934Y-79235300D01*
X51313954Y-79175232D01*
X51496450Y-79077685D01*
X51656410Y-78946410D01*
X51787685Y-78786450D01*
X51885232Y-78603954D01*
X51945300Y-78405934D01*
X51965583Y-78200000D01*
X67634417Y-78200000D01*
X67654699Y-78405932D01*
X67654700Y-78405934D01*
X67714768Y-78603954D01*
X67812315Y-78786450D01*
X67812317Y-78786452D01*
X67943589Y-78946410D01*
X68040209Y-79025702D01*
X68103550Y-79077685D01*
X68286046Y-79175232D01*
X68484066Y-79235300D01*
X68484065Y-79235300D01*
X68502529Y-79237118D01*
X68690000Y-79255583D01*
X68895934Y-79235300D01*
X69093954Y-79175232D01*
X69276450Y-79077685D01*
X69436410Y-78946410D01*
X69567685Y-78786450D01*
X69630332Y-78669245D01*
X69679295Y-78619402D01*
X69739690Y-78603700D01*
X75140310Y-78603700D01*
X75207349Y-78623385D01*
X75249667Y-78669244D01*
X75312315Y-78786450D01*
X75312317Y-78786452D01*
X75443589Y-78946410D01*
X75540209Y-79025702D01*
X75603550Y-79077685D01*
X75786046Y-79175232D01*
X75984066Y-79235300D01*
X75984065Y-79235300D01*
X76002529Y-79237118D01*
X76190000Y-79255583D01*
X76395934Y-79235300D01*
X76593954Y-79175232D01*
X76776450Y-79077685D01*
X76936410Y-78946410D01*
X77067685Y-78786450D01*
X77165232Y-78603954D01*
X77225300Y-78405934D01*
X77245583Y-78200000D01*
X77225300Y-77994066D01*
X77165232Y-77796046D01*
X77067685Y-77613550D01*
X77015702Y-77550209D01*
X76936410Y-77453589D01*
X76776452Y-77322317D01*
X76776453Y-77322317D01*
X76776450Y-77322315D01*
X76593954Y-77224768D01*
X76395934Y-77164700D01*
X76395932Y-77164699D01*
X76395934Y-77164699D01*
X76190000Y-77144417D01*
X75984067Y-77164699D01*
X75786043Y-77224769D01*
X75675898Y-77283643D01*
X75603550Y-77322315D01*
X75603548Y-77322316D01*
X75603547Y-77322317D01*
X75443589Y-77453589D01*
X75312317Y-77613547D01*
X75249668Y-77730754D01*
X75200705Y-77780598D01*
X75140310Y-77796300D01*
X69739690Y-77796300D01*
X69672651Y-77776615D01*
X69630332Y-77730754D01*
X69567685Y-77613550D01*
X69515702Y-77550209D01*
X69436410Y-77453589D01*
X69276452Y-77322317D01*
X69276453Y-77322317D01*
X69276450Y-77322315D01*
X69093954Y-77224768D01*
X68895934Y-77164700D01*
X68895932Y-77164699D01*
X68895934Y-77164699D01*
X68690000Y-77144417D01*
X68484067Y-77164699D01*
X68286043Y-77224769D01*
X68175898Y-77283643D01*
X68103550Y-77322315D01*
X68103548Y-77322316D01*
X68103547Y-77322317D01*
X67943589Y-77453589D01*
X67812317Y-77613547D01*
X67714769Y-77796043D01*
X67654699Y-77994067D01*
X67634417Y-78200000D01*
X51965583Y-78200000D01*
X51945300Y-77994066D01*
X51885232Y-77796046D01*
X51787685Y-77613550D01*
X51735702Y-77550209D01*
X51656410Y-77453589D01*
X51496452Y-77322317D01*
X51496453Y-77322317D01*
X51496450Y-77322315D01*
X51313954Y-77224768D01*
X51115934Y-77164700D01*
X51115932Y-77164699D01*
X51115934Y-77164699D01*
X50910000Y-77144417D01*
X50704067Y-77164699D01*
X50506043Y-77224769D01*
X50395898Y-77283643D01*
X50323550Y-77322315D01*
X50323548Y-77322316D01*
X50323547Y-77322317D01*
X50163589Y-77453589D01*
X50032317Y-77613547D01*
X49969668Y-77730754D01*
X49920705Y-77780598D01*
X49860310Y-77796300D01*
X44459690Y-77796300D01*
X44392651Y-77776615D01*
X44350332Y-77730754D01*
X44287685Y-77613550D01*
X44235702Y-77550209D01*
X44156410Y-77453589D01*
X43996452Y-77322317D01*
X43996453Y-77322317D01*
X43996450Y-77322315D01*
X43813954Y-77224768D01*
X43615934Y-77164700D01*
X43615932Y-77164699D01*
X43615934Y-77164699D01*
X43410000Y-77144417D01*
X43204067Y-77164699D01*
X43006043Y-77224769D01*
X42895898Y-77283643D01*
X42823550Y-77322315D01*
X42823548Y-77322316D01*
X42823547Y-77322317D01*
X42663589Y-77453589D01*
X42532317Y-77613547D01*
X42434769Y-77796043D01*
X42374699Y-77994067D01*
X42354417Y-78200000D01*
X36851300Y-78200000D01*
X36851300Y-75660000D01*
X42354417Y-75660000D01*
X42374699Y-75865932D01*
X42374700Y-75865934D01*
X42434768Y-76063954D01*
X42532315Y-76246450D01*
X42532317Y-76246452D01*
X42663589Y-76406410D01*
X42760209Y-76485702D01*
X42823550Y-76537685D01*
X43006046Y-76635232D01*
X43204066Y-76695300D01*
X43204065Y-76695300D01*
X43222529Y-76697118D01*
X43410000Y-76715583D01*
X43615934Y-76695300D01*
X43813954Y-76635232D01*
X43996450Y-76537685D01*
X44156410Y-76406410D01*
X44287685Y-76246450D01*
X44350332Y-76129245D01*
X44399295Y-76079402D01*
X44459690Y-76063700D01*
X49860310Y-76063700D01*
X49927349Y-76083385D01*
X49969667Y-76129244D01*
X50032315Y-76246450D01*
X50032317Y-76246452D01*
X50163589Y-76406410D01*
X50260209Y-76485702D01*
X50323550Y-76537685D01*
X50506046Y-76635232D01*
X50704066Y-76695300D01*
X50704065Y-76695300D01*
X50722529Y-76697118D01*
X50910000Y-76715583D01*
X51115934Y-76695300D01*
X51313954Y-76635232D01*
X51496450Y-76537685D01*
X51656410Y-76406410D01*
X51787685Y-76246450D01*
X51885232Y-76063954D01*
X51945300Y-75865934D01*
X51965583Y-75660000D01*
X67634417Y-75660000D01*
X67654699Y-75865932D01*
X67654700Y-75865934D01*
X67714768Y-76063954D01*
X67812315Y-76246450D01*
X67812317Y-76246452D01*
X67943589Y-76406410D01*
X68040209Y-76485702D01*
X68103550Y-76537685D01*
X68286046Y-76635232D01*
X68484066Y-76695300D01*
X68484065Y-76695300D01*
X68502529Y-76697118D01*
X68690000Y-76715583D01*
X68895934Y-76695300D01*
X69093954Y-76635232D01*
X69276450Y-76537685D01*
X69436410Y-76406410D01*
X69567685Y-76246450D01*
X69630332Y-76129245D01*
X69679295Y-76079402D01*
X69739690Y-76063700D01*
X75140310Y-76063700D01*
X75207349Y-76083385D01*
X75249667Y-76129244D01*
X75312315Y-76246450D01*
X75312317Y-76246452D01*
X75443589Y-76406410D01*
X75540209Y-76485702D01*
X75603550Y-76537685D01*
X75786046Y-76635232D01*
X75984066Y-76695300D01*
X75984065Y-76695300D01*
X76002529Y-76697118D01*
X76190000Y-76715583D01*
X76395934Y-76695300D01*
X76593954Y-76635232D01*
X76776450Y-76537685D01*
X76936410Y-76406410D01*
X77067685Y-76246450D01*
X77165232Y-76063954D01*
X77225300Y-75865934D01*
X77245583Y-75660000D01*
X77225300Y-75454066D01*
X77165232Y-75256046D01*
X77067685Y-75073550D01*
X77015702Y-75010209D01*
X76936410Y-74913589D01*
X76776452Y-74782317D01*
X76776453Y-74782317D01*
X76776450Y-74782315D01*
X76593954Y-74684768D01*
X76395934Y-74624700D01*
X76395932Y-74624699D01*
X76395934Y-74624699D01*
X76190000Y-74604417D01*
X75984067Y-74624699D01*
X75786043Y-74684769D01*
X75675898Y-74743643D01*
X75603550Y-74782315D01*
X75603548Y-74782316D01*
X75603547Y-74782317D01*
X75443589Y-74913589D01*
X75312317Y-75073547D01*
X75249668Y-75190754D01*
X75200705Y-75240598D01*
X75140310Y-75256300D01*
X69739690Y-75256300D01*
X69672651Y-75236615D01*
X69630332Y-75190754D01*
X69567685Y-75073550D01*
X69515702Y-75010209D01*
X69436410Y-74913589D01*
X69276452Y-74782317D01*
X69276453Y-74782317D01*
X69276450Y-74782315D01*
X69093954Y-74684768D01*
X68895934Y-74624700D01*
X68895932Y-74624699D01*
X68895934Y-74624699D01*
X68690000Y-74604417D01*
X68484067Y-74624699D01*
X68286043Y-74684769D01*
X68175898Y-74743643D01*
X68103550Y-74782315D01*
X68103548Y-74782316D01*
X68103547Y-74782317D01*
X67943589Y-74913589D01*
X67812317Y-75073547D01*
X67714769Y-75256043D01*
X67654699Y-75454067D01*
X67634417Y-75660000D01*
X51965583Y-75660000D01*
X51945300Y-75454066D01*
X51885232Y-75256046D01*
X51787685Y-75073550D01*
X51735702Y-75010209D01*
X51656410Y-74913589D01*
X51496452Y-74782317D01*
X51496453Y-74782317D01*
X51496450Y-74782315D01*
X51313954Y-74684768D01*
X51115934Y-74624700D01*
X51115932Y-74624699D01*
X51115934Y-74624699D01*
X50910000Y-74604417D01*
X50704067Y-74624699D01*
X50506043Y-74684769D01*
X50395898Y-74743643D01*
X50323550Y-74782315D01*
X50323548Y-74782316D01*
X50323547Y-74782317D01*
X50163589Y-74913589D01*
X50032317Y-75073547D01*
X49969668Y-75190754D01*
X49920705Y-75240598D01*
X49860310Y-75256300D01*
X44459690Y-75256300D01*
X44392651Y-75236615D01*
X44350332Y-75190754D01*
X44287685Y-75073550D01*
X44235702Y-75010209D01*
X44156410Y-74913589D01*
X43996452Y-74782317D01*
X43996453Y-74782317D01*
X43996450Y-74782315D01*
X43813954Y-74684768D01*
X43615934Y-74624700D01*
X43615932Y-74624699D01*
X43615934Y-74624699D01*
X43410000Y-74604417D01*
X43204067Y-74624699D01*
X43006043Y-74684769D01*
X42895898Y-74743643D01*
X42823550Y-74782315D01*
X42823548Y-74782316D01*
X42823547Y-74782317D01*
X42663589Y-74913589D01*
X42532317Y-75073547D01*
X42434769Y-75256043D01*
X42374699Y-75454067D01*
X42354417Y-75660000D01*
X36851300Y-75660000D01*
X36851300Y-70329999D01*
X42079364Y-70329999D01*
X42079364Y-70330000D01*
X42976988Y-70330000D01*
X42944075Y-70387007D01*
X42910000Y-70514174D01*
X42910000Y-70645826D01*
X42944075Y-70772993D01*
X42976988Y-70830000D01*
X42079364Y-70830000D01*
X42136567Y-71043486D01*
X42136570Y-71043492D01*
X42236399Y-71257578D01*
X42371894Y-71451082D01*
X42538917Y-71618105D01*
X42732421Y-71753600D01*
X42946507Y-71853429D01*
X42946516Y-71853433D01*
X43068649Y-71886158D01*
X43128310Y-71922523D01*
X43158839Y-71985369D01*
X43150545Y-72054745D01*
X43106059Y-72108623D01*
X43072552Y-72124593D01*
X43006046Y-72144767D01*
X42875358Y-72214622D01*
X42823550Y-72242315D01*
X42823548Y-72242316D01*
X42823547Y-72242317D01*
X42663589Y-72373589D01*
X42532317Y-72533547D01*
X42434769Y-72716043D01*
X42374699Y-72914067D01*
X42354417Y-73120000D01*
X42374699Y-73325932D01*
X42374700Y-73325934D01*
X42434768Y-73523954D01*
X42532315Y-73706450D01*
X42532317Y-73706452D01*
X42663589Y-73866410D01*
X42760209Y-73945702D01*
X42823550Y-73997685D01*
X43006046Y-74095232D01*
X43204066Y-74155300D01*
X43204065Y-74155300D01*
X43222529Y-74157118D01*
X43410000Y-74175583D01*
X43615934Y-74155300D01*
X43813954Y-74095232D01*
X43996450Y-73997685D01*
X44156410Y-73866410D01*
X44287685Y-73706450D01*
X44350332Y-73589245D01*
X44399295Y-73539402D01*
X44459690Y-73523700D01*
X49860310Y-73523700D01*
X49927349Y-73543385D01*
X49969667Y-73589244D01*
X50032315Y-73706450D01*
X50032317Y-73706452D01*
X50163589Y-73866410D01*
X50260209Y-73945702D01*
X50323550Y-73997685D01*
X50506046Y-74095232D01*
X50704066Y-74155300D01*
X50704065Y-74155300D01*
X50722529Y-74157118D01*
X50910000Y-74175583D01*
X51115934Y-74155300D01*
X51313954Y-74095232D01*
X51496450Y-73997685D01*
X51656410Y-73866410D01*
X51787685Y-73706450D01*
X51885232Y-73523954D01*
X51945300Y-73325934D01*
X51965583Y-73120000D01*
X51945300Y-72914066D01*
X51885232Y-72716046D01*
X51787685Y-72533550D01*
X51735702Y-72470209D01*
X51656410Y-72373589D01*
X51496452Y-72242317D01*
X51496453Y-72242317D01*
X51496450Y-72242315D01*
X51313954Y-72144768D01*
X51247447Y-72124593D01*
X51189009Y-72086296D01*
X51160553Y-72022484D01*
X51171113Y-71953417D01*
X51217337Y-71901023D01*
X51251350Y-71886158D01*
X51373483Y-71853433D01*
X51373492Y-71853429D01*
X51587578Y-71753600D01*
X51781082Y-71618105D01*
X51948105Y-71451082D01*
X52083600Y-71257578D01*
X52183429Y-71043492D01*
X52183432Y-71043486D01*
X52240636Y-70830000D01*
X51343012Y-70830000D01*
X51375925Y-70772993D01*
X51410000Y-70645826D01*
X51410000Y-70514174D01*
X51375925Y-70387007D01*
X51343012Y-70330000D01*
X52240636Y-70330000D01*
X52240635Y-70329999D01*
X67359364Y-70329999D01*
X67359364Y-70330000D01*
X68256988Y-70330000D01*
X68224075Y-70387007D01*
X68190000Y-70514174D01*
X68190000Y-70645826D01*
X68224075Y-70772993D01*
X68256988Y-70830000D01*
X67359364Y-70830000D01*
X67416567Y-71043486D01*
X67416570Y-71043492D01*
X67516399Y-71257578D01*
X67651894Y-71451082D01*
X67818917Y-71618105D01*
X68012421Y-71753600D01*
X68226507Y-71853429D01*
X68226516Y-71853433D01*
X68348649Y-71886158D01*
X68408310Y-71922523D01*
X68438839Y-71985369D01*
X68430545Y-72054745D01*
X68386059Y-72108623D01*
X68352552Y-72124593D01*
X68286046Y-72144767D01*
X68155358Y-72214622D01*
X68103550Y-72242315D01*
X68103548Y-72242316D01*
X68103547Y-72242317D01*
X67943589Y-72373589D01*
X67812317Y-72533547D01*
X67714769Y-72716043D01*
X67654699Y-72914067D01*
X67634417Y-73120000D01*
X67654699Y-73325932D01*
X67654700Y-73325934D01*
X67714768Y-73523954D01*
X67812315Y-73706450D01*
X67812317Y-73706452D01*
X67943589Y-73866410D01*
X68040209Y-73945702D01*
X68103550Y-73997685D01*
X68286046Y-74095232D01*
X68484066Y-74155300D01*
X68484065Y-74155300D01*
X68502529Y-74157118D01*
X68690000Y-74175583D01*
X68895934Y-74155300D01*
X69093954Y-74095232D01*
X69276450Y-73997685D01*
X69436410Y-73866410D01*
X69567685Y-73706450D01*
X69630332Y-73589245D01*
X69679295Y-73539402D01*
X69739690Y-73523700D01*
X75140310Y-73523700D01*
X75207349Y-73543385D01*
X75249667Y-73589244D01*
X75312315Y-73706450D01*
X75312317Y-73706452D01*
X75443589Y-73866410D01*
X75540209Y-73945702D01*
X75603550Y-73997685D01*
X75786046Y-74095232D01*
X75984066Y-74155300D01*
X75984065Y-74155300D01*
X76002529Y-74157118D01*
X76190000Y-74175583D01*
X76395934Y-74155300D01*
X76593954Y-74095232D01*
X76776450Y-73997685D01*
X76936410Y-73866410D01*
X77067685Y-73706450D01*
X77165232Y-73523954D01*
X77225300Y-73325934D01*
X77245583Y-73120000D01*
X77225300Y-72914066D01*
X77165232Y-72716046D01*
X77067685Y-72533550D01*
X77015702Y-72470209D01*
X76936410Y-72373589D01*
X76776452Y-72242317D01*
X76776453Y-72242317D01*
X76776450Y-72242315D01*
X76593954Y-72144768D01*
X76527447Y-72124593D01*
X76469009Y-72086296D01*
X76440553Y-72022484D01*
X76451113Y-71953417D01*
X76497337Y-71901023D01*
X76531350Y-71886158D01*
X76653483Y-71853433D01*
X76653492Y-71853429D01*
X76867578Y-71753600D01*
X77061082Y-71618105D01*
X77228105Y-71451082D01*
X77363600Y-71257578D01*
X77463429Y-71043492D01*
X77463432Y-71043486D01*
X77520636Y-70830000D01*
X76623012Y-70830000D01*
X76655925Y-70772993D01*
X76690000Y-70645826D01*
X76690000Y-70514174D01*
X76655925Y-70387007D01*
X76623012Y-70330000D01*
X77520636Y-70330000D01*
X77520635Y-70329999D01*
X77463432Y-70116513D01*
X77463429Y-70116507D01*
X77363600Y-69902422D01*
X77363599Y-69902420D01*
X77228113Y-69708926D01*
X77228108Y-69708920D01*
X77061082Y-69541894D01*
X76867578Y-69406399D01*
X76653492Y-69306570D01*
X76653486Y-69306567D01*
X76531349Y-69273841D01*
X76471689Y-69237476D01*
X76441160Y-69174629D01*
X76449455Y-69105253D01*
X76493940Y-69051375D01*
X76527444Y-69035407D01*
X76593954Y-69015232D01*
X76776450Y-68917685D01*
X76936410Y-68786410D01*
X77067685Y-68626450D01*
X77165232Y-68443954D01*
X77225300Y-68245934D01*
X77245583Y-68040000D01*
X77225300Y-67834066D01*
X77165232Y-67636046D01*
X77067685Y-67453550D01*
X77015702Y-67390209D01*
X76936410Y-67293589D01*
X76776452Y-67162317D01*
X76776453Y-67162317D01*
X76776450Y-67162315D01*
X76593954Y-67064768D01*
X76395934Y-67004700D01*
X76395932Y-67004699D01*
X76395934Y-67004699D01*
X76190000Y-66984417D01*
X75984067Y-67004699D01*
X75786043Y-67064769D01*
X75675898Y-67123643D01*
X75603550Y-67162315D01*
X75603548Y-67162316D01*
X75603547Y-67162317D01*
X75443589Y-67293589D01*
X75312317Y-67453547D01*
X75249668Y-67570754D01*
X75200705Y-67620598D01*
X75140310Y-67636300D01*
X69739690Y-67636300D01*
X69672651Y-67616615D01*
X69630332Y-67570754D01*
X69567685Y-67453550D01*
X69515702Y-67390209D01*
X69436410Y-67293589D01*
X69276452Y-67162317D01*
X69276453Y-67162317D01*
X69276450Y-67162315D01*
X69093954Y-67064768D01*
X68895934Y-67004700D01*
X68895932Y-67004699D01*
X68895934Y-67004699D01*
X68690000Y-66984417D01*
X68484067Y-67004699D01*
X68286043Y-67064769D01*
X68175898Y-67123643D01*
X68103550Y-67162315D01*
X68103548Y-67162316D01*
X68103547Y-67162317D01*
X67943589Y-67293589D01*
X67812317Y-67453547D01*
X67714769Y-67636043D01*
X67654699Y-67834067D01*
X67634417Y-68040000D01*
X67654699Y-68245932D01*
X67654700Y-68245934D01*
X67714768Y-68443954D01*
X67812315Y-68626450D01*
X67812317Y-68626452D01*
X67943589Y-68786410D01*
X68040209Y-68865702D01*
X68103550Y-68917685D01*
X68286046Y-69015232D01*
X68352551Y-69035405D01*
X68410989Y-69073702D01*
X68439446Y-69137514D01*
X68428887Y-69206581D01*
X68382663Y-69258975D01*
X68348650Y-69273841D01*
X68226514Y-69306567D01*
X68226507Y-69306570D01*
X68012422Y-69406399D01*
X68012420Y-69406400D01*
X67818926Y-69541886D01*
X67818920Y-69541891D01*
X67651891Y-69708920D01*
X67651886Y-69708926D01*
X67516400Y-69902420D01*
X67516399Y-69902422D01*
X67416570Y-70116507D01*
X67416567Y-70116513D01*
X67359364Y-70329999D01*
X52240635Y-70329999D01*
X52183432Y-70116513D01*
X52183429Y-70116507D01*
X52083600Y-69902422D01*
X52083599Y-69902420D01*
X51948113Y-69708926D01*
X51948108Y-69708920D01*
X51781082Y-69541894D01*
X51587578Y-69406399D01*
X51373492Y-69306570D01*
X51373486Y-69306567D01*
X51251349Y-69273841D01*
X51191689Y-69237476D01*
X51161160Y-69174629D01*
X51169455Y-69105253D01*
X51213940Y-69051375D01*
X51247444Y-69035407D01*
X51313954Y-69015232D01*
X51496450Y-68917685D01*
X51656410Y-68786410D01*
X51787685Y-68626450D01*
X51885232Y-68443954D01*
X51945300Y-68245934D01*
X51965583Y-68040000D01*
X51945300Y-67834066D01*
X51885232Y-67636046D01*
X51787685Y-67453550D01*
X51735702Y-67390209D01*
X51656410Y-67293589D01*
X51496452Y-67162317D01*
X51496453Y-67162317D01*
X51496450Y-67162315D01*
X51313954Y-67064768D01*
X51115934Y-67004700D01*
X51115932Y-67004699D01*
X51115934Y-67004699D01*
X50910000Y-66984417D01*
X50704067Y-67004699D01*
X50506043Y-67064769D01*
X50395898Y-67123643D01*
X50323550Y-67162315D01*
X50323548Y-67162316D01*
X50323547Y-67162317D01*
X50163589Y-67293589D01*
X50032317Y-67453547D01*
X49969668Y-67570754D01*
X49920705Y-67620598D01*
X49860310Y-67636300D01*
X44459690Y-67636300D01*
X44392651Y-67616615D01*
X44350332Y-67570754D01*
X44287685Y-67453550D01*
X44235702Y-67390209D01*
X44156410Y-67293589D01*
X43996452Y-67162317D01*
X43996453Y-67162317D01*
X43996450Y-67162315D01*
X43813954Y-67064768D01*
X43615934Y-67004700D01*
X43615932Y-67004699D01*
X43615934Y-67004699D01*
X43410000Y-66984417D01*
X43204067Y-67004699D01*
X43006043Y-67064769D01*
X42895898Y-67123643D01*
X42823550Y-67162315D01*
X42823548Y-67162316D01*
X42823547Y-67162317D01*
X42663589Y-67293589D01*
X42532317Y-67453547D01*
X42434769Y-67636043D01*
X42374699Y-67834067D01*
X42354417Y-68040000D01*
X42374699Y-68245932D01*
X42374700Y-68245934D01*
X42434768Y-68443954D01*
X42532315Y-68626450D01*
X42532317Y-68626452D01*
X42663589Y-68786410D01*
X42760209Y-68865702D01*
X42823550Y-68917685D01*
X43006046Y-69015232D01*
X43072551Y-69035405D01*
X43130989Y-69073702D01*
X43159446Y-69137514D01*
X43148887Y-69206581D01*
X43102663Y-69258975D01*
X43068650Y-69273841D01*
X42946514Y-69306567D01*
X42946507Y-69306570D01*
X42732422Y-69406399D01*
X42732420Y-69406400D01*
X42538926Y-69541886D01*
X42538920Y-69541891D01*
X42371891Y-69708920D01*
X42371886Y-69708926D01*
X42236400Y-69902420D01*
X42236399Y-69902422D01*
X42136570Y-70116507D01*
X42136567Y-70116513D01*
X42079364Y-70329999D01*
X36851300Y-70329999D01*
X36851300Y-65500000D01*
X42354417Y-65500000D01*
X42374699Y-65705932D01*
X42374700Y-65705934D01*
X42434768Y-65903954D01*
X42532315Y-66086450D01*
X42532317Y-66086452D01*
X42663589Y-66246410D01*
X42760209Y-66325702D01*
X42823550Y-66377685D01*
X43006046Y-66475232D01*
X43204066Y-66535300D01*
X43204065Y-66535300D01*
X43222529Y-66537118D01*
X43410000Y-66555583D01*
X43615934Y-66535300D01*
X43813954Y-66475232D01*
X43996450Y-66377685D01*
X44156410Y-66246410D01*
X44287685Y-66086450D01*
X44350332Y-65969245D01*
X44399295Y-65919402D01*
X44459690Y-65903700D01*
X49860310Y-65903700D01*
X49927349Y-65923385D01*
X49969667Y-65969244D01*
X50032315Y-66086450D01*
X50032317Y-66086452D01*
X50163589Y-66246410D01*
X50260209Y-66325702D01*
X50323550Y-66377685D01*
X50506046Y-66475232D01*
X50704066Y-66535300D01*
X50704065Y-66535300D01*
X50722529Y-66537118D01*
X50910000Y-66555583D01*
X51115934Y-66535300D01*
X51313954Y-66475232D01*
X51496450Y-66377685D01*
X51656410Y-66246410D01*
X51787685Y-66086450D01*
X51885232Y-65903954D01*
X51945300Y-65705934D01*
X51965583Y-65500000D01*
X67634417Y-65500000D01*
X67654699Y-65705932D01*
X67654700Y-65705934D01*
X67714768Y-65903954D01*
X67812315Y-66086450D01*
X67812317Y-66086452D01*
X67943589Y-66246410D01*
X68040209Y-66325702D01*
X68103550Y-66377685D01*
X68286046Y-66475232D01*
X68484066Y-66535300D01*
X68484065Y-66535300D01*
X68502529Y-66537118D01*
X68690000Y-66555583D01*
X68895934Y-66535300D01*
X69093954Y-66475232D01*
X69276450Y-66377685D01*
X69436410Y-66246410D01*
X69567685Y-66086450D01*
X69630332Y-65969245D01*
X69679295Y-65919402D01*
X69739690Y-65903700D01*
X75140310Y-65903700D01*
X75207349Y-65923385D01*
X75249667Y-65969244D01*
X75312315Y-66086450D01*
X75312317Y-66086452D01*
X75443589Y-66246410D01*
X75540209Y-66325702D01*
X75603550Y-66377685D01*
X75786046Y-66475232D01*
X75984066Y-66535300D01*
X75984065Y-66535300D01*
X76002529Y-66537118D01*
X76190000Y-66555583D01*
X76395934Y-66535300D01*
X76593954Y-66475232D01*
X76776450Y-66377685D01*
X76936410Y-66246410D01*
X77067685Y-66086450D01*
X77165232Y-65903954D01*
X77225300Y-65705934D01*
X77245583Y-65500000D01*
X77225300Y-65294066D01*
X77165232Y-65096046D01*
X77067685Y-64913550D01*
X77015702Y-64850209D01*
X76936410Y-64753589D01*
X76776452Y-64622317D01*
X76776453Y-64622317D01*
X76776450Y-64622315D01*
X76593954Y-64524768D01*
X76395934Y-64464700D01*
X76395932Y-64464699D01*
X76395934Y-64464699D01*
X76190000Y-64444417D01*
X75984067Y-64464699D01*
X75786043Y-64524769D01*
X75675898Y-64583643D01*
X75603550Y-64622315D01*
X75603548Y-64622316D01*
X75603547Y-64622317D01*
X75443589Y-64753589D01*
X75312317Y-64913547D01*
X75249668Y-65030754D01*
X75200705Y-65080598D01*
X75140310Y-65096300D01*
X69739690Y-65096300D01*
X69672651Y-65076615D01*
X69630332Y-65030754D01*
X69567685Y-64913550D01*
X69515702Y-64850209D01*
X69436410Y-64753589D01*
X69276452Y-64622317D01*
X69276453Y-64622317D01*
X69276450Y-64622315D01*
X69093954Y-64524768D01*
X68895934Y-64464700D01*
X68895932Y-64464699D01*
X68895934Y-64464699D01*
X68690000Y-64444417D01*
X68484067Y-64464699D01*
X68286043Y-64524769D01*
X68175898Y-64583643D01*
X68103550Y-64622315D01*
X68103548Y-64622316D01*
X68103547Y-64622317D01*
X67943589Y-64753589D01*
X67812317Y-64913547D01*
X67714769Y-65096043D01*
X67654699Y-65294067D01*
X67634417Y-65500000D01*
X51965583Y-65500000D01*
X51945300Y-65294066D01*
X51885232Y-65096046D01*
X51787685Y-64913550D01*
X51735702Y-64850209D01*
X51656410Y-64753589D01*
X51496452Y-64622317D01*
X51496453Y-64622317D01*
X51496450Y-64622315D01*
X51313954Y-64524768D01*
X51115934Y-64464700D01*
X51115932Y-64464699D01*
X51115934Y-64464699D01*
X50910000Y-64444417D01*
X50704067Y-64464699D01*
X50506043Y-64524769D01*
X50395898Y-64583643D01*
X50323550Y-64622315D01*
X50323548Y-64622316D01*
X50323547Y-64622317D01*
X50163589Y-64753589D01*
X50032317Y-64913547D01*
X49969668Y-65030754D01*
X49920705Y-65080598D01*
X49860310Y-65096300D01*
X44459690Y-65096300D01*
X44392651Y-65076615D01*
X44350332Y-65030754D01*
X44287685Y-64913550D01*
X44235702Y-64850209D01*
X44156410Y-64753589D01*
X43996452Y-64622317D01*
X43996453Y-64622317D01*
X43996450Y-64622315D01*
X43813954Y-64524768D01*
X43615934Y-64464700D01*
X43615932Y-64464699D01*
X43615934Y-64464699D01*
X43410000Y-64444417D01*
X43204067Y-64464699D01*
X43006043Y-64524769D01*
X42895898Y-64583643D01*
X42823550Y-64622315D01*
X42823548Y-64622316D01*
X42823547Y-64622317D01*
X42663589Y-64753589D01*
X42532317Y-64913547D01*
X42434769Y-65096043D01*
X42374699Y-65294067D01*
X42354417Y-65500000D01*
X36851300Y-65500000D01*
X36851300Y-62960000D01*
X42354417Y-62960000D01*
X42374699Y-63165932D01*
X42374700Y-63165934D01*
X42434768Y-63363954D01*
X42532315Y-63546450D01*
X42532317Y-63546452D01*
X42663589Y-63706410D01*
X42760209Y-63785702D01*
X42823550Y-63837685D01*
X43006046Y-63935232D01*
X43204066Y-63995300D01*
X43204065Y-63995300D01*
X43222529Y-63997118D01*
X43410000Y-64015583D01*
X43615934Y-63995300D01*
X43813954Y-63935232D01*
X43996450Y-63837685D01*
X44156410Y-63706410D01*
X44287685Y-63546450D01*
X44350332Y-63429245D01*
X44399295Y-63379402D01*
X44459690Y-63363700D01*
X49860310Y-63363700D01*
X49927349Y-63383385D01*
X49969667Y-63429244D01*
X50032315Y-63546450D01*
X50032317Y-63546452D01*
X50163589Y-63706410D01*
X50260209Y-63785702D01*
X50323550Y-63837685D01*
X50506046Y-63935232D01*
X50704066Y-63995300D01*
X50704065Y-63995300D01*
X50722529Y-63997118D01*
X50910000Y-64015583D01*
X51115934Y-63995300D01*
X51313954Y-63935232D01*
X51496450Y-63837685D01*
X51656410Y-63706410D01*
X51787685Y-63546450D01*
X51885232Y-63363954D01*
X51945300Y-63165934D01*
X51965583Y-62960000D01*
X67634417Y-62960000D01*
X67654699Y-63165932D01*
X67654700Y-63165934D01*
X67714768Y-63363954D01*
X67812315Y-63546450D01*
X67812317Y-63546452D01*
X67943589Y-63706410D01*
X68040209Y-63785702D01*
X68103550Y-63837685D01*
X68286046Y-63935232D01*
X68484066Y-63995300D01*
X68484065Y-63995300D01*
X68502529Y-63997118D01*
X68690000Y-64015583D01*
X68895934Y-63995300D01*
X69093954Y-63935232D01*
X69276450Y-63837685D01*
X69436410Y-63706410D01*
X69567685Y-63546450D01*
X69630332Y-63429245D01*
X69679295Y-63379402D01*
X69739690Y-63363700D01*
X75140310Y-63363700D01*
X75207349Y-63383385D01*
X75249667Y-63429244D01*
X75312315Y-63546450D01*
X75312317Y-63546452D01*
X75443589Y-63706410D01*
X75540209Y-63785702D01*
X75603550Y-63837685D01*
X75786046Y-63935232D01*
X75984066Y-63995300D01*
X75984065Y-63995300D01*
X76002529Y-63997118D01*
X76190000Y-64015583D01*
X76395934Y-63995300D01*
X76593954Y-63935232D01*
X76776450Y-63837685D01*
X76936410Y-63706410D01*
X77067685Y-63546450D01*
X77165232Y-63363954D01*
X77225300Y-63165934D01*
X77245583Y-62960000D01*
X77225300Y-62754066D01*
X77165232Y-62556046D01*
X77067685Y-62373550D01*
X77015702Y-62310209D01*
X76936410Y-62213589D01*
X76776452Y-62082317D01*
X76776453Y-62082317D01*
X76776450Y-62082315D01*
X76593954Y-61984768D01*
X76395934Y-61924700D01*
X76395932Y-61924699D01*
X76395934Y-61924699D01*
X76190000Y-61904417D01*
X75984067Y-61924699D01*
X75786043Y-61984769D01*
X75675898Y-62043643D01*
X75603550Y-62082315D01*
X75603548Y-62082316D01*
X75603547Y-62082317D01*
X75443589Y-62213589D01*
X75312317Y-62373547D01*
X75249668Y-62490754D01*
X75200705Y-62540598D01*
X75140310Y-62556300D01*
X69739690Y-62556300D01*
X69672651Y-62536615D01*
X69630332Y-62490754D01*
X69567685Y-62373550D01*
X69515702Y-62310209D01*
X69436410Y-62213589D01*
X69276452Y-62082317D01*
X69276453Y-62082317D01*
X69276450Y-62082315D01*
X69093954Y-61984768D01*
X68895934Y-61924700D01*
X68895932Y-61924699D01*
X68895934Y-61924699D01*
X68690000Y-61904417D01*
X68484067Y-61924699D01*
X68286043Y-61984769D01*
X68175898Y-62043643D01*
X68103550Y-62082315D01*
X68103548Y-62082316D01*
X68103547Y-62082317D01*
X67943589Y-62213589D01*
X67812317Y-62373547D01*
X67714769Y-62556043D01*
X67654699Y-62754067D01*
X67634417Y-62960000D01*
X51965583Y-62960000D01*
X51945300Y-62754066D01*
X51885232Y-62556046D01*
X51787685Y-62373550D01*
X51735702Y-62310209D01*
X51656410Y-62213589D01*
X51496452Y-62082317D01*
X51496453Y-62082317D01*
X51496450Y-62082315D01*
X51313954Y-61984768D01*
X51115934Y-61924700D01*
X51115932Y-61924699D01*
X51115934Y-61924699D01*
X50910000Y-61904417D01*
X50704067Y-61924699D01*
X50506043Y-61984769D01*
X50395898Y-62043643D01*
X50323550Y-62082315D01*
X50323548Y-62082316D01*
X50323547Y-62082317D01*
X50163589Y-62213589D01*
X50032317Y-62373547D01*
X49969668Y-62490754D01*
X49920705Y-62540598D01*
X49860310Y-62556300D01*
X44459690Y-62556300D01*
X44392651Y-62536615D01*
X44350332Y-62490754D01*
X44287685Y-62373550D01*
X44235702Y-62310209D01*
X44156410Y-62213589D01*
X43996452Y-62082317D01*
X43996453Y-62082317D01*
X43996450Y-62082315D01*
X43813954Y-61984768D01*
X43615934Y-61924700D01*
X43615932Y-61924699D01*
X43615934Y-61924699D01*
X43410000Y-61904417D01*
X43204067Y-61924699D01*
X43006043Y-61984769D01*
X42895898Y-62043643D01*
X42823550Y-62082315D01*
X42823548Y-62082316D01*
X42823547Y-62082317D01*
X42663589Y-62213589D01*
X42532317Y-62373547D01*
X42434769Y-62556043D01*
X42374699Y-62754067D01*
X42354417Y-62960000D01*
X36851300Y-62960000D01*
X36851300Y-57629999D01*
X42079364Y-57629999D01*
X42079364Y-57630000D01*
X42976988Y-57630000D01*
X42944075Y-57687007D01*
X42910000Y-57814174D01*
X42910000Y-57945826D01*
X42944075Y-58072993D01*
X42976988Y-58130000D01*
X42079364Y-58130000D01*
X42136567Y-58343486D01*
X42136570Y-58343492D01*
X42236399Y-58557578D01*
X42371894Y-58751082D01*
X42538917Y-58918105D01*
X42732421Y-59053600D01*
X42946507Y-59153429D01*
X42946516Y-59153433D01*
X43068649Y-59186158D01*
X43128310Y-59222523D01*
X43158839Y-59285369D01*
X43150545Y-59354745D01*
X43106059Y-59408623D01*
X43072552Y-59424593D01*
X43006046Y-59444767D01*
X42875358Y-59514622D01*
X42823550Y-59542315D01*
X42823548Y-59542316D01*
X42823547Y-59542317D01*
X42663589Y-59673589D01*
X42532317Y-59833547D01*
X42434769Y-60016043D01*
X42374699Y-60214067D01*
X42354417Y-60420000D01*
X42374699Y-60625932D01*
X42374700Y-60625934D01*
X42434768Y-60823954D01*
X42532315Y-61006450D01*
X42532317Y-61006452D01*
X42663589Y-61166410D01*
X42760209Y-61245702D01*
X42823550Y-61297685D01*
X43006046Y-61395232D01*
X43204066Y-61455300D01*
X43204065Y-61455300D01*
X43222529Y-61457118D01*
X43410000Y-61475583D01*
X43615934Y-61455300D01*
X43813954Y-61395232D01*
X43996450Y-61297685D01*
X44156410Y-61166410D01*
X44287685Y-61006450D01*
X44350332Y-60889245D01*
X44399295Y-60839402D01*
X44459690Y-60823700D01*
X49860310Y-60823700D01*
X49927349Y-60843385D01*
X49969667Y-60889244D01*
X50032315Y-61006450D01*
X50032317Y-61006452D01*
X50163589Y-61166410D01*
X50260209Y-61245702D01*
X50323550Y-61297685D01*
X50506046Y-61395232D01*
X50704066Y-61455300D01*
X50704065Y-61455300D01*
X50722529Y-61457118D01*
X50910000Y-61475583D01*
X51115934Y-61455300D01*
X51313954Y-61395232D01*
X51496450Y-61297685D01*
X51656410Y-61166410D01*
X51787685Y-61006450D01*
X51885232Y-60823954D01*
X51945300Y-60625934D01*
X51965583Y-60420000D01*
X67634417Y-60420000D01*
X67654699Y-60625932D01*
X67654700Y-60625934D01*
X67714768Y-60823954D01*
X67812315Y-61006450D01*
X67812317Y-61006452D01*
X67943589Y-61166410D01*
X68040209Y-61245702D01*
X68103550Y-61297685D01*
X68286046Y-61395232D01*
X68484066Y-61455300D01*
X68484065Y-61455300D01*
X68502529Y-61457118D01*
X68690000Y-61475583D01*
X68895934Y-61455300D01*
X69093954Y-61395232D01*
X69276450Y-61297685D01*
X69436410Y-61166410D01*
X69567685Y-61006450D01*
X69630332Y-60889245D01*
X69679295Y-60839402D01*
X69739690Y-60823700D01*
X75140310Y-60823700D01*
X75207349Y-60843385D01*
X75249667Y-60889244D01*
X75312315Y-61006450D01*
X75312317Y-61006452D01*
X75443589Y-61166410D01*
X75540209Y-61245702D01*
X75603550Y-61297685D01*
X75786046Y-61395232D01*
X75984066Y-61455300D01*
X75984065Y-61455300D01*
X76002529Y-61457118D01*
X76190000Y-61475583D01*
X76395934Y-61455300D01*
X76593954Y-61395232D01*
X76776450Y-61297685D01*
X76936410Y-61166410D01*
X77067685Y-61006450D01*
X77165232Y-60823954D01*
X77225300Y-60625934D01*
X77245583Y-60420000D01*
X77225300Y-60214066D01*
X77165232Y-60016046D01*
X77067685Y-59833550D01*
X77015702Y-59770209D01*
X76936410Y-59673589D01*
X76776452Y-59542317D01*
X76776453Y-59542317D01*
X76776450Y-59542315D01*
X76593954Y-59444768D01*
X76395934Y-59384700D01*
X76395932Y-59384699D01*
X76395934Y-59384699D01*
X76190000Y-59364417D01*
X75984067Y-59384699D01*
X75808692Y-59437898D01*
X75786050Y-59444767D01*
X75786043Y-59444769D01*
X75675898Y-59503643D01*
X75603550Y-59542315D01*
X75603548Y-59542316D01*
X75603547Y-59542317D01*
X75443589Y-59673589D01*
X75312317Y-59833547D01*
X75249668Y-59950754D01*
X75200705Y-60000598D01*
X75140310Y-60016300D01*
X69739690Y-60016300D01*
X69672651Y-59996615D01*
X69630332Y-59950754D01*
X69567685Y-59833550D01*
X69515702Y-59770209D01*
X69436410Y-59673589D01*
X69276452Y-59542317D01*
X69276453Y-59542317D01*
X69276450Y-59542315D01*
X69093954Y-59444768D01*
X68895934Y-59384700D01*
X68895932Y-59384699D01*
X68895934Y-59384699D01*
X68690000Y-59364417D01*
X68484067Y-59384699D01*
X68308692Y-59437898D01*
X68286050Y-59444767D01*
X68286043Y-59444769D01*
X68175898Y-59503643D01*
X68103550Y-59542315D01*
X68103548Y-59542316D01*
X68103547Y-59542317D01*
X67943589Y-59673589D01*
X67812317Y-59833547D01*
X67714769Y-60016043D01*
X67654699Y-60214067D01*
X67634417Y-60420000D01*
X51965583Y-60420000D01*
X51945300Y-60214066D01*
X51885232Y-60016046D01*
X51787685Y-59833550D01*
X51735702Y-59770209D01*
X51656410Y-59673589D01*
X51496452Y-59542317D01*
X51496453Y-59542317D01*
X51496450Y-59542315D01*
X51313954Y-59444768D01*
X51247447Y-59424593D01*
X51189009Y-59386296D01*
X51160553Y-59322484D01*
X51171113Y-59253417D01*
X51217337Y-59201023D01*
X51251350Y-59186158D01*
X51373483Y-59153433D01*
X51373492Y-59153429D01*
X51587578Y-59053600D01*
X51781082Y-58918105D01*
X51948105Y-58751082D01*
X52083600Y-58557578D01*
X52183429Y-58343492D01*
X52183432Y-58343486D01*
X52240636Y-58130000D01*
X51343012Y-58130000D01*
X51375925Y-58072993D01*
X51410000Y-57945826D01*
X51410000Y-57880000D01*
X67634417Y-57880000D01*
X67654699Y-58085932D01*
X67654700Y-58085934D01*
X67714768Y-58283954D01*
X67812315Y-58466450D01*
X67812317Y-58466452D01*
X67943589Y-58626410D01*
X68040209Y-58705702D01*
X68103550Y-58757685D01*
X68286046Y-58855232D01*
X68484066Y-58915300D01*
X68484065Y-58915300D01*
X68502529Y-58917118D01*
X68690000Y-58935583D01*
X68895934Y-58915300D01*
X69093954Y-58855232D01*
X69276450Y-58757685D01*
X69436410Y-58626410D01*
X69567685Y-58466450D01*
X69630332Y-58349245D01*
X69679295Y-58299402D01*
X69739690Y-58283700D01*
X75140310Y-58283700D01*
X75207349Y-58303385D01*
X75249667Y-58349244D01*
X75312315Y-58466450D01*
X75312317Y-58466452D01*
X75443589Y-58626410D01*
X75540209Y-58705702D01*
X75603550Y-58757685D01*
X75786046Y-58855232D01*
X75984066Y-58915300D01*
X75984065Y-58915300D01*
X76002529Y-58917118D01*
X76190000Y-58935583D01*
X76395934Y-58915300D01*
X76593954Y-58855232D01*
X76776450Y-58757685D01*
X76936410Y-58626410D01*
X77067685Y-58466450D01*
X77165232Y-58283954D01*
X77225300Y-58085934D01*
X77245583Y-57880000D01*
X77225300Y-57674066D01*
X77165232Y-57476046D01*
X77067685Y-57293550D01*
X76992897Y-57202420D01*
X76936410Y-57133589D01*
X76818677Y-57036969D01*
X76776450Y-57002315D01*
X76593954Y-56904768D01*
X76395934Y-56844700D01*
X76395932Y-56844699D01*
X76395934Y-56844699D01*
X76190000Y-56824417D01*
X75984067Y-56844699D01*
X75786043Y-56904769D01*
X75675898Y-56963643D01*
X75603550Y-57002315D01*
X75603548Y-57002316D01*
X75603547Y-57002317D01*
X75443589Y-57133589D01*
X75312317Y-57293547D01*
X75312315Y-57293550D01*
X75249668Y-57410754D01*
X75200705Y-57460598D01*
X75140310Y-57476300D01*
X69739690Y-57476300D01*
X69672651Y-57456615D01*
X69630332Y-57410754D01*
X69567685Y-57293550D01*
X69492897Y-57202420D01*
X69436410Y-57133589D01*
X69318677Y-57036969D01*
X69276450Y-57002315D01*
X69093954Y-56904768D01*
X68895934Y-56844700D01*
X68895932Y-56844699D01*
X68895934Y-56844699D01*
X68690000Y-56824417D01*
X68484067Y-56844699D01*
X68286043Y-56904769D01*
X68175898Y-56963643D01*
X68103550Y-57002315D01*
X68103548Y-57002316D01*
X68103547Y-57002317D01*
X67943589Y-57133589D01*
X67812317Y-57293547D01*
X67714769Y-57476043D01*
X67654699Y-57674067D01*
X67634417Y-57880000D01*
X51410000Y-57880000D01*
X51410000Y-57814174D01*
X51375925Y-57687007D01*
X51343012Y-57630000D01*
X52240636Y-57630000D01*
X52240635Y-57629999D01*
X52183432Y-57416513D01*
X52183429Y-57416507D01*
X52083600Y-57202422D01*
X52083599Y-57202420D01*
X51948113Y-57008926D01*
X51948108Y-57008920D01*
X51781082Y-56841894D01*
X51587578Y-56706399D01*
X51373492Y-56606570D01*
X51373486Y-56606567D01*
X51251349Y-56573841D01*
X51191689Y-56537476D01*
X51161160Y-56474629D01*
X51169455Y-56405253D01*
X51213940Y-56351375D01*
X51247444Y-56335407D01*
X51313954Y-56315232D01*
X51496450Y-56217685D01*
X51656410Y-56086410D01*
X51787685Y-55926450D01*
X51885232Y-55743954D01*
X51945300Y-55545934D01*
X51965583Y-55340000D01*
X67634417Y-55340000D01*
X67654699Y-55545932D01*
X67654700Y-55545934D01*
X67714768Y-55743954D01*
X67812315Y-55926450D01*
X67812317Y-55926452D01*
X67943589Y-56086410D01*
X68040209Y-56165702D01*
X68103550Y-56217685D01*
X68286046Y-56315232D01*
X68484066Y-56375300D01*
X68484065Y-56375300D01*
X68502529Y-56377118D01*
X68690000Y-56395583D01*
X68895934Y-56375300D01*
X69093954Y-56315232D01*
X69276450Y-56217685D01*
X69436410Y-56086410D01*
X69567685Y-55926450D01*
X69630332Y-55809245D01*
X69679295Y-55759402D01*
X69739690Y-55743700D01*
X75140310Y-55743700D01*
X75207349Y-55763385D01*
X75249667Y-55809244D01*
X75312315Y-55926450D01*
X75312317Y-55926452D01*
X75443589Y-56086410D01*
X75540209Y-56165702D01*
X75603550Y-56217685D01*
X75786046Y-56315232D01*
X75984066Y-56375300D01*
X75984065Y-56375300D01*
X76002529Y-56377118D01*
X76190000Y-56395583D01*
X76395934Y-56375300D01*
X76593954Y-56315232D01*
X76776450Y-56217685D01*
X76936410Y-56086410D01*
X77067685Y-55926450D01*
X77165232Y-55743954D01*
X77225300Y-55545934D01*
X77245583Y-55340000D01*
X77225300Y-55134066D01*
X77165232Y-54936046D01*
X77067685Y-54753550D01*
X77015702Y-54690209D01*
X76936410Y-54593589D01*
X76776452Y-54462317D01*
X76776453Y-54462317D01*
X76776450Y-54462315D01*
X76593954Y-54364768D01*
X76395934Y-54304700D01*
X76395932Y-54304699D01*
X76395934Y-54304699D01*
X76190000Y-54284417D01*
X75984067Y-54304699D01*
X75786043Y-54364769D01*
X75675898Y-54423643D01*
X75603550Y-54462315D01*
X75603548Y-54462316D01*
X75603547Y-54462317D01*
X75443589Y-54593589D01*
X75312317Y-54753547D01*
X75249668Y-54870754D01*
X75200705Y-54920598D01*
X75140310Y-54936300D01*
X69739690Y-54936300D01*
X69672651Y-54916615D01*
X69630332Y-54870754D01*
X69567685Y-54753550D01*
X69515702Y-54690209D01*
X69436410Y-54593589D01*
X69276452Y-54462317D01*
X69276453Y-54462317D01*
X69276450Y-54462315D01*
X69093954Y-54364768D01*
X68895934Y-54304700D01*
X68895932Y-54304699D01*
X68895934Y-54304699D01*
X68690000Y-54284417D01*
X68484067Y-54304699D01*
X68286043Y-54364769D01*
X68175898Y-54423643D01*
X68103550Y-54462315D01*
X68103548Y-54462316D01*
X68103547Y-54462317D01*
X67943589Y-54593589D01*
X67812317Y-54753547D01*
X67714769Y-54936043D01*
X67654699Y-55134067D01*
X67634417Y-55340000D01*
X51965583Y-55340000D01*
X51945300Y-55134066D01*
X51885232Y-54936046D01*
X51787685Y-54753550D01*
X51735702Y-54690209D01*
X51656410Y-54593589D01*
X51496452Y-54462317D01*
X51496453Y-54462317D01*
X51496450Y-54462315D01*
X51313954Y-54364768D01*
X51115934Y-54304700D01*
X51115932Y-54304699D01*
X51115934Y-54304699D01*
X50910000Y-54284417D01*
X50704067Y-54304699D01*
X50506043Y-54364769D01*
X50395898Y-54423643D01*
X50323550Y-54462315D01*
X50323548Y-54462316D01*
X50323547Y-54462317D01*
X50163589Y-54593589D01*
X50032317Y-54753547D01*
X49969668Y-54870754D01*
X49920705Y-54920598D01*
X49860310Y-54936300D01*
X44459690Y-54936300D01*
X44392651Y-54916615D01*
X44350332Y-54870754D01*
X44287685Y-54753550D01*
X44235702Y-54690209D01*
X44156410Y-54593589D01*
X43996452Y-54462317D01*
X43996453Y-54462317D01*
X43996450Y-54462315D01*
X43813954Y-54364768D01*
X43615934Y-54304700D01*
X43615932Y-54304699D01*
X43615934Y-54304699D01*
X43410000Y-54284417D01*
X43204067Y-54304699D01*
X43006043Y-54364769D01*
X42895898Y-54423643D01*
X42823550Y-54462315D01*
X42823548Y-54462316D01*
X42823547Y-54462317D01*
X42663589Y-54593589D01*
X42532317Y-54753547D01*
X42434769Y-54936043D01*
X42374699Y-55134067D01*
X42354417Y-55340000D01*
X42374699Y-55545932D01*
X42374700Y-55545934D01*
X42434768Y-55743954D01*
X42532315Y-55926450D01*
X42532317Y-55926452D01*
X42663589Y-56086410D01*
X42760209Y-56165702D01*
X42823550Y-56217685D01*
X43006046Y-56315232D01*
X43072551Y-56335405D01*
X43130989Y-56373702D01*
X43159446Y-56437514D01*
X43148887Y-56506581D01*
X43102663Y-56558975D01*
X43068650Y-56573841D01*
X42946514Y-56606567D01*
X42946507Y-56606570D01*
X42732422Y-56706399D01*
X42732420Y-56706400D01*
X42538926Y-56841886D01*
X42538920Y-56841891D01*
X42371891Y-57008920D01*
X42371886Y-57008926D01*
X42236400Y-57202420D01*
X42236399Y-57202422D01*
X42136570Y-57416507D01*
X42136567Y-57416513D01*
X42079364Y-57629999D01*
X36851300Y-57629999D01*
X36851300Y-52800000D01*
X42354417Y-52800000D01*
X42374699Y-53005932D01*
X42374700Y-53005934D01*
X42434768Y-53203954D01*
X42532315Y-53386450D01*
X42532317Y-53386452D01*
X42663589Y-53546410D01*
X42760209Y-53625702D01*
X42823550Y-53677685D01*
X43006046Y-53775232D01*
X43204066Y-53835300D01*
X43204065Y-53835300D01*
X43222529Y-53837118D01*
X43410000Y-53855583D01*
X43615934Y-53835300D01*
X43813954Y-53775232D01*
X43996450Y-53677685D01*
X44156410Y-53546410D01*
X44287685Y-53386450D01*
X44350332Y-53269245D01*
X44399295Y-53219402D01*
X44459690Y-53203700D01*
X49860310Y-53203700D01*
X49927349Y-53223385D01*
X49969667Y-53269244D01*
X50032315Y-53386450D01*
X50032317Y-53386452D01*
X50163589Y-53546410D01*
X50260209Y-53625702D01*
X50323550Y-53677685D01*
X50506046Y-53775232D01*
X50704066Y-53835300D01*
X50704065Y-53835300D01*
X50722529Y-53837118D01*
X50910000Y-53855583D01*
X51115934Y-53835300D01*
X51313954Y-53775232D01*
X51496450Y-53677685D01*
X51656410Y-53546410D01*
X51787685Y-53386450D01*
X51885232Y-53203954D01*
X51945300Y-53005934D01*
X51965583Y-52800000D01*
X67634417Y-52800000D01*
X67654699Y-53005932D01*
X67654700Y-53005934D01*
X67714768Y-53203954D01*
X67812315Y-53386450D01*
X67812317Y-53386452D01*
X67943589Y-53546410D01*
X68040209Y-53625702D01*
X68103550Y-53677685D01*
X68286046Y-53775232D01*
X68484066Y-53835300D01*
X68484065Y-53835300D01*
X68502529Y-53837118D01*
X68690000Y-53855583D01*
X68895934Y-53835300D01*
X69093954Y-53775232D01*
X69276450Y-53677685D01*
X69436410Y-53546410D01*
X69567685Y-53386450D01*
X69630332Y-53269245D01*
X69679295Y-53219402D01*
X69739690Y-53203700D01*
X75140310Y-53203700D01*
X75207349Y-53223385D01*
X75249667Y-53269244D01*
X75312315Y-53386450D01*
X75312317Y-53386452D01*
X75443589Y-53546410D01*
X75540209Y-53625702D01*
X75603550Y-53677685D01*
X75786046Y-53775232D01*
X75984066Y-53835300D01*
X75984065Y-53835300D01*
X76002529Y-53837118D01*
X76190000Y-53855583D01*
X76395934Y-53835300D01*
X76593954Y-53775232D01*
X76776450Y-53677685D01*
X76936410Y-53546410D01*
X77067685Y-53386450D01*
X77165232Y-53203954D01*
X77225300Y-53005934D01*
X77245583Y-52800000D01*
X77225300Y-52594066D01*
X77165232Y-52396046D01*
X77067685Y-52213550D01*
X77015702Y-52150209D01*
X76936410Y-52053589D01*
X76776452Y-51922317D01*
X76776453Y-51922317D01*
X76776450Y-51922315D01*
X76593954Y-51824768D01*
X76395934Y-51764700D01*
X76395932Y-51764699D01*
X76395934Y-51764699D01*
X76190000Y-51744417D01*
X75984067Y-51764699D01*
X75786043Y-51824769D01*
X75675898Y-51883643D01*
X75603550Y-51922315D01*
X75603548Y-51922316D01*
X75603547Y-51922317D01*
X75443589Y-52053589D01*
X75312317Y-52213547D01*
X75249668Y-52330754D01*
X75200705Y-52380598D01*
X75140310Y-52396300D01*
X69739690Y-52396300D01*
X69672651Y-52376615D01*
X69630332Y-52330754D01*
X69567685Y-52213550D01*
X69515702Y-52150209D01*
X69436410Y-52053589D01*
X69276452Y-51922317D01*
X69276453Y-51922317D01*
X69276450Y-51922315D01*
X69093954Y-51824768D01*
X68895934Y-51764700D01*
X68895932Y-51764699D01*
X68895934Y-51764699D01*
X68690000Y-51744417D01*
X68484067Y-51764699D01*
X68286043Y-51824769D01*
X68175898Y-51883643D01*
X68103550Y-51922315D01*
X68103548Y-51922316D01*
X68103547Y-51922317D01*
X67943589Y-52053589D01*
X67812317Y-52213547D01*
X67714769Y-52396043D01*
X67654699Y-52594067D01*
X67634417Y-52800000D01*
X51965583Y-52800000D01*
X51945300Y-52594066D01*
X51885232Y-52396046D01*
X51787685Y-52213550D01*
X51735702Y-52150209D01*
X51656410Y-52053589D01*
X51496452Y-51922317D01*
X51496453Y-51922317D01*
X51496450Y-51922315D01*
X51313954Y-51824768D01*
X51115934Y-51764700D01*
X51115932Y-51764699D01*
X51115934Y-51764699D01*
X50910000Y-51744417D01*
X50704067Y-51764699D01*
X50506043Y-51824769D01*
X50395898Y-51883643D01*
X50323550Y-51922315D01*
X50323548Y-51922316D01*
X50323547Y-51922317D01*
X50163589Y-52053589D01*
X50032317Y-52213547D01*
X49969668Y-52330754D01*
X49920705Y-52380598D01*
X49860310Y-52396300D01*
X44459690Y-52396300D01*
X44392651Y-52376615D01*
X44350332Y-52330754D01*
X44287685Y-52213550D01*
X44235702Y-52150209D01*
X44156410Y-52053589D01*
X43996452Y-51922317D01*
X43996453Y-51922317D01*
X43996450Y-51922315D01*
X43813954Y-51824768D01*
X43615934Y-51764700D01*
X43615932Y-51764699D01*
X43615934Y-51764699D01*
X43410000Y-51744417D01*
X43204067Y-51764699D01*
X43006043Y-51824769D01*
X42895898Y-51883643D01*
X42823550Y-51922315D01*
X42823548Y-51922316D01*
X42823547Y-51922317D01*
X42663589Y-52053589D01*
X42532317Y-52213547D01*
X42434769Y-52396043D01*
X42374699Y-52594067D01*
X42354417Y-52800000D01*
X36851300Y-52800000D01*
X36851300Y-50260000D01*
X42354417Y-50260000D01*
X42374699Y-50465932D01*
X42374700Y-50465934D01*
X42434768Y-50663954D01*
X42532315Y-50846450D01*
X42532317Y-50846452D01*
X42663589Y-51006410D01*
X42760209Y-51085702D01*
X42823550Y-51137685D01*
X43006046Y-51235232D01*
X43204066Y-51295300D01*
X43204065Y-51295300D01*
X43222529Y-51297118D01*
X43410000Y-51315583D01*
X43615934Y-51295300D01*
X43813954Y-51235232D01*
X43996450Y-51137685D01*
X44156410Y-51006410D01*
X44287685Y-50846450D01*
X44350332Y-50729245D01*
X44399295Y-50679402D01*
X44459690Y-50663700D01*
X49860310Y-50663700D01*
X49927349Y-50683385D01*
X49969667Y-50729244D01*
X50032315Y-50846450D01*
X50032317Y-50846452D01*
X50163589Y-51006410D01*
X50260209Y-51085702D01*
X50323550Y-51137685D01*
X50506046Y-51235232D01*
X50704066Y-51295300D01*
X50704065Y-51295300D01*
X50722529Y-51297118D01*
X50910000Y-51315583D01*
X51115934Y-51295300D01*
X51313954Y-51235232D01*
X51496450Y-51137685D01*
X51656410Y-51006410D01*
X51787685Y-50846450D01*
X51885232Y-50663954D01*
X51945300Y-50465934D01*
X51965583Y-50260000D01*
X67634417Y-50260000D01*
X67654699Y-50465932D01*
X67654700Y-50465934D01*
X67714768Y-50663954D01*
X67812315Y-50846450D01*
X67812317Y-50846452D01*
X67943589Y-51006410D01*
X68040209Y-51085702D01*
X68103550Y-51137685D01*
X68286046Y-51235232D01*
X68484066Y-51295300D01*
X68484065Y-51295300D01*
X68502529Y-51297118D01*
X68690000Y-51315583D01*
X68895934Y-51295300D01*
X69093954Y-51235232D01*
X69276450Y-51137685D01*
X69436410Y-51006410D01*
X69567685Y-50846450D01*
X69630332Y-50729245D01*
X69679295Y-50679402D01*
X69739690Y-50663700D01*
X75140310Y-50663700D01*
X75207349Y-50683385D01*
X75249667Y-50729244D01*
X75312315Y-50846450D01*
X75312317Y-50846452D01*
X75443589Y-51006410D01*
X75540209Y-51085702D01*
X75603550Y-51137685D01*
X75786046Y-51235232D01*
X75984066Y-51295300D01*
X75984065Y-51295300D01*
X76002529Y-51297118D01*
X76190000Y-51315583D01*
X76395934Y-51295300D01*
X76593954Y-51235232D01*
X76776450Y-51137685D01*
X76936410Y-51006410D01*
X77067685Y-50846450D01*
X77165232Y-50663954D01*
X77225300Y-50465934D01*
X77245583Y-50260000D01*
X77225300Y-50054066D01*
X77165232Y-49856046D01*
X77067685Y-49673550D01*
X77015702Y-49610209D01*
X76936410Y-49513589D01*
X76776452Y-49382317D01*
X76776453Y-49382317D01*
X76776450Y-49382315D01*
X76593954Y-49284768D01*
X76395934Y-49224700D01*
X76395932Y-49224699D01*
X76395934Y-49224699D01*
X76190000Y-49204417D01*
X75984067Y-49224699D01*
X75786043Y-49284769D01*
X75675898Y-49343643D01*
X75603550Y-49382315D01*
X75603548Y-49382316D01*
X75603547Y-49382317D01*
X75443589Y-49513589D01*
X75312317Y-49673547D01*
X75249668Y-49790754D01*
X75200705Y-49840598D01*
X75140310Y-49856300D01*
X69739690Y-49856300D01*
X69672651Y-49836615D01*
X69630332Y-49790754D01*
X69567685Y-49673550D01*
X69515702Y-49610209D01*
X69436410Y-49513589D01*
X69276452Y-49382317D01*
X69276453Y-49382317D01*
X69276450Y-49382315D01*
X69093954Y-49284768D01*
X68895934Y-49224700D01*
X68895932Y-49224699D01*
X68895934Y-49224699D01*
X68690000Y-49204417D01*
X68484067Y-49224699D01*
X68286043Y-49284769D01*
X68175898Y-49343643D01*
X68103550Y-49382315D01*
X68103548Y-49382316D01*
X68103547Y-49382317D01*
X67943589Y-49513589D01*
X67812317Y-49673547D01*
X67714769Y-49856043D01*
X67654699Y-50054067D01*
X67634417Y-50260000D01*
X51965583Y-50260000D01*
X51945300Y-50054066D01*
X51885232Y-49856046D01*
X51787685Y-49673550D01*
X51735702Y-49610209D01*
X51656410Y-49513589D01*
X51496452Y-49382317D01*
X51496453Y-49382317D01*
X51496450Y-49382315D01*
X51313954Y-49284768D01*
X51115934Y-49224700D01*
X51115932Y-49224699D01*
X51115934Y-49224699D01*
X50910000Y-49204417D01*
X50704067Y-49224699D01*
X50506043Y-49284769D01*
X50395898Y-49343643D01*
X50323550Y-49382315D01*
X50323548Y-49382316D01*
X50323547Y-49382317D01*
X50163589Y-49513589D01*
X50032317Y-49673547D01*
X49969668Y-49790754D01*
X49920705Y-49840598D01*
X49860310Y-49856300D01*
X44459690Y-49856300D01*
X44392651Y-49836615D01*
X44350332Y-49790754D01*
X44287685Y-49673550D01*
X44235702Y-49610209D01*
X44156410Y-49513589D01*
X43996452Y-49382317D01*
X43996453Y-49382317D01*
X43996450Y-49382315D01*
X43813954Y-49284768D01*
X43615934Y-49224700D01*
X43615932Y-49224699D01*
X43615934Y-49224699D01*
X43410000Y-49204417D01*
X43204067Y-49224699D01*
X43006043Y-49284769D01*
X42895898Y-49343643D01*
X42823550Y-49382315D01*
X42823548Y-49382316D01*
X42823547Y-49382317D01*
X42663589Y-49513589D01*
X42532317Y-49673547D01*
X42434769Y-49856043D01*
X42374699Y-50054067D01*
X42354417Y-50260000D01*
X36851300Y-50260000D01*
X36851300Y-44929999D01*
X42079364Y-44929999D01*
X42079364Y-44930000D01*
X42976988Y-44930000D01*
X42944075Y-44987007D01*
X42910000Y-45114174D01*
X42910000Y-45245826D01*
X42944075Y-45372993D01*
X42976988Y-45430000D01*
X42079364Y-45430000D01*
X42136567Y-45643486D01*
X42136570Y-45643492D01*
X42236399Y-45857578D01*
X42371894Y-46051082D01*
X42538917Y-46218105D01*
X42732421Y-46353600D01*
X42946507Y-46453429D01*
X42946516Y-46453433D01*
X43068649Y-46486158D01*
X43128310Y-46522523D01*
X43158839Y-46585369D01*
X43150545Y-46654745D01*
X43106059Y-46708623D01*
X43072552Y-46724593D01*
X43006046Y-46744767D01*
X42875358Y-46814622D01*
X42823550Y-46842315D01*
X42823548Y-46842316D01*
X42823547Y-46842317D01*
X42663589Y-46973589D01*
X42532317Y-47133547D01*
X42434769Y-47316043D01*
X42434768Y-47316045D01*
X42434768Y-47316046D01*
X42433660Y-47319698D01*
X42374699Y-47514067D01*
X42354417Y-47720000D01*
X42374699Y-47925932D01*
X42374700Y-47925934D01*
X42434768Y-48123954D01*
X42532315Y-48306450D01*
X42532317Y-48306452D01*
X42663589Y-48466410D01*
X42760209Y-48545702D01*
X42823550Y-48597685D01*
X43006046Y-48695232D01*
X43204066Y-48755300D01*
X43204065Y-48755300D01*
X43222529Y-48757118D01*
X43410000Y-48775583D01*
X43615934Y-48755300D01*
X43813954Y-48695232D01*
X43996450Y-48597685D01*
X44156410Y-48466410D01*
X44287685Y-48306450D01*
X44350332Y-48189245D01*
X44399295Y-48139402D01*
X44459690Y-48123700D01*
X45675097Y-48123700D01*
X45742136Y-48143385D01*
X45785582Y-48191405D01*
X45806951Y-48233344D01*
X45896652Y-48323045D01*
X45896654Y-48323046D01*
X45896658Y-48323050D01*
X46009694Y-48380645D01*
X46009698Y-48380647D01*
X46103475Y-48395499D01*
X46103481Y-48395500D01*
X46566518Y-48395499D01*
X46660304Y-48380646D01*
X46773342Y-48323050D01*
X46863050Y-48233342D01*
X46920646Y-48120304D01*
X46920646Y-48120302D01*
X46920647Y-48120301D01*
X46935499Y-48026524D01*
X46935500Y-48026519D01*
X46935499Y-47413482D01*
X46920646Y-47319696D01*
X46863050Y-47206658D01*
X46863046Y-47206654D01*
X46863045Y-47206652D01*
X46773347Y-47116954D01*
X46773344Y-47116952D01*
X46773342Y-47116950D01*
X46696517Y-47077805D01*
X46660301Y-47059352D01*
X46566524Y-47044500D01*
X46103482Y-47044500D01*
X46022519Y-47057323D01*
X46009696Y-47059354D01*
X45896658Y-47116950D01*
X45896657Y-47116951D01*
X45896652Y-47116954D01*
X45806951Y-47206655D01*
X45785582Y-47248595D01*
X45737607Y-47299391D01*
X45675097Y-47316300D01*
X44459690Y-47316300D01*
X44392651Y-47296615D01*
X44350332Y-47250754D01*
X44326762Y-47206658D01*
X44287685Y-47133550D01*
X44214604Y-47044500D01*
X44156410Y-46973589D01*
X43996452Y-46842317D01*
X43996453Y-46842317D01*
X43996450Y-46842315D01*
X43813954Y-46744768D01*
X43747447Y-46724593D01*
X43689009Y-46686296D01*
X43660553Y-46622484D01*
X43671113Y-46553417D01*
X43717337Y-46501023D01*
X43751350Y-46486158D01*
X43873483Y-46453433D01*
X43873492Y-46453429D01*
X44087578Y-46353600D01*
X44281082Y-46218105D01*
X44448105Y-46051082D01*
X44583600Y-45857578D01*
X44683429Y-45643492D01*
X44683432Y-45643486D01*
X44740636Y-45430000D01*
X43843012Y-45430000D01*
X43875925Y-45372993D01*
X43910000Y-45245826D01*
X43910000Y-45114174D01*
X43875925Y-44987007D01*
X43843012Y-44930000D01*
X44740636Y-44930000D01*
X44740635Y-44929999D01*
X44683432Y-44716513D01*
X44683429Y-44716507D01*
X44583600Y-44502422D01*
X44583599Y-44502420D01*
X44448113Y-44308926D01*
X44448108Y-44308920D01*
X44281082Y-44141894D01*
X44087578Y-44006399D01*
X43873492Y-43906570D01*
X43873486Y-43906567D01*
X43751349Y-43873841D01*
X43691689Y-43837476D01*
X43661160Y-43774629D01*
X43669455Y-43705253D01*
X43713940Y-43651375D01*
X43747444Y-43635407D01*
X43813954Y-43615232D01*
X43996450Y-43517685D01*
X44156410Y-43386410D01*
X44287685Y-43226450D01*
X44350332Y-43109245D01*
X44399295Y-43059402D01*
X44459690Y-43043700D01*
X49860310Y-43043700D01*
X49927349Y-43063385D01*
X49969667Y-43109244D01*
X50032315Y-43226450D01*
X50032317Y-43226452D01*
X50163589Y-43386410D01*
X50260209Y-43465702D01*
X50323550Y-43517685D01*
X50506046Y-43615232D01*
X50572551Y-43635405D01*
X50630989Y-43673702D01*
X50659446Y-43737514D01*
X50648887Y-43806581D01*
X50602663Y-43858975D01*
X50568650Y-43873841D01*
X50446514Y-43906567D01*
X50446507Y-43906570D01*
X50232422Y-44006399D01*
X50232420Y-44006400D01*
X50038926Y-44141886D01*
X50038920Y-44141891D01*
X49871891Y-44308920D01*
X49871886Y-44308926D01*
X49736400Y-44502420D01*
X49736399Y-44502422D01*
X49636570Y-44716507D01*
X49636567Y-44716513D01*
X49579364Y-44929999D01*
X49579364Y-44930000D01*
X50476988Y-44930000D01*
X50444075Y-44987007D01*
X50410000Y-45114174D01*
X50410000Y-45245826D01*
X50444075Y-45372993D01*
X50476988Y-45430000D01*
X49579364Y-45430000D01*
X49636567Y-45643486D01*
X49636570Y-45643492D01*
X49736399Y-45857578D01*
X49871894Y-46051082D01*
X50038917Y-46218105D01*
X50232421Y-46353600D01*
X50446507Y-46453429D01*
X50446516Y-46453433D01*
X50568649Y-46486158D01*
X50628310Y-46522523D01*
X50658839Y-46585369D01*
X50650545Y-46654745D01*
X50606059Y-46708623D01*
X50572552Y-46724593D01*
X50506046Y-46744767D01*
X50375358Y-46814622D01*
X50323550Y-46842315D01*
X50323548Y-46842316D01*
X50323547Y-46842317D01*
X50163589Y-46973589D01*
X50032317Y-47133547D01*
X50032315Y-47133550D01*
X49993238Y-47206658D01*
X49969668Y-47250754D01*
X49920705Y-47300598D01*
X49860310Y-47316300D01*
X48644903Y-47316300D01*
X48577864Y-47296615D01*
X48534418Y-47248595D01*
X48513048Y-47206655D01*
X48423347Y-47116954D01*
X48423344Y-47116952D01*
X48423342Y-47116950D01*
X48346517Y-47077805D01*
X48310301Y-47059352D01*
X48216524Y-47044500D01*
X47753482Y-47044500D01*
X47672519Y-47057323D01*
X47659696Y-47059354D01*
X47546658Y-47116950D01*
X47546657Y-47116951D01*
X47546652Y-47116954D01*
X47456954Y-47206652D01*
X47456951Y-47206657D01*
X47399352Y-47319698D01*
X47384500Y-47413475D01*
X47384500Y-48026517D01*
X47395292Y-48094657D01*
X47399354Y-48120304D01*
X47456950Y-48233342D01*
X47456952Y-48233344D01*
X47456954Y-48233347D01*
X47546652Y-48323045D01*
X47546654Y-48323046D01*
X47546658Y-48323050D01*
X47659694Y-48380645D01*
X47659698Y-48380647D01*
X47753475Y-48395499D01*
X47753481Y-48395500D01*
X48216518Y-48395499D01*
X48310304Y-48380646D01*
X48423342Y-48323050D01*
X48513050Y-48233342D01*
X48534418Y-48191404D01*
X48582393Y-48140609D01*
X48644903Y-48123700D01*
X49860310Y-48123700D01*
X49927349Y-48143385D01*
X49969667Y-48189244D01*
X50032315Y-48306450D01*
X50032317Y-48306452D01*
X50163589Y-48466410D01*
X50260209Y-48545702D01*
X50323550Y-48597685D01*
X50506046Y-48695232D01*
X50704066Y-48755300D01*
X50704065Y-48755300D01*
X50722529Y-48757118D01*
X50910000Y-48775583D01*
X51115934Y-48755300D01*
X51313954Y-48695232D01*
X51496450Y-48597685D01*
X51656410Y-48466410D01*
X51787685Y-48306450D01*
X51885232Y-48123954D01*
X51945300Y-47925934D01*
X51965583Y-47720000D01*
X51945300Y-47514066D01*
X51885232Y-47316046D01*
X51787685Y-47133550D01*
X51714604Y-47044500D01*
X51656410Y-46973589D01*
X51496452Y-46842317D01*
X51496453Y-46842317D01*
X51496450Y-46842315D01*
X51313954Y-46744768D01*
X51247447Y-46724593D01*
X51189009Y-46686296D01*
X51160553Y-46622484D01*
X51171113Y-46553417D01*
X51217337Y-46501023D01*
X51251350Y-46486158D01*
X51373483Y-46453433D01*
X51373492Y-46453429D01*
X51587578Y-46353600D01*
X51781082Y-46218105D01*
X51948105Y-46051082D01*
X52083600Y-45857578D01*
X52183429Y-45643492D01*
X52183432Y-45643486D01*
X52240636Y-45430000D01*
X51343012Y-45430000D01*
X51375925Y-45372993D01*
X51410000Y-45245826D01*
X51410000Y-45114174D01*
X51375925Y-44987007D01*
X51343012Y-44930000D01*
X52240636Y-44930000D01*
X52240635Y-44929999D01*
X67359364Y-44929999D01*
X67359364Y-44930000D01*
X68256988Y-44930000D01*
X68224075Y-44987007D01*
X68190000Y-45114174D01*
X68190000Y-45245826D01*
X68224075Y-45372993D01*
X68256988Y-45430000D01*
X67359364Y-45430000D01*
X67416567Y-45643486D01*
X67416570Y-45643492D01*
X67516399Y-45857578D01*
X67651894Y-46051082D01*
X67818917Y-46218105D01*
X68012421Y-46353600D01*
X68226507Y-46453429D01*
X68226516Y-46453433D01*
X68348649Y-46486158D01*
X68408310Y-46522523D01*
X68438839Y-46585369D01*
X68430545Y-46654745D01*
X68386059Y-46708623D01*
X68352552Y-46724593D01*
X68286046Y-46744767D01*
X68155358Y-46814622D01*
X68103550Y-46842315D01*
X68103548Y-46842316D01*
X68103547Y-46842317D01*
X67943589Y-46973589D01*
X67812317Y-47133547D01*
X67714769Y-47316043D01*
X67714768Y-47316045D01*
X67714768Y-47316046D01*
X67713660Y-47319698D01*
X67654699Y-47514067D01*
X67634417Y-47720000D01*
X67654699Y-47925932D01*
X67654700Y-47925934D01*
X67714768Y-48123954D01*
X67812315Y-48306450D01*
X67812317Y-48306452D01*
X67943589Y-48466410D01*
X68040209Y-48545702D01*
X68103550Y-48597685D01*
X68286046Y-48695232D01*
X68484066Y-48755300D01*
X68484065Y-48755300D01*
X68502529Y-48757118D01*
X68690000Y-48775583D01*
X68895934Y-48755300D01*
X69093954Y-48695232D01*
X69276450Y-48597685D01*
X69436410Y-48466410D01*
X69567685Y-48306450D01*
X69630332Y-48189245D01*
X69679295Y-48139402D01*
X69739690Y-48123700D01*
X75140310Y-48123700D01*
X75207349Y-48143385D01*
X75249667Y-48189244D01*
X75312315Y-48306450D01*
X75312317Y-48306452D01*
X75443589Y-48466410D01*
X75540209Y-48545702D01*
X75603550Y-48597685D01*
X75786046Y-48695232D01*
X75984066Y-48755300D01*
X75984065Y-48755300D01*
X76002529Y-48757118D01*
X76190000Y-48775583D01*
X76395934Y-48755300D01*
X76593954Y-48695232D01*
X76776450Y-48597685D01*
X76936410Y-48466410D01*
X77067685Y-48306450D01*
X77165232Y-48123954D01*
X77225300Y-47925934D01*
X77245583Y-47720000D01*
X77225300Y-47514066D01*
X77165232Y-47316046D01*
X77067685Y-47133550D01*
X76994604Y-47044500D01*
X76936410Y-46973589D01*
X76776452Y-46842317D01*
X76776453Y-46842317D01*
X76776450Y-46842315D01*
X76593954Y-46744768D01*
X76527447Y-46724593D01*
X76469009Y-46686296D01*
X76440553Y-46622484D01*
X76451113Y-46553417D01*
X76497337Y-46501023D01*
X76531350Y-46486158D01*
X76653483Y-46453433D01*
X76653492Y-46453429D01*
X76867578Y-46353600D01*
X77061082Y-46218105D01*
X77228105Y-46051082D01*
X77363600Y-45857578D01*
X77463429Y-45643492D01*
X77463432Y-45643486D01*
X77520636Y-45430000D01*
X76623012Y-45430000D01*
X76655925Y-45372993D01*
X76690000Y-45245826D01*
X76690000Y-45114174D01*
X76655925Y-44987007D01*
X76623012Y-44930000D01*
X77520636Y-44930000D01*
X77520635Y-44929999D01*
X77463432Y-44716513D01*
X77463429Y-44716507D01*
X77363600Y-44502422D01*
X77363599Y-44502420D01*
X77228113Y-44308926D01*
X77228108Y-44308920D01*
X77061082Y-44141894D01*
X76867578Y-44006399D01*
X76653492Y-43906570D01*
X76653486Y-43906567D01*
X76531349Y-43873841D01*
X76471689Y-43837476D01*
X76441160Y-43774629D01*
X76449455Y-43705253D01*
X76493940Y-43651375D01*
X76527444Y-43635407D01*
X76593954Y-43615232D01*
X76776450Y-43517685D01*
X76936410Y-43386410D01*
X77067685Y-43226450D01*
X77165232Y-43043954D01*
X77225300Y-42845934D01*
X77245583Y-42640000D01*
X77225300Y-42434066D01*
X77165232Y-42236046D01*
X77067685Y-42053550D01*
X77015702Y-41990209D01*
X76936410Y-41893589D01*
X76776452Y-41762317D01*
X76776453Y-41762317D01*
X76776450Y-41762315D01*
X76593954Y-41664768D01*
X76395934Y-41604700D01*
X76395932Y-41604699D01*
X76395934Y-41604699D01*
X76190000Y-41584417D01*
X75984067Y-41604699D01*
X75786043Y-41664769D01*
X75675898Y-41723643D01*
X75603550Y-41762315D01*
X75603548Y-41762316D01*
X75603547Y-41762317D01*
X75443589Y-41893589D01*
X75312317Y-42053547D01*
X75249668Y-42170754D01*
X75200705Y-42220598D01*
X75140310Y-42236300D01*
X69739690Y-42236300D01*
X69672651Y-42216615D01*
X69630332Y-42170754D01*
X69567685Y-42053550D01*
X69515702Y-41990209D01*
X69436410Y-41893589D01*
X69276452Y-41762317D01*
X69276453Y-41762317D01*
X69276450Y-41762315D01*
X69093954Y-41664768D01*
X68895934Y-41604700D01*
X68895932Y-41604699D01*
X68895934Y-41604699D01*
X68690000Y-41584417D01*
X68484067Y-41604699D01*
X68286043Y-41664769D01*
X68175898Y-41723643D01*
X68103550Y-41762315D01*
X68103548Y-41762316D01*
X68103547Y-41762317D01*
X67943589Y-41893589D01*
X67812317Y-42053547D01*
X67714769Y-42236043D01*
X67654699Y-42434067D01*
X67634417Y-42640000D01*
X67654699Y-42845932D01*
X67654700Y-42845934D01*
X67714768Y-43043954D01*
X67812315Y-43226450D01*
X67812317Y-43226452D01*
X67943589Y-43386410D01*
X68040209Y-43465702D01*
X68103550Y-43517685D01*
X68286046Y-43615232D01*
X68352551Y-43635405D01*
X68410989Y-43673702D01*
X68439446Y-43737514D01*
X68428887Y-43806581D01*
X68382663Y-43858975D01*
X68348650Y-43873841D01*
X68226514Y-43906567D01*
X68226507Y-43906570D01*
X68012422Y-44006399D01*
X68012420Y-44006400D01*
X67818926Y-44141886D01*
X67818920Y-44141891D01*
X67651891Y-44308920D01*
X67651886Y-44308926D01*
X67516400Y-44502420D01*
X67516399Y-44502422D01*
X67416570Y-44716507D01*
X67416567Y-44716513D01*
X67359364Y-44929999D01*
X52240635Y-44929999D01*
X52183432Y-44716513D01*
X52183429Y-44716507D01*
X52083600Y-44502422D01*
X52083599Y-44502420D01*
X51948113Y-44308926D01*
X51948108Y-44308920D01*
X51781082Y-44141894D01*
X51587578Y-44006399D01*
X51373492Y-43906570D01*
X51373486Y-43906567D01*
X51251349Y-43873841D01*
X51191689Y-43837476D01*
X51161160Y-43774629D01*
X51169455Y-43705253D01*
X51213940Y-43651375D01*
X51247444Y-43635407D01*
X51313954Y-43615232D01*
X51496450Y-43517685D01*
X51656410Y-43386410D01*
X51787685Y-43226450D01*
X51885232Y-43043954D01*
X51945300Y-42845934D01*
X51965583Y-42640000D01*
X51952582Y-42508000D01*
X52322000Y-42508000D01*
X55878000Y-42508000D01*
X63722000Y-42508000D01*
X67278000Y-42508000D01*
X67278000Y-39230247D01*
X67639500Y-39230247D01*
X67639500Y-40969752D01*
X67651131Y-41028229D01*
X67651132Y-41028230D01*
X67695447Y-41094552D01*
X67761769Y-41138867D01*
X67761770Y-41138868D01*
X67820247Y-41150499D01*
X67820250Y-41150500D01*
X67820252Y-41150500D01*
X69559750Y-41150500D01*
X69559751Y-41150499D01*
X69574568Y-41147552D01*
X69618229Y-41138868D01*
X69618229Y-41138867D01*
X69618231Y-41138867D01*
X69684552Y-41094552D01*
X69728867Y-41028231D01*
X69728867Y-41028229D01*
X69728868Y-41028229D01*
X69740499Y-40969752D01*
X69740500Y-40969750D01*
X69740500Y-40627700D01*
X69760185Y-40560661D01*
X69812989Y-40514906D01*
X69864500Y-40503700D01*
X75015500Y-40503700D01*
X75082539Y-40523385D01*
X75128294Y-40576189D01*
X75139500Y-40627700D01*
X75139500Y-40969752D01*
X75151131Y-41028229D01*
X75151132Y-41028230D01*
X75195447Y-41094552D01*
X75261769Y-41138867D01*
X75261770Y-41138868D01*
X75320247Y-41150499D01*
X75320250Y-41150500D01*
X75320252Y-41150500D01*
X77059750Y-41150500D01*
X77059751Y-41150499D01*
X77074568Y-41147552D01*
X77118229Y-41138868D01*
X77118229Y-41138867D01*
X77118231Y-41138867D01*
X77184552Y-41094552D01*
X77228867Y-41028231D01*
X77228867Y-41028229D01*
X77228868Y-41028229D01*
X77240499Y-40969752D01*
X77240500Y-40969750D01*
X77240500Y-39230249D01*
X77240499Y-39230247D01*
X77228868Y-39171770D01*
X77228867Y-39171769D01*
X77184552Y-39105447D01*
X77118230Y-39061132D01*
X77118229Y-39061131D01*
X77059752Y-39049500D01*
X77059748Y-39049500D01*
X75320252Y-39049500D01*
X75320247Y-39049500D01*
X75261770Y-39061131D01*
X75261769Y-39061132D01*
X75195447Y-39105447D01*
X75151132Y-39171769D01*
X75151131Y-39171770D01*
X75139500Y-39230247D01*
X75139500Y-39572300D01*
X75119815Y-39639339D01*
X75067011Y-39685094D01*
X75015500Y-39696300D01*
X69864500Y-39696300D01*
X69797461Y-39676615D01*
X69751706Y-39623811D01*
X69740500Y-39572300D01*
X69740500Y-39230249D01*
X69740499Y-39230247D01*
X69728868Y-39171770D01*
X69728867Y-39171769D01*
X69684552Y-39105447D01*
X69618230Y-39061132D01*
X69618229Y-39061131D01*
X69559752Y-39049500D01*
X69559748Y-39049500D01*
X67820252Y-39049500D01*
X67820247Y-39049500D01*
X67761770Y-39061131D01*
X67761769Y-39061132D01*
X67695447Y-39105447D01*
X67651132Y-39171769D01*
X67651131Y-39171770D01*
X67639500Y-39230247D01*
X67278000Y-39230247D01*
X67278000Y-38952000D01*
X63722000Y-38952000D01*
X63722000Y-42508000D01*
X55878000Y-42508000D01*
X55878000Y-38952000D01*
X52322000Y-38952000D01*
X52322000Y-42508000D01*
X51952582Y-42508000D01*
X51945300Y-42434066D01*
X51885232Y-42236046D01*
X51787685Y-42053550D01*
X51735702Y-41990209D01*
X51656410Y-41893589D01*
X51496452Y-41762317D01*
X51496453Y-41762317D01*
X51496450Y-41762315D01*
X51313954Y-41664768D01*
X51115934Y-41604700D01*
X51115932Y-41604699D01*
X51115934Y-41604699D01*
X50910000Y-41584417D01*
X50704067Y-41604699D01*
X50506043Y-41664769D01*
X50395898Y-41723643D01*
X50323550Y-41762315D01*
X50323548Y-41762316D01*
X50323547Y-41762317D01*
X50163589Y-41893589D01*
X50032317Y-42053547D01*
X49969668Y-42170754D01*
X49920705Y-42220598D01*
X49860310Y-42236300D01*
X44459690Y-42236300D01*
X44392651Y-42216615D01*
X44350332Y-42170754D01*
X44287685Y-42053550D01*
X44235702Y-41990209D01*
X44156410Y-41893589D01*
X43996452Y-41762317D01*
X43996453Y-41762317D01*
X43996450Y-41762315D01*
X43813954Y-41664768D01*
X43615934Y-41604700D01*
X43615932Y-41604699D01*
X43615934Y-41604699D01*
X43410000Y-41584417D01*
X43204067Y-41604699D01*
X43006043Y-41664769D01*
X42895898Y-41723643D01*
X42823550Y-41762315D01*
X42823548Y-41762316D01*
X42823547Y-41762317D01*
X42663589Y-41893589D01*
X42532317Y-42053547D01*
X42434769Y-42236043D01*
X42374699Y-42434067D01*
X42354417Y-42640000D01*
X42374699Y-42845932D01*
X42374700Y-42845934D01*
X42434768Y-43043954D01*
X42532315Y-43226450D01*
X42532317Y-43226452D01*
X42663589Y-43386410D01*
X42760209Y-43465702D01*
X42823550Y-43517685D01*
X43006046Y-43615232D01*
X43072551Y-43635405D01*
X43130989Y-43673702D01*
X43159446Y-43737514D01*
X43148887Y-43806581D01*
X43102663Y-43858975D01*
X43068650Y-43873841D01*
X42946514Y-43906567D01*
X42946507Y-43906570D01*
X42732422Y-44006399D01*
X42732420Y-44006400D01*
X42538926Y-44141886D01*
X42538920Y-44141891D01*
X42371891Y-44308920D01*
X42371886Y-44308926D01*
X42236400Y-44502420D01*
X42236399Y-44502422D01*
X42136570Y-44716507D01*
X42136567Y-44716513D01*
X42079364Y-44929999D01*
X36851300Y-44929999D01*
X36851300Y-40424750D01*
X36851526Y-40417263D01*
X36868701Y-40133328D01*
X36870506Y-40118463D01*
X36921104Y-39842359D01*
X36924688Y-39827821D01*
X37008195Y-39559836D01*
X37013497Y-39545855D01*
X37128709Y-39289863D01*
X37135660Y-39276618D01*
X37280887Y-39036384D01*
X37289373Y-39024089D01*
X37300393Y-39010024D01*
X37357233Y-38969395D01*
X37427017Y-38965945D01*
X37487589Y-39000771D01*
X37519717Y-39062816D01*
X37522000Y-39086502D01*
X37522000Y-42199000D01*
X41078000Y-42199000D01*
X41078000Y-39230247D01*
X42359500Y-39230247D01*
X42359500Y-40969752D01*
X42371131Y-41028229D01*
X42371132Y-41028230D01*
X42415447Y-41094552D01*
X42481769Y-41138867D01*
X42481770Y-41138868D01*
X42540247Y-41150499D01*
X42540250Y-41150500D01*
X42540252Y-41150500D01*
X44279750Y-41150500D01*
X44279751Y-41150499D01*
X44294568Y-41147552D01*
X44338229Y-41138868D01*
X44338229Y-41138867D01*
X44338231Y-41138867D01*
X44404552Y-41094552D01*
X44448867Y-41028231D01*
X44448867Y-41028229D01*
X44448868Y-41028229D01*
X44460499Y-40969752D01*
X44460500Y-40969750D01*
X44460500Y-40627700D01*
X44480185Y-40560661D01*
X44532989Y-40514906D01*
X44584500Y-40503700D01*
X49735500Y-40503700D01*
X49802539Y-40523385D01*
X49848294Y-40576189D01*
X49859500Y-40627700D01*
X49859500Y-40969752D01*
X49871131Y-41028229D01*
X49871132Y-41028230D01*
X49915447Y-41094552D01*
X49981769Y-41138867D01*
X49981770Y-41138868D01*
X50040247Y-41150499D01*
X50040250Y-41150500D01*
X50040252Y-41150500D01*
X51779750Y-41150500D01*
X51779751Y-41150499D01*
X51794568Y-41147552D01*
X51838229Y-41138868D01*
X51838229Y-41138867D01*
X51838231Y-41138867D01*
X51904552Y-41094552D01*
X51948867Y-41028231D01*
X51948867Y-41028229D01*
X51948868Y-41028229D01*
X51960499Y-40969752D01*
X51960500Y-40969750D01*
X51960500Y-39230249D01*
X51960499Y-39230247D01*
X51948868Y-39171770D01*
X51948867Y-39171769D01*
X51904552Y-39105447D01*
X51838230Y-39061132D01*
X51838229Y-39061131D01*
X51779752Y-39049500D01*
X51779748Y-39049500D01*
X50040252Y-39049500D01*
X50040247Y-39049500D01*
X49981770Y-39061131D01*
X49981769Y-39061132D01*
X49915447Y-39105447D01*
X49871132Y-39171769D01*
X49871131Y-39171770D01*
X49859500Y-39230247D01*
X49859500Y-39572300D01*
X49839815Y-39639339D01*
X49787011Y-39685094D01*
X49735500Y-39696300D01*
X44584500Y-39696300D01*
X44517461Y-39676615D01*
X44471706Y-39623811D01*
X44460500Y-39572300D01*
X44460500Y-39230249D01*
X44460499Y-39230247D01*
X44448868Y-39171770D01*
X44448867Y-39171769D01*
X44404552Y-39105447D01*
X44338230Y-39061132D01*
X44338229Y-39061131D01*
X44279752Y-39049500D01*
X44279748Y-39049500D01*
X42540252Y-39049500D01*
X42540247Y-39049500D01*
X42481770Y-39061131D01*
X42481769Y-39061132D01*
X42415447Y-39105447D01*
X42371132Y-39171769D01*
X42371131Y-39171770D01*
X42359500Y-39230247D01*
X41078000Y-39230247D01*
X41078000Y-38643000D01*
X37965503Y-38643000D01*
X37898464Y-38623315D01*
X37852709Y-38570511D01*
X37842765Y-38501353D01*
X37871790Y-38437797D01*
X37889024Y-38421394D01*
X37893003Y-38418276D01*
X37903079Y-38410381D01*
X37915384Y-38401887D01*
X38155618Y-38256660D01*
X38168863Y-38249709D01*
X38424855Y-38134497D01*
X38438836Y-38129195D01*
X38706826Y-38045686D01*
X38721355Y-38042104D01*
X38997467Y-37991505D01*
X39012325Y-37989701D01*
X39296264Y-37972526D01*
X39303751Y-37972300D01*
X39316668Y-37972300D01*
X80283332Y-37972300D01*
X80296249Y-37972300D01*
X80303736Y-37972526D01*
G37*
%TD.AperFunction*%
%TD*%
M02*
