%TF.GenerationSoftware,KiCad,Pcbnew,8.0.4*%
%TF.CreationDate,2025-04-11T23:04:32-07:00*%
%TF.ProjectId,pico-breakout,7069636f-2d62-4726-9561-6b6f75742e6b,rev?*%
%TF.SameCoordinates,Original*%
%TF.FileFunction,Legend,Bot*%
%TF.FilePolarity,Positive*%
%FSLAX46Y46*%
G04 Gerber Fmt 4.6, Leading zero omitted, Abs format (unit mm)*
G04 Created by KiCad (PCBNEW 8.0.4) date 2025-04-11 23:04:32*
%MOMM*%
%LPD*%
G01*
G04 APERTURE LIST*
%ADD10C,0.100000*%
%ADD11C,0.150000*%
%ADD12C,0.127000*%
%ADD13R,1.700000X1.700000*%
%ADD14O,1.700000X1.700000*%
G04 APERTURE END LIST*
D10*
X54052261Y-77237737D02*
X54052260Y-77596561D01*
X59510201Y-78860811D02*
X59447987Y-78908125D01*
X58094946Y-78754265D02*
X57979098Y-78826915D01*
X58499399Y-79140902D02*
X58675911Y-79091590D01*
X54033829Y-76005719D02*
X54009911Y-76016800D01*
X59877890Y-79089053D02*
X59921686Y-79057009D01*
X55473089Y-76494420D02*
X55482114Y-76495835D01*
X55635384Y-79841802D02*
X55635408Y-79841800D01*
X54863497Y-76402775D02*
X54872479Y-76411852D01*
X54678851Y-78674449D02*
X54679641Y-79800369D01*
X54738712Y-79083547D02*
X54740027Y-79092191D01*
X55414513Y-77616389D02*
X54770868Y-77520543D01*
X58382252Y-78491189D02*
X58386326Y-78473326D01*
X55904431Y-79031687D02*
X55879420Y-79162511D01*
X54608641Y-74915848D02*
X54324259Y-75709473D01*
X54411379Y-76547101D02*
X54370510Y-76546901D01*
X59921686Y-79057009D02*
X59963509Y-79041559D01*
X54277277Y-77424870D02*
X54284854Y-77417689D01*
X59314473Y-78357829D02*
X59285240Y-78265761D01*
X59386582Y-78333601D02*
X59382068Y-78416385D01*
X55112572Y-76239329D02*
X55562888Y-76307313D01*
X54706907Y-77510781D02*
X54706907Y-76878546D01*
X55021620Y-77400156D02*
X55025044Y-77359221D01*
X54539042Y-75870914D02*
X54397492Y-75909406D01*
X55486882Y-77500600D02*
X55498299Y-77502208D01*
X59179550Y-78109693D02*
X59090858Y-78037600D01*
X54286874Y-77022946D02*
X54286264Y-76634570D01*
X54377156Y-79828028D02*
X54706854Y-79828028D01*
X54053796Y-76631347D02*
X54052261Y-77237737D01*
X55427896Y-79358488D02*
X55386534Y-79326019D01*
X55604118Y-77910331D02*
X55465336Y-77918982D01*
X54052260Y-77596561D02*
X54039007Y-77599131D01*
X55768258Y-78424101D02*
X55822658Y-78489230D01*
X54710943Y-76178427D02*
X55112572Y-76239329D01*
X55278380Y-78664057D02*
X55279455Y-78658871D01*
X56247516Y-79649125D02*
X56200449Y-79791443D01*
X60054695Y-78388661D02*
X60194285Y-78385812D01*
X55662255Y-77911510D02*
X55661655Y-77801744D01*
X58614833Y-78333532D02*
X58676720Y-78337452D01*
X54745038Y-78655990D02*
X54743522Y-78664057D01*
X60047178Y-78687950D02*
X59995740Y-78672923D01*
X59474183Y-78695705D02*
X59524763Y-78752329D01*
X58070190Y-79716233D02*
X58194973Y-79776594D01*
X55766523Y-79825852D02*
X55887666Y-79795928D01*
X57453151Y-79793454D02*
X57729061Y-79793454D01*
X59755071Y-77988781D02*
X59678001Y-78010408D01*
X54706125Y-75945679D02*
X54707650Y-75879513D01*
X55229073Y-77439085D02*
X55234731Y-77433427D01*
X54393457Y-75796739D02*
X54393457Y-75683799D01*
X54571981Y-77382522D02*
X54571977Y-77382521D01*
X55633527Y-77910331D02*
X55604118Y-77910331D01*
X54948519Y-78162784D02*
X54882166Y-78249257D01*
X55439211Y-77467746D02*
X55442126Y-77035623D01*
X60019635Y-79032058D02*
X60223052Y-79025932D01*
X54378207Y-75683799D02*
X54364241Y-75678884D01*
X54785874Y-78458585D02*
X54756289Y-78581046D01*
X55647830Y-76153536D02*
X55647235Y-76018209D01*
X55455686Y-78386268D02*
X55544203Y-78362046D01*
X55661258Y-76385719D02*
X55683782Y-76376897D01*
X54448757Y-76993201D02*
X54448756Y-76593082D01*
X59020494Y-78977483D02*
X59109861Y-78926755D01*
X56472918Y-78929108D02*
X56466513Y-78732053D01*
X54619829Y-77368628D02*
X54623384Y-76962155D01*
X54130968Y-76985676D02*
X54130103Y-76514715D01*
X54903706Y-75867519D02*
X54813977Y-75592469D01*
X55481339Y-75427621D02*
X55430541Y-75580107D01*
X54827892Y-78347923D02*
X54785874Y-78458585D01*
X55688865Y-76000971D02*
X55683539Y-75987252D01*
X54806592Y-76161555D02*
X54704600Y-76146167D01*
X58758475Y-78368504D02*
X58780187Y-78396323D01*
X54080679Y-76985757D02*
X54080672Y-76985761D01*
X60004358Y-79361601D02*
X60004358Y-79361604D01*
X55014690Y-77405578D02*
X55014693Y-77405577D01*
X55512222Y-76470224D02*
X55193236Y-76422270D01*
X55716380Y-76307363D02*
X55708975Y-76299194D01*
X59489318Y-78122047D02*
X59441589Y-78181882D01*
X59947026Y-79791122D02*
X60440851Y-79793452D01*
X54082277Y-76036350D02*
X54087463Y-76034115D01*
X55014693Y-77405577D02*
X55021620Y-77400156D01*
X55447875Y-79837468D02*
X55635384Y-79841802D01*
X60194285Y-78385812D02*
X60333155Y-78384587D01*
X54033111Y-76343147D02*
X54008464Y-76353397D01*
X55773986Y-79333163D02*
X55735130Y-79358410D01*
X54053413Y-76336831D02*
X54033111Y-76343147D01*
X55562888Y-76307313D02*
X55617629Y-76315342D01*
X54215887Y-75736792D02*
X54222901Y-75527258D01*
X58884016Y-79032977D02*
X59020494Y-78977483D01*
D11*
X67151000Y-87730000D02*
G75*
G02*
X63849000Y-87730000I-1651000J0D01*
G01*
X63849000Y-87730000D02*
G75*
G02*
X67151000Y-87730000I1651000J0D01*
G01*
D10*
X54054140Y-76284291D02*
X54021144Y-76292897D01*
X55004238Y-77406403D02*
X55014690Y-77405578D01*
X55324988Y-79240589D02*
X55303617Y-79187130D01*
X55292384Y-78595224D02*
X55328465Y-78504071D01*
X54725702Y-75318874D02*
X54814192Y-74779324D01*
X55349233Y-77467898D02*
X55419262Y-77477920D01*
X55620034Y-77646626D02*
X55414513Y-77616388D01*
X57101803Y-77958793D02*
X56814705Y-77958828D01*
X55822658Y-78489230D02*
X55863919Y-78574896D01*
X59524763Y-78752329D02*
X59580820Y-78802556D01*
X54053962Y-76316432D02*
X54054128Y-76325812D01*
X54671109Y-76122881D02*
X54669619Y-76150540D01*
X55498783Y-75497609D02*
X55607490Y-75965896D01*
X59240281Y-78183085D02*
X59179550Y-78109693D01*
X59955203Y-78647586D02*
X59926092Y-78612396D01*
X55661655Y-77801744D02*
X55661055Y-77691977D01*
X54768755Y-75535609D02*
X54846087Y-75775419D01*
X54342935Y-77415334D02*
X54349329Y-77419134D01*
X54003861Y-76030451D02*
X54007319Y-76042364D01*
X54144511Y-76317471D02*
X54083850Y-76329104D01*
X55483228Y-75422246D02*
X55481339Y-75427621D01*
X55414513Y-77616388D02*
X55414513Y-77616389D01*
X54511956Y-77389848D02*
X54520846Y-77391507D01*
X54002682Y-76371256D02*
X54014782Y-76387086D01*
X59516451Y-79668748D02*
X59585196Y-79708186D01*
X55683782Y-76376897D02*
X55688057Y-76364327D01*
X58355163Y-79231766D02*
X58377572Y-79204362D01*
X56199124Y-79614463D02*
X56283323Y-79520836D01*
X54912064Y-74104887D02*
X54899394Y-74105711D01*
X59997925Y-78397942D02*
X60054695Y-78388661D01*
X58386326Y-78473326D02*
X58400908Y-78433567D01*
X57799091Y-79180014D02*
X57593665Y-78568979D01*
X55508752Y-75420342D02*
X55494573Y-75420592D01*
X55612158Y-76330940D02*
X55155788Y-76264446D01*
X59331952Y-79119125D02*
X59319769Y-79202588D01*
X54525031Y-76529129D02*
X54512864Y-76552025D01*
X58384827Y-79371306D02*
X58361922Y-79349378D01*
X54928646Y-76472126D02*
X54902419Y-76481639D01*
X55682789Y-76014999D02*
X55688865Y-76000971D01*
X59389952Y-79535114D02*
X59457606Y-79619481D01*
X55352681Y-79286995D02*
X55324988Y-79240589D01*
X60333111Y-79367442D02*
X60181564Y-79366407D01*
X55009697Y-79083547D02*
X54738712Y-79083547D01*
X55887666Y-79795928D02*
X55999041Y-79751964D01*
X55683539Y-75987252D02*
X55658955Y-75979292D01*
X54603752Y-76390429D02*
X54107523Y-76490575D01*
X58961773Y-79775346D02*
X59060204Y-79725754D01*
X54008464Y-76353397D02*
X54002682Y-76371256D01*
X54085162Y-76280516D02*
X54082282Y-76158558D01*
X59090858Y-78037600D02*
X58984229Y-77981437D01*
X55513622Y-77293843D02*
X55515107Y-76786498D01*
X55010951Y-78664057D02*
X55278380Y-78664057D01*
X60333155Y-78538130D02*
X60333155Y-78691673D01*
X55382615Y-76525902D02*
X55349229Y-76524866D01*
X57105652Y-78516029D02*
X57193605Y-78837562D01*
X59407596Y-78251999D02*
X59386582Y-78333601D01*
X57593665Y-78568979D02*
X57388901Y-77958759D01*
X55642959Y-79389372D02*
X55587238Y-79394086D01*
X58473081Y-78361533D02*
X58536490Y-78339528D01*
X55281687Y-79088733D02*
X55280682Y-79083547D01*
X57421057Y-79672437D02*
X57453151Y-79793454D01*
X55221379Y-77444742D02*
X55229074Y-77439085D01*
X58852877Y-79811683D02*
X58961773Y-79775346D01*
X54507747Y-77351965D02*
X54511956Y-77389848D01*
X57193605Y-78837562D02*
X57280807Y-79165942D01*
X54192599Y-75575010D02*
X54179580Y-75962520D01*
X59897314Y-79322174D02*
X59865692Y-79287340D01*
X55260878Y-79795981D02*
X55351393Y-79821296D01*
X57816297Y-79073736D02*
X57805492Y-79134257D01*
X59447987Y-78908125D02*
X59396675Y-78968082D01*
X54864012Y-76389899D02*
X54863497Y-76402775D01*
X55025164Y-76547901D02*
X55017337Y-76516880D01*
X55280662Y-77454962D02*
X55349233Y-77467898D01*
X54431471Y-76253176D02*
X54144511Y-76317471D01*
X54778402Y-74810274D02*
X54691155Y-75334604D01*
X55666557Y-77653566D02*
X55660248Y-77547844D01*
X54182607Y-76353323D02*
X54669689Y-76245104D01*
X57107810Y-79552006D02*
X57388962Y-79551421D01*
X54704600Y-76079006D02*
X54706125Y-75945679D01*
X55430740Y-77476244D02*
X55439211Y-77467746D01*
X58625606Y-79841247D02*
X58732425Y-79835217D01*
X55690948Y-79377219D02*
X55642959Y-79389372D01*
X54562415Y-76510752D02*
X54541940Y-76514204D01*
X55229074Y-77439085D02*
X55229073Y-77439085D01*
X54048707Y-79297323D02*
X54047457Y-79828028D01*
X54182832Y-77441035D02*
X54192468Y-77442184D01*
X54056421Y-75983407D02*
X54055721Y-75998260D01*
X54814192Y-74779324D02*
X54901280Y-74251619D01*
D11*
X67151000Y-40730000D02*
G75*
G02*
X63849000Y-40730000I-1651000J0D01*
G01*
X63849000Y-40730000D02*
G75*
G02*
X67151000Y-40730000I1651000J0D01*
G01*
D10*
X55619645Y-76148239D02*
X55614990Y-76283076D01*
X55139321Y-76501785D02*
X55100615Y-76517804D01*
X54176797Y-77043753D02*
X54178238Y-77405538D01*
X54448756Y-76593082D02*
X54442123Y-76579252D01*
X55625218Y-77228799D02*
X55626183Y-77647856D01*
X55025044Y-77359221D02*
X55026799Y-76980527D01*
X58459476Y-77915585D02*
X58303458Y-77945822D01*
X58724293Y-78348995D02*
X58758475Y-78368504D01*
X55068780Y-76988948D02*
X55073329Y-77419330D01*
X54133010Y-75980188D02*
X54085183Y-75992461D01*
X54713615Y-75880768D02*
X55618735Y-76013402D01*
X60333111Y-79025920D02*
X60333111Y-79196681D01*
X59335959Y-79404002D02*
X59345528Y-79435040D01*
X55521902Y-75959278D02*
X55521902Y-75959278D01*
X54864828Y-77382418D02*
X54933975Y-77396243D01*
X54670029Y-76194085D02*
X54664842Y-76200870D01*
X54052457Y-77643323D02*
X54051207Y-78204973D01*
X57976447Y-79708749D02*
X57946240Y-79619434D01*
X54127376Y-77459908D02*
X54127363Y-77459909D01*
X55515107Y-76786498D02*
X55512222Y-76470224D01*
X60333155Y-78384587D02*
X60333155Y-78538130D01*
X56200449Y-79791443D02*
X56480450Y-79793453D01*
X55662026Y-76019589D02*
X55682789Y-76014999D01*
X59073199Y-79228748D02*
X58828122Y-79228748D01*
X54706854Y-79246548D02*
X54706854Y-78665068D01*
X55036508Y-76294702D02*
X55621313Y-76380774D01*
X55667892Y-77690612D02*
X55680327Y-77676949D01*
X55187338Y-76506475D02*
X55139321Y-76501785D01*
X56643110Y-78470408D02*
X56470998Y-78981473D01*
X57892230Y-78914476D02*
X57859667Y-78963843D01*
X54205048Y-76590107D02*
X54188983Y-76610041D01*
X54224091Y-75518271D02*
X54349668Y-75919993D01*
X59060204Y-79725754D02*
X59149261Y-79662454D01*
X55702469Y-76327135D02*
X55716112Y-76318581D01*
X55879420Y-79162511D02*
X55836374Y-79262299D01*
X58536490Y-78339528D02*
X58614833Y-78333532D01*
X54039007Y-77599131D02*
X54015322Y-77605678D01*
X59382068Y-78416385D02*
X59386657Y-78496943D01*
X59328026Y-78459395D02*
X59314473Y-78357829D01*
X59324031Y-78581075D02*
X59328026Y-78459395D01*
X54055331Y-76383781D02*
X54053796Y-76631347D01*
X55807679Y-79301214D02*
X55773986Y-79333163D01*
X59908930Y-78567808D02*
X59906590Y-78529352D01*
X58782111Y-79330951D02*
X58723084Y-79380933D01*
X59457606Y-79619481D02*
X59516451Y-79668748D01*
X55999041Y-79751964D02*
X56100848Y-79693897D01*
X55648303Y-76321038D02*
X55654763Y-76321056D01*
X58341254Y-79817825D02*
X58508560Y-79839747D01*
X57967380Y-79636919D02*
X58070190Y-79716233D01*
X60424756Y-77959392D02*
X59975243Y-77961558D01*
X58858859Y-77940869D02*
X58713942Y-77915562D01*
X55632327Y-77688161D02*
X55632927Y-77799246D01*
X55836374Y-79262299D02*
X55807679Y-79301214D01*
X58361922Y-79349378D02*
X58347270Y-79323642D01*
X55618735Y-76013402D02*
X55619645Y-76148239D01*
X54709180Y-75670950D02*
X54718361Y-75386943D01*
X54917547Y-74172969D02*
X55414530Y-75626029D01*
X54932095Y-79571628D02*
X55010106Y-79650596D01*
X59914833Y-78470648D02*
X59941015Y-78429029D01*
X54706907Y-76246311D02*
X54713246Y-76247476D01*
X59995740Y-78672923D02*
X59955203Y-78647586D01*
X54788307Y-75851840D02*
X54707520Y-75839567D01*
X59345528Y-79435040D02*
X59389952Y-79535114D01*
X55508847Y-77496292D02*
X55513622Y-77293843D01*
X59941015Y-78429029D02*
X59965466Y-78410386D01*
X58303458Y-77945822D02*
X58173695Y-77996977D01*
X56220809Y-78166109D02*
X56139794Y-78089639D01*
X59746118Y-79763620D02*
X59841082Y-79780750D01*
X54198643Y-75437680D02*
X54127606Y-75703452D01*
X55654763Y-76321056D02*
X55702469Y-76327135D01*
X56407442Y-78474413D02*
X56357777Y-78359260D01*
X54707650Y-75879513D02*
X54713615Y-75880768D01*
X55587238Y-79394086D02*
X55526009Y-79391761D01*
X55234731Y-77433427D02*
X55234731Y-77003943D01*
X54706911Y-78092088D02*
X54706908Y-78092100D01*
X55171343Y-76453632D02*
X55473089Y-76494420D01*
X54860183Y-76954311D02*
X54864828Y-77382418D01*
X56444073Y-78599752D02*
X56407442Y-78474413D01*
X54082282Y-76158558D02*
X54082277Y-76158559D01*
X54075594Y-79800369D02*
X54076658Y-79183230D01*
X55626183Y-77647856D02*
X55620034Y-77646626D01*
X54101425Y-76979960D02*
X54106769Y-77458873D01*
X54865206Y-76519977D02*
X54860183Y-76530849D01*
X54393457Y-75683799D02*
X54378207Y-75683799D01*
X55494573Y-75420592D02*
X55483228Y-75422246D01*
X54047458Y-76385536D02*
X54055331Y-76383781D01*
X58115137Y-78491189D02*
X58382252Y-78491189D01*
X55193236Y-76422270D02*
X54872863Y-76381532D01*
X57014413Y-78844408D02*
X57105652Y-78516029D01*
X54107523Y-76490575D02*
X54101525Y-76499153D01*
X54393457Y-75796737D02*
X54393457Y-75796739D01*
D11*
X40951000Y-94421000D02*
G75*
G02*
X37649000Y-94421000I-1651000J0D01*
G01*
X37649000Y-94421000D02*
G75*
G02*
X40951000Y-94421000I1651000J0D01*
G01*
D10*
X54671180Y-75878145D02*
X54671889Y-75986684D01*
X54704600Y-76146167D02*
X54704600Y-76079006D01*
X55414530Y-75626029D02*
X55371634Y-75755564D01*
X55660248Y-77547844D02*
X55657998Y-76914014D01*
X54294439Y-75655345D02*
X54224699Y-75433730D01*
X55498299Y-77502208D02*
X55508842Y-77496290D01*
X55143243Y-75903832D02*
X54941456Y-75874260D01*
X60333155Y-78691673D02*
X60201030Y-78691673D01*
X55010106Y-79650596D02*
X55097530Y-79717847D01*
X55449472Y-75947691D02*
X55481464Y-75612347D01*
X55716112Y-76318581D02*
X55716380Y-76307363D01*
X60897837Y-79793452D02*
X60897837Y-78876017D01*
X55601007Y-75971127D02*
X55521902Y-75959278D01*
X54708641Y-78632468D02*
X54706911Y-78092088D01*
X55526009Y-79391761D02*
X55473641Y-79380149D01*
X57805492Y-79134257D02*
X57799091Y-79180014D01*
X59319769Y-79202588D02*
X59318275Y-79228748D01*
X57951556Y-78196162D02*
X57888806Y-78321380D01*
X59965466Y-78410386D02*
X59997925Y-78397942D01*
X54706908Y-76199090D02*
X54706908Y-76188285D01*
X58416623Y-79390235D02*
X58384827Y-79371306D01*
X55331174Y-77942761D02*
X55218279Y-77978492D01*
X54188983Y-76610041D02*
X54179167Y-76640332D01*
X57865121Y-78400794D02*
X57849561Y-78479089D01*
X54215887Y-75736792D02*
X54215887Y-75736792D01*
X57849561Y-78479089D02*
X57848021Y-78491189D01*
X59181860Y-78868733D02*
X59250889Y-78785911D01*
X56100848Y-79693897D02*
X56199124Y-79614463D01*
X59250889Y-78785911D02*
X59298299Y-78689970D01*
X60897837Y-77958582D02*
X60424756Y-77959392D01*
X58342443Y-79261853D02*
X58355163Y-79231766D01*
X55683512Y-76348269D02*
X55668454Y-76339495D01*
X54641472Y-77510324D02*
X54350808Y-77554154D01*
X54395748Y-77409705D02*
X54395748Y-77409729D01*
X54395748Y-77409729D02*
X54444727Y-77396926D01*
X55648425Y-76288864D02*
X55647830Y-76153536D01*
X59841082Y-79780750D02*
X59947026Y-79791122D01*
X56034645Y-78018428D02*
X55920988Y-77964886D01*
X54706907Y-76878546D02*
X54706907Y-76246311D01*
X58713942Y-77915562D02*
X58585837Y-77911276D01*
X56760452Y-79793453D02*
X56761757Y-79788267D01*
X56480450Y-79793453D02*
X56760452Y-79793453D01*
X54083850Y-76329104D02*
X54082695Y-76318708D01*
X54706908Y-78092100D02*
X54706908Y-77552705D01*
X55218279Y-77978492D02*
X55116754Y-78027204D01*
X54880520Y-76497994D02*
X54865206Y-76519977D01*
X54106769Y-77458873D02*
X54127376Y-77459908D01*
X56826657Y-79552591D02*
X57107810Y-79552006D01*
X56794859Y-79667836D02*
X56826657Y-79552591D01*
X54617014Y-75892582D02*
X54671180Y-75878145D01*
X55429062Y-76562554D02*
X55409570Y-76538736D01*
X58606766Y-78589894D02*
X58440813Y-78636382D01*
X54047457Y-79828028D02*
X54377156Y-79828028D01*
X54130103Y-76514715D02*
X54367223Y-76466641D01*
X59149261Y-79662454D02*
X59204042Y-79610761D01*
X60333111Y-79196681D02*
X60333111Y-79367442D01*
X55607490Y-75965896D02*
X55607615Y-75971471D01*
X58347270Y-79323642D02*
X58340230Y-79293286D01*
X54224699Y-75433730D02*
X54198643Y-75437680D01*
X58400908Y-78433567D02*
X58431300Y-78391985D01*
X55635408Y-79841800D02*
X55766523Y-79825852D01*
X58048924Y-78083127D02*
X57996517Y-78136550D01*
X55229626Y-76554106D02*
X55221950Y-76537382D01*
D11*
X55751000Y-40730000D02*
G75*
G02*
X52449000Y-40730000I-1651000J0D01*
G01*
X52449000Y-40730000D02*
G75*
G02*
X55751000Y-40730000I1651000J0D01*
G01*
D10*
X59581973Y-78827410D02*
X59510201Y-78860811D01*
X54378831Y-76215403D02*
X54085162Y-76280516D01*
X54667074Y-77506474D02*
X54641472Y-77510324D01*
X59109861Y-78926755D02*
X59181860Y-78868733D01*
X54871549Y-75863581D02*
X54788307Y-75851840D01*
X55688057Y-76364327D02*
X55683512Y-76348269D01*
X60047178Y-78687948D02*
X60047178Y-78687950D01*
X55075509Y-76548898D02*
X55068781Y-76563118D01*
X54021144Y-76292897D02*
X53986104Y-76305385D01*
X54603418Y-76529206D02*
X54585023Y-76515254D01*
X54054600Y-76045689D02*
X54056505Y-76164265D01*
X54674946Y-77547334D02*
X54678851Y-78674449D01*
X54101525Y-76499153D02*
X54101425Y-76979960D01*
X55668454Y-76339495D02*
X55649632Y-76335504D01*
X54706854Y-78665068D02*
X54724179Y-78656496D01*
X54051207Y-78204973D02*
X54048707Y-79297323D01*
X55675375Y-77658486D02*
X55666557Y-77653566D01*
X58108181Y-78036425D02*
X58048924Y-78083127D01*
X58984229Y-77981437D02*
X58858859Y-77940869D01*
X55892274Y-78681743D02*
X55907955Y-78810417D01*
X55614990Y-76283076D02*
X55259459Y-76230011D01*
X55671474Y-77912070D02*
X55662255Y-77911510D01*
X55349229Y-76524866D02*
X55309937Y-76539166D01*
X59204042Y-79610761D02*
X59252838Y-79552135D01*
X54367223Y-76466641D02*
X54608318Y-76415053D01*
X59926092Y-78612396D02*
X59908930Y-78567808D01*
X54613695Y-76407120D02*
X54603752Y-76390429D01*
X54865106Y-74285404D02*
X54778402Y-74810274D01*
X54622784Y-76560813D02*
X54617859Y-76550159D01*
X54901280Y-74251619D02*
X54917547Y-74172969D01*
X54222901Y-75527258D02*
X54224091Y-75518271D01*
X58440813Y-78636382D02*
X58232945Y-78696935D01*
X54718361Y-75386943D02*
X54768755Y-75535609D01*
X54035484Y-77644608D02*
X54052457Y-77643323D01*
X54079113Y-78100490D02*
X54080503Y-77634888D01*
X59318275Y-79228748D02*
X59073199Y-79228748D01*
X58508560Y-79839747D02*
X58625606Y-79841247D01*
X54085183Y-75992461D02*
X54082228Y-75987471D01*
X54706854Y-79828028D02*
X54706854Y-79246548D01*
X54770260Y-79250022D02*
X54812053Y-79373461D01*
X55480217Y-77433161D02*
X55482375Y-77489722D01*
X54037869Y-76049294D02*
X54054600Y-76045689D01*
X58431300Y-78391985D02*
X58473081Y-78361533D01*
X55116754Y-78027204D02*
X55026774Y-78088700D01*
X55619649Y-76323711D02*
X55618638Y-76330793D01*
X54324259Y-75709473D02*
X54345003Y-75711478D01*
X55521902Y-75959278D02*
X55449472Y-75947691D01*
X55618638Y-76330793D02*
X55612158Y-76330940D01*
X55604895Y-78360437D02*
X55658776Y-78366331D01*
X54281119Y-76621867D02*
X54251855Y-76587840D01*
X55386534Y-79326019D02*
X55352681Y-79286995D01*
X55288728Y-79126948D02*
X55281687Y-79088733D01*
X55351393Y-79821296D02*
X55447875Y-79837468D01*
X55638734Y-75975692D02*
X55573777Y-75697916D01*
X58675911Y-79091590D02*
X58884016Y-79032977D01*
X59842191Y-77972749D02*
X59755071Y-77988781D01*
X55026774Y-78088700D02*
X54948519Y-78162784D01*
X58787701Y-78438195D02*
X58780039Y-78480348D01*
X59844675Y-79187500D02*
X59852248Y-79135040D01*
X55508842Y-77496290D02*
X55508847Y-77496292D01*
X54664842Y-76200870D02*
X54431471Y-76253176D01*
X54364412Y-75878584D02*
X54294439Y-75655345D01*
X54127363Y-77459909D02*
X54130968Y-76985676D01*
X54284854Y-77417689D02*
X54286874Y-77022946D01*
X55206852Y-76518880D02*
X55187338Y-76506475D01*
X55718582Y-78389020D02*
X55768258Y-78424101D01*
X54365547Y-75796184D02*
X54364412Y-75878584D01*
X58554904Y-79419191D02*
X58476792Y-79410406D01*
X55442126Y-77035623D02*
X55440056Y-76596539D01*
X54713247Y-77553985D02*
X55517082Y-77671401D01*
X55155788Y-76264446D02*
X54706908Y-76199090D01*
X54846087Y-75775419D02*
X54871549Y-75863581D01*
X60201030Y-78691673D02*
X60047178Y-78687948D01*
X55680327Y-77676949D02*
X55675375Y-77658486D01*
X54373850Y-76249321D02*
X54667148Y-76188636D01*
X54872863Y-76381532D02*
X54864012Y-76389899D01*
X59357609Y-79039412D02*
X59331952Y-79119125D01*
X54055721Y-75998260D02*
X54033829Y-76005719D01*
X56296235Y-78257518D02*
X56220809Y-78166109D01*
X55279455Y-78658871D02*
X55283065Y-78637551D01*
X55632927Y-77799246D02*
X55633527Y-77910331D01*
X55517082Y-77671401D02*
X55632327Y-77688161D01*
X58722252Y-78539792D02*
X58672439Y-78565556D01*
X57888806Y-78321380D02*
X57865121Y-78400794D01*
X55328465Y-78504071D02*
X55383336Y-78434015D01*
X54349668Y-75919993D02*
X54279945Y-75940937D01*
X54048823Y-76316305D02*
X54053962Y-76316432D01*
X54894715Y-74116323D02*
X54608641Y-74915848D01*
X54608318Y-76415053D02*
X54613695Y-76407120D01*
X54933975Y-77396243D02*
X55004238Y-77406403D01*
X56283323Y-79520836D02*
X56293938Y-79508168D01*
X54743522Y-78664057D02*
X55010951Y-78664057D01*
X55430741Y-77476245D02*
X55430740Y-77476244D01*
X54724179Y-78656496D02*
X54744027Y-78647923D01*
X58676720Y-78337452D02*
X58724293Y-78348995D01*
X55409570Y-76538736D02*
X55382615Y-76525902D01*
X54009911Y-76016800D02*
X54003861Y-76030451D01*
X55083125Y-77425046D02*
X55221379Y-77444742D01*
X57979098Y-78826915D02*
X57932040Y-78868833D01*
X57729061Y-79793454D02*
X58004971Y-79793454D01*
X54707520Y-75839567D02*
X54709180Y-75670950D01*
X54004711Y-77632249D02*
X54014377Y-77643313D01*
X57280807Y-79165942D02*
X57103369Y-79168822D01*
X54941456Y-75874260D02*
X54903706Y-75867519D01*
X57388901Y-77958759D02*
X57101803Y-77958793D01*
X59847862Y-79241808D02*
X59844675Y-79187500D01*
X55920988Y-77964886D02*
X55799654Y-77929329D01*
X55657998Y-76914014D02*
X55661258Y-76385719D01*
X57388962Y-79551421D02*
X57421057Y-79672437D01*
X54210221Y-75959427D02*
X54209546Y-75947786D01*
X60897837Y-78876017D02*
X60897837Y-77958582D01*
X55320722Y-75904492D02*
X55310720Y-75928117D01*
X55310720Y-75928117D02*
X55143242Y-75903831D01*
X55383336Y-78434015D02*
X55455686Y-78386268D01*
X57834356Y-79016930D02*
X57816297Y-79073736D01*
X55430541Y-75580107D02*
X55176561Y-74843117D01*
X55259462Y-76230008D02*
X54806592Y-76161555D01*
X54083432Y-76309943D02*
X54373850Y-76249321D01*
X54343886Y-76579558D02*
X54338645Y-77001026D01*
X59580820Y-78802556D02*
X59604106Y-78819843D01*
X54541940Y-76514204D02*
X54525031Y-76529129D01*
X55907955Y-78810417D02*
X55904431Y-79031687D01*
X60223052Y-79025932D02*
X60333111Y-79025920D01*
X54082277Y-76158559D02*
X54082277Y-76036350D01*
X60181564Y-79366407D02*
X60004358Y-79361601D01*
X55482375Y-77489722D02*
X55486882Y-77500600D01*
X54956941Y-76470668D02*
X54928646Y-76472126D01*
X54813977Y-75592469D02*
X54725702Y-75318874D01*
X54338645Y-77001026D02*
X54338015Y-77411299D01*
X55309937Y-76539166D02*
X55283480Y-76568584D01*
X59441589Y-78181882D02*
X59407596Y-78251999D01*
X54744027Y-78647923D02*
X54745038Y-78655990D01*
X54812053Y-79373461D02*
X54865662Y-79477952D01*
X54017277Y-76050129D02*
X54037869Y-76049294D01*
X54279945Y-75940937D02*
X54210221Y-75959427D01*
X59252838Y-79552135D02*
X59293990Y-79488824D01*
X54788307Y-75851840D02*
X54788307Y-75851840D01*
X54397492Y-75909406D02*
X54393457Y-75796737D01*
X54054128Y-76325812D02*
X54053413Y-76336831D01*
X54748387Y-78615159D02*
X54728464Y-78624652D01*
X58826815Y-79235087D02*
X58818432Y-79263933D01*
X55621313Y-76380774D02*
X55625218Y-77228799D01*
X55068781Y-76563118D02*
X55068780Y-76988948D01*
X59906590Y-78529352D02*
X59914833Y-78470648D01*
X54860183Y-76530849D02*
X54860183Y-76954311D01*
X54507540Y-76567728D02*
X54506925Y-76974314D01*
X59678001Y-78010408D02*
X59610364Y-78037841D01*
X59975243Y-77961558D02*
X59842191Y-77972749D01*
X55735130Y-79358410D02*
X55690948Y-79377219D01*
X55221950Y-76537382D02*
X55206852Y-76518880D01*
X56293938Y-79508168D02*
X56247516Y-79649125D01*
X57932040Y-78868833D02*
X57892230Y-78914476D01*
X59418779Y-78600502D02*
X59474183Y-78695705D01*
X54082697Y-76318708D02*
X54083432Y-76309943D01*
X58377572Y-79204362D02*
X58408854Y-79180978D01*
X54350808Y-77554154D02*
X54082484Y-77594347D01*
X55617629Y-76315342D02*
X55619649Y-76323711D01*
X54756289Y-78581046D02*
X54748387Y-78615159D01*
X55473641Y-79380149D02*
X55427896Y-79358488D01*
X58340230Y-79293286D02*
X58342443Y-79261853D01*
X57996517Y-78136550D02*
X57951556Y-78196162D01*
X54345003Y-75711478D02*
X54365747Y-75711478D01*
X54080503Y-77634888D02*
X54376168Y-77590514D01*
X55155788Y-76264446D02*
X55155788Y-76264446D01*
X55544203Y-78362046D02*
X55604895Y-78360437D01*
X54506925Y-76974314D02*
X54507747Y-77351965D01*
X55176561Y-74843117D02*
X54923910Y-74106117D01*
X58732425Y-79835217D02*
X58852877Y-79811683D01*
X54087463Y-76034115D02*
X54327749Y-75969451D01*
X59943335Y-79346774D02*
X59897314Y-79322174D01*
X55465336Y-77918982D02*
X55331174Y-77942761D01*
X56814705Y-77958828D02*
X56643110Y-78470408D01*
X54667148Y-76188636D02*
X54670029Y-76194085D01*
X54743847Y-79120426D02*
X54770260Y-79250022D01*
X59661151Y-79739508D02*
X59746118Y-79763620D01*
X54229636Y-76583960D02*
X54205048Y-76590107D01*
X54376168Y-77590514D02*
X54674946Y-77547334D01*
D11*
X81951000Y-94421000D02*
G75*
G02*
X78649000Y-94421000I-1651000J0D01*
G01*
X78649000Y-94421000D02*
G75*
G02*
X81951000Y-94421000I1651000J0D01*
G01*
D10*
X58408854Y-79180978D02*
X58499399Y-79140902D01*
X54512864Y-76552025D02*
X54507540Y-76567728D01*
X58780187Y-78396323D02*
X58787701Y-78438195D01*
X53986104Y-76305385D02*
X53984168Y-76316493D01*
X54679641Y-79800369D02*
X54377618Y-79800369D01*
X55863919Y-78574896D02*
X55892274Y-78681743D01*
X59852248Y-79135040D02*
X59877890Y-79089053D01*
X55676084Y-76292884D02*
X55648425Y-76288864D01*
X56139794Y-78089639D02*
X56034645Y-78018428D01*
X59585196Y-79708186D02*
X59661151Y-79739508D01*
X54982916Y-76477913D02*
X54956941Y-76470668D01*
X55026799Y-76980527D02*
X55025164Y-76547901D01*
X58723084Y-79380933D02*
X58645849Y-79411230D01*
X55419262Y-77477920D02*
X55430741Y-77476245D01*
X59604106Y-78819843D02*
X59581973Y-78827410D01*
X55283480Y-76568584D02*
X55276222Y-76582203D01*
X55661055Y-77691977D02*
X55667892Y-77690612D01*
X54923910Y-74106117D02*
X54912064Y-74104887D01*
X56924928Y-79168822D02*
X57014413Y-78844408D01*
X54082695Y-76318708D02*
X54082697Y-76318708D01*
X54370510Y-76546901D02*
X54343886Y-76579558D01*
X54617859Y-76550159D02*
X54603418Y-76529206D01*
X55647272Y-76327759D02*
X55648303Y-76321038D01*
X56761757Y-79788267D02*
X56794859Y-79667836D01*
X54349329Y-77419134D02*
X54395748Y-77409705D01*
X55708975Y-76299194D02*
X55676084Y-76292884D01*
X58645849Y-79411230D02*
X58554904Y-79419191D01*
X55440056Y-76596539D02*
X55429062Y-76562554D01*
X54005481Y-77615769D02*
X54004711Y-77632249D01*
D11*
X40951000Y-40421000D02*
G75*
G02*
X37649000Y-40421000I-1651000J0D01*
G01*
X37649000Y-40421000D02*
G75*
G02*
X40951000Y-40421000I1651000J0D01*
G01*
D10*
X55573777Y-75697916D02*
X55508752Y-75420342D01*
X54671889Y-75986684D02*
X54671109Y-76122881D01*
X54235661Y-77434484D02*
X54235664Y-77434485D01*
X54014782Y-76387086D02*
X54047458Y-76385536D01*
X59325842Y-79423074D02*
X59335959Y-79404002D01*
X58757640Y-78511692D02*
X58722252Y-78539792D01*
X54377618Y-79800369D02*
X54075594Y-79800369D01*
X55003151Y-76493434D02*
X54982916Y-76477913D01*
X55017337Y-76516880D02*
X55003151Y-76493434D01*
X60004358Y-79361604D02*
X59943335Y-79346774D01*
X58232945Y-78696935D02*
X58094946Y-78754265D01*
X58476792Y-79410406D02*
X58416623Y-79390235D01*
X55303617Y-79187130D02*
X55288728Y-79126948D01*
X54251855Y-76587840D02*
X54229636Y-76583960D01*
X54007319Y-76042364D02*
X54017277Y-76050129D01*
X54082228Y-75987471D02*
X54082227Y-75987470D01*
X56470998Y-78981473D02*
X56472918Y-78929108D01*
X55276222Y-77016573D02*
X55280662Y-77454962D01*
X54365747Y-75711478D02*
X54365547Y-75796184D01*
X54585023Y-76515254D02*
X54562415Y-76510752D01*
X54076658Y-79183230D02*
X54079113Y-78100490D01*
X55658776Y-78366331D02*
X55718582Y-78389020D01*
X55073329Y-77419330D02*
X55083125Y-77425046D01*
X54706908Y-76188285D02*
X54710943Y-76178427D01*
X54872479Y-76411852D02*
X55171343Y-76453632D01*
X54669619Y-76150540D02*
X54378831Y-76215403D01*
X55283065Y-78637551D02*
X55292384Y-78595224D01*
X55482114Y-76495835D02*
X55480589Y-76992355D01*
X55799654Y-77929329D02*
X55671474Y-77912070D01*
X57946240Y-79619434D02*
X57967380Y-79636919D01*
X55481464Y-75612347D02*
X55498783Y-75497609D01*
X55143242Y-75903831D02*
X55143243Y-75903832D01*
X55647235Y-76018209D02*
X55662026Y-76019589D01*
X59386657Y-78496943D02*
X59418779Y-78600502D01*
X53990774Y-76324816D02*
X54048823Y-76316305D01*
X54056505Y-76164265D02*
X54054140Y-76284291D01*
D11*
X55751000Y-87730000D02*
G75*
G02*
X52449000Y-87730000I-1651000J0D01*
G01*
X52449000Y-87730000D02*
G75*
G02*
X55751000Y-87730000I1651000J0D01*
G01*
D10*
X54179580Y-75962520D02*
X54133010Y-75980188D01*
X55371634Y-75755564D02*
X55320722Y-75904492D01*
X54882166Y-78249257D02*
X54827892Y-78347923D01*
X59963509Y-79041559D02*
X60019635Y-79032058D01*
X59865692Y-79287340D02*
X59847862Y-79241808D01*
D11*
X81951000Y-40421000D02*
G75*
G02*
X78649000Y-40421000I-1651000J0D01*
G01*
X78649000Y-40421000D02*
G75*
G02*
X81951000Y-40421000I1651000J0D01*
G01*
D10*
X54444727Y-77396926D02*
X54448757Y-76993201D01*
X54082227Y-75987470D02*
X54137038Y-75775367D01*
X55280682Y-79083547D02*
X55009697Y-79083547D01*
X54669689Y-76245104D02*
X54668784Y-76876179D01*
X58585837Y-77911276D02*
X58459476Y-77915585D01*
X54286264Y-76634570D02*
X54281119Y-76621867D01*
X55607615Y-75971471D02*
X55601007Y-75971127D01*
X55234731Y-77003943D02*
X55233388Y-76603631D01*
X54082484Y-77594347D02*
X54080679Y-76985757D01*
X54615862Y-75601973D02*
X54539042Y-75870914D01*
X53984168Y-76316493D02*
X53990774Y-76324816D01*
X54127606Y-75703452D02*
X54056421Y-75983407D01*
X54364241Y-75678884D02*
X54865106Y-74285404D01*
X55649632Y-76335504D02*
X55647272Y-76327759D01*
X55480589Y-76992355D02*
X55480217Y-77433161D01*
X59293990Y-79488824D02*
X59325842Y-79423074D01*
X55276222Y-76582203D02*
X55276222Y-77016573D01*
X55233388Y-76603631D02*
X55229626Y-76554106D01*
X54899394Y-74105711D02*
X54894715Y-74116323D01*
X54015322Y-77605678D02*
X54005481Y-77615769D01*
X56466513Y-78732053D02*
X56444073Y-78599752D01*
X58780039Y-78480348D02*
X58757640Y-78511692D01*
X57848021Y-78491189D02*
X58115137Y-78491189D01*
X54178238Y-77405538D02*
X54182832Y-77441035D01*
X54520846Y-77391507D02*
X54571981Y-77382522D01*
X58173695Y-77996977D02*
X58108181Y-78036425D01*
X54327749Y-75969451D02*
X54617014Y-75892582D01*
X58818432Y-79263933D02*
X58782111Y-79330951D01*
X60440851Y-79793452D02*
X60897837Y-79793452D01*
X58828122Y-79228748D02*
X58826815Y-79235087D01*
X54691155Y-75334604D02*
X54615862Y-75601973D01*
X54082842Y-76376246D02*
X54182607Y-76353323D01*
X54137038Y-75775367D02*
X54192599Y-75575010D01*
X54728464Y-78624652D02*
X54708641Y-78632468D01*
X54740027Y-79092191D02*
X54743847Y-79120426D01*
X59610364Y-78037841D02*
X59551542Y-78071287D01*
X54442123Y-76579252D02*
X54428599Y-76559226D01*
X54209546Y-75947786D02*
X54215887Y-75736792D01*
X59298299Y-78689970D02*
X59324031Y-78581075D01*
X54014377Y-77643313D02*
X54035484Y-77644608D01*
X58004971Y-79793454D02*
X57976447Y-79708749D01*
X55658955Y-75979292D02*
X55638734Y-75975692D01*
X54902419Y-76481639D02*
X54880520Y-76497994D01*
X54706908Y-77552705D02*
X54713247Y-77553985D01*
X55097530Y-79717847D02*
X55176275Y-79761504D01*
X59285240Y-78265761D02*
X59240281Y-78183085D01*
X59551542Y-78071287D02*
X59489318Y-78122047D01*
X54770868Y-77520543D02*
X54706907Y-77510781D01*
X54571977Y-77382521D02*
X54619829Y-77368628D01*
X57103369Y-79168822D02*
X56924928Y-79168822D01*
X57859667Y-78963843D02*
X57834356Y-79016930D01*
X54623384Y-76962155D02*
X54622784Y-76560813D01*
X58194973Y-79776594D02*
X58341254Y-79817825D01*
X59396675Y-78968082D02*
X59357609Y-79039412D01*
X54865662Y-79477952D02*
X54932095Y-79571628D01*
X55176275Y-79761504D02*
X55260878Y-79795981D01*
X55100615Y-76517804D02*
X55075509Y-76548898D01*
X54192468Y-77442184D02*
X54235661Y-77434484D01*
X58672439Y-78565556D02*
X58606766Y-78589894D01*
X54668784Y-76876179D02*
X54667074Y-77506474D01*
X54080672Y-76985761D02*
X54082842Y-76376246D01*
X54713246Y-76247476D02*
X55036508Y-76294702D01*
X54338015Y-77411299D02*
X54342935Y-77415334D01*
X56357777Y-78359260D02*
X56296235Y-78257518D01*
X54179167Y-76640332D02*
X54176797Y-77043753D01*
X54428599Y-76559226D02*
X54411379Y-76547101D01*
X54235664Y-77434485D02*
X54277277Y-77424870D01*
X55259459Y-76230011D02*
X55259462Y-76230008D01*
D12*
X47559305Y-62648538D02*
X47616448Y-62619967D01*
X47616448Y-62619967D02*
X47702162Y-62619967D01*
X47702162Y-62619967D02*
X47787876Y-62648538D01*
X47787876Y-62648538D02*
X47845019Y-62705681D01*
X47845019Y-62705681D02*
X47873590Y-62762824D01*
X47873590Y-62762824D02*
X47902162Y-62877110D01*
X47902162Y-62877110D02*
X47902162Y-62962824D01*
X47902162Y-62962824D02*
X47873590Y-63077110D01*
X47873590Y-63077110D02*
X47845019Y-63134253D01*
X47845019Y-63134253D02*
X47787876Y-63191396D01*
X47787876Y-63191396D02*
X47702162Y-63219967D01*
X47702162Y-63219967D02*
X47645019Y-63219967D01*
X47645019Y-63219967D02*
X47559305Y-63191396D01*
X47559305Y-63191396D02*
X47530733Y-63162824D01*
X47530733Y-63162824D02*
X47530733Y-62962824D01*
X47530733Y-62962824D02*
X47645019Y-62962824D01*
X47273590Y-63219967D02*
X47273590Y-62619967D01*
X47273590Y-62619967D02*
X47045019Y-62619967D01*
X47045019Y-62619967D02*
X46987876Y-62648538D01*
X46987876Y-62648538D02*
X46959305Y-62677110D01*
X46959305Y-62677110D02*
X46930733Y-62734253D01*
X46930733Y-62734253D02*
X46930733Y-62819967D01*
X46930733Y-62819967D02*
X46959305Y-62877110D01*
X46959305Y-62877110D02*
X46987876Y-62905681D01*
X46987876Y-62905681D02*
X47045019Y-62934253D01*
X47045019Y-62934253D02*
X47273590Y-62934253D01*
X46730733Y-62619967D02*
X46330733Y-62619967D01*
X46330733Y-62619967D02*
X46587876Y-63219967D01*
X47859305Y-77948538D02*
X47916448Y-77919967D01*
X47916448Y-77919967D02*
X48002162Y-77919967D01*
X48002162Y-77919967D02*
X48087876Y-77948538D01*
X48087876Y-77948538D02*
X48145019Y-78005681D01*
X48145019Y-78005681D02*
X48173590Y-78062824D01*
X48173590Y-78062824D02*
X48202162Y-78177110D01*
X48202162Y-78177110D02*
X48202162Y-78262824D01*
X48202162Y-78262824D02*
X48173590Y-78377110D01*
X48173590Y-78377110D02*
X48145019Y-78434253D01*
X48145019Y-78434253D02*
X48087876Y-78491396D01*
X48087876Y-78491396D02*
X48002162Y-78519967D01*
X48002162Y-78519967D02*
X47945019Y-78519967D01*
X47945019Y-78519967D02*
X47859305Y-78491396D01*
X47859305Y-78491396D02*
X47830733Y-78462824D01*
X47830733Y-78462824D02*
X47830733Y-78262824D01*
X47830733Y-78262824D02*
X47945019Y-78262824D01*
X47573590Y-78519967D02*
X47573590Y-77919967D01*
X47573590Y-77919967D02*
X47345019Y-77919967D01*
X47345019Y-77919967D02*
X47287876Y-77948538D01*
X47287876Y-77948538D02*
X47259305Y-77977110D01*
X47259305Y-77977110D02*
X47230733Y-78034253D01*
X47230733Y-78034253D02*
X47230733Y-78119967D01*
X47230733Y-78119967D02*
X47259305Y-78177110D01*
X47259305Y-78177110D02*
X47287876Y-78205681D01*
X47287876Y-78205681D02*
X47345019Y-78234253D01*
X47345019Y-78234253D02*
X47573590Y-78234253D01*
X46659305Y-78519967D02*
X47002162Y-78519967D01*
X46830733Y-78519967D02*
X46830733Y-77919967D01*
X46830733Y-77919967D02*
X46887876Y-78005681D01*
X46887876Y-78005681D02*
X46945019Y-78062824D01*
X46945019Y-78062824D02*
X47002162Y-78091396D01*
X46430733Y-77977110D02*
X46402161Y-77948538D01*
X46402161Y-77948538D02*
X46345019Y-77919967D01*
X46345019Y-77919967D02*
X46202161Y-77919967D01*
X46202161Y-77919967D02*
X46145019Y-77948538D01*
X46145019Y-77948538D02*
X46116447Y-77977110D01*
X46116447Y-77977110D02*
X46087876Y-78034253D01*
X46087876Y-78034253D02*
X46087876Y-78091396D01*
X46087876Y-78091396D02*
X46116447Y-78177110D01*
X46116447Y-78177110D02*
X46459304Y-78519967D01*
X46459304Y-78519967D02*
X46087876Y-78519967D01*
X47559305Y-57648538D02*
X47616448Y-57619967D01*
X47616448Y-57619967D02*
X47702162Y-57619967D01*
X47702162Y-57619967D02*
X47787876Y-57648538D01*
X47787876Y-57648538D02*
X47845019Y-57705681D01*
X47845019Y-57705681D02*
X47873590Y-57762824D01*
X47873590Y-57762824D02*
X47902162Y-57877110D01*
X47902162Y-57877110D02*
X47902162Y-57962824D01*
X47902162Y-57962824D02*
X47873590Y-58077110D01*
X47873590Y-58077110D02*
X47845019Y-58134253D01*
X47845019Y-58134253D02*
X47787876Y-58191396D01*
X47787876Y-58191396D02*
X47702162Y-58219967D01*
X47702162Y-58219967D02*
X47645019Y-58219967D01*
X47645019Y-58219967D02*
X47559305Y-58191396D01*
X47559305Y-58191396D02*
X47530733Y-58162824D01*
X47530733Y-58162824D02*
X47530733Y-57962824D01*
X47530733Y-57962824D02*
X47645019Y-57962824D01*
X47273590Y-58219967D02*
X47273590Y-57619967D01*
X47273590Y-57619967D02*
X46930733Y-58219967D01*
X46930733Y-58219967D02*
X46930733Y-57619967D01*
X46645019Y-58219967D02*
X46645019Y-57619967D01*
X46645019Y-57619967D02*
X46502162Y-57619967D01*
X46502162Y-57619967D02*
X46416448Y-57648538D01*
X46416448Y-57648538D02*
X46359305Y-57705681D01*
X46359305Y-57705681D02*
X46330734Y-57762824D01*
X46330734Y-57762824D02*
X46302162Y-57877110D01*
X46302162Y-57877110D02*
X46302162Y-57962824D01*
X46302162Y-57962824D02*
X46330734Y-58077110D01*
X46330734Y-58077110D02*
X46359305Y-58134253D01*
X46359305Y-58134253D02*
X46416448Y-58191396D01*
X46416448Y-58191396D02*
X46502162Y-58219967D01*
X46502162Y-58219967D02*
X46645019Y-58219967D01*
X60065691Y-92359305D02*
X60094262Y-92416448D01*
X60094262Y-92416448D02*
X60094262Y-92502162D01*
X60094262Y-92502162D02*
X60065691Y-92587876D01*
X60065691Y-92587876D02*
X60008548Y-92645019D01*
X60008548Y-92645019D02*
X59951405Y-92673590D01*
X59951405Y-92673590D02*
X59837119Y-92702162D01*
X59837119Y-92702162D02*
X59751405Y-92702162D01*
X59751405Y-92702162D02*
X59637119Y-92673590D01*
X59637119Y-92673590D02*
X59579976Y-92645019D01*
X59579976Y-92645019D02*
X59522834Y-92587876D01*
X59522834Y-92587876D02*
X59494262Y-92502162D01*
X59494262Y-92502162D02*
X59494262Y-92445019D01*
X59494262Y-92445019D02*
X59522834Y-92359305D01*
X59522834Y-92359305D02*
X59551405Y-92330733D01*
X59551405Y-92330733D02*
X59751405Y-92330733D01*
X59751405Y-92330733D02*
X59751405Y-92445019D01*
X59494262Y-92073590D02*
X60094262Y-92073590D01*
X60094262Y-92073590D02*
X59494262Y-91730733D01*
X59494262Y-91730733D02*
X60094262Y-91730733D01*
X59494262Y-91445019D02*
X60094262Y-91445019D01*
X60094262Y-91445019D02*
X60094262Y-91302162D01*
X60094262Y-91302162D02*
X60065691Y-91216448D01*
X60065691Y-91216448D02*
X60008548Y-91159305D01*
X60008548Y-91159305D02*
X59951405Y-91130734D01*
X59951405Y-91130734D02*
X59837119Y-91102162D01*
X59837119Y-91102162D02*
X59751405Y-91102162D01*
X59751405Y-91102162D02*
X59637119Y-91130734D01*
X59637119Y-91130734D02*
X59579976Y-91159305D01*
X59579976Y-91159305D02*
X59522834Y-91216448D01*
X59522834Y-91216448D02*
X59494262Y-91302162D01*
X59494262Y-91302162D02*
X59494262Y-91445019D01*
X47559305Y-42348538D02*
X47616448Y-42319967D01*
X47616448Y-42319967D02*
X47702162Y-42319967D01*
X47702162Y-42319967D02*
X47787876Y-42348538D01*
X47787876Y-42348538D02*
X47845019Y-42405681D01*
X47845019Y-42405681D02*
X47873590Y-42462824D01*
X47873590Y-42462824D02*
X47902162Y-42577110D01*
X47902162Y-42577110D02*
X47902162Y-42662824D01*
X47902162Y-42662824D02*
X47873590Y-42777110D01*
X47873590Y-42777110D02*
X47845019Y-42834253D01*
X47845019Y-42834253D02*
X47787876Y-42891396D01*
X47787876Y-42891396D02*
X47702162Y-42919967D01*
X47702162Y-42919967D02*
X47645019Y-42919967D01*
X47645019Y-42919967D02*
X47559305Y-42891396D01*
X47559305Y-42891396D02*
X47530733Y-42862824D01*
X47530733Y-42862824D02*
X47530733Y-42662824D01*
X47530733Y-42662824D02*
X47645019Y-42662824D01*
X47273590Y-42919967D02*
X47273590Y-42319967D01*
X47273590Y-42319967D02*
X47045019Y-42319967D01*
X47045019Y-42319967D02*
X46987876Y-42348538D01*
X46987876Y-42348538D02*
X46959305Y-42377110D01*
X46959305Y-42377110D02*
X46930733Y-42434253D01*
X46930733Y-42434253D02*
X46930733Y-42519967D01*
X46930733Y-42519967D02*
X46959305Y-42577110D01*
X46959305Y-42577110D02*
X46987876Y-42605681D01*
X46987876Y-42605681D02*
X47045019Y-42634253D01*
X47045019Y-42634253D02*
X47273590Y-42634253D01*
X46359305Y-42919967D02*
X46702162Y-42919967D01*
X46530733Y-42919967D02*
X46530733Y-42319967D01*
X46530733Y-42319967D02*
X46587876Y-42405681D01*
X46587876Y-42405681D02*
X46645019Y-42462824D01*
X46645019Y-42462824D02*
X46702162Y-42491396D01*
X73163163Y-80448538D02*
X73220306Y-80419967D01*
X73220306Y-80419967D02*
X73306020Y-80419967D01*
X73306020Y-80419967D02*
X73391734Y-80448538D01*
X73391734Y-80448538D02*
X73448877Y-80505681D01*
X73448877Y-80505681D02*
X73477448Y-80562824D01*
X73477448Y-80562824D02*
X73506020Y-80677110D01*
X73506020Y-80677110D02*
X73506020Y-80762824D01*
X73506020Y-80762824D02*
X73477448Y-80877110D01*
X73477448Y-80877110D02*
X73448877Y-80934253D01*
X73448877Y-80934253D02*
X73391734Y-80991396D01*
X73391734Y-80991396D02*
X73306020Y-81019967D01*
X73306020Y-81019967D02*
X73248877Y-81019967D01*
X73248877Y-81019967D02*
X73163163Y-80991396D01*
X73163163Y-80991396D02*
X73134591Y-80962824D01*
X73134591Y-80962824D02*
X73134591Y-80762824D01*
X73134591Y-80762824D02*
X73248877Y-80762824D01*
X72877448Y-81019967D02*
X72877448Y-80419967D01*
X72877448Y-80419967D02*
X72648877Y-80419967D01*
X72648877Y-80419967D02*
X72591734Y-80448538D01*
X72591734Y-80448538D02*
X72563163Y-80477110D01*
X72563163Y-80477110D02*
X72534591Y-80534253D01*
X72534591Y-80534253D02*
X72534591Y-80619967D01*
X72534591Y-80619967D02*
X72563163Y-80677110D01*
X72563163Y-80677110D02*
X72591734Y-80705681D01*
X72591734Y-80705681D02*
X72648877Y-80734253D01*
X72648877Y-80734253D02*
X72877448Y-80734253D01*
X71963163Y-81019967D02*
X72306020Y-81019967D01*
X72134591Y-81019967D02*
X72134591Y-80419967D01*
X72134591Y-80419967D02*
X72191734Y-80505681D01*
X72191734Y-80505681D02*
X72248877Y-80562824D01*
X72248877Y-80562824D02*
X72306020Y-80591396D01*
X71620305Y-80677110D02*
X71677448Y-80648538D01*
X71677448Y-80648538D02*
X71706019Y-80619967D01*
X71706019Y-80619967D02*
X71734591Y-80562824D01*
X71734591Y-80562824D02*
X71734591Y-80534253D01*
X71734591Y-80534253D02*
X71706019Y-80477110D01*
X71706019Y-80477110D02*
X71677448Y-80448538D01*
X71677448Y-80448538D02*
X71620305Y-80419967D01*
X71620305Y-80419967D02*
X71506019Y-80419967D01*
X71506019Y-80419967D02*
X71448877Y-80448538D01*
X71448877Y-80448538D02*
X71420305Y-80477110D01*
X71420305Y-80477110D02*
X71391734Y-80534253D01*
X71391734Y-80534253D02*
X71391734Y-80562824D01*
X71391734Y-80562824D02*
X71420305Y-80619967D01*
X71420305Y-80619967D02*
X71448877Y-80648538D01*
X71448877Y-80648538D02*
X71506019Y-80677110D01*
X71506019Y-80677110D02*
X71620305Y-80677110D01*
X71620305Y-80677110D02*
X71677448Y-80705681D01*
X71677448Y-80705681D02*
X71706019Y-80734253D01*
X71706019Y-80734253D02*
X71734591Y-80791396D01*
X71734591Y-80791396D02*
X71734591Y-80905681D01*
X71734591Y-80905681D02*
X71706019Y-80962824D01*
X71706019Y-80962824D02*
X71677448Y-80991396D01*
X71677448Y-80991396D02*
X71620305Y-81019967D01*
X71620305Y-81019967D02*
X71506019Y-81019967D01*
X71506019Y-81019967D02*
X71448877Y-80991396D01*
X71448877Y-80991396D02*
X71420305Y-80962824D01*
X71420305Y-80962824D02*
X71391734Y-80905681D01*
X71391734Y-80905681D02*
X71391734Y-80791396D01*
X71391734Y-80791396D02*
X71420305Y-80734253D01*
X71420305Y-80734253D02*
X71448877Y-80705681D01*
X71448877Y-80705681D02*
X71506019Y-80677110D01*
X56922834Y-92702162D02*
X56894262Y-92616448D01*
X56894262Y-92616448D02*
X56894262Y-92473590D01*
X56894262Y-92473590D02*
X56922834Y-92416448D01*
X56922834Y-92416448D02*
X56951405Y-92387876D01*
X56951405Y-92387876D02*
X57008548Y-92359305D01*
X57008548Y-92359305D02*
X57065691Y-92359305D01*
X57065691Y-92359305D02*
X57122834Y-92387876D01*
X57122834Y-92387876D02*
X57151405Y-92416448D01*
X57151405Y-92416448D02*
X57179976Y-92473590D01*
X57179976Y-92473590D02*
X57208548Y-92587876D01*
X57208548Y-92587876D02*
X57237119Y-92645019D01*
X57237119Y-92645019D02*
X57265691Y-92673590D01*
X57265691Y-92673590D02*
X57322834Y-92702162D01*
X57322834Y-92702162D02*
X57379976Y-92702162D01*
X57379976Y-92702162D02*
X57437119Y-92673590D01*
X57437119Y-92673590D02*
X57465691Y-92645019D01*
X57465691Y-92645019D02*
X57494262Y-92587876D01*
X57494262Y-92587876D02*
X57494262Y-92445019D01*
X57494262Y-92445019D02*
X57465691Y-92359305D01*
X57494262Y-92159304D02*
X56894262Y-92016447D01*
X56894262Y-92016447D02*
X57322834Y-91902161D01*
X57322834Y-91902161D02*
X56894262Y-91787876D01*
X56894262Y-91787876D02*
X57494262Y-91645019D01*
X56951405Y-91073590D02*
X56922834Y-91102162D01*
X56922834Y-91102162D02*
X56894262Y-91187876D01*
X56894262Y-91187876D02*
X56894262Y-91245019D01*
X56894262Y-91245019D02*
X56922834Y-91330733D01*
X56922834Y-91330733D02*
X56979976Y-91387876D01*
X56979976Y-91387876D02*
X57037119Y-91416447D01*
X57037119Y-91416447D02*
X57151405Y-91445019D01*
X57151405Y-91445019D02*
X57237119Y-91445019D01*
X57237119Y-91445019D02*
X57351405Y-91416447D01*
X57351405Y-91416447D02*
X57408548Y-91387876D01*
X57408548Y-91387876D02*
X57465691Y-91330733D01*
X57465691Y-91330733D02*
X57494262Y-91245019D01*
X57494262Y-91245019D02*
X57494262Y-91187876D01*
X57494262Y-91187876D02*
X57465691Y-91102162D01*
X57465691Y-91102162D02*
X57437119Y-91073590D01*
X56894262Y-90530733D02*
X56894262Y-90816447D01*
X56894262Y-90816447D02*
X57494262Y-90816447D01*
X56894262Y-90330733D02*
X57494262Y-90330733D01*
X56894262Y-89987876D02*
X57237119Y-90245019D01*
X57494262Y-89987876D02*
X57151405Y-90330733D01*
X47559305Y-82948538D02*
X47616448Y-82919967D01*
X47616448Y-82919967D02*
X47702162Y-82919967D01*
X47702162Y-82919967D02*
X47787876Y-82948538D01*
X47787876Y-82948538D02*
X47845019Y-83005681D01*
X47845019Y-83005681D02*
X47873590Y-83062824D01*
X47873590Y-83062824D02*
X47902162Y-83177110D01*
X47902162Y-83177110D02*
X47902162Y-83262824D01*
X47902162Y-83262824D02*
X47873590Y-83377110D01*
X47873590Y-83377110D02*
X47845019Y-83434253D01*
X47845019Y-83434253D02*
X47787876Y-83491396D01*
X47787876Y-83491396D02*
X47702162Y-83519967D01*
X47702162Y-83519967D02*
X47645019Y-83519967D01*
X47645019Y-83519967D02*
X47559305Y-83491396D01*
X47559305Y-83491396D02*
X47530733Y-83462824D01*
X47530733Y-83462824D02*
X47530733Y-83262824D01*
X47530733Y-83262824D02*
X47645019Y-83262824D01*
X47273590Y-83519967D02*
X47273590Y-82919967D01*
X47273590Y-82919967D02*
X46930733Y-83519967D01*
X46930733Y-83519967D02*
X46930733Y-82919967D01*
X46645019Y-83519967D02*
X46645019Y-82919967D01*
X46645019Y-82919967D02*
X46502162Y-82919967D01*
X46502162Y-82919967D02*
X46416448Y-82948538D01*
X46416448Y-82948538D02*
X46359305Y-83005681D01*
X46359305Y-83005681D02*
X46330734Y-83062824D01*
X46330734Y-83062824D02*
X46302162Y-83177110D01*
X46302162Y-83177110D02*
X46302162Y-83262824D01*
X46302162Y-83262824D02*
X46330734Y-83377110D01*
X46330734Y-83377110D02*
X46359305Y-83434253D01*
X46359305Y-83434253D02*
X46416448Y-83491396D01*
X46416448Y-83491396D02*
X46502162Y-83519967D01*
X46502162Y-83519967D02*
X46645019Y-83519967D01*
X47559305Y-49948538D02*
X47616448Y-49919967D01*
X47616448Y-49919967D02*
X47702162Y-49919967D01*
X47702162Y-49919967D02*
X47787876Y-49948538D01*
X47787876Y-49948538D02*
X47845019Y-50005681D01*
X47845019Y-50005681D02*
X47873590Y-50062824D01*
X47873590Y-50062824D02*
X47902162Y-50177110D01*
X47902162Y-50177110D02*
X47902162Y-50262824D01*
X47902162Y-50262824D02*
X47873590Y-50377110D01*
X47873590Y-50377110D02*
X47845019Y-50434253D01*
X47845019Y-50434253D02*
X47787876Y-50491396D01*
X47787876Y-50491396D02*
X47702162Y-50519967D01*
X47702162Y-50519967D02*
X47645019Y-50519967D01*
X47645019Y-50519967D02*
X47559305Y-50491396D01*
X47559305Y-50491396D02*
X47530733Y-50462824D01*
X47530733Y-50462824D02*
X47530733Y-50262824D01*
X47530733Y-50262824D02*
X47645019Y-50262824D01*
X47273590Y-50519967D02*
X47273590Y-49919967D01*
X47273590Y-49919967D02*
X47045019Y-49919967D01*
X47045019Y-49919967D02*
X46987876Y-49948538D01*
X46987876Y-49948538D02*
X46959305Y-49977110D01*
X46959305Y-49977110D02*
X46930733Y-50034253D01*
X46930733Y-50034253D02*
X46930733Y-50119967D01*
X46930733Y-50119967D02*
X46959305Y-50177110D01*
X46959305Y-50177110D02*
X46987876Y-50205681D01*
X46987876Y-50205681D02*
X47045019Y-50234253D01*
X47045019Y-50234253D02*
X47273590Y-50234253D01*
X46730733Y-49919967D02*
X46359305Y-49919967D01*
X46359305Y-49919967D02*
X46559305Y-50148538D01*
X46559305Y-50148538D02*
X46473590Y-50148538D01*
X46473590Y-50148538D02*
X46416448Y-50177110D01*
X46416448Y-50177110D02*
X46387876Y-50205681D01*
X46387876Y-50205681D02*
X46359305Y-50262824D01*
X46359305Y-50262824D02*
X46359305Y-50405681D01*
X46359305Y-50405681D02*
X46387876Y-50462824D01*
X46387876Y-50462824D02*
X46416448Y-50491396D01*
X46416448Y-50491396D02*
X46473590Y-50519967D01*
X46473590Y-50519967D02*
X46645019Y-50519967D01*
X46645019Y-50519967D02*
X46702162Y-50491396D01*
X46702162Y-50491396D02*
X46730733Y-50462824D01*
X73959305Y-60148538D02*
X74016448Y-60119967D01*
X74016448Y-60119967D02*
X74102162Y-60119967D01*
X74102162Y-60119967D02*
X74187876Y-60148538D01*
X74187876Y-60148538D02*
X74245019Y-60205681D01*
X74245019Y-60205681D02*
X74273590Y-60262824D01*
X74273590Y-60262824D02*
X74302162Y-60377110D01*
X74302162Y-60377110D02*
X74302162Y-60462824D01*
X74302162Y-60462824D02*
X74273590Y-60577110D01*
X74273590Y-60577110D02*
X74245019Y-60634253D01*
X74245019Y-60634253D02*
X74187876Y-60691396D01*
X74187876Y-60691396D02*
X74102162Y-60719967D01*
X74102162Y-60719967D02*
X74045019Y-60719967D01*
X74045019Y-60719967D02*
X73959305Y-60691396D01*
X73959305Y-60691396D02*
X73930733Y-60662824D01*
X73930733Y-60662824D02*
X73930733Y-60462824D01*
X73930733Y-60462824D02*
X74045019Y-60462824D01*
X73673590Y-60719967D02*
X73673590Y-60119967D01*
X73673590Y-60119967D02*
X73445019Y-60119967D01*
X73445019Y-60119967D02*
X73387876Y-60148538D01*
X73387876Y-60148538D02*
X73359305Y-60177110D01*
X73359305Y-60177110D02*
X73330733Y-60234253D01*
X73330733Y-60234253D02*
X73330733Y-60319967D01*
X73330733Y-60319967D02*
X73359305Y-60377110D01*
X73359305Y-60377110D02*
X73387876Y-60405681D01*
X73387876Y-60405681D02*
X73445019Y-60434253D01*
X73445019Y-60434253D02*
X73673590Y-60434253D01*
X73102162Y-60177110D02*
X73073590Y-60148538D01*
X73073590Y-60148538D02*
X73016448Y-60119967D01*
X73016448Y-60119967D02*
X72873590Y-60119967D01*
X72873590Y-60119967D02*
X72816448Y-60148538D01*
X72816448Y-60148538D02*
X72787876Y-60177110D01*
X72787876Y-60177110D02*
X72759305Y-60234253D01*
X72759305Y-60234253D02*
X72759305Y-60291396D01*
X72759305Y-60291396D02*
X72787876Y-60377110D01*
X72787876Y-60377110D02*
X73130733Y-60719967D01*
X73130733Y-60719967D02*
X72759305Y-60719967D01*
X72559304Y-60119967D02*
X72159304Y-60119967D01*
X72159304Y-60119967D02*
X72416447Y-60719967D01*
X72073590Y-60777110D02*
X71616447Y-60777110D01*
X71502161Y-60548538D02*
X71216447Y-60548538D01*
X71559304Y-60719967D02*
X71359304Y-60119967D01*
X71359304Y-60119967D02*
X71159304Y-60719967D01*
X70645018Y-60719967D02*
X70987875Y-60719967D01*
X70816446Y-60719967D02*
X70816446Y-60119967D01*
X70816446Y-60119967D02*
X70873589Y-60205681D01*
X70873589Y-60205681D02*
X70930732Y-60262824D01*
X70930732Y-60262824D02*
X70987875Y-60291396D01*
X72859305Y-70348538D02*
X72916448Y-70319967D01*
X72916448Y-70319967D02*
X73002162Y-70319967D01*
X73002162Y-70319967D02*
X73087876Y-70348538D01*
X73087876Y-70348538D02*
X73145019Y-70405681D01*
X73145019Y-70405681D02*
X73173590Y-70462824D01*
X73173590Y-70462824D02*
X73202162Y-70577110D01*
X73202162Y-70577110D02*
X73202162Y-70662824D01*
X73202162Y-70662824D02*
X73173590Y-70777110D01*
X73173590Y-70777110D02*
X73145019Y-70834253D01*
X73145019Y-70834253D02*
X73087876Y-70891396D01*
X73087876Y-70891396D02*
X73002162Y-70919967D01*
X73002162Y-70919967D02*
X72945019Y-70919967D01*
X72945019Y-70919967D02*
X72859305Y-70891396D01*
X72859305Y-70891396D02*
X72830733Y-70862824D01*
X72830733Y-70862824D02*
X72830733Y-70662824D01*
X72830733Y-70662824D02*
X72945019Y-70662824D01*
X72573590Y-70919967D02*
X72573590Y-70319967D01*
X72573590Y-70319967D02*
X72230733Y-70919967D01*
X72230733Y-70919967D02*
X72230733Y-70319967D01*
X71945019Y-70919967D02*
X71945019Y-70319967D01*
X71945019Y-70319967D02*
X71802162Y-70319967D01*
X71802162Y-70319967D02*
X71716448Y-70348538D01*
X71716448Y-70348538D02*
X71659305Y-70405681D01*
X71659305Y-70405681D02*
X71630734Y-70462824D01*
X71630734Y-70462824D02*
X71602162Y-70577110D01*
X71602162Y-70577110D02*
X71602162Y-70662824D01*
X71602162Y-70662824D02*
X71630734Y-70777110D01*
X71630734Y-70777110D02*
X71659305Y-70834253D01*
X71659305Y-70834253D02*
X71716448Y-70891396D01*
X71716448Y-70891396D02*
X71802162Y-70919967D01*
X71802162Y-70919967D02*
X71945019Y-70919967D01*
X47559305Y-44948538D02*
X47616448Y-44919967D01*
X47616448Y-44919967D02*
X47702162Y-44919967D01*
X47702162Y-44919967D02*
X47787876Y-44948538D01*
X47787876Y-44948538D02*
X47845019Y-45005681D01*
X47845019Y-45005681D02*
X47873590Y-45062824D01*
X47873590Y-45062824D02*
X47902162Y-45177110D01*
X47902162Y-45177110D02*
X47902162Y-45262824D01*
X47902162Y-45262824D02*
X47873590Y-45377110D01*
X47873590Y-45377110D02*
X47845019Y-45434253D01*
X47845019Y-45434253D02*
X47787876Y-45491396D01*
X47787876Y-45491396D02*
X47702162Y-45519967D01*
X47702162Y-45519967D02*
X47645019Y-45519967D01*
X47645019Y-45519967D02*
X47559305Y-45491396D01*
X47559305Y-45491396D02*
X47530733Y-45462824D01*
X47530733Y-45462824D02*
X47530733Y-45262824D01*
X47530733Y-45262824D02*
X47645019Y-45262824D01*
X47273590Y-45519967D02*
X47273590Y-44919967D01*
X47273590Y-44919967D02*
X46930733Y-45519967D01*
X46930733Y-45519967D02*
X46930733Y-44919967D01*
X46645019Y-45519967D02*
X46645019Y-44919967D01*
X46645019Y-44919967D02*
X46502162Y-44919967D01*
X46502162Y-44919967D02*
X46416448Y-44948538D01*
X46416448Y-44948538D02*
X46359305Y-45005681D01*
X46359305Y-45005681D02*
X46330734Y-45062824D01*
X46330734Y-45062824D02*
X46302162Y-45177110D01*
X46302162Y-45177110D02*
X46302162Y-45262824D01*
X46302162Y-45262824D02*
X46330734Y-45377110D01*
X46330734Y-45377110D02*
X46359305Y-45434253D01*
X46359305Y-45434253D02*
X46416448Y-45491396D01*
X46416448Y-45491396D02*
X46502162Y-45519967D01*
X46502162Y-45519967D02*
X46645019Y-45519967D01*
X72859305Y-44848538D02*
X72916448Y-44819967D01*
X72916448Y-44819967D02*
X73002162Y-44819967D01*
X73002162Y-44819967D02*
X73087876Y-44848538D01*
X73087876Y-44848538D02*
X73145019Y-44905681D01*
X73145019Y-44905681D02*
X73173590Y-44962824D01*
X73173590Y-44962824D02*
X73202162Y-45077110D01*
X73202162Y-45077110D02*
X73202162Y-45162824D01*
X73202162Y-45162824D02*
X73173590Y-45277110D01*
X73173590Y-45277110D02*
X73145019Y-45334253D01*
X73145019Y-45334253D02*
X73087876Y-45391396D01*
X73087876Y-45391396D02*
X73002162Y-45419967D01*
X73002162Y-45419967D02*
X72945019Y-45419967D01*
X72945019Y-45419967D02*
X72859305Y-45391396D01*
X72859305Y-45391396D02*
X72830733Y-45362824D01*
X72830733Y-45362824D02*
X72830733Y-45162824D01*
X72830733Y-45162824D02*
X72945019Y-45162824D01*
X72573590Y-45419967D02*
X72573590Y-44819967D01*
X72573590Y-44819967D02*
X72230733Y-45419967D01*
X72230733Y-45419967D02*
X72230733Y-44819967D01*
X71945019Y-45419967D02*
X71945019Y-44819967D01*
X71945019Y-44819967D02*
X71802162Y-44819967D01*
X71802162Y-44819967D02*
X71716448Y-44848538D01*
X71716448Y-44848538D02*
X71659305Y-44905681D01*
X71659305Y-44905681D02*
X71630734Y-44962824D01*
X71630734Y-44962824D02*
X71602162Y-45077110D01*
X71602162Y-45077110D02*
X71602162Y-45162824D01*
X71602162Y-45162824D02*
X71630734Y-45277110D01*
X71630734Y-45277110D02*
X71659305Y-45334253D01*
X71659305Y-45334253D02*
X71716448Y-45391396D01*
X71716448Y-45391396D02*
X71802162Y-45419967D01*
X71802162Y-45419967D02*
X71945019Y-45419967D01*
X47559305Y-70348538D02*
X47616448Y-70319967D01*
X47616448Y-70319967D02*
X47702162Y-70319967D01*
X47702162Y-70319967D02*
X47787876Y-70348538D01*
X47787876Y-70348538D02*
X47845019Y-70405681D01*
X47845019Y-70405681D02*
X47873590Y-70462824D01*
X47873590Y-70462824D02*
X47902162Y-70577110D01*
X47902162Y-70577110D02*
X47902162Y-70662824D01*
X47902162Y-70662824D02*
X47873590Y-70777110D01*
X47873590Y-70777110D02*
X47845019Y-70834253D01*
X47845019Y-70834253D02*
X47787876Y-70891396D01*
X47787876Y-70891396D02*
X47702162Y-70919967D01*
X47702162Y-70919967D02*
X47645019Y-70919967D01*
X47645019Y-70919967D02*
X47559305Y-70891396D01*
X47559305Y-70891396D02*
X47530733Y-70862824D01*
X47530733Y-70862824D02*
X47530733Y-70662824D01*
X47530733Y-70662824D02*
X47645019Y-70662824D01*
X47273590Y-70919967D02*
X47273590Y-70319967D01*
X47273590Y-70319967D02*
X46930733Y-70919967D01*
X46930733Y-70919967D02*
X46930733Y-70319967D01*
X46645019Y-70919967D02*
X46645019Y-70319967D01*
X46645019Y-70319967D02*
X46502162Y-70319967D01*
X46502162Y-70319967D02*
X46416448Y-70348538D01*
X46416448Y-70348538D02*
X46359305Y-70405681D01*
X46359305Y-70405681D02*
X46330734Y-70462824D01*
X46330734Y-70462824D02*
X46302162Y-70577110D01*
X46302162Y-70577110D02*
X46302162Y-70662824D01*
X46302162Y-70662824D02*
X46330734Y-70777110D01*
X46330734Y-70777110D02*
X46359305Y-70834253D01*
X46359305Y-70834253D02*
X46416448Y-70891396D01*
X46416448Y-70891396D02*
X46502162Y-70919967D01*
X46502162Y-70919967D02*
X46645019Y-70919967D01*
X73163163Y-67748538D02*
X73220306Y-67719967D01*
X73220306Y-67719967D02*
X73306020Y-67719967D01*
X73306020Y-67719967D02*
X73391734Y-67748538D01*
X73391734Y-67748538D02*
X73448877Y-67805681D01*
X73448877Y-67805681D02*
X73477448Y-67862824D01*
X73477448Y-67862824D02*
X73506020Y-67977110D01*
X73506020Y-67977110D02*
X73506020Y-68062824D01*
X73506020Y-68062824D02*
X73477448Y-68177110D01*
X73477448Y-68177110D02*
X73448877Y-68234253D01*
X73448877Y-68234253D02*
X73391734Y-68291396D01*
X73391734Y-68291396D02*
X73306020Y-68319967D01*
X73306020Y-68319967D02*
X73248877Y-68319967D01*
X73248877Y-68319967D02*
X73163163Y-68291396D01*
X73163163Y-68291396D02*
X73134591Y-68262824D01*
X73134591Y-68262824D02*
X73134591Y-68062824D01*
X73134591Y-68062824D02*
X73248877Y-68062824D01*
X72877448Y-68319967D02*
X72877448Y-67719967D01*
X72877448Y-67719967D02*
X72648877Y-67719967D01*
X72648877Y-67719967D02*
X72591734Y-67748538D01*
X72591734Y-67748538D02*
X72563163Y-67777110D01*
X72563163Y-67777110D02*
X72534591Y-67834253D01*
X72534591Y-67834253D02*
X72534591Y-67919967D01*
X72534591Y-67919967D02*
X72563163Y-67977110D01*
X72563163Y-67977110D02*
X72591734Y-68005681D01*
X72591734Y-68005681D02*
X72648877Y-68034253D01*
X72648877Y-68034253D02*
X72877448Y-68034253D01*
X72306020Y-67777110D02*
X72277448Y-67748538D01*
X72277448Y-67748538D02*
X72220306Y-67719967D01*
X72220306Y-67719967D02*
X72077448Y-67719967D01*
X72077448Y-67719967D02*
X72020306Y-67748538D01*
X72020306Y-67748538D02*
X71991734Y-67777110D01*
X71991734Y-67777110D02*
X71963163Y-67834253D01*
X71963163Y-67834253D02*
X71963163Y-67891396D01*
X71963163Y-67891396D02*
X71991734Y-67977110D01*
X71991734Y-67977110D02*
X72334591Y-68319967D01*
X72334591Y-68319967D02*
X71963163Y-68319967D01*
X71734591Y-67777110D02*
X71706019Y-67748538D01*
X71706019Y-67748538D02*
X71648877Y-67719967D01*
X71648877Y-67719967D02*
X71506019Y-67719967D01*
X71506019Y-67719967D02*
X71448877Y-67748538D01*
X71448877Y-67748538D02*
X71420305Y-67777110D01*
X71420305Y-67777110D02*
X71391734Y-67834253D01*
X71391734Y-67834253D02*
X71391734Y-67891396D01*
X71391734Y-67891396D02*
X71420305Y-67977110D01*
X71420305Y-67977110D02*
X71763162Y-68319967D01*
X71763162Y-68319967D02*
X71391734Y-68319967D01*
X73163163Y-75348538D02*
X73220306Y-75319967D01*
X73220306Y-75319967D02*
X73306020Y-75319967D01*
X73306020Y-75319967D02*
X73391734Y-75348538D01*
X73391734Y-75348538D02*
X73448877Y-75405681D01*
X73448877Y-75405681D02*
X73477448Y-75462824D01*
X73477448Y-75462824D02*
X73506020Y-75577110D01*
X73506020Y-75577110D02*
X73506020Y-75662824D01*
X73506020Y-75662824D02*
X73477448Y-75777110D01*
X73477448Y-75777110D02*
X73448877Y-75834253D01*
X73448877Y-75834253D02*
X73391734Y-75891396D01*
X73391734Y-75891396D02*
X73306020Y-75919967D01*
X73306020Y-75919967D02*
X73248877Y-75919967D01*
X73248877Y-75919967D02*
X73163163Y-75891396D01*
X73163163Y-75891396D02*
X73134591Y-75862824D01*
X73134591Y-75862824D02*
X73134591Y-75662824D01*
X73134591Y-75662824D02*
X73248877Y-75662824D01*
X72877448Y-75919967D02*
X72877448Y-75319967D01*
X72877448Y-75319967D02*
X72648877Y-75319967D01*
X72648877Y-75319967D02*
X72591734Y-75348538D01*
X72591734Y-75348538D02*
X72563163Y-75377110D01*
X72563163Y-75377110D02*
X72534591Y-75434253D01*
X72534591Y-75434253D02*
X72534591Y-75519967D01*
X72534591Y-75519967D02*
X72563163Y-75577110D01*
X72563163Y-75577110D02*
X72591734Y-75605681D01*
X72591734Y-75605681D02*
X72648877Y-75634253D01*
X72648877Y-75634253D02*
X72877448Y-75634253D01*
X72306020Y-75377110D02*
X72277448Y-75348538D01*
X72277448Y-75348538D02*
X72220306Y-75319967D01*
X72220306Y-75319967D02*
X72077448Y-75319967D01*
X72077448Y-75319967D02*
X72020306Y-75348538D01*
X72020306Y-75348538D02*
X71991734Y-75377110D01*
X71991734Y-75377110D02*
X71963163Y-75434253D01*
X71963163Y-75434253D02*
X71963163Y-75491396D01*
X71963163Y-75491396D02*
X71991734Y-75577110D01*
X71991734Y-75577110D02*
X72334591Y-75919967D01*
X72334591Y-75919967D02*
X71963163Y-75919967D01*
X71591734Y-75319967D02*
X71534591Y-75319967D01*
X71534591Y-75319967D02*
X71477448Y-75348538D01*
X71477448Y-75348538D02*
X71448877Y-75377110D01*
X71448877Y-75377110D02*
X71420305Y-75434253D01*
X71420305Y-75434253D02*
X71391734Y-75548538D01*
X71391734Y-75548538D02*
X71391734Y-75691396D01*
X71391734Y-75691396D02*
X71420305Y-75805681D01*
X71420305Y-75805681D02*
X71448877Y-75862824D01*
X71448877Y-75862824D02*
X71477448Y-75891396D01*
X71477448Y-75891396D02*
X71534591Y-75919967D01*
X71534591Y-75919967D02*
X71591734Y-75919967D01*
X71591734Y-75919967D02*
X71648877Y-75891396D01*
X71648877Y-75891396D02*
X71677448Y-75862824D01*
X71677448Y-75862824D02*
X71706019Y-75805681D01*
X71706019Y-75805681D02*
X71734591Y-75691396D01*
X71734591Y-75691396D02*
X71734591Y-75548538D01*
X71734591Y-75548538D02*
X71706019Y-75434253D01*
X71706019Y-75434253D02*
X71677448Y-75377110D01*
X71677448Y-75377110D02*
X71648877Y-75348538D01*
X71648877Y-75348538D02*
X71591734Y-75319967D01*
X47559305Y-47448538D02*
X47616448Y-47419967D01*
X47616448Y-47419967D02*
X47702162Y-47419967D01*
X47702162Y-47419967D02*
X47787876Y-47448538D01*
X47787876Y-47448538D02*
X47845019Y-47505681D01*
X47845019Y-47505681D02*
X47873590Y-47562824D01*
X47873590Y-47562824D02*
X47902162Y-47677110D01*
X47902162Y-47677110D02*
X47902162Y-47762824D01*
X47902162Y-47762824D02*
X47873590Y-47877110D01*
X47873590Y-47877110D02*
X47845019Y-47934253D01*
X47845019Y-47934253D02*
X47787876Y-47991396D01*
X47787876Y-47991396D02*
X47702162Y-48019967D01*
X47702162Y-48019967D02*
X47645019Y-48019967D01*
X47645019Y-48019967D02*
X47559305Y-47991396D01*
X47559305Y-47991396D02*
X47530733Y-47962824D01*
X47530733Y-47962824D02*
X47530733Y-47762824D01*
X47530733Y-47762824D02*
X47645019Y-47762824D01*
X47273590Y-48019967D02*
X47273590Y-47419967D01*
X47273590Y-47419967D02*
X47045019Y-47419967D01*
X47045019Y-47419967D02*
X46987876Y-47448538D01*
X46987876Y-47448538D02*
X46959305Y-47477110D01*
X46959305Y-47477110D02*
X46930733Y-47534253D01*
X46930733Y-47534253D02*
X46930733Y-47619967D01*
X46930733Y-47619967D02*
X46959305Y-47677110D01*
X46959305Y-47677110D02*
X46987876Y-47705681D01*
X46987876Y-47705681D02*
X47045019Y-47734253D01*
X47045019Y-47734253D02*
X47273590Y-47734253D01*
X46702162Y-47477110D02*
X46673590Y-47448538D01*
X46673590Y-47448538D02*
X46616448Y-47419967D01*
X46616448Y-47419967D02*
X46473590Y-47419967D01*
X46473590Y-47419967D02*
X46416448Y-47448538D01*
X46416448Y-47448538D02*
X46387876Y-47477110D01*
X46387876Y-47477110D02*
X46359305Y-47534253D01*
X46359305Y-47534253D02*
X46359305Y-47591396D01*
X46359305Y-47591396D02*
X46387876Y-47677110D01*
X46387876Y-47677110D02*
X46730733Y-48019967D01*
X46730733Y-48019967D02*
X46359305Y-48019967D01*
X74502162Y-52948538D02*
X74216448Y-52948538D01*
X74559305Y-53119967D02*
X74359305Y-52519967D01*
X74359305Y-52519967D02*
X74159305Y-53119967D01*
X73959304Y-53119967D02*
X73959304Y-52519967D01*
X73959304Y-52519967D02*
X73816447Y-52519967D01*
X73816447Y-52519967D02*
X73730733Y-52548538D01*
X73730733Y-52548538D02*
X73673590Y-52605681D01*
X73673590Y-52605681D02*
X73645019Y-52662824D01*
X73645019Y-52662824D02*
X73616447Y-52777110D01*
X73616447Y-52777110D02*
X73616447Y-52862824D01*
X73616447Y-52862824D02*
X73645019Y-52977110D01*
X73645019Y-52977110D02*
X73673590Y-53034253D01*
X73673590Y-53034253D02*
X73730733Y-53091396D01*
X73730733Y-53091396D02*
X73816447Y-53119967D01*
X73816447Y-53119967D02*
X73959304Y-53119967D01*
X73016447Y-53062824D02*
X73045019Y-53091396D01*
X73045019Y-53091396D02*
X73130733Y-53119967D01*
X73130733Y-53119967D02*
X73187876Y-53119967D01*
X73187876Y-53119967D02*
X73273590Y-53091396D01*
X73273590Y-53091396D02*
X73330733Y-53034253D01*
X73330733Y-53034253D02*
X73359304Y-52977110D01*
X73359304Y-52977110D02*
X73387876Y-52862824D01*
X73387876Y-52862824D02*
X73387876Y-52777110D01*
X73387876Y-52777110D02*
X73359304Y-52662824D01*
X73359304Y-52662824D02*
X73330733Y-52605681D01*
X73330733Y-52605681D02*
X73273590Y-52548538D01*
X73273590Y-52548538D02*
X73187876Y-52519967D01*
X73187876Y-52519967D02*
X73130733Y-52519967D01*
X73130733Y-52519967D02*
X73045019Y-52548538D01*
X73045019Y-52548538D02*
X73016447Y-52577110D01*
X72902162Y-53177110D02*
X72445019Y-53177110D01*
X72387876Y-52519967D02*
X72187876Y-53119967D01*
X72187876Y-53119967D02*
X71987876Y-52519967D01*
X71445018Y-53119967D02*
X71645018Y-52834253D01*
X71787875Y-53119967D02*
X71787875Y-52519967D01*
X71787875Y-52519967D02*
X71559304Y-52519967D01*
X71559304Y-52519967D02*
X71502161Y-52548538D01*
X71502161Y-52548538D02*
X71473590Y-52577110D01*
X71473590Y-52577110D02*
X71445018Y-52634253D01*
X71445018Y-52634253D02*
X71445018Y-52719967D01*
X71445018Y-52719967D02*
X71473590Y-52777110D01*
X71473590Y-52777110D02*
X71502161Y-52805681D01*
X71502161Y-52805681D02*
X71559304Y-52834253D01*
X71559304Y-52834253D02*
X71787875Y-52834253D01*
X71187875Y-52805681D02*
X70987875Y-52805681D01*
X70902161Y-53119967D02*
X71187875Y-53119967D01*
X71187875Y-53119967D02*
X71187875Y-52519967D01*
X71187875Y-52519967D02*
X70902161Y-52519967D01*
X70445018Y-52805681D02*
X70645018Y-52805681D01*
X70645018Y-53119967D02*
X70645018Y-52519967D01*
X70645018Y-52519967D02*
X70359304Y-52519967D01*
X73163163Y-72848538D02*
X73220306Y-72819967D01*
X73220306Y-72819967D02*
X73306020Y-72819967D01*
X73306020Y-72819967D02*
X73391734Y-72848538D01*
X73391734Y-72848538D02*
X73448877Y-72905681D01*
X73448877Y-72905681D02*
X73477448Y-72962824D01*
X73477448Y-72962824D02*
X73506020Y-73077110D01*
X73506020Y-73077110D02*
X73506020Y-73162824D01*
X73506020Y-73162824D02*
X73477448Y-73277110D01*
X73477448Y-73277110D02*
X73448877Y-73334253D01*
X73448877Y-73334253D02*
X73391734Y-73391396D01*
X73391734Y-73391396D02*
X73306020Y-73419967D01*
X73306020Y-73419967D02*
X73248877Y-73419967D01*
X73248877Y-73419967D02*
X73163163Y-73391396D01*
X73163163Y-73391396D02*
X73134591Y-73362824D01*
X73134591Y-73362824D02*
X73134591Y-73162824D01*
X73134591Y-73162824D02*
X73248877Y-73162824D01*
X72877448Y-73419967D02*
X72877448Y-72819967D01*
X72877448Y-72819967D02*
X72648877Y-72819967D01*
X72648877Y-72819967D02*
X72591734Y-72848538D01*
X72591734Y-72848538D02*
X72563163Y-72877110D01*
X72563163Y-72877110D02*
X72534591Y-72934253D01*
X72534591Y-72934253D02*
X72534591Y-73019967D01*
X72534591Y-73019967D02*
X72563163Y-73077110D01*
X72563163Y-73077110D02*
X72591734Y-73105681D01*
X72591734Y-73105681D02*
X72648877Y-73134253D01*
X72648877Y-73134253D02*
X72877448Y-73134253D01*
X72306020Y-72877110D02*
X72277448Y-72848538D01*
X72277448Y-72848538D02*
X72220306Y-72819967D01*
X72220306Y-72819967D02*
X72077448Y-72819967D01*
X72077448Y-72819967D02*
X72020306Y-72848538D01*
X72020306Y-72848538D02*
X71991734Y-72877110D01*
X71991734Y-72877110D02*
X71963163Y-72934253D01*
X71963163Y-72934253D02*
X71963163Y-72991396D01*
X71963163Y-72991396D02*
X71991734Y-73077110D01*
X71991734Y-73077110D02*
X72334591Y-73419967D01*
X72334591Y-73419967D02*
X71963163Y-73419967D01*
X71391734Y-73419967D02*
X71734591Y-73419967D01*
X71563162Y-73419967D02*
X71563162Y-72819967D01*
X71563162Y-72819967D02*
X71620305Y-72905681D01*
X71620305Y-72905681D02*
X71677448Y-72962824D01*
X71677448Y-72962824D02*
X71734591Y-72991396D01*
X47859305Y-72848538D02*
X47916448Y-72819967D01*
X47916448Y-72819967D02*
X48002162Y-72819967D01*
X48002162Y-72819967D02*
X48087876Y-72848538D01*
X48087876Y-72848538D02*
X48145019Y-72905681D01*
X48145019Y-72905681D02*
X48173590Y-72962824D01*
X48173590Y-72962824D02*
X48202162Y-73077110D01*
X48202162Y-73077110D02*
X48202162Y-73162824D01*
X48202162Y-73162824D02*
X48173590Y-73277110D01*
X48173590Y-73277110D02*
X48145019Y-73334253D01*
X48145019Y-73334253D02*
X48087876Y-73391396D01*
X48087876Y-73391396D02*
X48002162Y-73419967D01*
X48002162Y-73419967D02*
X47945019Y-73419967D01*
X47945019Y-73419967D02*
X47859305Y-73391396D01*
X47859305Y-73391396D02*
X47830733Y-73362824D01*
X47830733Y-73362824D02*
X47830733Y-73162824D01*
X47830733Y-73162824D02*
X47945019Y-73162824D01*
X47573590Y-73419967D02*
X47573590Y-72819967D01*
X47573590Y-72819967D02*
X47345019Y-72819967D01*
X47345019Y-72819967D02*
X47287876Y-72848538D01*
X47287876Y-72848538D02*
X47259305Y-72877110D01*
X47259305Y-72877110D02*
X47230733Y-72934253D01*
X47230733Y-72934253D02*
X47230733Y-73019967D01*
X47230733Y-73019967D02*
X47259305Y-73077110D01*
X47259305Y-73077110D02*
X47287876Y-73105681D01*
X47287876Y-73105681D02*
X47345019Y-73134253D01*
X47345019Y-73134253D02*
X47573590Y-73134253D01*
X46659305Y-73419967D02*
X47002162Y-73419967D01*
X46830733Y-73419967D02*
X46830733Y-72819967D01*
X46830733Y-72819967D02*
X46887876Y-72905681D01*
X46887876Y-72905681D02*
X46945019Y-72962824D01*
X46945019Y-72962824D02*
X47002162Y-72991396D01*
X46287876Y-72819967D02*
X46230733Y-72819967D01*
X46230733Y-72819967D02*
X46173590Y-72848538D01*
X46173590Y-72848538D02*
X46145019Y-72877110D01*
X46145019Y-72877110D02*
X46116447Y-72934253D01*
X46116447Y-72934253D02*
X46087876Y-73048538D01*
X46087876Y-73048538D02*
X46087876Y-73191396D01*
X46087876Y-73191396D02*
X46116447Y-73305681D01*
X46116447Y-73305681D02*
X46145019Y-73362824D01*
X46145019Y-73362824D02*
X46173590Y-73391396D01*
X46173590Y-73391396D02*
X46230733Y-73419967D01*
X46230733Y-73419967D02*
X46287876Y-73419967D01*
X46287876Y-73419967D02*
X46345019Y-73391396D01*
X46345019Y-73391396D02*
X46373590Y-73362824D01*
X46373590Y-73362824D02*
X46402161Y-73305681D01*
X46402161Y-73305681D02*
X46430733Y-73191396D01*
X46430733Y-73191396D02*
X46430733Y-73048538D01*
X46430733Y-73048538D02*
X46402161Y-72934253D01*
X46402161Y-72934253D02*
X46373590Y-72877110D01*
X46373590Y-72877110D02*
X46345019Y-72848538D01*
X46345019Y-72848538D02*
X46287876Y-72819967D01*
X73163163Y-85548538D02*
X73220306Y-85519967D01*
X73220306Y-85519967D02*
X73306020Y-85519967D01*
X73306020Y-85519967D02*
X73391734Y-85548538D01*
X73391734Y-85548538D02*
X73448877Y-85605681D01*
X73448877Y-85605681D02*
X73477448Y-85662824D01*
X73477448Y-85662824D02*
X73506020Y-85777110D01*
X73506020Y-85777110D02*
X73506020Y-85862824D01*
X73506020Y-85862824D02*
X73477448Y-85977110D01*
X73477448Y-85977110D02*
X73448877Y-86034253D01*
X73448877Y-86034253D02*
X73391734Y-86091396D01*
X73391734Y-86091396D02*
X73306020Y-86119967D01*
X73306020Y-86119967D02*
X73248877Y-86119967D01*
X73248877Y-86119967D02*
X73163163Y-86091396D01*
X73163163Y-86091396D02*
X73134591Y-86062824D01*
X73134591Y-86062824D02*
X73134591Y-85862824D01*
X73134591Y-85862824D02*
X73248877Y-85862824D01*
X72877448Y-86119967D02*
X72877448Y-85519967D01*
X72877448Y-85519967D02*
X72648877Y-85519967D01*
X72648877Y-85519967D02*
X72591734Y-85548538D01*
X72591734Y-85548538D02*
X72563163Y-85577110D01*
X72563163Y-85577110D02*
X72534591Y-85634253D01*
X72534591Y-85634253D02*
X72534591Y-85719967D01*
X72534591Y-85719967D02*
X72563163Y-85777110D01*
X72563163Y-85777110D02*
X72591734Y-85805681D01*
X72591734Y-85805681D02*
X72648877Y-85834253D01*
X72648877Y-85834253D02*
X72877448Y-85834253D01*
X71963163Y-86119967D02*
X72306020Y-86119967D01*
X72134591Y-86119967D02*
X72134591Y-85519967D01*
X72134591Y-85519967D02*
X72191734Y-85605681D01*
X72191734Y-85605681D02*
X72248877Y-85662824D01*
X72248877Y-85662824D02*
X72306020Y-85691396D01*
X71763162Y-85519967D02*
X71363162Y-85519967D01*
X71363162Y-85519967D02*
X71620305Y-86119967D01*
X47859305Y-88048538D02*
X47916448Y-88019967D01*
X47916448Y-88019967D02*
X48002162Y-88019967D01*
X48002162Y-88019967D02*
X48087876Y-88048538D01*
X48087876Y-88048538D02*
X48145019Y-88105681D01*
X48145019Y-88105681D02*
X48173590Y-88162824D01*
X48173590Y-88162824D02*
X48202162Y-88277110D01*
X48202162Y-88277110D02*
X48202162Y-88362824D01*
X48202162Y-88362824D02*
X48173590Y-88477110D01*
X48173590Y-88477110D02*
X48145019Y-88534253D01*
X48145019Y-88534253D02*
X48087876Y-88591396D01*
X48087876Y-88591396D02*
X48002162Y-88619967D01*
X48002162Y-88619967D02*
X47945019Y-88619967D01*
X47945019Y-88619967D02*
X47859305Y-88591396D01*
X47859305Y-88591396D02*
X47830733Y-88562824D01*
X47830733Y-88562824D02*
X47830733Y-88362824D01*
X47830733Y-88362824D02*
X47945019Y-88362824D01*
X47573590Y-88619967D02*
X47573590Y-88019967D01*
X47573590Y-88019967D02*
X47345019Y-88019967D01*
X47345019Y-88019967D02*
X47287876Y-88048538D01*
X47287876Y-88048538D02*
X47259305Y-88077110D01*
X47259305Y-88077110D02*
X47230733Y-88134253D01*
X47230733Y-88134253D02*
X47230733Y-88219967D01*
X47230733Y-88219967D02*
X47259305Y-88277110D01*
X47259305Y-88277110D02*
X47287876Y-88305681D01*
X47287876Y-88305681D02*
X47345019Y-88334253D01*
X47345019Y-88334253D02*
X47573590Y-88334253D01*
X46659305Y-88619967D02*
X47002162Y-88619967D01*
X46830733Y-88619967D02*
X46830733Y-88019967D01*
X46830733Y-88019967D02*
X46887876Y-88105681D01*
X46887876Y-88105681D02*
X46945019Y-88162824D01*
X46945019Y-88162824D02*
X47002162Y-88191396D01*
X46116447Y-88019967D02*
X46402161Y-88019967D01*
X46402161Y-88019967D02*
X46430733Y-88305681D01*
X46430733Y-88305681D02*
X46402161Y-88277110D01*
X46402161Y-88277110D02*
X46345019Y-88248538D01*
X46345019Y-88248538D02*
X46202161Y-88248538D01*
X46202161Y-88248538D02*
X46145019Y-88277110D01*
X46145019Y-88277110D02*
X46116447Y-88305681D01*
X46116447Y-88305681D02*
X46087876Y-88362824D01*
X46087876Y-88362824D02*
X46087876Y-88505681D01*
X46087876Y-88505681D02*
X46116447Y-88562824D01*
X46116447Y-88562824D02*
X46145019Y-88591396D01*
X46145019Y-88591396D02*
X46202161Y-88619967D01*
X46202161Y-88619967D02*
X46345019Y-88619967D01*
X46345019Y-88619967D02*
X46402161Y-88591396D01*
X46402161Y-88591396D02*
X46430733Y-88562824D01*
X73163163Y-77948538D02*
X73220306Y-77919967D01*
X73220306Y-77919967D02*
X73306020Y-77919967D01*
X73306020Y-77919967D02*
X73391734Y-77948538D01*
X73391734Y-77948538D02*
X73448877Y-78005681D01*
X73448877Y-78005681D02*
X73477448Y-78062824D01*
X73477448Y-78062824D02*
X73506020Y-78177110D01*
X73506020Y-78177110D02*
X73506020Y-78262824D01*
X73506020Y-78262824D02*
X73477448Y-78377110D01*
X73477448Y-78377110D02*
X73448877Y-78434253D01*
X73448877Y-78434253D02*
X73391734Y-78491396D01*
X73391734Y-78491396D02*
X73306020Y-78519967D01*
X73306020Y-78519967D02*
X73248877Y-78519967D01*
X73248877Y-78519967D02*
X73163163Y-78491396D01*
X73163163Y-78491396D02*
X73134591Y-78462824D01*
X73134591Y-78462824D02*
X73134591Y-78262824D01*
X73134591Y-78262824D02*
X73248877Y-78262824D01*
X72877448Y-78519967D02*
X72877448Y-77919967D01*
X72877448Y-77919967D02*
X72648877Y-77919967D01*
X72648877Y-77919967D02*
X72591734Y-77948538D01*
X72591734Y-77948538D02*
X72563163Y-77977110D01*
X72563163Y-77977110D02*
X72534591Y-78034253D01*
X72534591Y-78034253D02*
X72534591Y-78119967D01*
X72534591Y-78119967D02*
X72563163Y-78177110D01*
X72563163Y-78177110D02*
X72591734Y-78205681D01*
X72591734Y-78205681D02*
X72648877Y-78234253D01*
X72648877Y-78234253D02*
X72877448Y-78234253D01*
X71963163Y-78519967D02*
X72306020Y-78519967D01*
X72134591Y-78519967D02*
X72134591Y-77919967D01*
X72134591Y-77919967D02*
X72191734Y-78005681D01*
X72191734Y-78005681D02*
X72248877Y-78062824D01*
X72248877Y-78062824D02*
X72306020Y-78091396D01*
X71677448Y-78519967D02*
X71563162Y-78519967D01*
X71563162Y-78519967D02*
X71506019Y-78491396D01*
X71506019Y-78491396D02*
X71477448Y-78462824D01*
X71477448Y-78462824D02*
X71420305Y-78377110D01*
X71420305Y-78377110D02*
X71391734Y-78262824D01*
X71391734Y-78262824D02*
X71391734Y-78034253D01*
X71391734Y-78034253D02*
X71420305Y-77977110D01*
X71420305Y-77977110D02*
X71448877Y-77948538D01*
X71448877Y-77948538D02*
X71506019Y-77919967D01*
X71506019Y-77919967D02*
X71620305Y-77919967D01*
X71620305Y-77919967D02*
X71677448Y-77948538D01*
X71677448Y-77948538D02*
X71706019Y-77977110D01*
X71706019Y-77977110D02*
X71734591Y-78034253D01*
X71734591Y-78034253D02*
X71734591Y-78177110D01*
X71734591Y-78177110D02*
X71706019Y-78234253D01*
X71706019Y-78234253D02*
X71677448Y-78262824D01*
X71677448Y-78262824D02*
X71620305Y-78291396D01*
X71620305Y-78291396D02*
X71506019Y-78291396D01*
X71506019Y-78291396D02*
X71448877Y-78262824D01*
X71448877Y-78262824D02*
X71420305Y-78234253D01*
X71420305Y-78234253D02*
X71391734Y-78177110D01*
X47859305Y-85548538D02*
X47916448Y-85519967D01*
X47916448Y-85519967D02*
X48002162Y-85519967D01*
X48002162Y-85519967D02*
X48087876Y-85548538D01*
X48087876Y-85548538D02*
X48145019Y-85605681D01*
X48145019Y-85605681D02*
X48173590Y-85662824D01*
X48173590Y-85662824D02*
X48202162Y-85777110D01*
X48202162Y-85777110D02*
X48202162Y-85862824D01*
X48202162Y-85862824D02*
X48173590Y-85977110D01*
X48173590Y-85977110D02*
X48145019Y-86034253D01*
X48145019Y-86034253D02*
X48087876Y-86091396D01*
X48087876Y-86091396D02*
X48002162Y-86119967D01*
X48002162Y-86119967D02*
X47945019Y-86119967D01*
X47945019Y-86119967D02*
X47859305Y-86091396D01*
X47859305Y-86091396D02*
X47830733Y-86062824D01*
X47830733Y-86062824D02*
X47830733Y-85862824D01*
X47830733Y-85862824D02*
X47945019Y-85862824D01*
X47573590Y-86119967D02*
X47573590Y-85519967D01*
X47573590Y-85519967D02*
X47345019Y-85519967D01*
X47345019Y-85519967D02*
X47287876Y-85548538D01*
X47287876Y-85548538D02*
X47259305Y-85577110D01*
X47259305Y-85577110D02*
X47230733Y-85634253D01*
X47230733Y-85634253D02*
X47230733Y-85719967D01*
X47230733Y-85719967D02*
X47259305Y-85777110D01*
X47259305Y-85777110D02*
X47287876Y-85805681D01*
X47287876Y-85805681D02*
X47345019Y-85834253D01*
X47345019Y-85834253D02*
X47573590Y-85834253D01*
X46659305Y-86119967D02*
X47002162Y-86119967D01*
X46830733Y-86119967D02*
X46830733Y-85519967D01*
X46830733Y-85519967D02*
X46887876Y-85605681D01*
X46887876Y-85605681D02*
X46945019Y-85662824D01*
X46945019Y-85662824D02*
X47002162Y-85691396D01*
X46145019Y-85719967D02*
X46145019Y-86119967D01*
X46287876Y-85491396D02*
X46430733Y-85919967D01*
X46430733Y-85919967D02*
X46059304Y-85919967D01*
X73359305Y-42319967D02*
X73159305Y-42919967D01*
X73159305Y-42919967D02*
X72959305Y-42319967D01*
X72787876Y-42891396D02*
X72702162Y-42919967D01*
X72702162Y-42919967D02*
X72559304Y-42919967D01*
X72559304Y-42919967D02*
X72502162Y-42891396D01*
X72502162Y-42891396D02*
X72473590Y-42862824D01*
X72473590Y-42862824D02*
X72445019Y-42805681D01*
X72445019Y-42805681D02*
X72445019Y-42748538D01*
X72445019Y-42748538D02*
X72473590Y-42691396D01*
X72473590Y-42691396D02*
X72502162Y-42662824D01*
X72502162Y-42662824D02*
X72559304Y-42634253D01*
X72559304Y-42634253D02*
X72673590Y-42605681D01*
X72673590Y-42605681D02*
X72730733Y-42577110D01*
X72730733Y-42577110D02*
X72759304Y-42548538D01*
X72759304Y-42548538D02*
X72787876Y-42491396D01*
X72787876Y-42491396D02*
X72787876Y-42434253D01*
X72787876Y-42434253D02*
X72759304Y-42377110D01*
X72759304Y-42377110D02*
X72730733Y-42348538D01*
X72730733Y-42348538D02*
X72673590Y-42319967D01*
X72673590Y-42319967D02*
X72530733Y-42319967D01*
X72530733Y-42319967D02*
X72445019Y-42348538D01*
X72073590Y-42634253D02*
X72073590Y-42919967D01*
X72273590Y-42319967D02*
X72073590Y-42634253D01*
X72073590Y-42634253D02*
X71873590Y-42319967D01*
X71702161Y-42891396D02*
X71616447Y-42919967D01*
X71616447Y-42919967D02*
X71473589Y-42919967D01*
X71473589Y-42919967D02*
X71416447Y-42891396D01*
X71416447Y-42891396D02*
X71387875Y-42862824D01*
X71387875Y-42862824D02*
X71359304Y-42805681D01*
X71359304Y-42805681D02*
X71359304Y-42748538D01*
X71359304Y-42748538D02*
X71387875Y-42691396D01*
X71387875Y-42691396D02*
X71416447Y-42662824D01*
X71416447Y-42662824D02*
X71473589Y-42634253D01*
X71473589Y-42634253D02*
X71587875Y-42605681D01*
X71587875Y-42605681D02*
X71645018Y-42577110D01*
X71645018Y-42577110D02*
X71673589Y-42548538D01*
X71673589Y-42548538D02*
X71702161Y-42491396D01*
X71702161Y-42491396D02*
X71702161Y-42434253D01*
X71702161Y-42434253D02*
X71673589Y-42377110D01*
X71673589Y-42377110D02*
X71645018Y-42348538D01*
X71645018Y-42348538D02*
X71587875Y-42319967D01*
X71587875Y-42319967D02*
X71445018Y-42319967D01*
X71445018Y-42319967D02*
X71359304Y-42348538D01*
X47559305Y-52548538D02*
X47616448Y-52519967D01*
X47616448Y-52519967D02*
X47702162Y-52519967D01*
X47702162Y-52519967D02*
X47787876Y-52548538D01*
X47787876Y-52548538D02*
X47845019Y-52605681D01*
X47845019Y-52605681D02*
X47873590Y-52662824D01*
X47873590Y-52662824D02*
X47902162Y-52777110D01*
X47902162Y-52777110D02*
X47902162Y-52862824D01*
X47902162Y-52862824D02*
X47873590Y-52977110D01*
X47873590Y-52977110D02*
X47845019Y-53034253D01*
X47845019Y-53034253D02*
X47787876Y-53091396D01*
X47787876Y-53091396D02*
X47702162Y-53119967D01*
X47702162Y-53119967D02*
X47645019Y-53119967D01*
X47645019Y-53119967D02*
X47559305Y-53091396D01*
X47559305Y-53091396D02*
X47530733Y-53062824D01*
X47530733Y-53062824D02*
X47530733Y-52862824D01*
X47530733Y-52862824D02*
X47645019Y-52862824D01*
X47273590Y-53119967D02*
X47273590Y-52519967D01*
X47273590Y-52519967D02*
X47045019Y-52519967D01*
X47045019Y-52519967D02*
X46987876Y-52548538D01*
X46987876Y-52548538D02*
X46959305Y-52577110D01*
X46959305Y-52577110D02*
X46930733Y-52634253D01*
X46930733Y-52634253D02*
X46930733Y-52719967D01*
X46930733Y-52719967D02*
X46959305Y-52777110D01*
X46959305Y-52777110D02*
X46987876Y-52805681D01*
X46987876Y-52805681D02*
X47045019Y-52834253D01*
X47045019Y-52834253D02*
X47273590Y-52834253D01*
X46416448Y-52719967D02*
X46416448Y-53119967D01*
X46559305Y-52491396D02*
X46702162Y-52919967D01*
X46702162Y-52919967D02*
X46330733Y-52919967D01*
X73959305Y-62648538D02*
X74016448Y-62619967D01*
X74016448Y-62619967D02*
X74102162Y-62619967D01*
X74102162Y-62619967D02*
X74187876Y-62648538D01*
X74187876Y-62648538D02*
X74245019Y-62705681D01*
X74245019Y-62705681D02*
X74273590Y-62762824D01*
X74273590Y-62762824D02*
X74302162Y-62877110D01*
X74302162Y-62877110D02*
X74302162Y-62962824D01*
X74302162Y-62962824D02*
X74273590Y-63077110D01*
X74273590Y-63077110D02*
X74245019Y-63134253D01*
X74245019Y-63134253D02*
X74187876Y-63191396D01*
X74187876Y-63191396D02*
X74102162Y-63219967D01*
X74102162Y-63219967D02*
X74045019Y-63219967D01*
X74045019Y-63219967D02*
X73959305Y-63191396D01*
X73959305Y-63191396D02*
X73930733Y-63162824D01*
X73930733Y-63162824D02*
X73930733Y-62962824D01*
X73930733Y-62962824D02*
X74045019Y-62962824D01*
X73673590Y-63219967D02*
X73673590Y-62619967D01*
X73673590Y-62619967D02*
X73445019Y-62619967D01*
X73445019Y-62619967D02*
X73387876Y-62648538D01*
X73387876Y-62648538D02*
X73359305Y-62677110D01*
X73359305Y-62677110D02*
X73330733Y-62734253D01*
X73330733Y-62734253D02*
X73330733Y-62819967D01*
X73330733Y-62819967D02*
X73359305Y-62877110D01*
X73359305Y-62877110D02*
X73387876Y-62905681D01*
X73387876Y-62905681D02*
X73445019Y-62934253D01*
X73445019Y-62934253D02*
X73673590Y-62934253D01*
X73102162Y-62677110D02*
X73073590Y-62648538D01*
X73073590Y-62648538D02*
X73016448Y-62619967D01*
X73016448Y-62619967D02*
X72873590Y-62619967D01*
X72873590Y-62619967D02*
X72816448Y-62648538D01*
X72816448Y-62648538D02*
X72787876Y-62677110D01*
X72787876Y-62677110D02*
X72759305Y-62734253D01*
X72759305Y-62734253D02*
X72759305Y-62791396D01*
X72759305Y-62791396D02*
X72787876Y-62877110D01*
X72787876Y-62877110D02*
X73130733Y-63219967D01*
X73130733Y-63219967D02*
X72759305Y-63219967D01*
X72245019Y-62619967D02*
X72359304Y-62619967D01*
X72359304Y-62619967D02*
X72416447Y-62648538D01*
X72416447Y-62648538D02*
X72445019Y-62677110D01*
X72445019Y-62677110D02*
X72502161Y-62762824D01*
X72502161Y-62762824D02*
X72530733Y-62877110D01*
X72530733Y-62877110D02*
X72530733Y-63105681D01*
X72530733Y-63105681D02*
X72502161Y-63162824D01*
X72502161Y-63162824D02*
X72473590Y-63191396D01*
X72473590Y-63191396D02*
X72416447Y-63219967D01*
X72416447Y-63219967D02*
X72302161Y-63219967D01*
X72302161Y-63219967D02*
X72245019Y-63191396D01*
X72245019Y-63191396D02*
X72216447Y-63162824D01*
X72216447Y-63162824D02*
X72187876Y-63105681D01*
X72187876Y-63105681D02*
X72187876Y-62962824D01*
X72187876Y-62962824D02*
X72216447Y-62905681D01*
X72216447Y-62905681D02*
X72245019Y-62877110D01*
X72245019Y-62877110D02*
X72302161Y-62848538D01*
X72302161Y-62848538D02*
X72416447Y-62848538D01*
X72416447Y-62848538D02*
X72473590Y-62877110D01*
X72473590Y-62877110D02*
X72502161Y-62905681D01*
X72502161Y-62905681D02*
X72530733Y-62962824D01*
X72073590Y-63277110D02*
X71616447Y-63277110D01*
X71502161Y-63048538D02*
X71216447Y-63048538D01*
X71559304Y-63219967D02*
X71359304Y-62619967D01*
X71359304Y-62619967D02*
X71159304Y-63219967D01*
X70845018Y-62619967D02*
X70787875Y-62619967D01*
X70787875Y-62619967D02*
X70730732Y-62648538D01*
X70730732Y-62648538D02*
X70702161Y-62677110D01*
X70702161Y-62677110D02*
X70673589Y-62734253D01*
X70673589Y-62734253D02*
X70645018Y-62848538D01*
X70645018Y-62848538D02*
X70645018Y-62991396D01*
X70645018Y-62991396D02*
X70673589Y-63105681D01*
X70673589Y-63105681D02*
X70702161Y-63162824D01*
X70702161Y-63162824D02*
X70730732Y-63191396D01*
X70730732Y-63191396D02*
X70787875Y-63219967D01*
X70787875Y-63219967D02*
X70845018Y-63219967D01*
X70845018Y-63219967D02*
X70902161Y-63191396D01*
X70902161Y-63191396D02*
X70930732Y-63162824D01*
X70930732Y-63162824D02*
X70959303Y-63105681D01*
X70959303Y-63105681D02*
X70987875Y-62991396D01*
X70987875Y-62991396D02*
X70987875Y-62848538D01*
X70987875Y-62848538D02*
X70959303Y-62734253D01*
X70959303Y-62734253D02*
X70930732Y-62677110D01*
X70930732Y-62677110D02*
X70902161Y-62648538D01*
X70902161Y-62648538D02*
X70845018Y-62619967D01*
X73930733Y-47419967D02*
X73559305Y-47419967D01*
X73559305Y-47419967D02*
X73759305Y-47648538D01*
X73759305Y-47648538D02*
X73673590Y-47648538D01*
X73673590Y-47648538D02*
X73616448Y-47677110D01*
X73616448Y-47677110D02*
X73587876Y-47705681D01*
X73587876Y-47705681D02*
X73559305Y-47762824D01*
X73559305Y-47762824D02*
X73559305Y-47905681D01*
X73559305Y-47905681D02*
X73587876Y-47962824D01*
X73587876Y-47962824D02*
X73616448Y-47991396D01*
X73616448Y-47991396D02*
X73673590Y-48019967D01*
X73673590Y-48019967D02*
X73845019Y-48019967D01*
X73845019Y-48019967D02*
X73902162Y-47991396D01*
X73902162Y-47991396D02*
X73930733Y-47962824D01*
X73387876Y-47419967D02*
X73187876Y-48019967D01*
X73187876Y-48019967D02*
X72987876Y-47419967D01*
X72845018Y-47419967D02*
X72473590Y-47419967D01*
X72473590Y-47419967D02*
X72673590Y-47648538D01*
X72673590Y-47648538D02*
X72587875Y-47648538D01*
X72587875Y-47648538D02*
X72530733Y-47677110D01*
X72530733Y-47677110D02*
X72502161Y-47705681D01*
X72502161Y-47705681D02*
X72473590Y-47762824D01*
X72473590Y-47762824D02*
X72473590Y-47905681D01*
X72473590Y-47905681D02*
X72502161Y-47962824D01*
X72502161Y-47962824D02*
X72530733Y-47991396D01*
X72530733Y-47991396D02*
X72587875Y-48019967D01*
X72587875Y-48019967D02*
X72759304Y-48019967D01*
X72759304Y-48019967D02*
X72816447Y-47991396D01*
X72816447Y-47991396D02*
X72845018Y-47962824D01*
X72359304Y-48077110D02*
X71902161Y-48077110D01*
X71759303Y-47705681D02*
X71559303Y-47705681D01*
X71473589Y-48019967D02*
X71759303Y-48019967D01*
X71759303Y-48019967D02*
X71759303Y-47419967D01*
X71759303Y-47419967D02*
X71473589Y-47419967D01*
X71216446Y-48019967D02*
X71216446Y-47419967D01*
X71216446Y-47419967D02*
X70873589Y-48019967D01*
X70873589Y-48019967D02*
X70873589Y-47419967D01*
X62022834Y-92702162D02*
X61994262Y-92616448D01*
X61994262Y-92616448D02*
X61994262Y-92473590D01*
X61994262Y-92473590D02*
X62022834Y-92416448D01*
X62022834Y-92416448D02*
X62051405Y-92387876D01*
X62051405Y-92387876D02*
X62108548Y-92359305D01*
X62108548Y-92359305D02*
X62165691Y-92359305D01*
X62165691Y-92359305D02*
X62222834Y-92387876D01*
X62222834Y-92387876D02*
X62251405Y-92416448D01*
X62251405Y-92416448D02*
X62279976Y-92473590D01*
X62279976Y-92473590D02*
X62308548Y-92587876D01*
X62308548Y-92587876D02*
X62337119Y-92645019D01*
X62337119Y-92645019D02*
X62365691Y-92673590D01*
X62365691Y-92673590D02*
X62422834Y-92702162D01*
X62422834Y-92702162D02*
X62479976Y-92702162D01*
X62479976Y-92702162D02*
X62537119Y-92673590D01*
X62537119Y-92673590D02*
X62565691Y-92645019D01*
X62565691Y-92645019D02*
X62594262Y-92587876D01*
X62594262Y-92587876D02*
X62594262Y-92445019D01*
X62594262Y-92445019D02*
X62565691Y-92359305D01*
X62594262Y-92159304D02*
X61994262Y-92016447D01*
X61994262Y-92016447D02*
X62422834Y-91902161D01*
X62422834Y-91902161D02*
X61994262Y-91787876D01*
X61994262Y-91787876D02*
X62594262Y-91645019D01*
X61994262Y-91416447D02*
X62594262Y-91416447D01*
X62594262Y-91416447D02*
X62594262Y-91273590D01*
X62594262Y-91273590D02*
X62565691Y-91187876D01*
X62565691Y-91187876D02*
X62508548Y-91130733D01*
X62508548Y-91130733D02*
X62451405Y-91102162D01*
X62451405Y-91102162D02*
X62337119Y-91073590D01*
X62337119Y-91073590D02*
X62251405Y-91073590D01*
X62251405Y-91073590D02*
X62137119Y-91102162D01*
X62137119Y-91102162D02*
X62079976Y-91130733D01*
X62079976Y-91130733D02*
X62022834Y-91187876D01*
X62022834Y-91187876D02*
X61994262Y-91273590D01*
X61994262Y-91273590D02*
X61994262Y-91416447D01*
X61994262Y-90816447D02*
X62594262Y-90816447D01*
X62594262Y-90416448D02*
X62594262Y-90302162D01*
X62594262Y-90302162D02*
X62565691Y-90245019D01*
X62565691Y-90245019D02*
X62508548Y-90187876D01*
X62508548Y-90187876D02*
X62394262Y-90159305D01*
X62394262Y-90159305D02*
X62194262Y-90159305D01*
X62194262Y-90159305D02*
X62079976Y-90187876D01*
X62079976Y-90187876D02*
X62022834Y-90245019D01*
X62022834Y-90245019D02*
X61994262Y-90302162D01*
X61994262Y-90302162D02*
X61994262Y-90416448D01*
X61994262Y-90416448D02*
X62022834Y-90473591D01*
X62022834Y-90473591D02*
X62079976Y-90530733D01*
X62079976Y-90530733D02*
X62194262Y-90559305D01*
X62194262Y-90559305D02*
X62394262Y-90559305D01*
X62394262Y-90559305D02*
X62508548Y-90530733D01*
X62508548Y-90530733D02*
X62565691Y-90473591D01*
X62565691Y-90473591D02*
X62594262Y-90416448D01*
X73959305Y-55048538D02*
X74016448Y-55019967D01*
X74016448Y-55019967D02*
X74102162Y-55019967D01*
X74102162Y-55019967D02*
X74187876Y-55048538D01*
X74187876Y-55048538D02*
X74245019Y-55105681D01*
X74245019Y-55105681D02*
X74273590Y-55162824D01*
X74273590Y-55162824D02*
X74302162Y-55277110D01*
X74302162Y-55277110D02*
X74302162Y-55362824D01*
X74302162Y-55362824D02*
X74273590Y-55477110D01*
X74273590Y-55477110D02*
X74245019Y-55534253D01*
X74245019Y-55534253D02*
X74187876Y-55591396D01*
X74187876Y-55591396D02*
X74102162Y-55619967D01*
X74102162Y-55619967D02*
X74045019Y-55619967D01*
X74045019Y-55619967D02*
X73959305Y-55591396D01*
X73959305Y-55591396D02*
X73930733Y-55562824D01*
X73930733Y-55562824D02*
X73930733Y-55362824D01*
X73930733Y-55362824D02*
X74045019Y-55362824D01*
X73673590Y-55619967D02*
X73673590Y-55019967D01*
X73673590Y-55019967D02*
X73445019Y-55019967D01*
X73445019Y-55019967D02*
X73387876Y-55048538D01*
X73387876Y-55048538D02*
X73359305Y-55077110D01*
X73359305Y-55077110D02*
X73330733Y-55134253D01*
X73330733Y-55134253D02*
X73330733Y-55219967D01*
X73330733Y-55219967D02*
X73359305Y-55277110D01*
X73359305Y-55277110D02*
X73387876Y-55305681D01*
X73387876Y-55305681D02*
X73445019Y-55334253D01*
X73445019Y-55334253D02*
X73673590Y-55334253D01*
X73102162Y-55077110D02*
X73073590Y-55048538D01*
X73073590Y-55048538D02*
X73016448Y-55019967D01*
X73016448Y-55019967D02*
X72873590Y-55019967D01*
X72873590Y-55019967D02*
X72816448Y-55048538D01*
X72816448Y-55048538D02*
X72787876Y-55077110D01*
X72787876Y-55077110D02*
X72759305Y-55134253D01*
X72759305Y-55134253D02*
X72759305Y-55191396D01*
X72759305Y-55191396D02*
X72787876Y-55277110D01*
X72787876Y-55277110D02*
X73130733Y-55619967D01*
X73130733Y-55619967D02*
X72759305Y-55619967D01*
X72416447Y-55277110D02*
X72473590Y-55248538D01*
X72473590Y-55248538D02*
X72502161Y-55219967D01*
X72502161Y-55219967D02*
X72530733Y-55162824D01*
X72530733Y-55162824D02*
X72530733Y-55134253D01*
X72530733Y-55134253D02*
X72502161Y-55077110D01*
X72502161Y-55077110D02*
X72473590Y-55048538D01*
X72473590Y-55048538D02*
X72416447Y-55019967D01*
X72416447Y-55019967D02*
X72302161Y-55019967D01*
X72302161Y-55019967D02*
X72245019Y-55048538D01*
X72245019Y-55048538D02*
X72216447Y-55077110D01*
X72216447Y-55077110D02*
X72187876Y-55134253D01*
X72187876Y-55134253D02*
X72187876Y-55162824D01*
X72187876Y-55162824D02*
X72216447Y-55219967D01*
X72216447Y-55219967D02*
X72245019Y-55248538D01*
X72245019Y-55248538D02*
X72302161Y-55277110D01*
X72302161Y-55277110D02*
X72416447Y-55277110D01*
X72416447Y-55277110D02*
X72473590Y-55305681D01*
X72473590Y-55305681D02*
X72502161Y-55334253D01*
X72502161Y-55334253D02*
X72530733Y-55391396D01*
X72530733Y-55391396D02*
X72530733Y-55505681D01*
X72530733Y-55505681D02*
X72502161Y-55562824D01*
X72502161Y-55562824D02*
X72473590Y-55591396D01*
X72473590Y-55591396D02*
X72416447Y-55619967D01*
X72416447Y-55619967D02*
X72302161Y-55619967D01*
X72302161Y-55619967D02*
X72245019Y-55591396D01*
X72245019Y-55591396D02*
X72216447Y-55562824D01*
X72216447Y-55562824D02*
X72187876Y-55505681D01*
X72187876Y-55505681D02*
X72187876Y-55391396D01*
X72187876Y-55391396D02*
X72216447Y-55334253D01*
X72216447Y-55334253D02*
X72245019Y-55305681D01*
X72245019Y-55305681D02*
X72302161Y-55277110D01*
X72073590Y-55677110D02*
X71616447Y-55677110D01*
X71502161Y-55448538D02*
X71216447Y-55448538D01*
X71559304Y-55619967D02*
X71359304Y-55019967D01*
X71359304Y-55019967D02*
X71159304Y-55619967D01*
X70987875Y-55077110D02*
X70959303Y-55048538D01*
X70959303Y-55048538D02*
X70902161Y-55019967D01*
X70902161Y-55019967D02*
X70759303Y-55019967D01*
X70759303Y-55019967D02*
X70702161Y-55048538D01*
X70702161Y-55048538D02*
X70673589Y-55077110D01*
X70673589Y-55077110D02*
X70645018Y-55134253D01*
X70645018Y-55134253D02*
X70645018Y-55191396D01*
X70645018Y-55191396D02*
X70673589Y-55277110D01*
X70673589Y-55277110D02*
X71016446Y-55619967D01*
X71016446Y-55619967D02*
X70645018Y-55619967D01*
X47559305Y-65248538D02*
X47616448Y-65219967D01*
X47616448Y-65219967D02*
X47702162Y-65219967D01*
X47702162Y-65219967D02*
X47787876Y-65248538D01*
X47787876Y-65248538D02*
X47845019Y-65305681D01*
X47845019Y-65305681D02*
X47873590Y-65362824D01*
X47873590Y-65362824D02*
X47902162Y-65477110D01*
X47902162Y-65477110D02*
X47902162Y-65562824D01*
X47902162Y-65562824D02*
X47873590Y-65677110D01*
X47873590Y-65677110D02*
X47845019Y-65734253D01*
X47845019Y-65734253D02*
X47787876Y-65791396D01*
X47787876Y-65791396D02*
X47702162Y-65819967D01*
X47702162Y-65819967D02*
X47645019Y-65819967D01*
X47645019Y-65819967D02*
X47559305Y-65791396D01*
X47559305Y-65791396D02*
X47530733Y-65762824D01*
X47530733Y-65762824D02*
X47530733Y-65562824D01*
X47530733Y-65562824D02*
X47645019Y-65562824D01*
X47273590Y-65819967D02*
X47273590Y-65219967D01*
X47273590Y-65219967D02*
X47045019Y-65219967D01*
X47045019Y-65219967D02*
X46987876Y-65248538D01*
X46987876Y-65248538D02*
X46959305Y-65277110D01*
X46959305Y-65277110D02*
X46930733Y-65334253D01*
X46930733Y-65334253D02*
X46930733Y-65419967D01*
X46930733Y-65419967D02*
X46959305Y-65477110D01*
X46959305Y-65477110D02*
X46987876Y-65505681D01*
X46987876Y-65505681D02*
X47045019Y-65534253D01*
X47045019Y-65534253D02*
X47273590Y-65534253D01*
X46587876Y-65477110D02*
X46645019Y-65448538D01*
X46645019Y-65448538D02*
X46673590Y-65419967D01*
X46673590Y-65419967D02*
X46702162Y-65362824D01*
X46702162Y-65362824D02*
X46702162Y-65334253D01*
X46702162Y-65334253D02*
X46673590Y-65277110D01*
X46673590Y-65277110D02*
X46645019Y-65248538D01*
X46645019Y-65248538D02*
X46587876Y-65219967D01*
X46587876Y-65219967D02*
X46473590Y-65219967D01*
X46473590Y-65219967D02*
X46416448Y-65248538D01*
X46416448Y-65248538D02*
X46387876Y-65277110D01*
X46387876Y-65277110D02*
X46359305Y-65334253D01*
X46359305Y-65334253D02*
X46359305Y-65362824D01*
X46359305Y-65362824D02*
X46387876Y-65419967D01*
X46387876Y-65419967D02*
X46416448Y-65448538D01*
X46416448Y-65448538D02*
X46473590Y-65477110D01*
X46473590Y-65477110D02*
X46587876Y-65477110D01*
X46587876Y-65477110D02*
X46645019Y-65505681D01*
X46645019Y-65505681D02*
X46673590Y-65534253D01*
X46673590Y-65534253D02*
X46702162Y-65591396D01*
X46702162Y-65591396D02*
X46702162Y-65705681D01*
X46702162Y-65705681D02*
X46673590Y-65762824D01*
X46673590Y-65762824D02*
X46645019Y-65791396D01*
X46645019Y-65791396D02*
X46587876Y-65819967D01*
X46587876Y-65819967D02*
X46473590Y-65819967D01*
X46473590Y-65819967D02*
X46416448Y-65791396D01*
X46416448Y-65791396D02*
X46387876Y-65762824D01*
X46387876Y-65762824D02*
X46359305Y-65705681D01*
X46359305Y-65705681D02*
X46359305Y-65591396D01*
X46359305Y-65591396D02*
X46387876Y-65534253D01*
X46387876Y-65534253D02*
X46416448Y-65505681D01*
X46416448Y-65505681D02*
X46473590Y-65477110D01*
X73163163Y-88048538D02*
X73220306Y-88019967D01*
X73220306Y-88019967D02*
X73306020Y-88019967D01*
X73306020Y-88019967D02*
X73391734Y-88048538D01*
X73391734Y-88048538D02*
X73448877Y-88105681D01*
X73448877Y-88105681D02*
X73477448Y-88162824D01*
X73477448Y-88162824D02*
X73506020Y-88277110D01*
X73506020Y-88277110D02*
X73506020Y-88362824D01*
X73506020Y-88362824D02*
X73477448Y-88477110D01*
X73477448Y-88477110D02*
X73448877Y-88534253D01*
X73448877Y-88534253D02*
X73391734Y-88591396D01*
X73391734Y-88591396D02*
X73306020Y-88619967D01*
X73306020Y-88619967D02*
X73248877Y-88619967D01*
X73248877Y-88619967D02*
X73163163Y-88591396D01*
X73163163Y-88591396D02*
X73134591Y-88562824D01*
X73134591Y-88562824D02*
X73134591Y-88362824D01*
X73134591Y-88362824D02*
X73248877Y-88362824D01*
X72877448Y-88619967D02*
X72877448Y-88019967D01*
X72877448Y-88019967D02*
X72648877Y-88019967D01*
X72648877Y-88019967D02*
X72591734Y-88048538D01*
X72591734Y-88048538D02*
X72563163Y-88077110D01*
X72563163Y-88077110D02*
X72534591Y-88134253D01*
X72534591Y-88134253D02*
X72534591Y-88219967D01*
X72534591Y-88219967D02*
X72563163Y-88277110D01*
X72563163Y-88277110D02*
X72591734Y-88305681D01*
X72591734Y-88305681D02*
X72648877Y-88334253D01*
X72648877Y-88334253D02*
X72877448Y-88334253D01*
X71963163Y-88619967D02*
X72306020Y-88619967D01*
X72134591Y-88619967D02*
X72134591Y-88019967D01*
X72134591Y-88019967D02*
X72191734Y-88105681D01*
X72191734Y-88105681D02*
X72248877Y-88162824D01*
X72248877Y-88162824D02*
X72306020Y-88191396D01*
X71448877Y-88019967D02*
X71563162Y-88019967D01*
X71563162Y-88019967D02*
X71620305Y-88048538D01*
X71620305Y-88048538D02*
X71648877Y-88077110D01*
X71648877Y-88077110D02*
X71706019Y-88162824D01*
X71706019Y-88162824D02*
X71734591Y-88277110D01*
X71734591Y-88277110D02*
X71734591Y-88505681D01*
X71734591Y-88505681D02*
X71706019Y-88562824D01*
X71706019Y-88562824D02*
X71677448Y-88591396D01*
X71677448Y-88591396D02*
X71620305Y-88619967D01*
X71620305Y-88619967D02*
X71506019Y-88619967D01*
X71506019Y-88619967D02*
X71448877Y-88591396D01*
X71448877Y-88591396D02*
X71420305Y-88562824D01*
X71420305Y-88562824D02*
X71391734Y-88505681D01*
X71391734Y-88505681D02*
X71391734Y-88362824D01*
X71391734Y-88362824D02*
X71420305Y-88305681D01*
X71420305Y-88305681D02*
X71448877Y-88277110D01*
X71448877Y-88277110D02*
X71506019Y-88248538D01*
X71506019Y-88248538D02*
X71620305Y-88248538D01*
X71620305Y-88248538D02*
X71677448Y-88277110D01*
X71677448Y-88277110D02*
X71706019Y-88305681D01*
X71706019Y-88305681D02*
X71734591Y-88362824D01*
X47859305Y-75348538D02*
X47916448Y-75319967D01*
X47916448Y-75319967D02*
X48002162Y-75319967D01*
X48002162Y-75319967D02*
X48087876Y-75348538D01*
X48087876Y-75348538D02*
X48145019Y-75405681D01*
X48145019Y-75405681D02*
X48173590Y-75462824D01*
X48173590Y-75462824D02*
X48202162Y-75577110D01*
X48202162Y-75577110D02*
X48202162Y-75662824D01*
X48202162Y-75662824D02*
X48173590Y-75777110D01*
X48173590Y-75777110D02*
X48145019Y-75834253D01*
X48145019Y-75834253D02*
X48087876Y-75891396D01*
X48087876Y-75891396D02*
X48002162Y-75919967D01*
X48002162Y-75919967D02*
X47945019Y-75919967D01*
X47945019Y-75919967D02*
X47859305Y-75891396D01*
X47859305Y-75891396D02*
X47830733Y-75862824D01*
X47830733Y-75862824D02*
X47830733Y-75662824D01*
X47830733Y-75662824D02*
X47945019Y-75662824D01*
X47573590Y-75919967D02*
X47573590Y-75319967D01*
X47573590Y-75319967D02*
X47345019Y-75319967D01*
X47345019Y-75319967D02*
X47287876Y-75348538D01*
X47287876Y-75348538D02*
X47259305Y-75377110D01*
X47259305Y-75377110D02*
X47230733Y-75434253D01*
X47230733Y-75434253D02*
X47230733Y-75519967D01*
X47230733Y-75519967D02*
X47259305Y-75577110D01*
X47259305Y-75577110D02*
X47287876Y-75605681D01*
X47287876Y-75605681D02*
X47345019Y-75634253D01*
X47345019Y-75634253D02*
X47573590Y-75634253D01*
X46659305Y-75919967D02*
X47002162Y-75919967D01*
X46830733Y-75919967D02*
X46830733Y-75319967D01*
X46830733Y-75319967D02*
X46887876Y-75405681D01*
X46887876Y-75405681D02*
X46945019Y-75462824D01*
X46945019Y-75462824D02*
X47002162Y-75491396D01*
X46087876Y-75919967D02*
X46430733Y-75919967D01*
X46259304Y-75919967D02*
X46259304Y-75319967D01*
X46259304Y-75319967D02*
X46316447Y-75405681D01*
X46316447Y-75405681D02*
X46373590Y-75462824D01*
X46373590Y-75462824D02*
X46430733Y-75491396D01*
X47559305Y-60148538D02*
X47616448Y-60119967D01*
X47616448Y-60119967D02*
X47702162Y-60119967D01*
X47702162Y-60119967D02*
X47787876Y-60148538D01*
X47787876Y-60148538D02*
X47845019Y-60205681D01*
X47845019Y-60205681D02*
X47873590Y-60262824D01*
X47873590Y-60262824D02*
X47902162Y-60377110D01*
X47902162Y-60377110D02*
X47902162Y-60462824D01*
X47902162Y-60462824D02*
X47873590Y-60577110D01*
X47873590Y-60577110D02*
X47845019Y-60634253D01*
X47845019Y-60634253D02*
X47787876Y-60691396D01*
X47787876Y-60691396D02*
X47702162Y-60719967D01*
X47702162Y-60719967D02*
X47645019Y-60719967D01*
X47645019Y-60719967D02*
X47559305Y-60691396D01*
X47559305Y-60691396D02*
X47530733Y-60662824D01*
X47530733Y-60662824D02*
X47530733Y-60462824D01*
X47530733Y-60462824D02*
X47645019Y-60462824D01*
X47273590Y-60719967D02*
X47273590Y-60119967D01*
X47273590Y-60119967D02*
X47045019Y-60119967D01*
X47045019Y-60119967D02*
X46987876Y-60148538D01*
X46987876Y-60148538D02*
X46959305Y-60177110D01*
X46959305Y-60177110D02*
X46930733Y-60234253D01*
X46930733Y-60234253D02*
X46930733Y-60319967D01*
X46930733Y-60319967D02*
X46959305Y-60377110D01*
X46959305Y-60377110D02*
X46987876Y-60405681D01*
X46987876Y-60405681D02*
X47045019Y-60434253D01*
X47045019Y-60434253D02*
X47273590Y-60434253D01*
X46416448Y-60119967D02*
X46530733Y-60119967D01*
X46530733Y-60119967D02*
X46587876Y-60148538D01*
X46587876Y-60148538D02*
X46616448Y-60177110D01*
X46616448Y-60177110D02*
X46673590Y-60262824D01*
X46673590Y-60262824D02*
X46702162Y-60377110D01*
X46702162Y-60377110D02*
X46702162Y-60605681D01*
X46702162Y-60605681D02*
X46673590Y-60662824D01*
X46673590Y-60662824D02*
X46645019Y-60691396D01*
X46645019Y-60691396D02*
X46587876Y-60719967D01*
X46587876Y-60719967D02*
X46473590Y-60719967D01*
X46473590Y-60719967D02*
X46416448Y-60691396D01*
X46416448Y-60691396D02*
X46387876Y-60662824D01*
X46387876Y-60662824D02*
X46359305Y-60605681D01*
X46359305Y-60605681D02*
X46359305Y-60462824D01*
X46359305Y-60462824D02*
X46387876Y-60405681D01*
X46387876Y-60405681D02*
X46416448Y-60377110D01*
X46416448Y-60377110D02*
X46473590Y-60348538D01*
X46473590Y-60348538D02*
X46587876Y-60348538D01*
X46587876Y-60348538D02*
X46645019Y-60377110D01*
X46645019Y-60377110D02*
X46673590Y-60405681D01*
X46673590Y-60405681D02*
X46702162Y-60462824D01*
X47859305Y-80448538D02*
X47916448Y-80419967D01*
X47916448Y-80419967D02*
X48002162Y-80419967D01*
X48002162Y-80419967D02*
X48087876Y-80448538D01*
X48087876Y-80448538D02*
X48145019Y-80505681D01*
X48145019Y-80505681D02*
X48173590Y-80562824D01*
X48173590Y-80562824D02*
X48202162Y-80677110D01*
X48202162Y-80677110D02*
X48202162Y-80762824D01*
X48202162Y-80762824D02*
X48173590Y-80877110D01*
X48173590Y-80877110D02*
X48145019Y-80934253D01*
X48145019Y-80934253D02*
X48087876Y-80991396D01*
X48087876Y-80991396D02*
X48002162Y-81019967D01*
X48002162Y-81019967D02*
X47945019Y-81019967D01*
X47945019Y-81019967D02*
X47859305Y-80991396D01*
X47859305Y-80991396D02*
X47830733Y-80962824D01*
X47830733Y-80962824D02*
X47830733Y-80762824D01*
X47830733Y-80762824D02*
X47945019Y-80762824D01*
X47573590Y-81019967D02*
X47573590Y-80419967D01*
X47573590Y-80419967D02*
X47345019Y-80419967D01*
X47345019Y-80419967D02*
X47287876Y-80448538D01*
X47287876Y-80448538D02*
X47259305Y-80477110D01*
X47259305Y-80477110D02*
X47230733Y-80534253D01*
X47230733Y-80534253D02*
X47230733Y-80619967D01*
X47230733Y-80619967D02*
X47259305Y-80677110D01*
X47259305Y-80677110D02*
X47287876Y-80705681D01*
X47287876Y-80705681D02*
X47345019Y-80734253D01*
X47345019Y-80734253D02*
X47573590Y-80734253D01*
X46659305Y-81019967D02*
X47002162Y-81019967D01*
X46830733Y-81019967D02*
X46830733Y-80419967D01*
X46830733Y-80419967D02*
X46887876Y-80505681D01*
X46887876Y-80505681D02*
X46945019Y-80562824D01*
X46945019Y-80562824D02*
X47002162Y-80591396D01*
X46459304Y-80419967D02*
X46087876Y-80419967D01*
X46087876Y-80419967D02*
X46287876Y-80648538D01*
X46287876Y-80648538D02*
X46202161Y-80648538D01*
X46202161Y-80648538D02*
X46145019Y-80677110D01*
X46145019Y-80677110D02*
X46116447Y-80705681D01*
X46116447Y-80705681D02*
X46087876Y-80762824D01*
X46087876Y-80762824D02*
X46087876Y-80905681D01*
X46087876Y-80905681D02*
X46116447Y-80962824D01*
X46116447Y-80962824D02*
X46145019Y-80991396D01*
X46145019Y-80991396D02*
X46202161Y-81019967D01*
X46202161Y-81019967D02*
X46373590Y-81019967D01*
X46373590Y-81019967D02*
X46430733Y-80991396D01*
X46430733Y-80991396D02*
X46459304Y-80962824D01*
X73163163Y-82948538D02*
X73220306Y-82919967D01*
X73220306Y-82919967D02*
X73306020Y-82919967D01*
X73306020Y-82919967D02*
X73391734Y-82948538D01*
X73391734Y-82948538D02*
X73448877Y-83005681D01*
X73448877Y-83005681D02*
X73477448Y-83062824D01*
X73477448Y-83062824D02*
X73506020Y-83177110D01*
X73506020Y-83177110D02*
X73506020Y-83262824D01*
X73506020Y-83262824D02*
X73477448Y-83377110D01*
X73477448Y-83377110D02*
X73448877Y-83434253D01*
X73448877Y-83434253D02*
X73391734Y-83491396D01*
X73391734Y-83491396D02*
X73306020Y-83519967D01*
X73306020Y-83519967D02*
X73248877Y-83519967D01*
X73248877Y-83519967D02*
X73163163Y-83491396D01*
X73163163Y-83491396D02*
X73134591Y-83462824D01*
X73134591Y-83462824D02*
X73134591Y-83262824D01*
X73134591Y-83262824D02*
X73248877Y-83262824D01*
X72877448Y-83519967D02*
X72877448Y-82919967D01*
X72877448Y-82919967D02*
X72534591Y-83519967D01*
X72534591Y-83519967D02*
X72534591Y-82919967D01*
X72248877Y-83519967D02*
X72248877Y-82919967D01*
X72248877Y-82919967D02*
X72106020Y-82919967D01*
X72106020Y-82919967D02*
X72020306Y-82948538D01*
X72020306Y-82948538D02*
X71963163Y-83005681D01*
X71963163Y-83005681D02*
X71934592Y-83062824D01*
X71934592Y-83062824D02*
X71906020Y-83177110D01*
X71906020Y-83177110D02*
X71906020Y-83262824D01*
X71906020Y-83262824D02*
X71934592Y-83377110D01*
X71934592Y-83377110D02*
X71963163Y-83434253D01*
X71963163Y-83434253D02*
X72020306Y-83491396D01*
X72020306Y-83491396D02*
X72106020Y-83519967D01*
X72106020Y-83519967D02*
X72248877Y-83519967D01*
X72859305Y-57548538D02*
X72916448Y-57519967D01*
X72916448Y-57519967D02*
X73002162Y-57519967D01*
X73002162Y-57519967D02*
X73087876Y-57548538D01*
X73087876Y-57548538D02*
X73145019Y-57605681D01*
X73145019Y-57605681D02*
X73173590Y-57662824D01*
X73173590Y-57662824D02*
X73202162Y-57777110D01*
X73202162Y-57777110D02*
X73202162Y-57862824D01*
X73202162Y-57862824D02*
X73173590Y-57977110D01*
X73173590Y-57977110D02*
X73145019Y-58034253D01*
X73145019Y-58034253D02*
X73087876Y-58091396D01*
X73087876Y-58091396D02*
X73002162Y-58119967D01*
X73002162Y-58119967D02*
X72945019Y-58119967D01*
X72945019Y-58119967D02*
X72859305Y-58091396D01*
X72859305Y-58091396D02*
X72830733Y-58062824D01*
X72830733Y-58062824D02*
X72830733Y-57862824D01*
X72830733Y-57862824D02*
X72945019Y-57862824D01*
X72573590Y-58119967D02*
X72573590Y-57519967D01*
X72573590Y-57519967D02*
X72230733Y-58119967D01*
X72230733Y-58119967D02*
X72230733Y-57519967D01*
X71945019Y-58119967D02*
X71945019Y-57519967D01*
X71945019Y-57519967D02*
X71802162Y-57519967D01*
X71802162Y-57519967D02*
X71716448Y-57548538D01*
X71716448Y-57548538D02*
X71659305Y-57605681D01*
X71659305Y-57605681D02*
X71630734Y-57662824D01*
X71630734Y-57662824D02*
X71602162Y-57777110D01*
X71602162Y-57777110D02*
X71602162Y-57862824D01*
X71602162Y-57862824D02*
X71630734Y-57977110D01*
X71630734Y-57977110D02*
X71659305Y-58034253D01*
X71659305Y-58034253D02*
X71716448Y-58091396D01*
X71716448Y-58091396D02*
X71802162Y-58119967D01*
X71802162Y-58119967D02*
X71945019Y-58119967D01*
D10*
X65005906Y-77280827D02*
X65005906Y-76780827D01*
X65005906Y-76780827D02*
X64815430Y-76780827D01*
X64815430Y-76780827D02*
X64767811Y-76804637D01*
X64767811Y-76804637D02*
X64744001Y-76828446D01*
X64744001Y-76828446D02*
X64720192Y-76876065D01*
X64720192Y-76876065D02*
X64720192Y-76947494D01*
X64720192Y-76947494D02*
X64744001Y-76995113D01*
X64744001Y-76995113D02*
X64767811Y-77018922D01*
X64767811Y-77018922D02*
X64815430Y-77042732D01*
X64815430Y-77042732D02*
X65005906Y-77042732D01*
X64505906Y-77280827D02*
X64505906Y-76947494D01*
X64505906Y-76780827D02*
X64529715Y-76804637D01*
X64529715Y-76804637D02*
X64505906Y-76828446D01*
X64505906Y-76828446D02*
X64482096Y-76804637D01*
X64482096Y-76804637D02*
X64505906Y-76780827D01*
X64505906Y-76780827D02*
X64505906Y-76828446D01*
X64053525Y-77257018D02*
X64101144Y-77280827D01*
X64101144Y-77280827D02*
X64196382Y-77280827D01*
X64196382Y-77280827D02*
X64244001Y-77257018D01*
X64244001Y-77257018D02*
X64267811Y-77233208D01*
X64267811Y-77233208D02*
X64291620Y-77185589D01*
X64291620Y-77185589D02*
X64291620Y-77042732D01*
X64291620Y-77042732D02*
X64267811Y-76995113D01*
X64267811Y-76995113D02*
X64244001Y-76971303D01*
X64244001Y-76971303D02*
X64196382Y-76947494D01*
X64196382Y-76947494D02*
X64101144Y-76947494D01*
X64101144Y-76947494D02*
X64053525Y-76971303D01*
X63767811Y-77280827D02*
X63815430Y-77257018D01*
X63815430Y-77257018D02*
X63839240Y-77233208D01*
X63839240Y-77233208D02*
X63863049Y-77185589D01*
X63863049Y-77185589D02*
X63863049Y-77042732D01*
X63863049Y-77042732D02*
X63839240Y-76995113D01*
X63839240Y-76995113D02*
X63815430Y-76971303D01*
X63815430Y-76971303D02*
X63767811Y-76947494D01*
X63767811Y-76947494D02*
X63696383Y-76947494D01*
X63696383Y-76947494D02*
X63648764Y-76971303D01*
X63648764Y-76971303D02*
X63624954Y-76995113D01*
X63624954Y-76995113D02*
X63601145Y-77042732D01*
X63601145Y-77042732D02*
X63601145Y-77185589D01*
X63601145Y-77185589D02*
X63624954Y-77233208D01*
X63624954Y-77233208D02*
X63648764Y-77257018D01*
X63648764Y-77257018D02*
X63696383Y-77280827D01*
X63696383Y-77280827D02*
X63767811Y-77280827D01*
X62839240Y-77018922D02*
X62767812Y-77042732D01*
X62767812Y-77042732D02*
X62744002Y-77066541D01*
X62744002Y-77066541D02*
X62720193Y-77114160D01*
X62720193Y-77114160D02*
X62720193Y-77185589D01*
X62720193Y-77185589D02*
X62744002Y-77233208D01*
X62744002Y-77233208D02*
X62767812Y-77257018D01*
X62767812Y-77257018D02*
X62815431Y-77280827D01*
X62815431Y-77280827D02*
X63005907Y-77280827D01*
X63005907Y-77280827D02*
X63005907Y-76780827D01*
X63005907Y-76780827D02*
X62839240Y-76780827D01*
X62839240Y-76780827D02*
X62791621Y-76804637D01*
X62791621Y-76804637D02*
X62767812Y-76828446D01*
X62767812Y-76828446D02*
X62744002Y-76876065D01*
X62744002Y-76876065D02*
X62744002Y-76923684D01*
X62744002Y-76923684D02*
X62767812Y-76971303D01*
X62767812Y-76971303D02*
X62791621Y-76995113D01*
X62791621Y-76995113D02*
X62839240Y-77018922D01*
X62839240Y-77018922D02*
X63005907Y-77018922D01*
X62505907Y-77280827D02*
X62505907Y-76947494D01*
X62505907Y-77042732D02*
X62482097Y-76995113D01*
X62482097Y-76995113D02*
X62458288Y-76971303D01*
X62458288Y-76971303D02*
X62410669Y-76947494D01*
X62410669Y-76947494D02*
X62363050Y-76947494D01*
X62005907Y-77257018D02*
X62053526Y-77280827D01*
X62053526Y-77280827D02*
X62148764Y-77280827D01*
X62148764Y-77280827D02*
X62196383Y-77257018D01*
X62196383Y-77257018D02*
X62220192Y-77209398D01*
X62220192Y-77209398D02*
X62220192Y-77018922D01*
X62220192Y-77018922D02*
X62196383Y-76971303D01*
X62196383Y-76971303D02*
X62148764Y-76947494D01*
X62148764Y-76947494D02*
X62053526Y-76947494D01*
X62053526Y-76947494D02*
X62005907Y-76971303D01*
X62005907Y-76971303D02*
X61982097Y-77018922D01*
X61982097Y-77018922D02*
X61982097Y-77066541D01*
X61982097Y-77066541D02*
X62220192Y-77114160D01*
X61553526Y-77280827D02*
X61553526Y-77018922D01*
X61553526Y-77018922D02*
X61577336Y-76971303D01*
X61577336Y-76971303D02*
X61624955Y-76947494D01*
X61624955Y-76947494D02*
X61720193Y-76947494D01*
X61720193Y-76947494D02*
X61767812Y-76971303D01*
X61553526Y-77257018D02*
X61601145Y-77280827D01*
X61601145Y-77280827D02*
X61720193Y-77280827D01*
X61720193Y-77280827D02*
X61767812Y-77257018D01*
X61767812Y-77257018D02*
X61791621Y-77209398D01*
X61791621Y-77209398D02*
X61791621Y-77161779D01*
X61791621Y-77161779D02*
X61767812Y-77114160D01*
X61767812Y-77114160D02*
X61720193Y-77090351D01*
X61720193Y-77090351D02*
X61601145Y-77090351D01*
X61601145Y-77090351D02*
X61553526Y-77066541D01*
X61315431Y-77280827D02*
X61315431Y-76780827D01*
X61267812Y-77090351D02*
X61124955Y-77280827D01*
X61124955Y-76947494D02*
X61315431Y-77137970D01*
X60839240Y-77280827D02*
X60886859Y-77257018D01*
X60886859Y-77257018D02*
X60910669Y-77233208D01*
X60910669Y-77233208D02*
X60934478Y-77185589D01*
X60934478Y-77185589D02*
X60934478Y-77042732D01*
X60934478Y-77042732D02*
X60910669Y-76995113D01*
X60910669Y-76995113D02*
X60886859Y-76971303D01*
X60886859Y-76971303D02*
X60839240Y-76947494D01*
X60839240Y-76947494D02*
X60767812Y-76947494D01*
X60767812Y-76947494D02*
X60720193Y-76971303D01*
X60720193Y-76971303D02*
X60696383Y-76995113D01*
X60696383Y-76995113D02*
X60672574Y-77042732D01*
X60672574Y-77042732D02*
X60672574Y-77185589D01*
X60672574Y-77185589D02*
X60696383Y-77233208D01*
X60696383Y-77233208D02*
X60720193Y-77257018D01*
X60720193Y-77257018D02*
X60767812Y-77280827D01*
X60767812Y-77280827D02*
X60839240Y-77280827D01*
X60244002Y-76947494D02*
X60244002Y-77280827D01*
X60458288Y-76947494D02*
X60458288Y-77209398D01*
X60458288Y-77209398D02*
X60434478Y-77257018D01*
X60434478Y-77257018D02*
X60386859Y-77280827D01*
X60386859Y-77280827D02*
X60315431Y-77280827D01*
X60315431Y-77280827D02*
X60267812Y-77257018D01*
X60267812Y-77257018D02*
X60244002Y-77233208D01*
X60077335Y-76947494D02*
X59886859Y-76947494D01*
X60005907Y-76780827D02*
X60005907Y-77209398D01*
X60005907Y-77209398D02*
X59982097Y-77257018D01*
X59982097Y-77257018D02*
X59934478Y-77280827D01*
X59934478Y-77280827D02*
X59886859Y-77280827D01*
X59053527Y-77280827D02*
X59220193Y-77042732D01*
X59339241Y-77280827D02*
X59339241Y-76780827D01*
X59339241Y-76780827D02*
X59148765Y-76780827D01*
X59148765Y-76780827D02*
X59101146Y-76804637D01*
X59101146Y-76804637D02*
X59077336Y-76828446D01*
X59077336Y-76828446D02*
X59053527Y-76876065D01*
X59053527Y-76876065D02*
X59053527Y-76947494D01*
X59053527Y-76947494D02*
X59077336Y-76995113D01*
X59077336Y-76995113D02*
X59101146Y-77018922D01*
X59101146Y-77018922D02*
X59148765Y-77042732D01*
X59148765Y-77042732D02*
X59339241Y-77042732D01*
X58648765Y-77257018D02*
X58696384Y-77280827D01*
X58696384Y-77280827D02*
X58791622Y-77280827D01*
X58791622Y-77280827D02*
X58839241Y-77257018D01*
X58839241Y-77257018D02*
X58863050Y-77209398D01*
X58863050Y-77209398D02*
X58863050Y-77018922D01*
X58863050Y-77018922D02*
X58839241Y-76971303D01*
X58839241Y-76971303D02*
X58791622Y-76947494D01*
X58791622Y-76947494D02*
X58696384Y-76947494D01*
X58696384Y-76947494D02*
X58648765Y-76971303D01*
X58648765Y-76971303D02*
X58624955Y-77018922D01*
X58624955Y-77018922D02*
X58624955Y-77066541D01*
X58624955Y-77066541D02*
X58863050Y-77114160D01*
X58458289Y-76947494D02*
X58339241Y-77280827D01*
X58339241Y-77280827D02*
X58220194Y-76947494D01*
X58029718Y-77233208D02*
X58005908Y-77257018D01*
X58005908Y-77257018D02*
X58029718Y-77280827D01*
X58029718Y-77280827D02*
X58053527Y-77257018D01*
X58053527Y-77257018D02*
X58029718Y-77233208D01*
X58029718Y-77233208D02*
X58029718Y-77280827D01*
X57148766Y-77280827D02*
X57434480Y-77280827D01*
X57291623Y-77280827D02*
X57291623Y-76780827D01*
X57291623Y-76780827D02*
X57339242Y-76852256D01*
X57339242Y-76852256D02*
X57386861Y-76899875D01*
X57386861Y-76899875D02*
X57434480Y-76923684D01*
D12*
X47559305Y-39748538D02*
X47616448Y-39719967D01*
X47616448Y-39719967D02*
X47702162Y-39719967D01*
X47702162Y-39719967D02*
X47787876Y-39748538D01*
X47787876Y-39748538D02*
X47845019Y-39805681D01*
X47845019Y-39805681D02*
X47873590Y-39862824D01*
X47873590Y-39862824D02*
X47902162Y-39977110D01*
X47902162Y-39977110D02*
X47902162Y-40062824D01*
X47902162Y-40062824D02*
X47873590Y-40177110D01*
X47873590Y-40177110D02*
X47845019Y-40234253D01*
X47845019Y-40234253D02*
X47787876Y-40291396D01*
X47787876Y-40291396D02*
X47702162Y-40319967D01*
X47702162Y-40319967D02*
X47645019Y-40319967D01*
X47645019Y-40319967D02*
X47559305Y-40291396D01*
X47559305Y-40291396D02*
X47530733Y-40262824D01*
X47530733Y-40262824D02*
X47530733Y-40062824D01*
X47530733Y-40062824D02*
X47645019Y-40062824D01*
X47273590Y-40319967D02*
X47273590Y-39719967D01*
X47273590Y-39719967D02*
X47045019Y-39719967D01*
X47045019Y-39719967D02*
X46987876Y-39748538D01*
X46987876Y-39748538D02*
X46959305Y-39777110D01*
X46959305Y-39777110D02*
X46930733Y-39834253D01*
X46930733Y-39834253D02*
X46930733Y-39919967D01*
X46930733Y-39919967D02*
X46959305Y-39977110D01*
X46959305Y-39977110D02*
X46987876Y-40005681D01*
X46987876Y-40005681D02*
X47045019Y-40034253D01*
X47045019Y-40034253D02*
X47273590Y-40034253D01*
X46559305Y-39719967D02*
X46502162Y-39719967D01*
X46502162Y-39719967D02*
X46445019Y-39748538D01*
X46445019Y-39748538D02*
X46416448Y-39777110D01*
X46416448Y-39777110D02*
X46387876Y-39834253D01*
X46387876Y-39834253D02*
X46359305Y-39948538D01*
X46359305Y-39948538D02*
X46359305Y-40091396D01*
X46359305Y-40091396D02*
X46387876Y-40205681D01*
X46387876Y-40205681D02*
X46416448Y-40262824D01*
X46416448Y-40262824D02*
X46445019Y-40291396D01*
X46445019Y-40291396D02*
X46502162Y-40319967D01*
X46502162Y-40319967D02*
X46559305Y-40319967D01*
X46559305Y-40319967D02*
X46616448Y-40291396D01*
X46616448Y-40291396D02*
X46645019Y-40262824D01*
X46645019Y-40262824D02*
X46673590Y-40205681D01*
X46673590Y-40205681D02*
X46702162Y-40091396D01*
X46702162Y-40091396D02*
X46702162Y-39948538D01*
X46702162Y-39948538D02*
X46673590Y-39834253D01*
X46673590Y-39834253D02*
X46645019Y-39777110D01*
X46645019Y-39777110D02*
X46616448Y-39748538D01*
X46616448Y-39748538D02*
X46559305Y-39719967D01*
X47559305Y-67748538D02*
X47616448Y-67719967D01*
X47616448Y-67719967D02*
X47702162Y-67719967D01*
X47702162Y-67719967D02*
X47787876Y-67748538D01*
X47787876Y-67748538D02*
X47845019Y-67805681D01*
X47845019Y-67805681D02*
X47873590Y-67862824D01*
X47873590Y-67862824D02*
X47902162Y-67977110D01*
X47902162Y-67977110D02*
X47902162Y-68062824D01*
X47902162Y-68062824D02*
X47873590Y-68177110D01*
X47873590Y-68177110D02*
X47845019Y-68234253D01*
X47845019Y-68234253D02*
X47787876Y-68291396D01*
X47787876Y-68291396D02*
X47702162Y-68319967D01*
X47702162Y-68319967D02*
X47645019Y-68319967D01*
X47645019Y-68319967D02*
X47559305Y-68291396D01*
X47559305Y-68291396D02*
X47530733Y-68262824D01*
X47530733Y-68262824D02*
X47530733Y-68062824D01*
X47530733Y-68062824D02*
X47645019Y-68062824D01*
X47273590Y-68319967D02*
X47273590Y-67719967D01*
X47273590Y-67719967D02*
X47045019Y-67719967D01*
X47045019Y-67719967D02*
X46987876Y-67748538D01*
X46987876Y-67748538D02*
X46959305Y-67777110D01*
X46959305Y-67777110D02*
X46930733Y-67834253D01*
X46930733Y-67834253D02*
X46930733Y-67919967D01*
X46930733Y-67919967D02*
X46959305Y-67977110D01*
X46959305Y-67977110D02*
X46987876Y-68005681D01*
X46987876Y-68005681D02*
X47045019Y-68034253D01*
X47045019Y-68034253D02*
X47273590Y-68034253D01*
X46645019Y-68319967D02*
X46530733Y-68319967D01*
X46530733Y-68319967D02*
X46473590Y-68291396D01*
X46473590Y-68291396D02*
X46445019Y-68262824D01*
X46445019Y-68262824D02*
X46387876Y-68177110D01*
X46387876Y-68177110D02*
X46359305Y-68062824D01*
X46359305Y-68062824D02*
X46359305Y-67834253D01*
X46359305Y-67834253D02*
X46387876Y-67777110D01*
X46387876Y-67777110D02*
X46416448Y-67748538D01*
X46416448Y-67748538D02*
X46473590Y-67719967D01*
X46473590Y-67719967D02*
X46587876Y-67719967D01*
X46587876Y-67719967D02*
X46645019Y-67748538D01*
X46645019Y-67748538D02*
X46673590Y-67777110D01*
X46673590Y-67777110D02*
X46702162Y-67834253D01*
X46702162Y-67834253D02*
X46702162Y-67977110D01*
X46702162Y-67977110D02*
X46673590Y-68034253D01*
X46673590Y-68034253D02*
X46645019Y-68062824D01*
X46645019Y-68062824D02*
X46587876Y-68091396D01*
X46587876Y-68091396D02*
X46473590Y-68091396D01*
X46473590Y-68091396D02*
X46416448Y-68062824D01*
X46416448Y-68062824D02*
X46387876Y-68034253D01*
X46387876Y-68034253D02*
X46359305Y-67977110D01*
X47559305Y-55048538D02*
X47616448Y-55019967D01*
X47616448Y-55019967D02*
X47702162Y-55019967D01*
X47702162Y-55019967D02*
X47787876Y-55048538D01*
X47787876Y-55048538D02*
X47845019Y-55105681D01*
X47845019Y-55105681D02*
X47873590Y-55162824D01*
X47873590Y-55162824D02*
X47902162Y-55277110D01*
X47902162Y-55277110D02*
X47902162Y-55362824D01*
X47902162Y-55362824D02*
X47873590Y-55477110D01*
X47873590Y-55477110D02*
X47845019Y-55534253D01*
X47845019Y-55534253D02*
X47787876Y-55591396D01*
X47787876Y-55591396D02*
X47702162Y-55619967D01*
X47702162Y-55619967D02*
X47645019Y-55619967D01*
X47645019Y-55619967D02*
X47559305Y-55591396D01*
X47559305Y-55591396D02*
X47530733Y-55562824D01*
X47530733Y-55562824D02*
X47530733Y-55362824D01*
X47530733Y-55362824D02*
X47645019Y-55362824D01*
X47273590Y-55619967D02*
X47273590Y-55019967D01*
X47273590Y-55019967D02*
X47045019Y-55019967D01*
X47045019Y-55019967D02*
X46987876Y-55048538D01*
X46987876Y-55048538D02*
X46959305Y-55077110D01*
X46959305Y-55077110D02*
X46930733Y-55134253D01*
X46930733Y-55134253D02*
X46930733Y-55219967D01*
X46930733Y-55219967D02*
X46959305Y-55277110D01*
X46959305Y-55277110D02*
X46987876Y-55305681D01*
X46987876Y-55305681D02*
X47045019Y-55334253D01*
X47045019Y-55334253D02*
X47273590Y-55334253D01*
X46387876Y-55019967D02*
X46673590Y-55019967D01*
X46673590Y-55019967D02*
X46702162Y-55305681D01*
X46702162Y-55305681D02*
X46673590Y-55277110D01*
X46673590Y-55277110D02*
X46616448Y-55248538D01*
X46616448Y-55248538D02*
X46473590Y-55248538D01*
X46473590Y-55248538D02*
X46416448Y-55277110D01*
X46416448Y-55277110D02*
X46387876Y-55305681D01*
X46387876Y-55305681D02*
X46359305Y-55362824D01*
X46359305Y-55362824D02*
X46359305Y-55505681D01*
X46359305Y-55505681D02*
X46387876Y-55562824D01*
X46387876Y-55562824D02*
X46416448Y-55591396D01*
X46416448Y-55591396D02*
X46473590Y-55619967D01*
X46473590Y-55619967D02*
X46616448Y-55619967D01*
X46616448Y-55619967D02*
X46673590Y-55591396D01*
X46673590Y-55591396D02*
X46702162Y-55562824D01*
X73359305Y-39819967D02*
X73159305Y-40419967D01*
X73159305Y-40419967D02*
X72959305Y-39819967D01*
X72559304Y-40105681D02*
X72473590Y-40134253D01*
X72473590Y-40134253D02*
X72445019Y-40162824D01*
X72445019Y-40162824D02*
X72416447Y-40219967D01*
X72416447Y-40219967D02*
X72416447Y-40305681D01*
X72416447Y-40305681D02*
X72445019Y-40362824D01*
X72445019Y-40362824D02*
X72473590Y-40391396D01*
X72473590Y-40391396D02*
X72530733Y-40419967D01*
X72530733Y-40419967D02*
X72759304Y-40419967D01*
X72759304Y-40419967D02*
X72759304Y-39819967D01*
X72759304Y-39819967D02*
X72559304Y-39819967D01*
X72559304Y-39819967D02*
X72502162Y-39848538D01*
X72502162Y-39848538D02*
X72473590Y-39877110D01*
X72473590Y-39877110D02*
X72445019Y-39934253D01*
X72445019Y-39934253D02*
X72445019Y-39991396D01*
X72445019Y-39991396D02*
X72473590Y-40048538D01*
X72473590Y-40048538D02*
X72502162Y-40077110D01*
X72502162Y-40077110D02*
X72559304Y-40105681D01*
X72559304Y-40105681D02*
X72759304Y-40105681D01*
X72159304Y-39819967D02*
X72159304Y-40305681D01*
X72159304Y-40305681D02*
X72130733Y-40362824D01*
X72130733Y-40362824D02*
X72102162Y-40391396D01*
X72102162Y-40391396D02*
X72045019Y-40419967D01*
X72045019Y-40419967D02*
X71930733Y-40419967D01*
X71930733Y-40419967D02*
X71873590Y-40391396D01*
X71873590Y-40391396D02*
X71845019Y-40362824D01*
X71845019Y-40362824D02*
X71816447Y-40305681D01*
X71816447Y-40305681D02*
X71816447Y-39819967D01*
X71559305Y-40391396D02*
X71473591Y-40419967D01*
X71473591Y-40419967D02*
X71330733Y-40419967D01*
X71330733Y-40419967D02*
X71273591Y-40391396D01*
X71273591Y-40391396D02*
X71245019Y-40362824D01*
X71245019Y-40362824D02*
X71216448Y-40305681D01*
X71216448Y-40305681D02*
X71216448Y-40248538D01*
X71216448Y-40248538D02*
X71245019Y-40191396D01*
X71245019Y-40191396D02*
X71273591Y-40162824D01*
X71273591Y-40162824D02*
X71330733Y-40134253D01*
X71330733Y-40134253D02*
X71445019Y-40105681D01*
X71445019Y-40105681D02*
X71502162Y-40077110D01*
X71502162Y-40077110D02*
X71530733Y-40048538D01*
X71530733Y-40048538D02*
X71559305Y-39991396D01*
X71559305Y-39991396D02*
X71559305Y-39934253D01*
X71559305Y-39934253D02*
X71530733Y-39877110D01*
X71530733Y-39877110D02*
X71502162Y-39848538D01*
X71502162Y-39848538D02*
X71445019Y-39819967D01*
X71445019Y-39819967D02*
X71302162Y-39819967D01*
X71302162Y-39819967D02*
X71216448Y-39848538D01*
X73130733Y-49919967D02*
X72759305Y-49919967D01*
X72759305Y-49919967D02*
X72959305Y-50148538D01*
X72959305Y-50148538D02*
X72873590Y-50148538D01*
X72873590Y-50148538D02*
X72816448Y-50177110D01*
X72816448Y-50177110D02*
X72787876Y-50205681D01*
X72787876Y-50205681D02*
X72759305Y-50262824D01*
X72759305Y-50262824D02*
X72759305Y-50405681D01*
X72759305Y-50405681D02*
X72787876Y-50462824D01*
X72787876Y-50462824D02*
X72816448Y-50491396D01*
X72816448Y-50491396D02*
X72873590Y-50519967D01*
X72873590Y-50519967D02*
X73045019Y-50519967D01*
X73045019Y-50519967D02*
X73102162Y-50491396D01*
X73102162Y-50491396D02*
X73130733Y-50462824D01*
X72587876Y-49919967D02*
X72387876Y-50519967D01*
X72387876Y-50519967D02*
X72187876Y-49919967D01*
X72045018Y-49919967D02*
X71673590Y-49919967D01*
X71673590Y-49919967D02*
X71873590Y-50148538D01*
X71873590Y-50148538D02*
X71787875Y-50148538D01*
X71787875Y-50148538D02*
X71730733Y-50177110D01*
X71730733Y-50177110D02*
X71702161Y-50205681D01*
X71702161Y-50205681D02*
X71673590Y-50262824D01*
X71673590Y-50262824D02*
X71673590Y-50405681D01*
X71673590Y-50405681D02*
X71702161Y-50462824D01*
X71702161Y-50462824D02*
X71730733Y-50491396D01*
X71730733Y-50491396D02*
X71787875Y-50519967D01*
X71787875Y-50519967D02*
X71959304Y-50519967D01*
X71959304Y-50519967D02*
X72016447Y-50491396D01*
X72016447Y-50491396D02*
X72045018Y-50462824D01*
X72730733Y-65819967D02*
X72930733Y-65534253D01*
X73073590Y-65819967D02*
X73073590Y-65219967D01*
X73073590Y-65219967D02*
X72845019Y-65219967D01*
X72845019Y-65219967D02*
X72787876Y-65248538D01*
X72787876Y-65248538D02*
X72759305Y-65277110D01*
X72759305Y-65277110D02*
X72730733Y-65334253D01*
X72730733Y-65334253D02*
X72730733Y-65419967D01*
X72730733Y-65419967D02*
X72759305Y-65477110D01*
X72759305Y-65477110D02*
X72787876Y-65505681D01*
X72787876Y-65505681D02*
X72845019Y-65534253D01*
X72845019Y-65534253D02*
X73073590Y-65534253D01*
X72473590Y-65219967D02*
X72473590Y-65705681D01*
X72473590Y-65705681D02*
X72445019Y-65762824D01*
X72445019Y-65762824D02*
X72416448Y-65791396D01*
X72416448Y-65791396D02*
X72359305Y-65819967D01*
X72359305Y-65819967D02*
X72245019Y-65819967D01*
X72245019Y-65819967D02*
X72187876Y-65791396D01*
X72187876Y-65791396D02*
X72159305Y-65762824D01*
X72159305Y-65762824D02*
X72130733Y-65705681D01*
X72130733Y-65705681D02*
X72130733Y-65219967D01*
X71845019Y-65819967D02*
X71845019Y-65219967D01*
X71845019Y-65219967D02*
X71502162Y-65819967D01*
X71502162Y-65819967D02*
X71502162Y-65219967D01*
X65461553Y-74623416D02*
X65375839Y-74651988D01*
X65375839Y-74651988D02*
X65347268Y-74680559D01*
X65347268Y-74680559D02*
X65318696Y-74737702D01*
X65318696Y-74737702D02*
X65318696Y-74823416D01*
X65318696Y-74823416D02*
X65347268Y-74880559D01*
X65347268Y-74880559D02*
X65375839Y-74909131D01*
X65375839Y-74909131D02*
X65432982Y-74937702D01*
X65432982Y-74937702D02*
X65661553Y-74937702D01*
X65661553Y-74937702D02*
X65661553Y-74337702D01*
X65661553Y-74337702D02*
X65461553Y-74337702D01*
X65461553Y-74337702D02*
X65404411Y-74366273D01*
X65404411Y-74366273D02*
X65375839Y-74394845D01*
X65375839Y-74394845D02*
X65347268Y-74451988D01*
X65347268Y-74451988D02*
X65347268Y-74509131D01*
X65347268Y-74509131D02*
X65375839Y-74566273D01*
X65375839Y-74566273D02*
X65404411Y-74594845D01*
X65404411Y-74594845D02*
X65461553Y-74623416D01*
X65461553Y-74623416D02*
X65661553Y-74623416D01*
X64832982Y-74909131D02*
X64890125Y-74937702D01*
X64890125Y-74937702D02*
X65004411Y-74937702D01*
X65004411Y-74937702D02*
X65061553Y-74909131D01*
X65061553Y-74909131D02*
X65090125Y-74851988D01*
X65090125Y-74851988D02*
X65090125Y-74623416D01*
X65090125Y-74623416D02*
X65061553Y-74566273D01*
X65061553Y-74566273D02*
X65004411Y-74537702D01*
X65004411Y-74537702D02*
X64890125Y-74537702D01*
X64890125Y-74537702D02*
X64832982Y-74566273D01*
X64832982Y-74566273D02*
X64804411Y-74623416D01*
X64804411Y-74623416D02*
X64804411Y-74680559D01*
X64804411Y-74680559D02*
X65090125Y-74737702D01*
X64547267Y-74937702D02*
X64547267Y-74537702D01*
X64547267Y-74651988D02*
X64518696Y-74594845D01*
X64518696Y-74594845D02*
X64490125Y-74566273D01*
X64490125Y-74566273D02*
X64432982Y-74537702D01*
X64432982Y-74537702D02*
X64375839Y-74537702D01*
X64175838Y-74937702D02*
X64175838Y-74337702D01*
X64118696Y-74709131D02*
X63947267Y-74937702D01*
X63947267Y-74537702D02*
X64175838Y-74766273D01*
X63461553Y-74909131D02*
X63518696Y-74937702D01*
X63518696Y-74937702D02*
X63632982Y-74937702D01*
X63632982Y-74937702D02*
X63690124Y-74909131D01*
X63690124Y-74909131D02*
X63718696Y-74851988D01*
X63718696Y-74851988D02*
X63718696Y-74623416D01*
X63718696Y-74623416D02*
X63690124Y-74566273D01*
X63690124Y-74566273D02*
X63632982Y-74537702D01*
X63632982Y-74537702D02*
X63518696Y-74537702D01*
X63518696Y-74537702D02*
X63461553Y-74566273D01*
X63461553Y-74566273D02*
X63432982Y-74623416D01*
X63432982Y-74623416D02*
X63432982Y-74680559D01*
X63432982Y-74680559D02*
X63718696Y-74737702D01*
X63090124Y-74937702D02*
X63147267Y-74909131D01*
X63147267Y-74909131D02*
X63175838Y-74851988D01*
X63175838Y-74851988D02*
X63175838Y-74337702D01*
X62632981Y-74909131D02*
X62690124Y-74937702D01*
X62690124Y-74937702D02*
X62804410Y-74937702D01*
X62804410Y-74937702D02*
X62861552Y-74909131D01*
X62861552Y-74909131D02*
X62890124Y-74851988D01*
X62890124Y-74851988D02*
X62890124Y-74623416D01*
X62890124Y-74623416D02*
X62861552Y-74566273D01*
X62861552Y-74566273D02*
X62804410Y-74537702D01*
X62804410Y-74537702D02*
X62690124Y-74537702D01*
X62690124Y-74537702D02*
X62632981Y-74566273D01*
X62632981Y-74566273D02*
X62604410Y-74623416D01*
X62604410Y-74623416D02*
X62604410Y-74680559D01*
X62604410Y-74680559D02*
X62890124Y-74737702D01*
X62404409Y-74537702D02*
X62261552Y-74937702D01*
X62118695Y-74537702D02*
X62261552Y-74937702D01*
X62261552Y-74937702D02*
X62318695Y-75080559D01*
X62318695Y-75080559D02*
X62347266Y-75109131D01*
X62347266Y-75109131D02*
X62404409Y-75137702D01*
X61461552Y-74766273D02*
X61175838Y-74766273D01*
X61518695Y-74937702D02*
X61318695Y-74337702D01*
X61318695Y-74337702D02*
X61118695Y-74937702D01*
X60661552Y-74537702D02*
X60661552Y-74937702D01*
X60918694Y-74537702D02*
X60918694Y-74851988D01*
X60918694Y-74851988D02*
X60890123Y-74909131D01*
X60890123Y-74909131D02*
X60832980Y-74937702D01*
X60832980Y-74937702D02*
X60747266Y-74937702D01*
X60747266Y-74937702D02*
X60690123Y-74909131D01*
X60690123Y-74909131D02*
X60661552Y-74880559D01*
X60461552Y-74537702D02*
X60232980Y-74537702D01*
X60375837Y-74337702D02*
X60375837Y-74851988D01*
X60375837Y-74851988D02*
X60347266Y-74909131D01*
X60347266Y-74909131D02*
X60290123Y-74937702D01*
X60290123Y-74937702D02*
X60232980Y-74937702D01*
X59947266Y-74937702D02*
X60004409Y-74909131D01*
X60004409Y-74909131D02*
X60032980Y-74880559D01*
X60032980Y-74880559D02*
X60061552Y-74823416D01*
X60061552Y-74823416D02*
X60061552Y-74651988D01*
X60061552Y-74651988D02*
X60032980Y-74594845D01*
X60032980Y-74594845D02*
X60004409Y-74566273D01*
X60004409Y-74566273D02*
X59947266Y-74537702D01*
X59947266Y-74537702D02*
X59861552Y-74537702D01*
X59861552Y-74537702D02*
X59804409Y-74566273D01*
X59804409Y-74566273D02*
X59775838Y-74594845D01*
X59775838Y-74594845D02*
X59747266Y-74651988D01*
X59747266Y-74651988D02*
X59747266Y-74823416D01*
X59747266Y-74823416D02*
X59775838Y-74880559D01*
X59775838Y-74880559D02*
X59804409Y-74909131D01*
X59804409Y-74909131D02*
X59861552Y-74937702D01*
X59861552Y-74937702D02*
X59947266Y-74937702D01*
X59490123Y-74537702D02*
X59490123Y-74937702D01*
X59490123Y-74594845D02*
X59461552Y-74566273D01*
X59461552Y-74566273D02*
X59404409Y-74537702D01*
X59404409Y-74537702D02*
X59318695Y-74537702D01*
X59318695Y-74537702D02*
X59261552Y-74566273D01*
X59261552Y-74566273D02*
X59232981Y-74623416D01*
X59232981Y-74623416D02*
X59232981Y-74937702D01*
X58861552Y-74937702D02*
X58918695Y-74909131D01*
X58918695Y-74909131D02*
X58947266Y-74880559D01*
X58947266Y-74880559D02*
X58975838Y-74823416D01*
X58975838Y-74823416D02*
X58975838Y-74651988D01*
X58975838Y-74651988D02*
X58947266Y-74594845D01*
X58947266Y-74594845D02*
X58918695Y-74566273D01*
X58918695Y-74566273D02*
X58861552Y-74537702D01*
X58861552Y-74537702D02*
X58775838Y-74537702D01*
X58775838Y-74537702D02*
X58718695Y-74566273D01*
X58718695Y-74566273D02*
X58690124Y-74594845D01*
X58690124Y-74594845D02*
X58661552Y-74651988D01*
X58661552Y-74651988D02*
X58661552Y-74823416D01*
X58661552Y-74823416D02*
X58690124Y-74880559D01*
X58690124Y-74880559D02*
X58718695Y-74909131D01*
X58718695Y-74909131D02*
X58775838Y-74937702D01*
X58775838Y-74937702D02*
X58861552Y-74937702D01*
X58404409Y-74937702D02*
X58404409Y-74537702D01*
X58404409Y-74594845D02*
X58375838Y-74566273D01*
X58375838Y-74566273D02*
X58318695Y-74537702D01*
X58318695Y-74537702D02*
X58232981Y-74537702D01*
X58232981Y-74537702D02*
X58175838Y-74566273D01*
X58175838Y-74566273D02*
X58147267Y-74623416D01*
X58147267Y-74623416D02*
X58147267Y-74937702D01*
X58147267Y-74623416D02*
X58118695Y-74566273D01*
X58118695Y-74566273D02*
X58061552Y-74537702D01*
X58061552Y-74537702D02*
X57975838Y-74537702D01*
X57975838Y-74537702D02*
X57918695Y-74566273D01*
X57918695Y-74566273D02*
X57890124Y-74623416D01*
X57890124Y-74623416D02*
X57890124Y-74937702D01*
X57518695Y-74937702D02*
X57575838Y-74909131D01*
X57575838Y-74909131D02*
X57604409Y-74880559D01*
X57604409Y-74880559D02*
X57632981Y-74823416D01*
X57632981Y-74823416D02*
X57632981Y-74651988D01*
X57632981Y-74651988D02*
X57604409Y-74594845D01*
X57604409Y-74594845D02*
X57575838Y-74566273D01*
X57575838Y-74566273D02*
X57518695Y-74537702D01*
X57518695Y-74537702D02*
X57432981Y-74537702D01*
X57432981Y-74537702D02*
X57375838Y-74566273D01*
X57375838Y-74566273D02*
X57347267Y-74594845D01*
X57347267Y-74594845D02*
X57318695Y-74651988D01*
X57318695Y-74651988D02*
X57318695Y-74823416D01*
X57318695Y-74823416D02*
X57347267Y-74880559D01*
X57347267Y-74880559D02*
X57375838Y-74909131D01*
X57375838Y-74909131D02*
X57432981Y-74937702D01*
X57432981Y-74937702D02*
X57518695Y-74937702D01*
X56804410Y-74537702D02*
X56804410Y-74937702D01*
X57061552Y-74537702D02*
X57061552Y-74851988D01*
X57061552Y-74851988D02*
X57032981Y-74909131D01*
X57032981Y-74909131D02*
X56975838Y-74937702D01*
X56975838Y-74937702D02*
X56890124Y-74937702D01*
X56890124Y-74937702D02*
X56832981Y-74909131D01*
X56832981Y-74909131D02*
X56804410Y-74880559D01*
X56547267Y-74909131D02*
X56490124Y-74937702D01*
X56490124Y-74937702D02*
X56375838Y-74937702D01*
X56375838Y-74937702D02*
X56318695Y-74909131D01*
X56318695Y-74909131D02*
X56290124Y-74851988D01*
X56290124Y-74851988D02*
X56290124Y-74823416D01*
X56290124Y-74823416D02*
X56318695Y-74766273D01*
X56318695Y-74766273D02*
X56375838Y-74737702D01*
X56375838Y-74737702D02*
X56461553Y-74737702D01*
X56461553Y-74737702D02*
X56518695Y-74709131D01*
X56518695Y-74709131D02*
X56547267Y-74651988D01*
X56547267Y-74651988D02*
X56547267Y-74623416D01*
X56547267Y-74623416D02*
X56518695Y-74566273D01*
X56518695Y-74566273D02*
X56461553Y-74537702D01*
X56461553Y-74537702D02*
X56375838Y-74537702D01*
X56375838Y-74537702D02*
X56318695Y-74566273D01*
X64847266Y-75903668D02*
X64847266Y-75303668D01*
X64847266Y-75303668D02*
X64647266Y-75732239D01*
X64647266Y-75732239D02*
X64447266Y-75303668D01*
X64447266Y-75303668D02*
X64447266Y-75903668D01*
X64161552Y-75903668D02*
X64161552Y-75503668D01*
X64161552Y-75303668D02*
X64190124Y-75332239D01*
X64190124Y-75332239D02*
X64161552Y-75360811D01*
X64161552Y-75360811D02*
X64132981Y-75332239D01*
X64132981Y-75332239D02*
X64161552Y-75303668D01*
X64161552Y-75303668D02*
X64161552Y-75360811D01*
X63618696Y-75875097D02*
X63675838Y-75903668D01*
X63675838Y-75903668D02*
X63790124Y-75903668D01*
X63790124Y-75903668D02*
X63847267Y-75875097D01*
X63847267Y-75875097D02*
X63875838Y-75846525D01*
X63875838Y-75846525D02*
X63904410Y-75789382D01*
X63904410Y-75789382D02*
X63904410Y-75617954D01*
X63904410Y-75617954D02*
X63875838Y-75560811D01*
X63875838Y-75560811D02*
X63847267Y-75532239D01*
X63847267Y-75532239D02*
X63790124Y-75503668D01*
X63790124Y-75503668D02*
X63675838Y-75503668D01*
X63675838Y-75503668D02*
X63618696Y-75532239D01*
X63361552Y-75903668D02*
X63361552Y-75503668D01*
X63361552Y-75617954D02*
X63332981Y-75560811D01*
X63332981Y-75560811D02*
X63304410Y-75532239D01*
X63304410Y-75532239D02*
X63247267Y-75503668D01*
X63247267Y-75503668D02*
X63190124Y-75503668D01*
X62904409Y-75903668D02*
X62961552Y-75875097D01*
X62961552Y-75875097D02*
X62990123Y-75846525D01*
X62990123Y-75846525D02*
X63018695Y-75789382D01*
X63018695Y-75789382D02*
X63018695Y-75617954D01*
X63018695Y-75617954D02*
X62990123Y-75560811D01*
X62990123Y-75560811D02*
X62961552Y-75532239D01*
X62961552Y-75532239D02*
X62904409Y-75503668D01*
X62904409Y-75503668D02*
X62818695Y-75503668D01*
X62818695Y-75503668D02*
X62761552Y-75532239D01*
X62761552Y-75532239D02*
X62732981Y-75560811D01*
X62732981Y-75560811D02*
X62704409Y-75617954D01*
X62704409Y-75617954D02*
X62704409Y-75789382D01*
X62704409Y-75789382D02*
X62732981Y-75846525D01*
X62732981Y-75846525D02*
X62761552Y-75875097D01*
X62761552Y-75875097D02*
X62818695Y-75903668D01*
X62818695Y-75903668D02*
X62904409Y-75903668D01*
X62475838Y-75875097D02*
X62418695Y-75903668D01*
X62418695Y-75903668D02*
X62304409Y-75903668D01*
X62304409Y-75903668D02*
X62247266Y-75875097D01*
X62247266Y-75875097D02*
X62218695Y-75817954D01*
X62218695Y-75817954D02*
X62218695Y-75789382D01*
X62218695Y-75789382D02*
X62247266Y-75732239D01*
X62247266Y-75732239D02*
X62304409Y-75703668D01*
X62304409Y-75703668D02*
X62390124Y-75703668D01*
X62390124Y-75703668D02*
X62447266Y-75675097D01*
X62447266Y-75675097D02*
X62475838Y-75617954D01*
X62475838Y-75617954D02*
X62475838Y-75589382D01*
X62475838Y-75589382D02*
X62447266Y-75532239D01*
X62447266Y-75532239D02*
X62390124Y-75503668D01*
X62390124Y-75503668D02*
X62304409Y-75503668D01*
X62304409Y-75503668D02*
X62247266Y-75532239D01*
X62018695Y-75503668D02*
X61875838Y-75903668D01*
X61732981Y-75503668D02*
X61875838Y-75903668D01*
X61875838Y-75903668D02*
X61932981Y-76046525D01*
X61932981Y-76046525D02*
X61961552Y-76075097D01*
X61961552Y-76075097D02*
X62018695Y-76103668D01*
X61532981Y-75875097D02*
X61475838Y-75903668D01*
X61475838Y-75903668D02*
X61361552Y-75903668D01*
X61361552Y-75903668D02*
X61304409Y-75875097D01*
X61304409Y-75875097D02*
X61275838Y-75817954D01*
X61275838Y-75817954D02*
X61275838Y-75789382D01*
X61275838Y-75789382D02*
X61304409Y-75732239D01*
X61304409Y-75732239D02*
X61361552Y-75703668D01*
X61361552Y-75703668D02*
X61447267Y-75703668D01*
X61447267Y-75703668D02*
X61504409Y-75675097D01*
X61504409Y-75675097D02*
X61532981Y-75617954D01*
X61532981Y-75617954D02*
X61532981Y-75589382D01*
X61532981Y-75589382D02*
X61504409Y-75532239D01*
X61504409Y-75532239D02*
X61447267Y-75503668D01*
X61447267Y-75503668D02*
X61361552Y-75503668D01*
X61361552Y-75503668D02*
X61304409Y-75532239D01*
X61104410Y-75503668D02*
X60875838Y-75503668D01*
X61018695Y-75303668D02*
X61018695Y-75817954D01*
X61018695Y-75817954D02*
X60990124Y-75875097D01*
X60990124Y-75875097D02*
X60932981Y-75903668D01*
X60932981Y-75903668D02*
X60875838Y-75903668D01*
X60447267Y-75875097D02*
X60504410Y-75903668D01*
X60504410Y-75903668D02*
X60618696Y-75903668D01*
X60618696Y-75903668D02*
X60675838Y-75875097D01*
X60675838Y-75875097D02*
X60704410Y-75817954D01*
X60704410Y-75817954D02*
X60704410Y-75589382D01*
X60704410Y-75589382D02*
X60675838Y-75532239D01*
X60675838Y-75532239D02*
X60618696Y-75503668D01*
X60618696Y-75503668D02*
X60504410Y-75503668D01*
X60504410Y-75503668D02*
X60447267Y-75532239D01*
X60447267Y-75532239D02*
X60418696Y-75589382D01*
X60418696Y-75589382D02*
X60418696Y-75646525D01*
X60418696Y-75646525D02*
X60704410Y-75703668D01*
X60161552Y-75903668D02*
X60161552Y-75503668D01*
X60161552Y-75560811D02*
X60132981Y-75532239D01*
X60132981Y-75532239D02*
X60075838Y-75503668D01*
X60075838Y-75503668D02*
X59990124Y-75503668D01*
X59990124Y-75503668D02*
X59932981Y-75532239D01*
X59932981Y-75532239D02*
X59904410Y-75589382D01*
X59904410Y-75589382D02*
X59904410Y-75903668D01*
X59904410Y-75589382D02*
X59875838Y-75532239D01*
X59875838Y-75532239D02*
X59818695Y-75503668D01*
X59818695Y-75503668D02*
X59732981Y-75503668D01*
X59732981Y-75503668D02*
X59675838Y-75532239D01*
X59675838Y-75532239D02*
X59647267Y-75589382D01*
X59647267Y-75589382D02*
X59647267Y-75903668D01*
X59390124Y-75875097D02*
X59332981Y-75903668D01*
X59332981Y-75903668D02*
X59218695Y-75903668D01*
X59218695Y-75903668D02*
X59161552Y-75875097D01*
X59161552Y-75875097D02*
X59132981Y-75817954D01*
X59132981Y-75817954D02*
X59132981Y-75789382D01*
X59132981Y-75789382D02*
X59161552Y-75732239D01*
X59161552Y-75732239D02*
X59218695Y-75703668D01*
X59218695Y-75703668D02*
X59304410Y-75703668D01*
X59304410Y-75703668D02*
X59361552Y-75675097D01*
X59361552Y-75675097D02*
X59390124Y-75617954D01*
X59390124Y-75617954D02*
X59390124Y-75589382D01*
X59390124Y-75589382D02*
X59361552Y-75532239D01*
X59361552Y-75532239D02*
X59304410Y-75503668D01*
X59304410Y-75503668D02*
X59218695Y-75503668D01*
X59218695Y-75503668D02*
X59161552Y-75532239D01*
X58132981Y-75903668D02*
X58418695Y-75903668D01*
X58418695Y-75903668D02*
X58418695Y-75303668D01*
X57675839Y-75903668D02*
X57675839Y-75589382D01*
X57675839Y-75589382D02*
X57704410Y-75532239D01*
X57704410Y-75532239D02*
X57761553Y-75503668D01*
X57761553Y-75503668D02*
X57875839Y-75503668D01*
X57875839Y-75503668D02*
X57932981Y-75532239D01*
X57675839Y-75875097D02*
X57732981Y-75903668D01*
X57732981Y-75903668D02*
X57875839Y-75903668D01*
X57875839Y-75903668D02*
X57932981Y-75875097D01*
X57932981Y-75875097D02*
X57961553Y-75817954D01*
X57961553Y-75817954D02*
X57961553Y-75760811D01*
X57961553Y-75760811D02*
X57932981Y-75703668D01*
X57932981Y-75703668D02*
X57875839Y-75675097D01*
X57875839Y-75675097D02*
X57732981Y-75675097D01*
X57732981Y-75675097D02*
X57675839Y-75646525D01*
X57390124Y-75903668D02*
X57390124Y-75303668D01*
X57390124Y-75532239D02*
X57332982Y-75503668D01*
X57332982Y-75503668D02*
X57218696Y-75503668D01*
X57218696Y-75503668D02*
X57161553Y-75532239D01*
X57161553Y-75532239D02*
X57132982Y-75560811D01*
X57132982Y-75560811D02*
X57104410Y-75617954D01*
X57104410Y-75617954D02*
X57104410Y-75789382D01*
X57104410Y-75789382D02*
X57132982Y-75846525D01*
X57132982Y-75846525D02*
X57161553Y-75875097D01*
X57161553Y-75875097D02*
X57218696Y-75903668D01*
X57218696Y-75903668D02*
X57332982Y-75903668D01*
X57332982Y-75903668D02*
X57390124Y-75875097D01*
%LPC*%
D13*
%TO.C,J3*%
X68690000Y-40100000D03*
D14*
X68690000Y-42640000D03*
X68690000Y-45180000D03*
X68690000Y-47720000D03*
X68690000Y-50260000D03*
X68690000Y-52800000D03*
X68690000Y-55340000D03*
X68690000Y-57880000D03*
X68690000Y-60420000D03*
X68690000Y-62960000D03*
X68690000Y-65500000D03*
X68690000Y-68040000D03*
X68690000Y-70580000D03*
X68690000Y-73120000D03*
X68690000Y-75660000D03*
X68690000Y-78200000D03*
X68690000Y-80740000D03*
X68690000Y-83280000D03*
X68690000Y-85820000D03*
X68690000Y-88360000D03*
%TD*%
D13*
%TO.C,J5*%
X57275000Y-94630000D03*
D14*
X59815000Y-94630000D03*
X62355000Y-94630000D03*
%TD*%
D13*
%TO.C,J2*%
X50910000Y-40100000D03*
D14*
X50910000Y-42640000D03*
X50910000Y-45180000D03*
X50910000Y-47720000D03*
X50910000Y-50260000D03*
X50910000Y-52800000D03*
X50910000Y-55340000D03*
X50910000Y-57880000D03*
X50910000Y-60420000D03*
X50910000Y-62960000D03*
X50910000Y-65500000D03*
X50910000Y-68040000D03*
X50910000Y-70580000D03*
X50910000Y-73120000D03*
X50910000Y-75660000D03*
X50910000Y-78200000D03*
X50910000Y-80740000D03*
X50910000Y-83280000D03*
X50910000Y-85820000D03*
X50910000Y-88360000D03*
%TD*%
D13*
%TO.C,J1*%
X43410000Y-40100000D03*
D14*
X43410000Y-42640000D03*
X43410000Y-45180000D03*
X43410000Y-47720000D03*
X43410000Y-50260000D03*
X43410000Y-52800000D03*
X43410000Y-55340000D03*
X43410000Y-57880000D03*
X43410000Y-60420000D03*
X43410000Y-62960000D03*
X43410000Y-65500000D03*
X43410000Y-68040000D03*
X43410000Y-70580000D03*
X43410000Y-73120000D03*
X43410000Y-75660000D03*
X43410000Y-78200000D03*
X43410000Y-80740000D03*
X43410000Y-83280000D03*
X43410000Y-85820000D03*
X43410000Y-88360000D03*
%TD*%
D13*
%TO.C,J6*%
X57275000Y-88130000D03*
D14*
X59815000Y-88130000D03*
X62355000Y-88130000D03*
%TD*%
D13*
%TO.C,J4*%
X76190000Y-40100000D03*
D14*
X76190000Y-42640000D03*
X76190000Y-45180000D03*
X76190000Y-47720000D03*
X76190000Y-50260000D03*
X76190000Y-52800000D03*
X76190000Y-55340000D03*
X76190000Y-57880000D03*
X76190000Y-60420000D03*
X76190000Y-62960000D03*
X76190000Y-65500000D03*
X76190000Y-68040000D03*
X76190000Y-70580000D03*
X76190000Y-73120000D03*
X76190000Y-75660000D03*
X76190000Y-78200000D03*
X76190000Y-80740000D03*
X76190000Y-83280000D03*
X76190000Y-85820000D03*
X76190000Y-88360000D03*
%TD*%
%LPD*%
M02*
