%TF.GenerationSoftware,KiCad,Pcbnew,8.0.4*%
%TF.CreationDate,2025-04-11T23:04:32-07:00*%
%TF.ProjectId,pico-breakout,7069636f-2d62-4726-9561-6b6f75742e6b,rev?*%
%TF.SameCoordinates,Original*%
%TF.FileFunction,Soldermask,Top*%
%TF.FilePolarity,Negative*%
%FSLAX46Y46*%
G04 Gerber Fmt 4.6, Leading zero omitted, Abs format (unit mm)*
G04 Created by KiCad (PCBNEW 8.0.4) date 2025-04-11 23:04:32*
%MOMM*%
%LPD*%
G01*
G04 APERTURE LIST*
G04 Aperture macros list*
%AMRoundRect*
0 Rectangle with rounded corners*
0 $1 Rounding radius*
0 $2 $3 $4 $5 $6 $7 $8 $9 X,Y pos of 4 corners*
0 Add a 4 corners polygon primitive as box body*
4,1,4,$2,$3,$4,$5,$6,$7,$8,$9,$2,$3,0*
0 Add four circle primitives for the rounded corners*
1,1,$1+$1,$2,$3*
1,1,$1+$1,$4,$5*
1,1,$1+$1,$6,$7*
1,1,$1+$1,$8,$9*
0 Add four rect primitives between the rounded corners*
20,1,$1+$1,$2,$3,$4,$5,0*
20,1,$1+$1,$4,$5,$6,$7,0*
20,1,$1+$1,$6,$7,$8,$9,0*
20,1,$1+$1,$8,$9,$2,$3,0*%
G04 Aperture macros list end*
%ADD10R,1.700000X1.700000*%
%ADD11O,1.700000X1.700000*%
%ADD12RoundRect,0.200000X-0.200000X-0.275000X0.200000X-0.275000X0.200000X0.275000X-0.200000X0.275000X0*%
G04 APERTURE END LIST*
D10*
%TO.C,J3*%
X68690000Y-40100000D03*
D11*
X68690000Y-42640000D03*
X68690000Y-45180000D03*
X68690000Y-47720000D03*
X68690000Y-50260000D03*
X68690000Y-52800000D03*
X68690000Y-55340000D03*
X68690000Y-57880000D03*
X68690000Y-60420000D03*
X68690000Y-62960000D03*
X68690000Y-65500000D03*
X68690000Y-68040000D03*
X68690000Y-70580000D03*
X68690000Y-73120000D03*
X68690000Y-75660000D03*
X68690000Y-78200000D03*
X68690000Y-80740000D03*
X68690000Y-83280000D03*
X68690000Y-85820000D03*
X68690000Y-88360000D03*
%TD*%
D10*
%TO.C,J5*%
X57275000Y-94630000D03*
D11*
X59815000Y-94630000D03*
X62355000Y-94630000D03*
%TD*%
D10*
%TO.C,J2*%
X50910000Y-40100000D03*
D11*
X50910000Y-42640000D03*
X50910000Y-45180000D03*
X50910000Y-47720000D03*
X50910000Y-50260000D03*
X50910000Y-52800000D03*
X50910000Y-55340000D03*
X50910000Y-57880000D03*
X50910000Y-60420000D03*
X50910000Y-62960000D03*
X50910000Y-65500000D03*
X50910000Y-68040000D03*
X50910000Y-70580000D03*
X50910000Y-73120000D03*
X50910000Y-75660000D03*
X50910000Y-78200000D03*
X50910000Y-80740000D03*
X50910000Y-83280000D03*
X50910000Y-85820000D03*
X50910000Y-88360000D03*
%TD*%
D10*
%TO.C,J1*%
X43410000Y-40100000D03*
D11*
X43410000Y-42640000D03*
X43410000Y-45180000D03*
X43410000Y-47720000D03*
X43410000Y-50260000D03*
X43410000Y-52800000D03*
X43410000Y-55340000D03*
X43410000Y-57880000D03*
X43410000Y-60420000D03*
X43410000Y-62960000D03*
X43410000Y-65500000D03*
X43410000Y-68040000D03*
X43410000Y-70580000D03*
X43410000Y-73120000D03*
X43410000Y-75660000D03*
X43410000Y-78200000D03*
X43410000Y-80740000D03*
X43410000Y-83280000D03*
X43410000Y-85820000D03*
X43410000Y-88360000D03*
%TD*%
D10*
%TO.C,J6*%
X57275000Y-88130000D03*
D11*
X59815000Y-88130000D03*
X62355000Y-88130000D03*
%TD*%
D10*
%TO.C,J4*%
X76190000Y-40100000D03*
D11*
X76190000Y-42640000D03*
X76190000Y-45180000D03*
X76190000Y-47720000D03*
X76190000Y-50260000D03*
X76190000Y-52800000D03*
X76190000Y-55340000D03*
X76190000Y-57880000D03*
X76190000Y-60420000D03*
X76190000Y-62960000D03*
X76190000Y-65500000D03*
X76190000Y-68040000D03*
X76190000Y-70580000D03*
X76190000Y-73120000D03*
X76190000Y-75660000D03*
X76190000Y-78200000D03*
X76190000Y-80740000D03*
X76190000Y-83280000D03*
X76190000Y-85820000D03*
X76190000Y-88360000D03*
%TD*%
D12*
%TO.C,R1*%
X46335000Y-47720000D03*
X47985000Y-47720000D03*
%TD*%
M02*
