M48
; DRILL file {KiCad 8.0.4} date 2024-07-31T15:52:53-0700
; FORMAT={-:-/ absolute / inch / decimal}
; #@! TF.CreationDate,2024-07-31T15:52:53-07:00
; #@! TF.GenerationSoftware,Kicad,Pcbnew,8.0.4
; #@! TF.FileFunction,Plated,1,2,PTH
FMAT,2
INCH
; #@! TA.AperFunction,Plated,PTH,ViaDrill
T1C0.0080
; #@! TA.AperFunction,Plated,PTH,ComponentDrill
T2C0.0112
; #@! TA.AperFunction,Plated,PTH,ViaDrill
T3C0.0120
; #@! TA.AperFunction,Plated,PTH,ComponentDrill
T4C0.0150
; #@! TA.AperFunction,Plated,PTH,ViaDrill
T5C0.0160
; #@! TA.AperFunction,Plated,PTH,ComponentDrill
T6C0.0394
; #@! TA.AperFunction,Plated,PTH,ComponentDrill
T7C0.0420
; #@! TA.AperFunction,Plated,PTH,ComponentDrill
T8C0.0630
%
G90
G05
T1
X3.0394Y-2.2047
X3.0394Y-2.3228
X3.0472Y-3.1417
X3.0472Y-3.2165
X3.0827Y-2.9173
X3.0866Y-2.5512
X3.1102Y-2.2598
X3.1535Y-3.2165
X3.172Y-2.968
X3.1772Y-2.2047
X3.1772Y-2.3189
X3.1811Y-2.5512
X3.2047Y-3.2638
X3.2047Y-3.3858
X3.2165Y-2.0945
X3.2244Y-2.4724
X3.2244Y-2.5236
X3.2559Y-2.4488
X3.26Y-3.22
X3.2756Y-2.0433
X3.2795Y-2.315
X3.2953Y-2.4213
X3.3031Y-2.937
X3.3031Y-3.1339
X3.3386Y-2.5512
X3.3543Y-2.3622
X3.3543Y-2.4016
X3.374Y-2.315
X3.4055Y-3.3976
X3.4646Y-2.9646
X3.4803Y-3.0118
X3.4921Y-3.1339
X3.52Y-2.56
X3.52Y-2.78
X3.55Y-3.12
X3.5551Y-2.9764
X3.575Y-3.12
X3.5787Y-2.0433
X3.5906Y-2.4252
X3.6Y-2.98
X3.6Y-3.12
X3.6142Y-2.3386
X3.622Y-3.0039
X3.6484Y-3.1172
X3.675Y-3.115
X3.7Y-3.115
X3.7008Y-3.3976
X3.7047Y-2.4252
X3.725Y-3.115
X3.75Y-3.115
X3.7673Y-3.095
X3.7756Y-2.3386
X3.811Y-2.4252
X3.9173Y-2.4252
X3.9291Y-3.0079
X3.9764Y-2.2795
X3.9764Y-2.3268
X3.9843Y-3.0945
X4.0039Y-3.3937
X4.0315Y-2.4252
X4.0669Y-2.0433
X4.075Y-2.7168
X4.075Y-2.77
X4.122Y-3.0748
X4.126Y-2.1929
X4.252Y-3.1024
X4.2756Y-2.7244
X4.2874Y-2.0433
X4.3307Y-3.3937
X4.3346Y-2.7874
X4.3346Y-3.0433
X4.3346Y-3.2008
X4.3898Y-2.7495
X4.3898Y-2.9291
X4.3976Y-2.6929
X4.4055Y-2.3976
X4.4055Y-2.5
X4.4213Y-3.0433
X4.4213Y-3.2008
X4.4213Y-3.3937
X4.4291Y-2.0433
X4.4291Y-2.2559
X4.4291Y-2.5906
X4.6024Y-2.2087
X4.6024Y-2.5118
X4.6024Y-2.7047
X4.6024Y-2.815
X4.6024Y-2.9213
X4.6024Y-3.0157
X4.6024Y-3.1181
X4.6024Y-3.2126
T2
X3.6433Y-2.5455
X3.6433Y-2.5903
X3.6433Y-2.6351
X3.6433Y-2.6799
X3.6433Y-2.7247
X3.6433Y-2.7695
X3.6433Y-2.8142
X3.6433Y-2.859
X3.688Y-2.5455
X3.688Y-2.5903
X3.688Y-2.6351
X3.688Y-2.6799
X3.688Y-2.7247
X3.688Y-2.7695
X3.688Y-2.8142
X3.688Y-2.859
X3.7328Y-2.5455
X3.7328Y-2.5903
X3.7328Y-2.6351
X3.7328Y-2.6799
X3.7328Y-2.7247
X3.7328Y-2.7695
X3.7328Y-2.8142
X3.7328Y-2.859
X3.7776Y-2.5455
X3.7776Y-2.5903
X3.7776Y-2.6351
X3.7776Y-2.6799
X3.7776Y-2.7247
X3.7776Y-2.7695
X3.7776Y-2.8142
X3.7776Y-2.859
X3.8224Y-2.5455
X3.8224Y-2.5903
X3.8224Y-2.6351
X3.8224Y-2.6799
X3.8224Y-2.7247
X3.8224Y-2.7695
X3.8224Y-2.8142
X3.8224Y-2.859
X3.8672Y-2.5455
X3.8672Y-2.5903
X3.8672Y-2.6351
X3.8672Y-2.6799
X3.8672Y-2.7247
X3.8672Y-2.7695
X3.8672Y-2.8142
X3.8672Y-2.859
X3.912Y-2.5455
X3.912Y-2.5903
X3.912Y-2.6351
X3.912Y-2.6799
X3.912Y-2.7247
X3.912Y-2.7695
X3.912Y-2.8142
X3.912Y-2.859
X3.9567Y-2.5455
X3.9567Y-2.5903
X3.9567Y-2.6351
X3.9567Y-2.6799
X3.9567Y-2.7247
X3.9567Y-2.7695
X3.9567Y-2.8142
X3.9567Y-2.859
T3
X3.31Y-2.45
T4
X3.32Y-3.02
X3.35Y-2.51
X3.39Y-2.99
X3.39Y-3.04
X3.41Y-2.51
X3.49Y-2.5
X3.49Y-3.08
X3.57Y-3.03
X3.59Y-2.37
X3.64Y-2.37
X3.69Y-2.37
X3.88Y-3.06
X4.085Y-2.625
X4.1Y-2.47
X4.105Y-2.525
X4.12Y-2.66
X4.13Y-2.7
X4.14Y-2.62
X4.2Y-2.36
X4.2Y-2.93
X4.22Y-2.48
X4.275Y-2.795
X4.275Y-2.895
T5
X3.56Y-2.41
X3.97Y-3.06
X4.1873Y-2.8427
X4.19Y-2.7245
X4.21Y-2.88
T6
X3.325Y-2.145
X3.325Y-2.245
X3.35Y-3.22
X3.35Y-3.32
X3.425Y-2.145
X3.425Y-2.245
X3.45Y-3.22
X3.45Y-3.32
X3.525Y-2.145
X3.525Y-2.245
X3.55Y-3.22
X3.55Y-3.32
X3.625Y-2.145
X3.625Y-2.245
X3.65Y-3.22
X3.65Y-3.32
X3.725Y-2.145
X3.725Y-2.245
X3.75Y-3.22
X3.75Y-3.32
X3.825Y-2.145
X3.825Y-2.245
X3.85Y-3.22
X3.85Y-3.32
X3.925Y-2.145
X3.925Y-2.245
X3.95Y-3.22
X3.95Y-3.32
X4.025Y-2.145
X4.025Y-2.245
X4.05Y-3.22
X4.05Y-3.32
X4.125Y-2.145
X4.125Y-2.245
X4.15Y-3.22
X4.15Y-3.32
X4.225Y-2.145
X4.225Y-2.245
X4.25Y-3.22
X4.25Y-3.32
X4.325Y-2.145
X4.325Y-2.245
X4.5Y-2.26
X4.5Y-2.36
X4.5Y-2.46
X4.5Y-2.56
X4.5Y-2.66
X4.5Y-2.76
X4.5Y-2.86
X4.5Y-2.96
X4.5Y-3.06
X4.5Y-3.16
T7
X3.48Y-2.65
X4.287Y-2.65
T8
X3.16Y-2.635
X3.16Y-2.835
X3.26Y-2.735
X3.36Y-2.635
X3.36Y-2.835
M30
