M48
; DRILL file {KiCad 8.0.4} date 2024-07-30T23:39:47-0700
; FORMAT={-:-/ absolute / inch / decimal}
; #@! TF.CreationDate,2024-07-30T23:39:47-07:00
; #@! TF.GenerationSoftware,Kicad,Pcbnew,8.0.4
; #@! TF.FileFunction,Plated,1,2,PTH
FMAT,2
INCH
; #@! TA.AperFunction,Plated,PTH,ViaDrill
T1C0.0080
; #@! TA.AperFunction,Plated,PTH,ComponentDrill
T2C0.0112
; #@! TA.AperFunction,Plated,PTH,ComponentDrill
T3C0.0150
; #@! TA.AperFunction,Plated,PTH,ViaDrill
T4C0.0160
; #@! TA.AperFunction,Plated,PTH,ComponentDrill
T5C0.0394
; #@! TA.AperFunction,Plated,PTH,ComponentDrill
T6C0.0420
; #@! TA.AperFunction,Plated,PTH,ComponentDrill
T7C0.0630
%
G90
G05
T1
X3.0472Y-2.2047
X3.0472Y-2.311
X3.0512Y-3.1496
X3.0866Y-3.0079
X3.1142Y-2.2559
X3.1142Y-3.2126
X3.126Y-2.4606
X3.1417Y-2.5472
X3.1693Y-2.4606
X3.172Y-2.968
X3.1732Y-2.2047
X3.1732Y-2.311
X3.2008Y-2.4291
X3.2008Y-2.4843
X3.2008Y-2.5472
X3.2047Y-3.2559
X3.2244Y-2.0748
X3.2283Y-3.0
X3.2323Y-3.3622
X3.2559Y-2.5472
X3.26Y-3.22
X3.2756Y-2.3543
X3.2756Y-2.9331
X3.2874Y-2.4606
X3.2913Y-2.3071
X3.2913Y-2.4291
X3.3071Y-2.3976
X3.3071Y-3.0984
X3.3307Y-2.3858
X3.3307Y-2.5197
X3.3583Y-2.3071
X3.3583Y-2.4213
X3.3583Y-2.4528
X3.3701Y-2.4956
X3.3937Y-2.5315
X3.4213Y-2.3071
X3.4409Y-2.378
X3.4528Y-3.122
X3.4646Y-2.3189
X3.4843Y-2.3976
X3.4961Y-2.3189
X3.5Y-3.3937
X3.52Y-2.56
X3.52Y-2.78
X3.525Y-3.12
X3.55Y-3.12
X3.575Y-3.12
X3.5787Y-2.0394
X3.5827Y-2.4803
X3.5827Y-2.9213
X3.6Y-2.98
X3.6Y-3.12
X3.6378Y-2.3268
X3.6484Y-3.1172
X3.675Y-3.115
X3.7Y-3.115
X3.7047Y-2.4291
X3.725Y-3.115
X3.75Y-3.115
X3.7673Y-3.095
X3.7717Y-2.3268
X3.8031Y-3.3937
X3.8465Y-2.4291
X3.9173Y-2.4291
X3.9724Y-2.2913
X4.0157Y-2.4291
X4.0236Y-2.9252
X4.0669Y-2.0394
X4.075Y-2.7168
X4.075Y-2.77
X4.1024Y-3.3898
X4.1339Y-3.0709
X4.1732Y-3.2677
X4.2835Y-3.0709
X4.3543Y-2.8504
X4.3819Y-2.5276
X4.3819Y-2.6654
X4.3898Y-2.7495
X4.3976Y-2.4094
X4.4094Y-3.0709
X4.4094Y-3.2087
X4.4094Y-3.3661
X4.4173Y-2.0394
X4.4252Y-2.2441
X4.5984Y-2.9173
X4.5984Y-3.2126
X4.6024Y-2.2165
X4.6024Y-2.5118
T2
X3.6433Y-2.5455
X3.6433Y-2.5903
X3.6433Y-2.6351
X3.6433Y-2.6799
X3.6433Y-2.7247
X3.6433Y-2.7695
X3.6433Y-2.8142
X3.6433Y-2.859
X3.688Y-2.5455
X3.688Y-2.5903
X3.688Y-2.6351
X3.688Y-2.6799
X3.688Y-2.7247
X3.688Y-2.7695
X3.688Y-2.8142
X3.688Y-2.859
X3.7328Y-2.5455
X3.7328Y-2.5903
X3.7328Y-2.6351
X3.7328Y-2.6799
X3.7328Y-2.7247
X3.7328Y-2.7695
X3.7328Y-2.8142
X3.7328Y-2.859
X3.7776Y-2.5455
X3.7776Y-2.5903
X3.7776Y-2.6351
X3.7776Y-2.6799
X3.7776Y-2.7247
X3.7776Y-2.7695
X3.7776Y-2.8142
X3.7776Y-2.859
X3.8224Y-2.5455
X3.8224Y-2.5903
X3.8224Y-2.6351
X3.8224Y-2.6799
X3.8224Y-2.7247
X3.8224Y-2.7695
X3.8224Y-2.8142
X3.8224Y-2.859
X3.8672Y-2.5455
X3.8672Y-2.5903
X3.8672Y-2.6351
X3.8672Y-2.6799
X3.8672Y-2.7247
X3.8672Y-2.7695
X3.8672Y-2.8142
X3.8672Y-2.859
X3.912Y-2.5455
X3.912Y-2.5903
X3.912Y-2.6351
X3.912Y-2.6799
X3.912Y-2.7247
X3.912Y-2.7695
X3.912Y-2.8142
X3.912Y-2.859
X3.9567Y-2.5455
X3.9567Y-2.5903
X3.9567Y-2.6351
X3.9567Y-2.6799
X3.9567Y-2.7247
X3.9567Y-2.7695
X3.9567Y-2.8142
X3.9567Y-2.859
T3
X3.32Y-3.02
X3.3543Y-2.5394
X3.39Y-2.99
X3.39Y-3.04
X3.4291Y-2.5236
X3.49Y-3.08
X3.4961Y-2.5039
X3.57Y-3.03
X3.59Y-2.37
X3.64Y-2.37
X3.69Y-2.37
X3.88Y-3.06
X4.085Y-2.625
X4.1Y-2.47
X4.105Y-2.525
X4.12Y-2.66
X4.13Y-2.7
X4.14Y-2.62
X4.2Y-2.36
X4.2Y-2.93
X4.22Y-2.48
X4.275Y-2.795
X4.275Y-2.895
T4
X3.56Y-2.41
X3.97Y-3.06
X4.1873Y-2.8427
X4.19Y-2.7245
X4.21Y-2.88
T5
X3.325Y-2.145
X3.325Y-2.245
X3.35Y-3.22
X3.35Y-3.32
X3.425Y-2.145
X3.425Y-2.245
X3.45Y-3.22
X3.45Y-3.32
X3.525Y-2.145
X3.525Y-2.245
X3.55Y-3.22
X3.55Y-3.32
X3.625Y-2.145
X3.625Y-2.245
X3.65Y-3.22
X3.65Y-3.32
X3.725Y-2.145
X3.725Y-2.245
X3.75Y-3.22
X3.75Y-3.32
X3.825Y-2.145
X3.825Y-2.245
X3.85Y-3.22
X3.85Y-3.32
X3.925Y-2.145
X3.925Y-2.245
X3.95Y-3.22
X3.95Y-3.32
X4.025Y-2.145
X4.025Y-2.245
X4.05Y-3.22
X4.05Y-3.32
X4.125Y-2.145
X4.125Y-2.245
X4.15Y-3.22
X4.15Y-3.32
X4.225Y-2.145
X4.225Y-2.245
X4.25Y-3.22
X4.25Y-3.32
X4.325Y-2.145
X4.325Y-2.245
X4.5Y-2.26
X4.5Y-2.36
X4.5Y-2.46
X4.5Y-2.56
X4.5Y-2.66
X4.5Y-2.76
X4.5Y-2.86
X4.5Y-2.96
X4.5Y-3.06
X4.5Y-3.16
T6
X3.48Y-2.65
X4.287Y-2.65
T7
X3.16Y-2.635
X3.16Y-2.835
X3.26Y-2.735
X3.36Y-2.635
X3.36Y-2.835
M30
