%TF.GenerationSoftware,KiCad,Pcbnew,8.0.4*%
%TF.CreationDate,2024-08-07T14:38:44-07:00*%
%TF.ProjectId,scum3c-devboard,7363756d-3363-42d6-9465-76626f617264,rev?*%
%TF.SameCoordinates,Original*%
%TF.FileFunction,Other,Comment*%
%FSLAX46Y46*%
G04 Gerber Fmt 4.6, Leading zero omitted, Abs format (unit mm)*
G04 Created by KiCad (PCBNEW 8.0.4) date 2024-08-07 14:38:44*
%MOMM*%
%LPD*%
G01*
G04 APERTURE LIST*
%ADD10C,0.040000*%
%ADD11C,0.002000*%
G04 APERTURE END LIST*
D10*
X80025953Y-79076443D02*
X80025953Y-78876443D01*
X80140238Y-79076443D02*
X80054524Y-78962158D01*
X80140238Y-78876443D02*
X80025953Y-78990729D01*
X80225953Y-78971681D02*
X80292619Y-78971681D01*
X80321191Y-79076443D02*
X80225953Y-79076443D01*
X80225953Y-79076443D02*
X80225953Y-78876443D01*
X80225953Y-78876443D02*
X80321191Y-78876443D01*
X80406905Y-78971681D02*
X80473571Y-78971681D01*
X80502143Y-79076443D02*
X80406905Y-79076443D01*
X80406905Y-79076443D02*
X80406905Y-78876443D01*
X80406905Y-78876443D02*
X80502143Y-78876443D01*
X80587857Y-79076443D02*
X80587857Y-78876443D01*
X80587857Y-78876443D02*
X80664047Y-78876443D01*
X80664047Y-78876443D02*
X80683095Y-78885967D01*
X80683095Y-78885967D02*
X80692618Y-78895491D01*
X80692618Y-78895491D02*
X80702142Y-78914539D01*
X80702142Y-78914539D02*
X80702142Y-78943110D01*
X80702142Y-78943110D02*
X80692618Y-78962158D01*
X80692618Y-78962158D02*
X80683095Y-78971681D01*
X80683095Y-78971681D02*
X80664047Y-78981205D01*
X80664047Y-78981205D02*
X80587857Y-78981205D01*
X80825952Y-78876443D02*
X80864047Y-78876443D01*
X80864047Y-78876443D02*
X80883095Y-78885967D01*
X80883095Y-78885967D02*
X80902142Y-78905015D01*
X80902142Y-78905015D02*
X80911666Y-78943110D01*
X80911666Y-78943110D02*
X80911666Y-79009777D01*
X80911666Y-79009777D02*
X80902142Y-79047872D01*
X80902142Y-79047872D02*
X80883095Y-79066920D01*
X80883095Y-79066920D02*
X80864047Y-79076443D01*
X80864047Y-79076443D02*
X80825952Y-79076443D01*
X80825952Y-79076443D02*
X80806904Y-79066920D01*
X80806904Y-79066920D02*
X80787857Y-79047872D01*
X80787857Y-79047872D02*
X80778333Y-79009777D01*
X80778333Y-79009777D02*
X80778333Y-78943110D01*
X80778333Y-78943110D02*
X80787857Y-78905015D01*
X80787857Y-78905015D02*
X80806904Y-78885967D01*
X80806904Y-78885967D02*
X80825952Y-78876443D01*
X80997381Y-78876443D02*
X80997381Y-79038348D01*
X80997381Y-79038348D02*
X81006904Y-79057396D01*
X81006904Y-79057396D02*
X81016428Y-79066920D01*
X81016428Y-79066920D02*
X81035476Y-79076443D01*
X81035476Y-79076443D02*
X81073571Y-79076443D01*
X81073571Y-79076443D02*
X81092619Y-79066920D01*
X81092619Y-79066920D02*
X81102142Y-79057396D01*
X81102142Y-79057396D02*
X81111666Y-79038348D01*
X81111666Y-79038348D02*
X81111666Y-78876443D01*
X81178333Y-78876443D02*
X81292619Y-78876443D01*
X81235476Y-79076443D02*
X81235476Y-78876443D01*
X79616428Y-78326443D02*
X79616428Y-78126443D01*
X79616428Y-78126443D02*
X79664047Y-78126443D01*
X79664047Y-78126443D02*
X79692618Y-78135967D01*
X79692618Y-78135967D02*
X79711666Y-78155015D01*
X79711666Y-78155015D02*
X79721189Y-78174062D01*
X79721189Y-78174062D02*
X79730713Y-78212158D01*
X79730713Y-78212158D02*
X79730713Y-78240729D01*
X79730713Y-78240729D02*
X79721189Y-78278824D01*
X79721189Y-78278824D02*
X79711666Y-78297872D01*
X79711666Y-78297872D02*
X79692618Y-78316920D01*
X79692618Y-78316920D02*
X79664047Y-78326443D01*
X79664047Y-78326443D02*
X79616428Y-78326443D01*
X79816428Y-78326443D02*
X79816428Y-78193110D01*
X79816428Y-78126443D02*
X79806904Y-78135967D01*
X79806904Y-78135967D02*
X79816428Y-78145491D01*
X79816428Y-78145491D02*
X79825951Y-78135967D01*
X79825951Y-78135967D02*
X79816428Y-78126443D01*
X79816428Y-78126443D02*
X79816428Y-78145491D01*
X79911666Y-78326443D02*
X79911666Y-78193110D01*
X79911666Y-78231205D02*
X79921189Y-78212158D01*
X79921189Y-78212158D02*
X79930713Y-78202634D01*
X79930713Y-78202634D02*
X79949761Y-78193110D01*
X79949761Y-78193110D02*
X79968808Y-78193110D01*
X80111666Y-78316920D02*
X80092618Y-78326443D01*
X80092618Y-78326443D02*
X80054523Y-78326443D01*
X80054523Y-78326443D02*
X80035476Y-78316920D01*
X80035476Y-78316920D02*
X80025952Y-78297872D01*
X80025952Y-78297872D02*
X80025952Y-78221681D01*
X80025952Y-78221681D02*
X80035476Y-78202634D01*
X80035476Y-78202634D02*
X80054523Y-78193110D01*
X80054523Y-78193110D02*
X80092618Y-78193110D01*
X80092618Y-78193110D02*
X80111666Y-78202634D01*
X80111666Y-78202634D02*
X80121190Y-78221681D01*
X80121190Y-78221681D02*
X80121190Y-78240729D01*
X80121190Y-78240729D02*
X80025952Y-78259777D01*
X80292619Y-78316920D02*
X80273571Y-78326443D01*
X80273571Y-78326443D02*
X80235476Y-78326443D01*
X80235476Y-78326443D02*
X80216428Y-78316920D01*
X80216428Y-78316920D02*
X80206905Y-78307396D01*
X80206905Y-78307396D02*
X80197381Y-78288348D01*
X80197381Y-78288348D02*
X80197381Y-78231205D01*
X80197381Y-78231205D02*
X80206905Y-78212158D01*
X80206905Y-78212158D02*
X80216428Y-78202634D01*
X80216428Y-78202634D02*
X80235476Y-78193110D01*
X80235476Y-78193110D02*
X80273571Y-78193110D01*
X80273571Y-78193110D02*
X80292619Y-78202634D01*
X80349762Y-78193110D02*
X80425953Y-78193110D01*
X80378334Y-78126443D02*
X80378334Y-78297872D01*
X80378334Y-78297872D02*
X80387857Y-78316920D01*
X80387857Y-78316920D02*
X80406905Y-78326443D01*
X80406905Y-78326443D02*
X80425953Y-78326443D01*
X80521191Y-78326443D02*
X80502143Y-78316920D01*
X80502143Y-78316920D02*
X80492620Y-78297872D01*
X80492620Y-78297872D02*
X80492620Y-78126443D01*
X80578334Y-78193110D02*
X80625953Y-78326443D01*
X80673572Y-78193110D02*
X80625953Y-78326443D01*
X80625953Y-78326443D02*
X80606905Y-78374062D01*
X80606905Y-78374062D02*
X80597382Y-78383586D01*
X80597382Y-78383586D02*
X80578334Y-78393110D01*
X80968810Y-78221681D02*
X80997382Y-78231205D01*
X80997382Y-78231205D02*
X81006905Y-78240729D01*
X81006905Y-78240729D02*
X81016429Y-78259777D01*
X81016429Y-78259777D02*
X81016429Y-78288348D01*
X81016429Y-78288348D02*
X81006905Y-78307396D01*
X81006905Y-78307396D02*
X80997382Y-78316920D01*
X80997382Y-78316920D02*
X80978334Y-78326443D01*
X80978334Y-78326443D02*
X80902144Y-78326443D01*
X80902144Y-78326443D02*
X80902144Y-78126443D01*
X80902144Y-78126443D02*
X80968810Y-78126443D01*
X80968810Y-78126443D02*
X80987858Y-78135967D01*
X80987858Y-78135967D02*
X80997382Y-78145491D01*
X80997382Y-78145491D02*
X81006905Y-78164539D01*
X81006905Y-78164539D02*
X81006905Y-78183586D01*
X81006905Y-78183586D02*
X80997382Y-78202634D01*
X80997382Y-78202634D02*
X80987858Y-78212158D01*
X80987858Y-78212158D02*
X80968810Y-78221681D01*
X80968810Y-78221681D02*
X80902144Y-78221681D01*
X81178334Y-78316920D02*
X81159286Y-78326443D01*
X81159286Y-78326443D02*
X81121191Y-78326443D01*
X81121191Y-78326443D02*
X81102144Y-78316920D01*
X81102144Y-78316920D02*
X81092620Y-78297872D01*
X81092620Y-78297872D02*
X81092620Y-78221681D01*
X81092620Y-78221681D02*
X81102144Y-78202634D01*
X81102144Y-78202634D02*
X81121191Y-78193110D01*
X81121191Y-78193110D02*
X81159286Y-78193110D01*
X81159286Y-78193110D02*
X81178334Y-78202634D01*
X81178334Y-78202634D02*
X81187858Y-78221681D01*
X81187858Y-78221681D02*
X81187858Y-78240729D01*
X81187858Y-78240729D02*
X81092620Y-78259777D01*
X81302144Y-78326443D02*
X81283096Y-78316920D01*
X81283096Y-78316920D02*
X81273573Y-78297872D01*
X81273573Y-78297872D02*
X81273573Y-78126443D01*
X81406906Y-78326443D02*
X81387858Y-78316920D01*
X81387858Y-78316920D02*
X81378335Y-78307396D01*
X81378335Y-78307396D02*
X81368811Y-78288348D01*
X81368811Y-78288348D02*
X81368811Y-78231205D01*
X81368811Y-78231205D02*
X81378335Y-78212158D01*
X81378335Y-78212158D02*
X81387858Y-78202634D01*
X81387858Y-78202634D02*
X81406906Y-78193110D01*
X81406906Y-78193110D02*
X81435477Y-78193110D01*
X81435477Y-78193110D02*
X81454525Y-78202634D01*
X81454525Y-78202634D02*
X81464049Y-78212158D01*
X81464049Y-78212158D02*
X81473573Y-78231205D01*
X81473573Y-78231205D02*
X81473573Y-78288348D01*
X81473573Y-78288348D02*
X81464049Y-78307396D01*
X81464049Y-78307396D02*
X81454525Y-78316920D01*
X81454525Y-78316920D02*
X81435477Y-78326443D01*
X81435477Y-78326443D02*
X81406906Y-78326443D01*
X81540239Y-78193110D02*
X81578334Y-78326443D01*
X81578334Y-78326443D02*
X81616429Y-78231205D01*
X81616429Y-78231205D02*
X81654525Y-78326443D01*
X81654525Y-78326443D02*
X81692620Y-78193110D01*
X79902143Y-78676443D02*
X79902143Y-78476443D01*
X79902143Y-78476443D02*
X80016428Y-78676443D01*
X80016428Y-78676443D02*
X80016428Y-78476443D01*
X80140238Y-78676443D02*
X80121190Y-78666920D01*
X80121190Y-78666920D02*
X80111667Y-78657396D01*
X80111667Y-78657396D02*
X80102143Y-78638348D01*
X80102143Y-78638348D02*
X80102143Y-78581205D01*
X80102143Y-78581205D02*
X80111667Y-78562158D01*
X80111667Y-78562158D02*
X80121190Y-78552634D01*
X80121190Y-78552634D02*
X80140238Y-78543110D01*
X80140238Y-78543110D02*
X80168809Y-78543110D01*
X80168809Y-78543110D02*
X80187857Y-78552634D01*
X80187857Y-78552634D02*
X80197381Y-78562158D01*
X80197381Y-78562158D02*
X80206905Y-78581205D01*
X80206905Y-78581205D02*
X80206905Y-78638348D01*
X80206905Y-78638348D02*
X80197381Y-78657396D01*
X80197381Y-78657396D02*
X80187857Y-78666920D01*
X80187857Y-78666920D02*
X80168809Y-78676443D01*
X80168809Y-78676443D02*
X80140238Y-78676443D01*
X80559285Y-78657396D02*
X80549761Y-78666920D01*
X80549761Y-78666920D02*
X80521190Y-78676443D01*
X80521190Y-78676443D02*
X80502142Y-78676443D01*
X80502142Y-78676443D02*
X80473571Y-78666920D01*
X80473571Y-78666920D02*
X80454523Y-78647872D01*
X80454523Y-78647872D02*
X80445000Y-78628824D01*
X80445000Y-78628824D02*
X80435476Y-78590729D01*
X80435476Y-78590729D02*
X80435476Y-78562158D01*
X80435476Y-78562158D02*
X80445000Y-78524062D01*
X80445000Y-78524062D02*
X80454523Y-78505015D01*
X80454523Y-78505015D02*
X80473571Y-78485967D01*
X80473571Y-78485967D02*
X80502142Y-78476443D01*
X80502142Y-78476443D02*
X80521190Y-78476443D01*
X80521190Y-78476443D02*
X80549761Y-78485967D01*
X80549761Y-78485967D02*
X80559285Y-78495491D01*
X80673571Y-78676443D02*
X80654523Y-78666920D01*
X80654523Y-78666920D02*
X80645000Y-78657396D01*
X80645000Y-78657396D02*
X80635476Y-78638348D01*
X80635476Y-78638348D02*
X80635476Y-78581205D01*
X80635476Y-78581205D02*
X80645000Y-78562158D01*
X80645000Y-78562158D02*
X80654523Y-78552634D01*
X80654523Y-78552634D02*
X80673571Y-78543110D01*
X80673571Y-78543110D02*
X80702142Y-78543110D01*
X80702142Y-78543110D02*
X80721190Y-78552634D01*
X80721190Y-78552634D02*
X80730714Y-78562158D01*
X80730714Y-78562158D02*
X80740238Y-78581205D01*
X80740238Y-78581205D02*
X80740238Y-78638348D01*
X80740238Y-78638348D02*
X80730714Y-78657396D01*
X80730714Y-78657396D02*
X80721190Y-78666920D01*
X80721190Y-78666920D02*
X80702142Y-78676443D01*
X80702142Y-78676443D02*
X80673571Y-78676443D01*
X80825952Y-78543110D02*
X80825952Y-78743110D01*
X80825952Y-78552634D02*
X80844999Y-78543110D01*
X80844999Y-78543110D02*
X80883094Y-78543110D01*
X80883094Y-78543110D02*
X80902142Y-78552634D01*
X80902142Y-78552634D02*
X80911666Y-78562158D01*
X80911666Y-78562158D02*
X80921190Y-78581205D01*
X80921190Y-78581205D02*
X80921190Y-78638348D01*
X80921190Y-78638348D02*
X80911666Y-78657396D01*
X80911666Y-78657396D02*
X80902142Y-78666920D01*
X80902142Y-78666920D02*
X80883094Y-78676443D01*
X80883094Y-78676443D02*
X80844999Y-78676443D01*
X80844999Y-78676443D02*
X80825952Y-78666920D01*
X81006904Y-78543110D02*
X81006904Y-78743110D01*
X81006904Y-78552634D02*
X81025951Y-78543110D01*
X81025951Y-78543110D02*
X81064046Y-78543110D01*
X81064046Y-78543110D02*
X81083094Y-78552634D01*
X81083094Y-78552634D02*
X81092618Y-78562158D01*
X81092618Y-78562158D02*
X81102142Y-78581205D01*
X81102142Y-78581205D02*
X81102142Y-78638348D01*
X81102142Y-78638348D02*
X81092618Y-78657396D01*
X81092618Y-78657396D02*
X81083094Y-78666920D01*
X81083094Y-78666920D02*
X81064046Y-78676443D01*
X81064046Y-78676443D02*
X81025951Y-78676443D01*
X81025951Y-78676443D02*
X81006904Y-78666920D01*
X81264046Y-78666920D02*
X81244998Y-78676443D01*
X81244998Y-78676443D02*
X81206903Y-78676443D01*
X81206903Y-78676443D02*
X81187856Y-78666920D01*
X81187856Y-78666920D02*
X81178332Y-78647872D01*
X81178332Y-78647872D02*
X81178332Y-78571681D01*
X81178332Y-78571681D02*
X81187856Y-78552634D01*
X81187856Y-78552634D02*
X81206903Y-78543110D01*
X81206903Y-78543110D02*
X81244998Y-78543110D01*
X81244998Y-78543110D02*
X81264046Y-78552634D01*
X81264046Y-78552634D02*
X81273570Y-78571681D01*
X81273570Y-78571681D02*
X81273570Y-78590729D01*
X81273570Y-78590729D02*
X81178332Y-78609777D01*
X81359285Y-78676443D02*
X81359285Y-78543110D01*
X81359285Y-78581205D02*
X81368808Y-78562158D01*
X81368808Y-78562158D02*
X81378332Y-78552634D01*
X81378332Y-78552634D02*
X81397380Y-78543110D01*
X81397380Y-78543110D02*
X81416427Y-78543110D01*
X79978333Y-78007396D02*
X79968809Y-78016920D01*
X79968809Y-78016920D02*
X79940238Y-78026443D01*
X79940238Y-78026443D02*
X79921190Y-78026443D01*
X79921190Y-78026443D02*
X79892619Y-78016920D01*
X79892619Y-78016920D02*
X79873571Y-77997872D01*
X79873571Y-77997872D02*
X79864048Y-77978824D01*
X79864048Y-77978824D02*
X79854524Y-77940729D01*
X79854524Y-77940729D02*
X79854524Y-77912158D01*
X79854524Y-77912158D02*
X79864048Y-77874062D01*
X79864048Y-77874062D02*
X79873571Y-77855015D01*
X79873571Y-77855015D02*
X79892619Y-77835967D01*
X79892619Y-77835967D02*
X79921190Y-77826443D01*
X79921190Y-77826443D02*
X79940238Y-77826443D01*
X79940238Y-77826443D02*
X79968809Y-77835967D01*
X79968809Y-77835967D02*
X79978333Y-77845491D01*
X80092619Y-78026443D02*
X80073571Y-78016920D01*
X80073571Y-78016920D02*
X80064048Y-78007396D01*
X80064048Y-78007396D02*
X80054524Y-77988348D01*
X80054524Y-77988348D02*
X80054524Y-77931205D01*
X80054524Y-77931205D02*
X80064048Y-77912158D01*
X80064048Y-77912158D02*
X80073571Y-77902634D01*
X80073571Y-77902634D02*
X80092619Y-77893110D01*
X80092619Y-77893110D02*
X80121190Y-77893110D01*
X80121190Y-77893110D02*
X80140238Y-77902634D01*
X80140238Y-77902634D02*
X80149762Y-77912158D01*
X80149762Y-77912158D02*
X80159286Y-77931205D01*
X80159286Y-77931205D02*
X80159286Y-77988348D01*
X80159286Y-77988348D02*
X80149762Y-78007396D01*
X80149762Y-78007396D02*
X80140238Y-78016920D01*
X80140238Y-78016920D02*
X80121190Y-78026443D01*
X80121190Y-78026443D02*
X80092619Y-78026443D01*
X80245000Y-78026443D02*
X80245000Y-77893110D01*
X80245000Y-77912158D02*
X80254523Y-77902634D01*
X80254523Y-77902634D02*
X80273571Y-77893110D01*
X80273571Y-77893110D02*
X80302142Y-77893110D01*
X80302142Y-77893110D02*
X80321190Y-77902634D01*
X80321190Y-77902634D02*
X80330714Y-77921681D01*
X80330714Y-77921681D02*
X80330714Y-78026443D01*
X80330714Y-77921681D02*
X80340238Y-77902634D01*
X80340238Y-77902634D02*
X80359285Y-77893110D01*
X80359285Y-77893110D02*
X80387857Y-77893110D01*
X80387857Y-77893110D02*
X80406904Y-77902634D01*
X80406904Y-77902634D02*
X80416428Y-77921681D01*
X80416428Y-77921681D02*
X80416428Y-78026443D01*
X80511667Y-77893110D02*
X80511667Y-78093110D01*
X80511667Y-77902634D02*
X80530714Y-77893110D01*
X80530714Y-77893110D02*
X80568809Y-77893110D01*
X80568809Y-77893110D02*
X80587857Y-77902634D01*
X80587857Y-77902634D02*
X80597381Y-77912158D01*
X80597381Y-77912158D02*
X80606905Y-77931205D01*
X80606905Y-77931205D02*
X80606905Y-77988348D01*
X80606905Y-77988348D02*
X80597381Y-78007396D01*
X80597381Y-78007396D02*
X80587857Y-78016920D01*
X80587857Y-78016920D02*
X80568809Y-78026443D01*
X80568809Y-78026443D02*
X80530714Y-78026443D01*
X80530714Y-78026443D02*
X80511667Y-78016920D01*
X80721190Y-78026443D02*
X80702142Y-78016920D01*
X80702142Y-78016920D02*
X80692619Y-78007396D01*
X80692619Y-78007396D02*
X80683095Y-77988348D01*
X80683095Y-77988348D02*
X80683095Y-77931205D01*
X80683095Y-77931205D02*
X80692619Y-77912158D01*
X80692619Y-77912158D02*
X80702142Y-77902634D01*
X80702142Y-77902634D02*
X80721190Y-77893110D01*
X80721190Y-77893110D02*
X80749761Y-77893110D01*
X80749761Y-77893110D02*
X80768809Y-77902634D01*
X80768809Y-77902634D02*
X80778333Y-77912158D01*
X80778333Y-77912158D02*
X80787857Y-77931205D01*
X80787857Y-77931205D02*
X80787857Y-77988348D01*
X80787857Y-77988348D02*
X80778333Y-78007396D01*
X80778333Y-78007396D02*
X80768809Y-78016920D01*
X80768809Y-78016920D02*
X80749761Y-78026443D01*
X80749761Y-78026443D02*
X80721190Y-78026443D01*
X80873571Y-77893110D02*
X80873571Y-78026443D01*
X80873571Y-77912158D02*
X80883094Y-77902634D01*
X80883094Y-77902634D02*
X80902142Y-77893110D01*
X80902142Y-77893110D02*
X80930713Y-77893110D01*
X80930713Y-77893110D02*
X80949761Y-77902634D01*
X80949761Y-77902634D02*
X80959285Y-77921681D01*
X80959285Y-77921681D02*
X80959285Y-78026443D01*
X81130713Y-78016920D02*
X81111665Y-78026443D01*
X81111665Y-78026443D02*
X81073570Y-78026443D01*
X81073570Y-78026443D02*
X81054523Y-78016920D01*
X81054523Y-78016920D02*
X81044999Y-77997872D01*
X81044999Y-77997872D02*
X81044999Y-77921681D01*
X81044999Y-77921681D02*
X81054523Y-77902634D01*
X81054523Y-77902634D02*
X81073570Y-77893110D01*
X81073570Y-77893110D02*
X81111665Y-77893110D01*
X81111665Y-77893110D02*
X81130713Y-77902634D01*
X81130713Y-77902634D02*
X81140237Y-77921681D01*
X81140237Y-77921681D02*
X81140237Y-77940729D01*
X81140237Y-77940729D02*
X81044999Y-77959777D01*
X81225952Y-77893110D02*
X81225952Y-78026443D01*
X81225952Y-77912158D02*
X81235475Y-77902634D01*
X81235475Y-77902634D02*
X81254523Y-77893110D01*
X81254523Y-77893110D02*
X81283094Y-77893110D01*
X81283094Y-77893110D02*
X81302142Y-77902634D01*
X81302142Y-77902634D02*
X81311666Y-77921681D01*
X81311666Y-77921681D02*
X81311666Y-78026443D01*
X81378332Y-77893110D02*
X81454523Y-77893110D01*
X81406904Y-77826443D02*
X81406904Y-77997872D01*
X81406904Y-77997872D02*
X81416427Y-78016920D01*
X81416427Y-78016920D02*
X81435475Y-78026443D01*
X81435475Y-78026443D02*
X81454523Y-78026443D01*
D11*
X94940953Y-69955833D02*
X94947001Y-69961881D01*
X94947001Y-69961881D02*
X94953048Y-69980023D01*
X94953048Y-69980023D02*
X94953048Y-69992119D01*
X94953048Y-69992119D02*
X94947001Y-70010262D01*
X94947001Y-70010262D02*
X94934905Y-70022357D01*
X94934905Y-70022357D02*
X94922810Y-70028404D01*
X94922810Y-70028404D02*
X94898620Y-70034452D01*
X94898620Y-70034452D02*
X94880477Y-70034452D01*
X94880477Y-70034452D02*
X94856286Y-70028404D01*
X94856286Y-70028404D02*
X94844191Y-70022357D01*
X94844191Y-70022357D02*
X94832096Y-70010262D01*
X94832096Y-70010262D02*
X94826048Y-69992119D01*
X94826048Y-69992119D02*
X94826048Y-69980023D01*
X94826048Y-69980023D02*
X94832096Y-69961881D01*
X94832096Y-69961881D02*
X94838143Y-69955833D01*
X94953048Y-69883262D02*
X94947001Y-69895357D01*
X94947001Y-69895357D02*
X94940953Y-69901404D01*
X94940953Y-69901404D02*
X94928858Y-69907452D01*
X94928858Y-69907452D02*
X94892572Y-69907452D01*
X94892572Y-69907452D02*
X94880477Y-69901404D01*
X94880477Y-69901404D02*
X94874429Y-69895357D01*
X94874429Y-69895357D02*
X94868381Y-69883262D01*
X94868381Y-69883262D02*
X94868381Y-69865119D01*
X94868381Y-69865119D02*
X94874429Y-69853023D01*
X94874429Y-69853023D02*
X94880477Y-69846976D01*
X94880477Y-69846976D02*
X94892572Y-69840928D01*
X94892572Y-69840928D02*
X94928858Y-69840928D01*
X94928858Y-69840928D02*
X94940953Y-69846976D01*
X94940953Y-69846976D02*
X94947001Y-69853023D01*
X94947001Y-69853023D02*
X94953048Y-69865119D01*
X94953048Y-69865119D02*
X94953048Y-69883262D01*
X94868381Y-69786499D02*
X94995381Y-69786499D01*
X94874429Y-69786499D02*
X94868381Y-69774404D01*
X94868381Y-69774404D02*
X94868381Y-69750214D01*
X94868381Y-69750214D02*
X94874429Y-69738118D01*
X94874429Y-69738118D02*
X94880477Y-69732071D01*
X94880477Y-69732071D02*
X94892572Y-69726023D01*
X94892572Y-69726023D02*
X94928858Y-69726023D01*
X94928858Y-69726023D02*
X94940953Y-69732071D01*
X94940953Y-69732071D02*
X94947001Y-69738118D01*
X94947001Y-69738118D02*
X94953048Y-69750214D01*
X94953048Y-69750214D02*
X94953048Y-69774404D01*
X94953048Y-69774404D02*
X94947001Y-69786499D01*
X94868381Y-69683690D02*
X94953048Y-69653452D01*
X94868381Y-69623213D02*
X94953048Y-69653452D01*
X94953048Y-69653452D02*
X94983286Y-69665547D01*
X94983286Y-69665547D02*
X94989334Y-69671594D01*
X94989334Y-69671594D02*
X94995381Y-69683690D01*
X94953048Y-69574832D02*
X94868381Y-69574832D01*
X94892572Y-69574832D02*
X94880477Y-69568785D01*
X94880477Y-69568785D02*
X94874429Y-69562737D01*
X94874429Y-69562737D02*
X94868381Y-69550642D01*
X94868381Y-69550642D02*
X94868381Y-69538547D01*
X94953048Y-69496213D02*
X94868381Y-69496213D01*
X94826048Y-69496213D02*
X94832096Y-69502261D01*
X94832096Y-69502261D02*
X94838143Y-69496213D01*
X94838143Y-69496213D02*
X94832096Y-69490166D01*
X94832096Y-69490166D02*
X94826048Y-69496213D01*
X94826048Y-69496213D02*
X94838143Y-69496213D01*
X94868381Y-69381309D02*
X94971191Y-69381309D01*
X94971191Y-69381309D02*
X94983286Y-69387356D01*
X94983286Y-69387356D02*
X94989334Y-69393404D01*
X94989334Y-69393404D02*
X94995381Y-69405499D01*
X94995381Y-69405499D02*
X94995381Y-69423642D01*
X94995381Y-69423642D02*
X94989334Y-69435737D01*
X94947001Y-69381309D02*
X94953048Y-69393404D01*
X94953048Y-69393404D02*
X94953048Y-69417595D01*
X94953048Y-69417595D02*
X94947001Y-69429690D01*
X94947001Y-69429690D02*
X94940953Y-69435737D01*
X94940953Y-69435737D02*
X94928858Y-69441785D01*
X94928858Y-69441785D02*
X94892572Y-69441785D01*
X94892572Y-69441785D02*
X94880477Y-69435737D01*
X94880477Y-69435737D02*
X94874429Y-69429690D01*
X94874429Y-69429690D02*
X94868381Y-69417595D01*
X94868381Y-69417595D02*
X94868381Y-69393404D01*
X94868381Y-69393404D02*
X94874429Y-69381309D01*
X94953048Y-69320832D02*
X94826048Y-69320832D01*
X94953048Y-69266404D02*
X94886524Y-69266404D01*
X94886524Y-69266404D02*
X94874429Y-69272451D01*
X94874429Y-69272451D02*
X94868381Y-69284547D01*
X94868381Y-69284547D02*
X94868381Y-69302690D01*
X94868381Y-69302690D02*
X94874429Y-69314785D01*
X94874429Y-69314785D02*
X94880477Y-69320832D01*
X94868381Y-69224070D02*
X94868381Y-69175689D01*
X94826048Y-69205927D02*
X94934905Y-69205927D01*
X94934905Y-69205927D02*
X94947001Y-69199880D01*
X94947001Y-69199880D02*
X94953048Y-69187785D01*
X94953048Y-69187785D02*
X94953048Y-69175689D01*
X94838143Y-69042642D02*
X94832096Y-69036594D01*
X94832096Y-69036594D02*
X94826048Y-69024499D01*
X94826048Y-69024499D02*
X94826048Y-68994261D01*
X94826048Y-68994261D02*
X94832096Y-68982166D01*
X94832096Y-68982166D02*
X94838143Y-68976118D01*
X94838143Y-68976118D02*
X94850239Y-68970071D01*
X94850239Y-68970071D02*
X94862334Y-68970071D01*
X94862334Y-68970071D02*
X94880477Y-68976118D01*
X94880477Y-68976118D02*
X94953048Y-69048690D01*
X94953048Y-69048690D02*
X94953048Y-68970071D01*
X94826048Y-68891452D02*
X94826048Y-68879357D01*
X94826048Y-68879357D02*
X94832096Y-68867261D01*
X94832096Y-68867261D02*
X94838143Y-68861214D01*
X94838143Y-68861214D02*
X94850239Y-68855166D01*
X94850239Y-68855166D02*
X94874429Y-68849119D01*
X94874429Y-68849119D02*
X94904667Y-68849119D01*
X94904667Y-68849119D02*
X94928858Y-68855166D01*
X94928858Y-68855166D02*
X94940953Y-68861214D01*
X94940953Y-68861214D02*
X94947001Y-68867261D01*
X94947001Y-68867261D02*
X94953048Y-68879357D01*
X94953048Y-68879357D02*
X94953048Y-68891452D01*
X94953048Y-68891452D02*
X94947001Y-68903547D01*
X94947001Y-68903547D02*
X94940953Y-68909595D01*
X94940953Y-68909595D02*
X94928858Y-68915642D01*
X94928858Y-68915642D02*
X94904667Y-68921690D01*
X94904667Y-68921690D02*
X94874429Y-68921690D01*
X94874429Y-68921690D02*
X94850239Y-68915642D01*
X94850239Y-68915642D02*
X94838143Y-68909595D01*
X94838143Y-68909595D02*
X94832096Y-68903547D01*
X94832096Y-68903547D02*
X94826048Y-68891452D01*
X94838143Y-68800738D02*
X94832096Y-68794690D01*
X94832096Y-68794690D02*
X94826048Y-68782595D01*
X94826048Y-68782595D02*
X94826048Y-68752357D01*
X94826048Y-68752357D02*
X94832096Y-68740262D01*
X94832096Y-68740262D02*
X94838143Y-68734214D01*
X94838143Y-68734214D02*
X94850239Y-68728167D01*
X94850239Y-68728167D02*
X94862334Y-68728167D01*
X94862334Y-68728167D02*
X94880477Y-68734214D01*
X94880477Y-68734214D02*
X94953048Y-68806786D01*
X94953048Y-68806786D02*
X94953048Y-68728167D01*
X94953048Y-68607215D02*
X94953048Y-68679786D01*
X94953048Y-68643500D02*
X94826048Y-68643500D01*
X94826048Y-68643500D02*
X94844191Y-68655596D01*
X94844191Y-68655596D02*
X94856286Y-68667691D01*
X94856286Y-68667691D02*
X94862334Y-68679786D01*
X94916762Y-68462072D02*
X94916762Y-68401596D01*
X94953048Y-68474167D02*
X94826048Y-68431834D01*
X94826048Y-68431834D02*
X94953048Y-68389501D01*
X94947001Y-68292739D02*
X94953048Y-68304834D01*
X94953048Y-68304834D02*
X94953048Y-68329025D01*
X94953048Y-68329025D02*
X94947001Y-68341120D01*
X94947001Y-68341120D02*
X94940953Y-68347167D01*
X94940953Y-68347167D02*
X94928858Y-68353215D01*
X94928858Y-68353215D02*
X94892572Y-68353215D01*
X94892572Y-68353215D02*
X94880477Y-68347167D01*
X94880477Y-68347167D02*
X94874429Y-68341120D01*
X94874429Y-68341120D02*
X94868381Y-68329025D01*
X94868381Y-68329025D02*
X94868381Y-68304834D01*
X94868381Y-68304834D02*
X94874429Y-68292739D01*
X94947001Y-68183882D02*
X94953048Y-68195977D01*
X94953048Y-68195977D02*
X94953048Y-68220168D01*
X94953048Y-68220168D02*
X94947001Y-68232263D01*
X94947001Y-68232263D02*
X94940953Y-68238310D01*
X94940953Y-68238310D02*
X94928858Y-68244358D01*
X94928858Y-68244358D02*
X94892572Y-68244358D01*
X94892572Y-68244358D02*
X94880477Y-68238310D01*
X94880477Y-68238310D02*
X94874429Y-68232263D01*
X94874429Y-68232263D02*
X94868381Y-68220168D01*
X94868381Y-68220168D02*
X94868381Y-68195977D01*
X94868381Y-68195977D02*
X94874429Y-68183882D01*
X94947001Y-68081072D02*
X94953048Y-68093168D01*
X94953048Y-68093168D02*
X94953048Y-68117358D01*
X94953048Y-68117358D02*
X94947001Y-68129453D01*
X94947001Y-68129453D02*
X94934905Y-68135501D01*
X94934905Y-68135501D02*
X94886524Y-68135501D01*
X94886524Y-68135501D02*
X94874429Y-68129453D01*
X94874429Y-68129453D02*
X94868381Y-68117358D01*
X94868381Y-68117358D02*
X94868381Y-68093168D01*
X94868381Y-68093168D02*
X94874429Y-68081072D01*
X94874429Y-68081072D02*
X94886524Y-68075025D01*
X94886524Y-68075025D02*
X94898620Y-68075025D01*
X94898620Y-68075025D02*
X94910715Y-68135501D01*
X94953048Y-68002454D02*
X94947001Y-68014549D01*
X94947001Y-68014549D02*
X94934905Y-68020596D01*
X94934905Y-68020596D02*
X94826048Y-68020596D01*
X94947001Y-67905691D02*
X94953048Y-67917787D01*
X94953048Y-67917787D02*
X94953048Y-67941977D01*
X94953048Y-67941977D02*
X94947001Y-67954072D01*
X94947001Y-67954072D02*
X94934905Y-67960120D01*
X94934905Y-67960120D02*
X94886524Y-67960120D01*
X94886524Y-67960120D02*
X94874429Y-67954072D01*
X94874429Y-67954072D02*
X94868381Y-67941977D01*
X94868381Y-67941977D02*
X94868381Y-67917787D01*
X94868381Y-67917787D02*
X94874429Y-67905691D01*
X94874429Y-67905691D02*
X94886524Y-67899644D01*
X94886524Y-67899644D02*
X94898620Y-67899644D01*
X94898620Y-67899644D02*
X94910715Y-67960120D01*
X94953048Y-67845215D02*
X94868381Y-67845215D01*
X94892572Y-67845215D02*
X94880477Y-67839168D01*
X94880477Y-67839168D02*
X94874429Y-67833120D01*
X94874429Y-67833120D02*
X94868381Y-67821025D01*
X94868381Y-67821025D02*
X94868381Y-67808930D01*
X94953048Y-67712168D02*
X94886524Y-67712168D01*
X94886524Y-67712168D02*
X94874429Y-67718215D01*
X94874429Y-67718215D02*
X94868381Y-67730311D01*
X94868381Y-67730311D02*
X94868381Y-67754501D01*
X94868381Y-67754501D02*
X94874429Y-67766596D01*
X94947001Y-67712168D02*
X94953048Y-67724263D01*
X94953048Y-67724263D02*
X94953048Y-67754501D01*
X94953048Y-67754501D02*
X94947001Y-67766596D01*
X94947001Y-67766596D02*
X94934905Y-67772644D01*
X94934905Y-67772644D02*
X94922810Y-67772644D01*
X94922810Y-67772644D02*
X94910715Y-67766596D01*
X94910715Y-67766596D02*
X94904667Y-67754501D01*
X94904667Y-67754501D02*
X94904667Y-67724263D01*
X94904667Y-67724263D02*
X94898620Y-67712168D01*
X94868381Y-67669834D02*
X94868381Y-67621453D01*
X94826048Y-67651691D02*
X94934905Y-67651691D01*
X94934905Y-67651691D02*
X94947001Y-67645644D01*
X94947001Y-67645644D02*
X94953048Y-67633549D01*
X94953048Y-67633549D02*
X94953048Y-67621453D01*
X94947001Y-67530739D02*
X94953048Y-67542835D01*
X94953048Y-67542835D02*
X94953048Y-67567025D01*
X94953048Y-67567025D02*
X94947001Y-67579120D01*
X94947001Y-67579120D02*
X94934905Y-67585168D01*
X94934905Y-67585168D02*
X94886524Y-67585168D01*
X94886524Y-67585168D02*
X94874429Y-67579120D01*
X94874429Y-67579120D02*
X94868381Y-67567025D01*
X94868381Y-67567025D02*
X94868381Y-67542835D01*
X94868381Y-67542835D02*
X94874429Y-67530739D01*
X94874429Y-67530739D02*
X94886524Y-67524692D01*
X94886524Y-67524692D02*
X94898620Y-67524692D01*
X94898620Y-67524692D02*
X94910715Y-67585168D01*
X94953048Y-67415835D02*
X94826048Y-67415835D01*
X94947001Y-67415835D02*
X94953048Y-67427930D01*
X94953048Y-67427930D02*
X94953048Y-67452121D01*
X94953048Y-67452121D02*
X94947001Y-67464216D01*
X94947001Y-67464216D02*
X94940953Y-67470263D01*
X94940953Y-67470263D02*
X94928858Y-67476311D01*
X94928858Y-67476311D02*
X94892572Y-67476311D01*
X94892572Y-67476311D02*
X94880477Y-67470263D01*
X94880477Y-67470263D02*
X94874429Y-67464216D01*
X94874429Y-67464216D02*
X94868381Y-67452121D01*
X94868381Y-67452121D02*
X94868381Y-67427930D01*
X94868381Y-67427930D02*
X94874429Y-67415835D01*
X94953048Y-67258596D02*
X94826048Y-67258596D01*
X94826048Y-67258596D02*
X94826048Y-67228358D01*
X94826048Y-67228358D02*
X94832096Y-67210215D01*
X94832096Y-67210215D02*
X94844191Y-67198120D01*
X94844191Y-67198120D02*
X94856286Y-67192073D01*
X94856286Y-67192073D02*
X94880477Y-67186025D01*
X94880477Y-67186025D02*
X94898620Y-67186025D01*
X94898620Y-67186025D02*
X94922810Y-67192073D01*
X94922810Y-67192073D02*
X94934905Y-67198120D01*
X94934905Y-67198120D02*
X94947001Y-67210215D01*
X94947001Y-67210215D02*
X94953048Y-67228358D01*
X94953048Y-67228358D02*
X94953048Y-67258596D01*
X94947001Y-67083215D02*
X94953048Y-67095311D01*
X94953048Y-67095311D02*
X94953048Y-67119501D01*
X94953048Y-67119501D02*
X94947001Y-67131596D01*
X94947001Y-67131596D02*
X94934905Y-67137644D01*
X94934905Y-67137644D02*
X94886524Y-67137644D01*
X94886524Y-67137644D02*
X94874429Y-67131596D01*
X94874429Y-67131596D02*
X94868381Y-67119501D01*
X94868381Y-67119501D02*
X94868381Y-67095311D01*
X94868381Y-67095311D02*
X94874429Y-67083215D01*
X94874429Y-67083215D02*
X94886524Y-67077168D01*
X94886524Y-67077168D02*
X94898620Y-67077168D01*
X94898620Y-67077168D02*
X94910715Y-67137644D01*
X94947001Y-67028787D02*
X94953048Y-67016692D01*
X94953048Y-67016692D02*
X94953048Y-66992501D01*
X94953048Y-66992501D02*
X94947001Y-66980406D01*
X94947001Y-66980406D02*
X94934905Y-66974358D01*
X94934905Y-66974358D02*
X94928858Y-66974358D01*
X94928858Y-66974358D02*
X94916762Y-66980406D01*
X94916762Y-66980406D02*
X94910715Y-66992501D01*
X94910715Y-66992501D02*
X94910715Y-67010644D01*
X94910715Y-67010644D02*
X94904667Y-67022739D01*
X94904667Y-67022739D02*
X94892572Y-67028787D01*
X94892572Y-67028787D02*
X94886524Y-67028787D01*
X94886524Y-67028787D02*
X94874429Y-67022739D01*
X94874429Y-67022739D02*
X94868381Y-67010644D01*
X94868381Y-67010644D02*
X94868381Y-66992501D01*
X94868381Y-66992501D02*
X94874429Y-66980406D01*
X94953048Y-66919929D02*
X94868381Y-66919929D01*
X94826048Y-66919929D02*
X94832096Y-66925977D01*
X94832096Y-66925977D02*
X94838143Y-66919929D01*
X94838143Y-66919929D02*
X94832096Y-66913882D01*
X94832096Y-66913882D02*
X94826048Y-66919929D01*
X94826048Y-66919929D02*
X94838143Y-66919929D01*
X94868381Y-66805025D02*
X94971191Y-66805025D01*
X94971191Y-66805025D02*
X94983286Y-66811072D01*
X94983286Y-66811072D02*
X94989334Y-66817120D01*
X94989334Y-66817120D02*
X94995381Y-66829215D01*
X94995381Y-66829215D02*
X94995381Y-66847358D01*
X94995381Y-66847358D02*
X94989334Y-66859453D01*
X94947001Y-66805025D02*
X94953048Y-66817120D01*
X94953048Y-66817120D02*
X94953048Y-66841311D01*
X94953048Y-66841311D02*
X94947001Y-66853406D01*
X94947001Y-66853406D02*
X94940953Y-66859453D01*
X94940953Y-66859453D02*
X94928858Y-66865501D01*
X94928858Y-66865501D02*
X94892572Y-66865501D01*
X94892572Y-66865501D02*
X94880477Y-66859453D01*
X94880477Y-66859453D02*
X94874429Y-66853406D01*
X94874429Y-66853406D02*
X94868381Y-66841311D01*
X94868381Y-66841311D02*
X94868381Y-66817120D01*
X94868381Y-66817120D02*
X94874429Y-66805025D01*
X94868381Y-66744548D02*
X94953048Y-66744548D01*
X94880477Y-66744548D02*
X94874429Y-66738501D01*
X94874429Y-66738501D02*
X94868381Y-66726406D01*
X94868381Y-66726406D02*
X94868381Y-66708263D01*
X94868381Y-66708263D02*
X94874429Y-66696167D01*
X94874429Y-66696167D02*
X94886524Y-66690120D01*
X94886524Y-66690120D02*
X94953048Y-66690120D01*
X94947001Y-66635691D02*
X94953048Y-66623596D01*
X94953048Y-66623596D02*
X94953048Y-66599405D01*
X94953048Y-66599405D02*
X94947001Y-66587310D01*
X94947001Y-66587310D02*
X94934905Y-66581262D01*
X94934905Y-66581262D02*
X94928858Y-66581262D01*
X94928858Y-66581262D02*
X94916762Y-66587310D01*
X94916762Y-66587310D02*
X94910715Y-66599405D01*
X94910715Y-66599405D02*
X94910715Y-66617548D01*
X94910715Y-66617548D02*
X94904667Y-66629643D01*
X94904667Y-66629643D02*
X94892572Y-66635691D01*
X94892572Y-66635691D02*
X94886524Y-66635691D01*
X94886524Y-66635691D02*
X94874429Y-66629643D01*
X94874429Y-66629643D02*
X94868381Y-66617548D01*
X94868381Y-66617548D02*
X94868381Y-66599405D01*
X94868381Y-66599405D02*
X94874429Y-66587310D01*
X94940953Y-66526833D02*
X94947001Y-66520786D01*
X94947001Y-66520786D02*
X94953048Y-66526833D01*
X94953048Y-66526833D02*
X94947001Y-66532881D01*
X94947001Y-66532881D02*
X94940953Y-66526833D01*
X94940953Y-66526833D02*
X94953048Y-66526833D01*
X94916762Y-66375643D02*
X94916762Y-66315167D01*
X94953048Y-66387738D02*
X94826048Y-66345405D01*
X94826048Y-66345405D02*
X94953048Y-66303072D01*
X94953048Y-66242596D02*
X94947001Y-66254691D01*
X94947001Y-66254691D02*
X94934905Y-66260738D01*
X94934905Y-66260738D02*
X94826048Y-66260738D01*
X94953048Y-66176072D02*
X94947001Y-66188167D01*
X94947001Y-66188167D02*
X94934905Y-66194214D01*
X94934905Y-66194214D02*
X94826048Y-66194214D01*
X94953048Y-66030928D02*
X94868381Y-66030928D01*
X94892572Y-66030928D02*
X94880477Y-66024881D01*
X94880477Y-66024881D02*
X94874429Y-66018833D01*
X94874429Y-66018833D02*
X94868381Y-66006738D01*
X94868381Y-66006738D02*
X94868381Y-65994643D01*
X94953048Y-65952309D02*
X94868381Y-65952309D01*
X94826048Y-65952309D02*
X94832096Y-65958357D01*
X94832096Y-65958357D02*
X94838143Y-65952309D01*
X94838143Y-65952309D02*
X94832096Y-65946262D01*
X94832096Y-65946262D02*
X94826048Y-65952309D01*
X94826048Y-65952309D02*
X94838143Y-65952309D01*
X94868381Y-65837405D02*
X94971191Y-65837405D01*
X94971191Y-65837405D02*
X94983286Y-65843452D01*
X94983286Y-65843452D02*
X94989334Y-65849500D01*
X94989334Y-65849500D02*
X94995381Y-65861595D01*
X94995381Y-65861595D02*
X94995381Y-65879738D01*
X94995381Y-65879738D02*
X94989334Y-65891833D01*
X94947001Y-65837405D02*
X94953048Y-65849500D01*
X94953048Y-65849500D02*
X94953048Y-65873691D01*
X94953048Y-65873691D02*
X94947001Y-65885786D01*
X94947001Y-65885786D02*
X94940953Y-65891833D01*
X94940953Y-65891833D02*
X94928858Y-65897881D01*
X94928858Y-65897881D02*
X94892572Y-65897881D01*
X94892572Y-65897881D02*
X94880477Y-65891833D01*
X94880477Y-65891833D02*
X94874429Y-65885786D01*
X94874429Y-65885786D02*
X94868381Y-65873691D01*
X94868381Y-65873691D02*
X94868381Y-65849500D01*
X94868381Y-65849500D02*
X94874429Y-65837405D01*
X94953048Y-65776928D02*
X94826048Y-65776928D01*
X94953048Y-65722500D02*
X94886524Y-65722500D01*
X94886524Y-65722500D02*
X94874429Y-65728547D01*
X94874429Y-65728547D02*
X94868381Y-65740643D01*
X94868381Y-65740643D02*
X94868381Y-65758786D01*
X94868381Y-65758786D02*
X94874429Y-65770881D01*
X94874429Y-65770881D02*
X94880477Y-65776928D01*
X94868381Y-65680166D02*
X94868381Y-65631785D01*
X94826048Y-65662023D02*
X94934905Y-65662023D01*
X94934905Y-65662023D02*
X94947001Y-65655976D01*
X94947001Y-65655976D02*
X94953048Y-65643881D01*
X94953048Y-65643881D02*
X94953048Y-65631785D01*
X94947001Y-65595500D02*
X94953048Y-65583405D01*
X94953048Y-65583405D02*
X94953048Y-65559214D01*
X94953048Y-65559214D02*
X94947001Y-65547119D01*
X94947001Y-65547119D02*
X94934905Y-65541071D01*
X94934905Y-65541071D02*
X94928858Y-65541071D01*
X94928858Y-65541071D02*
X94916762Y-65547119D01*
X94916762Y-65547119D02*
X94910715Y-65559214D01*
X94910715Y-65559214D02*
X94910715Y-65577357D01*
X94910715Y-65577357D02*
X94904667Y-65589452D01*
X94904667Y-65589452D02*
X94892572Y-65595500D01*
X94892572Y-65595500D02*
X94886524Y-65595500D01*
X94886524Y-65595500D02*
X94874429Y-65589452D01*
X94874429Y-65589452D02*
X94868381Y-65577357D01*
X94868381Y-65577357D02*
X94868381Y-65559214D01*
X94868381Y-65559214D02*
X94874429Y-65547119D01*
X94953048Y-65389880D02*
X94868381Y-65389880D01*
X94892572Y-65389880D02*
X94880477Y-65383833D01*
X94880477Y-65383833D02*
X94874429Y-65377785D01*
X94874429Y-65377785D02*
X94868381Y-65365690D01*
X94868381Y-65365690D02*
X94868381Y-65353595D01*
X94947001Y-65262880D02*
X94953048Y-65274976D01*
X94953048Y-65274976D02*
X94953048Y-65299166D01*
X94953048Y-65299166D02*
X94947001Y-65311261D01*
X94947001Y-65311261D02*
X94934905Y-65317309D01*
X94934905Y-65317309D02*
X94886524Y-65317309D01*
X94886524Y-65317309D02*
X94874429Y-65311261D01*
X94874429Y-65311261D02*
X94868381Y-65299166D01*
X94868381Y-65299166D02*
X94868381Y-65274976D01*
X94868381Y-65274976D02*
X94874429Y-65262880D01*
X94874429Y-65262880D02*
X94886524Y-65256833D01*
X94886524Y-65256833D02*
X94898620Y-65256833D01*
X94898620Y-65256833D02*
X94910715Y-65317309D01*
X94947001Y-65208452D02*
X94953048Y-65196357D01*
X94953048Y-65196357D02*
X94953048Y-65172166D01*
X94953048Y-65172166D02*
X94947001Y-65160071D01*
X94947001Y-65160071D02*
X94934905Y-65154023D01*
X94934905Y-65154023D02*
X94928858Y-65154023D01*
X94928858Y-65154023D02*
X94916762Y-65160071D01*
X94916762Y-65160071D02*
X94910715Y-65172166D01*
X94910715Y-65172166D02*
X94910715Y-65190309D01*
X94910715Y-65190309D02*
X94904667Y-65202404D01*
X94904667Y-65202404D02*
X94892572Y-65208452D01*
X94892572Y-65208452D02*
X94886524Y-65208452D01*
X94886524Y-65208452D02*
X94874429Y-65202404D01*
X94874429Y-65202404D02*
X94868381Y-65190309D01*
X94868381Y-65190309D02*
X94868381Y-65172166D01*
X94868381Y-65172166D02*
X94874429Y-65160071D01*
X94947001Y-65051213D02*
X94953048Y-65063309D01*
X94953048Y-65063309D02*
X94953048Y-65087499D01*
X94953048Y-65087499D02*
X94947001Y-65099594D01*
X94947001Y-65099594D02*
X94934905Y-65105642D01*
X94934905Y-65105642D02*
X94886524Y-65105642D01*
X94886524Y-65105642D02*
X94874429Y-65099594D01*
X94874429Y-65099594D02*
X94868381Y-65087499D01*
X94868381Y-65087499D02*
X94868381Y-65063309D01*
X94868381Y-65063309D02*
X94874429Y-65051213D01*
X94874429Y-65051213D02*
X94886524Y-65045166D01*
X94886524Y-65045166D02*
X94898620Y-65045166D01*
X94898620Y-65045166D02*
X94910715Y-65105642D01*
X94953048Y-64990737D02*
X94868381Y-64990737D01*
X94892572Y-64990737D02*
X94880477Y-64984690D01*
X94880477Y-64984690D02*
X94874429Y-64978642D01*
X94874429Y-64978642D02*
X94868381Y-64966547D01*
X94868381Y-64966547D02*
X94868381Y-64954452D01*
X94868381Y-64924214D02*
X94953048Y-64893976D01*
X94953048Y-64893976D02*
X94868381Y-64863737D01*
X94947001Y-64766975D02*
X94953048Y-64779071D01*
X94953048Y-64779071D02*
X94953048Y-64803261D01*
X94953048Y-64803261D02*
X94947001Y-64815356D01*
X94947001Y-64815356D02*
X94934905Y-64821404D01*
X94934905Y-64821404D02*
X94886524Y-64821404D01*
X94886524Y-64821404D02*
X94874429Y-64815356D01*
X94874429Y-64815356D02*
X94868381Y-64803261D01*
X94868381Y-64803261D02*
X94868381Y-64779071D01*
X94868381Y-64779071D02*
X94874429Y-64766975D01*
X94874429Y-64766975D02*
X94886524Y-64760928D01*
X94886524Y-64760928D02*
X94898620Y-64760928D01*
X94898620Y-64760928D02*
X94910715Y-64821404D01*
X94953048Y-64652071D02*
X94826048Y-64652071D01*
X94947001Y-64652071D02*
X94953048Y-64664166D01*
X94953048Y-64664166D02*
X94953048Y-64688357D01*
X94953048Y-64688357D02*
X94947001Y-64700452D01*
X94947001Y-64700452D02*
X94940953Y-64706499D01*
X94940953Y-64706499D02*
X94928858Y-64712547D01*
X94928858Y-64712547D02*
X94892572Y-64712547D01*
X94892572Y-64712547D02*
X94880477Y-64706499D01*
X94880477Y-64706499D02*
X94874429Y-64700452D01*
X94874429Y-64700452D02*
X94868381Y-64688357D01*
X94868381Y-64688357D02*
X94868381Y-64664166D01*
X94868381Y-64664166D02*
X94874429Y-64652071D01*
X94940953Y-64591594D02*
X94947001Y-64585547D01*
X94947001Y-64585547D02*
X94953048Y-64591594D01*
X94953048Y-64591594D02*
X94947001Y-64597642D01*
X94947001Y-64597642D02*
X94940953Y-64591594D01*
X94940953Y-64591594D02*
X94953048Y-64591594D01*
M02*
