%TF.GenerationSoftware,KiCad,Pcbnew,8.0.4*%
%TF.CreationDate,2024-08-07T14:38:44-07:00*%
%TF.ProjectId,scum3c-devboard,7363756d-3363-42d6-9465-76626f617264,rev?*%
%TF.SameCoordinates,Original*%
%TF.FileFunction,Legend,Top*%
%TF.FilePolarity,Positive*%
%FSLAX46Y46*%
G04 Gerber Fmt 4.6, Leading zero omitted, Abs format (unit mm)*
G04 Created by KiCad (PCBNEW 8.0.4) date 2024-08-07 14:38:44*
%MOMM*%
%LPD*%
G01*
G04 APERTURE LIST*
G04 Aperture macros list*
%AMRoundRect*
0 Rectangle with rounded corners*
0 $1 Rounding radius*
0 $2 $3 $4 $5 $6 $7 $8 $9 X,Y pos of 4 corners*
0 Add a 4 corners polygon primitive as box body*
4,1,4,$2,$3,$4,$5,$6,$7,$8,$9,$2,$3,0*
0 Add four circle primitives for the rounded corners*
1,1,$1+$1,$2,$3*
1,1,$1+$1,$4,$5*
1,1,$1+$1,$6,$7*
1,1,$1+$1,$8,$9*
0 Add four rect primitives between the rounded corners*
20,1,$1+$1,$2,$3,$4,$5,0*
20,1,$1+$1,$4,$5,$6,$7,0*
20,1,$1+$1,$6,$7,$8,$9,0*
20,1,$1+$1,$8,$9,$2,$3,0*%
G04 Aperture macros list end*
%ADD10C,0.150000*%
%ADD11C,0.254000*%
%ADD12C,0.100000*%
%ADD13C,0.080000*%
%ADD14C,0.127000*%
%ADD15C,0.101600*%
%ADD16C,0.050800*%
%ADD17C,0.125000*%
%ADD18C,0.015000*%
%ADD19C,0.120000*%
%ADD20O,0.800000X0.200000*%
%ADD21O,0.200000X0.800000*%
%ADD22C,0.568750*%
%ADD23R,1.137500X1.137500*%
%ADD24R,1.700000X1.700000*%
%ADD25O,1.700000X1.700000*%
%ADD26RoundRect,0.147500X0.147500X0.172500X-0.147500X0.172500X-0.147500X-0.172500X0.147500X-0.172500X0*%
%ADD27RoundRect,0.147500X-0.172500X0.147500X-0.172500X-0.147500X0.172500X-0.147500X0.172500X0.147500X0*%
%ADD28RoundRect,0.147500X0.172500X-0.147500X0.172500X0.147500X-0.172500X0.147500X-0.172500X-0.147500X0*%
%ADD29RoundRect,0.147500X-0.147500X-0.172500X0.147500X-0.172500X0.147500X0.172500X-0.147500X0.172500X0*%
%ADD30C,0.762000*%
%ADD31RoundRect,0.050000X0.225000X0.050000X-0.225000X0.050000X-0.225000X-0.050000X0.225000X-0.050000X0*%
%ADD32RoundRect,0.050000X-0.050000X0.225000X-0.050000X-0.225000X0.050000X-0.225000X0.050000X0.225000X0*%
%ADD33C,2.400000*%
%ADD34R,1.900000X0.850000*%
%ADD35R,0.500000X0.300000*%
%ADD36C,1.574800*%
G04 APERTURE END LIST*
D10*
X116713000Y-84074000D02*
G75*
G02*
X113411000Y-84074000I-1651000J0D01*
G01*
X113411000Y-84074000D02*
G75*
G02*
X116713000Y-84074000I1651000J0D01*
G01*
X80645000Y-84074000D02*
G75*
G02*
X77343000Y-84074000I-1651000J0D01*
G01*
X77343000Y-84074000D02*
G75*
G02*
X80645000Y-84074000I1651000J0D01*
G01*
X116713000Y-53594000D02*
G75*
G02*
X113411000Y-53594000I-1651000J0D01*
G01*
X113411000Y-53594000D02*
G75*
G02*
X116713000Y-53594000I1651000J0D01*
G01*
X80645000Y-53594000D02*
G75*
G02*
X77343000Y-53594000I-1651000J0D01*
G01*
X77343000Y-53594000D02*
G75*
G02*
X80645000Y-53594000I1651000J0D01*
G01*
D11*
X81407000Y-79248000D02*
G75*
G02*
X81153000Y-79248000I-127000J0D01*
G01*
X81153000Y-79248000D02*
G75*
G02*
X81407000Y-79248000I127000J0D01*
G01*
X85725000Y-61214000D02*
G75*
G02*
X85471000Y-61214000I-127000J0D01*
G01*
X85471000Y-61214000D02*
G75*
G02*
X85725000Y-61214000I127000J0D01*
G01*
X81661000Y-62738000D02*
G75*
G02*
X81407000Y-62738000I-127000J0D01*
G01*
X81407000Y-62738000D02*
G75*
G02*
X81661000Y-62738000I127000J0D01*
G01*
D12*
X116018572Y-57257109D02*
X116185238Y-57757109D01*
X116185238Y-57757109D02*
X116351905Y-57257109D01*
X116685238Y-57495204D02*
X116756666Y-57519014D01*
X116756666Y-57519014D02*
X116780476Y-57542823D01*
X116780476Y-57542823D02*
X116804285Y-57590442D01*
X116804285Y-57590442D02*
X116804285Y-57661871D01*
X116804285Y-57661871D02*
X116780476Y-57709490D01*
X116780476Y-57709490D02*
X116756666Y-57733300D01*
X116756666Y-57733300D02*
X116709047Y-57757109D01*
X116709047Y-57757109D02*
X116518571Y-57757109D01*
X116518571Y-57757109D02*
X116518571Y-57257109D01*
X116518571Y-57257109D02*
X116685238Y-57257109D01*
X116685238Y-57257109D02*
X116732857Y-57280919D01*
X116732857Y-57280919D02*
X116756666Y-57304728D01*
X116756666Y-57304728D02*
X116780476Y-57352347D01*
X116780476Y-57352347D02*
X116780476Y-57399966D01*
X116780476Y-57399966D02*
X116756666Y-57447585D01*
X116756666Y-57447585D02*
X116732857Y-57471395D01*
X116732857Y-57471395D02*
X116685238Y-57495204D01*
X116685238Y-57495204D02*
X116518571Y-57495204D01*
X116994762Y-57614252D02*
X117232857Y-57614252D01*
X116947143Y-57757109D02*
X117113809Y-57257109D01*
X117113809Y-57257109D02*
X117280476Y-57757109D01*
X117375714Y-57257109D02*
X117661428Y-57257109D01*
X117518571Y-57757109D02*
X117518571Y-57257109D01*
X116459047Y-80140919D02*
X116411428Y-80117109D01*
X116411428Y-80117109D02*
X116339999Y-80117109D01*
X116339999Y-80117109D02*
X116268571Y-80140919D01*
X116268571Y-80140919D02*
X116220952Y-80188538D01*
X116220952Y-80188538D02*
X116197142Y-80236157D01*
X116197142Y-80236157D02*
X116173333Y-80331395D01*
X116173333Y-80331395D02*
X116173333Y-80402823D01*
X116173333Y-80402823D02*
X116197142Y-80498061D01*
X116197142Y-80498061D02*
X116220952Y-80545680D01*
X116220952Y-80545680D02*
X116268571Y-80593300D01*
X116268571Y-80593300D02*
X116339999Y-80617109D01*
X116339999Y-80617109D02*
X116387618Y-80617109D01*
X116387618Y-80617109D02*
X116459047Y-80593300D01*
X116459047Y-80593300D02*
X116482856Y-80569490D01*
X116482856Y-80569490D02*
X116482856Y-80402823D01*
X116482856Y-80402823D02*
X116387618Y-80402823D01*
X116697142Y-80617109D02*
X116697142Y-80117109D01*
X116697142Y-80117109D02*
X116982856Y-80617109D01*
X116982856Y-80617109D02*
X116982856Y-80117109D01*
X117220952Y-80617109D02*
X117220952Y-80117109D01*
X117220952Y-80117109D02*
X117340000Y-80117109D01*
X117340000Y-80117109D02*
X117411428Y-80140919D01*
X117411428Y-80140919D02*
X117459047Y-80188538D01*
X117459047Y-80188538D02*
X117482857Y-80236157D01*
X117482857Y-80236157D02*
X117506666Y-80331395D01*
X117506666Y-80331395D02*
X117506666Y-80402823D01*
X117506666Y-80402823D02*
X117482857Y-80498061D01*
X117482857Y-80498061D02*
X117459047Y-80545680D01*
X117459047Y-80545680D02*
X117411428Y-80593300D01*
X117411428Y-80593300D02*
X117340000Y-80617109D01*
X117340000Y-80617109D02*
X117220952Y-80617109D01*
X87570395Y-79930618D02*
X87546585Y-79978237D01*
X87546585Y-79978237D02*
X87522776Y-80002047D01*
X87522776Y-80002047D02*
X87475157Y-80025856D01*
X87475157Y-80025856D02*
X87451347Y-80025856D01*
X87451347Y-80025856D02*
X87403728Y-80002047D01*
X87403728Y-80002047D02*
X87379919Y-79978237D01*
X87379919Y-79978237D02*
X87356109Y-79930618D01*
X87356109Y-79930618D02*
X87356109Y-79835380D01*
X87356109Y-79835380D02*
X87379919Y-79787761D01*
X87379919Y-79787761D02*
X87403728Y-79763952D01*
X87403728Y-79763952D02*
X87451347Y-79740142D01*
X87451347Y-79740142D02*
X87475157Y-79740142D01*
X87475157Y-79740142D02*
X87522776Y-79763952D01*
X87522776Y-79763952D02*
X87546585Y-79787761D01*
X87546585Y-79787761D02*
X87570395Y-79835380D01*
X87570395Y-79835380D02*
X87570395Y-79930618D01*
X87570395Y-79930618D02*
X87594204Y-79978237D01*
X87594204Y-79978237D02*
X87618014Y-80002047D01*
X87618014Y-80002047D02*
X87665633Y-80025856D01*
X87665633Y-80025856D02*
X87760871Y-80025856D01*
X87760871Y-80025856D02*
X87808490Y-80002047D01*
X87808490Y-80002047D02*
X87832300Y-79978237D01*
X87832300Y-79978237D02*
X87856109Y-79930618D01*
X87856109Y-79930618D02*
X87856109Y-79835380D01*
X87856109Y-79835380D02*
X87832300Y-79787761D01*
X87832300Y-79787761D02*
X87808490Y-79763952D01*
X87808490Y-79763952D02*
X87760871Y-79740142D01*
X87760871Y-79740142D02*
X87665633Y-79740142D01*
X87665633Y-79740142D02*
X87618014Y-79763952D01*
X87618014Y-79763952D02*
X87594204Y-79787761D01*
X87594204Y-79787761D02*
X87570395Y-79835380D01*
X97682776Y-86137761D02*
X98016109Y-86137761D01*
X97492300Y-86256809D02*
X97849442Y-86375856D01*
X97849442Y-86375856D02*
X97849442Y-86066333D01*
X90396109Y-79978237D02*
X90396109Y-79882999D01*
X90396109Y-79882999D02*
X90372300Y-79835380D01*
X90372300Y-79835380D02*
X90348490Y-79811571D01*
X90348490Y-79811571D02*
X90277061Y-79763952D01*
X90277061Y-79763952D02*
X90181823Y-79740142D01*
X90181823Y-79740142D02*
X89991347Y-79740142D01*
X89991347Y-79740142D02*
X89943728Y-79763952D01*
X89943728Y-79763952D02*
X89919919Y-79787761D01*
X89919919Y-79787761D02*
X89896109Y-79835380D01*
X89896109Y-79835380D02*
X89896109Y-79930618D01*
X89896109Y-79930618D02*
X89919919Y-79978237D01*
X89919919Y-79978237D02*
X89943728Y-80002047D01*
X89943728Y-80002047D02*
X89991347Y-80025856D01*
X89991347Y-80025856D02*
X90110395Y-80025856D01*
X90110395Y-80025856D02*
X90158014Y-80002047D01*
X90158014Y-80002047D02*
X90181823Y-79978237D01*
X90181823Y-79978237D02*
X90205633Y-79930618D01*
X90205633Y-79930618D02*
X90205633Y-79835380D01*
X90205633Y-79835380D02*
X90181823Y-79787761D01*
X90181823Y-79787761D02*
X90158014Y-79763952D01*
X90158014Y-79763952D02*
X90110395Y-79740142D01*
X92936109Y-79978237D02*
X92936109Y-80263951D01*
X92936109Y-80121094D02*
X92436109Y-80121094D01*
X92436109Y-80121094D02*
X92507538Y-80168713D01*
X92507538Y-80168713D02*
X92555157Y-80216332D01*
X92555157Y-80216332D02*
X92578966Y-80263951D01*
X92436109Y-79668714D02*
X92436109Y-79621095D01*
X92436109Y-79621095D02*
X92459919Y-79573476D01*
X92459919Y-79573476D02*
X92483728Y-79549666D01*
X92483728Y-79549666D02*
X92531347Y-79525857D01*
X92531347Y-79525857D02*
X92626585Y-79502047D01*
X92626585Y-79502047D02*
X92745633Y-79502047D01*
X92745633Y-79502047D02*
X92840871Y-79525857D01*
X92840871Y-79525857D02*
X92888490Y-79549666D01*
X92888490Y-79549666D02*
X92912300Y-79573476D01*
X92912300Y-79573476D02*
X92936109Y-79621095D01*
X92936109Y-79621095D02*
X92936109Y-79668714D01*
X92936109Y-79668714D02*
X92912300Y-79716333D01*
X92912300Y-79716333D02*
X92888490Y-79740142D01*
X92888490Y-79740142D02*
X92840871Y-79763952D01*
X92840871Y-79763952D02*
X92745633Y-79787761D01*
X92745633Y-79787761D02*
X92626585Y-79787761D01*
X92626585Y-79787761D02*
X92531347Y-79763952D01*
X92531347Y-79763952D02*
X92483728Y-79740142D01*
X92483728Y-79740142D02*
X92459919Y-79716333D01*
X92459919Y-79716333D02*
X92436109Y-79668714D01*
X90396109Y-86090142D02*
X90396109Y-86375856D01*
X90396109Y-86232999D02*
X89896109Y-86232999D01*
X89896109Y-86232999D02*
X89967538Y-86280618D01*
X89967538Y-86280618D02*
X90015157Y-86328237D01*
X90015157Y-86328237D02*
X90038966Y-86375856D01*
X100056109Y-86113952D02*
X100056109Y-86352047D01*
X100056109Y-86352047D02*
X100294204Y-86375856D01*
X100294204Y-86375856D02*
X100270395Y-86352047D01*
X100270395Y-86352047D02*
X100246585Y-86304428D01*
X100246585Y-86304428D02*
X100246585Y-86185380D01*
X100246585Y-86185380D02*
X100270395Y-86137761D01*
X100270395Y-86137761D02*
X100294204Y-86113952D01*
X100294204Y-86113952D02*
X100341823Y-86090142D01*
X100341823Y-86090142D02*
X100460871Y-86090142D01*
X100460871Y-86090142D02*
X100508490Y-86113952D01*
X100508490Y-86113952D02*
X100532300Y-86137761D01*
X100532300Y-86137761D02*
X100556109Y-86185380D01*
X100556109Y-86185380D02*
X100556109Y-86304428D01*
X100556109Y-86304428D02*
X100532300Y-86352047D01*
X100532300Y-86352047D02*
X100508490Y-86375856D01*
X105136109Y-86399666D02*
X105136109Y-86066333D01*
X105136109Y-86066333D02*
X105636109Y-86280618D01*
X92483728Y-86375856D02*
X92459919Y-86352047D01*
X92459919Y-86352047D02*
X92436109Y-86304428D01*
X92436109Y-86304428D02*
X92436109Y-86185380D01*
X92436109Y-86185380D02*
X92459919Y-86137761D01*
X92459919Y-86137761D02*
X92483728Y-86113952D01*
X92483728Y-86113952D02*
X92531347Y-86090142D01*
X92531347Y-86090142D02*
X92578966Y-86090142D01*
X92578966Y-86090142D02*
X92650395Y-86113952D01*
X92650395Y-86113952D02*
X92936109Y-86399666D01*
X92936109Y-86399666D02*
X92936109Y-86090142D01*
X102596109Y-86137761D02*
X102596109Y-86232999D01*
X102596109Y-86232999D02*
X102619919Y-86280618D01*
X102619919Y-86280618D02*
X102643728Y-86304428D01*
X102643728Y-86304428D02*
X102715157Y-86352047D01*
X102715157Y-86352047D02*
X102810395Y-86375856D01*
X102810395Y-86375856D02*
X103000871Y-86375856D01*
X103000871Y-86375856D02*
X103048490Y-86352047D01*
X103048490Y-86352047D02*
X103072300Y-86328237D01*
X103072300Y-86328237D02*
X103096109Y-86280618D01*
X103096109Y-86280618D02*
X103096109Y-86185380D01*
X103096109Y-86185380D02*
X103072300Y-86137761D01*
X103072300Y-86137761D02*
X103048490Y-86113952D01*
X103048490Y-86113952D02*
X103000871Y-86090142D01*
X103000871Y-86090142D02*
X102881823Y-86090142D01*
X102881823Y-86090142D02*
X102834204Y-86113952D01*
X102834204Y-86113952D02*
X102810395Y-86137761D01*
X102810395Y-86137761D02*
X102786585Y-86185380D01*
X102786585Y-86185380D02*
X102786585Y-86280618D01*
X102786585Y-86280618D02*
X102810395Y-86328237D01*
X102810395Y-86328237D02*
X102834204Y-86352047D01*
X102834204Y-86352047D02*
X102881823Y-86375856D01*
X87356109Y-86256809D02*
X87356109Y-86209190D01*
X87356109Y-86209190D02*
X87379919Y-86161571D01*
X87379919Y-86161571D02*
X87403728Y-86137761D01*
X87403728Y-86137761D02*
X87451347Y-86113952D01*
X87451347Y-86113952D02*
X87546585Y-86090142D01*
X87546585Y-86090142D02*
X87665633Y-86090142D01*
X87665633Y-86090142D02*
X87760871Y-86113952D01*
X87760871Y-86113952D02*
X87808490Y-86137761D01*
X87808490Y-86137761D02*
X87832300Y-86161571D01*
X87832300Y-86161571D02*
X87856109Y-86209190D01*
X87856109Y-86209190D02*
X87856109Y-86256809D01*
X87856109Y-86256809D02*
X87832300Y-86304428D01*
X87832300Y-86304428D02*
X87808490Y-86328237D01*
X87808490Y-86328237D02*
X87760871Y-86352047D01*
X87760871Y-86352047D02*
X87665633Y-86375856D01*
X87665633Y-86375856D02*
X87546585Y-86375856D01*
X87546585Y-86375856D02*
X87451347Y-86352047D01*
X87451347Y-86352047D02*
X87403728Y-86328237D01*
X87403728Y-86328237D02*
X87379919Y-86304428D01*
X87379919Y-86304428D02*
X87356109Y-86256809D01*
X105636109Y-79978237D02*
X105636109Y-80263951D01*
X105636109Y-80121094D02*
X105136109Y-80121094D01*
X105136109Y-80121094D02*
X105207538Y-80168713D01*
X105207538Y-80168713D02*
X105255157Y-80216332D01*
X105255157Y-80216332D02*
X105278966Y-80263951D01*
X105136109Y-79525857D02*
X105136109Y-79763952D01*
X105136109Y-79763952D02*
X105374204Y-79787761D01*
X105374204Y-79787761D02*
X105350395Y-79763952D01*
X105350395Y-79763952D02*
X105326585Y-79716333D01*
X105326585Y-79716333D02*
X105326585Y-79597285D01*
X105326585Y-79597285D02*
X105350395Y-79549666D01*
X105350395Y-79549666D02*
X105374204Y-79525857D01*
X105374204Y-79525857D02*
X105421823Y-79502047D01*
X105421823Y-79502047D02*
X105540871Y-79502047D01*
X105540871Y-79502047D02*
X105588490Y-79525857D01*
X105588490Y-79525857D02*
X105612300Y-79549666D01*
X105612300Y-79549666D02*
X105636109Y-79597285D01*
X105636109Y-79597285D02*
X105636109Y-79716333D01*
X105636109Y-79716333D02*
X105612300Y-79763952D01*
X105612300Y-79763952D02*
X105588490Y-79787761D01*
X82170942Y-83649999D02*
X82142371Y-83707142D01*
X82142371Y-83707142D02*
X82142371Y-83792856D01*
X82142371Y-83792856D02*
X82170942Y-83878570D01*
X82170942Y-83878570D02*
X82228085Y-83935713D01*
X82228085Y-83935713D02*
X82285228Y-83964284D01*
X82285228Y-83964284D02*
X82399514Y-83992856D01*
X82399514Y-83992856D02*
X82485228Y-83992856D01*
X82485228Y-83992856D02*
X82599514Y-83964284D01*
X82599514Y-83964284D02*
X82656657Y-83935713D01*
X82656657Y-83935713D02*
X82713800Y-83878570D01*
X82713800Y-83878570D02*
X82742371Y-83792856D01*
X82742371Y-83792856D02*
X82742371Y-83735713D01*
X82742371Y-83735713D02*
X82713800Y-83649999D01*
X82713800Y-83649999D02*
X82685228Y-83621427D01*
X82685228Y-83621427D02*
X82485228Y-83621427D01*
X82485228Y-83621427D02*
X82485228Y-83735713D01*
X82742371Y-83364284D02*
X82142371Y-83364284D01*
X82142371Y-83364284D02*
X82142371Y-83135713D01*
X82142371Y-83135713D02*
X82170942Y-83078570D01*
X82170942Y-83078570D02*
X82199514Y-83049999D01*
X82199514Y-83049999D02*
X82256657Y-83021427D01*
X82256657Y-83021427D02*
X82342371Y-83021427D01*
X82342371Y-83021427D02*
X82399514Y-83049999D01*
X82399514Y-83049999D02*
X82428085Y-83078570D01*
X82428085Y-83078570D02*
X82456657Y-83135713D01*
X82456657Y-83135713D02*
X82456657Y-83364284D01*
X82742371Y-82764284D02*
X82142371Y-82764284D01*
X82142371Y-82364285D02*
X82142371Y-82249999D01*
X82142371Y-82249999D02*
X82170942Y-82192856D01*
X82170942Y-82192856D02*
X82228085Y-82135713D01*
X82228085Y-82135713D02*
X82342371Y-82107142D01*
X82342371Y-82107142D02*
X82542371Y-82107142D01*
X82542371Y-82107142D02*
X82656657Y-82135713D01*
X82656657Y-82135713D02*
X82713800Y-82192856D01*
X82713800Y-82192856D02*
X82742371Y-82249999D01*
X82742371Y-82249999D02*
X82742371Y-82364285D01*
X82742371Y-82364285D02*
X82713800Y-82421428D01*
X82713800Y-82421428D02*
X82656657Y-82478570D01*
X82656657Y-82478570D02*
X82542371Y-82507142D01*
X82542371Y-82507142D02*
X82342371Y-82507142D01*
X82342371Y-82507142D02*
X82228085Y-82478570D01*
X82228085Y-82478570D02*
X82170942Y-82421428D01*
X82170942Y-82421428D02*
X82142371Y-82364285D01*
D13*
X106727714Y-51592374D02*
X106784857Y-51611422D01*
X106784857Y-51611422D02*
X106803904Y-51630470D01*
X106803904Y-51630470D02*
X106822952Y-51668565D01*
X106822952Y-51668565D02*
X106822952Y-51725708D01*
X106822952Y-51725708D02*
X106803904Y-51763803D01*
X106803904Y-51763803D02*
X106784857Y-51782851D01*
X106784857Y-51782851D02*
X106746762Y-51801898D01*
X106746762Y-51801898D02*
X106594381Y-51801898D01*
X106594381Y-51801898D02*
X106594381Y-51401898D01*
X106594381Y-51401898D02*
X106727714Y-51401898D01*
X106727714Y-51401898D02*
X106765809Y-51420946D01*
X106765809Y-51420946D02*
X106784857Y-51439993D01*
X106784857Y-51439993D02*
X106803904Y-51478089D01*
X106803904Y-51478089D02*
X106803904Y-51516184D01*
X106803904Y-51516184D02*
X106784857Y-51554279D01*
X106784857Y-51554279D02*
X106765809Y-51573327D01*
X106765809Y-51573327D02*
X106727714Y-51592374D01*
X106727714Y-51592374D02*
X106594381Y-51592374D01*
X106937238Y-51401898D02*
X107165809Y-51401898D01*
X107051523Y-51801898D02*
X107051523Y-51401898D01*
X107280095Y-51782851D02*
X107337238Y-51801898D01*
X107337238Y-51801898D02*
X107432476Y-51801898D01*
X107432476Y-51801898D02*
X107470571Y-51782851D01*
X107470571Y-51782851D02*
X107489619Y-51763803D01*
X107489619Y-51763803D02*
X107508666Y-51725708D01*
X107508666Y-51725708D02*
X107508666Y-51687612D01*
X107508666Y-51687612D02*
X107489619Y-51649517D01*
X107489619Y-51649517D02*
X107470571Y-51630470D01*
X107470571Y-51630470D02*
X107432476Y-51611422D01*
X107432476Y-51611422D02*
X107356285Y-51592374D01*
X107356285Y-51592374D02*
X107318190Y-51573327D01*
X107318190Y-51573327D02*
X107299143Y-51554279D01*
X107299143Y-51554279D02*
X107280095Y-51516184D01*
X107280095Y-51516184D02*
X107280095Y-51478089D01*
X107280095Y-51478089D02*
X107299143Y-51439993D01*
X107299143Y-51439993D02*
X107318190Y-51420946D01*
X107318190Y-51420946D02*
X107356285Y-51401898D01*
X107356285Y-51401898D02*
X107451524Y-51401898D01*
X107451524Y-51401898D02*
X107508666Y-51420946D01*
X107908666Y-51801898D02*
X107775333Y-51611422D01*
X107680095Y-51801898D02*
X107680095Y-51401898D01*
X107680095Y-51401898D02*
X107832476Y-51401898D01*
X107832476Y-51401898D02*
X107870571Y-51420946D01*
X107870571Y-51420946D02*
X107889618Y-51439993D01*
X107889618Y-51439993D02*
X107908666Y-51478089D01*
X107908666Y-51478089D02*
X107908666Y-51535231D01*
X107908666Y-51535231D02*
X107889618Y-51573327D01*
X107889618Y-51573327D02*
X107870571Y-51592374D01*
X107870571Y-51592374D02*
X107832476Y-51611422D01*
X107832476Y-51611422D02*
X107680095Y-51611422D01*
X108308666Y-51763803D02*
X108289618Y-51782851D01*
X108289618Y-51782851D02*
X108232476Y-51801898D01*
X108232476Y-51801898D02*
X108194380Y-51801898D01*
X108194380Y-51801898D02*
X108137237Y-51782851D01*
X108137237Y-51782851D02*
X108099142Y-51744755D01*
X108099142Y-51744755D02*
X108080095Y-51706660D01*
X108080095Y-51706660D02*
X108061047Y-51630470D01*
X108061047Y-51630470D02*
X108061047Y-51573327D01*
X108061047Y-51573327D02*
X108080095Y-51497136D01*
X108080095Y-51497136D02*
X108099142Y-51459041D01*
X108099142Y-51459041D02*
X108137237Y-51420946D01*
X108137237Y-51420946D02*
X108194380Y-51401898D01*
X108194380Y-51401898D02*
X108232476Y-51401898D01*
X108232476Y-51401898D02*
X108289618Y-51420946D01*
X108289618Y-51420946D02*
X108308666Y-51439993D01*
X106984857Y-52426829D02*
X107042000Y-52445876D01*
X107042000Y-52445876D02*
X107137238Y-52445876D01*
X107137238Y-52445876D02*
X107175333Y-52426829D01*
X107175333Y-52426829D02*
X107194381Y-52407781D01*
X107194381Y-52407781D02*
X107213428Y-52369686D01*
X107213428Y-52369686D02*
X107213428Y-52331590D01*
X107213428Y-52331590D02*
X107194381Y-52293495D01*
X107194381Y-52293495D02*
X107175333Y-52274448D01*
X107175333Y-52274448D02*
X107137238Y-52255400D01*
X107137238Y-52255400D02*
X107061047Y-52236352D01*
X107061047Y-52236352D02*
X107022952Y-52217305D01*
X107022952Y-52217305D02*
X107003905Y-52198257D01*
X107003905Y-52198257D02*
X106984857Y-52160162D01*
X106984857Y-52160162D02*
X106984857Y-52122067D01*
X106984857Y-52122067D02*
X107003905Y-52083971D01*
X107003905Y-52083971D02*
X107022952Y-52064924D01*
X107022952Y-52064924D02*
X107061047Y-52045876D01*
X107061047Y-52045876D02*
X107156286Y-52045876D01*
X107156286Y-52045876D02*
X107213428Y-52064924D01*
X107384857Y-52236352D02*
X107518190Y-52236352D01*
X107575333Y-52445876D02*
X107384857Y-52445876D01*
X107384857Y-52445876D02*
X107384857Y-52045876D01*
X107384857Y-52045876D02*
X107575333Y-52045876D01*
X107937238Y-52445876D02*
X107746762Y-52445876D01*
X107746762Y-52445876D02*
X107746762Y-52045876D01*
D12*
X95476109Y-79978237D02*
X95476109Y-80263951D01*
X95476109Y-80121094D02*
X94976109Y-80121094D01*
X94976109Y-80121094D02*
X95047538Y-80168713D01*
X95047538Y-80168713D02*
X95095157Y-80216332D01*
X95095157Y-80216332D02*
X95118966Y-80263951D01*
X95476109Y-79502047D02*
X95476109Y-79787761D01*
X95476109Y-79644904D02*
X94976109Y-79644904D01*
X94976109Y-79644904D02*
X95047538Y-79692523D01*
X95047538Y-79692523D02*
X95095157Y-79740142D01*
X95095157Y-79740142D02*
X95118966Y-79787761D01*
X116232857Y-59640623D02*
X116232857Y-59140623D01*
X116232857Y-59140623D02*
X116518571Y-59640623D01*
X116518571Y-59640623D02*
X116518571Y-59140623D01*
X117042381Y-59640623D02*
X116875715Y-59402528D01*
X116756667Y-59640623D02*
X116756667Y-59140623D01*
X116756667Y-59140623D02*
X116947143Y-59140623D01*
X116947143Y-59140623D02*
X116994762Y-59164433D01*
X116994762Y-59164433D02*
X117018572Y-59188242D01*
X117018572Y-59188242D02*
X117042381Y-59235861D01*
X117042381Y-59235861D02*
X117042381Y-59307290D01*
X117042381Y-59307290D02*
X117018572Y-59354909D01*
X117018572Y-59354909D02*
X116994762Y-59378718D01*
X116994762Y-59378718D02*
X116947143Y-59402528D01*
X116947143Y-59402528D02*
X116756667Y-59402528D01*
X117423334Y-59378718D02*
X117256667Y-59378718D01*
X117256667Y-59640623D02*
X117256667Y-59140623D01*
X117256667Y-59140623D02*
X117494762Y-59140623D01*
X115923334Y-59945595D02*
X116090000Y-60445595D01*
X116090000Y-60445595D02*
X116256667Y-59945595D01*
X116423333Y-60445595D02*
X116423333Y-59945595D01*
X116423333Y-59945595D02*
X116542381Y-59945595D01*
X116542381Y-59945595D02*
X116613809Y-59969405D01*
X116613809Y-59969405D02*
X116661428Y-60017024D01*
X116661428Y-60017024D02*
X116685238Y-60064643D01*
X116685238Y-60064643D02*
X116709047Y-60159881D01*
X116709047Y-60159881D02*
X116709047Y-60231309D01*
X116709047Y-60231309D02*
X116685238Y-60326547D01*
X116685238Y-60326547D02*
X116661428Y-60374166D01*
X116661428Y-60374166D02*
X116613809Y-60421786D01*
X116613809Y-60421786D02*
X116542381Y-60445595D01*
X116542381Y-60445595D02*
X116423333Y-60445595D01*
X116923333Y-60445595D02*
X116923333Y-59945595D01*
X116923333Y-59945595D02*
X117042381Y-59945595D01*
X117042381Y-59945595D02*
X117113809Y-59969405D01*
X117113809Y-59969405D02*
X117161428Y-60017024D01*
X117161428Y-60017024D02*
X117185238Y-60064643D01*
X117185238Y-60064643D02*
X117209047Y-60159881D01*
X117209047Y-60159881D02*
X117209047Y-60231309D01*
X117209047Y-60231309D02*
X117185238Y-60326547D01*
X117185238Y-60326547D02*
X117161428Y-60374166D01*
X117161428Y-60374166D02*
X117113809Y-60421786D01*
X117113809Y-60421786D02*
X117042381Y-60445595D01*
X117042381Y-60445595D02*
X116923333Y-60445595D01*
X117423333Y-60445595D02*
X117423333Y-59945595D01*
X117423333Y-59945595D02*
X117542381Y-59945595D01*
X117542381Y-59945595D02*
X117613809Y-59969405D01*
X117613809Y-59969405D02*
X117661428Y-60017024D01*
X117661428Y-60017024D02*
X117685238Y-60064643D01*
X117685238Y-60064643D02*
X117709047Y-60159881D01*
X117709047Y-60159881D02*
X117709047Y-60231309D01*
X117709047Y-60231309D02*
X117685238Y-60326547D01*
X117685238Y-60326547D02*
X117661428Y-60374166D01*
X117661428Y-60374166D02*
X117613809Y-60421786D01*
X117613809Y-60421786D02*
X117542381Y-60445595D01*
X117542381Y-60445595D02*
X117423333Y-60445595D01*
X103802381Y-51926109D02*
X103969047Y-52426109D01*
X103969047Y-52426109D02*
X104135714Y-51926109D01*
X104302380Y-52426109D02*
X104302380Y-51926109D01*
X104302380Y-51926109D02*
X104421428Y-51926109D01*
X104421428Y-51926109D02*
X104492856Y-51949919D01*
X104492856Y-51949919D02*
X104540475Y-51997538D01*
X104540475Y-51997538D02*
X104564285Y-52045157D01*
X104564285Y-52045157D02*
X104588094Y-52140395D01*
X104588094Y-52140395D02*
X104588094Y-52211823D01*
X104588094Y-52211823D02*
X104564285Y-52307061D01*
X104564285Y-52307061D02*
X104540475Y-52354680D01*
X104540475Y-52354680D02*
X104492856Y-52402300D01*
X104492856Y-52402300D02*
X104421428Y-52426109D01*
X104421428Y-52426109D02*
X104302380Y-52426109D01*
X104802380Y-52426109D02*
X104802380Y-51926109D01*
X104802380Y-51926109D02*
X104921428Y-51926109D01*
X104921428Y-51926109D02*
X104992856Y-51949919D01*
X104992856Y-51949919D02*
X105040475Y-51997538D01*
X105040475Y-51997538D02*
X105064285Y-52045157D01*
X105064285Y-52045157D02*
X105088094Y-52140395D01*
X105088094Y-52140395D02*
X105088094Y-52211823D01*
X105088094Y-52211823D02*
X105064285Y-52307061D01*
X105064285Y-52307061D02*
X105040475Y-52354680D01*
X105040475Y-52354680D02*
X104992856Y-52402300D01*
X104992856Y-52402300D02*
X104921428Y-52426109D01*
X104921428Y-52426109D02*
X104802380Y-52426109D01*
X105302380Y-52426109D02*
X105302380Y-51926109D01*
X105635713Y-51926109D02*
X105730951Y-51926109D01*
X105730951Y-51926109D02*
X105778570Y-51949919D01*
X105778570Y-51949919D02*
X105826189Y-51997538D01*
X105826189Y-51997538D02*
X105849999Y-52092776D01*
X105849999Y-52092776D02*
X105849999Y-52259442D01*
X105849999Y-52259442D02*
X105826189Y-52354680D01*
X105826189Y-52354680D02*
X105778570Y-52402300D01*
X105778570Y-52402300D02*
X105730951Y-52426109D01*
X105730951Y-52426109D02*
X105635713Y-52426109D01*
X105635713Y-52426109D02*
X105588094Y-52402300D01*
X105588094Y-52402300D02*
X105540475Y-52354680D01*
X105540475Y-52354680D02*
X105516666Y-52259442D01*
X105516666Y-52259442D02*
X105516666Y-52092776D01*
X105516666Y-52092776D02*
X105540475Y-51997538D01*
X105540475Y-51997538D02*
X105588094Y-51949919D01*
X105588094Y-51949919D02*
X105635713Y-51926109D01*
X84089047Y-51719919D02*
X84041428Y-51696109D01*
X84041428Y-51696109D02*
X83969999Y-51696109D01*
X83969999Y-51696109D02*
X83898571Y-51719919D01*
X83898571Y-51719919D02*
X83850952Y-51767538D01*
X83850952Y-51767538D02*
X83827142Y-51815157D01*
X83827142Y-51815157D02*
X83803333Y-51910395D01*
X83803333Y-51910395D02*
X83803333Y-51981823D01*
X83803333Y-51981823D02*
X83827142Y-52077061D01*
X83827142Y-52077061D02*
X83850952Y-52124680D01*
X83850952Y-52124680D02*
X83898571Y-52172300D01*
X83898571Y-52172300D02*
X83969999Y-52196109D01*
X83969999Y-52196109D02*
X84017618Y-52196109D01*
X84017618Y-52196109D02*
X84089047Y-52172300D01*
X84089047Y-52172300D02*
X84112856Y-52148490D01*
X84112856Y-52148490D02*
X84112856Y-51981823D01*
X84112856Y-51981823D02*
X84017618Y-51981823D01*
X84327142Y-52196109D02*
X84327142Y-51696109D01*
X84327142Y-51696109D02*
X84612856Y-52196109D01*
X84612856Y-52196109D02*
X84612856Y-51696109D01*
X84850952Y-52196109D02*
X84850952Y-51696109D01*
X84850952Y-51696109D02*
X84970000Y-51696109D01*
X84970000Y-51696109D02*
X85041428Y-51719919D01*
X85041428Y-51719919D02*
X85089047Y-51767538D01*
X85089047Y-51767538D02*
X85112857Y-51815157D01*
X85112857Y-51815157D02*
X85136666Y-51910395D01*
X85136666Y-51910395D02*
X85136666Y-51981823D01*
X85136666Y-51981823D02*
X85112857Y-52077061D01*
X85112857Y-52077061D02*
X85089047Y-52124680D01*
X85089047Y-52124680D02*
X85041428Y-52172300D01*
X85041428Y-52172300D02*
X84970000Y-52196109D01*
X84970000Y-52196109D02*
X84850952Y-52196109D01*
D13*
X116164286Y-72638898D02*
X116164286Y-72238898D01*
X116164286Y-72429374D02*
X116392857Y-72429374D01*
X116392857Y-72638898D02*
X116392857Y-72238898D01*
X116564286Y-72524612D02*
X116754762Y-72524612D01*
X116526191Y-72638898D02*
X116659524Y-72238898D01*
X116659524Y-72238898D02*
X116792857Y-72638898D01*
X117154762Y-72638898D02*
X117021429Y-72448422D01*
X116926191Y-72638898D02*
X116926191Y-72238898D01*
X116926191Y-72238898D02*
X117078572Y-72238898D01*
X117078572Y-72238898D02*
X117116667Y-72257946D01*
X117116667Y-72257946D02*
X117135714Y-72276993D01*
X117135714Y-72276993D02*
X117154762Y-72315089D01*
X117154762Y-72315089D02*
X117154762Y-72372231D01*
X117154762Y-72372231D02*
X117135714Y-72410327D01*
X117135714Y-72410327D02*
X117116667Y-72429374D01*
X117116667Y-72429374D02*
X117078572Y-72448422D01*
X117078572Y-72448422D02*
X116926191Y-72448422D01*
X117326191Y-72638898D02*
X117326191Y-72238898D01*
X117326191Y-72238898D02*
X117421429Y-72238898D01*
X117421429Y-72238898D02*
X117478572Y-72257946D01*
X117478572Y-72257946D02*
X117516667Y-72296041D01*
X117516667Y-72296041D02*
X117535714Y-72334136D01*
X117535714Y-72334136D02*
X117554762Y-72410327D01*
X117554762Y-72410327D02*
X117554762Y-72467470D01*
X117554762Y-72467470D02*
X117535714Y-72543660D01*
X117535714Y-72543660D02*
X117516667Y-72581755D01*
X117516667Y-72581755D02*
X117478572Y-72619851D01*
X117478572Y-72619851D02*
X117421429Y-72638898D01*
X117421429Y-72638898D02*
X117326191Y-72638898D01*
X116269047Y-73282876D02*
X116135714Y-73092400D01*
X116040476Y-73282876D02*
X116040476Y-72882876D01*
X116040476Y-72882876D02*
X116192857Y-72882876D01*
X116192857Y-72882876D02*
X116230952Y-72901924D01*
X116230952Y-72901924D02*
X116249999Y-72920971D01*
X116249999Y-72920971D02*
X116269047Y-72959067D01*
X116269047Y-72959067D02*
X116269047Y-73016209D01*
X116269047Y-73016209D02*
X116249999Y-73054305D01*
X116249999Y-73054305D02*
X116230952Y-73073352D01*
X116230952Y-73073352D02*
X116192857Y-73092400D01*
X116192857Y-73092400D02*
X116040476Y-73092400D01*
X116440476Y-73073352D02*
X116573809Y-73073352D01*
X116630952Y-73282876D02*
X116440476Y-73282876D01*
X116440476Y-73282876D02*
X116440476Y-72882876D01*
X116440476Y-72882876D02*
X116630952Y-72882876D01*
X116783333Y-73263829D02*
X116840476Y-73282876D01*
X116840476Y-73282876D02*
X116935714Y-73282876D01*
X116935714Y-73282876D02*
X116973809Y-73263829D01*
X116973809Y-73263829D02*
X116992857Y-73244781D01*
X116992857Y-73244781D02*
X117011904Y-73206686D01*
X117011904Y-73206686D02*
X117011904Y-73168590D01*
X117011904Y-73168590D02*
X116992857Y-73130495D01*
X116992857Y-73130495D02*
X116973809Y-73111448D01*
X116973809Y-73111448D02*
X116935714Y-73092400D01*
X116935714Y-73092400D02*
X116859523Y-73073352D01*
X116859523Y-73073352D02*
X116821428Y-73054305D01*
X116821428Y-73054305D02*
X116802381Y-73035257D01*
X116802381Y-73035257D02*
X116783333Y-72997162D01*
X116783333Y-72997162D02*
X116783333Y-72959067D01*
X116783333Y-72959067D02*
X116802381Y-72920971D01*
X116802381Y-72920971D02*
X116821428Y-72901924D01*
X116821428Y-72901924D02*
X116859523Y-72882876D01*
X116859523Y-72882876D02*
X116954762Y-72882876D01*
X116954762Y-72882876D02*
X117011904Y-72901924D01*
X117183333Y-73073352D02*
X117316666Y-73073352D01*
X117373809Y-73282876D02*
X117183333Y-73282876D01*
X117183333Y-73282876D02*
X117183333Y-72882876D01*
X117183333Y-72882876D02*
X117373809Y-72882876D01*
X117488095Y-72882876D02*
X117716666Y-72882876D01*
X117602380Y-73282876D02*
X117602380Y-72882876D01*
D12*
X107569047Y-85982919D02*
X107521428Y-85959109D01*
X107521428Y-85959109D02*
X107449999Y-85959109D01*
X107449999Y-85959109D02*
X107378571Y-85982919D01*
X107378571Y-85982919D02*
X107330952Y-86030538D01*
X107330952Y-86030538D02*
X107307142Y-86078157D01*
X107307142Y-86078157D02*
X107283333Y-86173395D01*
X107283333Y-86173395D02*
X107283333Y-86244823D01*
X107283333Y-86244823D02*
X107307142Y-86340061D01*
X107307142Y-86340061D02*
X107330952Y-86387680D01*
X107330952Y-86387680D02*
X107378571Y-86435300D01*
X107378571Y-86435300D02*
X107449999Y-86459109D01*
X107449999Y-86459109D02*
X107497618Y-86459109D01*
X107497618Y-86459109D02*
X107569047Y-86435300D01*
X107569047Y-86435300D02*
X107592856Y-86411490D01*
X107592856Y-86411490D02*
X107592856Y-86244823D01*
X107592856Y-86244823D02*
X107497618Y-86244823D01*
X107807142Y-86459109D02*
X107807142Y-85959109D01*
X107807142Y-85959109D02*
X108092856Y-86459109D01*
X108092856Y-86459109D02*
X108092856Y-85959109D01*
X108330952Y-86459109D02*
X108330952Y-85959109D01*
X108330952Y-85959109D02*
X108450000Y-85959109D01*
X108450000Y-85959109D02*
X108521428Y-85982919D01*
X108521428Y-85982919D02*
X108569047Y-86030538D01*
X108569047Y-86030538D02*
X108592857Y-86078157D01*
X108592857Y-86078157D02*
X108616666Y-86173395D01*
X108616666Y-86173395D02*
X108616666Y-86244823D01*
X108616666Y-86244823D02*
X108592857Y-86340061D01*
X108592857Y-86340061D02*
X108569047Y-86387680D01*
X108569047Y-86387680D02*
X108521428Y-86435300D01*
X108521428Y-86435300D02*
X108450000Y-86459109D01*
X108450000Y-86459109D02*
X108330952Y-86459109D01*
X94976109Y-86399666D02*
X94976109Y-86090142D01*
X94976109Y-86090142D02*
X95166585Y-86256809D01*
X95166585Y-86256809D02*
X95166585Y-86185380D01*
X95166585Y-86185380D02*
X95190395Y-86137761D01*
X95190395Y-86137761D02*
X95214204Y-86113952D01*
X95214204Y-86113952D02*
X95261823Y-86090142D01*
X95261823Y-86090142D02*
X95380871Y-86090142D01*
X95380871Y-86090142D02*
X95428490Y-86113952D01*
X95428490Y-86113952D02*
X95452300Y-86137761D01*
X95452300Y-86137761D02*
X95476109Y-86185380D01*
X95476109Y-86185380D02*
X95476109Y-86328237D01*
X95476109Y-86328237D02*
X95452300Y-86375856D01*
X95452300Y-86375856D02*
X95428490Y-86399666D01*
X85316109Y-79740142D02*
X85316109Y-80025856D01*
X85316109Y-79882999D02*
X84816109Y-79882999D01*
X84816109Y-79882999D02*
X84887538Y-79930618D01*
X84887538Y-79930618D02*
X84935157Y-79978237D01*
X84935157Y-79978237D02*
X84958966Y-80025856D01*
X84709047Y-85982919D02*
X84661428Y-85959109D01*
X84661428Y-85959109D02*
X84589999Y-85959109D01*
X84589999Y-85959109D02*
X84518571Y-85982919D01*
X84518571Y-85982919D02*
X84470952Y-86030538D01*
X84470952Y-86030538D02*
X84447142Y-86078157D01*
X84447142Y-86078157D02*
X84423333Y-86173395D01*
X84423333Y-86173395D02*
X84423333Y-86244823D01*
X84423333Y-86244823D02*
X84447142Y-86340061D01*
X84447142Y-86340061D02*
X84470952Y-86387680D01*
X84470952Y-86387680D02*
X84518571Y-86435300D01*
X84518571Y-86435300D02*
X84589999Y-86459109D01*
X84589999Y-86459109D02*
X84637618Y-86459109D01*
X84637618Y-86459109D02*
X84709047Y-86435300D01*
X84709047Y-86435300D02*
X84732856Y-86411490D01*
X84732856Y-86411490D02*
X84732856Y-86244823D01*
X84732856Y-86244823D02*
X84637618Y-86244823D01*
X84947142Y-86459109D02*
X84947142Y-85959109D01*
X84947142Y-85959109D02*
X85232856Y-86459109D01*
X85232856Y-86459109D02*
X85232856Y-85959109D01*
X85470952Y-86459109D02*
X85470952Y-85959109D01*
X85470952Y-85959109D02*
X85590000Y-85959109D01*
X85590000Y-85959109D02*
X85661428Y-85982919D01*
X85661428Y-85982919D02*
X85709047Y-86030538D01*
X85709047Y-86030538D02*
X85732857Y-86078157D01*
X85732857Y-86078157D02*
X85756666Y-86173395D01*
X85756666Y-86173395D02*
X85756666Y-86244823D01*
X85756666Y-86244823D02*
X85732857Y-86340061D01*
X85732857Y-86340061D02*
X85709047Y-86387680D01*
X85709047Y-86387680D02*
X85661428Y-86435300D01*
X85661428Y-86435300D02*
X85590000Y-86459109D01*
X85590000Y-86459109D02*
X85470952Y-86459109D01*
X77807252Y-70496713D02*
X77807252Y-70258618D01*
X77950109Y-70544332D02*
X77450109Y-70377666D01*
X77450109Y-70377666D02*
X77950109Y-70210999D01*
X77950109Y-70044333D02*
X77450109Y-70044333D01*
X77450109Y-70044333D02*
X77950109Y-69758619D01*
X77950109Y-69758619D02*
X77450109Y-69758619D01*
X77450109Y-69591951D02*
X77450109Y-69306237D01*
X77950109Y-69449094D02*
X77450109Y-69449094D01*
X77688204Y-69139571D02*
X77688204Y-68972904D01*
X77950109Y-68901476D02*
X77950109Y-69139571D01*
X77950109Y-69139571D02*
X77450109Y-69139571D01*
X77450109Y-69139571D02*
X77450109Y-68901476D01*
X77950109Y-68687190D02*
X77450109Y-68687190D01*
X77450109Y-68687190D02*
X77950109Y-68401476D01*
X77950109Y-68401476D02*
X77450109Y-68401476D01*
X77950109Y-68163380D02*
X77450109Y-68163380D01*
X77450109Y-68163380D02*
X77950109Y-67877666D01*
X77950109Y-67877666D02*
X77450109Y-67877666D01*
X77807252Y-67663379D02*
X77807252Y-67425284D01*
X77950109Y-67710998D02*
X77450109Y-67544332D01*
X77450109Y-67544332D02*
X77950109Y-67377665D01*
X91621429Y-52166109D02*
X91335715Y-52166109D01*
X91478572Y-52166109D02*
X91478572Y-51666109D01*
X91478572Y-51666109D02*
X91430953Y-51737538D01*
X91430953Y-51737538D02*
X91383334Y-51785157D01*
X91383334Y-51785157D02*
X91335715Y-51808966D01*
X91835714Y-52118490D02*
X91859524Y-52142300D01*
X91859524Y-52142300D02*
X91835714Y-52166109D01*
X91835714Y-52166109D02*
X91811905Y-52142300D01*
X91811905Y-52142300D02*
X91835714Y-52118490D01*
X91835714Y-52118490D02*
X91835714Y-52166109D01*
X92335714Y-52166109D02*
X92050000Y-52166109D01*
X92192857Y-52166109D02*
X92192857Y-51666109D01*
X92192857Y-51666109D02*
X92145238Y-51737538D01*
X92145238Y-51737538D02*
X92097619Y-51785157D01*
X92097619Y-51785157D02*
X92050000Y-51808966D01*
X92478571Y-51666109D02*
X92645237Y-52166109D01*
X92645237Y-52166109D02*
X92811904Y-51666109D01*
X89233429Y-52169109D02*
X88947715Y-52169109D01*
X89090572Y-52169109D02*
X89090572Y-51669109D01*
X89090572Y-51669109D02*
X89042953Y-51740538D01*
X89042953Y-51740538D02*
X88995334Y-51788157D01*
X88995334Y-51788157D02*
X88947715Y-51811966D01*
X89447714Y-52121490D02*
X89471524Y-52145300D01*
X89471524Y-52145300D02*
X89447714Y-52169109D01*
X89447714Y-52169109D02*
X89423905Y-52145300D01*
X89423905Y-52145300D02*
X89447714Y-52121490D01*
X89447714Y-52121490D02*
X89447714Y-52169109D01*
X89757238Y-51883395D02*
X89709619Y-51859585D01*
X89709619Y-51859585D02*
X89685809Y-51835776D01*
X89685809Y-51835776D02*
X89662000Y-51788157D01*
X89662000Y-51788157D02*
X89662000Y-51764347D01*
X89662000Y-51764347D02*
X89685809Y-51716728D01*
X89685809Y-51716728D02*
X89709619Y-51692919D01*
X89709619Y-51692919D02*
X89757238Y-51669109D01*
X89757238Y-51669109D02*
X89852476Y-51669109D01*
X89852476Y-51669109D02*
X89900095Y-51692919D01*
X89900095Y-51692919D02*
X89923904Y-51716728D01*
X89923904Y-51716728D02*
X89947714Y-51764347D01*
X89947714Y-51764347D02*
X89947714Y-51788157D01*
X89947714Y-51788157D02*
X89923904Y-51835776D01*
X89923904Y-51835776D02*
X89900095Y-51859585D01*
X89900095Y-51859585D02*
X89852476Y-51883395D01*
X89852476Y-51883395D02*
X89757238Y-51883395D01*
X89757238Y-51883395D02*
X89709619Y-51907204D01*
X89709619Y-51907204D02*
X89685809Y-51931014D01*
X89685809Y-51931014D02*
X89662000Y-51978633D01*
X89662000Y-51978633D02*
X89662000Y-52073871D01*
X89662000Y-52073871D02*
X89685809Y-52121490D01*
X89685809Y-52121490D02*
X89709619Y-52145300D01*
X89709619Y-52145300D02*
X89757238Y-52169109D01*
X89757238Y-52169109D02*
X89852476Y-52169109D01*
X89852476Y-52169109D02*
X89900095Y-52145300D01*
X89900095Y-52145300D02*
X89923904Y-52121490D01*
X89923904Y-52121490D02*
X89947714Y-52073871D01*
X89947714Y-52073871D02*
X89947714Y-51978633D01*
X89947714Y-51978633D02*
X89923904Y-51931014D01*
X89923904Y-51931014D02*
X89900095Y-51907204D01*
X89900095Y-51907204D02*
X89852476Y-51883395D01*
X90090571Y-51669109D02*
X90257237Y-52169109D01*
X90257237Y-52169109D02*
X90423904Y-51669109D01*
X96028048Y-51907204D02*
X96194715Y-51907204D01*
X96266143Y-52169109D02*
X96028048Y-52169109D01*
X96028048Y-52169109D02*
X96028048Y-51669109D01*
X96028048Y-51669109D02*
X96266143Y-51669109D01*
X96432810Y-51669109D02*
X96766143Y-52169109D01*
X96766143Y-51669109D02*
X96432810Y-52169109D01*
X96885191Y-51669109D02*
X97170905Y-51669109D01*
X97028048Y-52169109D02*
X97028048Y-51669109D01*
X97218524Y-52216728D02*
X97599476Y-52216728D01*
X97885190Y-51907204D02*
X97956618Y-51931014D01*
X97956618Y-51931014D02*
X97980428Y-51954823D01*
X97980428Y-51954823D02*
X98004237Y-52002442D01*
X98004237Y-52002442D02*
X98004237Y-52073871D01*
X98004237Y-52073871D02*
X97980428Y-52121490D01*
X97980428Y-52121490D02*
X97956618Y-52145300D01*
X97956618Y-52145300D02*
X97908999Y-52169109D01*
X97908999Y-52169109D02*
X97718523Y-52169109D01*
X97718523Y-52169109D02*
X97718523Y-51669109D01*
X97718523Y-51669109D02*
X97885190Y-51669109D01*
X97885190Y-51669109D02*
X97932809Y-51692919D01*
X97932809Y-51692919D02*
X97956618Y-51716728D01*
X97956618Y-51716728D02*
X97980428Y-51764347D01*
X97980428Y-51764347D02*
X97980428Y-51811966D01*
X97980428Y-51811966D02*
X97956618Y-51859585D01*
X97956618Y-51859585D02*
X97932809Y-51883395D01*
X97932809Y-51883395D02*
X97885190Y-51907204D01*
X97885190Y-51907204D02*
X97718523Y-51907204D01*
X98194714Y-52026252D02*
X98432809Y-52026252D01*
X98147095Y-52169109D02*
X98313761Y-51669109D01*
X98313761Y-51669109D02*
X98480428Y-52169109D01*
X98575666Y-51669109D02*
X98861380Y-51669109D01*
X98718523Y-52169109D02*
X98718523Y-51669109D01*
D14*
X105399285Y-76896238D02*
X105508143Y-76932523D01*
X105508143Y-76932523D02*
X105689571Y-76932523D01*
X105689571Y-76932523D02*
X105762143Y-76896238D01*
X105762143Y-76896238D02*
X105798428Y-76859952D01*
X105798428Y-76859952D02*
X105834714Y-76787380D01*
X105834714Y-76787380D02*
X105834714Y-76714809D01*
X105834714Y-76714809D02*
X105798428Y-76642238D01*
X105798428Y-76642238D02*
X105762143Y-76605952D01*
X105762143Y-76605952D02*
X105689571Y-76569666D01*
X105689571Y-76569666D02*
X105544428Y-76533380D01*
X105544428Y-76533380D02*
X105471857Y-76497095D01*
X105471857Y-76497095D02*
X105435571Y-76460809D01*
X105435571Y-76460809D02*
X105399285Y-76388238D01*
X105399285Y-76388238D02*
X105399285Y-76315666D01*
X105399285Y-76315666D02*
X105435571Y-76243095D01*
X105435571Y-76243095D02*
X105471857Y-76206809D01*
X105471857Y-76206809D02*
X105544428Y-76170523D01*
X105544428Y-76170523D02*
X105725857Y-76170523D01*
X105725857Y-76170523D02*
X105834714Y-76206809D01*
X106487857Y-76424523D02*
X106487857Y-76932523D01*
X106161285Y-76424523D02*
X106161285Y-76823666D01*
X106161285Y-76823666D02*
X106197571Y-76896238D01*
X106197571Y-76896238D02*
X106270142Y-76932523D01*
X106270142Y-76932523D02*
X106378999Y-76932523D01*
X106378999Y-76932523D02*
X106451571Y-76896238D01*
X106451571Y-76896238D02*
X106487857Y-76859952D01*
X106959571Y-76932523D02*
X106887000Y-76896238D01*
X106887000Y-76896238D02*
X106850714Y-76823666D01*
X106850714Y-76823666D02*
X106850714Y-76170523D01*
X107576429Y-76424523D02*
X107576429Y-76932523D01*
X107249857Y-76424523D02*
X107249857Y-76823666D01*
X107249857Y-76823666D02*
X107286143Y-76896238D01*
X107286143Y-76896238D02*
X107358714Y-76932523D01*
X107358714Y-76932523D02*
X107467571Y-76932523D01*
X107467571Y-76932523D02*
X107540143Y-76896238D01*
X107540143Y-76896238D02*
X107576429Y-76859952D01*
X108411000Y-76170523D02*
X108665000Y-76932523D01*
X108665000Y-76932523D02*
X108919000Y-76170523D01*
X109136714Y-76243095D02*
X109173000Y-76206809D01*
X109173000Y-76206809D02*
X109245572Y-76170523D01*
X109245572Y-76170523D02*
X109427000Y-76170523D01*
X109427000Y-76170523D02*
X109499572Y-76206809D01*
X109499572Y-76206809D02*
X109535857Y-76243095D01*
X109535857Y-76243095D02*
X109572143Y-76315666D01*
X109572143Y-76315666D02*
X109572143Y-76388238D01*
X109572143Y-76388238D02*
X109535857Y-76497095D01*
X109535857Y-76497095D02*
X109100429Y-76932523D01*
X109100429Y-76932523D02*
X109572143Y-76932523D01*
X109898714Y-76859952D02*
X109935000Y-76896238D01*
X109935000Y-76896238D02*
X109898714Y-76932523D01*
X109898714Y-76932523D02*
X109862428Y-76896238D01*
X109862428Y-76896238D02*
X109898714Y-76859952D01*
X109898714Y-76859952D02*
X109898714Y-76932523D01*
X110225285Y-76243095D02*
X110261571Y-76206809D01*
X110261571Y-76206809D02*
X110334143Y-76170523D01*
X110334143Y-76170523D02*
X110515571Y-76170523D01*
X110515571Y-76170523D02*
X110588143Y-76206809D01*
X110588143Y-76206809D02*
X110624428Y-76243095D01*
X110624428Y-76243095D02*
X110660714Y-76315666D01*
X110660714Y-76315666D02*
X110660714Y-76388238D01*
X110660714Y-76388238D02*
X110624428Y-76497095D01*
X110624428Y-76497095D02*
X110189000Y-76932523D01*
X110189000Y-76932523D02*
X110660714Y-76932523D01*
X107540143Y-78159300D02*
X107286143Y-77796443D01*
X107104714Y-78159300D02*
X107104714Y-77397300D01*
X107104714Y-77397300D02*
X107395000Y-77397300D01*
X107395000Y-77397300D02*
X107467571Y-77433586D01*
X107467571Y-77433586D02*
X107503857Y-77469872D01*
X107503857Y-77469872D02*
X107540143Y-77542443D01*
X107540143Y-77542443D02*
X107540143Y-77651300D01*
X107540143Y-77651300D02*
X107503857Y-77723872D01*
X107503857Y-77723872D02*
X107467571Y-77760157D01*
X107467571Y-77760157D02*
X107395000Y-77796443D01*
X107395000Y-77796443D02*
X107104714Y-77796443D01*
X107866714Y-77760157D02*
X108120714Y-77760157D01*
X108229571Y-78159300D02*
X107866714Y-78159300D01*
X107866714Y-78159300D02*
X107866714Y-77397300D01*
X107866714Y-77397300D02*
X108229571Y-77397300D01*
X108955286Y-77433586D02*
X108882715Y-77397300D01*
X108882715Y-77397300D02*
X108773857Y-77397300D01*
X108773857Y-77397300D02*
X108665000Y-77433586D01*
X108665000Y-77433586D02*
X108592429Y-77506157D01*
X108592429Y-77506157D02*
X108556143Y-77578729D01*
X108556143Y-77578729D02*
X108519857Y-77723872D01*
X108519857Y-77723872D02*
X108519857Y-77832729D01*
X108519857Y-77832729D02*
X108556143Y-77977872D01*
X108556143Y-77977872D02*
X108592429Y-78050443D01*
X108592429Y-78050443D02*
X108665000Y-78123015D01*
X108665000Y-78123015D02*
X108773857Y-78159300D01*
X108773857Y-78159300D02*
X108846429Y-78159300D01*
X108846429Y-78159300D02*
X108955286Y-78123015D01*
X108955286Y-78123015D02*
X108991572Y-78086729D01*
X108991572Y-78086729D02*
X108991572Y-77832729D01*
X108991572Y-77832729D02*
X108846429Y-77832729D01*
D12*
X101687380Y-51639623D02*
X101687380Y-51139623D01*
X101925475Y-51639623D02*
X101925475Y-51139623D01*
X101925475Y-51139623D02*
X102092142Y-51496766D01*
X102092142Y-51496766D02*
X102258808Y-51139623D01*
X102258808Y-51139623D02*
X102258808Y-51639623D01*
X102496904Y-51139623D02*
X102496904Y-51544385D01*
X102496904Y-51544385D02*
X102520714Y-51592004D01*
X102520714Y-51592004D02*
X102544523Y-51615814D01*
X102544523Y-51615814D02*
X102592142Y-51639623D01*
X102592142Y-51639623D02*
X102687380Y-51639623D01*
X102687380Y-51639623D02*
X102734999Y-51615814D01*
X102734999Y-51615814D02*
X102758809Y-51592004D01*
X102758809Y-51592004D02*
X102782618Y-51544385D01*
X102782618Y-51544385D02*
X102782618Y-51139623D01*
X101568334Y-51944595D02*
X101735000Y-52444595D01*
X101735000Y-52444595D02*
X101901667Y-51944595D01*
X102068333Y-52444595D02*
X102068333Y-51944595D01*
X102068333Y-51944595D02*
X102187381Y-51944595D01*
X102187381Y-51944595D02*
X102258809Y-51968405D01*
X102258809Y-51968405D02*
X102306428Y-52016024D01*
X102306428Y-52016024D02*
X102330238Y-52063643D01*
X102330238Y-52063643D02*
X102354047Y-52158881D01*
X102354047Y-52158881D02*
X102354047Y-52230309D01*
X102354047Y-52230309D02*
X102330238Y-52325547D01*
X102330238Y-52325547D02*
X102306428Y-52373166D01*
X102306428Y-52373166D02*
X102258809Y-52420786D01*
X102258809Y-52420786D02*
X102187381Y-52444595D01*
X102187381Y-52444595D02*
X102068333Y-52444595D01*
X102568333Y-52444595D02*
X102568333Y-51944595D01*
X102568333Y-51944595D02*
X102687381Y-51944595D01*
X102687381Y-51944595D02*
X102758809Y-51968405D01*
X102758809Y-51968405D02*
X102806428Y-52016024D01*
X102806428Y-52016024D02*
X102830238Y-52063643D01*
X102830238Y-52063643D02*
X102854047Y-52158881D01*
X102854047Y-52158881D02*
X102854047Y-52230309D01*
X102854047Y-52230309D02*
X102830238Y-52325547D01*
X102830238Y-52325547D02*
X102806428Y-52373166D01*
X102806428Y-52373166D02*
X102758809Y-52420786D01*
X102758809Y-52420786D02*
X102687381Y-52444595D01*
X102687381Y-52444595D02*
X102568333Y-52444595D01*
X99528380Y-51639623D02*
X99528380Y-51139623D01*
X99766475Y-51639623D02*
X99766475Y-51139623D01*
X99766475Y-51139623D02*
X99933142Y-51496766D01*
X99933142Y-51496766D02*
X100099808Y-51139623D01*
X100099808Y-51139623D02*
X100099808Y-51639623D01*
X100337904Y-51139623D02*
X100337904Y-51544385D01*
X100337904Y-51544385D02*
X100361714Y-51592004D01*
X100361714Y-51592004D02*
X100385523Y-51615814D01*
X100385523Y-51615814D02*
X100433142Y-51639623D01*
X100433142Y-51639623D02*
X100528380Y-51639623D01*
X100528380Y-51639623D02*
X100575999Y-51615814D01*
X100575999Y-51615814D02*
X100599809Y-51592004D01*
X100599809Y-51592004D02*
X100623618Y-51544385D01*
X100623618Y-51544385D02*
X100623618Y-51139623D01*
X99028381Y-51944595D02*
X99195047Y-52444595D01*
X99195047Y-52444595D02*
X99361714Y-51944595D01*
X99528380Y-52444595D02*
X99528380Y-51944595D01*
X99528380Y-51944595D02*
X99647428Y-51944595D01*
X99647428Y-51944595D02*
X99718856Y-51968405D01*
X99718856Y-51968405D02*
X99766475Y-52016024D01*
X99766475Y-52016024D02*
X99790285Y-52063643D01*
X99790285Y-52063643D02*
X99814094Y-52158881D01*
X99814094Y-52158881D02*
X99814094Y-52230309D01*
X99814094Y-52230309D02*
X99790285Y-52325547D01*
X99790285Y-52325547D02*
X99766475Y-52373166D01*
X99766475Y-52373166D02*
X99718856Y-52420786D01*
X99718856Y-52420786D02*
X99647428Y-52444595D01*
X99647428Y-52444595D02*
X99528380Y-52444595D01*
X100028380Y-52444595D02*
X100028380Y-51944595D01*
X100028380Y-51944595D02*
X100147428Y-51944595D01*
X100147428Y-51944595D02*
X100218856Y-51968405D01*
X100218856Y-51968405D02*
X100266475Y-52016024D01*
X100266475Y-52016024D02*
X100290285Y-52063643D01*
X100290285Y-52063643D02*
X100314094Y-52158881D01*
X100314094Y-52158881D02*
X100314094Y-52230309D01*
X100314094Y-52230309D02*
X100290285Y-52325547D01*
X100290285Y-52325547D02*
X100266475Y-52373166D01*
X100266475Y-52373166D02*
X100218856Y-52420786D01*
X100218856Y-52420786D02*
X100147428Y-52444595D01*
X100147428Y-52444595D02*
X100028380Y-52444595D01*
X100528380Y-52444595D02*
X100528380Y-51944595D01*
X100861713Y-51944595D02*
X100956951Y-51944595D01*
X100956951Y-51944595D02*
X101004570Y-51968405D01*
X101004570Y-51968405D02*
X101052189Y-52016024D01*
X101052189Y-52016024D02*
X101075999Y-52111262D01*
X101075999Y-52111262D02*
X101075999Y-52277928D01*
X101075999Y-52277928D02*
X101052189Y-52373166D01*
X101052189Y-52373166D02*
X101004570Y-52420786D01*
X101004570Y-52420786D02*
X100956951Y-52444595D01*
X100956951Y-52444595D02*
X100861713Y-52444595D01*
X100861713Y-52444595D02*
X100814094Y-52420786D01*
X100814094Y-52420786D02*
X100766475Y-52373166D01*
X100766475Y-52373166D02*
X100742666Y-52277928D01*
X100742666Y-52277928D02*
X100742666Y-52111262D01*
X100742666Y-52111262D02*
X100766475Y-52016024D01*
X100766475Y-52016024D02*
X100814094Y-51968405D01*
X100814094Y-51968405D02*
X100861713Y-51944595D01*
X101187381Y-58654109D02*
X101354047Y-59154109D01*
X101354047Y-59154109D02*
X101520714Y-58654109D01*
X101687380Y-59154109D02*
X101687380Y-58654109D01*
X101687380Y-58654109D02*
X101806428Y-58654109D01*
X101806428Y-58654109D02*
X101877856Y-58677919D01*
X101877856Y-58677919D02*
X101925475Y-58725538D01*
X101925475Y-58725538D02*
X101949285Y-58773157D01*
X101949285Y-58773157D02*
X101973094Y-58868395D01*
X101973094Y-58868395D02*
X101973094Y-58939823D01*
X101973094Y-58939823D02*
X101949285Y-59035061D01*
X101949285Y-59035061D02*
X101925475Y-59082680D01*
X101925475Y-59082680D02*
X101877856Y-59130300D01*
X101877856Y-59130300D02*
X101806428Y-59154109D01*
X101806428Y-59154109D02*
X101687380Y-59154109D01*
X102187380Y-59154109D02*
X102187380Y-58654109D01*
X102187380Y-58654109D02*
X102306428Y-58654109D01*
X102306428Y-58654109D02*
X102377856Y-58677919D01*
X102377856Y-58677919D02*
X102425475Y-58725538D01*
X102425475Y-58725538D02*
X102449285Y-58773157D01*
X102449285Y-58773157D02*
X102473094Y-58868395D01*
X102473094Y-58868395D02*
X102473094Y-58939823D01*
X102473094Y-58939823D02*
X102449285Y-59035061D01*
X102449285Y-59035061D02*
X102425475Y-59082680D01*
X102425475Y-59082680D02*
X102377856Y-59130300D01*
X102377856Y-59130300D02*
X102306428Y-59154109D01*
X102306428Y-59154109D02*
X102187380Y-59154109D01*
X102687380Y-59154109D02*
X102687380Y-58654109D01*
X103020713Y-58654109D02*
X103115951Y-58654109D01*
X103115951Y-58654109D02*
X103163570Y-58677919D01*
X103163570Y-58677919D02*
X103211189Y-58725538D01*
X103211189Y-58725538D02*
X103234999Y-58820776D01*
X103234999Y-58820776D02*
X103234999Y-58987442D01*
X103234999Y-58987442D02*
X103211189Y-59082680D01*
X103211189Y-59082680D02*
X103163570Y-59130300D01*
X103163570Y-59130300D02*
X103115951Y-59154109D01*
X103115951Y-59154109D02*
X103020713Y-59154109D01*
X103020713Y-59154109D02*
X102973094Y-59130300D01*
X102973094Y-59130300D02*
X102925475Y-59082680D01*
X102925475Y-59082680D02*
X102901666Y-58987442D01*
X102901666Y-58987442D02*
X102901666Y-58820776D01*
X102901666Y-58820776D02*
X102925475Y-58725538D01*
X102925475Y-58725538D02*
X102973094Y-58677919D01*
X102973094Y-58677919D02*
X103020713Y-58654109D01*
X88840572Y-58654109D02*
X89007238Y-59154109D01*
X89007238Y-59154109D02*
X89173905Y-58654109D01*
X89507238Y-58892204D02*
X89578666Y-58916014D01*
X89578666Y-58916014D02*
X89602476Y-58939823D01*
X89602476Y-58939823D02*
X89626285Y-58987442D01*
X89626285Y-58987442D02*
X89626285Y-59058871D01*
X89626285Y-59058871D02*
X89602476Y-59106490D01*
X89602476Y-59106490D02*
X89578666Y-59130300D01*
X89578666Y-59130300D02*
X89531047Y-59154109D01*
X89531047Y-59154109D02*
X89340571Y-59154109D01*
X89340571Y-59154109D02*
X89340571Y-58654109D01*
X89340571Y-58654109D02*
X89507238Y-58654109D01*
X89507238Y-58654109D02*
X89554857Y-58677919D01*
X89554857Y-58677919D02*
X89578666Y-58701728D01*
X89578666Y-58701728D02*
X89602476Y-58749347D01*
X89602476Y-58749347D02*
X89602476Y-58796966D01*
X89602476Y-58796966D02*
X89578666Y-58844585D01*
X89578666Y-58844585D02*
X89554857Y-58868395D01*
X89554857Y-58868395D02*
X89507238Y-58892204D01*
X89507238Y-58892204D02*
X89340571Y-58892204D01*
X89816762Y-59011252D02*
X90054857Y-59011252D01*
X89769143Y-59154109D02*
X89935809Y-58654109D01*
X89935809Y-58654109D02*
X90102476Y-59154109D01*
X90197714Y-58654109D02*
X90483428Y-58654109D01*
X90340571Y-59154109D02*
X90340571Y-58654109D01*
X91143334Y-58654109D02*
X91310000Y-59154109D01*
X91310000Y-59154109D02*
X91476667Y-58654109D01*
X91643333Y-59154109D02*
X91643333Y-58654109D01*
X91643333Y-58654109D02*
X91762381Y-58654109D01*
X91762381Y-58654109D02*
X91833809Y-58677919D01*
X91833809Y-58677919D02*
X91881428Y-58725538D01*
X91881428Y-58725538D02*
X91905238Y-58773157D01*
X91905238Y-58773157D02*
X91929047Y-58868395D01*
X91929047Y-58868395D02*
X91929047Y-58939823D01*
X91929047Y-58939823D02*
X91905238Y-59035061D01*
X91905238Y-59035061D02*
X91881428Y-59082680D01*
X91881428Y-59082680D02*
X91833809Y-59130300D01*
X91833809Y-59130300D02*
X91762381Y-59154109D01*
X91762381Y-59154109D02*
X91643333Y-59154109D01*
X92143333Y-59154109D02*
X92143333Y-58654109D01*
X92143333Y-58654109D02*
X92262381Y-58654109D01*
X92262381Y-58654109D02*
X92333809Y-58677919D01*
X92333809Y-58677919D02*
X92381428Y-58725538D01*
X92381428Y-58725538D02*
X92405238Y-58773157D01*
X92405238Y-58773157D02*
X92429047Y-58868395D01*
X92429047Y-58868395D02*
X92429047Y-58939823D01*
X92429047Y-58939823D02*
X92405238Y-59035061D01*
X92405238Y-59035061D02*
X92381428Y-59082680D01*
X92381428Y-59082680D02*
X92333809Y-59130300D01*
X92333809Y-59130300D02*
X92262381Y-59154109D01*
X92262381Y-59154109D02*
X92143333Y-59154109D01*
X92643333Y-59154109D02*
X92643333Y-58654109D01*
X92643333Y-58654109D02*
X92762381Y-58654109D01*
X92762381Y-58654109D02*
X92833809Y-58677919D01*
X92833809Y-58677919D02*
X92881428Y-58725538D01*
X92881428Y-58725538D02*
X92905238Y-58773157D01*
X92905238Y-58773157D02*
X92929047Y-58868395D01*
X92929047Y-58868395D02*
X92929047Y-58939823D01*
X92929047Y-58939823D02*
X92905238Y-59035061D01*
X92905238Y-59035061D02*
X92881428Y-59082680D01*
X92881428Y-59082680D02*
X92833809Y-59130300D01*
X92833809Y-59130300D02*
X92762381Y-59154109D01*
X92762381Y-59154109D02*
X92643333Y-59154109D01*
X98647381Y-58654109D02*
X98814047Y-59154109D01*
X98814047Y-59154109D02*
X98980714Y-58654109D01*
X99147380Y-59154109D02*
X99147380Y-58654109D01*
X99147380Y-58654109D02*
X99266428Y-58654109D01*
X99266428Y-58654109D02*
X99337856Y-58677919D01*
X99337856Y-58677919D02*
X99385475Y-58725538D01*
X99385475Y-58725538D02*
X99409285Y-58773157D01*
X99409285Y-58773157D02*
X99433094Y-58868395D01*
X99433094Y-58868395D02*
X99433094Y-58939823D01*
X99433094Y-58939823D02*
X99409285Y-59035061D01*
X99409285Y-59035061D02*
X99385475Y-59082680D01*
X99385475Y-59082680D02*
X99337856Y-59130300D01*
X99337856Y-59130300D02*
X99266428Y-59154109D01*
X99266428Y-59154109D02*
X99147380Y-59154109D01*
X99647380Y-59154109D02*
X99647380Y-58654109D01*
X99647380Y-58654109D02*
X99766428Y-58654109D01*
X99766428Y-58654109D02*
X99837856Y-58677919D01*
X99837856Y-58677919D02*
X99885475Y-58725538D01*
X99885475Y-58725538D02*
X99909285Y-58773157D01*
X99909285Y-58773157D02*
X99933094Y-58868395D01*
X99933094Y-58868395D02*
X99933094Y-58939823D01*
X99933094Y-58939823D02*
X99909285Y-59035061D01*
X99909285Y-59035061D02*
X99885475Y-59082680D01*
X99885475Y-59082680D02*
X99837856Y-59130300D01*
X99837856Y-59130300D02*
X99766428Y-59154109D01*
X99766428Y-59154109D02*
X99647380Y-59154109D01*
X100147380Y-59154109D02*
X100147380Y-58654109D01*
X100480713Y-58654109D02*
X100575951Y-58654109D01*
X100575951Y-58654109D02*
X100623570Y-58677919D01*
X100623570Y-58677919D02*
X100671189Y-58725538D01*
X100671189Y-58725538D02*
X100694999Y-58820776D01*
X100694999Y-58820776D02*
X100694999Y-58987442D01*
X100694999Y-58987442D02*
X100671189Y-59082680D01*
X100671189Y-59082680D02*
X100623570Y-59130300D01*
X100623570Y-59130300D02*
X100575951Y-59154109D01*
X100575951Y-59154109D02*
X100480713Y-59154109D01*
X100480713Y-59154109D02*
X100433094Y-59130300D01*
X100433094Y-59130300D02*
X100385475Y-59082680D01*
X100385475Y-59082680D02*
X100361666Y-58987442D01*
X100361666Y-58987442D02*
X100361666Y-58820776D01*
X100361666Y-58820776D02*
X100385475Y-58725538D01*
X100385475Y-58725538D02*
X100433094Y-58677919D01*
X100433094Y-58677919D02*
X100480713Y-58654109D01*
X84059047Y-58669919D02*
X84011428Y-58646109D01*
X84011428Y-58646109D02*
X83939999Y-58646109D01*
X83939999Y-58646109D02*
X83868571Y-58669919D01*
X83868571Y-58669919D02*
X83820952Y-58717538D01*
X83820952Y-58717538D02*
X83797142Y-58765157D01*
X83797142Y-58765157D02*
X83773333Y-58860395D01*
X83773333Y-58860395D02*
X83773333Y-58931823D01*
X83773333Y-58931823D02*
X83797142Y-59027061D01*
X83797142Y-59027061D02*
X83820952Y-59074680D01*
X83820952Y-59074680D02*
X83868571Y-59122300D01*
X83868571Y-59122300D02*
X83939999Y-59146109D01*
X83939999Y-59146109D02*
X83987618Y-59146109D01*
X83987618Y-59146109D02*
X84059047Y-59122300D01*
X84059047Y-59122300D02*
X84082856Y-59098490D01*
X84082856Y-59098490D02*
X84082856Y-58931823D01*
X84082856Y-58931823D02*
X83987618Y-58931823D01*
X84297142Y-59146109D02*
X84297142Y-58646109D01*
X84297142Y-58646109D02*
X84582856Y-59146109D01*
X84582856Y-59146109D02*
X84582856Y-58646109D01*
X84820952Y-59146109D02*
X84820952Y-58646109D01*
X84820952Y-58646109D02*
X84940000Y-58646109D01*
X84940000Y-58646109D02*
X85011428Y-58669919D01*
X85011428Y-58669919D02*
X85059047Y-58717538D01*
X85059047Y-58717538D02*
X85082857Y-58765157D01*
X85082857Y-58765157D02*
X85106666Y-58860395D01*
X85106666Y-58860395D02*
X85106666Y-58931823D01*
X85106666Y-58931823D02*
X85082857Y-59027061D01*
X85082857Y-59027061D02*
X85059047Y-59074680D01*
X85059047Y-59074680D02*
X85011428Y-59122300D01*
X85011428Y-59122300D02*
X84940000Y-59146109D01*
X84940000Y-59146109D02*
X84820952Y-59146109D01*
X96809047Y-58669919D02*
X96761428Y-58646109D01*
X96761428Y-58646109D02*
X96689999Y-58646109D01*
X96689999Y-58646109D02*
X96618571Y-58669919D01*
X96618571Y-58669919D02*
X96570952Y-58717538D01*
X96570952Y-58717538D02*
X96547142Y-58765157D01*
X96547142Y-58765157D02*
X96523333Y-58860395D01*
X96523333Y-58860395D02*
X96523333Y-58931823D01*
X96523333Y-58931823D02*
X96547142Y-59027061D01*
X96547142Y-59027061D02*
X96570952Y-59074680D01*
X96570952Y-59074680D02*
X96618571Y-59122300D01*
X96618571Y-59122300D02*
X96689999Y-59146109D01*
X96689999Y-59146109D02*
X96737618Y-59146109D01*
X96737618Y-59146109D02*
X96809047Y-59122300D01*
X96809047Y-59122300D02*
X96832856Y-59098490D01*
X96832856Y-59098490D02*
X96832856Y-58931823D01*
X96832856Y-58931823D02*
X96737618Y-58931823D01*
X97047142Y-59146109D02*
X97047142Y-58646109D01*
X97047142Y-58646109D02*
X97332856Y-59146109D01*
X97332856Y-59146109D02*
X97332856Y-58646109D01*
X97570952Y-59146109D02*
X97570952Y-58646109D01*
X97570952Y-58646109D02*
X97690000Y-58646109D01*
X97690000Y-58646109D02*
X97761428Y-58669919D01*
X97761428Y-58669919D02*
X97809047Y-58717538D01*
X97809047Y-58717538D02*
X97832857Y-58765157D01*
X97832857Y-58765157D02*
X97856666Y-58860395D01*
X97856666Y-58860395D02*
X97856666Y-58931823D01*
X97856666Y-58931823D02*
X97832857Y-59027061D01*
X97832857Y-59027061D02*
X97809047Y-59074680D01*
X97809047Y-59074680D02*
X97761428Y-59122300D01*
X97761428Y-59122300D02*
X97690000Y-59146109D01*
X97690000Y-59146109D02*
X97570952Y-59146109D01*
X103953572Y-58654109D02*
X104120238Y-59154109D01*
X104120238Y-59154109D02*
X104286905Y-58654109D01*
X104620238Y-58892204D02*
X104691666Y-58916014D01*
X104691666Y-58916014D02*
X104715476Y-58939823D01*
X104715476Y-58939823D02*
X104739285Y-58987442D01*
X104739285Y-58987442D02*
X104739285Y-59058871D01*
X104739285Y-59058871D02*
X104715476Y-59106490D01*
X104715476Y-59106490D02*
X104691666Y-59130300D01*
X104691666Y-59130300D02*
X104644047Y-59154109D01*
X104644047Y-59154109D02*
X104453571Y-59154109D01*
X104453571Y-59154109D02*
X104453571Y-58654109D01*
X104453571Y-58654109D02*
X104620238Y-58654109D01*
X104620238Y-58654109D02*
X104667857Y-58677919D01*
X104667857Y-58677919D02*
X104691666Y-58701728D01*
X104691666Y-58701728D02*
X104715476Y-58749347D01*
X104715476Y-58749347D02*
X104715476Y-58796966D01*
X104715476Y-58796966D02*
X104691666Y-58844585D01*
X104691666Y-58844585D02*
X104667857Y-58868395D01*
X104667857Y-58868395D02*
X104620238Y-58892204D01*
X104620238Y-58892204D02*
X104453571Y-58892204D01*
X104929762Y-59011252D02*
X105167857Y-59011252D01*
X104882143Y-59154109D02*
X105048809Y-58654109D01*
X105048809Y-58654109D02*
X105215476Y-59154109D01*
X105310714Y-58654109D02*
X105596428Y-58654109D01*
X105453571Y-59154109D02*
X105453571Y-58654109D01*
X86659047Y-58669919D02*
X86611428Y-58646109D01*
X86611428Y-58646109D02*
X86539999Y-58646109D01*
X86539999Y-58646109D02*
X86468571Y-58669919D01*
X86468571Y-58669919D02*
X86420952Y-58717538D01*
X86420952Y-58717538D02*
X86397142Y-58765157D01*
X86397142Y-58765157D02*
X86373333Y-58860395D01*
X86373333Y-58860395D02*
X86373333Y-58931823D01*
X86373333Y-58931823D02*
X86397142Y-59027061D01*
X86397142Y-59027061D02*
X86420952Y-59074680D01*
X86420952Y-59074680D02*
X86468571Y-59122300D01*
X86468571Y-59122300D02*
X86539999Y-59146109D01*
X86539999Y-59146109D02*
X86587618Y-59146109D01*
X86587618Y-59146109D02*
X86659047Y-59122300D01*
X86659047Y-59122300D02*
X86682856Y-59098490D01*
X86682856Y-59098490D02*
X86682856Y-58931823D01*
X86682856Y-58931823D02*
X86587618Y-58931823D01*
X86897142Y-59146109D02*
X86897142Y-58646109D01*
X86897142Y-58646109D02*
X87182856Y-59146109D01*
X87182856Y-59146109D02*
X87182856Y-58646109D01*
X87420952Y-59146109D02*
X87420952Y-58646109D01*
X87420952Y-58646109D02*
X87540000Y-58646109D01*
X87540000Y-58646109D02*
X87611428Y-58669919D01*
X87611428Y-58669919D02*
X87659047Y-58717538D01*
X87659047Y-58717538D02*
X87682857Y-58765157D01*
X87682857Y-58765157D02*
X87706666Y-58860395D01*
X87706666Y-58860395D02*
X87706666Y-58931823D01*
X87706666Y-58931823D02*
X87682857Y-59027061D01*
X87682857Y-59027061D02*
X87659047Y-59074680D01*
X87659047Y-59074680D02*
X87611428Y-59122300D01*
X87611428Y-59122300D02*
X87540000Y-59146109D01*
X87540000Y-59146109D02*
X87420952Y-59146109D01*
X93361048Y-58892204D02*
X93527715Y-58892204D01*
X93599143Y-59154109D02*
X93361048Y-59154109D01*
X93361048Y-59154109D02*
X93361048Y-58654109D01*
X93361048Y-58654109D02*
X93599143Y-58654109D01*
X93765810Y-58654109D02*
X94099143Y-59154109D01*
X94099143Y-58654109D02*
X93765810Y-59154109D01*
X94218191Y-58654109D02*
X94503905Y-58654109D01*
X94361048Y-59154109D02*
X94361048Y-58654109D01*
X94551524Y-59201728D02*
X94932476Y-59201728D01*
X95218190Y-58892204D02*
X95289618Y-58916014D01*
X95289618Y-58916014D02*
X95313428Y-58939823D01*
X95313428Y-58939823D02*
X95337237Y-58987442D01*
X95337237Y-58987442D02*
X95337237Y-59058871D01*
X95337237Y-59058871D02*
X95313428Y-59106490D01*
X95313428Y-59106490D02*
X95289618Y-59130300D01*
X95289618Y-59130300D02*
X95241999Y-59154109D01*
X95241999Y-59154109D02*
X95051523Y-59154109D01*
X95051523Y-59154109D02*
X95051523Y-58654109D01*
X95051523Y-58654109D02*
X95218190Y-58654109D01*
X95218190Y-58654109D02*
X95265809Y-58677919D01*
X95265809Y-58677919D02*
X95289618Y-58701728D01*
X95289618Y-58701728D02*
X95313428Y-58749347D01*
X95313428Y-58749347D02*
X95313428Y-58796966D01*
X95313428Y-58796966D02*
X95289618Y-58844585D01*
X95289618Y-58844585D02*
X95265809Y-58868395D01*
X95265809Y-58868395D02*
X95218190Y-58892204D01*
X95218190Y-58892204D02*
X95051523Y-58892204D01*
X95527714Y-59011252D02*
X95765809Y-59011252D01*
X95480095Y-59154109D02*
X95646761Y-58654109D01*
X95646761Y-58654109D02*
X95813428Y-59154109D01*
X95908666Y-58654109D02*
X96194380Y-58654109D01*
X96051523Y-59154109D02*
X96051523Y-58654109D01*
X93488001Y-52169109D02*
X93202287Y-52169109D01*
X93345144Y-52169109D02*
X93345144Y-51669109D01*
X93345144Y-51669109D02*
X93297525Y-51740538D01*
X93297525Y-51740538D02*
X93249906Y-51788157D01*
X93249906Y-51788157D02*
X93202287Y-51811966D01*
X93702286Y-52121490D02*
X93726096Y-52145300D01*
X93726096Y-52145300D02*
X93702286Y-52169109D01*
X93702286Y-52169109D02*
X93678477Y-52145300D01*
X93678477Y-52145300D02*
X93702286Y-52121490D01*
X93702286Y-52121490D02*
X93702286Y-52169109D01*
X94202286Y-52169109D02*
X93916572Y-52169109D01*
X94059429Y-52169109D02*
X94059429Y-51669109D01*
X94059429Y-51669109D02*
X94011810Y-51740538D01*
X94011810Y-51740538D02*
X93964191Y-51788157D01*
X93964191Y-51788157D02*
X93916572Y-51811966D01*
X94345143Y-51669109D02*
X94511809Y-52169109D01*
X94511809Y-52169109D02*
X94678476Y-51669109D01*
X94726095Y-52216728D02*
X95107047Y-52216728D01*
X95226094Y-52169109D02*
X95226094Y-51669109D01*
X95464189Y-52169109D02*
X95464189Y-51669109D01*
X95464189Y-51669109D02*
X95749903Y-52169109D01*
X95749903Y-52169109D02*
X95749903Y-51669109D01*
X86566429Y-52169109D02*
X86280715Y-52169109D01*
X86423572Y-52169109D02*
X86423572Y-51669109D01*
X86423572Y-51669109D02*
X86375953Y-51740538D01*
X86375953Y-51740538D02*
X86328334Y-51788157D01*
X86328334Y-51788157D02*
X86280715Y-51811966D01*
X86780714Y-52121490D02*
X86804524Y-52145300D01*
X86804524Y-52145300D02*
X86780714Y-52169109D01*
X86780714Y-52169109D02*
X86756905Y-52145300D01*
X86756905Y-52145300D02*
X86780714Y-52121490D01*
X86780714Y-52121490D02*
X86780714Y-52169109D01*
X87090238Y-51883395D02*
X87042619Y-51859585D01*
X87042619Y-51859585D02*
X87018809Y-51835776D01*
X87018809Y-51835776D02*
X86995000Y-51788157D01*
X86995000Y-51788157D02*
X86995000Y-51764347D01*
X86995000Y-51764347D02*
X87018809Y-51716728D01*
X87018809Y-51716728D02*
X87042619Y-51692919D01*
X87042619Y-51692919D02*
X87090238Y-51669109D01*
X87090238Y-51669109D02*
X87185476Y-51669109D01*
X87185476Y-51669109D02*
X87233095Y-51692919D01*
X87233095Y-51692919D02*
X87256904Y-51716728D01*
X87256904Y-51716728D02*
X87280714Y-51764347D01*
X87280714Y-51764347D02*
X87280714Y-51788157D01*
X87280714Y-51788157D02*
X87256904Y-51835776D01*
X87256904Y-51835776D02*
X87233095Y-51859585D01*
X87233095Y-51859585D02*
X87185476Y-51883395D01*
X87185476Y-51883395D02*
X87090238Y-51883395D01*
X87090238Y-51883395D02*
X87042619Y-51907204D01*
X87042619Y-51907204D02*
X87018809Y-51931014D01*
X87018809Y-51931014D02*
X86995000Y-51978633D01*
X86995000Y-51978633D02*
X86995000Y-52073871D01*
X86995000Y-52073871D02*
X87018809Y-52121490D01*
X87018809Y-52121490D02*
X87042619Y-52145300D01*
X87042619Y-52145300D02*
X87090238Y-52169109D01*
X87090238Y-52169109D02*
X87185476Y-52169109D01*
X87185476Y-52169109D02*
X87233095Y-52145300D01*
X87233095Y-52145300D02*
X87256904Y-52121490D01*
X87256904Y-52121490D02*
X87280714Y-52073871D01*
X87280714Y-52073871D02*
X87280714Y-51978633D01*
X87280714Y-51978633D02*
X87256904Y-51931014D01*
X87256904Y-51931014D02*
X87233095Y-51907204D01*
X87233095Y-51907204D02*
X87185476Y-51883395D01*
X87423571Y-51669109D02*
X87590237Y-52169109D01*
X87590237Y-52169109D02*
X87756904Y-51669109D01*
D13*
X116137619Y-66761663D02*
X116447143Y-66761663D01*
X116447143Y-66761663D02*
X116280476Y-66952139D01*
X116280476Y-66952139D02*
X116351905Y-66952139D01*
X116351905Y-66952139D02*
X116399524Y-66975949D01*
X116399524Y-66975949D02*
X116423333Y-66999758D01*
X116423333Y-66999758D02*
X116447143Y-67047377D01*
X116447143Y-67047377D02*
X116447143Y-67166425D01*
X116447143Y-67166425D02*
X116423333Y-67214044D01*
X116423333Y-67214044D02*
X116399524Y-67237854D01*
X116399524Y-67237854D02*
X116351905Y-67261663D01*
X116351905Y-67261663D02*
X116209048Y-67261663D01*
X116209048Y-67261663D02*
X116161429Y-67237854D01*
X116161429Y-67237854D02*
X116137619Y-67214044D01*
X116613809Y-66761663D02*
X116732857Y-67261663D01*
X116732857Y-67261663D02*
X116828095Y-66904520D01*
X116828095Y-66904520D02*
X116923333Y-67261663D01*
X116923333Y-67261663D02*
X117042381Y-66761663D01*
X117399524Y-66999758D02*
X117470952Y-67023568D01*
X117470952Y-67023568D02*
X117494762Y-67047377D01*
X117494762Y-67047377D02*
X117518571Y-67094996D01*
X117518571Y-67094996D02*
X117518571Y-67166425D01*
X117518571Y-67166425D02*
X117494762Y-67214044D01*
X117494762Y-67214044D02*
X117470952Y-67237854D01*
X117470952Y-67237854D02*
X117423333Y-67261663D01*
X117423333Y-67261663D02*
X117232857Y-67261663D01*
X117232857Y-67261663D02*
X117232857Y-66761663D01*
X117232857Y-66761663D02*
X117399524Y-66761663D01*
X117399524Y-66761663D02*
X117447143Y-66785473D01*
X117447143Y-66785473D02*
X117470952Y-66809282D01*
X117470952Y-66809282D02*
X117494762Y-66856901D01*
X117494762Y-66856901D02*
X117494762Y-66904520D01*
X117494762Y-66904520D02*
X117470952Y-66952139D01*
X117470952Y-66952139D02*
X117447143Y-66975949D01*
X117447143Y-66975949D02*
X117399524Y-66999758D01*
X117399524Y-66999758D02*
X117232857Y-66999758D01*
X116090000Y-68066635D02*
X116090000Y-67566635D01*
X116090000Y-67566635D02*
X116209048Y-67566635D01*
X116209048Y-67566635D02*
X116280476Y-67590445D01*
X116280476Y-67590445D02*
X116328095Y-67638064D01*
X116328095Y-67638064D02*
X116351905Y-67685683D01*
X116351905Y-67685683D02*
X116375714Y-67780921D01*
X116375714Y-67780921D02*
X116375714Y-67852349D01*
X116375714Y-67852349D02*
X116351905Y-67947587D01*
X116351905Y-67947587D02*
X116328095Y-67995206D01*
X116328095Y-67995206D02*
X116280476Y-68042826D01*
X116280476Y-68042826D02*
X116209048Y-68066635D01*
X116209048Y-68066635D02*
X116090000Y-68066635D01*
X116566191Y-67923778D02*
X116804286Y-67923778D01*
X116518572Y-68066635D02*
X116685238Y-67566635D01*
X116685238Y-67566635D02*
X116851905Y-68066635D01*
X116947143Y-67566635D02*
X117232857Y-67566635D01*
X117090000Y-68066635D02*
X117090000Y-67566635D01*
X117375714Y-67923778D02*
X117613809Y-67923778D01*
X117328095Y-68066635D02*
X117494761Y-67566635D01*
X117494761Y-67566635D02*
X117661428Y-68066635D01*
D12*
X108919524Y-59013252D02*
X109157619Y-59013252D01*
X108871905Y-59156109D02*
X109038571Y-58656109D01*
X109038571Y-58656109D02*
X109205238Y-59156109D01*
X109371904Y-59156109D02*
X109371904Y-58656109D01*
X109371904Y-58656109D02*
X109490952Y-58656109D01*
X109490952Y-58656109D02*
X109562380Y-58679919D01*
X109562380Y-58679919D02*
X109609999Y-58727538D01*
X109609999Y-58727538D02*
X109633809Y-58775157D01*
X109633809Y-58775157D02*
X109657618Y-58870395D01*
X109657618Y-58870395D02*
X109657618Y-58941823D01*
X109657618Y-58941823D02*
X109633809Y-59037061D01*
X109633809Y-59037061D02*
X109609999Y-59084680D01*
X109609999Y-59084680D02*
X109562380Y-59132300D01*
X109562380Y-59132300D02*
X109490952Y-59156109D01*
X109490952Y-59156109D02*
X109371904Y-59156109D01*
X110157618Y-59108490D02*
X110133809Y-59132300D01*
X110133809Y-59132300D02*
X110062380Y-59156109D01*
X110062380Y-59156109D02*
X110014761Y-59156109D01*
X110014761Y-59156109D02*
X109943333Y-59132300D01*
X109943333Y-59132300D02*
X109895714Y-59084680D01*
X109895714Y-59084680D02*
X109871904Y-59037061D01*
X109871904Y-59037061D02*
X109848095Y-58941823D01*
X109848095Y-58941823D02*
X109848095Y-58870395D01*
X109848095Y-58870395D02*
X109871904Y-58775157D01*
X109871904Y-58775157D02*
X109895714Y-58727538D01*
X109895714Y-58727538D02*
X109943333Y-58679919D01*
X109943333Y-58679919D02*
X110014761Y-58656109D01*
X110014761Y-58656109D02*
X110062380Y-58656109D01*
X110062380Y-58656109D02*
X110133809Y-58679919D01*
X110133809Y-58679919D02*
X110157618Y-58703728D01*
X110752856Y-59156109D02*
X110752856Y-58656109D01*
X110990951Y-59156109D02*
X110990951Y-58656109D01*
X110990951Y-58656109D02*
X111276665Y-59156109D01*
X111276665Y-59156109D02*
X111276665Y-58656109D01*
X116232857Y-62434623D02*
X116232857Y-61934623D01*
X116232857Y-61934623D02*
X116518571Y-62434623D01*
X116518571Y-62434623D02*
X116518571Y-61934623D01*
X117042381Y-62434623D02*
X116875715Y-62196528D01*
X116756667Y-62434623D02*
X116756667Y-61934623D01*
X116756667Y-61934623D02*
X116947143Y-61934623D01*
X116947143Y-61934623D02*
X116994762Y-61958433D01*
X116994762Y-61958433D02*
X117018572Y-61982242D01*
X117018572Y-61982242D02*
X117042381Y-62029861D01*
X117042381Y-62029861D02*
X117042381Y-62101290D01*
X117042381Y-62101290D02*
X117018572Y-62148909D01*
X117018572Y-62148909D02*
X116994762Y-62172718D01*
X116994762Y-62172718D02*
X116947143Y-62196528D01*
X116947143Y-62196528D02*
X116756667Y-62196528D01*
X117423334Y-62172718D02*
X117256667Y-62172718D01*
X117256667Y-62434623D02*
X117256667Y-61934623D01*
X117256667Y-61934623D02*
X117494762Y-61934623D01*
X116459047Y-62763405D02*
X116411428Y-62739595D01*
X116411428Y-62739595D02*
X116339999Y-62739595D01*
X116339999Y-62739595D02*
X116268571Y-62763405D01*
X116268571Y-62763405D02*
X116220952Y-62811024D01*
X116220952Y-62811024D02*
X116197142Y-62858643D01*
X116197142Y-62858643D02*
X116173333Y-62953881D01*
X116173333Y-62953881D02*
X116173333Y-63025309D01*
X116173333Y-63025309D02*
X116197142Y-63120547D01*
X116197142Y-63120547D02*
X116220952Y-63168166D01*
X116220952Y-63168166D02*
X116268571Y-63215786D01*
X116268571Y-63215786D02*
X116339999Y-63239595D01*
X116339999Y-63239595D02*
X116387618Y-63239595D01*
X116387618Y-63239595D02*
X116459047Y-63215786D01*
X116459047Y-63215786D02*
X116482856Y-63191976D01*
X116482856Y-63191976D02*
X116482856Y-63025309D01*
X116482856Y-63025309D02*
X116387618Y-63025309D01*
X116697142Y-63239595D02*
X116697142Y-62739595D01*
X116697142Y-62739595D02*
X116982856Y-63239595D01*
X116982856Y-63239595D02*
X116982856Y-62739595D01*
X117220952Y-63239595D02*
X117220952Y-62739595D01*
X117220952Y-62739595D02*
X117340000Y-62739595D01*
X117340000Y-62739595D02*
X117411428Y-62763405D01*
X117411428Y-62763405D02*
X117459047Y-62811024D01*
X117459047Y-62811024D02*
X117482857Y-62858643D01*
X117482857Y-62858643D02*
X117506666Y-62953881D01*
X117506666Y-62953881D02*
X117506666Y-63025309D01*
X117506666Y-63025309D02*
X117482857Y-63120547D01*
X117482857Y-63120547D02*
X117459047Y-63168166D01*
X117459047Y-63168166D02*
X117411428Y-63215786D01*
X117411428Y-63215786D02*
X117340000Y-63239595D01*
X117340000Y-63239595D02*
X117220952Y-63239595D01*
D13*
X109474762Y-51654612D02*
X109665238Y-51654612D01*
X109436667Y-51768898D02*
X109570000Y-51368898D01*
X109570000Y-51368898D02*
X109703333Y-51768898D01*
X109836667Y-51768898D02*
X109836667Y-51368898D01*
X109836667Y-51368898D02*
X109931905Y-51368898D01*
X109931905Y-51368898D02*
X109989048Y-51387946D01*
X109989048Y-51387946D02*
X110027143Y-51426041D01*
X110027143Y-51426041D02*
X110046190Y-51464136D01*
X110046190Y-51464136D02*
X110065238Y-51540327D01*
X110065238Y-51540327D02*
X110065238Y-51597470D01*
X110065238Y-51597470D02*
X110046190Y-51673660D01*
X110046190Y-51673660D02*
X110027143Y-51711755D01*
X110027143Y-51711755D02*
X109989048Y-51749851D01*
X109989048Y-51749851D02*
X109931905Y-51768898D01*
X109931905Y-51768898D02*
X109836667Y-51768898D01*
X110465238Y-51730803D02*
X110446190Y-51749851D01*
X110446190Y-51749851D02*
X110389048Y-51768898D01*
X110389048Y-51768898D02*
X110350952Y-51768898D01*
X110350952Y-51768898D02*
X110293809Y-51749851D01*
X110293809Y-51749851D02*
X110255714Y-51711755D01*
X110255714Y-51711755D02*
X110236667Y-51673660D01*
X110236667Y-51673660D02*
X110217619Y-51597470D01*
X110217619Y-51597470D02*
X110217619Y-51540327D01*
X110217619Y-51540327D02*
X110236667Y-51464136D01*
X110236667Y-51464136D02*
X110255714Y-51426041D01*
X110255714Y-51426041D02*
X110293809Y-51387946D01*
X110293809Y-51387946D02*
X110350952Y-51368898D01*
X110350952Y-51368898D02*
X110389048Y-51368898D01*
X110389048Y-51368898D02*
X110446190Y-51387946D01*
X110446190Y-51387946D02*
X110465238Y-51406993D01*
X109569999Y-52012876D02*
X109646190Y-52012876D01*
X109646190Y-52012876D02*
X109684285Y-52031924D01*
X109684285Y-52031924D02*
X109722380Y-52070019D01*
X109722380Y-52070019D02*
X109741428Y-52146209D01*
X109741428Y-52146209D02*
X109741428Y-52279543D01*
X109741428Y-52279543D02*
X109722380Y-52355733D01*
X109722380Y-52355733D02*
X109684285Y-52393829D01*
X109684285Y-52393829D02*
X109646190Y-52412876D01*
X109646190Y-52412876D02*
X109569999Y-52412876D01*
X109569999Y-52412876D02*
X109531904Y-52393829D01*
X109531904Y-52393829D02*
X109493809Y-52355733D01*
X109493809Y-52355733D02*
X109474761Y-52279543D01*
X109474761Y-52279543D02*
X109474761Y-52146209D01*
X109474761Y-52146209D02*
X109493809Y-52070019D01*
X109493809Y-52070019D02*
X109531904Y-52031924D01*
X109531904Y-52031924D02*
X109569999Y-52012876D01*
X109912857Y-52012876D02*
X109912857Y-52336686D01*
X109912857Y-52336686D02*
X109931904Y-52374781D01*
X109931904Y-52374781D02*
X109950952Y-52393829D01*
X109950952Y-52393829D02*
X109989047Y-52412876D01*
X109989047Y-52412876D02*
X110065238Y-52412876D01*
X110065238Y-52412876D02*
X110103333Y-52393829D01*
X110103333Y-52393829D02*
X110122380Y-52374781D01*
X110122380Y-52374781D02*
X110141428Y-52336686D01*
X110141428Y-52336686D02*
X110141428Y-52012876D01*
X110274762Y-52012876D02*
X110503333Y-52012876D01*
X110389047Y-52412876D02*
X110389047Y-52012876D01*
D12*
X106393334Y-58656109D02*
X106560000Y-59156109D01*
X106560000Y-59156109D02*
X106726667Y-58656109D01*
X106893333Y-59156109D02*
X106893333Y-58656109D01*
X106893333Y-58656109D02*
X107012381Y-58656109D01*
X107012381Y-58656109D02*
X107083809Y-58679919D01*
X107083809Y-58679919D02*
X107131428Y-58727538D01*
X107131428Y-58727538D02*
X107155238Y-58775157D01*
X107155238Y-58775157D02*
X107179047Y-58870395D01*
X107179047Y-58870395D02*
X107179047Y-58941823D01*
X107179047Y-58941823D02*
X107155238Y-59037061D01*
X107155238Y-59037061D02*
X107131428Y-59084680D01*
X107131428Y-59084680D02*
X107083809Y-59132300D01*
X107083809Y-59132300D02*
X107012381Y-59156109D01*
X107012381Y-59156109D02*
X106893333Y-59156109D01*
X107393333Y-59156109D02*
X107393333Y-58656109D01*
X107393333Y-58656109D02*
X107512381Y-58656109D01*
X107512381Y-58656109D02*
X107583809Y-58679919D01*
X107583809Y-58679919D02*
X107631428Y-58727538D01*
X107631428Y-58727538D02*
X107655238Y-58775157D01*
X107655238Y-58775157D02*
X107679047Y-58870395D01*
X107679047Y-58870395D02*
X107679047Y-58941823D01*
X107679047Y-58941823D02*
X107655238Y-59037061D01*
X107655238Y-59037061D02*
X107631428Y-59084680D01*
X107631428Y-59084680D02*
X107583809Y-59132300D01*
X107583809Y-59132300D02*
X107512381Y-59156109D01*
X107512381Y-59156109D02*
X107393333Y-59156109D01*
X107893333Y-59156109D02*
X107893333Y-58656109D01*
X107893333Y-58656109D02*
X108012381Y-58656109D01*
X108012381Y-58656109D02*
X108083809Y-58679919D01*
X108083809Y-58679919D02*
X108131428Y-58727538D01*
X108131428Y-58727538D02*
X108155238Y-58775157D01*
X108155238Y-58775157D02*
X108179047Y-58870395D01*
X108179047Y-58870395D02*
X108179047Y-58941823D01*
X108179047Y-58941823D02*
X108155238Y-59037061D01*
X108155238Y-59037061D02*
X108131428Y-59084680D01*
X108131428Y-59084680D02*
X108083809Y-59132300D01*
X108083809Y-59132300D02*
X108012381Y-59156109D01*
X108012381Y-59156109D02*
X107893333Y-59156109D01*
X116339999Y-75537109D02*
X116173333Y-75299014D01*
X116054285Y-75537109D02*
X116054285Y-75037109D01*
X116054285Y-75037109D02*
X116244761Y-75037109D01*
X116244761Y-75037109D02*
X116292380Y-75060919D01*
X116292380Y-75060919D02*
X116316190Y-75084728D01*
X116316190Y-75084728D02*
X116339999Y-75132347D01*
X116339999Y-75132347D02*
X116339999Y-75203776D01*
X116339999Y-75203776D02*
X116316190Y-75251395D01*
X116316190Y-75251395D02*
X116292380Y-75275204D01*
X116292380Y-75275204D02*
X116244761Y-75299014D01*
X116244761Y-75299014D02*
X116054285Y-75299014D01*
X116530476Y-75513300D02*
X116578095Y-75537109D01*
X116578095Y-75537109D02*
X116673333Y-75537109D01*
X116673333Y-75537109D02*
X116720952Y-75513300D01*
X116720952Y-75513300D02*
X116744761Y-75465680D01*
X116744761Y-75465680D02*
X116744761Y-75441871D01*
X116744761Y-75441871D02*
X116720952Y-75394252D01*
X116720952Y-75394252D02*
X116673333Y-75370442D01*
X116673333Y-75370442D02*
X116601904Y-75370442D01*
X116601904Y-75370442D02*
X116554285Y-75346633D01*
X116554285Y-75346633D02*
X116530476Y-75299014D01*
X116530476Y-75299014D02*
X116530476Y-75275204D01*
X116530476Y-75275204D02*
X116554285Y-75227585D01*
X116554285Y-75227585D02*
X116601904Y-75203776D01*
X116601904Y-75203776D02*
X116673333Y-75203776D01*
X116673333Y-75203776D02*
X116720952Y-75227585D01*
X117244761Y-75537109D02*
X117078095Y-75299014D01*
X116959047Y-75537109D02*
X116959047Y-75037109D01*
X116959047Y-75037109D02*
X117149523Y-75037109D01*
X117149523Y-75037109D02*
X117197142Y-75060919D01*
X117197142Y-75060919D02*
X117220952Y-75084728D01*
X117220952Y-75084728D02*
X117244761Y-75132347D01*
X117244761Y-75132347D02*
X117244761Y-75203776D01*
X117244761Y-75203776D02*
X117220952Y-75251395D01*
X117220952Y-75251395D02*
X117197142Y-75275204D01*
X117197142Y-75275204D02*
X117149523Y-75299014D01*
X117149523Y-75299014D02*
X116959047Y-75299014D01*
X117411428Y-75537109D02*
X117673333Y-75203776D01*
X117411428Y-75203776D02*
X117673333Y-75537109D01*
X107569047Y-79632919D02*
X107521428Y-79609109D01*
X107521428Y-79609109D02*
X107449999Y-79609109D01*
X107449999Y-79609109D02*
X107378571Y-79632919D01*
X107378571Y-79632919D02*
X107330952Y-79680538D01*
X107330952Y-79680538D02*
X107307142Y-79728157D01*
X107307142Y-79728157D02*
X107283333Y-79823395D01*
X107283333Y-79823395D02*
X107283333Y-79894823D01*
X107283333Y-79894823D02*
X107307142Y-79990061D01*
X107307142Y-79990061D02*
X107330952Y-80037680D01*
X107330952Y-80037680D02*
X107378571Y-80085300D01*
X107378571Y-80085300D02*
X107449999Y-80109109D01*
X107449999Y-80109109D02*
X107497618Y-80109109D01*
X107497618Y-80109109D02*
X107569047Y-80085300D01*
X107569047Y-80085300D02*
X107592856Y-80061490D01*
X107592856Y-80061490D02*
X107592856Y-79894823D01*
X107592856Y-79894823D02*
X107497618Y-79894823D01*
X107807142Y-80109109D02*
X107807142Y-79609109D01*
X107807142Y-79609109D02*
X108092856Y-80109109D01*
X108092856Y-80109109D02*
X108092856Y-79609109D01*
X108330952Y-80109109D02*
X108330952Y-79609109D01*
X108330952Y-79609109D02*
X108450000Y-79609109D01*
X108450000Y-79609109D02*
X108521428Y-79632919D01*
X108521428Y-79632919D02*
X108569047Y-79680538D01*
X108569047Y-79680538D02*
X108592857Y-79728157D01*
X108592857Y-79728157D02*
X108616666Y-79823395D01*
X108616666Y-79823395D02*
X108616666Y-79894823D01*
X108616666Y-79894823D02*
X108592857Y-79990061D01*
X108592857Y-79990061D02*
X108569047Y-80037680D01*
X108569047Y-80037680D02*
X108521428Y-80085300D01*
X108521428Y-80085300D02*
X108450000Y-80109109D01*
X108450000Y-80109109D02*
X108330952Y-80109109D01*
X116137619Y-69300623D02*
X116447143Y-69300623D01*
X116447143Y-69300623D02*
X116280476Y-69491099D01*
X116280476Y-69491099D02*
X116351905Y-69491099D01*
X116351905Y-69491099D02*
X116399524Y-69514909D01*
X116399524Y-69514909D02*
X116423333Y-69538718D01*
X116423333Y-69538718D02*
X116447143Y-69586337D01*
X116447143Y-69586337D02*
X116447143Y-69705385D01*
X116447143Y-69705385D02*
X116423333Y-69753004D01*
X116423333Y-69753004D02*
X116399524Y-69776814D01*
X116399524Y-69776814D02*
X116351905Y-69800623D01*
X116351905Y-69800623D02*
X116209048Y-69800623D01*
X116209048Y-69800623D02*
X116161429Y-69776814D01*
X116161429Y-69776814D02*
X116137619Y-69753004D01*
X116613809Y-69300623D02*
X116732857Y-69800623D01*
X116732857Y-69800623D02*
X116828095Y-69443480D01*
X116828095Y-69443480D02*
X116923333Y-69800623D01*
X116923333Y-69800623D02*
X117042381Y-69300623D01*
X117399524Y-69538718D02*
X117470952Y-69562528D01*
X117470952Y-69562528D02*
X117494762Y-69586337D01*
X117494762Y-69586337D02*
X117518571Y-69633956D01*
X117518571Y-69633956D02*
X117518571Y-69705385D01*
X117518571Y-69705385D02*
X117494762Y-69753004D01*
X117494762Y-69753004D02*
X117470952Y-69776814D01*
X117470952Y-69776814D02*
X117423333Y-69800623D01*
X117423333Y-69800623D02*
X117232857Y-69800623D01*
X117232857Y-69800623D02*
X117232857Y-69300623D01*
X117232857Y-69300623D02*
X117399524Y-69300623D01*
X117399524Y-69300623D02*
X117447143Y-69324433D01*
X117447143Y-69324433D02*
X117470952Y-69348242D01*
X117470952Y-69348242D02*
X117494762Y-69395861D01*
X117494762Y-69395861D02*
X117494762Y-69443480D01*
X117494762Y-69443480D02*
X117470952Y-69491099D01*
X117470952Y-69491099D02*
X117447143Y-69514909D01*
X117447143Y-69514909D02*
X117399524Y-69538718D01*
X117399524Y-69538718D02*
X117232857Y-69538718D01*
X116220952Y-70343690D02*
X116387619Y-70343690D01*
X116459047Y-70605595D02*
X116220952Y-70605595D01*
X116220952Y-70605595D02*
X116220952Y-70105595D01*
X116220952Y-70105595D02*
X116459047Y-70105595D01*
X116673333Y-70605595D02*
X116673333Y-70105595D01*
X116673333Y-70105595D02*
X116959047Y-70605595D01*
X116959047Y-70605595D02*
X116959047Y-70105595D01*
X117363810Y-70343690D02*
X117435238Y-70367500D01*
X117435238Y-70367500D02*
X117459048Y-70391309D01*
X117459048Y-70391309D02*
X117482857Y-70438928D01*
X117482857Y-70438928D02*
X117482857Y-70510357D01*
X117482857Y-70510357D02*
X117459048Y-70557976D01*
X117459048Y-70557976D02*
X117435238Y-70581786D01*
X117435238Y-70581786D02*
X117387619Y-70605595D01*
X117387619Y-70605595D02*
X117197143Y-70605595D01*
X117197143Y-70605595D02*
X117197143Y-70105595D01*
X117197143Y-70105595D02*
X117363810Y-70105595D01*
X117363810Y-70105595D02*
X117411429Y-70129405D01*
X117411429Y-70129405D02*
X117435238Y-70153214D01*
X117435238Y-70153214D02*
X117459048Y-70200833D01*
X117459048Y-70200833D02*
X117459048Y-70248452D01*
X117459048Y-70248452D02*
X117435238Y-70296071D01*
X117435238Y-70296071D02*
X117411429Y-70319881D01*
X117411429Y-70319881D02*
X117363810Y-70343690D01*
X117363810Y-70343690D02*
X117197143Y-70343690D01*
X116399523Y-78077109D02*
X116232857Y-77839014D01*
X116113809Y-78077109D02*
X116113809Y-77577109D01*
X116113809Y-77577109D02*
X116304285Y-77577109D01*
X116304285Y-77577109D02*
X116351904Y-77600919D01*
X116351904Y-77600919D02*
X116375714Y-77624728D01*
X116375714Y-77624728D02*
X116399523Y-77672347D01*
X116399523Y-77672347D02*
X116399523Y-77743776D01*
X116399523Y-77743776D02*
X116375714Y-77791395D01*
X116375714Y-77791395D02*
X116351904Y-77815204D01*
X116351904Y-77815204D02*
X116304285Y-77839014D01*
X116304285Y-77839014D02*
X116113809Y-77839014D01*
X116590000Y-78053300D02*
X116637619Y-78077109D01*
X116637619Y-78077109D02*
X116732857Y-78077109D01*
X116732857Y-78077109D02*
X116780476Y-78053300D01*
X116780476Y-78053300D02*
X116804285Y-78005680D01*
X116804285Y-78005680D02*
X116804285Y-77981871D01*
X116804285Y-77981871D02*
X116780476Y-77934252D01*
X116780476Y-77934252D02*
X116732857Y-77910442D01*
X116732857Y-77910442D02*
X116661428Y-77910442D01*
X116661428Y-77910442D02*
X116613809Y-77886633D01*
X116613809Y-77886633D02*
X116590000Y-77839014D01*
X116590000Y-77839014D02*
X116590000Y-77815204D01*
X116590000Y-77815204D02*
X116613809Y-77767585D01*
X116613809Y-77767585D02*
X116661428Y-77743776D01*
X116661428Y-77743776D02*
X116732857Y-77743776D01*
X116732857Y-77743776D02*
X116780476Y-77767585D01*
X116947143Y-77577109D02*
X117232857Y-77577109D01*
X117090000Y-78077109D02*
X117090000Y-77577109D01*
X117351904Y-78077109D02*
X117613809Y-77743776D01*
X117351904Y-77743776D02*
X117613809Y-78077109D01*
X98016109Y-79978237D02*
X98016109Y-80263951D01*
X98016109Y-80121094D02*
X97516109Y-80121094D01*
X97516109Y-80121094D02*
X97587538Y-80168713D01*
X97587538Y-80168713D02*
X97635157Y-80216332D01*
X97635157Y-80216332D02*
X97658966Y-80263951D01*
X97563728Y-79787761D02*
X97539919Y-79763952D01*
X97539919Y-79763952D02*
X97516109Y-79716333D01*
X97516109Y-79716333D02*
X97516109Y-79597285D01*
X97516109Y-79597285D02*
X97539919Y-79549666D01*
X97539919Y-79549666D02*
X97563728Y-79525857D01*
X97563728Y-79525857D02*
X97611347Y-79502047D01*
X97611347Y-79502047D02*
X97658966Y-79502047D01*
X97658966Y-79502047D02*
X97730395Y-79525857D01*
X97730395Y-79525857D02*
X98016109Y-79811571D01*
X98016109Y-79811571D02*
X98016109Y-79502047D01*
X103096109Y-79978237D02*
X103096109Y-80263951D01*
X103096109Y-80121094D02*
X102596109Y-80121094D01*
X102596109Y-80121094D02*
X102667538Y-80168713D01*
X102667538Y-80168713D02*
X102715157Y-80216332D01*
X102715157Y-80216332D02*
X102738966Y-80263951D01*
X102762776Y-79549666D02*
X103096109Y-79549666D01*
X102572300Y-79668714D02*
X102929442Y-79787761D01*
X102929442Y-79787761D02*
X102929442Y-79478238D01*
D13*
X116147619Y-64354663D02*
X116457143Y-64354663D01*
X116457143Y-64354663D02*
X116290476Y-64545139D01*
X116290476Y-64545139D02*
X116361905Y-64545139D01*
X116361905Y-64545139D02*
X116409524Y-64568949D01*
X116409524Y-64568949D02*
X116433333Y-64592758D01*
X116433333Y-64592758D02*
X116457143Y-64640377D01*
X116457143Y-64640377D02*
X116457143Y-64759425D01*
X116457143Y-64759425D02*
X116433333Y-64807044D01*
X116433333Y-64807044D02*
X116409524Y-64830854D01*
X116409524Y-64830854D02*
X116361905Y-64854663D01*
X116361905Y-64854663D02*
X116219048Y-64854663D01*
X116219048Y-64854663D02*
X116171429Y-64830854D01*
X116171429Y-64830854D02*
X116147619Y-64807044D01*
X116623809Y-64354663D02*
X116742857Y-64854663D01*
X116742857Y-64854663D02*
X116838095Y-64497520D01*
X116838095Y-64497520D02*
X116933333Y-64854663D01*
X116933333Y-64854663D02*
X117052381Y-64354663D01*
X117409524Y-64592758D02*
X117480952Y-64616568D01*
X117480952Y-64616568D02*
X117504762Y-64640377D01*
X117504762Y-64640377D02*
X117528571Y-64687996D01*
X117528571Y-64687996D02*
X117528571Y-64759425D01*
X117528571Y-64759425D02*
X117504762Y-64807044D01*
X117504762Y-64807044D02*
X117480952Y-64830854D01*
X117480952Y-64830854D02*
X117433333Y-64854663D01*
X117433333Y-64854663D02*
X117242857Y-64854663D01*
X117242857Y-64854663D02*
X117242857Y-64354663D01*
X117242857Y-64354663D02*
X117409524Y-64354663D01*
X117409524Y-64354663D02*
X117457143Y-64378473D01*
X117457143Y-64378473D02*
X117480952Y-64402282D01*
X117480952Y-64402282D02*
X117504762Y-64449901D01*
X117504762Y-64449901D02*
X117504762Y-64497520D01*
X117504762Y-64497520D02*
X117480952Y-64545139D01*
X117480952Y-64545139D02*
X117457143Y-64568949D01*
X117457143Y-64568949D02*
X117409524Y-64592758D01*
X117409524Y-64592758D02*
X117242857Y-64592758D01*
X116552380Y-65612016D02*
X116528571Y-65635826D01*
X116528571Y-65635826D02*
X116457142Y-65659635D01*
X116457142Y-65659635D02*
X116409523Y-65659635D01*
X116409523Y-65659635D02*
X116338095Y-65635826D01*
X116338095Y-65635826D02*
X116290476Y-65588206D01*
X116290476Y-65588206D02*
X116266666Y-65540587D01*
X116266666Y-65540587D02*
X116242857Y-65445349D01*
X116242857Y-65445349D02*
X116242857Y-65373921D01*
X116242857Y-65373921D02*
X116266666Y-65278683D01*
X116266666Y-65278683D02*
X116290476Y-65231064D01*
X116290476Y-65231064D02*
X116338095Y-65183445D01*
X116338095Y-65183445D02*
X116409523Y-65159635D01*
X116409523Y-65159635D02*
X116457142Y-65159635D01*
X116457142Y-65159635D02*
X116528571Y-65183445D01*
X116528571Y-65183445D02*
X116552380Y-65207254D01*
X117004761Y-65659635D02*
X116766666Y-65659635D01*
X116766666Y-65659635D02*
X116766666Y-65159635D01*
X117171428Y-65659635D02*
X117171428Y-65159635D01*
X117457142Y-65659635D02*
X117242857Y-65373921D01*
X117457142Y-65159635D02*
X117171428Y-65445349D01*
D12*
X100556109Y-79978237D02*
X100556109Y-80263951D01*
X100556109Y-80121094D02*
X100056109Y-80121094D01*
X100056109Y-80121094D02*
X100127538Y-80168713D01*
X100127538Y-80168713D02*
X100175157Y-80216332D01*
X100175157Y-80216332D02*
X100198966Y-80263951D01*
X100056109Y-79811571D02*
X100056109Y-79502047D01*
X100056109Y-79502047D02*
X100246585Y-79668714D01*
X100246585Y-79668714D02*
X100246585Y-79597285D01*
X100246585Y-79597285D02*
X100270395Y-79549666D01*
X100270395Y-79549666D02*
X100294204Y-79525857D01*
X100294204Y-79525857D02*
X100341823Y-79502047D01*
X100341823Y-79502047D02*
X100460871Y-79502047D01*
X100460871Y-79502047D02*
X100508490Y-79525857D01*
X100508490Y-79525857D02*
X100532300Y-79549666D01*
X100532300Y-79549666D02*
X100556109Y-79597285D01*
X100556109Y-79597285D02*
X100556109Y-79740142D01*
X100556109Y-79740142D02*
X100532300Y-79787761D01*
X100532300Y-79787761D02*
X100508490Y-79811571D01*
D10*
X103308095Y-73794819D02*
X103308095Y-74604342D01*
X103308095Y-74604342D02*
X103355714Y-74699580D01*
X103355714Y-74699580D02*
X103403333Y-74747200D01*
X103403333Y-74747200D02*
X103498571Y-74794819D01*
X103498571Y-74794819D02*
X103689047Y-74794819D01*
X103689047Y-74794819D02*
X103784285Y-74747200D01*
X103784285Y-74747200D02*
X103831904Y-74699580D01*
X103831904Y-74699580D02*
X103879523Y-74604342D01*
X103879523Y-74604342D02*
X103879523Y-73794819D01*
X104879523Y-74794819D02*
X104308095Y-74794819D01*
X104593809Y-74794819D02*
X104593809Y-73794819D01*
X104593809Y-73794819D02*
X104498571Y-73937676D01*
X104498571Y-73937676D02*
X104403333Y-74032914D01*
X104403333Y-74032914D02*
X104308095Y-74080533D01*
X109724819Y-85303333D02*
X110439104Y-85303333D01*
X110439104Y-85303333D02*
X110581961Y-85350952D01*
X110581961Y-85350952D02*
X110677200Y-85446190D01*
X110677200Y-85446190D02*
X110724819Y-85589047D01*
X110724819Y-85589047D02*
X110724819Y-85684285D01*
X109820057Y-84874761D02*
X109772438Y-84827142D01*
X109772438Y-84827142D02*
X109724819Y-84731904D01*
X109724819Y-84731904D02*
X109724819Y-84493809D01*
X109724819Y-84493809D02*
X109772438Y-84398571D01*
X109772438Y-84398571D02*
X109820057Y-84350952D01*
X109820057Y-84350952D02*
X109915295Y-84303333D01*
X109915295Y-84303333D02*
X110010533Y-84303333D01*
X110010533Y-84303333D02*
X110153390Y-84350952D01*
X110153390Y-84350952D02*
X110724819Y-84922380D01*
X110724819Y-84922380D02*
X110724819Y-84303333D01*
D15*
X84771345Y-74760666D02*
X84795536Y-74784857D01*
X84795536Y-74784857D02*
X84819726Y-74857428D01*
X84819726Y-74857428D02*
X84819726Y-74905809D01*
X84819726Y-74905809D02*
X84795536Y-74978381D01*
X84795536Y-74978381D02*
X84747155Y-75026762D01*
X84747155Y-75026762D02*
X84698774Y-75050952D01*
X84698774Y-75050952D02*
X84602012Y-75075143D01*
X84602012Y-75075143D02*
X84529440Y-75075143D01*
X84529440Y-75075143D02*
X84432678Y-75050952D01*
X84432678Y-75050952D02*
X84384297Y-75026762D01*
X84384297Y-75026762D02*
X84335916Y-74978381D01*
X84335916Y-74978381D02*
X84311726Y-74905809D01*
X84311726Y-74905809D02*
X84311726Y-74857428D01*
X84311726Y-74857428D02*
X84335916Y-74784857D01*
X84335916Y-74784857D02*
X84360107Y-74760666D01*
X84311726Y-74301047D02*
X84311726Y-74542952D01*
X84311726Y-74542952D02*
X84553631Y-74567143D01*
X84553631Y-74567143D02*
X84529440Y-74542952D01*
X84529440Y-74542952D02*
X84505250Y-74494571D01*
X84505250Y-74494571D02*
X84505250Y-74373619D01*
X84505250Y-74373619D02*
X84529440Y-74325238D01*
X84529440Y-74325238D02*
X84553631Y-74301047D01*
X84553631Y-74301047D02*
X84602012Y-74276857D01*
X84602012Y-74276857D02*
X84722964Y-74276857D01*
X84722964Y-74276857D02*
X84771345Y-74301047D01*
X84771345Y-74301047D02*
X84795536Y-74325238D01*
X84795536Y-74325238D02*
X84819726Y-74373619D01*
X84819726Y-74373619D02*
X84819726Y-74494571D01*
X84819726Y-74494571D02*
X84795536Y-74542952D01*
X84795536Y-74542952D02*
X84771345Y-74567143D01*
X102150333Y-77101345D02*
X102126142Y-77125536D01*
X102126142Y-77125536D02*
X102053571Y-77149726D01*
X102053571Y-77149726D02*
X102005190Y-77149726D01*
X102005190Y-77149726D02*
X101932618Y-77125536D01*
X101932618Y-77125536D02*
X101884237Y-77077155D01*
X101884237Y-77077155D02*
X101860047Y-77028774D01*
X101860047Y-77028774D02*
X101835856Y-76932012D01*
X101835856Y-76932012D02*
X101835856Y-76859440D01*
X101835856Y-76859440D02*
X101860047Y-76762678D01*
X101860047Y-76762678D02*
X101884237Y-76714297D01*
X101884237Y-76714297D02*
X101932618Y-76665916D01*
X101932618Y-76665916D02*
X102005190Y-76641726D01*
X102005190Y-76641726D02*
X102053571Y-76641726D01*
X102053571Y-76641726D02*
X102126142Y-76665916D01*
X102126142Y-76665916D02*
X102150333Y-76690107D01*
X102440618Y-76859440D02*
X102392237Y-76835250D01*
X102392237Y-76835250D02*
X102368047Y-76811059D01*
X102368047Y-76811059D02*
X102343856Y-76762678D01*
X102343856Y-76762678D02*
X102343856Y-76738488D01*
X102343856Y-76738488D02*
X102368047Y-76690107D01*
X102368047Y-76690107D02*
X102392237Y-76665916D01*
X102392237Y-76665916D02*
X102440618Y-76641726D01*
X102440618Y-76641726D02*
X102537380Y-76641726D01*
X102537380Y-76641726D02*
X102585761Y-76665916D01*
X102585761Y-76665916D02*
X102609952Y-76690107D01*
X102609952Y-76690107D02*
X102634142Y-76738488D01*
X102634142Y-76738488D02*
X102634142Y-76762678D01*
X102634142Y-76762678D02*
X102609952Y-76811059D01*
X102609952Y-76811059D02*
X102585761Y-76835250D01*
X102585761Y-76835250D02*
X102537380Y-76859440D01*
X102537380Y-76859440D02*
X102440618Y-76859440D01*
X102440618Y-76859440D02*
X102392237Y-76883631D01*
X102392237Y-76883631D02*
X102368047Y-76907821D01*
X102368047Y-76907821D02*
X102343856Y-76956202D01*
X102343856Y-76956202D02*
X102343856Y-77052964D01*
X102343856Y-77052964D02*
X102368047Y-77101345D01*
X102368047Y-77101345D02*
X102392237Y-77125536D01*
X102392237Y-77125536D02*
X102440618Y-77149726D01*
X102440618Y-77149726D02*
X102537380Y-77149726D01*
X102537380Y-77149726D02*
X102585761Y-77125536D01*
X102585761Y-77125536D02*
X102609952Y-77101345D01*
X102609952Y-77101345D02*
X102634142Y-77052964D01*
X102634142Y-77052964D02*
X102634142Y-76956202D01*
X102634142Y-76956202D02*
X102609952Y-76907821D01*
X102609952Y-76907821D02*
X102585761Y-76883631D01*
X102585761Y-76883631D02*
X102537380Y-76859440D01*
X106623428Y-67601345D02*
X106599237Y-67625536D01*
X106599237Y-67625536D02*
X106526666Y-67649726D01*
X106526666Y-67649726D02*
X106478285Y-67649726D01*
X106478285Y-67649726D02*
X106405713Y-67625536D01*
X106405713Y-67625536D02*
X106357332Y-67577155D01*
X106357332Y-67577155D02*
X106333142Y-67528774D01*
X106333142Y-67528774D02*
X106308951Y-67432012D01*
X106308951Y-67432012D02*
X106308951Y-67359440D01*
X106308951Y-67359440D02*
X106333142Y-67262678D01*
X106333142Y-67262678D02*
X106357332Y-67214297D01*
X106357332Y-67214297D02*
X106405713Y-67165916D01*
X106405713Y-67165916D02*
X106478285Y-67141726D01*
X106478285Y-67141726D02*
X106526666Y-67141726D01*
X106526666Y-67141726D02*
X106599237Y-67165916D01*
X106599237Y-67165916D02*
X106623428Y-67190107D01*
X107107237Y-67649726D02*
X106816951Y-67649726D01*
X106962094Y-67649726D02*
X106962094Y-67141726D01*
X106962094Y-67141726D02*
X106913713Y-67214297D01*
X106913713Y-67214297D02*
X106865332Y-67262678D01*
X106865332Y-67262678D02*
X106816951Y-67286869D01*
X107591047Y-67649726D02*
X107300761Y-67649726D01*
X107445904Y-67649726D02*
X107445904Y-67141726D01*
X107445904Y-67141726D02*
X107397523Y-67214297D01*
X107397523Y-67214297D02*
X107349142Y-67262678D01*
X107349142Y-67262678D02*
X107300761Y-67286869D01*
X99591345Y-60656571D02*
X99615536Y-60680762D01*
X99615536Y-60680762D02*
X99639726Y-60753333D01*
X99639726Y-60753333D02*
X99639726Y-60801714D01*
X99639726Y-60801714D02*
X99615536Y-60874286D01*
X99615536Y-60874286D02*
X99567155Y-60922667D01*
X99567155Y-60922667D02*
X99518774Y-60946857D01*
X99518774Y-60946857D02*
X99422012Y-60971048D01*
X99422012Y-60971048D02*
X99349440Y-60971048D01*
X99349440Y-60971048D02*
X99252678Y-60946857D01*
X99252678Y-60946857D02*
X99204297Y-60922667D01*
X99204297Y-60922667D02*
X99155916Y-60874286D01*
X99155916Y-60874286D02*
X99131726Y-60801714D01*
X99131726Y-60801714D02*
X99131726Y-60753333D01*
X99131726Y-60753333D02*
X99155916Y-60680762D01*
X99155916Y-60680762D02*
X99180107Y-60656571D01*
X99639726Y-60172762D02*
X99639726Y-60463048D01*
X99639726Y-60317905D02*
X99131726Y-60317905D01*
X99131726Y-60317905D02*
X99204297Y-60366286D01*
X99204297Y-60366286D02*
X99252678Y-60414667D01*
X99252678Y-60414667D02*
X99276869Y-60463048D01*
X99180107Y-59979238D02*
X99155916Y-59955047D01*
X99155916Y-59955047D02*
X99131726Y-59906666D01*
X99131726Y-59906666D02*
X99131726Y-59785714D01*
X99131726Y-59785714D02*
X99155916Y-59737333D01*
X99155916Y-59737333D02*
X99180107Y-59713142D01*
X99180107Y-59713142D02*
X99228488Y-59688952D01*
X99228488Y-59688952D02*
X99276869Y-59688952D01*
X99276869Y-59688952D02*
X99349440Y-59713142D01*
X99349440Y-59713142D02*
X99639726Y-60003428D01*
X99639726Y-60003428D02*
X99639726Y-59688952D01*
X101481345Y-60676571D02*
X101505536Y-60700762D01*
X101505536Y-60700762D02*
X101529726Y-60773333D01*
X101529726Y-60773333D02*
X101529726Y-60821714D01*
X101529726Y-60821714D02*
X101505536Y-60894286D01*
X101505536Y-60894286D02*
X101457155Y-60942667D01*
X101457155Y-60942667D02*
X101408774Y-60966857D01*
X101408774Y-60966857D02*
X101312012Y-60991048D01*
X101312012Y-60991048D02*
X101239440Y-60991048D01*
X101239440Y-60991048D02*
X101142678Y-60966857D01*
X101142678Y-60966857D02*
X101094297Y-60942667D01*
X101094297Y-60942667D02*
X101045916Y-60894286D01*
X101045916Y-60894286D02*
X101021726Y-60821714D01*
X101021726Y-60821714D02*
X101021726Y-60773333D01*
X101021726Y-60773333D02*
X101045916Y-60700762D01*
X101045916Y-60700762D02*
X101070107Y-60676571D01*
X101529726Y-60192762D02*
X101529726Y-60483048D01*
X101529726Y-60337905D02*
X101021726Y-60337905D01*
X101021726Y-60337905D02*
X101094297Y-60386286D01*
X101094297Y-60386286D02*
X101142678Y-60434667D01*
X101142678Y-60434667D02*
X101166869Y-60483048D01*
X101021726Y-60023428D02*
X101021726Y-59708952D01*
X101021726Y-59708952D02*
X101215250Y-59878285D01*
X101215250Y-59878285D02*
X101215250Y-59805714D01*
X101215250Y-59805714D02*
X101239440Y-59757333D01*
X101239440Y-59757333D02*
X101263631Y-59733142D01*
X101263631Y-59733142D02*
X101312012Y-59708952D01*
X101312012Y-59708952D02*
X101432964Y-59708952D01*
X101432964Y-59708952D02*
X101481345Y-59733142D01*
X101481345Y-59733142D02*
X101505536Y-59757333D01*
X101505536Y-59757333D02*
X101529726Y-59805714D01*
X101529726Y-59805714D02*
X101529726Y-59950857D01*
X101529726Y-59950857D02*
X101505536Y-59999238D01*
X101505536Y-59999238D02*
X101481345Y-60023428D01*
X106875333Y-64449726D02*
X106705999Y-64207821D01*
X106585047Y-64449726D02*
X106585047Y-63941726D01*
X106585047Y-63941726D02*
X106778571Y-63941726D01*
X106778571Y-63941726D02*
X106826952Y-63965916D01*
X106826952Y-63965916D02*
X106851142Y-63990107D01*
X106851142Y-63990107D02*
X106875333Y-64038488D01*
X106875333Y-64038488D02*
X106875333Y-64111059D01*
X106875333Y-64111059D02*
X106851142Y-64159440D01*
X106851142Y-64159440D02*
X106826952Y-64183631D01*
X106826952Y-64183631D02*
X106778571Y-64207821D01*
X106778571Y-64207821D02*
X106585047Y-64207821D01*
X107359142Y-64449726D02*
X107068856Y-64449726D01*
X107213999Y-64449726D02*
X107213999Y-63941726D01*
X107213999Y-63941726D02*
X107165618Y-64014297D01*
X107165618Y-64014297D02*
X107117237Y-64062678D01*
X107117237Y-64062678D02*
X107068856Y-64086869D01*
D16*
X98235523Y-78202958D02*
X98211333Y-78190863D01*
X98211333Y-78190863D02*
X98175047Y-78190863D01*
X98175047Y-78190863D02*
X98138761Y-78202958D01*
X98138761Y-78202958D02*
X98114571Y-78227148D01*
X98114571Y-78227148D02*
X98102476Y-78251339D01*
X98102476Y-78251339D02*
X98090380Y-78299720D01*
X98090380Y-78299720D02*
X98090380Y-78336006D01*
X98090380Y-78336006D02*
X98102476Y-78384387D01*
X98102476Y-78384387D02*
X98114571Y-78408577D01*
X98114571Y-78408577D02*
X98138761Y-78432768D01*
X98138761Y-78432768D02*
X98175047Y-78444863D01*
X98175047Y-78444863D02*
X98199238Y-78444863D01*
X98199238Y-78444863D02*
X98235523Y-78432768D01*
X98235523Y-78432768D02*
X98247619Y-78420672D01*
X98247619Y-78420672D02*
X98247619Y-78336006D01*
X98247619Y-78336006D02*
X98199238Y-78336006D01*
X98356476Y-78444863D02*
X98356476Y-78190863D01*
X98356476Y-78190863D02*
X98501619Y-78444863D01*
X98501619Y-78444863D02*
X98501619Y-78190863D01*
X98622571Y-78444863D02*
X98622571Y-78190863D01*
X98622571Y-78190863D02*
X98683047Y-78190863D01*
X98683047Y-78190863D02*
X98719333Y-78202958D01*
X98719333Y-78202958D02*
X98743523Y-78227148D01*
X98743523Y-78227148D02*
X98755618Y-78251339D01*
X98755618Y-78251339D02*
X98767714Y-78299720D01*
X98767714Y-78299720D02*
X98767714Y-78336006D01*
X98767714Y-78336006D02*
X98755618Y-78384387D01*
X98755618Y-78384387D02*
X98743523Y-78408577D01*
X98743523Y-78408577D02*
X98719333Y-78432768D01*
X98719333Y-78432768D02*
X98683047Y-78444863D01*
X98683047Y-78444863D02*
X98622571Y-78444863D01*
X99009618Y-78444863D02*
X98864475Y-78444863D01*
X98937047Y-78444863D02*
X98937047Y-78190863D01*
X98937047Y-78190863D02*
X98912856Y-78227148D01*
X98912856Y-78227148D02*
X98888666Y-78251339D01*
X98888666Y-78251339D02*
X98864475Y-78263434D01*
X105425523Y-59822958D02*
X105401333Y-59810863D01*
X105401333Y-59810863D02*
X105365047Y-59810863D01*
X105365047Y-59810863D02*
X105328761Y-59822958D01*
X105328761Y-59822958D02*
X105304571Y-59847148D01*
X105304571Y-59847148D02*
X105292476Y-59871339D01*
X105292476Y-59871339D02*
X105280380Y-59919720D01*
X105280380Y-59919720D02*
X105280380Y-59956006D01*
X105280380Y-59956006D02*
X105292476Y-60004387D01*
X105292476Y-60004387D02*
X105304571Y-60028577D01*
X105304571Y-60028577D02*
X105328761Y-60052768D01*
X105328761Y-60052768D02*
X105365047Y-60064863D01*
X105365047Y-60064863D02*
X105389238Y-60064863D01*
X105389238Y-60064863D02*
X105425523Y-60052768D01*
X105425523Y-60052768D02*
X105437619Y-60040672D01*
X105437619Y-60040672D02*
X105437619Y-59956006D01*
X105437619Y-59956006D02*
X105389238Y-59956006D01*
X105546476Y-60064863D02*
X105546476Y-59810863D01*
X105546476Y-59810863D02*
X105691619Y-60064863D01*
X105691619Y-60064863D02*
X105691619Y-59810863D01*
X105812571Y-60064863D02*
X105812571Y-59810863D01*
X105812571Y-59810863D02*
X105873047Y-59810863D01*
X105873047Y-59810863D02*
X105909333Y-59822958D01*
X105909333Y-59822958D02*
X105933523Y-59847148D01*
X105933523Y-59847148D02*
X105945618Y-59871339D01*
X105945618Y-59871339D02*
X105957714Y-59919720D01*
X105957714Y-59919720D02*
X105957714Y-59956006D01*
X105957714Y-59956006D02*
X105945618Y-60004387D01*
X105945618Y-60004387D02*
X105933523Y-60028577D01*
X105933523Y-60028577D02*
X105909333Y-60052768D01*
X105909333Y-60052768D02*
X105873047Y-60064863D01*
X105873047Y-60064863D02*
X105812571Y-60064863D01*
X106175428Y-59810863D02*
X106127047Y-59810863D01*
X106127047Y-59810863D02*
X106102856Y-59822958D01*
X106102856Y-59822958D02*
X106090761Y-59835053D01*
X106090761Y-59835053D02*
X106066571Y-59871339D01*
X106066571Y-59871339D02*
X106054475Y-59919720D01*
X106054475Y-59919720D02*
X106054475Y-60016482D01*
X106054475Y-60016482D02*
X106066571Y-60040672D01*
X106066571Y-60040672D02*
X106078666Y-60052768D01*
X106078666Y-60052768D02*
X106102856Y-60064863D01*
X106102856Y-60064863D02*
X106151237Y-60064863D01*
X106151237Y-60064863D02*
X106175428Y-60052768D01*
X106175428Y-60052768D02*
X106187523Y-60040672D01*
X106187523Y-60040672D02*
X106199618Y-60016482D01*
X106199618Y-60016482D02*
X106199618Y-59956006D01*
X106199618Y-59956006D02*
X106187523Y-59931815D01*
X106187523Y-59931815D02*
X106175428Y-59919720D01*
X106175428Y-59919720D02*
X106151237Y-59907625D01*
X106151237Y-59907625D02*
X106102856Y-59907625D01*
X106102856Y-59907625D02*
X106078666Y-59919720D01*
X106078666Y-59919720D02*
X106066571Y-59931815D01*
X106066571Y-59931815D02*
X106054475Y-59956006D01*
X104895333Y-64000863D02*
X104895333Y-64182291D01*
X104895333Y-64182291D02*
X104883238Y-64218577D01*
X104883238Y-64218577D02*
X104859047Y-64242768D01*
X104859047Y-64242768D02*
X104822762Y-64254863D01*
X104822762Y-64254863D02*
X104798571Y-64254863D01*
X105137238Y-64000863D02*
X105016286Y-64000863D01*
X105016286Y-64000863D02*
X105004190Y-64121815D01*
X105004190Y-64121815D02*
X105016286Y-64109720D01*
X105016286Y-64109720D02*
X105040476Y-64097625D01*
X105040476Y-64097625D02*
X105100952Y-64097625D01*
X105100952Y-64097625D02*
X105125143Y-64109720D01*
X105125143Y-64109720D02*
X105137238Y-64121815D01*
X105137238Y-64121815D02*
X105149333Y-64146006D01*
X105149333Y-64146006D02*
X105149333Y-64206482D01*
X105149333Y-64206482D02*
X105137238Y-64230672D01*
X105137238Y-64230672D02*
X105125143Y-64242768D01*
X105125143Y-64242768D02*
X105100952Y-64254863D01*
X105100952Y-64254863D02*
X105040476Y-64254863D01*
X105040476Y-64254863D02*
X105016286Y-64242768D01*
X105016286Y-64242768D02*
X105004190Y-64230672D01*
X89245333Y-63360863D02*
X89245333Y-63542291D01*
X89245333Y-63542291D02*
X89233238Y-63578577D01*
X89233238Y-63578577D02*
X89209047Y-63602768D01*
X89209047Y-63602768D02*
X89172762Y-63614863D01*
X89172762Y-63614863D02*
X89148571Y-63614863D01*
X89475143Y-63360863D02*
X89426762Y-63360863D01*
X89426762Y-63360863D02*
X89402571Y-63372958D01*
X89402571Y-63372958D02*
X89390476Y-63385053D01*
X89390476Y-63385053D02*
X89366286Y-63421339D01*
X89366286Y-63421339D02*
X89354190Y-63469720D01*
X89354190Y-63469720D02*
X89354190Y-63566482D01*
X89354190Y-63566482D02*
X89366286Y-63590672D01*
X89366286Y-63590672D02*
X89378381Y-63602768D01*
X89378381Y-63602768D02*
X89402571Y-63614863D01*
X89402571Y-63614863D02*
X89450952Y-63614863D01*
X89450952Y-63614863D02*
X89475143Y-63602768D01*
X89475143Y-63602768D02*
X89487238Y-63590672D01*
X89487238Y-63590672D02*
X89499333Y-63566482D01*
X89499333Y-63566482D02*
X89499333Y-63506006D01*
X89499333Y-63506006D02*
X89487238Y-63481815D01*
X89487238Y-63481815D02*
X89475143Y-63469720D01*
X89475143Y-63469720D02*
X89450952Y-63457625D01*
X89450952Y-63457625D02*
X89402571Y-63457625D01*
X89402571Y-63457625D02*
X89378381Y-63469720D01*
X89378381Y-63469720D02*
X89366286Y-63481815D01*
X89366286Y-63481815D02*
X89354190Y-63506006D01*
X87215333Y-63614863D02*
X87215333Y-63796291D01*
X87215333Y-63796291D02*
X87203238Y-63832577D01*
X87203238Y-63832577D02*
X87179047Y-63856768D01*
X87179047Y-63856768D02*
X87142762Y-63868863D01*
X87142762Y-63868863D02*
X87118571Y-63868863D01*
X87312095Y-63614863D02*
X87481429Y-63614863D01*
X87481429Y-63614863D02*
X87372571Y-63868863D01*
X105525333Y-68440863D02*
X105525333Y-68622291D01*
X105525333Y-68622291D02*
X105513238Y-68658577D01*
X105513238Y-68658577D02*
X105489047Y-68682768D01*
X105489047Y-68682768D02*
X105452762Y-68694863D01*
X105452762Y-68694863D02*
X105428571Y-68694863D01*
X105658381Y-68694863D02*
X105706762Y-68694863D01*
X105706762Y-68694863D02*
X105730952Y-68682768D01*
X105730952Y-68682768D02*
X105743048Y-68670672D01*
X105743048Y-68670672D02*
X105767238Y-68634387D01*
X105767238Y-68634387D02*
X105779333Y-68586006D01*
X105779333Y-68586006D02*
X105779333Y-68489244D01*
X105779333Y-68489244D02*
X105767238Y-68465053D01*
X105767238Y-68465053D02*
X105755143Y-68452958D01*
X105755143Y-68452958D02*
X105730952Y-68440863D01*
X105730952Y-68440863D02*
X105682571Y-68440863D01*
X105682571Y-68440863D02*
X105658381Y-68452958D01*
X105658381Y-68452958D02*
X105646286Y-68465053D01*
X105646286Y-68465053D02*
X105634190Y-68489244D01*
X105634190Y-68489244D02*
X105634190Y-68549720D01*
X105634190Y-68549720D02*
X105646286Y-68573910D01*
X105646286Y-68573910D02*
X105658381Y-68586006D01*
X105658381Y-68586006D02*
X105682571Y-68598101D01*
X105682571Y-68598101D02*
X105730952Y-68598101D01*
X105730952Y-68598101D02*
X105755143Y-68586006D01*
X105755143Y-68586006D02*
X105767238Y-68573910D01*
X105767238Y-68573910D02*
X105779333Y-68549720D01*
X105274380Y-67420863D02*
X105274380Y-67602291D01*
X105274380Y-67602291D02*
X105262285Y-67638577D01*
X105262285Y-67638577D02*
X105238094Y-67662768D01*
X105238094Y-67662768D02*
X105201809Y-67674863D01*
X105201809Y-67674863D02*
X105177618Y-67674863D01*
X105528380Y-67674863D02*
X105383237Y-67674863D01*
X105455809Y-67674863D02*
X105455809Y-67420863D01*
X105455809Y-67420863D02*
X105431618Y-67457148D01*
X105431618Y-67457148D02*
X105407428Y-67481339D01*
X105407428Y-67481339D02*
X105383237Y-67493434D01*
X105685619Y-67420863D02*
X105709809Y-67420863D01*
X105709809Y-67420863D02*
X105734000Y-67432958D01*
X105734000Y-67432958D02*
X105746095Y-67445053D01*
X105746095Y-67445053D02*
X105758190Y-67469244D01*
X105758190Y-67469244D02*
X105770285Y-67517625D01*
X105770285Y-67517625D02*
X105770285Y-67578101D01*
X105770285Y-67578101D02*
X105758190Y-67626482D01*
X105758190Y-67626482D02*
X105746095Y-67650672D01*
X105746095Y-67650672D02*
X105734000Y-67662768D01*
X105734000Y-67662768D02*
X105709809Y-67674863D01*
X105709809Y-67674863D02*
X105685619Y-67674863D01*
X105685619Y-67674863D02*
X105661428Y-67662768D01*
X105661428Y-67662768D02*
X105649333Y-67650672D01*
X105649333Y-67650672D02*
X105637238Y-67626482D01*
X105637238Y-67626482D02*
X105625142Y-67578101D01*
X105625142Y-67578101D02*
X105625142Y-67517625D01*
X105625142Y-67517625D02*
X105637238Y-67469244D01*
X105637238Y-67469244D02*
X105649333Y-67445053D01*
X105649333Y-67445053D02*
X105661428Y-67432958D01*
X105661428Y-67432958D02*
X105685619Y-67420863D01*
X86704380Y-75800863D02*
X86704380Y-75982291D01*
X86704380Y-75982291D02*
X86692285Y-76018577D01*
X86692285Y-76018577D02*
X86668094Y-76042768D01*
X86668094Y-76042768D02*
X86631809Y-76054863D01*
X86631809Y-76054863D02*
X86607618Y-76054863D01*
X86958380Y-76054863D02*
X86813237Y-76054863D01*
X86885809Y-76054863D02*
X86885809Y-75800863D01*
X86885809Y-75800863D02*
X86861618Y-75837148D01*
X86861618Y-75837148D02*
X86837428Y-75861339D01*
X86837428Y-75861339D02*
X86813237Y-75873434D01*
X87200285Y-76054863D02*
X87055142Y-76054863D01*
X87127714Y-76054863D02*
X87127714Y-75800863D01*
X87127714Y-75800863D02*
X87103523Y-75837148D01*
X87103523Y-75837148D02*
X87079333Y-75861339D01*
X87079333Y-75861339D02*
X87055142Y-75873434D01*
X86734380Y-77070863D02*
X86734380Y-77252291D01*
X86734380Y-77252291D02*
X86722285Y-77288577D01*
X86722285Y-77288577D02*
X86698094Y-77312768D01*
X86698094Y-77312768D02*
X86661809Y-77324863D01*
X86661809Y-77324863D02*
X86637618Y-77324863D01*
X86988380Y-77324863D02*
X86843237Y-77324863D01*
X86915809Y-77324863D02*
X86915809Y-77070863D01*
X86915809Y-77070863D02*
X86891618Y-77107148D01*
X86891618Y-77107148D02*
X86867428Y-77131339D01*
X86867428Y-77131339D02*
X86843237Y-77143434D01*
X87085142Y-77095053D02*
X87097238Y-77082958D01*
X87097238Y-77082958D02*
X87121428Y-77070863D01*
X87121428Y-77070863D02*
X87181904Y-77070863D01*
X87181904Y-77070863D02*
X87206095Y-77082958D01*
X87206095Y-77082958D02*
X87218190Y-77095053D01*
X87218190Y-77095053D02*
X87230285Y-77119244D01*
X87230285Y-77119244D02*
X87230285Y-77143434D01*
X87230285Y-77143434D02*
X87218190Y-77179720D01*
X87218190Y-77179720D02*
X87073047Y-77324863D01*
X87073047Y-77324863D02*
X87230285Y-77324863D01*
X103554380Y-65870863D02*
X103554380Y-66052291D01*
X103554380Y-66052291D02*
X103542285Y-66088577D01*
X103542285Y-66088577D02*
X103518094Y-66112768D01*
X103518094Y-66112768D02*
X103481809Y-66124863D01*
X103481809Y-66124863D02*
X103457618Y-66124863D01*
X103808380Y-66124863D02*
X103663237Y-66124863D01*
X103735809Y-66124863D02*
X103735809Y-65870863D01*
X103735809Y-65870863D02*
X103711618Y-65907148D01*
X103711618Y-65907148D02*
X103687428Y-65931339D01*
X103687428Y-65931339D02*
X103663237Y-65943434D01*
X104038190Y-65870863D02*
X103917238Y-65870863D01*
X103917238Y-65870863D02*
X103905142Y-65991815D01*
X103905142Y-65991815D02*
X103917238Y-65979720D01*
X103917238Y-65979720D02*
X103941428Y-65967625D01*
X103941428Y-65967625D02*
X104001904Y-65967625D01*
X104001904Y-65967625D02*
X104026095Y-65979720D01*
X104026095Y-65979720D02*
X104038190Y-65991815D01*
X104038190Y-65991815D02*
X104050285Y-66016006D01*
X104050285Y-66016006D02*
X104050285Y-66076482D01*
X104050285Y-66076482D02*
X104038190Y-66100672D01*
X104038190Y-66100672D02*
X104026095Y-66112768D01*
X104026095Y-66112768D02*
X104001904Y-66124863D01*
X104001904Y-66124863D02*
X103941428Y-66124863D01*
X103941428Y-66124863D02*
X103917238Y-66112768D01*
X103917238Y-66112768D02*
X103905142Y-66100672D01*
X104954380Y-65770863D02*
X104954380Y-65952291D01*
X104954380Y-65952291D02*
X104942285Y-65988577D01*
X104942285Y-65988577D02*
X104918094Y-66012768D01*
X104918094Y-66012768D02*
X104881809Y-66024863D01*
X104881809Y-66024863D02*
X104857618Y-66024863D01*
X105208380Y-66024863D02*
X105063237Y-66024863D01*
X105135809Y-66024863D02*
X105135809Y-65770863D01*
X105135809Y-65770863D02*
X105111618Y-65807148D01*
X105111618Y-65807148D02*
X105087428Y-65831339D01*
X105087428Y-65831339D02*
X105063237Y-65843434D01*
X105426095Y-65770863D02*
X105377714Y-65770863D01*
X105377714Y-65770863D02*
X105353523Y-65782958D01*
X105353523Y-65782958D02*
X105341428Y-65795053D01*
X105341428Y-65795053D02*
X105317238Y-65831339D01*
X105317238Y-65831339D02*
X105305142Y-65879720D01*
X105305142Y-65879720D02*
X105305142Y-65976482D01*
X105305142Y-65976482D02*
X105317238Y-66000672D01*
X105317238Y-66000672D02*
X105329333Y-66012768D01*
X105329333Y-66012768D02*
X105353523Y-66024863D01*
X105353523Y-66024863D02*
X105401904Y-66024863D01*
X105401904Y-66024863D02*
X105426095Y-66012768D01*
X105426095Y-66012768D02*
X105438190Y-66000672D01*
X105438190Y-66000672D02*
X105450285Y-65976482D01*
X105450285Y-65976482D02*
X105450285Y-65916006D01*
X105450285Y-65916006D02*
X105438190Y-65891815D01*
X105438190Y-65891815D02*
X105426095Y-65879720D01*
X105426095Y-65879720D02*
X105401904Y-65867625D01*
X105401904Y-65867625D02*
X105353523Y-65867625D01*
X105353523Y-65867625D02*
X105329333Y-65879720D01*
X105329333Y-65879720D02*
X105317238Y-65891815D01*
X105317238Y-65891815D02*
X105305142Y-65916006D01*
X108384380Y-74070863D02*
X108384380Y-74252291D01*
X108384380Y-74252291D02*
X108372285Y-74288577D01*
X108372285Y-74288577D02*
X108348094Y-74312768D01*
X108348094Y-74312768D02*
X108311809Y-74324863D01*
X108311809Y-74324863D02*
X108287618Y-74324863D01*
X108638380Y-74324863D02*
X108493237Y-74324863D01*
X108565809Y-74324863D02*
X108565809Y-74070863D01*
X108565809Y-74070863D02*
X108541618Y-74107148D01*
X108541618Y-74107148D02*
X108517428Y-74131339D01*
X108517428Y-74131339D02*
X108493237Y-74143434D01*
X108723047Y-74070863D02*
X108892381Y-74070863D01*
X108892381Y-74070863D02*
X108783523Y-74324863D01*
X88444380Y-78770863D02*
X88444380Y-78952291D01*
X88444380Y-78952291D02*
X88432285Y-78988577D01*
X88432285Y-78988577D02*
X88408094Y-79012768D01*
X88408094Y-79012768D02*
X88371809Y-79024863D01*
X88371809Y-79024863D02*
X88347618Y-79024863D01*
X88698380Y-79024863D02*
X88553237Y-79024863D01*
X88625809Y-79024863D02*
X88625809Y-78770863D01*
X88625809Y-78770863D02*
X88601618Y-78807148D01*
X88601618Y-78807148D02*
X88577428Y-78831339D01*
X88577428Y-78831339D02*
X88553237Y-78843434D01*
X88783047Y-78770863D02*
X88940285Y-78770863D01*
X88940285Y-78770863D02*
X88855619Y-78867625D01*
X88855619Y-78867625D02*
X88891904Y-78867625D01*
X88891904Y-78867625D02*
X88916095Y-78879720D01*
X88916095Y-78879720D02*
X88928190Y-78891815D01*
X88928190Y-78891815D02*
X88940285Y-78916006D01*
X88940285Y-78916006D02*
X88940285Y-78976482D01*
X88940285Y-78976482D02*
X88928190Y-79000672D01*
X88928190Y-79000672D02*
X88916095Y-79012768D01*
X88916095Y-79012768D02*
X88891904Y-79024863D01*
X88891904Y-79024863D02*
X88819333Y-79024863D01*
X88819333Y-79024863D02*
X88795142Y-79012768D01*
X88795142Y-79012768D02*
X88783047Y-79000672D01*
X92254380Y-60690863D02*
X92254380Y-60872291D01*
X92254380Y-60872291D02*
X92242285Y-60908577D01*
X92242285Y-60908577D02*
X92218094Y-60932768D01*
X92218094Y-60932768D02*
X92181809Y-60944863D01*
X92181809Y-60944863D02*
X92157618Y-60944863D01*
X92508380Y-60944863D02*
X92363237Y-60944863D01*
X92435809Y-60944863D02*
X92435809Y-60690863D01*
X92435809Y-60690863D02*
X92411618Y-60727148D01*
X92411618Y-60727148D02*
X92387428Y-60751339D01*
X92387428Y-60751339D02*
X92363237Y-60763434D01*
X92653523Y-60799720D02*
X92629333Y-60787625D01*
X92629333Y-60787625D02*
X92617238Y-60775529D01*
X92617238Y-60775529D02*
X92605142Y-60751339D01*
X92605142Y-60751339D02*
X92605142Y-60739244D01*
X92605142Y-60739244D02*
X92617238Y-60715053D01*
X92617238Y-60715053D02*
X92629333Y-60702958D01*
X92629333Y-60702958D02*
X92653523Y-60690863D01*
X92653523Y-60690863D02*
X92701904Y-60690863D01*
X92701904Y-60690863D02*
X92726095Y-60702958D01*
X92726095Y-60702958D02*
X92738190Y-60715053D01*
X92738190Y-60715053D02*
X92750285Y-60739244D01*
X92750285Y-60739244D02*
X92750285Y-60751339D01*
X92750285Y-60751339D02*
X92738190Y-60775529D01*
X92738190Y-60775529D02*
X92726095Y-60787625D01*
X92726095Y-60787625D02*
X92701904Y-60799720D01*
X92701904Y-60799720D02*
X92653523Y-60799720D01*
X92653523Y-60799720D02*
X92629333Y-60811815D01*
X92629333Y-60811815D02*
X92617238Y-60823910D01*
X92617238Y-60823910D02*
X92605142Y-60848101D01*
X92605142Y-60848101D02*
X92605142Y-60896482D01*
X92605142Y-60896482D02*
X92617238Y-60920672D01*
X92617238Y-60920672D02*
X92629333Y-60932768D01*
X92629333Y-60932768D02*
X92653523Y-60944863D01*
X92653523Y-60944863D02*
X92701904Y-60944863D01*
X92701904Y-60944863D02*
X92726095Y-60932768D01*
X92726095Y-60932768D02*
X92738190Y-60920672D01*
X92738190Y-60920672D02*
X92750285Y-60896482D01*
X92750285Y-60896482D02*
X92750285Y-60848101D01*
X92750285Y-60848101D02*
X92738190Y-60823910D01*
X92738190Y-60823910D02*
X92726095Y-60811815D01*
X92726095Y-60811815D02*
X92701904Y-60799720D01*
X104764380Y-62600863D02*
X104764380Y-62782291D01*
X104764380Y-62782291D02*
X104752285Y-62818577D01*
X104752285Y-62818577D02*
X104728094Y-62842768D01*
X104728094Y-62842768D02*
X104691809Y-62854863D01*
X104691809Y-62854863D02*
X104667618Y-62854863D01*
X104873237Y-62625053D02*
X104885333Y-62612958D01*
X104885333Y-62612958D02*
X104909523Y-62600863D01*
X104909523Y-62600863D02*
X104969999Y-62600863D01*
X104969999Y-62600863D02*
X104994190Y-62612958D01*
X104994190Y-62612958D02*
X105006285Y-62625053D01*
X105006285Y-62625053D02*
X105018380Y-62649244D01*
X105018380Y-62649244D02*
X105018380Y-62673434D01*
X105018380Y-62673434D02*
X105006285Y-62709720D01*
X105006285Y-62709720D02*
X104861142Y-62854863D01*
X104861142Y-62854863D02*
X105018380Y-62854863D01*
X105175619Y-62600863D02*
X105199809Y-62600863D01*
X105199809Y-62600863D02*
X105224000Y-62612958D01*
X105224000Y-62612958D02*
X105236095Y-62625053D01*
X105236095Y-62625053D02*
X105248190Y-62649244D01*
X105248190Y-62649244D02*
X105260285Y-62697625D01*
X105260285Y-62697625D02*
X105260285Y-62758101D01*
X105260285Y-62758101D02*
X105248190Y-62806482D01*
X105248190Y-62806482D02*
X105236095Y-62830672D01*
X105236095Y-62830672D02*
X105224000Y-62842768D01*
X105224000Y-62842768D02*
X105199809Y-62854863D01*
X105199809Y-62854863D02*
X105175619Y-62854863D01*
X105175619Y-62854863D02*
X105151428Y-62842768D01*
X105151428Y-62842768D02*
X105139333Y-62830672D01*
X105139333Y-62830672D02*
X105127238Y-62806482D01*
X105127238Y-62806482D02*
X105115142Y-62758101D01*
X105115142Y-62758101D02*
X105115142Y-62697625D01*
X105115142Y-62697625D02*
X105127238Y-62649244D01*
X105127238Y-62649244D02*
X105139333Y-62625053D01*
X105139333Y-62625053D02*
X105151428Y-62612958D01*
X105151428Y-62612958D02*
X105175619Y-62600863D01*
X108384380Y-71540863D02*
X108384380Y-71722291D01*
X108384380Y-71722291D02*
X108372285Y-71758577D01*
X108372285Y-71758577D02*
X108348094Y-71782768D01*
X108348094Y-71782768D02*
X108311809Y-71794863D01*
X108311809Y-71794863D02*
X108287618Y-71794863D01*
X108493237Y-71565053D02*
X108505333Y-71552958D01*
X108505333Y-71552958D02*
X108529523Y-71540863D01*
X108529523Y-71540863D02*
X108589999Y-71540863D01*
X108589999Y-71540863D02*
X108614190Y-71552958D01*
X108614190Y-71552958D02*
X108626285Y-71565053D01*
X108626285Y-71565053D02*
X108638380Y-71589244D01*
X108638380Y-71589244D02*
X108638380Y-71613434D01*
X108638380Y-71613434D02*
X108626285Y-71649720D01*
X108626285Y-71649720D02*
X108481142Y-71794863D01*
X108481142Y-71794863D02*
X108638380Y-71794863D01*
X108880285Y-71794863D02*
X108735142Y-71794863D01*
X108807714Y-71794863D02*
X108807714Y-71540863D01*
X108807714Y-71540863D02*
X108783523Y-71577148D01*
X108783523Y-71577148D02*
X108759333Y-71601339D01*
X108759333Y-71601339D02*
X108735142Y-71613434D01*
X105395523Y-74292958D02*
X105371333Y-74280863D01*
X105371333Y-74280863D02*
X105335047Y-74280863D01*
X105335047Y-74280863D02*
X105298761Y-74292958D01*
X105298761Y-74292958D02*
X105274571Y-74317148D01*
X105274571Y-74317148D02*
X105262476Y-74341339D01*
X105262476Y-74341339D02*
X105250380Y-74389720D01*
X105250380Y-74389720D02*
X105250380Y-74426006D01*
X105250380Y-74426006D02*
X105262476Y-74474387D01*
X105262476Y-74474387D02*
X105274571Y-74498577D01*
X105274571Y-74498577D02*
X105298761Y-74522768D01*
X105298761Y-74522768D02*
X105335047Y-74534863D01*
X105335047Y-74534863D02*
X105359238Y-74534863D01*
X105359238Y-74534863D02*
X105395523Y-74522768D01*
X105395523Y-74522768D02*
X105407619Y-74510672D01*
X105407619Y-74510672D02*
X105407619Y-74426006D01*
X105407619Y-74426006D02*
X105359238Y-74426006D01*
X105516476Y-74534863D02*
X105516476Y-74280863D01*
X105516476Y-74280863D02*
X105661619Y-74534863D01*
X105661619Y-74534863D02*
X105661619Y-74280863D01*
X105782571Y-74534863D02*
X105782571Y-74280863D01*
X105782571Y-74280863D02*
X105843047Y-74280863D01*
X105843047Y-74280863D02*
X105879333Y-74292958D01*
X105879333Y-74292958D02*
X105903523Y-74317148D01*
X105903523Y-74317148D02*
X105915618Y-74341339D01*
X105915618Y-74341339D02*
X105927714Y-74389720D01*
X105927714Y-74389720D02*
X105927714Y-74426006D01*
X105927714Y-74426006D02*
X105915618Y-74474387D01*
X105915618Y-74474387D02*
X105903523Y-74498577D01*
X105903523Y-74498577D02*
X105879333Y-74522768D01*
X105879333Y-74522768D02*
X105843047Y-74534863D01*
X105843047Y-74534863D02*
X105782571Y-74534863D01*
X106157523Y-74280863D02*
X106036571Y-74280863D01*
X106036571Y-74280863D02*
X106024475Y-74401815D01*
X106024475Y-74401815D02*
X106036571Y-74389720D01*
X106036571Y-74389720D02*
X106060761Y-74377625D01*
X106060761Y-74377625D02*
X106121237Y-74377625D01*
X106121237Y-74377625D02*
X106145428Y-74389720D01*
X106145428Y-74389720D02*
X106157523Y-74401815D01*
X106157523Y-74401815D02*
X106169618Y-74426006D01*
X106169618Y-74426006D02*
X106169618Y-74486482D01*
X106169618Y-74486482D02*
X106157523Y-74510672D01*
X106157523Y-74510672D02*
X106145428Y-74522768D01*
X106145428Y-74522768D02*
X106121237Y-74534863D01*
X106121237Y-74534863D02*
X106060761Y-74534863D01*
X106060761Y-74534863D02*
X106036571Y-74522768D01*
X106036571Y-74522768D02*
X106024475Y-74510672D01*
D17*
X81986666Y-74787190D02*
X81962857Y-74811000D01*
X81962857Y-74811000D02*
X81891428Y-74834809D01*
X81891428Y-74834809D02*
X81843809Y-74834809D01*
X81843809Y-74834809D02*
X81772381Y-74811000D01*
X81772381Y-74811000D02*
X81724762Y-74763380D01*
X81724762Y-74763380D02*
X81700952Y-74715761D01*
X81700952Y-74715761D02*
X81677143Y-74620523D01*
X81677143Y-74620523D02*
X81677143Y-74549095D01*
X81677143Y-74549095D02*
X81700952Y-74453857D01*
X81700952Y-74453857D02*
X81724762Y-74406238D01*
X81724762Y-74406238D02*
X81772381Y-74358619D01*
X81772381Y-74358619D02*
X81843809Y-74334809D01*
X81843809Y-74334809D02*
X81891428Y-74334809D01*
X81891428Y-74334809D02*
X81962857Y-74358619D01*
X81962857Y-74358619D02*
X81986666Y-74382428D01*
X82462857Y-74834809D02*
X82177143Y-74834809D01*
X82320000Y-74834809D02*
X82320000Y-74334809D01*
X82320000Y-74334809D02*
X82272381Y-74406238D01*
X82272381Y-74406238D02*
X82224762Y-74453857D01*
X82224762Y-74453857D02*
X82177143Y-74477666D01*
D15*
X82691726Y-80100666D02*
X83102964Y-80100666D01*
X83102964Y-80100666D02*
X83151345Y-80076476D01*
X83151345Y-80076476D02*
X83175536Y-80052285D01*
X83175536Y-80052285D02*
X83199726Y-80003904D01*
X83199726Y-80003904D02*
X83199726Y-79907142D01*
X83199726Y-79907142D02*
X83175536Y-79858761D01*
X83175536Y-79858761D02*
X83151345Y-79834571D01*
X83151345Y-79834571D02*
X83102964Y-79810380D01*
X83102964Y-79810380D02*
X82691726Y-79810380D01*
X83199726Y-79544286D02*
X83199726Y-79447524D01*
X83199726Y-79447524D02*
X83175536Y-79399143D01*
X83175536Y-79399143D02*
X83151345Y-79374952D01*
X83151345Y-79374952D02*
X83078774Y-79326571D01*
X83078774Y-79326571D02*
X82982012Y-79302381D01*
X82982012Y-79302381D02*
X82788488Y-79302381D01*
X82788488Y-79302381D02*
X82740107Y-79326571D01*
X82740107Y-79326571D02*
X82715916Y-79350762D01*
X82715916Y-79350762D02*
X82691726Y-79399143D01*
X82691726Y-79399143D02*
X82691726Y-79495905D01*
X82691726Y-79495905D02*
X82715916Y-79544286D01*
X82715916Y-79544286D02*
X82740107Y-79568476D01*
X82740107Y-79568476D02*
X82788488Y-79592667D01*
X82788488Y-79592667D02*
X82909440Y-79592667D01*
X82909440Y-79592667D02*
X82957821Y-79568476D01*
X82957821Y-79568476D02*
X82982012Y-79544286D01*
X82982012Y-79544286D02*
X83006202Y-79495905D01*
X83006202Y-79495905D02*
X83006202Y-79399143D01*
X83006202Y-79399143D02*
X82982012Y-79350762D01*
X82982012Y-79350762D02*
X82957821Y-79326571D01*
X82957821Y-79326571D02*
X82909440Y-79302381D01*
X83054583Y-79108857D02*
X83054583Y-78866952D01*
X83199726Y-79157238D02*
X82691726Y-78987904D01*
X82691726Y-78987904D02*
X83199726Y-78818571D01*
X82933631Y-78479904D02*
X82957821Y-78407332D01*
X82957821Y-78407332D02*
X82982012Y-78383142D01*
X82982012Y-78383142D02*
X83030393Y-78358951D01*
X83030393Y-78358951D02*
X83102964Y-78358951D01*
X83102964Y-78358951D02*
X83151345Y-78383142D01*
X83151345Y-78383142D02*
X83175536Y-78407332D01*
X83175536Y-78407332D02*
X83199726Y-78455713D01*
X83199726Y-78455713D02*
X83199726Y-78649237D01*
X83199726Y-78649237D02*
X82691726Y-78649237D01*
X82691726Y-78649237D02*
X82691726Y-78479904D01*
X82691726Y-78479904D02*
X82715916Y-78431523D01*
X82715916Y-78431523D02*
X82740107Y-78407332D01*
X82740107Y-78407332D02*
X82788488Y-78383142D01*
X82788488Y-78383142D02*
X82836869Y-78383142D01*
X82836869Y-78383142D02*
X82885250Y-78407332D01*
X82885250Y-78407332D02*
X82909440Y-78431523D01*
X82909440Y-78431523D02*
X82933631Y-78479904D01*
X82933631Y-78479904D02*
X82933631Y-78649237D01*
X83199726Y-77875142D02*
X83199726Y-78165428D01*
X83199726Y-78020285D02*
X82691726Y-78020285D01*
X82691726Y-78020285D02*
X82764297Y-78068666D01*
X82764297Y-78068666D02*
X82812678Y-78117047D01*
X82812678Y-78117047D02*
X82836869Y-78165428D01*
D17*
X79176666Y-74777190D02*
X79152857Y-74801000D01*
X79152857Y-74801000D02*
X79081428Y-74824809D01*
X79081428Y-74824809D02*
X79033809Y-74824809D01*
X79033809Y-74824809D02*
X78962381Y-74801000D01*
X78962381Y-74801000D02*
X78914762Y-74753380D01*
X78914762Y-74753380D02*
X78890952Y-74705761D01*
X78890952Y-74705761D02*
X78867143Y-74610523D01*
X78867143Y-74610523D02*
X78867143Y-74539095D01*
X78867143Y-74539095D02*
X78890952Y-74443857D01*
X78890952Y-74443857D02*
X78914762Y-74396238D01*
X78914762Y-74396238D02*
X78962381Y-74348619D01*
X78962381Y-74348619D02*
X79033809Y-74324809D01*
X79033809Y-74324809D02*
X79081428Y-74324809D01*
X79081428Y-74324809D02*
X79152857Y-74348619D01*
X79152857Y-74348619D02*
X79176666Y-74372428D01*
X79343333Y-74324809D02*
X79652857Y-74324809D01*
X79652857Y-74324809D02*
X79486190Y-74515285D01*
X79486190Y-74515285D02*
X79557619Y-74515285D01*
X79557619Y-74515285D02*
X79605238Y-74539095D01*
X79605238Y-74539095D02*
X79629047Y-74562904D01*
X79629047Y-74562904D02*
X79652857Y-74610523D01*
X79652857Y-74610523D02*
X79652857Y-74729571D01*
X79652857Y-74729571D02*
X79629047Y-74777190D01*
X79629047Y-74777190D02*
X79605238Y-74801000D01*
X79605238Y-74801000D02*
X79557619Y-74824809D01*
X79557619Y-74824809D02*
X79414762Y-74824809D01*
X79414762Y-74824809D02*
X79367143Y-74801000D01*
X79367143Y-74801000D02*
X79343333Y-74777190D01*
X77386666Y-77207190D02*
X77362857Y-77231000D01*
X77362857Y-77231000D02*
X77291428Y-77254809D01*
X77291428Y-77254809D02*
X77243809Y-77254809D01*
X77243809Y-77254809D02*
X77172381Y-77231000D01*
X77172381Y-77231000D02*
X77124762Y-77183380D01*
X77124762Y-77183380D02*
X77100952Y-77135761D01*
X77100952Y-77135761D02*
X77077143Y-77040523D01*
X77077143Y-77040523D02*
X77077143Y-76969095D01*
X77077143Y-76969095D02*
X77100952Y-76873857D01*
X77100952Y-76873857D02*
X77124762Y-76826238D01*
X77124762Y-76826238D02*
X77172381Y-76778619D01*
X77172381Y-76778619D02*
X77243809Y-76754809D01*
X77243809Y-76754809D02*
X77291428Y-76754809D01*
X77291428Y-76754809D02*
X77362857Y-76778619D01*
X77362857Y-76778619D02*
X77386666Y-76802428D01*
X77577143Y-76802428D02*
X77600952Y-76778619D01*
X77600952Y-76778619D02*
X77648571Y-76754809D01*
X77648571Y-76754809D02*
X77767619Y-76754809D01*
X77767619Y-76754809D02*
X77815238Y-76778619D01*
X77815238Y-76778619D02*
X77839047Y-76802428D01*
X77839047Y-76802428D02*
X77862857Y-76850047D01*
X77862857Y-76850047D02*
X77862857Y-76897666D01*
X77862857Y-76897666D02*
X77839047Y-76969095D01*
X77839047Y-76969095D02*
X77553333Y-77254809D01*
X77553333Y-77254809D02*
X77862857Y-77254809D01*
D15*
X109615333Y-64309726D02*
X109445999Y-64067821D01*
X109325047Y-64309726D02*
X109325047Y-63801726D01*
X109325047Y-63801726D02*
X109518571Y-63801726D01*
X109518571Y-63801726D02*
X109566952Y-63825916D01*
X109566952Y-63825916D02*
X109591142Y-63850107D01*
X109591142Y-63850107D02*
X109615333Y-63898488D01*
X109615333Y-63898488D02*
X109615333Y-63971059D01*
X109615333Y-63971059D02*
X109591142Y-64019440D01*
X109591142Y-64019440D02*
X109566952Y-64043631D01*
X109566952Y-64043631D02*
X109518571Y-64067821D01*
X109518571Y-64067821D02*
X109325047Y-64067821D01*
X109808856Y-63850107D02*
X109833047Y-63825916D01*
X109833047Y-63825916D02*
X109881428Y-63801726D01*
X109881428Y-63801726D02*
X110002380Y-63801726D01*
X110002380Y-63801726D02*
X110050761Y-63825916D01*
X110050761Y-63825916D02*
X110074952Y-63850107D01*
X110074952Y-63850107D02*
X110099142Y-63898488D01*
X110099142Y-63898488D02*
X110099142Y-63946869D01*
X110099142Y-63946869D02*
X110074952Y-64019440D01*
X110074952Y-64019440D02*
X109784666Y-64309726D01*
X109784666Y-64309726D02*
X110099142Y-64309726D01*
X109615333Y-66349726D02*
X109445999Y-66107821D01*
X109325047Y-66349726D02*
X109325047Y-65841726D01*
X109325047Y-65841726D02*
X109518571Y-65841726D01*
X109518571Y-65841726D02*
X109566952Y-65865916D01*
X109566952Y-65865916D02*
X109591142Y-65890107D01*
X109591142Y-65890107D02*
X109615333Y-65938488D01*
X109615333Y-65938488D02*
X109615333Y-66011059D01*
X109615333Y-66011059D02*
X109591142Y-66059440D01*
X109591142Y-66059440D02*
X109566952Y-66083631D01*
X109566952Y-66083631D02*
X109518571Y-66107821D01*
X109518571Y-66107821D02*
X109325047Y-66107821D01*
X109784666Y-65841726D02*
X110099142Y-65841726D01*
X110099142Y-65841726D02*
X109929809Y-66035250D01*
X109929809Y-66035250D02*
X110002380Y-66035250D01*
X110002380Y-66035250D02*
X110050761Y-66059440D01*
X110050761Y-66059440D02*
X110074952Y-66083631D01*
X110074952Y-66083631D02*
X110099142Y-66132012D01*
X110099142Y-66132012D02*
X110099142Y-66252964D01*
X110099142Y-66252964D02*
X110074952Y-66301345D01*
X110074952Y-66301345D02*
X110050761Y-66325536D01*
X110050761Y-66325536D02*
X110002380Y-66349726D01*
X110002380Y-66349726D02*
X109857237Y-66349726D01*
X109857237Y-66349726D02*
X109808856Y-66325536D01*
X109808856Y-66325536D02*
X109784666Y-66301345D01*
D16*
X106875523Y-62262958D02*
X106851333Y-62250863D01*
X106851333Y-62250863D02*
X106815047Y-62250863D01*
X106815047Y-62250863D02*
X106778761Y-62262958D01*
X106778761Y-62262958D02*
X106754571Y-62287148D01*
X106754571Y-62287148D02*
X106742476Y-62311339D01*
X106742476Y-62311339D02*
X106730380Y-62359720D01*
X106730380Y-62359720D02*
X106730380Y-62396006D01*
X106730380Y-62396006D02*
X106742476Y-62444387D01*
X106742476Y-62444387D02*
X106754571Y-62468577D01*
X106754571Y-62468577D02*
X106778761Y-62492768D01*
X106778761Y-62492768D02*
X106815047Y-62504863D01*
X106815047Y-62504863D02*
X106839238Y-62504863D01*
X106839238Y-62504863D02*
X106875523Y-62492768D01*
X106875523Y-62492768D02*
X106887619Y-62480672D01*
X106887619Y-62480672D02*
X106887619Y-62396006D01*
X106887619Y-62396006D02*
X106839238Y-62396006D01*
X106996476Y-62504863D02*
X106996476Y-62250863D01*
X106996476Y-62250863D02*
X107141619Y-62504863D01*
X107141619Y-62504863D02*
X107141619Y-62250863D01*
X107262571Y-62504863D02*
X107262571Y-62250863D01*
X107262571Y-62250863D02*
X107323047Y-62250863D01*
X107323047Y-62250863D02*
X107359333Y-62262958D01*
X107359333Y-62262958D02*
X107383523Y-62287148D01*
X107383523Y-62287148D02*
X107395618Y-62311339D01*
X107395618Y-62311339D02*
X107407714Y-62359720D01*
X107407714Y-62359720D02*
X107407714Y-62396006D01*
X107407714Y-62396006D02*
X107395618Y-62444387D01*
X107395618Y-62444387D02*
X107383523Y-62468577D01*
X107383523Y-62468577D02*
X107359333Y-62492768D01*
X107359333Y-62492768D02*
X107323047Y-62504863D01*
X107323047Y-62504863D02*
X107262571Y-62504863D01*
X107625428Y-62335529D02*
X107625428Y-62504863D01*
X107564952Y-62238768D02*
X107504475Y-62420196D01*
X107504475Y-62420196D02*
X107661714Y-62420196D01*
D15*
X107581345Y-61274666D02*
X107605536Y-61298857D01*
X107605536Y-61298857D02*
X107629726Y-61371428D01*
X107629726Y-61371428D02*
X107629726Y-61419809D01*
X107629726Y-61419809D02*
X107605536Y-61492381D01*
X107605536Y-61492381D02*
X107557155Y-61540762D01*
X107557155Y-61540762D02*
X107508774Y-61564952D01*
X107508774Y-61564952D02*
X107412012Y-61589143D01*
X107412012Y-61589143D02*
X107339440Y-61589143D01*
X107339440Y-61589143D02*
X107242678Y-61564952D01*
X107242678Y-61564952D02*
X107194297Y-61540762D01*
X107194297Y-61540762D02*
X107145916Y-61492381D01*
X107145916Y-61492381D02*
X107121726Y-61419809D01*
X107121726Y-61419809D02*
X107121726Y-61371428D01*
X107121726Y-61371428D02*
X107145916Y-61298857D01*
X107145916Y-61298857D02*
X107170107Y-61274666D01*
X107121726Y-61105333D02*
X107121726Y-60766666D01*
X107121726Y-60766666D02*
X107629726Y-60984381D01*
D16*
X93524380Y-60690863D02*
X93524380Y-60872291D01*
X93524380Y-60872291D02*
X93512285Y-60908577D01*
X93512285Y-60908577D02*
X93488094Y-60932768D01*
X93488094Y-60932768D02*
X93451809Y-60944863D01*
X93451809Y-60944863D02*
X93427618Y-60944863D01*
X93778380Y-60944863D02*
X93633237Y-60944863D01*
X93705809Y-60944863D02*
X93705809Y-60690863D01*
X93705809Y-60690863D02*
X93681618Y-60727148D01*
X93681618Y-60727148D02*
X93657428Y-60751339D01*
X93657428Y-60751339D02*
X93633237Y-60763434D01*
X93899333Y-60944863D02*
X93947714Y-60944863D01*
X93947714Y-60944863D02*
X93971904Y-60932768D01*
X93971904Y-60932768D02*
X93984000Y-60920672D01*
X93984000Y-60920672D02*
X94008190Y-60884387D01*
X94008190Y-60884387D02*
X94020285Y-60836006D01*
X94020285Y-60836006D02*
X94020285Y-60739244D01*
X94020285Y-60739244D02*
X94008190Y-60715053D01*
X94008190Y-60715053D02*
X93996095Y-60702958D01*
X93996095Y-60702958D02*
X93971904Y-60690863D01*
X93971904Y-60690863D02*
X93923523Y-60690863D01*
X93923523Y-60690863D02*
X93899333Y-60702958D01*
X93899333Y-60702958D02*
X93887238Y-60715053D01*
X93887238Y-60715053D02*
X93875142Y-60739244D01*
X93875142Y-60739244D02*
X93875142Y-60799720D01*
X93875142Y-60799720D02*
X93887238Y-60823910D01*
X93887238Y-60823910D02*
X93899333Y-60836006D01*
X93899333Y-60836006D02*
X93923523Y-60848101D01*
X93923523Y-60848101D02*
X93971904Y-60848101D01*
X93971904Y-60848101D02*
X93996095Y-60836006D01*
X93996095Y-60836006D02*
X94008190Y-60823910D01*
X94008190Y-60823910D02*
X94020285Y-60799720D01*
D15*
X109611345Y-61274666D02*
X109635536Y-61298857D01*
X109635536Y-61298857D02*
X109659726Y-61371428D01*
X109659726Y-61371428D02*
X109659726Y-61419809D01*
X109659726Y-61419809D02*
X109635536Y-61492381D01*
X109635536Y-61492381D02*
X109587155Y-61540762D01*
X109587155Y-61540762D02*
X109538774Y-61564952D01*
X109538774Y-61564952D02*
X109442012Y-61589143D01*
X109442012Y-61589143D02*
X109369440Y-61589143D01*
X109369440Y-61589143D02*
X109272678Y-61564952D01*
X109272678Y-61564952D02*
X109224297Y-61540762D01*
X109224297Y-61540762D02*
X109175916Y-61492381D01*
X109175916Y-61492381D02*
X109151726Y-61419809D01*
X109151726Y-61419809D02*
X109151726Y-61371428D01*
X109151726Y-61371428D02*
X109175916Y-61298857D01*
X109175916Y-61298857D02*
X109200107Y-61274666D01*
X109151726Y-60839238D02*
X109151726Y-60936000D01*
X109151726Y-60936000D02*
X109175916Y-60984381D01*
X109175916Y-60984381D02*
X109200107Y-61008571D01*
X109200107Y-61008571D02*
X109272678Y-61056952D01*
X109272678Y-61056952D02*
X109369440Y-61081143D01*
X109369440Y-61081143D02*
X109562964Y-61081143D01*
X109562964Y-61081143D02*
X109611345Y-61056952D01*
X109611345Y-61056952D02*
X109635536Y-61032762D01*
X109635536Y-61032762D02*
X109659726Y-60984381D01*
X109659726Y-60984381D02*
X109659726Y-60887619D01*
X109659726Y-60887619D02*
X109635536Y-60839238D01*
X109635536Y-60839238D02*
X109611345Y-60815047D01*
X109611345Y-60815047D02*
X109562964Y-60790857D01*
X109562964Y-60790857D02*
X109442012Y-60790857D01*
X109442012Y-60790857D02*
X109393631Y-60815047D01*
X109393631Y-60815047D02*
X109369440Y-60839238D01*
X109369440Y-60839238D02*
X109345250Y-60887619D01*
X109345250Y-60887619D02*
X109345250Y-60984381D01*
X109345250Y-60984381D02*
X109369440Y-61032762D01*
X109369440Y-61032762D02*
X109393631Y-61056952D01*
X109393631Y-61056952D02*
X109442012Y-61081143D01*
D16*
X90984380Y-60700863D02*
X90984380Y-60882291D01*
X90984380Y-60882291D02*
X90972285Y-60918577D01*
X90972285Y-60918577D02*
X90948094Y-60942768D01*
X90948094Y-60942768D02*
X90911809Y-60954863D01*
X90911809Y-60954863D02*
X90887618Y-60954863D01*
X91238380Y-60954863D02*
X91093237Y-60954863D01*
X91165809Y-60954863D02*
X91165809Y-60700863D01*
X91165809Y-60700863D02*
X91141618Y-60737148D01*
X91141618Y-60737148D02*
X91117428Y-60761339D01*
X91117428Y-60761339D02*
X91093237Y-60773434D01*
X91456095Y-60785529D02*
X91456095Y-60954863D01*
X91395619Y-60688768D02*
X91335142Y-60870196D01*
X91335142Y-60870196D02*
X91492381Y-60870196D01*
X90365523Y-76222958D02*
X90341333Y-76210863D01*
X90341333Y-76210863D02*
X90305047Y-76210863D01*
X90305047Y-76210863D02*
X90268761Y-76222958D01*
X90268761Y-76222958D02*
X90244571Y-76247148D01*
X90244571Y-76247148D02*
X90232476Y-76271339D01*
X90232476Y-76271339D02*
X90220380Y-76319720D01*
X90220380Y-76319720D02*
X90220380Y-76356006D01*
X90220380Y-76356006D02*
X90232476Y-76404387D01*
X90232476Y-76404387D02*
X90244571Y-76428577D01*
X90244571Y-76428577D02*
X90268761Y-76452768D01*
X90268761Y-76452768D02*
X90305047Y-76464863D01*
X90305047Y-76464863D02*
X90329238Y-76464863D01*
X90329238Y-76464863D02*
X90365523Y-76452768D01*
X90365523Y-76452768D02*
X90377619Y-76440672D01*
X90377619Y-76440672D02*
X90377619Y-76356006D01*
X90377619Y-76356006D02*
X90329238Y-76356006D01*
X90486476Y-76464863D02*
X90486476Y-76210863D01*
X90486476Y-76210863D02*
X90631619Y-76464863D01*
X90631619Y-76464863D02*
X90631619Y-76210863D01*
X90752571Y-76464863D02*
X90752571Y-76210863D01*
X90752571Y-76210863D02*
X90813047Y-76210863D01*
X90813047Y-76210863D02*
X90849333Y-76222958D01*
X90849333Y-76222958D02*
X90873523Y-76247148D01*
X90873523Y-76247148D02*
X90885618Y-76271339D01*
X90885618Y-76271339D02*
X90897714Y-76319720D01*
X90897714Y-76319720D02*
X90897714Y-76356006D01*
X90897714Y-76356006D02*
X90885618Y-76404387D01*
X90885618Y-76404387D02*
X90873523Y-76428577D01*
X90873523Y-76428577D02*
X90849333Y-76452768D01*
X90849333Y-76452768D02*
X90813047Y-76464863D01*
X90813047Y-76464863D02*
X90752571Y-76464863D01*
X90982380Y-76210863D02*
X91139618Y-76210863D01*
X91139618Y-76210863D02*
X91054952Y-76307625D01*
X91054952Y-76307625D02*
X91091237Y-76307625D01*
X91091237Y-76307625D02*
X91115428Y-76319720D01*
X91115428Y-76319720D02*
X91127523Y-76331815D01*
X91127523Y-76331815D02*
X91139618Y-76356006D01*
X91139618Y-76356006D02*
X91139618Y-76416482D01*
X91139618Y-76416482D02*
X91127523Y-76440672D01*
X91127523Y-76440672D02*
X91115428Y-76452768D01*
X91115428Y-76452768D02*
X91091237Y-76464863D01*
X91091237Y-76464863D02*
X91018666Y-76464863D01*
X91018666Y-76464863D02*
X90994475Y-76452768D01*
X90994475Y-76452768D02*
X90982380Y-76440672D01*
D15*
X84751345Y-78824666D02*
X84775536Y-78848857D01*
X84775536Y-78848857D02*
X84799726Y-78921428D01*
X84799726Y-78921428D02*
X84799726Y-78969809D01*
X84799726Y-78969809D02*
X84775536Y-79042381D01*
X84775536Y-79042381D02*
X84727155Y-79090762D01*
X84727155Y-79090762D02*
X84678774Y-79114952D01*
X84678774Y-79114952D02*
X84582012Y-79139143D01*
X84582012Y-79139143D02*
X84509440Y-79139143D01*
X84509440Y-79139143D02*
X84412678Y-79114952D01*
X84412678Y-79114952D02*
X84364297Y-79090762D01*
X84364297Y-79090762D02*
X84315916Y-79042381D01*
X84315916Y-79042381D02*
X84291726Y-78969809D01*
X84291726Y-78969809D02*
X84291726Y-78921428D01*
X84291726Y-78921428D02*
X84315916Y-78848857D01*
X84315916Y-78848857D02*
X84340107Y-78824666D01*
X84461059Y-78389238D02*
X84799726Y-78389238D01*
X84267536Y-78510190D02*
X84630393Y-78631143D01*
X84630393Y-78631143D02*
X84630393Y-78316666D01*
D10*
X81579819Y-56086333D02*
X82294104Y-56086333D01*
X82294104Y-56086333D02*
X82436961Y-56133952D01*
X82436961Y-56133952D02*
X82532200Y-56229190D01*
X82532200Y-56229190D02*
X82579819Y-56372047D01*
X82579819Y-56372047D02*
X82579819Y-56467285D01*
X82579819Y-55086333D02*
X82579819Y-55657761D01*
X82579819Y-55372047D02*
X81579819Y-55372047D01*
X81579819Y-55372047D02*
X81722676Y-55467285D01*
X81722676Y-55467285D02*
X81817914Y-55562523D01*
X81817914Y-55562523D02*
X81865533Y-55657761D01*
D15*
X103545333Y-77086345D02*
X103521142Y-77110536D01*
X103521142Y-77110536D02*
X103448571Y-77134726D01*
X103448571Y-77134726D02*
X103400190Y-77134726D01*
X103400190Y-77134726D02*
X103327618Y-77110536D01*
X103327618Y-77110536D02*
X103279237Y-77062155D01*
X103279237Y-77062155D02*
X103255047Y-77013774D01*
X103255047Y-77013774D02*
X103230856Y-76917012D01*
X103230856Y-76917012D02*
X103230856Y-76844440D01*
X103230856Y-76844440D02*
X103255047Y-76747678D01*
X103255047Y-76747678D02*
X103279237Y-76699297D01*
X103279237Y-76699297D02*
X103327618Y-76650916D01*
X103327618Y-76650916D02*
X103400190Y-76626726D01*
X103400190Y-76626726D02*
X103448571Y-76626726D01*
X103448571Y-76626726D02*
X103521142Y-76650916D01*
X103521142Y-76650916D02*
X103545333Y-76675107D01*
X103787237Y-77134726D02*
X103883999Y-77134726D01*
X103883999Y-77134726D02*
X103932380Y-77110536D01*
X103932380Y-77110536D02*
X103956571Y-77086345D01*
X103956571Y-77086345D02*
X104004952Y-77013774D01*
X104004952Y-77013774D02*
X104029142Y-76917012D01*
X104029142Y-76917012D02*
X104029142Y-76723488D01*
X104029142Y-76723488D02*
X104004952Y-76675107D01*
X104004952Y-76675107D02*
X103980761Y-76650916D01*
X103980761Y-76650916D02*
X103932380Y-76626726D01*
X103932380Y-76626726D02*
X103835618Y-76626726D01*
X103835618Y-76626726D02*
X103787237Y-76650916D01*
X103787237Y-76650916D02*
X103763047Y-76675107D01*
X103763047Y-76675107D02*
X103738856Y-76723488D01*
X103738856Y-76723488D02*
X103738856Y-76844440D01*
X103738856Y-76844440D02*
X103763047Y-76892821D01*
X103763047Y-76892821D02*
X103787237Y-76917012D01*
X103787237Y-76917012D02*
X103835618Y-76941202D01*
X103835618Y-76941202D02*
X103932380Y-76941202D01*
X103932380Y-76941202D02*
X103980761Y-76917012D01*
X103980761Y-76917012D02*
X104004952Y-76892821D01*
X104004952Y-76892821D02*
X104029142Y-76844440D01*
D10*
X82470558Y-66891646D02*
X82470558Y-67606162D01*
X82470558Y-67606162D02*
X82422924Y-67749066D01*
X82422924Y-67749066D02*
X82327655Y-67844335D01*
X82327655Y-67844335D02*
X82184752Y-67891969D01*
X82184752Y-67891969D02*
X82089483Y-67891969D01*
X83375613Y-67225087D02*
X83375613Y-67891969D01*
X83137440Y-66844012D02*
X82899268Y-67558528D01*
X82899268Y-67558528D02*
X83518516Y-67558528D01*
D16*
X84013523Y-75952958D02*
X83989333Y-75940863D01*
X83989333Y-75940863D02*
X83953047Y-75940863D01*
X83953047Y-75940863D02*
X83916761Y-75952958D01*
X83916761Y-75952958D02*
X83892571Y-75977148D01*
X83892571Y-75977148D02*
X83880476Y-76001339D01*
X83880476Y-76001339D02*
X83868380Y-76049720D01*
X83868380Y-76049720D02*
X83868380Y-76086006D01*
X83868380Y-76086006D02*
X83880476Y-76134387D01*
X83880476Y-76134387D02*
X83892571Y-76158577D01*
X83892571Y-76158577D02*
X83916761Y-76182768D01*
X83916761Y-76182768D02*
X83953047Y-76194863D01*
X83953047Y-76194863D02*
X83977238Y-76194863D01*
X83977238Y-76194863D02*
X84013523Y-76182768D01*
X84013523Y-76182768D02*
X84025619Y-76170672D01*
X84025619Y-76170672D02*
X84025619Y-76086006D01*
X84025619Y-76086006D02*
X83977238Y-76086006D01*
X84134476Y-76194863D02*
X84134476Y-75940863D01*
X84134476Y-75940863D02*
X84279619Y-76194863D01*
X84279619Y-76194863D02*
X84279619Y-75940863D01*
X84400571Y-76194863D02*
X84400571Y-75940863D01*
X84400571Y-75940863D02*
X84461047Y-75940863D01*
X84461047Y-75940863D02*
X84497333Y-75952958D01*
X84497333Y-75952958D02*
X84521523Y-75977148D01*
X84521523Y-75977148D02*
X84533618Y-76001339D01*
X84533618Y-76001339D02*
X84545714Y-76049720D01*
X84545714Y-76049720D02*
X84545714Y-76086006D01*
X84545714Y-76086006D02*
X84533618Y-76134387D01*
X84533618Y-76134387D02*
X84521523Y-76158577D01*
X84521523Y-76158577D02*
X84497333Y-76182768D01*
X84497333Y-76182768D02*
X84461047Y-76194863D01*
X84461047Y-76194863D02*
X84400571Y-76194863D01*
X84642475Y-75965053D02*
X84654571Y-75952958D01*
X84654571Y-75952958D02*
X84678761Y-75940863D01*
X84678761Y-75940863D02*
X84739237Y-75940863D01*
X84739237Y-75940863D02*
X84763428Y-75952958D01*
X84763428Y-75952958D02*
X84775523Y-75965053D01*
X84775523Y-75965053D02*
X84787618Y-75989244D01*
X84787618Y-75989244D02*
X84787618Y-76013434D01*
X84787618Y-76013434D02*
X84775523Y-76049720D01*
X84775523Y-76049720D02*
X84630380Y-76194863D01*
X84630380Y-76194863D02*
X84787618Y-76194863D01*
D15*
X97859726Y-60474666D02*
X97617821Y-60644000D01*
X97859726Y-60764952D02*
X97351726Y-60764952D01*
X97351726Y-60764952D02*
X97351726Y-60571428D01*
X97351726Y-60571428D02*
X97375916Y-60523047D01*
X97375916Y-60523047D02*
X97400107Y-60498857D01*
X97400107Y-60498857D02*
X97448488Y-60474666D01*
X97448488Y-60474666D02*
X97521059Y-60474666D01*
X97521059Y-60474666D02*
X97569440Y-60498857D01*
X97569440Y-60498857D02*
X97593631Y-60523047D01*
X97593631Y-60523047D02*
X97617821Y-60571428D01*
X97617821Y-60571428D02*
X97617821Y-60764952D01*
X97521059Y-60039238D02*
X97859726Y-60039238D01*
X97327536Y-60160190D02*
X97690393Y-60281143D01*
X97690393Y-60281143D02*
X97690393Y-59966666D01*
X96041345Y-60712571D02*
X96065536Y-60736762D01*
X96065536Y-60736762D02*
X96089726Y-60809333D01*
X96089726Y-60809333D02*
X96089726Y-60857714D01*
X96089726Y-60857714D02*
X96065536Y-60930286D01*
X96065536Y-60930286D02*
X96017155Y-60978667D01*
X96017155Y-60978667D02*
X95968774Y-61002857D01*
X95968774Y-61002857D02*
X95872012Y-61027048D01*
X95872012Y-61027048D02*
X95799440Y-61027048D01*
X95799440Y-61027048D02*
X95702678Y-61002857D01*
X95702678Y-61002857D02*
X95654297Y-60978667D01*
X95654297Y-60978667D02*
X95605916Y-60930286D01*
X95605916Y-60930286D02*
X95581726Y-60857714D01*
X95581726Y-60857714D02*
X95581726Y-60809333D01*
X95581726Y-60809333D02*
X95605916Y-60736762D01*
X95605916Y-60736762D02*
X95630107Y-60712571D01*
X96089726Y-60228762D02*
X96089726Y-60519048D01*
X96089726Y-60373905D02*
X95581726Y-60373905D01*
X95581726Y-60373905D02*
X95654297Y-60422286D01*
X95654297Y-60422286D02*
X95702678Y-60470667D01*
X95702678Y-60470667D02*
X95726869Y-60519048D01*
X95581726Y-59914285D02*
X95581726Y-59865904D01*
X95581726Y-59865904D02*
X95605916Y-59817523D01*
X95605916Y-59817523D02*
X95630107Y-59793333D01*
X95630107Y-59793333D02*
X95678488Y-59769142D01*
X95678488Y-59769142D02*
X95775250Y-59744952D01*
X95775250Y-59744952D02*
X95896202Y-59744952D01*
X95896202Y-59744952D02*
X95992964Y-59769142D01*
X95992964Y-59769142D02*
X96041345Y-59793333D01*
X96041345Y-59793333D02*
X96065536Y-59817523D01*
X96065536Y-59817523D02*
X96089726Y-59865904D01*
X96089726Y-59865904D02*
X96089726Y-59914285D01*
X96089726Y-59914285D02*
X96065536Y-59962666D01*
X96065536Y-59962666D02*
X96041345Y-59986857D01*
X96041345Y-59986857D02*
X95992964Y-60011047D01*
X95992964Y-60011047D02*
X95896202Y-60035238D01*
X95896202Y-60035238D02*
X95775250Y-60035238D01*
X95775250Y-60035238D02*
X95678488Y-60011047D01*
X95678488Y-60011047D02*
X95630107Y-59986857D01*
X95630107Y-59986857D02*
X95605916Y-59962666D01*
X95605916Y-59962666D02*
X95581726Y-59914285D01*
X78497809Y-61281345D02*
X78473618Y-61305536D01*
X78473618Y-61305536D02*
X78401047Y-61329726D01*
X78401047Y-61329726D02*
X78352666Y-61329726D01*
X78352666Y-61329726D02*
X78280094Y-61305536D01*
X78280094Y-61305536D02*
X78231713Y-61257155D01*
X78231713Y-61257155D02*
X78207523Y-61208774D01*
X78207523Y-61208774D02*
X78183332Y-61112012D01*
X78183332Y-61112012D02*
X78183332Y-61039440D01*
X78183332Y-61039440D02*
X78207523Y-60942678D01*
X78207523Y-60942678D02*
X78231713Y-60894297D01*
X78231713Y-60894297D02*
X78280094Y-60845916D01*
X78280094Y-60845916D02*
X78352666Y-60821726D01*
X78352666Y-60821726D02*
X78401047Y-60821726D01*
X78401047Y-60821726D02*
X78473618Y-60845916D01*
X78473618Y-60845916D02*
X78497809Y-60870107D01*
X78594571Y-61378107D02*
X78981618Y-61378107D01*
X79368666Y-61329726D02*
X79078380Y-61329726D01*
X79223523Y-61329726D02*
X79223523Y-60821726D01*
X79223523Y-60821726D02*
X79175142Y-60894297D01*
X79175142Y-60894297D02*
X79126761Y-60942678D01*
X79126761Y-60942678D02*
X79078380Y-60966869D01*
X79586381Y-61281345D02*
X79610571Y-61305536D01*
X79610571Y-61305536D02*
X79586381Y-61329726D01*
X79586381Y-61329726D02*
X79562190Y-61305536D01*
X79562190Y-61305536D02*
X79586381Y-61281345D01*
X79586381Y-61281345D02*
X79586381Y-61329726D01*
X79900857Y-61039440D02*
X79852476Y-61015250D01*
X79852476Y-61015250D02*
X79828286Y-60991059D01*
X79828286Y-60991059D02*
X79804095Y-60942678D01*
X79804095Y-60942678D02*
X79804095Y-60918488D01*
X79804095Y-60918488D02*
X79828286Y-60870107D01*
X79828286Y-60870107D02*
X79852476Y-60845916D01*
X79852476Y-60845916D02*
X79900857Y-60821726D01*
X79900857Y-60821726D02*
X79997619Y-60821726D01*
X79997619Y-60821726D02*
X80046000Y-60845916D01*
X80046000Y-60845916D02*
X80070191Y-60870107D01*
X80070191Y-60870107D02*
X80094381Y-60918488D01*
X80094381Y-60918488D02*
X80094381Y-60942678D01*
X80094381Y-60942678D02*
X80070191Y-60991059D01*
X80070191Y-60991059D02*
X80046000Y-61015250D01*
X80046000Y-61015250D02*
X79997619Y-61039440D01*
X79997619Y-61039440D02*
X79900857Y-61039440D01*
X79900857Y-61039440D02*
X79852476Y-61063631D01*
X79852476Y-61063631D02*
X79828286Y-61087821D01*
X79828286Y-61087821D02*
X79804095Y-61136202D01*
X79804095Y-61136202D02*
X79804095Y-61232964D01*
X79804095Y-61232964D02*
X79828286Y-61281345D01*
X79828286Y-61281345D02*
X79852476Y-61305536D01*
X79852476Y-61305536D02*
X79900857Y-61329726D01*
X79900857Y-61329726D02*
X79997619Y-61329726D01*
X79997619Y-61329726D02*
X80046000Y-61305536D01*
X80046000Y-61305536D02*
X80070191Y-61281345D01*
X80070191Y-61281345D02*
X80094381Y-61232964D01*
X80094381Y-61232964D02*
X80094381Y-61136202D01*
X80094381Y-61136202D02*
X80070191Y-61087821D01*
X80070191Y-61087821D02*
X80046000Y-61063631D01*
X80046000Y-61063631D02*
X79997619Y-61039440D01*
X80191144Y-61378107D02*
X80578191Y-61378107D01*
X80795906Y-60821726D02*
X80892668Y-60821726D01*
X80892668Y-60821726D02*
X80941049Y-60845916D01*
X80941049Y-60845916D02*
X80989430Y-60894297D01*
X80989430Y-60894297D02*
X81013620Y-60991059D01*
X81013620Y-60991059D02*
X81013620Y-61160393D01*
X81013620Y-61160393D02*
X80989430Y-61257155D01*
X80989430Y-61257155D02*
X80941049Y-61305536D01*
X80941049Y-61305536D02*
X80892668Y-61329726D01*
X80892668Y-61329726D02*
X80795906Y-61329726D01*
X80795906Y-61329726D02*
X80747525Y-61305536D01*
X80747525Y-61305536D02*
X80699144Y-61257155D01*
X80699144Y-61257155D02*
X80674953Y-61160393D01*
X80674953Y-61160393D02*
X80674953Y-60991059D01*
X80674953Y-60991059D02*
X80699144Y-60894297D01*
X80699144Y-60894297D02*
X80747525Y-60845916D01*
X80747525Y-60845916D02*
X80795906Y-60821726D01*
X81231334Y-60821726D02*
X81231334Y-61232964D01*
X81231334Y-61232964D02*
X81255524Y-61281345D01*
X81255524Y-61281345D02*
X81279715Y-61305536D01*
X81279715Y-61305536D02*
X81328096Y-61329726D01*
X81328096Y-61329726D02*
X81424858Y-61329726D01*
X81424858Y-61329726D02*
X81473239Y-61305536D01*
X81473239Y-61305536D02*
X81497429Y-61281345D01*
X81497429Y-61281345D02*
X81521620Y-61232964D01*
X81521620Y-61232964D02*
X81521620Y-60821726D01*
X81690952Y-60821726D02*
X81981238Y-60821726D01*
X81836095Y-61329726D02*
X81836095Y-60821726D01*
X82416667Y-61329726D02*
X82126381Y-61329726D01*
X82271524Y-61329726D02*
X82271524Y-60821726D01*
X82271524Y-60821726D02*
X82223143Y-60894297D01*
X82223143Y-60894297D02*
X82174762Y-60942678D01*
X82174762Y-60942678D02*
X82126381Y-60966869D01*
X77929726Y-63354666D02*
X77929726Y-63596571D01*
X77929726Y-63596571D02*
X77421726Y-63596571D01*
X77929726Y-62919238D02*
X77929726Y-63209524D01*
X77929726Y-63064381D02*
X77421726Y-63064381D01*
X77421726Y-63064381D02*
X77494297Y-63112762D01*
X77494297Y-63112762D02*
X77542678Y-63161143D01*
X77542678Y-63161143D02*
X77566869Y-63209524D01*
X84636475Y-64781345D02*
X84612284Y-64805536D01*
X84612284Y-64805536D02*
X84539713Y-64829726D01*
X84539713Y-64829726D02*
X84491332Y-64829726D01*
X84491332Y-64829726D02*
X84418760Y-64805536D01*
X84418760Y-64805536D02*
X84370379Y-64757155D01*
X84370379Y-64757155D02*
X84346189Y-64708774D01*
X84346189Y-64708774D02*
X84321998Y-64612012D01*
X84321998Y-64612012D02*
X84321998Y-64539440D01*
X84321998Y-64539440D02*
X84346189Y-64442678D01*
X84346189Y-64442678D02*
X84370379Y-64394297D01*
X84370379Y-64394297D02*
X84418760Y-64345916D01*
X84418760Y-64345916D02*
X84491332Y-64321726D01*
X84491332Y-64321726D02*
X84539713Y-64321726D01*
X84539713Y-64321726D02*
X84612284Y-64345916D01*
X84612284Y-64345916D02*
X84636475Y-64370107D01*
X84733237Y-64878107D02*
X85120284Y-64878107D01*
X85507332Y-64829726D02*
X85217046Y-64829726D01*
X85362189Y-64829726D02*
X85362189Y-64321726D01*
X85362189Y-64321726D02*
X85313808Y-64394297D01*
X85313808Y-64394297D02*
X85265427Y-64442678D01*
X85265427Y-64442678D02*
X85217046Y-64466869D01*
X85725047Y-64781345D02*
X85749237Y-64805536D01*
X85749237Y-64805536D02*
X85725047Y-64829726D01*
X85725047Y-64829726D02*
X85700856Y-64805536D01*
X85700856Y-64805536D02*
X85725047Y-64781345D01*
X85725047Y-64781345D02*
X85725047Y-64829726D01*
X86039523Y-64539440D02*
X85991142Y-64515250D01*
X85991142Y-64515250D02*
X85966952Y-64491059D01*
X85966952Y-64491059D02*
X85942761Y-64442678D01*
X85942761Y-64442678D02*
X85942761Y-64418488D01*
X85942761Y-64418488D02*
X85966952Y-64370107D01*
X85966952Y-64370107D02*
X85991142Y-64345916D01*
X85991142Y-64345916D02*
X86039523Y-64321726D01*
X86039523Y-64321726D02*
X86136285Y-64321726D01*
X86136285Y-64321726D02*
X86184666Y-64345916D01*
X86184666Y-64345916D02*
X86208857Y-64370107D01*
X86208857Y-64370107D02*
X86233047Y-64418488D01*
X86233047Y-64418488D02*
X86233047Y-64442678D01*
X86233047Y-64442678D02*
X86208857Y-64491059D01*
X86208857Y-64491059D02*
X86184666Y-64515250D01*
X86184666Y-64515250D02*
X86136285Y-64539440D01*
X86136285Y-64539440D02*
X86039523Y-64539440D01*
X86039523Y-64539440D02*
X85991142Y-64563631D01*
X85991142Y-64563631D02*
X85966952Y-64587821D01*
X85966952Y-64587821D02*
X85942761Y-64636202D01*
X85942761Y-64636202D02*
X85942761Y-64732964D01*
X85942761Y-64732964D02*
X85966952Y-64781345D01*
X85966952Y-64781345D02*
X85991142Y-64805536D01*
X85991142Y-64805536D02*
X86039523Y-64829726D01*
X86039523Y-64829726D02*
X86136285Y-64829726D01*
X86136285Y-64829726D02*
X86184666Y-64805536D01*
X86184666Y-64805536D02*
X86208857Y-64781345D01*
X86208857Y-64781345D02*
X86233047Y-64732964D01*
X86233047Y-64732964D02*
X86233047Y-64636202D01*
X86233047Y-64636202D02*
X86208857Y-64587821D01*
X86208857Y-64587821D02*
X86184666Y-64563631D01*
X86184666Y-64563631D02*
X86136285Y-64539440D01*
X86329810Y-64878107D02*
X86716857Y-64878107D01*
X86837810Y-64829726D02*
X86837810Y-64321726D01*
X87079715Y-64829726D02*
X87079715Y-64321726D01*
X87079715Y-64321726D02*
X87370001Y-64829726D01*
X87370001Y-64829726D02*
X87370001Y-64321726D01*
X87878000Y-64829726D02*
X87587714Y-64829726D01*
X87732857Y-64829726D02*
X87732857Y-64321726D01*
X87732857Y-64321726D02*
X87684476Y-64394297D01*
X87684476Y-64394297D02*
X87636095Y-64442678D01*
X87636095Y-64442678D02*
X87587714Y-64466869D01*
D18*
X82946285Y-61209277D02*
X82946285Y-61597848D01*
X82946285Y-61597848D02*
X82969142Y-61643562D01*
X82969142Y-61643562D02*
X82992000Y-61666420D01*
X82992000Y-61666420D02*
X83037714Y-61689277D01*
X83037714Y-61689277D02*
X83129142Y-61689277D01*
X83129142Y-61689277D02*
X83174857Y-61666420D01*
X83174857Y-61666420D02*
X83197714Y-61643562D01*
X83197714Y-61643562D02*
X83220571Y-61597848D01*
X83220571Y-61597848D02*
X83220571Y-61209277D01*
X83403428Y-61209277D02*
X83700571Y-61209277D01*
X83700571Y-61209277D02*
X83540571Y-61392134D01*
X83540571Y-61392134D02*
X83609142Y-61392134D01*
X83609142Y-61392134D02*
X83654857Y-61414991D01*
X83654857Y-61414991D02*
X83677714Y-61437848D01*
X83677714Y-61437848D02*
X83700571Y-61483562D01*
X83700571Y-61483562D02*
X83700571Y-61597848D01*
X83700571Y-61597848D02*
X83677714Y-61643562D01*
X83677714Y-61643562D02*
X83654857Y-61666420D01*
X83654857Y-61666420D02*
X83609142Y-61689277D01*
X83609142Y-61689277D02*
X83471999Y-61689277D01*
X83471999Y-61689277D02*
X83426285Y-61666420D01*
X83426285Y-61666420D02*
X83403428Y-61643562D01*
D15*
X79536475Y-59981345D02*
X79512284Y-60005536D01*
X79512284Y-60005536D02*
X79439713Y-60029726D01*
X79439713Y-60029726D02*
X79391332Y-60029726D01*
X79391332Y-60029726D02*
X79318760Y-60005536D01*
X79318760Y-60005536D02*
X79270379Y-59957155D01*
X79270379Y-59957155D02*
X79246189Y-59908774D01*
X79246189Y-59908774D02*
X79221998Y-59812012D01*
X79221998Y-59812012D02*
X79221998Y-59739440D01*
X79221998Y-59739440D02*
X79246189Y-59642678D01*
X79246189Y-59642678D02*
X79270379Y-59594297D01*
X79270379Y-59594297D02*
X79318760Y-59545916D01*
X79318760Y-59545916D02*
X79391332Y-59521726D01*
X79391332Y-59521726D02*
X79439713Y-59521726D01*
X79439713Y-59521726D02*
X79512284Y-59545916D01*
X79512284Y-59545916D02*
X79536475Y-59570107D01*
X79633237Y-60078107D02*
X80020284Y-60078107D01*
X80407332Y-60029726D02*
X80117046Y-60029726D01*
X80262189Y-60029726D02*
X80262189Y-59521726D01*
X80262189Y-59521726D02*
X80213808Y-59594297D01*
X80213808Y-59594297D02*
X80165427Y-59642678D01*
X80165427Y-59642678D02*
X80117046Y-59666869D01*
X80625047Y-59981345D02*
X80649237Y-60005536D01*
X80649237Y-60005536D02*
X80625047Y-60029726D01*
X80625047Y-60029726D02*
X80600856Y-60005536D01*
X80600856Y-60005536D02*
X80625047Y-59981345D01*
X80625047Y-59981345D02*
X80625047Y-60029726D01*
X81133047Y-60029726D02*
X80842761Y-60029726D01*
X80987904Y-60029726D02*
X80987904Y-59521726D01*
X80987904Y-59521726D02*
X80939523Y-59594297D01*
X80939523Y-59594297D02*
X80891142Y-59642678D01*
X80891142Y-59642678D02*
X80842761Y-59666869D01*
X81229810Y-60078107D02*
X81616857Y-60078107D01*
X81737810Y-60029726D02*
X81737810Y-59521726D01*
X81979715Y-60029726D02*
X81979715Y-59521726D01*
X81979715Y-59521726D02*
X82270001Y-60029726D01*
X82270001Y-60029726D02*
X82270001Y-59521726D01*
X82778000Y-60029726D02*
X82487714Y-60029726D01*
X82632857Y-60029726D02*
X82632857Y-59521726D01*
X82632857Y-59521726D02*
X82584476Y-59594297D01*
X82584476Y-59594297D02*
X82536095Y-59642678D01*
X82536095Y-59642678D02*
X82487714Y-59666869D01*
X89629726Y-60784666D02*
X89629726Y-61026571D01*
X89629726Y-61026571D02*
X89121726Y-61026571D01*
X89170107Y-60639524D02*
X89145916Y-60615333D01*
X89145916Y-60615333D02*
X89121726Y-60566952D01*
X89121726Y-60566952D02*
X89121726Y-60446000D01*
X89121726Y-60446000D02*
X89145916Y-60397619D01*
X89145916Y-60397619D02*
X89170107Y-60373428D01*
X89170107Y-60373428D02*
X89218488Y-60349238D01*
X89218488Y-60349238D02*
X89266869Y-60349238D01*
X89266869Y-60349238D02*
X89339440Y-60373428D01*
X89339440Y-60373428D02*
X89629726Y-60663714D01*
X89629726Y-60663714D02*
X89629726Y-60349238D01*
X84837809Y-62951345D02*
X84813618Y-62975536D01*
X84813618Y-62975536D02*
X84741047Y-62999726D01*
X84741047Y-62999726D02*
X84692666Y-62999726D01*
X84692666Y-62999726D02*
X84620094Y-62975536D01*
X84620094Y-62975536D02*
X84571713Y-62927155D01*
X84571713Y-62927155D02*
X84547523Y-62878774D01*
X84547523Y-62878774D02*
X84523332Y-62782012D01*
X84523332Y-62782012D02*
X84523332Y-62709440D01*
X84523332Y-62709440D02*
X84547523Y-62612678D01*
X84547523Y-62612678D02*
X84571713Y-62564297D01*
X84571713Y-62564297D02*
X84620094Y-62515916D01*
X84620094Y-62515916D02*
X84692666Y-62491726D01*
X84692666Y-62491726D02*
X84741047Y-62491726D01*
X84741047Y-62491726D02*
X84813618Y-62515916D01*
X84813618Y-62515916D02*
X84837809Y-62540107D01*
X84934571Y-63048107D02*
X85321618Y-63048107D01*
X85708666Y-62999726D02*
X85418380Y-62999726D01*
X85563523Y-62999726D02*
X85563523Y-62491726D01*
X85563523Y-62491726D02*
X85515142Y-62564297D01*
X85515142Y-62564297D02*
X85466761Y-62612678D01*
X85466761Y-62612678D02*
X85418380Y-62636869D01*
X85926381Y-62951345D02*
X85950571Y-62975536D01*
X85950571Y-62975536D02*
X85926381Y-62999726D01*
X85926381Y-62999726D02*
X85902190Y-62975536D01*
X85902190Y-62975536D02*
X85926381Y-62951345D01*
X85926381Y-62951345D02*
X85926381Y-62999726D01*
X86434381Y-62999726D02*
X86144095Y-62999726D01*
X86289238Y-62999726D02*
X86289238Y-62491726D01*
X86289238Y-62491726D02*
X86240857Y-62564297D01*
X86240857Y-62564297D02*
X86192476Y-62612678D01*
X86192476Y-62612678D02*
X86144095Y-62636869D01*
X86531144Y-63048107D02*
X86918191Y-63048107D01*
X87135906Y-62491726D02*
X87232668Y-62491726D01*
X87232668Y-62491726D02*
X87281049Y-62515916D01*
X87281049Y-62515916D02*
X87329430Y-62564297D01*
X87329430Y-62564297D02*
X87353620Y-62661059D01*
X87353620Y-62661059D02*
X87353620Y-62830393D01*
X87353620Y-62830393D02*
X87329430Y-62927155D01*
X87329430Y-62927155D02*
X87281049Y-62975536D01*
X87281049Y-62975536D02*
X87232668Y-62999726D01*
X87232668Y-62999726D02*
X87135906Y-62999726D01*
X87135906Y-62999726D02*
X87087525Y-62975536D01*
X87087525Y-62975536D02*
X87039144Y-62927155D01*
X87039144Y-62927155D02*
X87014953Y-62830393D01*
X87014953Y-62830393D02*
X87014953Y-62661059D01*
X87014953Y-62661059D02*
X87039144Y-62564297D01*
X87039144Y-62564297D02*
X87087525Y-62515916D01*
X87087525Y-62515916D02*
X87135906Y-62491726D01*
X87571334Y-62491726D02*
X87571334Y-62902964D01*
X87571334Y-62902964D02*
X87595524Y-62951345D01*
X87595524Y-62951345D02*
X87619715Y-62975536D01*
X87619715Y-62975536D02*
X87668096Y-62999726D01*
X87668096Y-62999726D02*
X87764858Y-62999726D01*
X87764858Y-62999726D02*
X87813239Y-62975536D01*
X87813239Y-62975536D02*
X87837429Y-62951345D01*
X87837429Y-62951345D02*
X87861620Y-62902964D01*
X87861620Y-62902964D02*
X87861620Y-62491726D01*
X88030952Y-62491726D02*
X88321238Y-62491726D01*
X88176095Y-62999726D02*
X88176095Y-62491726D01*
X88756667Y-62999726D02*
X88466381Y-62999726D01*
X88611524Y-62999726D02*
X88611524Y-62491726D01*
X88611524Y-62491726D02*
X88563143Y-62564297D01*
X88563143Y-62564297D02*
X88514762Y-62612678D01*
X88514762Y-62612678D02*
X88466381Y-62636869D01*
D18*
X81422285Y-64765277D02*
X81422285Y-65153848D01*
X81422285Y-65153848D02*
X81445142Y-65199562D01*
X81445142Y-65199562D02*
X81468000Y-65222420D01*
X81468000Y-65222420D02*
X81513714Y-65245277D01*
X81513714Y-65245277D02*
X81605142Y-65245277D01*
X81605142Y-65245277D02*
X81650857Y-65222420D01*
X81650857Y-65222420D02*
X81673714Y-65199562D01*
X81673714Y-65199562D02*
X81696571Y-65153848D01*
X81696571Y-65153848D02*
X81696571Y-64765277D01*
X81902285Y-64810991D02*
X81925142Y-64788134D01*
X81925142Y-64788134D02*
X81970857Y-64765277D01*
X81970857Y-64765277D02*
X82085142Y-64765277D01*
X82085142Y-64765277D02*
X82130857Y-64788134D01*
X82130857Y-64788134D02*
X82153714Y-64810991D01*
X82153714Y-64810991D02*
X82176571Y-64856705D01*
X82176571Y-64856705D02*
X82176571Y-64902420D01*
X82176571Y-64902420D02*
X82153714Y-64970991D01*
X82153714Y-64970991D02*
X81879428Y-65245277D01*
X81879428Y-65245277D02*
X82176571Y-65245277D01*
D16*
X85695333Y-63614863D02*
X85695333Y-63796291D01*
X85695333Y-63796291D02*
X85683238Y-63832577D01*
X85683238Y-63832577D02*
X85659047Y-63856768D01*
X85659047Y-63856768D02*
X85622762Y-63868863D01*
X85622762Y-63868863D02*
X85598571Y-63868863D01*
X85852571Y-63723720D02*
X85828381Y-63711625D01*
X85828381Y-63711625D02*
X85816286Y-63699529D01*
X85816286Y-63699529D02*
X85804190Y-63675339D01*
X85804190Y-63675339D02*
X85804190Y-63663244D01*
X85804190Y-63663244D02*
X85816286Y-63639053D01*
X85816286Y-63639053D02*
X85828381Y-63626958D01*
X85828381Y-63626958D02*
X85852571Y-63614863D01*
X85852571Y-63614863D02*
X85900952Y-63614863D01*
X85900952Y-63614863D02*
X85925143Y-63626958D01*
X85925143Y-63626958D02*
X85937238Y-63639053D01*
X85937238Y-63639053D02*
X85949333Y-63663244D01*
X85949333Y-63663244D02*
X85949333Y-63675339D01*
X85949333Y-63675339D02*
X85937238Y-63699529D01*
X85937238Y-63699529D02*
X85925143Y-63711625D01*
X85925143Y-63711625D02*
X85900952Y-63723720D01*
X85900952Y-63723720D02*
X85852571Y-63723720D01*
X85852571Y-63723720D02*
X85828381Y-63735815D01*
X85828381Y-63735815D02*
X85816286Y-63747910D01*
X85816286Y-63747910D02*
X85804190Y-63772101D01*
X85804190Y-63772101D02*
X85804190Y-63820482D01*
X85804190Y-63820482D02*
X85816286Y-63844672D01*
X85816286Y-63844672D02*
X85828381Y-63856768D01*
X85828381Y-63856768D02*
X85852571Y-63868863D01*
X85852571Y-63868863D02*
X85900952Y-63868863D01*
X85900952Y-63868863D02*
X85925143Y-63856768D01*
X85925143Y-63856768D02*
X85937238Y-63844672D01*
X85937238Y-63844672D02*
X85949333Y-63820482D01*
X85949333Y-63820482D02*
X85949333Y-63772101D01*
X85949333Y-63772101D02*
X85937238Y-63747910D01*
X85937238Y-63747910D02*
X85925143Y-63735815D01*
X85925143Y-63735815D02*
X85900952Y-63723720D01*
D10*
X112096666Y-54334819D02*
X112096666Y-55049104D01*
X112096666Y-55049104D02*
X112049047Y-55191961D01*
X112049047Y-55191961D02*
X111953809Y-55287200D01*
X111953809Y-55287200D02*
X111810952Y-55334819D01*
X111810952Y-55334819D02*
X111715714Y-55334819D01*
X112477619Y-54334819D02*
X113096666Y-54334819D01*
X113096666Y-54334819D02*
X112763333Y-54715771D01*
X112763333Y-54715771D02*
X112906190Y-54715771D01*
X112906190Y-54715771D02*
X113001428Y-54763390D01*
X113001428Y-54763390D02*
X113049047Y-54811009D01*
X113049047Y-54811009D02*
X113096666Y-54906247D01*
X113096666Y-54906247D02*
X113096666Y-55144342D01*
X113096666Y-55144342D02*
X113049047Y-55239580D01*
X113049047Y-55239580D02*
X113001428Y-55287200D01*
X113001428Y-55287200D02*
X112906190Y-55334819D01*
X112906190Y-55334819D02*
X112620476Y-55334819D01*
X112620476Y-55334819D02*
X112525238Y-55287200D01*
X112525238Y-55287200D02*
X112477619Y-55239580D01*
D19*
%TO.C,U1*%
X90370000Y-74788000D02*
X90370000Y-73838000D01*
X91320000Y-62488000D02*
X90120000Y-62488000D01*
X91320000Y-74788000D02*
X90370000Y-74788000D01*
X101720000Y-62488000D02*
X102670000Y-62488000D01*
X101720000Y-74788000D02*
X102670000Y-74788000D01*
X102670000Y-62488000D02*
X102670000Y-63438000D01*
X102670000Y-74788000D02*
X102670000Y-73838000D01*
%TO.C,J2*%
X83760000Y-80458000D02*
X109280000Y-80458000D01*
X83760000Y-83058000D02*
X83760000Y-80458000D01*
X83760000Y-85658000D02*
X83760000Y-84328000D01*
X85090000Y-85658000D02*
X83760000Y-85658000D01*
X86360000Y-83058000D02*
X83760000Y-83058000D01*
X86360000Y-85658000D02*
X86360000Y-83058000D01*
X86360000Y-85658000D02*
X109280000Y-85658000D01*
X109280000Y-85658000D02*
X109280000Y-80458000D01*
D10*
%TO.C,U9AB1*%
X79045000Y-76886000D02*
X79045000Y-77286000D01*
X79045000Y-76886000D02*
X79445000Y-76886000D01*
X79045000Y-80086000D02*
X79045000Y-79686000D01*
X79045000Y-80086000D02*
X79445000Y-80086000D01*
X82245000Y-76886000D02*
X81845000Y-76886000D01*
X82245000Y-76886000D02*
X82245000Y-77286000D01*
X82245000Y-80086000D02*
X81845000Y-80086000D01*
D19*
%TO.C,J1*%
X83125000Y-53153000D02*
X111185000Y-53153000D01*
X83125000Y-55753000D02*
X83125000Y-53153000D01*
X83125000Y-58353000D02*
X83125000Y-57023000D01*
X84455000Y-58353000D02*
X83125000Y-58353000D01*
X85725000Y-55753000D02*
X83125000Y-55753000D01*
X85725000Y-58353000D02*
X85725000Y-55753000D01*
X85725000Y-58353000D02*
X111185000Y-58353000D01*
X111185000Y-58353000D02*
X111185000Y-53153000D01*
%TO.C,L1*%
X78348000Y-63183000D02*
X78348000Y-63383000D01*
X80148000Y-63183000D02*
X80148000Y-63383000D01*
D14*
%TO.C,U3*%
X86006000Y-59490000D02*
X84406000Y-59490000D01*
X86006000Y-61430000D02*
X84406000Y-61430000D01*
D12*
X86856000Y-60960000D02*
G75*
G02*
X86756000Y-60960000I-50000J0D01*
G01*
X86756000Y-60960000D02*
G75*
G02*
X86856000Y-60960000I50000J0D01*
G01*
D19*
%TO.C,L2*%
X86984000Y-60843000D02*
X86984000Y-60643000D01*
X88784000Y-60843000D02*
X88784000Y-60643000D01*
D14*
%TO.C,U2*%
X81104000Y-62538000D02*
X82704000Y-62538000D01*
X81104000Y-64478000D02*
X82704000Y-64478000D01*
D12*
X80354000Y-63008000D02*
G75*
G02*
X80254000Y-63008000I-50000J0D01*
G01*
X80254000Y-63008000D02*
G75*
G02*
X80354000Y-63008000I50000J0D01*
G01*
D19*
%TO.C,J3*%
X112970000Y-56074000D02*
X114300000Y-56074000D01*
X112970000Y-57404000D02*
X112970000Y-56074000D01*
X112970000Y-58674000D02*
X112970000Y-81594000D01*
X112970000Y-58674000D02*
X115630000Y-58674000D01*
X112970000Y-81594000D02*
X115630000Y-81594000D01*
X115630000Y-58674000D02*
X115630000Y-81594000D01*
%TO.C,B1*%
X88773000Y-51308000D02*
G75*
G02*
X88011000Y-51308000I-381000J0D01*
G01*
X88011000Y-51308000D02*
G75*
G02*
X88773000Y-51308000I381000J0D01*
G01*
%TD*%
%LPC*%
D20*
%TO.C,U1*%
X90620000Y-63838000D03*
X90620000Y-64238000D03*
X90620000Y-64638000D03*
X90620000Y-65038000D03*
X90620000Y-65438000D03*
X90620000Y-65838000D03*
X90620000Y-66238000D03*
X90620000Y-66638000D03*
X90620000Y-67038000D03*
X90620000Y-67438000D03*
X90620000Y-67838000D03*
X90620000Y-68238000D03*
X90620000Y-68638000D03*
X90620000Y-69038000D03*
X90620000Y-69438000D03*
X90620000Y-69838000D03*
X90620000Y-70238000D03*
X90620000Y-70638000D03*
X90620000Y-71038000D03*
X90620000Y-71438000D03*
X90620000Y-71838000D03*
X90620000Y-72238000D03*
X90620000Y-72638000D03*
X90620000Y-73038000D03*
X90620000Y-73438000D03*
D21*
X91720000Y-74538000D03*
X92120000Y-74538000D03*
X92520000Y-74538000D03*
X92920000Y-74538000D03*
X93320000Y-74538000D03*
X93720000Y-74538000D03*
X94120000Y-74538000D03*
X94520000Y-74538000D03*
X94920000Y-74538000D03*
X95320000Y-74538000D03*
X95720000Y-74538000D03*
X96120000Y-74538000D03*
X96520000Y-74538000D03*
X96920000Y-74538000D03*
X97320000Y-74538000D03*
X97720000Y-74538000D03*
X98120000Y-74538000D03*
X98520000Y-74538000D03*
X98920000Y-74538000D03*
X99320000Y-74538000D03*
X99720000Y-74538000D03*
X100120000Y-74538000D03*
X100520000Y-74538000D03*
X100920000Y-74538000D03*
X101320000Y-74538000D03*
D20*
X102420000Y-73438000D03*
X102420000Y-73038000D03*
X102420000Y-72638000D03*
X102420000Y-72238000D03*
X102420000Y-71838000D03*
X102420000Y-71438000D03*
X102420000Y-71038000D03*
X102420000Y-70638000D03*
X102420000Y-70238000D03*
X102420000Y-69838000D03*
X102420000Y-69438000D03*
X102420000Y-69038000D03*
X102420000Y-68638000D03*
X102420000Y-68238000D03*
X102420000Y-67838000D03*
X102420000Y-67438000D03*
X102420000Y-67038000D03*
X102420000Y-66638000D03*
X102420000Y-66238000D03*
X102420000Y-65838000D03*
X102420000Y-65438000D03*
X102420000Y-65038000D03*
X102420000Y-64638000D03*
X102420000Y-64238000D03*
X102420000Y-63838000D03*
D21*
X101320000Y-62738000D03*
X100920000Y-62738000D03*
X100520000Y-62738000D03*
X100120000Y-62738000D03*
X99720000Y-62738000D03*
X99320000Y-62738000D03*
X98920000Y-62738000D03*
X98520000Y-62738000D03*
X98120000Y-62738000D03*
X97720000Y-62738000D03*
X97320000Y-62738000D03*
X96920000Y-62738000D03*
X96520000Y-62738000D03*
X96120000Y-62738000D03*
X95720000Y-62738000D03*
X95320000Y-62738000D03*
X94920000Y-62738000D03*
X94520000Y-62738000D03*
X94120000Y-62738000D03*
X93720000Y-62738000D03*
X93320000Y-62738000D03*
X92920000Y-62738000D03*
X92520000Y-62738000D03*
X92120000Y-62738000D03*
X91720000Y-62738000D03*
D22*
X92538750Y-64656750D03*
D23*
X92538750Y-64656750D03*
D22*
X92538750Y-65794250D03*
D23*
X92538750Y-65794250D03*
D22*
X92538750Y-66931750D03*
D23*
X92538750Y-66931750D03*
D22*
X92538750Y-68069250D03*
D23*
X92538750Y-68069250D03*
D22*
X92538750Y-69206750D03*
D23*
X92538750Y-69206750D03*
D22*
X92538750Y-70344250D03*
D23*
X92538750Y-70344250D03*
D22*
X92538750Y-71481750D03*
D23*
X92538750Y-71481750D03*
D22*
X92538750Y-72619250D03*
D23*
X92538750Y-72619250D03*
D22*
X93676250Y-64656750D03*
D23*
X93676250Y-64656750D03*
D22*
X93676250Y-65794250D03*
D23*
X93676250Y-65794250D03*
D22*
X93676250Y-66931750D03*
D23*
X93676250Y-66931750D03*
D22*
X93676250Y-68069250D03*
D23*
X93676250Y-68069250D03*
D22*
X93676250Y-69206750D03*
D23*
X93676250Y-69206750D03*
D22*
X93676250Y-70344250D03*
D23*
X93676250Y-70344250D03*
D22*
X93676250Y-71481750D03*
D23*
X93676250Y-71481750D03*
D22*
X93676250Y-72619250D03*
D23*
X93676250Y-72619250D03*
D22*
X94813750Y-64656750D03*
D23*
X94813750Y-64656750D03*
D22*
X94813750Y-65794250D03*
D23*
X94813750Y-65794250D03*
D22*
X94813750Y-66931750D03*
D23*
X94813750Y-66931750D03*
D22*
X94813750Y-68069250D03*
D23*
X94813750Y-68069250D03*
D22*
X94813750Y-69206750D03*
D23*
X94813750Y-69206750D03*
D22*
X94813750Y-70344250D03*
D23*
X94813750Y-70344250D03*
D22*
X94813750Y-71481750D03*
D23*
X94813750Y-71481750D03*
D22*
X94813750Y-72619250D03*
D23*
X94813750Y-72619250D03*
D22*
X95951250Y-64656750D03*
D23*
X95951250Y-64656750D03*
D22*
X95951250Y-65794250D03*
D23*
X95951250Y-65794250D03*
D22*
X95951250Y-66931750D03*
D23*
X95951250Y-66931750D03*
D22*
X95951250Y-68069250D03*
D23*
X95951250Y-68069250D03*
D22*
X95951250Y-69206750D03*
D23*
X95951250Y-69206750D03*
D22*
X95951250Y-70344250D03*
D23*
X95951250Y-70344250D03*
D22*
X95951250Y-71481750D03*
D23*
X95951250Y-71481750D03*
D22*
X95951250Y-72619250D03*
D23*
X95951250Y-72619250D03*
D22*
X97088750Y-64656750D03*
D23*
X97088750Y-64656750D03*
D22*
X97088750Y-65794250D03*
D23*
X97088750Y-65794250D03*
D22*
X97088750Y-66931750D03*
D23*
X97088750Y-66931750D03*
D22*
X97088750Y-68069250D03*
D23*
X97088750Y-68069250D03*
D22*
X97088750Y-69206750D03*
D23*
X97088750Y-69206750D03*
D22*
X97088750Y-70344250D03*
D23*
X97088750Y-70344250D03*
D22*
X97088750Y-71481750D03*
D23*
X97088750Y-71481750D03*
D22*
X97088750Y-72619250D03*
D23*
X97088750Y-72619250D03*
D22*
X98226250Y-64656750D03*
D23*
X98226250Y-64656750D03*
D22*
X98226250Y-65794250D03*
D23*
X98226250Y-65794250D03*
D22*
X98226250Y-66931750D03*
D23*
X98226250Y-66931750D03*
D22*
X98226250Y-68069250D03*
D23*
X98226250Y-68069250D03*
D22*
X98226250Y-69206750D03*
D23*
X98226250Y-69206750D03*
D22*
X98226250Y-70344250D03*
D23*
X98226250Y-70344250D03*
D22*
X98226250Y-71481750D03*
D23*
X98226250Y-71481750D03*
D22*
X98226250Y-72619250D03*
D23*
X98226250Y-72619250D03*
D22*
X99363750Y-64656750D03*
D23*
X99363750Y-64656750D03*
D22*
X99363750Y-65794250D03*
D23*
X99363750Y-65794250D03*
D22*
X99363750Y-66931750D03*
D23*
X99363750Y-66931750D03*
D22*
X99363750Y-68069250D03*
D23*
X99363750Y-68069250D03*
D22*
X99363750Y-69206750D03*
D23*
X99363750Y-69206750D03*
D22*
X99363750Y-70344250D03*
D23*
X99363750Y-70344250D03*
D22*
X99363750Y-71481750D03*
D23*
X99363750Y-71481750D03*
D22*
X99363750Y-72619250D03*
D23*
X99363750Y-72619250D03*
D22*
X100501250Y-64656750D03*
D23*
X100501250Y-64656750D03*
D22*
X100501250Y-65794250D03*
D23*
X100501250Y-65794250D03*
D22*
X100501250Y-66931750D03*
D23*
X100501250Y-66931750D03*
D22*
X100501250Y-68069250D03*
D23*
X100501250Y-68069250D03*
D22*
X100501250Y-69206750D03*
D23*
X100501250Y-69206750D03*
D22*
X100501250Y-70344250D03*
D23*
X100501250Y-70344250D03*
D22*
X100501250Y-71481750D03*
D23*
X100501250Y-71481750D03*
D22*
X100501250Y-72619250D03*
D23*
X100501250Y-72619250D03*
%TD*%
D24*
%TO.C,J2*%
X85090000Y-84328000D03*
D25*
X85090000Y-81788000D03*
X87630000Y-84328000D03*
X87630000Y-81788000D03*
X90170000Y-84328000D03*
X90170000Y-81788000D03*
X92710000Y-84328000D03*
X92710000Y-81788000D03*
X95250000Y-84328000D03*
X95250000Y-81788000D03*
X97790000Y-84328000D03*
X97790000Y-81788000D03*
X100330000Y-84328000D03*
X100330000Y-81788000D03*
X102870000Y-84328000D03*
X102870000Y-81788000D03*
X105410000Y-84328000D03*
X105410000Y-81788000D03*
X107950000Y-84328000D03*
X107950000Y-81788000D03*
%TD*%
D26*
%TO.C,C5*%
X86360000Y-74676000D03*
X85390000Y-74676000D03*
%TD*%
D27*
%TO.C,C8*%
X102235000Y-77724000D03*
X102235000Y-78694000D03*
%TD*%
D26*
%TO.C,C11*%
X107442000Y-66548000D03*
X106472000Y-66548000D03*
%TD*%
D28*
%TO.C,C12*%
X98552000Y-60833000D03*
X98552000Y-59863000D03*
%TD*%
%TO.C,C13*%
X100457000Y-60833000D03*
X100457000Y-59863000D03*
%TD*%
D29*
%TO.C,R1*%
X106472000Y-65024000D03*
X107442000Y-65024000D03*
%TD*%
D30*
%TO.C,GND1*%
X98552000Y-77724000D03*
%TD*%
%TO.C,GND6*%
X106680000Y-59944000D03*
%TD*%
%TO.C,J5*%
X104267000Y-64135000D03*
%TD*%
%TO.C,J6*%
X88646000Y-63500000D03*
%TD*%
%TO.C,J7*%
X86614000Y-63754000D03*
%TD*%
%TO.C,J9*%
X104902000Y-68580000D03*
%TD*%
%TO.C,J10*%
X104648000Y-67564000D03*
%TD*%
%TO.C,J11*%
X86106000Y-75946000D03*
%TD*%
%TO.C,J12*%
X86106000Y-77216000D03*
%TD*%
%TO.C,J15*%
X103759000Y-66675000D03*
%TD*%
%TO.C,J16*%
X105156000Y-66548000D03*
%TD*%
%TO.C,J17*%
X108585000Y-73533000D03*
%TD*%
%TO.C,J13*%
X88646000Y-78232000D03*
%TD*%
%TO.C,J18*%
X92456000Y-60198000D03*
%TD*%
%TO.C,J20*%
X104140000Y-62738000D03*
%TD*%
%TO.C,J21*%
X108585000Y-70993000D03*
%TD*%
%TO.C,GND5*%
X106680000Y-74422000D03*
%TD*%
D29*
%TO.C,C1*%
X81580000Y-75438000D03*
X82550000Y-75438000D03*
%TD*%
D31*
%TO.C,U9AB1*%
X82145000Y-79486000D03*
X82145000Y-79086000D03*
X82145000Y-78686000D03*
X82145000Y-78286000D03*
X82145000Y-77886000D03*
X82145000Y-77486000D03*
D32*
X81645000Y-76986000D03*
X81245000Y-76986000D03*
X80845000Y-76986000D03*
X80445000Y-76986000D03*
X80045000Y-76986000D03*
X79645000Y-76986000D03*
D31*
X79145000Y-77486000D03*
X79145000Y-77886000D03*
X79145000Y-78286000D03*
X79145000Y-78686000D03*
X79145000Y-79086000D03*
X79145000Y-79486000D03*
D32*
X79645000Y-79986000D03*
X80045000Y-79986000D03*
X80445000Y-79986000D03*
X80845000Y-79986000D03*
X81245000Y-79986000D03*
X81645000Y-79986000D03*
%TD*%
D26*
%TO.C,C3*%
X79756000Y-75438000D03*
X78786000Y-75438000D03*
%TD*%
D27*
%TO.C,C2*%
X77470000Y-77851000D03*
X77470000Y-78821000D03*
%TD*%
D26*
%TO.C,R2*%
X110190000Y-63246000D03*
X109220000Y-63246000D03*
%TD*%
D29*
%TO.C,R3*%
X109220000Y-65278000D03*
X110190000Y-65278000D03*
%TD*%
D30*
%TO.C,GND4*%
X107188000Y-62992000D03*
%TD*%
D27*
%TO.C,C7*%
X108204000Y-60706000D03*
X108204000Y-61676000D03*
%TD*%
D30*
%TO.C,J19*%
X93726000Y-60198000D03*
%TD*%
D27*
%TO.C,C6*%
X110236000Y-60706000D03*
X110236000Y-61676000D03*
%TD*%
D30*
%TO.C,J14*%
X91186000Y-60198000D03*
%TD*%
%TO.C,GND3*%
X90678000Y-76962000D03*
%TD*%
D26*
%TO.C,C4*%
X86337000Y-78740000D03*
X85367000Y-78740000D03*
%TD*%
D24*
%TO.C,J1*%
X84455000Y-57023000D03*
D25*
X84455000Y-54483000D03*
X86995000Y-57023000D03*
X86995000Y-54483000D03*
X89535000Y-57023000D03*
X89535000Y-54483000D03*
X92075000Y-57023000D03*
X92075000Y-54483000D03*
X94615000Y-57023000D03*
X94615000Y-54483000D03*
X97155000Y-57023000D03*
X97155000Y-54483000D03*
X99695000Y-57023000D03*
X99695000Y-54483000D03*
X102235000Y-57023000D03*
X102235000Y-54483000D03*
X104775000Y-57023000D03*
X104775000Y-54483000D03*
X107315000Y-57023000D03*
X107315000Y-54483000D03*
X109855000Y-57023000D03*
X109855000Y-54483000D03*
%TD*%
D27*
%TO.C,C9*%
X103632000Y-77715000D03*
X103632000Y-78685000D03*
%TD*%
D33*
%TO.C,J4*%
X82804000Y-69469000D03*
X80264000Y-66929000D03*
X85344000Y-66929000D03*
X80264000Y-72009000D03*
X85344000Y-72009000D03*
%TD*%
D30*
%TO.C,GND2*%
X84328000Y-76708000D03*
%TD*%
D27*
%TO.C,R4*%
X96774000Y-59900000D03*
X96774000Y-60870000D03*
%TD*%
D28*
%TO.C,C10*%
X94996000Y-60870000D03*
X94996000Y-59900000D03*
%TD*%
D26*
%TO.C,C_1.8_OUT1*%
X81996000Y-61976000D03*
X81026000Y-61976000D03*
%TD*%
D34*
%TO.C,L1*%
X79248000Y-62558000D03*
X79248000Y-64008000D03*
%TD*%
D27*
%TO.C,C_1.8_IN1*%
X83820000Y-63292000D03*
X83820000Y-64262000D03*
%TD*%
D35*
%TO.C,U3*%
X86106000Y-60960000D03*
X86106000Y-60460000D03*
X86106000Y-59960000D03*
X84306000Y-59960000D03*
X84306000Y-60460000D03*
X84306000Y-60960000D03*
%TD*%
D28*
%TO.C,C_1.1_IN1*%
X83312000Y-60706000D03*
X83312000Y-59736000D03*
%TD*%
D34*
%TO.C,L2*%
X87884000Y-61468000D03*
X87884000Y-60018000D03*
%TD*%
D29*
%TO.C,C_1.1_OUT1*%
X85136000Y-61976000D03*
X86106000Y-61976000D03*
%TD*%
D35*
%TO.C,U2*%
X81004000Y-63008000D03*
X81004000Y-63508000D03*
X81004000Y-64008000D03*
X82804000Y-64008000D03*
X82804000Y-63508000D03*
X82804000Y-63008000D03*
%TD*%
D30*
%TO.C,J8*%
X85090000Y-63754000D03*
%TD*%
D24*
%TO.C,J3*%
X114300000Y-57404000D03*
D25*
X114300000Y-59944000D03*
X114300000Y-62484000D03*
X114300000Y-65024000D03*
X114300000Y-67564000D03*
X114300000Y-70104000D03*
X114300000Y-72644000D03*
X114300000Y-75184000D03*
X114300000Y-77724000D03*
X114300000Y-80264000D03*
%TD*%
D36*
%TO.C,B1*%
X88392000Y-67310000D03*
X108889800Y-67310000D03*
%TD*%
%LPD*%
M02*
