%TF.GenerationSoftware,KiCad,Pcbnew,8.0.4*%
%TF.CreationDate,2024-08-07T14:38:44-07:00*%
%TF.ProjectId,scum3c-devboard,7363756d-3363-42d6-9465-76626f617264,rev?*%
%TF.SameCoordinates,Original*%
%TF.FileFunction,Copper,L2,Bot*%
%TF.FilePolarity,Positive*%
%FSLAX46Y46*%
G04 Gerber Fmt 4.6, Leading zero omitted, Abs format (unit mm)*
G04 Created by KiCad (PCBNEW 8.0.4) date 2024-08-07 14:38:44*
%MOMM*%
%LPD*%
G01*
G04 APERTURE LIST*
%TA.AperFunction,ComponentPad*%
%ADD10C,0.568750*%
%TD*%
%TA.AperFunction,ComponentPad*%
%ADD11R,1.700000X1.700000*%
%TD*%
%TA.AperFunction,ComponentPad*%
%ADD12O,1.700000X1.700000*%
%TD*%
%TA.AperFunction,ComponentPad*%
%ADD13C,0.762000*%
%TD*%
%TA.AperFunction,ComponentPad*%
%ADD14C,2.400000*%
%TD*%
%TA.AperFunction,ComponentPad*%
%ADD15C,1.574800*%
%TD*%
%TA.AperFunction,ViaPad*%
%ADD16C,0.406400*%
%TD*%
%TA.AperFunction,ViaPad*%
%ADD17C,0.812800*%
%TD*%
%TA.AperFunction,ViaPad*%
%ADD18C,0.609600*%
%TD*%
%TA.AperFunction,Conductor*%
%ADD19C,0.406400*%
%TD*%
%TA.AperFunction,Conductor*%
%ADD20C,0.203200*%
%TD*%
G04 APERTURE END LIST*
D10*
%TO.P,U1,101,GND*%
%TO.N,GND*%
X92538750Y-64656750D03*
X92538750Y-65794250D03*
X92538750Y-66931750D03*
X92538750Y-68069250D03*
X92538750Y-69206750D03*
X92538750Y-70344250D03*
X92538750Y-71481750D03*
X92538750Y-72619250D03*
X93676250Y-64656750D03*
X93676250Y-65794250D03*
X93676250Y-66931750D03*
X93676250Y-68069250D03*
X93676250Y-69206750D03*
X93676250Y-70344250D03*
X93676250Y-71481750D03*
X93676250Y-72619250D03*
X94813750Y-64656750D03*
X94813750Y-65794250D03*
X94813750Y-66931750D03*
X94813750Y-68069250D03*
X94813750Y-69206750D03*
X94813750Y-70344250D03*
X94813750Y-71481750D03*
X94813750Y-72619250D03*
X95951250Y-64656750D03*
X95951250Y-65794250D03*
X95951250Y-66931750D03*
X95951250Y-68069250D03*
X95951250Y-69206750D03*
X95951250Y-70344250D03*
X95951250Y-71481750D03*
X95951250Y-72619250D03*
X97088750Y-64656750D03*
X97088750Y-65794250D03*
X97088750Y-66931750D03*
X97088750Y-68069250D03*
X97088750Y-69206750D03*
X97088750Y-70344250D03*
X97088750Y-71481750D03*
X97088750Y-72619250D03*
X98226250Y-64656750D03*
X98226250Y-65794250D03*
X98226250Y-66931750D03*
X98226250Y-68069250D03*
X98226250Y-69206750D03*
X98226250Y-70344250D03*
X98226250Y-71481750D03*
X98226250Y-72619250D03*
X99363750Y-64656750D03*
X99363750Y-65794250D03*
X99363750Y-66931750D03*
X99363750Y-68069250D03*
X99363750Y-69206750D03*
X99363750Y-70344250D03*
X99363750Y-71481750D03*
X99363750Y-72619250D03*
X100501250Y-64656750D03*
X100501250Y-65794250D03*
X100501250Y-66931750D03*
X100501250Y-68069250D03*
X100501250Y-69206750D03*
X100501250Y-70344250D03*
X100501250Y-71481750D03*
X100501250Y-72619250D03*
%TD*%
D11*
%TO.P,J2,1,Pin_1*%
%TO.N,GND*%
X85090000Y-84328000D03*
D12*
%TO.P,J2,2,Pin_2*%
%TO.N,/GPIO1*%
X85090000Y-81788000D03*
%TO.P,J2,3,Pin_3*%
%TO.N,/GPIO0*%
X87630000Y-84328000D03*
%TO.P,J2,4,Pin_4*%
%TO.N,/GPIO8*%
X87630000Y-81788000D03*
%TO.P,J2,5,Pin_5*%
%TO.N,/GPIO1*%
X90170000Y-84328000D03*
%TO.P,J2,6,Pin_6*%
%TO.N,/GPIO9*%
X90170000Y-81788000D03*
%TO.P,J2,7,Pin_7*%
%TO.N,/GPIO2*%
X92710000Y-84328000D03*
%TO.P,J2,8,Pin_8*%
%TO.N,/GPIO10*%
X92710000Y-81788000D03*
%TO.P,J2,9,Pin_9*%
%TO.N,/GPIO3*%
X95250000Y-84328000D03*
%TO.P,J2,10,Pin_10*%
%TO.N,/GPIO11*%
X95250000Y-81788000D03*
%TO.P,J2,11,Pin_11*%
%TO.N,/GPIO4*%
X97790000Y-84328000D03*
%TO.P,J2,12,Pin_12*%
%TO.N,/GPIO12*%
X97790000Y-81788000D03*
%TO.P,J2,13,Pin_13*%
%TO.N,/GPIO5*%
X100330000Y-84328000D03*
%TO.P,J2,14,Pin_14*%
%TO.N,/GPIO13*%
X100330000Y-81788000D03*
%TO.P,J2,15,Pin_15*%
%TO.N,/GPIO6*%
X102870000Y-84328000D03*
%TO.P,J2,16,Pin_16*%
%TO.N,/GPIO14*%
X102870000Y-81788000D03*
%TO.P,J2,17,Pin_17*%
%TO.N,/GPIO7*%
X105410000Y-84328000D03*
%TO.P,J2,18,Pin_18*%
%TO.N,/GPIO15*%
X105410000Y-81788000D03*
%TO.P,J2,19,Pin_19*%
%TO.N,GND*%
X107950000Y-84328000D03*
%TO.P,J2,20,Pin_20*%
X107950000Y-81788000D03*
%TD*%
D13*
%TO.P,GND1,1,pin*%
%TO.N,GND*%
X98552000Y-77724000D03*
%TD*%
%TO.P,GND6,1,pin*%
%TO.N,GND*%
X106680000Y-59944000D03*
%TD*%
%TO.P,J5,1,pin*%
%TO.N,Net-(J5-pin)*%
X104267000Y-64135000D03*
%TD*%
%TO.P,J6,1,pin*%
%TO.N,Net-(J6-pin)*%
X88646000Y-63500000D03*
%TD*%
%TO.P,J7,1,pin*%
%TO.N,Net-(J7-pin)*%
X86614000Y-63754000D03*
%TD*%
%TO.P,J9,1,pin*%
%TO.N,Net-(J9-pin)*%
X104902000Y-68580000D03*
%TD*%
%TO.P,J10,1,pin*%
%TO.N,Net-(J10-pin)*%
X104648000Y-67564000D03*
%TD*%
%TO.P,J11,1,pin*%
%TO.N,Net-(J11-pin)*%
X86106000Y-75946000D03*
%TD*%
%TO.P,J12,1,pin*%
%TO.N,Net-(J12-pin)*%
X86106000Y-77216000D03*
%TD*%
%TO.P,J15,1,pin*%
%TO.N,Net-(J15-pin)*%
X103759000Y-66675000D03*
%TD*%
%TO.P,J16,1,pin*%
%TO.N,Net-(J16-pin)*%
X105156000Y-66548000D03*
%TD*%
%TO.P,J17,1,pin*%
%TO.N,Net-(J17-pin)*%
X108585000Y-73533000D03*
%TD*%
%TO.P,J13,1,pin*%
%TO.N,Net-(J13-pin)*%
X88646000Y-78232000D03*
%TD*%
%TO.P,J18,1,pin*%
%TO.N,Net-(J18-pin)*%
X92456000Y-60198000D03*
%TD*%
%TO.P,J20,1,pin*%
%TO.N,Net-(J20-pin)*%
X104140000Y-62738000D03*
%TD*%
%TO.P,J21,1,pin*%
%TO.N,Net-(J21-pin)*%
X108585000Y-70993000D03*
%TD*%
%TO.P,GND5,1,pin*%
%TO.N,GND*%
X106680000Y-74422000D03*
%TD*%
%TO.P,GND4,1,pin*%
%TO.N,GND*%
X107188000Y-62992000D03*
%TD*%
%TO.P,J19,1,pin*%
%TO.N,Net-(J19-pin)*%
X93726000Y-60198000D03*
%TD*%
%TO.P,J14,1,pin*%
%TO.N,Net-(J14-pin)*%
X91186000Y-60198000D03*
%TD*%
%TO.P,GND3,1,pin*%
%TO.N,GND*%
X90678000Y-76962000D03*
%TD*%
D11*
%TO.P,J1,1,Pin_1*%
%TO.N,GND*%
X84455000Y-57023000D03*
D12*
%TO.P,J1,2,Pin_2*%
X84455000Y-54483000D03*
%TO.P,J1,3,Pin_3*%
X86995000Y-57023000D03*
%TO.P,J1,4,Pin_4*%
%TO.N,+1.8V_REG*%
X86995000Y-54483000D03*
%TO.P,J1,5,Pin_5*%
%TO.N,+VBAT*%
X89535000Y-57023000D03*
%TO.P,J1,6,Pin_6*%
%TO.N,+1.8V_REG*%
X89535000Y-54483000D03*
%TO.P,J1,7,Pin_7*%
%TO.N,+VDDD*%
X92075000Y-57023000D03*
%TO.P,J1,8,Pin_8*%
%TO.N,+1.1V_REG*%
X92075000Y-54483000D03*
%TO.P,J1,9,Pin_9*%
%TO.N,+EXT_BAT*%
X94615000Y-57023000D03*
%TO.P,J1,10,Pin_10*%
%TO.N,/1.1V_IN*%
X94615000Y-54483000D03*
%TO.P,J1,11,Pin_11*%
%TO.N,GND*%
X97155000Y-57023000D03*
%TO.P,J1,12,Pin_12*%
%TO.N,+EXT_BAT*%
X97155000Y-54483000D03*
%TO.P,J1,13,Pin_13*%
%TO.N,+VDDIO*%
X99695000Y-57023000D03*
%TO.P,J1,14,Pin_14*%
%TO.N,/IMU_VDDIO*%
X99695000Y-54483000D03*
%TO.P,J1,15,Pin_15*%
%TO.N,+VDDIO*%
X102235000Y-57023000D03*
%TO.P,J1,16,Pin_16*%
%TO.N,/IMU_VDD*%
X102235000Y-54483000D03*
%TO.P,J1,17,Pin_17*%
%TO.N,+VBAT*%
X104775000Y-57023000D03*
%TO.P,J1,18,Pin_18*%
%TO.N,+VDDIO*%
X104775000Y-54483000D03*
%TO.P,J1,19,Pin_19*%
%TO.N,+VDDD*%
X107315000Y-57023000D03*
%TO.P,J1,20,Pin_20*%
%TO.N,/BOOT_SOURCE_SEL*%
X107315000Y-54483000D03*
%TO.P,J1,21,Pin_21*%
%TO.N,/SENSOR_EXT_IN*%
X109855000Y-57023000D03*
%TO.P,J1,22,Pin_22*%
%TO.N,/SENSOR_LDO_OUTPUT*%
X109855000Y-54483000D03*
%TD*%
D14*
%TO.P,J4,1,1*%
%TO.N,/scumsheet/ANTENNA*%
X82804000Y-69469000D03*
%TO.P,J4,2,2*%
%TO.N,GND*%
X80264000Y-66929000D03*
%TO.P,J4,3,2*%
X85344000Y-66929000D03*
%TO.P,J4,4,2*%
X80264000Y-72009000D03*
%TO.P,J4,5,2*%
X85344000Y-72009000D03*
%TD*%
D13*
%TO.P,GND2,1,pin*%
%TO.N,GND*%
X84328000Y-76708000D03*
%TD*%
%TO.P,J8,1,pin*%
%TO.N,Net-(J8-pin)*%
X85090000Y-63754000D03*
%TD*%
D11*
%TO.P,J3,1,Pin_1*%
%TO.N,+VBAT*%
X114300000Y-57404000D03*
D12*
%TO.P,J3,2,Pin_2*%
%TO.N,+NRF_VDDD*%
X114300000Y-59944000D03*
%TO.P,J3,3,Pin_3*%
%TO.N,+NRF_GND*%
X114300000Y-62484000D03*
%TO.P,J3,4,Pin_4*%
%TO.N,/3WB_CLK*%
X114300000Y-65024000D03*
%TO.P,J3,5,Pin_5*%
%TO.N,/3WB_DATA*%
X114300000Y-67564000D03*
%TO.P,J3,6,Pin_6*%
%TO.N,/3WB_ENB*%
X114300000Y-70104000D03*
%TO.P,J3,7,Pin_7*%
%TO.N,/HARD_RESET*%
X114300000Y-72644000D03*
%TO.P,J3,8,Pin_8*%
%TO.N,/RsRx*%
X114300000Y-75184000D03*
%TO.P,J3,9,Pin_9*%
%TO.N,/RsTx*%
X114300000Y-77724000D03*
%TO.P,J3,10,Pin_10*%
%TO.N,GND*%
X114300000Y-80264000D03*
%TD*%
D15*
%TO.P,B1,1,1*%
%TO.N,GND*%
X88392000Y-67310000D03*
%TO.P,B1,2,2*%
%TO.N,+EXT_BAT*%
X108889800Y-67310000D03*
%TD*%
D16*
%TO.N,GND*%
X101000000Y-59100000D03*
X79000000Y-57400000D03*
X95900000Y-59400000D03*
X88000000Y-75300000D03*
X83900000Y-74600000D03*
X111900000Y-60900000D03*
X80700000Y-58900000D03*
X94100000Y-61600000D03*
X92000000Y-76300000D03*
X101000000Y-57900000D03*
X84800000Y-64800000D03*
X111900000Y-63500000D03*
X80700000Y-56000000D03*
X78400000Y-64800000D03*
X81700000Y-53200000D03*
X88400000Y-76500000D03*
X94000000Y-86300000D03*
X116900000Y-56100000D03*
X101700000Y-86200000D03*
X96800000Y-61600000D03*
X112500000Y-51900000D03*
X91200000Y-61600000D03*
X86500000Y-86300000D03*
X85200000Y-61000000D03*
X78300000Y-74100000D03*
X99500000Y-61600000D03*
X111700000Y-68400000D03*
X101200000Y-78600000D03*
X116900000Y-76600000D03*
X83200000Y-51900000D03*
X82700000Y-62200000D03*
X77400000Y-81700000D03*
X85700000Y-58800000D03*
X112300000Y-77300000D03*
X104700000Y-78100000D03*
X116900000Y-81600000D03*
X108000000Y-78800000D03*
X104800000Y-55700000D03*
X90900000Y-51900000D03*
X116900000Y-71500000D03*
X99800000Y-76400000D03*
X110100000Y-81300000D03*
X88700000Y-79600000D03*
X90300000Y-75600000D03*
X112300000Y-86200000D03*
X102400000Y-61600000D03*
X108900000Y-51900000D03*
X81400000Y-82900000D03*
X116900000Y-68700000D03*
X112300000Y-81300000D03*
X116900000Y-74200000D03*
X81900000Y-62800000D03*
X83300000Y-58800000D03*
X77200000Y-59000000D03*
X110000000Y-86200000D03*
X91800000Y-59400000D03*
X116900000Y-63800000D03*
X116900000Y-79200000D03*
X77400000Y-79800000D03*
X80100000Y-81700000D03*
X85200000Y-60000000D03*
X110100000Y-77300000D03*
X111500000Y-74400000D03*
X112500000Y-57300000D03*
X103300000Y-51900000D03*
X81900000Y-64100000D03*
X80800000Y-64800000D03*
X110100000Y-70800000D03*
X77200000Y-56000000D03*
X83900000Y-79600000D03*
X108600000Y-69200000D03*
X112500000Y-65800000D03*
X83700000Y-61500000D03*
X81400000Y-86000000D03*
%TO.N,+VBAT*%
X89408000Y-65024000D03*
X89408000Y-70612000D03*
X91440000Y-75692000D03*
X103505000Y-70358000D03*
X103505000Y-69006200D03*
D17*
%TO.N,+VDDIO*%
X100838000Y-77724000D03*
D16*
X95688200Y-78613000D03*
%TO.N,/GPIO7*%
X95250000Y-79120990D03*
%TO.N,/GPIO5*%
X93980000Y-79120990D03*
%TO.N,/GPIO3*%
X92669778Y-79176680D03*
%TO.N,/GPIO1*%
X90805000Y-79248000D03*
%TO.N,/GPIO6*%
X94615000Y-79120990D03*
%TO.N,/GPIO4*%
X93345000Y-79120990D03*
%TO.N,/GPIO2*%
X91440000Y-79248000D03*
%TO.N,/GPIO0*%
X90170000Y-79248000D03*
D17*
%TO.N,/SENSOR_LDO_OUTPUT*%
X106934000Y-73152000D03*
%TO.N,/SENSOR_EXT_IN*%
X106357987Y-72204013D03*
%TO.N,/BOOT_SOURCE_SEL*%
X106425990Y-69203000D03*
D16*
%TO.N,/GPIO13*%
X80569329Y-75386671D03*
X82804000Y-81788000D03*
%TO.N,/HARD_RESET*%
X111500000Y-69838000D03*
D17*
%TO.N,+EXT_BAT*%
X90424000Y-61214000D03*
D18*
%TO.N,/1.1V_IN*%
X84074000Y-62230000D03*
%TD*%
D19*
%TO.N,+VBAT*%
X102616000Y-75692000D02*
X103505000Y-74803000D01*
X89535000Y-64897000D02*
X89408000Y-65024000D01*
X103047799Y-68548999D02*
X103047799Y-58750201D01*
X89535000Y-57023000D02*
X89535000Y-64897000D01*
X103505000Y-74803000D02*
X103505000Y-70358000D01*
X91440000Y-75692000D02*
X89408000Y-73660000D01*
X89408000Y-73660000D02*
X89408000Y-70612000D01*
X103505000Y-69006200D02*
X103505000Y-70358000D01*
X103047799Y-58750201D02*
X104775000Y-57023000D01*
X91440000Y-75692000D02*
X102616000Y-75692000D01*
X103505000Y-69006200D02*
X103047799Y-68548999D01*
%TO.N,+VDDIO*%
X105689389Y-68808611D02*
X105892580Y-68605420D01*
X105955201Y-55663201D02*
X105955201Y-61258846D01*
X104775000Y-54483000D02*
X105955201Y-55663201D01*
X101412736Y-77724000D02*
X105621386Y-73515350D01*
X99949000Y-78613000D02*
X100838000Y-77724000D01*
X105621386Y-73515350D02*
X105621386Y-71850444D01*
X105689389Y-71782441D02*
X105689389Y-68808611D01*
X105621386Y-71850444D02*
X105689389Y-71782441D01*
X95688200Y-78613000D02*
X99949000Y-78613000D01*
X104775000Y-54483000D02*
X102235000Y-57023000D01*
X100838000Y-77724000D02*
X101412736Y-77724000D01*
X105955201Y-61258846D02*
X105892580Y-61321467D01*
X105892580Y-61321467D02*
X105892580Y-68605420D01*
D20*
%TO.N,/GPIO7*%
X95250000Y-79120990D02*
X105917990Y-79120990D01*
X106680000Y-83693000D02*
X106680000Y-79883000D01*
X105410000Y-84328000D02*
X106045000Y-84328000D01*
X106045000Y-84328000D02*
X106680000Y-83693000D01*
X106680000Y-79883000D02*
X105917990Y-79120990D01*
%TO.N,/GPIO5*%
X100965000Y-79883000D02*
X101600000Y-80518000D01*
X101600000Y-80518000D02*
X101600000Y-83693000D01*
X100965000Y-84328000D02*
X100330000Y-84328000D01*
X101600000Y-83693000D02*
X100965000Y-84328000D01*
X93980000Y-79120990D02*
X94742010Y-79883000D01*
X94742010Y-79883000D02*
X100965000Y-79883000D01*
%TO.N,/GPIO3*%
X96520000Y-81153000D02*
X96520000Y-83693000D01*
X94036518Y-80543420D02*
X95910420Y-80543420D01*
X95885000Y-84328000D02*
X95250000Y-84328000D01*
X96520000Y-83693000D02*
X95885000Y-84328000D01*
X95910420Y-80543420D02*
X96520000Y-81153000D01*
X92669778Y-79176680D02*
X94036518Y-80543420D01*
%TO.N,/GPIO1*%
X90805000Y-79248000D02*
X91440000Y-79883000D01*
X91440000Y-83693000D02*
X90805000Y-84328000D01*
X91440000Y-79883000D02*
X91440000Y-83693000D01*
X90805000Y-84328000D02*
X90170000Y-84328000D01*
%TO.N,/GPIO6*%
X95046801Y-79552791D02*
X98755209Y-79552791D01*
X94615000Y-79120990D02*
X95046801Y-79552791D01*
X98755209Y-79552791D02*
X98856800Y-79451200D01*
X103505000Y-84328000D02*
X104140000Y-83693000D01*
X102870000Y-84328000D02*
X103505000Y-84328000D01*
X98856800Y-79451200D02*
X103708200Y-79451200D01*
X103708200Y-79451200D02*
X104140000Y-79883000D01*
X104140000Y-79883000D02*
X104140000Y-83693000D01*
%TO.N,/GPIO4*%
X98755210Y-80213210D02*
X94605233Y-80213210D01*
X94445011Y-80052988D02*
X94276998Y-80052988D01*
X94605233Y-80213210D02*
X94445011Y-80052988D01*
X97790000Y-84328000D02*
X99060000Y-83058000D01*
X93345000Y-79120990D02*
X94276998Y-80052988D01*
X99060000Y-83058000D02*
X99060000Y-80518000D01*
X99060000Y-80518000D02*
X98755210Y-80213210D01*
%TO.N,/GPIO2*%
X92075000Y-79248000D02*
X91440000Y-79248000D01*
X93345000Y-84328000D02*
X93980000Y-83693000D01*
X93980000Y-83693000D02*
X93980000Y-81153000D01*
X92710000Y-84328000D02*
X93345000Y-84328000D01*
X93980000Y-81153000D02*
X92075000Y-79248000D01*
%TO.N,/GPIO0*%
X88900000Y-80518000D02*
X88900000Y-83693000D01*
X88900000Y-83693000D02*
X88265000Y-84328000D01*
X90170000Y-79248000D02*
X88900000Y-80518000D01*
X88265000Y-84328000D02*
X87630000Y-84328000D01*
D19*
%TO.N,/SENSOR_LDO_OUTPUT*%
X110046389Y-60767894D02*
X111035201Y-59779083D01*
X107696000Y-72390000D02*
X107696000Y-64390778D01*
X110046389Y-62040389D02*
X110046389Y-60767894D01*
X111035201Y-59779083D02*
X111035201Y-55663201D01*
X106934000Y-73152000D02*
X107696000Y-72390000D01*
X111035201Y-55663201D02*
X109855000Y-54483000D01*
X107696000Y-64390778D02*
X110046389Y-62040389D01*
%TO.N,/SENSOR_EXT_IN*%
X109497312Y-57380688D02*
X109855000Y-57023000D01*
X107162590Y-64069988D02*
X109497312Y-61735266D01*
X106357987Y-72204013D02*
X107162590Y-71399410D01*
X107162590Y-71399410D02*
X107162590Y-64069988D01*
X109497312Y-61735266D02*
X109497312Y-57380688D01*
%TO.N,/BOOT_SOURCE_SEL*%
X106425990Y-69203000D02*
X106425990Y-61542412D01*
X108495201Y-55663201D02*
X107315000Y-54483000D01*
X106425990Y-61542412D02*
X108495201Y-59473201D01*
X108495201Y-59473201D02*
X108495201Y-55663201D01*
D20*
%TO.N,/GPIO13*%
X82804000Y-75946000D02*
X82244671Y-75386671D01*
X82244671Y-75386671D02*
X80569329Y-75386671D01*
X82804000Y-81788000D02*
X82804000Y-75946000D01*
%TO.N,/HARD_RESET*%
X111500000Y-69844000D02*
X111500000Y-69838000D01*
X114300000Y-72644000D02*
X111500000Y-69844000D01*
D19*
%TO.N,+EXT_BAT*%
X110421497Y-53302799D02*
X111035201Y-53916503D01*
X111035201Y-54908847D02*
X111568611Y-55442256D01*
X111568611Y-55442256D02*
X111568611Y-60000029D01*
X90424000Y-61214000D02*
X90424000Y-59907422D01*
X98335201Y-53302799D02*
X110421497Y-53302799D01*
X93434799Y-58203201D02*
X94615000Y-57023000D01*
X90424000Y-59907422D02*
X92128221Y-58203201D01*
X97155000Y-54483000D02*
X98335201Y-53302799D01*
X92128221Y-58203201D02*
X93434799Y-58203201D01*
X108889800Y-67310000D02*
X110579799Y-65620001D01*
X97155000Y-54483000D02*
X94615000Y-57023000D01*
X111035201Y-53916503D02*
X111035201Y-54908847D01*
X110579799Y-65620001D02*
X110579799Y-60988841D01*
X111568611Y-60000029D02*
X110579799Y-60988841D01*
%TO.N,/1.1V_IN*%
X94615000Y-54483000D02*
X93255201Y-55842799D01*
X82550000Y-61214000D02*
X83566000Y-62230000D01*
X83566000Y-62230000D02*
X84074000Y-62230000D01*
X83349201Y-55842799D02*
X82550000Y-56642000D01*
X82550000Y-56642000D02*
X82550000Y-61214000D01*
X93255201Y-55842799D02*
X83349201Y-55842799D01*
%TD*%
%TA.AperFunction,Conductor*%
%TO.N,GND*%
G36*
X108204000Y-83897297D02*
G01*
X108142993Y-83862075D01*
X108015826Y-83828000D01*
X107884174Y-83828000D01*
X107757007Y-83862075D01*
X107696000Y-83897297D01*
X107696000Y-82218702D01*
X107757007Y-82253925D01*
X107884174Y-82288000D01*
X108015826Y-82288000D01*
X108142993Y-82253925D01*
X108204000Y-82218702D01*
X108204000Y-83897297D01*
G37*
%TD.AperFunction*%
%TA.AperFunction,Conductor*%
G36*
X108932595Y-57375044D02*
G01*
X108945413Y-57396438D01*
X108946363Y-57396045D01*
X108947536Y-57398877D01*
X108947538Y-57398883D01*
X108949178Y-57401951D01*
X109038302Y-57568692D01*
X109038306Y-57568698D01*
X109148851Y-57703397D01*
X109152425Y-57707751D01*
X109166612Y-57747401D01*
X109166612Y-61572397D01*
X109148306Y-61616591D01*
X106959537Y-63805360D01*
X106959535Y-63805362D01*
X106928749Y-63836147D01*
X106897964Y-63866932D01*
X106897963Y-63866933D01*
X106873316Y-63909623D01*
X106835365Y-63938743D01*
X106787939Y-63932498D01*
X106758819Y-63894547D01*
X106756690Y-63878372D01*
X106756690Y-61705279D01*
X106774995Y-61661086D01*
X108693109Y-59742971D01*
X108693114Y-59742968D01*
X108698254Y-59737827D01*
X108698256Y-59737827D01*
X108759827Y-59676256D01*
X108803365Y-59600847D01*
X108825901Y-59516739D01*
X108825901Y-57419238D01*
X108844207Y-57375044D01*
X108888401Y-57356738D01*
X108932595Y-57375044D01*
G37*
%TD.AperFunction*%
%TA.AperFunction,Conductor*%
G36*
X106392595Y-57375044D02*
G01*
X106405413Y-57396438D01*
X106406363Y-57396045D01*
X106407536Y-57398877D01*
X106407538Y-57398883D01*
X106409178Y-57401951D01*
X106498302Y-57568692D01*
X106498306Y-57568698D01*
X106620459Y-57717541D01*
X106769302Y-57839694D01*
X106769304Y-57839695D01*
X106769307Y-57839697D01*
X106773154Y-57841753D01*
X106939117Y-57930462D01*
X107123376Y-57986357D01*
X107315000Y-58005230D01*
X107506624Y-57986357D01*
X107690883Y-57930462D01*
X107860698Y-57839694D01*
X108009541Y-57717541D01*
X108053689Y-57663746D01*
X108095875Y-57641198D01*
X108141651Y-57655084D01*
X108164200Y-57697271D01*
X108164501Y-57703397D01*
X108164501Y-59310333D01*
X108146195Y-59354527D01*
X106392595Y-61108127D01*
X106348401Y-61126433D01*
X106304207Y-61108127D01*
X106285901Y-61063933D01*
X106285901Y-57419238D01*
X106304207Y-57375044D01*
X106348401Y-57356738D01*
X106392595Y-57375044D01*
G37*
%TD.AperFunction*%
%TA.AperFunction,Conductor*%
G36*
X86529075Y-56830007D02*
G01*
X86495000Y-56957174D01*
X86495000Y-57088826D01*
X86529075Y-57215993D01*
X86564297Y-57277000D01*
X84885703Y-57277000D01*
X84920925Y-57215993D01*
X84955000Y-57088826D01*
X84955000Y-56957174D01*
X84920925Y-56830007D01*
X84885703Y-56769000D01*
X86564297Y-56769000D01*
X86529075Y-56830007D01*
G37*
%TD.AperFunction*%
%TA.AperFunction,Conductor*%
G36*
X84690694Y-56191805D02*
G01*
X84709000Y-56235999D01*
X84709000Y-56592297D01*
X84647993Y-56557075D01*
X84520826Y-56523000D01*
X84389174Y-56523000D01*
X84262007Y-56557075D01*
X84201000Y-56592297D01*
X84201000Y-56235999D01*
X84219306Y-56191805D01*
X84263500Y-56173499D01*
X84646500Y-56173499D01*
X84690694Y-56191805D01*
G37*
%TD.AperFunction*%
%TA.AperFunction,Conductor*%
G36*
X84709000Y-55449599D02*
G01*
X84690694Y-55493793D01*
X84646500Y-55512099D01*
X84263500Y-55512099D01*
X84219306Y-55493793D01*
X84201000Y-55449599D01*
X84201000Y-54913702D01*
X84262007Y-54948925D01*
X84389174Y-54983000D01*
X84520826Y-54983000D01*
X84647993Y-54948925D01*
X84709000Y-54913702D01*
X84709000Y-55449599D01*
G37*
%TD.AperFunction*%
%TA.AperFunction,Conductor*%
G36*
X114301526Y-50851374D02*
G01*
X114640456Y-50868025D01*
X114646551Y-50868625D01*
X114980705Y-50918192D01*
X114986712Y-50919388D01*
X115314381Y-51001464D01*
X115320246Y-51003243D01*
X115638315Y-51117050D01*
X115643962Y-51119389D01*
X115949336Y-51263821D01*
X115954727Y-51266703D01*
X116244481Y-51440374D01*
X116249569Y-51443774D01*
X116520892Y-51645001D01*
X116525633Y-51648892D01*
X116589956Y-51707191D01*
X116610409Y-51750433D01*
X116594293Y-51795472D01*
X116551051Y-51815925D01*
X116547984Y-51816000D01*
X113284000Y-51816000D01*
X113284000Y-55372000D01*
X116840000Y-55372000D01*
X116840000Y-52108016D01*
X116858306Y-52063822D01*
X116902500Y-52045516D01*
X116946694Y-52063822D01*
X116948795Y-52066028D01*
X116980069Y-52100534D01*
X117007112Y-52130372D01*
X117011002Y-52135113D01*
X117212221Y-52406424D01*
X117215629Y-52411524D01*
X117389291Y-52701263D01*
X117392181Y-52706671D01*
X117528379Y-52994635D01*
X117536604Y-53012024D01*
X117538952Y-53017691D01*
X117652756Y-53335754D01*
X117654536Y-53341623D01*
X117736610Y-53669283D01*
X117737807Y-53675298D01*
X117787373Y-54009443D01*
X117787974Y-54015547D01*
X117804625Y-54354473D01*
X117804700Y-54357540D01*
X117804700Y-83310459D01*
X117804625Y-83313526D01*
X117787974Y-83652452D01*
X117787373Y-83658556D01*
X117737807Y-83992701D01*
X117736610Y-83998716D01*
X117654536Y-84326376D01*
X117652756Y-84332245D01*
X117538952Y-84650308D01*
X117536604Y-84655975D01*
X117392182Y-84961327D01*
X117389291Y-84966736D01*
X117215629Y-85256475D01*
X117212221Y-85261575D01*
X117010998Y-85532892D01*
X117007107Y-85537633D01*
X116948809Y-85601955D01*
X116905567Y-85622408D01*
X116860528Y-85606292D01*
X116840075Y-85563050D01*
X116840000Y-85559983D01*
X116840000Y-82296000D01*
X113284000Y-82296000D01*
X113284000Y-85852000D01*
X116547984Y-85852000D01*
X116592178Y-85870306D01*
X116610484Y-85914500D01*
X116592178Y-85958694D01*
X116589978Y-85960788D01*
X116559894Y-85988056D01*
X116525633Y-86019108D01*
X116520892Y-86022998D01*
X116249575Y-86224221D01*
X116244475Y-86227629D01*
X115954736Y-86401291D01*
X115949327Y-86404182D01*
X115643975Y-86548604D01*
X115638308Y-86550952D01*
X115320245Y-86664756D01*
X115314376Y-86666536D01*
X114986716Y-86748610D01*
X114980701Y-86749807D01*
X114646556Y-86799373D01*
X114640452Y-86799974D01*
X114301527Y-86816625D01*
X114298460Y-86816700D01*
X79757540Y-86816700D01*
X79754473Y-86816625D01*
X79415547Y-86799974D01*
X79409443Y-86799373D01*
X79075298Y-86749807D01*
X79069283Y-86748610D01*
X78741623Y-86666536D01*
X78735754Y-86664756D01*
X78417691Y-86550952D01*
X78412024Y-86548604D01*
X78106672Y-86404182D01*
X78101263Y-86401291D01*
X77811524Y-86227629D01*
X77806424Y-86224221D01*
X77535107Y-86022998D01*
X77530366Y-86019107D01*
X77466044Y-85960809D01*
X77445591Y-85917567D01*
X77461707Y-85872528D01*
X77504949Y-85852075D01*
X77508016Y-85852000D01*
X80772000Y-85852000D01*
X80772000Y-83429402D01*
X83732000Y-83429402D01*
X83732000Y-84074000D01*
X84659297Y-84074000D01*
X84624075Y-84135007D01*
X84590000Y-84262174D01*
X84590000Y-84393826D01*
X84624075Y-84520993D01*
X84659297Y-84582000D01*
X83732000Y-84582000D01*
X83732000Y-85226597D01*
X83738505Y-85287095D01*
X83789552Y-85423959D01*
X83789555Y-85423963D01*
X83877096Y-85540903D01*
X83994036Y-85628444D01*
X83994040Y-85628447D01*
X84130904Y-85679494D01*
X84191402Y-85685999D01*
X84191416Y-85686000D01*
X84836000Y-85686000D01*
X84836000Y-84758702D01*
X84897007Y-84793925D01*
X85024174Y-84828000D01*
X85155826Y-84828000D01*
X85282993Y-84793925D01*
X85344000Y-84758702D01*
X85344000Y-85686000D01*
X85988584Y-85686000D01*
X85988597Y-85685999D01*
X86049095Y-85679494D01*
X86185959Y-85628447D01*
X86185963Y-85628444D01*
X86302903Y-85540903D01*
X86390444Y-85423963D01*
X86390447Y-85423959D01*
X86441494Y-85287095D01*
X86447999Y-85226597D01*
X86448000Y-85226584D01*
X86448000Y-84582000D01*
X85520703Y-84582000D01*
X85555925Y-84520993D01*
X85590000Y-84393826D01*
X85590000Y-84262174D01*
X85555925Y-84135007D01*
X85520703Y-84074000D01*
X86448000Y-84074000D01*
X86448000Y-83429415D01*
X86447999Y-83429402D01*
X86441494Y-83368904D01*
X86390447Y-83232040D01*
X86390444Y-83232036D01*
X86302903Y-83115096D01*
X86185963Y-83027555D01*
X86185959Y-83027552D01*
X86049095Y-82976505D01*
X85988597Y-82970000D01*
X85344000Y-82970000D01*
X85344000Y-83897297D01*
X85282993Y-83862075D01*
X85155826Y-83828000D01*
X85024174Y-83828000D01*
X84897007Y-83862075D01*
X84836000Y-83897297D01*
X84836000Y-82970000D01*
X84191402Y-82970000D01*
X84130904Y-82976505D01*
X83994040Y-83027552D01*
X83994036Y-83027555D01*
X83877096Y-83115096D01*
X83789555Y-83232036D01*
X83789552Y-83232040D01*
X83738505Y-83368904D01*
X83732000Y-83429402D01*
X80772000Y-83429402D01*
X80772000Y-82296000D01*
X77216000Y-82296000D01*
X77216000Y-85559983D01*
X77197694Y-85604177D01*
X77153500Y-85622483D01*
X77109306Y-85604177D01*
X77107191Y-85601956D01*
X77083557Y-85575880D01*
X77048883Y-85537624D01*
X77045001Y-85532892D01*
X76997443Y-85468767D01*
X76843774Y-85261569D01*
X76840370Y-85256475D01*
X76666703Y-84966727D01*
X76663821Y-84961336D01*
X76519389Y-84655962D01*
X76517047Y-84650308D01*
X76511572Y-84635007D01*
X76403243Y-84332245D01*
X76401463Y-84326376D01*
X76401104Y-84324944D01*
X76319388Y-83998712D01*
X76318192Y-83992701D01*
X76298815Y-83862075D01*
X76268625Y-83658551D01*
X76268025Y-83652452D01*
X76266254Y-83616408D01*
X76251375Y-83313526D01*
X76251300Y-83310459D01*
X76251300Y-75386667D01*
X80212840Y-75386667D01*
X80212840Y-75386674D01*
X80230286Y-75496827D01*
X80230288Y-75496832D01*
X80262413Y-75559883D01*
X80280923Y-75596210D01*
X80359790Y-75675077D01*
X80459168Y-75725712D01*
X80459170Y-75725712D01*
X80459172Y-75725713D01*
X80569326Y-75743160D01*
X80569329Y-75743160D01*
X80569332Y-75743160D01*
X80679485Y-75725713D01*
X80679485Y-75725712D01*
X80679490Y-75725712D01*
X80778868Y-75675077D01*
X80819868Y-75634077D01*
X80864062Y-75615771D01*
X82123886Y-75615771D01*
X82168080Y-75634077D01*
X82556594Y-76022590D01*
X82574900Y-76066784D01*
X82574900Y-81493267D01*
X82556594Y-81537461D01*
X82515593Y-81578461D01*
X82464959Y-81677838D01*
X82464957Y-81677843D01*
X82447511Y-81787996D01*
X82447511Y-81788003D01*
X82464957Y-81898156D01*
X82464959Y-81898161D01*
X82515594Y-81997539D01*
X82594461Y-82076406D01*
X82693839Y-82127041D01*
X82693841Y-82127041D01*
X82693843Y-82127042D01*
X82803997Y-82144489D01*
X82804000Y-82144489D01*
X82804003Y-82144489D01*
X82914156Y-82127042D01*
X82914156Y-82127041D01*
X82914161Y-82127041D01*
X83013539Y-82076406D01*
X83092406Y-81997539D01*
X83143041Y-81898161D01*
X83160489Y-81788000D01*
X83160489Y-81787999D01*
X84107770Y-81787999D01*
X84107770Y-81788000D01*
X84126642Y-81979622D01*
X84145565Y-82042000D01*
X84182538Y-82163883D01*
X84182539Y-82163884D01*
X84273302Y-82333692D01*
X84273306Y-82333698D01*
X84395459Y-82482541D01*
X84544302Y-82604694D01*
X84544304Y-82604695D01*
X84544307Y-82604697D01*
X84582211Y-82624957D01*
X84714117Y-82695462D01*
X84898376Y-82751357D01*
X85090000Y-82770230D01*
X85281624Y-82751357D01*
X85465883Y-82695462D01*
X85635698Y-82604694D01*
X85784541Y-82482541D01*
X85906694Y-82333698D01*
X85997462Y-82163883D01*
X86053357Y-81979624D01*
X86072230Y-81788000D01*
X86053357Y-81596376D01*
X85997462Y-81412117D01*
X85923522Y-81273785D01*
X85906697Y-81242307D01*
X85906693Y-81242301D01*
X85896261Y-81229590D01*
X85784541Y-81093459D01*
X85635698Y-80971306D01*
X85635692Y-80971302D01*
X85528695Y-80914112D01*
X85465883Y-80880538D01*
X85348111Y-80844811D01*
X85281622Y-80824642D01*
X85090000Y-80805770D01*
X84898377Y-80824642D01*
X84804359Y-80853163D01*
X84714117Y-80880538D01*
X84714115Y-80880538D01*
X84714115Y-80880539D01*
X84544307Y-80971302D01*
X84544301Y-80971306D01*
X84395459Y-81093459D01*
X84273306Y-81242301D01*
X84273302Y-81242307D01*
X84182539Y-81412115D01*
X84182538Y-81412117D01*
X84167975Y-81460125D01*
X84126642Y-81596377D01*
X84107770Y-81787999D01*
X83160489Y-81787999D01*
X83160489Y-81787996D01*
X83143042Y-81677843D01*
X83143041Y-81677841D01*
X83143041Y-81677839D01*
X83092406Y-81578461D01*
X83051406Y-81537461D01*
X83033100Y-81493267D01*
X83033100Y-78232000D01*
X88132271Y-78232000D01*
X88153080Y-78376732D01*
X88153081Y-78376735D01*
X88213823Y-78509741D01*
X88213826Y-78509746D01*
X88309580Y-78620252D01*
X88413999Y-78687357D01*
X88432589Y-78699304D01*
X88572886Y-78740499D01*
X88572888Y-78740500D01*
X88572889Y-78740500D01*
X88719112Y-78740500D01*
X88719112Y-78740499D01*
X88859411Y-78699304D01*
X88905577Y-78669634D01*
X88982419Y-78620252D01*
X88988703Y-78613000D01*
X89078176Y-78509743D01*
X89138919Y-78376734D01*
X89159729Y-78232000D01*
X89138919Y-78087266D01*
X89078176Y-77954257D01*
X89078173Y-77954253D01*
X88982419Y-77843747D01*
X88859415Y-77764698D01*
X88859406Y-77764694D01*
X88719113Y-77723500D01*
X88719111Y-77723500D01*
X88572889Y-77723500D01*
X88572887Y-77723500D01*
X88432593Y-77764694D01*
X88432584Y-77764698D01*
X88309580Y-77843747D01*
X88213826Y-77954253D01*
X88213823Y-77954258D01*
X88153081Y-78087264D01*
X88153080Y-78087267D01*
X88132271Y-78232000D01*
X83033100Y-78232000D01*
X83033100Y-77216000D01*
X85592271Y-77216000D01*
X85613080Y-77360732D01*
X85613081Y-77360735D01*
X85673823Y-77493741D01*
X85673826Y-77493746D01*
X85769580Y-77604252D01*
X85892584Y-77683301D01*
X85892589Y-77683304D01*
X86032886Y-77724499D01*
X86032888Y-77724500D01*
X86032889Y-77724500D01*
X86179112Y-77724500D01*
X86179112Y-77724499D01*
X86319411Y-77683304D01*
X86365577Y-77653634D01*
X86442419Y-77604252D01*
X86459427Y-77584624D01*
X86538176Y-77493743D01*
X86598919Y-77360734D01*
X86619729Y-77216000D01*
X86598919Y-77071266D01*
X86538176Y-76938257D01*
X86511357Y-76907306D01*
X86442419Y-76827747D01*
X86319415Y-76748698D01*
X86319406Y-76748694D01*
X86179113Y-76707500D01*
X86179111Y-76707500D01*
X86032889Y-76707500D01*
X86032887Y-76707500D01*
X85892593Y-76748694D01*
X85892584Y-76748698D01*
X85769580Y-76827747D01*
X85673826Y-76938253D01*
X85673823Y-76938258D01*
X85613081Y-77071264D01*
X85613080Y-77071267D01*
X85592271Y-77216000D01*
X83033100Y-77216000D01*
X83033100Y-75946000D01*
X85592271Y-75946000D01*
X85613080Y-76090732D01*
X85613081Y-76090735D01*
X85673823Y-76223741D01*
X85673826Y-76223746D01*
X85769580Y-76334252D01*
X85892584Y-76413301D01*
X85892589Y-76413304D01*
X86032886Y-76454499D01*
X86032888Y-76454500D01*
X86032889Y-76454500D01*
X86179112Y-76454500D01*
X86179112Y-76454499D01*
X86319411Y-76413304D01*
X86365577Y-76383634D01*
X86442419Y-76334252D01*
X86538173Y-76223746D01*
X86538176Y-76223743D01*
X86598919Y-76090734D01*
X86619729Y-75946000D01*
X86598919Y-75801266D01*
X86538176Y-75668257D01*
X86475747Y-75596210D01*
X86442419Y-75557747D01*
X86319415Y-75478698D01*
X86319406Y-75478694D01*
X86179113Y-75437500D01*
X86179111Y-75437500D01*
X86032889Y-75437500D01*
X86032887Y-75437500D01*
X85892593Y-75478694D01*
X85892584Y-75478698D01*
X85769580Y-75557747D01*
X85673826Y-75668253D01*
X85673823Y-75668258D01*
X85613081Y-75801264D01*
X85613080Y-75801267D01*
X85592271Y-75946000D01*
X83033100Y-75946000D01*
X83033100Y-75900429D01*
X83011832Y-75849084D01*
X82998222Y-75816226D01*
X82374446Y-75192449D01*
X82314904Y-75167786D01*
X82314903Y-75167785D01*
X82290243Y-75157571D01*
X82290242Y-75157571D01*
X80864062Y-75157571D01*
X80819868Y-75139265D01*
X80778867Y-75098264D01*
X80679490Y-75047630D01*
X80679485Y-75047628D01*
X80569332Y-75030182D01*
X80569326Y-75030182D01*
X80459172Y-75047628D01*
X80459167Y-75047630D01*
X80359790Y-75098264D01*
X80280922Y-75177132D01*
X80230288Y-75276509D01*
X80230286Y-75276514D01*
X80212840Y-75386667D01*
X76251300Y-75386667D01*
X76251300Y-72008996D01*
X78551211Y-72008996D01*
X78551211Y-72009003D01*
X78570341Y-72264277D01*
X78570341Y-72264279D01*
X78627302Y-72513846D01*
X78720833Y-72752158D01*
X78848826Y-72973848D01*
X78848832Y-72973857D01*
X78889250Y-73024537D01*
X78889251Y-73024538D01*
X79546496Y-72367293D01*
X79555049Y-72387942D01*
X79642599Y-72518970D01*
X79754030Y-72630401D01*
X79885058Y-72717951D01*
X79905705Y-72726503D01*
X79248421Y-73383787D01*
X79407608Y-73492320D01*
X79638252Y-73603391D01*
X79638256Y-73603392D01*
X79882861Y-73678844D01*
X79882860Y-73678844D01*
X80136003Y-73716999D01*
X80136009Y-73717000D01*
X80391991Y-73717000D01*
X80391996Y-73716999D01*
X80645139Y-73678844D01*
X80889743Y-73603392D01*
X80889747Y-73603391D01*
X81120394Y-73492318D01*
X81120396Y-73492317D01*
X81279577Y-73383787D01*
X80622293Y-72726503D01*
X80642942Y-72717951D01*
X80773970Y-72630401D01*
X80885401Y-72518970D01*
X80972951Y-72387942D01*
X80981503Y-72367294D01*
X81638747Y-73024538D01*
X81638748Y-73024537D01*
X81679168Y-72973853D01*
X81679176Y-72973842D01*
X81807166Y-72752158D01*
X81900697Y-72513846D01*
X81957658Y-72264279D01*
X81957658Y-72264277D01*
X81976789Y-72009003D01*
X81976789Y-72008996D01*
X83631211Y-72008996D01*
X83631211Y-72009003D01*
X83650341Y-72264277D01*
X83650341Y-72264279D01*
X83707302Y-72513846D01*
X83800833Y-72752158D01*
X83928826Y-72973848D01*
X83928832Y-72973857D01*
X83969250Y-73024537D01*
X83969251Y-73024538D01*
X84626496Y-72367293D01*
X84635049Y-72387942D01*
X84722599Y-72518970D01*
X84834030Y-72630401D01*
X84965058Y-72717951D01*
X84985705Y-72726503D01*
X84328421Y-73383787D01*
X84487608Y-73492320D01*
X84718252Y-73603391D01*
X84718256Y-73603392D01*
X84962861Y-73678844D01*
X84962860Y-73678844D01*
X85216003Y-73716999D01*
X85216009Y-73717000D01*
X85471991Y-73717000D01*
X85471996Y-73716999D01*
X85725139Y-73678844D01*
X85969743Y-73603392D01*
X85969747Y-73603391D01*
X86200394Y-73492318D01*
X86200396Y-73492317D01*
X86359577Y-73383787D01*
X85702293Y-72726503D01*
X85722942Y-72717951D01*
X85853970Y-72630401D01*
X85965401Y-72518970D01*
X86052951Y-72387942D01*
X86061503Y-72367294D01*
X86718747Y-73024538D01*
X86718748Y-73024537D01*
X86759168Y-72973853D01*
X86759176Y-72973842D01*
X86887166Y-72752158D01*
X86980697Y-72513846D01*
X87037658Y-72264279D01*
X87037658Y-72264277D01*
X87056789Y-72009003D01*
X87056789Y-72008996D01*
X87037658Y-71753722D01*
X87037658Y-71753720D01*
X86980697Y-71504153D01*
X86887166Y-71265841D01*
X86759176Y-71044157D01*
X86759168Y-71044145D01*
X86718748Y-70993461D01*
X86718747Y-70993460D01*
X86061503Y-71650704D01*
X86052951Y-71630058D01*
X85965401Y-71499030D01*
X85853970Y-71387599D01*
X85722942Y-71300049D01*
X85702292Y-71291495D01*
X86359578Y-70634211D01*
X86200392Y-70525679D01*
X85969747Y-70414608D01*
X85969743Y-70414607D01*
X85725138Y-70339155D01*
X85725139Y-70339155D01*
X85471996Y-70301000D01*
X85216003Y-70301000D01*
X84962860Y-70339155D01*
X84718256Y-70414607D01*
X84718252Y-70414608D01*
X84487605Y-70525681D01*
X84328421Y-70634210D01*
X84328420Y-70634210D01*
X84985706Y-71291496D01*
X84965058Y-71300049D01*
X84834030Y-71387599D01*
X84722599Y-71499030D01*
X84635049Y-71630058D01*
X84626496Y-71650706D01*
X83969251Y-70993461D01*
X83928830Y-71044148D01*
X83928820Y-71044162D01*
X83800833Y-71265841D01*
X83707302Y-71504153D01*
X83650341Y-71753720D01*
X83650341Y-71753722D01*
X83631211Y-72008996D01*
X81976789Y-72008996D01*
X81957658Y-71753722D01*
X81957658Y-71753720D01*
X81900697Y-71504153D01*
X81807166Y-71265841D01*
X81679176Y-71044157D01*
X81679168Y-71044145D01*
X81638748Y-70993461D01*
X81638747Y-70993460D01*
X80981503Y-71650704D01*
X80972951Y-71630058D01*
X80885401Y-71499030D01*
X80773970Y-71387599D01*
X80642942Y-71300049D01*
X80622292Y-71291495D01*
X81279578Y-70634211D01*
X81120392Y-70525679D01*
X80889747Y-70414608D01*
X80889743Y-70414607D01*
X80645138Y-70339155D01*
X80645139Y-70339155D01*
X80391996Y-70301000D01*
X80136003Y-70301000D01*
X79882860Y-70339155D01*
X79638256Y-70414607D01*
X79638252Y-70414608D01*
X79407605Y-70525681D01*
X79248421Y-70634210D01*
X79248420Y-70634210D01*
X79905706Y-71291496D01*
X79885058Y-71300049D01*
X79754030Y-71387599D01*
X79642599Y-71499030D01*
X79555049Y-71630058D01*
X79546496Y-71650706D01*
X78889251Y-70993461D01*
X78848830Y-71044148D01*
X78848820Y-71044162D01*
X78720833Y-71265841D01*
X78627302Y-71504153D01*
X78570341Y-71753720D01*
X78570341Y-71753722D01*
X78551211Y-72008996D01*
X76251300Y-72008996D01*
X76251300Y-69468997D01*
X81471429Y-69468997D01*
X81471429Y-69469002D01*
X81491673Y-69700395D01*
X81491676Y-69700411D01*
X81551789Y-69924755D01*
X81551795Y-69924771D01*
X81649957Y-70135282D01*
X81649959Y-70135284D01*
X81649960Y-70135286D01*
X81691414Y-70194489D01*
X81783191Y-70325561D01*
X81947438Y-70489808D01*
X81998689Y-70525694D01*
X82137714Y-70623040D01*
X82137715Y-70623040D01*
X82137717Y-70623042D01*
X82281778Y-70690218D01*
X82348234Y-70721207D01*
X82348241Y-70721208D01*
X82348244Y-70721210D01*
X82572588Y-70781323D01*
X82572594Y-70781324D01*
X82572601Y-70781326D01*
X82711440Y-70793473D01*
X82803998Y-70801571D01*
X82804000Y-70801571D01*
X82804002Y-70801571D01*
X82881133Y-70794822D01*
X83035399Y-70781326D01*
X83035408Y-70781323D01*
X83035411Y-70781323D01*
X83259755Y-70721210D01*
X83259755Y-70721209D01*
X83259766Y-70721207D01*
X83470286Y-70623040D01*
X83660560Y-70489809D01*
X83824809Y-70325560D01*
X83958040Y-70135286D01*
X84056207Y-69924766D01*
X84064519Y-69893747D01*
X84096203Y-69775500D01*
X92329210Y-69775500D01*
X92538750Y-69985040D01*
X92748290Y-69775500D01*
X93466710Y-69775500D01*
X93676250Y-69985040D01*
X93885790Y-69775500D01*
X94604210Y-69775500D01*
X94813750Y-69985040D01*
X95023290Y-69775500D01*
X95741710Y-69775500D01*
X95951250Y-69985040D01*
X96160790Y-69775500D01*
X96879210Y-69775500D01*
X97088750Y-69985040D01*
X97298290Y-69775500D01*
X98016710Y-69775500D01*
X98226250Y-69985040D01*
X98435790Y-69775500D01*
X99154210Y-69775500D01*
X99363750Y-69985040D01*
X99573290Y-69775500D01*
X100291710Y-69775500D01*
X100501250Y-69985040D01*
X100710790Y-69775500D01*
X100501250Y-69565960D01*
X100291710Y-69775500D01*
X99573290Y-69775500D01*
X99363750Y-69565960D01*
X99154210Y-69775500D01*
X98435790Y-69775500D01*
X98226250Y-69565960D01*
X98016710Y-69775500D01*
X97298290Y-69775500D01*
X97088750Y-69565960D01*
X96879210Y-69775500D01*
X96160790Y-69775500D01*
X95951250Y-69565960D01*
X95741710Y-69775500D01*
X95023290Y-69775500D01*
X94813750Y-69565960D01*
X94604210Y-69775500D01*
X93885790Y-69775500D01*
X93676250Y-69565960D01*
X93466710Y-69775500D01*
X92748290Y-69775500D01*
X92538750Y-69565960D01*
X92329210Y-69775500D01*
X84096203Y-69775500D01*
X84116323Y-69700411D01*
X84116323Y-69700408D01*
X84116326Y-69700399D01*
X84133950Y-69498957D01*
X84136571Y-69469002D01*
X84136571Y-69468997D01*
X84120674Y-69287302D01*
X84116326Y-69237601D01*
X84108059Y-69206750D01*
X84108059Y-69206749D01*
X91741361Y-69206749D01*
X91741361Y-69206750D01*
X91761352Y-69384183D01*
X91761353Y-69384186D01*
X91820324Y-69552718D01*
X91820326Y-69552722D01*
X91825435Y-69560853D01*
X92179539Y-69206749D01*
X92151257Y-69178467D01*
X92396562Y-69178467D01*
X92396562Y-69235033D01*
X92418209Y-69287293D01*
X92458207Y-69327291D01*
X92510467Y-69348938D01*
X92567033Y-69348938D01*
X92619293Y-69327291D01*
X92659291Y-69287293D01*
X92680938Y-69235033D01*
X92680938Y-69206750D01*
X92897960Y-69206750D01*
X93107500Y-69416290D01*
X93317040Y-69206750D01*
X93288757Y-69178467D01*
X93534062Y-69178467D01*
X93534062Y-69235033D01*
X93555709Y-69287293D01*
X93595707Y-69327291D01*
X93647967Y-69348938D01*
X93704533Y-69348938D01*
X93756793Y-69327291D01*
X93796791Y-69287293D01*
X93818438Y-69235033D01*
X93818438Y-69206750D01*
X94035460Y-69206750D01*
X94245000Y-69416290D01*
X94454540Y-69206750D01*
X94426257Y-69178467D01*
X94671562Y-69178467D01*
X94671562Y-69235033D01*
X94693209Y-69287293D01*
X94733207Y-69327291D01*
X94785467Y-69348938D01*
X94842033Y-69348938D01*
X94894293Y-69327291D01*
X94934291Y-69287293D01*
X94955938Y-69235033D01*
X94955938Y-69206750D01*
X95172960Y-69206750D01*
X95382500Y-69416290D01*
X95592040Y-69206750D01*
X95563757Y-69178467D01*
X95809062Y-69178467D01*
X95809062Y-69235033D01*
X95830709Y-69287293D01*
X95870707Y-69327291D01*
X95922967Y-69348938D01*
X95979533Y-69348938D01*
X96031793Y-69327291D01*
X96071791Y-69287293D01*
X96093438Y-69235033D01*
X96093438Y-69206750D01*
X96310460Y-69206750D01*
X96520000Y-69416290D01*
X96729540Y-69206750D01*
X96701257Y-69178467D01*
X96946562Y-69178467D01*
X96946562Y-69235033D01*
X96968209Y-69287293D01*
X97008207Y-69327291D01*
X97060467Y-69348938D01*
X97117033Y-69348938D01*
X97169293Y-69327291D01*
X97209291Y-69287293D01*
X97230938Y-69235033D01*
X97230938Y-69206750D01*
X97447960Y-69206750D01*
X97657500Y-69416290D01*
X97867040Y-69206750D01*
X97838757Y-69178467D01*
X98084062Y-69178467D01*
X98084062Y-69235033D01*
X98105709Y-69287293D01*
X98145707Y-69327291D01*
X98197967Y-69348938D01*
X98254533Y-69348938D01*
X98306793Y-69327291D01*
X98346791Y-69287293D01*
X98368438Y-69235033D01*
X98368438Y-69206750D01*
X98585460Y-69206750D01*
X98795000Y-69416290D01*
X99004540Y-69206750D01*
X98976257Y-69178467D01*
X99221562Y-69178467D01*
X99221562Y-69235033D01*
X99243209Y-69287293D01*
X99283207Y-69327291D01*
X99335467Y-69348938D01*
X99392033Y-69348938D01*
X99444293Y-69327291D01*
X99484291Y-69287293D01*
X99505938Y-69235033D01*
X99505938Y-69206750D01*
X99722960Y-69206750D01*
X99932500Y-69416290D01*
X100142040Y-69206750D01*
X100113757Y-69178467D01*
X100359062Y-69178467D01*
X100359062Y-69235033D01*
X100380709Y-69287293D01*
X100420707Y-69327291D01*
X100472967Y-69348938D01*
X100529533Y-69348938D01*
X100581793Y-69327291D01*
X100621791Y-69287293D01*
X100643438Y-69235033D01*
X100643438Y-69206749D01*
X100860460Y-69206749D01*
X100860460Y-69206750D01*
X101214563Y-69560853D01*
X101219672Y-69552725D01*
X101278646Y-69384186D01*
X101278647Y-69384183D01*
X101298639Y-69206750D01*
X101298639Y-69206749D01*
X101278647Y-69029316D01*
X101219670Y-68860770D01*
X101219669Y-68860769D01*
X101214564Y-68852645D01*
X100860460Y-69206749D01*
X100643438Y-69206749D01*
X100643438Y-69178467D01*
X100621791Y-69126207D01*
X100581793Y-69086209D01*
X100529533Y-69064562D01*
X100472967Y-69064562D01*
X100420707Y-69086209D01*
X100380709Y-69126207D01*
X100359062Y-69178467D01*
X100113757Y-69178467D01*
X99932500Y-68997210D01*
X99722960Y-69206750D01*
X99505938Y-69206750D01*
X99505938Y-69178467D01*
X99484291Y-69126207D01*
X99444293Y-69086209D01*
X99392033Y-69064562D01*
X99335467Y-69064562D01*
X99283207Y-69086209D01*
X99243209Y-69126207D01*
X99221562Y-69178467D01*
X98976257Y-69178467D01*
X98795000Y-68997210D01*
X98585460Y-69206750D01*
X98368438Y-69206750D01*
X98368438Y-69178467D01*
X98346791Y-69126207D01*
X98306793Y-69086209D01*
X98254533Y-69064562D01*
X98197967Y-69064562D01*
X98145707Y-69086209D01*
X98105709Y-69126207D01*
X98084062Y-69178467D01*
X97838757Y-69178467D01*
X97657500Y-68997210D01*
X97447960Y-69206750D01*
X97230938Y-69206750D01*
X97230938Y-69178467D01*
X97209291Y-69126207D01*
X97169293Y-69086209D01*
X97117033Y-69064562D01*
X97060467Y-69064562D01*
X97008207Y-69086209D01*
X96968209Y-69126207D01*
X96946562Y-69178467D01*
X96701257Y-69178467D01*
X96520000Y-68997210D01*
X96310460Y-69206750D01*
X96093438Y-69206750D01*
X96093438Y-69178467D01*
X96071791Y-69126207D01*
X96031793Y-69086209D01*
X95979533Y-69064562D01*
X95922967Y-69064562D01*
X95870707Y-69086209D01*
X95830709Y-69126207D01*
X95809062Y-69178467D01*
X95563757Y-69178467D01*
X95382500Y-68997210D01*
X95172960Y-69206750D01*
X94955938Y-69206750D01*
X94955938Y-69178467D01*
X94934291Y-69126207D01*
X94894293Y-69086209D01*
X94842033Y-69064562D01*
X94785467Y-69064562D01*
X94733207Y-69086209D01*
X94693209Y-69126207D01*
X94671562Y-69178467D01*
X94426257Y-69178467D01*
X94245000Y-68997210D01*
X94035460Y-69206750D01*
X93818438Y-69206750D01*
X93818438Y-69178467D01*
X93796791Y-69126207D01*
X93756793Y-69086209D01*
X93704533Y-69064562D01*
X93647967Y-69064562D01*
X93595707Y-69086209D01*
X93555709Y-69126207D01*
X93534062Y-69178467D01*
X93288757Y-69178467D01*
X93107500Y-68997210D01*
X92897960Y-69206750D01*
X92680938Y-69206750D01*
X92680938Y-69178467D01*
X92659291Y-69126207D01*
X92619293Y-69086209D01*
X92567033Y-69064562D01*
X92510467Y-69064562D01*
X92458207Y-69086209D01*
X92418209Y-69126207D01*
X92396562Y-69178467D01*
X92151257Y-69178467D01*
X91825435Y-68852645D01*
X91825434Y-68852645D01*
X91820327Y-68860776D01*
X91761353Y-69029313D01*
X91761352Y-69029316D01*
X91741361Y-69206749D01*
X84108059Y-69206749D01*
X84056208Y-69013237D01*
X84056207Y-69013235D01*
X84052925Y-69006197D01*
X83958040Y-68802715D01*
X83898578Y-68717794D01*
X83842706Y-68638000D01*
X92329210Y-68638000D01*
X92538750Y-68847540D01*
X92748290Y-68638000D01*
X93466710Y-68638000D01*
X93676250Y-68847540D01*
X93885790Y-68638000D01*
X94604210Y-68638000D01*
X94813750Y-68847540D01*
X95023290Y-68638000D01*
X95741710Y-68638000D01*
X95951250Y-68847540D01*
X96160790Y-68638000D01*
X96879210Y-68638000D01*
X97088750Y-68847540D01*
X97298290Y-68638000D01*
X98016710Y-68638000D01*
X98226250Y-68847540D01*
X98435790Y-68638000D01*
X99154210Y-68638000D01*
X99363750Y-68847540D01*
X99573290Y-68638000D01*
X100291710Y-68638000D01*
X100501250Y-68847540D01*
X100710790Y-68638000D01*
X100501250Y-68428460D01*
X100291710Y-68638000D01*
X99573290Y-68638000D01*
X99363750Y-68428460D01*
X99154210Y-68638000D01*
X98435790Y-68638000D01*
X98226250Y-68428460D01*
X98016710Y-68638000D01*
X97298290Y-68638000D01*
X97088750Y-68428460D01*
X96879210Y-68638000D01*
X96160790Y-68638000D01*
X95951250Y-68428460D01*
X95741710Y-68638000D01*
X95023290Y-68638000D01*
X94813750Y-68428460D01*
X94604210Y-68638000D01*
X93885790Y-68638000D01*
X93676250Y-68428460D01*
X93466710Y-68638000D01*
X92748290Y-68638000D01*
X92538750Y-68428460D01*
X92329210Y-68638000D01*
X83842706Y-68638000D01*
X83824808Y-68612438D01*
X83660561Y-68448191D01*
X83539508Y-68363429D01*
X83470286Y-68314960D01*
X83470284Y-68314959D01*
X83470282Y-68314957D01*
X83259771Y-68216795D01*
X83259755Y-68216789D01*
X83035411Y-68156676D01*
X83035395Y-68156673D01*
X82804002Y-68136429D01*
X82803998Y-68136429D01*
X82572604Y-68156673D01*
X82572588Y-68156676D01*
X82348237Y-68216791D01*
X82348235Y-68216792D01*
X82137715Y-68314959D01*
X81947438Y-68448191D01*
X81783191Y-68612438D01*
X81649959Y-68802715D01*
X81551792Y-69013235D01*
X81551791Y-69013237D01*
X81491676Y-69237588D01*
X81491673Y-69237604D01*
X81471429Y-69468997D01*
X76251300Y-69468997D01*
X76251300Y-66928996D01*
X78551211Y-66928996D01*
X78551211Y-66929003D01*
X78570341Y-67184277D01*
X78570341Y-67184279D01*
X78627302Y-67433846D01*
X78720833Y-67672158D01*
X78848826Y-67893848D01*
X78848832Y-67893857D01*
X78889250Y-67944537D01*
X78889251Y-67944538D01*
X79546496Y-67287293D01*
X79555049Y-67307942D01*
X79642599Y-67438970D01*
X79754030Y-67550401D01*
X79885058Y-67637951D01*
X79905705Y-67646503D01*
X79248421Y-68303787D01*
X79407608Y-68412320D01*
X79638252Y-68523391D01*
X79638256Y-68523392D01*
X79882861Y-68598844D01*
X79882860Y-68598844D01*
X80136003Y-68636999D01*
X80136009Y-68637000D01*
X80391991Y-68637000D01*
X80391996Y-68636999D01*
X80645139Y-68598844D01*
X80889743Y-68523392D01*
X80889747Y-68523391D01*
X81120394Y-68412318D01*
X81120396Y-68412317D01*
X81279577Y-68303787D01*
X80622293Y-67646503D01*
X80642942Y-67637951D01*
X80773970Y-67550401D01*
X80885401Y-67438970D01*
X80972951Y-67307942D01*
X80981503Y-67287294D01*
X81638747Y-67944538D01*
X81638748Y-67944537D01*
X81679168Y-67893853D01*
X81679176Y-67893842D01*
X81807166Y-67672158D01*
X81900697Y-67433846D01*
X81957658Y-67184279D01*
X81957658Y-67184277D01*
X81976789Y-66929003D01*
X81976789Y-66928996D01*
X83631211Y-66928996D01*
X83631211Y-66929003D01*
X83650341Y-67184277D01*
X83650341Y-67184279D01*
X83707302Y-67433846D01*
X83800833Y-67672158D01*
X83928826Y-67893848D01*
X83928832Y-67893857D01*
X83969250Y-67944537D01*
X83969251Y-67944538D01*
X84626496Y-67287293D01*
X84635049Y-67307942D01*
X84722599Y-67438970D01*
X84834030Y-67550401D01*
X84965058Y-67637951D01*
X84985705Y-67646503D01*
X84328421Y-68303787D01*
X84487608Y-68412320D01*
X84718252Y-68523391D01*
X84718256Y-68523392D01*
X84962861Y-68598844D01*
X84962860Y-68598844D01*
X85216003Y-68636999D01*
X85216009Y-68637000D01*
X85471991Y-68637000D01*
X85471996Y-68636999D01*
X85725139Y-68598844D01*
X85969743Y-68523392D01*
X85969747Y-68523391D01*
X86200394Y-68412318D01*
X86200396Y-68412317D01*
X86359577Y-68303787D01*
X86125039Y-68069249D01*
X91741361Y-68069249D01*
X91741361Y-68069250D01*
X91761352Y-68246683D01*
X91761353Y-68246686D01*
X91820324Y-68415218D01*
X91820326Y-68415222D01*
X91825435Y-68423353D01*
X92179539Y-68069249D01*
X92151257Y-68040967D01*
X92396562Y-68040967D01*
X92396562Y-68097533D01*
X92418209Y-68149793D01*
X92458207Y-68189791D01*
X92510467Y-68211438D01*
X92567033Y-68211438D01*
X92619293Y-68189791D01*
X92659291Y-68149793D01*
X92680938Y-68097533D01*
X92680938Y-68069250D01*
X92897960Y-68069250D01*
X93107500Y-68278790D01*
X93317040Y-68069250D01*
X93288757Y-68040967D01*
X93534062Y-68040967D01*
X93534062Y-68097533D01*
X93555709Y-68149793D01*
X93595707Y-68189791D01*
X93647967Y-68211438D01*
X93704533Y-68211438D01*
X93756793Y-68189791D01*
X93796791Y-68149793D01*
X93818438Y-68097533D01*
X93818438Y-68069250D01*
X94035460Y-68069250D01*
X94245000Y-68278790D01*
X94454540Y-68069250D01*
X94426257Y-68040967D01*
X94671562Y-68040967D01*
X94671562Y-68097533D01*
X94693209Y-68149793D01*
X94733207Y-68189791D01*
X94785467Y-68211438D01*
X94842033Y-68211438D01*
X94894293Y-68189791D01*
X94934291Y-68149793D01*
X94955938Y-68097533D01*
X94955938Y-68069250D01*
X95172960Y-68069250D01*
X95382500Y-68278790D01*
X95592040Y-68069250D01*
X95563757Y-68040967D01*
X95809062Y-68040967D01*
X95809062Y-68097533D01*
X95830709Y-68149793D01*
X95870707Y-68189791D01*
X95922967Y-68211438D01*
X95979533Y-68211438D01*
X96031793Y-68189791D01*
X96071791Y-68149793D01*
X96093438Y-68097533D01*
X96093438Y-68069250D01*
X96310460Y-68069250D01*
X96520000Y-68278790D01*
X96729540Y-68069250D01*
X96701257Y-68040967D01*
X96946562Y-68040967D01*
X96946562Y-68097533D01*
X96968209Y-68149793D01*
X97008207Y-68189791D01*
X97060467Y-68211438D01*
X97117033Y-68211438D01*
X97169293Y-68189791D01*
X97209291Y-68149793D01*
X97230938Y-68097533D01*
X97230938Y-68069250D01*
X97447960Y-68069250D01*
X97657500Y-68278790D01*
X97867040Y-68069250D01*
X97838757Y-68040967D01*
X98084062Y-68040967D01*
X98084062Y-68097533D01*
X98105709Y-68149793D01*
X98145707Y-68189791D01*
X98197967Y-68211438D01*
X98254533Y-68211438D01*
X98306793Y-68189791D01*
X98346791Y-68149793D01*
X98368438Y-68097533D01*
X98368438Y-68069250D01*
X98585460Y-68069250D01*
X98795000Y-68278790D01*
X99004540Y-68069250D01*
X98976257Y-68040967D01*
X99221562Y-68040967D01*
X99221562Y-68097533D01*
X99243209Y-68149793D01*
X99283207Y-68189791D01*
X99335467Y-68211438D01*
X99392033Y-68211438D01*
X99444293Y-68189791D01*
X99484291Y-68149793D01*
X99505938Y-68097533D01*
X99505938Y-68069250D01*
X99722960Y-68069250D01*
X99932500Y-68278790D01*
X100142040Y-68069250D01*
X100113757Y-68040967D01*
X100359062Y-68040967D01*
X100359062Y-68097533D01*
X100380709Y-68149793D01*
X100420707Y-68189791D01*
X100472967Y-68211438D01*
X100529533Y-68211438D01*
X100581793Y-68189791D01*
X100621791Y-68149793D01*
X100643438Y-68097533D01*
X100643438Y-68069249D01*
X100860460Y-68069249D01*
X100860460Y-68069250D01*
X101214563Y-68423353D01*
X101219672Y-68415225D01*
X101278646Y-68246686D01*
X101278647Y-68246683D01*
X101298639Y-68069250D01*
X101298639Y-68069249D01*
X101278647Y-67891816D01*
X101219670Y-67723270D01*
X101219669Y-67723269D01*
X101214564Y-67715145D01*
X100860460Y-68069249D01*
X100643438Y-68069249D01*
X100643438Y-68040967D01*
X100621791Y-67988707D01*
X100581793Y-67948709D01*
X100529533Y-67927062D01*
X100472967Y-67927062D01*
X100420707Y-67948709D01*
X100380709Y-67988707D01*
X100359062Y-68040967D01*
X100113757Y-68040967D01*
X99932500Y-67859710D01*
X99722960Y-68069250D01*
X99505938Y-68069250D01*
X99505938Y-68040967D01*
X99484291Y-67988707D01*
X99444293Y-67948709D01*
X99392033Y-67927062D01*
X99335467Y-67927062D01*
X99283207Y-67948709D01*
X99243209Y-67988707D01*
X99221562Y-68040967D01*
X98976257Y-68040967D01*
X98795000Y-67859710D01*
X98585460Y-68069250D01*
X98368438Y-68069250D01*
X98368438Y-68040967D01*
X98346791Y-67988707D01*
X98306793Y-67948709D01*
X98254533Y-67927062D01*
X98197967Y-67927062D01*
X98145707Y-67948709D01*
X98105709Y-67988707D01*
X98084062Y-68040967D01*
X97838757Y-68040967D01*
X97657500Y-67859710D01*
X97447960Y-68069250D01*
X97230938Y-68069250D01*
X97230938Y-68040967D01*
X97209291Y-67988707D01*
X97169293Y-67948709D01*
X97117033Y-67927062D01*
X97060467Y-67927062D01*
X97008207Y-67948709D01*
X96968209Y-67988707D01*
X96946562Y-68040967D01*
X96701257Y-68040967D01*
X96520000Y-67859710D01*
X96310460Y-68069250D01*
X96093438Y-68069250D01*
X96093438Y-68040967D01*
X96071791Y-67988707D01*
X96031793Y-67948709D01*
X95979533Y-67927062D01*
X95922967Y-67927062D01*
X95870707Y-67948709D01*
X95830709Y-67988707D01*
X95809062Y-68040967D01*
X95563757Y-68040967D01*
X95382500Y-67859710D01*
X95172960Y-68069250D01*
X94955938Y-68069250D01*
X94955938Y-68040967D01*
X94934291Y-67988707D01*
X94894293Y-67948709D01*
X94842033Y-67927062D01*
X94785467Y-67927062D01*
X94733207Y-67948709D01*
X94693209Y-67988707D01*
X94671562Y-68040967D01*
X94426257Y-68040967D01*
X94245000Y-67859710D01*
X94035460Y-68069250D01*
X93818438Y-68069250D01*
X93818438Y-68040967D01*
X93796791Y-67988707D01*
X93756793Y-67948709D01*
X93704533Y-67927062D01*
X93647967Y-67927062D01*
X93595707Y-67948709D01*
X93555709Y-67988707D01*
X93534062Y-68040967D01*
X93288757Y-68040967D01*
X93107500Y-67859710D01*
X92897960Y-68069250D01*
X92680938Y-68069250D01*
X92680938Y-68040967D01*
X92659291Y-67988707D01*
X92619293Y-67948709D01*
X92567033Y-67927062D01*
X92510467Y-67927062D01*
X92458207Y-67948709D01*
X92418209Y-67988707D01*
X92396562Y-68040967D01*
X92151257Y-68040967D01*
X91825435Y-67715145D01*
X91825434Y-67715145D01*
X91820327Y-67723276D01*
X91761353Y-67891813D01*
X91761352Y-67891816D01*
X91741361Y-68069249D01*
X86125039Y-68069249D01*
X85702293Y-67646503D01*
X85722942Y-67637951D01*
X85853970Y-67550401D01*
X85965401Y-67438970D01*
X86052951Y-67307942D01*
X86061503Y-67287294D01*
X86718747Y-67944538D01*
X86718748Y-67944537D01*
X86759168Y-67893853D01*
X86759176Y-67893842D01*
X86887166Y-67672158D01*
X86954537Y-67500500D01*
X92329210Y-67500500D01*
X92538750Y-67710040D01*
X92748290Y-67500500D01*
X93466710Y-67500500D01*
X93676250Y-67710040D01*
X93885790Y-67500500D01*
X94604210Y-67500500D01*
X94813750Y-67710040D01*
X95023290Y-67500500D01*
X95741710Y-67500500D01*
X95951250Y-67710040D01*
X96160790Y-67500500D01*
X96879210Y-67500500D01*
X97088750Y-67710040D01*
X97298290Y-67500500D01*
X98016710Y-67500500D01*
X98226250Y-67710040D01*
X98435790Y-67500500D01*
X99154210Y-67500500D01*
X99363750Y-67710040D01*
X99573290Y-67500500D01*
X100291710Y-67500500D01*
X100501250Y-67710040D01*
X100710790Y-67500500D01*
X100501250Y-67290960D01*
X100291710Y-67500500D01*
X99573290Y-67500500D01*
X99363750Y-67290960D01*
X99154210Y-67500500D01*
X98435790Y-67500500D01*
X98226250Y-67290960D01*
X98016710Y-67500500D01*
X97298290Y-67500500D01*
X97088750Y-67290960D01*
X96879210Y-67500500D01*
X96160790Y-67500500D01*
X95951250Y-67290960D01*
X95741710Y-67500500D01*
X95023290Y-67500500D01*
X94813750Y-67290960D01*
X94604210Y-67500500D01*
X93885790Y-67500500D01*
X93676250Y-67290960D01*
X93466710Y-67500500D01*
X92748290Y-67500500D01*
X92538750Y-67290960D01*
X92329210Y-67500500D01*
X86954537Y-67500500D01*
X86980697Y-67433846D01*
X87037658Y-67184279D01*
X87037658Y-67184277D01*
X87056583Y-66931749D01*
X91741361Y-66931749D01*
X91741361Y-66931750D01*
X91761352Y-67109183D01*
X91761353Y-67109186D01*
X91820324Y-67277718D01*
X91820326Y-67277722D01*
X91825435Y-67285853D01*
X92179539Y-66931749D01*
X92151257Y-66903467D01*
X92396562Y-66903467D01*
X92396562Y-66960033D01*
X92418209Y-67012293D01*
X92458207Y-67052291D01*
X92510467Y-67073938D01*
X92567033Y-67073938D01*
X92619293Y-67052291D01*
X92659291Y-67012293D01*
X92680938Y-66960033D01*
X92680938Y-66931750D01*
X92897960Y-66931750D01*
X93107500Y-67141290D01*
X93317040Y-66931750D01*
X93288757Y-66903467D01*
X93534062Y-66903467D01*
X93534062Y-66960033D01*
X93555709Y-67012293D01*
X93595707Y-67052291D01*
X93647967Y-67073938D01*
X93704533Y-67073938D01*
X93756793Y-67052291D01*
X93796791Y-67012293D01*
X93818438Y-66960033D01*
X93818438Y-66931750D01*
X94035460Y-66931750D01*
X94245000Y-67141290D01*
X94454540Y-66931750D01*
X94426257Y-66903467D01*
X94671562Y-66903467D01*
X94671562Y-66960033D01*
X94693209Y-67012293D01*
X94733207Y-67052291D01*
X94785467Y-67073938D01*
X94842033Y-67073938D01*
X94894293Y-67052291D01*
X94934291Y-67012293D01*
X94955938Y-66960033D01*
X94955938Y-66931750D01*
X95172960Y-66931750D01*
X95382500Y-67141290D01*
X95592040Y-66931750D01*
X95563757Y-66903467D01*
X95809062Y-66903467D01*
X95809062Y-66960033D01*
X95830709Y-67012293D01*
X95870707Y-67052291D01*
X95922967Y-67073938D01*
X95979533Y-67073938D01*
X96031793Y-67052291D01*
X96071791Y-67012293D01*
X96093438Y-66960033D01*
X96093438Y-66931750D01*
X96310460Y-66931750D01*
X96520000Y-67141290D01*
X96729540Y-66931750D01*
X96701257Y-66903467D01*
X96946562Y-66903467D01*
X96946562Y-66960033D01*
X96968209Y-67012293D01*
X97008207Y-67052291D01*
X97060467Y-67073938D01*
X97117033Y-67073938D01*
X97169293Y-67052291D01*
X97209291Y-67012293D01*
X97230938Y-66960033D01*
X97230938Y-66931750D01*
X97447960Y-66931750D01*
X97657500Y-67141290D01*
X97867040Y-66931750D01*
X97838757Y-66903467D01*
X98084062Y-66903467D01*
X98084062Y-66960033D01*
X98105709Y-67012293D01*
X98145707Y-67052291D01*
X98197967Y-67073938D01*
X98254533Y-67073938D01*
X98306793Y-67052291D01*
X98346791Y-67012293D01*
X98368438Y-66960033D01*
X98368438Y-66931750D01*
X98585460Y-66931750D01*
X98795000Y-67141290D01*
X99004540Y-66931750D01*
X98976257Y-66903467D01*
X99221562Y-66903467D01*
X99221562Y-66960033D01*
X99243209Y-67012293D01*
X99283207Y-67052291D01*
X99335467Y-67073938D01*
X99392033Y-67073938D01*
X99444293Y-67052291D01*
X99484291Y-67012293D01*
X99505938Y-66960033D01*
X99505938Y-66931750D01*
X99722960Y-66931750D01*
X99932500Y-67141290D01*
X100142040Y-66931750D01*
X100113757Y-66903467D01*
X100359062Y-66903467D01*
X100359062Y-66960033D01*
X100380709Y-67012293D01*
X100420707Y-67052291D01*
X100472967Y-67073938D01*
X100529533Y-67073938D01*
X100581793Y-67052291D01*
X100621791Y-67012293D01*
X100643438Y-66960033D01*
X100643438Y-66931749D01*
X100860460Y-66931749D01*
X100860460Y-66931750D01*
X101214563Y-67285853D01*
X101219672Y-67277725D01*
X101278646Y-67109186D01*
X101278647Y-67109183D01*
X101298639Y-66931750D01*
X101298639Y-66931749D01*
X101278647Y-66754316D01*
X101219670Y-66585770D01*
X101219669Y-66585769D01*
X101214564Y-66577645D01*
X100860460Y-66931749D01*
X100643438Y-66931749D01*
X100643438Y-66903467D01*
X100621791Y-66851207D01*
X100581793Y-66811209D01*
X100529533Y-66789562D01*
X100472967Y-66789562D01*
X100420707Y-66811209D01*
X100380709Y-66851207D01*
X100359062Y-66903467D01*
X100113757Y-66903467D01*
X99932500Y-66722210D01*
X99722960Y-66931750D01*
X99505938Y-66931750D01*
X99505938Y-66903467D01*
X99484291Y-66851207D01*
X99444293Y-66811209D01*
X99392033Y-66789562D01*
X99335467Y-66789562D01*
X99283207Y-66811209D01*
X99243209Y-66851207D01*
X99221562Y-66903467D01*
X98976257Y-66903467D01*
X98795000Y-66722210D01*
X98585460Y-66931750D01*
X98368438Y-66931750D01*
X98368438Y-66903467D01*
X98346791Y-66851207D01*
X98306793Y-66811209D01*
X98254533Y-66789562D01*
X98197967Y-66789562D01*
X98145707Y-66811209D01*
X98105709Y-66851207D01*
X98084062Y-66903467D01*
X97838757Y-66903467D01*
X97657500Y-66722210D01*
X97447960Y-66931750D01*
X97230938Y-66931750D01*
X97230938Y-66903467D01*
X97209291Y-66851207D01*
X97169293Y-66811209D01*
X97117033Y-66789562D01*
X97060467Y-66789562D01*
X97008207Y-66811209D01*
X96968209Y-66851207D01*
X96946562Y-66903467D01*
X96701257Y-66903467D01*
X96520000Y-66722210D01*
X96310460Y-66931750D01*
X96093438Y-66931750D01*
X96093438Y-66903467D01*
X96071791Y-66851207D01*
X96031793Y-66811209D01*
X95979533Y-66789562D01*
X95922967Y-66789562D01*
X95870707Y-66811209D01*
X95830709Y-66851207D01*
X95809062Y-66903467D01*
X95563757Y-66903467D01*
X95382500Y-66722210D01*
X95172960Y-66931750D01*
X94955938Y-66931750D01*
X94955938Y-66903467D01*
X94934291Y-66851207D01*
X94894293Y-66811209D01*
X94842033Y-66789562D01*
X94785467Y-66789562D01*
X94733207Y-66811209D01*
X94693209Y-66851207D01*
X94671562Y-66903467D01*
X94426257Y-66903467D01*
X94245000Y-66722210D01*
X94035460Y-66931750D01*
X93818438Y-66931750D01*
X93818438Y-66903467D01*
X93796791Y-66851207D01*
X93756793Y-66811209D01*
X93704533Y-66789562D01*
X93647967Y-66789562D01*
X93595707Y-66811209D01*
X93555709Y-66851207D01*
X93534062Y-66903467D01*
X93288757Y-66903467D01*
X93107500Y-66722210D01*
X92897960Y-66931750D01*
X92680938Y-66931750D01*
X92680938Y-66903467D01*
X92659291Y-66851207D01*
X92619293Y-66811209D01*
X92567033Y-66789562D01*
X92510467Y-66789562D01*
X92458207Y-66811209D01*
X92418209Y-66851207D01*
X92396562Y-66903467D01*
X92151257Y-66903467D01*
X91825435Y-66577645D01*
X91825434Y-66577645D01*
X91820327Y-66585776D01*
X91761353Y-66754313D01*
X91761352Y-66754316D01*
X91741361Y-66931749D01*
X87056583Y-66931749D01*
X87056789Y-66929003D01*
X87056789Y-66928996D01*
X87037658Y-66673722D01*
X87037658Y-66673720D01*
X86980697Y-66424153D01*
X86956696Y-66363000D01*
X92329210Y-66363000D01*
X92538750Y-66572540D01*
X92748290Y-66363000D01*
X93466710Y-66363000D01*
X93676250Y-66572540D01*
X93885790Y-66363000D01*
X94604210Y-66363000D01*
X94813750Y-66572540D01*
X95023290Y-66363000D01*
X95741710Y-66363000D01*
X95951250Y-66572540D01*
X96160790Y-66363000D01*
X96879210Y-66363000D01*
X97088750Y-66572540D01*
X97298290Y-66363000D01*
X98016710Y-66363000D01*
X98226250Y-66572540D01*
X98435790Y-66363000D01*
X99154210Y-66363000D01*
X99363750Y-66572540D01*
X99573290Y-66363000D01*
X100291710Y-66363000D01*
X100501250Y-66572540D01*
X100710790Y-66363000D01*
X100501250Y-66153460D01*
X100291710Y-66363000D01*
X99573290Y-66363000D01*
X99363750Y-66153460D01*
X99154210Y-66363000D01*
X98435790Y-66363000D01*
X98226250Y-66153460D01*
X98016710Y-66363000D01*
X97298290Y-66363000D01*
X97088750Y-66153460D01*
X96879210Y-66363000D01*
X96160790Y-66363000D01*
X95951250Y-66153460D01*
X95741710Y-66363000D01*
X95023290Y-66363000D01*
X94813750Y-66153460D01*
X94604210Y-66363000D01*
X93885790Y-66363000D01*
X93676250Y-66153460D01*
X93466710Y-66363000D01*
X92748290Y-66363000D01*
X92538750Y-66153460D01*
X92329210Y-66363000D01*
X86956696Y-66363000D01*
X86887166Y-66185841D01*
X86759176Y-65964157D01*
X86759168Y-65964145D01*
X86718748Y-65913461D01*
X86718747Y-65913460D01*
X86061503Y-66570704D01*
X86052951Y-66550058D01*
X85965401Y-66419030D01*
X85853970Y-66307599D01*
X85722942Y-66220049D01*
X85702292Y-66211495D01*
X86119539Y-65794249D01*
X91741361Y-65794249D01*
X91741361Y-65794250D01*
X91761352Y-65971683D01*
X91761353Y-65971686D01*
X91820324Y-66140218D01*
X91820326Y-66140222D01*
X91825435Y-66148353D01*
X92179539Y-65794249D01*
X92151257Y-65765967D01*
X92396562Y-65765967D01*
X92396562Y-65822533D01*
X92418209Y-65874793D01*
X92458207Y-65914791D01*
X92510467Y-65936438D01*
X92567033Y-65936438D01*
X92619293Y-65914791D01*
X92659291Y-65874793D01*
X92680938Y-65822533D01*
X92680938Y-65794250D01*
X92897960Y-65794250D01*
X93107500Y-66003790D01*
X93317040Y-65794250D01*
X93288757Y-65765967D01*
X93534062Y-65765967D01*
X93534062Y-65822533D01*
X93555709Y-65874793D01*
X93595707Y-65914791D01*
X93647967Y-65936438D01*
X93704533Y-65936438D01*
X93756793Y-65914791D01*
X93796791Y-65874793D01*
X93818438Y-65822533D01*
X93818438Y-65794250D01*
X94035460Y-65794250D01*
X94245000Y-66003790D01*
X94454540Y-65794250D01*
X94426257Y-65765967D01*
X94671562Y-65765967D01*
X94671562Y-65822533D01*
X94693209Y-65874793D01*
X94733207Y-65914791D01*
X94785467Y-65936438D01*
X94842033Y-65936438D01*
X94894293Y-65914791D01*
X94934291Y-65874793D01*
X94955938Y-65822533D01*
X94955938Y-65794250D01*
X95172960Y-65794250D01*
X95382500Y-66003790D01*
X95592040Y-65794250D01*
X95563757Y-65765967D01*
X95809062Y-65765967D01*
X95809062Y-65822533D01*
X95830709Y-65874793D01*
X95870707Y-65914791D01*
X95922967Y-65936438D01*
X95979533Y-65936438D01*
X96031793Y-65914791D01*
X96071791Y-65874793D01*
X96093438Y-65822533D01*
X96093438Y-65794250D01*
X96310460Y-65794250D01*
X96520000Y-66003790D01*
X96729540Y-65794250D01*
X96701257Y-65765967D01*
X96946562Y-65765967D01*
X96946562Y-65822533D01*
X96968209Y-65874793D01*
X97008207Y-65914791D01*
X97060467Y-65936438D01*
X97117033Y-65936438D01*
X97169293Y-65914791D01*
X97209291Y-65874793D01*
X97230938Y-65822533D01*
X97230938Y-65794250D01*
X97447960Y-65794250D01*
X97657500Y-66003790D01*
X97867040Y-65794250D01*
X97838757Y-65765967D01*
X98084062Y-65765967D01*
X98084062Y-65822533D01*
X98105709Y-65874793D01*
X98145707Y-65914791D01*
X98197967Y-65936438D01*
X98254533Y-65936438D01*
X98306793Y-65914791D01*
X98346791Y-65874793D01*
X98368438Y-65822533D01*
X98368438Y-65794250D01*
X98585460Y-65794250D01*
X98795000Y-66003790D01*
X99004540Y-65794250D01*
X98976257Y-65765967D01*
X99221562Y-65765967D01*
X99221562Y-65822533D01*
X99243209Y-65874793D01*
X99283207Y-65914791D01*
X99335467Y-65936438D01*
X99392033Y-65936438D01*
X99444293Y-65914791D01*
X99484291Y-65874793D01*
X99505938Y-65822533D01*
X99505938Y-65794250D01*
X99722960Y-65794250D01*
X99932500Y-66003790D01*
X100142040Y-65794250D01*
X100113757Y-65765967D01*
X100359062Y-65765967D01*
X100359062Y-65822533D01*
X100380709Y-65874793D01*
X100420707Y-65914791D01*
X100472967Y-65936438D01*
X100529533Y-65936438D01*
X100581793Y-65914791D01*
X100621791Y-65874793D01*
X100643438Y-65822533D01*
X100643438Y-65794249D01*
X100860460Y-65794249D01*
X100860460Y-65794250D01*
X101214563Y-66148353D01*
X101219672Y-66140225D01*
X101278646Y-65971686D01*
X101278647Y-65971683D01*
X101298639Y-65794250D01*
X101298639Y-65794249D01*
X101278647Y-65616816D01*
X101219670Y-65448270D01*
X101219669Y-65448269D01*
X101214564Y-65440145D01*
X100860460Y-65794249D01*
X100643438Y-65794249D01*
X100643438Y-65765967D01*
X100621791Y-65713707D01*
X100581793Y-65673709D01*
X100529533Y-65652062D01*
X100472967Y-65652062D01*
X100420707Y-65673709D01*
X100380709Y-65713707D01*
X100359062Y-65765967D01*
X100113757Y-65765967D01*
X99932500Y-65584710D01*
X99722960Y-65794250D01*
X99505938Y-65794250D01*
X99505938Y-65765967D01*
X99484291Y-65713707D01*
X99444293Y-65673709D01*
X99392033Y-65652062D01*
X99335467Y-65652062D01*
X99283207Y-65673709D01*
X99243209Y-65713707D01*
X99221562Y-65765967D01*
X98976257Y-65765967D01*
X98795000Y-65584710D01*
X98585460Y-65794250D01*
X98368438Y-65794250D01*
X98368438Y-65765967D01*
X98346791Y-65713707D01*
X98306793Y-65673709D01*
X98254533Y-65652062D01*
X98197967Y-65652062D01*
X98145707Y-65673709D01*
X98105709Y-65713707D01*
X98084062Y-65765967D01*
X97838757Y-65765967D01*
X97657500Y-65584710D01*
X97447960Y-65794250D01*
X97230938Y-65794250D01*
X97230938Y-65765967D01*
X97209291Y-65713707D01*
X97169293Y-65673709D01*
X97117033Y-65652062D01*
X97060467Y-65652062D01*
X97008207Y-65673709D01*
X96968209Y-65713707D01*
X96946562Y-65765967D01*
X96701257Y-65765967D01*
X96520000Y-65584710D01*
X96310460Y-65794250D01*
X96093438Y-65794250D01*
X96093438Y-65765967D01*
X96071791Y-65713707D01*
X96031793Y-65673709D01*
X95979533Y-65652062D01*
X95922967Y-65652062D01*
X95870707Y-65673709D01*
X95830709Y-65713707D01*
X95809062Y-65765967D01*
X95563757Y-65765967D01*
X95382500Y-65584710D01*
X95172960Y-65794250D01*
X94955938Y-65794250D01*
X94955938Y-65765967D01*
X94934291Y-65713707D01*
X94894293Y-65673709D01*
X94842033Y-65652062D01*
X94785467Y-65652062D01*
X94733207Y-65673709D01*
X94693209Y-65713707D01*
X94671562Y-65765967D01*
X94426257Y-65765967D01*
X94245000Y-65584710D01*
X94035460Y-65794250D01*
X93818438Y-65794250D01*
X93818438Y-65765967D01*
X93796791Y-65713707D01*
X93756793Y-65673709D01*
X93704533Y-65652062D01*
X93647967Y-65652062D01*
X93595707Y-65673709D01*
X93555709Y-65713707D01*
X93534062Y-65765967D01*
X93288757Y-65765967D01*
X93107500Y-65584710D01*
X92897960Y-65794250D01*
X92680938Y-65794250D01*
X92680938Y-65765967D01*
X92659291Y-65713707D01*
X92619293Y-65673709D01*
X92567033Y-65652062D01*
X92510467Y-65652062D01*
X92458207Y-65673709D01*
X92418209Y-65713707D01*
X92396562Y-65765967D01*
X92151257Y-65765967D01*
X91825435Y-65440145D01*
X91825434Y-65440145D01*
X91820327Y-65448276D01*
X91761353Y-65616813D01*
X91761352Y-65616816D01*
X91741361Y-65794249D01*
X86119539Y-65794249D01*
X86359578Y-65554211D01*
X86200392Y-65445679D01*
X85969747Y-65334608D01*
X85969743Y-65334607D01*
X85725138Y-65259155D01*
X85725139Y-65259155D01*
X85471996Y-65221000D01*
X85216003Y-65221000D01*
X84962860Y-65259155D01*
X84718256Y-65334607D01*
X84718252Y-65334608D01*
X84487605Y-65445681D01*
X84328421Y-65554210D01*
X84328420Y-65554210D01*
X84985706Y-66211496D01*
X84965058Y-66220049D01*
X84834030Y-66307599D01*
X84722599Y-66419030D01*
X84635049Y-66550058D01*
X84626496Y-66570706D01*
X83969251Y-65913461D01*
X83928830Y-65964148D01*
X83928820Y-65964162D01*
X83800833Y-66185841D01*
X83707302Y-66424153D01*
X83650341Y-66673720D01*
X83650341Y-66673722D01*
X83631211Y-66928996D01*
X81976789Y-66928996D01*
X81957658Y-66673722D01*
X81957658Y-66673720D01*
X81900697Y-66424153D01*
X81807166Y-66185841D01*
X81679176Y-65964157D01*
X81679168Y-65964145D01*
X81638748Y-65913461D01*
X81638747Y-65913460D01*
X80981503Y-66570704D01*
X80972951Y-66550058D01*
X80885401Y-66419030D01*
X80773970Y-66307599D01*
X80642942Y-66220049D01*
X80622292Y-66211495D01*
X81279578Y-65554211D01*
X81120392Y-65445679D01*
X80889747Y-65334608D01*
X80889743Y-65334607D01*
X80645138Y-65259155D01*
X80645139Y-65259155D01*
X80391996Y-65221000D01*
X80136003Y-65221000D01*
X79882860Y-65259155D01*
X79638256Y-65334607D01*
X79638252Y-65334608D01*
X79407605Y-65445681D01*
X79248421Y-65554210D01*
X79248420Y-65554210D01*
X79905706Y-66211496D01*
X79885058Y-66220049D01*
X79754030Y-66307599D01*
X79642599Y-66419030D01*
X79555049Y-66550058D01*
X79546496Y-66570706D01*
X78889251Y-65913461D01*
X78848830Y-65964148D01*
X78848820Y-65964162D01*
X78720833Y-66185841D01*
X78627302Y-66424153D01*
X78570341Y-66673720D01*
X78570341Y-66673722D01*
X78551211Y-66928996D01*
X76251300Y-66928996D01*
X76251300Y-63754000D01*
X84576271Y-63754000D01*
X84597080Y-63898732D01*
X84597081Y-63898735D01*
X84657823Y-64031741D01*
X84657826Y-64031746D01*
X84753580Y-64142252D01*
X84876584Y-64221301D01*
X84876589Y-64221304D01*
X85016886Y-64262499D01*
X85016888Y-64262500D01*
X85016889Y-64262500D01*
X85163112Y-64262500D01*
X85163112Y-64262499D01*
X85303411Y-64221304D01*
X85349577Y-64191634D01*
X85426419Y-64142252D01*
X85432703Y-64135000D01*
X85522176Y-64031743D01*
X85582919Y-63898734D01*
X85603729Y-63754000D01*
X86100271Y-63754000D01*
X86121080Y-63898732D01*
X86121081Y-63898735D01*
X86181823Y-64031741D01*
X86181826Y-64031746D01*
X86277580Y-64142252D01*
X86400584Y-64221301D01*
X86400589Y-64221304D01*
X86540886Y-64262499D01*
X86540888Y-64262500D01*
X86540889Y-64262500D01*
X86687112Y-64262500D01*
X86687112Y-64262499D01*
X86827411Y-64221304D01*
X86873577Y-64191634D01*
X86950419Y-64142252D01*
X86956703Y-64135000D01*
X87046176Y-64031743D01*
X87106919Y-63898734D01*
X87127729Y-63754000D01*
X87106919Y-63609266D01*
X87046176Y-63476257D01*
X86972699Y-63391460D01*
X86950419Y-63365747D01*
X86827415Y-63286698D01*
X86827406Y-63286694D01*
X86687113Y-63245500D01*
X86687111Y-63245500D01*
X86540889Y-63245500D01*
X86540887Y-63245500D01*
X86400593Y-63286694D01*
X86400584Y-63286698D01*
X86277580Y-63365747D01*
X86181826Y-63476253D01*
X86181823Y-63476258D01*
X86121081Y-63609264D01*
X86121080Y-63609267D01*
X86100271Y-63754000D01*
X85603729Y-63754000D01*
X85582919Y-63609266D01*
X85522176Y-63476257D01*
X85448699Y-63391460D01*
X85426419Y-63365747D01*
X85303415Y-63286698D01*
X85303406Y-63286694D01*
X85163113Y-63245500D01*
X85163111Y-63245500D01*
X85016889Y-63245500D01*
X85016887Y-63245500D01*
X84876593Y-63286694D01*
X84876584Y-63286698D01*
X84753580Y-63365747D01*
X84657826Y-63476253D01*
X84657823Y-63476258D01*
X84597081Y-63609264D01*
X84597080Y-63609267D01*
X84576271Y-63754000D01*
X76251300Y-63754000D01*
X76251300Y-56598463D01*
X82219300Y-56598463D01*
X82219300Y-61257536D01*
X82219301Y-61257544D01*
X82241835Y-61341645D01*
X82241836Y-61341648D01*
X82285373Y-61417054D01*
X82285378Y-61417060D01*
X82350500Y-61482182D01*
X82350514Y-61482194D01*
X83299186Y-62430866D01*
X83299191Y-62430872D01*
X83299192Y-62430872D01*
X83301372Y-62433052D01*
X83301374Y-62433055D01*
X83334440Y-62466121D01*
X83362944Y-62494625D01*
X83362945Y-62494626D01*
X83438351Y-62538163D01*
X83438354Y-62538164D01*
X83522462Y-62560700D01*
X83522463Y-62560700D01*
X83609537Y-62560700D01*
X83770621Y-62560700D01*
X83804410Y-62570621D01*
X83835731Y-62590749D01*
X83892570Y-62627277D01*
X83932328Y-62638951D01*
X84011843Y-62662300D01*
X84011845Y-62662300D01*
X84136157Y-62662300D01*
X84228101Y-62635301D01*
X84255430Y-62627277D01*
X84360007Y-62560070D01*
X84441413Y-62466122D01*
X84493054Y-62353045D01*
X84510745Y-62230000D01*
X84493054Y-62106955D01*
X84441413Y-61993878D01*
X84441412Y-61993876D01*
X84360008Y-61899931D01*
X84360007Y-61899930D01*
X84255430Y-61832723D01*
X84255428Y-61832722D01*
X84255426Y-61832721D01*
X84136157Y-61797700D01*
X84136155Y-61797700D01*
X84011845Y-61797700D01*
X84011843Y-61797700D01*
X83892571Y-61832722D01*
X83804410Y-61889379D01*
X83770621Y-61899300D01*
X83728868Y-61899300D01*
X83684674Y-61880994D01*
X82899006Y-61095326D01*
X82880700Y-61051132D01*
X82880700Y-56804868D01*
X82899006Y-56760674D01*
X82990306Y-56669374D01*
X83034500Y-56651068D01*
X83078694Y-56669374D01*
X83097000Y-56713568D01*
X83097000Y-56769000D01*
X84024297Y-56769000D01*
X83989075Y-56830007D01*
X83955000Y-56957174D01*
X83955000Y-57088826D01*
X83989075Y-57215993D01*
X84024297Y-57277000D01*
X83097000Y-57277000D01*
X83097000Y-57921597D01*
X83103505Y-57982095D01*
X83154552Y-58118959D01*
X83154555Y-58118963D01*
X83242096Y-58235903D01*
X83359036Y-58323444D01*
X83359040Y-58323447D01*
X83495904Y-58374494D01*
X83556402Y-58380999D01*
X83556416Y-58381000D01*
X84201000Y-58381000D01*
X84201000Y-57453702D01*
X84262007Y-57488925D01*
X84389174Y-57523000D01*
X84520826Y-57523000D01*
X84647993Y-57488925D01*
X84709000Y-57453702D01*
X84709000Y-58381000D01*
X85353584Y-58381000D01*
X85353597Y-58380999D01*
X85414095Y-58374494D01*
X85550959Y-58323447D01*
X85550963Y-58323444D01*
X85667903Y-58235903D01*
X85755444Y-58118963D01*
X85755447Y-58118959D01*
X85806494Y-57982095D01*
X85812999Y-57921597D01*
X85813000Y-57921584D01*
X85813000Y-57904253D01*
X85831306Y-57860059D01*
X85875500Y-57841753D01*
X85919694Y-57860059D01*
X85921483Y-57861923D01*
X86072101Y-58025538D01*
X86072104Y-58025541D01*
X86249697Y-58163767D01*
X86249699Y-58163768D01*
X86447627Y-58270880D01*
X86447628Y-58270881D01*
X86660487Y-58343956D01*
X86741000Y-58357391D01*
X86741000Y-57453702D01*
X86802007Y-57488925D01*
X86929174Y-57523000D01*
X87060826Y-57523000D01*
X87187993Y-57488925D01*
X87249000Y-57453702D01*
X87249000Y-58357391D01*
X87329512Y-58343956D01*
X87542371Y-58270881D01*
X87542372Y-58270880D01*
X87740300Y-58163768D01*
X87740302Y-58163767D01*
X87917895Y-58025541D01*
X87917898Y-58025538D01*
X88070322Y-57859962D01*
X88070325Y-57859957D01*
X88193414Y-57671557D01*
X88193416Y-57671554D01*
X88283820Y-57465455D01*
X88283821Y-57465451D01*
X88331543Y-57277000D01*
X87425703Y-57277000D01*
X87460925Y-57215993D01*
X87495000Y-57088826D01*
X87495000Y-56957174D01*
X87460925Y-56830007D01*
X87425703Y-56769000D01*
X88331543Y-56769000D01*
X88283821Y-56580548D01*
X88283820Y-56580544D01*
X88193416Y-56374445D01*
X88193414Y-56374442D01*
X88125298Y-56270183D01*
X88116451Y-56223173D01*
X88143437Y-56183676D01*
X88177621Y-56173499D01*
X88854602Y-56173499D01*
X88898796Y-56191805D01*
X88917102Y-56235999D01*
X88898796Y-56280193D01*
X88894252Y-56284312D01*
X88840459Y-56328459D01*
X88718306Y-56477301D01*
X88718302Y-56477307D01*
X88627947Y-56646351D01*
X88627538Y-56647117D01*
X88615571Y-56686568D01*
X88571642Y-56831377D01*
X88552770Y-57022999D01*
X88552770Y-57023000D01*
X88571642Y-57214622D01*
X88571643Y-57214624D01*
X88627538Y-57398883D01*
X88629178Y-57401951D01*
X88718302Y-57568692D01*
X88718306Y-57568698D01*
X88840459Y-57717541D01*
X88989302Y-57839694D01*
X88989304Y-57839695D01*
X88989307Y-57839697D01*
X89159119Y-57930463D01*
X89159931Y-57930709D01*
X89160153Y-57930891D01*
X89161964Y-57931642D01*
X89161736Y-57932190D01*
X89196914Y-57961048D01*
X89204300Y-57990521D01*
X89204300Y-63211121D01*
X89185994Y-63255315D01*
X89141800Y-63273621D01*
X89097606Y-63255315D01*
X89084948Y-63237085D01*
X89078176Y-63222258D01*
X89078176Y-63222257D01*
X89063487Y-63205305D01*
X88982419Y-63111747D01*
X88859415Y-63032698D01*
X88859406Y-63032694D01*
X88719113Y-62991500D01*
X88719111Y-62991500D01*
X88572889Y-62991500D01*
X88572887Y-62991500D01*
X88432593Y-63032694D01*
X88432584Y-63032698D01*
X88309580Y-63111747D01*
X88213826Y-63222253D01*
X88213823Y-63222258D01*
X88153081Y-63355264D01*
X88153080Y-63355267D01*
X88132271Y-63500000D01*
X88153080Y-63644732D01*
X88153081Y-63644735D01*
X88213823Y-63777741D01*
X88213826Y-63777746D01*
X88309580Y-63888252D01*
X88432584Y-63967301D01*
X88432589Y-63967304D01*
X88572886Y-64008499D01*
X88572888Y-64008500D01*
X88572889Y-64008500D01*
X88719112Y-64008500D01*
X88719112Y-64008499D01*
X88859411Y-63967304D01*
X88913570Y-63932498D01*
X88982419Y-63888252D01*
X89007453Y-63859361D01*
X89078176Y-63777743D01*
X89084948Y-63762915D01*
X89119958Y-63730319D01*
X89167763Y-63732026D01*
X89200359Y-63767036D01*
X89204300Y-63788878D01*
X89204300Y-64703867D01*
X89185994Y-64748061D01*
X89119593Y-64814461D01*
X89068959Y-64913838D01*
X89068957Y-64913843D01*
X89051511Y-65023996D01*
X89051511Y-65024003D01*
X89068957Y-65134156D01*
X89068959Y-65134161D01*
X89092650Y-65180659D01*
X89119594Y-65233539D01*
X89198461Y-65312406D01*
X89297839Y-65363041D01*
X89297841Y-65363041D01*
X89297843Y-65363042D01*
X89407997Y-65380489D01*
X89408000Y-65380489D01*
X89408003Y-65380489D01*
X89518156Y-65363042D01*
X89518156Y-65363041D01*
X89518161Y-65363041D01*
X89617539Y-65312406D01*
X89696406Y-65233539D01*
X89700502Y-65225500D01*
X92329210Y-65225500D01*
X92538750Y-65435040D01*
X92748290Y-65225500D01*
X93466710Y-65225500D01*
X93676250Y-65435040D01*
X93885790Y-65225500D01*
X94604210Y-65225500D01*
X94813750Y-65435040D01*
X95023290Y-65225500D01*
X95741710Y-65225500D01*
X95951250Y-65435040D01*
X96160790Y-65225500D01*
X96879210Y-65225500D01*
X97088750Y-65435040D01*
X97298290Y-65225500D01*
X98016710Y-65225500D01*
X98226250Y-65435040D01*
X98435790Y-65225500D01*
X99154210Y-65225500D01*
X99363750Y-65435040D01*
X99573290Y-65225500D01*
X100291710Y-65225500D01*
X100501250Y-65435040D01*
X100710790Y-65225500D01*
X100501250Y-65015960D01*
X100291710Y-65225500D01*
X99573290Y-65225500D01*
X99363750Y-65015960D01*
X99154210Y-65225500D01*
X98435790Y-65225500D01*
X98226250Y-65015960D01*
X98016710Y-65225500D01*
X97298290Y-65225500D01*
X97088750Y-65015960D01*
X96879210Y-65225500D01*
X96160790Y-65225500D01*
X95951250Y-65015960D01*
X95741710Y-65225500D01*
X95023290Y-65225500D01*
X94813750Y-65015960D01*
X94604210Y-65225500D01*
X93885790Y-65225500D01*
X93676250Y-65015960D01*
X93466710Y-65225500D01*
X92748290Y-65225500D01*
X92538750Y-65015960D01*
X92329210Y-65225500D01*
X89700502Y-65225500D01*
X89723352Y-65180651D01*
X89734842Y-65164837D01*
X89738052Y-65161626D01*
X89738055Y-65161626D01*
X89799626Y-65100055D01*
X89843164Y-65024646D01*
X89865700Y-64940538D01*
X89865700Y-64656749D01*
X91741361Y-64656749D01*
X91741361Y-64656750D01*
X91761352Y-64834183D01*
X91761353Y-64834186D01*
X91820324Y-65002718D01*
X91820326Y-65002722D01*
X91825435Y-65010853D01*
X92179539Y-64656749D01*
X92151257Y-64628467D01*
X92396562Y-64628467D01*
X92396562Y-64685033D01*
X92418209Y-64737293D01*
X92458207Y-64777291D01*
X92510467Y-64798938D01*
X92567033Y-64798938D01*
X92619293Y-64777291D01*
X92659291Y-64737293D01*
X92680938Y-64685033D01*
X92680938Y-64656750D01*
X92897960Y-64656750D01*
X93107500Y-64866290D01*
X93317040Y-64656750D01*
X93288757Y-64628467D01*
X93534062Y-64628467D01*
X93534062Y-64685033D01*
X93555709Y-64737293D01*
X93595707Y-64777291D01*
X93647967Y-64798938D01*
X93704533Y-64798938D01*
X93756793Y-64777291D01*
X93796791Y-64737293D01*
X93818438Y-64685033D01*
X93818438Y-64656750D01*
X94035460Y-64656750D01*
X94245000Y-64866290D01*
X94454540Y-64656750D01*
X94426257Y-64628467D01*
X94671562Y-64628467D01*
X94671562Y-64685033D01*
X94693209Y-64737293D01*
X94733207Y-64777291D01*
X94785467Y-64798938D01*
X94842033Y-64798938D01*
X94894293Y-64777291D01*
X94934291Y-64737293D01*
X94955938Y-64685033D01*
X94955938Y-64656750D01*
X95172960Y-64656750D01*
X95382500Y-64866290D01*
X95592040Y-64656750D01*
X95563757Y-64628467D01*
X95809062Y-64628467D01*
X95809062Y-64685033D01*
X95830709Y-64737293D01*
X95870707Y-64777291D01*
X95922967Y-64798938D01*
X95979533Y-64798938D01*
X96031793Y-64777291D01*
X96071791Y-64737293D01*
X96093438Y-64685033D01*
X96093438Y-64656750D01*
X96310460Y-64656750D01*
X96520000Y-64866290D01*
X96729540Y-64656750D01*
X96701257Y-64628467D01*
X96946562Y-64628467D01*
X96946562Y-64685033D01*
X96968209Y-64737293D01*
X97008207Y-64777291D01*
X97060467Y-64798938D01*
X97117033Y-64798938D01*
X97169293Y-64777291D01*
X97209291Y-64737293D01*
X97230938Y-64685033D01*
X97230938Y-64656750D01*
X97447960Y-64656750D01*
X97657500Y-64866290D01*
X97867040Y-64656750D01*
X97838757Y-64628467D01*
X98084062Y-64628467D01*
X98084062Y-64685033D01*
X98105709Y-64737293D01*
X98145707Y-64777291D01*
X98197967Y-64798938D01*
X98254533Y-64798938D01*
X98306793Y-64777291D01*
X98346791Y-64737293D01*
X98368438Y-64685033D01*
X98368438Y-64656750D01*
X98585460Y-64656750D01*
X98795000Y-64866290D01*
X99004540Y-64656750D01*
X98976257Y-64628467D01*
X99221562Y-64628467D01*
X99221562Y-64685033D01*
X99243209Y-64737293D01*
X99283207Y-64777291D01*
X99335467Y-64798938D01*
X99392033Y-64798938D01*
X99444293Y-64777291D01*
X99484291Y-64737293D01*
X99505938Y-64685033D01*
X99505938Y-64656750D01*
X99722960Y-64656750D01*
X99932500Y-64866290D01*
X100142040Y-64656750D01*
X100113757Y-64628467D01*
X100359062Y-64628467D01*
X100359062Y-64685033D01*
X100380709Y-64737293D01*
X100420707Y-64777291D01*
X100472967Y-64798938D01*
X100529533Y-64798938D01*
X100581793Y-64777291D01*
X100621791Y-64737293D01*
X100643438Y-64685033D01*
X100643438Y-64656749D01*
X100860460Y-64656749D01*
X100860460Y-64656750D01*
X101214563Y-65010853D01*
X101219672Y-65002725D01*
X101278646Y-64834186D01*
X101278647Y-64834183D01*
X101298639Y-64656750D01*
X101298639Y-64656749D01*
X101278647Y-64479316D01*
X101219670Y-64310770D01*
X101219669Y-64310769D01*
X101214564Y-64302645D01*
X100860460Y-64656749D01*
X100643438Y-64656749D01*
X100643438Y-64628467D01*
X100621791Y-64576207D01*
X100581793Y-64536209D01*
X100529533Y-64514562D01*
X100472967Y-64514562D01*
X100420707Y-64536209D01*
X100380709Y-64576207D01*
X100359062Y-64628467D01*
X100113757Y-64628467D01*
X99932500Y-64447210D01*
X99722960Y-64656750D01*
X99505938Y-64656750D01*
X99505938Y-64628467D01*
X99484291Y-64576207D01*
X99444293Y-64536209D01*
X99392033Y-64514562D01*
X99335467Y-64514562D01*
X99283207Y-64536209D01*
X99243209Y-64576207D01*
X99221562Y-64628467D01*
X98976257Y-64628467D01*
X98795000Y-64447210D01*
X98585460Y-64656750D01*
X98368438Y-64656750D01*
X98368438Y-64628467D01*
X98346791Y-64576207D01*
X98306793Y-64536209D01*
X98254533Y-64514562D01*
X98197967Y-64514562D01*
X98145707Y-64536209D01*
X98105709Y-64576207D01*
X98084062Y-64628467D01*
X97838757Y-64628467D01*
X97657500Y-64447210D01*
X97447960Y-64656750D01*
X97230938Y-64656750D01*
X97230938Y-64628467D01*
X97209291Y-64576207D01*
X97169293Y-64536209D01*
X97117033Y-64514562D01*
X97060467Y-64514562D01*
X97008207Y-64536209D01*
X96968209Y-64576207D01*
X96946562Y-64628467D01*
X96701257Y-64628467D01*
X96520000Y-64447210D01*
X96310460Y-64656750D01*
X96093438Y-64656750D01*
X96093438Y-64628467D01*
X96071791Y-64576207D01*
X96031793Y-64536209D01*
X95979533Y-64514562D01*
X95922967Y-64514562D01*
X95870707Y-64536209D01*
X95830709Y-64576207D01*
X95809062Y-64628467D01*
X95563757Y-64628467D01*
X95382500Y-64447210D01*
X95172960Y-64656750D01*
X94955938Y-64656750D01*
X94955938Y-64628467D01*
X94934291Y-64576207D01*
X94894293Y-64536209D01*
X94842033Y-64514562D01*
X94785467Y-64514562D01*
X94733207Y-64536209D01*
X94693209Y-64576207D01*
X94671562Y-64628467D01*
X94426257Y-64628467D01*
X94245000Y-64447210D01*
X94035460Y-64656750D01*
X93818438Y-64656750D01*
X93818438Y-64628467D01*
X93796791Y-64576207D01*
X93756793Y-64536209D01*
X93704533Y-64514562D01*
X93647967Y-64514562D01*
X93595707Y-64536209D01*
X93555709Y-64576207D01*
X93534062Y-64628467D01*
X93288757Y-64628467D01*
X93107500Y-64447210D01*
X92897960Y-64656750D01*
X92680938Y-64656750D01*
X92680938Y-64628467D01*
X92659291Y-64576207D01*
X92619293Y-64536209D01*
X92567033Y-64514562D01*
X92510467Y-64514562D01*
X92458207Y-64536209D01*
X92418209Y-64576207D01*
X92396562Y-64628467D01*
X92151257Y-64628467D01*
X91825435Y-64302645D01*
X91825434Y-64302645D01*
X91820327Y-64310776D01*
X91761353Y-64479313D01*
X91761352Y-64479316D01*
X91741361Y-64656749D01*
X89865700Y-64656749D01*
X89865700Y-63943434D01*
X92184645Y-63943434D01*
X92184645Y-63943435D01*
X92538749Y-64297539D01*
X92892853Y-63943435D01*
X92892851Y-63943434D01*
X93322145Y-63943434D01*
X93322145Y-63943435D01*
X93676249Y-64297539D01*
X94030353Y-63943435D01*
X94030351Y-63943434D01*
X94459645Y-63943434D01*
X94459645Y-63943435D01*
X94813749Y-64297539D01*
X95167853Y-63943435D01*
X95167851Y-63943434D01*
X95597145Y-63943434D01*
X95597145Y-63943435D01*
X95951249Y-64297539D01*
X96305353Y-63943435D01*
X96305351Y-63943434D01*
X96734645Y-63943434D01*
X96734645Y-63943435D01*
X97088749Y-64297539D01*
X97442853Y-63943435D01*
X97442851Y-63943434D01*
X97872145Y-63943434D01*
X97872145Y-63943435D01*
X98226249Y-64297539D01*
X98580353Y-63943435D01*
X98580351Y-63943434D01*
X99009645Y-63943434D01*
X99009645Y-63943435D01*
X99363749Y-64297539D01*
X99717853Y-63943435D01*
X99717851Y-63943434D01*
X100147145Y-63943434D01*
X100147145Y-63943435D01*
X100501249Y-64297539D01*
X100855353Y-63943435D01*
X100847222Y-63938326D01*
X100847218Y-63938324D01*
X100678686Y-63879353D01*
X100678683Y-63879352D01*
X100501250Y-63859361D01*
X100323816Y-63879352D01*
X100323813Y-63879353D01*
X100155276Y-63938327D01*
X100147145Y-63943434D01*
X99717851Y-63943434D01*
X99709722Y-63938326D01*
X99709718Y-63938324D01*
X99541186Y-63879353D01*
X99541183Y-63879352D01*
X99363750Y-63859361D01*
X99186316Y-63879352D01*
X99186313Y-63879353D01*
X99017776Y-63938327D01*
X99009645Y-63943434D01*
X98580351Y-63943434D01*
X98572222Y-63938326D01*
X98572218Y-63938324D01*
X98403686Y-63879353D01*
X98403683Y-63879352D01*
X98226250Y-63859361D01*
X98048816Y-63879352D01*
X98048813Y-63879353D01*
X97880276Y-63938327D01*
X97872145Y-63943434D01*
X97442851Y-63943434D01*
X97434722Y-63938326D01*
X97434718Y-63938324D01*
X97266186Y-63879353D01*
X97266183Y-63879352D01*
X97088750Y-63859361D01*
X96911316Y-63879352D01*
X96911313Y-63879353D01*
X96742776Y-63938327D01*
X96734645Y-63943434D01*
X96305351Y-63943434D01*
X96297222Y-63938326D01*
X96297218Y-63938324D01*
X96128686Y-63879353D01*
X96128683Y-63879352D01*
X95951250Y-63859361D01*
X95773816Y-63879352D01*
X95773813Y-63879353D01*
X95605276Y-63938327D01*
X95597145Y-63943434D01*
X95167851Y-63943434D01*
X95159722Y-63938326D01*
X95159718Y-63938324D01*
X94991186Y-63879353D01*
X94991183Y-63879352D01*
X94813750Y-63859361D01*
X94636316Y-63879352D01*
X94636313Y-63879353D01*
X94467776Y-63938327D01*
X94459645Y-63943434D01*
X94030351Y-63943434D01*
X94022222Y-63938326D01*
X94022218Y-63938324D01*
X93853686Y-63879353D01*
X93853683Y-63879352D01*
X93676250Y-63859361D01*
X93498816Y-63879352D01*
X93498813Y-63879353D01*
X93330276Y-63938327D01*
X93322145Y-63943434D01*
X92892851Y-63943434D01*
X92884722Y-63938326D01*
X92884718Y-63938324D01*
X92716186Y-63879353D01*
X92716183Y-63879352D01*
X92538750Y-63859361D01*
X92361316Y-63879352D01*
X92361313Y-63879353D01*
X92192776Y-63938327D01*
X92184645Y-63943434D01*
X89865700Y-63943434D01*
X89865700Y-61547555D01*
X89884006Y-61503361D01*
X89928200Y-61485055D01*
X89972394Y-61503361D01*
X89977785Y-61509508D01*
X90029219Y-61576539D01*
X90043218Y-61594782D01*
X90154746Y-61680361D01*
X90284624Y-61734158D01*
X90284628Y-61734158D01*
X90284630Y-61734159D01*
X90423998Y-61752507D01*
X90424000Y-61752507D01*
X90424002Y-61752507D01*
X90563369Y-61734159D01*
X90563369Y-61734158D01*
X90563376Y-61734158D01*
X90693254Y-61680361D01*
X90804782Y-61594782D01*
X90890361Y-61483254D01*
X90944158Y-61353376D01*
X90954092Y-61277922D01*
X90962507Y-61214001D01*
X90962507Y-61213998D01*
X90944159Y-61074630D01*
X90944158Y-61074628D01*
X90944158Y-61074624D01*
X90890361Y-60944747D01*
X90804782Y-60833218D01*
X90804779Y-60833216D01*
X90804778Y-60833214D01*
X90779152Y-60813550D01*
X90755235Y-60772123D01*
X90754700Y-60763966D01*
X90754700Y-60639735D01*
X90773006Y-60595541D01*
X90817200Y-60577235D01*
X90850990Y-60587157D01*
X90930943Y-60638540D01*
X90972589Y-60665304D01*
X91112886Y-60706499D01*
X91112888Y-60706500D01*
X91112889Y-60706500D01*
X91259112Y-60706500D01*
X91259112Y-60706499D01*
X91399411Y-60665304D01*
X91445577Y-60635634D01*
X91522419Y-60586252D01*
X91522421Y-60586250D01*
X91618176Y-60475743D01*
X91678919Y-60342734D01*
X91699729Y-60198000D01*
X91942271Y-60198000D01*
X91963080Y-60342732D01*
X91963081Y-60342735D01*
X92023823Y-60475741D01*
X92023826Y-60475746D01*
X92119580Y-60586252D01*
X92242584Y-60665301D01*
X92242589Y-60665304D01*
X92382886Y-60706499D01*
X92382888Y-60706500D01*
X92382889Y-60706500D01*
X92529112Y-60706500D01*
X92529112Y-60706499D01*
X92669411Y-60665304D01*
X92715577Y-60635634D01*
X92792419Y-60586252D01*
X92792421Y-60586250D01*
X92888176Y-60475743D01*
X92948919Y-60342734D01*
X92969729Y-60198000D01*
X93212271Y-60198000D01*
X93233080Y-60342732D01*
X93233081Y-60342735D01*
X93293823Y-60475741D01*
X93293826Y-60475746D01*
X93389580Y-60586252D01*
X93512584Y-60665301D01*
X93512589Y-60665304D01*
X93652886Y-60706499D01*
X93652888Y-60706500D01*
X93652889Y-60706500D01*
X93799112Y-60706500D01*
X93799112Y-60706499D01*
X93939411Y-60665304D01*
X93985577Y-60635634D01*
X94062419Y-60586252D01*
X94062421Y-60586250D01*
X94158176Y-60475743D01*
X94218919Y-60342734D01*
X94239729Y-60198000D01*
X94218919Y-60053266D01*
X94158176Y-59920257D01*
X94158173Y-59920253D01*
X94062419Y-59809747D01*
X93939415Y-59730698D01*
X93939406Y-59730694D01*
X93799113Y-59689500D01*
X93799111Y-59689500D01*
X93652889Y-59689500D01*
X93652887Y-59689500D01*
X93512593Y-59730694D01*
X93512584Y-59730698D01*
X93389580Y-59809747D01*
X93293826Y-59920253D01*
X93293823Y-59920258D01*
X93233081Y-60053264D01*
X93233080Y-60053267D01*
X93212271Y-60198000D01*
X92969729Y-60198000D01*
X92948919Y-60053266D01*
X92888176Y-59920257D01*
X92888173Y-59920253D01*
X92792419Y-59809747D01*
X92669415Y-59730698D01*
X92669406Y-59730694D01*
X92529113Y-59689500D01*
X92529111Y-59689500D01*
X92382889Y-59689500D01*
X92382887Y-59689500D01*
X92242593Y-59730694D01*
X92242584Y-59730698D01*
X92119580Y-59809747D01*
X92023826Y-59920253D01*
X92023823Y-59920258D01*
X91963081Y-60053264D01*
X91963080Y-60053267D01*
X91942271Y-60198000D01*
X91699729Y-60198000D01*
X91678919Y-60053266D01*
X91618176Y-59920257D01*
X91618173Y-59920253D01*
X91522419Y-59809747D01*
X91399415Y-59730698D01*
X91399406Y-59730694D01*
X91259113Y-59689500D01*
X91254688Y-59688864D01*
X91254927Y-59687196D01*
X91216296Y-59671194D01*
X91197990Y-59627000D01*
X91216296Y-59582806D01*
X92246896Y-58552207D01*
X92291090Y-58533901D01*
X93478336Y-58533901D01*
X93478337Y-58533901D01*
X93562445Y-58511365D01*
X93637854Y-58467827D01*
X93699425Y-58406256D01*
X93699425Y-58406254D01*
X93704566Y-58401114D01*
X93704570Y-58401109D01*
X94164699Y-57940979D01*
X94208892Y-57922674D01*
X94236189Y-57929510D01*
X94236282Y-57929287D01*
X94237788Y-57929911D01*
X94238349Y-57930051D01*
X94239117Y-57930462D01*
X94423376Y-57986357D01*
X94615000Y-58005230D01*
X94806624Y-57986357D01*
X94990883Y-57930462D01*
X95160698Y-57839694D01*
X95309541Y-57717541D01*
X95431694Y-57568698D01*
X95522462Y-57398883D01*
X95578357Y-57214624D01*
X95597230Y-57023000D01*
X95578357Y-56831376D01*
X95522462Y-56647117D01*
X95522051Y-56646349D01*
X95522023Y-56646059D01*
X95521287Y-56644282D01*
X95521826Y-56644058D01*
X95517366Y-56598745D01*
X95532978Y-56572700D01*
X95955157Y-56150522D01*
X95999349Y-56132217D01*
X96043543Y-56150523D01*
X96061849Y-56194717D01*
X96051672Y-56228901D01*
X95956585Y-56374441D01*
X95956583Y-56374445D01*
X95866179Y-56580544D01*
X95866178Y-56580548D01*
X95818457Y-56769000D01*
X96724297Y-56769000D01*
X96689075Y-56830007D01*
X96655000Y-56957174D01*
X96655000Y-57088826D01*
X96689075Y-57215993D01*
X96724297Y-57277000D01*
X95818457Y-57277000D01*
X95866178Y-57465451D01*
X95866179Y-57465455D01*
X95956583Y-57671554D01*
X95956585Y-57671557D01*
X96079674Y-57859957D01*
X96079677Y-57859962D01*
X96232101Y-58025538D01*
X96232104Y-58025541D01*
X96409697Y-58163767D01*
X96409699Y-58163768D01*
X96607627Y-58270880D01*
X96607628Y-58270881D01*
X96820487Y-58343956D01*
X96901000Y-58357391D01*
X96901000Y-57453702D01*
X96962007Y-57488925D01*
X97089174Y-57523000D01*
X97220826Y-57523000D01*
X97347993Y-57488925D01*
X97409000Y-57453702D01*
X97409000Y-58357391D01*
X97489512Y-58343956D01*
X97702371Y-58270881D01*
X97702372Y-58270880D01*
X97900300Y-58163768D01*
X97900302Y-58163767D01*
X98077895Y-58025541D01*
X98077898Y-58025538D01*
X98230322Y-57859962D01*
X98230325Y-57859957D01*
X98353414Y-57671557D01*
X98353416Y-57671554D01*
X98443820Y-57465455D01*
X98443821Y-57465451D01*
X98491543Y-57277000D01*
X97585703Y-57277000D01*
X97620925Y-57215993D01*
X97655000Y-57088826D01*
X97655000Y-57022999D01*
X98712770Y-57022999D01*
X98712770Y-57023000D01*
X98731642Y-57214622D01*
X98731643Y-57214624D01*
X98787538Y-57398883D01*
X98789178Y-57401951D01*
X98878302Y-57568692D01*
X98878306Y-57568698D01*
X99000459Y-57717541D01*
X99149302Y-57839694D01*
X99149304Y-57839695D01*
X99149307Y-57839697D01*
X99153154Y-57841753D01*
X99319117Y-57930462D01*
X99503376Y-57986357D01*
X99695000Y-58005230D01*
X99886624Y-57986357D01*
X100070883Y-57930462D01*
X100240698Y-57839694D01*
X100389541Y-57717541D01*
X100511694Y-57568698D01*
X100602462Y-57398883D01*
X100658357Y-57214624D01*
X100677230Y-57023000D01*
X100658357Y-56831376D01*
X100602462Y-56647117D01*
X100511694Y-56477302D01*
X100389541Y-56328459D01*
X100240698Y-56206306D01*
X100240692Y-56206302D01*
X100102087Y-56132217D01*
X100070883Y-56115538D01*
X99953111Y-56079811D01*
X99886622Y-56059642D01*
X99695000Y-56040770D01*
X99503377Y-56059642D01*
X99385604Y-56095369D01*
X99319117Y-56115538D01*
X99319115Y-56115538D01*
X99319115Y-56115539D01*
X99149307Y-56206302D01*
X99149301Y-56206306D01*
X99000459Y-56328459D01*
X98878306Y-56477301D01*
X98878302Y-56477307D01*
X98787947Y-56646351D01*
X98787538Y-56647117D01*
X98775571Y-56686568D01*
X98731642Y-56831377D01*
X98712770Y-57022999D01*
X97655000Y-57022999D01*
X97655000Y-56957174D01*
X97620925Y-56830007D01*
X97585703Y-56769000D01*
X98491543Y-56769000D01*
X98443821Y-56580548D01*
X98443820Y-56580544D01*
X98353416Y-56374445D01*
X98353414Y-56374442D01*
X98230325Y-56186042D01*
X98230322Y-56186037D01*
X98077898Y-56020461D01*
X98077895Y-56020458D01*
X97900302Y-55882232D01*
X97900300Y-55882231D01*
X97702372Y-55775119D01*
X97702371Y-55775118D01*
X97489507Y-55702041D01*
X97409000Y-55688606D01*
X97409000Y-56592297D01*
X97347993Y-56557075D01*
X97220826Y-56523000D01*
X97089174Y-56523000D01*
X96962007Y-56557075D01*
X96901000Y-56592297D01*
X96901000Y-55688606D01*
X96820492Y-55702041D01*
X96607628Y-55775118D01*
X96607627Y-55775119D01*
X96409699Y-55882231D01*
X96409698Y-55882232D01*
X96363890Y-55917885D01*
X96317771Y-55930583D01*
X96276181Y-55906950D01*
X96263483Y-55860831D01*
X96281307Y-55824372D01*
X96704700Y-55400979D01*
X96748893Y-55382674D01*
X96776184Y-55389512D01*
X96776278Y-55389286D01*
X96777806Y-55389919D01*
X96778361Y-55390058D01*
X96779117Y-55390462D01*
X96963376Y-55446357D01*
X97155000Y-55465230D01*
X97346624Y-55446357D01*
X97530883Y-55390462D01*
X97700698Y-55299694D01*
X97849541Y-55177541D01*
X97971694Y-55028698D01*
X98062462Y-54858883D01*
X98118357Y-54674624D01*
X98137230Y-54483000D01*
X98118357Y-54291376D01*
X98062462Y-54107117D01*
X98062051Y-54106349D01*
X98062023Y-54106059D01*
X98061287Y-54104282D01*
X98061826Y-54104058D01*
X98057366Y-54058745D01*
X98072978Y-54032700D01*
X98453875Y-53651805D01*
X98498069Y-53633499D01*
X99014602Y-53633499D01*
X99058796Y-53651805D01*
X99077102Y-53695999D01*
X99058796Y-53740193D01*
X99054252Y-53744312D01*
X99000459Y-53788459D01*
X98878306Y-53937301D01*
X98878302Y-53937307D01*
X98787539Y-54107115D01*
X98731642Y-54291377D01*
X98712770Y-54482999D01*
X98712770Y-54483000D01*
X98731642Y-54674622D01*
X98731643Y-54674624D01*
X98787538Y-54858883D01*
X98821112Y-54921695D01*
X98878302Y-55028692D01*
X98878306Y-55028698D01*
X99000459Y-55177541D01*
X99149302Y-55299694D01*
X99149304Y-55299695D01*
X99149307Y-55299697D01*
X99177202Y-55314607D01*
X99319117Y-55390462D01*
X99503376Y-55446357D01*
X99695000Y-55465230D01*
X99886624Y-55446357D01*
X100070883Y-55390462D01*
X100240698Y-55299694D01*
X100389541Y-55177541D01*
X100511694Y-55028698D01*
X100602462Y-54858883D01*
X100658357Y-54674624D01*
X100677230Y-54483000D01*
X100658357Y-54291376D01*
X100602462Y-54107117D01*
X100511694Y-53937302D01*
X100389541Y-53788459D01*
X100335747Y-53744311D01*
X100313199Y-53702125D01*
X100327085Y-53656349D01*
X100369272Y-53633800D01*
X100375398Y-53633499D01*
X101554602Y-53633499D01*
X101598796Y-53651805D01*
X101617102Y-53695999D01*
X101598796Y-53740193D01*
X101594252Y-53744312D01*
X101540459Y-53788459D01*
X101418306Y-53937301D01*
X101418302Y-53937307D01*
X101327539Y-54107115D01*
X101271642Y-54291377D01*
X101252770Y-54482999D01*
X101252770Y-54483000D01*
X101271642Y-54674622D01*
X101271643Y-54674624D01*
X101327538Y-54858883D01*
X101361112Y-54921695D01*
X101418302Y-55028692D01*
X101418306Y-55028698D01*
X101540459Y-55177541D01*
X101689302Y-55299694D01*
X101689304Y-55299695D01*
X101689307Y-55299697D01*
X101717202Y-55314607D01*
X101859117Y-55390462D01*
X102043376Y-55446357D01*
X102235000Y-55465230D01*
X102426624Y-55446357D01*
X102610883Y-55390462D01*
X102780698Y-55299694D01*
X102929541Y-55177541D01*
X103051694Y-55028698D01*
X103142462Y-54858883D01*
X103198357Y-54674624D01*
X103217230Y-54483000D01*
X103198357Y-54291376D01*
X103142462Y-54107117D01*
X103051694Y-53937302D01*
X102929541Y-53788459D01*
X102875747Y-53744311D01*
X102853199Y-53702125D01*
X102867085Y-53656349D01*
X102909272Y-53633800D01*
X102915398Y-53633499D01*
X104094602Y-53633499D01*
X104138796Y-53651805D01*
X104157102Y-53695999D01*
X104138796Y-53740193D01*
X104134252Y-53744312D01*
X104080459Y-53788459D01*
X103958306Y-53937301D01*
X103958302Y-53937307D01*
X103867539Y-54107115D01*
X103811642Y-54291377D01*
X103792770Y-54482999D01*
X103792770Y-54483000D01*
X103811642Y-54674622D01*
X103867538Y-54858883D01*
X103867949Y-54859651D01*
X103867977Y-54859942D01*
X103868713Y-54861718D01*
X103868174Y-54861941D01*
X103872630Y-54907257D01*
X103857018Y-54933299D01*
X102685300Y-56105018D01*
X102641106Y-56123324D01*
X102613819Y-56116490D01*
X102613727Y-56116715D01*
X102612212Y-56116087D01*
X102611646Y-56115946D01*
X102610885Y-56115539D01*
X102610884Y-56115538D01*
X102610883Y-56115538D01*
X102518753Y-56087590D01*
X102426622Y-56059642D01*
X102235000Y-56040770D01*
X102043377Y-56059642D01*
X101925604Y-56095369D01*
X101859117Y-56115538D01*
X101859115Y-56115538D01*
X101859115Y-56115539D01*
X101689307Y-56206302D01*
X101689301Y-56206306D01*
X101540459Y-56328459D01*
X101418306Y-56477301D01*
X101418302Y-56477307D01*
X101327947Y-56646351D01*
X101327538Y-56647117D01*
X101315571Y-56686568D01*
X101271642Y-56831377D01*
X101252770Y-57022999D01*
X101252770Y-57023000D01*
X101271642Y-57214622D01*
X101271643Y-57214624D01*
X101327538Y-57398883D01*
X101329178Y-57401951D01*
X101418302Y-57568692D01*
X101418306Y-57568698D01*
X101540459Y-57717541D01*
X101689302Y-57839694D01*
X101689304Y-57839695D01*
X101689307Y-57839697D01*
X101693154Y-57841753D01*
X101859117Y-57930462D01*
X102043376Y-57986357D01*
X102235000Y-58005230D01*
X102426624Y-57986357D01*
X102610883Y-57930462D01*
X102780698Y-57839694D01*
X102929541Y-57717541D01*
X103051694Y-57568698D01*
X103142462Y-57398883D01*
X103198357Y-57214624D01*
X103217230Y-57023000D01*
X103198357Y-56831376D01*
X103142462Y-56647117D01*
X103142051Y-56646349D01*
X103142023Y-56646059D01*
X103141287Y-56644282D01*
X103141826Y-56644058D01*
X103137366Y-56598745D01*
X103152978Y-56572700D01*
X104324700Y-55400979D01*
X104368893Y-55382674D01*
X104396184Y-55389512D01*
X104396278Y-55389286D01*
X104397806Y-55389919D01*
X104398361Y-55390058D01*
X104399117Y-55390462D01*
X104583376Y-55446357D01*
X104775000Y-55465230D01*
X104966624Y-55446357D01*
X105150883Y-55390462D01*
X105151630Y-55390062D01*
X105151914Y-55390034D01*
X105153722Y-55389286D01*
X105153948Y-55389833D01*
X105199231Y-55385360D01*
X105225300Y-55400980D01*
X105606195Y-55781875D01*
X105624501Y-55826069D01*
X105624501Y-56342602D01*
X105606195Y-56386796D01*
X105562001Y-56405102D01*
X105517807Y-56386796D01*
X105513688Y-56382252D01*
X105469541Y-56328459D01*
X105320698Y-56206306D01*
X105320692Y-56206302D01*
X105182087Y-56132217D01*
X105150883Y-56115538D01*
X105033111Y-56079811D01*
X104966622Y-56059642D01*
X104775000Y-56040770D01*
X104583377Y-56059642D01*
X104465604Y-56095369D01*
X104399117Y-56115538D01*
X104399115Y-56115538D01*
X104399115Y-56115539D01*
X104229307Y-56206302D01*
X104229301Y-56206306D01*
X104080459Y-56328459D01*
X103958306Y-56477301D01*
X103958302Y-56477307D01*
X103867947Y-56646351D01*
X103867538Y-56647117D01*
X103855571Y-56686568D01*
X103811642Y-56831377D01*
X103792770Y-57022999D01*
X103792770Y-57023000D01*
X103811642Y-57214622D01*
X103811643Y-57214624D01*
X103866796Y-57396438D01*
X103867539Y-57398885D01*
X103867946Y-57399646D01*
X103867974Y-57399939D01*
X103868715Y-57401727D01*
X103868172Y-57401951D01*
X103872632Y-57447252D01*
X103857018Y-57473300D01*
X103348224Y-57982095D01*
X102844746Y-58485573D01*
X102844744Y-58485575D01*
X102818955Y-58511364D01*
X102783173Y-58547145D01*
X102783172Y-58547146D01*
X102739635Y-58622552D01*
X102739634Y-58622555D01*
X102717100Y-58706656D01*
X102717099Y-58706664D01*
X102717099Y-68592535D01*
X102717100Y-68592543D01*
X102739634Y-68676644D01*
X102739635Y-68676647D01*
X102783172Y-68752053D01*
X102783177Y-68752059D01*
X102848299Y-68817181D01*
X102848313Y-68817193D01*
X103155994Y-69124874D01*
X103174300Y-69169068D01*
X103174300Y-70216463D01*
X103167490Y-70244832D01*
X103165961Y-70247832D01*
X103165957Y-70247843D01*
X103148511Y-70357996D01*
X103148511Y-70357997D01*
X103165959Y-70468163D01*
X103165960Y-70468164D01*
X103167487Y-70471161D01*
X103174300Y-70499536D01*
X103174300Y-74640132D01*
X103155994Y-74684326D01*
X102497326Y-75342994D01*
X102453132Y-75361300D01*
X91602868Y-75361300D01*
X91558674Y-75342994D01*
X89757006Y-73541326D01*
X89738700Y-73497132D01*
X89738700Y-73332564D01*
X92184645Y-73332564D01*
X92192769Y-73337669D01*
X92192770Y-73337670D01*
X92361316Y-73396647D01*
X92538750Y-73416639D01*
X92716183Y-73396647D01*
X92716186Y-73396646D01*
X92884725Y-73337672D01*
X92892851Y-73332564D01*
X93322145Y-73332564D01*
X93330269Y-73337669D01*
X93330270Y-73337670D01*
X93498816Y-73396647D01*
X93676250Y-73416639D01*
X93853683Y-73396647D01*
X93853686Y-73396646D01*
X94022225Y-73337672D01*
X94030351Y-73332564D01*
X94459645Y-73332564D01*
X94467769Y-73337669D01*
X94467770Y-73337670D01*
X94636316Y-73396647D01*
X94813750Y-73416639D01*
X94991183Y-73396647D01*
X94991186Y-73396646D01*
X95159725Y-73337672D01*
X95167851Y-73332564D01*
X95597144Y-73332564D01*
X95605269Y-73337669D01*
X95605270Y-73337670D01*
X95773816Y-73396647D01*
X95951250Y-73416639D01*
X96128683Y-73396647D01*
X96128686Y-73396646D01*
X96297225Y-73337672D01*
X96305351Y-73332564D01*
X96734645Y-73332564D01*
X96742769Y-73337669D01*
X96742770Y-73337670D01*
X96911316Y-73396647D01*
X97088750Y-73416639D01*
X97266183Y-73396647D01*
X97266186Y-73396646D01*
X97434725Y-73337672D01*
X97442851Y-73332564D01*
X97872144Y-73332564D01*
X97880269Y-73337669D01*
X97880270Y-73337670D01*
X98048816Y-73396647D01*
X98226250Y-73416639D01*
X98403683Y-73396647D01*
X98403686Y-73396646D01*
X98572225Y-73337672D01*
X98580351Y-73332564D01*
X99009645Y-73332564D01*
X99017769Y-73337669D01*
X99017770Y-73337670D01*
X99186316Y-73396647D01*
X99363750Y-73416639D01*
X99541183Y-73396647D01*
X99541186Y-73396646D01*
X99709725Y-73337672D01*
X99717851Y-73332564D01*
X100147145Y-73332564D01*
X100155269Y-73337669D01*
X100155270Y-73337670D01*
X100323816Y-73396647D01*
X100501250Y-73416639D01*
X100678683Y-73396647D01*
X100678686Y-73396646D01*
X100847225Y-73337672D01*
X100855353Y-73332563D01*
X100501250Y-72978460D01*
X100147145Y-73332564D01*
X99717851Y-73332564D01*
X99717853Y-73332563D01*
X99363750Y-72978460D01*
X99009645Y-73332564D01*
X98580351Y-73332564D01*
X98580353Y-73332563D01*
X98226250Y-72978460D01*
X97872144Y-73332564D01*
X97442851Y-73332564D01*
X97442853Y-73332563D01*
X97088750Y-72978460D01*
X96734645Y-73332564D01*
X96305351Y-73332564D01*
X96305353Y-73332563D01*
X95951250Y-72978460D01*
X95597144Y-73332564D01*
X95167851Y-73332564D01*
X95167853Y-73332563D01*
X94813750Y-72978460D01*
X94459645Y-73332564D01*
X94030351Y-73332564D01*
X94030353Y-73332563D01*
X93676250Y-72978460D01*
X93322145Y-73332564D01*
X92892851Y-73332564D01*
X92892853Y-73332563D01*
X92538750Y-72978460D01*
X92184645Y-73332564D01*
X89738700Y-73332564D01*
X89738700Y-72619249D01*
X91741361Y-72619249D01*
X91741361Y-72619250D01*
X91761352Y-72796683D01*
X91761353Y-72796686D01*
X91820324Y-72965218D01*
X91820326Y-72965222D01*
X91825435Y-72973353D01*
X92179539Y-72619249D01*
X92151257Y-72590967D01*
X92396562Y-72590967D01*
X92396562Y-72647533D01*
X92418209Y-72699793D01*
X92458207Y-72739791D01*
X92510467Y-72761438D01*
X92567033Y-72761438D01*
X92619293Y-72739791D01*
X92659291Y-72699793D01*
X92680938Y-72647533D01*
X92680938Y-72619250D01*
X92897960Y-72619250D01*
X93107500Y-72828790D01*
X93317040Y-72619250D01*
X93288757Y-72590967D01*
X93534062Y-72590967D01*
X93534062Y-72647533D01*
X93555709Y-72699793D01*
X93595707Y-72739791D01*
X93647967Y-72761438D01*
X93704533Y-72761438D01*
X93756793Y-72739791D01*
X93796791Y-72699793D01*
X93818438Y-72647533D01*
X93818438Y-72619250D01*
X94035460Y-72619250D01*
X94245000Y-72828790D01*
X94454540Y-72619250D01*
X94426257Y-72590967D01*
X94671562Y-72590967D01*
X94671562Y-72647533D01*
X94693209Y-72699793D01*
X94733207Y-72739791D01*
X94785467Y-72761438D01*
X94842033Y-72761438D01*
X94894293Y-72739791D01*
X94934291Y-72699793D01*
X94955938Y-72647533D01*
X94955938Y-72619250D01*
X95172960Y-72619250D01*
X95382500Y-72828790D01*
X95592040Y-72619250D01*
X95563757Y-72590967D01*
X95809062Y-72590967D01*
X95809062Y-72647533D01*
X95830709Y-72699793D01*
X95870707Y-72739791D01*
X95922967Y-72761438D01*
X95979533Y-72761438D01*
X96031793Y-72739791D01*
X96071791Y-72699793D01*
X96093438Y-72647533D01*
X96093438Y-72619250D01*
X96310460Y-72619250D01*
X96520000Y-72828790D01*
X96729540Y-72619250D01*
X96701257Y-72590967D01*
X96946562Y-72590967D01*
X96946562Y-72647533D01*
X96968209Y-72699793D01*
X97008207Y-72739791D01*
X97060467Y-72761438D01*
X97117033Y-72761438D01*
X97169293Y-72739791D01*
X97209291Y-72699793D01*
X97230938Y-72647533D01*
X97230938Y-72619250D01*
X97447960Y-72619250D01*
X97657500Y-72828790D01*
X97867040Y-72619250D01*
X97838757Y-72590967D01*
X98084062Y-72590967D01*
X98084062Y-72647533D01*
X98105709Y-72699793D01*
X98145707Y-72739791D01*
X98197967Y-72761438D01*
X98254533Y-72761438D01*
X98306793Y-72739791D01*
X98346791Y-72699793D01*
X98368438Y-72647533D01*
X98368438Y-72619250D01*
X98585460Y-72619250D01*
X98795000Y-72828790D01*
X99004540Y-72619250D01*
X98976257Y-72590967D01*
X99221562Y-72590967D01*
X99221562Y-72647533D01*
X99243209Y-72699793D01*
X99283207Y-72739791D01*
X99335467Y-72761438D01*
X99392033Y-72761438D01*
X99444293Y-72739791D01*
X99484291Y-72699793D01*
X99505938Y-72647533D01*
X99505938Y-72619250D01*
X99722960Y-72619250D01*
X99932500Y-72828790D01*
X100142040Y-72619250D01*
X100113757Y-72590967D01*
X100359062Y-72590967D01*
X100359062Y-72647533D01*
X100380709Y-72699793D01*
X100420707Y-72739791D01*
X100472967Y-72761438D01*
X100529533Y-72761438D01*
X100581793Y-72739791D01*
X100621791Y-72699793D01*
X100643438Y-72647533D01*
X100643438Y-72619249D01*
X100860460Y-72619249D01*
X100860460Y-72619250D01*
X101214563Y-72973353D01*
X101219672Y-72965225D01*
X101278646Y-72796686D01*
X101278647Y-72796683D01*
X101298639Y-72619250D01*
X101298639Y-72619249D01*
X101278647Y-72441816D01*
X101219670Y-72273270D01*
X101219669Y-72273269D01*
X101214564Y-72265145D01*
X100860460Y-72619249D01*
X100643438Y-72619249D01*
X100643438Y-72590967D01*
X100621791Y-72538707D01*
X100581793Y-72498709D01*
X100529533Y-72477062D01*
X100472967Y-72477062D01*
X100420707Y-72498709D01*
X100380709Y-72538707D01*
X100359062Y-72590967D01*
X100113757Y-72590967D01*
X99932500Y-72409710D01*
X99722960Y-72619250D01*
X99505938Y-72619250D01*
X99505938Y-72590967D01*
X99484291Y-72538707D01*
X99444293Y-72498709D01*
X99392033Y-72477062D01*
X99335467Y-72477062D01*
X99283207Y-72498709D01*
X99243209Y-72538707D01*
X99221562Y-72590967D01*
X98976257Y-72590967D01*
X98795000Y-72409710D01*
X98585460Y-72619250D01*
X98368438Y-72619250D01*
X98368438Y-72590967D01*
X98346791Y-72538707D01*
X98306793Y-72498709D01*
X98254533Y-72477062D01*
X98197967Y-72477062D01*
X98145707Y-72498709D01*
X98105709Y-72538707D01*
X98084062Y-72590967D01*
X97838757Y-72590967D01*
X97657500Y-72409710D01*
X97447960Y-72619250D01*
X97230938Y-72619250D01*
X97230938Y-72590967D01*
X97209291Y-72538707D01*
X97169293Y-72498709D01*
X97117033Y-72477062D01*
X97060467Y-72477062D01*
X97008207Y-72498709D01*
X96968209Y-72538707D01*
X96946562Y-72590967D01*
X96701257Y-72590967D01*
X96520000Y-72409710D01*
X96310460Y-72619250D01*
X96093438Y-72619250D01*
X96093438Y-72590967D01*
X96071791Y-72538707D01*
X96031793Y-72498709D01*
X95979533Y-72477062D01*
X95922967Y-72477062D01*
X95870707Y-72498709D01*
X95830709Y-72538707D01*
X95809062Y-72590967D01*
X95563757Y-72590967D01*
X95382500Y-72409710D01*
X95172960Y-72619250D01*
X94955938Y-72619250D01*
X94955938Y-72590967D01*
X94934291Y-72538707D01*
X94894293Y-72498709D01*
X94842033Y-72477062D01*
X94785467Y-72477062D01*
X94733207Y-72498709D01*
X94693209Y-72538707D01*
X94671562Y-72590967D01*
X94426257Y-72590967D01*
X94245000Y-72409710D01*
X94035460Y-72619250D01*
X93818438Y-72619250D01*
X93818438Y-72590967D01*
X93796791Y-72538707D01*
X93756793Y-72498709D01*
X93704533Y-72477062D01*
X93647967Y-72477062D01*
X93595707Y-72498709D01*
X93555709Y-72538707D01*
X93534062Y-72590967D01*
X93288757Y-72590967D01*
X93107500Y-72409710D01*
X92897960Y-72619250D01*
X92680938Y-72619250D01*
X92680938Y-72590967D01*
X92659291Y-72538707D01*
X92619293Y-72498709D01*
X92567033Y-72477062D01*
X92510467Y-72477062D01*
X92458207Y-72498709D01*
X92418209Y-72538707D01*
X92396562Y-72590967D01*
X92151257Y-72590967D01*
X91825435Y-72265145D01*
X91825434Y-72265145D01*
X91820327Y-72273276D01*
X91761353Y-72441813D01*
X91761352Y-72441816D01*
X91741361Y-72619249D01*
X89738700Y-72619249D01*
X89738700Y-72050500D01*
X92329210Y-72050500D01*
X92538750Y-72260040D01*
X92748290Y-72050500D01*
X93466710Y-72050500D01*
X93676250Y-72260040D01*
X93885790Y-72050500D01*
X94604210Y-72050500D01*
X94813750Y-72260040D01*
X95023290Y-72050500D01*
X95741710Y-72050500D01*
X95951250Y-72260040D01*
X96160790Y-72050500D01*
X96879210Y-72050500D01*
X97088750Y-72260040D01*
X97298290Y-72050500D01*
X98016710Y-72050500D01*
X98226250Y-72260040D01*
X98435790Y-72050500D01*
X99154210Y-72050500D01*
X99363750Y-72260040D01*
X99573290Y-72050500D01*
X100291710Y-72050500D01*
X100501250Y-72260040D01*
X100710790Y-72050500D01*
X100501250Y-71840960D01*
X100291710Y-72050500D01*
X99573290Y-72050500D01*
X99363750Y-71840960D01*
X99154210Y-72050500D01*
X98435790Y-72050500D01*
X98226250Y-71840960D01*
X98016710Y-72050500D01*
X97298290Y-72050500D01*
X97088750Y-71840960D01*
X96879210Y-72050500D01*
X96160790Y-72050500D01*
X95951250Y-71840960D01*
X95741710Y-72050500D01*
X95023290Y-72050500D01*
X94813750Y-71840960D01*
X94604210Y-72050500D01*
X93885790Y-72050500D01*
X93676250Y-71840960D01*
X93466710Y-72050500D01*
X92748290Y-72050500D01*
X92538750Y-71840960D01*
X92329210Y-72050500D01*
X89738700Y-72050500D01*
X89738700Y-71481749D01*
X91741361Y-71481749D01*
X91741361Y-71481750D01*
X91761352Y-71659183D01*
X91761353Y-71659186D01*
X91820324Y-71827718D01*
X91820326Y-71827722D01*
X91825435Y-71835853D01*
X92179539Y-71481749D01*
X92151257Y-71453467D01*
X92396562Y-71453467D01*
X92396562Y-71510033D01*
X92418209Y-71562293D01*
X92458207Y-71602291D01*
X92510467Y-71623938D01*
X92567033Y-71623938D01*
X92619293Y-71602291D01*
X92659291Y-71562293D01*
X92680938Y-71510033D01*
X92680938Y-71481750D01*
X92897960Y-71481750D01*
X93107500Y-71691290D01*
X93317040Y-71481750D01*
X93288757Y-71453467D01*
X93534062Y-71453467D01*
X93534062Y-71510033D01*
X93555709Y-71562293D01*
X93595707Y-71602291D01*
X93647967Y-71623938D01*
X93704533Y-71623938D01*
X93756793Y-71602291D01*
X93796791Y-71562293D01*
X93818438Y-71510033D01*
X93818438Y-71481750D01*
X94035460Y-71481750D01*
X94245000Y-71691290D01*
X94454540Y-71481750D01*
X94426257Y-71453467D01*
X94671562Y-71453467D01*
X94671562Y-71510033D01*
X94693209Y-71562293D01*
X94733207Y-71602291D01*
X94785467Y-71623938D01*
X94842033Y-71623938D01*
X94894293Y-71602291D01*
X94934291Y-71562293D01*
X94955938Y-71510033D01*
X94955938Y-71481750D01*
X95172960Y-71481750D01*
X95382500Y-71691290D01*
X95592040Y-71481750D01*
X95563757Y-71453467D01*
X95809062Y-71453467D01*
X95809062Y-71510033D01*
X95830709Y-71562293D01*
X95870707Y-71602291D01*
X95922967Y-71623938D01*
X95979533Y-71623938D01*
X96031793Y-71602291D01*
X96071791Y-71562293D01*
X96093438Y-71510033D01*
X96093438Y-71481750D01*
X96310460Y-71481750D01*
X96520000Y-71691290D01*
X96729540Y-71481750D01*
X96701257Y-71453467D01*
X96946562Y-71453467D01*
X96946562Y-71510033D01*
X96968209Y-71562293D01*
X97008207Y-71602291D01*
X97060467Y-71623938D01*
X97117033Y-71623938D01*
X97169293Y-71602291D01*
X97209291Y-71562293D01*
X97230938Y-71510033D01*
X97230938Y-71481750D01*
X97447960Y-71481750D01*
X97657500Y-71691290D01*
X97867040Y-71481750D01*
X97838757Y-71453467D01*
X98084062Y-71453467D01*
X98084062Y-71510033D01*
X98105709Y-71562293D01*
X98145707Y-71602291D01*
X98197967Y-71623938D01*
X98254533Y-71623938D01*
X98306793Y-71602291D01*
X98346791Y-71562293D01*
X98368438Y-71510033D01*
X98368438Y-71481750D01*
X98585460Y-71481750D01*
X98795000Y-71691290D01*
X99004540Y-71481750D01*
X98976257Y-71453467D01*
X99221562Y-71453467D01*
X99221562Y-71510033D01*
X99243209Y-71562293D01*
X99283207Y-71602291D01*
X99335467Y-71623938D01*
X99392033Y-71623938D01*
X99444293Y-71602291D01*
X99484291Y-71562293D01*
X99505938Y-71510033D01*
X99505938Y-71481750D01*
X99722960Y-71481750D01*
X99932500Y-71691290D01*
X100142040Y-71481750D01*
X100113757Y-71453467D01*
X100359062Y-71453467D01*
X100359062Y-71510033D01*
X100380709Y-71562293D01*
X100420707Y-71602291D01*
X100472967Y-71623938D01*
X100529533Y-71623938D01*
X100581793Y-71602291D01*
X100621791Y-71562293D01*
X100643438Y-71510033D01*
X100643438Y-71481749D01*
X100860460Y-71481749D01*
X100860460Y-71481750D01*
X101214563Y-71835853D01*
X101219672Y-71827725D01*
X101278646Y-71659186D01*
X101278647Y-71659183D01*
X101298639Y-71481750D01*
X101298639Y-71481749D01*
X101278647Y-71304316D01*
X101219670Y-71135770D01*
X101219669Y-71135769D01*
X101214564Y-71127645D01*
X100860460Y-71481749D01*
X100643438Y-71481749D01*
X100643438Y-71453467D01*
X100621791Y-71401207D01*
X100581793Y-71361209D01*
X100529533Y-71339562D01*
X100472967Y-71339562D01*
X100420707Y-71361209D01*
X100380709Y-71401207D01*
X100359062Y-71453467D01*
X100113757Y-71453467D01*
X99932500Y-71272210D01*
X99722960Y-71481750D01*
X99505938Y-71481750D01*
X99505938Y-71453467D01*
X99484291Y-71401207D01*
X99444293Y-71361209D01*
X99392033Y-71339562D01*
X99335467Y-71339562D01*
X99283207Y-71361209D01*
X99243209Y-71401207D01*
X99221562Y-71453467D01*
X98976257Y-71453467D01*
X98795000Y-71272210D01*
X98585460Y-71481750D01*
X98368438Y-71481750D01*
X98368438Y-71453467D01*
X98346791Y-71401207D01*
X98306793Y-71361209D01*
X98254533Y-71339562D01*
X98197967Y-71339562D01*
X98145707Y-71361209D01*
X98105709Y-71401207D01*
X98084062Y-71453467D01*
X97838757Y-71453467D01*
X97657500Y-71272210D01*
X97447960Y-71481750D01*
X97230938Y-71481750D01*
X97230938Y-71453467D01*
X97209291Y-71401207D01*
X97169293Y-71361209D01*
X97117033Y-71339562D01*
X97060467Y-71339562D01*
X97008207Y-71361209D01*
X96968209Y-71401207D01*
X96946562Y-71453467D01*
X96701257Y-71453467D01*
X96520000Y-71272210D01*
X96310460Y-71481750D01*
X96093438Y-71481750D01*
X96093438Y-71453467D01*
X96071791Y-71401207D01*
X96031793Y-71361209D01*
X95979533Y-71339562D01*
X95922967Y-71339562D01*
X95870707Y-71361209D01*
X95830709Y-71401207D01*
X95809062Y-71453467D01*
X95563757Y-71453467D01*
X95382500Y-71272210D01*
X95172960Y-71481750D01*
X94955938Y-71481750D01*
X94955938Y-71453467D01*
X94934291Y-71401207D01*
X94894293Y-71361209D01*
X94842033Y-71339562D01*
X94785467Y-71339562D01*
X94733207Y-71361209D01*
X94693209Y-71401207D01*
X94671562Y-71453467D01*
X94426257Y-71453467D01*
X94245000Y-71272210D01*
X94035460Y-71481750D01*
X93818438Y-71481750D01*
X93818438Y-71453467D01*
X93796791Y-71401207D01*
X93756793Y-71361209D01*
X93704533Y-71339562D01*
X93647967Y-71339562D01*
X93595707Y-71361209D01*
X93555709Y-71401207D01*
X93534062Y-71453467D01*
X93288757Y-71453467D01*
X93107500Y-71272210D01*
X92897960Y-71481750D01*
X92680938Y-71481750D01*
X92680938Y-71453467D01*
X92659291Y-71401207D01*
X92619293Y-71361209D01*
X92567033Y-71339562D01*
X92510467Y-71339562D01*
X92458207Y-71361209D01*
X92418209Y-71401207D01*
X92396562Y-71453467D01*
X92151257Y-71453467D01*
X91825435Y-71127645D01*
X91825434Y-71127645D01*
X91820327Y-71135776D01*
X91761353Y-71304313D01*
X91761352Y-71304316D01*
X91741361Y-71481749D01*
X89738700Y-71481749D01*
X89738700Y-70913000D01*
X92329210Y-70913000D01*
X92538750Y-71122540D01*
X92748290Y-70913000D01*
X93466710Y-70913000D01*
X93676250Y-71122540D01*
X93885790Y-70913000D01*
X94604210Y-70913000D01*
X94813750Y-71122540D01*
X95023290Y-70913000D01*
X95741710Y-70913000D01*
X95951250Y-71122540D01*
X96160790Y-70913000D01*
X96879210Y-70913000D01*
X97088750Y-71122540D01*
X97298290Y-70913000D01*
X98016710Y-70913000D01*
X98226250Y-71122540D01*
X98435790Y-70913000D01*
X99154210Y-70913000D01*
X99363750Y-71122540D01*
X99573290Y-70913000D01*
X100291710Y-70913000D01*
X100501250Y-71122540D01*
X100710790Y-70913000D01*
X100501250Y-70703460D01*
X100291710Y-70913000D01*
X99573290Y-70913000D01*
X99363750Y-70703460D01*
X99154210Y-70913000D01*
X98435790Y-70913000D01*
X98226250Y-70703460D01*
X98016710Y-70913000D01*
X97298290Y-70913000D01*
X97088750Y-70703460D01*
X96879210Y-70913000D01*
X96160790Y-70913000D01*
X95951250Y-70703460D01*
X95741710Y-70913000D01*
X95023290Y-70913000D01*
X94813750Y-70703460D01*
X94604210Y-70913000D01*
X93885790Y-70913000D01*
X93676250Y-70703460D01*
X93466710Y-70913000D01*
X92748290Y-70913000D01*
X92538750Y-70703460D01*
X92329210Y-70913000D01*
X89738700Y-70913000D01*
X89738700Y-70753536D01*
X89745513Y-70725161D01*
X89747039Y-70722164D01*
X89747040Y-70722163D01*
X89747040Y-70722162D01*
X89747041Y-70722161D01*
X89764489Y-70612000D01*
X89764489Y-70611997D01*
X89764489Y-70611996D01*
X89747042Y-70501843D01*
X89747041Y-70501841D01*
X89747041Y-70501839D01*
X89696406Y-70402461D01*
X89638194Y-70344249D01*
X91741361Y-70344249D01*
X91741361Y-70344250D01*
X91761352Y-70521683D01*
X91761353Y-70521686D01*
X91820324Y-70690218D01*
X91820326Y-70690222D01*
X91825435Y-70698353D01*
X92179539Y-70344249D01*
X92151257Y-70315967D01*
X92396562Y-70315967D01*
X92396562Y-70372533D01*
X92418209Y-70424793D01*
X92458207Y-70464791D01*
X92510467Y-70486438D01*
X92567033Y-70486438D01*
X92619293Y-70464791D01*
X92659291Y-70424793D01*
X92680938Y-70372533D01*
X92680938Y-70344250D01*
X92897960Y-70344250D01*
X93107500Y-70553790D01*
X93317040Y-70344250D01*
X93288757Y-70315967D01*
X93534062Y-70315967D01*
X93534062Y-70372533D01*
X93555709Y-70424793D01*
X93595707Y-70464791D01*
X93647967Y-70486438D01*
X93704533Y-70486438D01*
X93756793Y-70464791D01*
X93796791Y-70424793D01*
X93818438Y-70372533D01*
X93818438Y-70344250D01*
X94035460Y-70344250D01*
X94245000Y-70553790D01*
X94454540Y-70344250D01*
X94426257Y-70315967D01*
X94671562Y-70315967D01*
X94671562Y-70372533D01*
X94693209Y-70424793D01*
X94733207Y-70464791D01*
X94785467Y-70486438D01*
X94842033Y-70486438D01*
X94894293Y-70464791D01*
X94934291Y-70424793D01*
X94955938Y-70372533D01*
X94955938Y-70344250D01*
X95172960Y-70344250D01*
X95382500Y-70553790D01*
X95592040Y-70344250D01*
X95563757Y-70315967D01*
X95809062Y-70315967D01*
X95809062Y-70372533D01*
X95830709Y-70424793D01*
X95870707Y-70464791D01*
X95922967Y-70486438D01*
X95979533Y-70486438D01*
X96031793Y-70464791D01*
X96071791Y-70424793D01*
X96093438Y-70372533D01*
X96093438Y-70344250D01*
X96310460Y-70344250D01*
X96520000Y-70553790D01*
X96729540Y-70344250D01*
X96701257Y-70315967D01*
X96946562Y-70315967D01*
X96946562Y-70372533D01*
X96968209Y-70424793D01*
X97008207Y-70464791D01*
X97060467Y-70486438D01*
X97117033Y-70486438D01*
X97169293Y-70464791D01*
X97209291Y-70424793D01*
X97230938Y-70372533D01*
X97230938Y-70344250D01*
X97447960Y-70344250D01*
X97657500Y-70553790D01*
X97867040Y-70344250D01*
X97838757Y-70315967D01*
X98084062Y-70315967D01*
X98084062Y-70372533D01*
X98105709Y-70424793D01*
X98145707Y-70464791D01*
X98197967Y-70486438D01*
X98254533Y-70486438D01*
X98306793Y-70464791D01*
X98346791Y-70424793D01*
X98368438Y-70372533D01*
X98368438Y-70344250D01*
X98585460Y-70344250D01*
X98795000Y-70553790D01*
X99004540Y-70344250D01*
X98976257Y-70315967D01*
X99221562Y-70315967D01*
X99221562Y-70372533D01*
X99243209Y-70424793D01*
X99283207Y-70464791D01*
X99335467Y-70486438D01*
X99392033Y-70486438D01*
X99444293Y-70464791D01*
X99484291Y-70424793D01*
X99505938Y-70372533D01*
X99505938Y-70344250D01*
X99722960Y-70344250D01*
X99932500Y-70553790D01*
X100142040Y-70344250D01*
X100113757Y-70315967D01*
X100359062Y-70315967D01*
X100359062Y-70372533D01*
X100380709Y-70424793D01*
X100420707Y-70464791D01*
X100472967Y-70486438D01*
X100529533Y-70486438D01*
X100581793Y-70464791D01*
X100621791Y-70424793D01*
X100643438Y-70372533D01*
X100643438Y-70344249D01*
X100860460Y-70344249D01*
X100860460Y-70344250D01*
X101214563Y-70698353D01*
X101219672Y-70690225D01*
X101278646Y-70521686D01*
X101278647Y-70521683D01*
X101298639Y-70344250D01*
X101298639Y-70344249D01*
X101278647Y-70166816D01*
X101219670Y-69998270D01*
X101219669Y-69998269D01*
X101214564Y-69990145D01*
X100860460Y-70344249D01*
X100643438Y-70344249D01*
X100643438Y-70315967D01*
X100621791Y-70263707D01*
X100581793Y-70223709D01*
X100529533Y-70202062D01*
X100472967Y-70202062D01*
X100420707Y-70223709D01*
X100380709Y-70263707D01*
X100359062Y-70315967D01*
X100113757Y-70315967D01*
X99932500Y-70134710D01*
X99722960Y-70344250D01*
X99505938Y-70344250D01*
X99505938Y-70315967D01*
X99484291Y-70263707D01*
X99444293Y-70223709D01*
X99392033Y-70202062D01*
X99335467Y-70202062D01*
X99283207Y-70223709D01*
X99243209Y-70263707D01*
X99221562Y-70315967D01*
X98976257Y-70315967D01*
X98795000Y-70134710D01*
X98585460Y-70344250D01*
X98368438Y-70344250D01*
X98368438Y-70315967D01*
X98346791Y-70263707D01*
X98306793Y-70223709D01*
X98254533Y-70202062D01*
X98197967Y-70202062D01*
X98145707Y-70223709D01*
X98105709Y-70263707D01*
X98084062Y-70315967D01*
X97838757Y-70315967D01*
X97657500Y-70134710D01*
X97447960Y-70344250D01*
X97230938Y-70344250D01*
X97230938Y-70315967D01*
X97209291Y-70263707D01*
X97169293Y-70223709D01*
X97117033Y-70202062D01*
X97060467Y-70202062D01*
X97008207Y-70223709D01*
X96968209Y-70263707D01*
X96946562Y-70315967D01*
X96701257Y-70315967D01*
X96520000Y-70134710D01*
X96310460Y-70344250D01*
X96093438Y-70344250D01*
X96093438Y-70315967D01*
X96071791Y-70263707D01*
X96031793Y-70223709D01*
X95979533Y-70202062D01*
X95922967Y-70202062D01*
X95870707Y-70223709D01*
X95830709Y-70263707D01*
X95809062Y-70315967D01*
X95563757Y-70315967D01*
X95382500Y-70134710D01*
X95172960Y-70344250D01*
X94955938Y-70344250D01*
X94955938Y-70315967D01*
X94934291Y-70263707D01*
X94894293Y-70223709D01*
X94842033Y-70202062D01*
X94785467Y-70202062D01*
X94733207Y-70223709D01*
X94693209Y-70263707D01*
X94671562Y-70315967D01*
X94426257Y-70315967D01*
X94245000Y-70134710D01*
X94035460Y-70344250D01*
X93818438Y-70344250D01*
X93818438Y-70315967D01*
X93796791Y-70263707D01*
X93756793Y-70223709D01*
X93704533Y-70202062D01*
X93647967Y-70202062D01*
X93595707Y-70223709D01*
X93555709Y-70263707D01*
X93534062Y-70315967D01*
X93288757Y-70315967D01*
X93107500Y-70134710D01*
X92897960Y-70344250D01*
X92680938Y-70344250D01*
X92680938Y-70315967D01*
X92659291Y-70263707D01*
X92619293Y-70223709D01*
X92567033Y-70202062D01*
X92510467Y-70202062D01*
X92458207Y-70223709D01*
X92418209Y-70263707D01*
X92396562Y-70315967D01*
X92151257Y-70315967D01*
X91825435Y-69990145D01*
X91825434Y-69990145D01*
X91820327Y-69998276D01*
X91761353Y-70166813D01*
X91761352Y-70166816D01*
X91741361Y-70344249D01*
X89638194Y-70344249D01*
X89617539Y-70323594D01*
X89617538Y-70323593D01*
X89518161Y-70272959D01*
X89518156Y-70272957D01*
X89408003Y-70255511D01*
X89407997Y-70255511D01*
X89297843Y-70272957D01*
X89297838Y-70272959D01*
X89198461Y-70323593D01*
X89119593Y-70402461D01*
X89068959Y-70501838D01*
X89068957Y-70501843D01*
X89051511Y-70611996D01*
X89051511Y-70611997D01*
X89068959Y-70722163D01*
X89068960Y-70722164D01*
X89070487Y-70725161D01*
X89077300Y-70753536D01*
X89077300Y-73703536D01*
X89077301Y-73703544D01*
X89099835Y-73787645D01*
X89099836Y-73787648D01*
X89143373Y-73863054D01*
X89143378Y-73863060D01*
X89208500Y-73928182D01*
X89208514Y-73928194D01*
X91113153Y-75832833D01*
X91124647Y-75848653D01*
X91139875Y-75878540D01*
X91151594Y-75901539D01*
X91230461Y-75980406D01*
X91329839Y-76031041D01*
X91329841Y-76031041D01*
X91329843Y-76031042D01*
X91439996Y-76048489D01*
X91439997Y-76048488D01*
X91440000Y-76048489D01*
X91550161Y-76031041D01*
X91551496Y-76030360D01*
X91553161Y-76029513D01*
X91581536Y-76022700D01*
X102495468Y-76022700D01*
X102539662Y-76041006D01*
X102557968Y-76085200D01*
X102539662Y-76129394D01*
X101315656Y-77353399D01*
X101271462Y-77371705D01*
X101227268Y-77353399D01*
X101221877Y-77347252D01*
X101218781Y-77343217D01*
X101192832Y-77323305D01*
X101107254Y-77257639D01*
X100977376Y-77203842D01*
X100977373Y-77203841D01*
X100977372Y-77203841D01*
X100977369Y-77203840D01*
X100838002Y-77185493D01*
X100837998Y-77185493D01*
X100698630Y-77203840D01*
X100698620Y-77203843D01*
X100568749Y-77257637D01*
X100568746Y-77257639D01*
X100457217Y-77343217D01*
X100371639Y-77454746D01*
X100371637Y-77454749D01*
X100317843Y-77584620D01*
X100317840Y-77584630D01*
X100299493Y-77723997D01*
X100299493Y-77724003D01*
X100303709Y-77756029D01*
X100291328Y-77802234D01*
X100285938Y-77808380D01*
X99830326Y-78263994D01*
X99786132Y-78282300D01*
X95829736Y-78282300D01*
X95801361Y-78275487D01*
X95798364Y-78273960D01*
X95798363Y-78273959D01*
X95754296Y-78266979D01*
X95688200Y-78256511D01*
X95688198Y-78256511D01*
X95688197Y-78256511D01*
X95578043Y-78273957D01*
X95578038Y-78273959D01*
X95478661Y-78324593D01*
X95399793Y-78403461D01*
X95349159Y-78502838D01*
X95349157Y-78502843D01*
X95331711Y-78612996D01*
X95331711Y-78612997D01*
X95331711Y-78613000D01*
X95332860Y-78620252D01*
X95344969Y-78696709D01*
X95333801Y-78743223D01*
X95293015Y-78768217D01*
X95273462Y-78768217D01*
X95250000Y-78764501D01*
X95249999Y-78764501D01*
X95249998Y-78764501D01*
X95249997Y-78764501D01*
X95139843Y-78781947D01*
X95139838Y-78781949D01*
X95040461Y-78832583D01*
X94976694Y-78896351D01*
X94932500Y-78914657D01*
X94888306Y-78896351D01*
X94824538Y-78832583D01*
X94725161Y-78781949D01*
X94725156Y-78781947D01*
X94615003Y-78764501D01*
X94614997Y-78764501D01*
X94504843Y-78781947D01*
X94504838Y-78781949D01*
X94405461Y-78832583D01*
X94341694Y-78896351D01*
X94297500Y-78914657D01*
X94253306Y-78896351D01*
X94189538Y-78832583D01*
X94090161Y-78781949D01*
X94090156Y-78781947D01*
X93980003Y-78764501D01*
X93979997Y-78764501D01*
X93869843Y-78781947D01*
X93869838Y-78781949D01*
X93770461Y-78832583D01*
X93706694Y-78896351D01*
X93662500Y-78914657D01*
X93618306Y-78896351D01*
X93554538Y-78832583D01*
X93455161Y-78781949D01*
X93455156Y-78781947D01*
X93345003Y-78764501D01*
X93344997Y-78764501D01*
X93234843Y-78781947D01*
X93234838Y-78781949D01*
X93135461Y-78832583D01*
X93056593Y-78911451D01*
X93043633Y-78936888D01*
X93007259Y-78967955D01*
X92959571Y-78964202D01*
X92943751Y-78952708D01*
X92879316Y-78888273D01*
X92779939Y-78837639D01*
X92779934Y-78837637D01*
X92669781Y-78820191D01*
X92669775Y-78820191D01*
X92559621Y-78837637D01*
X92559616Y-78837639D01*
X92460239Y-78888273D01*
X92381371Y-78967141D01*
X92331574Y-79064875D01*
X92295200Y-79095942D01*
X92247512Y-79092189D01*
X92231692Y-79080695D01*
X92204775Y-79053778D01*
X92167796Y-79038461D01*
X92145233Y-79029115D01*
X92145232Y-79029114D01*
X92120572Y-79018900D01*
X92120571Y-79018900D01*
X91734733Y-79018900D01*
X91690539Y-79000594D01*
X91649538Y-78959593D01*
X91550161Y-78908959D01*
X91550156Y-78908957D01*
X91440003Y-78891511D01*
X91439997Y-78891511D01*
X91329843Y-78908957D01*
X91329838Y-78908959D01*
X91230461Y-78959593D01*
X91166694Y-79023361D01*
X91122500Y-79041667D01*
X91078306Y-79023361D01*
X91014538Y-78959593D01*
X90915161Y-78908959D01*
X90915156Y-78908957D01*
X90805003Y-78891511D01*
X90804997Y-78891511D01*
X90694843Y-78908957D01*
X90694838Y-78908959D01*
X90595461Y-78959593D01*
X90531694Y-79023361D01*
X90487500Y-79041667D01*
X90443306Y-79023361D01*
X90379538Y-78959593D01*
X90280161Y-78908959D01*
X90280156Y-78908957D01*
X90170003Y-78891511D01*
X90169997Y-78891511D01*
X90059843Y-78908957D01*
X90059838Y-78908959D01*
X89960461Y-78959593D01*
X89881593Y-79038461D01*
X89830959Y-79137838D01*
X89830957Y-79137843D01*
X89813511Y-79247996D01*
X89813511Y-79252918D01*
X89810976Y-79252918D01*
X89801797Y-79291118D01*
X89795435Y-79298566D01*
X88705779Y-80388223D01*
X88705778Y-80388224D01*
X88683376Y-80442310D01*
X88683375Y-80442311D01*
X88670900Y-80472426D01*
X88670900Y-81430663D01*
X88652594Y-81474857D01*
X88608400Y-81493163D01*
X88564206Y-81474857D01*
X88548592Y-81448808D01*
X88537462Y-81412117D01*
X88463522Y-81273785D01*
X88446697Y-81242307D01*
X88446693Y-81242301D01*
X88436261Y-81229590D01*
X88324541Y-81093459D01*
X88175698Y-80971306D01*
X88175692Y-80971302D01*
X88068695Y-80914112D01*
X88005883Y-80880538D01*
X87888111Y-80844811D01*
X87821622Y-80824642D01*
X87630000Y-80805770D01*
X87438377Y-80824642D01*
X87344359Y-80853163D01*
X87254117Y-80880538D01*
X87254115Y-80880538D01*
X87254115Y-80880539D01*
X87084307Y-80971302D01*
X87084301Y-80971306D01*
X86935459Y-81093459D01*
X86813306Y-81242301D01*
X86813302Y-81242307D01*
X86722539Y-81412115D01*
X86722538Y-81412117D01*
X86707975Y-81460125D01*
X86666642Y-81596377D01*
X86647770Y-81787999D01*
X86647770Y-81788000D01*
X86666642Y-81979622D01*
X86685565Y-82042000D01*
X86722538Y-82163883D01*
X86722539Y-82163884D01*
X86813302Y-82333692D01*
X86813306Y-82333698D01*
X86935459Y-82482541D01*
X87084302Y-82604694D01*
X87084304Y-82604695D01*
X87084307Y-82604697D01*
X87122211Y-82624957D01*
X87254117Y-82695462D01*
X87438376Y-82751357D01*
X87630000Y-82770230D01*
X87821624Y-82751357D01*
X88005883Y-82695462D01*
X88175698Y-82604694D01*
X88324541Y-82482541D01*
X88446694Y-82333698D01*
X88537462Y-82163883D01*
X88548592Y-82127191D01*
X88578938Y-82090216D01*
X88626543Y-82085527D01*
X88663520Y-82115874D01*
X88670900Y-82145336D01*
X88670900Y-83572214D01*
X88652594Y-83616408D01*
X88513487Y-83755514D01*
X88469293Y-83773820D01*
X88425099Y-83755514D01*
X88420980Y-83750970D01*
X88324541Y-83633459D01*
X88175698Y-83511306D01*
X88175692Y-83511302D01*
X88068695Y-83454112D01*
X88005883Y-83420538D01*
X87888111Y-83384811D01*
X87821622Y-83364642D01*
X87630000Y-83345770D01*
X87438377Y-83364642D01*
X87320604Y-83400369D01*
X87254117Y-83420538D01*
X87254115Y-83420538D01*
X87254115Y-83420539D01*
X87084307Y-83511302D01*
X87084301Y-83511306D01*
X86935459Y-83633459D01*
X86813306Y-83782301D01*
X86813302Y-83782307D01*
X86722539Y-83952115D01*
X86666642Y-84136377D01*
X86647770Y-84327999D01*
X86647770Y-84328000D01*
X86666642Y-84519622D01*
X86685565Y-84582000D01*
X86722538Y-84703883D01*
X86722539Y-84703884D01*
X86813302Y-84873692D01*
X86813306Y-84873698D01*
X86935459Y-85022541D01*
X87084302Y-85144694D01*
X87084304Y-85144695D01*
X87084307Y-85144697D01*
X87122211Y-85164957D01*
X87254117Y-85235462D01*
X87438376Y-85291357D01*
X87630000Y-85310230D01*
X87821624Y-85291357D01*
X88005883Y-85235462D01*
X88175698Y-85144694D01*
X88324541Y-85022541D01*
X88446694Y-84873698D01*
X88537462Y-84703883D01*
X88593357Y-84519624D01*
X88612230Y-84328000D01*
X88612230Y-84327999D01*
X88612531Y-84324944D01*
X88614513Y-84325139D01*
X88630536Y-84286459D01*
X88842995Y-84074000D01*
X89094222Y-83822774D01*
X89114652Y-83773449D01*
X89129100Y-83738571D01*
X89129100Y-82145336D01*
X89147406Y-82101142D01*
X89191600Y-82082836D01*
X89235794Y-82101142D01*
X89251407Y-82127189D01*
X89262538Y-82163883D01*
X89262539Y-82163884D01*
X89353302Y-82333692D01*
X89353306Y-82333698D01*
X89475459Y-82482541D01*
X89624302Y-82604694D01*
X89624304Y-82604695D01*
X89624307Y-82604697D01*
X89662211Y-82624957D01*
X89794117Y-82695462D01*
X89978376Y-82751357D01*
X90170000Y-82770230D01*
X90361624Y-82751357D01*
X90545883Y-82695462D01*
X90715698Y-82604694D01*
X90864541Y-82482541D01*
X90986694Y-82333698D01*
X91077462Y-82163883D01*
X91088592Y-82127191D01*
X91118938Y-82090216D01*
X91166543Y-82085527D01*
X91203520Y-82115874D01*
X91210900Y-82145336D01*
X91210900Y-83572214D01*
X91192594Y-83616408D01*
X91053487Y-83755514D01*
X91009293Y-83773820D01*
X90965099Y-83755514D01*
X90960980Y-83750970D01*
X90864541Y-83633459D01*
X90715698Y-83511306D01*
X90715692Y-83511302D01*
X90608695Y-83454112D01*
X90545883Y-83420538D01*
X90428111Y-83384811D01*
X90361622Y-83364642D01*
X90170000Y-83345770D01*
X89978377Y-83364642D01*
X89860604Y-83400369D01*
X89794117Y-83420538D01*
X89794115Y-83420538D01*
X89794115Y-83420539D01*
X89624307Y-83511302D01*
X89624301Y-83511306D01*
X89475459Y-83633459D01*
X89353306Y-83782301D01*
X89353302Y-83782307D01*
X89262539Y-83952115D01*
X89206642Y-84136377D01*
X89187770Y-84327999D01*
X89187770Y-84328000D01*
X89206642Y-84519622D01*
X89225565Y-84582000D01*
X89262538Y-84703883D01*
X89262539Y-84703884D01*
X89353302Y-84873692D01*
X89353306Y-84873698D01*
X89475459Y-85022541D01*
X89624302Y-85144694D01*
X89624304Y-85144695D01*
X89624307Y-85144697D01*
X89662211Y-85164957D01*
X89794117Y-85235462D01*
X89978376Y-85291357D01*
X90170000Y-85310230D01*
X90361624Y-85291357D01*
X90545883Y-85235462D01*
X90715698Y-85144694D01*
X90864541Y-85022541D01*
X90986694Y-84873698D01*
X91077462Y-84703883D01*
X91133357Y-84519624D01*
X91152230Y-84328000D01*
X91152230Y-84327999D01*
X91152531Y-84324944D01*
X91154513Y-84325139D01*
X91170536Y-84286459D01*
X91382995Y-84074000D01*
X91634222Y-83822774D01*
X91654652Y-83773449D01*
X91669100Y-83738571D01*
X91669100Y-82145336D01*
X91687406Y-82101142D01*
X91731600Y-82082836D01*
X91775794Y-82101142D01*
X91791407Y-82127189D01*
X91802538Y-82163883D01*
X91802539Y-82163884D01*
X91893302Y-82333692D01*
X91893306Y-82333698D01*
X92015459Y-82482541D01*
X92164302Y-82604694D01*
X92164304Y-82604695D01*
X92164307Y-82604697D01*
X92202211Y-82624957D01*
X92334117Y-82695462D01*
X92518376Y-82751357D01*
X92710000Y-82770230D01*
X92901624Y-82751357D01*
X93085883Y-82695462D01*
X93255698Y-82604694D01*
X93404541Y-82482541D01*
X93526694Y-82333698D01*
X93617462Y-82163883D01*
X93628592Y-82127191D01*
X93658938Y-82090216D01*
X93706543Y-82085527D01*
X93743520Y-82115874D01*
X93750900Y-82145336D01*
X93750900Y-83572214D01*
X93732594Y-83616408D01*
X93593487Y-83755514D01*
X93549293Y-83773820D01*
X93505099Y-83755514D01*
X93500980Y-83750970D01*
X93404541Y-83633459D01*
X93255698Y-83511306D01*
X93255692Y-83511302D01*
X93148695Y-83454112D01*
X93085883Y-83420538D01*
X92968111Y-83384811D01*
X92901622Y-83364642D01*
X92710000Y-83345770D01*
X92518377Y-83364642D01*
X92400604Y-83400369D01*
X92334117Y-83420538D01*
X92334115Y-83420538D01*
X92334115Y-83420539D01*
X92164307Y-83511302D01*
X92164301Y-83511306D01*
X92015459Y-83633459D01*
X91893306Y-83782301D01*
X91893302Y-83782307D01*
X91802539Y-83952115D01*
X91746642Y-84136377D01*
X91727770Y-84327999D01*
X91727770Y-84328000D01*
X91746642Y-84519622D01*
X91765565Y-84582000D01*
X91802538Y-84703883D01*
X91802539Y-84703884D01*
X91893302Y-84873692D01*
X91893306Y-84873698D01*
X92015459Y-85022541D01*
X92164302Y-85144694D01*
X92164304Y-85144695D01*
X92164307Y-85144697D01*
X92202211Y-85164957D01*
X92334117Y-85235462D01*
X92518376Y-85291357D01*
X92710000Y-85310230D01*
X92901624Y-85291357D01*
X93085883Y-85235462D01*
X93255698Y-85144694D01*
X93404541Y-85022541D01*
X93526694Y-84873698D01*
X93617462Y-84703883D01*
X93673357Y-84519624D01*
X93692230Y-84328000D01*
X93692230Y-84327999D01*
X93692531Y-84324944D01*
X93694513Y-84325139D01*
X93710536Y-84286459D01*
X93922995Y-84074000D01*
X94174222Y-83822774D01*
X94194652Y-83773449D01*
X94209100Y-83738571D01*
X94209100Y-82145336D01*
X94227406Y-82101142D01*
X94271600Y-82082836D01*
X94315794Y-82101142D01*
X94331407Y-82127189D01*
X94342538Y-82163883D01*
X94342539Y-82163884D01*
X94433302Y-82333692D01*
X94433306Y-82333698D01*
X94555459Y-82482541D01*
X94704302Y-82604694D01*
X94704304Y-82604695D01*
X94704307Y-82604697D01*
X94742211Y-82624957D01*
X94874117Y-82695462D01*
X95058376Y-82751357D01*
X95250000Y-82770230D01*
X95441624Y-82751357D01*
X95625883Y-82695462D01*
X95795698Y-82604694D01*
X95944541Y-82482541D01*
X96066694Y-82333698D01*
X96157462Y-82163883D01*
X96168592Y-82127191D01*
X96198938Y-82090216D01*
X96246543Y-82085527D01*
X96283520Y-82115874D01*
X96290900Y-82145336D01*
X96290900Y-83572214D01*
X96272594Y-83616408D01*
X96133487Y-83755514D01*
X96089293Y-83773820D01*
X96045099Y-83755514D01*
X96040980Y-83750970D01*
X95944541Y-83633459D01*
X95795698Y-83511306D01*
X95795692Y-83511302D01*
X95688695Y-83454112D01*
X95625883Y-83420538D01*
X95508111Y-83384811D01*
X95441622Y-83364642D01*
X95250000Y-83345770D01*
X95058377Y-83364642D01*
X94940604Y-83400369D01*
X94874117Y-83420538D01*
X94874115Y-83420538D01*
X94874115Y-83420539D01*
X94704307Y-83511302D01*
X94704301Y-83511306D01*
X94555459Y-83633459D01*
X94433306Y-83782301D01*
X94433302Y-83782307D01*
X94342539Y-83952115D01*
X94286642Y-84136377D01*
X94267770Y-84327999D01*
X94267770Y-84328000D01*
X94286642Y-84519622D01*
X94305565Y-84582000D01*
X94342538Y-84703883D01*
X94342539Y-84703884D01*
X94433302Y-84873692D01*
X94433306Y-84873698D01*
X94555459Y-85022541D01*
X94704302Y-85144694D01*
X94704304Y-85144695D01*
X94704307Y-85144697D01*
X94742211Y-85164957D01*
X94874117Y-85235462D01*
X95058376Y-85291357D01*
X95250000Y-85310230D01*
X95441624Y-85291357D01*
X95625883Y-85235462D01*
X95795698Y-85144694D01*
X95944541Y-85022541D01*
X96066694Y-84873698D01*
X96157462Y-84703883D01*
X96213357Y-84519624D01*
X96232230Y-84328000D01*
X96232230Y-84327999D01*
X96232531Y-84324944D01*
X96234513Y-84325139D01*
X96250536Y-84286459D01*
X96462995Y-84074000D01*
X96714222Y-83822774D01*
X96734652Y-83773449D01*
X96749100Y-83738571D01*
X96749100Y-82145336D01*
X96767406Y-82101142D01*
X96811600Y-82082836D01*
X96855794Y-82101142D01*
X96871407Y-82127189D01*
X96882538Y-82163883D01*
X96882539Y-82163884D01*
X96973302Y-82333692D01*
X96973306Y-82333698D01*
X97095459Y-82482541D01*
X97244302Y-82604694D01*
X97244304Y-82604695D01*
X97244307Y-82604697D01*
X97282211Y-82624957D01*
X97414117Y-82695462D01*
X97598376Y-82751357D01*
X97790000Y-82770230D01*
X97981624Y-82751357D01*
X98165883Y-82695462D01*
X98335698Y-82604694D01*
X98484541Y-82482541D01*
X98606694Y-82333698D01*
X98697462Y-82163883D01*
X98708592Y-82127191D01*
X98738938Y-82090216D01*
X98786543Y-82085527D01*
X98823520Y-82115874D01*
X98830900Y-82145336D01*
X98830900Y-82937214D01*
X98812594Y-82981408D01*
X98333934Y-83460067D01*
X98289740Y-83478373D01*
X98260278Y-83470993D01*
X98233648Y-83456759D01*
X98165883Y-83420538D01*
X98048111Y-83384811D01*
X97981622Y-83364642D01*
X97790000Y-83345770D01*
X97598377Y-83364642D01*
X97480604Y-83400369D01*
X97414117Y-83420538D01*
X97414115Y-83420538D01*
X97414115Y-83420539D01*
X97244307Y-83511302D01*
X97244301Y-83511306D01*
X97095459Y-83633459D01*
X96973306Y-83782301D01*
X96973302Y-83782307D01*
X96882539Y-83952115D01*
X96826642Y-84136377D01*
X96807770Y-84327999D01*
X96807770Y-84328000D01*
X96826642Y-84519622D01*
X96845565Y-84582000D01*
X96882538Y-84703883D01*
X96882539Y-84703884D01*
X96973302Y-84873692D01*
X96973306Y-84873698D01*
X97095459Y-85022541D01*
X97244302Y-85144694D01*
X97244304Y-85144695D01*
X97244307Y-85144697D01*
X97282211Y-85164957D01*
X97414117Y-85235462D01*
X97598376Y-85291357D01*
X97790000Y-85310230D01*
X97981624Y-85291357D01*
X98165883Y-85235462D01*
X98335698Y-85144694D01*
X98484541Y-85022541D01*
X98606694Y-84873698D01*
X98697462Y-84703883D01*
X98753357Y-84519624D01*
X98772230Y-84328000D01*
X98753357Y-84136376D01*
X98697462Y-83952117D01*
X98647004Y-83857718D01*
X98642316Y-83810116D01*
X98657929Y-83784066D01*
X99254222Y-83187775D01*
X99289100Y-83103570D01*
X99289100Y-83012430D01*
X99289100Y-82145336D01*
X99307406Y-82101142D01*
X99351600Y-82082836D01*
X99395794Y-82101142D01*
X99411407Y-82127189D01*
X99422538Y-82163883D01*
X99422539Y-82163884D01*
X99513302Y-82333692D01*
X99513306Y-82333698D01*
X99635459Y-82482541D01*
X99784302Y-82604694D01*
X99784304Y-82604695D01*
X99784307Y-82604697D01*
X99822211Y-82624957D01*
X99954117Y-82695462D01*
X100138376Y-82751357D01*
X100330000Y-82770230D01*
X100521624Y-82751357D01*
X100705883Y-82695462D01*
X100875698Y-82604694D01*
X101024541Y-82482541D01*
X101146694Y-82333698D01*
X101237462Y-82163883D01*
X101248592Y-82127191D01*
X101278938Y-82090216D01*
X101326543Y-82085527D01*
X101363520Y-82115874D01*
X101370900Y-82145336D01*
X101370900Y-83572214D01*
X101352594Y-83616408D01*
X101213487Y-83755514D01*
X101169293Y-83773820D01*
X101125099Y-83755514D01*
X101120980Y-83750970D01*
X101024541Y-83633459D01*
X100875698Y-83511306D01*
X100875692Y-83511302D01*
X100768695Y-83454112D01*
X100705883Y-83420538D01*
X100588111Y-83384811D01*
X100521622Y-83364642D01*
X100330000Y-83345770D01*
X100138377Y-83364642D01*
X100020604Y-83400369D01*
X99954117Y-83420538D01*
X99954115Y-83420538D01*
X99954115Y-83420539D01*
X99784307Y-83511302D01*
X99784301Y-83511306D01*
X99635459Y-83633459D01*
X99513306Y-83782301D01*
X99513302Y-83782307D01*
X99422539Y-83952115D01*
X99366642Y-84136377D01*
X99347770Y-84327999D01*
X99347770Y-84328000D01*
X99366642Y-84519622D01*
X99385565Y-84582000D01*
X99422538Y-84703883D01*
X99422539Y-84703884D01*
X99513302Y-84873692D01*
X99513306Y-84873698D01*
X99635459Y-85022541D01*
X99784302Y-85144694D01*
X99784304Y-85144695D01*
X99784307Y-85144697D01*
X99822211Y-85164957D01*
X99954117Y-85235462D01*
X100138376Y-85291357D01*
X100330000Y-85310230D01*
X100521624Y-85291357D01*
X100705883Y-85235462D01*
X100875698Y-85144694D01*
X101024541Y-85022541D01*
X101146694Y-84873698D01*
X101237462Y-84703883D01*
X101293357Y-84519624D01*
X101312230Y-84328000D01*
X101312230Y-84327999D01*
X101312531Y-84324944D01*
X101314513Y-84325139D01*
X101330536Y-84286459D01*
X101542995Y-84074000D01*
X101794222Y-83822774D01*
X101814652Y-83773449D01*
X101829100Y-83738571D01*
X101829100Y-82145336D01*
X101847406Y-82101142D01*
X101891600Y-82082836D01*
X101935794Y-82101142D01*
X101951407Y-82127189D01*
X101962538Y-82163883D01*
X101962539Y-82163884D01*
X102053302Y-82333692D01*
X102053306Y-82333698D01*
X102175459Y-82482541D01*
X102324302Y-82604694D01*
X102324304Y-82604695D01*
X102324307Y-82604697D01*
X102362211Y-82624957D01*
X102494117Y-82695462D01*
X102678376Y-82751357D01*
X102870000Y-82770230D01*
X103061624Y-82751357D01*
X103245883Y-82695462D01*
X103415698Y-82604694D01*
X103564541Y-82482541D01*
X103686694Y-82333698D01*
X103777462Y-82163883D01*
X103788592Y-82127191D01*
X103818938Y-82090216D01*
X103866543Y-82085527D01*
X103903520Y-82115874D01*
X103910900Y-82145336D01*
X103910900Y-83572214D01*
X103892594Y-83616408D01*
X103753487Y-83755514D01*
X103709293Y-83773820D01*
X103665099Y-83755514D01*
X103660980Y-83750970D01*
X103564541Y-83633459D01*
X103415698Y-83511306D01*
X103415692Y-83511302D01*
X103308695Y-83454112D01*
X103245883Y-83420538D01*
X103128111Y-83384811D01*
X103061622Y-83364642D01*
X102870000Y-83345770D01*
X102678377Y-83364642D01*
X102560604Y-83400369D01*
X102494117Y-83420538D01*
X102494115Y-83420538D01*
X102494115Y-83420539D01*
X102324307Y-83511302D01*
X102324301Y-83511306D01*
X102175459Y-83633459D01*
X102053306Y-83782301D01*
X102053302Y-83782307D01*
X101962539Y-83952115D01*
X101906642Y-84136377D01*
X101887770Y-84327999D01*
X101887770Y-84328000D01*
X101906642Y-84519622D01*
X101925565Y-84582000D01*
X101962538Y-84703883D01*
X101962539Y-84703884D01*
X102053302Y-84873692D01*
X102053306Y-84873698D01*
X102175459Y-85022541D01*
X102324302Y-85144694D01*
X102324304Y-85144695D01*
X102324307Y-85144697D01*
X102362211Y-85164957D01*
X102494117Y-85235462D01*
X102678376Y-85291357D01*
X102870000Y-85310230D01*
X103061624Y-85291357D01*
X103245883Y-85235462D01*
X103415698Y-85144694D01*
X103564541Y-85022541D01*
X103686694Y-84873698D01*
X103777462Y-84703883D01*
X103833357Y-84519624D01*
X103852230Y-84328000D01*
X103852230Y-84327999D01*
X103852531Y-84324944D01*
X103854513Y-84325139D01*
X103870536Y-84286459D01*
X104082995Y-84074000D01*
X104334222Y-83822774D01*
X104354652Y-83773449D01*
X104369100Y-83738571D01*
X104369100Y-82145336D01*
X104387406Y-82101142D01*
X104431600Y-82082836D01*
X104475794Y-82101142D01*
X104491407Y-82127189D01*
X104502538Y-82163883D01*
X104502539Y-82163884D01*
X104593302Y-82333692D01*
X104593306Y-82333698D01*
X104715459Y-82482541D01*
X104864302Y-82604694D01*
X104864304Y-82604695D01*
X104864307Y-82604697D01*
X104902211Y-82624957D01*
X105034117Y-82695462D01*
X105218376Y-82751357D01*
X105410000Y-82770230D01*
X105601624Y-82751357D01*
X105785883Y-82695462D01*
X105955698Y-82604694D01*
X106104541Y-82482541D01*
X106226694Y-82333698D01*
X106317462Y-82163883D01*
X106328592Y-82127191D01*
X106358938Y-82090216D01*
X106406543Y-82085527D01*
X106443520Y-82115874D01*
X106450900Y-82145336D01*
X106450900Y-83572214D01*
X106432594Y-83616408D01*
X106293487Y-83755514D01*
X106249293Y-83773820D01*
X106205099Y-83755514D01*
X106200980Y-83750970D01*
X106104541Y-83633459D01*
X105955698Y-83511306D01*
X105955692Y-83511302D01*
X105848695Y-83454112D01*
X105785883Y-83420538D01*
X105668111Y-83384811D01*
X105601622Y-83364642D01*
X105410000Y-83345770D01*
X105218377Y-83364642D01*
X105100604Y-83400369D01*
X105034117Y-83420538D01*
X105034115Y-83420538D01*
X105034115Y-83420539D01*
X104864307Y-83511302D01*
X104864301Y-83511306D01*
X104715459Y-83633459D01*
X104593306Y-83782301D01*
X104593302Y-83782307D01*
X104502539Y-83952115D01*
X104446642Y-84136377D01*
X104427770Y-84327999D01*
X104427770Y-84328000D01*
X104446642Y-84519622D01*
X104465565Y-84582000D01*
X104502538Y-84703883D01*
X104502539Y-84703884D01*
X104593302Y-84873692D01*
X104593306Y-84873698D01*
X104715459Y-85022541D01*
X104864302Y-85144694D01*
X104864304Y-85144695D01*
X104864307Y-85144697D01*
X104902211Y-85164957D01*
X105034117Y-85235462D01*
X105218376Y-85291357D01*
X105410000Y-85310230D01*
X105601624Y-85291357D01*
X105785883Y-85235462D01*
X105955698Y-85144694D01*
X106104541Y-85022541D01*
X106226694Y-84873698D01*
X106317462Y-84703883D01*
X106373357Y-84519624D01*
X106392230Y-84328000D01*
X106392230Y-84327999D01*
X106392531Y-84324944D01*
X106394513Y-84325139D01*
X106410536Y-84286459D01*
X106604689Y-84092306D01*
X106648883Y-84074000D01*
X107519297Y-84074000D01*
X107484075Y-84135007D01*
X107450000Y-84262174D01*
X107450000Y-84393826D01*
X107484075Y-84520993D01*
X107519297Y-84582000D01*
X106613457Y-84582000D01*
X106661178Y-84770451D01*
X106661179Y-84770455D01*
X106751583Y-84976554D01*
X106751585Y-84976557D01*
X106874674Y-85164957D01*
X106874677Y-85164962D01*
X107027101Y-85330538D01*
X107027104Y-85330541D01*
X107204697Y-85468767D01*
X107204699Y-85468768D01*
X107402627Y-85575880D01*
X107402628Y-85575881D01*
X107615487Y-85648956D01*
X107696000Y-85662391D01*
X107696000Y-84758702D01*
X107757007Y-84793925D01*
X107884174Y-84828000D01*
X108015826Y-84828000D01*
X108142993Y-84793925D01*
X108204000Y-84758702D01*
X108204000Y-85662391D01*
X108284512Y-85648956D01*
X108497371Y-85575881D01*
X108497372Y-85575880D01*
X108695300Y-85468768D01*
X108695302Y-85468767D01*
X108872895Y-85330541D01*
X108872898Y-85330538D01*
X109025322Y-85164962D01*
X109025325Y-85164957D01*
X109148414Y-84976557D01*
X109148416Y-84976554D01*
X109238820Y-84770455D01*
X109238821Y-84770451D01*
X109286543Y-84582000D01*
X108380703Y-84582000D01*
X108415925Y-84520993D01*
X108450000Y-84393826D01*
X108450000Y-84262174D01*
X108415925Y-84135007D01*
X108380703Y-84074000D01*
X109286543Y-84074000D01*
X109238821Y-83885548D01*
X109238820Y-83885544D01*
X109148416Y-83679445D01*
X109148414Y-83679442D01*
X109025325Y-83491042D01*
X109025322Y-83491037D01*
X108872898Y-83325461D01*
X108872895Y-83325458D01*
X108695302Y-83187232D01*
X108695295Y-83187228D01*
X108558071Y-83112967D01*
X108527915Y-83075834D01*
X108532850Y-83028254D01*
X108558071Y-83003033D01*
X108695295Y-82928771D01*
X108695302Y-82928767D01*
X108872895Y-82790541D01*
X108872898Y-82790538D01*
X109025322Y-82624962D01*
X109025325Y-82624957D01*
X109148414Y-82436557D01*
X109148416Y-82436554D01*
X109238820Y-82230455D01*
X109238821Y-82230451D01*
X109286543Y-82042000D01*
X108380703Y-82042000D01*
X108415925Y-81980993D01*
X108450000Y-81853826D01*
X108450000Y-81722174D01*
X108415925Y-81595007D01*
X108380703Y-81534000D01*
X109286543Y-81534000D01*
X109238821Y-81345548D01*
X109238820Y-81345544D01*
X109148416Y-81139445D01*
X109148414Y-81139442D01*
X109025325Y-80951042D01*
X109025322Y-80951037D01*
X108872898Y-80785461D01*
X108872895Y-80785458D01*
X108695302Y-80647232D01*
X108695300Y-80647231D01*
X108497372Y-80540119D01*
X108497371Y-80540118D01*
X108284507Y-80467041D01*
X108204000Y-80453606D01*
X108204000Y-81357297D01*
X108142993Y-81322075D01*
X108015826Y-81288000D01*
X107884174Y-81288000D01*
X107757007Y-81322075D01*
X107696000Y-81357297D01*
X107696000Y-80453606D01*
X107615492Y-80467041D01*
X107402628Y-80540118D01*
X107402627Y-80540119D01*
X107204699Y-80647231D01*
X107204697Y-80647232D01*
X107027104Y-80785458D01*
X107027100Y-80785462D01*
X107017582Y-80795802D01*
X106974182Y-80815918D01*
X106929269Y-80799453D01*
X106909153Y-80756053D01*
X106909100Y-80753471D01*
X106909100Y-79837429D01*
X106909099Y-79837426D01*
X106898884Y-79812766D01*
X106874222Y-79753225D01*
X106047765Y-78926768D01*
X105986534Y-78901406D01*
X105986534Y-78901405D01*
X105986532Y-78901405D01*
X105963561Y-78891890D01*
X105963560Y-78891890D01*
X100288677Y-78891890D01*
X100244483Y-78873584D01*
X100226177Y-78829390D01*
X100244483Y-78785196D01*
X100488986Y-78540693D01*
X100753618Y-78276060D01*
X100797811Y-78257755D01*
X100805968Y-78258289D01*
X100819966Y-78260132D01*
X100837999Y-78262507D01*
X100838000Y-78262507D01*
X100838002Y-78262507D01*
X100977369Y-78244159D01*
X100977369Y-78244158D01*
X100977376Y-78244158D01*
X101107254Y-78190361D01*
X101218782Y-78104782D01*
X101238448Y-78079152D01*
X101279875Y-78055235D01*
X101288033Y-78054700D01*
X101456273Y-78054700D01*
X101456274Y-78054700D01*
X101540382Y-78032164D01*
X101615791Y-77988626D01*
X101677362Y-77927055D01*
X101677362Y-77927053D01*
X101682503Y-77921913D01*
X101682507Y-77921908D01*
X101880416Y-77723999D01*
X113317770Y-77723999D01*
X113317770Y-77724000D01*
X113336642Y-77915622D01*
X113356811Y-77982111D01*
X113392538Y-78099883D01*
X113392539Y-78099884D01*
X113483302Y-78269692D01*
X113483306Y-78269698D01*
X113605459Y-78418541D01*
X113754302Y-78540694D01*
X113754304Y-78540695D01*
X113754307Y-78540697D01*
X113798491Y-78564313D01*
X113924117Y-78631462D01*
X114108376Y-78687357D01*
X114300000Y-78706230D01*
X114491624Y-78687357D01*
X114675883Y-78631462D01*
X114845698Y-78540694D01*
X114994541Y-78418541D01*
X115116694Y-78269698D01*
X115207462Y-78099883D01*
X115263357Y-77915624D01*
X115282230Y-77724000D01*
X115263357Y-77532376D01*
X115207462Y-77348117D01*
X115130346Y-77203843D01*
X115116697Y-77178307D01*
X115116693Y-77178301D01*
X114994541Y-77029459D01*
X114845698Y-76907306D01*
X114845692Y-76907302D01*
X114696859Y-76827750D01*
X114675883Y-76816538D01*
X114558111Y-76780811D01*
X114491622Y-76760642D01*
X114300000Y-76741770D01*
X114108377Y-76760642D01*
X113990604Y-76796369D01*
X113924117Y-76816538D01*
X113924115Y-76816538D01*
X113924115Y-76816539D01*
X113754307Y-76907302D01*
X113754301Y-76907306D01*
X113605459Y-77029459D01*
X113483306Y-77178301D01*
X113483302Y-77178307D01*
X113393000Y-77347252D01*
X113392538Y-77348117D01*
X113385383Y-77371705D01*
X113336642Y-77532377D01*
X113317770Y-77723999D01*
X101880416Y-77723999D01*
X104420416Y-75183999D01*
X113317770Y-75183999D01*
X113317770Y-75184000D01*
X113336642Y-75375622D01*
X113336643Y-75375624D01*
X113392538Y-75559883D01*
X113392539Y-75559884D01*
X113483302Y-75729692D01*
X113483306Y-75729698D01*
X113605459Y-75878541D01*
X113754302Y-76000694D01*
X113754304Y-76000695D01*
X113754307Y-76000697D01*
X113795472Y-76022700D01*
X113924117Y-76091462D01*
X114108376Y-76147357D01*
X114300000Y-76166230D01*
X114491624Y-76147357D01*
X114675883Y-76091462D01*
X114845698Y-76000694D01*
X114994541Y-75878541D01*
X115116694Y-75729698D01*
X115207462Y-75559883D01*
X115263357Y-75375624D01*
X115282230Y-75184000D01*
X115263357Y-74992376D01*
X115207462Y-74808117D01*
X115116694Y-74638302D01*
X114994541Y-74489459D01*
X114845698Y-74367306D01*
X114845692Y-74367302D01*
X114738695Y-74310112D01*
X114675883Y-74276538D01*
X114558111Y-74240811D01*
X114491622Y-74220642D01*
X114300000Y-74201770D01*
X114108377Y-74220642D01*
X113990604Y-74256369D01*
X113924117Y-74276538D01*
X113924115Y-74276538D01*
X113924115Y-74276539D01*
X113754307Y-74367302D01*
X113754301Y-74367306D01*
X113605459Y-74489459D01*
X113483306Y-74638301D01*
X113483302Y-74638307D01*
X113392539Y-74808115D01*
X113336642Y-74992377D01*
X113317770Y-75183999D01*
X104420416Y-75183999D01*
X105819294Y-73785121D01*
X105819299Y-73785117D01*
X105824439Y-73779976D01*
X105824441Y-73779976D01*
X105886012Y-73718405D01*
X105929550Y-73642996D01*
X105952086Y-73558888D01*
X105952086Y-72692258D01*
X105970392Y-72648064D01*
X106014586Y-72629758D01*
X106052633Y-72642673D01*
X106088733Y-72670374D01*
X106218611Y-72724171D01*
X106218615Y-72724171D01*
X106218617Y-72724172D01*
X106357985Y-72742520D01*
X106357987Y-72742520D01*
X106357989Y-72742520D01*
X106393870Y-72737795D01*
X106450054Y-72730399D01*
X106496258Y-72742779D01*
X106520176Y-72784206D01*
X106507796Y-72830411D01*
X106467639Y-72882746D01*
X106467637Y-72882749D01*
X106413843Y-73012620D01*
X106413840Y-73012630D01*
X106395493Y-73151998D01*
X106395493Y-73152001D01*
X106413840Y-73291369D01*
X106413841Y-73291372D01*
X106413842Y-73291376D01*
X106467639Y-73421254D01*
X106553218Y-73532782D01*
X106664746Y-73618361D01*
X106794624Y-73672158D01*
X106794628Y-73672158D01*
X106794630Y-73672159D01*
X106933998Y-73690507D01*
X106934000Y-73690507D01*
X106934002Y-73690507D01*
X107073369Y-73672159D01*
X107073369Y-73672158D01*
X107073376Y-73672158D01*
X107203254Y-73618361D01*
X107314498Y-73533000D01*
X108071271Y-73533000D01*
X108092080Y-73677732D01*
X108092081Y-73677735D01*
X108152823Y-73810741D01*
X108152826Y-73810746D01*
X108248580Y-73921252D01*
X108371584Y-74000301D01*
X108371589Y-74000304D01*
X108511886Y-74041499D01*
X108511888Y-74041500D01*
X108511889Y-74041500D01*
X108658112Y-74041500D01*
X108658112Y-74041499D01*
X108798411Y-74000304D01*
X108844577Y-73970634D01*
X108921419Y-73921252D01*
X109017173Y-73810746D01*
X109017176Y-73810743D01*
X109077919Y-73677734D01*
X109098729Y-73533000D01*
X109077919Y-73388266D01*
X109017176Y-73255257D01*
X108960364Y-73189692D01*
X108921419Y-73144747D01*
X108798415Y-73065698D01*
X108798406Y-73065694D01*
X108658113Y-73024500D01*
X108658111Y-73024500D01*
X108511889Y-73024500D01*
X108511887Y-73024500D01*
X108371593Y-73065694D01*
X108371584Y-73065698D01*
X108248580Y-73144747D01*
X108152826Y-73255253D01*
X108152823Y-73255258D01*
X108092081Y-73388264D01*
X108092080Y-73388267D01*
X108071271Y-73533000D01*
X107314498Y-73533000D01*
X107314782Y-73532782D01*
X107400361Y-73421254D01*
X107454158Y-73291376D01*
X107472507Y-73152000D01*
X107468290Y-73119969D01*
X107480670Y-73073764D01*
X107486053Y-73067625D01*
X107893908Y-72659771D01*
X107893913Y-72659767D01*
X107899053Y-72654626D01*
X107899055Y-72654626D01*
X107960626Y-72593055D01*
X108004164Y-72517646D01*
X108021653Y-72452376D01*
X108026701Y-72433537D01*
X108026701Y-72346463D01*
X108026701Y-72342639D01*
X108026700Y-72342621D01*
X108026700Y-71281878D01*
X108045006Y-71237684D01*
X108089200Y-71219378D01*
X108133394Y-71237684D01*
X108146052Y-71255915D01*
X108152823Y-71270741D01*
X108152826Y-71270746D01*
X108248580Y-71381252D01*
X108360950Y-71453467D01*
X108371589Y-71460304D01*
X108503477Y-71499030D01*
X108511886Y-71501499D01*
X108511888Y-71501500D01*
X108511889Y-71501500D01*
X108658112Y-71501500D01*
X108658112Y-71501499D01*
X108798411Y-71460304D01*
X108844577Y-71430634D01*
X108921419Y-71381252D01*
X108921421Y-71381250D01*
X109017176Y-71270743D01*
X109077919Y-71137734D01*
X109098729Y-70993000D01*
X109077919Y-70848266D01*
X109017176Y-70715257D01*
X108995486Y-70690225D01*
X108921419Y-70604747D01*
X108798415Y-70525698D01*
X108798406Y-70525694D01*
X108658113Y-70484500D01*
X108658111Y-70484500D01*
X108511889Y-70484500D01*
X108511887Y-70484500D01*
X108371593Y-70525694D01*
X108371584Y-70525698D01*
X108248580Y-70604747D01*
X108152826Y-70715253D01*
X108152824Y-70715256D01*
X108146052Y-70730085D01*
X108111040Y-70762681D01*
X108063236Y-70760973D01*
X108030640Y-70725961D01*
X108026700Y-70704121D01*
X108026700Y-69837996D01*
X111143511Y-69837996D01*
X111143511Y-69838003D01*
X111160957Y-69948156D01*
X111160959Y-69948161D01*
X111186493Y-69998276D01*
X111211594Y-70047539D01*
X111290461Y-70126406D01*
X111389839Y-70177041D01*
X111500000Y-70194489D01*
X111500001Y-70194488D01*
X111500004Y-70194489D01*
X111500604Y-70194489D01*
X111500975Y-70194642D01*
X111504859Y-70195258D01*
X111504711Y-70196190D01*
X111544798Y-70212795D01*
X113432067Y-72100064D01*
X113450373Y-72144258D01*
X113442993Y-72173720D01*
X113392540Y-72268111D01*
X113336642Y-72452377D01*
X113317770Y-72643999D01*
X113317770Y-72644000D01*
X113336642Y-72835622D01*
X113336643Y-72835624D01*
X113392538Y-73019883D01*
X113417026Y-73065696D01*
X113483302Y-73189692D01*
X113483306Y-73189698D01*
X113605459Y-73338541D01*
X113754302Y-73460694D01*
X113754304Y-73460695D01*
X113754307Y-73460697D01*
X113798491Y-73484313D01*
X113924117Y-73551462D01*
X114108376Y-73607357D01*
X114300000Y-73626230D01*
X114491624Y-73607357D01*
X114675883Y-73551462D01*
X114845698Y-73460694D01*
X114994541Y-73338541D01*
X115116694Y-73189698D01*
X115207462Y-73019883D01*
X115263357Y-72835624D01*
X115282230Y-72644000D01*
X115263357Y-72452376D01*
X115207462Y-72268117D01*
X115139744Y-72141426D01*
X115116697Y-72098307D01*
X115116693Y-72098301D01*
X115108069Y-72087793D01*
X114994541Y-71949459D01*
X114845698Y-71827306D01*
X114845692Y-71827302D01*
X114680309Y-71738904D01*
X114675883Y-71736538D01*
X114558111Y-71700811D01*
X114491622Y-71680642D01*
X114300000Y-71661770D01*
X114108377Y-71680642D01*
X113969431Y-71722792D01*
X113924117Y-71736538D01*
X113924116Y-71736538D01*
X113924111Y-71736540D01*
X113829720Y-71786993D01*
X113782115Y-71791682D01*
X113756064Y-71776067D01*
X112083996Y-70103999D01*
X113317770Y-70103999D01*
X113317770Y-70104000D01*
X113336642Y-70295622D01*
X113345724Y-70325560D01*
X113392538Y-70479883D01*
X113417026Y-70525696D01*
X113483302Y-70649692D01*
X113483306Y-70649698D01*
X113605459Y-70798541D01*
X113754302Y-70920694D01*
X113754304Y-70920695D01*
X113754307Y-70920697D01*
X113798491Y-70944313D01*
X113924117Y-71011462D01*
X114108376Y-71067357D01*
X114300000Y-71086230D01*
X114491624Y-71067357D01*
X114675883Y-71011462D01*
X114845698Y-70920694D01*
X114994541Y-70798541D01*
X115116694Y-70649698D01*
X115207462Y-70479883D01*
X115263357Y-70295624D01*
X115282230Y-70104000D01*
X115263357Y-69912376D01*
X115207462Y-69728117D01*
X115130313Y-69583782D01*
X115116697Y-69558307D01*
X115116693Y-69558301D01*
X115112117Y-69552725D01*
X114994541Y-69409459D01*
X114845698Y-69287306D01*
X114845692Y-69287302D01*
X114694986Y-69206749D01*
X114675883Y-69196538D01*
X114558111Y-69160811D01*
X114491622Y-69140642D01*
X114300000Y-69121770D01*
X114108377Y-69140642D01*
X114014672Y-69169068D01*
X113924117Y-69196538D01*
X113924115Y-69196538D01*
X113924115Y-69196539D01*
X113754307Y-69287302D01*
X113754301Y-69287306D01*
X113605459Y-69409459D01*
X113483306Y-69558301D01*
X113483302Y-69558307D01*
X113392539Y-69728115D01*
X113336642Y-69912377D01*
X113317770Y-70103999D01*
X112083996Y-70103999D01*
X111873744Y-69893747D01*
X111855438Y-69849553D01*
X111856208Y-69839772D01*
X111856489Y-69838000D01*
X111839041Y-69727839D01*
X111788406Y-69628461D01*
X111709539Y-69549594D01*
X111709538Y-69549593D01*
X111610161Y-69498959D01*
X111610156Y-69498957D01*
X111500003Y-69481511D01*
X111499997Y-69481511D01*
X111389843Y-69498957D01*
X111389838Y-69498959D01*
X111290461Y-69549593D01*
X111211593Y-69628461D01*
X111160959Y-69727838D01*
X111160957Y-69727843D01*
X111143511Y-69837996D01*
X108026700Y-69837996D01*
X108026700Y-67878121D01*
X108045006Y-67833927D01*
X108089200Y-67815621D01*
X108133394Y-67833927D01*
X108143327Y-67846872D01*
X108145550Y-67850722D01*
X108145551Y-67850725D01*
X108274234Y-67993643D01*
X108274235Y-67993644D01*
X108274240Y-67993649D01*
X108429830Y-68106691D01*
X108520455Y-68147040D01*
X108605511Y-68184910D01*
X108605515Y-68184911D01*
X108605523Y-68184915D01*
X108605526Y-68184915D01*
X108605527Y-68184916D01*
X108793640Y-68224900D01*
X108985960Y-68224900D01*
X109174077Y-68184915D01*
X109349770Y-68106691D01*
X109505360Y-67993649D01*
X109634047Y-67850727D01*
X109730207Y-67684173D01*
X109769254Y-67563999D01*
X113317770Y-67563999D01*
X113317770Y-67564000D01*
X113336642Y-67755622D01*
X113336643Y-67755624D01*
X113392538Y-67939883D01*
X113418635Y-67988707D01*
X113483302Y-68109692D01*
X113483306Y-68109698D01*
X113605459Y-68258541D01*
X113754302Y-68380694D01*
X113754304Y-68380695D01*
X113754307Y-68380697D01*
X113798491Y-68404313D01*
X113924117Y-68471462D01*
X114108376Y-68527357D01*
X114300000Y-68546230D01*
X114491624Y-68527357D01*
X114675883Y-68471462D01*
X114845698Y-68380694D01*
X114994541Y-68258541D01*
X115116694Y-68109698D01*
X115207462Y-67939883D01*
X115263357Y-67755624D01*
X115282230Y-67564000D01*
X115263357Y-67372376D01*
X115207462Y-67188117D01*
X115136577Y-67055500D01*
X115116697Y-67018307D01*
X115116693Y-67018301D01*
X115114234Y-67015305D01*
X114994541Y-66869459D01*
X114845698Y-66747306D01*
X114845692Y-66747302D01*
X114708028Y-66673720D01*
X114675883Y-66656538D01*
X114558111Y-66620811D01*
X114491622Y-66600642D01*
X114300000Y-66581770D01*
X114108377Y-66600642D01*
X113990604Y-66636369D01*
X113924117Y-66656538D01*
X113924115Y-66656538D01*
X113924115Y-66656539D01*
X113754307Y-66747302D01*
X113754301Y-66747306D01*
X113605459Y-66869459D01*
X113483306Y-67018301D01*
X113483302Y-67018307D01*
X113392539Y-67188115D01*
X113336642Y-67372377D01*
X113317770Y-67563999D01*
X109769254Y-67563999D01*
X109789637Y-67501266D01*
X109809740Y-67310000D01*
X109789637Y-67118734D01*
X109742396Y-66973342D01*
X109746149Y-66925655D01*
X109757640Y-66909838D01*
X110844426Y-65823055D01*
X110887964Y-65747646D01*
X110910500Y-65663538D01*
X110910500Y-65576463D01*
X110910500Y-65572639D01*
X110910499Y-65572621D01*
X110910499Y-65023999D01*
X113317770Y-65023999D01*
X113317770Y-65024000D01*
X113336642Y-65215622D01*
X113342078Y-65233542D01*
X113392538Y-65399883D01*
X113417018Y-65445681D01*
X113483302Y-65569692D01*
X113483306Y-65569698D01*
X113605459Y-65718541D01*
X113754302Y-65840694D01*
X113754304Y-65840695D01*
X113754307Y-65840697D01*
X113798491Y-65864313D01*
X113924117Y-65931462D01*
X114108376Y-65987357D01*
X114300000Y-66006230D01*
X114491624Y-65987357D01*
X114675883Y-65931462D01*
X114845698Y-65840694D01*
X114994541Y-65718541D01*
X115116694Y-65569698D01*
X115207462Y-65399883D01*
X115263357Y-65215624D01*
X115282230Y-65024000D01*
X115263357Y-64832376D01*
X115207462Y-64648117D01*
X115117236Y-64479316D01*
X115116697Y-64478307D01*
X115116693Y-64478301D01*
X115062893Y-64412746D01*
X114994541Y-64329459D01*
X114845698Y-64207306D01*
X114845692Y-64207302D01*
X114738695Y-64150112D01*
X114675883Y-64116538D01*
X114558111Y-64080811D01*
X114491622Y-64060642D01*
X114300000Y-64041770D01*
X114108377Y-64060642D01*
X113990604Y-64096369D01*
X113924117Y-64116538D01*
X113924115Y-64116538D01*
X113924115Y-64116539D01*
X113754307Y-64207302D01*
X113754301Y-64207306D01*
X113605459Y-64329459D01*
X113483306Y-64478301D01*
X113483302Y-64478307D01*
X113417025Y-64602305D01*
X113392538Y-64648117D01*
X113381340Y-64685033D01*
X113336642Y-64832377D01*
X113317770Y-65023999D01*
X110910499Y-65023999D01*
X110910499Y-62483999D01*
X113317770Y-62483999D01*
X113317770Y-62484000D01*
X113336642Y-62675622D01*
X113336643Y-62675624D01*
X113392538Y-62859883D01*
X113392539Y-62859884D01*
X113483302Y-63029692D01*
X113483306Y-63029698D01*
X113605459Y-63178541D01*
X113754302Y-63300694D01*
X113754304Y-63300695D01*
X113754307Y-63300697D01*
X113798491Y-63324313D01*
X113924117Y-63391462D01*
X114108376Y-63447357D01*
X114300000Y-63466230D01*
X114491624Y-63447357D01*
X114675883Y-63391462D01*
X114845698Y-63300694D01*
X114994541Y-63178541D01*
X115116694Y-63029698D01*
X115207462Y-62859883D01*
X115263357Y-62675624D01*
X115282230Y-62484000D01*
X115263357Y-62292376D01*
X115207462Y-62108117D01*
X115116694Y-61938302D01*
X114994541Y-61789459D01*
X114845698Y-61667306D01*
X114845692Y-61667302D01*
X114738695Y-61610112D01*
X114675883Y-61576538D01*
X114558111Y-61540811D01*
X114491622Y-61520642D01*
X114300000Y-61501770D01*
X114108377Y-61520642D01*
X113990604Y-61556369D01*
X113924117Y-61576538D01*
X113924115Y-61576538D01*
X113924115Y-61576539D01*
X113754307Y-61667302D01*
X113754301Y-61667306D01*
X113605459Y-61789459D01*
X113483306Y-61938301D01*
X113483302Y-61938307D01*
X113392539Y-62108115D01*
X113336642Y-62292377D01*
X113317770Y-62483999D01*
X110910499Y-62483999D01*
X110910499Y-61151708D01*
X110928804Y-61107515D01*
X111766519Y-60269799D01*
X111766524Y-60269796D01*
X111771664Y-60264655D01*
X111771666Y-60264655D01*
X111833237Y-60203084D01*
X111876775Y-60127675D01*
X111899311Y-60043567D01*
X111899311Y-59943999D01*
X113317770Y-59943999D01*
X113317770Y-59944000D01*
X113336642Y-60135622D01*
X113336643Y-60135624D01*
X113392538Y-60319883D01*
X113392539Y-60319884D01*
X113483302Y-60489692D01*
X113483306Y-60489698D01*
X113605459Y-60638541D01*
X113754302Y-60760694D01*
X113754304Y-60760695D01*
X113754307Y-60760697D01*
X113760423Y-60763966D01*
X113924117Y-60851462D01*
X114108376Y-60907357D01*
X114300000Y-60926230D01*
X114491624Y-60907357D01*
X114675883Y-60851462D01*
X114845698Y-60760694D01*
X114994541Y-60638541D01*
X115116694Y-60489698D01*
X115207462Y-60319883D01*
X115263357Y-60135624D01*
X115282230Y-59944000D01*
X115274339Y-59863885D01*
X115263357Y-59752377D01*
X115263357Y-59752376D01*
X115207462Y-59568117D01*
X115116694Y-59398302D01*
X114994541Y-59249459D01*
X114845698Y-59127306D01*
X114845692Y-59127302D01*
X114738695Y-59070112D01*
X114675883Y-59036538D01*
X114558111Y-59000811D01*
X114491622Y-58980642D01*
X114300000Y-58961770D01*
X114108377Y-58980642D01*
X113990604Y-59016369D01*
X113924117Y-59036538D01*
X113924115Y-59036538D01*
X113924115Y-59036539D01*
X113754307Y-59127302D01*
X113754301Y-59127306D01*
X113605459Y-59249459D01*
X113483306Y-59398301D01*
X113483302Y-59398307D01*
X113392539Y-59568115D01*
X113392538Y-59568117D01*
X113382609Y-59600849D01*
X113336642Y-59752377D01*
X113317770Y-59943999D01*
X111899311Y-59943999D01*
X111899311Y-56541442D01*
X113322500Y-56541442D01*
X113322500Y-58266557D01*
X113329898Y-58303748D01*
X113329898Y-58303749D01*
X113358077Y-58345922D01*
X113375242Y-58357391D01*
X113400252Y-58374102D01*
X113437442Y-58381500D01*
X113437443Y-58381500D01*
X115162557Y-58381500D01*
X115162558Y-58381500D01*
X115199748Y-58374102D01*
X115241922Y-58345922D01*
X115270102Y-58303748D01*
X115277500Y-58266558D01*
X115277500Y-56541442D01*
X115270102Y-56504252D01*
X115252098Y-56477307D01*
X115241922Y-56462077D01*
X115199748Y-56433898D01*
X115162558Y-56426500D01*
X113437442Y-56426500D01*
X113418847Y-56430199D01*
X113400251Y-56433898D01*
X113400250Y-56433898D01*
X113358077Y-56462077D01*
X113329898Y-56504250D01*
X113329898Y-56504251D01*
X113322500Y-56541442D01*
X111899311Y-56541442D01*
X111899311Y-55398718D01*
X111876775Y-55314610D01*
X111876774Y-55314607D01*
X111833237Y-55239201D01*
X111833236Y-55239200D01*
X111771666Y-55177630D01*
X111771663Y-55177628D01*
X111769483Y-55175448D01*
X111769483Y-55175447D01*
X111769477Y-55175442D01*
X111384207Y-54790172D01*
X111365901Y-54745978D01*
X111365901Y-53965085D01*
X111365902Y-53965072D01*
X111365902Y-53872967D01*
X111365900Y-53872959D01*
X111343366Y-53788858D01*
X111343365Y-53788855D01*
X111299828Y-53713449D01*
X111299823Y-53713443D01*
X110689691Y-53103313D01*
X110689679Y-53103299D01*
X110624557Y-53038177D01*
X110624551Y-53038172D01*
X110549145Y-52994635D01*
X110549142Y-52994634D01*
X110465041Y-52972100D01*
X110465036Y-52972099D01*
X110465035Y-52972099D01*
X98291663Y-52972099D01*
X98291662Y-52972099D01*
X98291656Y-52972100D01*
X98207555Y-52994634D01*
X98207552Y-52994635D01*
X98132146Y-53038172D01*
X98132145Y-53038173D01*
X98101360Y-53068958D01*
X98070575Y-53099744D01*
X98070573Y-53099746D01*
X97605300Y-53565018D01*
X97561106Y-53583324D01*
X97533819Y-53576490D01*
X97533727Y-53576715D01*
X97532212Y-53576087D01*
X97531646Y-53575946D01*
X97530885Y-53575539D01*
X97530884Y-53575538D01*
X97530883Y-53575538D01*
X97438753Y-53547590D01*
X97346622Y-53519642D01*
X97155000Y-53500770D01*
X96963377Y-53519642D01*
X96845604Y-53555369D01*
X96779117Y-53575538D01*
X96779115Y-53575538D01*
X96779115Y-53575539D01*
X96609307Y-53666302D01*
X96609301Y-53666306D01*
X96460459Y-53788459D01*
X96338306Y-53937301D01*
X96338302Y-53937307D01*
X96247539Y-54107115D01*
X96191642Y-54291377D01*
X96172770Y-54482999D01*
X96172770Y-54483000D01*
X96191642Y-54674622D01*
X96247538Y-54858883D01*
X96247949Y-54859651D01*
X96247977Y-54859942D01*
X96248713Y-54861718D01*
X96248174Y-54861941D01*
X96252630Y-54907257D01*
X96237018Y-54933299D01*
X95065300Y-56105018D01*
X95021106Y-56123324D01*
X94993819Y-56116490D01*
X94993727Y-56116715D01*
X94992212Y-56116087D01*
X94991646Y-56115946D01*
X94990885Y-56115539D01*
X94990884Y-56115538D01*
X94990883Y-56115538D01*
X94898753Y-56087590D01*
X94806622Y-56059642D01*
X94615000Y-56040770D01*
X94423377Y-56059642D01*
X94305604Y-56095369D01*
X94239117Y-56115538D01*
X94239115Y-56115538D01*
X94239115Y-56115539D01*
X94069307Y-56206302D01*
X94069301Y-56206306D01*
X93920459Y-56328459D01*
X93798306Y-56477301D01*
X93798302Y-56477307D01*
X93707947Y-56646351D01*
X93707538Y-56647117D01*
X93695571Y-56686568D01*
X93651642Y-56831377D01*
X93632770Y-57022999D01*
X93632770Y-57023000D01*
X93651642Y-57214622D01*
X93651643Y-57214624D01*
X93706796Y-57396438D01*
X93707539Y-57398885D01*
X93707946Y-57399646D01*
X93707974Y-57399939D01*
X93708715Y-57401727D01*
X93708172Y-57401951D01*
X93712632Y-57447252D01*
X93697018Y-57473300D01*
X93316125Y-57854195D01*
X93271931Y-57872501D01*
X92755398Y-57872501D01*
X92711204Y-57854195D01*
X92692898Y-57810001D01*
X92711204Y-57765807D01*
X92715748Y-57761688D01*
X92769541Y-57717541D01*
X92891694Y-57568698D01*
X92982462Y-57398883D01*
X93038357Y-57214624D01*
X93057230Y-57023000D01*
X93038357Y-56831376D01*
X92982462Y-56647117D01*
X92891694Y-56477302D01*
X92769541Y-56328459D01*
X92715747Y-56284311D01*
X92693199Y-56242125D01*
X92707085Y-56196349D01*
X92749272Y-56173800D01*
X92755398Y-56173499D01*
X93298738Y-56173499D01*
X93298739Y-56173499D01*
X93382847Y-56150963D01*
X93458256Y-56107425D01*
X93519827Y-56045854D01*
X93519827Y-56045852D01*
X93524968Y-56040712D01*
X93524972Y-56040707D01*
X94164699Y-55400979D01*
X94208892Y-55382674D01*
X94236189Y-55389510D01*
X94236282Y-55389287D01*
X94237788Y-55389911D01*
X94238349Y-55390051D01*
X94239117Y-55390462D01*
X94423376Y-55446357D01*
X94615000Y-55465230D01*
X94806624Y-55446357D01*
X94990883Y-55390462D01*
X95160698Y-55299694D01*
X95309541Y-55177541D01*
X95431694Y-55028698D01*
X95522462Y-54858883D01*
X95578357Y-54674624D01*
X95597230Y-54483000D01*
X95578357Y-54291376D01*
X95522462Y-54107117D01*
X95431694Y-53937302D01*
X95309541Y-53788459D01*
X95160698Y-53666306D01*
X95160692Y-53666302D01*
X95032523Y-53597795D01*
X94990883Y-53575538D01*
X94873111Y-53539811D01*
X94806622Y-53519642D01*
X94615000Y-53500770D01*
X94423377Y-53519642D01*
X94305604Y-53555369D01*
X94239117Y-53575538D01*
X94239115Y-53575538D01*
X94239115Y-53575539D01*
X94069307Y-53666302D01*
X94069301Y-53666306D01*
X93920459Y-53788459D01*
X93798306Y-53937301D01*
X93798302Y-53937307D01*
X93707539Y-54107115D01*
X93651642Y-54291377D01*
X93632770Y-54482999D01*
X93632770Y-54483000D01*
X93651642Y-54674622D01*
X93651643Y-54674624D01*
X93707537Y-54858881D01*
X93707539Y-54858885D01*
X93707946Y-54859646D01*
X93707974Y-54859939D01*
X93708715Y-54861727D01*
X93708172Y-54861951D01*
X93712632Y-54907252D01*
X93697018Y-54933300D01*
X93136527Y-55493793D01*
X93092333Y-55512099D01*
X92471239Y-55512099D01*
X92427045Y-55493793D01*
X92408739Y-55449599D01*
X92427045Y-55405405D01*
X92448436Y-55392582D01*
X92448045Y-55391637D01*
X92450868Y-55390466D01*
X92450883Y-55390462D01*
X92620698Y-55299694D01*
X92769541Y-55177541D01*
X92891694Y-55028698D01*
X92982462Y-54858883D01*
X93038357Y-54674624D01*
X93057230Y-54483000D01*
X93038357Y-54291376D01*
X92982462Y-54107117D01*
X92891694Y-53937302D01*
X92769541Y-53788459D01*
X92620698Y-53666306D01*
X92620692Y-53666302D01*
X92492523Y-53597795D01*
X92450883Y-53575538D01*
X92333111Y-53539811D01*
X92266622Y-53519642D01*
X92075000Y-53500770D01*
X91883377Y-53519642D01*
X91765604Y-53555369D01*
X91699117Y-53575538D01*
X91699115Y-53575538D01*
X91699115Y-53575539D01*
X91529307Y-53666302D01*
X91529301Y-53666306D01*
X91380459Y-53788459D01*
X91258306Y-53937301D01*
X91258302Y-53937307D01*
X91167539Y-54107115D01*
X91111642Y-54291377D01*
X91092770Y-54482999D01*
X91092770Y-54483000D01*
X91111642Y-54674622D01*
X91111643Y-54674624D01*
X91167538Y-54858883D01*
X91201112Y-54921695D01*
X91258302Y-55028692D01*
X91258306Y-55028698D01*
X91380459Y-55177541D01*
X91529302Y-55299694D01*
X91529304Y-55299695D01*
X91529307Y-55299697D01*
X91557202Y-55314607D01*
X91699117Y-55390462D01*
X91699127Y-55390465D01*
X91701955Y-55391637D01*
X91701244Y-55393351D01*
X91733884Y-55420142D01*
X91738568Y-55467747D01*
X91708218Y-55504722D01*
X91678761Y-55512099D01*
X89931239Y-55512099D01*
X89887045Y-55493793D01*
X89868739Y-55449599D01*
X89887045Y-55405405D01*
X89908436Y-55392582D01*
X89908045Y-55391637D01*
X89910868Y-55390466D01*
X89910883Y-55390462D01*
X90080698Y-55299694D01*
X90229541Y-55177541D01*
X90351694Y-55028698D01*
X90442462Y-54858883D01*
X90498357Y-54674624D01*
X90517230Y-54483000D01*
X90498357Y-54291376D01*
X90442462Y-54107117D01*
X90351694Y-53937302D01*
X90229541Y-53788459D01*
X90080698Y-53666306D01*
X90080692Y-53666302D01*
X89952523Y-53597795D01*
X89910883Y-53575538D01*
X89793111Y-53539811D01*
X89726622Y-53519642D01*
X89535000Y-53500770D01*
X89343377Y-53519642D01*
X89225604Y-53555369D01*
X89159117Y-53575538D01*
X89159115Y-53575538D01*
X89159115Y-53575539D01*
X88989307Y-53666302D01*
X88989301Y-53666306D01*
X88840459Y-53788459D01*
X88718306Y-53937301D01*
X88718302Y-53937307D01*
X88627539Y-54107115D01*
X88571642Y-54291377D01*
X88552770Y-54482999D01*
X88552770Y-54483000D01*
X88571642Y-54674622D01*
X88571643Y-54674624D01*
X88627538Y-54858883D01*
X88661112Y-54921695D01*
X88718302Y-55028692D01*
X88718306Y-55028698D01*
X88840459Y-55177541D01*
X88989302Y-55299694D01*
X88989304Y-55299695D01*
X88989307Y-55299697D01*
X89017202Y-55314607D01*
X89159117Y-55390462D01*
X89159127Y-55390465D01*
X89161955Y-55391637D01*
X89161244Y-55393351D01*
X89193884Y-55420142D01*
X89198568Y-55467747D01*
X89168218Y-55504722D01*
X89138761Y-55512099D01*
X87391239Y-55512099D01*
X87347045Y-55493793D01*
X87328739Y-55449599D01*
X87347045Y-55405405D01*
X87368436Y-55392582D01*
X87368045Y-55391637D01*
X87370868Y-55390466D01*
X87370883Y-55390462D01*
X87540698Y-55299694D01*
X87689541Y-55177541D01*
X87811694Y-55028698D01*
X87902462Y-54858883D01*
X87958357Y-54674624D01*
X87977230Y-54483000D01*
X87958357Y-54291376D01*
X87902462Y-54107117D01*
X87811694Y-53937302D01*
X87689541Y-53788459D01*
X87540698Y-53666306D01*
X87540692Y-53666302D01*
X87412523Y-53597795D01*
X87370883Y-53575538D01*
X87253111Y-53539811D01*
X87186622Y-53519642D01*
X86995000Y-53500770D01*
X86803377Y-53519642D01*
X86685604Y-53555369D01*
X86619117Y-53575538D01*
X86619115Y-53575538D01*
X86619115Y-53575539D01*
X86449307Y-53666302D01*
X86449301Y-53666306D01*
X86300459Y-53788459D01*
X86178306Y-53937301D01*
X86178302Y-53937307D01*
X86087539Y-54107115D01*
X86031642Y-54291377D01*
X86012770Y-54482999D01*
X86012770Y-54483000D01*
X86031642Y-54674622D01*
X86031643Y-54674624D01*
X86087538Y-54858883D01*
X86121112Y-54921695D01*
X86178302Y-55028692D01*
X86178306Y-55028698D01*
X86300459Y-55177541D01*
X86449302Y-55299694D01*
X86449304Y-55299695D01*
X86449307Y-55299697D01*
X86477202Y-55314607D01*
X86619117Y-55390462D01*
X86619127Y-55390465D01*
X86621955Y-55391637D01*
X86621244Y-55393351D01*
X86653884Y-55420142D01*
X86658568Y-55467747D01*
X86628218Y-55504722D01*
X86598761Y-55512099D01*
X85495934Y-55512099D01*
X85451740Y-55493793D01*
X85433434Y-55449599D01*
X85449951Y-55407269D01*
X85530321Y-55319962D01*
X85530325Y-55319957D01*
X85653414Y-55131557D01*
X85653416Y-55131554D01*
X85743820Y-54925455D01*
X85743821Y-54925451D01*
X85791543Y-54737000D01*
X84885703Y-54737000D01*
X84920925Y-54675993D01*
X84955000Y-54548826D01*
X84955000Y-54417174D01*
X84920925Y-54290007D01*
X84885703Y-54229000D01*
X85791543Y-54229000D01*
X85743821Y-54040548D01*
X85743820Y-54040544D01*
X85653416Y-53834445D01*
X85653414Y-53834442D01*
X85530325Y-53646042D01*
X85530322Y-53646037D01*
X85377898Y-53480461D01*
X85377895Y-53480458D01*
X85200302Y-53342232D01*
X85200300Y-53342231D01*
X85002372Y-53235119D01*
X85002371Y-53235118D01*
X84789507Y-53162041D01*
X84709000Y-53148606D01*
X84709000Y-54052297D01*
X84647993Y-54017075D01*
X84520826Y-53983000D01*
X84389174Y-53983000D01*
X84262007Y-54017075D01*
X84201000Y-54052297D01*
X84201000Y-53148606D01*
X84120492Y-53162041D01*
X83907628Y-53235118D01*
X83907627Y-53235119D01*
X83709699Y-53342231D01*
X83709697Y-53342232D01*
X83532104Y-53480458D01*
X83532101Y-53480461D01*
X83379677Y-53646037D01*
X83379674Y-53646042D01*
X83256585Y-53834442D01*
X83256583Y-53834445D01*
X83166179Y-54040544D01*
X83166178Y-54040548D01*
X83118457Y-54229000D01*
X84024297Y-54229000D01*
X83989075Y-54290007D01*
X83955000Y-54417174D01*
X83955000Y-54548826D01*
X83989075Y-54675993D01*
X84024297Y-54737000D01*
X83118457Y-54737000D01*
X83166178Y-54925451D01*
X83166179Y-54925455D01*
X83256583Y-55131554D01*
X83256585Y-55131557D01*
X83379674Y-55319957D01*
X83379678Y-55319962D01*
X83460049Y-55407269D01*
X83476513Y-55452182D01*
X83456396Y-55495582D01*
X83414066Y-55512099D01*
X83305663Y-55512099D01*
X83305662Y-55512099D01*
X83305656Y-55512100D01*
X83221555Y-55534634D01*
X83221552Y-55534635D01*
X83146146Y-55578172D01*
X83146145Y-55578173D01*
X83115360Y-55608958D01*
X83084575Y-55639744D01*
X83084573Y-55639746D01*
X82346947Y-56377372D01*
X82346945Y-56377374D01*
X82319217Y-56405102D01*
X82285374Y-56438944D01*
X82285373Y-56438945D01*
X82241836Y-56514351D01*
X82241835Y-56514354D01*
X82219301Y-56598455D01*
X82219300Y-56598463D01*
X76251300Y-56598463D01*
X76251300Y-54357540D01*
X76251375Y-54354473D01*
X76266797Y-54040544D01*
X76268025Y-54015541D01*
X76268626Y-54009443D01*
X76318193Y-53675290D01*
X76319389Y-53669283D01*
X76328277Y-53633800D01*
X76401466Y-53341612D01*
X76403243Y-53335754D01*
X76439251Y-53235118D01*
X76517052Y-53017676D01*
X76519386Y-53012044D01*
X76663826Y-52706655D01*
X76666698Y-52701280D01*
X76840380Y-52411508D01*
X76843767Y-52406439D01*
X77045000Y-52135108D01*
X77048887Y-52130372D01*
X77107191Y-52066043D01*
X77150433Y-52045591D01*
X77195472Y-52061706D01*
X77215925Y-52104949D01*
X77216000Y-52108016D01*
X77216000Y-55372000D01*
X80772000Y-55372000D01*
X80772000Y-51816000D01*
X77508016Y-51816000D01*
X77463822Y-51797694D01*
X77445516Y-51753500D01*
X77463822Y-51709306D01*
X77466022Y-51707210D01*
X77530385Y-51648875D01*
X77535096Y-51645009D01*
X77806439Y-51443767D01*
X77811508Y-51440380D01*
X78101280Y-51266698D01*
X78106655Y-51263826D01*
X78412044Y-51119386D01*
X78417676Y-51117052D01*
X78735758Y-51003241D01*
X78741612Y-51001466D01*
X79069291Y-50919387D01*
X79075290Y-50918193D01*
X79409450Y-50868625D01*
X79415541Y-50868025D01*
X79754473Y-50851374D01*
X79757540Y-50851300D01*
X79772668Y-50851300D01*
X114283332Y-50851300D01*
X114298460Y-50851300D01*
X114301526Y-50851374D01*
G37*
%TD.AperFunction*%
%TD*%
M02*
